<svg width="40" height="40" viewBox="0 0 40 40" fill="none" xmlns="http://www.w3.org/2000/svg">
    <path d="M15.3603 26.7321H11.7066V19.5937C11.7066 18.7232 11.7646 17.9687 11.7646 17.2143C11.5326 17.5044 11.2426 17.7946 10.9526 18.0848L9.44473 19.3616L7.58887 17.0401L12.1705 13.2678H15.4183L15.3603 26.7321Z" fill="white"/>
    <path d="M23.2479 13.0938C24.6398 13.0938 25.7417 13.3839 26.5536 13.9643C27.3656 14.5446 27.7135 15.3571 27.7135 16.4018C27.7135 17.0982 27.5396 17.7366 27.1336 18.317C26.7856 18.8393 26.2057 19.3616 25.3937 19.7098C26.3797 20.2902 27.0756 20.8705 27.4816 21.3929C27.8875 21.9732 28.0615 22.5536 28.0615 23.192C28.0615 24.4107 27.6555 25.3393 26.7856 25.9777C25.9157 26.6161 24.7558 26.9643 23.1899 26.9643C21.624 26.9643 20.4061 26.6161 19.5941 25.9777C18.7822 25.3393 18.3762 24.4107 18.3762 23.25C18.3762 22.4955 18.5502 21.7991 18.9562 21.2187C19.3622 20.6964 19.9421 20.1741 20.8121 19.7098C20.1161 19.2455 19.5941 18.7232 19.2462 18.1429C18.8982 17.6205 18.7822 16.9821 18.7822 16.3437C18.7822 15.2991 19.1882 14.5446 19.9421 13.9643C20.696 13.3259 21.798 13.0938 23.2479 13.0938ZM21.624 23.0759C21.624 23.4821 22.0146 24.3629 23.1319 24.3527C24.2491 24.3424 24.7673 23.6804 24.7558 23.1339C24.7442 22.5875 24.4411 22.3178 24.1244 21.9916C23.8078 21.6654 23.6926 21.579 23.1899 21.2768C22.6679 21.567 22.5193 21.6772 22.215 21.9916C21.9106 22.306 21.624 22.7277 21.624 23.0759ZM23.1899 15.7053C22.8883 15.7104 22.5631 15.8263 22.3906 15.9921C22.2182 16.1579 22.088 16.4018 22.088 16.692C22.088 17.2143 22.4359 17.6786 23.1319 18.0848C23.5959 17.8527 23.8278 17.6205 24.0018 17.3884C24.1758 17.1563 24.2338 16.9241 24.2338 16.692C24.2338 16.4018 24.1711 16.2109 23.977 15.9955C23.7829 15.7801 23.4914 15.7003 23.1899 15.7053Z" fill="white"/>
    <path d="M33.8032 21.2186H30.5552V18.8391H33.8032V15.5891H36.1229V18.8391H39.4286V21.2186H36.1809V24.4105H33.8612V21.2186H33.8032Z" fill="white"/>
    <g opacity="0.7">
        <path opacity="0.7" d="M33.2812 27.9508C30.4972 33.0579 25.1617 36.4822 18.9562 36.4822C9.96685 36.4822 2.65938 29.0536 2.65938 19.9999C2.65938 10.9463 9.96685 3.51775 18.9562 3.51775C25.1037 3.51775 30.4972 6.94187 33.2812 12.049H35.601C32.6432 5.78115 26.3216 1.42847 18.9562 1.42847C8.80693 1.42847 0.571533 9.72758 0.571533 19.9999C0.571533 30.2722 8.80693 38.5713 18.9562 38.5713C26.2636 38.5713 32.6432 34.2188 35.601 27.9508H33.2812Z" fill="#FF002E"/>
    </g>
</svg>
