<svg width="160" height="80" viewBox="0 0 160 80" fill="none" xmlns="http://www.w3.org/2000/svg">
<path d="M35.9407 54.8448C35.8074 55.4671 35.6889 56.0004 35.5704 56.5189C32.8741 53.9559 30.1778 51.4078 27.4815 48.8448C27.2889 48.6671 27.2889 48.4893 27.3333 48.2522C27.5111 47.1115 27.6593 45.9559 27.8222 44.8152C28.7259 38.3411 29.6296 31.8819 30.5481 25.4078C30.6667 24.6078 30.8 23.8078 30.9481 22.83C32.1778 24.7708 33.3037 26.5485 34.4741 28.3856C34.7852 27.6893 34.8593 27.1559 34.4296 26.5189C33.3185 24.8893 32.2963 23.2004 31.2593 21.5263C31.0667 21.2152 30.8593 21.0967 30.4889 21.0967C29.2741 21.1263 28.0741 21.1263 26.8593 21.1411C19.5407 21.23 12.2074 21.3041 4.88889 21.3485C4.44444 21.3485 4.23704 21.4671 4.16296 21.9411C3.77778 24.5041 3.37778 27.0522 2.97778 29.6152C2.07407 35.4374 1.17037 41.2596 0.251852 47.0671C0.207407 47.2745 0.296296 47.5708 0 47.7041C0 48.0448 0 48.4004 0 48.7411C0.325926 48.6819 0.459259 48.9782 0.666667 49.1263C4.07407 51.8078 7.46667 54.5189 10.8593 57.2152C11.1407 57.4374 11.4222 57.6152 11.837 57.63C19.5852 57.6893 27.3333 57.7782 35.0815 57.8522C36.3704 57.8671 36.3704 57.8522 36.5778 56.593C36.5778 56.5633 36.5926 56.5485 36.5926 56.5189C36.5778 55.9115 36.3704 55.393 35.9407 54.8448ZM11.6 29.4374C11.7926 28.267 12 27.1115 12.1037 25.9263C12.163 25.3337 12.4 25.2745 12.8889 25.2893C14.1481 25.3189 15.4074 25.3041 16.6667 25.3041C17.9259 25.3041 19.1852 25.3189 20.4444 25.2893C20.9185 25.2745 21.0815 25.3633 21.0222 25.8967C20.3852 30.5782 19.7778 35.2745 19.1704 39.9708C19.0519 40.9189 18.9037 41.8819 18.8148 42.83C18.7704 43.3041 18.6074 43.4374 18.1333 43.4374C16.5037 43.4078 14.8741 43.4078 13.2444 43.4374C12.7556 43.4522 12.6667 43.2893 12.7407 42.8448C13.1704 39.793 13.5852 36.7411 14.0148 33.7041C14.163 32.5782 14.3111 31.4522 14.4889 30.3411C14.5481 29.9559 14.3704 29.9411 14.0889 29.9559C13.3926 29.9708 12.7111 29.9263 12.0148 29.9708C11.5852 29.9559 11.5407 29.8078 11.6 29.4374ZM30.7111 56.8596C24.5926 56.7708 18.4889 56.6819 12.3704 56.6078C11.8963 56.6078 11.5407 56.4745 11.1704 56.1782C8.04445 53.6745 4.88889 51.2004 1.57037 48.593C2.63704 48.593 3.4963 48.593 4.35556 48.593C11.3185 48.593 18.2667 48.593 25.2296 48.593C25.6 48.593 25.9259 48.593 26.237 48.9041C28.7259 51.4671 31.2444 54.0152 33.7481 56.5633C33.8074 56.6374 33.8667 56.7115 34.0148 56.8596C32.8444 56.8596 31.7778 56.8745 30.7111 56.8596ZM27.437 52.4596C26.563 52.9633 25.7037 53.4671 24.7407 54.03C25.6593 54.7115 26.5481 55.3782 27.4222 56.03C27.4074 56.0745 27.3926 56.1189 27.3778 56.1633C26.4 56.0152 25.4074 55.9411 24.4593 55.7041C21.9111 55.0522 19.437 55.3633 16.963 56.0596C16.5037 56.193 16.2222 56.1189 15.9852 55.7041C15.3037 54.43 14.2222 53.7782 12.8 53.5115C11.437 53.2596 10.1185 52.8004 8.8 52.3115C10.3407 52.2078 11.8815 52.0745 13.4222 52.0004C13.9704 51.9708 14.3111 51.8374 14.5333 51.2745C15.1259 49.8078 15.1556 49.8226 16.6074 50.3559C17.363 50.6374 18.163 50.8596 18.8889 51.2152C20.637 52.0596 22.5185 52.03 24.3852 52.1485C25.3926 52.2078 26.4 52.267 27.4074 52.3263C27.4074 52.3708 27.4222 52.4152 27.437 52.4596Z" fill="url(#paint0_linear_6537_8)"/>
<path d="M92.3407 20.1779C84.3407 20.1928 76.3407 20.2076 68.3407 20.1779C67.7481 20.1779 67.6148 20.3854 67.5407 20.9187C66.9333 25.4372 66.2815 29.9557 65.6889 34.4742C65.4963 35.9113 65.0518 37.3483 65.2148 38.8002C65.6741 42.815 66.237 46.8298 66.7407 50.8298C67.1111 53.7928 67.4815 56.7409 67.8518 59.7039C76.2518 59.7039 84.637 59.7039 93.037 59.7039C93.0667 57.2594 93.1111 54.815 93.1407 52.3705C93.2593 41.8816 93.2593 31.3928 93.0667 20.9039C93.0518 20.3557 92.9333 20.1779 92.3407 20.1779ZM71.5704 34.1631C71.9407 31.2002 72.2815 28.2372 72.637 25.2742C72.7111 24.6076 72.8296 23.9557 72.8741 23.2891C72.9037 22.9335 72.963 22.7557 73.3778 22.7705C76.3852 22.7854 79.4074 22.7409 82.4148 22.815C83.9555 22.8446 85.4222 23.3039 86.7407 24.1631C89.1704 25.7335 89.1555 28.5187 86.6963 30.0594C85.3333 30.9187 83.8222 31.3039 82.2518 31.5854C81.0074 31.8076 79.7333 31.7039 78.4889 31.6891C77.9704 31.6891 77.8074 31.852 77.7926 32.3557C77.7778 32.9928 77.6592 33.6298 77.6444 34.2668C77.6296 34.7409 77.437 34.8446 77.0074 34.8298C76.1926 34.8002 75.3778 34.815 74.563 34.815C73.7778 34.815 72.9778 34.7854 72.1926 34.8298C71.6741 34.8298 71.4963 34.7113 71.5704 34.1631ZM92.0444 58.0891C92.0444 58.6224 91.8963 58.7261 91.3926 58.7261C84.0593 58.7113 76.7407 58.7113 69.4074 58.7261C68.7555 58.7261 68.6074 58.5335 68.5333 57.9261C67.7481 51.5854 66.9481 45.2594 66.1185 38.9335C66.0444 38.3705 66.3704 38.4742 66.6815 38.4742C70.8444 38.4742 75.0222 38.4742 79.1852 38.4742C79.1852 38.4891 79.1852 38.5039 79.1852 38.5187C83.3333 38.5187 87.4815 38.5335 91.6148 38.5039C92.1333 38.5039 92.237 38.6224 92.237 39.1409C92.1481 45.452 92.0889 51.7779 92.0444 58.0891ZM157.763 32.3261C156.267 28.4298 154.8 24.5187 153.319 20.6076C153.244 20.415 153.067 20.2372 153.185 19.9854C144.696 19.9854 136.193 19.9854 127.704 19.9854C127.704 20.0891 127.704 20.1779 127.689 20.2816C127.126 23.8372 126.563 27.3928 125.985 30.9335C125.867 31.6298 125.956 32.2668 126.296 32.9779C126.933 29.5113 127.556 26.1631 128.163 22.8002C128.4 22.8446 128.4 22.9779 128.43 23.0965C129.585 28.0298 130.741 32.9779 131.911 37.9113C131.97 38.1631 131.956 38.3854 131.911 38.6372C131.096 42.6372 130.281 46.652 129.467 50.652C129.022 52.8446 128.563 55.0224 128.118 57.2002C128.074 57.2002 128.044 57.2002 128 57.2002C127.348 53.3779 126.681 49.5705 126.03 45.7483C125.822 46.5039 125.481 47.2298 125.615 48.0298C125.956 50.1187 126.311 52.2076 126.622 54.3113C126.889 56.1039 127.304 57.8816 127.422 59.6891C136.059 59.6891 144.711 59.6891 153.348 59.6891C153.763 57.852 154.43 56.0742 154.978 54.2816C156.578 49.1261 158.222 43.9705 159.837 38.815C159.867 38.6965 159.867 38.5631 160 38.5187C160 38.3705 160 38.2224 160 38.0742C159.126 36.2076 158.504 34.252 157.763 32.3261ZM137.511 22.5483C137.807 22.5483 138.015 22.7409 138.237 22.8891C140.77 24.5335 143.304 26.1928 146.044 27.9854C145.363 26.0742 144.756 24.3705 144.104 22.5483C145.926 22.5483 147.659 22.5483 149.393 22.5483C149.659 22.5483 149.718 22.7409 149.778 22.9187C151.2 26.8446 152.637 30.7705 154.104 34.7854C152.474 34.7854 150.904 34.8002 149.348 34.7705C149.17 34.7705 148.993 34.6224 148.83 34.5187C146.37 32.8742 143.926 31.2298 141.467 29.5854C141.259 29.452 141.081 29.2594 140.83 29.3631C141.318 31.0372 141.807 32.7113 142.296 34.3705C142.4 34.6965 142.281 34.7557 141.985 34.7557C140.311 34.7557 138.622 34.7409 136.948 34.7557C136.474 34.7557 136.459 34.4298 136.385 34.1335C135.422 30.6668 134.459 27.215 133.496 23.7483C133.393 23.3779 133.289 22.9928 133.17 22.5483C134.652 22.5483 136.074 22.5483 137.511 22.5483ZM157.156 44.3261C155.733 48.8594 154.296 53.3779 152.904 57.9113C152.711 58.5335 152.459 58.7261 151.793 58.7261C144.415 58.6965 137.037 58.6965 129.659 58.7261C129.052 58.7261 128.889 58.6668 129.022 57.9854C130.341 51.6298 131.63 45.2446 132.904 38.8742C132.978 38.5335 133.052 38.3113 133.496 38.3113C141.881 38.3261 150.281 38.3261 158.667 38.3261C158.756 38.3261 158.859 38.3557 159.007 38.3854C158.37 40.3854 157.763 42.3557 157.156 44.3261ZM62.7111 56.5779C62.5185 56.3705 62.4444 56.1779 62.4 55.9705C61.5111 51.8816 60.6222 47.7928 59.763 43.6891C59.5852 42.8594 59.2444 42.0446 59.3926 41.1557C60.1185 36.652 60.8444 32.1483 61.5555 27.6594C61.7037 26.7113 61.8667 25.7631 62.0296 24.815C62.0741 24.815 62.1185 24.8298 62.163 24.8298C62.8593 28.0446 63.5704 31.2446 64.2667 34.4594C64.3111 34.4446 64.3555 34.4446 64.4148 34.4298C63.837 29.8816 63.2444 25.3335 62.6815 20.7854C62.6222 20.2965 62.4296 20.1928 61.9852 20.1928C53.8074 20.2076 45.6444 20.2076 37.4667 20.1928C36.9926 20.1928 36.8148 20.3113 36.6963 20.815C35.1111 27.5557 33.4963 34.2816 31.8963 41.0076C31.8222 41.3483 31.763 41.6742 31.8963 42.015C33.837 47.452 35.7778 52.9039 37.6741 58.3557C37.9259 59.0965 38.2667 59.2891 39.0222 59.2742C46.8444 59.1557 54.6667 59.0816 62.4889 59.0076C63.1407 59.0076 63.3481 58.8298 63.4222 58.1779C63.7185 55.0076 64.0889 51.852 64.4 48.6817C64.4889 47.7928 64.6963 46.9039 64.4593 45.9854C63.8667 49.5113 63.2889 53.0372 62.7111 56.5779ZM49.0815 32.4742C48 32.0594 46.8444 31.9113 45.7037 31.7039C44.8741 31.5557 44.0444 31.4372 43.2741 31.0965C40.0593 29.6891 40.5926 27.2742 42.163 25.4816C43.4074 24.0446 45.1555 23.5113 46.9333 23.1854C49.9555 22.6372 52.9185 22.9187 55.8074 24.0002C55.9111 24.0446 56.0296 24.0891 56.1778 24.1631C55.4963 25.1557 54.8148 26.0891 54.1926 27.052C53.9555 27.4224 53.7333 27.452 53.3481 27.2742C51.9704 26.6816 50.5185 26.4298 49.037 26.3854C48.4148 26.3705 47.8074 26.4446 47.2593 26.7705C47.0222 26.9187 46.8148 27.0965 46.8148 27.4076C46.8296 27.7483 47.1259 27.8372 47.363 27.9261C48.4593 28.3261 49.6444 28.3113 50.7704 28.5928C51.5852 28.8002 52.4 28.9631 53.2 29.215C55.4815 29.9261 56.2815 32.2668 54.9037 34.2372C53.8963 35.6891 52.4889 36.5335 50.8 36.9187C47.1111 37.7631 43.4667 37.6594 39.8667 36.4742C39.6593 36.4002 39.4518 36.3261 39.2444 36.2372C39.1852 36.2076 39.1407 36.1483 39.0518 36.0594C39.8667 34.9779 40.6963 33.9113 41.5111 32.8298C41.8074 32.4446 42.0444 32.7557 42.2667 32.8594C44.1333 33.7483 46.0741 34.1483 48.1481 33.9409C48.5185 33.8965 48.8741 33.7928 49.2 33.6002C49.4222 33.4668 49.6741 33.3039 49.6741 32.9779C49.6296 32.6372 49.3185 32.5631 49.0815 32.4742ZM61.3185 58.0891C54.0444 58.1483 46.7555 58.2372 39.4815 58.3409C38.8444 58.3557 38.6518 58.1039 38.4593 57.5705C36.6667 52.5187 34.8593 47.4668 33.037 42.4298C32.8296 41.852 32.8148 41.6446 33.5556 41.6446C37.5556 41.6742 41.5556 41.6594 45.5555 41.6594C45.5555 41.6298 45.5555 41.615 45.5555 41.5854C49.5852 41.5854 53.6 41.6002 57.6296 41.5705C58.1481 41.5705 58.3259 41.6891 58.4296 42.2224C59.5111 47.3039 60.637 52.3854 61.7481 57.452C61.837 57.852 61.8815 58.0891 61.3185 58.0891ZM123.23 59.3779C124.296 53.2298 125.393 47.0816 126.444 40.9335C126.637 39.7631 127.022 38.6224 126.756 37.3779C125.57 31.9261 124.43 26.4446 123.304 20.9779C123.185 20.415 123.022 20.1779 122.37 20.1779C114.4 20.2076 106.43 20.1928 98.4592 20.1928C98.3407 20.1928 98.2074 20.2076 98.0889 20.1928C97.7778 20.1631 97.6592 20.2965 97.6592 20.6076C97.5852 23.9557 97.4963 27.3039 97.4074 30.6668C97.4074 31.1854 97.4074 31.6891 97.4074 32.2076C97.4222 32.2076 97.4518 32.2076 97.4667 32.2224C97.5111 31.7039 97.5555 31.1854 97.6 30.6668C97.7333 29.3335 97.8667 28.0002 98 26.6668C98.9778 34.9928 98.7704 43.3039 98.2518 51.6298C98.0296 50.1335 97.8222 48.6224 97.6 47.1261C97.5407 46.652 97.4815 46.1928 97.4222 45.7187C97.363 46.1928 97.2889 46.6668 97.437 47.1261C97.5704 50.1483 97.6889 53.1705 97.8667 56.1928C97.9259 57.3187 97.837 58.4594 98.1037 59.5705C102.148 59.5705 106.178 59.5705 110.222 59.5705C114.267 59.5705 118.296 59.5705 122.341 59.5705C118.296 59.5705 114.267 59.5705 110.222 59.5705C106.178 59.5705 102.148 59.5705 98.1037 59.5705C98.0889 59.615 98.0889 59.6742 98.0741 59.7187C106.415 59.7187 114.77 59.7187 123.111 59.7187C123.156 59.7187 123.215 59.7187 123.259 59.7187C123.111 59.615 123.2 59.4965 123.23 59.3779ZM108.726 22.6816C110.237 22.7261 111.733 22.6965 113.244 22.6668C113.63 22.652 113.807 22.7409 113.867 23.1409C114.415 26.8742 114.978 30.6076 115.541 34.3261C115.6 34.6816 115.467 34.7557 115.156 34.7409C114.311 34.7261 113.481 34.7409 112.637 34.7409C111.822 34.7409 111.007 34.7261 110.193 34.7409C109.852 34.7409 109.674 34.7113 109.615 34.2816C109.156 30.6372 108.667 26.9928 108.163 23.3631C108.089 22.8891 108.133 22.6668 108.726 22.6816ZM122.519 58.1187C122.444 58.5187 122.326 58.6965 121.867 58.6965C114.489 58.6817 107.111 58.6816 99.7333 58.6816C99.4074 58.6816 99.1407 58.7409 99.1555 58.2076C99.3926 51.7483 99.6148 45.2891 99.8074 38.8298C99.8222 38.3113 100 38.2372 100.444 38.2372C104.593 38.252 108.741 38.252 112.874 38.252C116.993 38.252 121.111 38.2668 125.23 38.2372C125.763 38.2372 125.926 38.2816 125.807 38.9039C124.696 45.3039 123.6 51.7039 122.519 58.1187ZM78.1926 27.0965C78.2963 25.6742 78.2963 25.6594 79.7481 25.6742C80.3555 25.6742 80.9778 25.6002 81.5852 25.7779C82.1185 25.9261 82.5333 26.2076 82.6222 26.7854C82.7259 27.3928 82.4296 27.8224 81.9556 28.1631C81.2444 28.6668 80.4296 28.6224 79.8222 28.5928C78.0889 28.5928 78.0889 28.5928 78.1926 27.0965Z" fill="url(#paint1_linear_6537_8)"/>
<path d="M115.022 41.8369C113.496 41.8814 111.97 41.8666 110.43 41.8369C109.956 41.8221 109.748 41.911 109.704 42.4443C109.585 44.0443 109.393 45.6295 109.23 47.2295C108.963 49.9258 108.711 52.6221 108.43 55.3184C108.385 55.8073 108.474 56.0295 109.022 55.9851C109.733 55.9406 110.444 55.9703 111.17 55.9703C111.881 55.9703 112.607 55.911 113.319 55.9851C114.015 56.074 114.133 55.7184 114.193 55.1703C114.356 53.5999 114.548 52.0443 114.741 50.474C115.052 47.8369 115.363 45.1851 115.704 42.548C115.793 41.9554 115.6 41.8221 115.022 41.8369Z" fill="url(#paint2_linear_6537_8)"/>
<path d="M86.7556 41.778C86.163 41.7632 85.9111 41.9113 85.7778 42.5187C85.363 44.3261 84.8593 46.1187 84.4 47.9261C84.1185 47.8521 84.1185 47.615 84.0593 47.4521C83.3482 45.778 82.6222 44.1187 81.9556 42.415C81.763 41.9261 81.5111 41.7484 80.9778 41.778C80.0444 41.8224 79.0963 41.8076 78.163 41.778C77.7481 41.7632 77.5704 41.8965 77.437 42.2965C76.9333 43.8965 76.3852 45.4669 75.837 47.0521C75.7481 47.3039 75.763 47.6299 75.4667 47.7928C74.8593 45.9558 74.2667 44.1336 73.6889 42.2965C73.5852 41.941 73.4667 41.7632 73.0519 41.7632C71.3778 41.7928 69.7037 41.778 67.9704 41.778C68 41.941 67.9852 42.0299 68.0148 42.0891C69.7926 46.5187 71.5852 50.9336 73.3481 55.3632C73.4963 55.7187 73.7185 55.7484 74.0296 55.7484C75.1704 55.7336 76.2963 55.7039 77.437 55.7632C78.0593 55.7928 78.3407 55.615 78.5185 54.9928C78.963 53.4076 79.4963 51.8521 80.0444 50.1484C80.7704 51.941 81.4519 53.5706 82.1037 55.2002C82.2519 55.5854 82.4444 55.778 82.9037 55.7632C84.0593 55.7187 85.2296 55.7336 86.3852 55.7632C86.8444 55.778 87.0222 55.6299 87.1407 55.2002C87.8667 52.6965 88.6074 50.1928 89.363 47.7039C89.9407 45.7484 90.5333 43.7928 91.1259 41.7928C89.6148 41.7928 88.1778 41.8224 86.7556 41.778Z" fill="url(#paint3_linear_6537_8)"/>
<path d="M148.83 41.6001C148.43 41.6001 148.356 41.7927 148.267 42.1186C147.733 44.0297 147.156 45.926 146.563 47.9853C144.978 45.9408 143.481 44.0297 141.985 42.1038C141.778 41.8223 141.585 41.6001 141.17 41.6001C139.793 41.6297 138.4 41.6297 137.022 41.6001C136.652 41.6001 136.519 41.7186 136.444 42.089C136.193 43.289 135.911 44.489 135.644 45.689C134.948 48.7557 134.252 51.8371 133.526 54.9038C133.393 55.4816 133.541 55.6001 134.104 55.5705C135.185 55.526 136.281 55.5557 137.363 55.5557C139.037 55.5557 139.037 55.5557 139.467 53.9112C139.852 52.4445 140.237 50.9927 140.652 49.4371C142.252 51.4075 143.778 53.2742 145.274 55.1557C145.511 55.452 145.748 55.5705 146.133 55.5705C147.289 55.5408 148.459 55.5408 149.615 55.5705C150.089 55.5853 150.281 55.452 150.415 54.9779C151.319 51.8668 152.281 48.7557 153.215 45.6445C153.615 44.3112 154.015 42.9927 154.43 41.6001C152.474 41.6001 150.652 41.6149 148.83 41.6001Z" fill="url(#paint4_linear_6537_8)"/>
<path d="M57.4963 51.8965C57.3926 51.2891 57.1259 51.1113 56.5185 51.1409C55.1852 51.2002 55.1852 51.1557 54.7852 49.8668C54.6963 49.6002 54.6519 49.3335 54.2222 49.3483C52.6667 49.3779 51.1111 49.3631 49.5556 49.3483C49.2 49.3483 49.1259 49.4668 49.2 49.7928C49.3037 50.2224 49.6148 50.7853 49.3778 51.0372C49.0963 51.3483 48.4889 51.0816 48.0296 51.1113C47.837 51.1261 47.6593 51.1113 47.3333 51.1113C48.9481 48.8594 50.4889 46.7261 52.1185 44.4742C50.1481 44.4742 48.3556 44.4891 46.563 44.4594C46.1185 44.4446 45.8518 44.6076 45.6 44.9483C44.3407 46.7113 43.1407 48.5335 41.7333 50.1631C40.7407 51.3187 40.6074 52.3557 41.2296 53.6594C41.4222 54.0594 41.5852 54.2076 42.0148 54.2076C44.2815 54.2076 46.5481 54.2224 48.8148 54.2372C50.2519 54.2372 50.237 54.2372 50.6519 55.615C50.7259 55.8816 50.7407 56.1928 51.1704 56.1928C52.7556 56.1779 54.3259 56.1779 55.9111 56.1928C56.2667 56.1928 56.3407 56.0594 56.2667 55.7483C56.1481 55.2446 56.0444 54.7557 55.9111 54.1928C56.6667 54.1928 57.3482 54.1928 58.0296 54.1928C58.0444 54.1187 58.0593 54.0891 58.0444 54.0742C57.8667 53.3631 57.6444 52.6372 57.4963 51.8965Z" fill="url(#paint5_linear_6537_8)"/>
<defs>
<linearGradient id="paint0_linear_6537_8" x1="18.2881" y1="57.8512" x2="18.2881" y2="21.1321" gradientUnits="userSpaceOnUse">
<stop stop-color="#FDF000"/>
<stop offset="0.1412" stop-color="#FACD01"/>
<stop offset="0.2659" stop-color="#F9B601"/>
<stop offset="0.3432" stop-color="#F8AD01"/>
<stop offset="0.9903" stop-color="#FDEF00"/>
<stop offset="1" stop-color="#FDF000"/>
</linearGradient>
<linearGradient id="paint1_linear_6537_8" x1="95.9034" y1="20.0002" x2="95.9034" y2="59.7039" gradientUnits="userSpaceOnUse">
<stop offset="0.0326633" stop-color="white"/>
<stop offset="0.4724" stop-color="#DBDEE1"/>
<stop offset="1" stop-color="#FDFDFD"/>
</linearGradient>
<linearGradient id="paint2_linear_6537_8" x1="112.08" y1="41.8388" x2="112.08" y2="56.0063" gradientUnits="userSpaceOnUse">
<stop offset="0.0326633" stop-color="#F8AD01"/>
<stop offset="1" stop-color="#FDF000"/>
</linearGradient>
<linearGradient id="paint3_linear_6537_8" x1="79.5323" y1="41.7713" x2="79.5323" y2="55.7645" gradientUnits="userSpaceOnUse">
<stop offset="0.0326633" stop-color="#F8AD01"/>
<stop offset="1" stop-color="#FDF000"/>
</linearGradient>
<linearGradient id="paint4_linear_6537_8" x1="143.929" y1="41.5927" x2="143.929" y2="55.5715" gradientUnits="userSpaceOnUse">
<stop offset="0.0326633" stop-color="#F8AD01"/>
<stop offset="1" stop-color="#FDF000"/>
</linearGradient>
<linearGradient id="paint5_linear_6537_8" x1="49.4611" y1="44.4769" x2="49.4611" y2="56.2267" gradientUnits="userSpaceOnUse">
<stop offset="0.0326633" stop-color="#F8AD01"/>
<stop offset="1" stop-color="#FDF000"/>
</linearGradient>
</defs>
</svg>
