<svg width="160" height="80" viewBox="0 0 160 80" fill="none" xmlns="http://www.w3.org/2000/svg">
<path d="M82.6796 33.0038V45.2126C82.6914 46.3135 82.5489 47.4107 82.2563 48.472C82.0056 49.3877 81.5561 50.2367 80.9398 50.9585C80.3311 51.6601 79.5663 52.2087 78.7069 52.5602C77.6821 52.9545 76.5902 53.1443 75.4926 53.119C74.3518 53.1281 73.2158 52.9712 72.12 52.6533C71.016 52.3129 70.0063 51.7199 69.1708 50.9212L71.0827 48.1833C71.6671 48.7604 72.3391 49.2413 73.0736 49.6081C73.8185 49.9505 74.6313 50.1192 75.4507 50.1017C76.1086 50.1203 76.7635 50.0063 77.3765 49.7665C77.8639 49.5661 78.2927 49.2458 78.6232 48.8352C78.9435 48.4233 79.1705 47.9467 79.2884 47.4383C79.4271 46.8384 79.4942 46.2241 79.4884 45.6084V44.6306H79.4373C78.9766 45.2826 78.3413 45.791 77.6045 46.0973C76.8687 46.4086 76.0774 46.567 75.2786 46.5629C74.3775 46.5834 73.4831 46.4037 72.6596 46.0368C71.8998 45.6874 71.218 45.1886 70.6547 44.57C70.0854 43.9362 69.6474 43.1955 69.3662 42.3909C69.0565 41.5308 68.899 40.6232 68.901 39.7089C68.8927 38.7702 69.0357 37.8362 69.3243 36.943C69.5866 36.1222 70.0105 35.3622 70.571 34.708C71.1192 34.0758 71.7944 33.5665 72.5527 33.2134C73.3822 32.838 74.2847 32.6519 75.1949 32.6686C76.0682 32.6617 76.9317 32.8527 77.7208 33.2273C78.5135 33.6125 79.1647 34.2382 79.5815 35.0153H79.6373V33.0038H82.6796ZM75.8787 35.6858C75.3509 35.6787 74.8272 35.7784 74.3389 35.9792C73.8934 36.1647 73.4911 36.4405 73.1574 36.7894C72.8178 37.1519 72.5551 37.5796 72.3852 38.0466C72.1938 38.5699 72.0992 39.1237 72.1061 39.6809C72.1014 40.1971 72.1962 40.7093 72.3852 41.1896C72.5655 41.6463 72.8325 42.0637 73.1713 42.4188C73.5107 42.7745 73.917 43.0593 74.3668 43.257C74.8357 43.4637 75.3431 43.5685 75.8554 43.5643C76.3982 43.5727 76.9368 43.468 77.437 43.257C77.8868 43.0655 78.2935 42.7852 78.6325 42.4328C78.9684 42.0753 79.2266 41.652 79.3908 41.1896C79.5707 40.6878 79.6605 40.1581 79.6559 39.6251C79.7024 38.5799 79.3403 37.5578 78.6465 36.7754C78.2893 36.4056 77.8569 36.1169 77.3786 35.9289C76.9002 35.7409 76.3871 35.658 75.874 35.6858H75.8787Z" fill="white"/>
<path d="M92.6622 44.5701H92.5832C92.1744 45.2846 91.5645 45.8627 90.8294 46.2324C90.1036 46.5798 89.3081 46.7566 88.5036 46.7492C87.9237 46.7497 87.347 46.6649 86.7917 46.4978C86.2533 46.3403 85.7486 46.0846 85.3031 45.7434C84.8659 45.4055 84.5072 44.9766 84.2518 44.4862C83.9674 43.9451 83.8204 43.3423 83.8239 42.7308C83.8049 42.0897 83.9321 41.4528 84.196 40.8683C84.4389 40.37 84.7883 39.9313 85.2194 39.5832C85.6521 39.2292 86.1411 38.9506 86.6661 38.759C87.2211 38.5511 87.7942 38.3952 88.378 38.2934C88.9719 38.1911 89.5716 38.1258 90.1735 38.0978C90.7752 38.0699 91.3427 38.0559 91.8761 38.0559H92.6622V37.6927C92.6834 37.339 92.6197 36.9854 92.4764 36.6614C92.3332 36.3374 92.1146 36.0524 91.8389 35.8302C91.2292 35.3923 90.4907 35.171 89.7409 35.2016C89.1101 35.1982 88.4848 35.3198 87.9011 35.5596C87.3175 35.7994 86.7871 36.1525 86.3405 36.5985L84.6705 34.8151C85.3511 34.0703 86.2041 33.5042 87.1545 33.1668C88.0971 32.8325 89.0899 32.6624 90.0898 32.6639C90.8636 32.6453 91.6352 32.7539 92.3738 32.9852C92.9317 33.1667 93.453 33.4457 93.9136 33.8094C94.3007 34.1271 94.6175 34.5219 94.8439 34.9688C95.0542 35.3898 95.2105 35.8356 95.3091 36.2958C95.4037 36.7231 95.4612 37.1578 95.4812 37.5949C95.4998 38.014 95.5091 38.3819 95.5091 38.6985V46.4139H92.6622V44.5701ZM92.4762 40.4073H91.811C91.3675 40.4073 90.8713 40.426 90.3224 40.4632C89.7966 40.4966 89.2758 40.5856 88.7687 40.7286C88.3251 40.8478 87.9093 41.0535 87.5453 41.3339C87.3778 41.4693 87.2445 41.6423 87.1564 41.8389C87.0683 42.0355 87.0278 42.2502 87.0383 42.4654C87.0286 42.7444 87.098 43.0204 87.2383 43.2616C87.3717 43.4764 87.5473 43.6618 87.7546 43.8064C87.9727 43.9579 88.2173 44.0669 88.4757 44.1277C88.7359 44.1924 89.003 44.2252 89.2711 44.2255C90.3689 44.2255 91.1799 43.9508 91.704 43.4013C92.2521 42.7848 92.5346 41.9764 92.4901 41.1523L92.4762 40.4073Z" fill="white"/>
<path d="M97.2396 33.0038H100.268V35.0992H100.319C100.632 34.4348 101.103 33.8576 101.691 33.4182C102.43 32.8906 103.325 32.6296 104.231 32.6779C106.235 32.6779 107.563 33.5067 108.218 35.1643C108.609 34.3954 109.207 33.7506 109.944 33.3018C110.699 32.8854 111.552 32.6781 112.414 32.7012C113.158 32.6838 113.896 32.8434 114.567 33.1668C115.13 33.4388 115.617 33.8449 115.986 34.3495C116.364 34.9028 116.631 35.5243 116.772 36.1794C116.935 36.9178 117.015 37.6722 117.01 38.4284V46.4139H113.819V38.8149C113.819 38.4166 113.783 38.0192 113.712 37.6275C113.65 37.2722 113.524 36.9313 113.339 36.6218C113.164 36.3351 112.917 36.0992 112.623 35.9373C112.261 35.7561 111.86 35.6696 111.455 35.6858C111.041 35.6674 110.628 35.7567 110.258 35.9452C109.888 36.1337 109.573 36.4149 109.344 36.7614C109.121 37.1019 108.963 37.4808 108.878 37.879C108.782 38.2958 108.733 38.7223 108.734 39.1501V46.4139H105.543V38.4237C105.578 37.722 105.402 37.0259 105.036 36.4262C104.844 36.1688 104.589 35.9653 104.296 35.8356C104.002 35.7059 103.681 35.6543 103.361 35.6858C102.899 35.6715 102.44 35.7672 102.022 35.9652C101.667 36.1445 101.359 36.4025 101.119 36.7195C100.865 37.0423 100.679 37.4128 100.57 37.8091C100.463 38.229 100.41 38.6609 100.412 39.0942V46.4139H97.221L97.2396 33.0038Z" fill="white"/>
<path d="M118.949 33.0038H122.141V46.414H118.949V33.0038Z" fill="white"/>
<path d="M124.211 33.0038H127.239V35.155H127.29C127.607 34.4682 128.086 33.8689 128.686 33.4089C129.418 32.8803 130.31 32.619 131.211 32.6686C131.96 32.6522 132.703 32.8117 133.379 33.1342C133.944 33.41 134.439 33.8113 134.826 34.3076C135.204 34.8055 135.474 35.3762 135.621 35.9839C135.782 36.6327 135.862 37.299 135.859 37.9674V46.4139H132.667V39.6251C132.667 39.2526 132.65 38.8382 132.616 38.3818C132.585 37.9424 132.491 37.5097 132.337 37.0967C132.194 36.7063 131.952 36.3598 131.635 36.0909C131.263 35.8037 130.801 35.6599 130.332 35.6859C129.87 35.6715 129.411 35.7672 128.993 35.9652C128.638 36.1445 128.33 36.4026 128.09 36.7195C127.839 37.0429 127.656 37.4134 127.551 37.8091C127.443 38.229 127.39 38.6609 127.392 39.0943V46.4139H124.201L124.211 33.0038Z" fill="white"/>
<path d="M151 33.0038V45.2126C151.012 46.3135 150.87 47.4107 150.577 48.472C150.326 49.3877 149.877 50.2368 149.26 50.9585C148.645 51.6534 147.876 52.194 147.014 52.5369C145.989 52.9312 144.897 53.121 143.799 53.0957C142.658 53.1048 141.522 52.948 140.427 52.6301C139.323 52.2896 138.313 51.6966 137.477 50.8979L139.389 48.16C139.974 48.7371 140.646 49.218 141.38 49.5849C142.129 49.9325 142.946 50.1045 143.771 50.0877C144.429 50.1064 145.084 49.9924 145.697 49.7525C146.184 49.5522 146.613 49.2318 146.944 48.8212C147.264 48.4094 147.491 47.9327 147.609 47.4243C147.748 46.8244 147.815 46.2102 147.809 45.5944V44.6166H147.758C147.297 45.2686 146.662 45.7771 145.925 46.0833C145.189 46.3946 144.398 46.553 143.599 46.549C142.701 46.5615 141.812 46.3755 140.994 46.0042C140.234 45.6548 139.553 45.156 138.989 44.5374C138.42 43.9036 137.982 43.1629 137.701 42.3583C137.391 41.4982 137.234 40.5906 137.236 39.6763C137.227 38.7376 137.37 37.8036 137.659 36.9105C137.921 36.0896 138.345 35.3296 138.906 34.6754C139.454 34.0432 140.129 33.5339 140.887 33.1808C141.717 32.8054 142.619 32.6193 143.529 32.636C144.403 32.6291 145.266 32.8201 146.055 33.1947C146.848 33.5799 147.499 34.2056 147.916 34.9827H147.967V33.0038H151ZM144.199 35.6858C143.671 35.6787 143.148 35.7784 142.66 35.9792C142.214 36.1647 141.812 36.4405 141.478 36.7894C141.138 37.1519 140.876 37.5796 140.706 38.0466C140.514 38.5699 140.42 39.1237 140.427 39.6809C140.422 40.1971 140.517 40.7093 140.706 41.1896C140.89 41.6474 141.162 42.0649 141.506 42.4188C141.845 42.7745 142.252 43.0593 142.701 43.257C143.17 43.4637 143.678 43.5685 144.19 43.5643C144.733 43.5727 145.271 43.468 145.772 43.257C146.221 43.0655 146.628 42.7852 146.967 42.4328C147.303 42.0753 147.561 41.652 147.725 41.1896C147.905 40.6878 147.995 40.1581 147.99 39.6251C148.037 38.5799 147.675 37.5578 146.981 36.7754C146.622 36.4038 146.188 36.114 145.707 35.926C145.226 35.7379 144.71 35.656 144.195 35.6858H144.199Z" fill="white"/>
<path d="M118.498 28.4546C118.497 27.9316 118.703 27.4294 119.07 27.0578C119.254 26.8571 119.477 26.6977 119.727 26.5901C119.976 26.4826 120.246 26.4293 120.517 26.4338C120.788 26.4268 121.059 26.4739 121.312 26.5722C121.565 26.6705 121.796 26.8181 121.992 27.0065C122.182 27.1949 122.332 27.419 122.435 27.6659C122.538 27.9129 122.591 28.1778 122.591 28.4453C122.591 28.7129 122.538 28.9778 122.435 29.2247C122.332 29.4717 122.182 29.6958 121.992 29.8841C121.796 30.0725 121.565 30.2201 121.312 30.3185C121.059 30.4168 120.788 30.4638 120.517 30.4568C120.247 30.4646 119.979 30.4151 119.729 30.3116C119.48 30.2081 119.255 30.0529 119.07 29.8562C118.702 29.4834 118.496 28.9793 118.498 28.4546Z" fill="#009444"/>
<path d="M24.7464 50.5447L32.5148 39.8027L24.3975 28.2504C24.6096 28.1418 24.8509 28.1043 25.086 28.1433C26.4815 28.1433 27.877 28.1713 29.3051 28.1433C29.492 28.1328 29.6782 28.1747 29.8426 28.2644C30.0069 28.3541 30.143 28.4879 30.2355 28.6509C31.7101 30.7695 33.208 32.8741 34.6965 34.9788C34.8872 35.2535 35.0873 35.5189 35.3059 35.8262C37.041 33.4375 38.7482 31.1187 40.4228 28.7719C40.5399 28.5368 40.7304 28.3463 40.9655 28.2295C41.2007 28.1126 41.4674 28.0759 41.7253 28.1247C41.927 28.1627 42.1355 28.1359 42.321 28.0481C42.5065 27.9603 42.6595 27.816 42.758 27.6358C45.2886 24.1762 47.8378 20.7305 50.3823 17.2756C50.5452 17.1084 50.6677 16.9061 50.7405 16.6842C50.6746 16.6208 50.6046 16.5617 50.5312 16.5073C50.0241 16.1907 49.5217 15.7995 48.9728 15.5062C45.7707 13.8161 42.2921 12.7138 38.7017 12.2514C38.2877 12.1956 37.8365 12.2514 37.4643 12H32.766C32.4451 12.2747 32.0357 12.1956 31.6682 12.2468C27.5979 12.8049 23.7052 14.2729 20.2788 16.5419C16.8524 18.8109 13.9801 21.8228 11.8749 25.3542C9.98434 28.5211 8.75034 32.0366 8.24654 35.6912C8.19537 36.0544 8.27445 36.4688 8 36.7901V41.7769C8.18142 41.8375 8.13025 41.9958 8.1442 42.1215C8.24997 43.105 8.40523 44.0825 8.60938 45.0503C9.61575 49.4757 11.6725 53.5931 14.6055 57.0542C15.8025 58.4854 17.1292 59.8025 18.5688 60.9888C19.0852 60.5232 25.5465 51.1314 25.686 50.6611C25.393 50.5587 25.0674 50.7077 24.7464 50.5447ZM16.9779 48.2725C16.9779 43.0823 16.9779 37.8905 16.9779 32.6972C16.9968 32.3528 16.9639 32.0074 16.8802 31.6728C16.8014 31.3824 16.6382 31.1221 16.4113 30.9247C16.1843 30.7274 15.9039 30.6021 15.6056 30.5646C14.9906 30.4658 14.3673 30.4283 13.7449 30.4529C13.6969 29.763 13.6969 29.0707 13.7449 28.3808C13.841 28.3555 13.9391 28.3384 14.038 28.3296C15.6754 28.3296 17.2942 28.3296 18.9456 28.3529C19.779 28.3514 20.592 28.6102 21.2715 29.0932C21.6542 29.389 21.9745 29.7577 22.214 30.1781C22.4535 30.5985 22.6075 31.0622 22.667 31.5424C22.7557 32.042 22.8009 32.5483 22.8019 33.0557C22.8019 38.1776 22.8019 43.2996 22.8019 48.4215C22.8271 48.6447 22.8016 48.8707 22.7275 49.0827H17.0849C16.8942 48.8219 16.9779 48.5379 16.9779 48.2725Z" fill="#009444"/>
<path d="M52.657 17.992L45.563 28.2358C45.9305 28.4174 46.2655 28.2358 46.6143 28.4174L38.8505 39.1781L46.9539 50.7396C46.8538 50.7729 46.7511 50.7978 46.6469 50.8141C45.0327 50.8141 43.4186 50.8141 41.8044 50.8141C41.6683 50.8143 41.5349 50.776 41.4196 50.7034C41.3044 50.6309 41.212 50.5272 41.1532 50.4044C40.2228 49.0634 39.2692 47.7317 38.3249 46.3953L36.0409 43.1639C35.9525 43.2616 35.8827 43.3268 35.8315 43.4013C34.1755 45.6829 32.5148 47.9459 30.8867 50.2368C30.5471 50.7024 30.1982 51.0097 29.5889 50.8886C29.3762 50.8482 29.156 50.8804 28.9638 50.98C28.7715 51.0796 28.6181 51.2409 28.5283 51.4381C26.1093 55.0281 23.6579 58.5994 21.2203 62.1801C21.1366 62.3058 20.997 62.4223 21.0529 62.6038C32.259 70.0539 49.6101 68.3637 58.6671 54.8698C67.4682 41.7623 63.077 26.1731 52.657 17.992ZM47.6843 44.2767C47.6724 43.6542 47.7876 43.0358 48.0228 42.4593C48.2579 41.8829 48.6081 41.3605 49.0519 40.9242C49.8647 40.1413 50.7338 39.4192 51.6522 38.7637C52.4012 38.149 53.1687 37.567 53.9176 36.9524C54.1783 36.7201 54.4252 36.4729 54.6573 36.212C54.9791 35.9124 55.2298 35.5444 55.3908 35.1351C55.5518 34.7257 55.619 34.2854 55.5876 33.8466C55.5504 33.381 55.5876 32.8781 55.5876 32.3939C55.5895 32.0767 55.5056 31.765 55.3446 31.4918C55.1837 31.2186 54.9519 30.9941 54.6737 30.8423C54.3955 30.6904 54.0815 30.6168 53.7649 30.6293C53.4483 30.6418 53.141 30.7399 52.8756 30.9132C52.6962 31.0196 52.5482 31.1718 52.4469 31.3542C52.3455 31.5367 52.2944 31.7428 52.2988 31.9515C52.2988 32.4591 52.2988 32.9666 52.2988 33.4741C52.3104 33.5878 52.2916 33.7025 52.2441 33.8065C52.1967 33.9104 52.1225 33.9998 52.029 34.0655C50.6847 35.034 49.3449 36.0118 48.0052 36.985C47.9218 37.0187 47.8342 37.0406 47.7447 37.0502C47.7447 36.4262 47.7447 35.8349 47.7447 35.2435C47.7447 34.4845 47.7447 33.7209 47.7447 32.9619C47.8424 30.5407 49.1775 29.195 51.3452 28.7201C53.3283 28.273 55.3918 28.3322 57.346 28.8923C58.4857 29.2183 59.4439 29.8236 59.8486 31.0482C59.9233 31.2888 59.9701 31.5372 59.9882 31.7885C60.0879 33.0065 60.0879 34.2305 59.9882 35.4484C59.8563 36.4197 59.3567 37.3031 58.5927 37.9162C57.3739 39.0803 55.9598 40.0022 54.648 41.0499C53.8929 41.6216 53.2455 42.3232 52.7361 43.1219C52.1453 44.0998 52.2337 45.1893 52.3035 46.3162C54.8573 46.4046 57.3832 46.2556 59.9603 46.4279V48.9423H47.7773C47.6832 48.7288 47.6556 48.4919 47.6982 48.2625C47.6936 46.9541 47.7354 45.6131 47.6843 44.2767Z" fill="white"/>
</svg>
