<svg width="160" height="80" viewBox="0 0 160 80" fill="none" xmlns="http://www.w3.org/2000/svg">
<g clip-path="url(#clip0)">
<path d="M64.6753 30.156C64.0156 29.3313 63.3559 29.1664 63.191 29.6612C63.026 30.156 63.5208 31.4753 64.1805 32.2999C64.1805 32.2999 64.1805 32.4649 64.3454 32.4649C65.0051 33.2895 65.6648 33.4544 65.8297 32.9596C65.9946 32.2999 65.4999 31.1455 64.6753 30.156ZM64.6753 30.156C64.8402 30.156 64.6753 30.156 64.6753 30.156ZM57.7485 27.8471C57.0889 27.0224 56.4292 26.8575 56.2642 27.3523C56.0993 27.847 56.5941 29.1664 57.2538 29.991C57.2538 29.991 57.2538 30.156 57.4187 30.156C58.0784 30.9806 58.7381 31.1455 58.903 30.6507C59.0679 30.156 58.5731 28.8366 57.7485 27.8471ZM57.7485 27.8471C57.9135 28.012 57.9135 27.8471 57.7485 27.8471ZM71.602 24.8785C71.437 23.2292 69.9527 21.9099 68.3035 21.7449L54.4501 20.7554C52.8009 20.5905 50.6569 21.58 49.5024 22.7345L45.3794 27.0224C44.3899 28.1769 43.5653 30.4858 43.7302 32.135L45.2145 45.8235C45.3794 47.4727 46.8637 48.7921 48.5129 48.957L62.3663 49.9466C64.0156 50.1115 66.1595 49.1219 67.314 47.9675L71.437 43.6795C72.4266 42.5251 73.2512 40.2162 73.0863 38.567L71.602 24.8785ZM69.6229 39.7214C69.6229 39.7214 69.6229 39.5565 69.6229 39.7214C69.458 38.402 69.7878 37.2476 70.2826 36.7528C70.7774 36.2581 71.2721 36.9177 71.2721 37.9073C71.2721 37.9073 71.2721 37.9073 71.2721 38.0722C71.2721 39.2266 71.1072 40.3811 70.6124 40.8759C70.1177 41.3706 69.6229 40.8759 69.6229 39.7214ZM62.8611 25.0434C62.6962 25.0434 62.6962 25.0434 62.8611 25.0434C61.7067 24.8785 61.2119 24.5486 61.7067 24.0538C62.2014 23.5591 63.3559 23.2292 64.5103 23.3942H64.6753C65.6648 23.5591 66.1595 23.8889 65.6648 24.3837C65.0051 24.7135 63.8506 25.0434 62.8611 25.0434ZM57.5836 19.436C56.2642 18.1167 53.9553 17.6219 52.471 18.6114L41.4213 25.3732C39.7721 26.3628 38.2878 28.6717 38.1229 30.4858L37.4632 35.4334C37.1333 37.2476 37.9579 40.0513 39.2773 41.3706L47.8532 50.9361C49.1726 52.2555 51.4815 52.7502 52.9658 51.7607L64.0156 44.9989C65.6648 44.0094 67.1491 41.7005 67.314 39.8863L67.9737 34.9387C68.3035 33.1245 67.4789 30.3209 66.1595 29.0015L57.5836 19.436ZM59.8925 42.1952C59.0679 41.3706 57.9135 41.2057 56.9239 41.7005C55.9344 42.1952 55.7695 43.3497 56.4292 44.1743C57.2538 44.9989 58.5731 45.1638 59.3978 44.6691C60.3873 44.1743 60.5522 43.0198 59.8925 42.1952ZM21.6307 49.122C23.7747 52.4204 28.8872 55.7188 32.8454 56.2136L45.5443 57.8628C49.5025 58.3576 53.7904 55.7188 55.1098 51.7607L59.0679 39.3916C60.2224 35.5984 59.5627 29.6612 57.2538 26.3628L56.2642 24.8785C54.1203 21.58 49.0077 18.2816 45.0496 17.7868L32.3506 16.1376C28.3925 15.6428 23.9396 18.2816 22.7851 22.2397L18.827 34.6088C17.6726 38.402 18.3322 44.3392 20.6412 47.6377L21.6307 49.122ZM24.2694 41.8654L36.4736 43.5146C40.2668 44.0094 44.5548 41.3706 45.7093 37.7424L49.5024 26.0329C50.6569 22.2397 48.5129 18.7764 44.7197 18.2816L32.6804 16.6324C28.8872 16.1376 24.5993 18.7764 23.4448 22.4046L19.6516 34.1141C18.3322 37.9073 20.4762 41.3706 24.2694 41.8654ZM41.2564 26.5277C42.7407 26.8575 44.3899 25.7031 45.0496 24.2188C45.5443 22.7345 44.7197 21.4151 43.2354 21.0853C41.7511 20.7554 40.1019 21.9099 39.4422 23.3942C38.7825 25.0434 39.7721 26.3628 41.2564 26.5277ZM55.1098 51.2659L58.903 39.5565C60.0574 35.7633 60.0574 31.1455 58.7381 29.3313L54.7799 23.2292C53.4606 21.2502 51.4815 22.7345 50.3271 26.5277L46.5339 38.2371C45.3794 42.0303 45.3794 46.6481 46.6988 48.4623L50.6569 54.5644C51.8114 56.5434 53.7904 55.0591 55.1098 51.2659ZM57.5836 37.0827C58.0784 35.7633 58.0784 33.9492 57.5836 33.1245C57.0889 32.135 56.2642 32.6298 55.7695 34.1141V34.279C55.2747 35.5984 55.2747 37.4125 55.7695 38.2371C56.2642 39.2266 57.0889 38.7319 57.5836 37.2476C57.4187 37.2476 57.4187 37.0827 57.5836 37.0827ZM49.8323 44.9989C50.3271 43.6795 50.3271 41.8654 49.8323 41.0408C49.3375 40.0513 48.5129 40.546 48.0182 42.0303V42.1952C47.5234 43.5146 47.5234 45.3288 48.0182 46.1534C48.5129 47.1429 49.3375 46.6481 49.8323 45.1638V44.9989ZM33.0103 56.0487L45.0496 57.6979C48.8428 58.1926 50.9867 57.0382 49.6674 55.0591L45.7093 48.957C44.3899 46.978 40.2668 44.9989 36.3087 44.5041L24.1045 42.8549C20.3113 42.3602 18.0024 43.5146 19.4867 45.4937L23.4448 51.5958C24.9291 53.4099 29.0522 55.389 33.0103 56.0487ZM47.5234 32.4649C46.5339 28.5067 42.7407 23.8889 39.1124 22.2397L23.9396 14.8182C20.1464 13.0041 15.3637 14.3235 12.8898 17.6219L2.82961 31.3104C0.520702 34.6088 -0.63375 40.3811 0.35578 44.3392L1.34531 48.4623C2.49976 52.2555 6.29296 56.8733 9.92124 58.5225L24.9291 65.944C28.5574 67.7581 33.505 66.4387 35.8139 63.3052L45.8742 49.6167C48.1831 46.3183 49.3375 40.546 48.348 36.5879L47.5234 32.4649ZM42.081 40.3811L29.5469 34.279C25.5888 32.2999 20.1464 33.7842 17.3427 37.2476L9.09663 48.6272C6.45788 52.2555 7.61234 56.8733 11.5705 58.6874L24.1045 64.7895C28.0626 66.7686 33.505 65.2843 36.3087 61.8209L44.7197 50.6062C47.1935 46.813 46.204 42.3602 42.081 40.3811ZM39.2773 45.9884C37.793 45.1638 35.4841 45.6586 34.4946 47.1429C33.505 48.4623 33.8349 50.2764 35.4841 51.101C36.9684 51.9256 39.2773 51.4309 40.2668 49.9466C41.2564 48.6272 40.9265 46.8131 39.2773 45.9884ZM18.3322 50.9361C16.848 50.1115 14.539 50.6062 13.5495 52.0905C12.56 53.4099 12.8898 55.2241 14.539 56.0487C16.0233 56.8733 18.3322 56.3785 19.3218 54.8942C20.3113 53.4099 19.9815 51.5958 18.3322 50.9361ZM12.2301 19.1062L3.98406 30.3209C1.34531 33.9492 -0.303907 39.0617 0.35578 41.5356L2.49976 49.7816C3.15945 52.4204 5.96312 51.5958 8.60187 47.9675L16.848 36.7528C19.4867 33.1245 21.1359 28.012 20.4762 25.5381L18.3322 17.2921C17.5076 14.6533 14.8689 15.4779 12.2301 19.1062ZM13.2197 21.9099C12.2301 23.2292 11.5705 25.2083 11.9003 26.1978C12.0652 27.3523 13.0548 27.1874 14.2092 25.7031L14.3741 25.5381C15.3637 24.2188 16.0233 22.2397 15.6935 21.2502C15.5286 20.0957 14.539 20.2607 13.3846 21.7449C13.3846 21.7449 13.3846 21.7449 13.2197 21.9099ZM6.45788 41.5356C5.46835 42.8549 4.80867 44.834 5.13851 45.8235C5.30343 46.978 6.29296 46.813 7.44741 45.3288C7.44741 45.3288 7.44741 45.3288 7.44741 45.1638C8.43694 43.8445 9.09663 41.8654 8.76679 40.8759C8.43694 39.8863 7.61234 39.8863 6.45788 41.3706C6.45788 41.3706 6.45788 41.3706 6.45788 41.5356ZM37.793 21.9099L25.259 15.8078C21.3008 13.8287 18.4972 14.4884 19.1569 16.9622L21.3008 25.0434C21.9605 27.6821 25.7537 31.3104 29.8768 33.2895L42.4108 39.3916C46.3689 41.3706 49.1726 40.7109 48.5129 38.2371L46.3689 30.156C45.7093 27.5172 41.7511 23.8889 37.793 21.9099ZM39.1124 25.3732C37.6281 24.5486 36.6386 24.8785 36.8035 25.7031C36.9684 26.6926 38.2878 28.1769 39.937 29.0015L40.1019 29.1664C41.5862 29.8261 42.5757 29.6612 42.4108 28.8366C42.2459 27.847 40.9265 26.3628 39.2773 25.5381C39.2773 25.3732 39.2773 25.3732 39.1124 25.3732ZM27.5679 26.3628C26.0836 25.7031 25.094 25.868 25.259 26.6926C25.4239 27.6821 26.7433 29.1664 28.3925 29.991L28.5574 30.156C30.0417 30.9806 31.0312 30.6507 30.8663 29.8261C30.7014 28.8366 29.382 27.3523 27.7328 26.5277C27.7328 26.3628 27.7328 26.3628 27.5679 26.3628Z" stroke="#1E2123" stroke-width="1.5" stroke-miterlimit="10"/>
<path d="M71.6019 24.8785C71.437 23.2293 69.9527 21.9099 68.3035 21.745L54.4501 20.7555C52.8009 20.5906 50.6569 21.5801 49.5024 22.7345L45.3794 27.0225C44.3899 28.177 43.5652 30.4859 43.7302 32.1351L45.2145 45.8236C45.3794 47.4728 46.8637 48.7922 48.5129 48.9571L62.3663 49.9466C64.0155 50.1115 66.1595 49.122 67.314 47.9676L71.437 43.6796C72.4265 42.5251 73.2511 40.2162 73.0862 38.567L71.6019 24.8785Z" fill="url(#paint0_linear)"/>
<path d="M69.6229 39.7213C69.6229 39.7213 69.6229 39.5564 69.6229 39.7213C69.4579 38.4019 69.7878 37.2475 70.2825 36.7527C70.7773 36.258 71.2721 36.9176 71.2721 37.9072C71.2721 37.9072 71.2721 37.9072 71.2721 38.0721C71.2721 39.2265 71.1072 40.381 70.6124 40.8758C70.1176 41.3705 69.6229 40.8758 69.6229 39.7213Z" fill="white"/>
<path d="M62.8611 25.0434C62.6961 25.0434 62.6961 25.0434 62.8611 25.0434C61.7066 24.8785 61.2118 24.5487 61.7066 24.0539C62.2014 23.5591 63.3558 23.2293 64.5103 23.3942H64.6752C65.6647 23.5591 66.1595 23.889 65.6647 24.3837C65.005 24.7136 63.8506 25.0434 62.8611 25.0434Z" fill="white"/>
<path d="M57.5836 19.436C56.2642 18.1166 53.9553 17.6219 52.471 18.6114L41.4213 25.3732C39.7721 26.3627 38.2878 28.6716 38.1229 30.4858L37.4632 35.4334C37.1333 37.2475 37.9579 40.0512 39.2773 41.3706L47.8532 50.936C49.1726 52.2554 51.4815 52.7502 52.9658 51.7607L64.0156 44.9989C65.6648 44.0093 67.1491 41.7004 67.314 39.8863L67.9737 34.9386C68.3035 33.1245 67.4789 30.3208 66.1595 29.0015L57.5836 19.436Z" fill="url(#paint1_linear)"/>
<path d="M64.6753 30.156C64.0156 29.3314 63.3559 29.1665 63.191 29.6612C63.026 30.156 63.5208 31.4754 64.1805 32.3C64.1805 32.3 64.1805 32.4649 64.3454 32.4649C65.0051 33.2895 65.6648 33.4544 65.8297 32.9597C65.9946 32.3 65.4999 31.1455 64.6753 30.156C64.8402 30.156 64.6753 30.156 64.6753 30.156Z" fill="white"/>
<path d="M57.7485 27.847C57.0888 27.0224 56.4291 26.8575 56.2642 27.3523C56.0993 27.847 56.594 29.1664 57.2537 29.991C57.2537 29.991 57.2537 30.1559 57.4187 30.1559C58.0783 30.9806 58.738 31.1455 58.903 30.6507C59.0679 30.1559 58.5731 28.8366 57.7485 27.847C57.9134 28.012 57.9134 27.847 57.7485 27.847Z" fill="white"/>
<path d="M59.8926 42.1952C59.0679 41.3706 57.9135 41.2057 56.924 41.7004C55.9344 42.1952 55.7695 43.3496 56.4292 44.1743C57.2538 44.9989 58.5732 45.1638 59.3978 44.669C60.3873 44.1742 60.5522 43.0198 59.8926 42.1952Z" fill="white"/>
<path d="M21.6307 49.1219C23.7747 52.4203 28.8873 55.7187 32.8454 56.2135L45.5444 57.8627C49.5025 58.3575 53.7905 55.7187 55.1098 51.7606L59.0679 39.3915C60.2224 35.5983 59.5627 29.6611 57.2538 26.3627L56.2643 24.8784C54.1203 21.5799 49.0077 18.2815 45.0496 17.7867L32.3506 16.1375C28.3925 15.6428 23.9396 18.2815 22.7852 22.2396L18.827 34.6087C17.6726 38.4019 18.3323 44.3391 20.6412 47.6376L21.6307 49.1219Z" fill="url(#paint2_radial)"/>
<path d="M57.5837 37.0826C58.0784 35.7632 58.0784 33.949 57.5837 33.1244C57.0889 32.1349 56.2643 32.6297 55.7695 34.114V34.2789C55.2747 35.5983 55.2747 37.4124 55.7695 38.237C56.2643 39.2265 57.0889 38.7318 57.5837 37.2475C57.4187 37.2475 57.4187 37.0826 57.5837 37.0826Z" fill="white"/>
<path d="M49.8323 44.9989C50.3271 43.6796 50.3271 41.8654 49.8323 41.0408C49.3375 40.0513 48.5129 40.546 48.0182 42.0303V42.1953C47.5234 43.5146 47.5234 45.3288 48.0182 46.1534C48.5129 47.1429 49.3375 46.6482 49.8323 45.1639V44.9989Z" fill="white"/>
<path d="M47.5234 32.4649C46.5339 28.5067 42.7407 23.8889 39.1124 22.2397L23.9396 14.8182C20.1464 13.0041 15.3637 14.3235 12.8898 17.6219L2.82961 31.3104C0.520702 34.6088 -0.63375 40.3811 0.35578 44.3392L1.34531 48.4623C2.49976 52.2555 6.29296 56.8733 9.92124 58.5225L24.9291 65.944C28.5574 67.7581 33.505 66.4387 35.8139 63.3052L45.8742 49.6167C48.1831 46.3183 49.3375 40.546 48.348 36.5879L47.5234 32.4649Z" fill="url(#paint3_radial)"/>
<path d="M42.081 40.3811L29.547 34.279C25.5888 32.2999 20.1464 33.7842 17.3428 37.2476L9.09667 48.6272C6.45792 52.2555 7.61238 56.8733 11.5705 58.6874L24.1045 64.7895C28.0627 66.7686 33.5051 65.2843 36.3088 61.8209L44.7198 50.6063C47.1936 46.8131 46.2041 42.3602 42.081 40.3811Z" fill="url(#paint4_radial)"/>
<path d="M39.2773 45.9884C37.793 45.1638 35.4841 45.6586 34.4946 47.1429C33.5051 48.4623 33.8349 50.2764 35.4841 51.101C36.9684 51.9256 39.2773 51.4308 40.2669 49.9465C41.2564 48.6272 40.9265 46.813 39.2773 45.9884Z" fill="url(#paint5_linear)"/>
<path d="M18.3323 50.9361C16.848 50.1115 14.5391 50.6062 13.5495 52.0905C12.56 53.4099 12.8898 55.224 14.5391 56.0486C16.0234 56.8732 18.3323 56.3785 19.3218 54.8942C20.3113 53.4099 19.9815 51.5957 18.3323 50.9361Z" fill="url(#paint6_linear)"/>
<path d="M12.2302 19.1062L3.98407 30.3209C1.34532 33.9492 -0.303895 39.0617 0.355792 41.5356L2.49977 49.7817C3.15946 52.4204 5.96313 51.5958 8.60188 47.9675L16.848 36.7528C19.4867 33.1246 21.1359 28.012 20.4762 25.5382L18.3323 17.2921C17.5077 14.6533 14.8689 15.4779 12.2302 19.1062Z" fill="url(#paint7_linear)"/>
<path d="M13.2197 21.9098C12.2302 23.2292 11.5705 25.2083 11.9003 26.1978C12.0652 27.3523 13.0548 27.1873 14.2092 25.703L14.3741 25.5381C15.3637 24.2188 16.0234 22.2397 15.6935 21.2502C15.5286 20.0957 14.5391 20.2606 13.3846 21.7449C13.3846 21.7449 13.3846 21.7449 13.2197 21.9098Z" fill="white"/>
<path d="M6.45791 41.5357C5.46838 42.8551 4.80869 44.8342 5.13854 45.8237C5.30346 46.9781 6.29299 46.8132 7.44744 45.3289C7.44744 45.3289 7.44744 45.3289 7.44744 45.164C8.43697 43.8446 9.09666 41.8656 8.76681 40.876C8.43697 39.8865 7.61236 39.8865 6.45791 41.3708C6.45791 41.3708 6.45791 41.3708 6.45791 41.5357Z" fill="white"/>
<path d="M37.793 21.9098L25.259 15.8077C21.3009 13.8286 18.4972 14.4883 19.1569 16.9621L21.3009 25.0433C21.9606 27.682 25.7538 31.3103 29.8768 33.2894L42.4108 39.3915C46.369 41.3705 49.1726 40.7108 48.5129 38.237L46.369 30.1558C45.7093 27.5171 41.7512 23.8888 37.793 21.9098Z" fill="url(#paint8_radial)"/>
<path d="M39.1125 25.3732C37.6282 24.5486 36.6386 24.8784 36.8036 25.703C36.9685 26.6925 38.2879 28.1768 39.9371 29.0014L40.102 29.1664C41.5863 29.826 42.5758 29.6611 42.4109 28.8365C42.246 27.847 40.9266 26.3627 39.2774 25.5381C39.2774 25.3732 39.2774 25.3732 39.1125 25.3732Z" fill="white"/>
<path d="M27.5679 26.3626C26.0836 25.7029 25.0941 25.8679 25.259 26.6925C25.4239 27.682 26.7433 29.1663 28.3925 29.9909L28.5574 30.1558C30.0417 30.9804 31.0313 30.6506 30.8663 29.826C30.7014 28.8364 29.382 27.3522 27.7328 26.5275C27.7328 26.3626 27.7328 26.3626 27.5679 26.3626Z" fill="white"/>
<path d="M93.5366 41.7005C93.2067 41.7005 91.0627 41.5355 88.2591 41.5355C85.4554 41.5355 81.8271 41.3706 78.5287 41.3706H77.3742L76.8795 40.3811C79.0234 38.5669 85.6203 33.4544 85.6203 29.3313C85.6203 25.3732 81.0025 24.7135 78.1988 24.7135L79.1884 19.7659C88.9187 20.5905 92.7119 24.2188 92.7119 28.012C92.7119 32.6298 88.2591 35.4334 87.1046 36.258V36.5879L93.7015 36.258V41.7005H93.5366Z" fill="white" stroke="#010101" stroke-width="0.5" stroke-miterlimit="10"/>
<path d="M100.298 27.0225C100.298 26.033 100.298 20.7555 100.133 20.0958C104.421 20.0958 106.73 20.0958 109.369 20.4257C115.636 21.2503 116.461 23.7241 116.461 25.3733C116.461 26.5278 115.801 28.3419 112.667 29.8262V29.9911C114.811 30.321 117.285 31.8053 117.285 34.6089C117.285 38.0723 112.667 41.5356 102.772 41.5356H99.9685C100.133 39.8864 100.133 30.8157 100.133 30.321L100.298 27.0225ZM106.565 29.1665C107.885 29.1665 110.029 28.0121 110.029 25.7032C110.029 23.7241 107.885 23.3943 106.565 23.3943V29.1665ZM106.565 37.9074C108.215 37.9074 110.688 36.588 110.688 34.9388C110.688 33.1246 108.544 31.9702 106.565 32.1351V37.9074Z" fill="white" stroke="#010101" stroke-width="0.5" stroke-miterlimit="10"/>
<path d="M124.872 41.3706C124.872 40.7109 125.037 37.5774 125.037 37.0827V35.7633C125.037 31.9701 123.387 28.8366 121.078 27.3523C119.924 26.5277 118.605 26.0329 117.615 25.7031L119.924 19.601C121.903 20.2606 124.047 21.2502 125.531 22.7345C126.686 23.8889 127.675 25.3732 128.5 27.6821H128.83C129.489 25.7031 130.644 24.0538 132.128 22.7345C133.448 21.4151 135.427 20.2606 137.736 19.601L139.55 25.7031C138.23 26.0329 136.416 26.8575 134.932 28.012C133.118 29.4963 131.633 32.2999 131.633 35.7633V37.5774C131.633 37.9073 131.798 40.7109 131.798 41.3706H124.872Z" fill="white" stroke="#010101" stroke-width="0.5" stroke-miterlimit="10"/>
<path d="M158.351 41.7005C158.021 41.7005 155.877 41.5355 153.073 41.5355C150.27 41.5355 146.641 41.3706 143.343 41.3706H142.188L141.859 40.3811C144.003 38.5669 150.599 33.4544 150.599 29.3313C150.599 25.3732 145.982 24.7135 143.178 24.7135L144.167 19.7659C153.898 20.5905 157.691 24.2188 157.691 28.012C157.691 32.6298 153.238 35.4334 152.084 36.258V36.5879L158.681 36.258L158.351 41.7005Z" fill="white" stroke="#010101" stroke-width="0.5" stroke-miterlimit="10"/>
<path d="M81.8271 57.6977V56.2134H89.2486V65.1192H86.9397V63.4699C86.4449 63.9647 85.6203 64.4595 84.9606 64.7893C84.136 65.1192 83.3114 65.1192 82.3219 65.1192C81.9921 65.1192 81.6622 65.1192 81.1674 65.1192C80.6727 65.1192 80.1779 64.9542 79.8481 64.7893C79.3533 64.6244 78.8585 64.2946 78.5287 63.9647C78.0339 63.6349 77.5392 63.1401 77.2093 62.4804C76.8795 61.8207 76.5496 61.161 76.2198 60.1715C75.89 59.182 75.89 58.0275 75.89 56.7082C75.89 55.0589 76.0549 53.5746 76.3847 52.4202C76.7146 51.2657 77.2093 50.2762 77.7041 49.6165C78.3638 48.7919 79.0235 48.2971 79.8481 47.9673C80.6727 47.6375 81.6622 47.4725 82.6517 47.4725C83.6413 47.4725 84.4659 47.6375 84.9606 47.8024C85.6203 48.1322 86.28 48.2971 86.6099 48.7919C87.1046 49.2867 87.4345 49.7814 87.5994 50.2762C87.7643 50.771 87.9292 51.4307 87.9292 52.0903H85.6203C85.6203 51.7605 85.6203 51.2657 85.4554 50.9359C85.2905 50.6061 85.1256 50.2762 84.9606 49.9464C84.6308 49.6165 84.301 49.4516 83.9711 49.1218C83.6413 48.7919 82.9816 48.7919 82.6517 48.7919C81.8271 48.7919 81.3324 48.9568 80.8376 49.1218C80.3428 49.4516 79.8481 49.7814 79.5182 50.1113C79.1884 50.4411 78.8585 51.1008 78.6936 51.4307C78.5287 51.9254 78.3638 52.5851 78.1989 53.0799C78.0339 53.5746 78.0339 54.2343 78.0339 54.7291C78.0339 55.2239 78.0339 55.7186 78.0339 56.0485C78.0339 56.3783 78.0339 56.8731 78.0339 57.3678C78.0339 57.8626 78.1989 58.3574 78.1989 59.0171C78.3638 59.5118 78.5287 60.0066 78.5287 60.6663C78.6936 61.161 79.0235 61.6558 79.3533 61.9856C79.6832 62.3155 80.1779 62.8103 80.6727 62.9752C81.1675 63.305 81.8271 63.305 82.4868 63.305C82.9816 63.305 83.4764 63.1401 84.136 62.9752C84.6308 62.8103 85.1256 62.4804 85.4554 62.1506C85.7853 61.8207 86.28 61.326 86.4449 60.6663C86.7748 60.0066 86.7748 59.3469 86.7748 58.5223V57.3678L81.8271 57.6977Z" fill="#EC2227" stroke="#010101" stroke-width="0.5" stroke-miterlimit="10"/>
<path d="M105.741 64.7893H103.267L101.453 59.8417H94.856L93.0418 64.7893H90.568L98.1544 46.483L105.741 64.7893ZM95.5156 58.3574H100.958L98.1544 51.4307L95.5156 58.3574Z" fill="#EC2227" stroke="#010101" stroke-width="0.5" stroke-miterlimit="10"/>
<path d="M118.605 47.8025H120.914V64.7894H118.605V51.9255L114.152 60.1716L109.699 51.9255V64.7894H107.39V47.8025H109.534L114.152 56.2135L118.605 47.8025Z" fill="#EC2227" stroke="#010101" stroke-width="0.5" stroke-miterlimit="10"/>
<path d="M130.974 49.2868H128.005V63.3051H130.974V64.7894H122.893V63.3051H125.861V49.2868H122.893V47.8025H130.974V49.2868Z" fill="#EC2227" stroke="#010101" stroke-width="0.5" stroke-miterlimit="10"/>
<path d="M133.283 47.8025H135.921L142.518 60.5015H142.683V47.8025H144.992V64.9543H142.848L135.756 51.2658V64.7894H133.448L133.283 47.8025Z" fill="#EC2227" stroke="#010101" stroke-width="0.5" stroke-miterlimit="10"/>
<path d="M152.579 57.6977V56.2134H160V65.1192H157.691V63.4699C157.196 63.9647 156.372 64.4595 155.712 64.7893C154.887 65.1192 154.063 65.2841 153.238 65.2841C152.908 65.2841 152.579 65.2841 152.084 65.2841C151.589 65.2841 151.094 65.1192 150.764 64.9542C150.27 64.7893 149.775 64.4595 149.445 64.1296C148.95 63.7998 148.455 63.305 148.126 62.6453C147.796 61.9856 147.466 61.3259 147.136 60.3364C146.806 59.3469 146.806 58.1924 146.806 56.8731C146.806 55.2238 146.971 53.7396 147.301 52.5851C147.631 51.4307 148.126 50.4411 148.62 49.7814C149.28 48.9568 149.94 48.4621 150.764 48.1322C151.589 47.8024 152.579 47.6375 153.568 47.6375C154.558 47.6375 155.382 47.8024 155.877 47.9673C156.537 48.2971 157.196 48.4621 157.526 48.9568C158.021 49.4516 158.351 49.9464 158.516 50.4411C158.681 50.9359 158.846 51.5956 158.846 52.2553H156.537C156.537 51.9254 156.537 51.4306 156.372 51.1008C156.207 50.771 156.042 50.4411 155.877 50.1113C155.547 49.7814 155.217 49.6165 154.887 49.2867C154.558 49.1217 153.898 48.9568 153.568 48.9568C152.743 48.9568 152.249 49.1217 151.754 49.2867C151.259 49.6165 150.764 49.9464 150.435 50.2762C150.105 50.606 149.775 51.2657 149.61 51.5956C149.445 52.0903 149.28 52.75 149.115 53.2448C149.115 53.7396 148.95 54.3992 148.95 54.894C148.95 55.3888 148.95 55.8835 148.95 56.2134C148.95 56.5432 148.95 57.038 148.95 57.5328C148.95 58.0275 149.115 58.5223 149.115 59.182C149.28 59.6767 149.445 60.1715 149.445 60.8312C149.61 61.326 149.94 61.8207 150.27 62.1506C150.599 62.4804 151.094 62.9752 151.589 63.1401C152.084 63.4699 152.743 63.4699 153.403 63.4699C153.898 63.4699 154.393 63.305 155.052 63.1401C155.547 62.9752 156.042 62.6453 156.372 62.3155C156.702 61.9856 157.196 61.4909 157.361 60.8312C157.691 60.1715 157.691 59.5118 157.691 58.6872V57.5328L152.579 57.6977Z" fill="#EC2227" stroke="#010101" stroke-width="0.5" stroke-miterlimit="10"/>
</g>
<defs>
<linearGradient id="paint0_linear" x1="50.375" y1="21.8861" x2="66.3559" y2="48.7342" gradientUnits="userSpaceOnUse">
<stop stop-color="#9E1D22"/>
<stop offset="0.8616" stop-color="#DA2228"/>
</linearGradient>
<linearGradient id="paint1_linear" x1="42.7135" y1="47.3681" x2="60.7694" y2="25.6164" gradientUnits="userSpaceOnUse">
<stop offset="0.4969" stop-color="#9E1D22"/>
<stop offset="0.6851" stop-color="#E02228"/>
</linearGradient>
<radialGradient id="paint2_radial" cx="0" cy="0" r="1" gradientUnits="userSpaceOnUse" gradientTransform="translate(39.0093 36.9879) rotate(161.721) scale(22.0524)">
<stop offset="0.3968" stop-color="#EF3731"/>
<stop offset="1" stop-color="#B42026"/>
</radialGradient>
<radialGradient id="paint3_radial" cx="0" cy="0" r="1" gradientUnits="userSpaceOnUse" gradientTransform="translate(24.5032 40.3811) scale(25.4127)">
<stop offset="0.3968" stop-color="#EF3731"/>
<stop offset="1" stop-color="#B42026"/>
</radialGradient>
<radialGradient id="paint4_radial" cx="0" cy="0" r="1" gradientUnits="userSpaceOnUse" gradientTransform="translate(45.7052 44.3705) scale(39.2803)">
<stop offset="0.1791" stop-color="#B42026"/>
<stop offset="1" stop-color="#DA2228"/>
</radialGradient>
<linearGradient id="paint5_linear" x1="38.8845" y1="51.1002" x2="35.9324" y2="45.9869" gradientUnits="userSpaceOnUse">
<stop stop-color="#B0B8B8"/>
<stop offset="0.6488" stop-color="white"/>
<stop offset="1" stop-color="white"/>
</linearGradient>
<linearGradient id="paint6_linear" x1="16.7127" y1="56.3397" x2="16.2035" y2="50.527" gradientUnits="userSpaceOnUse">
<stop stop-color="#B0B8B8"/>
<stop offset="0.6488" stop-color="white"/>
<stop offset="1" stop-color="white"/>
</linearGradient>
<linearGradient id="paint7_linear" x1="3.65916" y1="29.6364" x2="20.1753" y2="39.1722" gradientUnits="userSpaceOnUse">
<stop stop-color="#9E1D22"/>
<stop offset="0.5215" stop-color="#DA2228"/>
</linearGradient>
<radialGradient id="paint8_radial" cx="0" cy="0" r="1" gradientUnits="userSpaceOnUse" gradientTransform="translate(22.9059 30.9562) scale(21.187)">
<stop offset="0.1932" stop-color="#F15A59"/>
<stop offset="0.8498" stop-color="#D52328"/>
</radialGradient>
<clipPath id="clip0">
<rect width="160" height="80" fill="white"/>
</clipPath>
</defs>
</svg>
