<svg width="160" height="80" viewBox="0 0 160 80" fill="none" xmlns="http://www.w3.org/2000/svg">
<path fill-rule="evenodd" clip-rule="evenodd" d="M48.0059 26H56.5117C56.1647 26.2961 55.8823 26.6708 55.7235 27.2026C54.5529 27.257 53.3764 27.4262 52.2059 27.7223C50.8941 28.0547 49.7529 28.8584 49.7529 30.2424C49.7529 30.6896 49.8706 31.1126 50.0706 31.4812L50.0588 31.1911L50.2352 31.1005C50.3941 31.0159 50.5647 30.9434 50.7294 30.8708C51.1529 30.6896 51.5941 30.5385 52.0352 30.4116C54.6235 29.6622 58.4352 29.6622 61.0235 30.4116C61.4647 30.5385 61.9058 30.6956 62.3294 30.8708C62.4941 30.9373 62.6647 31.0159 62.8235 31.1005L63 31.1911L62.9882 31.4812C63.1882 31.1126 63.3058 30.6896 63.3058 30.2424C63.3058 28.8584 62.1647 28.0426 60.8529 27.7223C59.6059 27.4202 58.3588 27.2389 57.1117 27.1966C57.3705 26.8581 57.7705 26.6406 58.1705 26.4291C58.4235 26.2901 58.6764 26.1571 58.9058 26H65.0529C65.8882 26 66.5705 26.701 66.5705 27.5592V52.7534C66.5705 53.6115 65.8882 54.3126 65.0529 54.3126H48.0059C47.1705 54.3126 46.4882 53.6115 46.4882 52.7534V27.5592C46.4823 26.701 47.1647 26 48.0059 26ZM57.8 38.2678C59.9588 37.0047 60.947 35.5483 61.0706 33.1371C60.1941 36.0862 58.9117 37.5124 57.8 38.2678ZM50.5176 34.4968C50.8235 38.7271 55.2706 39.0836 56.5294 41.4767C57.7882 39.0836 62.2352 38.721 62.5412 34.4968L62.6823 31.3785C59.6411 29.7528 53.4235 29.7528 50.3823 31.3785L50.5176 34.4968Z" fill="url(#paint0_linear_6844_8)"/>
<path fill-rule="evenodd" clip-rule="evenodd" d="M24.7588 26H41.8059C42.6411 26 43.3235 26.701 43.3235 27.5592V52.7534C43.3235 53.6115 42.6411 54.3126 41.8059 54.3126H24.7588C23.9235 54.3126 23.2411 53.6115 23.2411 52.7534V27.5592C23.2411 26.701 23.9235 26 24.7588 26ZM34.647 45.3807C36.8059 44.1176 37.7941 42.6612 37.9176 40.2499C37.0411 43.199 35.7588 44.6253 34.647 45.3807ZM27.2764 41.8393C27.5823 46.0696 32.0294 46.4321 33.2882 48.8193C34.547 46.4261 38.994 46.0635 39.3 41.8393L39.4411 38.721C36.4 37.0954 30.1823 37.0954 27.1412 38.721L27.2764 41.8393ZM32.4823 34.5451C31.3117 34.5995 30.1353 34.7687 28.9647 35.0648C27.6529 35.3972 26.5117 36.201 26.5117 37.5848C26.5117 38.0321 26.6294 38.4551 26.8294 38.8237L26.8176 38.5337L26.9941 38.443C27.1529 38.3584 27.3235 38.2859 27.4882 38.2134C27.9117 38.0321 28.3529 37.881 28.7941 37.7541C31.3823 37.0047 35.1941 37.0047 37.7823 37.7541C38.2235 37.881 38.6647 38.0381 39.0882 38.2134C39.2529 38.2799 39.4235 38.3584 39.5823 38.443L39.7588 38.5337L39.747 38.8237C39.947 38.4551 40.0647 38.0321 40.0647 37.5848C40.0647 36.201 38.9235 35.3851 37.6117 35.0648C36.3647 34.7627 35.1176 34.5814 33.8706 34.5391C34.1294 34.2006 34.5294 33.9831 34.9294 33.7716C35.8117 33.2942 36.6706 32.8288 36.7764 31.4933C35.1412 31.7048 35.9647 31.6263 34.3529 32.6476C33.5764 33.0706 32.7823 33.4997 32.4823 34.5451Z" fill="url(#paint1_linear_6844_8)"/>
<path fill-rule="evenodd" clip-rule="evenodd" d="M1.51765 26H3.97059L4.02941 27.3235C4.33529 31.5537 8.78237 31.9103 10.0412 34.3034C11.3 31.9103 15.747 31.5477 16.053 27.3235L16.1118 26H18.5647C19.4 26 20.0823 26.701 20.0823 27.5592V52.7534C20.0823 53.6115 19.4 54.3126 18.5647 54.3126H16.1177L16.1941 52.6386C13.1529 51.013 6.93529 51.013 3.89412 52.6386L3.97059 54.3126H1.51765C0.682353 54.3186 0 53.6115 0 52.7534V27.5592C0 26.701 0.682353 26 1.51765 26ZM14.7 26C13.8353 28.52 12.6647 29.7952 11.6353 30.4901C13.5941 29.3419 14.5882 28.0305 14.8471 26H14.7ZM9.2412 48.4687C8.07058 48.5231 6.89412 48.6923 5.72353 48.9885C4.41177 49.3208 3.27059 50.1246 3.27059 51.5085C3.27059 51.9557 3.38823 52.3787 3.58823 52.7473L3.57647 52.4573L3.75294 52.3667C3.91177 52.282 4.08235 52.2095 4.24706 52.137C4.67059 51.9557 5.11177 51.8046 5.55294 51.6777C8.14117 50.9284 11.9529 50.9284 14.5412 51.6777C14.9824 51.8046 15.4235 51.9617 15.8471 52.137C16.0118 52.2035 16.1824 52.282 16.3412 52.3667L16.5177 52.4573L16.5059 52.7473C16.7059 52.3787 16.8235 51.9557 16.8235 51.5085C16.8235 50.1246 15.6823 49.3087 14.3706 48.9885C13.1235 48.6863 11.8765 48.505 10.6294 48.4627C10.8882 48.1242 11.2882 47.9067 11.6882 47.6952C12.5706 47.2178 13.4294 46.7524 13.5353 45.4169C11.9 45.6284 12.7235 45.5499 11.1118 46.5712C10.3353 46.9882 9.54117 47.4172 9.2412 48.4687Z" fill="url(#paint2_linear_6844_8)"/>
<path fill-rule="evenodd" clip-rule="evenodd" d="M83.035 42.2865C86.4531 42.2865 88.5529 40.1049 88.5529 37.1377V37.0954C88.5529 34.1705 86.5175 33.0464 84.4354 32.6838L88.3122 28.8827V26.272H77.9533V29.2392H83.9766L80.3179 33.0162L80.8411 35.222H82.2414C84.1239 35.222 85.2411 35.9412 85.2411 37.2223V37.2646C85.2411 38.437 84.3412 39.1743 83.0704 39.1743C81.5179 39.1743 80.4234 38.4974 79.3706 37.2827L77.0591 39.5671C78.371 41.1625 80.2768 42.2865 83.035 42.2865Z" fill="white"/>
<path fill-rule="evenodd" clip-rule="evenodd" d="M105.676 42.2865C110.406 42.2865 113.841 38.6183 113.841 34.1402V34.0979C113.841 29.6199 110.447 26 105.718 26C100.988 26 97.5526 29.6682 97.5526 34.1402V34.1825C97.5526 38.6666 100.947 42.2865 105.676 42.2865ZM105.718 39.0896C103 39.0896 101.076 36.8416 101.076 34.1402V34.0979C101.076 31.3966 102.959 29.1969 105.676 29.1969C108.394 29.1969 110.318 31.4449 110.318 34.1463V34.1886C110.318 36.8899 108.435 39.0896 105.718 39.0896Z" fill="white"/>
<path fill-rule="evenodd" clip-rule="evenodd" d="M114.542 42.0147H117.977L119.376 38.4854H125.859L127.259 42.0147H130.782L124.224 26.1572H121.112L114.542 42.0147ZM120.588 35.4275L122.624 30.321L124.659 35.4275H120.588Z" fill="white"/>
<path fill-rule="evenodd" clip-rule="evenodd" d="M133.153 42.0146H136.53V37.2042L138.3 35.3126L143.053 42.0146H147.1L140.576 32.9497L146.818 26.272H142.747L136.53 33.1552V26.272H133.153V42.0146Z" fill="white"/>
<path fill-rule="evenodd" clip-rule="evenodd" d="M154.37 42.2442C157.676 42.2442 160 40.4917 160 37.3612V37.319C160 34.5753 158.247 33.4272 155.141 32.5932C152.494 31.8982 151.835 31.5598 151.835 30.5264V30.478C151.835 29.7105 152.512 29.1062 153.806 29.1062C155.1 29.1062 156.435 29.6924 157.788 30.6593L159.541 28.0486C157.988 26.7675 156.082 26.0483 153.847 26.0483C150.718 26.0483 148.482 27.9399 148.482 30.7923V30.8346C148.482 33.9589 150.476 34.8412 153.565 35.651C156.13 36.3279 156.653 36.7751 156.653 37.6514V37.6936C156.653 38.6182 155.824 39.1803 154.441 39.1803C152.688 39.1803 151.247 38.4369 149.865 37.2706L147.87 39.7242C149.706 41.4102 152.053 42.2442 154.37 42.2442Z" fill="white"/>
<path fill-rule="evenodd" clip-rule="evenodd" d="M80.4234 54.3183C81.5943 54.3183 82.4998 53.847 83.1589 53.2729V50.4205H80.3766V51.6714H81.794V52.6081C81.435 52.874 80.9827 53.001 80.4708 53.001C79.3352 53.001 78.5352 52.1186 78.5352 50.916V50.8979C78.5352 49.7799 79.3473 48.8492 80.371 48.8492C81.1122 48.8492 81.5533 49.0909 82.0411 49.514L82.9296 48.4141C82.2648 47.834 81.5646 47.5137 80.4177 47.5137C78.4821 47.5137 77.0648 49.0427 77.0648 50.916V50.9341C77.0591 52.88 78.4297 54.3183 80.4234 54.3183Z" fill="white"/>
<path fill-rule="evenodd" clip-rule="evenodd" d="M92.7412 54.2034H94.1763L94.7589 52.7289H97.4648L98.0474 54.2034H99.5179L96.7766 47.5801H95.4768L92.7412 54.2034ZM95.2651 51.4538L96.1175 49.3205L96.9706 51.4538H95.2651Z" fill="white"/>
<path fill-rule="evenodd" clip-rule="evenodd" d="M109.3 54.2039H110.676V49.9374L112.459 52.7233H112.5L114.3 49.9132V54.2039H115.7V47.6289H114.183L112.5 50.4088L110.818 47.6289H109.3V54.2039Z" fill="white"/>
<path d="M127.488 47.6289H126.082V54.2039H127.488V47.6289Z" fill="white"/>
<path fill-rule="evenodd" clip-rule="evenodd" d="M137.87 54.2039H139.264V50.022L142.365 54.2039H143.559V47.6289H142.171V51.6778L139.17 47.6289H137.87V54.2039Z" fill="white"/>
<path fill-rule="evenodd" clip-rule="evenodd" d="M156.959 54.3183C158.13 54.3183 159.036 53.847 159.694 53.2729V50.4205H156.912V51.6714H158.33V52.6081C157.971 52.874 157.518 53.001 157.006 53.001C155.871 53.001 155.065 52.1186 155.065 50.916V50.8979C155.065 49.7799 155.877 48.8492 156.901 48.8492C157.642 48.8492 158.083 49.0909 158.571 49.514L159.459 48.4141C158.794 47.834 158.094 47.5137 156.947 47.5137C155.012 47.5137 153.594 49.0427 153.594 50.916V50.9341C153.594 52.88 154.971 54.3183 156.959 54.3183Z" fill="white"/>
<defs>
<linearGradient id="paint0_linear_6844_8" x1="65.5837" y1="27.11" x2="47.0245" y2="52.4473" gradientUnits="userSpaceOnUse">
<stop stop-color="#F8B900"/>
<stop offset="1" stop-color="#E67508"/>
</linearGradient>
<linearGradient id="paint1_linear_6844_8" x1="42.3419" y1="27.1101" x2="23.7826" y2="52.4473" gradientUnits="userSpaceOnUse">
<stop stop-color="#F8B900"/>
<stop offset="1" stop-color="#E67508"/>
</linearGradient>
<linearGradient id="paint2_linear_6844_8" x1="19.1001" y1="27.11" x2="0.540778" y2="52.4473" gradientUnits="userSpaceOnUse">
<stop stop-color="#F8B900"/>
<stop offset="1" stop-color="#E67508"/>
</linearGradient>
</defs>
</svg>
