<svg width="160" height="80" viewBox="0 0 160 80" fill="none" xmlns="http://www.w3.org/2000/svg">
<path d="M158.597 58.4395C158.239 59.1558 153.763 66.498 152.33 69.1842V76.5264H151.435V69.1842C149.466 65.9607 147.138 61.8419 145.169 58.4395H146.243L151.793 67.9306C151.793 67.9306 155.732 61.3047 157.343 58.4395C157.343 58.4395 158.597 58.4395 158.597 58.4395Z" fill="#E7E7E7"/>
<path d="M74.45 24.4151C74.808 23.5197 75.1661 22.6243 75.5242 21.7289C75.8823 21.0126 76.2403 19.759 76.5984 19.0427H76.9565C78.5678 19.0427 80.8952 19.0427 81.9694 19.2218C84.834 19.58 87.3405 20.6544 89.4889 22.4452C92.3535 24.9523 94.1438 27.9966 94.6809 31.7573C95.218 35.697 94.1438 39.2786 91.8164 42.502C89.4889 45.5463 86.2663 47.5162 82.3275 48.0534C78.2097 48.5906 74.45 47.6953 71.2273 45.1882C67.8257 42.502 66.0353 39.0995 65.6772 34.8016C65.6772 34.0853 65.6772 33.1899 65.6772 32.4736C65.6772 32.2945 65.6772 32.1154 65.6772 32.1154H71.0483V32.4736C70.8693 34.9807 71.4064 37.1296 73.0177 39.0995C74.9871 41.6066 77.4936 42.8601 80.7162 42.6811C85.7292 42.502 89.668 38.2041 89.4889 33.0108C89.3099 28.1757 85.1921 24.236 80.3581 24.236C78.2097 24.4151 76.4194 24.4151 74.45 24.4151Z" fill="#FE375D"/>
<path d="M68.1838 4H88.0567C86.8035 7.40249 85.3712 10.9841 84.1179 14.3865C83.9389 14.9238 83.5808 15.8192 83.4018 16.3564C83.4018 16.3564 79.463 16.3564 77.6726 16.3564C78.0307 15.461 78.3888 14.3865 78.7469 13.4912C79.284 12.2376 79.8211 10.4468 80.3582 9.19327C80.3582 9.19327 75.8823 9.19327 73.9129 9.19327C72.6597 9.19327 71.4064 9.01419 70.3322 8.1188C68.5418 6.32802 68.1838 4 68.1838 4Z" fill="#A6CB30"/>
<path d="M1.4035 60.7675C1.4035 60.0512 1.4035 59.3348 1.4035 58.4395C4.80517 58.4395 8.56491 58.4395 12.1456 58.4395V60.7675C11.0714 60.7675 7.84877 60.7675 7.84877 60.7675C7.84877 60.7675 7.84877 71.5122 7.84877 76.5264H5.52131C5.52131 75.4519 5.52131 74.0193 5.52131 72.9448C5.52131 69.1842 5.52131 64.7072 5.52131 60.7675C5.52131 60.7675 2.65675 60.7675 1.4035 60.7675Z" fill="#E7E7E7"/>
<path d="M106.318 76.5264H105.423V68.4678H97.9036C97.9036 70.7959 97.9036 76.5264 97.9036 76.5264C97.9036 76.5264 97.1874 76.5264 96.8293 76.5264C96.8293 76.5264 96.8293 58.6185 96.8293 58.4395C97.0084 58.4395 97.9036 58.4395 97.9036 58.4395V67.3934H105.423V58.4395H106.318V76.5264Z" fill="#E7E7E7"/>
<path d="M30.2282 76.5264H27.9008C27.9008 74.3774 27.9008 62.021 27.9008 58.4395H30.2282C30.0492 61.3047 30.0492 73.6611 30.2282 76.5264Z" fill="#E7E7E7"/>
<path d="M48.8477 74.1983C48.8477 69.5423 48.8477 60.9466 48.8477 58.4395H46.5203C46.5203 61.3047 46.5203 76.5264 46.5203 76.5264H55.293V74.1983H48.8477Z" fill="#E7E7E7"/>
<path d="M67.8256 68.6469V66.3189H60.4851V60.7675H67.8256V58.4395H58.1577V76.5264H60.4851C62.8126 76.5264 66.9304 76.5264 67.8256 76.5264V74.1983C66.7513 74.1983 62.6335 74.1983 60.4851 74.1983V68.6469H67.8256Z" fill="#E7E7E7"/>
<path d="M118.851 59.514V58.6187H109.899C109.899 58.7977 109.899 76.7056 109.899 76.7056C110.078 76.7056 110.973 76.7056 110.973 76.7056H119.03V75.6311H110.973C110.973 73.8403 110.973 69.9006 110.973 68.1098H119.03V67.2144H110.973V59.514H118.851Z" fill="#E7E7E7"/>
<path d="M88.4147 76.7063C88.0566 76.7063 87.6986 76.7063 87.3405 76.7063C83.2227 76.3482 80.3581 74.1992 79.1049 70.2595C78.0307 67.0361 78.5678 63.9917 80.8952 61.4846C84.2969 57.5449 89.6679 57.1868 93.7858 60.4102C93.9648 60.5893 94.1438 60.7683 93.7858 60.9474C93.4277 61.3056 93.2487 61.1265 92.8906 60.9474C89.847 58.6194 85.013 58.6194 81.9694 61.8428C79.1049 64.8871 78.9258 69.7223 81.7904 72.9457C84.655 76.1691 89.1308 76.5272 91.9954 74.7365C92.3535 74.5574 92.7116 74.1992 93.0696 74.0201C93.2487 73.8411 93.4277 73.8411 93.6067 74.0201L93.7858 74.1992C94.1438 74.3783 93.9648 74.5574 93.7858 74.7365C92.1744 75.8109 90.3841 76.5272 88.4147 76.7063Z" fill="#E7E7E7"/>
<path d="M24.8571 75.9891C23.7829 74.1983 21.2764 70.4377 21.2764 70.4377C21.2764 70.4377 21.4554 70.4377 21.4554 70.2586C23.7829 68.826 25.0361 66.8561 24.8571 63.9909C24.6781 61.1256 21.9925 58.4395 18.9489 58.4395C17.5166 58.4395 14.294 58.4395 14.294 58.4395C14.294 63.4536 14.294 76.5264 14.294 76.5264H16.6215V70.7959H18.7699C19.8441 72.5866 21.2764 74.9147 22.3506 76.5264C22.3506 76.5264 24.32 76.5264 25.0361 76.5264C25.0361 76.3473 24.8571 76.1682 24.8571 75.9891ZM18.9489 68.4678C18.4118 68.4678 16.6215 68.4678 16.6215 68.4678C16.6215 68.4678 16.6215 65.7817 16.6215 64.7072C16.6215 63.6327 16.6215 60.9465 16.6215 60.9465H19.128C20.5602 61.1256 22.7087 62.5583 22.7087 64.8863C22.5296 66.8561 20.9183 68.4678 18.9489 68.4678Z" fill="#E7E7E7"/>
<path d="M127.265 70.0795C127.444 70.0795 127.444 70.0795 127.623 69.9005C129.951 69.1842 132.099 66.6771 131.741 63.4536C131.383 60.7675 128.877 58.4395 126.191 58.4395C124.938 58.4395 121.894 58.4395 121.894 58.4395C121.894 64.17 121.894 70.7959 121.894 76.5264H122.968C122.968 74.7356 122.968 72.0494 122.968 70.2586H126.37C127.444 71.8703 129.235 74.7356 130.309 76.5264H131.562C130.309 74.5565 127.265 70.0795 127.265 70.0795ZM125.833 69.3632H122.968C122.968 67.9306 122.968 65.9607 122.968 64.5281C122.968 63.0955 122.968 61.1256 122.968 59.693C122.968 59.693 123.148 59.693 123.327 59.693C124.401 59.693 126.012 59.693 127.086 59.8721C128.877 60.2302 130.13 61.3047 130.667 63.0955C131.204 64.8863 131.025 66.498 129.772 67.7515C128.519 68.826 127.265 69.3632 125.833 69.3632Z" fill="#E7E7E7"/>
<path d="M139.619 70.0795C139.798 70.0795 139.798 70.0795 139.977 69.9005C142.304 69.1842 144.453 66.6771 144.095 63.4536C143.737 60.7675 141.23 58.4395 138.545 58.4395C137.291 58.4395 134.248 58.4395 134.248 58.4395C134.248 64.17 134.248 70.7959 134.248 76.5264H135.322C135.322 74.7356 135.322 72.0494 135.322 70.2586H138.724C139.798 71.8703 141.588 74.7356 142.662 76.5264H143.916C142.483 74.5565 139.619 70.0795 139.619 70.0795ZM138.007 69.3632H135.143C135.143 67.9306 135.143 65.9607 135.143 64.5281C135.143 63.0955 135.143 61.1256 135.143 59.693C135.143 59.693 135.322 59.693 135.501 59.693C136.575 59.693 138.186 59.693 139.261 59.8721C141.051 60.2302 142.304 61.3047 142.841 63.0955C143.378 64.8863 143.199 66.498 141.946 67.7515C140.872 68.826 139.619 69.3632 138.007 69.3632Z" fill="#E7E7E7"/>
<path d="M41.1494 69.9005C43.1188 68.4678 44.372 66.6771 44.193 63.9909C44.0139 61.1256 41.3284 58.4395 38.2848 58.4395C36.8525 58.4395 33.6299 58.4395 33.6299 58.4395C33.6299 63.4536 33.6299 76.5264 33.6299 76.5264H35.9573V70.7959H38.1058C40.0752 70.7959 41.1494 70.0795 41.1494 69.9005ZM38.2848 68.4678C37.7477 68.4678 35.9573 68.4678 35.9573 68.4678C35.9573 68.4678 35.9573 65.7817 35.9573 64.7072C35.9573 63.6327 35.9573 60.9465 35.9573 60.9465H38.4638C39.8961 61.1256 42.0446 62.5583 42.0446 64.8863C41.8655 66.8561 40.2542 68.4678 38.2848 68.4678Z" fill="#E7E7E7"/>
</svg>
