<svg width="160" height="80" viewBox="0 0 160 80" fill="none" xmlns="http://www.w3.org/2000/svg">
<g clip-path="url(#clip0_6824_29)">
<path d="M144.64 35.4621C142.521 35.4621 140.403 35.4621 138.24 35.4621C138.24 36.4773 138.24 37.4483 138.24 38.4635C140.27 38.4635 142.257 38.4635 144.331 38.4635C144.331 39.4787 144.331 40.4056 144.331 41.4207C142.301 41.4207 140.315 41.4207 138.24 41.4207C138.24 42.6125 138.24 43.7601 138.24 44.9959C140.447 44.9959 142.61 44.9959 144.861 44.9959C144.861 46.0111 144.861 46.9821 144.861 47.9532C141.55 47.9532 138.284 47.9532 134.974 47.9532C134.974 42.8332 134.974 37.669 134.974 32.5049C138.196 32.5049 141.374 32.5049 144.64 32.5049C144.64 33.4759 144.64 34.4028 144.64 35.4621Z" fill="white"/>
<path d="M118.334 32.4606C119.658 32.4606 120.894 32.4606 122.13 32.4606C122.262 32.4606 122.439 32.7255 122.527 32.8579C123.498 34.6675 124.469 36.4331 125.44 38.2427C125.528 38.4193 125.617 38.5517 125.749 38.8165C125.881 38.64 125.97 38.5075 126.014 38.331C126.985 36.5213 128 34.6675 128.971 32.8579C129.148 32.5048 129.368 32.4165 129.721 32.4165C130.825 32.4165 131.928 32.4165 133.12 32.4165C132.988 32.6372 132.944 32.7696 132.855 32.9462C131.134 35.8593 129.412 38.7282 127.735 41.6413C127.559 41.9503 127.47 42.3475 127.426 42.7448C127.382 44.2896 127.426 45.7903 127.426 47.3351C127.426 47.5117 127.426 47.7324 127.426 47.9089C126.279 47.9089 125.219 47.9089 124.116 47.9089C124.116 47.291 124.116 46.6731 124.116 46.0551C124.116 45.0841 124.072 44.0689 124.116 43.0979C124.16 42.5241 123.984 41.9944 123.675 41.5089C121.953 38.64 120.276 35.771 118.599 32.902C118.466 32.8137 118.422 32.6813 118.334 32.4606Z" fill="white"/>
<path d="M55.1284 40.8911C55.1284 43.2304 55.1284 45.5697 55.1284 47.9532C54.5104 47.9532 53.9808 47.9532 53.407 47.9532C53.407 42.789 53.407 37.669 53.407 32.5049C53.9808 32.5049 54.5104 32.5049 55.1284 32.5049C55.1284 34.7118 55.1284 36.9187 55.1284 39.1697C57.7766 39.1697 60.3808 39.1697 63.0291 39.1697C63.0291 36.9628 63.0291 34.7559 63.0291 32.5049C63.647 32.5049 64.1766 32.5049 64.7504 32.5049C64.7504 37.669 64.7504 42.789 64.7504 47.9532C64.2208 47.9532 63.647 47.9532 63.0732 47.9532C63.0732 45.658 63.0732 43.3187 63.0732 40.8911C60.3808 40.8911 57.7766 40.8911 55.1284 40.8911Z" fill="white"/>
<path d="M96.0001 32.5049C97.0594 32.5049 98.1187 32.5049 99.2221 32.5049C99.2221 32.7256 99.2663 32.9463 99.2663 33.167C99.2663 36.9187 99.2663 40.6263 99.2663 44.378C99.2663 44.8635 99.3987 44.9959 99.8842 44.9959C101.297 44.9518 102.709 44.9959 104.121 44.9959C104.298 44.9959 104.519 44.9959 104.739 44.9959C104.739 46.0111 104.739 46.9821 104.739 47.9532C101.826 47.9532 98.9573 47.9532 96.0001 47.9532C96.0001 42.789 96.0001 37.669 96.0001 32.5049Z" fill="white"/>
<path d="M78.5214 47.9532C75.3876 47.9532 72.298 47.9532 69.1642 47.9532C69.1642 42.8332 69.1642 37.669 69.1642 32.5049C72.1656 32.5049 75.1669 32.5049 78.2125 32.5049C78.2125 33.0345 78.2125 33.5201 78.2125 34.0938C75.7849 34.0938 73.3573 34.0938 70.9297 34.0938C70.9297 35.8152 70.9297 37.4925 70.9297 39.1697C73.2249 39.1697 75.52 39.1697 77.9035 39.1697C77.9035 39.7435 77.9035 40.229 77.9035 40.8028C75.6083 40.8028 73.269 40.8028 70.9297 40.8028C70.9297 42.6566 70.9297 44.4663 70.9297 46.3201C71.1504 46.3201 71.3269 46.3201 71.5035 46.3201C73.6663 46.3201 75.829 46.3201 78.0359 46.3201C78.4332 46.3201 78.5656 46.4083 78.5214 46.8056C78.5214 47.1587 78.5214 47.5559 78.5214 47.9532Z" fill="white"/>
<path d="M43.5642 34.0938C41.8428 34.0938 40.2097 34.0938 38.5325 34.0938C38.5325 33.5201 38.5325 33.0345 38.5325 32.5049C42.4607 32.5049 46.3007 32.5049 50.229 32.5049C50.229 33.0345 50.229 33.5201 50.229 34.0938C48.5959 34.0938 46.9628 34.0938 45.2414 34.0938C45.2414 38.7283 45.2414 43.3187 45.2414 47.9532C44.6676 47.9532 44.138 47.9532 43.5642 47.9532C43.5642 43.3628 43.5642 38.7725 43.5642 34.0938Z" fill="white"/>
<path d="M155.763 56.6041C156.601 54.6179 157.396 52.72 158.19 50.8662C158.235 50.8662 158.323 50.8662 158.367 50.8662C158.808 53.2938 159.25 55.7214 159.691 58.1931C159.426 58.1931 159.161 58.1931 158.852 58.1931C158.588 56.6041 158.279 55.0152 158.014 53.4262C157.97 53.4262 157.926 53.3821 157.881 53.3821C157.175 55.0152 156.513 56.6483 155.807 58.2814C155.763 58.2814 155.719 58.2814 155.675 58.2814C154.968 56.6483 154.306 55.0152 153.6 53.4262C153.556 53.4262 153.512 53.4262 153.512 53.4262C153.203 55.0152 152.938 56.6041 152.629 58.2372C152.364 58.2372 152.099 58.2372 151.79 58.2372C152.232 55.7655 152.673 53.3379 153.159 50.9103C153.203 50.9103 153.291 50.9103 153.335 50.9103C154.13 52.72 154.924 54.6179 155.763 56.6041Z" fill="white"/>
<path d="M142.875 52.146C142.698 52.3226 142.521 52.455 142.345 52.6315C141.197 51.4398 139.299 51.3074 138.152 52.5874C137.137 53.735 137.225 55.8095 138.372 56.8688C139.476 57.9281 140.977 57.7957 142.389 56.4715C142.566 56.6039 142.742 56.7805 142.919 56.9129C142.301 58.0605 140.756 58.5901 139.343 58.237C137.843 57.8839 136.739 56.5157 136.651 54.8826C136.563 53.0288 137.446 51.5722 138.99 51.0426C140.447 50.557 142.08 50.9984 142.875 52.146Z" fill="white"/>
<path d="M135.239 57.2661C135.548 57.2661 135.768 57.4427 135.768 57.7958C135.768 58.1489 135.548 58.3696 135.195 58.3254C134.974 58.2813 134.709 58.0165 134.665 57.7958C134.621 57.4868 134.841 57.2661 135.239 57.2661Z" fill="white"/>
<path d="M155.719 41.906C155.895 41.8618 155.984 41.8177 156.072 41.7736C158.808 40.9791 160 39.1694 159.603 36.3887C159.338 34.4467 157.881 32.9018 155.675 32.6811C153.159 32.4604 150.643 32.5487 148.127 32.4604C148.083 32.4604 148.083 32.5046 148.039 32.5046C148.039 37.6246 148.039 42.7887 148.039 47.9087C149.142 47.9087 150.201 47.9087 151.349 47.9087C151.349 45.6136 151.349 43.3184 151.349 40.8467C151.526 41.1115 151.614 41.2439 151.702 41.3763C153.07 43.4508 154.395 45.4811 155.763 47.5556C155.851 47.7322 156.072 47.9087 156.204 47.9087C157.44 47.9529 158.676 47.9087 160 47.9087C158.544 45.9225 157.175 43.9363 155.719 41.906ZM151.349 39.6991C151.349 38.1984 151.349 36.8301 151.349 35.506C152.408 35.506 153.379 35.4177 154.35 35.506C155.542 35.6384 156.16 36.3446 156.204 37.448C156.248 38.5073 155.675 39.2577 154.527 39.4342C153.512 39.6108 152.452 39.6108 151.349 39.6991Z" fill="white"/>
<path d="M89.0704 32.7257C86.7752 32.3284 84.3476 32.5491 82.0083 32.505C81.9642 32.505 81.9642 32.5491 81.92 32.5491C81.92 37.6691 81.92 42.8333 81.92 47.9533C83.0235 47.9533 84.0828 47.9533 85.2304 47.9533C85.2304 46.2319 85.2304 44.5546 85.2304 42.8333C85.8042 42.8333 86.3338 42.8774 86.8194 42.8333C87.5697 42.7891 88.32 42.745 89.0262 42.6126C90.7918 42.2153 92.3366 41.4208 92.9104 39.567C93.8814 36.5215 92.8663 33.3436 89.0704 32.7257ZM88.629 39.567C87.5256 40.0084 86.4221 39.876 85.2304 39.876C85.2304 38.3753 85.2304 36.9629 85.2304 35.5064C86.378 35.5064 87.5697 35.3298 88.6731 35.7712C89.4676 36.0802 89.7766 36.7422 89.7766 37.5808C89.7766 38.4195 89.5118 39.1698 88.629 39.567Z" fill="white"/>
<path d="M120.188 47.6882C117.892 42.6565 115.597 37.6248 113.302 32.5489C113.214 32.4165 113.037 32.1958 112.905 32.1958C112.728 32.2399 112.552 32.4165 112.508 32.5489C110.213 37.4924 107.961 42.4799 105.71 47.4234C105.622 47.5558 105.578 47.7324 105.49 47.9089C106.593 47.9089 107.653 47.9089 108.668 47.9089C108.977 47.9089 109.109 47.7765 109.241 47.5117C109.462 46.8937 109.771 46.2758 109.992 45.6579C110.08 45.3489 110.257 45.2606 110.566 45.2606C112.11 45.2606 113.655 45.2606 115.156 45.2606C115.465 45.2606 115.597 45.3489 115.686 45.6137C115.95 46.2758 116.215 46.9379 116.524 47.5999C116.568 47.7324 116.789 47.8648 116.921 47.8648C118.025 47.9089 119.128 47.8648 120.232 47.8648C120.188 47.8206 120.188 47.7324 120.188 47.6882ZM111.095 42.5682C111.669 41.1558 112.199 39.8317 112.817 38.331C113.435 39.8317 113.964 41.1558 114.582 42.5682C113.346 42.5682 112.243 42.5682 111.095 42.5682Z" fill="white"/>
<path d="M150.025 52.1022C149.098 50.9987 147.641 50.5573 146.185 50.9987C144.817 51.4401 143.846 52.6318 143.713 54.1325C143.537 55.8098 144.243 57.2222 145.523 57.9284C147.995 59.2967 150.819 57.5311 150.819 54.618C150.863 53.6029 150.599 52.8084 150.025 52.1022ZM148.612 57.2222C147.686 57.7518 146.759 57.7077 145.832 57.1339C144.596 56.3836 144.155 54.4415 144.905 53.0291C145.567 51.7932 147.023 51.2636 148.348 51.8373C149.539 52.367 149.981 53.3822 149.981 54.618C150.025 55.7656 149.628 56.6925 148.612 57.2222Z" fill="white"/>
<path d="M22.0689 39.8317V30.2096L20.171 28.2676L8.03308 40.3614L8.12136 40.4496L10.5489 42.8772L10.7696 43.0979H18.2289V50.469L21.7158 46.9821L22.1131 46.5848V43.0096H25.6883V39.8317H22.0689ZM18.1407 39.92H14.1241C15.4483 38.5959 16.8165 37.2276 18.1407 35.9034V39.92Z" fill="white"/>
<path d="M33.5448 30.5188C33.5448 30.5188 26.1296 18.1602 12.2261 23.1919C22.422 23.5892 25.2468 27.9147 28.0717 31.2692L25.953 31.5781L31.8675 38.3312L35.6634 30.2099L33.5448 30.5188Z" fill="url(#paint0_radial_6824_29)"/>
<path d="M27.7627 55.4124C27.7627 55.4124 40.1213 47.9972 35.0896 34.0938C34.6924 44.2896 30.3669 47.1144 27.0124 49.9393L26.7034 47.8206L19.9503 53.7351L28.0717 57.531L27.7627 55.4124Z" fill="url(#paint1_radial_6824_29)"/>
<path d="M8.51858 24.6045C8.51858 24.6045 -3.84004 32.0196 1.19168 45.9231C1.58892 35.7272 5.91444 32.9024 9.26892 30.0776L9.57789 32.1962L16.331 26.2817L8.20961 22.4858L8.51858 24.6045Z" fill="url(#paint2_radial_6824_29)"/>
<path d="M2.6041 49.6308C2.6041 49.6308 10.0193 61.9894 23.9227 56.9577C13.7269 56.5604 10.902 52.2349 8.07721 48.8804L10.1958 48.5715L4.28135 41.8184L0.441345 49.9397L2.6041 49.6308Z" fill="url(#paint3_radial_6824_29)"/>
</g>
<defs>
<radialGradient id="paint0_radial_6824_29" cx="0" cy="0" r="1" gradientUnits="userSpaceOnUse" gradientTransform="translate(31.5585 33.2554) rotate(-151.113) scale(21.9284 31.4454)">
<stop offset="0.328125" stop-color="#DA001F"/>
<stop offset="1" stop-color="#DA001F" stop-opacity="0"/>
</radialGradient>
<radialGradient id="paint1_radial_6824_29" cx="0" cy="0" r="1" gradientUnits="userSpaceOnUse" gradientTransform="translate(24.0551 55.5448) rotate(-57.2648) scale(25.7111 43.2392)">
<stop offset="0.328125" stop-color="#DA001F"/>
<stop offset="1" stop-color="#DA001F" stop-opacity="0"/>
</radialGradient>
<radialGradient id="paint2_radial_6824_29" cx="0" cy="0" r="1" gradientUnits="userSpaceOnUse" gradientTransform="translate(13.462 24.6486) rotate(126.87) scale(26.4828 44.537)">
<stop offset="0.328125" stop-color="#DA001F"/>
<stop offset="1" stop-color="#DA001F" stop-opacity="0"/>
</radialGradient>
<radialGradient id="paint3_radial_6824_29" cx="0" cy="0" r="1" gradientUnits="userSpaceOnUse" gradientTransform="translate(3.75169 42.3039) rotate(34.6634) scale(25.2215 36.1313)">
<stop offset="0.328125" stop-color="#DA001F"/>
<stop offset="1" stop-color="#DA001F" stop-opacity="0"/>
</radialGradient>
<clipPath id="clip0_6824_29">
<rect width="160" height="80" fill="white"/>
</clipPath>
</defs>
</svg>
