<svg width="160" height="80" viewBox="0 0 160 80" fill="none" xmlns="http://www.w3.org/2000/svg">
<path d="M36.9146 79.9823C36.0922 79.8248 35.2523 79.7199 34.4474 79.5274C29.3731 78.3025 24.7886 73.3507 24.0187 67.9963C23.7213 65.8791 23.7913 63.6919 23.7563 61.5396C23.7213 59.5624 23.7563 57.5851 23.7563 55.5729C27.9907 55.5729 32.1202 55.5729 36.3897 55.5729C36.3897 55.8703 36.3897 56.1678 36.3897 56.4828C36.3897 59.5449 36.4072 62.607 36.3897 65.6691C36.3897 66.6665 36.5472 67.5589 37.5795 67.9788C38.7344 68.4513 39.9242 68.4688 40.8516 67.5939C41.2716 67.2089 41.4816 66.4215 41.4991 65.7916C41.569 63.1144 41.534 60.4198 41.534 57.7426C41.534 54.5405 41.569 51.3209 41.5166 48.1188C41.4991 47.3139 41.3766 46.4915 41.0966 45.7391C40.7117 44.6892 39.7143 44.1818 38.6469 44.2868C37.7195 44.3743 37.0196 44.9867 36.7396 46.0716C36.5822 46.649 36.5297 47.2614 36.4247 47.9438C32.2602 47.9438 28.0782 47.9438 23.8263 47.9438C23.8263 35.1004 23.8263 22.2571 23.8263 9.37866C33.3976 9.37866 42.9514 9.37866 52.5927 9.37866C52.5927 13.6131 52.5927 17.8826 52.5927 22.2221C47.0459 22.2221 41.5166 22.2221 35.9348 22.2221C35.9348 25.5816 35.9348 28.8537 35.9348 32.1258C41.3066 29.9561 47.5008 31.6709 51.5078 36.4478C53.8175 39.1774 55.0074 42.292 54.9724 45.9141C54.9199 52.3883 54.9724 58.8625 54.9549 65.3367C54.9374 71.1809 51.2278 76.8502 46.031 78.8275C44.7186 79.3349 43.2663 79.5099 41.884 79.8249C41.569 79.8948 41.2541 79.9473 40.9566 79.9998C39.5918 79.9823 38.2445 79.9823 36.9146 79.9823Z" fill="url(#paint0_linear)"/>
<path d="M116.477 7.08661C116.32 6.03675 115.515 5.84427 114.552 6.28171C113.222 6.87664 111.893 7.43657 110.545 7.9965C110.178 8.13648 109.793 8.18898 109.46 8.25897C109.408 8.27647 109.39 8.15398 109.39 8.15398C109.023 6.68416 108.726 5.28434 108.306 3.93701C107.833 2.44969 107.151 1.03237 105.873 0C105.698 0 105.523 0 105.348 0C104.754 0.349956 104.176 0.734908 103.546 1.04987C101.306 2.15223 99.1193 2.02975 97.002 0.734908C96.5821 0.472441 96.1446 0.244969 95.7247 0C95.6722 0 95.6022 0 95.5497 0C95.1473 0.314961 94.6398 0.55993 94.3773 0.979877C93.8524 1.73228 93.3275 2.53718 93.03 3.41207C92.5226 4.93438 92.1551 6.52668 91.7002 8.27647C91.7002 8.29396 91.6827 8.31146 91.6652 8.29396C91.6477 8.29396 91.6302 8.27647 91.6302 8.27647C90.1079 7.64654 88.4631 7.1741 86.9058 6.43919C85.5234 5.79178 84.6311 6.10674 84.5436 7.62905C84.4386 8.92388 84.5611 10.3237 84.9985 11.5486C86.0659 14.5757 88.5156 16.2555 91.4027 17.3228C95.2172 18.7402 99.2067 18.9151 103.214 18.6527C106.206 18.4602 109.111 17.8828 111.77 16.4129C114.045 15.1531 115.812 13.3858 116.407 10.7962C116.652 9.6063 116.652 8.29396 116.477 7.08661ZM107.693 11.3911C103.074 13.1234 98.4018 13.1584 93.7474 11.5661C91.9801 10.9536 91.7352 10.4112 91.9102 8.60892L91.9276 8.48644C97.7194 10.2887 103.459 10.2712 109.181 8.50394C109.215 8.48644 109.233 8.55643 109.233 8.55643C109.548 10.2537 109.285 10.7962 107.693 11.3911Z" fill="white"/>
<path d="M129.426 79.5275C128.901 79.3525 128.428 79.0376 128.026 78.6876C126.958 77.7777 126.573 76.5004 126.573 75.0831C126.591 70.9886 126.556 66.8766 126.591 62.7821C126.608 60.0874 128.148 58.1977 130.51 57.9177C133.818 57.5153 135.742 58.6876 136.512 61.5572C136.53 61.6272 136.652 62.1347 136.652 62.1872V66.8416H132.313C132.313 65.3718 132.295 63.9894 132.313 62.5896C132.313 62.0647 132.26 61.6272 131.613 61.6272C130.983 61.6272 130.878 62.0472 130.878 62.5896C130.878 66.7891 130.878 70.9886 130.878 75.1705C130.878 75.6955 130.983 76.1154 131.613 76.1329C132.26 76.1504 132.47 75.7655 132.47 75.1705C132.453 74.0857 132.47 73.0183 132.453 71.9335C132.453 71.8635 132.453 71.5485 132.453 71.5485H131.648V69.2738H136.67V79.6325H135.235C135.235 79.6325 135.217 79.1076 135.235 78.7926C134.745 79.0376 134.36 79.335 133.765 79.4925C132.47 79.86 130.738 79.965 129.426 79.5275Z" fill="white"/>
<path d="M62.2339 79.5275C61.709 79.3525 61.2365 79.0376 60.8341 78.6876C59.7667 77.7777 59.3817 76.5004 59.3817 75.0831C59.3992 70.9886 59.3642 66.8766 59.3992 62.7821C59.4167 60.0874 60.9565 58.1977 63.3188 57.9177C66.6258 57.5153 68.5506 58.6876 69.3205 61.5572C69.338 61.6272 69.4605 62.1347 69.4605 62.1872V66.8416H65.121C65.121 65.3718 65.1035 63.9894 65.121 62.5896C65.121 62.0647 65.0685 61.6272 64.4211 61.6272C63.7912 61.6272 63.6862 62.0472 63.6862 62.5896C63.6862 66.7891 63.6862 70.9886 63.6862 75.1705C63.6862 75.6955 63.7912 76.1154 64.4211 76.1329C65.0685 76.1504 65.2785 75.7655 65.2785 75.1705C65.261 74.0857 65.2785 73.0183 65.261 71.9335C65.261 71.8635 65.261 71.5485 65.261 71.5485H64.4561V69.2738H69.478V79.6325H68.0432C68.0432 79.6325 68.0257 79.1076 68.0432 78.7926C67.5532 79.0376 67.1683 79.335 66.5733 79.4925C65.2785 79.86 63.5287 79.965 62.2339 79.5275Z" fill="white"/>
<path d="M70.6678 55.9228C69.6529 47.4713 68.6556 39.0899 67.6582 30.7084C67.6232 30.7084 67.5707 30.7084 67.5357 30.7084C67.5357 39.0899 67.5357 47.4538 67.5357 55.8878C64.8585 55.8878 62.2339 55.8878 59.5567 55.8878C59.5567 40.3847 59.5567 24.8816 59.5567 9.30859C63.4762 9.30859 67.3782 9.30859 71.3677 9.30859C72.2601 20.6472 73.17 31.9683 74.0624 43.2893C74.1149 43.2893 74.1499 43.2893 74.2024 43.2893C75.1123 31.9858 76.0396 20.6647 76.967 9.30859C78.6293 9.30859 80.2391 9.30859 81.9014 9.30859C82.0239 9.88602 82.1114 10.4984 82.2514 11.0759C83.1088 14.4355 85.226 16.8152 88.1831 18.4949C88.6381 18.7399 88.813 18.8974 88.813 18.8974C88.7955 30.7959 88.7955 43.2718 88.7955 55.1704C88.7955 55.3978 88.7606 55.6253 88.7431 55.8878C86.1184 55.8878 83.5462 55.8878 80.869 55.8878C80.869 47.4888 80.869 39.1074 80.869 30.7259C80.799 30.7259 80.7291 30.7084 80.6766 30.7084C79.6792 39.0899 78.6643 47.4713 77.6669 55.8878C75.3047 55.9228 73.0475 55.9228 70.6678 55.9228Z" fill="white"/>
<path d="M119.189 9.32642C120.432 9.32642 121.639 9.32642 122.969 9.32642C124.684 17.5854 126.398 25.8444 128.113 34.1208C128.183 34.1208 128.253 34.1033 128.306 34.1033C128.306 25.8618 128.306 17.6204 128.306 9.32642C131.07 9.32642 133.713 9.32642 136.407 9.32642C136.407 24.847 136.407 40.3675 136.407 55.9231C133.643 55.9231 130.913 55.9231 128.078 55.9231C126.258 47.8566 124.439 39.7901 122.619 31.7061C122.566 31.7061 122.514 31.7061 122.461 31.7236C122.461 39.7551 122.461 47.8041 122.461 55.9056C119.697 55.9056 117.037 55.9056 114.325 55.9056C114.307 55.5906 114.272 55.3107 114.272 55.0307C114.272 42.8522 114.272 29.8164 114.29 17.6379C114.29 17.6379 114.622 17.3929 114.762 17.2879C117.265 15.3807 118.647 12.8435 119.084 9.76386C119.119 9.62388 119.154 9.4839 119.189 9.32642Z" fill="white"/>
<path d="M108.743 29.5539C108.743 31.9161 108.743 34.1209 108.743 36.3956C106.643 36.3956 104.579 36.3956 102.479 36.3956C102.479 40.2101 102.479 43.9196 102.479 47.7691C105.296 47.7691 108.096 47.7691 110.948 47.7691C110.948 50.5513 110.948 53.211 110.948 55.9231C104.929 55.9231 98.9619 55.9231 92.9427 55.9231C92.9427 44.0596 92.9427 32.2486 92.9427 20.6125C92.9427 20.6125 96.0223 20.98 97.5796 21.0675C99.1719 21.155 102.391 21.1725 102.391 21.1725C102.391 23.8671 102.391 26.6493 102.391 29.5539C104.544 29.5539 106.591 29.5539 108.743 29.5539Z" fill="white"/>
<path d="M90.8953 69.5364C90.8953 72.8435 90.8953 76.1681 90.8953 79.5452C89.6705 79.5452 88.5156 79.5452 87.2908 79.5452C87.2908 72.4411 87.2908 65.3194 87.2908 58.1628C89.0406 58.1628 90.7904 58.1628 92.6451 58.1628C93.0301 63.0797 93.4325 67.9966 93.8175 72.9135C93.87 72.9135 93.9225 72.931 93.975 72.931C94.3774 68.0316 94.7799 63.1322 95.1823 58.1803C97.0021 58.1803 98.7869 58.1803 100.624 58.1803C100.624 65.3019 100.624 72.4061 100.624 79.5627C99.3993 79.5627 98.2269 79.5627 96.9671 79.5627C96.9671 76.0981 96.9671 72.6685 96.9671 69.2564C96.8971 69.2564 96.8446 69.239 96.7746 69.239L95.5148 79.5627H92.3127L91.1053 69.5539H90.8953V69.5364Z" fill="white"/>
<path d="M112.873 79.5452C112.873 72.3886 112.873 65.3194 112.873 58.1803C114.168 58.1803 115.462 58.1803 116.862 58.1803C117.632 61.8199 118.402 65.5119 119.172 69.1865C119.224 69.1865 119.259 69.1865 119.312 69.1865C119.312 65.5294 119.312 61.8549 119.312 58.1628C120.589 58.1628 121.779 58.1628 123.021 58.1628C123.021 65.2844 123.021 72.4061 123.021 79.5802C121.762 79.5802 120.537 79.5802 119.224 79.5802C118.437 76.1156 117.632 72.651 116.845 69.1865C116.792 69.1865 116.722 69.1865 116.67 69.1865C116.67 72.6335 116.67 76.0806 116.67 79.5627C115.34 79.5452 114.15 79.5452 112.873 79.5452Z" fill="white"/>
<path d="M75.9522 58.1277C77.4395 58.1277 78.8394 58.1277 80.3442 58.1277C81.534 65.2318 82.7064 72.3534 83.9137 79.5275C82.4089 79.5275 81.0091 79.5275 79.5043 79.5275C79.4168 78.7751 79.1718 76.3254 79.1718 76.3254C79.1718 76.3254 77.597 76.3254 77.1596 76.3254C77.0371 77.4103 76.9146 78.4426 76.7921 79.5275C75.3573 79.5275 73.94 79.5275 72.4002 79.5275C73.5725 72.4059 74.7624 65.3018 75.9522 58.1277ZM78.8744 73.1058C78.6469 70.6036 78.4369 68.1539 78.2094 65.7042C78.157 65.7042 78.122 65.7042 78.0695 65.7042C77.8595 68.1539 77.6495 70.6036 77.4395 73.0883C77.982 73.1058 78.4019 73.1058 78.8744 73.1058Z" fill="white"/>
<path d="M108.848 79.5452C107.466 79.5452 106.136 79.5452 104.736 79.5452C104.736 72.4411 104.736 65.3194 104.736 58.1628C106.083 58.1628 107.431 58.1628 108.848 58.1628C108.848 65.267 108.848 72.3886 108.848 79.5452Z" fill="white"/>
<defs>
<linearGradient id="paint0_linear" x1="39.3368" y1="79.3774" x2="39.3368" y2="8.89836" gradientUnits="userSpaceOnUse">
<stop stop-color="#C30000"/>
<stop offset="1" stop-color="#FF0000"/>
</linearGradient>
</defs>
</svg>
