<svg width="160" height="80" viewBox="0 0 160 80" fill="none" xmlns="http://www.w3.org/2000/svg">
<g clip-path="url(#clip0)">
<path d="M63.2579 17.5369C63.531 17.0014 63.6949 16.4169 63.7403 15.8174C63.7856 15.218 63.7114 14.6155 63.5219 14.0449C63.2817 13.547 62.9249 13.1143 62.4819 12.7835C62.0389 12.4528 61.5226 12.2337 60.9769 12.1449H21.6479C21.1807 12.1019 20.7097 12.1578 20.2655 12.3088C19.8213 12.4599 19.4139 12.7028 19.0698 13.0217C18.7256 13.3406 18.4525 13.7285 18.2682 14.1599C18.0839 14.5914 17.9925 15.0568 17.9999 15.5259V29.6739C18.0224 30.2401 18.1873 30.7916 18.4793 31.2771C18.7714 31.7627 19.1813 32.1668 19.6709 32.4519C21.0319 33.3029 21.8929 33.0519 23.6059 33.0519H32.5899C29.9986 40.3799 27.4219 47.7096 24.8599 55.0409C24.3369 56.4879 21.4669 64.2409 21.4669 65.2629C21.4669 67.2939 23.9569 68.4629 25.2039 68.4629H43.0899C44.5459 68.4629 45.9569 66.5389 46.0269 65.7039L60.9749 24.0619C61.0199 23.5439 63.0289 18.2079 63.2579 17.5369Z" fill="#111111"/>
<path fill-rule="evenodd" clip-rule="evenodd" d="M21.304 15.292L21.3929 29.44H37.231L24.8629 65.032H42.6629L60.2809 15.293L21.304 15.292Z" fill="#E5007B"/>
<path d="M140.222 38.1618C140.065 37.8705 139.902 37.5975 139.733 37.3428C139.932 36.8765 140.034 36.3748 140.033 35.8679V29.8098C140.033 28.8126 139.637 27.8563 138.932 27.1511C138.227 26.446 137.27 26.0498 136.273 26.0498H124.719C123.446 26.0765 122.193 26.3782 121.047 26.9341C119.901 27.4901 118.888 28.2872 118.079 29.2708C115.516 27.1228 112.272 25.9569 108.928 25.9818C107.089 25.9779 105.266 26.3297 103.56 27.0178C102.867 27.3059 102.194 27.64 101.546 28.0178C101.223 27.4243 100.746 26.9287 100.166 26.5832C99.5849 26.2378 98.9218 26.0552 98.2461 26.0548H90.7301C89.7329 26.0548 88.7765 26.451 88.0714 27.1561C87.3662 27.8613 86.9701 28.8176 86.9701 29.8148V31.5518C85.4582 29.5954 83.4549 28.0745 81.1641 27.1439C79.364 26.4188 77.4427 26.0421 75.5021 26.0338C73.4406 26.0189 71.4038 26.4828 69.5521 27.3889C69.0411 27.6409 68.5521 27.9209 68.0861 28.2129C67.7775 27.5808 67.2976 27.0481 66.7011 26.6754C66.1046 26.3028 65.4155 26.1051 64.7121 26.1049H57.1941C56.5094 26.1048 55.8376 26.2918 55.2513 26.6454C54.665 26.9991 54.1864 27.5061 53.8671 28.1118C53.6831 28.3958 53.2671 28.9778 52.7841 29.6508C52.2761 28.9738 51.8471 28.3908 51.6541 28.1028C51.3342 27.4992 50.856 26.9941 50.2707 26.6417C49.6854 26.2894 49.0152 26.1031 48.3321 26.1028H40.7041C39.7069 26.1028 38.7505 26.499 38.0454 27.2041C37.3402 27.9093 36.9441 28.8656 36.9441 29.8628V51.2899C36.9441 52.2871 37.3402 53.2434 38.0454 53.9486C38.7505 54.6537 39.7069 55.0498 40.7041 55.0498H48.2201C49.2173 55.0498 50.1737 54.6537 50.8788 53.9486C51.584 53.2434 51.9801 52.2871 51.9801 51.2899V50.2148C52.2531 50.2739 52.5317 50.3034 52.8111 50.3029C53.02 50.3031 53.2287 50.2871 53.4351 50.2548V51.2908C53.4351 52.288 53.8312 53.2444 54.5364 53.9496C55.2415 54.6547 56.1979 55.0508 57.1951 55.0508H64.7111C65.4378 55.0507 66.1488 54.8399 66.7581 54.4439C67.3674 54.0479 67.8488 53.4838 68.1441 52.8199C68.5621 53.0749 68.9901 53.3198 69.4441 53.5428C71.3491 54.4694 73.4407 54.9482 75.5591 54.9428C78.0729 54.9458 80.5452 54.3018 82.7381 53.0728C83.0638 53.6577 83.5399 54.1449 84.1171 54.4841C84.6943 54.8232 85.3516 55.002 86.0211 55.0019C86.7071 55.0019 87.3111 55.0168 87.8431 55.0298C88.3011 55.0408 88.7341 55.0518 89.1541 55.0518C91.33 55.0981 93.4794 54.5678 95.3841 53.5149C96.1429 53.1366 96.8489 52.6605 97.4841 52.0988C97.5294 52.0582 97.5738 52.0162 97.6171 51.9728L98.7421 50.8549L98.8061 50.7899C98.9061 50.8839 99.0061 50.9758 99.1061 51.0678C101.851 53.5077 105.389 54.8671 109.061 54.8928C112.103 54.9071 115.066 53.9318 117.505 52.1139C117.721 52.9104 118.193 53.6138 118.848 54.1155C119.503 54.6172 120.305 54.8893 121.13 54.8899H132.685C134.176 54.9055 135.645 54.5249 136.941 53.787C138.237 53.0491 139.314 51.9803 140.061 50.6898C141.1 48.7708 141.658 46.628 141.686 44.4457C141.714 42.2634 141.212 40.107 140.222 38.1618Z" fill="#111111"/>
<path fill-rule="evenodd" clip-rule="evenodd" d="M111.752 40.3928C111.758 41.0374 111.555 41.6667 111.175 42.1875C110.795 42.7082 110.258 43.0927 109.642 43.2839C109.026 43.4751 108.365 43.463 107.757 43.2492C107.149 43.0354 106.626 42.6314 106.265 42.097C105.905 41.5626 105.726 40.9263 105.755 40.2823C105.785 39.6383 106.021 39.0209 106.428 38.5215C106.836 38.0222 107.394 37.6674 108.019 37.5099C108.644 37.3523 109.303 37.4003 109.899 37.6468C110.443 37.8729 110.908 38.2536 111.238 38.7417C111.567 39.2299 111.746 39.8039 111.752 40.3928ZM98.1779 39.1588L98.0659 29.7358H90.547V40.5048C90.547 44.0148 88.852 43.4218 85.835 43.4218V51.1618C89.572 51.1618 90.557 51.5668 93.503 50.0798C93.964 49.8519 94.3936 49.5651 94.7809 49.2268L95.9059 48.1088C97.4305 46.2613 98.201 43.9061 98.063 41.5148H98.175C98.175 43.9338 99.4629 45.7998 100.803 47.5258C100.981 47.7568 101.182 47.9696 101.403 48.1608C106.424 52.5608 113.645 51.8278 117.313 46.7398C117.687 46.2366 118.016 45.7012 118.296 45.1398C120.69 40.3398 119.236 35.4308 115.536 32.1168C114.068 30.8912 112.296 30.0861 110.407 29.7868C108.518 29.4875 106.584 29.7052 104.809 30.4168C103.637 30.8784 102.558 31.5478 101.624 32.3928C100.733 33.2034 99.9737 34.148 99.374 35.1928C98.6813 36.4077 98.2725 37.7635 98.1779 39.1588Z" fill="url(#paint0_linear)"/>
<path fill-rule="evenodd" clip-rule="evenodd" d="M40.5229 51.2122H48.0399V40.6671L52.078 45.8282C52.714 46.6952 52.5479 46.6802 53.2489 45.7642L57.014 40.8911V51.2122H64.531V29.7852H57.014C56.936 30.0782 52.963 35.4931 52.639 35.7311C52.457 35.5981 48.2439 30.1312 48.1519 29.7852H40.5229V51.2122Z" fill="url(#paint1_linear)"/>
<path fill-rule="evenodd" clip-rule="evenodd" d="M78.442 40.4421C78.4476 41.0868 78.2454 41.7161 77.8654 42.2368C77.4853 42.7575 76.9477 43.142 76.332 43.3332C75.7164 43.5245 75.0555 43.5123 74.4473 43.2985C73.8391 43.0847 73.316 42.6807 72.9554 42.1463C72.5948 41.6119 72.4159 40.9756 72.4453 40.3316C72.4746 39.6876 72.7106 39.0702 73.1184 38.5709C73.5261 38.0715 74.0838 37.7168 74.709 37.5592C75.3341 37.4017 75.9933 37.4497 76.589 37.6961C77.1328 37.9222 77.5982 38.3029 77.9276 38.7911C78.257 39.2792 78.4359 39.8533 78.442 40.4421ZM64.755 40.1061C64.695 42.2269 65.2679 44.3175 66.4006 46.1114C67.5333 47.9053 69.1745 49.3213 71.1151 50.1789C73.0557 51.0364 75.2077 51.2967 77.2968 50.9265C79.3858 50.5562 81.3173 49.5723 82.845 48.1001C83.7238 47.2643 84.4486 46.2803 84.986 45.1931C85.635 43.8841 86.0098 42.4562 86.0876 40.9972C86.1654 39.5382 85.9445 38.0786 85.4383 36.708C84.9322 35.3374 84.1515 34.0845 83.1442 33.0261C82.1369 31.9678 80.924 31.1263 79.58 30.5531C77.9785 29.8842 76.2383 29.6147 74.5094 29.7678C72.7805 29.921 71.1148 30.4922 69.6558 31.4323C68.1968 32.3724 66.9883 33.6532 66.1343 35.1642C65.2804 36.6753 64.8067 38.3713 64.754 40.1061H64.755Z" fill="url(#paint2_linear)"/>
<path fill-rule="evenodd" clip-rule="evenodd" d="M119.381 35.2319C119.232 36.9976 119.489 38.774 120.133 40.4249C121.488 43.5489 123.568 43.4249 126.112 43.4249C127.284 43.4249 129.812 43.0489 129.812 44.2099C129.812 44.7739 129.156 44.9949 128.578 44.9949H120.95V51.0529H132.505C137.936 51.0529 138.74 43.6069 136.732 39.8709C135.266 37.1449 133.174 37.3709 130.71 37.3709C129.564 37.3709 127.232 37.7229 127.232 36.5859C127.232 36.0219 127.888 35.8009 128.466 35.8009H136.1V29.7349H124.541C121.741 29.7349 119.381 32.4849 119.381 35.2319Z" fill="url(#paint3_linear)"/>
<path fill-rule="evenodd" clip-rule="evenodd" d="M25.308 15.292L22.994 15.025L25.664 12L22.639 14.758L22.283 12.445L22.105 14.758L19.435 12.358L21.749 15.117L19.435 15.295L21.835 15.651C21.835 15.651 18.992 18.679 18.898 18.765C18.804 18.851 22.098 15.918 22.098 15.918L22.365 18.143L22.543 15.918L25.657 18.765L22.987 15.473L25.308 15.292Z" fill="#E5C67A"/>
<path fill-rule="evenodd" clip-rule="evenodd" d="M49.7151 30.2579L41.8621 29.9209L44.7791 26.4429L41.4141 29.36L41.0771 21.7319L40.7401 29.36L37.4871 26.6679L40.2871 29.9209L32.4341 30.2579L40.2871 30.4819L37.2681 34.0759L40.7461 30.9349L40.9701 38.7879L41.4191 30.9349L44.5601 33.735L41.8681 30.5939L49.7151 30.2579Z" fill="#E5C67A"/>
<path fill-rule="evenodd" clip-rule="evenodd" d="M84.3799 42.5958L78.6689 42.3518L80.7899 39.8348L78.3419 41.9458L78.0969 36.4248L77.8519 41.9458L75.4859 39.9978L77.5259 42.3518L71.8149 42.5958L77.5259 42.7578L75.3259 45.3578L77.8549 43.0848L78.0179 48.7678L78.3439 43.0848L80.6289 45.1148L78.6709 42.8418L84.3799 42.5958Z" fill="#E5C67A"/>
<path fill-rule="evenodd" clip-rule="evenodd" d="M107.93 33.8553L100.587 33.5433L103.314 30.3173L100.167 33.0233L99.8522 25.9473L99.5372 33.0233L96.4952 30.5233L99.1172 33.5413L91.7742 33.8533L99.1172 34.0613L96.2852 37.3913L99.5372 34.4773L99.7472 41.7623L100.167 34.4773L103.104 37.0773L100.586 34.1633L107.93 33.8553Z" fill="#E5C67A"/>
<path fill-rule="evenodd" clip-rule="evenodd" d="M101.092 33.4619C100.541 32.3549 101.541 29.0869 101.541 29.0869C101.541 29.0869 100.341 31.8279 99.073 32.4519C97.805 33.0759 88.752 29.4229 88.752 29.4229C88.752 29.4229 96.979 32.7609 98.063 34.1349C99.147 35.5089 97.727 38.8469 97.727 38.8469C97.727 38.8469 99.467 35.3169 100.307 35.0329C101.147 34.7489 111.189 38.5109 111.189 38.5109C111.189 38.5109 101.638 34.5689 101.092 33.4619Z" fill="#E5C67A"/>
</g>
<defs>
<linearGradient id="paint0_linear" x1="85.835" y1="40.4342" x2="119.467" y2="40.4342" gradientUnits="userSpaceOnUse">
<stop stop-color="#FFD50F"/>
<stop offset="1" stop-color="#E12916"/>
</linearGradient>
<linearGradient id="paint1_linear" x1="40.5229" y1="40.4987" x2="64.531" y2="40.4987" gradientUnits="userSpaceOnUse">
<stop stop-color="#FFD50F"/>
<stop offset="1" stop-color="#E12916"/>
</linearGradient>
<linearGradient id="paint2_linear" x1="64.7507" y1="40.4082" x2="86.1028" y2="40.4082" gradientUnits="userSpaceOnUse">
<stop stop-color="#FFD50F"/>
<stop offset="1" stop-color="#E12916"/>
</linearGradient>
<linearGradient id="paint3_linear" x1="119.34" y1="40.3939" x2="137.737" y2="40.3939" gradientUnits="userSpaceOnUse">
<stop stop-color="#FFD50F"/>
<stop offset="1" stop-color="#E12916"/>
</linearGradient>
<clipPath id="clip0">
<rect width="123.683" height="56.466" fill="white" transform="translate(18 12)"/>
</clipPath>
</defs>
</svg>
