<svg xmlns="http://www.w3.org/2000/svg" height="16" width="16" viewBox="0 0 650 622.97">
            <path d="M156.25 525 40.6 617.5A25 25 0 0 1 0 598V66.26A66.25 66.25 0 0 1 66.26 0h517.48A66.25 66.25 0 0 1 650 66.26v392.48A66.25 66.25 0 0 1 583.74 525Z" style="fill: #fff"></path>
            <path d="M200 238.72h250q25 0 25 25t-25 25H200q-25 0-25-25t25-25ZM193.43 327.45h184.29q18.43 0 18.43 25t-18.43 25H193.43q-18.44 0-18.43-25t18.43-25ZM200 150h250q25 0 25 25t-25 25H200q-25 0-25-25t25-25Z"></path>
          </svg>