<svg width="160" height="80" viewBox="0 0 160 80" fill="none" xmlns="http://www.w3.org/2000/svg">
<path d="M157.646 66.4744C157.339 66.8839 157.032 67.3274 156.657 67.7028C155.565 68.7605 154.201 69.1017 152.7 69.0676C149.494 69.0676 147.141 66.9521 146.424 63.9837C145.845 61.6293 145.947 59.3092 147.004 57.1255C148.232 54.5323 150.381 53.3381 153.246 53.4063C155.088 53.4404 156.589 54.1229 157.544 55.7606C157.544 55.7948 157.578 55.7948 157.646 55.8289C157.646 55.1465 157.646 54.4641 157.646 53.7816C158.43 53.7816 159.181 53.7816 159.965 53.7816C159.965 53.8499 159.999 53.9523 159.999 54.0546C159.999 58.7632 159.999 63.4377 159.999 68.1463C159.999 69.4429 159.795 70.7054 159.215 71.8655C158.601 73.1962 157.578 74.1515 156.179 74.5951C153.86 75.3457 151.541 75.3116 149.324 74.3563C147.823 73.708 146.868 72.5479 146.697 70.8419C146.697 70.7736 146.697 70.7395 146.697 70.6712C147.516 70.6712 148.334 70.6712 149.153 70.6712C149.358 72.0019 150.313 72.5479 151.438 72.8891C152.393 73.162 153.382 73.2303 154.337 72.9914C156.043 72.582 157.032 71.3878 157.373 69.7159C157.578 68.6581 157.612 67.6004 157.714 66.5086C157.748 66.4744 157.714 66.4744 157.646 66.4744ZM148.744 61.5952C148.846 62.1412 148.948 63.1306 149.255 64.086C149.801 65.8944 151.097 66.8498 152.871 66.9521C154.61 67.0545 156.111 66.2015 156.861 64.5637C157.816 62.4482 157.885 60.2987 157.032 58.1149C156.452 56.716 155.395 55.8289 153.826 55.6583C152.12 55.4877 150.688 55.9995 149.699 57.5008C148.982 58.5926 148.812 59.8551 148.744 61.5952Z" fill="white"/>
<path d="M77.1517 55.897C77.1517 55.1123 77.1517 54.464 77.1517 53.7816C77.9362 53.7816 78.7207 53.7816 79.5052 53.7816C79.5052 54.7028 79.5052 55.5899 79.5052 56.5112C79.5052 60.4009 79.5052 64.3248 79.4711 68.2145C79.4711 69.2722 79.3005 70.2958 78.9253 71.2853C78.3114 72.9914 77.1176 74.1856 75.3781 74.6633C73.0247 75.3115 70.6713 75.2774 68.4543 74.1514C67.0559 73.4349 66.2714 72.1725 66.2032 70.637C67.0218 70.637 67.8403 70.637 68.6589 70.637C68.7612 71.6948 69.4434 72.2748 70.3302 72.6501C71.4216 73.0937 72.5472 73.2302 73.7069 72.9914C75.0712 72.7184 76.0262 71.8995 76.5719 70.6712C77.1517 69.3405 77.1517 67.9074 77.1517 66.4402C76.8107 66.8838 76.5037 67.3615 76.1285 67.7368C74.7983 68.931 73.1953 69.2381 71.4899 69.0675C68.5907 68.7604 66.5101 66.7814 65.828 63.7447C65.3164 61.3563 65.4869 59.002 66.6466 56.8183C67.7721 54.7369 69.5798 53.611 71.9333 53.4404C73.2635 53.338 74.4913 53.5427 75.5828 54.2934C76.0262 54.6004 76.4014 55.0781 76.8107 55.4876C76.9471 55.5558 77.0153 55.6923 77.1517 55.897ZM77.0835 60.6398C76.9812 60.1621 76.8789 59.2749 76.606 58.4219C76.1285 56.8865 74.8665 55.6582 72.9224 55.5899C71.217 55.5217 69.648 56.3406 68.9318 57.9101C67.9427 60.128 68.0109 62.414 68.9659 64.6318C70.2961 67.6686 74.4231 67.4638 75.9239 65.1778C76.7425 63.9494 76.9812 62.5164 77.0835 60.6398Z" fill="#FE0B03"/>
<path d="M110.952 68.9311C110.1 68.9311 109.315 68.9311 108.463 68.9311C108.463 68.7605 108.463 68.5899 108.463 68.4193C108.463 65.1096 108.463 61.7999 108.429 58.4902C108.429 57.7737 108.258 57.0913 107.78 56.5112C107.201 55.7606 106.348 55.6582 105.461 55.6582C103.278 55.6582 101.539 57.6713 101.539 59.7185C101.539 62.6188 101.539 65.519 101.539 68.3851C101.539 68.5557 101.539 68.7263 101.539 68.9311C100.72 68.9311 99.9016 68.9311 99.083 68.9311C99.083 63.8812 99.083 58.8314 99.083 53.7816C99.8334 53.7816 100.584 53.7816 101.368 53.7816C101.368 54.4981 101.368 55.2146 101.368 55.9312C101.402 55.9312 101.436 55.9653 101.436 55.9653C101.505 55.8629 101.607 55.7606 101.675 55.6923C103.415 53.2357 106.689 52.9286 108.838 53.9863C109.418 54.2593 109.861 54.4981 110.543 55.9653C110.782 55.6923 110.987 55.4535 111.191 55.1805C112.317 53.9522 113.749 53.4063 115.386 53.4404C116.307 53.4404 117.194 53.5427 118.047 53.9181C119.377 54.4981 120.127 55.5558 120.264 56.9548C120.366 58.3878 120.332 59.855 120.332 61.2881C120.332 63.7106 120.332 66.1332 120.332 68.5216C120.332 68.6581 120.332 68.7605 120.332 68.9311C119.514 68.9311 118.695 68.9311 117.808 68.9311C117.808 68.624 117.808 68.351 117.808 68.078C117.808 64.9048 117.808 61.7316 117.774 58.5584C117.774 57.7396 117.638 56.9548 116.99 56.3406C116.751 56.1359 116.478 55.8971 116.171 55.8288C114.841 55.3852 112.59 55.59 111.532 57.1595C111.021 57.9443 110.884 58.7973 110.884 59.6844C110.884 62.5847 110.884 65.4508 110.884 68.351C110.952 68.5216 110.952 68.7263 110.952 68.9311Z" fill="white"/>
<path d="M19.1345 11.7793C20.2942 9.9027 22.1019 9.45914 24.0801 9.45914C27.3545 9.45914 29.8102 11.404 30.6288 14.6113C31.2428 17.0339 31.1745 19.4223 30.1172 21.6742C29.0599 23.8921 27.218 25.0863 24.7623 25.291C23.1933 25.4275 21.6926 25.1545 20.3624 24.1992C19.919 23.8921 19.5438 23.4485 19.1686 23.0732C19.1686 23.6532 19.1686 24.3015 19.1686 24.9839C18.3159 24.9839 17.4974 24.9839 16.6788 24.9839C16.6788 18.0234 16.6788 11.0628 16.6788 4.06812C17.4632 4.06812 18.2818 4.06812 19.1345 4.06812C19.1345 6.62715 19.1345 9.18618 19.1345 11.7793ZM28.48 17.5116C28.3436 16.6244 28.2754 15.8738 28.1048 15.1572C27.5591 12.9735 25.922 11.677 23.8073 11.677C21.6244 11.6428 20.0554 12.8712 19.4074 15.0549C18.9299 16.6927 18.9299 18.3646 19.4756 19.9682C20.0554 21.7766 21.2833 22.8685 23.1933 23.1073C25.3762 23.3803 27.1498 22.3908 27.8661 20.3777C28.1731 19.4223 28.2754 18.3987 28.48 17.5116Z" fill="white"/>
<path d="M62.4854 4C64.3613 4 66.2032 4 68.1132 4C68.1132 17.7846 68.1132 31.5693 68.1132 45.3881C69.1705 45.3881 70.2279 45.3881 71.2852 45.3881C71.2852 46.1728 71.2852 46.9235 71.2852 47.6741C69.4093 47.6741 67.5675 47.6741 65.6233 47.6741C65.6233 33.9236 65.6233 20.139 65.6233 6.32019C64.566 6.32019 63.5428 6.32019 62.4854 6.32019C62.4854 5.53542 62.4854 4.78477 62.4854 4Z" fill="#FE0B03"/>
<path d="M14.2571 23.005C14.2571 23.6192 14.2571 24.1651 14.2571 24.711C14.2571 24.8134 14.1548 24.9499 14.0866 24.984C13.1998 25.3593 12.2789 25.4276 11.3921 25.0522C10.8805 24.8475 10.6076 24.404 10.4712 23.858C10.403 23.5851 10.3689 23.3462 10.3348 22.9709C10.096 23.2097 9.92547 23.4486 9.72082 23.6192C8.35651 24.8475 6.68524 25.2911 4.87753 25.2228C4.26359 25.2228 3.61554 25.1205 3.03571 24.984C1.02336 24.5404 -0.0339792 23.1074 0.000128534 21.026C0.0342362 18.8082 1.15979 17.3752 3.37679 16.8292C4.77521 16.488 6.20773 16.2833 7.64025 16.0103C8.08365 15.908 8.56116 15.8397 8.97045 15.6691C10.2665 15.2256 10.6417 13.8266 9.82314 12.7348C9.44796 12.223 8.93634 11.9159 8.2883 11.7794C6.99221 11.5406 5.76433 11.5747 4.50234 12.0524C3.61554 12.4277 3.24036 13.1101 3.10393 13.9972C3.06982 14.1337 3.06982 14.3043 3.03571 14.4749C2.21713 14.4749 1.39854 14.4749 0.579959 14.4749C0.477636 12.8713 1.56908 11.0288 3.17214 10.2099C4.40002 9.5957 5.73022 9.42509 7.06042 9.45921C7.77668 9.45921 8.49294 9.52745 9.20921 9.62982C11.4603 9.97102 12.6882 11.4041 12.6882 13.656C12.6882 15.4644 12.6882 17.2387 12.6882 19.0471C12.6882 20.0707 12.6882 21.0602 12.7223 22.0838C12.7564 23.0733 13.0293 23.278 13.9843 23.0733C14.0525 23.0391 14.1207 23.0391 14.2571 23.005ZM10.1642 17.2387C9.65261 17.4093 9.1751 17.5799 8.66348 17.6822C7.87901 17.8528 7.09453 17.9211 6.31005 18.0576C5.42325 18.194 4.53645 18.2964 3.75197 18.8082C2.83107 19.3883 2.5241 20.2413 2.66053 21.2649C2.79696 22.2203 3.4109 22.7662 4.2977 22.9709C5.45736 23.278 6.61702 23.1756 7.74257 22.7321C8.97045 22.2544 9.92547 21.4014 10.096 20.0365C10.2665 19.1153 10.1642 18.1599 10.1642 17.2387Z" fill="#FE0B03"/>
<path d="M96.7295 66.9519C96.7295 67.5319 96.7295 68.112 96.7295 68.692C96.7295 68.7944 96.5931 68.9309 96.4907 68.965C95.7063 69.2721 94.8536 69.3403 94.0691 69.1015C93.2846 68.8626 92.9776 68.2143 92.8753 67.4637C92.8753 67.3272 92.8412 67.2248 92.8412 67.0884C92.8412 67.0884 92.8412 67.0543 92.773 66.986C92.6025 67.1907 92.4319 67.3955 92.2273 67.5661C90.863 68.8285 89.1917 69.2721 87.384 69.238C86.4972 69.238 85.6104 69.1015 84.7918 68.7603C83.5298 68.2143 82.7453 67.2249 82.5748 65.86C82.4043 64.5293 82.5066 63.2669 83.4275 62.2092C84.1097 61.4244 85.0306 60.9467 86.0197 60.742C87.4863 60.4349 88.9871 60.2302 90.4537 59.9231C91.0335 59.7866 91.5792 59.5478 92.125 59.343C92.5001 59.1724 92.6366 58.8312 92.7048 58.4559C92.9094 57.2617 92.2955 56.204 91.1358 55.8628C89.8397 55.4874 88.5095 55.5215 87.2134 55.9992C86.2584 56.3404 85.7809 57.0228 85.6445 58.0123C85.6104 58.1488 85.6104 58.3194 85.5763 58.49C84.7577 58.49 83.9391 58.49 83.1205 58.49C83.0523 56.5793 84.1438 54.805 85.9856 54.0885C88.2026 53.2355 90.4537 53.2014 92.7048 53.9179C94.3078 54.4297 95.1605 55.658 95.1605 57.3299C95.1947 59.8207 95.1605 62.3115 95.1947 64.8023C95.1947 65.3141 95.1946 65.8259 95.2629 66.3718C95.3311 67.0201 95.5698 67.2249 96.252 67.1225C96.3543 67.0201 96.5249 66.986 96.7295 66.9519ZM92.6707 61.1173C92.3637 61.2538 92.125 61.3903 91.8862 61.4585C91.0335 61.6291 90.1467 61.7656 89.294 61.9362C88.4072 62.1068 87.5204 62.2433 86.6677 62.5162C85.5763 62.8916 85.0306 63.8469 85.1329 64.9388C85.2352 66.0648 85.8491 66.7472 87.0429 66.9519C88.5095 67.2249 89.908 67.0201 91.1699 66.2012C92.0908 65.5871 92.6707 64.7341 92.7048 63.574C92.7048 62.7892 92.6707 61.9703 92.6707 61.1173Z" fill="white"/>
<path d="M97.3094 40.8842C97.3094 42.6585 97.7187 44.1939 99.2536 45.1151C100.925 46.1388 102.664 46.207 104.404 45.2516C105.188 44.8422 105.632 44.0915 105.836 43.2385C105.905 42.9656 106.007 42.8973 106.28 42.8973C106.962 42.9314 107.678 42.8973 108.394 42.8973C107.985 45.081 106.894 46.7529 104.779 47.5036C102.323 48.3907 99.9016 48.2883 97.6505 46.8212C96.218 45.8658 95.4335 44.4669 95.0242 42.8291C94.4103 40.4406 94.4444 38.1205 95.604 35.9026C97.0707 33.1048 99.9698 31.7058 103.074 32.2517C105.564 32.6953 107.064 34.299 107.985 36.5168C108.497 37.7793 108.736 39.5535 108.633 40.816C104.847 40.8842 101.095 40.8842 97.3094 40.8842ZM105.973 38.7005C105.768 36.0391 103.824 34.299 101.266 34.4354C99.1171 34.5378 97.2753 36.5168 97.3435 38.7005C100.209 38.7005 103.074 38.7005 105.973 38.7005Z" fill="white"/>
<path d="M110.782 18.1261C106.962 18.1261 103.21 18.1261 99.4582 18.1261C99.2876 21.0263 101.164 23.1418 104.165 23.1076C105.256 23.1076 106.28 22.8688 107.098 22.0499C107.542 21.6063 107.815 21.0945 107.951 20.5145C108.019 20.2074 108.156 20.1392 108.463 20.1392C109.145 20.1733 109.827 20.1392 110.509 20.1392C110.134 22.9029 107.985 24.9501 105.12 25.2231C103.278 25.3937 101.471 25.189 99.8674 24.1313C98.7078 23.3465 97.8892 22.2546 97.4458 20.9239C96.6272 18.5355 96.4908 16.1471 97.4799 13.7928C98.8101 10.6196 101.948 8.91355 105.325 9.56183C107.78 10.0395 109.281 11.6432 110.134 13.861C110.645 15.2258 110.816 16.6248 110.782 18.1261ZM99.424 15.9082C102.323 15.9082 105.188 15.9082 108.087 15.9082C108.053 13.7586 106.416 11.8138 104.165 11.6773C101.539 11.4726 99.6628 13.1445 99.424 15.9082Z" fill="white"/>
<path d="M55.2204 25.2571C53.1399 25.2912 51.2639 24.6771 49.7973 23.1075C48.7059 21.9474 48.1601 20.5144 47.9214 18.9789C47.6826 17.2047 47.7849 15.4304 48.4671 13.7585C49.4562 11.3701 51.2298 9.97116 53.7879 9.56171C55.2204 9.32287 56.6188 9.42523 57.9832 9.90292C59.7568 10.5512 61.0529 11.7454 61.7691 13.4856C62.8947 16.147 62.8947 18.8766 61.6668 21.5039C60.5412 23.8582 58.563 25.0524 56.0049 25.2571C55.732 25.2912 55.4592 25.2571 55.2204 25.2571ZM59.8932 17.4776C59.8932 16.4199 59.7568 15.4304 59.3475 14.4751C58.6312 12.8373 57.4374 11.8478 55.6297 11.6772C53.7879 11.5066 52.2531 12.189 51.3663 13.8268C50.0702 16.1811 50.002 18.6719 51.3663 20.9921C53.0034 23.7899 56.9599 23.8582 58.8358 21.2309C59.6544 20.1049 59.8932 18.8083 59.8932 17.4776Z" fill="white"/>
<path d="M33.0505 20.2073C33.8691 20.2073 34.6536 20.2073 35.4721 20.2073C35.5062 20.2415 35.5404 20.3097 35.5404 20.3438C35.6768 21.811 36.5636 22.5617 37.8938 22.9029C39.224 23.2441 40.5542 23.2099 41.8844 22.7664C42.7712 22.4593 43.2487 21.7769 43.2828 20.958C43.3169 20.0709 42.8394 19.4908 42.089 19.1496C40.9294 18.6037 39.7015 18.3648 38.4395 18.0919C37.1775 17.8189 35.9155 17.4777 34.79 16.7271C32.9141 15.4987 33.0505 12.5985 34.2443 11.3019C35.1993 10.2783 36.393 9.80061 37.7232 9.59589C39.224 9.35705 40.7247 9.45941 42.1572 9.93709C43.9308 10.5171 44.8859 11.8137 45.1246 13.6221C45.1587 13.8268 45.1587 13.9974 45.1928 14.2363C44.3401 14.2363 43.5216 14.2363 42.703 14.2363C42.5324 12.6667 41.5092 12.0184 40.1108 11.8137C39.0876 11.6431 38.0984 11.6772 37.1434 12.0867C36.6318 12.2914 36.1543 12.6326 36.0179 13.2468C35.8473 14.1339 36.1543 14.7822 37.1093 15.1916C37.9279 15.5328 38.7806 15.7717 39.6333 16.0105C40.8612 16.3859 42.1572 16.6247 43.351 17.0683C44.7835 17.5801 45.7386 18.6037 45.875 20.2415C46.0114 22.0498 45.3293 23.4829 43.7603 24.4383C42.8394 24.9842 41.8503 25.223 40.7929 25.3254C39.1899 25.496 37.6209 25.4278 36.1202 24.8477C34.176 24.0288 32.9482 22.1863 33.0505 20.2073Z" fill="white"/>
<path d="M133.122 68.9312C132.27 68.9312 131.451 68.9312 130.633 68.9312C130.633 63.8813 130.633 58.8315 130.633 53.7817C131.417 53.7817 132.167 53.7817 132.952 53.7817C132.952 54.5665 132.952 55.3171 132.952 56.1019C132.986 56.136 133.054 56.1701 133.088 56.2043C133.088 56.136 133.088 56.0678 133.122 55.9995C134.248 54.1229 135.953 53.3723 138.068 53.4064C139.296 53.4405 140.49 53.6452 141.479 54.43C142.604 55.3171 143.048 56.5455 143.082 57.9103C143.15 60.7423 143.15 63.5401 143.15 66.3721C143.15 67.2251 143.15 68.044 143.15 68.9312C142.332 68.9312 141.513 68.9312 140.66 68.9312C140.66 68.7606 140.66 68.59 140.66 68.4535C140.66 65.2803 140.66 62.1412 140.66 58.968C140.66 58.115 140.558 57.2961 139.978 56.6137C139.535 56.1019 138.989 55.7948 138.341 55.6924C136.636 55.4536 135.135 55.7607 134.009 57.1596C133.259 58.115 133.054 59.2751 133.054 60.4693C133.054 63.1307 133.054 65.8262 133.054 68.4876C133.122 68.6582 133.122 68.7606 133.122 68.9312Z" fill="white"/>
<path d="M82.0974 9.80054C82.9159 9.80054 83.7345 9.80054 84.5531 9.80054C84.5531 14.8504 84.5531 19.8661 84.5531 24.95C83.8027 24.95 83.0183 24.95 82.2338 24.95C82.2338 24.1994 82.2338 23.4146 82.2338 22.6639C82.1997 22.6639 82.1656 22.6298 82.1656 22.6298C82.0291 22.8345 81.8927 23.0393 81.7222 23.244C80.8354 24.4382 79.6075 25.0524 78.1409 25.223C77.0494 25.3253 75.958 25.3253 74.9006 24.95C73.3999 24.4041 72.4449 23.3805 72.2402 21.8109C72.0356 20.3437 72.0356 18.8424 72.0015 17.3411C71.9674 14.9527 72.0015 12.5984 72.0015 10.21C72.0015 10.0735 72.0015 9.93702 72.0356 9.80054C72.8542 9.80054 73.6728 9.80054 74.5255 9.80054C74.5255 9.93702 74.5255 10.1076 74.5255 10.2782C74.5255 13.4855 74.5596 16.6587 74.5255 19.8661C74.4913 22.2204 75.958 23.3463 78.2091 23.1075C80.5284 22.8687 81.9609 21.3674 82.0632 18.9789C82.1315 17.0341 82.0974 15.1233 82.0974 13.1785C82.0974 12.189 82.0974 11.1995 82.0974 10.1759C82.0632 10.0735 82.0974 9.93702 82.0974 9.80054Z" fill="white"/>
<path d="M86.395 45.2858C87.7934 40.9866 89.1577 36.7898 90.5561 32.593C91.4088 32.593 92.2615 32.593 93.1824 32.593C92.8072 33.6508 92.432 34.7085 92.0227 35.7662C90.5902 39.6559 89.1918 43.5457 87.7593 47.4354C87.6569 47.7084 87.5546 47.8107 87.2476 47.8107C86.4973 47.7766 85.7469 47.8107 84.9624 47.8107C83.0865 42.7609 81.2106 37.7111 79.3347 32.593C80.2556 32.593 81.1083 32.593 81.9951 32.593C82.0974 32.593 82.1997 32.7977 82.2679 32.9342C83.1888 35.6639 84.1097 38.3935 85.0306 41.1231C85.4399 42.3856 85.8833 43.648 86.2926 44.9105C86.2926 45.0128 86.3267 45.0811 86.395 45.2858Z" fill="white"/>
<path d="M94.7854 11.9842C93.7963 11.9842 92.8072 11.9842 91.7839 11.9842C91.7839 12.189 91.7839 12.3254 91.7839 12.496C91.7839 15.4304 91.7839 18.3306 91.7839 21.265C91.7839 21.3673 91.7839 21.4697 91.7839 21.6062C91.818 22.4592 92.0909 22.7322 92.9095 22.7663C93.5234 22.8004 94.1374 22.7663 94.7513 22.7663C94.7513 23.5511 94.7513 24.2335 94.7513 25.0182C94.3079 25.0182 93.8645 25.0182 93.4211 25.0182C92.8072 24.9841 92.1591 24.9841 91.5452 24.9159C89.908 24.7453 89.3282 23.8923 89.2941 22.391C89.2259 19.6272 89.26 16.8293 89.2259 14.0315C89.2259 13.3832 89.2259 12.7349 89.2259 12.0184C88.3732 12.0184 87.5205 12.0184 86.6678 12.0184C86.6678 11.2677 86.6678 10.5853 86.6678 9.83465C87.4864 9.83465 88.3391 9.83465 89.2259 9.83465C89.2259 8.29923 89.2259 6.79793 89.2259 5.29663C90.0786 5.29663 90.8971 5.29663 91.7498 5.29663C91.7498 6.79793 91.7498 8.29923 91.7498 9.83465C92.7731 9.83465 93.7281 9.83465 94.7513 9.83465C94.7854 10.5171 94.7854 11.2336 94.7854 11.9842Z" fill="white"/>
<path d="M126.71 68.9312C125.892 68.9312 125.073 68.9312 124.254 68.9312C124.254 63.8814 124.254 58.8316 124.254 53.7817C125.073 53.7817 125.858 53.7817 126.71 53.7817C126.71 58.8316 126.71 63.8473 126.71 68.9312Z" fill="white"/>
<path d="M76.8788 32.593C76.8788 37.6428 76.8788 42.6927 76.8788 47.7425C76.0603 47.7425 75.2758 47.7425 74.4231 47.7425C74.4231 42.6927 74.4231 37.6428 74.4231 32.593C75.2417 32.593 76.0603 32.593 76.8788 32.593Z" fill="white"/>
<path d="M124.254 47.9814C125.073 47.9814 125.858 47.9814 126.71 47.9814C126.71 48.9709 126.71 49.9604 126.71 50.984C125.926 50.984 125.107 50.984 124.254 50.984C124.254 49.9945 124.254 49.0051 124.254 47.9814Z" fill="white"/>
<path d="M74.4231 29.8292C74.4231 28.9079 74.4231 28.0208 74.4231 27.0996C74.4231 26.9972 74.4231 26.929 74.4231 26.7925C75.2417 26.7925 76.0603 26.7925 76.8788 26.7925C76.8788 27.782 76.8788 28.7715 76.8788 29.7951C76.0603 29.8292 75.2758 29.8292 74.4231 29.8292Z" fill="white"/>
</svg>
