<svg width="160" height="80" viewBox="0 0 160 80" fill="none" xmlns="http://www.w3.org/2000/svg">
<g clip-path="url(#clip0)">
<path d="M33.5523 70.1507H40.9489L29.4258 38.0339H23.7421C22.4185 38.0339 21.2506 38.8515 20.8224 40.0972L10 70.1507H17.3966L19.4209 63.8052H31.4891L33.5523 70.1507ZM21.2117 58.2772L25.4939 45.0023L29.7762 58.2772H21.2117Z" fill="#FBB03B"/>
<path d="M131.732 70.1507H125.504V27.7955C125.504 26.0826 126.905 24.6812 128.618 24.6812H131.732V70.1507Z" fill="#999999"/>
<path d="M76.2969 44.6521H74.6229C68.8613 44.6521 64.1119 49.4015 64.1119 55.163V60.4574C64.1119 66.219 68.8613 70.9684 74.6229 70.9684H76.2969C82.0584 70.9684 86.8078 66.219 86.8078 60.4574V55.163C86.8078 49.4015 82.0973 44.6521 76.2969 44.6521ZM80.5791 60.0682C80.5791 62.8711 78.3212 65.129 75.5183 65.129H75.4015C72.5986 65.129 70.3406 62.8711 70.3406 60.0682V55.5523C70.3406 52.7494 72.5986 50.4915 75.4015 50.4915H75.5183C78.3212 50.4915 80.5791 52.7494 80.5791 55.5523V60.0682Z" fill="#FBB03B"/>
<path d="M58.9733 37.917H56.9489V47.0265C55.3918 45.4693 53.2117 44.535 50.7981 44.535C44.8419 44.535 39.9368 49.2844 39.9368 55.0459V60.3404C39.9368 66.1019 44.8029 70.8513 50.7981 70.8513H52.511C58.4672 70.8513 63.3723 66.1408 63.3723 60.3404V42.1603C63.4112 39.8245 61.4258 37.917 58.9733 37.917ZM51.7324 65.0119H51.6545C48.7738 65.0119 46.438 62.754 46.438 59.9511V55.4352C46.438 52.6323 48.7738 50.3744 51.6545 50.3744H51.7713C54.6521 50.3744 56.9879 52.6323 56.9879 55.4352V59.99C56.9489 62.754 54.6132 65.0119 51.7324 65.0119Z" fill="#FBB03B"/>
<path d="M100.238 44.6521H98.5256C92.5694 44.6521 87.6642 49.4015 87.6642 55.163V56.1752V60.4574V80H91.3625C92.8808 80 94.0876 78.7932 94.0876 77.275V67.9319C95.6448 69.6837 97.6691 70.9684 100.238 70.9684C106.195 70.9684 111.1 66.219 111.1 60.4574V55.163C111.1 49.4015 106.195 44.6521 100.238 44.6521ZM104.637 60.0682C104.637 62.8711 102.302 65.129 99.4209 65.129H99.3041C96.4234 65.129 94.0876 62.8711 94.0876 60.0682V55.5134C94.0876 52.7494 96.4234 50.4526 99.3041 50.4526H99.4209C102.302 50.4526 104.637 52.7105 104.637 55.5134V60.0682Z" fill="#FBB03B"/>
<path d="M120.092 65.4013C119.431 65.4013 118.925 64.8952 118.925 64.2334V50.2188H119.47C121.182 50.2188 122.584 48.8174 122.584 47.1045V45.5473H118.925V41.1483C118.925 39.4354 117.523 38.0339 115.81 38.0339H112.696V66.2578C112.696 68.3989 114.448 70.1507 116.589 70.1507H118.925H122.779V65.4013H120.092Z" fill="#FBB03B"/>
<path d="M141.659 65.4013C140.998 65.4013 140.492 64.8952 140.492 64.2334V50.2188H141.037C142.749 50.2188 144.151 48.8174 144.151 47.1045V45.5473H140.492V41.1483C140.492 39.4354 139.09 38.0339 137.377 38.0339H134.263V66.2578C134.263 68.3989 136.015 70.1507 138.156 70.1507H140.492H144.346V65.4013H141.659Z" fill="#999999"/>
<path d="M128.618 21.9173C131.198 21.9173 133.29 19.8258 133.29 17.2458C133.29 14.6657 131.198 12.5742 128.618 12.5742C126.038 12.5742 123.947 14.6657 123.947 17.2458C123.947 19.8258 126.038 21.9173 128.618 21.9173Z" fill="#FBB03B"/>
<path d="M149.251 17.2457C149.251 23.5522 146.759 29.2749 142.749 33.5182C142.516 33.7518 142.516 34.1021 142.749 34.3357C142.983 34.5693 143.372 34.5693 143.567 34.3357C147.81 29.8977 150.419 23.8637 150.419 17.2457C150.419 10.6277 147.81 4.59361 143.567 0.155651C143.333 -0.0779254 142.983 -0.0779254 142.749 0.155651C142.516 0.389228 142.516 0.739593 142.749 0.973169C146.759 5.21648 149.251 10.9391 149.251 17.2457Z" fill="#999999"/>
<path d="M145.28 17.2455C145.28 22.462 143.256 27.1725 139.908 30.7151C139.674 30.9487 139.674 31.299 139.908 31.5326C140.141 31.7662 140.53 31.7662 140.725 31.5326C144.229 27.7954 146.409 22.7735 146.409 17.2455C146.409 11.7175 144.229 6.69561 140.725 2.95839C140.492 2.72481 140.141 2.72481 139.908 2.95839C139.674 3.19196 139.674 3.54233 139.908 3.7759C143.217 7.31848 145.28 12.0679 145.28 17.2455Z" fill="#999999"/>
<path d="M140.842 17.2458C140.842 21.2166 139.285 24.8759 136.793 27.5621C136.56 27.7957 136.56 28.146 136.793 28.3796C137.027 28.6132 137.416 28.6132 137.611 28.3796C140.336 25.4599 142.01 21.528 142.01 17.2458C142.01 12.9635 140.336 9.03166 137.611 6.11195C137.377 5.87837 137.027 5.87837 136.793 6.11195C136.56 6.34553 136.56 6.69589 136.793 6.92947C139.285 9.65453 140.842 13.275 140.842 17.2458Z" fill="#999999"/>
<path d="M136.092 17.2458C136.092 19.9319 135.08 22.3845 133.406 24.2531C133.212 24.4867 133.212 24.837 133.445 25.0317C133.679 25.2653 134.068 25.2653 134.302 24.9928C136.17 22.9295 137.299 20.2044 137.299 17.2458C137.299 14.2482 136.17 11.5232 134.302 9.49884C134.068 9.26526 133.679 9.22633 133.445 9.45991C133.212 9.69348 133.212 10.0438 133.406 10.2385C135.08 12.1071 136.092 14.5597 136.092 17.2458Z" fill="#999999"/>
<path d="M107.946 17.2457C107.946 23.5522 110.438 29.2749 114.448 33.5182C114.681 33.7518 114.681 34.1021 114.448 34.3357C114.214 34.5693 113.825 34.5693 113.63 34.3357C109.387 29.8977 106.779 23.8637 106.779 17.2457C106.779 10.6277 109.387 4.59361 113.63 0.155651C113.864 -0.0779254 114.214 -0.0779254 114.448 0.155651C114.681 0.389228 114.681 0.739593 114.448 0.973169C110.438 5.21648 107.946 10.9391 107.946 17.2457Z" fill="#999999"/>
<path d="M111.956 17.2455C111.956 22.462 113.981 27.1725 117.329 30.7151C117.562 30.9487 117.562 31.299 117.329 31.5326C117.095 31.7662 116.706 31.7662 116.511 31.5326C113.007 27.7954 110.827 22.7735 110.827 17.2455C110.827 11.7175 113.007 6.69561 116.511 2.95839C116.745 2.72481 117.095 2.72481 117.329 2.95839C117.562 3.19196 117.562 3.54233 117.329 3.7759C113.981 7.31848 111.956 12.0679 111.956 17.2455Z" fill="#999999"/>
<path d="M116.355 17.2458C116.355 21.2166 117.912 24.8759 120.404 27.5621C120.637 27.7957 120.637 28.146 120.404 28.3796C120.17 28.6132 119.781 28.6132 119.586 28.3796C116.861 25.4599 115.187 21.528 115.187 17.2458C115.187 12.9635 116.861 9.03166 119.586 6.11195C119.82 5.87837 120.17 5.87837 120.404 6.11195C120.637 6.34553 120.637 6.69589 120.404 6.92947C117.912 9.65453 116.355 13.275 116.355 17.2458Z" fill="#999999"/>
<path d="M121.105 17.2458C121.105 19.9319 122.117 22.3845 123.791 24.2531C123.985 24.4867 123.985 24.837 123.752 25.0317C123.518 25.2653 123.129 25.2653 122.895 24.9928C121.027 22.9295 119.898 20.2044 119.898 17.2458C119.898 14.2482 121.027 11.5232 122.895 9.49884C123.129 9.26526 123.518 9.22633 123.752 9.45991C123.985 9.69348 123.985 10.0438 123.791 10.2385C122.117 12.1071 121.105 14.5597 121.105 17.2458Z" fill="#999999"/>
<path opacity="0.21" d="M23.7422 38.0339C22.4186 38.0339 21.2507 38.8515 20.8225 40.0972L17.1631 50.2578C19.1485 50.9196 21.1728 51.5424 23.1971 52.1264L25.494 45.0412L28.219 53.5279C30.6327 54.1507 33.1242 54.7347 35.6156 55.2797L29.4259 38.0339H23.7422Z" fill="white"/>
<path opacity="0.21" d="M128.618 24.6812C126.905 24.6812 125.504 26.0826 125.504 27.7955V55.085C127.606 54.6179 129.669 54.1118 131.732 53.6057V24.6812H128.618Z" fill="white"/>
<path opacity="0.21" d="M76.2969 44.6521H74.6229C68.8613 44.6521 64.1119 49.4015 64.1119 55.163V59.3285C66.1752 59.4842 68.2385 59.601 70.3406 59.6789V55.5523C70.3406 52.7494 72.5986 50.4915 75.4015 50.4915H75.5183C78.3212 50.4915 80.5791 52.7494 80.5791 55.5523V59.9124C82.6813 59.9124 84.7445 59.8735 86.8078 59.7957V55.163C86.8078 49.4015 82.0973 44.6521 76.2969 44.6521Z" fill="white"/>
<path opacity="0.21" d="M58.9733 37.917H56.949V47.0265C55.3918 45.4693 53.2118 44.535 50.7981 44.535C44.8419 44.535 39.9368 49.2844 39.9368 55.0459V56.136C42.0779 56.5642 44.2191 56.9145 46.3602 57.2649V55.4352C46.3602 52.6323 48.696 50.3744 51.5767 50.3744H51.6935C54.5743 50.3744 56.9101 52.6323 56.9101 55.4352V58.6664C59.0512 58.8999 61.1923 59.0946 63.3334 59.2503V42.1992C63.4113 39.8245 61.4259 37.917 58.9733 37.917Z" fill="white"/>
<path opacity="0.21" d="M100.238 44.6521H98.5255C92.5693 44.6521 87.6642 49.4015 87.6642 55.163V56.1752V59.7956C89.8054 59.7178 91.9854 59.601 94.0876 59.4842V55.5523C94.0876 52.7883 96.4234 50.4915 99.3041 50.4915H99.4209C102.302 50.4915 104.637 52.7494 104.637 55.5523V58.5499C106.818 58.3163 108.959 58.0438 111.061 57.7324V55.202C111.1 49.4015 106.195 44.6521 100.238 44.6521Z" fill="white"/>
<path opacity="0.21" d="M119.47 50.2188C121.183 50.2188 122.584 48.8174 122.584 47.1045V45.5473H118.925V41.1483C118.925 39.4354 117.523 38.0339 115.81 38.0339H112.696V57.4597C114.798 57.1483 116.861 56.7979 118.925 56.4086V50.2188H119.47Z" fill="white"/>
<path opacity="0.21" d="M140.492 50.2189H141.037C142.749 50.2189 144.151 48.8174 144.151 47.1045V45.5473H140.492V41.1483C140.492 39.4354 139.09 38.0339 137.377 38.0339H134.263V52.9439C136.365 52.36 138.428 51.776 140.492 51.1532V50.2189Z" fill="white"/>
<path opacity="0.08" d="M128.618 21.9173C131.198 21.9173 133.29 19.8258 133.29 17.2458C133.29 14.6657 131.198 12.5742 128.618 12.5742C126.038 12.5742 123.947 14.6657 123.947 17.2458C123.947 19.8258 126.038 21.9173 128.618 21.9173Z" fill="white"/>
<path opacity="0.21" d="M149.251 17.2457C149.251 23.5522 146.759 29.2749 142.75 33.5182C142.516 33.7518 142.516 34.1021 142.75 34.3357C142.983 34.5693 143.372 34.5693 143.567 34.3357C147.81 29.8977 150.419 23.8637 150.419 17.2457C150.419 10.6277 147.81 4.59361 143.567 0.155651C143.333 -0.0779254 142.983 -0.0779254 142.75 0.155651C142.516 0.389228 142.516 0.739593 142.75 0.973169C146.759 5.21648 149.251 10.9391 149.251 17.2457Z" fill="white"/>
<path opacity="0.21" d="M145.28 17.2455C145.28 22.462 143.255 27.1725 139.908 30.7151C139.674 30.9487 139.674 31.299 139.908 31.5326C140.141 31.7662 140.53 31.7662 140.725 31.5326C144.229 27.7954 146.409 22.7735 146.409 17.2455C146.409 11.7175 144.229 6.69561 140.725 2.95839C140.491 2.72481 140.141 2.72481 139.908 2.95839C139.674 3.19196 139.674 3.54233 139.908 3.7759C143.217 7.31848 145.28 12.0679 145.28 17.2455Z" fill="white"/>
<path opacity="0.21" d="M140.842 17.2458C140.842 21.2166 139.285 24.8759 136.793 27.5621C136.56 27.7957 136.56 28.146 136.793 28.3796C137.027 28.6132 137.416 28.6132 137.611 28.3796C140.336 25.4599 142.01 21.528 142.01 17.2458C142.01 12.9635 140.336 9.03166 137.611 6.11195C137.377 5.87837 137.027 5.87837 136.793 6.11195C136.56 6.34553 136.56 6.69589 136.793 6.92947C139.285 9.65453 140.842 13.275 140.842 17.2458Z" fill="white"/>
<path opacity="0.21" d="M137.26 17.2458C137.26 14.2482 136.131 11.5232 134.263 9.49884C134.029 9.26526 133.64 9.22633 133.406 9.45991C133.173 9.69348 133.173 10.0438 133.367 10.2385C135.041 12.1071 136.054 14.5597 136.054 17.2458C136.054 19.9319 135.041 22.3845 133.367 24.2531C133.173 24.4867 133.173 24.837 133.406 25.0317C133.64 25.2653 134.029 25.2653 134.263 24.9928C136.131 22.9684 137.26 20.2434 137.26 17.2458Z" fill="white"/>
<path opacity="0.21" d="M107.947 17.2457C107.947 10.9391 110.438 5.21648 114.448 0.973169C114.681 0.739593 114.681 0.389228 114.448 0.155651C114.214 -0.0779254 113.825 -0.0779254 113.63 0.155651C109.387 4.59361 106.779 10.6277 106.779 17.2457C106.779 23.8637 109.387 29.8977 113.63 34.3357C113.864 34.5693 114.214 34.5693 114.448 34.3357C114.681 34.1021 114.681 33.7518 114.448 33.5182C110.438 29.2749 107.947 23.5522 107.947 17.2457Z" fill="white"/>
<path opacity="0.21" d="M111.956 17.2455C111.956 12.0289 113.981 7.31848 117.329 3.7759C117.562 3.54233 117.562 3.19196 117.329 2.95839C117.095 2.72481 116.706 2.72481 116.511 2.95839C113.007 6.69561 110.827 11.7175 110.827 17.2455C110.827 22.7735 113.007 27.7954 116.511 31.5326C116.745 31.7662 117.095 31.7662 117.329 31.5326C117.562 31.299 117.562 30.9487 117.329 30.7151C113.981 27.2114 111.956 22.462 111.956 17.2455Z" fill="white"/>
<path opacity="0.21" d="M116.355 17.2458C116.355 13.275 117.912 9.6156 120.404 6.92947C120.638 6.69589 120.638 6.34553 120.404 6.11195C120.17 5.87837 119.781 5.87837 119.586 6.11195C116.861 9.03166 115.187 12.9635 115.187 17.2458C115.187 21.528 116.861 25.4599 119.586 28.3796C119.82 28.6132 120.17 28.6132 120.404 28.3796C120.638 28.146 120.638 27.7957 120.404 27.5621C117.912 24.8759 116.355 21.2555 116.355 17.2458Z" fill="white"/>
<path opacity="0.21" d="M121.105 17.2458C121.105 14.5597 122.117 12.1071 123.791 10.2385C123.985 10.0049 123.985 9.65455 123.752 9.4599C123.518 9.22633 123.129 9.22633 122.895 9.49883C121.027 11.5621 119.898 14.2872 119.898 17.2458C119.898 20.2434 121.027 22.9684 122.895 24.9928C123.129 25.2263 123.518 25.2653 123.752 25.0317C123.985 24.7981 123.985 24.4477 123.791 24.2531C122.117 22.4234 121.105 19.9319 121.105 17.2458Z" fill="white"/>
</g>
<defs>
<clipPath id="clip0">
<rect width="160" height="80" fill="white"/>
</clipPath>
</defs>
</svg>
