<svg width="160" height="80" viewBox="0 0 160 80" fill="none" xmlns="http://www.w3.org/2000/svg">
<g clip-path="url(#clip0)">
<path d="M143.285 39.2168C143.285 41.8807 143.285 44.651 143.285 47.3149C143.285 48.2739 142.957 48.7001 141.864 48.7001C138.805 48.5935 139.133 49.0197 139.133 45.9297C139.133 44.4379 139.133 42.9462 139.133 41.561C139.133 41.2413 139.242 40.9217 138.805 40.8151C138.477 40.8151 138.368 41.1348 138.259 41.3479C137.494 43.1593 136.62 44.9707 135.855 46.7821C135.636 47.2083 135.636 47.7411 134.981 47.7411C134.325 47.7411 134.325 47.2083 134.106 46.7821C133.342 45.0773 132.686 43.3724 131.812 41.6675C131.703 41.3479 131.593 40.602 131.047 40.8151C130.501 40.9217 130.828 41.561 130.828 41.9872C130.828 43.7986 130.828 45.5035 130.828 47.3149C130.828 48.2739 130.61 48.7001 129.517 48.7001C126.349 48.5935 126.676 49.1263 126.676 46.0362C126.676 41.1348 126.676 36.3399 126.676 31.4384C126.676 29.9466 126.786 29.8401 128.315 29.8401C131.047 29.8401 130.938 29.8401 131.812 32.0777C132.467 34.2088 133.56 36.1268 134.434 38.1513C134.543 38.3644 134.543 38.7906 134.981 38.8971C135.418 38.8971 135.418 38.4709 135.527 38.2578C136.62 35.8071 137.712 33.3564 138.696 30.9056C139.023 30.1597 139.351 29.8401 140.225 29.9466C143.722 30.0532 143.176 29.5204 143.285 32.9301C143.394 34.9547 143.285 37.0857 143.285 39.2168Z" fill="#FECD07"/>
<path d="M60.8007 35.6654C60.2514 37.0543 59.8119 38.4433 59.2626 39.8322C58.3837 42.3964 57.395 44.9606 56.5161 47.5248C56.1865 48.3796 55.8569 48.7001 54.8682 48.7001C54.209 48.5932 53.44 48.7001 52.6709 48.7001C51.792 48.7001 51.4624 48.3796 51.792 47.5248C53.0005 44.4264 54.0991 41.328 55.3076 38.3364C56.2964 35.8791 57.2851 33.3149 58.164 30.8575C58.4936 30.1096 58.933 29.8959 59.7021 29.8959C62.2289 29.7891 62.5585 29.7891 63.1078 30.3233C63.5472 30.7507 63.767 31.4985 64.3163 32.8875C66.0741 37.4817 67.8319 42.0759 69.4798 46.6701C69.5897 46.9906 69.8094 47.418 69.9192 47.7385C70.139 48.3796 69.9192 48.7001 69.1502 48.7001C68.1614 48.7001 67.2826 48.7001 66.2938 48.7001C65.5248 48.7001 65.4149 48.059 65.1952 47.5248C64.3163 45.2811 63.5472 42.9306 62.7782 40.6869C62.2289 39.0843 61.5697 37.4817 61.0204 35.8791C61.0204 35.6654 60.9106 35.6654 60.8007 35.6654Z" fill="#CAD1EA"/>
<path d="M114.167 39.1722C114.167 36.5255 114.167 33.773 114.167 31.1264C114.167 30.1736 114.381 29.7501 115.451 29.856C118.235 29.856 120.912 29.856 123.695 29.856C124.552 29.856 124.98 30.1736 124.98 31.0205C124.98 33.9847 125.301 33.773 122.303 33.773C121.233 33.773 120.162 33.773 119.199 33.773C118.556 33.773 118.235 34.0906 118.235 34.7258V34.8317C118.235 37.69 118.021 37.3724 120.697 37.4783C122.089 37.4783 122.303 37.7959 121.554 39.0663C121.233 39.4898 121.019 40.0191 120.805 40.4426C120.483 40.9719 120.162 41.2895 119.413 41.2895C118.556 41.1836 118.235 41.5012 118.235 42.454C118.235 45.2065 118.021 44.783 120.59 44.783C121.661 44.783 122.732 44.783 123.802 44.783C124.552 44.783 124.98 45.1006 124.98 45.8417C124.98 49.1235 125.408 48.5942 122.303 48.7001C120.055 48.7001 117.914 48.7001 115.666 48.7001C114.595 48.7001 114.274 48.3825 114.274 47.3238C114.167 44.5713 114.167 41.8188 114.167 39.1722Z" fill="#FECD07"/>
<path d="M82.5191 39.4818C82.1912 34.4493 86.1258 30.7018 90.7162 29.9522C92.5742 29.631 94.1043 30.0593 95.853 30.4876C96.1809 30.5947 96.6181 30.7018 96.6181 31.13C96.6181 32.2008 96.7274 33.2715 96.6181 34.3423C96.5088 35.0918 95.9623 34.8776 95.5252 34.6635C94.6508 34.2352 93.6671 33.914 92.6835 33.914C89.9511 33.914 87.656 35.413 86.8909 37.8757C86.1258 40.4454 87.0002 43.2293 89.2954 44.6213C91.1534 45.692 93.1207 45.692 95.088 44.8355C96.2902 44.3001 96.5088 44.4072 96.5088 45.692C96.5088 46.0133 96.5088 46.2274 96.5088 46.5486C96.5088 48.7972 96.5088 48.9042 94.2136 49.3325C91.372 49.7608 88.6396 49.5467 86.2351 47.7264C83.6121 45.4779 82.4098 42.8011 82.5191 39.4818Z" fill="#CAD1EA"/>
<path d="M71.8769 39.2168C71.8769 36.553 71.8769 33.7826 71.8769 31.1187C71.8769 30.1597 72.1923 29.8401 73.1385 29.8401C76.1872 29.9466 75.7667 29.5204 75.7667 32.5039C75.7667 36.1268 75.7667 39.643 75.7667 43.2658C75.7667 44.4379 76.1872 44.8642 77.2385 44.7576C78.6052 44.651 80.077 44.7576 81.4436 44.7576C82.0744 44.7576 82.4949 44.9707 82.8103 45.5035C83.336 46.3559 83.9667 47.1018 84.7026 47.7411C84.9129 47.9542 85.1232 48.1673 84.9129 48.487C84.8078 48.7001 84.4924 48.7001 84.2821 48.7001C80.3924 48.7001 76.5026 48.7001 72.6128 48.7001C71.7718 48.7001 71.6667 48.2739 71.6667 47.6346C71.8769 44.7576 71.8769 41.9872 71.8769 39.2168Z" fill="#CAD1EA"/>
<path d="M98.4433 39.2089C98.4433 36.5473 98.4433 33.7792 98.4433 31.1177C98.4433 30.1595 98.6632 29.8401 99.7627 29.8401C103.061 29.9466 102.511 29.5207 102.621 32.5017C102.621 33.6728 102.621 34.8439 102.621 36.015C102.621 36.8667 102.951 37.2925 103.941 37.2925C104.601 37.2925 105.26 37.2925 105.81 37.2925C106.58 37.2925 106.909 37.6119 106.47 38.3572C106.03 39.1024 105.59 39.8477 105.15 40.5929C104.82 41.1252 104.271 41.2317 103.611 41.2317C102.841 41.2317 102.511 41.5511 102.511 42.2963C102.511 43.9997 102.511 45.7031 102.511 47.4066C102.511 48.3647 102.292 48.7906 101.192 48.6841C97.8935 48.5777 98.4433 49.0035 98.3333 46.0225C98.4433 43.6803 98.4433 41.4446 98.4433 39.2089Z" fill="#CAD1EA"/>
<path d="M108.381 39.2089C108.381 36.5473 108.381 33.7792 108.381 31.1177C108.381 30.1595 108.598 29.8401 109.682 29.8401C112.934 29.9466 112.392 29.5207 112.5 32.5017C112.5 33.6728 112.5 34.8439 112.5 36.015C112.5 36.8667 112.5 41.5511 112.5 42.2963C112.5 43.9997 112.5 45.7031 112.5 47.4066C112.5 48.3647 112.283 48.7906 111.199 48.6841C107.948 48.5777 108.49 49.0035 108.381 46.0225C108.273 43.6803 108.381 41.4446 108.381 39.2089Z" fill="url(#paint0_linear)"/>
<path d="M154.89 44.5137C154.89 45.5841 154.89 46.6545 154.89 47.6178C154.89 47.8319 155 48.153 154.779 48.3671C154.228 48.7952 152.683 48.6882 151.58 48.6882C150.918 48.6882 150.807 48.153 150.807 47.6178C150.807 46.2263 150.697 44.9419 150.807 43.5504C151.028 41.4096 150.366 39.59 149.152 37.7704C147.718 35.6296 146.504 33.3818 145.291 31.134C144.739 30.1707 144.96 29.8496 146.063 29.8496C146.394 29.8496 146.725 29.8496 147.056 29.8496C148.601 29.8496 148.711 29.6355 149.594 31.2411C150.918 33.7029 152.352 36.1648 153.897 38.6267C154.779 40.0182 155 41.3026 155 42.9082C154.89 43.4434 154.89 44.2997 154.89 44.5137Z" fill="#FECD07"/>
<path d="M159.98 30.3462C160.08 30.6819 159.779 31.1296 159.679 31.3534C158.677 33.4797 157.775 35.1584 156.672 37.2847C156.171 38.2919 155.77 38.2919 155.169 37.2847C154.968 36.837 154.768 36.3894 154.467 35.9418C154.066 35.2703 154.066 34.7107 154.467 34.0393C154.969 33.0321 155.47 32.1368 155.971 31.1296C156.372 30.1224 156.672 29.8986 157.975 29.8986C158.376 29.8986 158.877 29.8986 159.278 29.8986C159.579 29.7867 159.88 29.7867 159.98 30.3462Z" fill="#FECD08"/>
<path d="M40.8333 42.4753C40.8333 39.2453 40.8333 35.8807 40.8333 32.6508C40.8333 31.5741 40.5537 30.9012 39.4349 30.2283C33.5616 26.9983 27.6884 23.6337 21.8151 20.4037C20.8362 19.8654 19.8573 19.8654 19.0183 20.4037C13.145 23.6337 7.27169 26.9983 1.3984 30.2283C0.419521 30.7666 0 31.4395 0 32.5162C0 38.9761 0.13984 45.4361 0 51.7615C0 53.2419 0.559362 54.0494 1.67808 54.7223C4.47489 56.3373 7.41153 57.8177 10.2083 59.4327C12.4458 60.6439 12.8653 60.5093 13.8442 58.0869C15.8019 52.569 17.7597 47.0511 19.8573 41.5332C19.9972 41.1295 20.5565 39.9182 20.5565 39.9182C20.5565 39.9182 20.976 41.1295 21.1159 41.5332C23.2135 47.1857 25.1712 52.9727 27.2688 58.6252C27.8282 60.2402 28.5274 60.5093 30.0656 59.7019C33.282 57.9523 36.3585 56.2027 39.4349 54.4531C40.4138 53.9148 40.6935 53.2419 40.6935 52.1652C40.8333 49.0698 40.8333 45.8398 40.8333 42.4753ZM36.2186 42.4753C36.2186 44.7632 36.2186 47.1857 36.2186 49.4736C36.2186 50.8194 35.7991 51.4923 34.6804 52.1652C31.1844 54.184 31.1844 54.184 29.6461 50.5502C27.6884 45.4361 25.7306 40.4565 23.7728 35.3424C23.3533 34.2658 22.794 33.7274 21.3956 33.862C17.0605 33.9966 18.1792 33.1891 16.641 37.092C14.6832 42.0715 12.8653 46.9165 10.9075 51.8961C10.2083 53.7802 9.64897 53.9148 7.83105 52.9727C7.69121 52.8381 7.55137 52.7036 7.27169 52.7036C5.31393 51.8961 4.61473 50.6848 4.75457 48.6661C4.89441 44.2249 4.89441 39.9182 4.75457 35.477C4.75457 34.2657 5.17409 33.4583 6.29281 32.9199C10.488 30.632 14.5434 28.3441 18.7386 25.9216C19.8573 25.2487 20.8362 25.2487 21.9549 25.9216C26.1501 28.3441 30.2055 30.632 34.4007 32.9199C35.6593 33.5928 36.0788 34.4003 36.0788 35.7462C36.0788 37.8995 36.2186 40.1874 36.2186 42.4753Z" fill="#FECD07"/>
<path d="M143.224 39.2168C143.224 41.8807 143.224 44.651 143.224 47.3149C143.224 48.2739 142.895 48.7001 141.799 48.7001C138.731 48.5935 139.06 49.0197 139.06 45.9297C139.06 44.4379 139.06 42.9462 139.06 41.561C139.06 41.2413 139.169 40.8151 138.84 40.8151C138.512 40.8151 138.402 41.1348 138.292 41.3479C137.525 43.1593 136.649 44.9707 135.882 46.7821C135.662 47.2083 135.662 47.7411 135.005 47.7411C134.347 47.7411 134.347 47.2083 134.128 46.7821C133.361 45.0773 132.704 43.3724 131.827 41.6675C131.717 41.3479 131.279 40.7086 131.06 40.8151C130.95 40.9217 130.95 41.561 130.841 41.9872C130.841 43.7986 130.841 45.5035 130.841 47.3149C130.841 48.2739 130.621 48.7001 129.526 48.7001C126.348 48.5935 126.676 49.1263 126.676 46.0362C126.676 41.1348 126.676 36.3399 126.676 31.4384C126.676 29.9466 126.786 29.8401 128.32 29.8401C131.06 29.8401 130.95 29.8401 131.827 32.0777C132.484 34.2088 133.58 36.1268 134.457 38.1513C134.567 38.3644 134.567 38.7906 135.005 38.8971C135.443 38.8971 135.443 38.4709 135.553 38.2578C136.649 35.8071 137.744 33.3564 138.731 30.9056C139.06 30.1597 139.388 29.8401 140.265 29.9466C143.772 30.0532 143.224 29.5204 143.333 32.9301C143.333 34.9547 143.224 37.0857 143.224 39.2168Z" fill="#FECD07"/>
<path d="M81.0605 53.7405H79.1076C78.3482 53.7405 77.8057 54.2743 77.8057 55.0216V59.7189C77.8057 60.4663 78.3482 61 79.1076 61H81.0605C81.82 61 82.3624 60.4663 82.3624 59.7189V57.05H79.9756V58.4378H80.735V59.5054H79.5416V55.4486H80.735V56.4094H82.3624V55.1283C82.3624 54.381 81.82 53.7405 81.0605 53.7405Z" fill="#54565B"/>
<path d="M89.9571 53.8474L88.2212 61.0002H89.8486L90.2826 59.3988H91.5845L92.0185 61.0002H93.6459L92.0185 53.8474H89.9571ZM91.042 56.5164L91.3675 57.7975H90.825L91.042 56.5164Z" fill="#54565B"/>
<path d="M102.976 57.9042L101.566 53.8474H100.156V61.0002H101.783V57.0502L102.651 58.9718H103.41L104.278 57.0502V61.0002H105.906V53.8474H104.387L102.976 57.9042Z" fill="#54565B"/>
<path d="M114.477 53.8474H112.849V61.0002H114.477V53.8474Z" fill="#54565B"/>
<path d="M124.675 57.9042L122.939 53.8474H121.42V61.0002H123.048V57.9042L124.35 61.0002H126.303V53.8474H124.675V57.9042Z" fill="#54565B"/>
<path d="M137.044 56.3027V55.0216C137.044 54.2743 136.501 53.7405 135.742 53.7405H133.789C133.029 53.7405 132.487 54.2743 132.487 55.0216V59.7189C132.487 60.4663 133.029 61 133.789 61H135.742C136.501 61 137.044 60.4663 137.044 59.7189V57.05H134.657V58.2243H135.416V59.3987H134.223V55.3419H135.416V56.3027H137.044Z" fill="#54565B"/>
</g>
<defs>
<linearGradient id="paint0_linear" x1="115.203" y1="35.1064" x2="103.983" y2="44.7923" gradientUnits="userSpaceOnUse">
<stop stop-color="#FECD07"/>
<stop offset="0.0429932" stop-color="#F8CD20"/>
<stop offset="0.1324" stop-color="#EDCE4F"/>
<stop offset="0.2275" stop-color="#E4CF79"/>
<stop offset="0.3265" stop-color="#DCD09C"/>
<stop offset="0.4308" stop-color="#D5D0B8"/>
<stop offset="0.542" stop-color="#D0D1CE"/>
<stop offset="0.6633" stop-color="#CDD1DE"/>
<stop offset="0.8026" stop-color="#CBD1E7"/>
<stop offset="1" stop-color="#CAD1EA"/>
</linearGradient>
<clipPath id="clip0">
<rect width="160" height="80" fill="white"/>
</clipPath>
</defs>
</svg>
