<svg width="160" height="80" viewBox="0 0 160 80" fill="none" xmlns="http://www.w3.org/2000/svg">
<g clip-path="url(#clip0)">
<path d="M37.5109 18.5418C35.8097 19.741 34.22 20.8008 32.6861 21.9164C31.5984 22.6972 31.2916 23.8686 31.9889 24.6495C32.8534 25.6535 33.718 25.1794 34.5547 24.5658C36.3953 23.255 38.2081 21.9164 40.0488 20.6056C40.4393 21.0518 40.2719 21.498 40.2719 21.8885C40.2719 33.8808 40.2719 45.8731 40.2998 57.8655C40.2998 58.7579 40.0488 59.3157 39.3237 59.8177C37.8177 60.8496 36.2559 61.7141 34.6104 62.5229C33.6064 63.0249 33.216 62.9971 33.2439 61.6584C33.2996 54.463 33.2718 47.2397 33.2718 40.0443C33.2718 38.9287 33.4391 37.6737 31.8494 37.4785C30.9012 37.3669 30.3713 38.3431 30.3713 40.0443C30.3713 42.889 30.3713 45.7058 30.3713 48.5505C30.3713 49.1919 30.3434 49.5824 29.5067 49.5545C26.9688 49.4987 24.403 49.5266 21.642 49.5266C22.3113 46.9887 22.9528 44.5344 23.5942 42.1081C25.7975 33.7692 28.0007 25.4304 30.1482 17.0636C30.4549 15.8365 30.9291 15.6692 32.0167 16.0875C33.8574 16.729 35.6702 17.3983 37.5109 18.5418Z" fill="white"/>
<path d="M15.3948 32.124C13.1637 32.124 10.9326 32.0961 8.70142 32.1518C7.92053 32.1797 7.55797 31.9566 7.36274 31.1478C6.88863 29.0562 6.35873 26.9924 5.77306 24.9564C5.57784 24.315 5.66151 23.8688 6.13562 23.3389C11.6856 17.3706 18.4347 14.5538 26.5784 15.0558C27.4987 15.1116 27.6103 15.3347 27.3593 16.2271C26.0206 21.1356 24.7098 26.072 23.4548 31.0363C23.2317 31.9566 22.8133 32.1797 21.9209 32.1518C19.7455 32.0961 17.5702 32.124 15.3948 32.124Z" fill="#00AAC2"/>
<path d="M15.339 61.4632C13.582 54.6583 11.7971 47.8533 10.0401 41.0484C9.62177 39.4308 9.23132 37.8132 8.7851 36.2236C8.58987 35.5821 8.61776 35.3032 9.39866 35.3032C13.4426 35.3311 17.4586 35.3311 21.5025 35.3032C22.0882 35.3032 22.3392 35.3869 22.1719 36.0841C19.9686 44.5624 17.7933 53.0128 15.59 61.4911C15.4785 61.4911 15.3948 61.4632 15.339 61.4632Z" fill="#00AAC2"/>
<path d="M12.3549 61.1565C-0.167328 53.8774 -3.23513 38.1201 3.43037 27.2991C6.41451 38.5942 9.34287 49.7498 12.3549 61.1565Z" fill="white"/>
<path d="M43.3118 23.4504C52.1248 33.3232 50.8977 48.0208 43.3397 55.9134C43.1724 54.7142 43.1445 25.2911 43.3118 23.4504Z" fill="white"/>
<path d="M30.3713 58.507C30.3713 59.9851 30.3434 61.4912 30.3992 62.9693C30.4271 63.6386 30.2318 63.9175 29.5346 64.057C25.9648 64.7542 22.4229 64.6426 18.9089 63.8338C18.1558 63.6665 17.9885 63.3597 18.1837 62.5788C19.0204 59.6226 19.8013 56.6942 20.5264 53.7101C20.6938 53.0407 20.9448 52.8176 21.642 52.8176C24.2357 52.8455 26.8294 52.8455 29.4231 52.8176C30.1482 52.8176 30.3992 53.0128 30.3713 53.738C30.3434 55.3555 30.3713 56.9173 30.3713 58.507Z" fill="white"/>
<path d="M79.8745 44.7297C79.1773 44.7297 78.48 44.7576 77.7828 44.7297C76.3884 44.7018 76.0258 44.1998 76.4999 42.8611C77.5876 39.7654 78.731 36.6697 79.8466 33.5741C80.1255 32.7932 80.4044 32.0123 80.7112 31.2314C80.9064 30.7015 81.1574 30.1158 81.8825 30.3668C82.6076 30.6457 82.4403 31.2314 82.2451 31.7892C81.018 35.1358 79.8466 38.5104 78.5637 41.8292C78.1733 42.8611 78.229 43.2795 79.4283 43.0843C79.484 43.0843 79.5119 43.0843 79.5677 43.0843C80.6833 43.0285 82.0777 43.5305 82.8029 42.889C83.5001 42.2755 82.9702 40.881 83.026 39.8212C83.0539 39.2077 83.1375 38.622 83.8905 38.6499C84.5878 38.6778 84.7551 39.2077 84.7551 39.8491C84.7551 40.2674 84.783 40.6858 84.7551 41.1041C84.6157 42.4428 84.6993 43.5026 86.54 43.1121C87.0699 43.0006 87.5998 43.2795 87.5719 43.9488C87.544 44.5903 87.0141 44.8134 86.4563 44.7018C84.8945 44.4229 84.5599 45.1759 84.7272 46.5146C84.8109 47.0724 84.7551 47.6302 84.7272 48.188C84.6993 48.7179 84.4204 49.0804 83.8627 49.0804C83.3049 49.0804 83.0539 48.69 83.0539 48.1601C83.0539 47.3234 82.9981 46.4867 83.0539 45.6501C83.1096 44.9528 82.8865 44.6182 82.1335 44.6739C81.3526 44.7855 80.5996 44.7297 79.8745 44.7297Z" fill="white"/>
<path d="M122.405 41.9688C122.405 43.5863 122.378 45.2039 122.433 46.8494C122.461 47.8534 122.099 48.4112 121.123 48.6622C119.868 48.969 118.585 49.22 117.274 49.1363C114.764 48.9968 113.063 47.3793 112.979 44.8971C112.895 42.164 112.951 39.4309 112.951 36.6977C112.951 36.0563 113.174 35.5543 113.843 35.5822C114.457 35.6101 114.624 36.1121 114.624 36.6977C114.596 39.0962 114.596 41.5226 114.624 43.921C114.652 47.1283 117.553 48.7737 120.37 47.2398C120.899 46.9609 120.732 46.5426 120.732 46.1522C120.732 43.1401 120.732 40.1281 120.732 37.1161C120.732 36.4188 120.648 35.5543 121.652 35.5822C122.517 35.6101 122.433 36.4467 122.433 37.0882C122.405 38.7336 122.405 40.3512 122.405 41.9688Z" fill="white"/>
<path d="M99.9547 35.5542C100.624 35.5821 101.433 35.7494 102.242 36.0283C102.827 36.2514 103.469 36.4745 103.19 37.2554C102.911 37.9527 102.325 37.7574 101.795 37.5343C100.875 37.1718 99.9268 37.0323 98.9228 37.1439C98.0303 37.2554 97.3052 37.6738 97.11 38.622C96.8869 39.626 97.3889 40.3511 98.2813 40.7416C99.2017 41.1878 100.178 41.4946 101.098 41.9129C102.827 42.7217 103.636 44.0604 103.469 45.7616C103.301 47.3513 102.074 48.6621 100.289 49.0247C98.8391 49.3314 97.4447 49.0247 96.0781 48.439C95.604 48.2438 95.2414 47.9091 95.4366 47.3792C95.6598 46.7656 96.1896 46.7377 96.7195 46.9609C97.6678 47.3513 98.6439 47.6302 99.6758 47.5465C100.652 47.4629 101.489 47.0445 101.74 45.9847C101.991 44.8971 101.516 44.0883 100.54 43.5863C99.7873 43.2237 99.0064 42.9169 98.2534 42.5823C95.9386 41.6061 95.0462 40.2954 95.4645 38.3989C95.7992 36.6419 97.5562 35.4984 99.9547 35.5542Z" fill="white"/>
<path d="M156.374 35.5264C157.351 35.5821 158.299 35.7774 159.219 36.1678C159.693 36.363 159.972 36.7814 159.721 37.2834C159.526 37.7296 159.08 37.8133 158.633 37.6459C157.713 37.2834 156.765 37.0603 155.789 37.1161C154.729 37.1718 153.836 37.5344 153.613 38.6778C153.418 39.7655 154.032 40.4349 154.98 40.8253C155.844 41.1879 156.709 41.5225 157.546 41.8851C159.303 42.6939 160.195 44.0883 159.972 45.7059C159.749 47.3793 158.494 48.7179 156.681 49.0247C155.259 49.2757 153.92 48.9968 152.609 48.439C152.052 48.2159 151.745 47.8255 151.996 47.2398C152.247 46.7099 152.749 46.7378 153.195 46.933C154.143 47.3235 155.119 47.6303 156.179 47.5187C157.183 47.4071 157.992 47.0167 158.243 45.9569C158.494 44.8413 157.992 44.0604 157.016 43.5584C156.263 43.1959 155.482 42.8891 154.729 42.5544C152.386 41.5504 151.522 40.1839 151.996 38.2037C152.386 36.614 154.199 35.4706 156.374 35.5264Z" fill="white"/>
<path d="M89.8867 32.3469C88.7711 32.9884 87.8787 33.5462 86.9304 34.0482C86.4842 34.2992 85.9264 34.5223 85.5918 33.9087C85.3129 33.3509 85.6754 32.9605 86.1495 32.6537C87.2651 32.0123 88.3807 31.3429 89.5241 30.7015C90.9186 29.9206 91.5879 30.2831 91.5879 31.9286C91.6158 36.5303 91.5879 41.132 91.5879 45.7058C91.5879 46.403 91.5879 47.1003 91.5879 47.7975C91.5879 48.439 91.4764 49.1083 90.6955 49.0804C89.8867 49.0525 89.8588 48.3832 89.8588 47.7417C89.8588 43.0564 89.8588 38.371 89.8588 33.6856C89.8867 33.3509 89.8867 32.9605 89.8867 32.3469Z" fill="white"/>
<path d="M107.066 33.2395C107.066 35.7495 107.066 35.7495 109.66 35.8332C110.302 35.8611 110.971 35.8611 110.943 36.6977C110.887 37.4507 110.246 37.4229 109.66 37.4229C107.066 37.5065 107.066 37.5065 107.066 40.156C107.066 41.913 107.039 43.6979 107.066 45.4549C107.094 46.933 107.764 47.5466 109.242 47.4908C109.521 47.4908 109.8 47.4351 110.078 47.4351C110.553 47.4351 110.915 47.6303 110.943 48.1323C110.971 48.5506 110.72 48.7737 110.329 48.9411C108.126 49.8614 105.477 48.3275 105.421 45.929C105.337 41.0484 105.393 36.1678 105.393 31.3151C105.393 30.7016 105.672 30.2832 106.258 30.3111C106.76 30.339 107.066 30.7016 107.066 31.2594C107.066 31.9287 107.066 32.5701 107.066 33.2395Z" fill="white"/>
<path d="M69.0535 39.8493C69.0535 37.1162 69.0535 34.383 69.0535 31.6499C69.0535 31.0085 69.0814 30.3391 69.8902 30.3391C70.699 30.367 70.7269 31.0363 70.7269 31.6778C70.7269 37.0604 70.7269 42.443 70.7269 47.8256C70.7269 48.4671 70.6711 49.1364 69.8623 49.1364C69.0256 49.1364 69.0535 48.4113 69.0535 47.7977C69.0535 45.1204 69.0535 42.4709 69.0535 39.8493Z" fill="white"/>
<path d="M74.3525 39.8214C74.3525 42.4151 74.3525 45.0088 74.3525 47.6304C74.3525 48.2997 74.4082 49.0806 73.5158 49.1085C72.5954 49.1364 72.6512 48.3276 72.6512 47.6862C72.6512 42.3872 72.6512 37.1162 72.6512 31.8172C72.6512 31.1479 72.5954 30.3391 73.4879 30.3391C74.464 30.3391 74.3803 31.2037 74.3803 31.9009C74.3525 34.5504 74.3525 37.1998 74.3525 39.8214Z" fill="white"/>
<path d="M137.717 42.4986C137.717 44.3114 137.717 46.0963 137.717 47.9091C137.717 48.5227 137.633 49.1083 136.908 49.1083C136.183 49.1362 136.043 48.5784 136.043 47.9649C136.043 44.2277 136.043 40.4627 136.043 36.7256C136.043 36.0841 136.238 35.5542 136.936 35.5821C137.633 35.61 137.744 36.1957 137.744 36.8092C137.717 38.7057 137.717 40.6021 137.717 42.4986Z" fill="white"/>
<path d="M136.88 30.2832C137.521 30.3948 138.023 30.7015 137.995 31.4267C137.995 32.1239 137.605 32.5422 136.88 32.5422C136.183 32.5422 135.764 32.1518 135.736 31.4545C135.764 30.7294 136.238 30.3948 136.88 30.2832Z" fill="white"/>
<path d="M133.84 31.6777C133.84 31.0362 133.812 30.339 133.003 30.339C132.222 30.3111 132.111 30.9804 132.111 31.6219C132.139 33.1279 132.111 34.6618 132.111 36.2515C131.469 36.0563 130.967 35.861 130.41 35.7216C126.84 34.857 124.33 36.8371 124.302 40.4906C124.302 41.8851 124.274 43.2795 124.302 44.674C124.386 47.1282 126.031 48.8853 128.457 49.1084C129.824 49.2478 131.135 48.9689 132.446 48.6343C133.422 48.3833 133.784 47.8534 133.784 46.8493C133.812 41.8014 133.812 36.7256 133.84 31.6777ZM130.633 47.4629C130.019 47.5187 129.433 47.5745 128.82 47.5466C127.174 47.4629 126.143 46.5147 126.059 44.8413C125.975 43.2238 126.003 41.6062 126.031 39.9607C126.059 38.7057 126.617 37.6738 127.872 37.2834C129.266 36.865 130.633 37.0324 131.832 37.9248C132.222 38.2037 132.111 38.5663 132.111 38.9288C132.111 40.1281 132.111 41.3552 132.111 42.5544C132.111 43.6142 131.999 44.7019 132.139 45.7617C132.334 47.0725 131.637 47.3792 130.633 47.4629Z" fill="white"/>
<path d="M67.1013 43.3352C67.1013 42.3033 67.0734 41.2993 67.1013 40.2674C67.157 38.4268 66.7108 36.8092 64.8422 36.0283C62.7227 35.1358 60.6589 35.4705 58.7066 36.5861C58.3162 36.8092 58.121 37.1996 58.3441 37.6459C58.5672 38.0921 58.9855 38.1479 59.4318 37.9805C60.129 37.7295 60.7983 37.3391 61.4955 37.1996C64.0892 36.6418 65.4279 37.7574 65.4 40.2117C65.4 40.9368 65.2048 41.1878 64.4797 41.1878C63.2804 41.1599 62.0533 41.1878 60.8541 41.3272C58.874 41.5503 57.6468 42.889 57.5353 44.8413C57.3958 46.7935 58.5114 48.3832 60.4358 48.8852C62.1928 49.3593 63.9219 49.0804 65.651 48.6621C66.6829 48.4111 67.157 47.8812 67.1013 46.7935C67.0734 45.65 67.1013 44.4787 67.1013 43.3352ZM62.5274 47.5744C60.3521 47.6023 59.3202 46.8772 59.2644 45.2596C59.2086 44.0325 59.7664 43.2516 60.9657 42.9169C61.6629 42.7217 62.3322 42.7775 63.0294 42.7775C65.3721 42.7775 65.3721 42.7775 65.3721 45.0644C65.4 47.4349 65.2606 47.5465 62.5274 47.5744Z" fill="white"/>
<path d="M149.96 40.3791C149.876 37.5344 147.896 35.61 145.079 35.5543C142.235 35.4706 140.171 37.3113 140.003 40.156C139.92 41.5504 139.92 42.9449 139.976 44.3393C140.087 47.3514 142.151 49.2478 145.135 49.1642C148.008 49.0805 149.932 47.1004 149.96 44.1441C149.96 43.5305 149.96 42.9449 149.96 42.3313C149.96 41.662 149.988 41.0205 149.96 40.3791ZM148.287 44.2278C148.231 46.431 147.004 47.6302 144.884 47.6024C142.848 47.5745 141.705 46.4031 141.649 44.2557C141.621 43.6142 141.649 42.9449 141.649 42.3034C141.649 41.7456 141.649 41.1879 141.649 40.6301C141.677 38.3432 142.792 37.1718 144.884 37.1439C147.059 37.116 148.259 38.3153 148.287 40.6022C148.314 41.8014 148.314 43.0007 148.287 44.2278Z" fill="white"/>
</g>
<defs>
<clipPath id="clip0">
<rect width="160" height="80" fill="white"/>
</clipPath>
</defs>
</svg>
