<svg width="160" height="80" viewBox="0 0 160 80" fill="none" xmlns="http://www.w3.org/2000/svg">
<path d="M8.94678 49.849H149.923V50.8349H8.94678V49.849Z" fill="#296FF5"/>
<path d="M52.4615 41.5864H52.532L58.3825 25.6481H63.6926V26.1646C63.2227 26.1646 62.8233 26.2115 62.5413 26.3054C62.2359 26.3993 62.0009 26.5401 61.8364 26.7514C61.6485 26.9392 61.5545 27.2678 61.484 27.6434C61.4135 28.0189 61.39 28.4884 61.39 29.0517V43.8398C61.39 44.4267 61.437 44.9196 61.5075 45.2952C61.578 45.6707 61.6955 45.9759 61.8834 46.1871C62.0714 46.3984 62.2829 46.5392 62.5883 46.6097C62.8938 46.6801 63.2697 46.727 63.7161 46.727V47.2669H55.6805V46.727C56.2209 46.727 56.6438 46.7035 56.9963 46.6331C57.3487 46.5627 57.6307 46.4453 57.8421 46.2341C58.0301 46.0463 58.1946 45.7411 58.2885 45.3421C58.3825 44.9665 58.4295 44.4501 58.4295 43.8164V29.2865H58.359L51.8036 47.2434H51.4277L44.8958 29.6855H44.8253V43.8398C44.8253 44.4736 44.8723 44.99 44.9428 45.3656C45.0133 45.7411 45.1542 46.0228 45.3657 46.2576C45.5537 46.4453 45.8591 46.5862 46.1881 46.6566C46.5405 46.727 46.9634 46.7505 47.5038 46.7505V47.2904H41.0659V46.7505C41.5828 46.7505 41.9823 46.7035 42.3112 46.6331C42.6402 46.5627 42.8986 46.4219 43.1101 46.2106C43.298 46.0228 43.439 45.7177 43.5095 45.3186C43.58 44.9431 43.627 44.4267 43.627 43.8164V29.0283C43.627 28.4649 43.6035 27.9955 43.533 27.6199C43.4625 27.2443 43.345 26.9626 43.1571 26.7279C42.9691 26.5166 42.6871 26.3758 42.3582 26.2819C42.0293 26.188 41.5828 26.1411 41.0659 26.1411V25.6012H46.6345L52.4615 41.5864Z" fill="#296FF5"/>
<path d="M74.6653 45.483C74.6653 45.9055 74.8298 46.2341 75.1352 46.4219C75.4407 46.6332 76.0281 46.7271 76.8739 46.7036V47.2435H70.7415V46.7036C71.1409 46.7036 71.4933 46.6566 71.7988 46.5627C72.1042 46.4689 72.3392 46.328 72.5741 46.0933C72.8091 45.8586 72.9971 45.5534 73.1615 45.1778C73.326 44.8023 73.514 44.2859 73.702 43.699L79.529 25.1318H80.0694L86.3194 43.699C86.5543 44.4267 86.7893 44.9666 86.9538 45.3656C87.1417 45.7647 87.3532 46.0698 87.5646 46.2576C87.7761 46.4454 88.0346 46.5627 88.293 46.6097C88.5515 46.6566 88.8804 46.6801 89.2799 46.6801V47.22H81.5262V46.6801C82.231 46.6801 82.748 46.5862 83.0299 46.3984C83.3119 46.2107 83.4763 45.882 83.4763 45.4595C83.4763 45.2717 83.4528 45.1074 83.4058 44.9196C83.3588 44.7318 83.2649 44.4267 83.1474 44.0277L81.9021 40.3189H76.1691L74.8768 44.4971C74.7358 44.99 74.6653 45.2952 74.6653 45.483ZM78.8476 31.4461L76.5215 39.1452H81.4792L78.9181 31.4461H78.8476Z" fill="#296FF5"/>
<path d="M102.414 45.3421C102.508 45.7177 102.649 45.9994 102.861 46.2341C103.072 46.4219 103.378 46.5627 103.753 46.6331C104.153 46.7036 104.646 46.727 105.234 46.727V47.2669H96.2112V46.727C96.7986 46.727 97.3155 46.7036 97.6915 46.6331C98.0909 46.5862 98.3728 46.4454 98.5843 46.2576C98.7958 46.0698 98.9368 45.7412 99.0307 45.3656C99.1247 44.9666 99.1717 44.4736 99.1717 43.8164V26.8453H96.8221C96.1407 26.8453 95.5533 26.9157 95.0834 27.0331C94.59 27.1739 94.214 27.3617 93.9086 27.6668C93.6032 27.9485 93.3682 28.3476 93.2507 28.817C93.0862 29.2865 93.0392 29.8499 93.0157 30.554H92.4753V25.6716H109.04V30.554H108.5C108.453 29.2161 108.147 28.2537 107.583 27.6903C107.019 27.127 106.056 26.8453 104.693 26.8453H102.297V43.8164C102.273 44.4736 102.32 44.9666 102.414 45.3421Z" fill="#296FF5"/>
<path d="M124.547 26.1881C124.007 26.1881 123.537 26.2115 123.161 26.282C122.785 26.3524 122.503 26.4697 122.292 26.7045C122.104 26.9157 121.939 27.2209 121.845 27.5964C121.751 27.972 121.728 28.465 121.728 29.0753V43.8633C121.728 44.5206 121.775 45.037 121.892 45.4126C122.01 45.7881 122.151 46.0698 122.362 46.3045C122.574 46.4923 122.856 46.6332 123.232 46.6801C123.584 46.727 124.031 46.774 124.547 46.774V47.3139H115.83V46.774C116.394 46.774 116.888 46.727 117.24 46.6566C117.616 46.5862 117.875 46.4454 118.11 46.2106C118.298 45.9994 118.439 45.6942 118.532 45.3187C118.626 44.9431 118.65 44.4502 118.65 43.8868V29.0987C118.65 28.4884 118.603 27.9955 118.532 27.6199C118.439 27.2444 118.321 26.9627 118.086 26.7279C117.875 26.5167 117.569 26.3758 117.217 26.3054C116.841 26.235 116.371 26.2115 115.83 26.2115V25.6951H124.547V26.1881Z" fill="#296FF5"/>
<path d="M147.926 32.3145C147.762 30.4602 147.174 28.9579 146.164 27.9016C145.154 26.7983 143.838 26.2585 142.24 26.2585C140.149 26.2585 138.598 27.1739 137.611 29.0048C136.625 30.8357 136.108 33.5586 136.108 37.15C136.108 38.8166 136.272 40.2485 136.554 41.4691C136.859 42.6897 137.282 43.6521 137.846 44.4501C138.41 45.2248 139.092 45.7881 139.914 46.1402C140.736 46.4923 141.629 46.6801 142.616 46.6801C143.932 46.6801 145.06 46.3515 145.976 45.6707C146.869 44.99 147.738 43.9337 148.514 42.4784L149.054 42.7366C147.48 46.0933 145.013 47.8068 141.7 47.8068C140.525 47.8068 139.397 47.5955 138.269 47.1261C137.165 46.6566 136.178 45.9994 135.285 45.1074C134.392 44.2154 133.688 43.1122 133.171 41.7507C132.63 40.4362 132.372 38.887 132.372 37.1265C132.372 35.413 132.607 33.8403 133.077 32.385C133.57 30.9296 134.228 29.6855 135.074 28.6293C135.943 27.573 136.953 26.7279 138.081 26.1411C139.256 25.5543 140.525 25.2491 141.888 25.2491C142.546 25.2491 143.133 25.3195 143.673 25.4369C144.214 25.5777 144.637 25.7186 145.013 25.9064C145.389 26.0942 145.717 26.235 145.999 26.3758C146.281 26.5167 146.54 26.5636 146.728 26.5636C146.939 26.5636 147.127 26.4463 147.245 26.2585C147.362 26.0707 147.433 25.7186 147.503 25.2256H148.067L148.467 32.3615L147.926 32.3145Z" fill="#296FF5"/>
<path d="M15.8546 45.0839C15.8546 45.6238 16.066 46.0463 16.5125 46.328C16.9589 46.6097 17.7578 46.727 18.9326 46.7036V47.4078H10.286V46.7036C10.8264 46.7036 11.3433 46.6332 11.7663 46.5158C12.1892 46.3984 12.5651 46.2106 12.8706 45.9055C13.176 45.6238 13.458 45.2013 13.7164 44.6849C13.9514 44.1685 14.2334 43.5112 14.4683 42.7366L22.598 18.1837H23.3498L32.0669 42.7836C32.4193 43.7225 32.7013 44.4736 32.9597 45.0135C33.2182 45.5534 33.5001 45.929 33.8291 46.1872C34.158 46.4454 34.487 46.5862 34.8629 46.6566C35.2388 46.727 35.7088 46.7505 36.2492 46.7505V47.4547H25.4175V46.7505C26.4043 46.7505 27.1092 46.6097 27.5086 46.375C27.9081 46.1402 28.096 45.7177 28.096 45.1309C28.096 44.9196 28.0725 44.6614 28.0021 44.4502C27.9316 44.2154 27.8141 43.8164 27.6261 43.253L25.8639 38.3471H17.8752L16.066 43.8633C15.9016 44.4502 15.8546 44.8727 15.8546 45.0839ZM21.6581 26.4932L18.3922 36.704H25.3235L21.7521 26.4932H21.6581Z" fill="#296FF5"/>
<path d="M40.5725 53.7925H39.8676H38.7163V54.661V59.872V60.6936H39.8676H40.8544C41.6063 60.6466 41.9588 60.3415 42.0058 59.872V54.661C41.8413 54.0976 41.3479 53.8394 40.5725 53.7925ZM40.8544 59.8485H39.8676V54.6375H40.8544V59.8485Z" fill="#296FF5"/>
<path d="M10.0981 53.7933H8.94678V60.671H10.0981V53.7933Z" fill="#296FF5"/>
<path d="M87.0243 53.7925H86.1079V54.7549H87.0243V60.6701H88.1756V54.7549H89.0684V53.7925H88.1756H87.0243Z" fill="#296FF5"/>
<path d="M118.509 53.7925H117.358V60.6701H118.509V53.7925Z" fill="#296FF5"/>
<path d="M104.012 53.7925H103.683H102.696H101.545V54.6375V56.7736V57.6186V60.6701H102.696V57.6186H103.471C103.589 57.6186 103.683 57.7125 103.683 57.8299V60.6701H104.834V57.736C104.834 57.4543 104.646 57.1961 104.364 57.1257H104.317L104.458 57.0552C104.67 56.9613 104.811 56.7501 104.811 56.5154V54.5906C104.834 54.1446 104.458 53.7925 104.012 53.7925ZM103.683 56.5623C103.683 56.6797 103.589 56.7736 103.471 56.7736H102.696V54.6375H103.683V56.5623H103.683Z" fill="#296FF5"/>
<path d="M131.244 53.7925H131.22V60.6701H131.244H132.419H133.828V59.7077H132.419V57.736H133.499V56.7736H132.419V54.7549H133.828V53.7925H132.419H131.244Z" fill="#296FF5"/>
<path d="M25.1121 57.8064L23.9138 53.9803V53.7925H23.8668H22.786V60.6701H23.9138V57.4073L24.9476 60.6701H25.1121H26.0285H26.1929V53.7925H25.1121V57.8064Z" fill="#296FF5"/>
<path d="M56.7378 59.7077C56.7378 59.7781 56.6673 59.8485 56.5733 59.8485H55.8919C55.798 59.8485 55.751 59.7781 55.7275 59.7077V53.769H54.5762V59.7077V59.825C54.5762 60.2945 54.9521 60.6701 55.422 60.6701H56.9963C57.4662 60.6701 57.8421 60.2945 57.8421 59.825V59.7077V53.769H56.6908V59.7077H56.7378Z" fill="#296FF5"/>
<path d="M72.8091 53.7925H71.2584C70.812 53.7925 70.436 54.168 70.436 54.6375V54.7549V57.0083C70.436 57.3604 70.7415 57.6655 71.0939 57.6655H71.5403H72.5037V59.7547C72.5037 59.8251 72.4332 59.8955 72.3627 59.8955H71.7048C71.6343 59.8955 71.5638 59.8251 71.5638 59.7547V58.6984H70.4595V59.7547V59.872C70.4595 60.3415 70.8355 60.717 71.2819 60.717H72.8326C73.2791 60.717 73.655 60.3415 73.655 59.872V59.7547V57.4778C73.655 57.1257 73.373 56.844 73.0206 56.844H72.5272H71.5638V54.7549C71.5638 54.6845 71.6343 54.614 71.7048 54.614H72.3627C72.4332 54.614 72.5037 54.6845 72.5037 54.7549V55.6469H73.608V54.7549V54.6375C73.6315 54.168 73.2556 53.7925 72.8091 53.7925Z" fill="#296FF5"/>
<path d="M149.101 53.7925H147.55C147.104 53.7925 146.728 54.168 146.728 54.6375V54.7549V57.0083C146.728 57.3604 147.033 57.6655 147.386 57.6655H147.832H148.795V59.7547C148.795 59.8251 148.725 59.8955 148.654 59.8955H147.997C147.926 59.8955 147.856 59.8251 147.856 59.7547V58.6984H146.751V59.7547V59.872C146.751 60.3415 147.127 60.717 147.574 60.717H149.124C149.571 60.717 149.947 60.3415 149.947 59.872V59.7547V57.4778C149.947 57.1257 149.665 56.844 149.312 56.844H148.819H147.856V54.7549C147.856 54.6845 147.926 54.614 147.997 54.614H148.654C148.725 54.614 148.795 54.6845 148.795 54.7549V55.6469H149.9V54.7549V54.6375C149.923 54.168 149.547 53.7925 149.101 53.7925Z" fill="#296FF5"/>
</svg>
