<svg width="160" height="80" viewBox="0 0 160 80" fill="none" xmlns="http://www.w3.org/2000/svg">
<path d="M12.3667 53.0975C12.4435 53.0975 12.5203 53.0975 12.5971 53.0975C13.2884 53.0975 13.7493 52.7875 13.9797 52.09C14.287 51.16 14.5942 50.23 14.9014 49.3775C15.9 46.665 16.8986 43.9525 17.8971 41.1625C18.0507 40.6975 18.2812 40.465 18.8188 40.5425C19.8174 40.62 20.8159 40.62 21.8145 40.5425C22.6594 40.465 22.6594 40.8525 22.5058 41.4725C22.0449 43.4875 21.6609 45.5025 21.2 47.5175C20.9696 48.4475 21.2768 48.835 22.1986 48.835C23.2739 48.835 24.2725 48.835 25.3478 48.835C25.8087 48.835 25.9623 48.7575 26.0391 48.215C26.2696 45.89 26.5768 43.565 26.8072 41.24C26.8841 40.8525 26.8841 40.465 27.4986 40.5425C28.113 40.62 27.8058 41.0075 27.8058 41.3175C27.729 43.6425 27.5754 45.9675 27.4217 48.2925C27.4217 48.68 27.4986 48.835 27.8826 48.835C29.2652 48.835 30.6478 48.835 32.0304 48.835C32.4145 48.835 32.4913 48.7575 32.4913 48.2925C32.3377 45.9675 32.2609 43.565 32.1072 41.24C32.1072 41.0075 31.8768 40.62 32.4145 40.5425C32.9522 40.5425 33.1058 40.6975 33.1058 41.1625C33.3362 43.565 33.6435 45.89 33.8739 48.2925C33.9507 48.68 34.1043 48.835 34.4884 48.835C35.5638 48.835 36.6391 48.835 37.7145 48.835C38.5594 48.835 38.8667 48.4475 38.713 47.595C38.2522 45.5025 37.8681 43.41 37.4072 41.3175C37.3304 40.8525 37.3304 40.62 37.9449 40.62C38.9435 40.6975 40.0188 40.6975 41.0174 40.62C41.6319 40.62 41.8623 40.8525 42.0928 41.395C42.8609 43.72 43.7058 46.045 44.5507 48.2925C44.7812 48.835 45.3957 49.145 46.0101 48.9125C46.5478 48.68 46.0101 48.2925 45.9333 47.9825C45.9333 47.6725 45.7029 47.44 45.7029 47.13C45.5493 46.4325 45.242 45.89 44.5507 45.735C44.3203 45.6575 44.0899 45.5025 43.9362 45.27C43.4754 44.495 43.629 43.4875 44.3203 42.945C45.0116 42.325 46.1638 42.325 46.8551 42.8675C47.5464 43.41 47.7768 44.34 47.2391 45.115C47.0087 45.425 47.0087 45.735 47.1623 46.045C47.6232 47.285 48.0841 48.525 48.5449 49.765C48.7754 50.4625 48.6217 50.7725 47.8536 50.7725C47.1623 50.7725 46.5478 50.7725 45.8565 50.7725C45.5493 50.7725 45.4725 50.85 45.5493 51.16C46.0101 52.7875 46.2406 53.02 48.0072 53.0975C48.3913 53.0975 48.8522 53.0975 49.2362 53.0975C49.7739 53.0975 50.158 52.865 50.4652 52.4C50.9261 51.5475 51.4638 50.695 51.8478 49.8425C53.7681 45.58 54.0754 41.085 52.9232 36.59C52.6928 35.35 52.1551 34.1875 51.6174 33.025C49.2362 27.755 45.3188 24.1125 40.0957 21.9425C35.3333 19.9275 30.3406 19.385 25.271 20.315C21.0464 21.09 17.4362 22.64 14.3638 25.12C12.8275 26.36 10.2928 28.7625 8.44928 32.405C7.68116 33.8775 7.22029 35.2725 6.91304 36.2025C6.91304 36.3575 6.83623 36.5125 6.83623 36.745C6.6058 37.9075 6.06812 40.2325 6.22174 42.8675C6.37536 45.58 7.14348 48.215 8.37246 50.7725C9.60145 53.175 9.67826 53.175 12.3667 53.0975ZM24.1188 46.045C23.1203 46.045 22.1986 45.1925 22.1986 44.2625C22.1986 43.3325 23.0435 42.48 24.1188 42.48C25.1942 42.48 26.0391 43.255 26.1159 44.2625C26.1159 45.115 25.1942 46.045 24.1188 46.045ZM29.9565 45.9675C28.8812 45.9675 28.0362 45.1925 28.0362 44.185C28.0362 43.255 28.958 42.4025 29.9565 42.4025C31.0319 42.4025 31.8768 43.255 31.8768 44.185C31.9536 45.1925 31.0319 45.9675 29.9565 45.9675ZM37.7145 44.185C37.7145 45.115 36.8696 45.9675 35.7942 46.045C34.7957 46.045 33.7971 45.27 33.7971 44.34C33.7971 43.3325 34.642 42.48 35.7174 42.48C36.8696 42.4025 37.7145 43.1775 37.7145 44.185ZM43.4754 39.845C42.8609 39.9225 42.2464 39.845 41.6319 39.845C33.5667 39.845 25.5783 39.845 17.513 39.845C16.5145 39.845 15.5928 39.7675 14.5942 39.535C12.6739 39.07 11.0609 38.14 9.98551 36.3575C9.98551 35.8925 10.2159 36.2025 10.3696 36.2025C11.5217 36.6675 12.6739 37.1325 13.7493 37.675C14.3638 37.985 14.9015 37.985 15.5159 37.675C17.513 36.8225 19.587 36.0475 21.5841 35.2725C22.0449 35.04 22.5058 35.04 23.0435 35.2725C25.1174 36.125 27.1913 36.9 29.2652 37.7525C29.7261 37.985 30.187 37.985 30.7246 37.7525C32.7217 36.9775 34.7188 36.2025 36.7159 35.35C37.3304 35.1175 37.7913 35.1175 38.4058 35.35C40.3261 36.125 42.3232 36.9 44.2435 37.675C44.858 37.9075 45.4725 37.9075 46.087 37.675C47.2391 37.21 48.3913 36.745 49.5435 36.28C49.6971 36.2025 49.9275 35.97 49.9275 36.435C48.4681 38.76 46.087 39.535 43.4754 39.845ZM24.2725 25.6625C27.9594 21.865 32.9522 22.485 36.1783 26.2825C37.5609 27.91 38.5594 29.6925 39.3275 31.785C33.1058 31.785 26.8841 31.785 20.5855 31.785C21.4304 29.46 22.5826 27.3675 24.2725 25.6625ZM11.9826 32.56C17.9739 32.56 23.9652 32.56 29.9565 32.56C36.0246 32.56 42.0928 32.56 48.1609 32.56C48.4681 32.56 48.8522 32.56 49.1594 32.6375C49.6971 32.87 49.8507 33.18 49.9275 33.7225C50.0812 35.04 49.4667 35.505 48.3913 35.815C47.2391 36.125 46.1638 36.9 45.0884 36.9C44.013 36.9 42.9377 36.125 41.8623 35.7375C40.7101 35.35 39.558 34.885 38.4058 34.42C37.7913 34.1875 37.1768 34.1875 36.5623 34.42C34.5652 35.2725 32.5681 36.0475 30.571 36.8225C30.1101 36.9775 29.8029 36.9775 29.342 36.8225C27.3449 35.97 25.3478 35.195 23.3507 34.42C22.6594 34.11 22.0449 34.11 21.3536 34.42C19.3565 35.2725 17.2826 35.97 15.2855 36.8225C14.9014 36.9775 14.5174 36.9775 14.0565 36.8225C12.9043 36.3575 11.7522 35.8925 10.6 35.505C10.1391 35.35 9.98551 35.1175 9.98551 34.575C9.98551 32.6375 10.0623 32.56 11.9826 32.56ZM0 60.6925C1.92029 59.53 3.9942 58.9875 6.06812 58.445C12.8275 56.895 19.6638 56.12 26.5 55.965C27.2681 55.965 27.4217 55.7325 27.4217 55.035C27.3449 53.0975 27.4217 53.0975 25.5014 53.0975C24.5029 53.0975 23.5043 53.0975 22.5058 53.0975C21.5841 53.0975 21.0464 52.6325 21.0464 51.935C21.0464 51.2375 21.5841 50.7725 22.5058 50.7725C27.4986 50.7725 32.4145 50.7725 37.4072 50.7725C38.4058 50.7725 38.9435 51.2375 38.9435 52.0125C38.9435 52.71 38.4058 53.175 37.4072 53.175C36.0246 53.175 34.5652 53.175 33.1826 53.175C32.7217 53.175 32.5681 53.2525 32.5681 53.7175C32.6449 54.415 32.3377 55.345 32.7217 55.81C33.029 56.275 34.0275 55.965 34.642 56.0425C41.5551 56.3525 48.3913 57.05 55.1507 58.8325C56.6101 59.22 57.9928 59.685 59.2985 60.305C59.529 60.3825 59.8362 60.46 59.9899 60.8475C39.942 57.2825 19.971 57.5925 0 60.6925ZM100.623 44.4175C99.3942 44.4175 98.4725 42.8675 99.3942 42.2475C101.468 40.93 100.546 39.07 100.7 37.4425C100.777 36.9 100.7 36.28 100.7 35.7375C100.546 35.66 100.393 35.66 100.239 35.5825C99.3174 37.9075 98.4725 40.2325 97.5507 42.5575C97.1667 43.6425 96.8594 44.5725 95.3232 44.495C93.9406 44.4175 93.2493 44.03 92.7884 42.7125C92.0203 40.31 90.9449 38.0625 89.7928 35.195C89.4087 37.52 89.5623 39.225 89.6391 40.93C89.6391 41.55 90.2536 41.705 90.7145 41.9375C91.6362 42.4025 91.1754 43.255 91.1754 43.875C91.1754 44.65 90.4072 44.4175 89.9464 44.4175C88.3333 44.4175 86.6435 44.4175 85.0304 44.4175C84.5696 44.4175 83.8014 44.65 83.8014 43.875C83.7246 43.255 83.4174 42.325 84.0319 42.015C85.6449 41.3175 85.2609 40 85.2609 38.8375C85.2609 37.675 85.2609 36.435 85.2609 35.2725C85.2609 34.265 85.2609 33.335 84.1087 32.7925C83.2638 32.405 83.6478 31.475 83.7246 30.7775C83.8014 29.8475 84.6464 30.235 85.1841 30.235C87.258 30.235 89.4087 30.3125 91.4826 30.1575C92.6348 30.08 93.0956 30.6225 93.4797 31.63C94.0942 33.2575 94.7855 34.885 95.6304 36.8225C96.4754 34.8075 97.2435 33.1025 97.858 31.3975C98.1652 30.4675 98.7029 30.235 99.6246 30.235C102.006 30.3125 104.387 30.235 106.768 30.235C107.229 30.235 107.997 30.08 108.074 30.7775C108.151 31.3975 108.535 32.405 107.69 32.715C106.461 33.2575 106.614 34.1875 106.614 35.195C106.614 36.745 106.614 38.295 106.614 39.7675C106.614 40.6975 106.614 41.4725 107.69 41.86C108.688 42.17 108.228 43.1 108.228 43.72C108.228 44.7275 107.459 44.4175 106.922 44.4175C104.848 44.4175 102.697 44.4175 100.623 44.4175ZM131.732 44.1075C129.428 44.495 127.123 45.0375 124.665 44.4175C120.671 43.41 118.29 40.6975 118.443 37.055C118.52 33.8775 121.286 31.01 125.049 30.39C126.97 30.08 128.813 29.8475 130.733 30.3125C132.346 30.7 133.806 31.32 135.572 30.4675C136.725 29.925 137.723 30.39 137.646 32.25C137.493 35.8925 137.646 35.8925 133.959 35.815C133.114 35.815 132.577 35.7375 132.116 34.8075C131.425 33.2575 129.965 32.9475 128.429 33.2575C126.893 33.5675 126.355 34.73 126.355 36.2025C126.355 37.055 126.355 37.9075 126.355 38.8375C126.432 40.62 127.507 41.6275 129.274 41.6275C130.119 41.6275 130.887 41.4725 131.194 40.5425C131.425 39.69 130.887 39.38 130.196 39.1475C129.428 38.8375 129.735 38.14 129.735 37.5975C129.735 36.8225 130.426 36.9775 130.964 36.9775C132.116 36.9775 133.345 36.9775 134.497 36.9775C135.649 36.9775 136.878 36.9775 138.03 36.9775C138.414 36.9775 138.875 36.9 139.029 37.365C139.183 37.83 139.336 38.6825 138.875 38.8375C136.878 39.6125 137.646 41.24 137.57 42.5575C137.493 44.4175 136.725 45.1925 135.265 44.34C133.959 43.41 132.884 43.9525 131.732 44.1075ZM154.468 30.7775C151.088 29.5375 147.632 29.5375 144.252 30.7775C141.41 31.785 139.951 33.955 139.797 36.9775C139.643 39.845 140.949 41.9375 143.407 43.3325C145.251 44.34 147.171 44.805 149.859 44.805C151.319 44.8825 153.316 44.4175 155.159 43.41C157.694 42.015 159.077 39.9225 159 36.9775C158.846 33.955 157.233 31.8625 154.468 30.7775ZM151.242 40.5425C150.858 41.395 150.243 41.9375 149.245 41.9375C148.4 41.9375 147.786 41.395 147.478 40.62C146.633 38.3725 146.71 36.2025 147.632 34.0325C147.939 33.2575 148.477 32.715 149.475 32.715C150.397 32.7925 150.858 33.4125 151.165 34.1875C151.626 35.2725 151.78 36.3575 151.78 37.4425C151.78 38.5275 151.626 39.535 151.242 40.5425ZM82.8029 43.72C82.8029 42.945 83.3406 41.9375 82.0348 41.55C81.113 41.3175 80.729 40.5425 80.4217 39.69C79.6536 37.83 78.8855 36.0475 78.0406 34.1875C76.1971 30.0025 76.1971 30.08 71.6652 30.08C70.513 30.08 69.8986 30.4675 69.4377 31.5525C68.4391 34.11 67.287 36.6675 66.2116 39.225C65.7507 40.2325 65.4435 41.3175 64.1377 41.705C63.1391 41.9375 63.6768 42.945 63.6768 43.6425C63.6768 44.4175 64.3681 44.34 64.829 44.34C66.7493 44.34 68.6696 44.34 70.5899 44.34C71.0507 44.34 71.8188 44.65 71.8188 43.7975C71.8188 43.1 72.3565 42.17 71.2043 41.7825C70.7435 41.6275 70.2058 41.55 70.3594 40.93C70.513 40.31 71.0507 40.155 71.5884 40.155C72.2797 40.155 73.0478 40.155 73.7391 40.155C74.1232 40.155 74.5072 40.31 74.5841 40.775C74.6609 41.24 74.4304 41.55 73.9696 41.6275C72.6638 41.9375 73.1246 43.0225 73.2015 43.7975C73.3551 44.805 74.2768 44.34 74.8145 44.34C75.813 44.4175 76.8116 44.34 77.8102 44.34C78.9623 44.34 80.1913 44.34 81.3435 44.34C81.958 44.34 82.8029 44.65 82.8029 43.72ZM72.8174 37.83C72.6638 37.985 71.8188 37.9075 71.742 37.83C71.5116 37.1325 71.9725 36.5125 72.5101 35.35C72.5101 36.59 73.3551 37.1325 72.8174 37.83ZM118.597 43.875C118.52 44.65 117.829 44.34 117.368 44.4175C116.216 44.495 115.141 44.4175 113.988 44.4175C112.836 44.4175 111.607 44.4175 110.455 44.4175C109.994 44.4175 109.303 44.65 109.226 43.875C109.149 43.255 108.842 42.48 109.764 42.17C110.839 41.7825 110.839 40.93 110.762 40.0775C110.762 38.45 110.762 36.9 110.762 35.2725C110.762 34.265 110.839 33.2575 109.61 32.7925C108.688 32.405 109.149 31.475 109.149 30.855C109.226 29.925 110.071 30.235 110.532 30.235C112.683 30.235 114.91 30.235 117.061 30.235C117.522 30.235 118.213 30.08 118.367 30.7775C118.443 31.3975 118.751 32.3275 118.136 32.6375C116.523 33.335 116.907 34.6525 116.907 35.8925C116.907 37.2875 116.907 38.6825 116.907 40.0775C116.907 41.0075 116.907 41.7825 117.983 42.0925C118.981 42.325 118.597 43.255 118.597 43.875ZM121.823 48.99C121.823 49.8425 121.823 50.695 121.823 51.5475C121.823 52.3225 121.823 53.175 121.823 53.95C121.823 54.415 121.823 54.9575 121.132 54.9575C120.594 54.9575 120.287 54.725 120.287 54.105C120.287 52.4 120.287 50.6175 120.287 48.9125C120.287 48.37 120.441 48.06 121.055 48.06C121.823 48.06 121.823 48.525 121.823 48.99Z" fill="url(#paint0_linear_5698_27)"/>
<path d="M86.1058 48.1377H85.3377H84.5695L81.3435 54.8027H83.2638L83.8014 53.5627H85.2609H86.7203L87.2579 54.8027H89.1782L86.1058 48.1377ZM85.3377 52.4002H84.1087L85.3377 49.9977L86.5666 52.4002H85.3377Z" fill="url(#paint1_linear_5698_27)"/>
<path d="M107.229 48.1377L104.541 53.0202L101.852 48.1377H100.086V54.8802H101.852V51.0052L104.003 54.8802H104.541H105.078L107.229 51.0052V54.8802H108.996V48.1377H107.229Z" fill="url(#paint2_linear_5698_27)"/>
<path d="M158.462 51.1599H157.31C157.31 51.2374 157.31 51.3149 157.31 51.4699C157.31 52.7874 156.312 53.7949 155.006 53.7949C153.7 53.7949 152.701 52.7874 152.701 51.4699C152.701 50.1524 153.7 49.1449 155.006 49.1449C155.851 49.1449 156.619 49.6099 157.003 50.3074H158.232C157.771 48.9124 156.465 47.9824 155.006 47.9824C153.085 47.9824 151.549 49.5324 151.549 51.4699C151.549 53.4074 153.085 54.9574 155.006 54.9574C156.926 54.9574 158.462 53.4074 158.462 51.4699C158.462 51.3149 158.462 51.2374 158.462 51.1599Z" fill="url(#paint3_linear_5698_27)"/>
<path d="M158.462 51.3927V51.1602H157.31H154.468V52.4777H157.003H158.232L158.462 51.3927Z" fill="url(#paint4_linear_5698_27)"/>
<path d="M70.8971 51.1599H69.7449C69.7449 51.2374 69.7449 51.3149 69.7449 51.4699C69.7449 52.7874 68.7464 53.7949 67.4406 53.7949C66.1348 53.7949 65.1362 52.7874 65.1362 51.4699C65.1362 50.1524 66.1348 49.1449 67.4406 49.1449C68.2855 49.1449 69.0536 49.6099 69.4377 50.3074H70.6666C70.2058 48.9124 68.9 47.9824 67.4406 47.9824C65.5203 47.9824 63.984 49.5324 63.984 51.4699C63.984 53.4074 65.5203 54.9574 67.4406 54.9574C69.3609 54.9574 70.8971 53.4074 70.8971 51.4699C70.8971 51.3149 70.8971 51.2374 70.8971 51.1599Z" fill="url(#paint5_linear_5698_27)"/>
<path d="M70.8971 51.3927V51.1602H69.7449H66.9029V52.4777H69.4377H70.7435L70.8971 51.3927Z" fill="url(#paint6_linear_5698_27)"/>
<path d="M138.338 48.2925V53.2525L134.728 48.2925H132.961V54.88H134.728V50.1525L138.338 54.88H140.104V48.2925H138.338Z" fill="url(#paint7_linear_5698_27)"/>
<defs>
<linearGradient id="paint0_linear_5698_27" x1="79.4823" y1="29.6667" x2="79.4823" y2="61.0628" gradientUnits="userSpaceOnUse">
<stop stop-color="#FFAD0F"/>
<stop offset="1" stop-color="#F91E13"/>
</linearGradient>
<linearGradient id="paint1_linear_5698_27" x1="85.3283" y1="40.9795" x2="85.3283" y2="56.2095" gradientUnits="userSpaceOnUse">
<stop stop-color="#FFAD0F"/>
<stop offset="1" stop-color="#F91E13"/>
</linearGradient>
<linearGradient id="paint2_linear_5698_27" x1="104.527" y1="41.8264" x2="104.527" y2="55.7586" gradientUnits="userSpaceOnUse">
<stop stop-color="#FFAD0F"/>
<stop offset="1" stop-color="#F91E13"/>
</linearGradient>
<linearGradient id="paint3_linear_5698_27" x1="154.993" y1="39.8702" x2="154.993" y2="57.3405" gradientUnits="userSpaceOnUse">
<stop stop-color="#FFAD0F"/>
<stop offset="1" stop-color="#F91E13"/>
</linearGradient>
<linearGradient id="paint4_linear_5698_27" x1="156.47" y1="39.8704" x2="156.47" y2="57.3407" gradientUnits="userSpaceOnUse">
<stop stop-color="#FFAD0F"/>
<stop offset="1" stop-color="#F91E13"/>
</linearGradient>
<linearGradient id="paint5_linear_5698_27" x1="67.4365" y1="39.8702" x2="67.4365" y2="57.3405" gradientUnits="userSpaceOnUse">
<stop stop-color="#FFAD0F"/>
<stop offset="1" stop-color="#F91E13"/>
</linearGradient>
<linearGradient id="paint6_linear_5698_27" x1="68.9128" y1="39.8704" x2="68.9128" y2="57.3407" gradientUnits="userSpaceOnUse">
<stop stop-color="#FFAD0F"/>
<stop offset="1" stop-color="#F91E13"/>
</linearGradient>
<linearGradient id="paint7_linear_5698_27" x1="136.534" y1="42.8958" x2="136.534" y2="55.1446" gradientUnits="userSpaceOnUse">
<stop stop-color="#FFAD0F"/>
<stop offset="1" stop-color="#F91E13"/>
</linearGradient>
</defs>
</svg>
