<svg width="160" height="80" viewBox="0 0 160 80" fill="none" xmlns="http://www.w3.org/2000/svg">
<path d="M47.5953 21.8232C47.9188 20.0978 48.2423 18.2646 48.5658 16.5392C48.6736 16.1078 48.7815 16 49.2128 16C49.3206 16 49.4285 16 49.5363 16C63.2315 16 76.9267 16 90.7297 16C91.0532 16 91.3767 16 91.7002 16C91.4845 17.5097 91.161 19.0194 90.9454 20.4213C89.6513 28.0776 88.2495 35.734 86.9554 43.3904C86.0927 48.3508 85.1222 53.3113 84.3674 58.2718C84.2595 59.0266 83.936 59.0266 83.289 59.0266C76.2797 59.0266 69.3781 59.0266 62.3688 59.0266C58.271 59.0266 54.1733 59.0266 50.1833 59.0266C49.8598 59.0266 49.5363 59.0266 49.3206 59.1344C48.9971 59.1344 48.7815 59.0266 48.4579 59.0266C46.3012 59.0266 44.0367 59.0266 41.8799 59.0266C41.6643 59.0266 41.3408 58.9188 41.1251 58.9188C41.7721 55.5758 42.3113 52.2329 42.9583 48.89C43.0661 48.243 43.174 47.7038 43.2818 47.0568C44.5758 38.6456 46.0856 30.2344 47.5953 21.8232ZM82.3185 32.1754C81.7793 29.3717 80.4853 27.1071 78.5442 25.2739C75.0935 22.1467 70.9957 21.3918 66.5744 22.1467C58.7024 23.5485 52.34 29.6952 50.8303 37.5672C50.0755 41.3415 50.6147 45.0079 52.8792 48.1352C56.33 52.8799 61.0748 54.0661 66.6822 53.2034C70.5643 52.5564 73.7994 50.7232 76.6032 48.1352C79.5147 45.5471 81.2401 42.4199 81.1323 38.3221C76.3875 38.3221 71.6427 38.3221 66.7901 38.3221C66.4666 39.9396 66.2509 41.5572 65.9274 43.1747C68.9468 43.1747 71.8584 43.1747 74.8778 43.1747C74.7699 43.3904 74.6621 43.4982 74.5543 43.606C71.9662 46.5176 68.839 48.243 64.9569 48.3508C59.1337 48.5665 54.9281 44.0374 55.683 38.2142C56.33 32.8224 59.5651 29.2638 64.5255 27.3228C69.486 25.4896 74.77 27.1071 76.8188 31.6362C76.9267 31.7441 77.1423 31.9597 77.358 31.9597C78.8677 32.1754 80.4853 32.1754 82.3185 32.1754Z" fill="#0293BF"/>
<path d="M47.5953 21.8231C46.0856 30.2343 44.6837 38.6455 43.174 47.0567C43.0661 47.7037 42.9583 48.2429 42.8505 48.8899C42.7426 48.7821 42.6348 48.5664 42.6348 48.4586C39.8311 41.4492 37.0273 34.4399 34.2236 27.3227C34.0079 26.7835 33.7922 26.3522 33.5766 25.7052C25.2732 36.8123 16.9698 47.8116 8.55859 59.0265C10.3918 59.0265 12.0093 59.0265 13.6269 59.0265C14.1661 59.0265 14.3817 58.8108 14.7052 58.4873C16.9698 55.4679 19.1265 52.5563 21.3911 49.5369C21.7146 49.1056 22.0381 48.9978 22.4694 48.9978C26.9986 48.9978 31.5277 48.9978 36.0568 48.9978C36.9195 48.9978 37.243 49.3213 37.4587 49.9683C38.537 52.9877 39.8311 55.8993 40.9094 58.9187C41.1251 58.9187 41.4486 59.0265 41.6643 59.0265C43.821 59.0265 46.0855 59.0265 48.2423 59.0265C48.5658 59.0265 48.7815 59.0265 49.105 59.1343C48.7815 61.0754 48.4579 62.9086 48.1344 64.8497C33.7922 64.8497 19.45 64.8497 5 64.8497C5.32351 63.1243 5.53918 61.5067 5.86269 59.8892C7.04889 53.0955 8.23508 46.3019 9.42128 39.5082C10.3918 33.7929 11.4702 28.0776 12.4407 22.2544C12.5485 21.8231 12.6564 21.6074 13.0877 21.7152H13.1955C24.734 21.8231 36.1646 21.8231 47.5953 21.8231Z" fill="#F05E23"/>
<path d="M102.16 50.3995C101.298 50.5073 100.543 50.6152 99.6801 50.723C99.3566 49.3211 98.386 48.5663 96.9842 48.6741C95.3666 48.6741 94.0726 49.3211 93.2099 50.6152C92.4551 51.6935 92.0237 52.9876 91.9159 54.2816C91.808 56.1148 92.6707 57.0853 94.5039 56.9775C95.4745 56.8697 96.5528 56.7618 97.4155 56.3305C97.9547 56.1148 98.0625 55.2521 98.4939 54.4973C97.739 54.4973 97.1998 54.4973 96.6607 54.4973C96.1215 54.4973 95.6901 54.4973 95.0431 54.4973C95.2588 53.8503 95.3666 53.3111 95.5823 52.664C95.6901 52.5562 95.9058 52.3406 96.1215 52.3406C97.8469 52.3406 99.5722 52.3406 101.405 52.3406C101.298 52.6641 101.298 52.9876 101.19 53.3111C100.758 54.4973 100.327 55.6835 100.111 56.8697C99.8957 57.5167 99.5722 57.8402 99.0331 58.1637C97.092 58.9185 95.151 59.4577 92.9942 59.1342C90.6218 58.8107 89.3278 57.301 89.22 54.9286C89.22 51.0465 92.0237 47.5958 95.6901 46.8409C97.092 46.5174 98.4939 46.6252 99.7879 47.1644C101.298 47.5958 101.945 48.782 102.16 50.3995Z" fill="white"/>
<path d="M111.758 58.811C112.728 55.7916 113.699 52.9878 114.561 50.0763C115.316 50.0763 116.071 50.0763 116.934 50.0763C116.934 50.2919 116.826 50.5076 116.826 50.7233C117.689 50.5076 118.659 50.0763 119.522 49.9684C120.6 49.8606 121.463 50.1841 121.786 51.3703C122.865 50.3998 124.051 49.8606 125.345 49.9684C126.855 50.0763 127.61 51.0468 127.178 52.4487C126.639 54.4975 125.884 56.5464 125.237 58.5953C125.237 58.7031 124.914 58.9188 124.806 58.9188C124.159 58.9188 123.404 58.9188 122.649 58.9188C123.296 57.0856 123.835 55.2524 124.375 53.527C124.482 53.3113 124.59 52.9878 124.59 52.7722C124.806 52.0173 124.375 51.586 123.62 51.6938C122.541 51.9095 121.894 52.6643 121.463 53.6349C120.924 55.1446 120.385 56.7621 119.845 58.2718C119.738 58.4875 119.738 58.7031 119.63 58.9188C118.767 58.9188 118.012 58.9188 117.042 58.9188C117.365 57.8405 117.689 56.8699 118.012 55.7916C118.336 54.8211 118.659 53.7427 118.983 52.7722C119.198 52.0173 118.767 51.4781 117.904 51.6938C116.718 52.0173 116.071 52.88 115.748 53.9584C115.316 55.3602 114.777 56.6543 114.454 58.0561C114.238 58.811 113.914 58.9188 113.267 58.9188C112.836 58.811 112.405 58.811 111.758 58.811Z" fill="white"/>
<path d="M152.088 51.3702C152.735 49.9684 152.735 49.9684 155 50.0762C154.677 51.1546 154.353 52.2329 153.922 53.3113C153.382 55.1445 152.735 56.8699 152.196 58.7031C151.334 61.5068 150.04 62.5852 146.05 62.2617C145.726 62.2617 145.295 62.1539 144.971 62.046C143.569 61.6147 143.138 60.6441 143.569 59.2423C144.432 59.3501 145.187 59.458 146.05 59.5658C146.157 60.2128 146.481 60.6441 147.236 60.6441C148.099 60.6441 148.853 60.5363 149.285 59.7815C149.5 59.2423 149.716 58.7031 149.932 58.1639C149.177 58.3796 148.53 58.7031 147.775 58.8109C145.618 59.1344 144.216 57.9482 144.324 55.7915C144.432 53.8505 145.079 52.0173 146.697 50.7232C148.638 49.3214 150.579 49.537 152.088 51.3702ZM146.912 55.1445C146.912 56.8699 148.099 57.6247 149.393 56.8699C150.579 56.2229 151.01 55.0367 151.226 53.7426C151.334 52.8799 151.01 52.1251 150.363 51.8016C149.716 51.4781 148.961 51.5859 148.314 52.2329C147.451 52.9878 147.02 54.174 146.912 55.1445Z" fill="white"/>
<path d="M102.484 31.6361C102.807 35.7339 103.023 39.7239 103.347 43.7138C102.484 43.7138 101.729 43.7138 100.866 43.7138C100.758 42.8511 100.758 41.9884 100.651 41.0179C99.0331 41.0179 97.4155 41.0179 95.798 41.0179C95.6902 41.0179 95.5823 41.2336 95.4745 41.3414C95.2588 41.5571 95.0431 41.7728 94.9353 42.0963C94.2883 43.9295 92.7786 43.9295 91.161 43.606C91.2689 43.3903 91.3767 43.2824 91.4845 43.0668C94.0726 39.4004 96.6607 35.7339 99.2487 32.0675C99.4644 31.744 99.7879 31.5283 100.219 31.5283C100.866 31.744 101.621 31.6361 102.484 31.6361ZM96.7685 39.0768C98.0625 39.0768 99.2487 39.0768 100.543 39.0768C100.435 37.5671 100.435 36.0574 100.327 34.332C99.0331 35.9496 97.9547 37.4593 96.7685 39.0768Z" fill="white"/>
<path d="M121.571 37.3515C122.002 36.2732 122.757 35.6262 123.62 35.3027C125.022 34.7635 126.423 34.6556 127.933 35.1948C129.012 35.6262 129.551 36.4888 129.227 37.675C129.011 38.6456 128.58 39.6161 128.364 40.5866C128.041 41.665 127.825 42.7433 127.61 43.9295C127.07 43.9295 126.316 43.9295 125.453 43.9295C125.345 43.7139 125.345 43.3904 125.237 43.1747C124.59 43.4982 124.051 43.8217 123.404 44.0374C121.894 44.4687 120.6 43.9295 120.169 42.7433C119.738 41.4493 120.385 39.7239 121.679 39.2926C122.757 38.9691 123.835 38.8612 125.022 38.6456C125.345 38.5377 125.669 38.5377 126.1 38.5377C126.747 38.5377 126.855 38.1064 126.855 37.5672C126.747 37.2437 126.423 36.8124 126.1 36.8124C125.561 36.8124 124.806 36.8124 124.482 37.2437C124.051 37.6751 123.62 37.7829 123.081 37.675C122.541 37.3515 122.11 37.3515 121.571 37.3515ZM126.1 39.7239C125.129 39.9396 124.267 40.0474 123.404 40.2631C122.757 40.4788 122.326 41.018 122.541 41.5572C122.757 42.2042 123.404 42.2042 123.943 42.0963C125.237 41.8807 125.776 41.018 126.1 39.7239Z" fill="white"/>
<path d="M103.562 52.3408C103.994 51.2624 104.748 50.7232 105.611 50.2919C107.013 49.7527 108.415 49.6449 109.817 50.0762C111.111 50.3997 111.65 51.4781 111.219 52.7721C110.895 53.9583 110.464 55.1445 110.14 56.3307C109.925 57.0856 109.817 57.9483 109.709 58.8109C109.062 58.8109 108.307 58.8109 107.444 58.8109C107.444 58.5953 107.336 58.3796 107.336 58.1639C106.582 58.4874 105.935 58.8109 105.288 59.0266C103.778 59.3501 102.699 58.8109 102.268 57.6247C101.837 56.3307 102.484 54.7132 103.778 54.174C104.641 53.8505 105.611 53.7426 106.474 53.6348C107.013 53.527 107.552 53.527 108.091 53.4191C108.63 53.4191 108.954 52.9878 108.846 52.5565C108.846 52.2329 108.415 51.8016 108.199 51.6938C107.444 51.4781 106.797 51.6938 106.258 52.2329C106.15 52.3408 105.935 52.5565 105.827 52.5565C105.072 52.5565 104.425 52.4486 103.562 52.3408ZM108.091 54.7132C107.121 54.9288 106.258 55.0367 105.395 55.3602C104.856 55.5759 104.425 56.0072 104.641 56.5464C104.856 57.1934 105.395 57.3012 105.935 57.1934C107.121 56.9777 107.768 56.3307 108.091 54.7132Z" fill="white"/>
<path d="M132.786 58.8109C133.756 55.8994 134.619 52.9878 135.59 50.0762C136.344 50.0762 137.207 50.0762 137.962 50.0762C137.962 50.3997 137.854 50.6154 137.746 50.9389C138.07 50.7232 138.285 50.6154 138.609 50.5075C139.256 50.2919 139.903 49.9684 140.55 49.8605C142.815 49.6449 143.677 50.8311 143.03 52.9878C142.491 54.9288 141.844 56.8699 141.197 58.8109C140.334 58.8109 139.472 58.8109 138.609 58.8109C139.148 57.0856 139.687 55.3602 140.226 53.6348C140.334 53.4191 140.442 53.0956 140.442 52.8799C140.658 52.0173 140.119 51.4781 139.256 51.6937C138.07 52.0173 137.207 52.7721 136.776 53.9583C136.237 55.3602 135.805 56.8699 135.374 58.2718C135.266 58.7031 135.05 58.9188 134.619 58.8109C134.08 58.8109 133.433 58.8109 132.786 58.8109Z" fill="white"/>
<path d="M114.669 37.1361C113.807 37.2439 113.16 37.3518 112.405 37.4596C111.758 36.4891 110.787 36.1656 109.709 36.5969C109.385 36.7048 109.17 37.0283 108.954 37.2439C109.17 37.4596 109.385 37.7831 109.601 37.891C110.356 38.2145 111.111 38.3223 111.866 38.6458C113.807 39.4007 114.238 41.126 112.728 42.6357C111.326 44.0376 109.493 44.0376 107.66 43.8219C106.258 43.6063 105.288 42.9593 104.856 41.5574C104.856 41.4496 104.856 41.3417 104.856 41.2339C105.503 41.126 106.258 41.0182 106.905 40.9104C107.121 40.9104 107.444 41.126 107.552 41.2339C108.199 42.2044 109.924 42.4201 110.787 41.6652C111.326 41.2339 111.219 40.8025 110.572 40.479C109.817 40.1555 108.954 39.9398 108.199 39.6163C105.935 38.8615 106.366 36.4891 107.768 35.5186C109.493 34.3324 111.434 34.2245 113.375 34.9794C114.13 35.5186 114.561 36.1656 114.669 37.1361Z" fill="white"/>
<path d="M117.581 34.9792C118.444 34.9792 119.198 34.9792 120.169 34.9792C119.953 35.5184 119.845 36.0576 119.63 36.5968C118.983 38.7535 118.228 40.9102 117.581 43.067C117.473 43.4983 117.257 43.8218 116.718 43.714C116.071 43.6061 115.532 43.714 114.777 43.714C115.748 40.8024 116.718 37.9987 117.581 34.9792Z" fill="white"/>
<path d="M130.521 50.0764C131.384 50.0764 132.139 50.0764 133.109 50.0764C132.678 51.3704 132.354 52.6645 131.923 53.8507C131.492 55.3604 130.953 56.7623 130.521 58.272C130.413 58.7033 130.198 58.8111 129.874 58.8111C129.227 58.8111 128.58 58.8111 127.825 58.8111C128.688 55.8996 129.659 52.988 130.521 50.0764Z" fill="white"/>
<path d="M118.12 33.7928C118.12 33.685 118.12 33.685 118.12 33.685C118.659 31.5283 118.875 31.4204 121.247 31.7439C121.032 32.4988 120.816 33.1458 120.6 33.7928C119.738 33.7928 118.875 33.7928 118.12 33.7928Z" fill="white"/>
<path d="M131.6 46.7334C132.462 46.7334 133.325 46.7334 134.08 46.7334C134.08 46.8412 134.08 46.9491 133.972 47.0569C133.325 49.1058 133.217 49.2136 130.845 48.7823C131.168 48.1353 131.384 47.4883 131.6 46.7334Z" fill="white"/>
<path d="M35.0863 43.9298C31.8512 43.9298 28.7239 43.9298 25.4889 43.9298C27.5377 41.126 29.5866 38.4301 31.7434 35.5186C32.9296 38.4301 34.0079 41.126 35.0863 43.9298Z" fill="#F05E23"/>
</svg>
