<svg width="160" height="80" viewBox="0 0 160 80" fill="none" xmlns="http://www.w3.org/2000/svg">
<g clip-path="url(#clip0_7038_548)">
<path d="M91.445 25.0354C90.9222 24.7132 90.3496 24.4405 89.7272 24.1183C90.0011 23.92 90.2251 23.7713 90.4243 23.5978C90.6732 23.3995 90.972 23.1764 90.7479 22.8293C90.499 22.4575 90.1753 22.8046 89.9015 22.8789C89.5779 23.0029 89.304 23.2507 88.9804 23.3747C88.4078 23.573 87.9099 23.2507 87.6859 22.8293C87.3871 22.284 88.0842 22.3088 88.3331 22.0857C88.7812 21.7139 89.8268 21.466 89.4534 20.8959C89.08 20.3258 88.3829 21.0694 87.885 21.4164C86.5656 22.3336 86.0428 22.284 84.9972 21.0198C85.9681 20.4993 86.939 20.0036 87.9099 19.483C88.3082 19.2599 88.9306 19.0616 88.6568 18.4915C88.3331 17.847 87.8352 18.3924 87.4618 18.5659C86.4909 19.0864 85.6196 19.7309 84.6487 20.2266C83.6778 20.7224 82.4828 20.3258 81.8605 19.4334C81.5368 18.9873 81.8605 18.9377 82.1841 18.8138C83.1799 18.4915 84.2006 18.1693 85.1715 17.8223C85.4951 17.6983 86.0428 17.6735 85.993 17.153C85.9432 16.7316 85.52 16.5829 85.1466 16.4589C84.1757 16.1367 83.2297 15.8392 82.2588 15.4922C82.0098 15.3931 81.5617 15.3931 81.7858 14.8973C82.1094 14.2033 84.0263 13.6332 84.6985 14.0545C85.6694 14.6494 86.6154 15.2443 87.5863 15.8392C87.9348 16.0375 88.3829 16.2854 88.6319 15.8888C88.9306 15.4426 88.4576 15.2196 88.1091 15.0213C87.3373 14.5751 86.5407 14.1537 85.769 13.7075C85.52 13.5588 84.9972 13.5092 85.0968 13.063C85.1715 12.716 85.5947 12.5921 85.9183 12.4434C86.3166 12.2698 86.6901 12.3938 87.0386 12.5425C87.661 12.8152 88.2335 13.1374 88.6816 13.6332C88.9555 13.9306 89.2293 13.9058 89.4534 13.5836C89.7023 13.2613 89.7272 12.9143 89.3289 12.6912C89.0302 12.5177 88.6568 12.4681 88.3829 12.2698C88.1091 12.0715 87.4369 12.022 87.661 11.551C87.8601 11.1296 88.3829 10.8322 88.9555 10.9561C89.1298 11.0057 89.3289 11.1048 89.4783 11.204C89.8517 11.4519 90.3247 11.9228 90.6732 11.4271C90.8973 11.08 90.4492 10.6586 90.0758 10.4108C90.0011 10.3612 90.0011 10.2373 89.9513 10.1381C90.5488 9.79108 91.1462 9.46885 91.6939 9.12182C91.8931 8.99788 92.0176 8.75001 91.8931 8.50213C91.7686 8.25426 91.4699 8.27904 91.2707 8.35341C90.8475 8.55171 90.4243 8.75001 90.026 8.99788C89.5281 9.29533 89.1547 9.46885 89.1547 8.62607C89.1547 8.32862 89.2542 7.90723 88.7812 7.93202C88.3331 7.95681 88.3082 8.37819 88.2833 8.72522C88.2584 8.94831 88.358 9.19618 88.3331 9.41927C88.2584 10.0885 87.8352 10.5843 87.2129 10.5595C86.4411 10.5595 86.939 9.84066 86.8145 9.46885C86.6652 8.9731 87.0884 7.98159 86.3664 8.03117C85.6445 8.08074 85.9432 9.02267 86.0428 9.61757C86.1922 10.5099 86.0926 11.3279 85.1466 11.7989C84.574 12.0963 84.1757 12.1211 84.2504 11.2783C84.3251 10.386 84.3997 9.49363 84.4246 8.60128C84.4495 8.15511 84.3997 7.51063 83.8272 7.51063C83.3044 7.51063 83.3293 8.10553 83.3293 8.52692C83.3293 9.54321 83.3044 10.5595 83.3791 11.5758C83.4537 12.7656 82.8314 13.3357 81.8107 13.7323C81.039 14.0298 80.8896 13.7819 81.0141 13.0878C81.1883 12.0963 81.3875 11.1048 81.5866 10.1133C81.6613 9.71672 81.6115 9.39448 81.2132 9.27055C80.8647 9.1714 80.6157 9.32012 80.4415 9.64236C79.9436 10.7082 78.8731 10.9561 77.9271 11.4023C77.4043 11.6254 77.23 11.5262 77.23 10.9561C77.23 9.86545 77.5786 8.9731 78.5993 8.42777C79.4955 7.95681 80.3917 7.48584 81.263 6.9653C81.512 6.81658 81.8356 6.5687 81.6364 6.19689C81.4124 5.80029 81.0638 6.02338 80.8149 6.1721C79.9934 6.61828 79.2216 7.13882 78.3752 7.58499C78.0516 7.75851 77.703 8.22947 77.3545 7.88244C77.0558 7.58499 77.1803 7.06445 77.3296 6.66785C77.5039 6.19689 77.8524 5.89944 78.2756 5.70114C78.6988 5.50284 79.1221 5.30454 79.5204 5.05666C79.7942 4.90794 80.1178 4.68485 79.9436 4.33782C79.7444 3.91643 79.3461 4.08995 79.0225 4.21388C78.425 4.46176 77.9769 5.03187 77.2549 5.10624C77.0309 4.11473 77.2549 3.3959 78.2507 2.99929C78.5495 2.87536 78.8731 2.70184 78.7486 2.33003C78.6491 1.983 78.2507 2.03258 77.9022 2.10694C77.6782 2.15652 77.5537 2.42918 77.23 2.30524C77.23 1.71034 77.2549 1.09065 77.23 0.470964C77.23 0.223088 77.0807 0.0247876 76.8068 0C76.533 0 76.3836 0.223088 76.3836 0.470964C76.3587 1.09065 76.3836 1.71034 76.3836 2.30524C76.06 2.42918 75.9355 2.1813 75.7115 2.10694C75.3629 2.00779 74.9646 1.983 74.8153 2.40439C74.6908 2.77621 75.0144 2.94972 75.3131 3.07366C76.3089 3.44547 76.533 4.1891 76.3089 5.1806C75.587 5.13102 75.1389 4.53612 74.5414 4.28825C74.2178 4.16431 73.8195 3.96601 73.6203 4.41218C73.446 4.75921 73.7697 4.9823 74.0435 5.13102C74.4418 5.35411 74.865 5.5772 75.2883 5.7755C75.7364 5.9738 76.0849 6.29604 76.2343 6.74222C76.3836 7.1636 76.5081 7.65935 76.2094 7.9568C75.8608 8.30383 75.5123 7.83287 75.1887 7.65935C74.3671 7.21318 73.5705 6.71743 72.749 6.24646C72.5 6.09774 72.1515 5.87465 71.9275 6.27125C71.7283 6.61828 72.0519 6.89094 72.3009 7.03967C73.1722 7.5602 74.0684 8.00638 74.9646 8.50213C75.9853 9.04746 76.3338 9.93981 76.3338 11.0305C76.3338 11.6006 76.1596 11.6997 75.6368 11.4766C74.6908 11.0552 73.6203 10.7826 73.1224 9.71672C72.973 9.39448 72.6992 9.22097 72.3507 9.34491C71.9524 9.46885 71.9026 9.81587 71.9772 10.1877C72.1764 11.1792 72.3756 12.1707 72.5498 13.1622C72.6743 13.8562 72.5 14.1041 71.7532 13.8067C70.7325 13.4101 70.1101 12.84 70.1848 11.6502C70.2595 10.6339 70.2346 9.61757 70.2346 8.60128C70.2346 8.17989 70.2595 7.58499 69.7367 7.58499C69.1641 7.58499 69.1143 8.20468 69.1392 8.67564C69.1641 9.568 69.2388 10.4603 69.3135 11.3527C69.3882 12.1955 68.9899 12.1459 68.4173 11.8732C67.4713 11.4023 67.3717 10.5843 67.5211 9.69193C67.6207 9.09703 67.8945 8.15511 67.1975 8.10553C66.4506 8.05596 66.8987 9.02267 66.7493 9.54321C66.6249 9.91502 67.0979 10.6339 66.351 10.6339C65.7287 10.6339 65.3054 10.1381 65.2308 9.49363C65.2059 9.27055 65.3054 9.02267 65.2806 8.79958C65.2557 8.45256 65.2308 8.03117 64.7827 8.00638C64.3097 7.98159 64.4092 8.40298 64.4092 8.70043C64.4092 9.51842 64.0109 9.3697 63.5379 9.07224C63.1396 8.82437 62.7164 8.62607 62.2932 8.42777C62.094 8.32862 61.7953 8.30383 61.6708 8.57649C61.5463 8.82437 61.6708 9.04746 61.87 9.19618C62.4425 9.54321 63.0151 9.86545 63.6126 10.2125C63.5628 10.3116 63.5628 10.4356 63.4881 10.4851C63.1147 10.733 62.6666 11.1544 62.8907 11.5014C63.2392 12.022 63.6873 11.5262 64.0856 11.2783C64.2599 11.1792 64.4341 11.08 64.6084 11.0305C65.181 10.9065 65.7038 11.204 65.9029 11.6254C66.127 12.0963 65.4797 12.1459 65.181 12.3442C64.9071 12.5425 64.5337 12.5921 64.235 12.7656C63.7869 12.9391 63.8118 13.2613 64.0607 13.6084C64.2848 13.9306 64.5586 13.9554 64.8324 13.6579C65.2806 13.1622 65.8531 12.84 66.4755 12.5673C66.8489 12.4186 67.1975 12.2946 67.5958 12.4681C67.9194 12.6169 68.3177 12.7408 68.4173 13.0878C68.5418 13.534 68.019 13.5836 67.7451 13.7323C66.9734 14.2033 66.1768 14.6247 65.405 15.046C65.0565 15.2443 64.6084 15.4674 64.8822 15.9136C65.1312 16.3102 65.5793 16.0871 65.9278 15.864C66.8987 15.2691 67.8447 14.6742 68.8156 14.0793C69.4878 13.6579 71.4047 14.2281 71.7283 14.9221C71.9524 15.4179 71.4794 15.4179 71.2553 15.517C70.3093 15.864 69.3384 16.1863 68.3675 16.4837C67.9692 16.6077 67.546 16.7316 67.5211 17.1778C67.4713 17.6983 68.019 17.7231 68.3426 17.847C69.3384 18.2189 70.3342 18.5163 71.33 18.8385C71.6536 18.9377 71.9524 18.9873 71.6536 19.4582C71.0312 20.3506 69.8612 20.7472 68.8654 20.2514C67.8945 19.7557 66.9983 19.1112 66.0523 18.5907C65.7038 18.3924 65.181 17.8718 64.8573 18.5163C64.5835 19.0864 65.2059 19.2847 65.6042 19.5078C66.5751 20.0283 67.5211 20.5241 68.5169 21.0446C67.4713 22.3088 66.9734 22.3584 65.6291 21.4412C65.1312 21.0942 64.4341 20.3506 64.0607 20.9207C63.6873 21.4908 64.7329 21.7387 65.181 22.1105C65.4299 22.3336 66.127 22.3088 65.8282 22.8541C65.6042 23.2755 65.1063 23.5978 64.5337 23.3995C64.2101 23.2755 63.9362 23.0276 63.6126 22.9037C63.3637 22.8046 63.04 22.4823 62.7662 22.8541C62.5421 23.2012 62.8409 23.4242 63.0898 23.6225C63.289 23.7961 63.513 23.9448 63.7869 24.1431C63.1645 24.4653 62.5919 24.738 62.0691 25.0602C61.7953 25.2089 61.5214 25.5312 61.6708 25.8038C61.8451 26.1261 62.2683 26.1509 62.6168 25.9278C63.1147 25.6303 63.5877 25.3081 64.0607 25.0354C64.4092 25.1842 64.2848 25.4568 64.3346 25.6551C64.3843 25.9278 64.235 26.374 64.708 26.3492C65.2557 26.3244 65.3054 25.8782 65.2308 25.4816C65.1561 25.085 65.1063 24.7132 65.3552 24.3662C65.6291 23.9944 66.0523 23.6721 66.4257 23.7465C66.9734 23.8456 66.6 24.391 66.6498 24.738C66.7493 25.2585 66.4008 26.2004 67.1228 26.1757C67.8447 26.1261 67.6953 25.1842 67.5709 24.614C67.3468 23.5978 67.5958 22.8541 68.5667 22.3832C69.0646 22.1353 69.2886 22.2344 69.2637 22.8293C69.2388 23.8456 69.2637 24.8619 69.2637 25.8782C69.2637 26.2252 69.2139 26.721 69.6371 26.7458C70.1599 26.7953 70.1599 26.2252 70.135 25.8782C70.135 25.0602 70.0355 24.2422 69.9857 23.449C69.8861 22.1353 70.5582 21.2429 71.6038 20.5489C71.8279 20.4002 72.0519 20.2019 72.3507 20.3754C72.6494 20.5489 72.5498 20.8711 72.5 21.119C72.3258 22.1601 72.1764 23.2012 71.9772 24.2174C71.9026 24.5893 71.9026 24.9611 72.276 25.1346C72.6743 25.3081 72.8984 24.9859 73.0726 24.6636C73.6452 23.6969 74.6908 23.3499 75.587 22.8046C75.8857 22.6063 76.0849 22.7054 76.2343 23.0276C76.6077 23.7961 76.284 25.0106 75.5372 25.4816C74.5414 26.1013 73.4958 26.6466 72.5 27.2415C72.1764 27.4398 71.6785 27.6629 71.9524 28.1091C72.2013 28.5057 72.6743 28.233 72.9979 28.0347C73.7697 27.5885 74.5414 27.0928 75.2883 26.6466C76.0102 26.2004 76.284 26.5227 76.284 27.2663C76.284 27.9356 75.9355 28.357 75.3629 28.6544C74.9148 28.8775 74.4418 29.0758 74.0186 29.3485C73.7697 29.4972 73.3963 29.6955 73.5705 30.0673C73.7697 30.4887 74.1182 30.1912 74.392 30.0921C74.6908 29.9682 74.9397 29.7699 75.2385 29.6707C75.5621 29.5468 75.8857 29.0014 76.2343 29.4476C76.4583 29.7699 76.4085 30.2656 76.1596 30.6622C75.9355 31.0092 75.6119 31.2075 75.2385 31.3315C74.8899 31.4554 74.5414 31.6785 74.7406 32.0999C74.9646 32.5956 75.338 32.2486 75.6368 32.1495C75.811 32.0999 75.9853 32.0007 76.3089 31.8768C76.3089 32.5213 76.284 33.0666 76.3089 33.5871C76.3338 33.959 76.2343 34.5043 76.757 34.5043C77.2798 34.5043 77.1803 33.9342 77.2052 33.5871C77.23 33.0666 77.2052 32.5213 77.2052 31.8768C77.5288 32.0007 77.703 32.0999 77.8773 32.1495C78.1761 32.2486 78.5495 32.5956 78.7735 32.0999C78.9727 31.6785 78.6242 31.4554 78.2756 31.3315C77.9022 31.1827 77.5786 30.9844 77.3545 30.6622C77.1056 30.2656 77.0558 29.7699 77.2798 29.4476C77.6035 29.0014 77.952 29.5468 78.2756 29.6707C78.5744 29.7699 78.8233 29.9682 79.1221 30.0921C79.3959 30.1912 79.7444 30.4887 79.9436 30.0673C80.1178 29.6955 79.7444 29.4972 79.4955 29.3485C79.0723 29.0758 78.5993 28.8775 78.1512 28.6544C77.5786 28.357 77.23 27.9356 77.23 27.2663C77.23 26.5475 77.5039 26.2004 78.2258 26.6466C78.9976 27.1176 79.7444 27.5885 80.5162 28.0347C80.8398 28.233 81.3128 28.5057 81.5617 28.1091C81.8356 27.6629 81.3377 27.4398 81.0141 27.2415C79.9934 26.6466 78.9727 26.1013 77.9769 25.4816C77.2052 25.0106 76.9064 23.7961 77.2798 23.0276C77.4292 22.7054 77.6284 22.6063 77.9271 22.8046C78.8233 23.3499 79.8689 23.6969 80.4415 24.6636C80.6406 24.9859 80.8398 25.3329 81.2381 25.1346C81.5866 24.9611 81.6115 24.614 81.5368 24.2174C81.3377 23.2012 81.1634 22.1601 81.0141 21.119C80.9643 20.8711 80.8896 20.5489 81.1634 20.3754C81.4622 20.2019 81.6862 20.4002 81.9103 20.5489C82.9558 21.2181 83.628 22.1105 83.5284 23.449C83.4786 24.267 83.3791 25.085 83.3791 25.8782C83.3791 26.2252 83.3542 26.7953 83.877 26.7458C84.3002 26.721 84.2504 26.2252 84.2504 25.8782C84.2753 24.8619 84.2753 23.8456 84.2504 22.8293C84.2504 22.2592 84.4495 22.1601 84.9474 22.3832C85.8934 22.8541 86.1673 23.573 85.9432 24.614C85.8187 25.1842 85.6694 26.1509 86.3913 26.1757C87.1133 26.2004 86.7648 25.2585 86.8643 24.738C86.939 24.391 86.5656 23.8456 87.0884 23.7465C87.4867 23.6721 87.885 23.9944 88.1589 24.3662C88.4078 24.7132 88.358 25.085 88.2833 25.4816C88.2086 25.8782 88.2584 26.3244 88.8061 26.3492C89.2791 26.3492 89.1298 25.9278 89.1795 25.6551C89.2293 25.4568 89.1049 25.1842 89.4534 25.0354C89.9264 25.3329 90.3994 25.6303 90.8973 25.9278C91.2458 26.1509 91.6441 26.1261 91.8433 25.8038C91.9927 25.5064 91.7188 25.1842 91.445 25.0354ZM73.2967 12.0468C73.3714 11.7245 73.4211 11.4766 73.8941 11.6006C75.5621 12.0715 76.3587 13.1126 76.3587 14.823C76.3587 15.2443 76.3587 15.6657 76.3587 16.3102C75.6866 15.988 75.2136 15.7897 74.7904 15.5418C73.2967 14.7238 72.8486 13.6332 73.2967 12.0468ZM70.4836 17.5C70.2097 17.2026 70.2595 17.0291 70.5334 16.8555C71.2304 16.3598 71.8777 15.7897 72.8237 15.8392C73.8444 15.7897 74.5663 16.4342 75.338 16.9299C75.6617 17.1282 75.4376 17.3017 75.2634 17.4752C74.0186 18.8385 71.7532 18.8385 70.4836 17.5ZM74.7406 22.3832C73.3714 23.0772 73.2967 23.0276 73.2967 21.5404C73.2967 19.7061 73.8941 18.8881 75.6119 18.4172C75.8857 18.3428 76.1596 18.1197 76.3338 18.6155C76.757 20.0283 76.0849 21.6891 74.7406 22.3832ZM77.23 14.823C77.2052 13.1126 78.0267 12.0715 79.6946 11.6006C80.1676 11.4766 80.1925 11.7245 80.2921 12.0468C80.7153 13.6332 80.2672 14.7238 78.8233 15.5418C78.4001 15.7897 77.9271 15.988 77.2549 16.3102C77.23 15.6657 77.23 15.2443 77.23 14.823ZM78.8233 22.3832C77.479 21.6891 76.8068 20.0283 77.2549 18.6155C77.4292 18.0949 77.7031 18.318 77.9769 18.4172C79.6946 18.9129 80.2921 19.7061 80.2921 21.5404C80.2672 23.0276 80.1925 23.0772 78.8233 22.3832ZM78.2756 17.4752C78.1263 17.3017 77.9022 17.1282 78.2009 16.9299C78.9727 16.4094 79.6946 15.7649 80.7153 15.8392C81.6613 15.7897 82.3086 16.3846 83.0056 16.8555C83.2546 17.0291 83.3044 17.2274 83.0554 17.5C81.8107 18.8385 79.5453 18.8385 78.2756 17.4752Z" fill="#DAB785"/>
<path d="M61.588 43.8364V55.5433C61.588 58.2481 60.7851 60.4458 59.1368 62.0518C57.5308 63.6578 55.3331 64.4608 52.586 64.4608C49.8812 64.4608 47.6836 63.6578 46.0776 62.0518C44.4716 60.4458 43.6263 58.2904 43.6263 55.5433V43.6251C43.6263 42.3572 42.9501 41.681 41.64 41.5542V41.0894H47.2609V41.5542C45.9508 41.681 45.2746 42.3995 45.2746 43.6251V55.5433C45.2746 57.8677 45.9508 59.7696 47.3454 61.122C48.6979 62.5167 50.5574 63.1929 52.8396 63.1929C55.1641 63.1929 56.9814 62.5167 58.3761 61.122C59.7707 59.7273 60.4047 57.8677 60.4047 55.5433V43.8364C60.4047 42.4418 59.7285 41.681 58.4183 41.5542V41.0894H63.5744V41.5542C62.2643 41.681 61.588 42.4418 61.588 43.8364Z" fill="#DAB785"/>
<path d="M70.8013 53.5992V61.5869C70.8013 62.897 71.4775 63.6155 72.7876 63.7423V64.2494H67.1667V63.7C68.4768 63.5732 69.153 62.897 69.153 61.5446V43.7519C69.153 42.4418 68.4768 41.7233 67.1667 41.5542V41.0894H76.6758C78.9158 41.0894 80.7331 41.6388 82.0432 42.7799C83.3957 43.921 84.0719 45.4424 84.0719 47.3443C84.0719 48.908 83.607 50.2181 82.6772 51.2747C81.7474 52.3313 80.4795 53.0498 78.8735 53.3456C79.9724 53.8528 80.7753 54.6558 81.198 55.7123L83.6492 61.5446C84.1986 62.8548 85.1707 63.5732 86.4386 63.7V64.2072H83.1843L82.804 63.8268L79.5497 55.9236C79.2539 55.1629 78.7467 54.6135 78.0705 54.1909C77.3943 53.7682 76.6336 53.5569 75.8306 53.5569H70.8013V53.5992ZM76.6758 42.1037H70.8013V52.5849H76.6758C78.4086 52.5849 79.8033 52.12 80.8176 51.1902C81.8319 50.2604 82.3391 48.9925 82.3391 47.3865C82.3391 45.7805 81.8319 44.5127 80.8176 43.5829C79.8033 42.5686 78.4086 42.1037 76.6758 42.1037Z" fill="#DAB785"/>
<path d="M108.415 43.8364V55.5433C108.415 58.2481 107.612 60.4458 105.964 62.0518C104.358 63.6578 102.16 64.4608 99.4133 64.4608C96.7084 64.4608 94.5108 63.6578 92.9048 62.0518C91.2988 60.4458 90.4535 58.2904 90.4535 55.5433V43.6251C90.4535 42.3572 89.7773 41.681 88.4672 41.5542V41.0894H94.0881V41.5542C92.778 41.681 92.1018 42.3995 92.1018 43.6251V55.5433C92.1018 57.8677 92.778 59.7696 94.1727 61.122C95.5251 62.5167 97.3846 63.1929 99.6668 63.1929C101.991 63.1929 103.809 62.5167 105.203 61.122C106.598 59.7273 107.232 57.8677 107.232 55.5433V43.8364C107.232 42.4418 106.556 41.681 105.246 41.5542V41.0894H110.359V41.5542C109.049 41.681 108.415 42.4418 108.415 43.8364Z" fill="#DAB785"/>
<path d="M20.5085 64.207H14.4649V63.6576C15.9441 63.5308 17.0007 62.7278 17.5924 61.1641L26.9325 38.7648L28.1581 38.5957L37.5827 61.2909C38.2167 62.7701 39.231 63.5308 40.6679 63.6576V64.207H33.9904V63.6576C35.6809 63.4886 36.2726 62.7701 35.7654 61.4599L33.3987 55.7122H21.1424L18.818 61.3332C18.5221 62.0094 18.5221 62.5588 18.8602 62.9391C19.1561 63.3195 19.7478 63.5731 20.5508 63.6154V64.207H20.5085ZM27.2706 40.9202L21.6073 54.6133H32.9338L27.2706 40.9202Z" fill="#DAB785"/>
<path d="M114.459 38.7222H118.474L127.645 60.3185L136.816 38.7222H140.704V39.2293C139.394 39.3984 138.76 40.2014 138.802 41.6383L139.436 61.3328C139.521 62.812 140.197 63.5728 141.507 63.6995V64.249H135.886V63.6995C137.196 63.5728 137.83 62.812 137.83 61.3328L137.154 40.5395L127.941 62.4317L126.8 62.5585L117.544 40.4972L116.868 61.037C116.783 62.643 117.46 63.5305 118.812 63.6573V64.2067H113.698V63.6573C115.008 63.5305 115.727 62.6852 115.769 61.037L116.361 41.596C116.445 40.1591 115.769 39.3561 114.417 39.1871V38.7222H114.459Z" fill="#DAB785"/>
<path d="M1.89417 79.3673C1.2628 79.3673 0.631428 79.2621 0.0526705 78.999L0.157898 78.6307C0.736655 78.8412 1.31541 78.9464 1.89417 78.9464C2.10463 78.9464 2.31509 78.8938 2.57816 78.8412C2.78862 78.7885 2.99907 78.6307 3.20953 78.4729C3.41999 78.315 3.52522 78.0519 3.52522 77.7889C3.52522 77.368 3.31476 77.0523 2.84123 76.7892C2.68339 76.684 2.3677 76.5788 1.78894 76.3157C1.78894 76.3157 1.68372 76.2631 1.57849 76.2104C1.42065 76.1578 1.36803 76.1052 1.31542 76.1052C1.2628 76.1052 1.21019 76.0526 1.10496 76C0.999728 75.9474 0.894499 75.8948 0.841885 75.8948C0.789271 75.8948 0.73666 75.8422 0.631431 75.7369C0.526202 75.6843 0.473583 75.6317 0.420969 75.5791C0.368355 75.5265 0.315747 75.4738 0.263133 75.3686C0.210518 75.2634 0.157902 75.2108 0.105288 75.1582C0.0526737 75.1055 0.0526705 75.0003 0.0526705 74.8951C0.0526705 74.7899 6.10352e-05 74.6846 6.10352e-05 74.5794C6.10352e-05 74.1059 0.210513 73.685 0.578814 73.4219C0.947114 73.1588 1.52587 73.001 2.20986 73.001C2.736 73.001 3.20953 73.1062 3.68306 73.264L3.57783 73.6324C3.1043 73.4745 2.63077 73.3693 2.15724 73.3693C1.6311 73.3693 1.21019 73.4745 0.894503 73.685C0.578817 73.8954 0.420969 74.1585 0.420969 74.5268C0.420969 74.6846 0.47359 74.8425 0.526204 75.0003C0.578818 75.1582 0.73666 75.2634 0.894503 75.3686C1.05235 75.4738 1.21019 75.5791 1.36803 75.6317C1.52587 75.6843 1.73633 75.7895 1.9994 75.8948C2.68338 76.1578 3.1043 76.3683 3.31476 76.5261C3.73567 76.7892 3.94613 77.2101 3.94613 77.6836C3.94613 78.0519 3.8409 78.3676 3.57783 78.5781C3.31476 78.7885 3.1043 78.999 2.78861 79.1042C2.47293 79.2095 2.26247 79.3673 1.89417 79.3673Z" fill="#DAB785"/>
<path d="M10.4702 79.3149V73.1064H10.9437V79.3149H10.4702Z" fill="#DAB785"/>
<path d="M21.9402 76.4738H22.4138V78.7888C21.7824 79.2097 21.0984 79.4202 20.3618 79.4202C19.4147 79.4202 18.6782 79.1571 18.152 78.5783C17.6259 77.9996 17.3628 77.263 17.3628 76.4211C17.3628 76.0002 17.4154 75.6319 17.5206 75.2636C17.6259 74.8953 17.7837 74.527 17.9942 74.2113C18.2046 73.8957 18.5203 73.58 18.9412 73.4221C19.3621 73.2643 19.8357 73.1064 20.3618 73.1064C20.9932 73.1064 21.6772 73.2117 22.3085 73.4747L22.1507 73.8957C21.5719 73.6852 20.9932 73.58 20.3618 73.58C19.9409 73.58 19.52 73.6852 19.2043 73.843C18.8886 74.0009 18.6255 74.264 18.4151 74.527C18.2046 74.7901 18.0994 75.1058 17.9942 75.4215C17.8889 75.7372 17.8363 76.1055 17.8363 76.4211C17.8363 77.2104 18.0468 77.8417 18.5203 78.3153C18.9938 78.7888 19.5726 79.0519 20.3618 79.0519C20.9406 79.0519 21.4667 78.9466 21.9402 78.6836V76.4738Z" fill="#DAB785"/>
<path d="M29.043 79.3149V73.1064H29.4639L33.0943 78.5257H33.1469V73.1064H33.5679V79.3149H33.0943L29.4639 73.8957H29.4113V79.3149H29.043Z" fill="#DAB785"/>
<path d="M44.3539 79.3149L43.4594 77.0525H40.7235L39.8817 79.3149H39.4081L41.7758 73.1064H42.4072L44.88 79.3149H44.3539ZM40.8287 76.6842H43.3016L42.0915 73.58L40.8287 76.6842Z" fill="#DAB785"/>
<path d="M53.4561 73.1064V73.5274H51.4568V79.3149H50.9832V73.5274H48.9839V73.1064H53.4561Z" fill="#DAB785"/>
<path d="M61.1904 79.4193C60.5065 79.4193 59.9803 79.2615 59.5594 78.8932C59.1385 78.5249 58.928 78.0513 58.928 77.42C58.928 76.6834 58.928 75.2102 58.9807 73.1582H59.4542C59.4542 73.4739 59.4542 74.1579 59.4016 75.1049C59.4016 76.1046 59.4016 76.8412 59.4016 77.42C59.4016 77.8935 59.5594 78.3144 59.8751 78.5775C60.1908 78.8405 60.6117 78.9984 61.1378 78.9984C61.7166 78.9984 62.1375 78.8405 62.4532 78.5775C62.7689 78.3144 62.9267 77.8935 62.9267 77.42C62.9267 76.3677 62.9267 74.9471 62.8741 73.1582H63.3476C63.3476 73.737 63.3476 74.4736 63.3476 75.368C63.3476 76.2624 63.3476 76.9464 63.3476 77.4726C63.3476 78.0513 63.1372 78.5775 62.7163 78.9458C62.4532 79.2088 61.8744 79.4193 61.1904 79.4193Z" fill="#DAB785"/>
<path d="M73.9757 79.3134L72.292 76.7879H70.3453V79.3134H69.8718V73.1049C70.3979 73.1049 71.0293 73.0522 71.8185 73.0522C72.5551 73.0522 73.0812 73.2101 73.5021 73.4732C73.9231 73.7888 74.0809 74.2098 74.0809 74.7885C74.0809 75.1568 73.9231 75.5251 73.66 75.8408C73.3969 76.2091 73.0812 76.4196 72.7129 76.5774L74.5018 79.2607H73.9757V79.3134ZM70.3453 73.4732V76.3669H72.3446C72.6603 76.2617 72.976 76.1039 73.2391 75.7882C73.5021 75.5251 73.66 75.1568 73.66 74.8411C73.66 74.4202 73.5022 74.0519 73.1865 73.8415C72.8708 73.5784 72.3973 73.4732 71.8185 73.4732C71.0819 73.4732 70.6084 73.4732 70.3453 73.4732Z" fill="#DAB785"/>
<path d="M80.6579 78.894H83.8147V79.3149H80.1843V73.1064H83.7095V73.5274H80.6052V75.9476H83.5516V76.3685H80.6052V78.894H80.6579Z" fill="#DAB785"/>
<path d="M98.0731 79.3663C97.4418 79.3663 96.8104 79.2611 96.2316 78.998L96.3369 78.6297C96.9156 78.8402 97.4944 78.9454 98.0731 78.9454C98.2836 78.9454 98.494 78.8928 98.7571 78.8402C98.9676 78.7876 99.178 78.6297 99.3885 78.4719C99.5989 78.314 99.7042 78.051 99.7042 77.7879C99.7042 77.367 99.4937 77.0513 99.0202 76.7882C98.8623 76.683 98.5467 76.5778 97.9679 76.3147C97.9679 76.3147 97.8627 76.2621 97.7574 76.2095C97.5996 76.1569 97.547 76.1042 97.4944 76.1042C97.4418 76.1042 97.3891 76.0516 97.2839 75.999C97.1787 75.9464 97.0735 75.8938 97.0208 75.8938C96.9682 75.8938 96.9156 75.8412 96.8104 75.7359C96.7052 75.6833 96.6526 75.6307 96.5999 75.5781C96.5473 75.5255 96.4947 75.4729 96.4421 75.3676C96.3895 75.2624 96.3369 75.2098 96.2843 75.1572C96.2316 75.1046 96.2316 74.9993 96.2316 74.8941C96.2316 74.7889 96.179 74.6837 96.179 74.5784C96.179 74.1049 96.3895 73.684 96.7578 73.4209C97.1261 73.1578 97.7048 73 98.3888 73C98.915 73 99.3885 73.1052 99.862 73.2631L99.7568 73.6314C99.2833 73.4735 98.8097 73.3683 98.3362 73.3683C97.8101 73.3683 97.3892 73.4735 97.0735 73.684C96.7578 73.8944 96.5999 74.1575 96.5999 74.5258C96.5999 74.6837 96.6525 74.8415 96.7052 74.9993C96.7578 75.1572 96.9156 75.2624 97.0735 75.3676C97.2313 75.4729 97.3891 75.5781 97.547 75.6307C97.7048 75.6833 97.9153 75.7886 98.1784 75.8938C98.8624 76.1569 99.2833 76.3673 99.4937 76.5252C99.9146 76.7882 100.125 77.2091 100.125 77.6827C100.125 78.051 100.02 78.3667 99.7568 78.5771C99.4937 78.7876 99.2833 78.998 98.9676 79.1033C98.6519 79.2085 98.3888 79.3663 98.0731 79.3663Z" fill="#DAB785"/>
<path d="M110.017 73.1055V73.5264H108.017V79.314H107.544V73.5264H105.544V73.1055H110.017Z" fill="#DAB785"/>
<path d="M117.751 79.4183C117.067 79.4183 116.541 79.2605 116.12 78.8922C115.699 78.5239 115.488 78.0504 115.488 77.419C115.488 76.6824 115.488 75.2092 115.541 73.1572H116.015C116.015 73.4729 116.015 74.1569 115.962 75.104C115.962 76.1036 115.962 76.8402 115.962 77.419C115.962 77.8925 116.12 78.3134 116.435 78.5765C116.751 78.8396 117.172 78.9974 117.698 78.9974C118.277 78.9974 118.698 78.8396 119.014 78.5765C119.329 78.3134 119.487 77.8925 119.487 77.419C119.487 76.3667 119.487 74.9461 119.434 73.1572H119.908C119.908 73.736 119.908 74.4726 119.908 75.367C119.908 76.2615 119.908 76.9455 119.908 77.4716C119.908 78.0504 119.698 78.5765 119.277 78.9448C119.014 79.2079 118.435 79.4183 117.751 79.4183Z" fill="#DAB785"/>
<path d="M127.905 73.0513C130.22 73.0513 131.378 74.1036 131.378 76.2081C131.378 77.1552 131.062 77.8918 130.484 78.4705C129.905 79.0493 129.01 79.3124 127.905 79.3124H126.38V73.1039C126.748 73.0513 127.221 73.0513 127.905 73.0513ZM127.958 78.8388C128.905 78.8388 129.642 78.6284 130.168 78.1022C130.694 77.6287 130.957 76.9447 130.957 76.1555C130.957 75.2611 130.694 74.5771 130.22 74.1036C129.747 73.63 128.958 73.4196 128.011 73.4196C127.537 73.4196 127.169 73.4196 126.958 73.4722V78.8388H127.958Z" fill="#DAB785"/>
<path d="M137.744 79.314V73.1055H138.218V79.314H137.744Z" fill="#DAB785"/>
<path d="M147.425 79.4192C146.583 79.4192 145.899 79.1561 145.373 78.5774C144.847 77.9986 144.637 77.262 144.637 76.2623C144.637 75.2627 144.9 74.4734 145.373 73.9473C145.847 73.3685 146.531 73.1055 147.425 73.1055C148.32 73.1055 149.004 73.3685 149.477 73.9473C150.003 74.4734 150.214 75.2627 150.214 76.3149C150.214 77.262 149.951 78.0512 149.477 78.63C149.056 79.1035 148.32 79.4192 147.425 79.4192ZM147.425 78.9983C148.109 78.9983 148.688 78.7352 149.109 78.2617C149.53 77.7881 149.74 77.1042 149.74 76.2623C149.74 75.4731 149.53 74.7891 149.162 74.263C148.741 73.7368 148.214 73.4738 147.478 73.4738C146.794 73.4738 146.215 73.7368 145.794 74.2104C145.373 74.6839 145.163 75.3679 145.163 76.2097C145.163 76.9989 145.373 77.6829 145.742 78.2091C146.163 78.7352 146.741 78.9983 147.425 78.9983Z" fill="#DAB785"/>
<path d="M157.948 79.3663C157.317 79.3663 156.685 79.2611 156.107 78.998L156.212 78.6297C156.791 78.8402 157.369 78.9454 157.948 78.9454C158.159 78.9454 158.369 78.8928 158.632 78.8402C158.843 78.7876 159.053 78.6297 159.263 78.4719C159.474 78.314 159.579 78.051 159.579 77.7879C159.579 77.367 159.369 77.0513 158.895 76.7882C158.737 76.683 158.422 76.5778 157.843 76.3147C157.843 76.3147 157.738 76.2621 157.632 76.2095C157.475 76.1569 157.422 76.1042 157.369 76.1042C157.317 76.1042 157.264 76.0516 157.159 75.999C157.054 75.9464 156.948 75.8938 156.896 75.8938C156.843 75.8938 156.791 75.8412 156.685 75.7359C156.58 75.6833 156.527 75.6307 156.475 75.5781C156.422 75.5255 156.37 75.4729 156.317 75.3676C156.264 75.2624 156.212 75.2098 156.159 75.1572C156.107 75.1046 156.107 74.9993 156.107 74.8941C156.107 74.7889 156.054 74.6837 156.054 74.5784C156.054 74.1049 156.264 73.684 156.633 73.4209C157.001 73.1578 157.58 73 158.264 73C158.79 73 159.263 73.1052 159.737 73.2631L159.632 73.6314C159.158 73.4735 158.685 73.3683 158.211 73.3683C157.685 73.3683 157.264 73.4735 156.948 73.684C156.633 73.8944 156.475 74.1575 156.475 74.5258C156.475 74.6837 156.527 74.8415 156.58 74.9993C156.633 75.1572 156.791 75.2624 156.948 75.3676C157.106 75.4729 157.264 75.5781 157.422 75.6307C157.58 75.6833 157.79 75.7886 158.053 75.8938C158.737 76.1569 159.158 76.3673 159.369 76.5252C159.79 76.7882 160 77.2091 160 77.6827C160 78.051 159.895 78.3667 159.632 78.5771C159.369 78.7876 159.158 78.998 158.843 79.1033C158.527 79.2085 158.316 79.3663 157.948 79.3663Z" fill="#DAB785"/>
</g>
<defs>
<clipPath id="clip0_7038_548">
<rect width="160" height="80" fill="white"/>
</clipPath>
</defs>
</svg>
