<svg width="160" height="80" viewBox="0 0 160 80" fill="none" xmlns="http://www.w3.org/2000/svg">
<path d="M0 52.3L14.4 28.1L21.0286 24L35.0857 53.3L18.4 35.1L0 52.3Z" fill="#F9FAFB"/>
<path d="M12.2286 47.7996L18.0571 52.0996L39.6572 34.5996L18.4 55.9996L12.2286 47.7996Z" fill="#7CD6FB"/>
<path fill-rule="evenodd" clip-rule="evenodd" d="M68.6857 36.6002L69.9428 34.7002H67.2L65.9428 36.6002L62.9714 41.2002L60 36.6002L58.7428 34.7002H56L57.2571 36.6002L62.9714 45.3002L68.6857 36.6002ZM57.0286 45.3002H59.7714L58.5143 43.4002L52.8 34.7002L47.0857 43.4002L45.8286 45.3002H48.5714L49.8286 43.4002L52.8 38.8002L55.7714 43.4002L57.0286 45.3002ZM80.2285 45.3002H77.4857L76.2285 43.4002L73.2571 38.8002L70.2857 43.4002L69.0286 45.3002H66.2857L67.5428 43.4002L73.2571 34.7002L78.9714 43.4002L80.2285 45.3002ZM91.2 36.6002V34.7002H77.4857V36.6002H83.0857V45.3002H85.4857V36.6002H91.2ZM102.514 45.3002H99.7714L98.5143 43.4002L95.5428 38.8002L92.5714 43.4002L91.3143 45.3002H88.5714L89.8285 43.4002L95.5428 34.7002L101.257 43.4002L102.514 45.3002ZM116.114 45.3002L114.857 43.4002L112.914 40.4002C113.257 40.4002 113.6 40.3002 113.943 40.2002C115.2 39.7002 116.114 38.7002 116.114 37.6002C116.114 36.8002 115.657 36.1002 115.086 35.6002C114.4 35.1002 113.486 34.8002 112.457 34.8002H103.771V45.4002H106.171V40.5002H108.571C109.486 40.5002 110.171 40.9002 110.629 41.4002L110.743 41.5002L112.114 43.5002L113.371 45.4002L116.114 45.3002ZM112.914 38.4002C112.8 38.5002 112.571 38.5002 112.457 38.5002H106.286V36.5002H112.457C112.914 36.5002 113.143 36.7002 113.371 36.8002C113.486 36.9002 113.714 37.1002 113.714 37.5002C113.6 37.9002 113.371 38.3002 112.914 38.4002Z" fill="#F9FAFB"/>
<path fill-rule="evenodd" clip-rule="evenodd" d="M141.486 42.9002V34.7002H140.457V42.9002C140.457 43.7002 139.771 44.3002 138.971 44.3002H128C127.2 44.3002 126.514 43.7002 126.514 42.9002V34.7002H125.486V42.9002C125.486 44.2002 126.629 45.3002 128 45.3002H138.971C140.343 45.3002 141.486 44.3002 141.486 42.9002ZM160 45.3002L152.914 40.0002L160 34.7002H158.4L152.114 39.4002L145.829 34.7002H144.229L151.314 40.0002L144.229 45.3002H145.829L152.114 40.6002L158.4 45.3002H160Z" fill="#7CD6FB"/>
</svg>
