<?xml version="1.0" encoding="UTF-8"?>
<svg width="354px" height="86px" viewBox="0 0 354 86" version="1.1" xmlns="http://www.w3.org/2000/svg" xmlns:xlink="http://www.w3.org/1999/xlink">
    <title>Group 61</title>
    <g id="Page-1" stroke="none" stroke-width="1" fill="none" fill-rule="evenodd">
        <g id="Artboard" transform="translate(-223.000000, -562.000000)" fill="#000000">
            <g id="Group-61" transform="translate(223.934748, 562.465007)">
                <path d="M14.4706609,29.8218648 C15.5122766,29.8218648 16.3479682,29.5257291 16.9857329,28.9314568 C17.6174998,28.3371845 17.9353826,27.5668315 17.9353826,26.6203978 C17.9353826,25.6939733 17.6174998,24.9336249 16.9857329,24.3393526 C16.3479682,23.7450803 15.5122766,23.4469437 14.4706609,23.4469437 L9.24858764,23.4469437 L9.24858764,29.8218648 L14.4706609,29.8218648 Z M16.4979129,15.4973011 C17.0836968,14.9350434 17.3755891,14.1967051 17.3755891,13.286288 C17.3755891,12.3738699 17.0836968,11.6375325 16.4979129,11.0752748 C15.9121291,10.5150181 15.1124241,10.2328888 14.1027966,10.2328888 L9.24858764,10.2328888 L9.24858764,16.3396871 L14.1027966,16.3396871 C15.1124241,16.3396871 15.9121291,16.0575578 16.4979129,15.4973011 L16.4979129,15.4973011 Z M22.1078431,19.2470192 C23.7672308,20.0273768 25.0747484,21.1719012 26.0263973,22.6785916 C26.9780462,24.185282 27.4538706,25.8800586 27.4538706,27.770925 C27.4538706,30.6042233 26.3722697,32.9713079 24.2090678,34.8781816 C22.0438667,36.7830545 19.3448625,37.7354909 16.1060575,37.7354909 L0,37.7354909 L0,2.7094415 L15.7881748,2.7094415 C18.8970277,2.7094415 21.4620813,3.55582933 23.4893334,5.2506059 C25.5125869,6.94338155 26.5262129,9.08636349 26.5262129,11.673549 C26.5262129,13.2202577 26.1283597,14.6669206 25.330654,16.0095358 C24.5329483,17.3541519 23.4593444,18.4326461 22.1078431,19.2470192 L22.1078431,19.2470192 Z" id="Fill-38"></path>
                <path d="M41.5856565,28.6261169 C42.7232368,29.7986541 44.164705,30.3849228 45.9060625,30.3849228 C47.6454207,30.3849228 49.0908874,29.7986541 50.2364647,28.6261169 C51.3840413,27.4535796 51.9578296,25.9889085 51.9578296,24.2301026 C51.9578296,22.4712966 51.3840413,21.0046246 50.2364647,19.8320873 C49.0908874,18.661551 47.6454207,18.0752823 45.9060625,18.0752823 C44.164705,18.0752823 42.7232368,18.6575491 41.5856565,19.8200818 C40.4480763,20.9846154 39.8782865,22.4532884 39.8782865,24.2301026 C39.8782865,25.9889085 40.4480763,27.4535796 41.5856565,28.6261169 L41.5856565,28.6261169 Z M53.8611274,10.695901 L60.7905707,10.695901 L60.7905707,37.7122803 L53.6192166,37.7122803 L52.8115146,35.8054065 C50.4843733,37.6782647 47.769375,38.6146938 44.660522,38.6146938 C41.9435245,38.6146938 39.5064237,38.0004123 37.3512189,36.7698484 C35.1960141,35.5412855 33.5166337,33.8325025 32.3110785,31.6414986 C31.1075226,29.4524955 30.5057446,26.9733596 30.5057446,24.2040906 C30.5057446,20.0181726 31.8312555,16.5866002 34.4842767,13.9093735 C37.1352985,11.2321467 40.5280468,9.89153243 44.660522,9.89153243 C47.8333514,9.89153243 50.5823371,10.8519725 52.9094785,12.7728527 L53.8611274,10.695901 Z" id="Fill-39"></path>
                <path d="M82.9511943,9.91434288 C86.0900362,9.91434288 88.6051082,10.9508178 90.4904126,13.0177649 C92.3797155,15.084712 93.3213681,17.8379736 93.3213681,21.2735478 L93.3213681,37.7350907 L84.0247982,37.7350907 L84.0247982,22.54413 C84.0247982,19.416697 82.8532304,17.8539809 80.510095,17.8539809 C79.062629,17.8539809 77.9390436,18.3301991 77.1433372,19.2826356 C76.3456315,20.235072 75.945779,21.5736853 75.945779,23.2984757 L75.945779,37.7350907 L66.6492091,37.7350907 L66.6492091,10.7207124 L73.1648051,10.7207124 L74.4343367,13.5059886 C75.4419649,12.3674669 76.6815076,11.4830617 78.1569632,10.8567747 C79.6284203,10.2284868 81.2278301,9.91434288 82.9511943,9.91434288" id="Fill-40"></path>
                <polygon id="Fill-41" points="126.271211 37.735691 115.313254 37.735691 108.551749 26.304453 108.551749 37.735691 99.2531795 37.735691 99.2531795 0.976847605 108.551749 0.976847605 108.551749 21.2981591 114.993372 10.7213126 125.415527 10.7213126 117.020624 23.5932107"></polygon>
                <polygon id="Fill-42" points="164.879966 2.70984169 164.879966 11.4058263 155.361478 11.4058263 155.361478 37.7358911 145.697044 37.7358911 145.697044 11.4058263 136.180555 11.4058263 136.180555 2.70984169"></polygon>
                <path d="M182.769765,10.5982563 L185.232856,10.5982563 L185.232856,19.098151 L181.622189,19.098151 C179.978795,19.098151 178.791233,19.4863289 178.059503,20.2586828 C177.325774,21.0330376 176.959909,22.2836106 176.959909,24.008401 L176.959909,37.7366915 L167.66134,37.7366915 L167.66134,10.7223131 L173.887043,10.7223131 L175.324512,13.7236884 C176.268164,12.6351896 177.337769,11.8408256 178.535328,11.3445982 C179.728887,10.8483709 181.142366,10.5982563 182.769765,10.5982563" id="Fill-43"></path>
                <path d="M197.82481,28.6261169 C198.962391,29.7986541 200.403859,30.3849228 202.145216,30.3849228 C203.884575,30.3849228 205.330041,29.7986541 206.475619,28.6261169 C207.623195,27.4535796 208.196984,25.9889085 208.196984,24.2301026 C208.196984,22.4712966 207.623195,21.0046246 206.475619,19.8320873 C205.330041,18.661551 203.884575,18.0752823 202.145216,18.0752823 C200.403859,18.0752823 198.962391,18.6575491 197.82481,19.8200818 C196.68723,20.9846154 196.11744,22.4532884 196.11744,24.2301026 C196.11744,25.9889085 196.68723,27.4535796 197.82481,28.6261169 L197.82481,28.6261169 Z M210.100281,10.695901 L217.029725,10.695901 L217.029725,37.7122803 L209.858371,37.7122803 L209.050669,35.8054065 C206.723527,37.6782647 204.008529,38.6146938 200.899676,38.6146938 C198.182678,38.6146938 195.745578,38.0004123 193.590373,36.7698484 C191.435168,35.5412855 189.755788,33.8325025 188.550232,31.6414986 C187.346676,29.4524955 186.744899,26.9733596 186.744899,24.2040906 C186.744899,20.0181726 188.070409,16.5866002 190.723431,13.9093735 C193.374452,11.2321467 196.767201,9.89153243 200.899676,9.89153243 C204.072505,9.89153243 206.821491,10.8519725 209.148632,12.7728527 L210.100281,10.695901 Z" id="Fill-44"></path>
                <path d="M239.192347,9.91434288 C242.331189,9.91434288 244.846261,10.9508178 246.731566,13.0177649 C248.620869,15.084712 249.562521,17.8379736 249.562521,21.2735478 L249.562521,37.7350907 L240.265951,37.7350907 L240.265951,22.54413 C240.265951,19.416697 239.094384,17.8539809 236.751248,17.8539809 C235.303782,17.8539809 234.180197,18.3301991 233.38449,19.2826356 C232.586785,20.235072 232.186932,21.5736853 232.186932,23.2984757 L232.186932,37.7350907 L222.890362,37.7350907 L222.890362,10.7207124 L229.405958,10.7207124 L230.67549,13.5059886 C231.683118,12.3674669 232.922661,11.4830617 234.398116,10.8567747 C235.869573,10.2284868 237.468983,9.91434288 239.192347,9.91434288" id="Fill-45"></path>
                <path d="M265.501041,38.6150939 C261.856385,38.6150939 258.967451,37.7326896 256.838237,35.96588 C254.707023,34.1990705 253.625422,31.8319858 253.591435,28.868628 L262.546131,28.868628 C262.546131,29.8150617 262.840022,30.5353917 263.425806,31.0316191 C264.01159,31.5278465 264.769311,31.7759602 265.696968,31.7759602 C266.428698,31.7759602 267.050469,31.5918758 267.56228,31.227709 C268.076091,30.8595403 268.331996,30.3433037 268.331996,29.6749975 C268.331996,28.9766775 267.954136,28.45844 267.198414,28.1242869 C266.440694,27.7921347 265.273125,27.4919972 263.695707,27.2338789 C262.977972,27.1198267 262.356201,27.0037735 261.828396,26.8917221 C261.298591,26.7776699 260.672822,26.6095929 259.949089,26.3914929 C259.223357,26.1693912 258.607584,25.9292811 258.093774,25.669162 C257.581962,25.4090428 257.048159,25.0648851 256.494364,24.632687 C255.942567,24.200489 255.490734,23.7202689 255.140863,23.190026 C254.790992,22.6617839 254.507097,22.0174887 254.287178,21.2611421 C254.067259,20.5027947 253.9573,19.6684123 253.9573,18.7579952 C253.9573,16.0547565 255.01491,13.8937663 257.130129,12.2730237 C259.245349,10.652281 262.036319,9.84190969 265.501041,9.84190969 C268.91778,9.84190969 271.662767,10.676292 273.738001,12.3450567 C275.811237,14.0158222 276.872845,16.2268354 276.922826,18.978096 L268.208042,18.978096 C268.208042,18.1317082 267.958134,17.4954166 267.45432,17.0712223 C266.950506,16.6470279 266.256762,16.4369316 265.377086,16.4369316 C264.629362,16.4369316 264.029584,16.6170141 263.573752,16.9751783 C263.11792,17.3313415 262.890004,17.8195652 262.890004,18.4398494 C262.890004,18.7319832 262.969974,18.9921024 263.131915,19.2222079 C263.295854,19.4503124 263.49578,19.6383986 263.731693,19.7824646 C263.965607,19.9305324 264.299484,20.0645939 264.731325,20.1866498 C265.163165,20.3087057 265.55702,20.4047497 265.916887,20.4807846 C266.274755,20.5528176 266.754578,20.6468607 267.356356,20.758912 C267.420332,20.7769203 267.468315,20.7849239 267.502302,20.7849239 L267.526293,20.7849239 L267.550285,20.7849239 L267.576275,20.8109358 L267.600266,20.8109358 L267.624257,20.8109358 L267.648248,20.8109358 L267.674239,20.8109358 C270.227297,21.265144 272.090609,21.769375 273.262177,22.3216281 C276.043151,23.6442341 277.436637,25.9632967 277.436637,29.2848187 C277.436637,32.1021096 276.34504,34.3611447 274.163844,36.063925 C271.984648,37.7627034 269.097714,38.6150939 265.501041,38.6150939" id="Fill-46"></path>
                <path d="M299.57047,11.1611142 L299.57047,18.4644607 L293.518703,18.4644607 L293.518703,37.7352908 L284.218135,37.7352908 L284.218135,18.4644607 L279.753782,18.4644607 L279.753782,11.1611142 L284.342089,11.1611142 L284.342089,8.57192777 C284.342089,5.83667444 285.081816,3.72370625 286.56127,2.2330232 C288.040724,0.744341067 290.199928,0 293.030883,0 L299.520489,0 L299.520489,7.13126764 L295.420002,7.13126764 C294.72026,7.13126764 294.180459,7.32335566 293.796601,7.70352986 C293.414742,8.08770589 293.224812,8.62795344 293.224812,9.32827434 L293.224812,11.1611142 L299.57047,11.1611142 Z" id="Fill-47"></path>
                <path d="M315.701319,17.120845 C314.349817,17.120845 313.216236,17.4750073 312.296575,18.1833318 C311.376914,18.8916564 310.731152,19.9201277 310.355291,21.2727475 L321.265266,21.2727475 C320.435572,18.5034785 318.580256,17.120845 315.701319,17.120845 M330.417889,23.9839898 C330.417889,24.8323785 330.35991,25.6447508 330.245952,26.4251083 L310.185354,26.4251083 C310.49524,27.973818 311.121009,29.1463552 312.06666,29.9427202 C313.008312,30.7430869 314.221865,31.1412693 315.701319,31.1412693 C316.790917,31.1412693 317.762558,30.9191676 318.618242,30.4689613 C319.471927,30.0207559 320.127686,29.3984708 320.581518,28.6001049 L329.832105,28.6001049 C328.888453,31.6775151 327.143097,34.1166327 324.596037,35.9174579 C322.050976,37.7162821 319.084071,38.6146938 315.701319,38.6146938 C312.93434,38.6146938 310.433262,37.9924086 308.196088,36.7478383 C305.958913,35.5012672 304.20556,33.7784777 302.936029,31.581471 C301.666497,29.3824634 301.03473,26.9233366 301.03473,24.2040906 C301.03473,20.0681955 302.420219,16.640625 305.195195,13.919378 C307.968172,11.202133 311.47088,9.84150951 315.701319,9.84150951 C317.832532,9.84150951 319.8178,10.2076773 321.657121,10.9420138 C323.494443,11.6723484 325.051869,12.6708059 326.329397,13.9333845 C327.606926,15.195963 328.606557,16.6966506 329.33029,18.4394492 C330.056022,20.1822478 330.417889,22.029094 330.417889,23.9839898" id="Fill-48"></path>
                <path d="M349.747157,10.5982563 L352.210248,10.5982563 L352.210248,19.098151 L348.599581,19.098151 C346.956187,19.098151 345.768625,19.4863289 345.036895,20.2586828 C344.303166,21.0330376 343.937301,22.2836106 343.937301,24.008401 L343.937301,37.7366915 L334.638732,37.7366915 L334.638732,10.7223131 L340.864434,10.7223131 L342.301904,13.7236884 C343.245556,12.6351896 344.315161,11.8408256 345.512719,11.3445982 C346.706279,10.8483709 348.119758,10.5982563 349.747157,10.5982563" id="Fill-49"></path>
                <polygon id="Fill-50" points="115.562162 56.7582074 118.661019 56.7582074 107.313206 85.0811853 104.728159 85.0811853 93.1244408 56.7582074 96.2632827 56.7582074 106.011686 80.8152306"></polygon>
                <path d="M123.002417,85.0807851 L125.745405,85.0807851 L125.745405,63.2367759 L123.002417,63.2367759 L123.002417,85.0807851 Z M122.806489,59.1088845 L125.943332,59.1088845 L125.943332,55.7133286 L122.806489,55.7133286 L122.806489,59.1088845 Z" id="Fill-51"></path>
                <path d="M142.620579,82.869772 C145.105662,82.869772 147.158904,82.0473952 148.776307,80.4006406 C150.39571,78.7538861 151.205411,76.6749335 151.205411,74.1577801 C151.205411,71.6446285 150.39571,69.5656759 148.776307,67.9169204 C147.158904,66.2721668 145.105662,65.44979 142.620579,65.44979 C140.147491,65.44979 138.086252,66.2781695 136.442858,67.9369296 C134.797465,69.5956897 133.975768,71.6706404 133.975768,74.1577801 C133.975768,76.6489216 134.797465,78.7218714 136.442858,80.3806315 C138.086252,82.0393915 140.147491,82.869772 142.620579,82.869772 L142.620579,82.869772 Z M151.797193,63.2367759 L154.006378,63.2367759 L154.006378,85.0807851 L151.717222,85.0807851 L151.403338,81.1709936 C150.389712,82.5416217 149.108185,83.6101113 147.564754,84.3804642 C146.017325,85.1508172 144.303958,85.5349933 142.422652,85.5349933 C140.843234,85.5349933 139.355783,85.2448603 137.962297,84.6665954 C136.568812,84.0863295 135.373253,83.2939664 134.381618,82.2875052 C133.387985,81.2790431 132.604274,80.0724903 132.032485,78.6618439 C131.460696,77.2531984 131.172802,75.7525108 131.172802,74.1577801 C131.172802,70.9062902 132.246406,68.1970488 134.391615,66.0320568 C136.534824,63.8670647 139.211836,62.7825678 142.422652,62.7825678 C144.303958,62.7825678 146.023323,63.1707457 147.582748,63.9491023 C149.142172,64.7254581 150.427698,65.8059532 151.441324,67.1865858 L151.797193,63.2367759 Z" id="Fill-52"></path>
                <path d="M183.626849,71.2764598 L198.823242,71.2764598 C198.755267,74.0417269 198.119502,76.5028546 196.909948,78.6618439 C195.698395,80.8228341 194.037008,82.5036042 191.923788,83.7101571 C189.814566,84.9127081 187.421449,85.5149841 184.750434,85.5149841 C182.015443,85.5149841 179.562349,84.890698 177.39115,83.640125 C175.219951,82.389552 173.524576,80.6547571 172.309025,78.4357403 C171.091474,76.2167235 170.483698,73.7195793 170.483698,70.9403058 C170.483698,68.1750387 171.095473,65.6818963 172.319021,63.4648804 C173.54257,61.2438627 175.235945,59.5070669 177.401146,58.2484902 C179.564348,56.9919145 181.995451,56.3636266 184.692456,56.3636266 C188.075208,56.3636266 191.044112,57.3180639 193.603168,59.2289395 C196.162224,61.1378142 197.749638,63.5789327 198.36941,66.556297 L195.448487,66.556297 C194.842711,64.3552884 193.551187,62.5684697 191.571918,61.1918389 C189.588649,59.8152081 187.317487,59.1288936 184.750434,59.1288936 C181.449652,59.1288936 178.726657,60.2374016 176.583448,62.4564184 C174.43624,64.6754351 173.364635,67.5027306 173.364635,70.9403058 C173.364635,74.4158984 174.422245,77.2491966 176.531467,79.4422015 C178.644687,81.6352063 181.383677,82.7317088 184.750434,82.7317088 C187.605381,82.7317088 190.040483,81.9233384 192.05374,80.3126003 C194.066997,78.6998613 195.30454,76.5808904 195.762371,73.9616902 L183.626849,73.9616902 L183.626849,71.2764598 Z" id="Fill-53"></path>
                <path d="M204.350403,85.0807851 L207.093391,85.0807851 L207.093391,63.2367759 L204.350403,63.2367759 L204.350403,85.0807851 Z M204.152476,59.1088845 L207.289318,59.1088845 L207.289318,55.7133286 L204.152476,55.7133286 L204.152476,59.1088845 Z" id="Fill-54"></path>
                <path d="M225.562576,63.35483 L225.562576,65.6858981 L218.537168,65.6858981 L218.537168,85.0807851 L215.79418,85.0807851 L215.79418,65.6858981 L211.355818,65.6858981 L211.355818,63.35483 L215.79418,63.35483 L215.79418,61.598025 C215.79418,59.1749147 216.347976,57.4021024 217.451569,56.2855908 C218.557161,55.1650774 220.340503,54.6048207 222.799596,54.6048207 L225.542584,54.6048207 L225.542584,56.857853 L223.293414,56.857853 C221.530064,56.857853 220.282524,57.220019 219.554793,57.9443509 C218.825062,58.6666819 218.459197,59.9052494 218.459197,61.6560516 L218.459197,63.35483 L225.562576,63.35483 Z" id="Fill-55"></path>
                <path d="M238.331265,82.533618 L240.700391,82.533618 L240.700391,85.0807851 L237.975396,85.0807851 C235.726226,85.0807851 233.956879,84.4284863 232.667355,83.1258894 C231.377831,81.8232925 230.732069,80.0384747 230.732069,77.7734368 L230.732069,65.7259165 L226.983452,65.7259165 L226.983452,65.1916717 L233.023224,58.9708212 L233.475057,58.9708212 L233.475057,63.2367759 L240.560443,63.2367759 L240.560443,65.7259165 L233.475057,65.7259165 L233.475057,77.6753919 C233.475057,79.2301043 233.896901,80.4266526 234.738591,81.2690386 C235.582279,82.1114245 236.779838,82.533618 238.331265,82.533618" id="Fill-56"></path>
                <path d="M269.138299,85.5153843 C267.059066,85.5153843 265.121781,85.1492165 263.326443,84.4188819 C261.531105,83.6885472 260.00167,82.6860879 258.738136,81.407502 C257.474602,80.130917 256.482968,78.5902111 255.759235,76.787385 C255.033503,74.982558 254.673635,73.033665 254.673635,70.940706 C254.673635,68.1474261 255.291408,65.6382763 256.526952,63.4152577 C257.766494,61.1902382 259.48586,59.4514414 261.687048,58.2008684 C263.892234,56.9502954 266.375318,56.3240084 269.138299,56.3240084 C272.347115,56.3240084 275.154079,57.1964082 277.555193,58.9412076 C279.956307,60.6860071 281.585706,63.0410863 282.439391,66.0024432 L279.538461,66.0024432 C278.722762,63.8434539 277.397251,62.1526792 275.561929,60.9361217 C273.726606,59.7175634 271.587395,59.1092847 269.138299,59.1092847 C265.769542,59.1092847 262.998564,60.2177926 260.821367,62.4368094 C258.642171,64.6558262 257.554573,67.4891244 257.554573,70.940706 C257.554573,74.3882857 258.642171,77.2175821 260.821367,79.4225925 C262.998564,81.6296038 265.769542,82.730108 269.138299,82.730108 C271.665366,82.730108 273.854558,82.081811 275.709874,80.7872178 C277.565189,79.4886227 278.894699,77.6958012 279.696403,75.4027505 L282.597333,75.4027505 C281.743648,78.5121753 280.106252,80.973303 277.693142,82.7901355 C275.278033,84.606968 272.429084,85.5153843 269.138299,85.5153843" id="Fill-57"></path>
                <path d="M297.319301,82.869772 C299.804384,82.869772 301.857626,82.0473952 303.47503,80.4006406 C305.094432,78.7538861 305.904133,76.6749335 305.904133,74.1577801 C305.904133,71.6446285 305.094432,69.5656759 303.47503,67.9169204 C301.857626,66.2721668 299.804384,65.44979 297.319301,65.44979 C294.846213,65.44979 292.784974,66.2781695 291.14158,67.9369296 C289.496187,69.5956897 288.674491,71.6706404 288.674491,74.1577801 C288.674491,76.6489216 289.496187,78.7218714 291.14158,80.3806315 C292.784974,82.0393915 294.846213,82.869772 297.319301,82.869772 L297.319301,82.869772 Z M306.495915,63.2367759 L308.7051,63.2367759 L308.7051,85.0807851 L306.415945,85.0807851 L306.10206,81.1709936 C305.088434,82.5416217 303.806907,83.6101113 302.263477,84.3804642 C300.716048,85.1508172 299.00268,85.5349933 297.121374,85.5349933 C295.541957,85.5349933 294.054506,85.2448603 292.66102,84.6665954 C291.267534,84.0863295 290.071975,83.2939664 289.080341,82.2875052 C288.086707,81.2790431 287.302997,80.0724903 286.731208,78.6618439 C286.159418,77.2531984 285.871525,75.7525108 285.871525,74.1577801 C285.871525,70.9062902 286.945129,68.1970488 289.090337,66.0320568 C291.233546,63.8670647 293.910559,62.7825678 297.121374,62.7825678 C299.00268,62.7825678 300.722045,63.1707457 302.28147,63.9491023 C303.840895,64.7254581 305.12642,65.8059532 306.140046,67.1865858 L306.495915,63.2367759 Z" id="Fill-58"></path>
                <path d="M325.599867,63.1379306 L327.513161,63.1379306 L327.513161,65.7451253 L325.381947,65.7451253 C323.304713,65.7451253 321.667317,66.4114306 320.477756,67.7400394 C319.288195,69.0706491 318.692415,70.8494642 318.692415,73.0724828 L318.692415,85.0819857 L315.949427,85.0819857 L315.949427,63.2379765 L317.922699,63.2379765 L318.394525,66.9896956 C319.987937,64.4225193 322.389051,63.1379306 325.599867,63.1379306" id="Fill-59"></path>
                <path d="M334.104529,80.3900358 C335.733927,82.0427931 337.78717,82.8691718 340.260257,82.8691718 C342.733345,82.8691718 344.790586,82.0387913 346.427982,80.3800312 C348.065378,78.7212711 348.887074,76.6483213 348.887074,74.1591807 C348.887074,71.6580347 348.069376,69.581083 346.437978,67.9263247 C344.808579,66.2755683 342.74734,65.4491897 340.260257,65.4491897 C337.78717,65.4491897 335.733927,66.2755683 334.104529,67.9263247 C332.473131,69.581083 331.655432,71.6580347 331.655432,74.1591807 C331.655432,76.6623277 332.473131,78.7392794 334.104529,80.3900358 L334.104529,80.3900358 Z M348.727133,55.4746192 L351.472121,55.4746192 L351.472121,85.0821858 L349.318915,85.0821858 L348.92506,81.3684841 C347.89744,82.6850874 346.62191,83.7095568 345.096473,84.4378906 C343.569037,85.1702261 341.893655,85.534393 340.06233,85.534393 C336.827524,85.534393 334.148512,84.451897 332.031294,82.286905 C329.912075,80.119912 328.854466,77.4126715 328.854466,74.1591807 C328.854466,72.0121969 329.33029,70.0753094 330.285938,68.3425154 C331.237586,66.6117224 332.571094,65.2530998 334.282463,64.262646 C335.991832,63.276194 337.919121,62.7819675 340.06233,62.7819675 C341.82568,62.7819675 343.455079,63.1241243 344.948528,63.8104388 C346.441977,64.4947524 347.701512,65.4551924 348.727133,66.69376 L348.727133,55.4746192 Z" id="Fill-60"></path>
            </g>
        </g>
    </g>
</svg>