<svg width="160" height="80" viewBox="0 0 160 80" fill="none" xmlns="http://www.w3.org/2000/svg">
<path d="M18.7204 44.25C19.0464 44.4503 19.3242 44.6246 19.5999 44.805C20.0761 45.1188 20.4663 45.5457 20.7354 46.0471C21.0045 46.5485 21.144 47.1086 21.1414 47.6771C21.1388 48.2455 20.9942 48.8044 20.7205 49.3034C20.4468 49.8023 20.0528 50.2256 19.5738 50.5352C18.7819 51.0491 17.8563 51.3214 16.9109 51.3185C12.7244 51.3446 8.53791 51.3185 4.3514 51.3185C4.32323 51.3185 4.29706 51.2885 4.21252 51.2384V37.1694C4.4299 37.1553 4.61507 37.1333 4.81635 37.1333C8.50168 37.1333 12.185 37.1333 15.8703 37.1453C16.5725 37.1357 17.2735 37.2063 17.9596 37.3557C18.5426 37.495 19.0937 37.7432 19.5838 38.087C21.6771 39.5877 21.6348 42.2264 19.5295 43.711C19.2799 43.8813 19.0283 44.0436 18.7204 44.25ZM8.3004 42.9196C10.4621 42.9196 12.499 42.9196 14.5399 42.9196C14.8249 42.9255 15.1083 42.8755 15.3739 42.7724C15.6395 42.6692 15.882 42.515 16.0877 42.3185C16.8505 41.5812 16.6915 40.4352 15.7214 40.0164C15.2564 39.8361 14.7612 39.7456 14.2621 39.75C12.4245 39.7179 10.5849 39.7299 8.74522 39.7339C8.59514 39.7481 8.44683 39.777 8.30242 39.8201L8.3004 42.9196ZM8.32858 48.6638C8.40305 48.7019 8.45941 48.758 8.51778 48.758C10.5587 48.758 12.6016 48.758 14.6426 48.758C14.9116 48.759 15.1781 48.7064 15.4263 48.6031C15.6745 48.4999 15.8994 48.3482 16.0877 48.1569C16.2667 47.9923 16.3997 47.7843 16.4739 47.5532C16.548 47.3221 16.5606 47.0759 16.5105 46.8385C16.4604 46.6011 16.3493 46.3807 16.1881 46.1988C16.0268 46.0169 15.821 45.8797 15.5906 45.8007C15.3105 45.6879 15.0129 45.6241 14.711 45.6124C12.6057 45.5964 10.5023 45.6124 8.3306 45.6124L8.32858 48.6638Z" fill="white"/>
<path d="M102.159 45.2737C104.355 45.9469 105.141 47.4336 105.258 49.4131C105.292 50.0142 105.459 50.5912 105.592 51.3125C104.83 51.3225 104.081 51.3365 103.334 51.3425C102.587 51.3485 101.863 51.3425 101.12 51.3425C100.701 50.7415 100.738 50.0442 100.629 49.4031C100.226 47.0629 99.3931 46.2595 96.9758 46.0992C95.7058 46.015 94.4297 46.0431 93.1516 46.0271C92.9503 46.0271 92.749 46.0511 92.4431 46.0731C92.3284 46.9367 92.4028 47.7962 92.3888 48.6477C92.3747 49.4992 92.3888 50.3728 92.3888 51.2884H88.2646V37.1773C88.5243 37.1613 88.7558 37.1332 88.9852 37.1332C92.3062 37.1332 95.6273 37.1212 98.9463 37.1493C99.8175 37.158 100.687 37.2378 101.545 37.3877C102.171 37.4968 102.778 37.6994 103.344 37.9888C104.618 38.6459 105.411 39.6637 105.411 41.1664C105.411 42.7332 104.777 43.9373 103.368 44.6947C103.046 44.861 102.712 45.0072 102.159 45.2737ZM92.3988 43.3343C94.6128 43.3343 96.7182 43.3443 98.8215 43.3243C99.1892 43.3155 99.5515 43.2352 99.8882 43.0878C100.585 42.7853 100.814 42.1822 100.814 41.4609C100.814 40.7397 100.538 40.2067 99.85 39.9883C99.3747 39.8365 98.8798 39.7542 98.3807 39.7439C96.5692 39.7158 94.7698 39.7279 92.9624 39.7339C92.7721 39.7477 92.5831 39.7751 92.3968 39.816L92.3988 43.3343Z" fill="white"/>
<path d="M60.8652 37.1472H65.6474L73.471 51.3184C72.5713 51.3184 71.7964 51.3405 71.0195 51.3445C70.2425 51.3485 69.4093 51.3445 68.6042 51.3445L66.837 48.1989H59.6837L57.9165 51.2944H53.0537L60.8652 37.1472ZM63.2644 40.6955L60.6941 45.46H65.8226L63.2644 40.6955Z" fill="white"/>
<path d="M126.398 51.3146H121.535L119.758 48.195H112.613L110.846 51.2945H105.981L113.786 37.1534H118.587L126.398 51.3146ZM118.75 45.4682L116.193 40.7157L113.609 45.4682H118.75Z" fill="white"/>
<path d="M37.4993 45.6344H27.1115C27.0048 46.8366 27.5986 47.9025 28.7217 48.2391C29.682 48.5239 30.6735 48.6914 31.6744 48.738C33.2846 48.8201 34.8948 48.764 36.505 48.768H37.5255V51.2785C37.3873 51.3069 37.2475 51.3263 37.1068 51.3366C34.6271 51.3366 32.1474 51.3366 29.6597 51.3145C28.4149 51.3181 27.1823 51.07 26.0367 50.5853C24.8805 50.11 23.9087 49.2768 23.2652 48.209C20.6848 43.8252 22.7278 37.5561 28.9371 37.1854C31.7086 37.0191 34.4983 37.1493 37.2799 37.1493C37.3383 37.1493 37.3966 37.1954 37.5114 37.2435V39.6478C37.2942 39.6919 37.0743 39.7213 36.8532 39.7359C35.1766 39.7359 33.502 39.7239 31.8213 39.748C31.0513 39.7595 30.2826 39.8144 29.5188 39.9123C28.0334 40.1026 26.8438 41.2066 27.025 42.9477H37.4912L37.4993 45.6344Z" fill="white"/>
<path d="M80.7571 51.3205H76.5988C76.5706 50.0523 76.5867 48.802 76.5847 47.5498C76.5847 46.2495 76.5847 44.9452 76.5847 43.6489C76.5847 42.3866 76.5847 41.1244 76.5847 39.7439H70.6149V37.2695C71.3375 37.0972 85.5998 37.0471 86.9866 37.2174V39.6918C86.3365 39.7059 85.6843 39.7259 85.0322 39.7319C84.3297 39.7319 83.6233 39.7319 82.9228 39.7319H80.8054C80.7269 43.5988 80.8095 47.4096 80.7571 51.3205Z" fill="white"/>
<path d="M39.7858 37.1714H43.8354C43.8354 37.5621 43.8354 37.9167 43.8354 38.2733C43.8676 40.9448 43.9012 43.6108 43.936 46.2716C43.9381 46.4384 43.9495 46.6049 43.9703 46.7705C44.0991 47.7843 44.4875 48.2872 45.4959 48.4955C46.2843 48.6481 47.0842 48.7339 47.8871 48.752C49.1591 48.7961 50.4332 48.77 51.7113 48.772H52.7579V51.2745C52.5992 51.3074 52.4385 51.3294 52.2769 51.3406C50.1004 51.3406 47.9233 51.3406 45.7455 51.3406C44.5698 51.3561 43.4063 51.1011 42.346 50.5953C40.77 49.8239 39.824 48.5917 39.7817 46.8366C39.7053 43.705 39.7173 40.5714 39.6952 37.4379C39.7133 37.3454 39.7438 37.2558 39.7858 37.1714Z" fill="white"/>
<path d="M142.039 47.1451C142.118 47.4456 142.184 47.7462 142.279 48.0487C142.512 48.7815 142.903 49.4545 143.426 50.0202C143.783 50.4035 144.194 50.7335 144.646 51C145.106 51.2683 145.594 51.486 146.101 51.6491C146.777 51.8929 147.487 52.0282 148.206 52.0498C148.506 52.0498 148.506 52.0699 148.498 52.5147C148.323 52.5147 148.144 52.5307 147.963 52.5307C143.937 52.5307 139.916 52.5307 135.9 52.5307C135.635 52.5307 135.367 52.5848 135.095 52.5828C134.823 52.5808 134.6 52.5387 134.326 52.5127L134.296 52.16C134.464 52.1035 134.637 52.0652 134.813 52.0458C135.515 52.0131 136.208 51.8698 136.864 51.6211C138.338 51.1322 139.495 50.2486 140.22 48.8602C140.405 48.4884 140.568 48.1056 140.707 47.7141C140.771 47.5154 140.771 47.3018 140.707 47.103C140.505 47.3635 140.381 47.5679 140.22 47.7442C139.27 48.8271 138.032 49.6203 136.649 50.0322C135.914 50.26 135.152 50.3854 134.383 50.4049C133.13 50.4021 131.898 50.0798 130.806 49.4688C129.714 48.8578 128.797 47.9785 128.143 46.9147C127.417 45.7491 127.023 44.4091 127.002 43.0378C126.99 42.0529 127.141 41.0728 127.449 40.1366C127.731 39.2142 128.13 38.331 128.634 37.508C128.751 37.3256 128.835 37.1313 128.964 36.9069C128.842 36.7746 128.725 36.6364 128.596 36.5062C127.835 35.7468 127.094 34.9654 126.303 34.2381C125.512 33.5108 125.663 32.459 126.32 31.8198C128.483 29.7181 130.611 27.5683 132.754 25.4485C132.906 25.2896 133.081 25.1545 133.274 25.0478C133.902 24.7212 134.467 24.7873 134.982 25.2762C135.715 25.9734 136.424 26.6927 137.136 27.408C137.802 28.0792 137.649 27.989 138.344 27.5082C139.317 26.8323 140.295 26.1591 141.278 25.4886C141.337 25.4572 141.398 25.4304 141.461 25.4084C141.864 25.6789 142.321 25.9434 142.733 26.2499C144.09 27.2517 145.469 28.2395 146.775 29.3074C148.432 30.6481 149.975 32.1223 151.388 33.7152C152.272 34.6988 153.079 35.7476 153.804 36.8528C154.519 37.9608 155.09 39.1552 155.502 40.4071C155.828 41.4089 155.8 42.4528 155.776 43.4906C155.74 45.1135 155.126 46.514 154.101 47.7562C153.316 48.7136 152.296 49.4529 151.139 49.9022C149.982 50.3515 148.729 50.4957 147.5 50.3208C146.189 50.1401 144.944 49.6382 143.877 48.8602C143.19 48.4019 142.609 47.8045 142.17 47.107L142.039 47.1451ZM134.002 25.6228C133.642 25.6228 133.439 25.8091 133.233 26.0235C131.639 27.613 130.044 29.2012 128.447 30.788C127.9 31.333 127.362 31.89 126.803 32.4209C126.454 32.7495 126.37 33.2424 126.732 33.623C126.801 33.6952 126.847 33.7893 126.917 33.8595C127.658 34.5827 128.411 35.296 129.143 36.0273C129.989 36.8668 130.816 37.7243 131.655 38.5698C132.199 39.1188 132.744 39.6678 133.298 40.2048C133.7 40.5854 134.201 40.6375 134.616 40.2048C135.137 39.6638 135.703 39.1629 136.226 38.632C136.895 37.9648 137.543 37.2735 138.213 36.6084C139.165 35.6647 140.135 34.739 141.085 33.7933C141.236 33.6367 141.35 33.4494 141.421 33.2444C141.552 32.8757 141.335 32.6132 141.085 32.3668C139.985 31.2809 138.888 30.1916 137.794 29.099C136.762 28.0585 135.73 27.0226 134.697 25.9915C134.489 25.7831 134.276 25.6068 134.002 25.6228Z" fill="white"/>
<path d="M134.002 25.6227C134.276 25.6087 134.491 25.785 134.699 25.9914C135.732 27.0252 136.768 28.0564 137.806 29.0849C138.903 30.1748 139.999 31.2641 141.097 32.3527C141.347 32.5991 141.564 32.8616 141.433 33.2303C141.362 33.4353 141.248 33.6227 141.097 33.7793C140.147 34.7249 139.177 35.6506 138.225 36.5943C137.555 37.2594 136.907 37.9507 136.238 38.6179C135.705 39.1488 135.139 39.6497 134.628 40.1907C134.212 40.6234 133.702 40.5713 133.31 40.1907C132.754 39.6517 132.211 39.1047 131.667 38.5558C130.828 37.7102 130.001 36.8527 129.156 36.0132C128.421 35.2819 127.67 34.5687 126.929 33.8454C126.859 33.7752 126.813 33.6811 126.744 33.6089C126.382 33.2323 126.466 32.7414 126.815 32.4068C127.376 31.8759 127.912 31.3189 128.459 30.7739C130.046 29.1884 131.636 27.6016 133.227 26.0134C133.429 25.8091 133.642 25.6147 134.002 25.6227Z" fill="black"/>
<path d="M155.782 53.3041H4.21051V56.1091H155.782V53.3041Z" fill="white"/>
</svg>
