<svg width="160" height="80" viewBox="0 0 160 80" fill="none" xmlns="http://www.w3.org/2000/svg">
<path d="M3 51.3062V17.8433H18.6729L22.6842 20.8251L22.8083 17.8433H61.1015L61.3083 20.4938L64.8647 17.8433H74.9549L78.5113 20.7423L78.6353 17.8433H157V51.0991L3 51.3062Z" fill="#01192D"/>
<path d="M3 51.3061L28.5564 62.1567H131.526L157 51.0991L3 51.3061Z" fill="url(#paint0_linear)"/>
<path d="M5.43985 48.9042V19.9554H17.9286L23.1805 24.1797V32.2142L20.8233 34.2849L23.1805 36.6041V44.6385L18.3421 48.9042H5.43985ZM13.3383 36.5213V44.6385H15.282V36.5213H13.3383ZM13.3383 24.0969V32.2142H15.282V24.0969H13.3383Z" fill="#4687C6"/>
<path d="M137.398 19.9553H145.214V31.8413H147.282V19.9553H155.015V48.9041H147.282V36.1484H145.214V48.9041H137.398V19.9553Z" fill="#4687C6"/>
<path d="M135.165 44.5556L130.41 48.9041H122.511L117.094 44.5556V24.0968L121.808 19.9553H130.492L135.165 24.0554L135.124 32.3383H127.226V24.0554H124.951V44.6384H127.226V36.1484H135.165V44.5556Z" fill="#4687C6"/>
<path d="M79.3797 44.6798V48.9041H61.7218V40.2485L71.5639 32.1312V24.1796H68.9586V30.2261H61.7218V23.7655L66.2707 19.9553H74.2519L79.3797 23.9311V32.214L69.1654 40.5798V44.6798H79.3797Z" fill="#FB9901"/>
<path d="M25.7444 19.9553H38.812V24.0139H34.015V32.2554H38.812V36.4383H34.015V44.7212H38.812V48.9041H25.7444V19.9553Z" fill="#4687C6"/>
<path d="M101.462 19.9553H114.53V24.0139H109.774V32.2554H114.53V36.4383H109.774V44.7212H114.53V48.9041H101.462V19.9553Z" fill="#4687C6"/>
<path d="M54.2782 48.9041H45.9248V24.0139H41.0451V19.9553H59.0752V24.0139H54.2782V48.9041Z" fill="#4687C6"/>
<path d="M94.4737 48.9041H86.1203V24.0139H81.2406V19.9553H99.2707V24.0139H94.4737V48.9041Z" fill="#4687C6"/>
<defs>
<linearGradient id="paint0_linear" x1="80" y1="62.1567" x2="80" y2="51.1115" gradientUnits="userSpaceOnUse">
<stop stop-color="#003A62"/>
<stop offset="0.27" stop-color="#00375E"/>
<stop offset="0.54" stop-color="#003052"/>
<stop offset="0.82" stop-color="#00243D"/>
<stop offset="1" stop-color="#00192C"/>
</linearGradient>
</defs>
</svg>
