<svg width="160" height="80" viewBox="0 0 160 80" fill="none" xmlns="http://www.w3.org/2000/svg">
<g clip-path="url(#clip0_7053_8)">
<path d="M160 11H0V46.7452H160V11Z" fill="#FF4100"/>
<path d="M30.2389 27.116H15.6595V24.9996H30.2389C31.1697 24.9996 31.8354 25.2693 31.8354 26.0492C31.8354 26.8292 31.1697 27.116 30.2389 27.116ZM33.2668 28.2631C35.2402 28.1369 36.3359 26.8866 36.3359 25.4585C36.3359 23.4684 34.2505 22.1665 30.9812 22.1665H11.2002V34.83H15.6595V29.6682H30.775C31.8001 29.6682 32.4303 29.9951 32.4303 30.8153C32.4303 31.6353 31.8001 31.9623 30.775 31.9623H17.2264L20.1423 34.8013H31.7293C34.9987 34.8013 37.084 33.4649 37.084 31.3601C37.084 29.4445 35.3521 28.3778 33.2727 28.2516L33.2668 28.2631ZM76.864 34.8185H81.3999V25.5043H91.6261V22.1607H76.8757L76.864 34.8185ZM66.6554 22.155V25.4986H75.3029L71.8628 22.155H66.6554ZM94.3417 29.9549H118.581V27.0242H94.3476L94.3417 29.9549ZM94.3417 34.8185H118.581V31.8877H94.3476L94.3417 34.8185ZM94.3417 25.0685H118.581V22.1378H94.3476L94.3417 25.0685ZM40.1001 29.9377H64.3403V27.007H40.1059L40.1001 29.9377ZM40.1001 34.8013H64.3403V31.8705H40.1059L40.1001 34.8013ZM40.1001 25.0513H64.3403V22.1206H40.1059L40.1001 25.0513ZM143.871 30.7866L144.331 30.6546C146.286 30.0295 147.582 28.6817 147.582 26.5999C147.582 23.5774 144.831 22.132 141.355 22.132H121.969V34.7955H126.47V25.3266H140.99C142.168 25.3266 142.999 25.6535 142.999 26.7375C142.999 27.8214 142.163 28.1483 140.99 28.1483H131.058L128.031 31.0963H138.752L142.575 34.8242H148L143.871 30.7866Z" fill="black"/>
<path d="M160 46.7451H88.7998V68.9865H160V46.7451Z" fill="#28CCCC"/>
<path d="M104.753 52.3057H101.6V63.4264H112.247V60.9406H104.753V52.3057ZM114.762 63.4264H117.915V52.3057H114.762V63.4264ZM127.698 59.7925C127.54 60.1518 127.414 60.5241 127.319 60.9052H127.272C127.188 60.5219 127.064 60.1489 126.899 59.7925L123.416 52.3057H119.943L125.439 63.4264H129.219L134.702 52.3057H131.183L127.698 59.7925ZM139.837 61.1833V58.8159H147.627V56.7563H139.837V54.5191H147.894V52.3057H136.654V63.4264H148V61.1833H139.837Z" fill="white"/>
</g>
<defs>
<clipPath id="clip0_7053_8">
<rect width="160" height="57.9866" fill="white" transform="translate(0 11)"/>
</clipPath>
</defs>
</svg>
