<svg width="160" height="80" viewBox="0 0 160 80" fill="none" xmlns="http://www.w3.org/2000/svg">
<path d="M4.431 54.3173C4.38906 55.1241 4.40431 55.7348 4.31282 56.3305C4.1527 57.3635 3.43982 57.9366 2.49439 57.8386C1.54896 57.7405 1.04193 57.1486 1 56.2023C1 55.8253 1 55.4483 1 55.0713C1 44.6532 1 34.2326 1 23.8094C1 23.3721 1 22.931 1.02287 22.5087C1.08387 21.6265 1.54134 21.0949 2.44483 21.0271C2.82639 20.9781 3.21313 21.065 3.53582 21.2722C3.85852 21.4794 4.09611 21.7935 4.20608 22.1581C4.32681 22.6449 4.368 23.1477 4.32807 23.6473C4.32807 26.5352 4.32807 29.4231 4.32807 32.3186C4.32807 32.7936 4.37381 33.2687 4.40431 33.8493C4.61721 33.7813 4.8208 33.6876 5.01045 33.5703C11.0604 28.0093 19.8133 29.9924 22.6991 37.7551C24.468 42.513 24.407 47.384 21.9367 51.976C18.5057 58.3136 10.5992 59.6332 5.14007 54.8413C4.96852 54.7018 4.77028 54.5774 4.431 54.3173ZM4.33569 43.5988C4.20989 47.7686 4.40812 48.6168 5.87964 51.1127C8.95229 56.3154 16.1726 56.3117 19.0318 51.026C21.5364 46.4151 21.5021 41.5743 18.9899 36.9785C16.2108 31.8926 9.12002 31.8285 5.98638 36.7221C4.65899 38.761 4.07654 41.1875 4.33569 43.5988Z" fill="white"/>
<path d="M32.7977 44.8951C33.0227 48.3222 33.9185 51.2478 36.4537 53.4231C38.8325 55.4665 43.0564 55.4138 45.3781 53.212C46.4493 52.1941 47.2041 50.8406 48.0466 49.6002C48.729 48.6011 49.5715 48.2392 50.4064 48.6841C51.1688 49.0611 51.3785 49.9169 50.902 50.9914C49.1407 54.9576 46.0185 57.2008 41.7031 57.6306C37.6393 58.0528 34.4561 56.394 32.1497 53.0461C28.5547 47.8132 28.894 39.0213 32.9121 34.1088C33.8507 32.9789 35.0295 32.0674 36.3646 31.4389C37.6997 30.8105 39.1584 30.4806 40.6369 30.4727C42.1155 30.4648 43.5777 30.779 44.9196 31.3931C46.2615 32.0072 47.4502 32.9061 48.4011 34.0258C50.78 36.8647 51.5882 40.2315 51.7826 43.8282C51.8474 45.0346 51.0468 44.9177 50.2577 44.9177H32.7977V44.8951ZM48.3745 42.0901C47.8674 36.5481 44.4593 32.8307 40.2659 33.1361C36.2287 33.4415 32.9083 37.5094 33.076 42.0901H48.3745Z" fill="white"/>
<path d="M133.059 43.3984C132.899 47.504 132.251 50.4786 130.391 53.0763C129.282 54.6547 127.779 55.9224 126.028 56.7562C124.278 57.59 122.338 57.9613 120.399 57.8342C118.461 57.707 116.588 57.0857 114.964 56.0306C113.34 54.9755 112.019 53.5226 111.131 51.8133C108.497 46.8518 108.562 41.6339 111.051 36.6159C113.338 32.0427 117.303 30.2632 122.351 30.6666C127.306 31.0625 130.356 33.9052 131.973 38.3011C132.67 40.2277 132.838 42.3126 133.059 43.3984ZM129.861 44.1524C129.861 41.1061 129.178 38.6744 127.752 36.6687C124.52 32.1106 117.62 32.088 114.455 36.6234C111.699 40.5783 111.65 47.4588 114.353 51.4777C115.081 52.5647 116.067 53.4588 117.225 54.0822C118.384 54.7056 119.678 55.0393 120.997 55.0542C122.315 55.069 123.617 54.7646 124.79 54.1675C125.962 53.5704 126.969 52.6988 127.722 51.6285C129.231 49.4299 129.979 46.8068 129.853 44.1524H129.861Z" fill="white"/>
<path d="M159.97 55.4551C159.97 49.6114 159.989 43.7677 159.97 37.9241C159.991 36.3064 159.459 34.7291 158.458 33.4489C157.458 32.1688 156.049 31.2612 154.461 30.8739C150.671 30.0068 147.134 30.4969 144.248 33.3924C144.034 33.6035 143.802 33.7958 143.234 34.3047C142.998 33.2981 142.994 32.5705 142.658 32.0427C142.323 31.5148 141.686 30.9682 141.133 30.9116C140.318 30.8362 139.788 31.5035 139.704 32.3669C139.673 32.6798 139.704 32.9965 139.704 33.3094C139.704 40.5983 139.704 47.8872 139.704 55.1761C139.704 55.2553 139.704 55.3383 139.704 55.425C139.752 55.7259 139.784 56.0292 139.799 56.3336C140.154 56.8652 140.634 57.5739 141.122 57.6267C141.61 57.6795 142.296 57.0348 142.647 56.5259C142.925 56.1111 142.876 55.4438 142.876 54.8896C142.876 50.0525 142.876 45.2117 142.895 40.3746C142.895 39.7036 142.929 38.9307 143.276 38.3878C144.85 35.7487 146.951 33.8222 150.191 33.3057C154.423 32.6346 156.912 34.6365 156.916 38.9043C156.916 44.1825 156.916 49.4606 156.916 54.7388C156.916 55.3571 156.882 56.0584 157.152 56.5711C157.423 57.0838 158.063 57.6757 158.445 57.6041C158.986 57.5023 159.466 56.8916 159.878 56.4052C159.909 56.1978 159.943 55.9867 159.981 55.7794C159.992 55.6851 159.97 55.5532 159.97 55.4551Z" fill="white"/>
<path d="M66.8637 55.0405L66.5015 54.9651H66.4177H66.2461L66.1889 54.9311C66.086 54.9311 65.9831 54.9311 65.884 54.9311C63.2154 54.8369 62.8342 54.4259 62.8342 51.7982C62.8342 45.9545 62.8342 40.112 62.8342 34.2709C62.8342 33.7204 62.8837 33.1662 62.9257 32.3632C64.1227 32.3632 65.2511 32.3971 66.3567 32.3632C67.4622 32.3292 67.9654 31.8693 67.9349 30.9418C67.9044 30.0144 67.2869 29.6713 66.41 29.6751C65.2664 29.6751 64.1456 29.6751 62.8151 29.6751C62.8151 28.6722 62.8151 27.9823 62.8151 27.2924C62.8151 25.8484 62.8532 24.4007 62.8151 22.9567C62.7846 21.7616 62.1175 21.0717 61.153 21.0717C60.1885 21.0717 59.7082 21.754 59.6586 22.8851C59.6357 23.3224 59.6586 23.7635 59.6586 24.2046C59.6586 25.954 59.6586 27.7033 59.6586 29.6675C58.8962 29.6675 58.2862 29.6977 57.6686 29.6675C56.6965 29.6072 56.0332 29.9352 55.9569 30.9645C55.8921 31.8391 56.5402 32.3142 57.7563 32.3707C58.3663 32.3971 58.9762 32.4423 59.6624 32.4801C59.6624 37.581 59.6624 42.4822 59.6624 47.3796C59.6624 49.3287 59.5786 51.2779 59.6853 53.2195C59.8721 56.6729 64.1342 59.0971 67.1877 57.4835C67.4214 57.3102 67.6117 57.0862 67.7439 56.8286C67.8761 56.5711 67.9467 56.2869 67.9502 55.9981C67.9464 55.6663 67.3097 55.3082 66.8637 55.0405Z" fill="white"/>
<path d="M94.7806 41.0383L100.118 33.6451C100.709 32.8307 101.261 31.9787 101.883 31.1945C102.699 30.1766 103.541 29.9692 104.33 30.5008C105.253 31.1229 105.409 31.9862 104.628 33.1097C102.866 35.6395 101.04 38.1315 99.2409 40.65C98.6538 41.4681 98.1201 42.3314 97.4606 43.0892C96.8011 43.847 96.9688 44.3522 97.4987 45.0648C99.5993 47.8961 101.643 50.7727 103.705 53.6305C103.999 54.0377 104.307 54.4411 104.57 54.8671C105.279 55.9981 105.165 56.8577 104.235 57.5062C103.411 58.0717 102.622 57.8832 101.829 56.8163C100.587 55.1536 99.382 53.4608 98.1735 51.7718C93.853 45.7396 89.5324 39.6986 85.2119 33.6488C84.0683 32.0428 84.0683 31.3227 85.0861 30.5913C86.104 29.8599 86.8474 30.2143 87.9796 31.7675C89.7866 34.2671 91.586 36.7743 93.393 39.2739C93.7666 39.7602 94.163 40.2277 94.7806 41.0383Z" fill="#FE620E"/>
<path d="M74.9074 43.9977C74.9074 40.2954 74.9074 36.5944 74.9074 32.8947C74.8869 32.5179 74.8869 32.1404 74.9074 31.7636C74.9308 31.3502 75.1133 30.9613 75.4174 30.6767C75.7215 30.392 76.1242 30.2333 76.5429 30.233C77.5302 30.1462 78.0449 30.7872 78.2698 31.6505C78.3322 32.0242 78.3475 32.4041 78.3156 32.7816C78.3156 40.3218 78.3156 47.8507 78.3156 55.3684C78.345 55.7464 78.3245 56.1266 78.2546 56.4994C78.0411 57.2723 77.6141 57.8529 76.6801 57.8491C76.2633 57.8827 75.8498 57.7529 75.5288 57.4877C75.2079 57.2225 75.0053 56.8432 74.9646 56.4316C74.8959 55.9319 74.8729 55.4272 74.896 54.9235C74.9011 51.2916 74.9049 47.6497 74.9074 43.9977Z" fill="white"/>
<path d="M91.7308 47.8207C90.8807 47.2627 90.1602 47.5229 89.5616 48.1977C89.1656 48.681 88.7953 49.1844 88.4523 49.7058C87.2019 51.5041 85.9095 53.2761 84.7468 55.1272C84.6155 55.3875 84.5421 55.6726 84.5316 55.9633C84.5211 56.254 84.5737 56.5435 84.6858 56.8125C84.9206 57.174 85.2464 57.4689 85.6313 57.6683C85.6815 57.6849 85.7301 57.7064 85.7761 57.7324C85.8175 57.7411 85.8582 57.7524 85.8981 57.7663H85.982C86.1381 57.7757 86.2947 57.7757 86.4509 57.7663C86.5026 57.7432 86.5562 57.7243 86.611 57.7097C87.0331 57.3896 87.4168 57.0227 87.7547 56.6164C88.8678 55.1084 89.9047 53.54 90.9684 51.9905C91.4189 51.3854 91.8351 50.7561 92.215 50.1054C92.7487 49.1402 92.5428 48.3523 91.7308 47.8207Z" fill="#FE6511"/>
<path d="M78.8569 23.5184C78.8609 23.8446 78.7975 24.1682 78.6706 24.4693C78.5438 24.7704 78.3562 25.0428 78.1192 25.2697C77.8822 25.4966 77.601 25.6733 77.2926 25.789C76.9842 25.9048 76.6551 25.957 76.3256 25.9426C76.0098 25.9471 75.6964 25.8876 75.4048 25.7676C75.1132 25.6476 74.8496 25.4697 74.6302 25.245C74.4108 25.0203 74.2404 24.7535 74.1294 24.4611C74.0184 24.1686 73.9692 23.8568 73.9849 23.5448C73.9582 22.0594 74.957 21 76.3904 21C76.7209 21.0009 77.0478 21.0672 77.3519 21.1951C77.656 21.3229 77.9311 21.5097 78.161 21.7445C78.3909 21.9792 78.571 22.2572 78.6905 22.5618C78.81 22.8665 78.8666 23.1918 78.8569 23.5184Z" fill="white"/>
</svg>
