<svg width="161" height="80" viewBox="0 0 161 80" fill="none" xmlns="http://www.w3.org/2000/svg">
<path d="M12.6797 27C18.2353 27 23.0065 30.5948 24.7059 35.6274C21.7647 34.5817 18.6928 33.9935 15.4248 34.0588L15.4902 35.5621C18.8889 35.4967 22.0915 36.1503 25.1634 37.2614C25.2941 38.0458 25.3595 38.8301 25.3595 39.6797C25.3595 46.6732 19.6732 52.3595 12.6797 52.3595C11.8301 52.3595 10.9804 52.2941 10.1961 52.098C12.6144 50.0719 14.6405 47.719 16.2091 44.8431L14.902 44.1242C13.268 47.1307 11.1111 49.549 8.56209 51.6405C3.59477 49.9412 0 45.2353 0 39.6797C0 36.4771 1.17647 33.5359 3.13725 31.3137C3.72549 34.3856 4.70588 37.3268 6.40523 40.1373L7.71242 39.3529C5.94771 36.4118 4.96732 33.3399 4.37908 30.0719C6.60131 28.1765 9.54248 27 12.6797 27Z" fill="#09A2DD"/>
<path d="M34.8366 46.9999H32.0915V32.3594H34.8366V37.4574C34.8366 37.1306 34.9673 36.9345 35.1634 36.6731C35.3595 36.477 35.6209 36.3463 35.8824 36.3463H41.7647C42.0915 36.3463 42.2876 36.477 42.549 36.6731C42.7451 36.8692 42.8758 37.1306 42.8758 37.3921V45.8888C42.8758 46.2156 42.7451 46.4117 42.549 46.6731C42.3529 46.8692 42.0915 46.9999 41.7647 46.9999H35.8824C35.6209 46.9999 35.3595 46.8692 35.1634 46.6731C34.9673 46.477 34.8366 46.2156 34.8366 45.8888V46.9999ZM34.8366 44.3202H40.0654V39.026H35.8824C35.6209 39.026 35.3595 39.1568 35.1634 39.3528C34.9673 39.5489 34.8366 39.8104 34.8366 40.0718V44.3202Z" fill="white"/>
<path d="M45.3595 37.3921C45.3595 37.0653 45.4902 36.8692 45.6863 36.6078C45.8823 36.4117 46.1438 36.281 46.4706 36.281H55.098C55.3595 36.281 55.6209 36.4117 55.817 36.6078C56.0131 36.8039 56.1438 37.0653 56.1438 37.3921V41.9019C56.1438 42.1634 56.0131 42.4248 55.817 42.6209C55.6209 42.817 55.3595 42.9477 55.0327 42.9477H48.1046V44.2549H56.0784V46.9346H46.4052C46.0784 46.9346 45.8823 46.8039 45.6209 46.6078C45.4248 46.4117 45.2941 46.1503 45.2941 45.8235V37.3921H45.3595ZM48.1046 39.0261V40.3987H53.3333V39.0261H48.1046Z" fill="white"/>
<path d="M61.8954 32.3594V36.3463H63.7908V39.026H61.8954V44.3202H63.7908V46.9999H60.1961C59.9346 46.9999 59.6732 46.8692 59.4771 46.6731C59.281 46.477 59.1503 46.2156 59.1503 45.9541V39.026H57.8431V36.3463H59.1503V32.3594H61.8954Z" fill="white"/>
<path d="M66.9281 46.9998C66.6013 46.9998 66.4052 46.8691 66.1438 46.673C65.9477 46.4769 65.817 46.2155 65.817 45.8887V43.6011H68.5621V44.2547H73.7908V42.9475H66.8627C66.5359 42.9475 66.3399 42.8168 66.0784 42.6207C65.8824 42.4246 65.7516 42.1632 65.7516 41.9017V37.3919C65.7516 37.1305 65.8824 36.8691 66.0784 36.673C66.2745 36.4769 66.5359 36.3462 66.8627 36.3462H68.5621H75.4902C75.817 36.3462 76.0131 36.4769 76.2745 36.673C76.4706 36.8691 76.6013 37.1305 76.6013 37.3919V39.6795H73.8562V39.0259H68.6274V40.3985H75.5555C75.8823 40.3985 76.0784 40.5292 76.3399 40.7253C76.5359 40.9214 76.6667 41.1828 76.6667 41.4442V46.0194C76.6667 46.2808 76.5359 46.5423 76.3399 46.7383C76.1438 46.9344 75.8823 47.0651 75.5555 47.0651H66.9281V46.9998Z" fill="white"/>
<path d="M89.8693 45.954C89.8693 46.2808 89.7386 46.4769 89.5425 46.7383C89.3464 46.9344 89.085 47.0651 88.7582 47.0651H80.1307C79.8039 47.0651 79.6078 46.9344 79.3464 46.7383C79.1503 46.5423 79.0196 46.2808 79.0196 45.954V37.4573C79.0196 37.1305 79.1503 36.9344 79.3464 36.673C79.5425 36.4769 79.8039 36.3462 80.1307 36.3462H88.7582C89.085 36.3462 89.281 36.4769 89.5425 36.673C89.7386 36.8691 89.8693 37.1305 89.8693 37.3919V45.954ZM87.1242 39.0259H81.8954V44.32H87.1242V39.0259Z" fill="white"/>
<path d="M95.1634 32.3594V44.3202H96.1438V46.9999H93.5294C93.2026 46.9999 93.0065 46.8692 92.7451 46.6731C92.549 46.477 92.4183 46.2156 92.4183 45.9541V32.3594H95.1634Z" fill="white"/>
<path d="M105.752 36.3462H108.497V46.9998H105.752V45.954C105.752 46.2808 105.621 46.4769 105.425 46.7383C105.229 46.9344 104.967 47.0651 104.641 47.0651H99.6732C99.3464 47.0651 99.1503 46.9344 98.8889 46.7383C98.6928 46.5423 98.5621 46.2808 98.5621 45.954V36.3462H101.307V44.32H104.575C104.902 44.32 105.098 44.1893 105.359 43.9932C105.556 43.7972 105.686 43.5357 105.686 43.2089V36.3462H105.752Z" fill="white"/>
<path d="M114.314 32.3594V36.3463H116.209V39.026H114.314V44.3202H116.209V46.9999H112.614C112.353 46.9999 112.091 46.8692 111.895 46.6731C111.699 46.477 111.569 46.2156 111.569 45.9541V39.026H110.261V36.3463H111.569V32.3594H114.314Z" fill="white"/>
<path d="M118.301 32.6208C118.301 32.4247 118.366 32.3594 118.562 32.3594H120.784C120.98 32.3594 121.046 32.4247 121.046 32.6208V34.7777C121.046 34.9738 120.98 35.0391 120.784 35.0391H118.562C118.366 35.0391 118.301 34.9738 118.301 34.7777V32.6208ZM121.046 46.9999H118.301V36.3463H121.046V46.9999Z" fill="white"/>
<path d="M134.314 45.954C134.314 46.2808 134.183 46.4769 133.987 46.7383C133.791 46.9344 133.529 47.0651 133.203 47.0651H124.575C124.248 47.0651 124.052 46.9344 123.791 46.7383C123.595 46.5423 123.464 46.2808 123.464 45.954V37.4573C123.464 37.1305 123.595 36.9344 123.791 36.673C123.987 36.4769 124.248 36.3462 124.575 36.3462H133.203C133.529 36.3462 133.725 36.4769 133.987 36.673C134.183 36.8691 134.314 37.1305 134.314 37.3919V45.954ZM131.569 39.0259H126.34V44.32H131.569V39.0259Z" fill="white"/>
<path d="M139.673 46.9998H136.928V36.3462H139.673V37.3919C139.673 37.1305 139.804 36.8691 140 36.673C140.196 36.4769 140.458 36.3462 140.719 36.3462H145.686C146.013 36.3462 146.209 36.4769 146.471 36.673C146.667 36.8691 146.797 37.1305 146.797 37.3919V46.9998H144.052V39.0259H140.784C140.523 39.0259 140.261 39.1566 140.065 39.3527C139.869 39.5488 139.739 39.8102 139.739 40.137V46.9998H139.673Z" fill="white"/>
<path d="M150.327 46.9998C150 46.9998 149.804 46.8691 149.542 46.673C149.346 46.4769 149.216 46.2155 149.216 45.8887V43.6011H151.961V44.2547H157.19V42.9475H150.327C150 42.9475 149.804 42.8168 149.542 42.6207C149.346 42.4246 149.216 42.1632 149.216 41.9017V37.3919C149.216 37.1305 149.346 36.8691 149.542 36.673C149.739 36.4769 150 36.3462 150.327 36.3462H152.026H158.954C159.281 36.3462 159.477 36.4769 159.739 36.673C159.935 36.8691 160.065 37.1305 160.065 37.3919V39.6795H157.32V39.0259H152.092V40.3985H159.02C159.346 40.3985 159.543 40.5292 159.804 40.7253C160 40.9214 160.131 41.1828 160.131 41.4442V46.0194C160.131 46.2808 160 46.5423 159.804 46.7383C159.608 46.9344 159.346 47.0651 159.02 47.0651H150.327V46.9998Z" fill="white"/>
</svg>
