<svg width="160" height="80" viewBox="0 0 160 80" fill="none" xmlns="http://www.w3.org/2000/svg">
<path d="M16.6899 41.098C21.7449 41.098 26.7619 41.098 31.7789 41.098C32.349 41.9475 32.7291 42.8934 32.8811 43.8973C32.9952 44.5537 33.0332 45.2487 33.0332 45.9243C33.0522 49.7275 33.0902 53.5306 33.0522 57.3144C33.0332 60.5191 31.5509 62.9516 28.8903 64.6311C27.7311 65.3647 26.4389 65.6929 25.0706 65.7122C22.353 65.7315 19.6355 65.7122 16.899 65.7122C16.823 65.7122 16.7469 65.6929 16.6519 65.6929C16.6899 57.5075 16.6899 49.3221 16.6899 41.098ZM22.163 42.8355C22.163 48.6271 22.163 54.3607 22.163 60.133C23.1322 60.133 24.0634 60.133 25.0136 60.133C25.6407 60.133 26.1538 59.8627 26.6099 59.4573C27.237 58.8782 27.5411 58.1446 27.5411 57.2758C27.5411 53.5692 27.5791 49.8626 27.5791 46.156C27.5791 45.8085 27.5601 45.4803 27.5221 45.1328C27.351 43.8587 26.2678 42.8741 24.9946 42.8355C24.5195 42.8162 24.0444 42.8355 23.5883 42.8355C23.1322 42.8355 22.6571 42.8355 22.163 42.8355Z" fill="white"/>
<path d="M16.6899 38.9549C16.6899 30.7309 16.6899 22.5647 16.6899 14.36C16.8039 14.3407 16.8989 14.3407 17.0129 14.3407C19.4644 14.3407 21.9159 14.3407 24.3484 14.3407C28.6813 14.3407 31.3798 17.5261 32.1399 20.0937C32.425 21.0203 32.539 21.947 32.539 22.9122C32.539 26.754 32.539 30.5957 32.539 34.4375C32.539 35.9626 32.1589 37.3912 31.3798 38.7039C31.3418 38.7812 31.2848 38.8584 31.2278 38.9549C26.4008 38.9549 21.5548 38.9549 16.6899 38.9549ZM22.106 37.2174C22.9041 37.2174 23.6453 37.2174 24.3864 37.2174C25.2796 37.1981 25.9827 36.7927 26.5148 36.0591C26.9139 35.5379 27.0279 34.9201 27.0279 34.2637C27.0089 31.7154 27.0089 29.1671 27.0089 26.6188C27.0089 25.3061 27.0089 23.9933 27.0089 22.6806C26.9899 21.0589 25.7167 19.862 24.2534 19.9199C23.6643 19.9392 23.0751 19.9199 22.467 19.9199C22.353 19.9199 22.239 19.9392 22.106 19.9585C22.106 25.7115 22.106 31.4452 22.106 37.2174Z" fill="white"/>
<path d="M93.9782 41.0399C95.8216 41.0399 97.5889 41.0399 99.3943 41.0399C99.3943 41.2523 99.3943 41.426 99.3943 41.5998C99.3943 46.735 99.3753 51.8509 99.3753 56.9861C99.3753 57.3722 99.4133 57.7583 99.4893 58.1251C99.7173 59.1289 100.725 60.2293 102.321 60.1135C103.556 60.0363 104.62 59.0517 104.81 57.7969C104.848 57.5266 104.867 57.237 104.867 56.9668C104.867 51.8509 104.867 46.7543 104.867 41.6384C104.867 41.4453 104.867 41.2716 104.867 41.0592C106.692 41.0592 108.459 41.0592 110.302 41.0592C110.302 41.2137 110.321 41.3681 110.321 41.5225C110.321 45.8855 110.321 50.2678 110.321 54.6308C110.321 55.7119 110.321 56.793 110.283 57.8741C110.131 61.6772 107.148 65.0557 103.442 65.6348C99.1662 66.3105 95.1754 63.6078 94.1682 59.3606C93.9972 58.6077 93.9402 57.8355 93.9402 57.0633C93.9592 51.9281 93.9592 46.7736 93.9592 41.6384C93.9782 41.4453 93.9782 41.2523 93.9782 41.0399Z" fill="#FAE309"/>
<path d="M99.3943 38.8582C97.5699 38.8582 95.8026 38.8582 93.9972 38.8582C93.9972 38.7231 93.9782 38.5879 93.9782 38.4528C93.9782 34.6304 93.9782 30.7886 93.9782 26.9662C93.9782 25.5183 93.9782 24.0704 93.9972 22.6032C94.0732 19.3599 95.5555 16.9274 98.2731 15.3251C101.2 13.6069 105.476 13.9544 108.212 17.0433C109.656 18.6842 110.34 20.5954 110.321 22.7962C110.302 27.9507 110.302 33.1052 110.302 38.2791C110.302 38.4528 110.302 38.6459 110.302 38.8582C108.478 38.8582 106.692 38.8582 104.848 38.8582C104.848 38.6652 104.848 38.4721 104.848 38.2984C104.848 33.2211 104.848 28.1438 104.848 23.0472C104.848 22.7383 104.829 22.4294 104.772 22.1206C104.506 20.692 103.309 19.8039 101.808 19.9198C100.497 20.0356 99.3943 21.2325 99.3943 22.6032C99.3753 24.6109 99.3943 26.6187 99.3753 28.6264C99.3753 31.8504 99.3753 35.0744 99.3753 38.3177C99.3943 38.5107 99.3943 38.6652 99.3943 38.8582Z" fill="#FAE309"/>
<path d="M79.4213 41.0206C79.5354 41.0206 79.6494 41.0206 79.7634 41.0206C82.4619 41.0206 85.1415 41.0206 87.84 41.0206C88.1441 41.0206 88.3341 41.0979 88.5241 41.3488C89.5884 42.7967 90.2535 44.4184 90.5766 46.1944C90.7666 47.2948 90.8426 48.3952 90.8236 49.5149C90.8046 51.6385 90.8236 53.7428 90.8046 55.8664C90.7856 56.8123 90.7856 57.7583 90.6716 58.6849C90.2535 62.102 87.1559 65.3259 83.4881 65.6927C78.9652 66.1368 75.6016 62.99 74.7464 59.7274C74.5374 58.9552 74.4234 58.1637 74.4424 57.3529C74.4614 56.1753 74.4424 54.9976 74.4614 53.8393C74.4614 53.7235 74.4804 53.6077 74.4994 53.4532C76.3047 53.4532 78.0721 53.4532 79.8964 53.4532C79.8964 53.627 79.9154 53.7814 79.9154 53.9358C79.8964 55.0169 79.8964 56.098 79.8774 57.1791C79.8584 58.0093 80.0865 58.7428 80.6756 59.322C81.4737 60.1135 82.4239 60.3259 83.4501 59.9784C84.4763 59.6502 85.1225 58.8973 85.3125 57.7776C85.3505 57.6038 85.3695 57.4108 85.3695 57.2177C85.3505 54.9011 85.3695 52.5845 85.3315 50.2678C85.2935 48.2408 84.7234 46.3682 83.4691 44.7659C83.0511 44.2446 82.557 43.762 82.0629 43.318C81.2837 42.623 80.4475 41.9473 79.6494 41.2716C79.5734 41.2137 79.4784 41.1558 79.4023 41.0979C79.3833 41.0979 79.4023 41.0592 79.4213 41.0206Z" fill="#FAE309"/>
<path d="M90.8806 26.5992C89.0753 26.5992 87.2889 26.5992 85.4835 26.5992C85.4835 26.4254 85.4645 26.271 85.4645 26.1165C85.4645 24.9968 85.4835 23.8964 85.4645 22.7767C85.4645 21.9466 85.1985 21.1937 84.5714 20.6145C83.7922 19.9002 82.861 19.7265 81.8918 20.0547C80.9036 20.3829 80.2765 21.1165 80.0675 22.1783C80.0295 22.4099 80.0105 22.6416 80.0105 22.8732C79.9915 24.9196 79.9915 26.9467 79.9915 28.993C79.9915 30.4988 80.2195 31.9467 80.8086 33.3174C81.3597 34.5915 82.1769 35.6919 83.2221 36.58C84.0773 37.3136 84.9514 38.0472 85.8636 38.8194C85.7116 38.858 85.6166 38.8773 85.5216 38.8773C82.785 38.8773 80.0485 38.8773 77.3119 38.8773C77.0459 38.8773 76.8938 38.7615 76.7608 38.5684C75.7156 37.1591 75.0885 35.5568 74.7844 33.8386C74.5944 32.7382 74.5184 31.6378 74.5374 30.5181C74.5564 28.3752 74.5374 26.2324 74.5564 24.0895C74.5754 23.1628 74.5754 22.2362 74.6894 21.3288C75.0885 18.2014 77.806 14.9774 81.4167 14.4175C86.2437 13.6646 89.7024 16.9465 90.6146 20.3056C90.8236 21.0779 90.9376 21.8694 90.9186 22.6802C90.8996 23.8578 90.9186 25.0354 90.8996 26.1938C90.8996 26.3289 90.8806 26.464 90.8806 26.5992Z" fill="#FAE309"/>
<path d="M51.2007 41.0591C51.2007 41.6575 51.2007 42.2174 51.2007 42.8159C48.2931 42.8159 45.4235 42.8159 42.516 42.8159C42.516 48.5881 42.516 54.3218 42.516 60.1327C45.4045 60.1327 48.2931 60.1327 51.2007 60.1327C51.2007 62.0246 51.2007 63.8586 51.2007 65.7119C46.4687 65.7119 41.7748 65.7119 37.0999 65.7119C37.0049 65.3644 36.9669 42.1788 37.0619 41.0591C41.7368 41.0591 46.4497 41.0591 51.2007 41.0591Z" fill="white"/>
<path d="M37.043 38.8777C37.043 30.6923 37.043 22.5261 37.043 14.3407C41.756 14.3407 46.4499 14.3407 51.1628 14.3407C51.1628 16.2133 51.1628 18.0473 51.1628 19.9199C48.2743 19.9199 45.4047 19.9199 42.4591 19.9199C42.4401 25.6922 42.4591 31.4259 42.4401 37.1981C45.3667 37.1981 48.2743 37.1981 51.2198 37.1981C51.2198 37.7773 51.2198 38.3178 51.2198 38.8777C46.4879 38.8777 41.775 38.8777 37.043 38.8777Z" fill="white"/>
<path d="M114.027 14.3407C118.797 14.3407 123.529 14.3407 128.261 14.3407C128.356 14.6882 128.356 19.3794 128.261 19.9199C125.353 19.9199 122.446 19.9199 119.519 19.9199C119.519 25.6922 119.519 31.4065 119.519 37.1981C122.427 37.2174 125.334 37.1981 128.299 37.1981C128.356 37.758 128.337 38.2792 128.318 38.8391C123.548 38.8391 118.797 38.8391 114.027 38.8391C114.027 30.6922 114.027 22.5454 114.027 14.3407Z" fill="#FAE309"/>
<path d="M141.336 38.8777C139.454 38.8777 137.668 38.8777 135.824 38.8777C135.824 32.5649 135.824 26.2713 135.824 19.9392C133.981 19.9392 132.195 19.9392 130.427 19.9392C130.313 19.5724 130.313 14.8619 130.408 14.3407C135.672 14.3407 140.937 14.3407 146.239 14.3407C146.239 16.1747 146.239 18.0087 146.239 19.8813C145.82 19.9392 145.421 19.9006 145.022 19.9199C144.604 19.9199 144.205 19.9199 143.787 19.9199C143.388 19.9199 142.989 19.9199 142.609 19.9199C142.21 19.9199 141.792 19.9199 141.336 19.9199C141.336 26.2713 141.336 32.5649 141.336 38.8777Z" fill="#FAE309"/>
<path d="M55.0396 19.9584C55.0396 18.0665 55.0396 16.2325 55.0396 14.3599C60.3227 14.3599 65.5677 14.3599 70.8507 14.3599C70.8507 16.1746 70.8507 18.0086 70.8507 19.9005C69.2354 19.9391 67.6201 19.9005 65.9668 19.9391C65.9668 26.2519 65.9668 32.5454 65.9668 38.8775C64.1234 38.8775 62.3181 38.8775 60.4937 38.8775C60.4937 32.584 60.4937 26.2905 60.4937 19.9584C58.6503 19.9584 56.864 19.9584 55.0396 19.9584Z" fill="white"/>
<path d="M119.5 65.6926C117.638 65.6926 115.852 65.6926 114.065 65.6926C114.046 65.6733 114.046 65.6733 114.027 65.654C114.008 65.6347 114.008 65.6347 114.008 65.6154C114.008 65.4803 113.989 65.3451 113.989 65.21C113.989 57.1597 113.989 49.1287 113.989 41.0784C114.35 40.9819 127.577 40.9433 128.299 41.0398C128.299 41.5997 128.299 42.1788 128.299 42.7966C125.391 42.7966 122.484 42.7966 119.538 42.7966C119.519 46.6576 119.5 50.4608 119.5 54.2639C119.5 58.0863 119.5 61.8895 119.5 65.6926Z" fill="#FAE309"/>
<path d="M135.844 65.6927C135.844 57.4687 135.844 49.2833 135.844 41.0978C136.167 41.0013 140.594 40.9627 141.279 41.0592C141.279 49.2639 141.279 57.4494 141.279 65.6927C139.473 65.6927 137.687 65.6927 135.844 65.6927Z" fill="#FAE309"/>
<path d="M60.4747 65.6926C60.4747 57.4686 60.4747 49.2831 60.4747 41.0591C62.299 41.0591 64.0854 41.0591 65.9097 41.0591C65.9097 49.2638 65.9097 57.4686 65.9097 65.654C65.5867 65.7312 61.3488 65.7698 60.4747 65.6926Z" fill="white"/>
<path d="M157.945 49.6303C154.733 46.4064 151.56 43.221 148.367 40.0163C151.56 36.8117 154.733 33.6263 157.907 30.4409C158.002 30.7884 158.04 48.7809 157.945 49.6303Z" fill="#FAE309"/>
<path d="M2 49.6496C2 43.1823 2 36.8309 2 30.3829C5.23064 33.6262 8.40427 36.8116 11.5969 40.0163C8.40427 43.2402 5.23064 46.4063 2 49.6496Z" fill="#FAE309"/>
</svg>
