<svg width="160" height="80" viewBox="0 0 160 80" fill="none" xmlns="http://www.w3.org/2000/svg">
<path d="M50.1633 62.4478C49.5962 63.3774 49.0059 64.2939 48.4702 65.2351C48.1607 65.811 47.8906 66.407 47.6617 67.0189C47.4964 67.4534 47.3443 67.9682 47.7494 68.3191C48.1544 68.67 48.6719 68.4716 49.0721 68.2486C50.0609 67.7165 51.0192 67.1303 51.9423 66.4926C54.4902 64.6661 56.7735 62.5297 59.0188 60.3556C60.0836 59.3243 61.1269 58.2734 62.1768 57.2273C62.2455 57.1443 62.3059 57.0548 62.357 56.9601C62.2409 56.9263 62.1219 56.9033 62.0015 56.8912C61.4774 56.8912 60.9549 56.8912 60.4308 56.8912H36.8701C35.8467 56.8912 36.0103 56.9666 36.0087 56.0058C36.0087 48.9567 36.0087 41.9065 36.0087 34.8552C36.0087 34.0485 35.8698 34.1108 36.7478 34.1108C47.5498 34.1108 58.3519 34.1108 69.154 34.1108C69.8969 34.1279 70.6362 34.0055 71.3332 33.7501C72.1599 33.4336 72.6228 32.8401 72.6559 31.6006C72.6741 30.7054 72.3004 29.9381 71.3629 29.6233C70.8694 29.4638 70.3626 29.348 69.8485 29.2773C69.4637 29.2416 69.0769 29.234 68.6911 29.2543H36.9412C36.7478 29.2543 36.556 29.2543 36.3625 29.2543C36.1972 29.2543 36.0897 29.2019 36.2088 29.0199C36.3278 28.8379 36.4237 28.7034 36.5394 28.5526C38.7737 25.6964 41.0069 22.8343 43.2389 19.9661C43.345 19.8118 43.49 19.6877 43.6593 19.606C43.8287 19.5244 44.0166 19.488 44.2045 19.5004C52.855 19.5201 61.5071 19.5004 70.1626 19.5365C72.8675 19.5496 75.5129 20.0284 77.9914 21.1663C79.9043 22.05 81.5065 23.3076 82.5349 25.1718C83.5831 27.0721 83.889 29.1068 83.5847 31.2546C83.3615 32.9367 82.6314 34.5128 81.4899 35.7766C80.8021 36.5472 79.9341 37.067 79.0098 37.4982L78.7899 37.6048C78.8643 37.6753 78.9272 37.7802 79.0148 37.813C80.1556 38.2223 81.1887 38.8813 82.0372 39.7411C82.4175 40.1281 82.434 40.1379 82.0636 40.5757C81.0038 41.83 79.949 43.0908 78.861 44.3221C75.9759 47.5865 73.0229 50.7903 69.9592 53.8924C66.588 57.3027 63.1407 60.6442 59.5512 63.8316C56.5189 66.5254 53.4337 69.1553 50.117 71.5032C49.2506 72.1164 48.2817 72.5902 47.3492 73.1116C46.9149 73.3512 46.4242 73.4723 45.9273 73.4625C45.3718 73.4625 45.0676 73.2313 44.8973 72.7001C44.7154 72.1312 44.8411 71.5721 44.9684 71.013C45.1992 70.1169 45.5413 69.2528 45.9868 68.4404C47.1089 66.2575 48.4635 64.2001 50.0277 62.3035L50.1633 62.4478ZM59.0916 42.1382H48.6752C48.4818 42.1382 48.29 42.1382 48.0966 42.1382C47.8618 42.1267 47.746 42.2022 47.7477 42.4661C47.7565 43.9407 47.7565 45.4163 47.7477 46.893C47.7477 47.1898 47.8783 47.2799 48.1478 47.2636C48.285 47.2554 48.4239 47.2636 48.5612 47.2636H68.8978C69.3108 47.2777 69.7244 47.2668 70.1361 47.2308C71.6688 47.0422 72.6162 46.5143 72.7898 44.9616C72.9254 43.7991 72.3566 42.7203 71.1282 42.4022C70.437 42.229 69.7263 42.1447 69.0135 42.1513L59.0916 42.1382Z" fill="#FEFEFE"/>
<path d="M99.434 12.2764C99.5394 12.1154 99.67 11.972 99.8209 11.8518C101.443 10.6041 102.946 9.31042 104.616 8.12008C105.34 7.60197 106.175 7.22979 106.983 6.83793C107.334 6.68538 107.707 6.58855 108.088 6.551C109.08 6.41819 109.377 7.25274 109.285 8.06925C109.138 9.1438 108.839 10.1925 108.397 11.1845C107.455 13.4455 106.263 15.5736 105.004 17.6723C104.655 18.2544 104.31 18.8397 103.963 19.4234C104.637 19.4529 105.312 19.507 105.986 19.507C111.718 19.5136 117.45 19.5136 123.182 19.507C123.375 19.507 123.567 19.507 123.76 19.507C123.841 19.514 123.921 19.526 124 19.5431C123.982 19.6381 123.95 19.7299 123.904 19.8152C123.311 20.5968 122.713 21.375 122.11 22.15C120.287 24.4946 118.462 26.8381 116.636 29.1806H106.077C103.356 29.1806 100.633 29.1806 97.9113 29.1806C97.6633 29.1806 97.359 29.0166 97.1623 29.3265C96.1791 30.6392 95.1953 31.9515 94.211 33.2631C94.0324 33.5025 93.8803 33.755 93.715 34.0026C94.0291 34.0305 94.3433 34.0829 94.6574 34.0829C103.503 34.0829 112.348 34.0829 121.193 34.0829C121.409 34.0829 121.627 34.1108 121.844 34.1239C121.749 34.3318 121.638 34.5324 121.513 34.724C119.44 37.3965 117.348 40.0576 115.292 42.7432C115.182 42.908 115.029 43.0406 114.85 43.1271C114.671 43.2136 114.472 43.2509 114.273 43.2351C109.424 43.2203 104.574 43.2253 99.7234 43.2253C97.8766 43.2253 96.0314 43.2253 94.1845 43.2253C93.6522 43.2253 93.6489 43.2253 93.6505 43.7761C93.6505 47.6019 93.6505 51.4276 93.6505 55.2533C93.6505 55.6353 93.6505 56.0189 93.6505 56.401C93.6422 56.8682 93.6373 56.8699 93.1347 56.8797C93.052 56.8797 92.9693 56.8797 92.8866 56.8797C85.3362 56.8797 77.7858 56.8797 70.2353 56.8797C70.0187 56.8797 69.8021 56.8502 69.5839 56.8338C69.6896 56.6294 69.8141 56.4351 69.9559 56.2534C71.0025 55.1336 72.0772 54.0416 73.1105 52.9103C74.7639 51.0953 76.4008 49.2606 78.0327 47.4259C79.2132 46.0994 80.3904 44.7681 81.5411 43.4171C83.0645 41.6321 84.5729 39.8346 86.0664 38.0245C87.4531 36.339 88.8204 34.6387 90.1685 32.9237C91.5044 31.2333 92.847 29.5462 94.1267 27.8131C95.9212 25.3822 97.6848 22.9283 99.4175 20.4514C100.995 18.1789 102.491 15.8425 103.691 13.334C103.993 12.668 104.257 11.9866 104.485 11.2927C104.555 11.0583 104.584 10.8137 104.571 10.5696C104.561 9.99085 104.217 9.7236 103.655 9.85804C102.873 10.045 102.197 10.4516 101.537 10.8926C100.839 11.3599 100.137 11.8223 99.4373 12.2863L99.434 12.2764Z" fill="#F9C203"/>
<path d="M93.1644 65.7958C93.3149 66.3319 93.4769 66.8648 93.6075 67.4042C93.7977 68.1929 93.9581 68.9897 94.135 69.7816C94.1591 69.8484 94.1919 69.9118 94.2325 69.9702C94.2703 69.9009 94.3018 69.8285 94.3268 69.7537C94.8272 67.7086 95.3265 65.663 95.8247 63.6168C95.876 63.4069 95.9405 63.1987 95.9801 62.9855C96.0198 62.7724 96.1835 62.7757 96.3488 62.7642C96.5671 62.7543 96.625 62.8708 96.6365 63.0642C96.6597 63.4708 96.7175 63.8742 96.7324 64.2808C96.8002 66.268 96.8581 68.2568 96.9176 70.244C96.9176 70.4079 96.9176 70.5719 96.9176 70.7358C96.9176 70.9359 96.9176 71.1195 96.6316 71.1179C96.367 71.1179 96.3174 70.9818 96.3158 70.7572C96.3158 69.8013 96.3075 68.8454 96.2794 67.8895C96.2529 66.9648 96.2 66.0417 96.1537 65.117C96.1377 65.0122 96.1106 64.9095 96.0727 64.8104C96.0238 64.9169 95.9818 65.0264 95.9471 65.1383C95.6484 66.3407 95.3519 67.5469 95.0576 68.7569C94.9099 69.3591 94.7638 69.9603 94.6194 70.5604C94.5946 70.6654 94.6194 70.7965 94.5615 70.8752C94.4922 70.9834 94.3831 71.0604 94.2573 71.09C94.1697 71.09 94.0292 70.972 93.9895 70.8752C93.9041 70.6464 93.8372 70.4112 93.7894 70.1718C93.4786 68.8306 93.1705 67.4889 92.8652 66.1466L92.842 66.0548C92.7296 65.6712 92.6221 65.2859 92.5114 64.9071C92.4771 64.8179 92.4362 64.7313 92.389 64.6481C92.3653 64.7251 92.3487 64.8041 92.3394 64.8842C92.3262 65.376 92.3262 65.8679 92.3113 66.3598C92.265 67.8256 92.216 69.2914 92.1641 70.7572C92.1732 70.8382 92.163 70.9201 92.1344 70.9965C92.1122 71.0283 92.0829 71.0545 92.0488 71.073C92.0146 71.0915 91.9765 71.1018 91.9376 71.1031C91.8467 71.09 91.7062 71.0326 91.6896 70.9687C91.6619 70.8062 91.6552 70.6409 91.6698 70.4768C91.6863 69.1651 91.6896 67.8633 91.7244 66.5565C91.7541 65.417 91.8169 64.2792 91.8632 63.1396C91.8632 62.9757 91.8533 62.8117 92.0782 62.7675C92.303 62.7232 92.5345 62.8052 92.5907 63.056C92.7461 63.7397 92.8751 64.4284 93.014 65.1153" fill="#F9C203"/>
<path d="M72.4823 67.4846C72.2558 67.2616 72.4691 67.1124 72.6163 67.1009C73.1117 67.0704 73.6085 67.0671 74.1043 67.0911C74.1512 67.1055 74.1937 67.1316 74.2275 67.1669C74.2614 67.2022 74.2856 67.2456 74.2978 67.2928C74.311 68.4951 74.311 69.6975 74.2978 70.8998C74.2868 70.9461 74.264 70.9889 74.2316 71.0239C74.1991 71.0589 74.1582 71.0851 74.1126 71.0999C74.0365 71.0999 73.8861 71.0195 73.8761 70.9556C73.8249 70.6375 73.7538 70.5801 73.4893 70.8277C72.8461 71.4294 72.1037 71.3638 71.3547 71.0556C71.0592 70.9376 70.8068 70.7333 70.6311 70.4697C70.4554 70.2062 70.3647 69.8959 70.371 69.58C70.3263 67.8355 70.3313 66.0877 70.371 64.3415C70.3858 63.5709 70.8157 63.0118 71.5548 62.7396C72.3534 62.4461 73.3487 62.6593 73.8282 63.2315C74.3077 63.8037 74.3242 64.5301 74.2829 65.2416C74.2829 65.2892 74.1589 65.3761 74.106 65.3662C73.9853 65.3433 73.7935 65.2957 73.7753 65.2187C73.7156 64.9824 73.6889 64.7391 73.6959 64.4956C73.7075 63.42 72.7634 62.7773 71.6953 63.2758C71.4566 63.3945 71.2642 63.5882 71.1481 63.8267C70.988 64.1683 70.8959 64.5374 70.8769 64.9137C70.8455 66.2254 70.8422 67.5371 70.8769 68.8487C70.9035 69.2787 70.9995 69.7016 71.1613 70.1014C71.2357 70.303 71.4605 70.5572 71.6573 70.5932C72.1101 70.6724 72.5735 70.6724 73.0263 70.5932C73.5355 70.4932 73.6463 69.9784 73.6761 69.5652C73.7273 68.8914 73.6612 68.2093 73.6447 67.5321" fill="#F9C203"/>
<path d="M80.9294 70.8737C81.0055 70.408 81.0518 70.0309 81.1311 69.662C81.5643 67.606 82.0025 65.5505 82.4456 63.4955C82.4786 63.3316 82.5663 63.1906 82.5878 63.0315C82.6225 62.7626 82.806 62.7659 83.0061 62.761C83.2061 62.7561 83.3516 62.8085 83.3996 63.0594C83.5368 63.7743 83.7087 64.4809 83.8642 65.1909C84.2345 66.8753 84.6038 68.5602 84.9719 70.2457C85.0213 70.4008 85.0398 70.564 85.0265 70.7261C85.0017 70.854 85.2695 71.0245 84.9934 71.0999C84.6859 71.1836 84.4858 71.0737 84.4263 70.7966C84.3073 70.2424 84.1915 69.6866 84.0956 69.1275C84.056 68.8898 83.9518 68.8078 83.7187 68.8143C83.1697 68.8275 82.5464 68.6668 82.0917 68.8734C81.5842 69.1046 81.8322 69.8473 81.6189 70.331C81.5627 70.4842 81.5374 70.6468 81.5445 70.8097C81.5445 71.0753 81.3791 71.154 81.1708 71.1016C81.0633 71.0753 80.9823 70.9261 80.9294 70.8737ZM82.9399 68.37H83.2706C84.0064 68.37 83.9865 68.37 83.8311 67.647C83.5649 66.414 83.3351 65.1745 83.0755 63.9382C83.0494 63.8505 83.0151 63.7654 82.973 63.6841C82.9403 63.7563 82.9132 63.8308 82.892 63.9071C82.6291 65.1991 82.3728 66.4911 82.1099 67.7814C81.9777 68.4372 82.1265 68.3946 82.6142 68.3733C82.72 68.3651 82.8308 68.37 82.9399 68.37Z" fill="#F9C203"/>
<path d="M115.103 62.6412C116.218 62.6412 116.98 63.4118 116.988 64.5579C116.988 64.653 116.823 64.7645 116.704 64.8334C116.672 64.853 116.517 64.7563 116.495 64.6874C116.413 64.43 116.404 64.1415 116.29 63.9037C115.839 62.9659 114.802 62.8429 114.015 63.5168C113.685 63.8021 113.675 64.6776 113.974 65.1318C114.117 65.3322 114.281 65.5179 114.462 65.686C114.984 66.2106 115.546 66.7009 116.029 67.2567C116.407 67.6834 116.725 68.1582 116.976 68.6684C117.15 69.0423 117.193 69.4634 117.097 69.8641C117.001 70.2648 116.772 70.622 116.447 70.8785C115.786 71.3802 114.576 71.4409 113.979 70.9162C113.515 70.5209 113.228 69.9598 113.18 69.3553C113.18 69.3012 113.154 69.2225 113.18 69.1914C113.268 69.1028 113.367 68.9864 113.476 68.97C113.533 68.9742 113.587 68.9923 113.635 69.0227C113.682 69.053 113.722 69.0947 113.749 69.1438C113.885 69.4717 113.946 69.8193 114.106 70.1276C114.387 70.6621 115.017 70.8424 115.76 70.6588C116.219 70.544 116.461 70.1374 116.505 69.5275C116.526 69.2426 116.482 68.9566 116.376 68.6909C116.27 68.4253 116.105 68.1867 115.893 67.9928C115.257 67.3518 114.61 66.7205 113.984 66.0696C113.623 65.6958 113.283 65.2908 113.195 64.7579C112.937 63.2249 114.052 62.556 115.103 62.6412Z" fill="#F9C203"/>
<path d="M106.616 70.667C106.041 70.667 105.459 70.6539 104.892 70.667C104.616 70.667 104.51 70.5752 104.515 70.2899C104.53 69.3061 104.526 68.3355 104.515 67.3583C104.515 67.114 104.614 67.0205 104.846 67.0304C105.229 67.0304 105.613 67.0304 106.003 67.0304C106.168 67.0304 106.349 67.0501 106.358 66.8123C106.368 66.5746 106.206 66.5631 106.028 66.5582C105.532 66.5451 105.047 66.527 104.556 66.5123C104.505 66.4664 104.409 66.4205 104.407 66.3729C104.399 65.4034 104.399 64.4338 104.407 63.4643C104.407 63.4069 104.497 63.3495 104.545 63.2905C104.654 63.2674 104.764 63.2521 104.875 63.2446C105.426 63.2446 105.977 63.2446 106.529 63.2331C106.613 63.2167 106.691 63.1769 106.754 63.1183C106.754 63.0659 106.767 63.0118 106.77 62.9544C106.716 62.864 106.651 62.7798 106.578 62.7035C106.534 62.6609 106.413 62.6838 106.339 62.6838C105.651 62.6838 104.961 62.6953 104.275 62.6838C103.978 62.6838 103.9 62.7986 103.902 63.0691C103.916 65.7165 103.926 68.3634 103.931 71.0096H106.811C106.873 70.8096 106.856 70.6703 106.616 70.667Z" fill="#F9C203"/>
</svg>
