<svg width="160" height="80" viewBox="0 0 160 80" fill="none" xmlns="http://www.w3.org/2000/svg">
<path d="M2 25.5817H24.8611V54.4183H2V25.5817ZM7.53091 50.0586V30.8247H13.1469C15.1324 30.8247 16.664 31.2521 17.7702 32.1354C18.8764 33.0188 19.4436 34.3295 19.4436 36.0677C19.4436 36.9795 19.2451 37.8059 18.848 38.5182C18.4225 39.2306 17.8269 39.7435 17.0044 40.1139C18.0255 40.3419 18.7629 40.8548 19.2451 41.6527C19.7273 42.4505 19.9825 43.3623 19.9825 44.4451C19.9825 46.2688 19.4436 47.665 18.3942 48.6339C17.3447 49.5742 15.8698 50.0586 13.9127 50.0586H7.53091ZM10.9913 41.5672V47.0382H13.6291C14.4233 47.0382 15.0189 46.8102 15.416 46.3828C15.7847 45.9269 15.9833 45.3 15.9833 44.4166C15.9833 43.5048 15.8131 42.7924 15.5011 42.308C15.1607 41.7951 14.6218 41.5672 13.8844 41.5672H10.9913ZM10.9913 38.9457H13.0618C13.8276 38.9172 14.4233 38.6892 14.8204 38.2618C15.2175 37.8344 15.416 37.236 15.416 36.4096C15.416 35.5263 15.2175 34.8709 14.792 34.4435C14.3665 34.0161 13.7425 33.8166 12.8916 33.8166H10.9913V38.9457Z" fill="#FFCC29"/>
<path d="M41.6524 46.8672C41.2269 47.6365 40.5178 48.3489 39.5251 48.9473C38.5324 49.5742 37.2844 49.8876 35.7527 49.8876C33.7389 49.8876 32.1222 49.2607 30.9025 48.0355C29.6829 46.8387 29.0589 45.072 29.0589 42.8209V37.122C29.0589 34.8994 29.6545 33.1612 30.8174 31.9645C31.9804 30.7392 33.512 30.1123 35.4407 30.1123C37.3978 30.1123 38.9011 30.6252 39.9222 31.594C40.9716 32.5913 41.5105 33.9876 41.5956 35.7543L41.5673 35.8397H39.0429C38.9862 34.643 38.6742 33.7311 38.0785 33.1042C37.5113 32.4489 36.632 32.1354 35.4691 32.1354C34.3062 32.1354 33.3985 32.5628 32.7178 33.4177C32.0371 34.244 31.7251 35.4693 31.7251 37.0935V42.8209C31.7251 44.4451 32.0655 45.6989 32.8029 46.5537C33.512 47.4371 34.5047 47.8645 35.7527 47.8645C36.6604 47.8645 37.3695 47.6935 37.88 47.3801C38.3622 47.0666 38.7593 46.6677 38.9862 46.1833V41.8236H35.7244V39.886H41.6524V46.8672Z" fill="white"/>
<path d="M48.1193 54.4183H46.7862V25.5817H48.1193V54.4183ZM71.4625 54.4183H70.1295V25.5817H71.4625V54.4183ZM94.6924 54.4183H93.3876V25.5817H94.6924V54.4183ZM141.379 54.4183H140.046V25.5817H141.379V54.4183ZM118.036 54.4183H116.703V25.5817H118.036V54.4183Z" fill="#727376"/>
<path d="M56.5149 43.0204H61.3934L59.0109 34.6145H58.9258L56.5149 43.0204ZM62.0174 45.129H55.9193L54.5295 49.9731H51.8065L57.7062 30.7677H60.2589L66.1018 49.9731H63.4073L62.0174 45.129Z" fill="white"/>
<path d="M77.9011 30.7677L82.3825 46.4398H82.4676L86.9491 30.7677H90.3811V49.9731H87.7433V42.593L87.9702 35.2129L87.8851 35.1844L83.2902 49.9731H81.5316L76.9367 35.2129H76.88L77.1069 42.593V49.9731H74.4691V30.7677H77.9011Z" fill="white"/>
<path d="M106.945 49.9731H104.308V30.7677H106.945V49.9731Z" fill="white"/>
<path d="M135.649 49.9731H133.012L125.751 35.6973H125.665V49.9731H122.999V30.7677H125.665L132.927 45.015L133.012 44.9865V30.7677H135.649V49.9731Z" fill="white"/>
<path d="M158 46.9811C157.546 47.7505 156.837 48.4344 155.844 49.0612C154.88 49.6881 153.604 49.9731 152.072 49.9731C150.087 49.9731 148.441 49.3747 147.222 48.1494C146.002 46.9241 145.378 45.186 145.378 42.9349V37.2359C145.378 35.0134 145.974 33.2752 147.137 32.0499C148.3 30.8246 149.86 30.2263 151.788 30.2263C153.717 30.2263 155.22 30.7107 156.27 31.708C157.291 32.7053 157.83 34.073 157.915 35.8682L157.887 35.9537H155.362C155.334 34.7284 154.993 33.8166 154.426 33.1897C153.831 32.5628 152.98 32.2494 151.817 32.2494C150.654 32.2494 149.746 32.6768 149.065 33.5031C148.385 34.358 148.044 35.5833 148.044 37.179V42.9064C148.044 44.5591 148.413 45.8128 149.122 46.6677C149.86 47.5225 150.824 47.9499 152.072 47.9499C152.98 47.9499 153.689 47.8075 154.199 47.494C154.71 47.1806 155.079 46.7817 155.334 46.2973V41.9376H152.044V39.9714H158V46.9811Z" fill="white"/>
<path d="M7.53091 50.0586V30.8247H13.1469C15.1324 30.8247 16.664 31.2521 17.7702 32.1355C18.8764 33.0188 19.4436 34.3296 19.4436 36.0677C19.4436 36.9796 19.2451 37.8059 18.848 38.5183C18.4225 39.2306 17.8269 39.7435 17.0044 40.114C18.0255 40.3419 18.7629 40.8548 19.2451 41.6527C19.7273 42.4505 19.9825 43.3624 19.9825 44.4452C19.9825 46.2688 19.4436 47.6651 18.3942 48.6339C17.3447 49.5742 15.8698 50.0586 13.9127 50.0586H7.53091Z" fill="white"/>
<path d="M10.9913 41.5672V47.0382H13.6291C14.4233 47.0382 15.0189 46.8102 15.416 46.3828C15.7847 45.9269 15.9833 45.3 15.9833 44.4167C15.9833 43.5048 15.8131 42.7925 15.5011 42.3081C15.1607 41.7952 14.6218 41.5672 13.8844 41.5672H10.9913Z" fill="#FFCC29"/>
<path d="M10.9913 38.9457H13.0618C13.8276 38.9172 14.4233 38.6892 14.8204 38.2618C15.2175 37.8344 15.416 37.236 15.416 36.4097C15.416 35.5263 15.2175 34.871 14.792 34.4435C14.3665 34.0161 13.7425 33.8167 12.8916 33.8167H10.9913V38.9457Z" fill="#FFCC29"/>
</svg>
