<svg width="160" height="80" viewBox="0 0 160 80" fill="none" xmlns="http://www.w3.org/2000/svg">
<path d="M16.0024 22.2335L9.78747 28.4459L6.17072 24.8317L16.0024 15L25.8341 24.8342L22.2199 28.451L16.0024 22.2335Z" fill="#F3BA2F"/>
<path d="M3.61543 27.385L0 31.0004L3.61542 34.6158L7.23085 31.0004L3.61543 27.385Z" fill="#F3BA2F"/>
<path d="M9.78746 33.5538L16.0024 39.7688L22.2199 33.5513L25.8366 37.163L16.0024 46.9997L6.16566 37.1655L9.78746 33.5538Z" fill="#F3BA2F"/>
<path d="M28.3833 27.3859L24.7679 31.0013L28.3833 34.6167L31.9988 31.0013L28.3833 27.3859Z" fill="#F3BA2F"/>
<path d="M19.6697 30.9986L16.0024 27.3288L13.2905 30.0407L12.9771 30.3516L12.3301 30.9986L12.3351 31.0062L16.0024 34.671L19.6723 30.9986H19.6697Z" fill="#F3BA2F"/>
<path fill-rule="evenodd" clip-rule="evenodd" d="M45.5051 22.7541H37.6397V39.7182H45.6997C46.5752 39.7272 47.4485 39.6296 48.3004 39.4276C49.0174 39.261 49.6982 38.9655 50.3097 38.5556C50.8505 38.1836 51.2908 37.6835 51.5911 37.0998C51.901 36.4663 52.0544 35.7677 52.0385 35.0627V35.0147C52.0385 33.8858 51.7571 33.0012 51.1943 32.3609C50.5574 31.6734 49.7616 31.1527 48.8766 30.8444C49.1835 30.684 49.471 30.489 49.7334 30.2631C50.0021 30.0345 50.2369 29.769 50.431 29.4746C50.6392 29.1623 50.8018 28.8218 50.9137 28.4636C51.0394 28.0474 51.1 27.6143 51.0932 27.1797V27.1316C51.1037 26.601 51.0063 26.0738 50.8069 25.582C50.6075 25.0902 50.3102 24.644 49.9331 24.2706C48.9322 23.2596 47.4562 22.7541 45.5051 22.7541ZM46.6803 29.189C46.0742 29.5 45.397 29.6465 44.7165 29.6136H41.2767V26.0272H44.9566C45.7485 26.0272 46.3543 26.1763 46.7738 26.4745C46.9792 26.6203 47.1446 26.8156 47.2546 27.0422C47.3646 27.2688 47.4157 27.5195 47.4032 27.7711V27.8191C47.4226 28.0922 47.3652 28.3652 47.2374 28.6073C47.1097 28.8494 46.9167 29.0509 46.6803 29.189ZM47.6559 36.0029C47.0626 36.3331 46.3877 36.4882 45.7098 36.4503H41.2767V32.7097H45.596C46.5666 32.7097 47.2692 32.8782 47.7039 33.2152C47.9146 33.3687 48.0845 33.5716 48.1986 33.806C48.3127 34.0404 48.3676 34.2992 48.3585 34.5597V34.6078C48.3768 34.8819 48.3213 35.1559 48.1977 35.4013C48.0741 35.6466 47.887 35.8544 47.6559 36.0029Z" fill="#F3BA2F"/>
<path d="M56.7243 22.7541H60.4573V39.7233H56.7243V22.7541Z" fill="#F3BA2F"/>
<path d="M69.5485 22.7541H66.1061V39.7233H69.7962V28.9362L78.0128 39.7233H81.1898V22.7541H77.5048V33.1975L69.5485 22.7541Z" fill="#F3BA2F"/>
<path fill-rule="evenodd" clip-rule="evenodd" d="M92.4924 22.6328H95.9297L103.201 39.7233H99.3039L97.752 35.917H90.5767L89.0248 39.7233H85.2185L92.4924 22.6328ZM96.4201 32.6212L94.1605 27.1165L91.9111 32.6212H96.4201Z" fill="#F3BA2F"/>
<path d="M110.68 22.7541H107.237V39.7233H110.922V28.9362L119.139 39.7233H122.316V22.7541H118.631V33.1975L110.68 22.7541Z" fill="#F3BA2F"/>
<path d="M135.752 40.0215C134.562 40.0317 133.383 39.8013 132.284 39.3442C131.25 38.9172 130.312 38.2875 129.525 37.4923C128.738 36.6971 128.118 35.7524 127.702 34.7139C127.263 33.6277 127.04 32.466 127.047 31.2943V31.2463C127.028 28.9368 127.916 26.7121 129.522 25.0516C130.312 24.2405 131.257 23.5974 132.302 23.1611C133.438 22.6903 134.658 22.4556 135.888 22.4711C136.616 22.4656 137.342 22.5308 138.057 22.6657C138.668 22.7813 139.266 22.9601 139.841 23.199C140.363 23.4185 140.859 23.6948 141.32 24.0229C141.77 24.3429 142.192 24.6996 142.584 25.0895L140.21 27.8292C139.604 27.2697 138.923 26.7961 138.188 26.4214C137.466 26.0761 136.674 25.9031 135.873 25.9159C135.207 25.9088 134.547 26.0435 133.937 26.3111C133.327 26.5787 132.781 26.9729 132.335 27.4678C131.893 27.9614 131.546 28.5331 131.314 29.1536C131.07 29.8093 130.948 30.5038 130.952 31.2033V31.2513C130.95 31.9498 131.072 32.6431 131.314 33.2986C131.543 33.9213 131.886 34.4962 132.325 34.9945C132.767 35.4954 133.312 35.8955 133.922 36.1676C134.533 36.4397 135.195 36.5775 135.863 36.5716C136.714 36.5984 137.559 36.4152 138.322 36.0383C139.049 35.6421 139.721 35.1527 140.321 34.5825L142.697 36.9835C142.278 37.4388 141.824 37.8613 141.34 38.2473C140.864 38.6232 140.348 38.9445 139.801 39.2052C139.218 39.4797 138.603 39.6825 137.971 39.8092C137.24 39.9557 136.497 40.0268 135.752 40.0215Z" fill="#F3BA2F"/>
<path d="M159.874 22.7541H147.103L147.11 39.7233H160V36.4022H150.788V32.8386H158.787V29.5175H150.775V26.0752H159.874V22.7541Z" fill="#F3BA2F"/>
<path d="M38 65V45H46.0664C47.8029 45 49.2874 45.2857 50.5198 45.8571C51.7708 46.4286 52.7324 47.2476 53.4046 48.3143C54.0768 49.381 54.4129 50.6476 54.4129 52.1143C54.4129 53.581 54.0768 54.8476 53.4046 55.9143C52.7324 56.981 51.7708 57.8 50.5198 58.3714C49.2874 58.9429 47.8029 59.2286 46.0664 59.2286H40.0166L41.6411 57.4857V65H38ZM41.6411 57.8857L40.0166 56.0857H45.8984C47.5042 56.0857 48.7086 55.7429 49.5115 55.0571C50.333 54.3524 50.7438 53.3714 50.7438 52.1143C50.7438 50.8381 50.333 49.8571 49.5115 49.1714C48.7086 48.4857 47.5042 48.1429 45.8984 48.1429H40.0166L41.6411 46.3143V57.8857Z" fill="black"/>
<path d="M54.2915 65L63.1141 45H66.6992L75.5499 65H71.7407L64.1505 46.9714H65.6069L58.0446 65H54.2915ZM58.3527 60.3714L59.333 57.4571H69.9202L70.9005 60.3714H58.3527Z" fill="black"/>
<path d="M81.6846 65V57.0857L82.4968 59.3714L73.9823 45H77.8755L84.7095 56.5714H82.5249L89.4149 45H93L84.4854 59.3714L85.3257 57.0857V65H81.6846Z" fill="black"/>
</svg>
