<svg width="160" height="91" viewBox="0 0 160 91" fill="none" xmlns="http://www.w3.org/2000/svg">
<g clip-path="url(#clip0_4819_8767)">
<path d="M32.5859 49.4844C30.3549 59.6072 21.2912 65.7678 12.3413 63.2435C3.39503 60.7197 -2.05113 50.4664 0.180992 40.3442C2.41103 30.2202 11.4747 24.059 20.422 26.5827C29.3714 29.1065 34.817 39.361 32.5859 49.4844Z" fill="#F7931A"/>
<path d="M23.7484 42.2213C24.081 39.707 22.3886 38.3554 20.0745 37.4537L20.8252 34.0477L18.9924 33.5311L18.2616 36.8473C17.7798 36.7114 17.2849 36.5833 16.7931 36.4564L17.5292 33.1183L15.6974 32.6016L14.9463 36.0064C14.5475 35.9036 14.1559 35.8021 13.7759 35.6952L13.778 35.6846L11.2504 34.9707L10.7629 37.185C10.7629 37.185 12.1227 37.5375 12.094 37.5594C12.8363 37.769 12.9705 38.3247 12.948 38.7652L12.093 42.6453C12.1441 42.6601 12.2104 42.6813 12.2835 42.7144C12.2224 42.6973 12.1572 42.6784 12.0898 42.6601L10.8913 48.0956C10.8005 48.3506 10.5703 48.7333 10.0514 48.588C10.0696 48.6181 8.7192 48.2119 8.7192 48.2119L7.80933 50.5851L10.1944 51.2576C10.6381 51.3834 11.0729 51.5151 11.501 51.6391L10.7425 55.084L12.5732 55.6007L13.3244 52.1924C13.8245 52.3459 14.3099 52.4876 14.785 52.6211L14.0364 56.0135L15.8692 56.5302L16.6277 53.0917C19.753 53.7607 22.1031 53.4909 23.0923 50.2934C23.8894 47.7188 23.0526 46.2337 21.4083 45.2653C22.6058 44.953 23.5078 44.0619 23.7484 42.2213ZM19.5609 48.8638C18.9945 51.4383 15.1624 50.0465 13.92 49.6976L14.9264 45.1336C16.1688 45.4844 20.1528 46.1788 19.5609 48.8638ZM20.1278 42.1841C19.611 44.526 16.4215 43.3362 15.3868 43.0445L16.2993 38.9051C17.334 39.1968 20.666 39.7413 20.1278 42.1841Z" fill="white"/>
<path d="M48.6327 37.4501C49.9874 37.4501 51.1577 37.7247 52.1412 38.2638C53.1294 38.8083 53.9447 39.5417 54.5988 40.464C55.244 41.3911 55.7243 42.4746 56.0343 43.7164C56.3423 44.9618 56.4969 46.3004 56.4969 47.7336C56.4969 49.9349 56.1403 52.0146 55.4205 53.9751C54.7006 55.9385 53.7239 57.6414 52.4815 59.094C51.2402 60.5449 49.7744 61.6887 48.0841 62.5337C46.3964 63.3793 44.5616 63.8021 42.5915 63.8021C42.3368 63.8021 41.8889 63.7938 41.2562 63.779C40.6235 63.7643 39.8964 63.6904 39.082 63.5658C38.2625 63.4365 37.3959 63.2452 36.4808 62.9889C35.5663 62.7374 34.6976 62.3849 33.8796 61.9373L41.1941 27.1714L47.7453 26.0229L45.1264 38.3601C45.687 38.0743 46.2518 37.8529 46.8156 37.6916C47.3799 37.5328 47.9854 37.4501 48.6327 37.4501ZM43.1375 57.9231C44.1241 57.9231 45.0538 57.6485 45.9271 57.1094C46.8031 56.5697 47.559 55.841 48.1922 54.9334C48.8254 54.0217 49.3265 52.9949 49.6919 51.8475C50.0573 50.7002 50.2421 49.5033 50.2421 48.2579C50.2421 46.728 50.0161 45.5346 49.5656 44.6719C49.1151 43.8127 48.2814 43.3805 47.0709 43.3805C46.6741 43.3805 46.1631 43.4661 45.5294 43.619C44.8936 43.7814 44.3246 44.1186 43.8146 44.6258L41.026 57.7276C41.1941 57.7613 41.3428 57.7932 41.4697 57.8233C41.5939 57.8558 41.7312 57.8788 41.868 57.8948C42.0126 57.9131 42.1781 57.9225 42.378 57.9225C42.5779 57.9225 42.828 57.9231 43.1375 57.9231Z" fill="#4D4D4D"/>
<path d="M63.2908 63.1366H57.0334L62.3178 37.9834H68.6179L63.2908 63.1366ZM66.3357 34.9187C65.4624 34.9187 64.6705 34.6247 63.9679 34.0353C63.2595 33.4496 62.9087 32.5479 62.9087 31.3327C62.9087 30.6642 63.0288 30.0371 63.2668 29.4454C63.5085 28.8549 63.8243 28.3465 64.22 27.9143C64.6151 27.4856 65.073 27.1431 65.5929 26.8851C66.1159 26.6311 66.6724 26.5042 67.2654 26.5042C68.1382 26.5042 68.9259 26.7983 69.6312 27.3876C70.3338 27.9798 70.6872 28.8815 70.6872 30.0903C70.6872 30.7611 70.5677 31.3905 70.3275 31.981C70.089 32.5715 69.7732 33.0799 69.3775 33.5122C68.9854 33.9414 68.5235 34.2827 68.0046 34.5384C67.481 34.7965 66.9266 34.9187 66.3357 34.9187Z" fill="#4D4D4D"/>
<path d="M74.1016 31.7165L80.6555 30.568L79.0461 37.9822H86.0651L84.7976 43.8151H77.8209L75.9626 52.6134C75.7913 53.3468 75.6943 54.0318 75.6671 54.6683C75.6363 55.3078 75.7078 55.857 75.877 56.3194C76.0451 56.7829 76.3473 57.1401 76.7858 57.3929C77.2222 57.6497 77.847 57.7791 78.6666 57.7791C79.3416 57.7791 79.9993 57.7064 80.6351 57.5623C81.2673 57.4206 81.9078 57.2234 82.5561 56.9654L83.0228 62.4191C82.1771 62.7699 81.2615 63.0716 80.2749 63.3256C79.2867 63.583 78.1169 63.707 76.7649 63.707C74.8209 63.707 73.3139 63.3805 72.2401 62.7303C71.1679 62.0755 70.4099 61.1809 69.9563 60.0483C69.5089 58.9199 69.309 57.619 69.3649 56.1534C69.4228 54.6843 69.6186 53.1402 69.9563 51.5139L74.1016 31.7165Z" fill="#4D4D4D"/>
<path d="M85.7896 53.0923C85.7896 50.9258 86.0996 48.8827 86.7193 46.9701C87.3378 45.0557 88.2289 43.3816 89.3852 41.945C90.5373 40.5154 91.9409 39.3828 93.5931 38.5514C95.2374 37.7247 97.0786 37.3078 99.1076 37.3078C100.378 37.3078 101.512 37.4437 102.51 37.7159C103.512 37.9905 104.419 38.3453 105.239 38.7906L103.081 44.3412C102.517 44.0826 101.932 43.8546 101.327 43.648C100.722 43.4371 99.9825 43.3356 99.1082 43.3356C97.0196 43.3356 95.3685 44.1499 94.1397 45.7731C92.9155 47.3976 92.299 49.5842 92.299 52.327C92.299 53.9526 92.6091 55.2671 93.2314 56.2727C93.8505 57.2783 94.9942 57.7784 96.6547 57.7784C97.4743 57.7784 98.2651 57.6816 99.0226 57.4926C99.7857 57.3013 100.46 57.0604 101.053 56.7758L101.52 62.4658C100.729 62.813 99.8562 63.1265 98.8988 63.4011C97.9394 63.6662 96.7972 63.8038 95.4729 63.8038C93.7246 63.8038 92.2447 63.5145 91.0342 62.9447C89.8231 62.366 88.8224 61.5977 88.0342 60.6246C87.2418 59.6491 86.6728 58.5101 86.321 57.2027C85.9691 55.8965 85.7896 54.5242 85.7896 53.0923Z" fill="#4D4D4D"/>
<path d="M113.587 63.8038C112.093 63.8038 110.796 63.5464 109.695 63.0368C108.598 62.5272 107.689 61.8121 106.971 60.885C106.251 59.9627 105.712 58.8697 105.343 57.6101C104.974 56.3512 104.796 54.9571 104.796 53.4295C104.796 51.5133 105.068 49.5978 105.618 47.6875C106.165 45.7731 106.977 44.053 108.051 42.5243C109.117 40.9931 110.432 39.7413 111.98 38.7652C113.527 37.7956 115.306 37.3078 117.304 37.3078C118.771 37.3078 120.061 37.5659 121.177 38.0755C122.287 38.5839 123.201 39.3049 123.924 40.2272C124.64 41.1543 125.183 42.2426 125.548 43.5039C125.916 44.7605 126.098 46.1581 126.098 47.6869C126.098 49.5972 125.83 51.5127 125.297 53.4289C124.764 55.3356 123.974 57.0598 122.93 58.5921C121.888 60.1209 120.585 61.3722 119.02 62.3441C117.457 63.3161 115.644 63.8038 113.587 63.8038ZM116.714 43.3362C115.786 43.3362 114.966 43.6409 114.264 44.2426C113.559 44.8514 112.967 45.6167 112.49 46.5396C112.008 47.4667 111.65 48.4776 111.409 49.5765C111.169 50.6778 111.052 51.7188 111.052 52.7079C111.052 54.304 111.279 55.547 111.727 56.4416C112.18 57.3314 112.995 57.779 114.18 57.779C115.11 57.779 115.926 57.4767 116.632 56.8685C117.333 56.2644 117.926 55.4985 118.406 54.5738C118.885 53.6515 119.246 52.6376 119.488 51.5369C119.724 50.4392 119.845 49.3923 119.845 48.405C119.845 46.813 119.618 45.5671 119.167 44.6736C118.716 43.7838 117.897 43.3362 116.714 43.3362Z" fill="#4D4D4D"/>
<path d="M132.917 63.1366H126.654L131.939 37.9834H138.242L132.917 63.1366ZM135.957 34.9187C135.084 34.9187 134.293 34.6247 133.591 34.0353C132.887 33.4496 132.533 32.5479 132.533 31.3327C132.533 30.6642 132.654 30.0371 132.893 29.4454C133.131 28.8549 133.449 28.3465 133.845 27.9143C134.238 27.4856 134.7 27.1431 135.219 26.8851C135.739 26.6311 136.295 26.5042 136.886 26.5042C137.761 26.5042 138.551 26.7983 139.255 27.3876C139.959 27.9798 140.315 28.8815 140.315 30.0903C140.315 30.7611 140.189 31.3905 139.952 31.981C139.716 32.5715 139.398 33.0799 139.004 33.5122C138.607 33.9414 138.151 34.2827 137.631 34.5384C137.107 34.7965 136.551 34.9187 135.957 34.9187Z" fill="#4D4D4D"/>
<path d="M142.751 39.1271C143.226 38.9701 143.757 38.7811 144.334 38.5756C144.913 38.3701 145.559 38.1788 146.282 38.0064C146.996 37.8287 147.803 37.6846 148.69 37.573C149.577 37.459 150.587 37.4035 151.71 37.4035C155.01 37.4035 157.285 38.4906 158.541 40.6583C159.796 42.826 160.013 45.7926 159.199 49.5529L156.321 63.1342H150.022L152.812 49.8387C152.982 49.0085 153.115 48.206 153.214 47.4218C153.314 46.6447 153.308 45.9597 153.192 45.3669C153.08 44.7811 152.818 44.3016 152.412 43.9302C151.999 43.5647 151.375 43.3811 150.529 43.3811C149.713 43.3811 148.883 43.4803 148.036 43.6716L143.934 63.1336H137.633L142.751 39.1271Z" fill="#4D4D4D"/>
</g>
<defs>
<clipPath id="clip0_4819_8767">
<rect width="160" height="90.4949" fill="white"/>
</clipPath>
</defs>
</svg>
