<svg width="160" height="80" viewBox="0 0 160 80" fill="none" xmlns="http://www.w3.org/2000/svg">
<path d="M1.97476 46.7139C2.32922 46.4155 2.709 46.2598 3.03814 46.0392C3.36728 45.8187 3.74706 45.5981 4.10151 45.3906C4.45597 45.183 4.82309 44.9494 5.19021 44.7289C5.55733 44.5083 5.88647 44.2878 6.24093 44.0802C6.59539 43.8726 6.9625 43.665 7.3043 43.4315C7.6461 43.198 8.0512 43.0942 8.35502 42.7439C7.87397 42.5882 7.44355 42.4455 7.0258 42.3028C6.58273 42.1471 6.13965 41.9655 5.69658 41.7968C5.41808 41.693 5.12691 41.6022 4.84841 41.5114C4.56991 41.4206 4.24077 41.3038 3.93694 41.2C3.51919 41.0573 3.10143 40.9016 2.68368 40.7589C2.26592 40.5903 1.82285 40.4346 1.4051 40.2789C1.30382 40.24 1.18989 40.227 1.08861 40.1751C1.03798 40.1492 1.01266 40.0973 1 40.0454C1 40.0194 1.0633 39.9805 1.10127 39.9546C1.12659 39.9416 1.16457 39.9416 1.18989 39.9416C1.56967 39.9416 1.91147 39.7989 2.27858 39.721C2.51911 39.6691 2.77229 39.6173 3.02548 39.5783C3.81035 39.4356 4.59522 39.2929 5.3801 39.1372C5.67126 39.0853 5.96242 38.9945 6.25359 38.9167C6.2789 38.9037 6.31688 38.9037 6.3422 38.9037C6.67134 38.8518 7.00048 38.8129 7.32962 38.761C7.62078 38.7091 7.91195 38.6183 8.19045 38.5404C8.22843 38.5275 8.26641 38.5275 8.31704 38.5275C8.63352 38.4756 8.95001 38.4366 9.26649 38.3847C9.38042 38.3458 9.49435 38.2939 9.59563 38.242L3.51919 32.2482C3.68376 32.1703 3.87365 32.1574 4.03822 32.2222C4.13949 32.2482 4.25343 32.2741 4.3547 32.3001L5.34212 32.5336C5.51935 32.5725 5.69658 32.6244 5.87381 32.6504C6.16497 32.7023 6.44347 32.7542 6.73464 32.8061C6.92453 32.845 7.10176 32.8969 7.29164 32.9358C7.82333 33.0655 8.35502 33.1953 8.88671 33.312C9.13989 33.3639 9.40574 33.4158 9.65892 33.4677L10.2666 33.5845C10.2792 33.5196 10.2792 33.4547 10.2666 33.3899C10.0767 32.9358 9.86147 32.4947 9.67158 32.0406C9.38042 31.353 9.08926 30.6524 8.79809 29.9518C8.45629 29.1475 8.11449 28.3561 7.7727 27.5517C7.59547 27.1236 7.41824 26.6825 7.24101 26.2414C7.20303 26.1635 7.13973 26.0857 7.11441 26.0078C7.10176 25.93 7.10176 25.8521 7.11441 25.7743C8.3297 26.6825 9.50701 27.5776 10.6843 28.4599C11.8616 29.3421 13.0136 30.2502 14.2542 31.1324C14.2795 31.0546 14.3049 30.9768 14.3049 30.8989C14.2795 30.4578 14.3302 30.0167 14.2036 29.5756C14.1403 29.368 14.1783 29.1215 14.1783 28.901C14.1783 28.6155 14.153 28.3171 14.0897 28.0447C14.0264 27.8112 14.0643 27.5517 14.0517 27.3052C14.0643 27.0457 14.0264 26.7862 13.9631 26.5397C13.8998 26.3711 13.9377 26.1765 13.9251 25.9819C13.8998 25.6316 13.8618 25.2813 13.8238 24.931C13.8112 24.8532 13.8112 24.7623 13.8112 24.6845C13.7858 24.2304 13.8112 23.7763 13.7099 23.3223C13.6972 23.1536 13.6972 22.9979 13.7099 22.8293C13.7858 22.8941 13.8618 22.959 13.9251 23.0368C14.5707 24.0099 15.2037 24.9829 15.8366 25.9689L17.3557 28.3042C17.6216 28.7064 17.8748 29.1085 18.1406 29.5107C18.1659 29.5496 18.2292 29.5496 18.2925 29.5756L19.204 27.902C19.7104 26.9809 20.2167 26.0467 20.7104 25.1256C21.2295 24.1656 21.7485 23.2055 22.2675 22.2454C22.3561 22.0898 22.4448 21.9211 22.546 21.7654C22.5714 21.7265 22.6473 21.6746 22.6853 21.6876C22.7359 21.7135 22.7612 21.7654 22.7739 21.8303C22.7866 22.2454 22.7866 22.6606 22.7992 23.0758C22.8119 23.439 22.8625 23.8023 22.9005 24.1526C22.9005 24.2175 22.9005 24.2823 22.9005 24.3342C22.9511 25.3332 22.9511 26.3451 23.0524 27.3441C23.103 27.8371 23.1284 28.3301 23.1663 28.8231C23.179 28.862 23.1917 28.901 23.217 28.9399C23.2803 28.901 23.3436 28.862 23.4069 28.8101C23.6854 28.5507 23.9639 28.2782 24.2424 28.0058C24.6221 27.6555 25.0019 27.3052 25.3817 26.9549C26.0526 26.3192 26.7362 25.6835 27.4072 25.0607C27.5591 24.918 27.7237 24.7883 27.9262 24.6326C27.9389 24.7105 27.9515 24.7883 27.9515 24.8661C27.8503 25.2813 27.7237 25.6965 27.6224 26.1116C27.5718 26.3062 27.5338 26.5138 27.4831 26.7084C27.3565 27.2144 27.2426 27.7204 27.116 28.2263C27.0654 28.4728 27.0147 28.7323 26.9641 28.9788C26.9261 29.1604 26.8755 29.3291 26.8249 29.5107C26.7109 29.9518 26.5843 30.4059 26.4704 30.847C26.3691 31.2233 26.2932 31.6125 26.2046 31.9887C26.1919 32.0795 26.1919 32.1574 26.2046 32.2482C26.3818 32.352 26.5084 32.1833 26.6476 32.1314C27.1287 31.9368 27.6097 31.7033 28.0781 31.4827L29.2048 30.9638C29.7238 30.7303 30.2429 30.4838 30.7619 30.2502C31.3062 30.0037 31.8506 29.7572 32.3949 29.5107C33.0659 29.1994 33.7368 28.888 34.4204 28.5766C34.4837 28.5636 34.5343 28.5636 34.5976 28.5766C32.7747 30.9768 31.0024 33.338 29.2301 35.7381C29.3947 35.8419 29.5972 35.8938 29.7998 35.8938C30.0783 35.9068 30.3694 35.8938 30.6479 35.9068C30.9264 35.9197 31.2303 35.9457 31.5214 35.9587C32.0784 35.9976 32.6354 36.0365 33.1798 36.0754C34.0786 36.1273 34.9774 36.1662 35.8762 36.2181C36.4585 36.2441 37.0409 36.296 37.6358 36.3219C37.6865 36.3219 37.7371 36.3349 37.7878 36.3479C37.8004 36.4906 37.7118 36.5295 37.6232 36.5814C37.1675 36.8668 36.7117 37.1522 36.2687 37.4506C35.7876 37.762 35.3192 38.0734 34.8508 38.3847C33.99 38.9556 33.1292 39.5135 32.2683 40.0843C31.5468 40.5514 30.8252 41.0184 30.1163 41.4984C30.053 41.5503 30.0023 41.6152 29.9517 41.6801L37.0662 44.7808V44.8327C36.9776 44.8457 36.9016 44.8586 36.813 44.8716C34.8508 45.0013 32.8886 44.9754 30.9264 45.0013C30.534 45.0013 30.1416 45.0273 29.7365 45.0403C29.6479 45.0532 29.5719 45.0662 29.4833 45.0792L32.7494 53.4732L32.6987 53.5251C32.1164 53.1488 31.5214 52.7726 30.9391 52.3834C30.3568 51.9942 29.7618 51.605 29.1668 51.2028C28.5718 50.8006 27.9895 50.4114 27.4072 50.0222C26.8249 49.633 26.2552 49.2178 25.6222 48.8675C25.5589 49.0491 25.5463 49.2437 25.5969 49.4384C25.6222 49.7367 25.6602 50.0351 25.6855 50.3335C25.7108 50.593 25.6602 50.8525 25.7868 51.099C25.7995 51.1249 25.7995 51.1639 25.7995 51.1898C25.8501 51.9812 25.8881 52.7596 25.9387 53.551C25.9514 53.7586 26.0147 53.9532 26.0273 54.1608C26.078 54.9133 26.1286 55.6657 26.1792 56.4182C26.2299 57.0539 26.2932 57.6896 26.3565 58.3383C26.2172 58.4551 26.1539 58.2994 26.1033 58.2345C25.8754 57.9491 25.6602 57.6507 25.445 57.3523C24.9893 56.7685 24.5335 56.1977 24.0905 55.6138C23.8499 55.3025 23.6221 54.9911 23.3815 54.6927C22.9258 54.1089 22.4574 53.5251 22.0017 52.9283C21.7865 52.6429 21.5713 52.3574 21.3561 52.072C21.3054 52.0071 21.2421 51.9552 21.1788 51.9034L19.0647 58.1048C18.9761 57.988 18.9002 57.9232 18.8749 57.8583C18.6976 57.2745 18.5331 56.6777 18.3558 56.0939C18.1786 55.51 17.9507 54.9133 17.7482 54.3294C17.6596 54.057 17.5963 53.7716 17.5077 53.4991C17.3684 53.045 17.2291 52.6039 17.0899 52.1499C17.0519 52.0071 16.9633 51.9812 16.8494 52.085C16.7861 52.1499 16.7228 52.2147 16.6595 52.2926C16.267 52.7726 15.8746 53.2526 15.4822 53.7456C15.1657 54.1478 14.8619 54.563 14.5454 54.9522C13.9757 55.6657 13.3807 56.3793 12.8111 57.0928C12.6338 57.3134 12.4566 57.5469 12.292 57.7675C12.2414 57.8323 12.1781 57.8972 12.0895 58.001C12.0262 57.7804 12.0262 57.5469 12.0895 57.3264C12.1022 57.2615 12.1401 57.2096 12.1528 57.1447C12.2034 56.7555 12.2414 56.3663 12.3047 55.9771C12.368 55.5879 12.444 55.1857 12.5199 54.7965C12.5199 54.7705 12.5326 54.7576 12.5326 54.7316C12.5579 54.3294 12.6085 53.9402 12.6845 53.538C12.7858 53.1229 12.7604 52.7077 12.887 52.2926C12.9883 51.9552 12.9883 51.592 13.0389 51.2547C13.1149 50.7746 13.2035 50.2946 13.2795 49.8276C13.2795 49.8016 13.3048 49.7627 13.3048 49.7367C13.3428 49.4773 13.3681 49.2048 13.4061 48.9064C13.3174 48.9064 13.2415 48.9324 13.1655 48.9583C12.4946 49.2827 11.8237 49.607 11.1527 49.9314C10.3425 50.3206 9.51967 50.7098 8.70948 51.112C7.89929 51.5141 7.07644 51.9423 6.25359 52.3574C5.96242 52.5001 5.6586 52.6169 5.34212 52.7596C5.30414 52.6039 5.39276 52.5261 5.45605 52.4483C5.87381 51.8904 6.29156 51.3325 6.70932 50.7876C7.05112 50.3465 7.39292 49.9184 7.72206 49.4773C8.08918 48.9843 8.44363 48.4913 8.81075 47.9983C9.30446 47.3366 9.81083 46.6879 10.3172 46.0263C10.3805 45.9484 10.4311 45.8446 10.5071 45.7279C10.2539 45.7408 10.0387 45.7538 9.83615 45.7798C9.30446 45.8446 8.76012 45.9225 8.22843 46.0003C8.15247 46.0133 8.06386 46.0133 7.9879 46.0263C7.73472 46.0392 7.48153 46.0003 7.25367 46.143C7.22835 46.156 7.21569 46.156 7.19037 46.156C6.65868 46.2079 6.12699 46.2468 5.5953 46.2987C5.11425 46.3506 4.62054 46.4414 4.13949 46.5193C3.92428 46.5452 3.70908 46.5452 3.50653 46.5712C3.06346 46.636 2.60772 46.7009 2.16465 46.7658C2.08869 46.7528 2.0254 46.7398 1.97476 46.7139ZM29.4453 41.6671L29.8757 41.3946L31.4328 40.3827C31.6354 40.253 31.8379 40.1103 32.0405 39.9805C32.3696 39.76 32.6861 39.5264 33.0152 39.3189C33.5343 38.9815 34.0533 38.6572 34.5723 38.3199C35.3445 37.8139 36.1167 37.3079 36.889 36.802C36.9522 36.7501 37.0029 36.6982 37.0409 36.6333C37.0029 36.6073 36.9902 36.5814 36.9776 36.5814C36.4459 36.5425 35.9142 36.4906 35.3825 36.4517C35.0154 36.4257 34.6483 36.4387 34.2938 36.4127C33.9773 36.3868 33.6482 36.3479 33.3317 36.3219C33.1418 36.309 32.9519 36.3219 32.7494 36.309C32.1544 36.27 31.5594 36.2311 30.9644 36.1922C30.572 36.1662 30.1796 36.1533 29.7871 36.1273C29.5213 36.1143 29.2681 36.0884 29.0022 36.0754C28.9263 36.0754 28.8503 36.0495 28.7491 36.0365C28.787 35.9587 28.8124 35.9197 28.8377 35.8808C29.0276 35.6343 29.2301 35.3748 29.42 35.1283C29.8884 34.4926 30.3568 33.8569 30.8252 33.2212C31.3948 32.4558 31.9645 31.6903 32.5342 30.9378C32.8 30.5746 33.0912 30.2243 33.357 29.874C33.5089 29.6664 33.6862 29.4718 33.7874 29.1734C33.7115 29.1864 33.6355 29.2123 33.5596 29.2383C32.8253 29.5756 32.0911 29.9129 31.3569 30.2502C30.8505 30.4838 30.3441 30.7043 29.8504 30.9378C29.1288 31.2622 28.4073 31.5865 27.6983 31.9238C27.2299 32.1444 26.7742 32.352 26.3058 32.5725C26.1666 32.6374 26.04 32.7152 25.8754 32.6244C25.8628 32.5985 25.8628 32.5596 25.8628 32.5206C25.926 32.2871 25.9767 32.0665 26.04 31.833C26.0906 31.6384 26.1666 31.4438 26.2046 31.2362C26.2678 30.9638 26.2932 30.6913 26.3565 30.4189C26.4577 30.0037 26.5717 29.6015 26.6729 29.1864C26.8249 28.5377 26.9894 27.889 27.1413 27.2403C27.192 27.0457 27.23 26.8381 27.2806 26.6435C27.3819 26.2414 27.4958 25.8521 27.5971 25.4629C27.6097 25.424 27.5844 25.3721 27.5591 25.2943C27.3059 25.5148 27.0654 25.7094 26.8502 25.917C26.521 26.2284 26.2046 26.5397 25.8754 26.8511C25.5463 27.1625 25.2171 27.422 24.9007 27.7204C24.4702 28.1096 24.0651 28.5247 23.6347 28.9269C23.4955 29.0566 23.3436 29.1864 23.2043 29.3031C23.1284 29.355 23.0524 29.394 22.9764 29.4199C22.9638 29.3161 22.9511 29.2383 22.9385 29.1734C22.9005 28.6026 23.0018 28.0317 22.8245 27.4739C22.8119 27.422 22.8119 27.3701 22.8245 27.3182C22.8245 26.929 22.8245 26.5527 22.8119 26.1635C22.8245 26.0857 22.8245 25.9949 22.7992 25.917C22.6473 25.6316 22.7106 25.3332 22.6979 25.0348C22.6726 24.6456 22.66 24.2434 22.6346 23.8542C22.622 23.6855 22.584 23.5298 22.584 23.3612C22.5714 23.1277 22.584 22.8812 22.5713 22.6476C22.5587 22.5828 22.546 22.5179 22.5207 22.466L22.4574 22.453C22.0776 23.0628 21.7738 23.6985 21.4194 24.3212C21.0649 24.944 20.7231 25.5667 20.394 26.1895C20.0648 26.8122 19.7104 27.4609 19.3686 28.0836C19.0268 28.7064 18.685 29.3421 18.3052 30.0037C17.9127 29.6145 17.7102 29.1475 17.419 28.7583C17.1279 28.369 16.862 27.9279 16.5962 27.4998C16.3303 27.0717 16.0518 26.6565 15.786 26.2284C15.5202 25.8002 15.229 25.3981 14.9631 24.9699C14.7859 24.6845 14.2036 23.8542 14.0517 23.7634C14.0517 23.8931 14.0517 23.9839 14.0517 24.0877C14.0517 24.5158 14.0897 24.957 14.153 25.3851C14.2289 25.8781 14.1909 26.3711 14.2669 26.8641C14.3428 27.3571 14.3049 27.915 14.4061 28.4339C14.4694 28.8101 14.4568 29.1994 14.4821 29.5756C14.5074 29.861 14.5327 30.1335 14.558 30.4059C14.596 30.7692 14.6213 31.1454 14.6593 31.5217C14.6593 31.5476 14.634 31.5735 14.596 31.6644C14.2416 31.4308 13.9377 31.1584 13.6086 30.9249C13.2795 30.6913 12.9377 30.4448 12.6212 30.1983C12.3047 29.9518 11.9629 29.6924 11.6338 29.4329C11.3046 29.1734 10.9755 28.9269 10.6337 28.6804L9.60828 27.9539C9.27915 27.7074 8.96266 27.4479 8.63352 27.2274C8.30438 27.0068 8.00056 26.6954 7.58281 26.4619C7.59547 26.5397 7.60812 26.6176 7.63344 26.6954C7.87397 27.2403 8.11449 27.7852 8.34236 28.3301C8.62086 28.9788 8.87405 29.6405 9.15255 30.2891C9.38042 30.847 9.6336 31.4049 9.87413 31.9498C10.1147 32.4947 10.3552 33.0655 10.583 33.6234C10.6084 33.7142 10.621 33.805 10.621 33.8958C10.4818 33.8699 10.3678 33.8439 10.2666 33.818C9.98806 33.7661 9.70956 33.7272 9.44371 33.6623C9.17787 33.5974 8.92469 33.5066 8.65884 33.4418C8.16513 33.338 7.67142 33.2342 7.19037 33.1304C6.26625 32.9228 5.32946 32.7152 4.40534 32.5206C4.34204 32.5206 4.27874 32.5206 4.22811 32.5336L4.19013 32.6114C4.2914 32.7023 4.40534 32.7931 4.50661 32.8839C4.93702 33.2991 5.3801 33.7142 5.81051 34.1423C6.41816 34.7391 7.01314 35.3359 7.62078 35.9327C8.30438 36.6073 8.97532 37.295 9.65892 37.9696C9.7602 38.0734 9.88679 38.1512 9.9754 38.255C10.064 38.3588 10.026 38.4496 9.89945 38.4756C9.45637 38.5664 9.0133 38.6442 8.57023 38.735C8.12715 38.8259 7.68408 38.9167 7.22835 39.0075C6.98782 39.0594 6.75996 39.1113 6.51943 39.1632C6.21561 39.2151 5.89913 39.241 5.5953 39.3189C5.20287 39.4097 4.82309 39.5394 4.418 39.5654C4.38002 39.5654 4.34204 39.5783 4.30406 39.5913L3.36728 39.7989C3.16473 39.8378 2.96218 39.8897 2.74698 39.9286C2.44315 39.9805 2.13933 40.0324 1.83551 40.0973C1.82285 40.0973 1.82285 40.1362 1.82285 40.1751C2.35454 40.3697 2.89889 40.5773 3.44323 40.7589C4.0762 40.9795 4.72182 41.1871 5.35478 41.4076C5.77253 41.5503 6.17763 41.732 6.58273 41.8747C7.25367 42.1082 7.92461 42.3288 8.59555 42.5623C8.69682 42.6142 8.79809 42.6661 8.89937 42.7439C8.77278 42.8218 8.70948 42.8737 8.62086 42.9255C7.86131 43.3796 7.10176 43.8337 6.3422 44.3008C5.3168 44.9235 4.27874 45.5592 3.25335 46.1819C3.17739 46.2338 3.11409 46.2987 3.06346 46.3636C3.12675 46.3895 3.15207 46.4025 3.16473 46.4025C3.45589 46.2598 3.77237 46.2987 4.08886 46.2857C4.16481 46.2857 4.22811 46.2728 4.2914 46.2598C4.43065 46.2338 4.55725 46.1949 4.6965 46.1819C4.88639 46.169 5.10159 46.2079 5.26616 46.143C5.50669 46.0392 5.73456 46.0652 5.97508 46.0392C6.08902 46.0263 6.20295 46.0263 6.30422 46.0133C6.75996 45.9484 7.21569 45.8706 7.67142 45.8057C7.96258 45.7668 8.26641 45.7798 8.57023 45.7019C8.97532 45.5981 9.40574 45.5981 9.83615 45.5462C10.064 45.5203 10.2919 45.4943 10.5198 45.4554C10.6843 45.4035 10.8615 45.4165 11.0261 45.4684L5.97508 52.1369L6.01306 52.1888C8.54491 50.9563 11.0641 49.6849 13.6466 48.4523C13.6466 48.647 13.6846 48.8026 13.6339 48.9324C13.4947 49.3086 13.52 49.7238 13.4314 50.113C13.3428 50.5022 13.3301 50.8914 13.2795 51.2806C13.2162 51.7347 13.1276 52.1758 13.0516 52.6299C12.9756 53.058 12.925 53.4861 12.8491 53.9143C12.7731 54.3684 12.6971 54.8224 12.6338 55.2765C12.5832 55.6268 12.5452 55.9771 12.4946 56.3144C12.4946 56.3404 12.4819 56.3533 12.4819 56.3793C12.33 56.6258 12.4313 56.8982 12.3807 57.1707C13.1909 56.2495 13.9377 55.2895 14.71 54.3424L17.0519 51.4363C17.1152 51.592 17.1659 51.6958 17.2038 51.8125C17.2671 52.0201 17.3178 52.2277 17.3811 52.4353C17.5836 53.071 17.7988 53.7067 18.0014 54.3424C18.052 54.524 18.1153 54.6927 18.1659 54.8614C18.3558 55.4322 18.5331 55.9901 18.7229 56.5609C18.8116 56.8334 18.8495 57.1318 19.0647 57.3912C19.3306 56.6258 19.5838 55.8863 19.8496 55.1468C20.0901 54.4592 20.3307 53.7716 20.5585 53.084C20.7231 52.591 20.8877 52.085 21.0522 51.579C21.0649 51.5401 21.1029 51.5012 21.1535 51.4882C21.2042 51.4882 21.2548 51.5141 21.2801 51.5401C21.4953 51.8255 21.7105 52.1109 21.9257 52.3964C22.3055 52.9023 22.6979 53.4083 23.0777 53.9143C23.5335 54.5111 24.0018 55.1079 24.4702 55.7047C24.9639 56.3404 25.4703 56.9761 25.9767 57.6118C25.9893 57.6248 26.0273 57.6377 26.0906 57.6637C26.1159 57.4172 26.1033 57.1577 26.0653 56.9112C26.0273 56.7685 26.002 56.6258 26.002 56.4831C25.9893 56.1717 25.9893 55.8603 25.964 55.549C25.9387 55.2376 25.8881 54.9133 25.8628 54.5889C25.8374 54.3294 25.9007 54.07 25.7615 53.8235C25.7362 53.7586 25.7362 53.6808 25.7488 53.6159C25.7488 53.3305 25.7488 53.058 25.7362 52.7726C25.7235 52.6688 25.7108 52.565 25.6982 52.4612C25.6729 52.3315 25.6475 52.2018 25.6349 52.072C25.5842 51.2676 25.5463 50.4633 25.4956 49.6589C25.4956 49.607 25.483 49.5551 25.4703 49.5032C25.3437 49.1659 25.4197 48.8026 25.3564 48.4653C25.3564 48.4523 25.3817 48.4394 25.4197 48.4134C25.483 48.4264 25.5336 48.4523 25.5969 48.4913C26.1539 48.8545 26.7109 49.2308 27.2679 49.594L29.977 51.3974C30.6479 51.8515 31.3189 52.3055 32.0025 52.7466C32.0911 52.7985 32.1797 52.8894 32.3063 52.8504C32.319 52.8115 32.319 52.7596 32.3063 52.7207C32.1038 52.1758 31.8886 51.6309 31.6733 51.086C31.3315 50.2038 30.9771 49.3346 30.6353 48.4523C30.2682 47.5312 29.9011 46.5971 29.5339 45.676C29.458 45.4943 29.3947 45.3127 29.3187 45.1311C29.2428 45.0013 29.2681 44.8327 29.3694 44.7289C30.4707 44.7289 31.5974 44.7289 32.7241 44.7289C33.8507 44.7289 34.9774 44.7289 36.1167 44.677C35.8256 44.3656 35.4078 44.3137 35.066 44.1321C34.7242 43.9505 34.3191 43.8078 33.952 43.6521C33.5849 43.4964 33.2304 43.3407 32.8633 43.185L31.762 42.705C31.3948 42.5493 31.0151 42.4066 30.6479 42.225C30.2808 42.0433 29.8251 41.9525 29.4453 41.6671Z" fill="#BE8204"/>
<path d="M29.4453 41.6671C29.8251 41.9525 30.2175 42.0433 30.5846 42.212C30.9518 42.3806 31.3189 42.5363 31.6987 42.692L32.8 43.172C33.1671 43.3277 33.5216 43.4834 33.8887 43.6391C34.2558 43.7948 34.6483 43.9245 35.0027 44.1191C35.3572 44.3137 35.7623 44.3526 36.0534 44.664C34.9141 44.7289 33.7874 44.7159 32.6608 44.7159C31.5341 44.7159 30.4201 44.7159 29.3061 44.7159C29.2048 44.8327 29.1921 44.9883 29.2554 45.1181C29.3187 45.2997 29.3947 45.4813 29.4706 45.663C29.8377 46.5841 30.2049 47.5182 30.572 48.4393C30.9138 49.3216 31.2682 50.1908 31.61 51.073C31.8252 51.6179 32.0405 52.1628 32.243 52.7077C32.2557 52.7466 32.2557 52.7985 32.243 52.8374C32.1038 52.8764 32.0151 52.7855 31.9392 52.7336C31.2682 52.2925 30.5973 51.8385 29.9137 51.3844L27.2046 49.594C26.6476 49.2307 26.0906 48.8545 25.5336 48.4912C25.483 48.4653 25.4197 48.4393 25.3564 48.4134C25.3311 48.4393 25.2931 48.4653 25.2931 48.4653C25.3437 48.8026 25.2678 49.1659 25.407 49.5032C25.4197 49.5551 25.4323 49.607 25.4323 49.6589C25.483 50.4632 25.5209 51.2676 25.5716 52.072C25.5842 52.2017 25.6096 52.3315 25.6349 52.4612C25.6602 52.565 25.6729 52.6688 25.6729 52.7855C25.6855 53.071 25.6855 53.3434 25.6855 53.6288C25.6729 53.7067 25.6855 53.7715 25.6982 53.8364C25.8374 54.0829 25.7741 54.3424 25.7994 54.5889C25.8248 54.9132 25.8754 55.2246 25.9007 55.5489C25.926 55.8733 25.9134 56.1717 25.9387 56.483C25.9514 56.6258 25.964 56.7685 26.002 56.9112C26.0526 57.1577 26.0526 57.4172 26.0273 57.6637C25.964 57.6377 25.926 57.6247 25.9134 57.6118C25.407 56.976 24.9133 56.3403 24.4069 55.7046C23.9385 55.1078 23.4701 54.511 23.0144 53.9142C22.622 53.4083 22.2422 52.9023 21.8624 52.3963C21.6472 52.1109 21.432 51.8255 21.2168 51.5401C21.1915 51.5011 21.1408 51.4752 21.0902 51.4882C21.0522 51.5011 21.0143 51.5401 21.0016 51.592C20.837 52.085 20.6851 52.5909 20.5079 53.0969C20.28 53.7845 20.0395 54.4721 19.799 55.1597C19.5458 55.8992 19.2799 56.6387 19.0141 57.4042C18.7989 57.1577 18.7736 56.8593 18.6723 56.5739C18.4824 56.016 18.2925 55.4451 18.1153 54.8743C18.0646 54.6927 18.0014 54.524 17.9507 54.3554C17.7482 53.7196 17.533 53.0839 17.3304 52.4482C17.2671 52.2406 17.2165 52.0331 17.1532 51.8255C17.1152 51.7087 17.0646 51.6049 17.0013 51.4492L14.6973 54.3424C13.9377 55.2895 13.1782 56.2365 12.368 57.1707C12.4186 56.8982 12.3174 56.6258 12.4693 56.3793C12.4819 56.3663 12.4819 56.3403 12.4819 56.3144C12.5326 55.9641 12.5705 55.6138 12.6212 55.2765C12.6845 54.8224 12.7731 54.3683 12.8364 53.9142C12.8997 53.4861 12.963 53.058 13.0389 52.6299C13.1149 52.1758 13.1908 51.7347 13.2668 51.2806C13.3301 50.8914 13.3301 50.4892 13.4187 50.1129C13.5073 49.7367 13.482 49.3086 13.6213 48.9323C13.6719 48.8156 13.6339 48.6599 13.6339 48.4523C11.0514 49.6848 8.5449 50.9562 6.00039 52.1887L5.96241 52.1369L11.0008 45.4684C10.8362 45.4165 10.659 45.4035 10.4944 45.4554C10.2666 45.4943 10.0387 45.5203 9.81082 45.5462C9.39307 45.5981 8.94999 45.5851 8.5449 45.7019C8.24108 45.7797 7.94991 45.7668 7.64609 45.8057C7.19036 45.8705 6.73463 45.9484 6.27889 46.0133C6.16496 46.0262 6.05103 46.0262 5.94975 46.0392C5.70923 46.0522 5.48136 46.0392 5.24084 46.143C5.07627 46.2079 4.86106 46.156 4.67117 46.1819C4.53192 46.1949 4.40533 46.2338 4.26607 46.2598C4.20278 46.2727 4.12682 46.2857 4.06353 46.2857C3.7597 46.2987 3.44322 46.2598 3.1394 46.4025C3.12674 46.4025 3.10142 46.3895 3.03813 46.3635C3.10142 46.2987 3.16472 46.2338 3.22802 46.1819C4.26607 45.5592 5.29147 44.9235 6.32953 44.3007C7.08908 43.8337 7.84864 43.3796 8.60819 42.9255C8.68415 42.8736 8.7601 42.8217 8.8867 42.7439C8.79808 42.679 8.69681 42.6141 8.58288 42.5623C7.91194 42.3287 7.241 42.1082 6.57006 41.8746C6.1523 41.7319 5.74721 41.5503 5.34211 41.4076C4.70915 41.187 4.06353 40.9795 3.43056 40.7589C2.88622 40.5773 2.35453 40.3697 1.81018 40.1751C1.82284 40.1362 1.82284 40.0972 1.82284 40.0972C2.12666 40.0453 2.43048 39.9935 2.73431 39.9286C2.93685 39.8897 3.15206 39.8507 3.35461 39.7988L4.30405 39.5913C4.34203 39.5783 4.38001 39.5653 4.41798 39.5653C4.82308 39.5523 5.20286 39.4096 5.59529 39.3188C5.89912 39.254 6.2156 39.228 6.51942 39.1631C6.75994 39.1242 6.98781 39.0593 7.22834 39.0075C7.67141 38.9166 8.11448 38.8258 8.57022 38.735C9.02595 38.6442 9.45636 38.5663 9.89944 38.4755C10.026 38.4496 10.064 38.3458 9.97539 38.255C9.88678 38.1642 9.76019 38.0733 9.65891 37.9696C8.97531 37.2949 8.30437 36.6073 7.63343 35.9327C7.03845 35.3359 6.4308 34.7391 5.82316 34.1423C5.39275 33.7272 4.96233 33.312 4.51926 32.8968C4.41798 32.793 4.30405 32.7152 4.20278 32.6244L4.24076 32.5465C4.30405 32.5336 4.36735 32.5336 4.41798 32.5336C5.34211 32.7411 6.27889 32.9487 7.20302 33.1433C7.69673 33.2471 8.19044 33.3379 8.67149 33.4547C8.93733 33.5196 9.19052 33.6104 9.45636 33.6753C9.72221 33.7401 10.0134 33.779 10.2792 33.8309C10.3805 33.8569 10.4944 33.8699 10.6337 33.9088C10.6337 33.818 10.621 33.7272 10.5957 33.6363C10.3678 33.0785 10.1273 32.5206 9.88678 31.9627C9.64625 31.4049 9.40573 30.86 9.1652 30.2891C8.8867 29.6404 8.63351 28.9788 8.36767 28.3171C8.1398 27.7722 7.88662 27.2273 7.65875 26.6824C7.63343 26.6046 7.62077 26.5267 7.59545 26.4489C8.01321 26.6824 8.30437 26.9808 8.63351 27.2143C8.96265 27.4479 9.29179 27.6944 9.62093 27.9409L10.621 28.6934C10.9502 28.9399 11.292 29.1864 11.6211 29.4458C11.9502 29.7053 12.2794 29.9648 12.6085 30.2113C12.9377 30.4578 13.2668 30.6913 13.5959 30.9378C13.9251 31.1843 14.2416 31.4438 14.5834 31.6773C14.6213 31.5865 14.6467 31.5605 14.6467 31.5346C14.6213 31.1584 14.5834 30.7951 14.5454 30.4189C14.5201 30.1464 14.4947 29.861 14.4694 29.5885C14.4441 29.2123 14.4694 28.8101 14.3935 28.4469C14.3049 27.9279 14.3428 27.383 14.2542 26.877C14.1656 26.3711 14.2162 25.8781 14.1403 25.398C14.077 24.9699 14.039 24.5288 14.039 24.1007C14.039 23.9969 14.039 23.9061 14.039 23.7763C14.1909 23.8671 14.7732 24.7104 14.9505 24.9829C15.2163 25.411 15.4948 25.8132 15.7733 26.2413C16.0518 26.6695 16.3177 27.0846 16.5835 27.5127C16.8494 27.9409 17.1152 28.369 17.4064 28.7712C17.6975 29.1734 17.9001 29.6404 18.2925 30.0167C18.6596 29.342 19.0014 28.7193 19.3559 28.0966C19.7104 27.4738 20.0395 26.8381 20.3813 26.2024C20.7231 25.5667 21.0649 24.9569 21.4067 24.3472C21.7485 23.7374 22.065 23.0757 22.4447 22.4789L22.508 22.4919C22.5334 22.5568 22.546 22.6087 22.5587 22.6735C22.5713 22.9071 22.5587 23.1536 22.5713 23.3871C22.584 23.5558 22.6093 23.7114 22.622 23.8801C22.6473 24.2693 22.66 24.6585 22.6853 25.0607C22.6979 25.3591 22.6346 25.6575 22.7865 25.9429C22.8119 26.0208 22.8119 26.1116 22.7992 26.1894C22.7992 26.5786 22.8119 26.9549 22.8119 27.3441C22.7992 27.396 22.7992 27.4479 22.8119 27.4998C22.9891 28.0576 22.8878 28.6285 22.9258 29.1993C22.9258 29.2642 22.9385 29.342 22.9638 29.4458C23.0397 29.4199 23.1157 29.368 23.1916 29.3291C23.3436 29.2123 23.4828 29.0826 23.6221 28.9528C24.0398 28.5506 24.4576 28.1485 24.888 27.7463C25.2045 27.4479 25.5463 27.1625 25.8627 26.877C26.1792 26.5916 26.5084 26.2543 26.8375 25.9429C27.0654 25.7353 27.2932 25.5407 27.5464 25.3202C27.5591 25.398 27.5971 25.4499 27.5844 25.4888C27.4831 25.891 27.3692 26.2802 27.2679 26.6824C27.2173 26.877 27.1666 27.0846 27.1287 27.2792C26.9768 27.9279 26.8248 28.5766 26.6603 29.2253C26.559 29.6404 26.4451 30.0426 26.3438 30.4578C26.2805 30.7302 26.2552 31.0027 26.1919 31.2751C26.1539 31.4697 26.0779 31.6643 26.0273 31.8719C25.964 32.1054 25.9007 32.326 25.8501 32.5595C25.8501 32.5984 25.8501 32.6244 25.8627 32.6633C26.0147 32.7541 26.1539 32.6763 26.2932 32.6114C26.7615 32.3909 27.2173 32.1703 27.6857 31.9627C28.4073 31.6384 29.1288 31.314 29.8377 30.9767C30.3441 30.7432 30.8505 30.5226 31.3442 30.2891C32.0784 29.9518 32.8127 29.6145 33.5469 29.2772C33.6229 29.2512 33.6988 29.2253 33.7748 29.2123C33.6735 29.5107 33.4963 29.7053 33.3444 29.9129C33.0785 30.2761 32.7873 30.6264 32.5215 30.9767C31.9518 31.7422 31.3822 32.4946 30.8125 33.2601C30.3441 33.8958 29.8757 34.5315 29.4073 35.1672C29.2174 35.4267 29.0276 35.6732 28.825 35.9197C28.7997 35.9586 28.7744 35.9976 28.7364 36.0754C28.8377 36.0884 28.9136 36.1143 28.9896 36.1143C29.2554 36.1403 29.5086 36.1532 29.7744 36.1662C30.1669 36.1922 30.5593 36.2051 30.9518 36.2311C31.5467 36.27 32.1417 36.3089 32.7367 36.3478C32.9266 36.3608 33.1165 36.3478 33.319 36.3608C33.6355 36.3868 33.9647 36.4387 34.2811 36.4516C34.6483 36.4776 35.0154 36.4646 35.3698 36.4906C35.9015 36.5295 36.4332 36.5684 36.9649 36.6203C36.9776 36.6203 36.9902 36.6462 37.0282 36.6722C36.9902 36.7371 36.9396 36.7889 36.8763 36.8408C36.1041 37.3468 35.3319 37.8528 34.5596 38.3588C34.0406 38.6961 33.5216 39.0204 33.0026 39.3577C32.6734 39.5783 32.3443 39.7989 32.0278 40.0194C31.8252 40.1491 31.6227 40.2919 31.4202 40.4216L29.8631 41.4335L29.4453 41.6671ZM25.8121 33.0914C25.7994 33.0395 25.7994 32.9747 25.7741 32.9487C25.5463 32.7282 25.3057 32.4946 25.0652 32.2871C24.888 32.1444 24.6981 32.0276 24.5082 31.9238C24.0272 31.6773 23.5461 31.4178 23.0397 31.1973C22.6473 31.0416 22.2422 30.9119 21.8371 30.8081C21.4826 30.7043 21.1155 30.7562 20.7864 30.6005C19.9256 30.6394 19.0647 30.4967 18.1912 30.6913C17.7988 30.7821 17.419 30.847 17.0266 30.9508C16.3177 31.1454 15.6341 31.4438 15.0011 31.82C14.5327 32.0795 14.0896 32.3779 13.6845 32.7282C13.3048 33.0655 12.9503 33.4417 12.5959 33.805C12.0515 34.3758 11.5958 35.0245 11.254 35.7381C10.9375 36.3738 10.6717 37.0484 10.4818 37.736C10.2919 38.3717 10.2539 39.0204 10.1526 39.6561C10.0893 40.1491 10.0893 40.6551 10.1653 41.1481C10.1906 41.5114 10.2412 41.8617 10.3045 42.2249C10.3931 42.6271 10.5197 43.0163 10.6337 43.4055C10.8236 44.0283 11.0767 44.6251 11.3932 45.1829C11.7224 45.7668 12.1148 46.3246 12.5579 46.8306C12.8997 47.2328 13.2795 47.609 13.6972 47.9334C14.077 48.2058 14.4314 48.5172 14.8365 48.7507C15.3809 49.0751 15.9506 49.3475 16.5455 49.5681C16.9633 49.7108 17.3937 49.8405 17.8241 49.9443C18.014 50.0092 18.2166 50.0611 18.4064 50.074C19.4192 50.0611 20.4319 50.2167 21.432 49.9573C21.8371 49.8535 22.2675 49.7886 22.66 49.6329C23.3436 49.3864 24.0145 49.0621 24.6348 48.6858C25.4197 48.1799 26.1286 47.5571 26.7489 46.8566C27.2426 46.3117 27.6604 45.7019 28.0022 45.0402C28.2174 44.651 28.3946 44.2359 28.5718 43.8207C28.6098 43.7169 28.6478 43.6131 28.6731 43.4964C28.7744 43.198 28.8756 42.8996 28.9516 42.5882C29.0276 42.2249 29.0529 41.8617 29.0908 41.4854C29.0908 41.4465 29.1035 41.4076 29.1162 41.3687C29.1541 41.1741 29.1795 40.9665 29.2048 40.7589C29.2174 40.4216 29.2048 40.0713 29.2048 39.734C29.2048 39.6561 29.1921 39.5653 29.1795 39.4875C29.1035 39.0593 29.0402 38.6442 28.9643 38.2161C28.9136 37.9566 28.8503 37.6971 28.7744 37.4376C28.6858 37.1392 28.5845 36.8538 28.4705 36.5684C28.306 36.1792 28.1541 35.79 27.8882 35.4527C27.6097 35.0894 27.3439 34.7132 27.116 34.311C27.0147 34.1164 26.8881 33.9477 26.7362 33.792C26.521 33.5844 26.3185 33.3769 26.0906 33.1952C26.0147 33.1304 25.9134 33.1044 25.8121 33.0914Z" fill="#FECA08"/>
<path d="M25.8121 33.0915C25.9134 33.1175 26.0147 33.1564 26.1033 33.2083C26.3311 33.4029 26.5337 33.6105 26.7489 33.8051C26.9008 33.9608 27.0274 34.1294 27.1287 34.324C27.3565 34.7262 27.6097 35.1024 27.9009 35.4657C28.1667 35.803 28.3186 36.1922 28.4832 36.5814C28.5972 36.8669 28.6984 37.1523 28.787 37.4507C28.863 37.7102 28.9263 37.9696 28.9769 38.2291C29.0529 38.6443 29.1288 39.0724 29.1921 39.5005C29.2048 39.5784 29.2175 39.6692 29.2175 39.747C29.2175 40.0843 29.2301 40.4346 29.2175 40.7719C29.2048 40.9795 29.1668 41.1741 29.1288 41.3817C29.1288 41.4206 29.1162 41.4596 29.1035 41.4985C29.0529 41.8617 29.0276 42.238 28.9643 42.6012C28.8883 42.9126 28.7997 43.211 28.6858 43.5094C28.6604 43.6132 28.6225 43.73 28.5845 43.8337C28.3946 44.2489 28.23 44.6641 28.0148 45.0533C27.673 45.7149 27.2426 46.3247 26.7616 46.8696C26.1413 47.5702 25.4197 48.1929 24.6475 48.6989C24.0145 49.0881 23.3562 49.3995 22.6726 49.646C22.2802 49.8017 21.8498 49.8535 21.4447 49.9703C20.4446 50.2298 19.4319 50.0611 18.4191 50.0871C18.2166 50.0741 18.0267 50.0222 17.8368 49.9573C17.4064 49.8535 16.976 49.7368 16.5582 49.5811C15.9632 49.3605 15.3936 49.0881 14.8492 48.7638C14.4568 48.5173 14.0897 48.2189 13.7099 47.9464C13.2921 47.6221 12.9124 47.2458 12.5706 46.8436C12.1275 46.3377 11.735 45.7798 11.3932 45.183C11.0768 44.6251 10.8236 44.0284 10.6337 43.4056C10.5198 43.0164 10.3805 42.6272 10.3045 42.225C10.2413 41.8747 10.1906 41.5115 10.1653 41.1482C10.102 40.6552 10.0893 40.1492 10.1526 39.6562C10.2539 39.0205 10.3045 38.3718 10.4818 37.7361C10.6717 37.0485 10.9375 36.3739 11.254 35.7381C11.6084 35.0246 12.0642 34.3759 12.6085 33.8051C12.963 33.4418 13.3174 33.0656 13.6972 32.7282C14.1023 32.378 14.5454 32.0796 15.0138 31.8201C15.6467 31.4439 16.3303 31.1584 17.0393 30.9508C17.419 30.8471 17.8115 30.7692 18.2039 30.6914C19.0647 30.4968 19.9382 30.6395 20.7991 30.6006C21.1282 30.7562 21.508 30.7043 21.8498 30.8081C22.2549 30.9119 22.66 31.0417 23.0524 31.1973C23.5461 31.4179 24.0398 31.6774 24.5209 31.9239C24.7234 32.0147 24.9007 32.1315 25.0779 32.2742C25.3311 32.4817 25.5589 32.7023 25.7868 32.9358C25.8121 32.9747 25.7995 33.0396 25.8121 33.0915C25.7235 33.0526 25.6475 33.0007 25.5589 32.9358C24.9133 32.3909 24.2044 31.9498 23.4448 31.5995C22.9511 31.366 22.4321 31.1844 21.9131 31.0546C21.4067 30.9379 20.9003 30.8081 20.3686 30.8211C20.2927 30.8211 20.2294 30.8081 20.1534 30.8081L18.2799 30.8471C18.2419 30.8471 18.2039 30.86 18.1659 30.86C17.7229 30.9768 17.2671 31.0806 16.8241 31.2233C16.5076 31.3271 16.2164 31.4698 15.8999 31.5995L15.786 31.6255L15.7733 31.6385L15.6467 31.7422L15.5455 31.7682C15.4695 31.7552 15.4062 31.7682 15.4062 31.859C14.9758 32.0147 14.634 32.2742 14.2669 32.5336L14.1783 32.6115C14.1656 32.6245 14.153 32.6245 14.1403 32.6374L14.039 32.6893L13.8871 32.8061L13.8365 32.871C13.444 33.1564 13.0896 33.4937 12.7731 33.857C12.1148 34.6094 11.5705 35.4527 11.1527 36.3609C11.0388 36.6463 10.9375 36.9317 10.8616 37.2172L10.7729 37.3599C10.7223 37.6064 10.659 37.8529 10.6084 38.1123C10.5324 38.4756 10.4185 38.8389 10.3932 39.2021C10.3552 39.9416 10.3805 40.6941 10.3805 41.4336C10.3805 41.5633 10.3932 41.6801 10.4311 41.8098C10.4944 42.0953 10.5577 42.3937 10.621 42.6791C10.659 42.9126 10.7223 43.1461 10.7856 43.3667C10.9755 43.9116 11.2034 44.4435 11.4819 44.9625C12.4186 46.688 13.8491 48.0891 15.5708 48.9584C15.824 49.0881 16.0772 49.1659 16.343 49.2697C16.381 49.3605 16.4823 49.4124 16.5835 49.3865C16.8367 49.4903 17.1026 49.5681 17.3684 49.633C17.9128 49.7498 18.4571 49.8406 19.0141 49.8795C20.2294 49.9703 21.4573 49.8146 22.6093 49.4124C23.0018 49.2697 23.3815 49.114 23.7613 48.9324C24.3563 48.634 24.9133 48.2708 25.4323 47.8556C26.0273 47.3756 26.5717 46.8307 27.0401 46.2079C27.3439 45.7798 27.6224 45.3257 27.8756 44.8587C28.1541 44.3916 28.3566 43.8986 28.5085 43.3797C28.5972 43.0683 28.6604 42.744 28.7617 42.4326C28.8883 42.0174 28.9516 41.5893 28.9769 41.1612C29.0022 40.6163 28.9896 40.0584 28.9769 39.5135C28.9769 39.3967 28.9643 39.2929 28.9389 39.1762C28.8757 38.8389 28.8124 38.4886 28.7364 38.1513C28.6731 37.788 28.5718 37.4377 28.4579 37.0874C28.2174 36.4387 27.9136 35.816 27.5591 35.2322C27.2426 34.7132 26.8755 34.2332 26.4451 33.7921C26.2172 33.5715 26.0273 33.325 25.8121 33.0915Z" fill="#BE8204"/>
<path d="M16.0645 31.9757C16.3556 31.846 16.6468 31.7033 16.9506 31.6125C17.3684 31.4827 17.7988 31.379 18.2292 31.2752C18.2672 31.2622 18.3052 31.2622 18.3431 31.2622L20.1408 31.2233C20.2041 31.2233 20.28 31.2362 20.3433 31.2362C20.8497 31.2362 21.3307 31.366 21.8244 31.4698C22.3308 31.5865 22.8245 31.7682 23.2929 31.9887C24.0271 32.3131 24.6981 32.7412 25.3184 33.2731C25.3943 33.325 25.4703 33.3769 25.5589 33.4288C25.7615 33.6494 25.9514 33.8829 26.1666 34.1034C26.5717 34.5186 26.9261 34.9856 27.2173 35.4786C27.5717 36.0365 27.8502 36.6333 28.0908 37.256C28.2047 37.5934 28.2933 37.9307 28.3566 38.281C28.4326 38.6053 28.4832 38.9426 28.5465 39.267C28.5718 39.3708 28.5845 39.4875 28.5845 39.5913C28.5845 40.1232 28.6098 40.6422 28.5845 41.1741C28.5718 41.5893 28.4959 42.0044 28.3819 42.3936C28.2933 42.692 28.23 43.0034 28.1414 43.3018C28.0021 43.7948 27.7996 44.2748 27.5338 44.7159C27.2932 45.17 27.0147 45.5981 26.7236 46.0133C26.2805 46.5971 25.7615 47.129 25.1918 47.5831C24.6981 47.9853 24.1664 48.3226 23.5967 48.608C23.2296 48.7767 22.8625 48.9324 22.4954 49.0621C21.394 49.4513 20.2167 49.607 19.0521 49.5162C18.5204 49.4643 18.0013 49.3865 17.4697 49.2697C17.2165 49.2048 16.9633 49.127 16.7101 49.0232C16.6721 48.8935 16.5709 48.8935 16.4822 48.9194C16.2417 48.8156 15.9885 48.7378 15.748 48.621C14.0896 47.7907 12.7098 46.4544 11.8236 44.7938C11.5704 44.3008 11.3426 43.7948 11.1654 43.2629C11.1021 43.0423 11.0388 42.8218 11.0008 42.6012C10.9375 42.3288 10.8742 42.0433 10.8109 41.7709C10.7856 41.6541 10.7729 41.5374 10.7729 41.4206C10.7729 40.7071 10.7476 39.9935 10.7856 39.2799C10.7982 38.9297 10.9122 38.5923 10.9881 38.242C11.0388 37.9955 11.1021 37.762 11.1527 37.5285L11.2286 37.3858C11.3046 37.1004 11.4059 36.8279 11.5198 36.5684C11.9249 35.6992 12.4439 34.8819 13.0769 34.1683C13.3807 33.818 13.7225 33.5066 14.1023 33.2212L14.1529 33.1693L14.2922 33.0526L14.3935 33.0007C14.4061 32.9877 14.4061 32.9747 14.4314 32.9747L14.5201 32.9098C14.8619 32.6633 15.2037 32.4168 15.6087 32.2741L15.748 32.1833L15.8493 32.1574C15.9252 32.1703 15.9759 32.1444 15.9759 32.0536H15.9885L16.0645 31.9757Z" fill="url(#paint0_radial)"/>
<path d="M13.2035 35.7511C13.1022 35.8289 12.9883 35.8938 12.8997 35.9846C12.6339 36.2181 12.5073 36.5554 12.3047 36.8408L12.2921 37.1003L12.5326 36.8149C13.0263 36.0624 13.6972 35.79 14.4568 36.0495C14.8619 36.1662 15.191 36.4906 15.305 36.9187C15.3429 37.0484 15.3936 37.1911 15.4442 37.3209C15.4948 37.4506 15.5455 37.5544 15.6214 37.7231C15.6721 37.3728 15.6214 37.0095 15.4569 36.6852C15.4062 36.5684 15.3682 36.4516 15.3176 36.3478C15.0264 35.777 14.3049 35.5046 13.7985 35.5305C13.6593 35.5564 13.52 35.5954 13.3934 35.6343" fill="#272425"/>
<path d="M10.8489 37.243L10.7603 37.3857L10.8489 37.243Z" fill="#272425"/>
<path d="M14.1403 32.6504L14.039 32.7023L14.1403 32.6504Z" fill="#272425"/>
<path d="M14.2669 32.5466L14.1783 32.6245L14.2669 32.5466Z" fill="#272425"/>
<path d="M15.9126 31.6125L15.7986 31.6384L15.9126 31.6125Z" fill="#272425"/>
<path d="M13.9004 32.8319L13.8491 32.8968L13.9004 32.8319Z" fill="#272425"/>
<path d="M13.4187 37.4118C13.5073 37.3209 13.6339 37.269 13.7478 37.2171C14.0263 37.1523 14.3048 37.282 14.4188 37.5545C14.4694 37.6583 14.5074 37.762 14.5327 37.8788C14.634 38.5664 14.5707 39.2281 14.1909 39.8378C14.0896 39.9935 13.9377 40.1103 13.7605 40.1752C13.6592 40.2011 13.5453 40.1881 13.444 40.1492C13.2035 40.0584 13.0263 39.8378 12.9756 39.5784C12.9756 39.5784 12.8744 39.1502 12.9123 38.787C12.925 38.6183 13.0389 38.1253 13.0389 38.1253C13.0389 38.1253 13.1402 37.8269 13.1908 37.7361C13.2415 37.6323 13.3427 37.4766 13.4187 37.4118ZM13.7858 37.6453C13.5833 37.6583 13.4947 37.7101 13.4314 37.8269C13.2794 38.1123 13.2794 38.4237 13.2921 38.748C13.5706 38.774 13.6592 38.7221 13.6719 38.5405C13.6719 38.3199 13.7099 38.0864 13.7858 37.8788C13.7858 37.801 13.7985 37.7231 13.7858 37.6453Z" fill="#272425"/>
<path d="M19.8876 40.4476C19.8749 40.5254 19.8496 40.6033 19.8243 40.6811C19.761 40.8238 19.6597 40.9016 19.4951 40.8368L19.5711 40.5643C19.6091 40.4865 19.6217 40.4216 19.5458 40.3827C19.4445 40.3568 19.3559 40.3438 19.2546 40.3308C18.9381 40.3178 18.6217 40.3308 18.3178 40.3178C17.9634 40.3178 17.6089 40.2011 17.3051 40.0065C17.2291 39.9675 16.8367 39.5913 16.8114 39.3708C16.8114 39.3708 16.6595 38.8907 16.6595 38.7221C16.6341 38.3329 16.7228 37.9436 16.9 37.5934C17.2671 36.8668 17.8748 36.4127 18.5837 36.0625C18.8875 35.9068 19.2166 35.79 19.5458 35.7381C19.6344 35.7251 19.7103 35.7122 19.7483 35.8419C19.5331 36.0235 19.2546 36.0754 19.0014 36.1792C18.3685 36.4387 17.8115 36.789 17.419 37.3598C17.1658 37.7231 16.9759 38.1253 16.9886 38.5794C17.0013 39.1372 17.2165 39.6173 17.7355 39.8767C17.8241 39.9156 17.9127 39.9286 18.0013 39.9416C18.5077 39.9805 19.0141 40.0194 19.5078 40.0324C19.8496 40.0584 19.8623 40.0584 19.8876 40.4476Z" fill="#272425"/>
<path d="M15.3049 36.9188C15.1783 36.5036 14.8619 36.1793 14.4568 36.0495C13.6972 35.7901 13.0263 36.0625 12.5326 36.815L12.3047 36.8409C12.4946 36.5555 12.6338 36.2182 12.8997 35.9847C13.0009 35.8939 13.1022 35.829 13.2035 35.7511L13.3934 35.6474C13.52 35.5955 13.6592 35.5565 13.7985 35.5436C14.3048 35.5176 15.0264 35.7901 15.3176 36.3609C15.3682 36.4647 15.4062 36.5815 15.4568 36.6982C15.4189 36.7761 15.5201 36.9577 15.3049 36.9188Z" fill="#272425"/>
<path d="M13.3934 35.6473L13.2035 35.7511L13.3934 35.6473Z" fill="#272425"/>
<path d="M26.2805 43.4445C25.9261 43.3537 25.7235 43.0683 25.4703 42.7958C25.4197 42.8866 25.3564 42.9645 25.3058 43.0423C24.7487 44.0802 24.0019 44.9884 23.0904 45.7149C22.4701 46.2079 21.7485 46.5712 20.9763 46.7658C20.2674 46.9604 19.5205 47.0123 18.7736 46.9215C18.1913 46.8436 17.6089 46.662 17.0772 46.4025C16.343 46.0393 15.7607 45.5073 15.1657 44.9495C14.9125 44.703 14.7353 44.4046 14.5074 44.1451C14.1276 43.678 13.7858 43.185 13.482 42.6661C13.4567 42.6272 13.4314 42.6012 13.3934 42.5753C13.1022 42.7439 12.8364 42.9126 12.5706 43.0683C12.5199 43.0942 12.444 43.0553 12.3553 43.0553C12.3933 42.9126 12.4946 42.8607 12.5832 42.8088C12.925 42.5882 13.2162 42.3028 13.4694 41.9915C13.6086 41.7968 13.7479 41.5893 13.8618 41.3817C13.9378 41.2649 13.9378 41.2779 14.1276 41.3428L13.6972 42.2898C17.571 43.1202 21.394 43.198 25.2425 42.4066C25.2171 42.0433 24.9893 41.7449 25.0399 41.4076C25.1918 41.3428 25.2425 41.4206 25.2804 41.5114C25.3311 41.6152 25.3817 41.732 25.4197 41.8487C25.5336 42.3807 25.8628 42.7828 26.2172 43.1591C26.3058 43.224 26.3312 43.3407 26.2805 43.4445ZM13.9124 42.6791L14.0517 42.8996C14.672 43.9505 15.4822 44.8457 16.4443 45.5722C17.0899 46.0392 17.8241 46.3636 18.5964 46.5193C18.9255 46.5712 19.2546 46.5971 19.5964 46.5712C20.0015 46.5712 20.4066 46.5582 20.7864 46.4155C21.0902 46.2987 21.432 46.2468 21.7232 46.1041C22.3815 45.7798 22.9891 45.3516 23.5081 44.8457C24.1158 44.2489 24.6348 43.5613 25.0399 42.7958C24.9007 42.8088 24.7994 42.8218 24.7108 42.8347C24.4069 42.8996 24.1031 42.9775 23.7993 43.0293C23.4955 43.0812 23.179 43.1202 22.8752 43.1461C22.2549 43.198 21.6219 43.2758 21.0016 43.2758C19.8116 43.2888 18.6217 43.3667 17.4317 43.185C16.9 43.1072 16.343 43.0812 15.8113 43.0293C15.7733 43.0293 15.7227 43.0164 15.6847 43.0164C15.1784 42.8996 14.672 42.7828 14.153 42.6791C14.0643 42.6791 13.9884 42.6791 13.9124 42.6791Z" fill="#272425"/>
<path d="M24.812 38.9167C24.8373 39.4097 24.6981 39.9157 24.4196 40.3178C24.3183 40.4606 24.2044 40.5903 24.0651 40.6811C23.7613 40.8887 23.3689 40.6811 23.2549 40.3308C23.0397 39.6302 23.179 38.9686 23.3942 38.3069C23.4701 38.1123 23.5841 37.9437 23.736 37.8009C24.0271 37.5026 24.4576 37.6193 24.6601 37.9956C24.8247 38.2939 24.7994 38.6053 24.812 38.9167ZM23.5208 39.1243C23.8752 39.2021 23.9259 39.1762 23.9765 38.9037C24.0271 38.6702 24.0904 38.4367 24.1411 38.1902C24.1537 38.1383 24.1537 38.0734 24.1284 38.0474C24.1031 38.0215 23.9892 37.9956 23.9638 38.0215C23.8499 38.0993 23.7613 38.2031 23.698 38.3329C23.6094 38.5923 23.5587 38.8518 23.5208 39.1243Z" fill="#272425"/>
<path d="M22.8878 36.6462C22.9511 36.5683 23.217 36.3867 23.217 36.3867C23.6854 36.1143 24.2424 36.0753 24.7361 36.2699C25.3184 36.5035 25.7615 36.9965 25.9261 37.6192C25.9767 37.7879 26.1159 37.9695 25.9767 38.1901C25.8628 37.9565 25.7741 37.736 25.6602 37.5284C25.3564 36.8797 24.7361 36.4775 24.0398 36.4516C23.736 36.4386 23.4955 36.5813 23.2423 36.737C22.9891 36.8927 22.8625 37.0743 22.6853 37.3857C22.66 37.4246 22.6347 37.4765 22.6093 37.5154L22.5334 37.4765L22.5967 37.2041C22.5967 37.2041 22.7992 36.7629 22.8878 36.6462Z" fill="#272425"/>
<path d="M19.5331 40.3567C19.6229 40.4086 19.6101 40.4734 19.5588 40.5383L19.5331 40.3567Z" fill="#272425"/>
<path d="M43.7376 29.2778C44.801 27.5134 46.3454 26.6442 48.4089 26.6442C52.789 26.8128 54.9664 29.7838 54.9664 35.5441C54.9664 41.2007 52.4219 44.0679 47.3202 44.1457C42.1805 44.1846 39.6107 41.6548 39.6107 36.5561V22.0645H41.6868C43.054 22.0645 43.7629 22.765 43.7629 24.1921L43.7376 29.2778ZM47.2696 30.4844C45.0542 30.4844 43.8642 32.1191 43.7503 35.3755C43.7123 38.8005 44.8643 40.5131 47.2189 40.5131C49.5735 40.5131 50.7382 38.7876 50.7382 35.3755C50.6496 32.1061 49.4849 30.4844 47.2696 30.4844Z" fill="url(#paint1_linear)"/>
<path d="M58.2325 22.0638C58.7515 22.0638 59.2326 22.2584 59.625 22.6606C60.0428 23.0628 60.2327 23.5558 60.2327 24.1266V43.8856H56.1057V22.0638H58.2325Z" fill="url(#paint2_linear)"/>
<path d="M75.6896 37.1393C75.6896 40.0714 74.968 41.9785 73.5122 42.9256C72.0564 43.7948 70.4487 44.2489 68.6637 44.2489C66.9674 44.2489 65.4103 43.7559 63.9925 42.8088C62.5873 41.9007 61.8784 40.0065 61.8784 37.1523V26.916H66.0053V38.0345C66.0053 39.9286 66.942 40.8628 68.803 40.8628C70.6639 40.8628 71.6007 39.9286 71.6007 38.0345V29.0567C71.5627 27.6296 72.221 26.929 73.6135 26.929H75.7276V37.1263H75.6896V37.1393Z" fill="url(#paint3_linear)"/>
<path d="M91.2857 38.6831C90.8047 40.6162 89.9945 42.0174 88.8551 42.8866C87.5259 43.7948 85.9309 44.2618 84.1332 44.2618C79.1582 44.0932 76.6643 41.1222 76.6643 35.3619C76.6643 29.6015 79.1708 26.6695 84.1965 26.6306C89.4248 26.6306 91.868 29.9648 91.5389 36.6203H80.9178C81.0824 39.2151 82.1837 40.5124 84.1965 40.5124C85.1713 40.5124 86.0574 40.1102 86.8676 39.3188C87.2348 38.8907 87.7031 38.6831 88.2602 38.6831H91.2857ZM87.1588 33.5455C86.9056 31.2881 85.8929 30.1464 84.1332 30.1464C82.3483 30.1464 81.2976 31.2751 80.9811 33.5455H87.1588Z" fill="url(#paint4_linear)"/>
<path d="M97.0457 48.4264C97.0457 49.8535 96.3621 50.5541 94.9696 50.5541H92.9061V34.2851C93.1087 29.2253 95.6785 26.6954 100.616 26.6954C105.717 26.6954 108.262 29.5626 108.262 35.297C108.262 41.0833 106.084 44.0543 101.704 44.197C99.6282 44.197 98.0711 43.3277 97.033 41.5633V48.4264H97.0457ZM104.034 35.5046C104.034 32.0795 102.856 30.367 100.514 30.367C98.1724 30.367 97.0077 32.0925 97.0457 35.5046C97.1723 38.774 98.3369 40.3957 100.565 40.3957C102.793 40.3827 103.958 38.748 104.034 35.5046Z" fill="white"/>
<path d="M109.49 35.1153C109.616 29.6275 112.439 26.89 117.933 26.89H118.541V31.353H117.136C114.832 31.353 113.667 32.5855 113.667 35.0505V43.9115H109.477V35.1153H109.49Z" fill="white"/>
<path d="M122.453 22.0638C123.82 22.0638 124.504 22.7384 124.466 24.1266V25.3851H120.339V22.0508H122.453V22.0638ZM122.453 26.89C123.782 26.89 124.466 27.5647 124.466 28.9529V43.8856H120.339V26.8771H122.453V26.89Z" fill="white"/>
<path d="M137.986 43.9115C136.618 43.8207 135.91 43.1201 135.91 41.7838V33.0525C135.821 31.2881 134.872 30.4189 133.049 30.4189C131.226 30.4189 130.289 31.2881 130.251 33.0525V43.9115H126.061V33.9218C126.061 29.0826 128.403 26.6306 133.112 26.6306C137.796 26.6306 140.138 29.0566 140.1 33.9218V43.9115H137.986Z" fill="white"/>
<path d="M143.518 43.678C141.961 43.5353 141.201 42.5103 141.239 40.6421V22.0638H143.353C143.872 22.0638 144.353 22.2714 144.746 22.6995C145.138 23.1276 145.353 23.6077 145.353 24.2044V26.903H147.847V27.8371C147.847 28.4728 147.645 28.9788 147.24 29.368C146.835 29.7572 146.353 29.9648 145.784 29.9648H145.366V39.3837C145.366 40.0843 145.784 40.4475 146.594 40.4475H147.86V43.7169C146.518 43.8466 145.075 43.8337 143.518 43.678Z" fill="white"/>
<path d="M112.452 56.3922L111.806 58.2605H109.756L112.933 48.595H115.44L118.68 58.2605H116.604L115.997 56.3922H112.452ZM113.705 53.071L113.186 54.6408H115.262L114.743 53.1358L114.224 51.8644H114.199L113.705 53.071Z" fill="white"/>
<path d="M120.339 51.8645H120.237L120.326 53.4213V58.2605H118.44V48.634H120.908L123.25 54.3295L125.592 48.634H128.061V58.2605H126.175V53.4213L126.137 51.8645H126.048L125.63 53.3305L124.035 58.1697H122.503L120.908 53.3305L120.339 51.8645Z" fill="white"/>
<path d="M130.833 48.6599V58.2604H128.909V48.6599H130.833Z" fill="white"/>
<path d="M137.011 54.3684L137.758 56.3015L137.884 56.2755L137.53 53.7846V48.634H139.442V58.2605H136.998L134.239 52.5261L133.517 50.5022L133.39 50.5282L133.72 53.1229V58.2865H131.795V48.66H134.239L137.011 54.3684Z" fill="white"/>
<path d="M110.667 53.2267H104.819V54.8614H108.363C107.907 55.9252 106.933 56.6518 105.793 56.6518C104.224 56.6518 102.932 55.2247 102.932 53.4602C102.932 51.6958 104.224 50.2687 105.793 50.2687C106.667 50.2687 107.426 50.6968 107.945 51.3715H110.262C109.515 49.5162 107.793 48.2448 105.806 48.2448C103.11 48.2448 100.932 50.5801 100.932 53.4473C100.932 56.3145 103.11 58.6497 105.806 58.6497C108.502 58.6497 110.68 56.3145 110.68 53.4473C110.692 53.3694 110.692 53.3046 110.667 53.2267Z" fill="white"/>
<path d="M149.404 53.1748H143.556V54.8095H147.1C146.645 55.8733 145.67 56.5998 144.531 56.5998C142.961 56.5998 141.67 55.1727 141.67 53.4083C141.67 51.6439 142.961 50.2168 144.531 50.2168C145.404 50.2168 146.164 50.6449 146.683 51.3195H148.987C148.24 49.4643 146.518 48.1929 144.531 48.1929C141.834 48.1929 139.657 50.5281 139.657 53.3953C139.657 56.2625 141.834 58.5978 144.531 58.5978C147.227 58.5978 149.404 56.2625 149.404 53.3953C149.43 53.3564 149.404 53.2656 149.404 53.1748Z" fill="white"/>
<path d="M153.746 48.7383H152.974V51.3589H152.253V48.7512H151.468V48.1934H153.746V48.7383Z" fill="white"/>
<path d="M154.759 48.8415H154.721L154.86 49.7367V51.3325H154.152V48.1669H155.063L155.936 50.0351L156.81 48.1669H157.721V51.3325H157.013V49.7367L157.152 48.8415H157.114L156.797 49.7107L156.19 50.8524H155.633L155.05 49.7107L154.759 48.8415Z" fill="white"/>
<defs>
<radialGradient id="paint0_radial" cx="0" cy="0" r="1" gradientUnits="userSpaceOnUse" gradientTransform="translate(16.5781 36.7257) scale(11.8416 12.1357)">
<stop stop-color="white"/>
<stop offset="1" stop-color="#FDF29D"/>
</radialGradient>
<linearGradient id="paint1_linear" x1="47.2742" y1="22.0708" x2="47.2742" y2="44.1506" gradientUnits="userSpaceOnUse">
<stop stop-color="#4793CF"/>
<stop offset="1" stop-color="#56C8E7"/>
</linearGradient>
<linearGradient id="paint2_linear" x1="58.1603" y1="22.0701" x2="58.1603" y2="43.8944" gradientUnits="userSpaceOnUse">
<stop stop-color="#4793CF"/>
<stop offset="1" stop-color="#56C8E7"/>
</linearGradient>
<linearGradient id="paint3_linear" x1="68.808" y1="26.8971" x2="68.808" y2="44.2163" gradientUnits="userSpaceOnUse">
<stop stop-color="#4793CF"/>
<stop offset="1" stop-color="#56C8E7"/>
</linearGradient>
<linearGradient id="paint4_linear" x1="84.1151" y1="26.639" x2="84.1151" y2="44.2769" gradientUnits="userSpaceOnUse">
<stop stop-color="#4793CF"/>
<stop offset="1" stop-color="#56C8E7"/>
</linearGradient>
</defs>
</svg>
