<svg width="160" height="80" viewBox="0 0 160 80" fill="none" xmlns="http://www.w3.org/2000/svg">
<path d="M155.141 30.1602C155.76 30.1602 156.174 30.7954 155.926 31.3634L148.323 48.6962C145.709 54.6338 143.304 56.7778 138.296 56.7778H136.866C136.392 56.7778 136.008 56.3938 136.008 55.9202V51.8946C136.008 51.421 136.392 51.037 136.866 51.037H137.845C140.402 51.037 141.173 50.3714 142.077 47.957L134.606 31.3714C134.35 30.8034 134.766 30.1618 135.389 30.1618H140.733C141.088 30.1618 141.406 30.381 141.533 30.7106L145.44 40.8466L149.072 30.7282C149.194 30.3874 149.517 30.1602 149.88 30.1602H155.141Z" fill="#D60006"/>
<path d="M133.421 30.9984V48.6816C133.421 49.1552 133.037 49.5392 132.563 49.5392H128.827C128.482 49.5392 128.168 49.3312 128.035 49.0112L127.683 48.1664C126.094 49.4528 124.083 50.1952 121.83 50.1952C115.899 50.1952 111.659 45.8672 111.659 39.8384C111.659 33.8304 115.899 29.5552 121.83 29.5552C124.115 29.5552 126.157 30.3184 127.758 31.64L128.213 30.6416C128.352 30.336 128.658 30.1392 128.994 30.1392H132.563C133.037 30.1408 133.421 30.5248 133.421 30.9984ZM127.066 39.8544C127.066 37.336 125.226 35.4448 122.723 35.4448C120.205 35.4448 118.381 37.336 118.381 39.8544C118.381 42.3872 120.221 44.2784 122.723 44.2784C125.226 44.2784 127.066 42.3872 127.066 39.8544Z" fill="#D60006"/>
<path d="M104.11 26.1409L107.862 23.3265C108.011 23.2145 108.192 23.1553 108.378 23.1553H109.592C110.066 23.1553 110.45 23.5393 110.45 24.0129V48.7009C110.45 49.1745 110.066 49.5585 109.592 49.5585H104.626C104.152 49.5585 103.768 49.1745 103.768 48.7009V26.8273C103.768 26.5569 103.894 26.3025 104.11 26.1409Z" fill="#D60006"/>
<path d="M87.5343 50.7396V55.9204C87.5343 56.394 87.1503 56.778 86.6767 56.778H85.4623C85.2767 56.778 85.0975 56.7188 84.9487 56.6068C83.9711 55.8756 82.2591 54.5908 81.1951 53.7924C80.9791 53.6308 80.8527 53.3764 80.8527 53.106V46.186L83.1231 48.1572C84.3567 49.3252 85.8591 50.1988 87.5343 50.7396Z" fill="#D60006"/>
<path d="M79.6895 24.013V33.5346L77.4191 31.5602C76.1855 30.3922 74.6815 29.5202 73.0079 28.9778V26.8258C73.0079 26.5554 73.1343 26.301 73.3519 26.1394C74.3487 25.3938 76.1327 24.053 77.1039 23.325C77.2527 23.213 77.4319 23.1538 77.6175 23.1538H78.8319C79.3055 23.1554 79.6895 23.5394 79.6895 24.013Z" fill="#D60006"/>
<path d="M91.7279 29.5249C87.1247 29.5249 83.4607 31.8129 81.8079 35.3777L87.5695 40.3841C87.5519 40.2129 87.5439 40.0385 87.5439 39.8593C87.5439 37.2961 89.2911 35.5265 91.7279 35.5265C93.0191 35.5265 94.1167 36.0273 94.8639 36.8785C94.9343 36.9585 95.0015 37.0417 95.0655 37.1281C95.0783 37.1457 95.0927 37.1633 95.1055 37.1825C95.1247 37.2097 95.1439 37.2385 95.1631 37.2673C95.1807 37.2945 95.1999 37.3217 95.2175 37.3489C95.2335 37.3729 95.2479 37.3985 95.2623 37.4225C95.2831 37.4561 95.3023 37.4881 95.3215 37.5217C95.3343 37.5425 95.3455 37.5649 95.3583 37.5873C95.3791 37.6257 95.3999 37.6625 95.4191 37.7025C95.4287 37.7217 95.4383 37.7425 95.4479 37.7617C95.4687 37.8033 95.4879 37.8465 95.5071 37.8881C95.5151 37.9057 95.5231 37.9249 95.5311 37.9425C95.5503 37.9889 95.5695 38.0337 95.5887 38.0801C95.5951 38.0961 95.6015 38.1137 95.6079 38.1297C95.6271 38.1793 95.6447 38.2289 95.6607 38.2801C95.6655 38.2945 95.6703 38.3105 95.6751 38.3249C95.6927 38.3793 95.7087 38.4321 95.7248 38.4881C95.7279 38.5009 95.7327 38.5137 95.7359 38.5265C95.7519 38.5857 95.7663 38.6449 95.7807 38.7041C95.7823 38.7137 95.7855 38.7233 95.7871 38.7329C95.8015 38.7969 95.8143 38.8625 95.8271 38.9297C95.8287 38.9345 95.8287 38.9393 95.8303 38.9457C95.8831 39.2369 95.9087 39.5425 95.9087 39.8593C95.9087 42.4225 94.1615 44.1921 91.7263 44.1921C90.4335 44.1921 89.5679 43.6433 88.5855 42.8433L76.6159 32.4417C74.6847 30.6065 71.9647 29.5249 68.8095 29.5249C62.4847 29.5249 57.9327 33.8481 57.9327 39.8609C57.9327 42.4737 58.7983 44.7713 60.2975 46.5329C60.3039 46.5393 60.3087 46.5473 60.3151 46.5537C60.3407 46.5841 60.3679 46.6145 60.3951 46.6449C60.4239 46.6769 60.4527 46.7105 60.4815 46.7425C60.4863 46.7473 60.4895 46.7521 60.4943 46.7569C62.4383 48.9041 65.3599 50.1969 68.8095 50.1969C73.3935 50.1969 77.0639 47.8993 78.7231 44.3409L72.9679 39.3441C72.9839 39.5121 72.9935 39.6849 72.9935 39.8625C72.9935 42.4257 71.2463 44.1953 68.8111 44.1953C67.5167 44.1953 66.4175 43.6961 65.6719 42.8449C65.5935 42.7553 65.5199 42.6625 65.4495 42.5665C65.4447 42.5601 65.4399 42.5553 65.4367 42.5489C65.4095 42.5121 65.3839 42.4737 65.3599 42.4353C65.3487 42.4177 65.3375 42.4017 65.3263 42.3841C65.3039 42.3505 65.2847 42.3153 65.2639 42.2817C65.2511 42.2593 65.2367 42.2369 65.2239 42.2145C65.2047 42.1825 65.1871 42.1489 65.1695 42.1153C65.1551 42.0897 65.1423 42.0641 65.1279 42.0385C65.1119 42.0065 65.0943 41.9729 65.0783 41.9393C65.0655 41.9121 65.0527 41.8849 65.0399 41.8577C65.0239 41.8241 65.0095 41.7905 64.9951 41.7553C64.9839 41.7281 64.9711 41.6993 64.9599 41.6721C64.9455 41.6369 64.9327 41.6017 64.9183 41.5649C64.9087 41.5377 64.8975 41.5089 64.8879 41.4817C64.8751 41.4449 64.8623 41.4065 64.8511 41.3681C64.8431 41.3409 64.8351 41.3137 64.8271 41.2865C64.8159 41.2465 64.8031 41.2049 64.7935 41.1649C64.7871 41.1393 64.7807 41.1137 64.7743 41.0881C64.7631 41.0449 64.7535 41.0001 64.7439 40.9569C64.7391 40.9345 64.7343 40.9121 64.7295 40.8881C64.7199 40.8401 64.7103 40.7921 64.7023 40.7425C64.6991 40.7249 64.6975 40.7057 64.6943 40.6881C64.6863 40.6337 64.6767 40.5793 64.6703 40.5249C64.6687 40.5153 64.6687 40.5041 64.6671 40.4945C64.6431 40.2897 64.6303 40.0785 64.6303 39.8625C64.6303 37.2977 66.3775 35.5297 68.8127 35.5297C70.1039 35.5297 71.0719 36.1409 71.9487 36.8817L83.9215 47.2785C85.6799 48.9505 88.0959 49.9985 90.9039 50.1697V50.1713C90.9487 50.1745 90.9967 50.1745 91.0415 50.1777C91.0959 50.1809 91.1519 50.1825 91.2079 50.1857C91.2687 50.1873 91.3311 50.1905 91.3935 50.1921C91.4559 50.1937 91.5167 50.1937 91.5791 50.1953C91.6287 50.1953 91.6783 50.1969 91.7279 50.1969C98.0319 50.1969 102.605 45.8545 102.605 39.8609C102.605 33.8465 98.0319 29.5249 91.7279 29.5249Z" fill="#D60006"/>
<path d="M50.2816 26.1409L54.0336 23.3265C54.1824 23.2145 54.3632 23.1553 54.5488 23.1553H55.7632C56.2368 23.1553 56.6208 23.5393 56.6208 24.0129V48.7009C56.6208 49.1745 56.2368 49.5585 55.7632 49.5585H50.7968C50.3232 49.5585 49.9392 49.1745 49.9392 48.7009V26.8273C49.9392 26.5569 50.0656 26.3025 50.2816 26.1409Z" fill="#D60006"/>
<path d="M26.9152 39.8593C26.9152 33.8465 31.4672 29.5249 37.792 29.5249C44.096 29.5249 48.6688 33.8465 48.6688 39.8593C48.6688 45.8513 44.0976 50.1953 37.792 50.1953C31.4672 50.1953 26.9152 45.8529 26.9152 39.8593ZM37.792 44.1937C40.2288 44.1937 41.976 42.4257 41.976 39.8609C41.976 37.3121 40.2288 35.5281 37.792 35.5281C35.3552 35.5281 33.608 37.2961 33.608 39.8609C33.608 42.4257 35.3552 44.1937 37.792 44.1937Z" fill="#D60006"/>
<path d="M15.4256 29.5553C21.3984 29.5553 25.6176 33.8465 25.6176 39.8753C25.6176 45.9041 21.3984 50.1953 15.4256 50.1953C13.1616 50.1953 11.1504 49.4369 9.5744 48.1201L9.1696 49.0465C9.0336 49.3585 8.7248 49.5601 8.384 49.5601H4.8576C4.384 49.5601 4 49.1761 4 48.7025V26.8273C4 26.5569 4.1264 26.3025 4.3424 26.1409L8.0944 23.3265C8.2432 23.2145 8.424 23.1553 8.6096 23.1553H9.7472C10.2208 23.1553 10.6048 23.5393 10.6048 24.0129V30.8913C11.9936 30.0353 13.632 29.5553 15.4256 29.5553ZM18.8752 39.8753C18.8752 37.3425 17.0352 35.4513 14.5328 35.4513C12.0304 35.4513 10.1904 37.3425 10.1904 39.8753C10.1904 42.3873 12.0304 44.2785 14.5328 44.2785C17.0192 44.2785 18.8752 42.3873 18.8752 39.8753Z" fill="#D60006"/>
</svg>
