<svg width="160" height="80" viewBox="0 0 160 80" fill="none" xmlns="http://www.w3.org/2000/svg">
<path d="M38.8168 52.0132H46.9082V60.5373C45.7856 61.2788 44.5245 61.8384 43.1829 62.1903C41.8402 62.5357 40.4489 62.7089 39.051 62.7047C37.3055 62.724 35.5708 62.4578 33.9337 61.9194C32.4694 61.4369 31.1278 60.7002 29.9875 59.752C28.8938 58.8316 28.0323 57.7155 27.4597 56.4774C26.8579 55.1723 26.5574 53.773 26.5759 52.3626C26.5588 50.9416 26.8452 49.5307 27.42 48.2046C27.9561 46.9756 28.7783 45.861 29.8328 44.9339C30.9191 43.9972 32.2114 43.2701 33.6288 42.7979C35.22 42.2723 36.9073 42.014 38.6047 42.0362C39.4939 42.032 40.3816 42.1017 41.2562 42.2443C42.0413 42.3703 42.812 42.5596 43.5585 42.8097C44.2331 43.0396 44.8801 43.329 45.4897 43.6735C46.0483 43.9888 46.572 44.3504 47.054 44.7533L45.5339 46.8343C45.4325 46.9842 45.2981 47.1145 45.1386 47.217C44.9791 47.3196 44.7979 47.3924 44.6058 47.4311C44.3931 47.4642 44.1751 47.4597 43.9643 47.418C43.7535 47.3762 43.5541 47.2979 43.3773 47.1876C42.9737 46.9625 42.5804 46.7688 42.1974 46.6065C41.8334 46.4478 41.4549 46.3164 41.0661 46.2139C40.6672 46.1139 40.259 46.0456 39.8465 46.0097C39.3698 45.9601 38.8902 45.9365 38.4103 45.939C37.4998 45.9283 36.5968 46.0861 35.7588 46.4024C34.9854 46.7024 34.2959 47.1501 33.7393 47.7138C33.1607 48.3084 32.722 49 32.4489 49.7476C32.1383 50.6021 31.989 51.4963 32.007 52.394C31.9895 53.3651 32.1584 54.3317 32.5063 55.2524C32.81 56.0351 33.2913 56.7541 33.9205 57.3648C34.5392 57.9413 35.2937 58.3891 36.13 58.6762C37.0291 58.9841 37.9859 59.1373 38.9494 59.1277C39.5308 59.1318 40.1108 59.0752 40.6773 58.9589C41.1925 58.8484 41.6966 58.7 42.1842 58.5152V55.433H39.8774C39.5922 55.4473 39.3119 55.3629 39.0952 55.1974C39.0038 55.1212 38.9317 55.0285 38.8837 54.9257C38.8357 54.8228 38.8129 54.712 38.8168 54.6006V52.0132Z" fill="white"/>
<path d="M70.5327 62.5005H66.4406C66.0446 62.5174 65.6533 62.4181 65.327 62.2178C65.0468 62.0279 64.8274 61.7761 64.6907 61.4875L63.365 57.9538H54.7035L53.3778 61.4875C53.2455 61.7665 53.0319 62.0091 52.7591 62.1904C52.4305 62.4131 52.0226 62.5232 51.6101 62.5005H47.4871L56.2944 42.2758H61.7034L70.5327 62.5005ZM62.1364 54.7695L60.0285 49.2294C59.8739 48.88 59.7059 48.4441 59.5292 47.9887C59.3524 47.5332 59.1756 46.9953 58.9989 46.4417C58.8398 47.0071 58.6763 47.5293 58.4951 48.0122C58.3139 48.4952 58.1548 48.9114 57.9957 49.2608L55.9055 54.7577L62.1364 54.7695Z" fill="white"/>
<path d="M97.9179 42.2679V62.5006H93.2646V50.8589C93.2646 50.5919 93.2646 50.3013 93.2867 49.9872C93.3088 49.6731 93.3309 49.3511 93.3706 49.0292L87.3253 59.4262C87.1588 59.7308 86.8963 59.9859 86.5696 60.1604C86.2401 60.3313 85.864 60.4183 85.4825 60.4117H84.7534C84.3719 60.4183 83.9958 60.3313 83.6663 60.1604C83.3393 59.9851 83.0756 59.7304 82.9062 59.4262L76.8741 49.0017C76.9065 49.3341 76.9331 49.66 76.9537 49.9793C76.9758 50.2974 76.9846 50.5919 76.9846 50.8589V62.5006H72.3269V42.2679H76.3571C76.5869 42.2679 76.799 42.2679 76.9625 42.2679C77.1137 42.2749 77.2628 42.3028 77.4044 42.3504C77.542 42.3993 77.6669 42.4728 77.7712 42.5663C77.9 42.6815 78.0073 42.814 78.0894 42.959L83.9491 53.2186C84.1568 53.5681 84.3601 53.9332 84.5501 54.3141C84.7401 54.6949 84.9302 55.0993 85.1069 55.492C85.2837 55.0993 85.4693 54.7067 85.6593 54.3141C85.8493 53.9214 86.057 53.5563 86.278 53.2029L92.12 42.9943C92.2049 42.8499 92.3136 42.7175 92.4426 42.6017C92.5454 42.5065 92.6707 42.4327 92.8094 42.3857C92.9509 42.3377 93.1 42.3099 93.2513 42.3033C93.4237 42.3033 93.6225 42.3033 93.8523 42.3033L97.9179 42.2679Z" fill="white"/>
<path d="M107.635 45.8763V50.5879H114.803V54.0588H107.644V58.8765H116.991V62.5006H102.324V42.2679H116.982V45.8763H107.635Z" fill="white"/>
<path d="M132.807 46.3788C132.679 46.5706 132.513 46.7396 132.316 46.8775C132.119 46.9941 131.885 47.0519 131.649 47.0424C131.376 47.0338 131.111 46.965 130.876 46.8422L129.939 46.4024C129.555 46.2233 129.156 46.0723 128.746 45.9509C128.25 45.8112 127.732 45.7435 127.212 45.7506C126.424 45.697 125.64 45.8962 125.003 46.3121C124.762 46.5012 124.572 46.7359 124.446 46.9988C124.321 47.2618 124.263 47.5463 124.278 47.8316C124.271 48.0181 124.307 48.2039 124.383 48.3779C124.459 48.552 124.573 48.7106 124.72 48.8446C125.044 49.1388 125.428 49.376 125.851 49.5435C126.378 49.7561 126.921 49.9345 127.477 50.0775C128.087 50.2424 128.71 50.4191 129.347 50.6193C129.984 50.8199 130.606 51.0546 131.211 51.3222C131.812 51.5841 132.361 51.9301 132.838 52.3469C133.327 52.7834 133.717 53.2992 133.987 53.8664C134.298 54.5519 134.449 55.2869 134.429 56.026C134.435 56.9232 134.249 57.8133 133.881 58.6488C133.526 59.4506 132.986 60.1771 132.294 60.7808C131.56 61.4097 130.687 61.8963 129.731 62.21C128.624 62.5729 127.451 62.7499 126.271 62.7322C125.544 62.7297 124.818 62.6639 124.105 62.5359C122.669 62.2862 121.292 61.8172 120.035 61.1499C119.464 60.8443 118.935 60.4806 118.458 60.0662L120.022 57.8714C120.152 57.7104 120.319 57.5764 120.513 57.4787C120.715 57.3723 120.945 57.3167 121.18 57.3177C121.516 57.3243 121.842 57.4155 122.121 57.5808C122.439 57.7575 122.802 57.9499 123.2 58.1658C123.641 58.3942 124.104 58.5886 124.583 58.7469C125.174 58.9333 125.798 59.0224 126.425 59.01C127.221 59.0546 128.01 58.8565 128.662 58.4485C128.941 58.2269 129.159 57.9503 129.297 57.6408C129.435 57.3314 129.49 56.9976 129.457 56.666C129.476 56.2458 129.318 55.8344 129.015 55.5116C128.694 55.198 128.303 54.9479 127.866 54.7774C127.347 54.5666 126.811 54.392 126.262 54.2552C125.657 54.106 125.038 53.945 124.402 53.7644C123.764 53.5824 123.142 53.3593 122.541 53.0969C121.939 52.8347 121.392 52.4828 120.924 52.0564C120.426 51.5918 120.035 51.0449 119.775 50.4466C119.459 49.6842 119.309 48.8754 119.333 48.0633C119.334 47.3003 119.51 46.5456 119.85 45.8449C120.2 45.1149 120.716 44.4572 121.366 43.9131C122.077 43.3263 122.91 42.8676 123.818 42.5624C124.882 42.2097 126.011 42.0379 127.146 42.0559C127.828 42.0541 128.51 42.1027 129.183 42.2012C129.825 42.2922 130.457 42.4355 131.07 42.6292C131.645 42.813 132.201 43.0416 132.732 43.3123C133.229 43.5633 133.693 43.8637 134.115 44.2076L132.807 46.3788Z" fill="white"/>
<path d="M11.3963 17.1784C12.7486 17.1573 14.0984 17.2892 15.4133 17.571C16.3849 17.7768 17.302 18.1489 18.1133 18.6665C18.7769 19.1097 19.2955 19.7019 19.6158 20.3823C19.9432 21.1003 20.1055 21.8693 20.0931 22.6439C20.0938 23.0897 20.0193 23.5331 19.8721 23.9592C19.7227 24.3843 19.4909 24.7829 19.1872 25.1372C18.8467 25.5262 18.4396 25.8654 17.9808 26.1423C17.4333 26.4725 16.8389 26.7366 16.2131 26.9276C17.7097 27.2522 18.8189 27.7757 19.5407 28.4981C20.2846 29.2802 20.6696 30.2825 20.619 31.3055C20.6256 32.1315 20.4343 32.9493 20.0577 33.7045C19.6769 34.4505 19.1138 35.1117 18.4094 35.6402C17.6203 36.2243 16.7085 36.6634 15.727 36.932C14.5502 37.258 13.3226 37.4157 12.0901 37.3992H3V17.1784H11.3963ZM8.30292 20.6886V25.6868H11.0516C11.5722 25.6956 12.0927 25.6641 12.6071 25.5926C13.0321 25.535 13.4395 25.4014 13.8047 25.2C14.1368 25.0109 14.3971 24.7372 14.5515 24.4147C14.7386 24.0297 14.8276 23.6127 14.8123 23.1936C14.8242 22.7856 14.7554 22.379 14.609 21.9921C14.4883 21.6826 14.2705 21.4102 13.9815 21.2069C13.6659 20.9968 13.2999 20.8543 12.912 20.7907C12.4121 20.7106 11.9041 20.6763 11.3963 20.6886H8.30292ZM12.0194 33.8616C12.6024 33.8781 13.1838 33.7982 13.734 33.626C14.128 33.4963 14.4832 33.2881 14.7725 33.0174C15.0158 32.7743 15.1913 32.4838 15.2851 32.1693C15.3783 31.8567 15.4258 31.5347 15.4265 31.2113C15.4322 30.8719 15.377 30.5339 15.263 30.21C15.1564 29.9193 14.9623 29.6599 14.7018 29.4601C14.38 29.2332 14.0058 29.0723 13.6058 28.9889C13.0643 28.868 12.5069 28.8125 11.9487 28.824H8.30292V33.8616H12.0194Z" fill="#EC1C24"/>
<path d="M100.41 17.1784V37.4031H95.7569V25.7693C95.7569 25.5023 95.7569 25.2078 95.7569 24.8937C95.7569 24.5796 95.8011 24.2616 95.8409 23.9357L89.8177 34.3327C89.6514 34.6385 89.3889 34.895 89.062 35.0709C88.7313 35.2387 88.3557 35.3242 87.9749 35.3182H87.2546C86.8752 35.3237 86.5012 35.2382 86.1719 35.0709C85.8447 34.894 85.5811 34.6379 85.4118 34.3327L79.3665 23.9082C79.3974 24.2419 79.4239 24.5678 79.446 24.8898C79.4681 25.2117 79.4769 25.5023 79.4769 25.7693V37.4031H74.8192V17.1784H78.8494C79.0792 17.1784 79.2913 17.1784 79.4548 17.1784C79.606 17.1857 79.755 17.2135 79.8968 17.2608C80.0344 17.3097 80.1592 17.3832 80.2635 17.4768C80.3904 17.5933 80.4976 17.7256 80.5817 17.8694L86.4415 28.129C86.6492 28.4824 86.8524 28.8476 87.0424 29.2245C87.2325 29.6014 87.4225 30.0098 87.5993 30.4024C87.776 30.0098 87.9616 29.6171 88.1516 29.2245C88.3417 28.8319 88.5494 28.4667 88.7703 28.1133L94.6124 17.9048C94.6994 17.7615 94.8079 17.6294 94.935 17.5121C95.0377 17.4169 95.163 17.3431 95.3018 17.2962C95.4432 17.2482 95.5924 17.2203 95.7437 17.2137C95.916 17.2137 96.1149 17.2137 96.3447 17.2137L100.41 17.1784Z" fill="#EC1C24"/>
<path d="M110.128 37.4031H104.825V17.1784H110.128V37.4031Z" fill="#EC1C24"/>
<path d="M134.406 17.1784V37.4031H131.658C131.305 37.4127 130.955 37.3524 130.633 37.2264C130.319 37.0798 130.045 36.8749 129.828 36.6257L119.081 24.56C119.121 24.9212 119.152 25.2706 119.165 25.6083C119.178 25.946 119.191 26.264 119.191 26.5585V37.4031H114.534V17.1784H117.313C117.508 17.1757 117.703 17.1849 117.897 17.2059C118.19 17.2317 118.465 17.3436 118.679 17.5239C118.818 17.6467 118.948 17.7779 119.068 17.9165L129.895 30.0647C129.846 29.6721 129.806 29.2795 129.788 28.9339C129.771 28.5884 129.758 28.2233 129.758 27.8974V17.1784H134.406Z" fill="#EC1C24"/>
<path d="M149.75 26.9197H157.841V35.4596C156.717 36.1985 155.456 36.7566 154.116 37.1087C152.773 37.456 151.382 37.6292 149.984 37.623C148.238 37.6442 146.503 37.378 144.866 36.8378C143.402 36.3567 142.061 35.6212 140.92 34.6743C139.828 33.7524 138.967 32.6367 138.392 31.3997C137.791 30.0932 137.49 28.6926 137.509 27.281C137.491 25.8613 137.778 24.4515 138.353 23.1269C138.888 21.8974 139.71 20.7826 140.765 19.8562C141.852 18.9193 143.144 18.1909 144.562 17.7163C146.151 17.1937 147.834 16.9354 149.529 16.9546C150.425 16.9511 151.32 17.0208 152.202 17.1627C152.988 17.292 153.759 17.4852 154.504 17.7399C155.18 17.966 155.827 18.2542 156.436 18.5998C156.994 18.9164 157.518 19.2792 158 19.6834L156.467 21.7526C156.364 21.902 156.23 22.0318 156.07 22.1343C155.911 22.2368 155.73 22.3099 155.539 22.3494C155.108 22.4136 154.666 22.3232 154.31 22.0982C153.895 21.8783 153.501 21.6859 153.13 21.521C152.766 21.3621 152.388 21.2308 151.999 21.1283C151.6 21.0236 151.192 20.9488 150.779 20.9045C150.303 20.8548 149.823 20.8312 149.343 20.8339C148.425 20.822 147.514 20.9812 146.669 21.3011C145.895 21.6001 145.206 22.048 144.65 22.6125C144.072 23.2075 143.633 23.8989 143.36 24.6464C143.051 25.4999 142.902 26.3925 142.918 27.2888C142.899 28.2616 143.069 29.2299 143.421 30.1512C143.721 30.9344 144.203 31.6528 144.835 32.2596C145.444 32.8358 146.19 33.2838 147.019 33.571C147.919 33.8808 148.877 34.034 149.842 34.0226C150.422 34.0279 151.001 33.9725 151.566 33.8577C152.081 33.7464 152.585 33.5967 153.073 33.41V30.3357H150.823C150.539 30.351 150.26 30.2664 150.046 30.1001C149.953 30.0242 149.881 29.9317 149.832 29.8288C149.783 29.7259 149.759 29.6149 149.763 29.5033L149.75 26.9197Z" fill="#EC1C24"/>
<path d="M67.077 28.2861C66.7642 29.7813 65.8721 31.132 64.5555 32.1038C63.239 33.0756 61.581 33.6072 59.8694 33.6063H59.7059C58.8586 33.6038 58.0235 33.4263 57.2666 33.0881C55.8966 32.5698 55.605 32.2596 54.6151 31.5725C54.0362 31.1798 53.2098 30.4142 52.4056 29.7742C51.6013 30.5595 49.7541 32.342 49.6215 32.4834C50.5966 33.3579 51.6296 34.18 52.7149 34.9452L52.6133 34.8628C54.1574 36.0106 56.0187 36.7711 58.0046 37.0655C58.5697 37.1507 59.1416 37.1954 59.7147 37.199C60.2329 37.1994 60.7507 37.1745 61.2659 37.1244C63.4906 36.8825 65.5855 36.0622 67.2875 34.7665C68.9896 33.4707 70.2231 31.7572 70.8332 29.8409L67.077 28.2861Z" fill="#EC1C24"/>
<path d="M54.3588 22.8442C55.604 21.5626 57.3629 20.7635 59.2612 20.6169C61.1595 20.4702 63.0473 20.9876 64.5227 22.0589L62.7551 23.1661L70.7978 26.4446L69.967 18.6076L67.8856 19.9151C66.7646 18.9276 65.4243 18.1585 63.9502 17.6568C62.4761 17.1552 60.9005 16.9319 59.3238 17.0014C57.7472 17.0708 56.2042 17.4314 54.7931 18.0602C53.3821 18.689 52.134 19.5721 51.1284 20.6532C51.0444 20.7435 44.7428 27.5872 42.1576 29.8449C42.0162 29.9705 41.866 30.0805 41.7157 30.1904L41.6362 30.2493C41.4506 30.3946 41.265 30.532 41.0838 30.6655L40.9689 30.7519C40.801 30.8775 40.633 30.9953 40.4651 31.1092L40.337 31.1995L40.0011 31.4233L39.873 31.5136L39.7404 31.596L39.2985 31.8748L39.1747 31.9494L38.7593 32.1929L38.6444 32.2557L38.2909 32.452L38.1583 32.5187L37.8313 32.6837C37.2261 32.9924 36.5881 33.2475 35.9267 33.4454C35.3568 33.6106 34.7579 33.6824 34.1591 33.6574C32.2933 33.5755 30.5333 32.8635 29.2387 31.667C27.9441 30.4706 27.2127 28.8799 27.1941 27.2203C27.1755 25.5607 27.871 23.9574 29.1385 22.7382C30.406 21.519 32.1497 20.776 34.0132 20.6611C35.096 20.6148 36.1774 20.774 37.1855 21.1281C38.1936 21.4822 39.1052 22.023 39.8597 22.7146C40.1116 22.9345 42.1709 24.8937 42.5995 25.3727C43.3861 24.6346 45.251 22.6714 45.3173 22.6243C44.9505 22.2002 43.4082 20.7514 43.2978 20.6611C42.1877 19.5177 40.8124 18.6011 39.2663 17.9742C37.7202 17.3473 36.0397 17.0249 34.3402 17.0292C31.4097 17.0758 28.6123 18.1249 26.5305 19.9582C24.4488 21.7914 23.2431 24.2674 23.1645 26.8707C23.0859 29.474 24.1405 32.0039 26.1086 33.9337C28.0768 35.8634 30.8069 37.0443 33.7304 37.2304C34.3013 37.2633 34.8741 37.2633 35.445 37.2304C35.9161 37.1811 36.3828 37.1024 36.8414 36.9948C37.299 36.8886 37.7432 36.7413 38.1672 36.5551L38.2732 36.5119C38.4058 36.4648 38.5384 36.4098 38.6754 36.3548L38.861 36.2763C39.0068 36.2174 39.1526 36.1506 39.3029 36.0839L39.462 36.0093C39.873 35.8208 40.2972 35.6167 40.7391 35.3536L40.9247 35.2515L41.4152 34.9609L41.6406 34.8235L42.1444 34.5055L42.3609 34.3681L42.8779 34.0186L43.0061 33.9283L43.0945 33.8694C43.3464 33.6927 43.6027 33.5043 43.8634 33.3119L44.049 33.1705C44.2479 33.0213 44.4511 32.8643 44.6544 32.7033L44.9151 32.4952L45.0345 32.401L45.4764 32.0083C45.5648 31.9337 47.8671 29.9352 49.4138 28.2704C50.9605 26.6056 52.6309 24.6307 54.3588 22.8442Z" fill="#EC1C24"/>
</svg>
