<svg width="160" height="80" viewBox="0 0 160 80" fill="none" xmlns="http://www.w3.org/2000/svg">
<path d="M114.768 34.1533C114.37 32.3356 113.936 30.4998 113.294 28.7544C112.588 26.8552 111.702 25.0104 110.752 23.2107C109.703 21.2031 108.311 19.4034 106.855 17.6671C105.136 15.6142 103.147 13.8055 101.012 12.1777C97.9377 9.83542 94.5283 8.04482 90.8386 6.8149C89.0932 6.23612 87.2664 5.88342 85.4577 5.47647C84.6167 5.28655 84.1193 5.25942 84.6167 5.28655C82.3106 4.89768 79.7422 4.69873 77.409 4.89768C70.2014 5.52168 63.8167 8.11716 58.2549 12.6299C52.5394 17.2692 48.6417 23.0751 46.5436 30.0205C44.9881 35.1843 44.7349 40.4205 45.6393 45.729C46.5165 50.8838 48.4789 55.6135 51.4994 59.9272C51.7527 60.289 52.0059 60.3975 52.449 60.2438C53.4438 59.9001 54.4386 59.5655 55.4605 59.2942C59.6205 58.1909 63.8709 57.9919 68.1485 58.2361C72.4894 58.4893 76.776 59.1495 81.0716 59.7735C85.3673 60.3975 89.6629 61.0034 94.0038 61.1391C99.3214 61.3109 104.503 60.6959 109.45 58.6612C109.902 58.4712 110.228 58.209 110.481 57.793C112.805 53.9133 114.306 49.7624 115.012 45.322C115.609 41.578 115.572 37.8521 114.768 34.1533ZM92.376 16.8803C93.0452 16.9617 93.7234 17.034 94.3836 17.1606C94.8629 17.2511 95.1071 17.0883 95.297 16.6723C95.5683 16.0664 95.8848 15.4786 96.1833 14.8907C96.2466 14.7732 96.328 14.6556 96.4003 14.538C96.4365 14.5471 96.4727 14.5471 96.5088 14.5561C96.5541 14.746 96.5993 14.945 96.6354 15.1349C96.753 15.7227 96.8887 16.3106 96.9791 16.9074C97.0514 17.3686 97.2775 17.5947 97.7659 17.658C98.4713 17.7394 99.1676 17.866 99.864 17.9836C99.9906 18.0017 100.108 18.0379 100.37 18.1012C100.135 18.2549 100.009 18.3544 99.873 18.4177C99.2219 18.7523 98.5707 19.0959 97.9106 19.4215C97.6031 19.5752 97.5127 19.7832 97.576 20.0998C97.7207 20.8052 97.8473 21.5106 97.9739 22.225C98.001 22.3878 97.9739 22.5596 97.9739 22.8399C97.7749 22.6681 97.6483 22.5777 97.5398 22.4692C96.9881 21.9627 96.4455 21.4653 95.8939 20.9589C95.6407 20.7238 95.3965 20.6966 95.08 20.8685C94.465 21.2031 93.832 21.5196 93.208 21.8361C93.0814 21.8994 92.9548 21.9537 92.7467 21.9266C93.0181 21.3478 93.2984 20.769 93.5697 20.1902C94.0852 19.0959 94.1394 19.2768 93.2351 18.4177C92.8462 18.0469 92.4574 17.6852 92.0775 17.3053C91.9781 17.2059 91.8876 17.0883 91.6977 16.8712C92.0233 16.8803 92.2041 16.8622 92.376 16.8803ZM71.4222 12.2319C71.585 12.2139 71.7568 12.1777 71.9196 12.1777C73.7283 12.1506 75.537 12.1415 77.3457 12.1144C78.1415 12.1053 78.1506 12.1053 78.4038 11.3728C78.9735 9.7269 79.5342 8.08099 80.0949 6.44412C80.1401 6.30847 80.2034 6.18186 80.3029 5.91055C80.5109 6.46221 80.6737 6.88725 80.8274 7.32134C81.2977 8.6869 81.7499 10.0615 82.2111 11.4271C82.4372 12.0782 82.4734 12.1053 83.1697 12.1144C85.0055 12.1325 86.8504 12.1506 88.6862 12.1686C88.849 12.1686 89.0027 12.1867 89.1655 12.1958C89.1836 12.25 89.2107 12.2952 89.2288 12.3495C89.0751 12.4761 88.9394 12.6118 88.7767 12.7293C87.3568 13.7241 85.928 14.7008 84.5081 15.6956C83.8208 16.1749 83.8208 16.193 84.0831 16.9979C84.6257 18.6799 85.1864 20.353 85.7381 22.0351C85.7833 22.1798 85.8014 22.3245 85.8647 22.6048C85.6024 22.433 85.4577 22.3426 85.313 22.2431C83.8299 21.185 82.3377 20.145 80.8636 19.0598C80.4476 18.7523 80.1311 18.7794 79.7332 19.0598C78.2591 20.1269 76.7669 21.1759 75.2838 22.234C75.1391 22.3335 74.9944 22.4239 74.7593 22.4601C74.7954 22.2973 74.8226 22.1346 74.8768 21.9808C75.4194 20.3168 75.9711 18.6528 76.5047 16.9798C76.7488 16.2201 76.7398 16.1659 76.0615 15.6866C74.6598 14.6918 73.249 13.7151 71.8382 12.7293C71.6754 12.6118 71.5307 12.4761 71.377 12.3495C71.3951 12.3043 71.4132 12.2681 71.4222 12.2319ZM61.1308 17.9293C61.7367 17.8299 62.3516 17.7304 62.9575 17.6399C63.3193 17.5857 63.5182 17.4048 63.5815 17.0521C63.7081 16.3558 63.8528 15.6685 63.9885 14.9721C64.0156 14.8365 64.0518 14.7008 64.088 14.5652C64.1241 14.5561 64.1603 14.5561 64.1965 14.5471C64.296 14.7189 64.3954 14.8907 64.4859 15.0626C64.7843 15.6413 65.0827 16.2201 65.3631 16.7989C65.5349 17.1516 65.7791 17.2511 66.168 17.1878C66.9095 17.0612 67.6511 16.9526 68.4017 16.8441C68.5193 16.826 68.6459 16.8893 68.7725 16.9165C68.7092 17.025 68.673 17.1516 68.5916 17.233C68.0581 17.7575 67.5245 18.273 66.9728 18.7704C66.6563 19.0598 66.5749 19.3401 66.792 19.738C67.1718 20.4525 67.4974 21.194 67.8862 22.017C67.6782 21.9446 67.5697 21.9175 67.4702 21.8723C66.8281 21.5467 66.177 21.2392 65.553 20.8775C65.1551 20.6514 64.8567 20.7238 64.5492 21.0222C64.0518 21.5106 63.5363 21.9808 63.0208 22.4601C62.9123 22.5596 62.8038 22.6591 62.5958 22.849C62.5958 22.5777 62.5777 22.433 62.5958 22.2883C62.7134 21.5919 62.84 20.8956 62.9847 20.2083C63.0751 19.7923 62.9756 19.5119 62.5596 19.322C61.9447 19.0417 61.3568 18.7161 60.76 18.4086C60.6062 18.3272 60.4615 18.2278 60.3259 18.0288C60.5972 18.0107 60.8594 17.9655 61.1308 17.9293ZM52.0059 25.1099C52.0059 25.0646 51.9968 25.0194 51.9968 24.9832C52.2862 24.8476 52.5756 24.7119 52.865 24.5853C53.3172 24.4045 53.5885 24.1422 53.489 23.6177C53.4347 23.2921 53.4438 22.9575 53.4347 22.6229C53.4709 22.5958 53.5161 22.5686 53.5523 22.5506C53.7241 22.7314 53.905 22.9032 54.0678 23.0932C54.6827 23.7714 54.7008 23.7805 55.56 23.4278C55.6142 23.4006 55.6685 23.3735 55.7227 23.3554C55.9307 23.3012 56.1297 23.2469 56.3377 23.1836C56.2744 23.3916 56.2563 23.6267 56.1387 23.8076C55.4514 24.8838 55.5419 24.7391 56.2654 25.6163C56.3648 25.7429 56.4643 25.8695 56.5638 25.9961C56.5728 26.0142 56.5638 26.0504 56.5547 26.1227C56.193 26.0504 55.8584 26.0052 55.5509 25.9147C55.0897 25.77 54.8094 25.9419 54.5833 26.3217C54.3934 26.6472 54.1854 26.9547 53.9774 27.2622C53.9231 27.2532 53.8688 27.2441 53.8146 27.2351C53.7784 26.9005 53.7332 26.5659 53.697 26.2312C53.6247 25.5078 53.6247 25.5078 52.9012 25.3359C52.6027 25.2636 52.3043 25.1912 52.0059 25.1099ZM67.8229 54.0942C64.3864 54.8358 60.9137 54.8539 57.5043 53.8048C56.1478 53.3888 54.8817 52.7739 53.6789 52.0232C53.3805 51.8333 53.2539 51.6072 53.2539 51.2636C53.2629 44.8156 53.2448 38.3676 53.281 31.9196C53.281 31.4132 53.5161 30.8434 53.8055 30.4184C54.9179 28.7634 56.5367 27.7415 58.4901 27.2532C61.0584 26.6111 63.672 26.4392 66.2855 26.9186C69.9934 27.5878 72.6069 30.9067 72.3808 34.5693C72.2904 36.0706 71.5579 37.2824 70.4094 38.2681C70.129 38.5033 69.8487 38.7384 69.496 39.0368C69.8396 39.2448 70.0928 39.3986 70.3461 39.5432C72.9234 40.9902 74.1081 43.2239 74.1714 46.0636C74.2619 49.9794 71.7478 53.2532 67.8229 54.0942ZM83.1335 32.209C82.8261 32.209 82.6994 32.3175 82.6994 32.6159C82.6994 33.7012 82.6904 34.7864 82.6814 35.8806C82.6814 40.8184 82.6814 45.7561 82.6723 50.6939C82.6723 51.8514 82.6542 53.018 82.6542 54.1756C82.6542 54.5645 82.5095 54.7272 82.0935 54.7182C80.5742 54.7001 79.0459 54.7182 77.5266 54.7182C76.9659 54.7182 76.9207 54.682 76.9207 54.1032C76.9116 51.2636 76.8935 48.433 76.8935 45.5933C76.8935 41.4333 76.9026 37.2733 76.8935 33.1224C76.8935 32.0281 76.9297 32.2361 75.9711 32.218C75.2928 32.1999 74.6146 32.1999 73.9363 32.2271C73.5655 32.2452 73.3756 32.1276 73.24 31.7749C72.6521 30.2737 71.8201 28.9172 70.5269 27.8862C69.9481 27.425 69.288 27.0632 68.5826 26.593C76.5861 26.593 84.4991 26.593 92.4212 26.593C92.4302 26.6382 92.4393 26.6744 92.4483 26.7196C92.3036 26.7919 92.168 26.8643 92.0233 26.9366C89.6448 28.1304 87.6824 29.7763 86.1631 31.9286C86.0094 32.1457 85.8375 32.2361 85.5753 32.2271C84.7523 32.209 83.9384 32.2271 83.1335 32.209ZM108.075 45.2226C108.066 45.2226 108.066 45.2226 108.057 45.2226C108.057 47.2031 108.057 49.1926 108.057 51.1732C108.057 51.5892 107.904 51.8876 107.551 52.1408C105.091 53.9043 102.279 54.682 99.2942 54.9624C97.1871 55.1613 95.1071 54.9624 93.1085 54.2389C90.0518 53.1356 87.8542 51.0737 86.561 48.1979C84.5172 43.649 84.3906 38.9735 86.3711 34.3975C88.4149 29.6678 92.2494 27.1718 97.4946 26.7467C100.171 26.5297 102.731 26.9186 105.055 28.3022C105.552 28.6006 106.032 28.9443 106.502 29.2789C106.873 29.5412 106.945 29.8848 106.746 30.2827C106.14 31.4493 105.534 32.6159 104.919 33.7735C104.639 34.298 104.503 34.3161 104.033 33.9725C102.767 33.0139 101.41 32.209 99.8097 31.9648C96.9067 31.5217 93.8772 32.5888 92.2222 35.6455C91.2365 37.4632 90.9742 39.4347 91.0104 41.4514C91.0375 43.0431 91.345 44.5624 92.0594 46.0093C93.7506 49.4006 98.3356 50.9109 101.627 49.1474C102.107 48.8852 102.351 48.5958 102.333 48.0079C102.279 46.7599 102.315 45.5119 102.315 44.2639C102.315 43.7666 102.215 43.6671 101.7 43.658C100.868 43.6399 100.045 43.6309 99.2128 43.649C98.7788 43.658 98.6341 43.4952 98.6431 43.0702C98.6793 41.8674 98.6702 40.6646 98.6974 39.4619C98.7154 38.865 98.8782 38.7203 99.4841 38.657C99.8459 38.6208 100.208 38.6118 100.569 38.6118C102.857 38.6118 105.154 38.6118 107.442 38.6208C108.021 38.6208 108.057 38.666 108.057 39.2267C108.075 41.2253 108.075 43.2239 108.075 45.2226ZM108.6 25.1099C108.383 25.1732 108.157 25.2365 107.94 25.2907C106.936 25.5259 106.945 25.5168 106.882 26.5116C106.864 26.7558 106.809 26.9999 106.764 27.2351C106.71 27.2441 106.656 27.2532 106.601 27.2622C106.402 26.9457 106.176 26.6382 105.995 26.3126C105.778 25.9147 105.471 25.7881 105.028 25.9147C104.702 26.0052 104.359 26.0504 103.888 26.1408C104.178 25.7972 104.377 25.553 104.585 25.3088C105.019 24.7933 105.019 24.73 104.666 24.1512C104.53 23.9252 104.377 23.6991 104.259 23.473C104.223 23.4006 104.241 23.2921 104.241 23.1926C104.34 23.1926 104.44 23.1655 104.53 23.1926C104.738 23.265 104.937 23.3735 105.145 23.4639C105.86 23.7533 105.941 23.7352 106.466 23.1746C106.656 22.9666 106.855 22.7586 107.135 22.4601C107.135 22.9756 107.171 23.3464 107.126 23.7172C107.081 24.1422 107.252 24.3864 107.641 24.5401C107.976 24.6758 108.311 24.8295 108.645 24.9742C108.609 25.0104 108.609 25.0556 108.6 25.1099Z" fill="white"/>
<path d="M108.419 60.4245C104.485 61.8534 100.416 62.4412 96.2375 62.4955C91.5892 62.5588 87.0041 62.0071 82.4191 61.3831C78.7746 60.8857 75.112 60.5783 71.4313 60.5602C71.3409 60.5602 71.2504 60.5873 71.1509 60.5964C71.2775 60.6958 71.4042 60.723 71.5308 60.7501C75.4737 61.5278 79.3624 62.5317 83.224 63.653C87.3297 64.8468 91.4354 66.0043 95.6949 66.556C97.9015 66.8454 100.108 66.9901 102.315 66.6645C102.64 66.6193 103.011 66.5108 103.246 66.3028C104.874 64.9191 106.348 63.3908 107.696 61.7358C108.048 61.3017 108.383 60.8586 108.727 60.4155C108.708 60.3884 108.69 60.3703 108.672 60.3431C108.582 60.3793 108.5 60.3974 108.419 60.4245Z" fill="white"/>
<path d="M92.177 69.2782C87.8633 68.4643 83.7123 67.0716 79.5342 65.7694C75.9168 64.6389 72.2904 63.5537 68.6459 62.5409C67.3075 62.1701 65.9057 62.0525 64.5311 61.8174C64.5221 61.8716 64.513 61.9259 64.4949 61.9802C65.3721 62.2696 66.2674 62.5318 67.1266 62.8574C70.6174 64.1777 73.7735 66.104 76.9749 67.9488C80.4205 69.9384 83.8841 71.9008 87.3568 73.8542C87.5829 73.9808 87.9175 74.0803 88.1527 74.026C91.4535 73.2573 94.6007 72.1088 97.5308 70.4177C97.6664 70.3454 97.784 70.2459 98.001 70.0831C97.793 70.056 97.7116 70.0469 97.6302 70.0288C95.8125 69.7847 93.9767 69.6128 92.177 69.2782Z" fill="white"/>
<path d="M63.8709 68.2381C62.225 67.8221 60.57 67.4604 58.8427 67.4694C63.8981 71.4847 69.6497 73.8631 76.1339 74.7132C74.5874 72.787 67.9495 69.2781 63.8709 68.2381Z" fill="white"/>
<path d="M64.3683 42.0212C62.9666 41.8766 61.5468 41.9037 60.1269 41.8585C59.7471 41.8494 59.6024 42.0393 59.6024 42.4101C59.6205 43.3778 59.6115 44.3454 59.6115 45.3221C59.6115 45.3221 59.6115 45.3221 59.6024 45.3221C59.6024 45.7019 59.6024 46.0818 59.6024 46.4706C59.6024 46.8505 59.6024 47.2303 59.6024 47.6192C59.6024 48.8129 59.6296 48.84 60.8323 49.1837C60.9318 49.2108 61.0313 49.2379 61.1398 49.256C62.5144 49.5002 63.9071 49.4912 65.2727 49.2832C65.6797 49.2199 66.1047 48.9847 66.4122 48.7044C67.7597 47.4745 67.841 45.9009 67.3979 44.3002C67 42.8532 65.7972 42.175 64.3683 42.0212Z" fill="white"/>
<path d="M60.0907 37.2733C60.5067 37.3275 60.9317 37.2913 61.3568 37.2913C61.3568 37.3185 61.3658 37.3456 61.3658 37.3727C62.2611 37.2733 63.1655 37.219 64.0427 37.0562C65.1008 36.8573 65.7519 36.179 65.9509 35.1299C66.1498 34.0719 65.8423 33.1946 64.9199 32.5887C64.4949 32.3084 63.9884 32.0913 63.491 31.9828C61.6462 31.5849 60.0274 32.5164 59.7199 34.2075C59.5571 35.0938 59.6204 36.0162 59.6295 36.9296C59.6385 37.0562 59.9189 37.2552 60.0907 37.2733Z" fill="white"/>
<path d="M79.9955 79C74.7322 79 69.6226 77.969 64.8115 75.9343C60.1631 73.9718 55.9941 71.1593 52.4129 67.5781C48.8317 63.9969 46.0191 59.8278 44.0567 55.1795C42.031 50.3683 41 45.2588 41 39.9955C41 34.7322 42.031 29.6226 44.0657 24.8205C46.0282 20.1722 48.8407 16.0031 52.4219 12.4219C56.0031 8.8407 60.1722 6.02817 64.8205 4.06574C69.6226 2.03096 74.7322 1 79.9955 1C85.2588 1 90.3683 2.03096 95.1795 4.06574C99.8278 6.02817 103.997 8.8407 107.578 12.4219C111.159 16.0031 113.972 20.1722 115.934 24.8205C117.969 29.6317 119 34.7322 119 40.0045C119 45.2678 117.969 50.3774 115.934 55.1885C113.972 59.8369 111.159 64.0059 107.578 67.5871C103.997 71.1683 99.8278 73.9809 95.1795 75.9433C90.3683 77.96 85.2588 79 79.9955 79ZM79.9955 2.35652C74.913 2.35652 69.9843 3.3513 65.345 5.31374C60.8595 7.21287 56.8351 9.92591 53.3805 13.3805C49.9259 16.8351 47.2129 20.8595 45.3137 25.345C43.3513 29.9843 42.3565 34.913 42.3565 39.9955C42.3565 45.0779 43.3513 50.0066 45.3137 54.6459C47.2129 59.1315 49.9259 63.1558 53.3805 66.6104C56.8351 70.065 60.8595 72.7781 65.345 74.6772C69.9843 76.6397 74.913 77.6344 79.9955 77.6344C85.0779 77.6344 90.0066 76.6397 94.6459 74.6772C99.1315 72.7781 103.156 70.065 106.61 66.6104C110.065 63.1558 112.778 59.1315 114.677 54.6459C116.64 50.0066 117.634 45.0779 117.634 39.9955C117.634 34.913 116.64 29.9843 114.677 25.345C112.778 20.8595 110.065 16.8351 106.61 13.3805C103.156 9.92591 99.1315 7.21287 94.6459 5.31374C90.0066 3.3513 85.0779 2.35652 79.9955 2.35652Z" fill="white"/>
</svg>
