<svg width="160" height="80" viewBox="0 0 160 80" fill="none" xmlns="http://www.w3.org/2000/svg">
<g clip-path="url(#clip0)">
<path d="M52.5421 33.1354C52.5421 29.4192 53.6776 26.3225 55.9486 23.9483C58.2196 21.5741 61.2131 20.4386 64.826 20.4386C67.9228 20.4386 70.5034 21.2644 72.6712 23.0192C74.8389 24.6709 76.1809 27.0451 76.697 29.9354H72.2583C71.8454 28.2838 71.0196 26.9418 69.6776 25.9096C68.3357 24.9805 66.7873 24.4644 64.9292 24.4644C62.4518 24.4644 60.5938 25.2902 59.1486 26.8386C57.7034 28.387 57.0841 30.5547 57.0841 33.2386C57.0841 35.9225 57.8067 37.987 59.1486 39.6386C60.5938 41.187 62.4518 42.0128 64.9292 42.0128C66.7873 42.0128 68.4389 41.4967 69.6776 40.5676C71.0196 39.6386 71.8454 38.2967 72.2583 36.5418H76.697C76.1809 39.4321 74.8389 41.7031 72.6712 43.458C70.5034 45.1096 67.9228 46.0386 64.826 46.0386C61.2131 46.0386 58.2196 44.9031 55.9486 42.5289C53.7808 39.9483 52.5421 36.9547 52.5421 33.1354ZM91.768 37.058L87.0196 37.7805C84.7486 38.0902 83.6131 39.0192 83.6131 40.3612C83.6131 41.9096 84.6454 42.7354 86.8131 42.7354C88.3615 42.7354 89.6002 42.3225 90.5292 41.4967C91.355 40.6709 91.768 39.5354 91.768 38.2967V37.058ZM85.9873 45.8321C83.8196 45.8321 82.2712 45.316 81.2389 44.387C80.2067 43.3547 79.6905 42.116 79.6905 40.4644C79.6905 37.3676 81.9615 35.4063 86.6067 34.787L91.768 34.0644V33.7547C91.768 31.587 90.5292 30.4515 87.9486 30.4515C85.6776 30.4515 84.4389 31.3805 84.1292 33.1354H80.1034C80.3099 31.3805 81.0325 29.9354 82.2712 28.7999C83.5099 27.6644 85.4712 27.0451 88.0518 27.0451C90.6325 27.0451 92.5938 27.6644 93.8325 28.7999C95.1744 29.9354 95.7938 31.587 95.7938 33.7547V42.0128C95.7938 43.458 96.0002 44.5934 96.3099 45.4192H92.3873C92.3873 45.4192 92.2841 45.316 92.2841 45.1096C92.2841 44.9031 92.1809 44.6967 92.1809 44.2838C92.1809 43.8709 92.0776 43.458 92.0776 43.0451C90.9421 44.9031 88.8776 45.8321 85.9873 45.8321ZM104.981 45.4192H100.852V19.6128H104.981V45.4192ZM126.761 37.6773H113.032C113.239 39.1225 113.755 40.258 114.581 41.0838C115.51 41.9096 116.645 42.3225 118.091 42.3225C119.02 42.3225 119.845 42.116 120.671 41.5999C121.394 41.187 122.013 40.5676 122.323 39.7418H126.452C125.936 41.5999 124.903 43.045 123.355 44.1805C121.807 45.316 120.052 45.8321 117.987 45.8321C115.303 45.8321 113.136 44.9031 111.484 43.1483C109.832 41.3934 109.007 39.1225 109.007 36.4386C109.007 33.7547 109.832 31.587 111.484 29.8321C113.136 28.0773 115.303 27.1483 117.987 27.1483C120.671 27.1483 122.736 28.0773 124.387 29.8321C126.039 31.587 126.865 33.7547 126.865 36.4386L126.761 37.6773ZM117.884 30.4515C116.542 30.4515 115.51 30.8644 114.684 31.587C113.858 32.3096 113.342 33.3418 113.136 34.5805H122.736C122.529 33.3418 122.013 32.3096 121.187 31.587C120.361 30.8644 119.226 30.4515 117.884 30.4515ZM138.839 41.8063V45.316C138.323 45.4192 137.6 45.5225 136.671 45.5225C133.161 45.5225 131.407 43.7676 131.407 40.258V30.8644H128.62V27.5612H131.407V22.916H135.536V27.5612H138.942V30.8644H135.536V39.845C135.536 41.2902 136.258 41.9096 137.6 41.9096L138.839 41.8063ZM153.394 37.058L148.645 37.7805C146.374 38.0902 145.239 39.0192 145.239 40.3612C145.239 41.9096 146.271 42.7354 148.439 42.7354C149.987 42.7354 151.226 42.3225 152.155 41.4967C152.981 40.6709 153.394 39.5354 153.394 38.2967V37.058ZM147.613 45.8321C145.445 45.8321 143.897 45.316 142.865 44.387C141.832 43.458 141.316 42.116 141.316 40.4644C141.316 37.3676 143.587 35.4063 148.232 34.787L153.394 34.0644V33.7547C153.394 31.587 152.155 30.4515 149.574 30.4515C147.303 30.4515 146.065 31.3805 145.755 33.1354H141.729C141.936 31.3805 142.658 29.9354 143.897 28.7999C145.136 27.6644 147.097 27.0451 149.678 27.0451C152.258 27.0451 154.22 27.6644 155.458 28.7999C156.8 29.9354 157.42 31.587 157.42 33.7547V42.0128C157.42 43.458 157.626 44.5934 157.936 45.4192H154.013C154.013 45.4192 153.91 45.316 153.91 45.1096C153.91 44.9031 153.807 44.6967 153.807 44.2838C153.807 43.8709 153.703 43.458 153.703 43.0451C152.568 44.9031 150.503 45.8321 147.613 45.8321Z" fill="white"/>
<g opacity="0.8">
<path opacity="0.8" d="M57.0841 52.9547L59.6647 56.2579L62.2454 52.9547H62.968V60.0773H62.2454V54.1934L59.768 57.3934L57.2905 54.1934V60.0773H56.568V52.9547H57.0841ZM68.4389 57.4966L66.6841 57.7031C66.168 57.8063 65.8583 57.9095 65.6518 58.0128C65.4454 58.2192 65.3422 58.4257 65.3422 58.6321C65.3422 58.9418 65.4454 59.2515 65.6518 59.3547C65.8583 59.4579 66.168 59.5611 66.4776 59.5611C67.097 59.5611 67.5099 59.3547 67.8196 59.045C68.1292 58.7353 68.3357 58.3224 68.3357 58.0128V57.4966H68.4389ZM66.4776 60.2837C65.8583 60.2837 65.4454 60.1805 65.1357 59.8708C64.826 59.5611 64.7228 59.2515 64.7228 58.7353C64.7228 57.9095 65.3422 57.3934 66.6841 57.187L68.4389 56.9805V56.8773C68.4389 56.0515 67.9228 55.5353 66.9938 55.5353C66.168 55.5353 65.6518 55.845 65.5486 56.5676H64.826C64.9293 56.0515 65.1357 55.6386 65.4454 55.4321C65.7551 55.1224 66.2712 55.0192 66.9938 55.0192C67.7163 55.0192 68.2325 55.2257 68.6454 55.5353C68.9551 55.845 69.1615 56.3611 69.1615 56.9805V59.2515C69.1615 59.7676 69.1615 60.0773 69.2647 60.2837H68.5422C68.4389 60.0773 68.4389 59.7676 68.4389 59.4579C68.1293 59.9741 67.4067 60.2837 66.4776 60.2837ZM74.6325 55.0192H75.5615L73.3938 57.0837L75.6647 60.0773H74.7357L72.7744 57.5999L71.6389 58.7353V60.1805H70.9163V52.645H71.6389V57.9095L74.6325 55.0192ZM77.3163 53.7805C77.1099 53.7805 77.0067 53.7805 76.9034 53.6773C76.8002 53.5741 76.8002 53.4708 76.8002 53.3676C76.8002 53.2644 76.8002 53.0579 76.9034 52.9547C77.0067 52.8515 77.1099 52.8515 77.3163 52.8515C77.4196 52.8515 77.626 52.8515 77.7293 52.9547C77.8325 53.0579 77.8325 53.1611 77.8325 53.3676C77.8325 53.5741 77.8325 53.6773 77.7293 53.6773C77.5228 53.6773 77.4196 53.7805 77.3163 53.7805ZM76.9034 60.1805V55.0192H77.626V60.1805H76.9034ZM80.3099 55.0192V55.845C80.4131 55.6386 80.6196 55.4321 80.9293 55.2257C81.2389 55.0192 81.5486 54.916 82.0647 54.916C82.6841 54.916 83.2002 55.1224 83.5099 55.4321C83.8196 55.845 84.026 56.2579 84.026 56.8773V60.1805H83.3034V57.0837C83.3034 56.5676 83.2002 56.2579 82.9938 55.9482C82.7873 55.6386 82.4776 55.5353 81.9615 55.5353C81.5486 55.5353 81.1357 55.6386 80.826 55.9482C80.5163 56.2579 80.4131 56.5676 80.4131 57.0837V60.1805H79.6905V55.0192H80.3099ZM89.9099 55.9482V55.0192H90.6325V59.8708C90.6325 60.5934 90.426 61.2128 90.0131 61.6257C89.6002 62.0386 88.9809 62.3482 88.2583 62.3482C87.5357 62.3482 87.0196 62.1418 86.6067 61.8321C86.1938 61.5224 85.9873 61.1095 85.8841 60.6966H86.6067C86.7099 61.0063 86.9163 61.2128 87.226 61.4192C87.5357 61.6257 87.8454 61.7289 88.2583 61.7289C88.7744 61.7289 89.1873 61.6257 89.497 61.316C89.8067 61.0063 89.9099 60.5934 89.9099 60.0773V59.1482C89.497 59.8708 88.8776 60.1805 87.9486 60.1805C87.226 60.1805 86.6067 59.9741 86.1938 59.4579C85.7809 58.9418 85.5744 58.3224 85.5744 57.5999C85.5744 56.8773 85.7809 56.2579 86.1938 55.7418C86.6067 55.2257 87.226 55.0192 87.9486 55.0192C88.8776 54.916 89.497 55.2257 89.9099 55.9482ZM89.3938 58.9418C89.7034 58.5289 89.9099 58.116 89.9099 57.4966C89.9099 56.8773 89.7034 56.4644 89.3938 56.0515C89.0841 55.6386 88.6712 55.5353 88.0518 55.5353C87.5357 55.5353 87.0196 55.7418 86.7099 56.0515C86.4002 56.4644 86.1938 56.8773 86.1938 57.4966C86.1938 58.0128 86.4002 58.5289 86.7099 58.9418C87.0196 59.3547 87.5357 59.5611 88.0518 59.5611C88.6712 59.4579 89.0841 59.3547 89.3938 58.9418ZM96.1034 55.9482C96.5163 55.2257 97.1357 54.916 98.0647 54.916C98.7873 54.916 99.4067 55.2257 99.8196 55.7418C100.232 56.2579 100.439 56.8773 100.439 57.5999C100.439 58.3224 100.232 58.9418 99.8196 59.4579C99.4067 59.9741 98.7873 60.2837 98.0647 60.2837C97.1357 60.2837 96.5163 59.9741 96.1034 59.2515V60.1805H95.3809V52.645H96.1034V55.9482ZM96.1034 57.5999C96.1034 58.2192 96.3099 58.6321 96.6196 59.045C96.9292 59.4579 97.3422 59.6644 97.9615 59.6644C98.5809 59.6644 98.9938 59.4579 99.3034 59.045C99.6131 58.6321 99.8196 58.2192 99.8196 57.5999C99.8196 56.9805 99.6131 56.5676 99.3034 56.1547C98.9938 55.7418 98.4776 55.5353 97.9615 55.5353C97.4454 55.5353 96.9292 55.7418 96.6196 56.1547C96.2067 56.4644 96.1034 56.9805 96.1034 57.5999ZM106.632 57.8063H102.4C102.4 58.3224 102.607 58.7353 102.916 59.1482C103.226 59.5612 103.639 59.6644 104.155 59.6644C104.568 59.6644 104.878 59.5611 105.187 59.3547C105.497 59.1482 105.703 58.9418 105.807 58.5289H106.529C106.323 59.045 106.116 59.4579 105.703 59.7676C105.291 60.0773 104.774 60.2837 104.155 60.2837C103.329 60.2837 102.71 59.9741 102.297 59.4579C101.884 58.9418 101.574 58.3224 101.574 57.5999C101.574 56.8773 101.781 56.2579 102.297 55.7418C102.813 55.2257 103.329 54.916 104.155 54.916C104.878 54.916 105.497 55.1224 105.91 55.6386C106.323 56.1547 106.632 56.774 106.632 57.4966V57.8063ZM104.155 55.5353C103.639 55.5353 103.226 55.7418 102.916 56.0515C102.607 56.3611 102.4 56.7741 102.297 57.2902H105.807C105.807 56.7741 105.6 56.3611 105.291 56.0515C105.084 55.7418 104.671 55.5353 104.155 55.5353ZM110.349 59.4579V60.0773C110.245 60.0773 110.039 60.0773 109.832 60.0773C108.903 60.0773 108.491 59.5612 108.491 58.6321V55.5353H107.458V54.916H108.491V53.4708H109.213V54.916H110.349V55.5353H109.213V58.6321C109.213 59.1482 109.42 59.4579 109.936 59.4579H110.349ZM113.755 59.4579V60.0773C113.652 60.0773 113.445 60.0773 113.239 60.0773C112.31 60.0773 111.897 59.5612 111.897 58.6321V55.5353H110.865V54.916H111.897V53.4708H112.62V54.916H113.755V55.5353H112.62V58.6321C112.62 59.1482 112.826 59.4579 113.342 59.4579H113.755ZM119.639 57.8063H115.407C115.407 58.3224 115.613 58.7353 115.923 59.1482C116.232 59.4579 116.645 59.6644 117.162 59.6644C117.574 59.6644 117.884 59.5611 118.194 59.3547C118.503 59.1482 118.71 58.9418 118.813 58.5289H119.536C119.329 59.045 119.123 59.4579 118.71 59.7676C118.297 60.0773 117.781 60.2837 117.162 60.2837C116.336 60.2837 115.716 59.9741 115.303 59.4579C114.891 58.9418 114.581 58.3224 114.581 57.5999C114.581 56.8773 114.787 56.2579 115.303 55.7418C115.82 55.2257 116.336 54.916 117.162 54.916C117.884 54.916 118.503 55.1224 118.916 55.6386C119.329 56.1547 119.639 56.774 119.639 57.4966V57.8063ZM117.162 55.5353C116.645 55.5353 116.232 55.7418 115.923 56.0515C115.613 56.3611 115.407 56.7741 115.303 57.2902H118.813C118.813 56.7741 118.607 56.3611 118.297 56.0515C118.091 55.7418 117.678 55.5353 117.162 55.5353ZM123.768 55.0192V55.7418C123.665 55.7418 123.562 55.7418 123.562 55.7418C123.149 55.7418 122.736 55.845 122.426 56.1547C122.116 56.4644 122.013 56.7741 122.013 57.2902V60.1805H121.291V55.0192H122.013V55.845C122.116 55.6386 122.323 55.4321 122.632 55.2257C122.942 55.0192 123.252 55.0192 123.665 55.0192H123.768ZM131.82 55.9482V55.0192H132.542V59.8708C132.542 60.5934 132.336 61.2128 131.923 61.6257C131.51 62.0386 130.891 62.3482 130.168 62.3482C129.445 62.3482 128.929 62.1418 128.516 61.8321C128.103 61.5224 127.897 61.1095 127.794 60.6966H128.516C128.62 61.0063 128.826 61.2128 129.136 61.4192C129.445 61.6257 129.755 61.7289 130.168 61.7289C130.684 61.7289 131.097 61.6257 131.407 61.316C131.716 61.0063 131.82 60.5934 131.82 60.0773V59.1482C131.407 59.8708 130.787 60.1805 129.858 60.1805C129.136 60.1805 128.516 59.9741 128.103 59.4579C127.691 58.9418 127.484 58.3224 127.484 57.5999C127.484 56.8773 127.691 56.2579 128.103 55.7418C128.516 55.2257 129.136 55.0192 129.858 55.0192C130.787 54.916 131.407 55.2257 131.82 55.9482ZM131.303 58.9418C131.613 58.5289 131.82 58.116 131.82 57.4966C131.82 56.8773 131.613 56.4644 131.303 56.0515C130.994 55.6386 130.581 55.5353 129.962 55.5353C129.342 55.5353 128.929 55.7418 128.62 56.0515C128.31 56.4644 128.103 56.8773 128.103 57.4966C128.103 58.0128 128.31 58.5289 128.62 58.9418C128.929 59.3547 129.445 59.5611 129.962 59.5611C130.581 59.4579 130.994 59.3547 131.303 58.9418ZM137.91 57.4966L136.155 57.7031C135.639 57.8063 135.329 57.9095 135.123 58.0128C134.916 58.2192 134.813 58.4257 134.813 58.6321C134.813 58.9418 134.916 59.2515 135.123 59.3547C135.329 59.4579 135.639 59.5611 135.949 59.5611C136.568 59.5611 136.981 59.3547 137.291 59.045C137.6 58.7353 137.807 58.3224 137.807 58.0128V57.4966H137.91ZM135.949 60.2837C135.329 60.2837 134.916 60.1805 134.607 59.8708C134.297 59.5611 134.194 59.2515 134.194 58.7353C134.194 57.9095 134.813 57.3934 136.155 57.187L137.91 56.9805V56.8773C137.91 56.0515 137.394 55.5353 136.465 55.5353C135.639 55.5353 135.123 55.845 135.02 56.5676H134.297C134.4 56.0515 134.607 55.6386 134.916 55.4321C135.226 55.1224 135.742 55.0192 136.465 55.0192C137.187 55.0192 137.703 55.2257 138.116 55.5353C138.426 55.845 138.632 56.3611 138.632 56.9805V59.2515C138.632 59.7676 138.632 60.0773 138.736 60.2837H138.013C137.91 60.0773 137.91 59.7676 137.91 59.4579C137.497 59.9741 136.878 60.2837 135.949 60.2837ZM144.723 57.187V60.1805H144V57.0837C144 56.6708 143.897 56.2579 143.691 55.9482C143.484 55.6386 143.174 55.5353 142.762 55.5353C142.349 55.5353 141.936 55.6386 141.729 55.9482C141.42 56.2579 141.316 56.5676 141.316 57.0837V60.1805H140.594V55.0192H141.316V55.845C141.626 55.2257 142.142 54.916 142.968 54.916C143.794 54.916 144.31 55.2257 144.62 55.9482C144.826 55.6386 145.032 55.4321 145.342 55.2257C145.652 55.0192 146.065 54.916 146.478 54.916C147.097 54.916 147.51 55.1224 147.82 55.4321C148.129 55.7418 148.336 56.2579 148.336 56.8773V60.1805H147.613V57.0837C147.613 56.6708 147.51 56.2579 147.303 55.9482C147.097 55.6386 146.787 55.5353 146.374 55.5353C145.962 55.5353 145.549 55.6386 145.342 55.9482C144.826 56.2579 144.723 56.6708 144.723 57.187ZM154.736 57.8063H150.503C150.503 58.3224 150.71 58.7353 151.02 59.1482C151.329 59.4579 151.742 59.6644 152.258 59.6644C152.671 59.6644 152.981 59.5611 153.291 59.3547C153.6 59.1482 153.807 58.9418 153.91 58.5289H154.632C154.529 59.045 154.22 59.4579 153.807 59.7676C153.394 60.0773 152.878 60.2837 152.258 60.2837C151.432 60.2837 150.813 59.9741 150.4 59.4579C149.987 58.9418 149.678 58.3224 149.678 57.5999C149.678 56.8773 149.884 56.2579 150.4 55.7418C150.916 55.2257 151.432 54.916 152.258 54.916C153.084 54.916 153.6 55.1224 154.013 55.6386C154.426 56.1547 154.736 56.774 154.736 57.4966V57.8063ZM152.258 55.5353C151.742 55.5353 151.329 55.7418 151.02 56.0515C150.71 56.3611 150.503 56.7741 150.4 57.2902H153.91C153.91 56.7741 153.703 56.3611 153.394 56.0515C153.187 55.7418 152.774 55.5353 152.258 55.5353ZM158.039 60.2837C157.316 60.2837 156.8 60.0773 156.491 59.7676C156.181 59.4579 155.974 59.045 155.974 58.5289H156.697C156.697 58.8386 156.903 59.1482 157.11 59.3547C157.316 59.5611 157.626 59.6644 158.142 59.6644C158.555 59.6644 158.865 59.5611 159.174 59.4579C159.484 59.3547 159.484 59.045 159.484 58.8386C159.484 58.5289 159.381 58.3224 159.174 58.2192C158.968 58.116 158.658 58.0128 158.349 57.9095C158.039 57.9095 157.729 57.8063 157.42 57.7031C157.11 57.5999 156.8 57.4966 156.594 57.2902C156.387 57.0837 156.284 56.7741 156.284 56.3611C156.284 55.9482 156.491 55.6386 156.8 55.3289C157.11 55.0192 157.626 54.916 158.245 54.916C158.865 54.916 159.381 55.1224 159.691 55.4321C160 55.7418 160.207 56.1547 160.207 56.5676H159.484C159.484 56.2579 159.278 56.0515 159.071 55.845C158.865 55.6386 158.555 55.5353 158.142 55.5353C157.729 55.5353 157.42 55.6386 157.213 55.7418C157.007 55.9482 156.903 56.1547 156.903 56.3611C156.903 56.5676 157.007 56.7741 157.11 56.8773C157.316 56.9805 157.42 57.0837 157.729 57.0837C158.039 57.0837 158.245 57.187 158.452 57.187C158.762 57.2902 158.968 57.2902 159.174 57.3934C159.381 57.4966 159.587 57.5999 159.794 57.8063C160 58.0128 160 58.3224 160 58.6321C160 59.045 159.794 59.3547 159.484 59.6644C159.174 60.0773 158.658 60.2837 158.039 60.2837Z" fill="white"/>
<mask id="mask0" mask-type="alpha" maskUnits="userSpaceOnUse" x="55" y="51" width="106" height="12">
<g opacity="0.8">
<path opacity="0.8" d="M55.3292 51.6128H160.62V62.9676H55.3292V51.6128Z" fill="white"/>
<path opacity="0.8" d="M57.0841 52.9547L59.6647 56.2579L62.2454 52.9547H62.968V60.0773H62.2454V54.1934L59.768 57.3934L57.2905 54.1934V60.0773H56.568V52.9547H57.0841ZM68.4389 57.4966L66.6841 57.7031C66.168 57.8063 65.8583 57.9095 65.6518 58.0128C65.4454 58.2192 65.3422 58.4257 65.3422 58.6321C65.3422 58.9418 65.4454 59.2515 65.6518 59.3547C65.8583 59.4579 66.168 59.5611 66.4776 59.5611C67.097 59.5611 67.5099 59.3547 67.8196 59.045C68.1292 58.7353 68.3357 58.3224 68.3357 58.0128V57.4966H68.4389ZM66.4776 60.2837C65.8583 60.2837 65.4454 60.1805 65.1357 59.8708C64.826 59.5611 64.7228 59.2515 64.7228 58.7353C64.7228 57.9095 65.3422 57.3934 66.6841 57.187L68.4389 56.9805V56.8773C68.4389 56.0515 67.9228 55.5353 66.9938 55.5353C66.168 55.5353 65.6518 55.845 65.5486 56.5676H64.826C64.9293 56.0515 65.1357 55.6386 65.4454 55.4321C65.7551 55.1224 66.2712 55.0192 66.9938 55.0192C67.7163 55.0192 68.2325 55.2257 68.6454 55.5353C68.9551 55.845 69.1615 56.3611 69.1615 56.9805V59.2515C69.1615 59.7676 69.1615 60.0773 69.2647 60.2837H68.5422C68.4389 60.0773 68.4389 59.7676 68.4389 59.4579C68.1293 59.9741 67.4067 60.2837 66.4776 60.2837ZM74.6325 55.0192H75.5615L73.3938 57.0837L75.6647 60.0773H74.7357L72.7744 57.5999L71.6389 58.7353V60.1805H70.9163V52.645H71.6389V57.9095L74.6325 55.0192ZM77.3163 53.7805C77.1099 53.7805 77.0067 53.7805 76.9034 53.6773C76.8002 53.5741 76.8002 53.4708 76.8002 53.3676C76.8002 53.2644 76.8002 53.0579 76.9034 52.9547C77.0067 52.8515 77.1099 52.8515 77.3163 52.8515C77.4196 52.8515 77.626 52.8515 77.7293 52.9547C77.8325 53.0579 77.8325 53.1611 77.8325 53.3676C77.8325 53.5741 77.8325 53.6773 77.7293 53.6773C77.5228 53.6773 77.4196 53.7805 77.3163 53.7805ZM76.9034 60.1805V55.0192H77.626V60.1805H76.9034ZM80.3099 55.0192V55.845C80.4131 55.6386 80.6196 55.4321 80.9293 55.2257C81.2389 55.0192 81.5486 54.916 82.0647 54.916C82.6841 54.916 83.2002 55.1224 83.5099 55.4321C83.8196 55.845 84.026 56.2579 84.026 56.8773V60.1805H83.3034V57.0837C83.3034 56.5676 83.2002 56.2579 82.9938 55.9482C82.7873 55.6386 82.4776 55.5353 81.9615 55.5353C81.5486 55.5353 81.1357 55.6386 80.826 55.9482C80.5163 56.2579 80.4131 56.5676 80.4131 57.0837V60.1805H79.6905V55.0192H80.3099ZM89.9099 55.9482V55.0192H90.6325V59.8708C90.6325 60.5934 90.426 61.2128 90.0131 61.6257C89.6002 62.0386 88.9809 62.3482 88.2583 62.3482C87.5357 62.3482 87.0196 62.1418 86.6067 61.8321C86.1938 61.5224 85.9873 61.1095 85.8841 60.6966H86.6067C86.7099 61.0063 86.9163 61.2128 87.226 61.4192C87.5357 61.6257 87.8454 61.7289 88.2583 61.7289C88.7744 61.7289 89.1873 61.6257 89.497 61.316C89.8067 61.0063 89.9099 60.5934 89.9099 60.0773V59.1482C89.497 59.8708 88.8776 60.1805 87.9486 60.1805C87.226 60.1805 86.6067 59.9741 86.1938 59.4579C85.7809 58.9418 85.5744 58.3224 85.5744 57.5999C85.5744 56.8773 85.7809 56.2579 86.1938 55.7418C86.6067 55.2257 87.226 55.0192 87.9486 55.0192C88.8776 54.916 89.497 55.2257 89.9099 55.9482ZM89.3938 58.9418C89.7034 58.5289 89.9099 58.116 89.9099 57.4966C89.9099 56.8773 89.7034 56.4644 89.3938 56.0515C89.0841 55.6386 88.6712 55.5353 88.0518 55.5353C87.5357 55.5353 87.0196 55.7418 86.7099 56.0515C86.4002 56.4644 86.1938 56.8773 86.1938 57.4966C86.1938 58.0128 86.4002 58.5289 86.7099 58.9418C87.0196 59.3547 87.5357 59.5611 88.0518 59.5611C88.6712 59.4579 89.0841 59.3547 89.3938 58.9418ZM96.1034 55.9482C96.5163 55.2257 97.1357 54.916 98.0647 54.916C98.7873 54.916 99.4067 55.2257 99.8196 55.7418C100.232 56.2579 100.439 56.8773 100.439 57.5999C100.439 58.3224 100.232 58.9418 99.8196 59.4579C99.4067 59.9741 98.7873 60.2837 98.0647 60.2837C97.1357 60.2837 96.5163 59.9741 96.1034 59.2515V60.1805H95.3809V52.645H96.1034V55.9482ZM96.1034 57.5999C96.1034 58.2192 96.3099 58.6321 96.6196 59.045C96.9292 59.4579 97.3422 59.6644 97.9615 59.6644C98.5809 59.6644 98.9938 59.4579 99.3034 59.045C99.6131 58.6321 99.8196 58.2192 99.8196 57.5999C99.8196 56.9805 99.6131 56.5676 99.3034 56.1547C98.9938 55.7418 98.4776 55.5353 97.9615 55.5353C97.4454 55.5353 96.9292 55.7418 96.6196 56.1547C96.2067 56.4644 96.1034 56.9805 96.1034 57.5999ZM106.632 57.8063H102.4C102.4 58.3224 102.607 58.7353 102.916 59.1482C103.226 59.5612 103.639 59.6644 104.155 59.6644C104.568 59.6644 104.878 59.5611 105.187 59.3547C105.497 59.1482 105.703 58.9418 105.807 58.5289H106.529C106.323 59.045 106.116 59.4579 105.703 59.7676C105.291 60.0773 104.774 60.2837 104.155 60.2837C103.329 60.2837 102.71 59.9741 102.297 59.4579C101.884 58.9418 101.574 58.3224 101.574 57.5999C101.574 56.8773 101.781 56.2579 102.297 55.7418C102.813 55.2257 103.329 54.916 104.155 54.916C104.878 54.916 105.497 55.1224 105.91 55.6386C106.323 56.1547 106.632 56.774 106.632 57.4966V57.8063ZM104.155 55.5353C103.639 55.5353 103.226 55.7418 102.916 56.0515C102.607 56.3611 102.4 56.7741 102.297 57.2902H105.807C105.807 56.7741 105.6 56.3611 105.291 56.0515C105.084 55.7418 104.671 55.5353 104.155 55.5353ZM110.349 59.4579V60.0773C110.245 60.0773 110.039 60.0773 109.832 60.0773C108.903 60.0773 108.491 59.5612 108.491 58.6321V55.5353H107.458V54.916H108.491V53.4708H109.213V54.916H110.349V55.5353H109.213V58.6321C109.213 59.1482 109.42 59.4579 109.936 59.4579H110.349ZM113.755 59.4579V60.0773C113.652 60.0773 113.445 60.0773 113.239 60.0773C112.31 60.0773 111.897 59.5612 111.897 58.6321V55.5353H110.865V54.916H111.897V53.4708H112.62V54.916H113.755V55.5353H112.62V58.6321C112.62 59.1482 112.826 59.4579 113.342 59.4579H113.755ZM119.639 57.8063H115.407C115.407 58.3224 115.613 58.7353 115.923 59.1482C116.232 59.4579 116.645 59.6644 117.162 59.6644C117.574 59.6644 117.884 59.5611 118.194 59.3547C118.503 59.1482 118.71 58.9418 118.813 58.5289H119.536C119.329 59.045 119.123 59.4579 118.71 59.7676C118.297 60.0773 117.781 60.2837 117.162 60.2837C116.336 60.2837 115.716 59.9741 115.303 59.4579C114.891 58.9418 114.581 58.3224 114.581 57.5999C114.581 56.8773 114.787 56.2579 115.303 55.7418C115.82 55.2257 116.336 54.916 117.162 54.916C117.884 54.916 118.503 55.1224 118.916 55.6386C119.329 56.1547 119.639 56.774 119.639 57.4966V57.8063ZM117.162 55.5353C116.645 55.5353 116.232 55.7418 115.923 56.0515C115.613 56.3611 115.407 56.7741 115.303 57.2902H118.813C118.813 56.7741 118.607 56.3611 118.297 56.0515C118.091 55.7418 117.678 55.5353 117.162 55.5353ZM123.768 55.0192V55.7418C123.665 55.7418 123.562 55.7418 123.562 55.7418C123.149 55.7418 122.736 55.845 122.426 56.1547C122.116 56.4644 122.013 56.7741 122.013 57.2902V60.1805H121.291V55.0192H122.013V55.845C122.116 55.6386 122.323 55.4321 122.632 55.2257C122.942 55.0192 123.252 55.0192 123.665 55.0192H123.768ZM131.82 55.9482V55.0192H132.542V59.8708C132.542 60.5934 132.336 61.2128 131.923 61.6257C131.51 62.0386 130.891 62.3482 130.168 62.3482C129.445 62.3482 128.929 62.1418 128.516 61.8321C128.103 61.5224 127.897 61.1095 127.794 60.6966H128.516C128.62 61.0063 128.826 61.2128 129.136 61.4192C129.445 61.6257 129.755 61.7289 130.168 61.7289C130.684 61.7289 131.097 61.6257 131.407 61.316C131.716 61.0063 131.82 60.5934 131.82 60.0773V59.1482C131.407 59.8708 130.787 60.1805 129.858 60.1805C129.136 60.1805 128.516 59.9741 128.103 59.4579C127.691 58.9418 127.484 58.3224 127.484 57.5999C127.484 56.8773 127.691 56.2579 128.103 55.7418C128.516 55.2257 129.136 55.0192 129.858 55.0192C130.787 54.916 131.407 55.2257 131.82 55.9482ZM131.303 58.9418C131.613 58.5289 131.82 58.116 131.82 57.4966C131.82 56.8773 131.613 56.4644 131.303 56.0515C130.994 55.6386 130.581 55.5353 129.962 55.5353C129.342 55.5353 128.929 55.7418 128.62 56.0515C128.31 56.4644 128.103 56.8773 128.103 57.4966C128.103 58.0128 128.31 58.5289 128.62 58.9418C128.929 59.3547 129.445 59.5611 129.962 59.5611C130.581 59.4579 130.994 59.3547 131.303 58.9418ZM137.91 57.4966L136.155 57.7031C135.639 57.8063 135.329 57.9095 135.123 58.0128C134.916 58.2192 134.813 58.4257 134.813 58.6321C134.813 58.9418 134.916 59.2515 135.123 59.3547C135.329 59.4579 135.639 59.5611 135.949 59.5611C136.568 59.5611 136.981 59.3547 137.291 59.045C137.6 58.7353 137.807 58.3224 137.807 58.0128V57.4966H137.91ZM135.949 60.2837C135.329 60.2837 134.916 60.1805 134.607 59.8708C134.297 59.5611 134.194 59.2515 134.194 58.7353C134.194 57.9095 134.813 57.3934 136.155 57.187L137.91 56.9805V56.8773C137.91 56.0515 137.394 55.5353 136.465 55.5353C135.639 55.5353 135.123 55.845 135.02 56.5676H134.297C134.4 56.0515 134.607 55.6386 134.916 55.4321C135.226 55.1224 135.742 55.0192 136.465 55.0192C137.187 55.0192 137.703 55.2257 138.116 55.5353C138.426 55.845 138.632 56.3611 138.632 56.9805V59.2515C138.632 59.7676 138.632 60.0773 138.736 60.2837H138.013C137.91 60.0773 137.91 59.7676 137.91 59.4579C137.497 59.9741 136.878 60.2837 135.949 60.2837ZM144.723 57.187V60.1805H144V57.0837C144 56.6708 143.897 56.2579 143.691 55.9482C143.484 55.6386 143.174 55.5353 142.762 55.5353C142.349 55.5353 141.936 55.6386 141.729 55.9482C141.42 56.2579 141.316 56.5676 141.316 57.0837V60.1805H140.594V55.0192H141.316V55.845C141.626 55.2257 142.142 54.916 142.968 54.916C143.794 54.916 144.31 55.2257 144.62 55.9482C144.826 55.6386 145.032 55.4321 145.342 55.2257C145.652 55.0192 146.065 54.916 146.478 54.916C147.097 54.916 147.51 55.1224 147.82 55.4321C148.129 55.7418 148.336 56.2579 148.336 56.8773V60.1805H147.613V57.0837C147.613 56.6708 147.51 56.2579 147.303 55.9482C147.097 55.6386 146.787 55.5353 146.374 55.5353C145.962 55.5353 145.549 55.6386 145.342 55.9482C144.826 56.2579 144.723 56.6708 144.723 57.187ZM154.736 57.8063H150.503C150.503 58.3224 150.71 58.7353 151.02 59.1482C151.329 59.4579 151.742 59.6644 152.258 59.6644C152.671 59.6644 152.981 59.5611 153.291 59.3547C153.6 59.1482 153.807 58.9418 153.91 58.5289H154.632C154.529 59.045 154.22 59.4579 153.807 59.7676C153.394 60.0773 152.878 60.2837 152.258 60.2837C151.432 60.2837 150.813 59.9741 150.4 59.4579C149.987 58.9418 149.678 58.3224 149.678 57.5999C149.678 56.8773 149.884 56.2579 150.4 55.7418C150.916 55.2257 151.432 54.916 152.258 54.916C153.084 54.916 153.6 55.1224 154.013 55.6386C154.426 56.1547 154.736 56.774 154.736 57.4966V57.8063ZM152.258 55.5353C151.742 55.5353 151.329 55.7418 151.02 56.0515C150.71 56.3611 150.503 56.7741 150.4 57.2902H153.91C153.91 56.7741 153.703 56.3611 153.394 56.0515C153.187 55.7418 152.774 55.5353 152.258 55.5353ZM158.039 60.2837C157.316 60.2837 156.8 60.0773 156.491 59.7676C156.181 59.4579 155.974 59.045 155.974 58.5289H156.697C156.697 58.8386 156.903 59.1482 157.11 59.3547C157.316 59.5611 157.626 59.6644 158.142 59.6644C158.555 59.6644 158.865 59.5611 159.174 59.4579C159.484 59.3547 159.484 59.045 159.484 58.8386C159.484 58.5289 159.381 58.3224 159.174 58.2192C158.968 58.116 158.658 58.0128 158.349 57.9095C158.039 57.9095 157.729 57.8063 157.42 57.7031C157.11 57.5999 156.8 57.4966 156.594 57.2902C156.387 57.0837 156.284 56.7741 156.284 56.3611C156.284 55.9482 156.491 55.6386 156.8 55.3289C157.11 55.0192 157.626 54.916 158.245 54.916C158.865 54.916 159.381 55.1224 159.691 55.4321C160 55.7418 160.207 56.1547 160.207 56.5676H159.484C159.484 56.2579 159.278 56.0515 159.071 55.845C158.865 55.6386 158.555 55.5353 158.142 55.5353C157.729 55.5353 157.42 55.6386 157.213 55.7418C157.007 55.9482 156.903 56.1547 156.903 56.3611C156.903 56.5676 157.007 56.7741 157.11 56.8773C157.316 56.9805 157.42 57.0837 157.729 57.0837C158.039 57.0837 158.245 57.187 158.452 57.187C158.762 57.2902 158.968 57.2902 159.174 57.3934C159.381 57.4966 159.587 57.5999 159.794 57.8063C160 58.0128 160 58.3224 160 58.6321C160 59.045 159.794 59.3547 159.484 59.6644C159.174 60.0773 158.658 60.2837 158.039 60.2837Z" fill="black"/>
</g>
</mask>
<g mask="url(#mask0)">
<path opacity="0.8" d="M57.0841 52.9547L59.6647 56.2579L62.2454 52.9547H62.968V60.0773H62.2454V54.1934L59.768 57.3934L57.2905 54.1934V60.0773H56.568V52.9547H57.0841V52.9547ZM68.4389 57.4966L66.6841 57.7031C66.168 57.8063 65.8583 57.9095 65.6518 58.0128C65.4454 58.2192 65.3422 58.4257 65.3422 58.6321C65.3422 58.9418 65.4454 59.2515 65.6518 59.3547C65.8583 59.4579 66.168 59.5611 66.4776 59.5611C67.097 59.5611 67.5099 59.3547 67.8196 59.045C68.1292 58.7353 68.3357 58.3224 68.3357 58.0128V57.4966H68.4389ZM66.4776 60.2837C65.8583 60.2837 65.4454 60.1805 65.1357 59.8708C64.826 59.5611 64.7228 59.2515 64.7228 58.7353C64.7228 57.9095 65.3422 57.3934 66.6841 57.187L68.4389 56.9805V56.8773C68.4389 56.0515 67.9228 55.5353 66.9938 55.5353C66.168 55.5353 65.6518 55.845 65.5486 56.5676H64.826C64.9293 56.0515 65.1357 55.6386 65.4454 55.4321C65.7551 55.1224 66.2712 55.0192 66.9938 55.0192C67.7163 55.0192 68.2325 55.2257 68.6454 55.5353C68.9551 55.845 69.1615 56.3611 69.1615 56.9805V59.2515C69.1615 59.7676 69.1615 60.0773 69.2647 60.2837H68.5422C68.4389 60.0773 68.4389 59.7676 68.4389 59.4579C68.1293 59.9741 67.4067 60.2837 66.4776 60.2837ZM74.6325 55.0192H75.5615L73.3938 57.0837L75.6647 60.0773H74.7357L72.7744 57.5999L71.6389 58.7353V60.1805H70.9163V52.645H71.6389V57.9095L74.6325 55.0192ZM77.3163 53.7805C77.1099 53.7805 77.0067 53.7805 76.9034 53.6773C76.8002 53.5741 76.8002 53.4708 76.8002 53.3676C76.8002 53.2644 76.8002 53.0579 76.9034 52.9547C77.0067 52.8515 77.1099 52.8515 77.3163 52.8515C77.4196 52.8515 77.626 52.8515 77.7293 52.9547C77.8325 53.0579 77.8325 53.1611 77.8325 53.3676C77.8325 53.5741 77.8325 53.6773 77.7293 53.6773C77.5228 53.6773 77.4196 53.7805 77.3163 53.7805ZM76.9034 60.1805V55.0192H77.626V60.1805H76.9034ZM80.3099 55.0192V55.845C80.4131 55.6386 80.6196 55.4321 80.9293 55.2257C81.2389 55.0192 81.5486 54.916 82.0647 54.916C82.6841 54.916 83.2002 55.1224 83.5099 55.4321C83.8196 55.845 84.026 56.2579 84.026 56.8773V60.1805H83.3034V57.0837C83.3034 56.5676 83.2002 56.2579 82.9938 55.9482C82.7873 55.6386 82.4776 55.5353 81.9615 55.5353C81.5486 55.5353 81.1357 55.6386 80.826 55.9482C80.5163 56.2579 80.4131 56.5676 80.4131 57.0837V60.1805H79.6905V55.0192H80.3099ZM89.9099 55.9482V55.0192H90.6325V59.8708C90.6325 60.5934 90.426 61.2128 90.0131 61.6257C89.6002 62.0386 88.9809 62.3482 88.2583 62.3482C87.5357 62.3482 87.0196 62.1418 86.6067 61.8321C86.1938 61.5224 85.9873 61.1095 85.8841 60.6966H86.6067C86.7099 61.0063 86.9163 61.2128 87.226 61.4192C87.5357 61.6257 87.8454 61.7289 88.2583 61.7289C88.7744 61.7289 89.1873 61.6257 89.497 61.316C89.8067 61.0063 89.9099 60.5934 89.9099 60.0773V59.1482C89.497 59.8708 88.8776 60.1805 87.9486 60.1805C87.226 60.1805 86.6067 59.9741 86.1938 59.4579C85.7809 58.9418 85.5744 58.3224 85.5744 57.5999C85.5744 56.8773 85.7809 56.2579 86.1938 55.7418C86.6067 55.2257 87.226 55.0192 87.9486 55.0192C88.8776 54.916 89.497 55.2257 89.9099 55.9482ZM89.3938 58.9418C89.7034 58.5289 89.9099 58.116 89.9099 57.4966C89.9099 56.8773 89.7034 56.4644 89.3938 56.0515C89.0841 55.6386 88.6712 55.5353 88.0518 55.5353C87.5357 55.5353 87.0196 55.7418 86.7099 56.0515C86.4002 56.4644 86.1938 56.8773 86.1938 57.4966C86.1938 58.0128 86.4002 58.5289 86.7099 58.9418C87.0196 59.3547 87.5357 59.5611 88.0518 59.5611C88.6712 59.4579 89.0841 59.3547 89.3938 58.9418ZM96.1034 55.9482C96.5163 55.2257 97.1357 54.916 98.0647 54.916C98.7873 54.916 99.4067 55.2257 99.8196 55.7418C100.232 56.2579 100.439 56.8773 100.439 57.5999C100.439 58.3224 100.232 58.9418 99.8196 59.4579C99.4067 59.9741 98.7873 60.2837 98.0647 60.2837C97.1357 60.2837 96.5163 59.9741 96.1034 59.2515V60.1805H95.3809V52.645H96.1034V55.9482ZM96.1034 57.5999C96.1034 58.2192 96.3099 58.6321 96.6196 59.045C96.9292 59.4579 97.3422 59.6644 97.9615 59.6644C98.5809 59.6644 98.9938 59.4579 99.3034 59.045C99.6131 58.6321 99.8196 58.2192 99.8196 57.5999C99.8196 56.9805 99.6131 56.5676 99.3034 56.1547C98.9938 55.7418 98.4776 55.5353 97.9615 55.5353C97.4454 55.5353 96.9292 55.7418 96.6196 56.1547C96.2067 56.4644 96.1034 56.9805 96.1034 57.5999ZM106.632 57.8063H102.4C102.4 58.3224 102.607 58.7353 102.916 59.1482C103.226 59.5612 103.639 59.6644 104.155 59.6644C104.568 59.6644 104.878 59.5611 105.187 59.3547C105.497 59.1482 105.703 58.9418 105.807 58.5289H106.529C106.323 59.045 106.116 59.4579 105.703 59.7676C105.291 60.0773 104.774 60.2837 104.155 60.2837C103.329 60.2837 102.71 59.9741 102.297 59.4579C101.884 58.9418 101.574 58.3224 101.574 57.5999C101.574 56.8773 101.781 56.2579 102.297 55.7418C102.813 55.2257 103.329 54.916 104.155 54.916C104.878 54.916 105.497 55.1224 105.91 55.6386C106.323 56.1547 106.632 56.774 106.632 57.4966V57.8063ZM104.155 55.5353C103.639 55.5353 103.226 55.7418 102.916 56.0515C102.607 56.3611 102.4 56.7741 102.297 57.2902H105.807C105.807 56.7741 105.6 56.3611 105.291 56.0515C105.084 55.7418 104.671 55.5353 104.155 55.5353ZM110.349 59.4579V60.0773C110.245 60.0773 110.039 60.0773 109.832 60.0773C108.903 60.0773 108.491 59.5612 108.491 58.6321V55.5353H107.458V54.916H108.491V53.4708H109.213V54.916H110.349V55.5353H109.213V58.6321C109.213 59.1482 109.42 59.4579 109.936 59.4579H110.349ZM113.755 59.4579V60.0773C113.652 60.0773 113.445 60.0773 113.239 60.0773C112.31 60.0773 111.897 59.5612 111.897 58.6321V55.5353H110.865V54.916H111.897V53.4708H112.62V54.916H113.755V55.5353H112.62V58.6321C112.62 59.1482 112.826 59.4579 113.342 59.4579H113.755ZM119.639 57.8063H115.407C115.407 58.3224 115.613 58.7353 115.923 59.1482C116.232 59.4579 116.645 59.6644 117.162 59.6644C117.574 59.6644 117.884 59.5611 118.194 59.3547C118.503 59.1482 118.71 58.9418 118.813 58.5289H119.536C119.329 59.045 119.123 59.4579 118.71 59.7676C118.297 60.0773 117.781 60.2837 117.162 60.2837C116.336 60.2837 115.716 59.9741 115.303 59.4579C114.891 58.9418 114.581 58.3224 114.581 57.5999C114.581 56.8773 114.787 56.2579 115.303 55.7418C115.82 55.2257 116.336 54.916 117.162 54.916C117.884 54.916 118.503 55.1224 118.916 55.6386C119.329 56.1547 119.639 56.774 119.639 57.4966V57.8063ZM117.162 55.5353C116.645 55.5353 116.232 55.7418 115.923 56.0515C115.613 56.3611 115.407 56.7741 115.303 57.2902H118.813C118.813 56.7741 118.607 56.3611 118.297 56.0515C118.091 55.7418 117.678 55.5353 117.162 55.5353ZM123.768 55.0192V55.7418C123.665 55.7418 123.562 55.7418 123.562 55.7418C123.149 55.7418 122.736 55.845 122.426 56.1547C122.116 56.4644 122.013 56.7741 122.013 57.2902V60.1805H121.291V55.0192H122.013V55.845C122.116 55.6386 122.323 55.4321 122.632 55.2257C122.942 55.0192 123.252 55.0192 123.665 55.0192H123.768ZM131.82 55.9482V55.0192H132.542V59.8708C132.542 60.5934 132.336 61.2128 131.923 61.6257C131.51 62.0386 130.891 62.3482 130.168 62.3482C129.445 62.3482 128.929 62.1418 128.516 61.8321C128.103 61.5224 127.897 61.1095 127.794 60.6966H128.516C128.62 61.0063 128.826 61.2128 129.136 61.4192C129.445 61.6257 129.755 61.7289 130.168 61.7289C130.684 61.7289 131.097 61.6257 131.407 61.316C131.716 61.0063 131.82 60.5934 131.82 60.0773V59.1482C131.407 59.8708 130.787 60.1805 129.858 60.1805C129.136 60.1805 128.516 59.9741 128.103 59.4579C127.691 58.9418 127.484 58.3224 127.484 57.5999C127.484 56.8773 127.691 56.2579 128.103 55.7418C128.516 55.2257 129.136 55.0192 129.858 55.0192C130.787 54.916 131.407 55.2257 131.82 55.9482ZM131.303 58.9418C131.613 58.5289 131.82 58.116 131.82 57.4966C131.82 56.8773 131.613 56.4644 131.303 56.0515C130.994 55.6386 130.581 55.5353 129.961 55.5353C129.342 55.5353 128.929 55.7418 128.62 56.0515C128.31 56.4644 128.103 56.8773 128.103 57.4966C128.103 58.0128 128.31 58.5289 128.62 58.9418C128.929 59.3547 129.445 59.5611 129.961 59.5611C130.581 59.4579 130.994 59.3547 131.303 58.9418ZM137.91 57.4966L136.155 57.7031C135.639 57.8063 135.329 57.9095 135.123 58.0128C134.916 58.2192 134.813 58.4257 134.813 58.6321C134.813 58.9418 134.916 59.2515 135.123 59.3547C135.329 59.4579 135.639 59.5611 135.949 59.5611C136.568 59.5611 136.981 59.3547 137.291 59.045C137.6 58.7353 137.807 58.3224 137.807 58.0128V57.4966H137.91ZM135.949 60.2837C135.329 60.2837 134.916 60.1805 134.607 59.8708C134.297 59.5611 134.194 59.2515 134.194 58.7353C134.194 57.9095 134.813 57.3934 136.155 57.187L137.91 56.9805V56.8773C137.91 56.0515 137.394 55.5353 136.465 55.5353C135.639 55.5353 135.123 55.845 135.02 56.5676H134.297C134.4 56.0515 134.607 55.6386 134.916 55.4321C135.226 55.1224 135.742 55.0192 136.465 55.0192C137.187 55.0192 137.703 55.2257 138.116 55.5353C138.426 55.845 138.632 56.3611 138.632 56.9805V59.2515C138.632 59.7676 138.632 60.0773 138.736 60.2837H138.013C137.91 60.0773 137.91 59.7676 137.91 59.4579C137.497 59.9741 136.878 60.2837 135.949 60.2837ZM144.723 57.187V60.1805H144V57.0837C144 56.6708 143.897 56.2579 143.691 55.9482C143.484 55.6386 143.174 55.5353 142.762 55.5353C142.349 55.5353 141.936 55.6386 141.729 55.9482C141.42 56.2579 141.316 56.5676 141.316 57.0837V60.1805H140.594V55.0192H141.316V55.845C141.626 55.2257 142.142 54.916 142.968 54.916C143.794 54.916 144.31 55.2257 144.62 55.9482C144.826 55.6386 145.032 55.4321 145.342 55.2257C145.652 55.0192 146.065 54.916 146.478 54.916C147.097 54.916 147.51 55.1224 147.82 55.4321C148.129 55.7418 148.336 56.2579 148.336 56.8773V60.1805H147.613V57.0837C147.613 56.6708 147.51 56.2579 147.303 55.9482C147.097 55.6386 146.787 55.5353 146.374 55.5353C145.962 55.5353 145.549 55.6386 145.342 55.9482C144.826 56.2579 144.723 56.6708 144.723 57.187ZM154.736 57.8063H150.503C150.503 58.3224 150.71 58.7353 151.02 59.1482C151.329 59.4579 151.742 59.6644 152.258 59.6644C152.671 59.6644 152.981 59.5611 153.291 59.3547C153.6 59.1482 153.807 58.9418 153.91 58.5289H154.632C154.529 59.045 154.22 59.4579 153.807 59.7676C153.394 60.0773 152.878 60.2837 152.258 60.2837C151.432 60.2837 150.813 59.9741 150.4 59.4579C149.987 58.9418 149.678 58.3224 149.678 57.5999C149.678 56.8773 149.884 56.2579 150.4 55.7418C150.916 55.2257 151.432 54.916 152.258 54.916C153.084 54.916 153.6 55.1224 154.013 55.6386C154.426 56.1547 154.736 56.774 154.736 57.4966V57.8063ZM152.258 55.5353C151.742 55.5353 151.329 55.7418 151.02 56.0515C150.71 56.3611 150.503 56.7741 150.4 57.2902H153.91C153.91 56.7741 153.703 56.3611 153.394 56.0515C153.187 55.7418 152.774 55.5353 152.258 55.5353ZM158.039 60.2837C157.316 60.2837 156.8 60.0773 156.491 59.7676C156.181 59.4579 155.974 59.045 155.974 58.5289H156.697C156.697 58.8386 156.903 59.1482 157.11 59.3547C157.316 59.5611 157.626 59.6644 158.142 59.6644C158.555 59.6644 158.865 59.5611 159.174 59.4579C159.484 59.3547 159.484 59.045 159.484 58.8386C159.484 58.5289 159.381 58.3224 159.174 58.2192C158.968 58.116 158.658 58.0128 158.349 57.9095C158.039 57.9095 157.729 57.8063 157.42 57.7031C157.11 57.5999 156.8 57.4966 156.594 57.2902C156.387 57.0837 156.284 56.7741 156.284 56.3611C156.284 55.9482 156.491 55.6386 156.8 55.3289C157.11 55.0192 157.626 54.916 158.245 54.916C158.865 54.916 159.381 55.1224 159.691 55.4321C160 55.7418 160.207 56.1547 160.207 56.5676H159.484C159.484 56.2579 159.278 56.0515 159.071 55.845C158.865 55.6386 158.555 55.5353 158.142 55.5353C157.729 55.5353 157.42 55.6386 157.213 55.7418C157.007 55.9482 156.903 56.1547 156.903 56.3611C156.903 56.5676 157.007 56.7741 157.11 56.8773C157.316 56.9805 157.42 57.0837 157.729 57.0837C158.039 57.0837 158.245 57.187 158.452 57.187C158.762 57.2902 158.968 57.2902 159.174 57.3934C159.381 57.4966 159.587 57.5999 159.794 57.8063C160 58.0128 160 58.3224 160 58.6321C160 59.045 159.794 59.3547 159.484 59.6644C159.174 60.0773 158.658 60.2837 158.039 60.2837Z" stroke="white" stroke-width="0.6"/>
</g>
</g>
<path d="M30.6583 16.5161C26.3228 16.5161 21.6776 17.5484 17.9615 18.9935C13.7292 20.7484 8.87761 23.2258 5.47116 26.529C7.01955 25.6 8.87761 24.671 11.0454 23.9484C14.3486 22.8129 20.7486 20.3355 24.4647 23.329C28.1808 26.3226 28.0776 33.0322 27.1486 38.1935C26.2195 43.2516 24.4647 49.8581 19.5099 51.5097C14.555 53.0581 9.39374 48.8258 6.19374 45.6258C5.05826 44.4903 3.81955 43.3548 2.78729 42.0129C5.36794 46.2451 10.0131 49.7548 12.697 52.0258C21.9873 59.7677 26.8389 62.9677 30.555 61.5226C37.6776 58.6322 40.2583 49.8581 41.8066 42.9419C43.355 36.0258 45.5228 25.1871 41.1873 20.129C38.9163 17.5484 34.9937 16.5161 30.6583 16.5161Z" fill="url(#paint0_linear)"/>
<mask id="mask1" mask-type="alpha" maskUnits="userSpaceOnUse" x="0" y="16" width="45" height="47">
<path d="M18.7873 18.6839C21.7808 17.7549 25.8066 16.6194 29.8324 16.6194C30.1421 16.6194 30.4518 16.6194 30.7615 16.6194C29.7292 16.8258 28.6969 16.9291 27.7679 17.1355C23.3292 17.8581 16.826 19.7162 15.2776 24.671C13.7292 29.6258 18.0647 34.8904 21.6776 38.6065C25.2905 42.2194 30.7615 46.2452 35.3034 44.9033C39.8453 43.5613 41.4969 36.8516 42.426 33.4452C43.1485 30.8645 43.5614 28.5936 43.5614 26.5291C43.6647 27.0452 43.8711 27.6645 43.8711 28.2839C44.3873 32.3097 43.355 38.0904 42.5292 42.0129C40.7743 49.7549 37.4711 59.7678 29.7292 61.8323C21.9873 63.8968 14.4518 56.8774 9.60016 51.6129C4.85178 46.3484 -1.23855 39.742 0.413066 32.2065C1.44532 28.0774 7.3292 22.4 18.7873 18.6839Z" fill="white"/>
</mask>
<g mask="url(#mask1)">
<path d="M61.4194 77.3159L-17.5484 62.1417L1.03226 -4.85181L80.1032 10.3224L61.4194 77.3159Z" fill="url(#paint1_linear)"/>
</g>
<mask id="mask2" mask-type="alpha" maskUnits="userSpaceOnUse" x="0" y="16" width="45" height="47">
<path d="M18.7873 18.6839C21.7808 17.7549 25.8066 16.6194 29.8324 16.6194C30.1421 16.6194 30.4518 16.6194 30.7615 16.6194C29.7292 16.8258 28.6969 16.9291 27.7679 17.1355C23.3292 17.8581 16.826 19.7162 15.2776 24.671C13.7292 29.6258 18.0647 34.8904 21.6776 38.6065C25.2905 42.2194 30.7615 46.2452 35.3034 44.9033C39.8453 43.5613 41.4969 36.8516 42.426 33.4452C43.1485 30.8645 43.5614 28.5936 43.5614 26.5291C43.6647 27.0452 43.8711 27.6645 43.8711 28.2839C44.3873 32.3097 43.355 38.0904 42.5292 42.0129C40.7743 49.7549 37.4711 59.7678 29.7292 61.8323C21.9873 63.8968 14.4518 56.8774 9.60016 51.6129C4.85178 46.3484 -1.23855 39.742 0.413066 32.2065C1.44532 28.0774 7.3292 22.4 18.7873 18.6839Z" fill="white"/>
</mask>
<g mask="url(#mask2)">
<path d="M-2.37399 11.8708V65.1354H53.8841V11.8708H-2.37399Z" fill="url(#paint2_linear)"/>
</g>
<mask id="mask3" mask-type="alpha" maskUnits="userSpaceOnUse" x="3" y="41" width="30" height="21">
<path d="M32.103 44.9031C33.2385 50.3741 32.9288 55.9483 28.6966 59.6644C27.6643 60.5935 26.4256 61.316 25.1869 61.9354C19.0966 61.0064 13.5224 55.7419 9.70303 51.5096C7.63851 49.2386 5.26431 46.658 3.40625 43.8709C4.23206 44.0773 4.95464 44.1806 5.78044 44.387C11.7675 45.5225 19.9224 46.0386 23.7417 42.4257C24.1546 42.0128 24.4643 41.5999 24.774 41.187C26.9417 42.9419 29.5224 44.4902 32.103 44.9031Z" fill="white"/>
</mask>
<g mask="url(#mask3)">
<path d="M86.1935 58.942L4.74838 82.271L-23.7419 13.5226L57.7032 -9.8064L86.1935 58.942Z" fill="url(#paint3_linear)"/>
</g>
<mask id="mask4" mask-type="alpha" maskUnits="userSpaceOnUse" x="3" y="38" width="34" height="25">
<path d="M32.103 44.9032C38.2966 45.729 36.3353 57.6 32.103 61.3161C31.0708 62.2451 27.3546 64 25.1869 61.8322C19.0966 60.9032 13.5224 55.6387 9.70303 51.4064C7.63851 49.1354 5.26431 46.5548 3.40625 43.7677C4.23206 43.9741 4.74819 41.8064 5.57399 42.0129C11.5611 43.1483 12.6966 42.2193 16.5159 38.7096C16.9288 38.2967 24.4643 41.6 24.774 41.1871C26.9417 42.9419 29.5224 44.4903 32.103 44.9032Z" fill="white"/>
</mask>
<g mask="url(#mask4)">
<path d="M-2.3741 23.0192V23.6385C-2.16765 23.4321 -1.85797 23.2256 -1.65152 23.1224C-0.825713 22.503 0.10332 21.7804 1.13558 21.0579C-0.103132 21.574 -1.23862 22.2966 -2.3741 23.0192ZM23.742 28.903C24.8775 32.3095 27.4582 38.8127 23.6388 42.4256C19.8194 46.0385 11.7678 45.5224 5.67751 44.3869C3.09687 43.8708 0.206545 43.2514 -2.47733 42.2192V60.903C-1.13539 61.2127 0.309771 61.5224 1.54848 61.8321C9.80654 63.6901 21.9872 65.5482 28.5936 59.7675C35.2001 53.9869 32.2065 43.6643 29.1098 36.2321C27.5614 32.4127 24.9807 27.045 21.7807 23.9482C21.2646 23.4321 20.8517 23.0192 20.3356 22.7095C21.7807 24.2579 22.9162 26.3224 23.742 28.903Z" fill="url(#paint4_linear)"/>
</g>
</g>
<defs>
<linearGradient id="paint0_linear" x1="47.2782" y1="41.3849" x2="16.8706" y2="37.3675" gradientUnits="userSpaceOnUse">
<stop stop-color="#000056"/>
<stop offset="1" stop-color="#1010CB"/>
</linearGradient>
<linearGradient id="paint1_linear" x1="26.0078" y1="62.8218" x2="55.4839" y2="-87.0231" gradientUnits="userSpaceOnUse">
<stop stop-color="#01F5FC"/>
<stop offset="1" stop-color="#1010CB"/>
</linearGradient>
<linearGradient id="paint2_linear" x1="25.7207" y1="17.0771" x2="25.7207" y2="65.0913" gradientUnits="userSpaceOnUse">
<stop stop-color="#01F5FC"/>
<stop offset="1" stop-color="#1010CB"/>
</linearGradient>
<linearGradient id="paint3_linear" x1="39.4362" y1="64.4697" x2="-3.55841" y2="-83.4824" gradientUnits="userSpaceOnUse">
<stop stop-color="#00FFFD"/>
<stop offset="1" stop-color="#1010CB"/>
</linearGradient>
<linearGradient id="paint4_linear" x1="-17.6863" y1="31.7131" x2="38.3451" y2="52.5257" gradientUnits="userSpaceOnUse">
<stop stop-color="#00FFFD"/>
<stop offset="1" stop-color="#1010CB"/>
</linearGradient>
<clipPath id="clip0">
<rect width="160" height="80" fill="white"/>
</clipPath>
</defs>
</svg>
