<svg width="160" height="80" viewBox="0 0 160 80" fill="none" xmlns="http://www.w3.org/2000/svg">
<path d="M11.4137 49.7013V29.6407C11.4137 28.1189 12.6589 26.8738 14.1807 26.8738H24.211C27.0471 26.8738 28.2923 27.6347 28.2923 27.6347L26.9088 23H4.8422C2.1444 23.0692 0 25.2136 0 27.9114V51.7073C0 54.4051 2.1444 56.5495 4.8422 56.5495H157.786L158.478 55.0968L159.723 52.4682H14.1807C12.6589 52.4682 11.4137 51.2231 11.4137 49.7013Z" fill="white"/>
<path d="M33.342 32.6153C33.342 36.9041 33.342 38.7718 33.342 38.7718H24.7644C24.7644 38.7718 24.7644 37.1808 24.7644 32.6153C24.7644 31.9235 24.8335 31.2318 25.0411 30.54H18.7462C18.9537 31.2318 19.0229 31.9235 19.0229 32.6153C19.0229 37.9417 19.0229 43.1297 19.0229 47.2802C19.0229 48.0411 19.0229 48.802 18.7462 49.4938H25.0411C24.8335 48.7329 24.7644 47.9719 24.7644 47.211C24.7644 44.7208 24.7644 40.9853 24.7644 40.9853H33.2728C33.2728 40.9853 33.2728 43.4756 33.2728 47.2802C33.2728 48.0411 33.2728 48.802 32.9961 49.4938H42.0579L44.9632 43.8907H53.6792L55.6853 48.2486C55.8928 48.5945 55.962 49.0787 55.8928 49.4938H63.4328C63.4328 49.4938 63.2944 48.9404 63.2944 47.211C63.2944 42.0921 63.1561 38.7718 63.1561 34.6905L69.5893 49.4938H73.8781L81.0722 33.8604C81.0722 39.671 81.0722 42.5072 81.0722 47.2802C81.0722 48.0411 81.0722 48.802 80.7955 49.4938H87.4362C87.2287 48.7329 87.1595 47.9719 87.1595 47.211C87.1595 44.8591 87.1595 43.7523 87.1595 42.2997H98.85C100.372 42.2997 101.617 41.0545 101.617 39.5327V33.307C101.617 31.7852 100.372 30.54 98.85 30.54H79.4812L73.3939 43.7523L67.514 30.54H60.1816C60.3891 31.2318 60.4583 31.9235 60.4583 32.6153C60.4583 35.5898 60.4583 40.2244 60.4583 43.9598L54.0251 30.54H48.0069C48.1453 30.9551 48.0761 31.2318 47.7994 31.7852C45.5858 35.7973 39.0834 48.0411 39.0834 48.0411C39.0834 48.0411 39.0834 38.8409 39.0834 32.6153C39.0834 31.9235 39.1526 31.2318 39.3601 30.54H33.0653C33.2728 31.2318 33.342 31.9235 33.342 32.6153ZM87.1595 39.9477V32.7536H94.7687C95.5296 32.7536 96.1522 33.3762 96.1522 34.1371V38.6334C96.1522 39.3943 95.5296 40.0169 94.7687 40.0169H87.1595V39.9477ZM49.5979 34.898L52.7799 41.6771H46.2084L49.5979 34.898Z" fill="white"/>
<path d="M105.352 49.4938H111.094C110.886 48.7329 110.817 47.9719 110.817 47.211C110.817 41.3312 110.817 37.5958 110.817 32.6153C110.817 32.0619 110.886 31.2318 111.094 30.54H105.352C105.56 31.2318 105.629 31.9235 105.629 32.6153C105.629 36.5582 105.629 43.4756 105.629 47.2802C105.629 48.0411 105.629 48.802 105.352 49.4938Z" fill="white"/>
<path d="M117.665 49.4938H133.022C134.544 49.4938 135.789 48.2486 135.789 46.7268V33.307C135.789 31.7852 134.544 30.54 133.022 30.54H117.665C116.144 30.54 114.898 31.7852 114.898 33.307V46.7268C114.898 48.2486 116.144 49.4938 117.665 49.4938ZM120.363 34.1371C120.363 33.3762 120.986 32.7536 121.747 32.7536H129.01C129.771 32.7536 130.393 33.3762 130.393 34.1371V45.8275C130.393 46.5885 129.771 47.211 129.01 47.211H121.747C120.986 47.211 120.363 46.5885 120.363 45.8275V34.1371Z" fill="white"/>
<path d="M160 30.54H156.334C156.541 31.2318 156.61 31.9235 156.61 32.6153C156.61 36.0048 156.61 41.5387 156.61 45.4817L146.719 30.54H139.179C139.386 31.2318 139.455 31.9235 139.455 32.6153C139.455 36.5582 139.455 43.4756 139.455 47.2802C139.455 48.0411 139.455 48.802 139.179 49.4938H142.845C142.637 48.7329 142.568 47.9719 142.568 47.211C142.568 42.0921 142.568 38.6334 142.568 34.5521L152.46 49.4938H160C159.793 48.7329 159.723 47.9719 159.723 47.211C159.723 41.3312 159.723 37.5958 159.723 32.6153C159.723 32.0619 159.793 31.2318 160 30.54Z" fill="white"/>
</svg>
