<svg width="157" height="80" viewBox="0 0 157 80" fill="none" xmlns="http://www.w3.org/2000/svg">
<g clip-path="url(#clip0)">
<path d="M78.9254 66.6217C77.0181 68.8245 75.3257 70.7856 73.5258 72.8541C71.7797 70.8124 70.0872 68.8514 68.368 66.8635C67.8576 67.1321 68.0725 67.5888 68.0725 67.938C68.0456 71.5646 68.0456 75.1912 68.0725 78.8178C68.0725 79.4088 68.2068 79.9729 67.2397 79.9461C66.2726 79.9192 66.595 79.2476 66.595 78.8178C66.5681 74.1704 66.5681 69.4961 66.595 64.8487C66.595 64.392 66.2189 63.613 66.9442 63.5055C67.6695 63.398 68.5292 63.1294 69.1739 63.9085C70.5977 65.6277 72.102 67.2933 73.4989 69.0394C74.0093 69.6573 74.278 69.6841 74.7884 69.0663C76.1853 67.3739 77.6896 65.7889 79.0597 64.0696C79.7313 63.21 80.5641 63.4786 81.37 63.4786C81.7998 63.4786 81.7192 63.9085 81.7192 64.204C81.7192 69.1737 81.7192 74.1435 81.7192 79.1133C81.7192 80.5371 80.6446 79.758 80.0536 79.8923C79.3552 80.0535 78.8985 79.8923 78.9254 78.9521C78.9791 75.1375 78.9522 71.3497 78.9522 67.535C78.9791 67.347 78.9522 67.1321 78.9254 66.6217Z" fill="white"/>
<path d="M47.4948 75.4063C47.4948 76.6689 47.4948 77.9046 47.4948 79.1672C47.4948 79.6239 47.468 79.9462 46.877 79.9194C44.0294 79.7851 41.155 80.2417 38.3343 79.5164C34.1436 78.4687 31.699 75.1108 32.1019 70.92C32.5049 66.6219 35.7285 63.3982 39.9193 63.1027C42.3639 62.9415 44.6473 63.3982 46.6352 64.8757C46.9844 65.1175 47.7366 65.2249 47.1993 66.0309C46.6889 66.8099 46.3397 66.4338 45.8561 66.0846C44.4055 65.0369 42.7668 64.4728 40.967 64.6071C37.2329 64.9026 35.0569 67.5621 35.1107 71.6991C35.1644 75.5137 37.797 78.1732 41.7191 78.3881C44.7816 78.5493 44.7816 78.5493 44.7816 75.5406C44.7816 74.2511 44.8353 72.9348 44.7547 71.6454C44.6741 70.3559 45.5875 70.7589 46.2054 70.7589C46.7964 70.7589 47.6023 70.4096 47.5486 71.6185C47.4411 72.908 47.4948 74.1437 47.4948 75.4063Z" fill="white"/>
<path d="M123.573 75.3794C123.573 76.642 123.573 77.8777 123.573 79.1403C123.573 79.5701 123.573 79.9462 122.955 79.9194C120.161 79.785 117.314 80.2417 114.547 79.5433C110.114 78.4419 107.777 75.1108 108.234 70.4902C108.61 66.6487 112.075 63.3982 116.078 63.1296C118.576 62.9684 120.86 63.4788 122.901 64.9831C123.304 65.2786 123.734 65.4667 123.25 66.1114C122.821 66.7024 122.552 66.5412 122.095 66.192C120.618 65.0906 118.952 64.4727 117.099 64.6071C113.794 64.8488 111.511 67.1591 111.189 70.4633C110.839 74.278 112.666 77.1793 116.051 78.0926C116.266 78.1464 116.481 78.1732 116.723 78.227C118.039 78.5225 119.597 78.7911 120.645 78.2001C121.37 77.7971 120.806 76.1316 120.86 75.0302C120.913 73.875 120.913 72.693 120.86 71.5379C120.806 70.2753 121.719 70.7857 122.257 70.7588C122.821 70.732 123.68 70.3559 123.627 71.5648C123.519 72.8811 123.573 74.1437 123.573 75.3794Z" fill="white"/>
<path d="M103.774 75.4333C103.774 71.8067 103.774 68.207 103.801 64.5804C103.801 64.1775 103.479 63.5596 104.311 63.4521C105.198 63.3178 105.332 63.7476 105.332 64.4998C105.305 68.3951 105.305 72.2903 105.305 76.1855C105.305 76.9377 105.359 77.7168 105.278 78.4689C105.225 78.9525 105.735 79.7853 104.849 79.9196C104.07 80.027 103.237 80.1613 102.592 79.248C100.228 75.7826 97.7297 72.3977 95.312 68.9861C95.1508 68.7443 94.9359 68.5025 94.5329 68.019C94.5329 71.6187 94.5329 74.8961 94.5329 78.1734C94.5329 78.5227 94.5061 78.8988 94.5329 79.248C94.5867 79.839 94.318 80.027 93.7539 80.0002C93.1897 80.0002 93.0823 79.7584 93.0823 79.2748C93.0823 74.2513 93.0823 69.2547 93.0823 64.2312C93.0823 63.9357 92.9748 63.5327 93.4584 63.5059C94.1568 63.479 94.8016 63.3716 95.3388 64.1506C97.1924 66.8907 99.1535 69.5502 101.061 72.2366C101.867 73.338 102.646 74.4662 103.452 75.5677C103.586 75.4871 103.693 75.4602 103.774 75.4333Z" fill="white"/>
<path d="M88.7573 71.7258C88.7573 74.1435 88.7036 76.5613 88.7842 78.9521C88.8379 80.1879 88.032 79.9192 87.3873 79.8924C86.7694 79.8655 85.9367 80.2416 85.9635 78.979C86.0172 74.1167 86.0172 69.2544 85.9635 64.3652C85.9367 63.2369 86.5814 63.3712 87.2261 63.4249C87.844 63.4787 88.8111 62.9414 88.7842 64.3383C88.7036 66.8098 88.7573 69.2812 88.7573 71.7258Z" fill="white"/>
<path d="M57.8373 64.0966C57.6761 63.6937 57.4881 63.425 56.9777 63.425C56.4404 63.425 56.3061 63.8011 56.1449 64.1504C55.3121 66.1114 54.5062 68.0993 53.6734 70.0604C52.3302 73.284 50.9602 76.5076 49.5901 79.7581C50.8527 80.188 51.5781 79.8387 51.8198 78.603C52.0616 77.3404 52.8138 76.9375 54.1032 77.0449C55.7419 77.1792 57.4075 77.1524 59.073 77.0449C60.1207 76.9643 60.6848 77.3673 60.8729 78.3075C61.1415 79.6507 61.9206 80.1342 63.2369 79.9193C63.5861 79.8656 63.9353 79.9193 64.4995 79.9193C62.2161 74.4929 60.0132 69.3082 57.8373 64.0966ZM58.9387 75.7017C57.0582 75.7017 55.2047 75.7017 53.0824 75.7017C54.1838 73.0691 55.2046 70.5976 56.3867 67.8038C57.5149 70.4365 58.5626 72.8005 59.5566 75.1913C59.7715 75.7823 59.2611 75.7017 58.9387 75.7017Z" fill="white"/>
<path d="M128.677 0C115.917 0 105.574 9.50974 105.574 21.2223C105.574 25.1713 106.756 28.8516 108.798 32.0215C112.827 38.2539 120.215 42.4446 128.677 42.4446C137.139 42.4446 144.527 38.2539 148.556 32.0215C146.461 41.0745 138.348 47.8173 128.677 47.8173C122.23 47.8173 116.078 47.0114 100.282 38.4688C101.786 35.084 102.619 31.3499 102.619 27.4009C102.619 12.2767 90.3425 0 75.2183 0C60.094 0 47.8173 12.2767 47.8173 27.4009C47.8173 31.5379 48.7307 35.46 50.3694 38.9792C48.9725 39.8657 47.3338 40.9402 45.3996 42.176C34.9228 48.8919 27.4009 47.8173 27.4009 47.8173C16.1182 47.8173 6.98455 38.6837 6.98455 27.4009C6.98455 16.1182 16.1182 6.98455 27.4009 6.98455C34.6273 6.98455 40.994 10.7455 44.6206 16.4406C45.5071 13.9691 46.6891 11.632 48.1128 9.48287C43.0893 3.65346 35.6749 0 27.4009 0C12.2767 0 0 12.2767 0 27.4009C0 42.5252 12.2767 54.8019 27.4009 54.8019C40.0269 54.8019 48.8919 48.086 53.4587 45.131C53.6467 45.0235 53.8348 44.8892 54.0228 44.7549C59.0463 50.8798 66.6756 54.8019 75.2183 54.8019C83.8952 54.8019 91.6051 50.7723 96.6286 44.4862C98.1598 45.3459 99.6105 46.1518 100.739 46.7428C105.306 49.1605 117.126 54.8019 128.677 54.8019C143.801 54.8019 156.078 42.5252 156.078 27.4009C156.078 12.2767 143.801 0 128.677 0ZM128.677 35.46C119.624 35.46 112.29 29.0934 112.29 21.2223C112.29 13.8617 118.737 7.79046 126.985 7.06514C127.011 7.06514 127.038 7.06514 127.065 7.06514C127.307 7.03828 127.522 7.03828 127.764 7.01142C128.059 6.98455 128.381 6.98455 128.677 6.98455C128.972 6.98455 129.295 6.98455 129.59 7.01142C129.832 7.01142 130.074 7.03828 130.289 7.06514C130.316 7.06514 130.343 7.06514 130.369 7.06514C138.617 7.79046 145.064 13.8617 145.064 21.2223C145.064 29.0934 137.73 35.46 128.677 35.46ZM75.2183 47.8173C69.2008 47.8173 63.7743 45.2116 60.0403 41.0477C59.503 40.4567 58.9926 39.812 58.5359 39.1404C58.5091 39.0866 58.4553 39.0329 58.4285 38.9792C58.2942 38.7911 58.1867 38.6031 58.0524 38.415C57.9987 38.3613 57.9718 38.2807 57.9181 38.227C57.8106 38.039 57.6763 37.8509 57.5688 37.6629C57.542 37.6091 57.4882 37.5285 57.4614 37.4748C57.3539 37.2868 57.2465 37.0719 57.139 36.857C57.1122 36.8032 57.0853 36.7495 57.0584 36.6689C56.951 36.454 56.8435 36.2391 56.7361 36.0242C56.7092 35.9705 56.7092 35.9436 56.6823 35.8899C56.5749 35.6481 56.4674 35.4063 56.36 35.1645C55.3392 32.7737 54.8019 30.141 54.8019 27.4009C54.8019 16.1182 63.9355 6.98455 75.2183 6.98455C86.501 6.98455 95.6347 16.1182 95.6347 27.4009C95.6347 30.141 95.0974 32.7468 94.1034 35.1377C90.3694 33.1229 89.8858 32.8274 89.8321 32.7737C89.7515 32.7468 89.6709 32.7199 89.5903 32.6662C85.2653 31.0007 80.403 29.7918 75.2183 29.7918C70.0336 29.7918 65.4399 30.5709 60.8462 32.6394C61.6521 34.8422 62.9416 36.7764 64.5803 38.3613C67.777 37.1525 71.4036 36.4809 75.2183 36.4809C79.0329 36.4809 82.6595 37.1525 85.8563 38.3613C85.9369 38.3882 86.0443 38.4419 86.1249 38.4688C86.1249 38.4688 87.9785 39.5433 90.4231 40.9402C86.7159 45.1847 81.2626 47.8173 75.2183 47.8173Z" fill="url(#paint0_linear)"/>
</g>
<defs>
<linearGradient id="paint0_linear" x1="78.039" y1="53.7273" x2="78.039" y2="0.507135" gradientUnits="userSpaceOnUse">
<stop stop-color="#F4791F"/>
<stop offset="1" stop-color="#FFCB07"/>
</linearGradient>
<clipPath id="clip0">
<rect width="156.078" height="80" fill="white"/>
</clipPath>
</defs>
</svg>
