<svg width="160" height="80" viewBox="0 0 160 80" fill="none" xmlns="http://www.w3.org/2000/svg">
<g clip-path="url(#clip0_5937_8)">
<path d="M73.931 45.5359C69.1569 52.5695 64.3828 59.6031 59.4511 66.8636C59.4511 59.6031 59.4511 52.6149 59.4511 45.4905C58.9332 45.6493 58.8431 46.0351 58.6404 46.3073C54.1816 52.8418 49.7227 59.3762 45.3089 65.9561C44.7685 66.7502 44.228 67.0225 43.3047 66.9998C41.4131 66.9317 39.4989 66.9771 37.6073 66.9771C37.4497 66.546 37.765 66.3645 37.9226 66.1376C45.0612 55.9048 52.1999 45.672 59.316 35.4393C59.7438 34.804 60.2168 34.5544 60.9824 34.5998C62.0633 34.6678 63.1668 34.6678 64.2477 34.5998C65.126 34.5317 65.3962 34.804 65.3737 35.7115C65.3286 39.4552 65.3512 43.1989 65.3512 46.9426C65.3512 47.1695 65.3512 47.3964 65.3512 47.6233C65.779 47.6006 65.8241 47.2603 65.9817 47.0334C68.684 43.1762 71.3864 39.3191 74.0436 35.4166C74.449 34.8267 74.8543 34.5317 75.5975 34.5771C76.791 34.6451 78.007 34.6451 79.2006 34.5771C79.9662 34.5317 80.1239 34.804 80.1239 35.53C80.1013 40.5216 80.1013 45.5132 80.1013 50.5048C80.1013 55.6099 80.0788 60.7149 80.1239 65.8199C80.1239 66.7956 79.8536 67.0451 78.9303 66.9771C77.6918 66.8863 76.4532 66.909 75.2146 66.9771C74.3364 67.0225 74.0887 66.7729 74.0887 65.8653C74.1337 59.2401 74.1112 52.6376 74.1112 46.0124C74.1112 45.8762 74.1112 45.7401 74.1112 45.604C74.0662 45.5813 73.9986 45.5586 73.931 45.5359Z" fill="white"/>
<path d="M106.607 43.7662C106.607 44.9914 106.607 46.2393 106.607 47.4645C106.607 53.5905 106.584 59.7166 106.629 65.8426C106.629 66.6821 106.494 67.0678 105.548 66.9998C104.197 66.909 102.846 66.9544 101.495 66.9998C100.842 67.0224 100.571 66.8863 100.571 66.1376C100.594 55.9275 100.594 45.7174 100.571 35.5073C100.571 34.6905 100.864 34.5771 101.562 34.5998C103.184 34.6451 104.783 34.6678 106.404 34.5998C107.215 34.5544 107.597 34.8947 107.958 35.5527C112.079 42.904 116.222 50.2552 120.366 57.6065C120.434 57.7199 120.524 57.8334 120.591 57.9695C120.974 57.7653 120.794 57.4704 120.794 57.2435C120.794 50.051 120.816 42.8813 120.794 35.6888C120.794 34.872 120.951 34.5544 121.83 34.5998C123.023 34.6905 124.239 34.6905 125.433 34.5998C126.401 34.5317 126.694 34.7813 126.694 35.825C126.649 43.267 126.671 50.709 126.671 58.1737C126.671 60.8283 126.649 63.4603 126.694 66.1149C126.694 66.8182 126.491 67.0224 125.816 66.9998C124.239 66.9544 122.663 66.9317 121.087 66.9998C120.343 67.0224 119.961 66.7502 119.6 66.1149C115.569 58.9678 111.493 51.8435 107.44 44.7191C107.26 44.4014 107.08 44.0838 106.877 43.7435C106.742 43.7662 106.674 43.7662 106.607 43.7662Z" fill="white"/>
<path d="M31.3469 44.3787C29.095 44.3787 27.0457 44.356 24.974 44.3787C24.5236 44.3787 24.3209 44.1064 24.0732 43.8115C20.9205 39.977 15.8536 38.9106 11.5074 41.1569C7.0936 43.4258 4.81914 48.5308 6.05771 53.2955C7.45391 58.6501 11.8677 61.8493 17.3399 61.5316C18.1731 61.4863 18.7811 61.2367 19.2766 60.4652C20.1999 58.9678 21.2808 57.561 22.2716 56.1089C22.0464 55.7232 21.7087 55.9047 21.4609 55.9047C18.9163 55.8821 16.3491 55.8594 13.8044 55.9274C12.9261 55.9501 12.7234 55.6779 12.7685 54.8384C12.836 53.6358 12.791 52.4106 12.791 51.2081C12.791 50.7316 12.836 50.4367 13.4441 50.4367C19.7945 50.4594 26.1224 50.4594 32.4729 50.4821C32.4954 50.4821 32.5179 50.5274 32.608 50.6636C32.2252 51.2308 31.7973 51.8434 31.392 52.456C28.5545 56.6308 25.7171 60.8056 22.9022 65.0031C22.4518 65.6837 21.9113 66.0468 21.1457 66.2736C11.8227 69.019 2.0943 63.1879 0.270231 53.772C-1.44124 44.8779 4.97678 36.0064 13.962 34.8493C19.6819 34.1006 24.5236 35.9384 28.5771 39.977C29.7931 41.1342 30.6038 42.609 31.3469 44.3787Z" fill="white"/>
<path d="M149.731 55.9048C146.691 55.9048 143.876 55.8821 141.061 55.9275C140.341 55.9275 140.07 55.7687 140.115 54.9972C140.183 53.704 140.138 52.4334 140.115 51.1401C140.115 50.709 140.183 50.4367 140.723 50.4367C147.096 50.4594 153.469 50.4367 160.023 50.4367C159.527 51.2082 159.122 51.8208 158.716 52.4334C155.856 56.6535 152.996 60.851 150.159 65.0712C149.754 65.6838 149.281 66.0241 148.583 66.2283C139.102 69.0871 129.261 63.1199 127.527 53.4317C125.973 44.6964 132.414 35.9384 141.286 34.8493C147.907 34.0325 153.267 36.3695 157.298 41.7468C157.861 42.4956 158.671 43.4712 158.401 44.2199C158.198 44.7872 156.847 44.3334 155.992 44.4014C155.654 44.4241 155.316 44.3787 154.978 44.4014C153.109 44.5829 151.668 44.1519 150.182 42.6317C147.434 39.8409 143.854 39.3418 140.16 40.6351C136.355 41.9737 133.99 44.7645 133.27 48.7577C131.963 55.9275 137.503 62.0308 144.709 61.5544C145.565 61.4863 146.151 61.214 146.624 60.4426C147.524 58.9451 148.583 57.5157 149.731 55.9048Z" fill="white"/>
<path d="M93.3427 50.8226C93.3427 53.9537 93.3878 57.1075 93.3202 60.2386C93.2977 61.2142 93.5905 61.4411 94.5137 61.373C95.7073 61.2823 96.9233 61.373 98.1168 61.3504C98.6348 61.3277 98.8375 61.4638 98.8375 62.031C98.7924 63.4377 98.8149 64.8218 98.8375 66.2285C98.8375 66.7277 98.7699 66.9772 98.1619 66.9772C92.9824 66.9546 87.803 66.9546 82.6235 66.9772C82.083 66.9772 81.9254 66.773 81.9254 66.2512C81.9479 64.8445 81.9479 63.4604 81.9254 62.0537C81.9029 61.4865 82.1281 61.3504 82.646 61.3504C83.9522 61.373 85.2808 61.3277 86.5869 61.373C87.24 61.3957 87.5102 61.2596 87.5102 60.5109C87.4877 54.0445 87.4877 47.5781 87.5102 41.1117C87.5102 40.3856 87.285 40.2041 86.6094 40.2268C85.3258 40.2722 84.0648 40.2041 82.7811 40.2495C82.1731 40.2722 81.9029 40.1588 81.9254 39.4554C81.9704 38.1394 81.9704 36.8008 81.9254 35.4848C81.9029 34.8722 82.1056 34.7134 82.6911 34.7134C87.8255 34.7361 92.9824 34.7361 98.1168 34.7134C98.6348 34.7134 98.8375 34.8268 98.8149 35.3941C98.7699 36.7554 98.7699 38.1167 98.8149 39.4781C98.8375 40.068 98.6798 40.2722 98.0718 40.2495C96.7657 40.2041 95.437 40.2722 94.1309 40.2268C93.4779 40.2041 93.3202 40.431 93.3202 41.0663C93.3653 44.3109 93.3427 47.5781 93.3427 50.8226Z" fill="white"/>
<path d="M44.228 54.2941C44.228 51.2084 44.228 48.463 44.228 45.6949C43.7326 45.6723 43.6875 46.1034 43.5299 46.3529C39.0711 52.8874 34.5897 59.3992 30.1759 65.979C29.6355 66.7731 29.095 67.0454 28.1717 67.0227C26.3026 66.9546 24.4335 67 22.5644 67C22.3617 66.6597 22.632 66.4781 22.7671 66.2739C29.9282 55.9731 37.0894 45.6723 44.2505 35.3714C44.5883 34.8949 44.9036 34.6454 45.5341 34.6681C46.7727 34.7134 48.0113 34.7134 49.2498 34.6681C49.9029 34.6454 50.1731 34.8042 50.1506 35.5302C50.1056 39.047 50.1281 42.5639 50.1281 46.0807C50.1281 46.421 50.1281 46.7386 49.9029 47.0336C48.1013 49.3706 46.2773 51.7076 44.228 54.2941Z" fill="white"/>
<path d="M51.5018 17.5829C51.5018 21.5081 51.4792 25.4334 51.5243 29.3813C51.5243 30.1754 51.3892 30.493 50.5109 30.493C49.6101 30.493 49.5651 30.1073 49.5876 29.4039C49.6101 24.4123 49.5876 19.4207 49.6101 14.4292C49.6101 13.9981 49.3624 13.3628 49.8128 13.1813C50.2857 12.9771 50.5334 13.6123 50.8262 13.93C52.6953 15.9947 54.5419 18.0821 56.411 20.1695C58.2576 22.2569 60.1267 24.3216 61.9733 26.409C62.3786 26.2502 62.1759 25.8871 62.1759 25.6376C62.1985 21.9392 62.221 18.2182 62.1759 14.5199C62.1759 13.7031 62.4011 13.4989 63.1893 13.4989C63.955 13.4989 64.2252 13.6577 64.2027 14.4972C64.1576 19.6023 64.1802 24.7073 64.1802 29.8123C64.1802 30.13 64.3828 30.5838 64 30.7426C63.5496 30.9241 63.3695 30.425 63.1443 30.1754C59.4511 26.0913 55.7579 22.0073 52.0873 17.9233C51.9747 17.7871 51.9071 17.6056 51.7945 17.4468C51.6594 17.4695 51.5693 17.5149 51.5018 17.5829Z" fill="white"/>
<path d="M17.3624 16.2669C12.8811 14.2022 9.39056 14.6787 7.2287 17.6056C5.31455 20.1695 5.42715 24.0493 7.49893 26.5451C9.75087 29.2678 13.1513 29.5627 17.2723 27.43C17.7903 29.4493 17.6552 29.7442 15.7185 30.2434C11.9803 31.219 8.53482 30.8106 5.80998 27.793C3.46797 25.2064 2.99506 21.0997 4.50386 18.1501C6.39548 14.4745 9.57071 12.6594 13.4891 13.0678C14.1647 13.1358 14.8177 13.272 15.4708 13.4308C17.52 13.9073 17.5651 13.998 17.3624 16.2669Z" fill="white"/>
<path d="M85.2358 16.2897C80.912 14.2023 77.4215 14.6561 75.1696 17.5376C73.2329 20.0107 73.278 23.8906 75.2597 26.3864C77.4891 29.1998 80.7994 29.5628 85.3033 27.3847C85.3033 28.02 85.3033 28.6099 85.3033 29.1998C85.3033 29.5402 85.1682 29.7217 84.8304 29.8578C80.1689 31.7637 73.9986 30.6973 71.9718 24.8435C69.9901 19.1259 74.4715 12.3191 81.2724 13.0452C81.9479 13.1133 82.601 13.2267 83.2541 13.3855C85.3934 13.8847 85.461 14.0208 85.2358 16.2897Z" fill="white"/>
<path d="M97.1485 22.0074C97.1485 19.4662 97.171 16.9477 97.1259 14.4066C97.1259 13.7259 97.3061 13.499 98.0042 13.499C100.436 13.5444 102.891 13.5444 105.323 13.499C106.156 13.4763 106.179 13.862 106.224 14.4973C106.269 15.2914 105.909 15.3368 105.3 15.3141C103.544 15.2914 101.765 15.3368 100.008 15.2914C99.2203 15.2687 99.0401 15.541 99.0851 16.2671C99.1527 17.2881 99.1527 18.3091 99.0851 19.3301C99.0401 20.1015 99.2428 20.3965 100.076 20.3738C101.72 20.3057 103.386 20.3511 105.03 20.3511C105.638 20.3511 106.269 20.1469 106.269 21.236C106.269 22.3931 105.548 22.0528 104.985 22.0528C103.296 22.0755 101.607 22.0982 99.9184 22.0528C99.2653 22.0301 99.0851 22.257 99.1077 22.8923C99.1527 24.5259 99.1527 26.1368 99.1077 27.7704C99.0851 28.5192 99.3779 28.6553 100.031 28.6326C101.833 28.5872 103.634 28.6553 105.436 28.6099C106.066 28.5872 106.291 28.7914 106.246 29.4267C106.224 29.994 106.269 30.425 105.436 30.4024C102.958 30.357 100.481 30.357 98.0042 30.4024C97.2611 30.425 97.1485 30.1301 97.1485 29.4721C97.171 26.999 97.1485 24.5032 97.1485 22.0074Z" fill="white"/>
<path d="M145.993 22.892C145.993 20.6231 145.97 18.3542 146.015 16.0853C146.015 15.4273 145.835 15.2458 145.182 15.2685C144.056 15.3139 142.93 15.2458 141.804 15.2912C141.106 15.3139 141.129 14.9282 141.129 14.429C141.151 13.9299 141.039 13.4761 141.827 13.4761C145.272 13.5215 148.718 13.5215 152.163 13.4761C152.929 13.4761 152.861 13.8845 152.884 14.4063C152.906 14.9736 152.839 15.3139 152.118 15.2912C151.082 15.2231 150.024 15.3366 148.965 15.2685C148.222 15.2231 148.042 15.4727 148.042 16.1988C148.087 20.5778 148.042 24.9567 148.065 29.3357C148.065 30.1072 147.975 30.4929 147.051 30.4702C146.196 30.4475 145.88 30.266 145.925 29.3357C146.038 27.203 145.993 25.0475 145.993 22.892Z" fill="white"/>
<path d="M34.2519 13.0224C29.2301 12.9543 25.1766 16.8114 25.0866 21.7577C24.9965 26.8173 28.9599 30.856 34.0718 30.9241C39.0936 30.9921 43.102 27.0669 43.1921 22.0072C43.2822 17.1064 39.2963 13.0904 34.2519 13.0224ZM34.2519 28.9274C30.2885 28.9274 27.1809 25.8644 27.1809 21.9619C27.2034 18.0367 30.2435 14.8829 34.0042 14.8602C37.9226 14.8602 41.1203 17.9913 41.0978 21.8484C41.0753 25.7509 38.0127 28.9047 34.2519 28.9274Z" fill="white"/>
<path d="M126.041 13.658C124.262 13.3404 122.46 13.59 120.659 13.4992C119.983 13.4538 120.096 13.9303 120.096 14.3387C120.096 16.8572 120.096 19.3984 120.096 21.9169C120.096 24.4807 120.141 27.0446 120.073 29.6084C120.051 30.5387 120.591 30.4253 121.154 30.4253C121.717 30.4253 122.28 30.5387 122.213 29.6084C122.122 28.3606 122.167 27.1127 122.19 25.8648C122.213 24.8664 122.055 23.9362 122.393 23.1648C122.685 22.4841 124.239 22.8017 125.208 22.779C127.73 22.7563 129.486 21.1908 129.734 18.695C130.004 15.995 128.698 14.1572 126.041 13.658ZM124.847 21.1C122.167 21.1454 122.167 21.1454 122.167 18.4227C122.167 18.3547 122.167 18.2639 122.167 18.1958C122.167 18.0143 122.19 17.7874 122.19 17.6286C122.19 15.3143 122.077 15.3143 123.181 15.3143C126.334 15.3143 127.64 16.1311 127.617 18.1732C127.617 19.8295 126.446 21.0774 124.847 21.1Z" fill="white"/>
</g>
<defs>
<clipPath id="clip0_5937_8">
<rect width="160" height="80" fill="white"/>
</clipPath>
</defs>
</svg>
