<svg width="160" height="80" viewBox="0 0 160 80" fill="none" xmlns="http://www.w3.org/2000/svg">
<g clip-path="url(#clip0)">
<path d="M40.3053 42.3129C43.0496 37.6125 45.9234 32.6883 48.6676 27.988C50.0916 25.5259 53.0689 20.3281 53.0689 20.3281C55.3471 26.6201 58.7645 36.0208 61.0687 42.3129C60.9651 42.3129 40.3571 42.3129 40.3053 42.3129Z" fill="#FE0000"/>
<path d="M86.7176 22.771C86.8489 22.771 106.26 22.771 106.26 22.771C102.74 29.7399 98.6949 37.8119 95.1752 44.7557C95.2015 44.7557 89.423 29.7399 86.7176 22.771Z" fill="#FE0000"/>
<path d="M92.8244 42.3129C90.4906 35.7224 85.0607 20.3281 85.0607 20.3281C85.0607 20.9747 85.0607 22.069 85.0607 22.6659C84.7987 28.9081 84.5606 36.0706 84.2748 42.3129C84.6797 42.3129 92.6577 42.3129 92.8244 42.3129Z" fill="#FE0000"/>
<path d="M63.1268 44.7557C61.6207 40.6632 60.2202 36.8702 58.7933 33.0771C57.6307 29.9828 56.0981 25.8653 54.9618 22.771C55.1468 22.771 69.8649 22.771 76.9466 22.771C72.3488 30.1325 67.8039 37.3194 63.1268 44.7557Z" fill="#FE0000"/>
<path d="M82.9981 13.0088C82.9214 13.1911 82.5886 13.7379 82.5374 13.842C75.9333 25.0902 68.8685 37.1716 62.2901 48.4198C62.4437 48.4198 75.4726 48.4198 81.9487 48.4198C82.0766 44.9569 82.2046 41.4939 82.3326 38.0309C82.563 31.6257 82.7934 25.2204 83.0237 18.8152C83.0237 17.305 83.0493 16.0813 83.0493 14.5971C83.0493 13.7379 83.0749 12.9047 82.9981 13.0088ZM80.7456 45.9202C80.72 46.3629 80.72 46.5972 80.72 47.144C80.4384 47.144 80.0289 47.144 79.5169 47.144C74.6279 47.0919 69.7132 47.118 64.5426 47.118C70.2508 37.3799 76.1637 27.2514 81.7695 17.6696C81.7695 18.9194 81.7183 19.7265 81.7183 20.5858C81.4111 29.0219 81.0528 37.4841 80.7456 45.9202Z" fill="#FE0000"/>
<path d="M97.3667 61.8701C97.3667 63.3036 97.3537 64.7372 97.3798 66.1707C97.3928 66.6529 97.3016 66.8484 96.7542 66.8484C95.1121 66.8224 95.1121 66.8484 95.1121 65.1803C95.1121 64.4896 95.0991 63.7858 95.1252 63.0951C95.1382 62.7432 95.0079 62.652 94.669 62.652C93.7307 62.665 92.8054 62.6781 91.8671 62.652C91.437 62.639 91.3719 62.8345 91.3719 63.1994C91.3849 64.242 91.3588 65.2845 91.3849 66.3271C91.3979 66.7311 91.2546 66.8354 90.8636 66.8484C89.1173 66.8875 89.1173 66.9006 89.1173 65.1673C89.1173 62.5999 89.1303 60.0455 89.1042 57.4782C89.1042 57.022 89.1694 56.8396 89.6907 56.8396C91.3849 56.8526 91.3849 56.8266 91.3849 58.5208C91.3849 59.0681 91.411 59.6024 91.3719 60.1498C91.3458 60.5929 91.5152 60.6972 91.9323 60.6841C92.8185 60.6581 93.7177 60.6581 94.6039 60.6841C94.9949 60.6972 95.1382 60.5799 95.1252 60.1759C95.0991 59.2636 95.1382 58.3513 95.1121 57.4391C95.0991 57.009 95.1773 56.7875 95.6725 56.8396C96.2199 56.9048 96.9627 56.605 97.2885 56.9699C97.5622 57.2827 97.3798 57.9995 97.3798 58.5468C97.3798 59.6546 97.3667 60.7623 97.3667 61.8701Z" fill="#FE0000"/>
<path d="M128.488 60.384C128.423 61.3875 128.605 62.6125 128.37 63.8245C127.953 65.9879 126.468 67.0956 124.07 67.0044C121.959 66.9262 120.629 65.7272 120.408 63.603C120.186 61.4787 120.356 59.3544 120.316 57.2302C120.316 56.9435 120.434 56.8783 120.707 56.8522C122.597 56.7089 122.597 56.6958 122.597 58.5855C122.597 59.9279 122.597 61.2832 122.597 62.6256C122.597 63.1338 122.636 63.629 122.832 64.0982C123.131 64.841 123.666 65.206 124.435 65.206C125.204 65.1929 125.738 64.828 126.012 64.0852C126.194 63.5899 126.246 63.0687 126.246 62.5474C126.246 60.8271 126.259 59.1199 126.233 57.3996C126.233 56.9565 126.363 56.8262 126.78 56.8653C127.328 56.9304 128.071 56.6176 128.397 56.9956C128.67 57.3084 128.488 58.0251 128.488 58.5725C128.488 59.0938 128.488 59.6281 128.488 60.384Z" fill="#FE0000"/>
<path d="M31.5796 64.9453C33.0392 64.9453 34.3945 64.9584 35.7369 64.9323C36.1539 64.9193 36.3494 64.9975 36.3494 65.4797C36.3364 66.809 36.3624 66.809 35.0331 66.809C33.1695 66.809 31.3059 66.809 29.4292 66.809C28.543 66.809 28.2172 66.2095 28.6733 65.4145C28.7515 65.2842 28.8428 65.1669 28.934 65.0366C30.2894 63.0948 31.6447 61.1529 32.9871 59.2111C33.0783 59.0808 33.2868 58.9505 33.1825 58.768C33.0913 58.5856 32.8698 58.6898 32.7134 58.6898C31.6317 58.6768 30.537 58.6768 29.4553 58.6898C29.1034 58.7029 28.9731 58.5986 28.9601 58.2207C28.921 56.8523 28.9079 56.8523 30.3285 56.8523C31.9836 56.8523 33.6256 56.8392 35.2807 56.8653C35.5935 56.8653 36.0757 56.6828 36.18 56.9826C36.3233 57.3996 36.3624 57.9209 36.1018 58.364C36.0106 58.5074 35.9063 58.6507 35.8151 58.7941C34.5249 60.6707 33.2216 62.5474 31.9314 64.411C31.8272 64.5544 31.7359 64.6977 31.5796 64.9453Z" fill="#FE0000"/>
<path d="M105.564 66.9918C104.86 66.9527 104.039 66.8354 103.257 66.5487C102.957 66.4445 102.84 66.2881 102.931 65.9753C103.062 65.5452 103.036 64.9588 103.322 64.6981C103.609 64.4245 104.078 64.8806 104.482 64.9588C105.121 65.0891 105.772 65.1934 106.411 65.063C106.88 64.9718 107.271 64.7503 107.375 64.229C107.467 63.6946 107.206 63.3428 106.763 63.1212C106.333 62.9127 105.89 62.7433 105.447 62.5608C104.938 62.3523 104.456 62.1177 104.026 61.7789C102.553 60.606 102.579 58.4947 104.156 57.4522C105.694 56.4356 107.362 56.566 109.043 57.1003C109.239 57.1654 109.343 57.2697 109.252 57.4782C109.239 57.5173 109.226 57.5564 109.213 57.5955C109.096 58.0125 109.096 58.5469 108.822 58.8206C108.509 59.1464 108.053 58.6642 107.649 58.6251C107.063 58.5729 106.489 58.4687 105.916 58.6902C105.577 58.8206 105.329 59.0551 105.29 59.4461C105.251 59.811 105.46 60.0586 105.733 60.2541C106.137 60.5278 106.58 60.6842 107.023 60.8536C107.532 61.0491 108.027 61.2576 108.483 61.5704C110.216 62.7824 110.125 65.2716 108.301 66.3532C107.649 66.7572 106.685 66.9918 105.564 66.9918Z" fill="#FE0000"/>
<path d="M5.39746 56.709C5.98392 56.696 6.64856 56.7872 7.30018 56.9827C7.57386 57.0609 7.69115 57.1781 7.58689 57.4909C7.44354 57.8949 7.4696 58.4293 7.20896 58.716C6.89618 59.0548 6.42702 58.6247 6.02301 58.5856C4.70675 58.4683 3.45564 58.6117 2.68673 59.8237C1.89176 61.0748 1.91782 62.4171 2.60854 63.7204C3.03861 64.5284 3.79448 64.9063 4.66765 65.0366C5.22804 65.1279 5.78843 65.0757 6.34882 65.0106C6.64856 64.9845 7.0656 64.6326 7.22199 64.9454C7.44354 65.3885 7.44354 65.9489 7.49567 66.4702C7.5087 66.6396 7.27412 66.6657 7.14379 66.6918C5.59295 67.0958 4.05513 67.1348 2.54338 66.5223C0.314847 65.597 -0.766834 63.1079 -0.0891528 60.4623C0.523367 58.0904 2.53035 56.6829 5.39746 56.709Z" fill="#FE0000"/>
<path d="M113.657 62.8343C113.657 61.6353 113.644 60.4494 113.67 59.2504C113.683 58.8334 113.54 58.7291 113.149 58.7422C112.562 58.7682 111.976 58.7422 111.39 58.7552C111.09 58.7682 110.986 58.677 110.959 58.3512C110.855 56.8394 110.855 56.8394 112.354 56.8394C114.27 56.8394 116.172 56.8525 118.088 56.8264C118.518 56.8264 118.701 56.9046 118.688 57.3868C118.675 58.7422 118.701 58.7422 117.319 58.7422C115.938 58.7422 115.938 58.7422 115.938 60.1236C115.938 62.1697 115.925 64.2027 115.951 66.2488C115.951 66.7049 115.821 66.8353 115.364 66.8353C113.657 66.8353 113.657 66.8483 113.657 65.1671C113.657 64.3982 113.657 63.6163 113.657 62.8343Z" fill="#FE0000"/>
<path d="M46.1624 56.8521C45.1329 58.6635 44.1946 60.3577 43.2171 62.0389C42.9695 62.469 42.8392 62.886 42.8522 63.3813C42.8783 64.3587 42.8392 65.3361 42.8653 66.3135C42.8783 66.7045 42.7871 66.8348 42.37 66.8479C40.6107 66.8869 40.5325 66.8869 40.6237 65.1276C40.7149 63.5116 40.3891 62.078 39.5029 60.7096C38.8513 59.6931 38.33 58.5854 37.7696 57.5167C37.6784 57.3342 37.509 57.1648 37.5481 56.8781C38.2779 56.8781 39.0077 56.8911 39.7375 56.8651C40.0633 56.8521 40.1285 57.0736 40.2197 57.2952C40.6628 58.3508 41.1059 59.4194 41.549 60.475C41.6272 60.6705 41.6272 60.9051 41.8618 61.0354C42.3831 59.7974 42.9044 58.5593 43.3996 57.3212C43.5299 56.9954 43.6993 56.8521 44.0642 56.8651C44.7289 56.8651 45.3805 56.8521 46.1624 56.8521Z" fill="#FE0000"/>
<path d="M54.764 62.8338C54.764 63.9807 54.7379 65.1406 54.777 66.2874C54.79 66.7305 54.6467 66.8348 54.2296 66.8348C52.5094 66.8478 52.5094 66.8608 52.5094 65.1275C52.5094 63.1987 52.4963 61.2569 52.5224 59.3281C52.5224 58.885 52.4182 58.7156 51.949 58.7417C51.3625 58.7808 50.7761 58.7547 50.1896 58.7547C50.0202 58.7547 49.8117 58.7808 49.7987 58.5332C49.7856 58.051 49.7856 57.5818 49.7987 57.0996C49.7987 56.839 49.9941 56.852 50.1636 56.852C52.4833 56.852 54.8161 56.852 57.1359 56.852C57.175 56.852 57.2401 56.839 57.2662 56.852C57.7875 57.269 57.3965 57.8424 57.5008 58.3246C57.5659 58.6113 57.4226 58.7547 57.1098 58.7547C56.4973 58.7417 55.8978 58.7677 55.2853 58.7417C54.8813 58.7156 54.7509 58.8459 54.764 59.2499C54.777 60.4489 54.764 61.6479 54.764 62.8338Z" fill="#FE0000"/>
<path d="M82.4575 62.782C82.4575 61.6482 82.4314 60.5274 82.4705 59.3936C82.4835 58.8984 82.3793 58.6768 81.8319 58.729C81.2715 58.7811 80.7112 58.742 80.1377 58.742C79.9683 58.742 79.7598 58.7681 79.7468 58.5205C79.7337 58.0383 79.7337 57.5691 79.7468 57.0869C79.7468 56.8393 79.9423 56.8393 80.1117 56.8393C82.4314 56.8393 84.7511 56.8393 87.0709 56.8393C87.11 56.8393 87.1751 56.8263 87.2012 56.8393C87.7225 57.2563 87.3315 57.8297 87.4358 58.325C87.5009 58.6117 87.3576 58.755 87.0448 58.742C86.4844 58.729 85.911 58.7681 85.3506 58.729C84.8424 58.6899 84.686 58.8463 84.686 59.3676C84.712 61.6222 84.686 63.8767 84.712 66.1313C84.7251 66.6657 84.5817 66.8351 84.0344 66.8221C82.4444 66.796 82.4444 66.8221 82.4444 65.2451C82.4575 64.4371 82.4575 63.6161 82.4575 62.782Z" fill="#FE0000"/>
<path d="M143.97 61.8303C143.97 63.329 143.957 64.8277 143.983 66.3264C143.983 66.7304 143.866 66.8347 143.462 66.8477C141.703 66.8868 141.703 66.8998 141.703 65.1665C141.703 62.5861 141.716 60.0057 141.69 57.4123C141.69 56.9562 141.82 56.8389 142.276 56.8389C143.97 56.8389 143.97 56.8258 143.97 58.507C143.97 59.6148 143.97 60.7225 143.97 61.8303Z" fill="#FE0000"/>
<path d="M135.473 56.8653C134.131 56.6958 132.789 56.8001 131.446 56.9174C130.99 56.9565 130.886 57.1389 130.899 57.569C130.925 59.0026 130.912 60.4361 130.912 61.8566C130.912 63.3032 130.925 64.7629 130.899 66.2094C130.886 66.6395 131.003 66.835 131.459 66.8611C132.58 66.9132 133.714 66.9914 134.835 66.8611C137.584 66.5483 139.161 65.2581 139.631 62.9514C140.308 59.6672 138.666 57.2562 135.473 56.8653ZM136.711 63.9809C136.073 64.8541 134.496 65.4014 133.427 65.1538C133.101 65.0756 133.167 64.8671 133.167 64.6586C133.167 63.7072 133.167 62.7559 133.167 61.7915C133.167 60.8531 133.18 59.9279 133.153 58.9895C133.14 58.6507 133.258 58.5334 133.597 58.5204C134.913 58.4422 136.138 58.5855 136.92 59.8236C137.598 60.9444 137.48 62.9383 136.711 63.9809Z" fill="#FE0000"/>
<path d="M155.543 61.401C155.413 59.1073 154.149 57.374 152.194 56.8527C148.779 55.9404 145.912 58.2472 145.912 62.0396C145.912 62.1438 145.925 62.3784 145.938 62.613C146.173 65.1152 147.906 66.8485 150.304 66.9919C152.898 67.1482 154.852 65.7017 155.4 63.2125C155.53 62.613 155.582 62.0005 155.543 61.401ZM152.585 64.1117C151.712 65.5322 149.835 65.5713 148.91 64.1899C148.076 62.9388 148.102 60.6451 148.962 59.4201C149.861 58.1299 151.633 58.1429 152.52 59.4592C152.989 60.1629 153.145 60.9709 153.145 61.818C153.132 62.626 153.015 63.408 152.585 64.1117Z" fill="#FE0000"/>
<path d="M65.3592 57.165C62.9873 55.953 60.042 56.9043 58.856 59.2241C57.5137 61.8566 58.3999 65.2841 60.7327 66.4831C60.9412 66.5873 61.1628 66.6786 61.3974 66.7568C64.864 67.8645 67.8484 65.5969 67.8875 61.3614C67.8614 59.8236 67.2489 58.1294 65.3592 57.165ZM64.9552 64.0851C64.082 65.5447 62.1663 65.5838 61.241 64.1633C60.446 62.9513 60.4721 60.6446 61.2931 59.4456C62.2054 58.1163 64.0038 58.1294 64.89 59.4717C65.3722 60.2015 65.4895 61.0356 65.5156 61.8827C65.4504 62.6646 65.3592 63.4074 64.9552 64.0851Z" fill="#FE0000"/>
<path d="M72.8398 56.8519C70.6373 57.4514 69.1907 59.6669 69.3732 62.1952C69.5296 64.554 70.6895 66.1961 72.5922 66.7695C76.0458 67.8121 78.965 65.5575 79.0041 61.8042C79.0302 58.1812 76.2412 55.9266 72.8398 56.8519ZM75.9936 64.1631C75.1205 65.5054 73.309 65.5445 72.3967 64.2282C71.5366 62.9902 71.5366 60.6443 72.4097 59.4063C73.322 58.1161 75.0814 58.1291 75.9676 59.4454C76.3846 60.0579 76.6062 60.905 76.5931 62.1431C76.5801 62.6904 76.4498 63.4724 75.9936 64.1631Z" fill="#FE0000"/>
<path d="M16.905 66.4175C16.6705 65.6486 16.475 64.8666 16.2665 64.0977C16.0579 63.3027 15.7452 62.586 14.9502 62.1298C15.9016 61.6346 16.5792 60.9569 16.6574 59.8752C16.7747 58.2071 15.7973 57.1254 13.9337 56.8648C12.6304 56.6953 11.3402 56.7996 10.037 56.8908C9.60692 56.9169 9.46356 57.0863 9.46356 57.5294C9.48963 60.0707 9.4766 62.612 9.4766 65.1403C9.4766 66.8736 9.47659 66.8606 11.2229 66.8345C11.6269 66.8215 11.7442 66.7172 11.7312 66.3132C11.7051 65.3618 11.7442 64.3975 11.7051 63.4461C11.6921 62.9639 11.8746 62.8596 12.3046 62.8857C13.256 62.9378 13.6339 63.1985 13.9206 64.0977C14.0249 64.4496 14.1031 64.8145 14.1943 65.1664C14.6113 66.8215 14.6113 66.8215 16.2795 66.8215C16.3837 66.8215 16.501 66.8084 16.6053 66.8215C16.9572 66.8606 17.0093 66.7302 16.905 66.4175ZM13.8946 60.9048C13.3081 61.3479 12.6174 61.2697 11.9527 61.2697C11.7442 61.2697 11.7312 61.1003 11.7312 60.9439C11.7312 60.592 11.7312 60.2532 11.7312 59.9013C11.7312 59.797 11.7051 59.6797 11.7312 59.5755C11.8485 59.2106 11.4054 58.6502 12.07 58.5068C13.0475 58.2853 13.9728 58.6111 14.2725 59.2106C14.5722 59.784 14.4028 60.5269 13.8946 60.9048Z" fill="#FE0000"/>
<path d="M27.1354 66.262C26.2883 63.6165 25.4673 60.9709 24.6463 58.3253C24.1901 56.8527 24.1901 56.8527 22.6784 56.8527C22.4568 56.8527 22.2353 56.8788 22.0268 56.8527C21.4142 56.7615 21.1275 56.983 20.9451 57.6086C20.124 60.4626 19.2378 63.3037 18.3516 66.1317C18.1822 66.6791 18.1953 66.9397 18.8599 66.8485C19.1857 66.8094 19.5115 66.8094 19.8373 66.8485C20.3456 66.9137 20.5671 66.7182 20.6844 66.236C20.8278 65.6104 20.8669 64.7894 21.2709 64.4245C21.714 64.0205 22.5611 64.3723 23.2127 64.2811C23.8773 64.1899 24.151 64.4375 24.3204 65.0761C24.8157 66.8876 24.8417 66.8615 26.6923 66.8615C27.1745 66.8355 27.3048 66.7573 27.1354 66.262ZM23.4864 62.5739C23.4473 62.5739 23.3952 62.5739 23.3561 62.5739C21.5055 62.7172 21.5055 62.7303 22.0007 60.9448C22.1962 60.215 22.3786 59.4852 22.6002 58.6121C22.9781 59.9283 23.33 61.1273 23.6819 62.3263C23.721 62.4827 23.6688 62.5869 23.4864 62.5739Z" fill="#FE0000"/>
<path d="M160 55.1581C159.948 54.9887 159.896 54.8323 159.831 54.6629C159.466 53.7767 158.658 53.2684 157.667 53.3075C156.742 53.3336 155.96 53.9331 155.66 54.8062C155.361 55.6924 155.66 56.6699 156.39 57.2694C157.446 58.1165 159.518 57.8949 160 55.8097C160 55.5882 160 55.3797 160 55.1581ZM159.075 56.722C158.554 57.3475 157.889 57.4779 157.146 57.2303C156.455 56.9957 156.038 56.4874 155.96 55.7446C155.882 54.9757 156.129 54.3371 156.859 53.9722C157.706 53.503 158.593 53.6594 159.166 54.3631C159.739 55.0799 159.7 55.9661 159.075 56.722Z" fill="#FE0000"/>
<path d="M158.566 55.6532C159.009 54.8973 158.944 54.6627 158.188 54.2327C157.954 54.2327 157.706 54.2718 157.472 54.2457C156.976 54.1936 156.755 54.3369 156.807 54.8712C156.859 55.2753 156.807 55.6923 156.82 56.0963C156.833 56.3048 156.703 56.6045 157.094 56.6176C157.433 56.6306 157.406 56.4091 157.406 56.1875C157.406 56.0833 157.393 55.966 157.524 55.9138C157.667 55.8617 157.771 55.9399 157.85 56.0572C157.954 56.2005 158.032 56.37 158.162 56.4742C158.41 56.6436 158.71 56.8782 158.827 56.3309C158.697 56.1224 158.345 56.0181 158.566 55.6532ZM157.824 55.3404C157.641 55.3404 157.406 55.3925 157.406 55.0798C157.406 54.8322 157.55 54.7931 157.745 54.8061C157.941 54.8191 158.149 54.8191 158.188 55.0667C158.175 55.3013 158.006 55.3404 157.824 55.3404Z" fill="#FE0000"/>
</g>
<defs>
<clipPath id="clip0">
<rect width="160" height="80" fill="white"/>
</clipPath>
</defs>
</svg>
