<svg width="140" height="140" viewBox="0 0 140 140" fill="none" xmlns="http://www.w3.org/2000/svg">
<path d="M5.87054 96.9677C6.43639 94.5117 21.0235 38.25 21.0235 38.25H74.8705L69.1882 60.7088H58.6353C58.4466 59.9532 58.3056 59.3979 58.117 58.6423C57.5512 56.3752 56.2309 54.2971 54.3447 52.5968C52.8358 51.0854 50.9496 50.1409 48.8749 49.5741C47.7432 49.1963 46.4229 49.0073 45.2912 49.0073C41.7075 48.8184 38.3125 49.5741 35.106 51.0855C32.2768 52.4079 29.8248 53.9193 27.5614 55.9974C24.7322 58.6423 22.4688 62.0428 20.9599 65.8212C20.3941 67.3326 20.0169 69.0328 19.8282 70.7331C19.6396 73.0002 19.8282 75.2672 20.5827 77.5342C21.903 81.1237 24.1664 83.5797 27.5614 85.091C29.0704 85.8467 30.7679 86.2245 32.4654 86.4135C35.4833 86.6024 38.5011 86.2245 41.3303 85.2799C44.5368 84.1464 47.5546 82.4461 50.0066 80.1791C52.0813 78.4788 53.7973 76.5053 55.1176 74.2383H65.6705L59.7176 96.9677H5.87054Z" fill="#2F3980"/>
<path d="M133.859 78.2897C133.104 81.5013 128.718 96.6971 128.718 96.6971H86.2352L101.388 38.25H119.788L109.235 78.2897H133.859Z" fill="#2F3980"/>
<path d="M51.327 64.499C51.327 66.766 50.5726 69.0331 49.4409 71.1112C47.1775 75.0785 43.7824 77.7234 39.4443 78.8569C37.5581 79.4237 35.4834 79.4237 33.4086 79.0458C30.0136 78.1012 27.9388 76.0231 27.1843 72.6226C26.6185 70.1666 26.9957 67.7106 28.1274 65.4436C30.0136 61.2874 33.22 58.2647 37.3695 56.5644C39.0671 55.8087 40.9532 55.6198 42.6507 55.6198C44.7255 55.6198 46.6116 56.1865 48.1206 57.509C49.8181 58.8314 50.7612 60.7206 51.1384 62.9876C51.2638 63.741 51.327 64.3101 51.327 64.499Z" fill="#DB8F1C"/>
<path d="M63.9117 96.9677L69.8799 73.9677H88.1294L82.1764 96.9677H63.9117Z" fill="#DB8F1B"/>
<path d="M79.0647 38.25H97.3294L91.647 60.7088H73.2471L79.0647 38.25Z" fill="#DB8F1C"/>
<path d="M127.911 22.0229V73.6979H114.649L124.683 34.4932H17.55L11.8364 57.6868H11.5502L11.5502 22.5509C11.6881 16.603 17.0999 12.003 21.1587 12.003L118.435 12.003C122.765 12.003 127.911 17.2794 127.911 22.0229Z" fill="#2A3781"/>
<path d="M11.44 100.589C50.2946 100.211 89.3379 100.4 128.192 100.4V100.967V117.592C128.192 120.237 127.249 122.881 125.363 124.96C123.477 127.038 121.025 128.36 118.385 128.549H117.253H21.8138C19.1732 128.549 16.7212 127.604 14.8351 125.715C13.3262 124.393 12.1945 122.693 11.6286 120.614C11.2514 119.67 11.2514 118.536 11.2514 117.403V100.589H11.44Z" fill="#313B81"/>
<path d="M109.064 109.191H108.199L106.934 105.721V109.191H106.069V103.9H106.934L108.202 107.374V103.9H109.064V109.191Z" fill="white"/>
<path d="M113.233 107.738L113.96 103.9H114.935L113.687 109.191H112.778L111.54 103.9H112.508L113.233 107.738Z" fill="white"/>
<path d="M109.988 108.638C109.988 108.476 110.042 108.343 110.149 108.239C110.258 108.134 110.4 108.082 110.573 108.082C110.742 108.082 110.882 108.134 110.994 108.239C111.106 108.341 111.162 108.474 111.162 108.638C111.162 108.805 111.105 108.939 110.991 109.041C110.879 109.141 110.74 109.191 110.573 109.191C110.404 109.191 110.264 109.14 110.152 109.038C110.043 108.935 109.988 108.802 109.988 108.638Z" fill="white"/>
<path d="M115.134 108.638C115.134 108.476 115.187 108.343 115.294 108.239C115.404 108.134 115.545 108.082 115.719 108.082C115.888 108.082 116.028 108.134 116.14 108.239C116.251 108.341 116.307 108.474 116.307 108.638C116.307 108.805 116.25 108.939 116.136 109.041C116.024 109.141 115.885 109.191 115.719 109.191C115.55 109.191 115.41 109.14 115.298 109.038C115.188 108.935 115.134 108.802 115.134 108.638Z" fill="white"/>
<path d="M86.7634 111.162L84.9256 116.675L84.2307 116.487L86.0815 110.96L86.7634 111.162Z" fill="white"/>
<path d="M87.5306 111.346H88.4918V114.882C88.4918 115.053 88.4701 115.222 88.4268 115.388C88.3835 115.555 88.3143 115.705 88.219 115.839C88.1281 115.973 88.0069 116.082 87.8553 116.165C87.7038 116.248 87.5198 116.29 87.3033 116.29C87.1648 116.29 87.0154 116.274 86.8553 116.241C86.6994 116.213 86.5609 116.172 86.4396 116.116L86.6474 115.298C86.773 115.358 86.9115 115.388 87.0631 115.388C87.1626 115.388 87.2427 115.37 87.3033 115.333C87.364 115.291 87.4116 115.236 87.4462 115.166C87.4809 115.092 87.5025 115.007 87.5112 114.91C87.5241 114.813 87.5306 114.709 87.5306 114.598V111.346Z" fill="white"/>
<path d="M93.0469 115.372L94.7727 112.264H93.0469V111.346H95.6164V112.264L93.8991 115.372H95.6164V116.29H93.0469V115.372Z" fill="white"/>
<path d="M91.3225 115.245H90.1568L89.8752 116.29H89.1442L90.4976 111.346H91.036L92.3944 116.29H91.6189L91.3225 115.245ZM90.3593 114.424H91.1497L90.7644 112.622H90.7397L90.3593 114.424Z" fill="white"/>
<path d="M68.2667 114.258L68.3673 113.551H67.7461L67.6455 114.258H68.2667ZM69.722 115.04H68.8109L68.6216 116.419H67.965L68.1543 115.04H67.5331L67.3438 116.419H66.6872L66.8765 115.04H66.3914V114.258H66.9889L67.0894 113.551H66.4269V112.776H67.1959L67.403 111.346H68.0537L67.8526 112.776H68.4737L68.6808 111.346H69.3315L69.1304 112.776H69.722V113.551H69.0239L68.9233 114.258H69.722V115.04Z" fill="white"/>
<path d="M48.2166 111.562C48.2166 111.4 48.2701 111.267 48.3771 111.162C48.4865 111.058 48.628 111.005 48.8016 111.005C48.9705 111.005 49.1108 111.058 49.2226 111.162C49.3344 111.264 49.3902 111.398 49.3902 111.562C49.3902 111.728 49.3332 111.863 49.219 111.965C49.1072 112.065 48.9681 112.115 48.8016 112.115C48.6328 112.115 48.4925 112.063 48.3807 111.961C48.2713 111.859 48.2166 111.726 48.2166 111.562Z" fill="white"/>
<path d="M45.3937 111.005H46.3367V115.617H47.657V116.419C47.2798 116.419 46.9026 116.419 46.5253 116.419C46.1481 116.419 45.7709 116.419 45.3937 116.419V111.005Z" fill="white"/>
<path d="M49.275 116.419H48.3319V112.729H49.275V116.419Z" fill="white"/>
<path d="M51.5019 116.419C51.056 116.419 50.6858 116.267 50.3914 115.964C50.097 115.657 49.9498 115.196 49.9498 114.581C49.9498 113.961 50.0948 113.5 50.3849 113.197C50.675 112.889 51.0473 112.736 51.5019 112.736C51.7703 112.736 52.0755 112.788 52.4176 112.894L52.2422 113.589C51.9781 113.525 51.766 113.493 51.6058 113.493C51.3504 113.493 51.1534 113.575 51.0148 113.741C50.8806 113.901 50.8135 114.188 50.8135 114.601C50.8135 115.014 50.8871 115.301 51.0343 115.462C51.1858 115.622 51.3958 115.703 51.6642 115.703C51.8028 115.703 52.0149 115.68 52.3007 115.634L52.4111 116.26C52.069 116.366 51.766 116.419 51.5019 116.419Z" fill="white"/>
<path d="M53.5616 114.663C53.5703 115.352 53.856 115.696 54.4189 115.696C54.6829 115.696 54.9449 115.643 55.2046 115.537L55.3605 116.191C55.0271 116.343 54.657 116.419 54.25 116.419C53.2239 116.419 52.7109 115.778 52.7109 114.498C52.7109 113.993 52.8386 113.573 53.0941 113.238C53.3495 112.903 53.7175 112.736 54.1981 112.736C54.5834 112.736 54.8799 112.846 55.0877 113.066C55.2999 113.282 55.406 113.585 55.406 113.975C55.406 114.204 55.3778 114.434 55.3215 114.663H53.5616ZM54.6786 114.14V114.099C54.6786 113.644 54.5271 113.417 54.224 113.417C53.8604 113.417 53.6417 113.658 53.5681 114.14H54.6786Z" fill="white"/>
<path d="M63.0115 114.663C63.0201 115.352 63.3059 115.696 63.8687 115.696C64.1328 115.696 64.3947 115.643 64.6545 115.537L64.8103 116.191C64.477 116.343 64.1068 116.419 63.6999 116.419C62.6738 116.419 62.1607 115.778 62.1607 114.498C62.1607 113.993 62.2885 113.573 62.5439 113.238C62.7993 112.903 63.1673 112.736 63.6479 112.736C64.0332 112.736 64.3298 112.846 64.5376 113.066C64.7497 113.282 64.8558 113.585 64.8558 113.975C64.8558 114.204 64.8277 114.434 64.7714 114.663H63.0115ZM64.1285 114.14V114.099C64.1285 113.644 63.9769 113.417 63.6739 113.417C63.3102 113.417 63.0916 113.658 63.018 114.14H64.1285Z" fill="white"/>
<path d="M57.8405 112.825C58.2171 112.825 58.4725 112.928 58.6068 113.135C58.7453 113.337 58.8146 113.626 58.8146 114.002V116.419H57.9054V114.174C57.9054 113.995 57.8773 113.858 57.821 113.761C57.769 113.66 57.6391 113.61 57.4313 113.61C57.2235 113.61 57.0352 113.695 56.8663 113.865V116.419H55.9377V112.887H56.704L56.7819 113.279C56.9075 113.156 57.0655 113.05 57.256 112.963C57.4508 112.871 57.6456 112.825 57.8405 112.825Z" fill="white"/>
<path d="M60.6825 113.479C60.3881 113.479 60.2409 113.582 60.2409 113.789C60.2409 113.899 60.2907 113.993 60.3903 114.071C60.4898 114.149 60.6089 114.218 60.7474 114.278C60.8903 114.333 61.031 114.397 61.1695 114.47C61.3124 114.539 61.4336 114.64 61.5332 114.773C61.6328 114.906 61.6826 115.069 61.6826 115.262C61.6826 115.606 61.5722 115.886 61.3514 116.102C61.1306 116.313 60.8059 116.419 60.3773 116.419C60.1824 116.419 59.9768 116.396 59.7603 116.35C59.5482 116.304 59.3923 116.251 59.2927 116.191L59.5135 115.503C59.8512 115.622 60.1543 115.682 60.4227 115.682C60.6955 115.682 60.8319 115.57 60.8319 115.345C60.8319 115.248 60.7821 115.161 60.6825 115.083C60.5829 115.005 60.4617 114.934 60.3188 114.87C60.1803 114.801 60.0396 114.727 59.8967 114.649C59.7582 114.571 59.6391 114.461 59.5395 114.319C59.4399 114.177 59.3902 114.011 59.3902 113.823C59.3902 113.47 59.5006 113.199 59.7214 113.011C59.9422 112.823 60.2582 112.729 60.6695 112.729C61.0808 112.729 61.4033 112.8 61.6371 112.942L61.4228 113.624C61.1241 113.527 60.8773 113.479 60.6825 113.479Z" fill="white"/>
<path d="M72.4695 115.555C72.6556 115.555 72.8072 115.486 72.9241 115.35C73.041 115.208 73.0994 114.998 73.0994 114.72C73.0994 114.437 73.0453 114.232 72.9371 114.105C72.8288 113.974 72.6795 113.908 72.489 113.908C72.2985 113.908 72.1145 114.008 71.937 114.208L71.4629 113.952V111.426H73.7293V112.268H72.2227V113.198C72.3612 113.085 72.5388 113.029 72.7552 113.029C73.1059 113.029 73.396 113.173 73.6254 113.461C73.8549 113.744 73.9696 114.14 73.9696 114.647C73.9696 115.155 73.8441 115.577 73.593 115.913C73.3419 116.25 72.9912 116.419 72.5409 116.419C72.095 116.419 71.6556 116.27 71.2226 115.972L71.5019 115.247C71.8655 115.452 72.1881 115.555 72.4695 115.555Z" fill="white"/>
<path d="M75.8036 115.555C75.9897 115.555 76.1412 115.486 76.2581 115.35C76.375 115.208 76.4335 114.998 76.4335 114.72C76.4335 114.437 76.3794 114.232 76.2711 114.105C76.1629 113.974 76.0135 113.908 75.823 113.908C75.6325 113.908 75.4485 114.008 75.271 114.208L74.797 113.952V111.426H77.0634V112.268H75.5568V113.198C75.6953 113.085 75.8728 113.029 76.0893 113.029C76.44 113.029 76.73 113.173 76.9595 113.461C77.189 113.744 77.3037 114.14 77.3037 114.647C77.3037 115.155 77.1781 115.577 76.927 115.913C76.6759 116.25 76.3252 116.419 75.875 116.419C75.4291 116.419 74.9896 116.27 74.5567 115.972L74.8359 115.247C75.1996 115.452 75.5221 115.555 75.8036 115.555Z" fill="white"/>
<path d="M79.5662 112.744C79.5662 112.573 79.5121 112.446 79.4039 112.363C79.3 112.28 79.1419 112.239 78.9298 112.239C78.722 112.239 78.4579 112.312 78.1375 112.458L77.9297 111.675C78.354 111.455 78.7653 111.346 79.1636 111.346C79.5619 111.346 79.8736 111.463 80.0988 111.697C80.3239 111.926 80.4364 112.236 80.4364 112.627C80.4364 112.822 80.3953 113.012 80.3131 113.198C80.2351 113.383 80.1139 113.534 79.9494 113.652C80.4126 113.876 80.6443 114.249 80.6443 114.772C80.6443 115.289 80.5057 115.694 80.2286 115.987C79.9559 116.275 79.5814 116.419 79.1052 116.419C78.7545 116.419 78.3475 116.326 77.8843 116.14L78.0791 115.328C78.4687 115.484 78.7869 115.562 79.0337 115.562C79.5273 115.562 79.774 115.311 79.774 114.808C79.774 114.584 79.7069 114.406 79.5727 114.274C79.4385 114.142 79.2415 114.076 78.9818 114.076H78.5337V113.337H78.9168C79.3498 113.337 79.5662 113.139 79.5662 112.744Z" fill="white"/>
<path d="M82.724 116.411C81.8062 116.411 81.3473 115.691 81.3473 114.252C81.3473 113.32 81.5096 112.602 81.8344 112.1C82.1591 111.597 82.5877 111.346 83.1202 111.346C83.3929 111.346 83.6635 111.414 83.932 111.551L83.7306 112.334C83.5791 112.27 83.3951 112.239 83.1786 112.239C82.9665 112.239 82.7847 112.324 82.6331 112.495C82.4816 112.666 82.3777 112.934 82.3214 113.3C82.408 113.212 82.5097 113.146 82.6266 113.103C82.7479 113.059 82.8496 113.037 82.9319 113.037C83.2955 113.037 83.5834 113.168 83.7956 113.432C84.0077 113.695 84.1138 114.088 84.1138 114.61C84.1138 115.128 83.9947 115.557 83.7566 115.899C83.5185 116.24 83.1743 116.411 82.724 116.411ZM82.25 114.047C82.25 114.618 82.2911 115.013 82.3734 115.233C82.4556 115.452 82.5768 115.562 82.737 115.562C82.9016 115.562 83.0271 115.482 83.1137 115.321C83.2003 115.155 83.2436 114.935 83.2436 114.662C83.2436 114.388 83.2003 114.191 83.1137 114.069C83.0314 113.947 82.908 113.886 82.7435 113.886C82.5833 113.881 82.4188 113.935 82.25 114.047Z" fill="white"/>
<path d="M95.7443 104.457C95.7443 104.295 95.7978 104.162 95.9048 104.057C96.0142 103.953 96.1557 103.9 96.3293 103.9C96.4982 103.9 96.6385 103.953 96.7503 104.057C96.862 104.16 96.9179 104.293 96.9179 104.457C96.9179 104.623 96.8608 104.758 96.7467 104.86C96.6349 104.96 96.4958 105.01 96.3293 105.01C96.1605 105.01 96.0201 104.959 95.9084 104.856C95.799 104.754 95.7443 104.621 95.7443 104.457Z" fill="white"/>
<path d="M81.9154 104.457C81.9154 104.295 81.9689 104.162 82.0759 104.057C82.1853 103.953 82.3268 103.9 82.5004 103.9C82.6693 103.9 82.8096 103.953 82.9214 104.057C83.0332 104.16 83.0891 104.293 83.0891 104.457C83.0891 104.623 83.032 104.758 82.9178 104.86C82.806 104.96 82.6669 105.01 82.5004 105.01C82.3316 105.01 82.1913 104.959 82.0795 104.856C81.9701 104.754 81.9154 104.621 81.9154 104.457Z" fill="white"/>
<path d="M79.0925 103.9H80.0355V108.512H81.3558V109.314C80.9786 109.314 80.6014 109.314 80.2241 109.314C79.8469 109.314 79.4697 109.314 79.0925 109.314V103.9Z" fill="white"/>
<path d="M82.9738 109.314H82.0307V105.624H82.9738V109.314Z" fill="white"/>
<path d="M96.8026 109.314H95.8596V105.624H96.8026V109.314Z" fill="white"/>
<path d="M85.2007 109.314C84.7548 109.314 84.3846 109.162 84.0902 108.859C83.7958 108.552 83.6486 108.091 83.6486 107.476C83.6486 106.856 83.7936 106.395 84.0837 106.092C84.3738 105.785 84.7461 105.631 85.2007 105.631C85.4691 105.631 85.7743 105.684 86.1164 105.789L85.941 106.485C85.6769 106.42 85.4648 106.388 85.3046 106.388C85.0492 106.388 84.8522 106.471 84.7136 106.636C84.5794 106.797 84.5123 107.083 84.5123 107.496C84.5123 107.909 84.5859 108.196 84.7331 108.357C84.8846 108.518 85.0946 108.598 85.363 108.598C85.5016 108.598 85.7137 108.575 85.9995 108.529L86.1099 109.155C85.7678 109.261 85.4648 109.314 85.2007 109.314Z" fill="white"/>
<path d="M87.2604 107.558C87.2691 108.247 87.5548 108.591 88.1177 108.591C88.3818 108.591 88.6437 108.538 88.9034 108.433L89.0593 109.087C88.7259 109.238 88.3558 109.314 87.9488 109.314C86.9227 109.314 86.4097 108.674 86.4097 107.393C86.4097 106.888 86.5374 106.468 86.7929 106.133C87.0483 105.798 87.4163 105.631 87.8969 105.631C88.2822 105.631 88.5787 105.741 88.7866 105.961C88.9987 106.177 89.1048 106.48 89.1048 106.87C89.1048 107.099 89.0766 107.329 89.0203 107.558H87.2604ZM88.3774 107.035V106.994C88.3774 106.54 88.2259 106.312 87.9228 106.312C87.5592 106.312 87.3405 106.553 87.2669 107.035H88.3774Z" fill="white"/>
<path d="M91.5393 105.72C91.9159 105.72 92.1714 105.824 92.3056 106.03C92.4441 106.232 92.5134 106.521 92.5134 106.898V109.314H91.6042V107.07C91.6042 106.891 91.5761 106.753 91.5198 106.657C91.4678 106.556 91.3379 106.505 91.1301 106.505C90.9223 106.505 90.734 106.59 90.5651 106.76V109.314H89.6365V105.782H90.4028L90.4807 106.175C90.6063 106.051 90.7643 105.945 90.9548 105.858C91.1496 105.766 91.3444 105.72 91.5393 105.72Z" fill="white"/>
<path d="M99.5629 105.72C99.9396 105.72 100.195 105.824 100.329 106.03C100.468 106.232 100.537 106.521 100.537 106.898V109.314H99.6278V107.07C99.6278 106.891 99.5997 106.753 99.5434 106.657C99.4915 106.556 99.3616 106.505 99.1538 106.505C98.946 106.505 98.7576 106.59 98.5888 106.76V109.314H97.6601V105.782H98.4264L98.5044 106.175C98.6299 106.051 98.7879 105.945 98.9784 105.858C99.1733 105.766 99.3681 105.72 99.5629 105.72Z" fill="white"/>
<path d="M94.3813 106.374C94.0869 106.374 93.9397 106.478 93.9397 106.684C93.9397 106.794 93.9895 106.888 94.0891 106.966C94.1886 107.044 94.3077 107.113 94.4462 107.173C94.5891 107.228 94.7298 107.292 94.8684 107.366C95.0112 107.434 95.1324 107.535 95.232 107.669C95.3316 107.802 95.3814 107.965 95.3814 108.157C95.3814 108.501 95.271 108.781 95.0502 108.997C94.8294 109.208 94.5047 109.314 94.0761 109.314C93.8812 109.314 93.6756 109.291 93.4591 109.245C93.247 109.199 93.0911 109.146 92.9916 109.087L93.2124 108.398C93.55 108.518 93.8531 108.577 94.1215 108.577C94.3943 108.577 94.5307 108.465 94.5307 108.24C94.5307 108.144 94.4809 108.056 94.3813 107.978C94.2817 107.9 94.1605 107.829 94.0176 107.765C93.8791 107.696 93.7384 107.623 93.5955 107.545C93.457 107.467 93.3379 107.356 93.2383 107.214C93.1387 107.072 93.089 106.907 93.089 106.719C93.089 106.365 93.1994 106.094 93.4202 105.906C93.641 105.718 93.957 105.624 94.3683 105.624C94.7796 105.624 95.1021 105.695 95.3359 105.837L95.1216 106.519C94.8229 106.423 94.5761 106.374 94.3813 106.374Z" fill="white"/>
<path d="M102.491 106.385C102.227 106.385 102.043 106.506 101.939 106.747C101.838 106.988 101.787 107.236 101.787 107.493C101.787 107.779 101.834 108.035 101.927 108.261C102.02 108.487 102.208 108.6 102.491 108.6C102.58 108.6 102.673 108.575 102.77 108.525C102.871 108.469 102.964 108.407 103.049 108.336V106.649C102.964 106.573 102.871 106.511 102.77 106.46C102.673 106.41 102.58 106.385 102.491 106.385ZM103.81 105.692V109.338C103.81 109.78 103.694 110.15 103.462 110.446C103.233 110.747 102.869 110.898 102.369 110.898C102.249 110.898 102.074 110.86 101.846 110.785C101.617 110.715 101.427 110.614 101.276 110.484L101.503 109.791C101.677 109.901 101.826 109.981 101.95 110.032C102.074 110.082 102.208 110.107 102.351 110.107C102.576 110.107 102.749 110.037 102.869 109.896C102.989 109.76 103.049 109.572 103.049 109.331V109.143C102.929 109.233 102.801 109.303 102.665 109.354C102.53 109.409 102.404 109.436 102.287 109.436C101.877 109.436 101.561 109.251 101.34 108.879C101.119 108.507 101.009 108.045 101.009 107.493C101.009 106.94 101.125 106.478 101.357 106.106C101.594 105.734 101.915 105.549 102.322 105.549C102.462 105.549 102.619 105.589 102.793 105.669C102.967 105.745 103.117 105.853 103.241 105.993L103.415 105.692H103.81Z" fill="white"/>
<path d="M72.5372 108.508L73.1114 105.624H73.8679L73.0094 109.314H72.065L71.2226 105.624H71.9792L72.5372 108.508Z" fill="white"/>
<path d="M60.4117 106.434C60.0919 106.434 59.8677 106.544 59.739 106.765V109.321H58.92V105.708H59.5986L59.6629 106.166C59.8891 105.809 60.1777 105.631 60.5287 105.631C60.6262 105.631 60.7159 105.643 60.7978 105.666L60.6633 106.476C60.5775 106.448 60.4936 106.434 60.4117 106.434Z" fill="white"/>
<path d="M69.5395 104.457C69.5395 104.295 69.593 104.162 69.7 104.057C69.8094 103.953 69.9509 103.9 70.1245 103.9C70.2934 103.9 70.4337 103.953 70.5455 104.057C70.6573 104.16 70.7131 104.293 70.7131 104.457C70.7131 104.623 70.6561 104.758 70.5419 104.86C70.4301 104.96 70.291 105.01 70.1245 105.01C69.9557 105.01 69.8154 104.959 69.7036 104.856C69.5942 104.754 69.5395 104.621 69.5395 104.457Z" fill="white"/>
<path d="M70.5978 109.314H69.6548V105.624H70.5978V109.314Z" fill="white"/>
<path d="M48.6001 109.314H47.657V103.9H48.6001V109.314Z" fill="white"/>
<path d="M51.4434 105.727C51.8201 105.727 52.0755 105.831 52.2098 106.037C52.3483 106.239 52.4176 106.528 52.4176 106.904V109.321H51.5084V107.077C51.5084 106.898 51.4802 106.76 51.424 106.664C51.372 106.563 51.2421 106.512 51.0343 106.512C50.8265 106.512 50.6382 106.597 50.4693 106.767V109.321H49.5407V105.789H50.307L50.3849 106.182C50.5105 106.058 50.6685 105.952 50.859 105.865C51.0538 105.773 51.2486 105.727 51.4434 105.727Z" fill="white"/>
<path d="M75.2056 107.558C75.2142 108.247 75.5 108.591 76.0628 108.591C76.3269 108.591 76.5888 108.538 76.8486 108.433L77.0045 109.087C76.6711 109.238 76.3009 109.314 75.894 109.314C74.8679 109.314 74.3549 108.674 74.3549 107.393C74.3549 106.888 74.4826 106.468 74.738 106.133C74.9934 105.798 75.3614 105.631 75.842 105.631C76.2273 105.631 76.5239 105.741 76.7317 105.961C76.9438 106.177 77.0499 106.48 77.0499 106.87C77.0499 107.099 77.0218 107.329 76.9655 107.558H75.2056ZM76.3226 107.035V106.994C76.3226 106.54 76.171 106.312 75.868 106.312C75.5043 106.312 75.2857 106.553 75.2121 107.035H76.3226Z" fill="white"/>
<path d="M56.2567 107.558C56.2653 108.247 56.5511 108.591 57.1139 108.591C57.378 108.591 57.6399 108.538 57.8997 108.433L58.0555 109.087C57.7222 109.238 57.352 109.314 56.9451 109.314C55.919 109.314 55.4059 108.674 55.4059 107.393C55.4059 106.888 55.5337 106.468 55.7891 106.133C56.0445 105.798 56.4125 105.631 56.8931 105.631C57.2784 105.631 57.575 105.741 57.7828 105.961C57.9949 106.177 58.101 106.48 58.101 106.87C58.101 107.099 58.0729 107.329 58.0166 107.558H56.2567ZM57.3737 107.035V106.994C57.3737 106.54 57.2221 106.312 56.9191 106.312C56.5554 106.312 56.3368 106.553 56.2632 107.035H57.3737Z" fill="white"/>
<path d="M65.7506 109.314C65.3047 109.314 64.9345 109.162 64.6401 108.859C64.3457 108.552 64.1985 108.091 64.1985 107.476C64.1985 106.856 64.3436 106.395 64.6337 106.092C64.9237 105.785 65.2961 105.631 65.7506 105.631C66.0191 105.631 66.3243 105.684 66.6663 105.789L66.491 106.485C66.2269 106.42 66.0147 106.388 65.8545 106.388C65.5991 106.388 65.4021 106.471 65.2636 106.636C65.1294 106.797 65.0623 107.083 65.0623 107.496C65.0623 107.909 65.1359 108.196 65.2831 108.357C65.4346 108.518 65.6446 108.598 65.913 108.598C66.0515 108.598 66.2637 108.575 66.5494 108.529L66.6598 109.155C66.3178 109.261 66.0147 109.314 65.7506 109.314Z" fill="white"/>
<path d="M53.2954 108.04V106.243L52.7109 106.2V105.613L53.3149 105.556V104.719L54.224 104.633V105.549H55.1722L55.1202 106.243H54.2175V108.133C54.2175 108.271 54.237 108.371 54.276 108.433C54.3149 108.491 54.3972 108.519 54.5228 108.519C54.6483 108.519 54.789 108.498 54.9449 108.455L55.0813 109.163C54.8691 109.264 54.6526 109.314 54.4318 109.314C54.2154 109.314 54.0509 109.299 53.9383 109.271C53.8301 109.242 53.7391 109.209 53.6655 109.171C53.5963 109.132 53.5357 109.078 53.4837 109.006C53.4361 108.93 53.3993 108.863 53.3733 108.806C53.3517 108.748 53.3343 108.667 53.3213 108.562C53.304 108.419 53.2954 108.245 53.2954 108.04Z" fill="white"/>
<path d="M67.4106 108.04V106.212H67.0146L67.0146 105.63H67.43V104.756H68.3392V105.623L68.9337 105.63V106.212H68.3327V108.133C68.3327 108.271 68.3522 108.371 68.3912 108.433C68.4301 108.491 68.5124 108.519 68.6379 108.519C68.7635 108.519 68.9042 108.498 69.0601 108.455L69.1964 109.164C68.9843 109.264 68.7678 109.314 68.547 109.314C68.3306 109.314 68.166 109.3 68.0535 109.271C67.9452 109.242 67.8543 109.209 67.7807 109.171C67.7114 109.132 67.6508 109.078 67.5989 109.006C67.5513 108.93 67.5145 108.863 67.4885 108.806C67.4668 108.748 67.4495 108.667 67.4365 108.562C67.4192 108.419 67.4106 108.245 67.4106 108.04Z" fill="white"/>
<path d="M62.9104 109.241C62.885 109.187 62.8597 109.095 62.8343 108.966C62.6736 109.193 62.4559 109.307 62.1811 109.307C61.8936 109.307 61.6547 109.208 61.4645 109.011C61.2763 108.815 61.1822 108.56 61.1822 108.247C61.1822 107.875 61.2964 107.587 61.5247 107.383C61.7551 107.18 62.086 107.076 62.5172 107.072H62.7899V106.786C62.7899 106.626 62.7635 106.514 62.7106 106.448C62.6578 106.382 62.5806 106.349 62.4792 106.349C62.2551 106.349 62.143 106.485 62.143 106.756H61.2457C61.2457 106.428 61.364 106.158 61.6008 105.946C61.8397 105.731 62.1409 105.624 62.5045 105.624C62.8808 105.624 63.1715 105.726 63.3765 105.929C63.5837 106.131 63.6873 106.419 63.6873 106.796V108.467C63.6915 108.773 63.7338 109.013 63.8141 109.185V109.241H62.9104ZM62.3809 108.578C62.4802 108.578 62.5648 108.557 62.6345 108.516C62.7043 108.474 62.7561 108.425 62.7899 108.368V107.63H62.5743C62.4221 107.63 62.3016 107.68 62.2128 107.781C62.1261 107.881 62.0828 108.016 62.0828 108.184C62.0828 108.447 62.1821 108.578 62.3809 108.578Z" fill="white"/>
<path d="M45.6859 107.472C45.6859 108.111 45.5517 108.58 45.2833 108.879C45.0148 109.174 44.662 109.321 44.2247 109.321C43.7875 109.321 43.4389 109.174 43.1792 108.879C42.9237 108.585 42.796 108.118 42.796 107.479C42.796 106.839 42.9281 106.373 43.1922 106.078C43.4606 105.779 43.8113 105.63 44.2442 105.63C45.2053 105.63 45.6859 106.244 45.6859 107.472ZM44.8027 107.465C44.8027 107.042 44.7551 106.754 44.6598 106.603C44.5646 106.451 44.4239 106.375 44.2377 106.375C44.0559 106.375 43.9152 106.451 43.8156 106.603C43.7203 106.754 43.6727 107.046 43.6727 107.479C43.6727 108.215 43.8611 108.583 44.2377 108.583C44.4152 108.583 44.5538 108.502 44.6533 108.341C44.7529 108.176 44.8027 107.883 44.8027 107.465Z" fill="white"/>
<path d="M29.7455 108.9C29.4332 109.18 29.1007 109.321 28.7478 109.321C28.399 109.321 28.1597 109.218 28.03 109.012C27.9042 108.801 27.8414 108.504 27.8414 108.121V105.63H28.6931V107.945C28.6931 108.133 28.7174 108.275 28.7661 108.373C28.8147 108.472 28.9344 108.521 29.125 108.521C29.3197 108.521 29.5002 108.448 29.6664 108.303V105.63H30.5182V109.321H29.8185L29.7455 108.9Z" fill="white"/>
<path d="M27.2558 109.18C26.9255 109.274 26.6182 109.321 26.3338 109.321C26.0537 109.321 25.8091 109.276 25.6 109.188C25.3952 109.094 25.2049 108.945 25.0293 108.741C24.6572 108.308 24.4711 107.59 24.4711 106.587C24.4711 106.091 24.5255 105.663 24.6342 105.303C24.7429 104.937 24.8913 104.655 25.0795 104.457C25.4307 104.086 25.8551 103.9 26.3527 103.9C26.6663 103.9 26.9819 103.958 27.2997 104.073L27.1555 104.88C26.9171 104.822 26.6955 104.793 26.4906 104.793C26.152 104.793 25.8844 104.927 25.6878 105.193C25.4913 105.454 25.3931 105.916 25.3931 106.579C25.3931 107.237 25.4934 107.705 25.6941 107.981C25.8948 108.253 26.1729 108.389 26.5283 108.389C26.775 108.389 26.9987 108.368 27.1994 108.326L27.2558 109.18Z" fill="white"/>
<path d="M32.8347 106.433C32.5149 106.433 32.2907 106.543 32.162 106.764V109.321H31.343V105.707H32.0216L32.0859 106.165C32.3121 105.808 32.6007 105.63 32.9517 105.63C33.0492 105.63 33.1389 105.642 33.2208 105.665L33.0863 106.475C33.0005 106.447 32.9166 106.433 32.8347 106.433Z" fill="white"/>
<path d="M35.1919 109.255C35.1665 109.2 35.1412 109.108 35.1158 108.979C34.9551 109.207 34.7374 109.321 34.4626 109.321C34.1751 109.321 33.9362 109.222 33.7459 109.025C33.5578 108.827 33.4637 108.572 33.4637 108.258C33.4637 107.885 33.5779 107.597 33.8062 107.393C34.0366 107.189 34.3675 107.085 34.7987 107.081H35.0714V106.794C35.0714 106.634 35.045 106.521 34.9921 106.456C34.9393 106.39 34.8621 106.357 34.7606 106.357C34.5366 106.357 34.4245 106.493 34.4245 106.765H33.5271C33.5271 106.436 33.6455 106.165 33.8823 105.952C34.1212 105.737 34.4224 105.63 34.786 105.63C35.1623 105.63 35.453 105.732 35.658 105.936C35.8652 106.138 35.9688 106.427 35.9688 106.804V108.479C35.973 108.786 36.0153 109.026 36.0956 109.199V109.255H35.1919ZM34.6623 108.59C34.7617 108.59 34.8463 108.57 34.916 108.528C34.9858 108.486 35.0376 108.437 35.0714 108.38V107.64H34.8558C34.7036 107.64 34.5831 107.69 34.4943 107.791C34.4076 107.892 34.3643 108.027 34.3643 108.196C34.3643 108.459 34.4636 108.59 34.6623 108.59Z" fill="white"/>
<path d="M41.2286 109.255C41.2033 109.2 41.1779 109.108 41.1525 108.979C40.9919 109.207 40.7741 109.321 40.4993 109.321C40.2118 109.321 39.9729 109.222 39.7827 109.025C39.5945 108.827 39.5005 108.572 39.5005 108.258C39.5005 107.885 39.6146 107.597 39.8429 107.393C40.0734 107.189 40.4042 107.085 40.8354 107.081H41.1081V106.794C41.1081 106.634 41.0817 106.521 41.0289 106.456C40.976 106.39 40.8989 106.357 40.7974 106.357C40.5733 106.357 40.4613 106.493 40.4613 106.765H39.5639C39.5639 106.436 39.6823 106.165 39.919 105.952C40.1579 105.737 40.4592 105.63 40.8228 105.63C41.199 105.63 41.4897 105.732 41.6948 105.936C41.9019 106.138 42.0055 106.427 42.0055 106.804V108.479C42.0098 108.786 42.052 109.026 42.1324 109.199V109.255H41.2286ZM40.6991 108.59C40.7984 108.59 40.883 108.57 40.9528 108.528C41.0225 108.486 41.0743 108.437 41.1081 108.38V107.64H40.8925C40.7403 107.64 40.6198 107.69 40.531 107.791C40.4444 107.892 40.401 108.027 40.401 108.196C40.401 108.459 40.5004 108.59 40.6991 108.59Z" fill="white"/>
<path d="M38.0938 109.372C37.6429 109.372 37.2937 109.227 37.046 108.937C36.8021 108.642 36.6802 108.181 36.6802 107.554C36.6802 107.121 36.743 106.768 36.8687 106.495C36.9943 106.222 37.168 106.021 37.3897 105.891C37.6152 105.761 37.8739 105.696 38.1658 105.696C38.3728 105.696 38.5521 105.72 38.7036 105.768C38.8588 105.815 38.9937 105.872 39.1083 105.936L38.8643 106.683C38.735 106.623 38.613 106.573 38.4985 106.534C38.3876 106.495 38.2767 106.475 38.1658 106.475C37.7371 106.475 37.5228 106.833 37.5228 107.547C37.5228 107.902 37.5782 108.164 37.6891 108.333C37.8037 108.502 37.9626 108.586 38.1658 108.586C38.3395 108.586 38.4929 108.56 38.626 108.508C38.759 108.452 38.8884 108.376 39.014 108.281V109.106C38.8884 109.201 38.7553 109.268 38.6149 109.307C38.4781 109.35 38.3044 109.372 38.0938 109.372ZM38.6869 110.099C38.6869 110.342 38.626 110.53 38.504 110.664C38.3857 110.798 38.1677 110.866 37.8499 110.866C37.7686 110.866 37.6946 110.859 37.6281 110.846C37.5653 110.833 37.508 110.818 37.4563 110.801V110.268C37.508 110.285 37.5708 110.301 37.6448 110.314C37.7224 110.326 37.7889 110.333 37.8443 110.333C37.8961 110.333 37.9404 110.318 37.9774 110.288C38.018 110.262 38.0383 110.212 38.0383 110.138C38.0383 110.06 38.0051 109.991 37.9386 109.93C37.872 109.87 37.7556 109.824 37.5893 109.794L37.8 109.307H38.3211L38.249 109.502C38.3599 109.545 38.4597 109.614 38.5484 109.71C38.6407 109.809 38.6869 109.939 38.6869 110.099Z" fill="white"/>
<path d="M121.99 121.678C121.99 122.318 121.856 122.787 121.587 123.086C121.319 123.38 120.966 123.527 120.529 123.527C120.092 123.527 119.743 123.38 119.483 123.086C119.228 122.791 119.1 122.324 119.1 121.685C119.1 121.046 119.232 120.579 119.496 120.285C119.765 119.986 120.115 119.836 120.548 119.836C121.509 119.836 121.99 120.45 121.99 121.678ZM121.107 121.671C121.107 121.248 121.059 120.961 120.964 120.809C120.869 120.657 120.728 120.581 120.542 120.581C120.36 120.581 120.219 120.657 120.12 120.809C120.025 120.961 119.977 121.253 119.977 121.685C119.977 122.421 120.165 122.789 120.542 122.789C120.719 122.789 120.858 122.708 120.957 122.548C121.057 122.382 121.107 122.09 121.107 121.671Z" fill="white"/>
<path d="M106.05 123.106C105.737 123.387 105.405 123.527 105.052 123.527C104.703 123.527 104.464 123.424 104.334 123.218C104.208 123.008 104.146 122.711 104.146 122.327V119.836H104.997V122.152C104.997 122.339 105.022 122.482 105.07 122.58C105.119 122.678 105.239 122.727 105.429 122.727C105.624 122.727 105.804 122.655 105.971 122.51V119.836H106.822V123.527H106.123L106.05 123.106Z" fill="white"/>
<path d="M103.56 123.386C103.23 123.48 102.922 123.527 102.638 123.527C102.358 123.527 102.113 123.483 101.904 123.394C101.699 123.3 101.509 123.151 101.333 122.948C100.961 122.514 100.775 121.796 100.775 120.794C100.775 120.297 100.83 119.869 100.938 119.509C101.047 119.143 101.195 118.861 101.384 118.663C101.735 118.292 102.159 118.107 102.657 118.107C102.97 118.107 103.286 118.164 103.604 118.279L103.46 119.086C103.221 119.029 103 119 102.795 119C102.456 119 102.189 119.133 101.992 119.399C101.795 119.66 101.697 120.123 101.697 120.786C101.697 121.444 101.798 121.911 101.998 122.188C102.199 122.459 102.477 122.595 102.832 122.595C103.079 122.595 103.303 122.574 103.504 122.532L103.56 123.386Z" fill="white"/>
<path d="M109.139 120.639C108.819 120.639 108.595 120.75 108.466 120.97V123.527H107.647V119.914H108.326L108.39 120.372C108.616 120.015 108.905 119.836 109.256 119.836C109.353 119.836 109.443 119.848 109.525 119.872L109.39 120.682C109.305 120.653 109.221 120.639 109.139 120.639Z" fill="white"/>
<path d="M111.496 123.461C111.471 123.407 111.445 123.314 111.42 123.185C111.259 123.413 111.042 123.527 110.767 123.527C110.479 123.527 110.24 123.428 110.05 123.231C109.862 123.034 109.768 122.778 109.768 122.465C109.768 122.092 109.882 121.803 110.11 121.599C110.341 121.396 110.672 121.291 111.103 121.287H111.376V121.001C111.376 120.841 111.349 120.728 111.296 120.662C111.243 120.596 111.166 120.563 111.065 120.563C110.841 120.563 110.729 120.699 110.729 120.971H109.831C109.831 120.642 109.95 120.371 110.186 120.159C110.425 119.944 110.727 119.836 111.09 119.836C111.466 119.836 111.757 119.938 111.962 120.142C112.169 120.344 112.273 120.633 112.273 121.011V122.685C112.277 122.992 112.319 123.232 112.4 123.405V123.461H111.496ZM110.967 122.797C111.066 122.797 111.15 122.776 111.22 122.734C111.29 122.693 111.342 122.643 111.376 122.586V121.846H111.16C111.008 121.846 110.887 121.897 110.798 121.998C110.712 122.098 110.668 122.233 110.668 122.402C110.668 122.665 110.768 122.797 110.967 122.797Z" fill="white"/>
<path d="M117.533 123.461C117.507 123.407 117.482 123.314 117.457 123.185C117.296 123.413 117.078 123.527 116.803 123.527C116.516 123.527 116.277 123.428 116.087 123.231C115.899 123.034 115.805 122.778 115.805 122.465C115.805 122.092 115.919 121.803 116.147 121.599C116.378 121.396 116.708 121.291 117.14 121.287H117.412V121.001C117.412 120.841 117.386 120.728 117.333 120.662C117.28 120.596 117.203 120.563 117.102 120.563C116.877 120.563 116.765 120.699 116.765 120.971H115.868C115.868 120.642 115.986 120.371 116.223 120.159C116.462 119.944 116.763 119.836 117.127 119.836C117.503 119.836 117.794 119.938 117.999 120.142C118.206 120.344 118.31 120.633 118.31 121.011V122.685C118.314 122.992 118.356 123.232 118.437 123.405V123.461H117.533ZM117.003 122.797C117.103 122.797 117.187 122.776 117.257 122.734C117.327 122.693 117.378 122.643 117.412 122.586V121.846H117.197C117.044 121.846 116.924 121.897 116.835 121.998C116.749 122.098 116.705 122.233 116.705 122.402C116.705 122.665 116.805 122.797 117.003 122.797Z" fill="white"/>
<path d="M114.398 123.578C113.947 123.578 113.598 123.433 113.35 123.143C113.106 122.849 112.984 122.388 112.984 121.76C112.984 121.327 113.047 120.974 113.173 120.701C113.298 120.429 113.472 120.227 113.694 120.097C113.919 119.968 114.178 119.903 114.47 119.903C114.677 119.903 114.856 119.926 115.008 119.974C115.163 120.022 115.298 120.078 115.412 120.143L115.168 120.89C115.039 120.829 114.917 120.779 114.803 120.74C114.692 120.701 114.581 120.682 114.47 120.682C114.041 120.682 113.827 121.039 113.827 121.753C113.827 122.108 113.882 122.37 113.993 122.539C114.108 122.708 114.267 122.792 114.47 122.792C114.644 122.792 114.797 122.767 114.93 122.715C115.063 122.658 115.193 122.583 115.318 122.487V123.312C115.193 123.407 115.059 123.474 114.919 123.513C114.782 123.557 114.609 123.578 114.398 123.578ZM114.991 124.306C114.991 124.548 114.93 124.736 114.808 124.871C114.69 125.005 114.472 125.072 114.154 125.072C114.073 125.072 113.999 125.065 113.932 125.052C113.869 125.039 113.812 125.024 113.76 125.007V124.474C113.812 124.492 113.875 124.507 113.949 124.52C114.027 124.533 114.093 124.539 114.148 124.539C114.2 124.539 114.245 124.524 114.282 124.494C114.322 124.468 114.343 124.418 114.343 124.345C114.343 124.267 114.309 124.197 114.243 124.137C114.176 124.076 114.06 124.031 113.893 124L114.104 123.513H114.625L114.553 123.708C114.664 123.751 114.764 123.821 114.853 123.916C114.945 124.016 114.991 124.145 114.991 124.306Z" fill="white"/>
<path d="M99.2092 118.815C99.2092 118.815 99.2106 118.815 98.9595 118.815C98.7084 118.815 98.5417 118.86 98.4595 118.949C98.3772 119.035 98.3361 119.176 98.3361 119.374L98.336 119.788L98.9796 119.794V120.347H98.336L98.3361 123.527H97.4269L97.4268 120.347H96.7972V119.794H97.4268L97.4334 119.299C97.4334 118.899 97.5546 118.608 97.7971 118.425C98.0395 118.243 98.4162 118.151 98.9271 118.151L99.2092 118.151V118.815Z" fill="white"/>
<path d="M96.5273 121.678C96.5273 122.318 96.393 122.787 96.1246 123.086C95.8562 123.38 95.5033 123.527 95.0661 123.527C94.6288 123.527 94.2803 123.38 94.0205 123.086C93.7651 122.791 93.6374 122.324 93.6374 121.685C93.6374 121.046 93.7694 120.579 94.0335 120.285C94.3019 119.986 94.6526 119.836 95.0856 119.836C96.0467 119.836 96.5273 120.45 96.5273 121.678ZM95.6441 121.671C95.6441 121.248 95.5964 120.961 95.5012 120.809C95.4059 120.657 95.2652 120.581 95.0791 120.581C94.8972 120.581 94.7565 120.657 94.6569 120.809C94.5617 120.961 94.5141 121.253 94.5141 121.685C94.5141 122.421 94.7024 122.789 95.0791 122.789C95.2566 122.789 95.3951 122.708 95.4947 122.548C95.5943 122.382 95.6441 122.09 95.6441 121.671Z" fill="white"/>
<path d="M78.6506 120.389C78.7539 120.269 78.895 120.164 79.0739 120.072C79.2567 119.98 79.4495 119.934 79.6521 119.934C79.8548 119.934 80.0118 119.973 80.1231 120.051C80.2344 120.129 80.3238 120.249 80.3914 120.41C80.4987 120.281 80.6438 120.171 80.8266 120.079C81.0134 119.982 81.2002 119.934 81.387 119.934C81.7288 119.934 81.9593 120.037 82.0786 120.244C82.2018 120.447 82.2634 120.736 82.2634 121.113V123.535H81.4287V121.286C81.4287 120.992 81.3751 120.817 81.2678 120.762C81.2161 120.734 81.1465 120.72 81.0591 120.72C80.8365 120.72 80.6478 120.805 80.4928 120.975C80.4967 121.008 80.4987 121.056 80.4987 121.12V123.535H79.6641V121.286C79.6641 120.992 79.6104 120.817 79.5031 120.762C79.4514 120.734 79.3819 120.72 79.2944 120.72C79.0719 120.72 78.8831 120.805 78.7281 120.975V123.535H77.8934V119.996H78.579L78.6506 120.389Z" fill="white"/>
<path d="M59.1021 118.785C59.2969 118.591 59.5026 118.451 59.719 118.364C59.9398 118.278 60.1996 118.234 60.4983 118.234C60.7971 118.234 61.1521 118.301 61.5634 118.433L61.427 119.229C61.1369 119.147 60.8339 119.106 60.5178 119.106C60.2018 119.106 59.942 119.236 59.7385 119.496C59.535 119.751 59.4333 120.197 59.4333 120.835C59.4333 122.023 59.7688 122.617 60.4399 122.617C60.5741 122.617 60.7148 122.602 60.862 122.571V121.372H60.2516V120.569H61.7127V123.191C61.2365 123.415 60.7516 123.527 60.2581 123.527C59.7645 123.527 59.3489 123.316 59.0112 122.892C58.6735 122.464 58.496 121.786 58.4787 120.858C58.4787 120.373 58.5349 119.955 58.6475 119.603C58.7601 119.246 58.9116 118.974 59.1021 118.785Z" fill="white"/>
<path d="M65.0506 121.686C65.0506 122.325 64.9164 122.795 64.648 123.094C64.3796 123.388 64.0267 123.535 63.5894 123.535C63.1522 123.535 62.8037 123.388 62.5439 123.094C62.2885 122.799 62.1607 122.332 62.1607 121.693C62.1607 121.054 62.2928 120.587 62.5569 120.293C62.8253 119.994 63.176 119.844 63.6089 119.844C64.5701 119.844 65.0506 120.458 65.0506 121.686ZM64.1674 121.679C64.1674 121.256 64.1198 120.969 64.0246 120.817C63.9293 120.665 63.7886 120.589 63.6024 120.589C63.4206 120.589 63.2799 120.665 63.1803 120.817C63.0851 120.969 63.0374 121.261 63.0374 121.693C63.0374 122.429 63.2258 122.797 63.6024 122.797C63.7799 122.797 63.9185 122.716 64.0181 122.555C64.1176 122.39 64.1674 122.098 64.1674 121.679Z" fill="white"/>
<path d="M66.8133 122.722L67.3875 119.837H68.144L67.2855 123.527H66.3411L65.4987 119.837H66.2553L66.8133 122.722Z" fill="white"/>
<path d="M69.4428 121.772C69.4515 122.46 69.7372 122.804 70.3001 122.804C70.5641 122.804 70.8261 122.752 71.0858 122.646L71.2417 123.3C70.9083 123.451 70.5382 123.527 70.1312 123.527C69.1051 123.527 68.5921 122.887 68.5921 121.607C68.5921 121.102 68.7198 120.682 68.9753 120.347C69.2307 120.012 69.5987 119.844 70.0793 119.844C70.4646 119.844 70.7611 119.954 70.9689 120.175C71.1811 120.39 71.2872 120.693 71.2872 121.083C71.2872 121.313 71.259 121.542 71.2027 121.772H69.4428ZM70.5598 121.249V121.207C70.5598 120.753 70.4083 120.526 70.1052 120.526C69.7416 120.526 69.5229 120.767 69.4493 121.249H70.5598Z" fill="white"/>
<path d="M83.9953 121.78C84.004 122.468 84.2897 122.812 84.8526 122.812C85.1167 122.812 85.3786 122.759 85.6384 122.654L85.7942 123.308C85.4608 123.459 85.0907 123.535 84.6837 123.535C83.6576 123.535 83.1446 122.895 83.1446 121.614C83.1446 121.11 83.2723 120.69 83.5278 120.355C83.7832 120.02 84.1512 119.852 84.6318 119.852C85.0171 119.852 85.3136 119.962 85.5215 120.183C85.7336 120.398 85.8397 120.701 85.8397 121.091C85.8397 121.321 85.8115 121.55 85.7552 121.78H83.9953ZM85.1123 121.256V121.215C85.1123 120.761 84.9608 120.534 84.6577 120.534C84.2941 120.534 84.0754 120.775 84.0018 121.256H85.1123Z" fill="white"/>
<path d="M73.5154 120.64C73.1956 120.64 72.9714 120.75 72.8427 120.971V123.527H72.0237V119.915H72.7023L72.7666 120.373C72.9928 120.016 73.2814 119.837 73.6324 119.837C73.7299 119.837 73.8196 119.849 73.9015 119.873L73.767 120.682C73.6812 120.654 73.5973 120.64 73.5154 120.64Z" fill="white"/>
<path d="M76.2524 119.934C76.6291 119.934 76.8845 120.037 77.0187 120.243C77.1573 120.445 77.2265 120.735 77.2265 121.111V123.527H76.3174V121.283C76.3174 121.104 76.2892 120.966 76.2329 120.87C76.181 120.769 76.0511 120.718 75.8433 120.718C75.6355 120.718 75.4471 120.803 75.2783 120.973V123.527H74.3496V119.996H75.1159L75.1939 120.388C75.3194 120.264 75.4774 120.159 75.6679 120.071C75.8628 119.98 76.0576 119.934 76.2524 119.934Z" fill="white"/>
<path d="M88.3424 119.934C88.7191 119.934 88.9745 120.037 89.1087 120.243C89.2473 120.445 89.3165 120.735 89.3165 121.111V123.527H88.4073V121.283C88.4073 121.104 88.3792 120.966 88.3229 120.87C88.271 120.769 88.1411 120.718 87.9333 120.718C87.7255 120.718 87.5371 120.803 87.3683 120.973V123.527H86.4396V119.996H87.2059L87.2839 120.388C87.4094 120.264 87.5674 120.159 87.7579 120.071C87.9528 119.98 88.1476 119.934 88.3424 119.934Z" fill="white"/>
<path d="M90.3124 122.253V120.426H89.9165L89.9165 119.843H90.3319V118.969H91.241V119.836L91.8355 119.843V120.426H91.2346V122.346C91.2346 122.484 91.2541 122.585 91.293 122.647C91.332 122.704 91.4142 122.733 91.5398 122.733C91.6653 122.733 91.8061 122.711 91.9619 122.668L92.0983 123.377C91.8861 123.477 91.6697 123.527 91.4489 123.527C91.2324 123.527 91.0679 123.513 90.9553 123.484C90.8471 123.456 90.7562 123.422 90.6826 123.384C90.6133 123.346 90.5527 123.291 90.5007 123.219C90.4531 123.143 90.4163 123.076 90.3903 123.019C90.3687 122.962 90.3514 122.881 90.3384 122.776C90.3211 122.632 90.3124 122.458 90.3124 122.253Z" fill="white"/>
<path d="M40.2319 123.394C39.9016 123.488 39.5943 123.535 39.31 123.535C39.0298 123.535 38.7852 123.491 38.5761 123.402C38.3713 123.308 38.181 123.159 38.0054 122.955C37.6333 122.522 37.4472 121.804 37.4472 120.801C37.4472 120.305 37.5016 119.877 37.6103 119.517C37.719 119.151 37.8674 118.869 38.0556 118.671C38.4068 118.3 38.8312 118.115 39.3288 118.115C39.6424 118.115 39.9581 118.172 40.2758 118.287L40.1316 119.094C39.8932 119.036 39.6716 119.008 39.4668 119.008C39.1281 119.008 38.8605 119.141 38.664 119.407C38.4674 119.668 38.3692 120.13 38.3692 120.794C38.3692 121.452 38.4695 121.919 38.6702 122.196C38.8709 122.467 39.149 122.603 39.5044 122.603C39.7511 122.603 39.9748 122.582 40.1755 122.54L40.2319 123.394Z" fill="white"/>
<path d="M41.3975 121.78C41.4061 122.468 41.6919 122.812 42.2547 122.812C42.5188 122.812 42.7807 122.759 43.0405 122.654L43.1964 123.308C42.863 123.459 42.4928 123.535 42.0859 123.535C41.0598 123.535 40.5468 122.895 40.5468 121.614C40.5468 121.11 40.6745 120.69 40.9299 120.355C41.1853 120.02 41.5533 119.852 42.0339 119.852C42.4192 119.852 42.7158 119.962 42.9236 120.183C43.1357 120.398 43.2418 120.701 43.2418 121.091C43.2418 121.321 43.2137 121.55 43.1574 121.78H41.3975ZM42.5145 121.256V121.215C42.5145 120.761 42.3629 120.534 42.0599 120.534C41.6962 120.534 41.4776 120.775 41.404 121.256H42.5145Z" fill="white"/>
<path d="M45.7643 119.942C46.141 119.942 46.3964 120.045 46.5306 120.251C46.6691 120.453 46.7384 120.742 46.7384 121.119V123.535H45.8292V121.291C45.8292 121.112 45.8011 120.974 45.7448 120.878C45.6929 120.777 45.563 120.726 45.3552 120.726C45.1474 120.726 44.959 120.811 44.7902 120.981V123.535H43.8615V120.004H44.6278L44.7058 120.396C44.8313 120.272 44.9893 120.166 45.1798 120.079C45.3747 119.987 45.5695 119.942 45.7643 119.942Z" fill="white"/>
<path d="M47.7489 122.261V120.434H47.3529L47.3529 119.851H47.7683V118.977H48.6775V119.844L49.272 119.851V120.434H48.671V122.354C48.671 122.492 48.6905 122.593 48.7295 122.655C48.7684 122.712 48.8507 122.741 48.9763 122.741C49.1018 122.741 49.2425 122.719 49.3984 122.676L49.5347 123.385C49.3226 123.485 49.1061 123.535 48.8853 123.535C48.6689 123.535 48.5043 123.521 48.3918 123.492C48.2836 123.463 48.1926 123.43 48.119 123.392C48.0498 123.354 47.9891 123.299 47.9372 123.227C47.8896 123.151 47.8528 123.084 47.8268 123.027C47.8051 122.97 47.7878 122.888 47.7748 122.783C47.7575 122.64 47.7489 122.466 47.7489 122.261Z" fill="white"/>
<path d="M51.4415 120.696C51.1217 120.696 50.8975 120.806 50.7688 121.027V123.583H49.9498V119.971H50.6284L50.6927 120.429C50.9189 120.072 51.2075 119.893 51.5585 119.893C51.656 119.893 51.7457 119.905 51.8276 119.929L51.6931 120.738C51.6073 120.71 51.5234 120.696 51.4415 120.696Z" fill="white"/>
<path d="M53.9318 123.518C53.9064 123.463 53.8811 123.371 53.8557 123.242C53.695 123.469 53.4773 123.583 53.2025 123.583C52.915 123.583 52.6761 123.485 52.4858 123.288C52.2977 123.091 52.2036 122.836 52.2036 122.523C52.2036 122.151 52.3178 121.863 52.5461 121.66C52.7765 121.456 53.1073 121.352 53.5386 121.348H53.8113V121.062C53.8113 120.903 53.7849 120.79 53.732 120.724C53.6792 120.659 53.602 120.626 53.5005 120.626C53.2765 120.626 53.1644 120.761 53.1644 121.033H52.267C52.267 120.705 52.3854 120.434 52.6222 120.222C52.8611 120.008 53.1623 119.9 53.5259 119.9C53.9022 119.9 54.1929 120.002 54.3979 120.206C54.6051 120.407 54.7087 120.696 54.7087 121.072V122.743C54.7129 123.049 54.7552 123.289 54.8355 123.462V123.518H53.9318ZM53.4022 122.855C53.5016 122.855 53.5862 122.834 53.6559 122.792C53.7257 122.751 53.7775 122.701 53.8113 122.644V121.906H53.5957C53.4435 121.906 53.323 121.956 53.2342 122.057C53.1475 122.158 53.1042 122.292 53.1042 122.461C53.1042 122.723 53.2035 122.855 53.4022 122.855Z" fill="white"/>
<path d="M56.4555 123.527H55.705V118.234H56.4555V123.527Z" fill="white"/>
<path d="M30.2053 120.237C30.3197 120.119 30.4549 120.02 30.6112 119.938C30.7674 119.856 30.9256 119.815 31.0857 119.815C31.2457 119.815 31.3848 119.849 31.503 119.915C31.6211 119.976 31.7107 120.071 31.7717 120.199C31.8822 120.429 31.9374 120.738 31.9374 121.126V123.527H31.1028V121.318C31.1028 120.991 31.0514 120.797 30.9485 120.735C30.8989 120.705 30.8322 120.689 30.7484 120.689C30.535 120.689 30.3539 120.784 30.2053 120.973V123.527H29.405V118.115H30.2053V120.237Z" fill="white"/>
<path d="M33.7302 121.78C33.7388 122.468 34.0246 122.812 34.5874 122.812C34.8515 122.812 35.1134 122.759 35.3732 122.654L35.529 123.308C35.1957 123.459 34.8255 123.535 34.4186 123.535C33.3925 123.535 32.8794 122.895 32.8794 121.614C32.8794 121.11 33.0072 120.69 33.2626 120.355C33.518 120.02 33.886 119.852 34.3666 119.852C34.7519 119.852 35.0485 119.962 35.2563 120.183C35.4684 120.398 35.5745 120.701 35.5745 121.091C35.5745 121.321 35.5464 121.55 35.4901 121.78H33.7302ZM34.8472 121.256V121.215C34.8472 120.761 34.6956 120.534 34.3926 120.534C34.0289 120.534 33.8103 120.775 33.7367 121.256H34.8472Z" fill="white"/>
<path d="M27.145 122.261V120.434H26.749L26.749 119.851H27.1644V118.977H28.0736V119.844L28.6681 119.851V120.434H28.0671V122.354C28.0671 122.492 28.0866 122.593 28.1256 122.655C28.1645 122.712 28.2468 122.741 28.3723 122.741C28.4979 122.741 28.6386 122.719 28.7945 122.676L28.9308 123.385C28.7187 123.485 28.5022 123.535 28.2814 123.535C28.065 123.535 27.9004 123.521 27.7879 123.492C27.6796 123.463 27.5887 123.43 27.5151 123.392C27.4458 123.354 27.3852 123.299 27.3333 123.227C27.2857 123.151 27.2489 123.084 27.2229 123.027C27.2012 122.97 27.1839 122.888 27.1709 122.783C27.1536 122.64 27.145 122.466 27.145 122.261Z" fill="white"/>
<path d="M22.9279 124.96C22.6091 124.95 22.4982 124.902 22.4982 124.902L22.6028 124.204C22.6028 124.204 22.8233 124.204 22.8532 124.204C23.0392 124.204 23.1704 124.154 23.2467 124.053C23.3265 123.957 23.3979 123.717 23.461 123.333L22.4881 119.704H23.1919L23.7649 122.253L24.2886 119.704H24.9652L24.1385 123.124C23.9658 123.844 23.8014 124.329 23.6453 124.578C23.4925 124.833 23.2467 124.97 22.9279 124.96Z" fill="white"/>
<path d="M19.9329 118.115L19.9037 120.026C19.9854 119.94 20.0943 119.867 20.2304 119.806C20.3704 119.741 20.5104 119.708 20.6504 119.708C20.9693 119.708 21.2318 119.867 21.4379 120.186C21.644 120.5 21.7762 120.716 21.7762 121.303C21.7762 122.027 21.6635 122.581 21.4379 122.966C21.2123 123.345 20.8507 123.535 20.3529 123.535C20.139 123.535 19.9096 123.507 19.6646 123.452C19.4195 123.401 19.2368 123.34 19.1162 123.269V118.115H19.9329ZM20.2362 122.677C20.5046 122.677 20.6912 122.571 20.7962 122.358C20.9012 122.146 20.9537 121.837 20.9537 121.432C20.9537 121.027 20.8818 120.978 20.7962 120.816C20.7146 120.654 20.5882 120.573 20.4171 120.573C20.2459 120.573 20.0748 120.641 19.9037 120.778L19.9329 122.639C20.0379 122.665 20.139 122.677 20.2362 122.677Z" fill="white"/>
<path d="M24.4579 28.3576H29.1932V29.8918H22.6395V17.2391H24.4579V28.3576Z" fill="white"/>
<path d="M32.7032 17.2391V29.8918H30.8849V17.2391H32.7032Z" fill="white"/>
<path d="M40.4484 30.138C36.8117 30.138 34.9933 27.9409 34.9933 23.5465C34.9933 21.2736 35.4542 19.6131 36.376 18.565C37.3105 17.5169 38.5921 16.9929 40.2211 16.9929C41.0797 16.9929 42.0331 17.1381 43.0812 17.4285L42.7403 18.8491C41.8942 18.6597 41.1492 18.565 40.5052 18.565C39.3435 18.565 38.4343 18.9375 37.7777 19.6825C37.1337 20.4275 36.8117 21.6903 36.8117 23.4707C36.8117 26.8802 38.1439 28.5849 40.8083 28.5849C41.4523 28.5849 42.1468 28.5091 42.8918 28.3576L43.138 29.7782C42.1405 30.0181 41.2439 30.138 40.4484 30.138Z" fill="white"/>
<path d="M47.0112 28.3576H52.3905V29.8918H45.1928V17.2391H52.22V18.7733H47.0112V22.5994H51.917V24.0958H47.0112V28.3576Z" fill="white"/>
<path d="M64.167 29.8918H62.3108L56.3254 19.6446C56.3759 20.1371 56.4011 20.6674 56.4011 21.2357V29.8918H54.6775V17.2391H56.5337L62.5191 27.4863C62.4686 26.9938 62.4434 26.4634 62.4434 25.8952V17.2391H64.167V29.8918Z" fill="white"/>
<path d="M74.0198 26.596C74.0198 27.6189 73.6536 28.4649 72.9212 29.1342C72.1889 29.8034 71.2229 30.138 70.0232 30.138C69.3792 30.138 68.691 30.0686 67.9587 29.9297C67.2389 29.7908 66.658 29.614 66.2161 29.3993L66.7085 27.7893C67.946 28.2818 68.9752 28.528 69.796 28.528C70.6167 28.528 71.2355 28.3513 71.6522 27.9977C72.0689 27.6315 72.2772 27.1706 72.2772 26.615C72.2772 26.0594 72.0499 25.5858 71.5954 25.1944C71.1408 24.8029 70.5473 24.4304 69.8149 24.0769C69.0951 23.7107 68.609 23.4518 68.3564 23.3003C68.1039 23.1487 67.8134 22.9214 67.4851 22.6184C66.8538 22.0754 66.5381 21.2925 66.5381 20.2697C66.5381 19.2469 66.898 18.445 67.6177 17.8642C68.3375 17.2833 69.2151 16.9929 70.2505 16.9929C71.2986 16.9929 72.3719 17.1949 73.4705 17.599L72.9781 19.1143C72.0184 18.7733 71.166 18.6029 70.421 18.6029C69.6886 18.6029 69.1456 18.7544 68.7921 19.0574C68.4511 19.3479 68.2807 19.733 68.2807 20.2129C68.2807 20.6927 68.4827 21.1031 68.8868 21.444C69.2909 21.7723 69.8212 22.1133 70.4778 22.4669C71.1345 22.8078 71.6143 23.0793 71.9174 23.2813C72.233 23.4834 72.574 23.7422 72.9402 24.0579C73.66 24.7145 74.0198 25.5606 74.0198 26.596Z" fill="white"/>
<path d="M77.8883 28.3576H83.2676V29.8918H76.0699V17.2391H83.0971V18.7733H77.8883V22.5994H82.794V24.0958H77.8883V28.3576Z" fill="white"/>
<path d="M87.3729 18.7733V28.3576H88.945C90.4351 28.3576 91.4453 27.9724 91.9756 27.2022C92.506 26.4319 92.7712 25.2196 92.7712 23.5654C92.7712 21.9113 92.506 20.699 91.9756 19.9287C91.4453 19.1585 90.4351 18.7733 88.945 18.7733H87.3729ZM88.8124 29.8918H85.5546V17.2391H88.8124C90.4288 17.2391 91.5526 17.4096 92.184 17.7505C93.8003 18.5713 94.6084 20.5159 94.6084 23.5844C94.6084 26.6402 93.8003 28.5785 92.184 29.3993C91.5652 29.7276 90.4414 29.8918 88.8124 29.8918Z" fill="white"/>
<path d="M107.968 20.4402C107.968 21.6145 107.482 22.4605 106.509 22.9783C107.318 23.2813 107.886 23.6917 108.214 24.2094C108.555 24.7145 108.726 25.3775 108.726 26.1983C108.726 27.3474 108.378 28.2502 107.684 28.9069C106.989 29.5635 105.948 29.8918 104.558 29.8918H100.713V17.2391H103.043C103.788 17.2391 104.331 17.2454 104.672 17.258C106.869 17.3338 107.968 18.3945 107.968 20.4402ZM102.532 18.6029V22.3911H104.388C104.944 22.3532 105.373 22.1638 105.676 21.8229C105.979 21.4693 106.131 21.0589 106.131 20.5917C106.131 20.1118 106.08 19.7583 105.979 19.531C105.891 19.3037 105.777 19.1269 105.638 19.0006C105.512 18.8743 105.316 18.7796 105.051 18.7165C104.647 18.6407 104.104 18.6029 103.422 18.6029H102.532ZM104.199 28.3576C105.992 28.3576 106.888 27.6125 106.888 26.1225C106.888 25.3649 106.636 24.7903 106.131 24.3989C105.727 23.9948 105.007 23.7927 103.971 23.7927H102.532V28.3576H104.199Z" fill="white"/>
<path d="M114.832 29.8918H113.014V24.683L109.036 17.2391H111.082L113.923 23.2056L116.84 17.2391H118.753L114.832 24.683V29.8918Z" fill="white"/>
</svg>
