<svg width="160" height="80" viewBox="0 0 160 80" fill="none" xmlns="http://www.w3.org/2000/svg">
<path d="M99.4726 49.1364L98.1507 50.4072C94.5698 53.8506 88.7722 53.8506 85.2337 50.4072L77.7729 43.2744C74.192 39.8309 74.192 34.2558 77.7729 30.8534L79.0948 29.5826C82.6756 26.1391 88.4738 26.1391 92.0118 29.5826L99.4726 36.7564C103.053 40.1589 103.053 45.734 99.4726 49.1364ZM79.3932 32.3701C76.7071 34.9527 76.7071 39.134 79.3932 41.7166L86.8534 48.8904C89.5395 51.473 93.8877 51.473 96.5738 48.8904L97.8951 47.6196C100.581 45.0371 100.581 40.8558 97.8951 38.2732L90.4349 31.0993C87.7488 28.5168 83.4006 28.5168 80.7145 31.0993L79.3932 32.3701Z" fill="#F2C94C"/>
<path d="M79.18 50.4482L77.8581 49.1774C74.2772 45.734 74.2772 40.1589 77.8581 36.7564L85.3189 29.5826C88.8997 26.1391 94.6979 26.1391 98.2359 29.5826L99.5578 30.8534C103.139 34.2968 103.139 39.8719 99.5578 43.2744L92.097 50.4482C88.559 53.8506 82.7185 53.8506 79.18 50.4482ZM96.6161 31.0993C93.9306 28.5168 89.5818 28.5168 86.8963 31.0993L79.4355 38.2732C76.7923 40.8558 76.7923 45.0371 79.4355 47.5787L80.7574 48.8495C83.4429 51.432 87.7917 51.432 90.4772 48.8495L97.9374 41.6756C100.624 39.093 100.624 34.9117 97.9374 32.3291L96.6161 31.0993Z" fill="#F2C94C"/>
<path d="M94.2289 34.7477L97.895 38.2731C100.581 40.8557 100.581 45.037 97.895 47.6195L97.2558 48.1934C97.7246 48.7674 98.2358 49.3413 98.7052 49.9152L99.5148 49.1363C103.096 45.6929 103.096 40.1178 99.5148 36.7154L95.8487 33.1899C95.2947 33.7228 94.7401 34.2147 94.2289 34.7477Z" fill="#F2C94C"/>
<path d="M83.1873 45.3651L79.3503 41.6757C76.6648 39.0931 76.6648 34.9118 79.3503 32.3292L80.0324 31.6733C79.4784 31.1814 78.8391 30.7304 78.2845 30.2385L77.7305 30.7714C74.1496 34.2149 74.1496 39.79 77.7305 43.1924L81.6098 46.9228C82.2068 46.5129 82.6756 45.939 83.1873 45.3651Z" fill="#F2C94C"/>
<path d="M8.58839 47.717C6.41417 47.717 4.62366 47.0611 3.1742 45.7493C1.72473 44.3965 1 42.7568 1 40.7071C1 38.6575 1.72473 36.9767 3.13156 35.665C4.58102 34.3531 6.37154 33.6973 8.58839 33.6973C9.95259 33.6973 11.1889 33.9842 12.2973 34.5581V37.3457C11.2315 36.6488 9.99519 36.3208 8.63099 36.3208C7.30944 36.3208 6.20102 36.7308 5.30576 37.5506C4.41051 38.3705 3.98419 39.4363 3.98419 40.7071C3.98419 41.9779 4.45314 43.0437 5.34839 43.8636C6.24365 44.6835 7.39469 45.0934 8.75889 45.0934C10.2936 45.0934 11.5725 44.6835 12.5957 43.9046V46.6922C11.4446 47.389 10.1231 47.717 8.58839 47.717Z" fill="white"/>
<path d="M21.8893 47.143H19.033V41.1171L13.6188 33.6973H17.0294L20.5251 38.4935L24.0209 33.6973H27.3035L21.8893 41.076V47.143Z" fill="white"/>
<path d="M35.9577 47.143H28.9235V33.6973H35.4888C36.7677 33.6973 37.7909 33.9842 38.5582 34.5991C39.3256 35.173 39.7093 36.0339 39.7093 37.0587C39.7093 37.7146 39.5387 38.2885 39.1977 38.7394C38.8566 39.1904 38.4303 39.5183 37.9188 39.7233C38.6861 39.8873 39.3256 40.2562 39.9224 40.9121C40.4766 41.527 40.775 42.3468 40.775 43.3307C40.775 44.4785 40.3487 45.3803 39.4535 46.1183C38.6435 46.8151 37.4498 47.143 35.9577 47.143ZM31.8225 35.9929V38.9444H35.0625C35.6593 38.9444 36.1282 38.8214 36.4693 38.5755C36.8103 38.3295 36.9809 37.9605 36.9809 37.5097C36.9809 37.0177 36.8103 36.6488 36.4693 36.4028C36.1282 36.1569 35.6593 35.9929 35.0625 35.9929H31.8225ZM31.8225 41.24V44.7655H35.4461C36.1709 44.7655 36.7251 44.6015 37.1088 44.3145C37.4924 44.0276 37.7056 43.5767 37.7056 43.0028C37.7056 42.4288 37.4924 42.0189 37.1088 41.691C36.7251 41.363 36.1282 41.24 35.4461 41.24H31.8225Z" fill="white"/>
<path d="M53.7349 47.143H43.2476V33.6973H53.5217V36.1569H46.1039V38.7394H52.0723V41.199H46.1039V44.6425H53.7349V47.143Z" fill="white"/>
<path d="M58.936 47.143H56.037V33.6973H62.5169C64.0091 33.6973 65.203 34.0662 66.0554 34.8041C66.9079 35.542 67.3345 36.4848 67.3345 37.6736C67.3345 38.5755 67.0783 39.3544 66.5672 40.0102C66.0554 40.6661 65.3305 41.1171 64.4351 41.404L68.741 47.143H65.4156L61.3231 41.691H58.8931V47.143H58.936ZM58.936 36.1159V39.3953H62.3888C63.0286 39.3953 63.5403 39.2724 63.924 38.9854C64.3076 38.6985 64.478 38.2885 64.478 37.7556C64.478 37.2637 64.3076 36.8538 63.924 36.5668C63.5403 36.2798 63.0286 36.1159 62.3888 36.1159H58.936Z" fill="white"/>
<path d="M113.512 47.635C111.423 47.635 109.633 47.143 108.183 46.2002V43.3307C108.78 43.8226 109.547 44.2325 110.485 44.6015C111.466 44.9295 112.404 45.1344 113.385 45.1344C114.152 45.1344 114.834 45.0114 115.303 44.7245C115.814 44.4375 116.07 44.0686 116.07 43.5767C116.07 43.0437 115.814 42.6748 115.346 42.4698C115.132 42.3468 114.876 42.2239 114.535 42.1419L114.067 41.9779L112.958 41.65L111.935 41.322C111.807 41.281 111.466 41.158 110.997 40.9941C110.57 40.8301 110.272 40.7071 110.102 40.5841C109.419 40.1332 108.951 39.7233 108.78 39.3953C108.439 38.7805 108.311 38.1655 108.311 37.5097C108.311 36.3208 108.78 35.378 109.718 34.7221C110.656 34.0252 111.935 33.6973 113.597 33.6973C115.218 33.6973 116.752 34.0662 118.159 34.8041V37.5097C116.752 36.6488 115.218 36.2389 113.64 36.2389C112.063 36.2389 111.253 36.6898 111.253 37.5506C111.253 37.9196 111.509 38.2475 111.977 38.4935C112.276 38.6574 112.66 38.7805 113.128 38.9034C113.768 39.0674 114.279 39.2313 114.664 39.3133C115.814 39.6413 116.837 40.1332 117.69 40.7071C118.628 41.322 119.097 42.2649 119.097 43.4947C119.097 44.8064 118.585 45.7903 117.519 46.5692C116.454 47.2661 115.132 47.635 113.512 47.635Z" fill="white"/>
<path d="M131.418 47.143H121.442V33.6973H124.34V44.6835H131.418V47.143Z" fill="white"/>
<path d="M132.1 40.7071C132.1 38.7394 132.782 37.0997 134.146 35.7469C135.51 34.3942 137.258 33.6973 139.347 33.6973C141.436 33.6973 143.141 34.3942 144.505 35.7469C145.912 37.0997 146.594 38.7394 146.594 40.7071C146.594 42.6338 145.912 44.3145 144.505 45.6673C143.141 47.0201 141.393 47.717 139.347 47.717C137.258 47.717 135.51 47.0201 134.146 45.6673C132.782 44.3145 132.1 42.6748 132.1 40.7071ZM136.235 43.8636C137.045 44.6835 138.11 45.0934 139.347 45.0934C140.583 45.0934 141.606 44.6835 142.416 43.8636C143.227 43.0437 143.652 41.9779 143.652 40.7071C143.652 39.4363 143.227 38.3705 142.416 37.5506C141.606 36.7308 140.583 36.3208 139.347 36.3208C138.11 36.3208 137.088 36.7308 136.235 37.5506C135.425 38.3705 134.998 39.4363 134.998 40.7071C135.041 41.9779 135.425 43.0437 136.235 43.8636Z" fill="white"/>
<path d="M147.276 36.1569V33.6973H159V36.1569H154.566V47.143H151.667V36.1569H147.276Z" fill="white"/>
</svg>
