<svg width="34" height="28" viewBox="0 0 34 28" fill="none" xmlns="http://www.w3.org/2000/svg">
<path fill-rule="evenodd" clip-rule="evenodd" d="M8.19533 0.542969L25.8164 0.548079L25.8206 0.546817L33.9997 9.46233L33.9985 9.46338L34 9.46338L16.9946 27.9998L16.9946 27.9924L16.994 27.9998L0.000882939 9.47684L0 9.47609L9.66775e-05 9.47598L0 9.47588H0.000193486L8.19506 0.543269L8.19476 0.542969H8.19533Z" fill="white"/>
<path d="M9.8028 2L3 9.52684L17.1064 21.7168L25.1669 9.51632L9.8028 2Z" fill="#69B1E9"/>
<path d="M3 9.52615L17.1064 25.134L17.8125 15.3511L17.1112 9.51562L3 9.52615Z" fill="#2681FF"/>
<path d="M17.1113 21.7111L31.2226 9.51592L24.4332 2.00391L17.1113 4.2519V21.7111Z" fill="#2681FF"/>
<path d="M9.80237 2L17.1107 9.52684L24.4326 2.00431L9.80237 2Z" fill="#87C0ED"/>
<path d="M17.1116 9.52615L17.1069 25.134L31.2228 9.51562L17.1116 9.52615Z" fill="#0051BE"/>
</svg>
