<svg width="160" height="80" viewBox="0 0 160 80" fill="none" xmlns="http://www.w3.org/2000/svg">
<g clip-path="url(#clip0)">
<path d="M80 79.896C102.091 79.896 120 62.0216 120 39.9724C120 17.9231 102.091 0.0487061 80 0.0487061C57.9086 0.0487061 39.9999 17.9231 39.9999 39.9724C39.9999 62.0216 57.9086 79.896 80 79.896Z" fill="#CFD0CC"/>
<path d="M119.023 31.1005C116.923 20.9611 110.476 13.9416 109.402 12.8692C109.353 12.8204 109.304 12.7717 109.255 12.6742L100.611 21.0099C97.094 17.4026 92.7472 14.7215 87.9609 13.2104C89.0842 9.45688 90.3052 5.3134 91.4286 1.65739C85.7143 0.0974937 84.7375 0.389975 83.0281 0.14624L80.1465 0C76.923 0 73.6996 0.389975 70.525 1.16992L72.967 12.5279C68.083 13.6491 63.492 15.989 59.7313 19.255C57.2893 16.6227 54.8473 13.9903 52.3076 11.2118C46.9841 16.1839 43.7118 21.8386 41.5628 28.6144L51.4773 31.7342C50.0121 36.5601 49.8168 41.6785 50.8913 46.602C47.5213 47.4794 44.7374 48.0644 41.2698 48.9906C41.2698 48.9906 41.2698 48.9906 41.2698 49.0393L41.0744 49.088C41.0744 49.088 42.4419 58.7399 50.7447 67.2219V67.1731L58.2173 60.0073C61.8315 63.6633 66.3736 66.3932 71.3064 67.8556L68.2295 78.1411C68.2295 78.1411 78.2417 81.6997 88.84 78.9698H88.8889L86.6422 68.4405C89.0354 67.4168 91.4774 66.5882 93.6264 65.4182C95.7753 64.2483 97.6801 62.7859 99.8779 61.3235L104.029 65.9057L107.155 69.3667C112.479 64.7845 116.337 58.6912 118.242 51.9154V51.8666L107.692 48.6006C108.034 46.0657 108.523 43.6772 108.571 41.2886C108.62 38.9487 108.278 36.6089 108.034 33.9765L119.023 31.1005Z" fill="#253170"/>
<path d="M75.9463 15.2579L75.5555 13.3568C78.5348 12.918 81.514 12.9668 84.4444 13.4543L84.1026 15.6479L75.9463 15.2579Z" fill="#CDCECB"/>
<path d="M70.1831 14.0399L70.9157 16.2823C68.1807 17.4034 66.0806 18.7684 63.5409 20.0845L62.1245 18.1834L70.1831 14.0399Z" fill="#CDCECB"/>
<path d="M73.9927 67.2219L74.3834 65.1746L82.6374 65.5645L82.8816 67.6119C79.9512 68.0019 76.9231 67.8556 73.9927 67.2219Z" fill="#CDCECB"/>
<path d="M105.543 31.5394L103.639 32.3681L99.5361 25.1048L101.197 23.8374C103.101 26.1285 104.567 28.7121 105.543 31.5394Z" fill="#CDCECB"/>
<path d="M98.7546 57.3751L103.15 50.3556L105.055 51.038C104.078 53.9629 102.369 56.254 100.415 58.6913L98.7546 57.3751Z" fill="#CDCECB"/>
<path d="M89.9146 14.9167C92.6496 16.1354 95.2381 17.6953 97.5825 19.6452L96.1173 21.4976C93.9195 19.7914 91.5751 18.329 89.0843 17.1591L89.9146 14.9167Z" fill="#CDCECB"/>
<path d="M53.8705 43.4335L51.6727 43.921C51.282 40.9962 51.3308 37.9739 51.7704 35.0491L53.8705 35.2928V43.4335Z" fill="#CDCECB"/>
<path d="M52.9426 49.1857L54.945 48.4058L58.9499 55.6203L57.3382 56.8877C55.3846 54.5966 54.1636 52.0618 52.9426 49.1857Z" fill="#CDCECB"/>
<path d="M61.0989 60.8847L62.4664 59.3248L69.4994 63.6145L68.7668 65.5157C65.9829 64.492 63.3944 62.8833 61.0989 60.8847Z" fill="#CDCECB"/>
<path d="M55.3846 30.4181L53.431 29.6381C54.5543 26.8595 56.166 24.3247 58.2173 22.1311L59.7802 23.496L55.3846 30.4181Z" fill="#CDCECB"/>
<path d="M104.664 45.4323V37.2428L106.862 36.9503C107.399 39.8751 107.351 42.8974 106.667 45.8222L104.664 45.4323Z" fill="#CDCECB"/>
<path d="M94.994 60.7388L96.1662 62.2012C94.1637 64.1023 92.0148 65.2235 88.3517 66.3934L87.6191 64.4923L94.994 60.7388Z" fill="#CDCECB"/>
<path d="M82.0025 57.375C77.8999 57.375 74.1392 57.6187 70.4273 57.3263C64.0293 56.8388 59.536 48.7956 62.271 43.0435C62.906 41.776 63.9804 40.7524 64.9572 39.3874C63.2478 37.4863 61.3431 35.3415 61.3431 32.3192C61.3431 30.2718 61.978 28.2732 63.1013 26.567C65.4456 22.8135 68.9621 21.4974 73.3577 21.5949V27.152C72.4298 27.2007 71.5507 27.347 70.7204 27.8344C68.8156 28.9069 67.8388 31.0517 68.2784 33.1966C68.7668 35.1952 70.3785 36.4626 72.7717 36.6089C73.895 36.7064 75.0183 36.6089 76.337 36.6089C76.337 31.6367 76.2393 26.5183 76.2393 21.5461C76.8742 21.4974 77.5092 21.4486 78.1441 21.4974C81.1722 21.4974 84.1514 21.3999 87.1795 21.6436C94.7009 22.2773 98.7546 28.5169 96.8987 34.9027C96.3615 36.7064 94.9939 38.2175 93.9194 40.0211C95.6777 41.2886 96.8498 43.1897 97.2406 45.2858C97.5825 47.2357 97.2894 49.1855 96.4591 50.9892C94.7009 55.1327 90.6472 57.57 85.7143 57.5213C85.7143 55.8639 85.7143 54.2065 85.7143 52.3541C86.1539 52.2079 87.2772 52.3541 88.6935 51.4766C90.4518 50.3067 91.5263 47.8206 91.1356 46.0658C90.7448 44.3109 88.7912 42.6535 86.6911 42.4585C85.3236 42.361 83.9561 42.4585 82.3443 42.4585L82.0025 57.375ZM82.3932 36.4626C83.8584 36.4626 85.1282 36.5114 86.4469 36.4626C88.6935 36.3651 90.403 34.9027 90.7448 32.9041C91.1844 30.2718 90.3541 28.5169 88.1563 27.4932C86.3004 26.6158 84.3956 26.9083 82.3932 27.0545V36.4626ZM76.4347 42.4097C75.116 42.4097 74.0415 42.2635 73.0159 42.4585C71.8437 42.6535 70.4762 43.1897 69.3529 44.4084C68.4737 45.3833 67.8877 46.8944 68.2295 48.6981C68.5226 50.3067 70.0855 51.6716 71.8437 51.8179C73.3577 51.9154 74.8718 51.8179 76.4835 51.8179L76.4347 42.4097Z" fill="#EC402C"/>
<path d="M80.4395 10.7243C80.4395 10.7243 84.7863 7.84827 84.7863 4.97221C84.7863 3.50981 83.7118 2.29114 82.3931 2.29114C81.5629 2.29114 80.8303 2.72986 80.4395 3.46106C80.0488 2.77861 79.3162 2.33988 78.4859 2.29114C77.1673 2.29114 76.0928 3.46106 76.0928 4.97221C76.0928 7.84827 80.4395 10.7243 80.4395 10.7243Z" fill="#EC402C"/>
<path d="M51.4285 59.3251C49.4749 58.6914 47.4725 58.3014 45.4212 58.2039C46.3492 56.4003 47.0329 54.4504 47.4236 52.4518C49.3773 53.0855 51.3797 53.4755 53.431 53.573C52.5519 55.3766 51.8681 57.3265 51.4285 59.3251Z" fill="#EC402C"/>
<path d="M112.967 60.4461C112.967 60.4461 112.967 55.9127 110.818 54.5965C109.792 53.914 108.376 54.2065 107.692 55.2789C107.399 55.7664 107.35 56.4001 107.497 56.9363C107.009 56.3514 106.618 55.7177 106.374 55.0352L105.006 57.3263C105.739 57.2288 106.52 57.2776 107.253 57.3751C106.667 57.4726 106.178 57.8625 105.885 58.35C105.299 59.4224 105.69 60.7873 106.813 61.3723C108.962 62.6397 112.967 60.4461 112.967 60.4461Z" fill="#EC402C"/>
<path d="M75.7998 75.0702C76.2394 75.3626 76.7766 75.4601 77.265 75.3626C76.4836 76.1913 76.5324 77.4588 77.3627 78.2387C78.193 79.0187 79.4628 78.9699 80.2442 78.1412C80.928 77.41 80.9768 76.2888 80.3908 75.5089C81.4652 75.8014 82.5886 75.1677 82.8816 74.0952C83.1747 73.0228 82.5397 71.9016 81.4652 71.6091C80.5861 71.3654 79.6093 71.7554 79.1698 72.5353C79.4628 71.7554 79.9512 71.0729 80.4884 70.4392L77.6069 70.293C78.0953 70.9754 78.486 71.7066 78.7302 72.4866C78.2906 71.4629 77.0696 71.0242 76.044 71.4629C75.0184 71.9016 74.5788 73.1203 75.0184 74.144C75.1649 74.5339 75.4579 74.8752 75.7998 75.0702Z" fill="#EC402C"/>
<path d="M46.8375 25.6408L46.2515 25.2508L47.6678 23.0084L48.1562 23.3009C48.2051 23.5934 48.3516 23.9346 48.5958 24.3733C48.7911 24.7633 49.0842 25.1533 49.3772 25.4945C49.7191 25.8357 50.0122 26.1282 50.3052 26.3232L49.9145 26.9569C49.4261 26.6644 49.0354 26.2257 48.6446 25.7382C48.2539 25.2508 48.0097 24.7146 47.8143 24.1783L46.8375 25.6408Z" fill="#EC402C"/>
<path d="M48.547 23.0084L47.9609 22.6185L49.3772 20.3761L49.8656 20.6686C49.9145 20.9611 50.061 21.3023 50.3052 21.741C50.5006 22.131 50.7936 22.521 51.0866 22.8622C51.4285 23.2034 51.7216 23.4959 52.0146 23.6909L51.6239 24.3246C51.1355 24.0321 50.7448 23.5934 50.354 23.1059C49.9633 22.6185 49.7191 22.0822 49.5238 21.546L48.547 23.0084Z" fill="#EC402C"/>
<path d="M50.2564 20.3274L49.6215 19.9374L51.0378 17.6951L51.5262 17.9875C51.5751 18.28 51.7216 18.6213 51.9658 19.06C52.1611 19.45 52.4542 19.8399 52.7472 20.1812C53.0891 20.5224 53.3821 20.8149 53.6752 21.0099L53.2845 21.6436C52.7961 21.3511 52.4053 20.9124 52.0146 20.4249C51.6239 19.9374 51.3797 19.4012 51.1843 18.865L50.2564 20.3274Z" fill="#EC402C"/>
<path d="M109.89 27.8349C107.595 27.8349 105.983 26.86 105.739 25.8363L105.641 24.0814V24.0327C105.885 23.1065 106.862 22.2778 108.327 21.8391L108.474 22.2778C107.253 22.6678 106.325 23.3502 106.129 24.0814L106.227 25.7388C106.423 26.6163 108.181 27.445 110.427 27.2987C112.674 27.1525 114.237 26.08 114.383 25.2026L114.286 23.594C113.993 22.8628 113.016 22.3265 111.746 22.0828L111.844 21.5953C113.358 21.8391 114.432 22.5215 114.774 23.4477V23.4965L114.872 25.2026V25.2513C114.725 26.3725 113.016 27.6399 110.476 27.7862C110.281 27.8349 110.086 27.8349 109.89 27.8349ZM109.841 25.9825C107.937 25.9825 106.422 25.2513 106.374 24.1789L106.862 24.1302C106.911 24.8614 108.278 25.5926 110.281 25.4463C111.551 25.3488 112.723 24.9101 113.26 24.3252C113.455 24.1302 113.553 23.8864 113.504 23.6914L113.993 23.6427C113.993 23.9839 113.895 24.3252 113.602 24.6176C112.967 25.3001 111.746 25.7876 110.281 25.8851C110.183 25.9825 109.988 25.9825 109.841 25.9825Z" fill="#EC402C"/>
<path d="M112.869 24.6173L112.479 24.3248C112.527 24.2273 112.576 24.1298 112.576 23.9836C112.527 23.5448 111.746 23.1549 110.672 23.1061V22.6187C112.039 22.6674 113.016 23.2036 113.065 23.9836C113.114 24.2273 113.016 24.471 112.869 24.6173Z" fill="#EC402C"/>
<path d="M107.79 25.1045C107.546 24.9096 107.399 24.6658 107.351 24.3733C107.302 23.6421 108.181 22.9597 109.548 22.7159L109.646 23.2034C108.62 23.3984 107.839 23.8859 107.839 24.3246C107.839 24.4708 107.937 24.6171 108.083 24.7146L107.79 25.1045Z" fill="#EC402C"/>
<path d="M109.646 25.2022L109.548 23.5936L110.134 22.9111L110.818 23.4961L110.916 25.1047L110.427 25.1535L110.33 23.7398L110.183 23.5936L110.037 23.7398L110.134 25.1535L109.646 25.2022Z" fill="#EC402C"/>
<path d="M110.256 21.1931L109.769 21.2247L109.914 23.4624L110.401 23.4308L110.256 21.1931Z" fill="#EC402C"/>
<path d="M110.363 20.9396L109.632 20.9872L109.664 21.474L110.395 21.4263L110.363 20.9396Z" fill="#EC402C"/>
<path d="M111.388 21.4607L108.756 21.6321L108.788 22.1189L111.42 21.9474L111.388 21.4607Z" fill="#EC402C"/>
</g>
<defs>
<clipPath id="clip0">
<rect width="160" height="80" fill="white"/>
</clipPath>
</defs>
</svg>
