<svg width="160" height="80" viewBox="0 0 160 80" fill="none" xmlns="http://www.w3.org/2000/svg">
<path d="M0 40.3844L28.0201 21.0764L44.7303 34.0506V39.5671L54.8175 46.8204V28.534L27.4088 8L0 27.4102V40.3844Z" fill="#008EF7"/>
<path d="M26.5936 33.6421L18.2793 39.5775L34.7144 52.7152L28.122 58.6711L9.46571 45.8603L2.54729 50.8048L20.8877 63.8812L19.0537 65.6179L28.0201 72.6668L53.1873 52.9501L26.5936 33.6421Z" fill="#D9D9D9"/>
<path d="M80.5957 41.7328H65.7094V14.395H80.5957V19.9014H71.884V25.0604H80.4021V30.577H71.884V36.1549H80.5957V41.7328Z" fill="#008EF7"/>
<path d="M108.198 28.0639C108.198 32.518 106.914 35.9404 104.337 38.3105C101.84 40.5886 98.3351 41.7226 93.8417 41.7226H84.9059V14.395H94.7893C98.9567 14.395 102.227 15.6311 104.612 18.0932C107.006 20.5654 108.198 23.8856 108.198 28.0639ZM102.024 28.1661C102.024 25.6325 101.402 23.6404 100.159 22.1898C98.8446 20.6676 96.9392 19.9014 94.4633 19.9014H91.0805V36.2264H94.4225C99.4865 36.2264 102.024 33.5396 102.024 28.1661Z" fill="#008EF7"/>
<path d="M139.591 26.5826C139.591 31.0673 138.328 34.7553 135.801 37.6668C133.151 40.7316 129.616 42.264 125.194 42.264C121.179 42.264 117.786 40.8746 115.005 38.1061C112.223 35.3376 110.837 31.9357 110.837 27.9106C110.837 23.8856 112.264 20.5348 115.117 17.848C117.898 15.1918 121.301 13.8638 125.336 13.8638C128.261 13.8638 130.971 14.7015 133.457 16.3667C135.943 18.0421 137.624 20.2385 138.511 22.9764H131.429C129.962 20.6471 127.884 19.4825 125.184 19.4825C122.891 19.4825 120.965 20.2998 119.406 21.9343C117.858 23.5689 117.073 25.5405 117.073 27.8391C117.073 30.3216 117.796 32.3954 119.233 34.0708C120.751 35.8177 122.728 36.6861 125.184 36.6861C128.77 36.6861 131.175 35.0413 132.418 31.7518H123.176V26.5928H139.591V26.5826Z" fill="#008EF7"/>
<path d="M158.105 41.7328H143.218V14.395H158.105V19.9014H149.393V25.0604H157.911V30.577H149.393V36.1549H158.105V41.7328Z" fill="#008EF7"/>
<path d="M72.7707 59.9886V57.782H83.4591C83.2655 60.5505 82.43 62.7163 80.9627 64.2793C79.3936 65.9649 77.2641 66.8026 74.5538 66.8026C71.925 66.8026 69.7852 65.9343 68.1448 64.1873C66.5145 62.4915 65.6994 60.3155 65.6994 57.6594C65.6994 55.1361 66.5757 53.0112 68.3384 51.2642C70.0909 49.5275 72.2306 48.6592 74.7473 48.6592C78.4052 48.6592 80.9322 50.1916 82.3179 53.2461H79.414C78.5071 51.7239 76.8871 50.968 74.5538 50.968C72.8114 50.968 71.3034 51.6422 70.0298 52.9907C68.7561 54.3392 68.1142 55.9023 68.1142 57.6594C68.1142 59.6515 68.695 61.286 69.8566 62.5834C71.0181 63.8809 72.5771 64.5245 74.5538 64.5245C77.743 64.5245 79.8113 63.0125 80.7487 59.9886H72.7707Z" fill="#D9D9D9"/>
<path d="M94.9423 61.2963H87.9321L85.9554 66.4656H83.4591L90.3062 49.0066H92.6293L99.4459 66.4656H96.8476L94.9423 61.2963ZM88.7676 59.0386H94.1169L91.478 51.8773L88.7676 59.0386Z" fill="#D9D9D9"/>
<path d="M102.503 50.5287L102.676 66.4553H100.465V48.9963H104.072L109.268 62.9819L114.465 48.9963H117.97V66.4553H115.85L115.993 50.5185L110.063 66.4553H108.423L102.503 50.5287Z" fill="#D9D9D9"/>
<path d="M123.421 48.9963V66.4553H121.149V48.9963H123.421Z" fill="#D9D9D9"/>
<path d="M128.648 52.3472L128.842 66.4655H126.518V48.9963H128.964L137.839 62.6959L137.696 48.9963H139.968V66.4553H137.737L128.648 52.3472Z" fill="#D9D9D9"/>
<path d="M149.301 59.9886V57.782H159.99C159.796 60.5505 158.961 62.7163 157.493 64.2793C155.924 65.9649 153.795 66.8026 151.084 66.8026C148.456 66.8026 146.316 65.9343 144.675 64.1874C143.045 62.4915 142.23 60.3155 142.23 57.6594C142.23 55.1361 143.106 53.0112 144.869 51.2642C146.621 49.5275 148.761 48.6592 151.278 48.6592C154.936 48.6592 157.463 50.1916 158.848 53.2461H155.945C155.038 51.724 153.418 50.968 151.084 50.968C149.342 50.968 147.834 51.6422 146.56 52.9907C145.287 54.3392 144.645 55.9023 144.645 57.6594C144.645 59.6515 145.226 61.286 146.387 62.5835C147.549 63.8809 149.108 64.5245 151.084 64.5245C154.274 64.5245 156.342 63.0125 157.279 59.9886H149.301Z" fill="#D9D9D9"/>
</svg>
