<svg width="160" height="80" viewBox="0 0 160 80" fill="none" xmlns="http://www.w3.org/2000/svg">
<g clip-path="url(#clip0)">
<path d="M106.284 28.4134C105.902 20.6532 106.086 14.6193 99.7859 6.87436C99.7859 6.87436 93.792 0.382095 83.8073 0.0460244C79.6788 -0.0914589 76.6666 0.0613003 74.266 0.443198L80.7186 11.7474H77.5076L82.4464 18.0869L80.0764 19.1256L87.477 29.2994C88.6391 28.7189 90.0305 28.3676 91.7278 28.4134C98.6391 28.5662 100.015 34.1419 100.138 34.5543C100.26 34.9515 101.33 39.351 100.275 45.5224C102.263 45.5224 103.425 45.5224 103.425 45.5224C103.425 45.5224 106.667 36.1583 106.284 28.4134ZM92.9816 20.088C91.8807 20.088 90.9938 19.202 90.9938 18.1022C90.9938 17.0023 91.8807 16.1163 92.9816 16.1163C94.0825 16.1163 94.9693 17.0023 94.9693 18.1022C94.9693 19.202 94.0825 20.088 92.9816 20.088Z" fill="url(#paint0_linear)"/>
<path d="M79.4495 17.6746L72.5687 10.2657L77.0794 10.0671L69.4801 1.7876C68.3027 2.27643 67.2018 2.85691 66.0397 3.52905C61.6819 6.01903 56.5596 10.8157 54.526 15.1846C52.4923 19.5688 51.3914 24.5029 51.2691 28.3983C51.1468 32.2936 51.6819 35.2266 51.2385 37.1055C50.8104 38.9845 49.7553 40.8023 48.8226 41.7189C48.8226 41.7189 50.8868 40.8023 52.0642 38.0068C52.0642 38.0068 53.5168 43.3992 54.6636 45.5226C55.0917 45.5226 60.2599 45.5226 67.0642 45.5226L67.2324 43.1395L66.4984 43.6436C66.4984 43.6436 67.0489 39.1067 67.0489 39.0761C67.0489 39.0456 66.0856 39.8094 66.0856 39.8094C66.1162 36.8306 67.2782 32.4922 67.3394 32.1714C67.3394 32.1561 67.3394 32.1561 67.3394 32.1561V32.1714C67.3088 32.5075 66.9418 37.6249 66.9418 37.6249L68.1651 36.6014L67.737 41.1231L68.8532 40.2371L68.6544 45.5378C73.1192 45.5378 78.1651 45.5378 82.9816 45.5378C82.7064 44.5602 81.896 41.23 82.2935 38.0985C82.6299 35.5016 83.7155 31.7131 86.7125 29.7425L75.5045 18.4842L79.4495 17.6746Z" fill="url(#paint1_linear)"/>
<path d="M42.5382 52.8395V49.0205H30V52.8395V54.0157V57.8347V58.9957V62.8147H35H42.5382V58.9957H35V57.8347H42.5382V54.0157H35V52.8395H42.5382Z" fill="#898989"/>
<path d="M96.8348 49.0205H84.2966V52.8395H88.0733V62.8147H93.0733V52.8395H96.8348V49.0205Z" fill="#898989"/>
<path d="M116.529 49.0205H111.529V62.8147H116.529V49.0205Z" fill="#898989"/>
<path d="M116.529 44.1782H111.529V47.9972H116.529V44.1782Z" fill="#898989"/>
<path d="M69.6941 52.8395V49.0205H57.1559V52.8395V54.0157V57.8347V58.9957V62.8147H62.1406H69.6941V58.9957H62.1406V57.8347H69.6941V54.0157H62.1406V52.8395H69.6941Z" fill="#898989"/>
<path d="M50.8562 56.521V58.9957H48.6391V49.0205H43.6391V58.9957V62.8147H48.6391H50.8562H56.0397V58.9957V56.521H50.8562Z" fill="#898989"/>
<path d="M78.0886 49.0205H70.7339V52.8395V58.9957V62.8147H75.7186H78.0886H83.2721V58.9957V56.521H78.0886V58.9957H75.7186V52.8395H78.0886V55.3295H83.2721V52.8395V49.0205H78.0886Z" fill="#898989"/>
<path d="M105.229 49.0205H97.8745V52.8395V62.8147H102.875V57.8042H105.229V66.4809L110.413 62.8147V57.8042L107.875 55.9558L110.413 53.9852V52.8395V49.0205H105.229ZM105.229 53.9852H102.859V52.8395H105.229V53.9852Z" fill="#898989"/>
<path d="M125 49.0205H117.63V52.8395V58.9957V62.8147H122.63H125H130.168V58.9957V56.521H125V58.9957H122.63V52.8395H125V55.3295H130.168V52.8395V49.0205H125Z" fill="#898989"/>
<path d="M48.792 69.567V66.6646H39.2508V69.567V70.4683V73.3707V74.2567V77.1744H43.0581H48.792V74.2567H43.0581V73.3707H48.792V70.4683H43.0581V69.567H48.792Z" fill="url(#paint2_linear)"/>
<path d="M122.217 66.6646H112.676V69.567H115.55V77.1744H119.358V69.567H122.217V66.6646Z" fill="url(#paint3_linear)"/>
<path d="M69.7706 69.567V66.6646H60.2293V69.567V70.4683V73.3707V74.2567V77.1744H64.0366H69.7706V74.2567H64.0366V73.3707H69.7706V70.4683H64.0366V69.567H69.7706Z" fill="url(#paint4_linear)"/>
<path d="M91.6972 66.6646V69.567V70.453V73.3554V77.1591H95.5045V73.3554H97.4464V77.1591H101.254V73.3554V70.453V69.567V66.6646H91.6972ZM97.4464 70.4683H95.5045V69.5823H97.4464V70.4683Z" fill="url(#paint5_linear)"/>
<path d="M86.9571 66.6644V70.4681H85.0152V63.8384L81.2079 66.6644V70.4681V73.3706V77.1743H85.0152V73.3706H86.9571V80.0003L90.7492 77.1743V73.3706V70.4681V66.6644H86.9571Z" fill="url(#paint6_linear)"/>
<path d="M70.7186 66.6644V69.5669V70.4529V73.3553V77.159H74.526V73.3553H80.2599V73.34V70.4376V69.5516V66.6492H70.7186V66.6644ZM76.4679 70.4681H74.526V69.5821H76.4679V70.4681Z" fill="url(#paint7_linear)"/>
<path d="M55.4893 72.2555V74.2567H53.5474V66.6646H49.7401V74.2567V77.1744H53.5474H55.4893H59.2813V74.2567V72.2555H55.4893Z" fill="url(#paint8_linear)"/>
<path d="M107.936 66.6644V69.4599L102.186 63.8384V69.5363V77.1742H105.994V73.2789L110.183 77.4187L111.728 79.0532V78.9462V73.172V66.6644H107.936Z" fill="url(#paint9_linear)"/>
</g>
<defs>
<linearGradient id="paint0_linear" x1="111.564" y1="35.2962" x2="66.5667" y2="-0.5677" gradientUnits="userSpaceOnUse">
<stop stop-color="#FF007C"/>
<stop offset="0.5" stop-color="#FC6437"/>
<stop offset="1" stop-color="#FAB002"/>
</linearGradient>
<linearGradient id="paint1_linear" x1="97.7989" y1="52.5091" x2="52.8017" y2="16.6452" gradientUnits="userSpaceOnUse">
<stop stop-color="#FF007C"/>
<stop offset="0.5" stop-color="#FC6437"/>
<stop offset="1" stop-color="#FAB002"/>
</linearGradient>
<linearGradient id="paint2_linear" x1="44.0234" y1="76.8248" x2="44.0234" y2="66.537" gradientUnits="userSpaceOnUse">
<stop stop-color="#FF007C"/>
<stop offset="0.5" stop-color="#FC6437"/>
<stop offset="1" stop-color="#FAB002"/>
</linearGradient>
<linearGradient id="paint3_linear" x1="117.452" y1="76.8248" x2="117.452" y2="66.537" gradientUnits="userSpaceOnUse">
<stop stop-color="#FF007C"/>
<stop offset="0.5" stop-color="#FC6437"/>
<stop offset="1" stop-color="#FAB002"/>
</linearGradient>
<linearGradient id="paint4_linear" x1="65.0031" y1="76.8248" x2="65.0031" y2="66.537" gradientUnits="userSpaceOnUse">
<stop stop-color="#FF007C"/>
<stop offset="0.5" stop-color="#FC6437"/>
<stop offset="1" stop-color="#FAB002"/>
</linearGradient>
<linearGradient id="paint5_linear" x1="96.4727" y1="76.8248" x2="96.4727" y2="66.537" gradientUnits="userSpaceOnUse">
<stop stop-color="#FF007C"/>
<stop offset="0.5" stop-color="#FC6437"/>
<stop offset="1" stop-color="#FAB002"/>
</linearGradient>
<linearGradient id="paint6_linear" x1="85.9828" y1="76.8247" x2="85.9828" y2="66.5368" gradientUnits="userSpaceOnUse">
<stop stop-color="#FF007C"/>
<stop offset="0.5" stop-color="#FC6437"/>
<stop offset="1" stop-color="#FAB002"/>
</linearGradient>
<linearGradient id="paint7_linear" x1="75.493" y1="76.8247" x2="75.493" y2="66.5369" gradientUnits="userSpaceOnUse">
<stop stop-color="#FF007C"/>
<stop offset="0.5" stop-color="#FC6437"/>
<stop offset="1" stop-color="#FAB002"/>
</linearGradient>
<linearGradient id="paint8_linear" x1="54.5132" y1="76.8248" x2="54.5132" y2="66.537" gradientUnits="userSpaceOnUse">
<stop stop-color="#FF007C"/>
<stop offset="0.5" stop-color="#FC6437"/>
<stop offset="1" stop-color="#FAB002"/>
</linearGradient>
<linearGradient id="paint9_linear" x1="106.963" y1="76.8246" x2="106.963" y2="66.5368" gradientUnits="userSpaceOnUse">
<stop stop-color="#FF007C"/>
<stop offset="0.5" stop-color="#FC6437"/>
<stop offset="1" stop-color="#FAB002"/>
</linearGradient>
<clipPath id="clip0">
<rect width="160" height="80" fill="white"/>
</clipPath>
</defs>
</svg>
