<svg width="160" height="80" viewBox="0 0 160 80" fill="none" xmlns="http://www.w3.org/2000/svg">
<path d="M53.9455 16.5737V24.5176H24.7293C24.7293 24.5176 23.8488 24.4374 23.2885 25.0793C22.8082 25.641 22.8883 26.4434 22.8883 26.4434V27.5668H53.9455V35.2699H22.8082V36.3131C22.8082 36.3131 22.8082 37.1155 23.2885 37.5167C23.9288 38.0784 24.5692 37.9981 24.5692 37.9981H53.9455V45.9421H20.4069C20.4069 45.9421 16.8849 46.1828 14.6437 43.8558C12.4825 41.5288 12.5625 38.6401 12.5625 38.6401V24.1164C12.5625 24.1164 12.3224 20.9067 14.6437 18.4192C16.4847 16.4132 19.8466 16.4935 19.8466 16.4935L53.9455 16.5737ZM15.6042 68.6504C18.3257 68.6504 19.3663 67.1258 19.3663 65.6814C19.3663 61.8298 13.2829 63.194 13.2829 60.867C13.2829 59.9041 14.1634 59.2621 15.3641 59.2621C16.4847 59.2621 17.5253 59.6633 18.3257 60.4657L19.1262 59.5028C18.2457 58.6202 17.045 58.0585 15.5242 58.0585C13.5231 58.0585 12.0022 59.2621 12.0022 60.9472C12.0022 64.5581 18.0055 63.1137 18.0055 65.7617C18.0055 66.5641 17.4452 67.527 15.6042 67.527C14.4035 67.527 13.2029 66.9653 12.4024 66.0826L11.602 67.0455C12.4825 68.0084 13.8432 68.6504 15.6042 68.6504ZM37.2162 68.4899V59.3424H40.498V58.219H32.7337V59.3424H35.9355V68.4096H37.2162V68.4899ZM58.508 68.6504C61.3096 68.6504 62.6704 67.0455 62.6704 64.4778V58.219H61.3896V64.4778C61.3896 66.3234 60.3491 67.527 58.508 67.527C56.667 67.527 55.6264 66.3234 55.6264 64.4778V58.219H54.3457V64.4778C54.3457 66.9653 55.7865 68.6504 58.508 68.6504ZM80.7604 67.2863H78.5192V59.3424H80.7604C83.3218 59.3424 84.6826 61.1077 84.6826 63.3544C84.6826 65.521 83.2418 67.2863 80.7604 67.2863ZM80.7604 68.4899C83.9622 68.4899 85.9633 66.3234 85.9633 63.3544C85.9633 60.4657 83.8821 58.219 80.7604 58.219H77.2385V68.4096H80.7604V68.4899Z" fill="#2F9CFC"/>
<mask id="mask0" mask-type="alpha" maskUnits="userSpaceOnUse" x="8" y="12" width="144" height="57">
<path d="M8 68.6504H152V12H8V68.6504Z" fill="white"/>
</mask>
<g mask="url(#mask0)">
<path d="M100.291 68.49H101.572V58.2191H100.291V68.49ZM120.783 67.5271C118.461 67.5271 117.021 65.7618 117.021 63.3545C117.021 60.9473 118.461 59.182 120.783 59.182C123.024 59.182 124.545 60.9473 124.545 63.3545C124.545 65.7618 123.104 67.5271 120.783 67.5271ZM120.783 68.6505C123.824 68.6505 125.825 66.4037 125.825 63.3545C125.825 60.3054 123.744 58.0586 120.783 58.0586C117.821 58.0586 115.74 60.3054 115.74 63.3545C115.74 66.4037 117.821 68.6505 120.783 68.6505ZM143.355 68.6505C146.077 68.6505 147.117 67.1259 147.117 65.6815C147.117 61.8299 141.034 63.194 141.034 60.867C141.034 59.9041 141.914 59.2622 143.115 59.2622C144.236 59.2622 145.276 59.6634 146.077 60.4658L146.877 59.5029C145.997 58.6203 144.796 58.0586 143.275 58.0586C141.274 58.0586 139.753 59.2622 139.753 60.9473C139.753 64.5581 145.837 63.1138 145.837 65.7618C145.837 66.5642 145.276 67.5271 143.435 67.5271C142.235 67.5271 141.034 66.9654 140.233 66.0827L139.433 67.0456C140.314 68.0085 141.674 68.6505 143.355 68.6505ZM56.3469 16.5738H66.5926V38.0785H98.1301V46.1026H56.3469V16.5738ZM127.026 16.7343H139.273L121.903 31.0975L139.513 45.9421H126.626L110.057 32.0604V45.9421H100.051V16.7343H110.057L109.977 28.931" fill="#2F9CFC"/>
</g>
<mask id="mask1" mask-type="alpha" maskUnits="userSpaceOnUse" x="8" y="12" width="144" height="57">
<path d="M8 68.6504H152V12H8V68.6504Z" fill="white"/>
</mask>
<g mask="url(#mask1)">
<path d="M112.378 36.8748V48.1889H100.451L56.2669 48.2691H20.487C20.4069 48.2691 20.2469 48.2691 20.0868 48.2691C18.726 48.2691 15.3641 48.0284 12.9628 45.4607C10.3213 42.6522 10.2413 39.2018 10.2413 38.7204V24.2769C10.2413 23.5548 10.1613 19.9439 12.9628 16.975C15.2041 14.4875 18.726 14.327 19.7666 14.327L68.9139 14.2468V35.7515H97.81V14.4072H112.378L112.298 24.4374L126.306 14.4072H145.597L125.505 31.0975L145.837 48.1889H125.906L112.378 36.8748ZM129.027 31.0975L151.84 12.1605H125.585L114.619 20.0241V12.1605H95.4887V33.4245H71.1551V12L19.7666 12.0802C18.4859 12.0802 14.1635 12.321 11.2819 15.4504C8.0801 18.981 7.92001 23.0733 8.00005 24.3572V38.7204C8.00005 39.5228 8.16014 43.6954 11.3619 47.0655C14.4036 50.2751 18.4859 50.5961 20.0868 50.5961H58.5081L102.693 50.5159H114.619V41.7696L125.025 50.5159H152C152 50.4356 129.027 31.0975 129.027 31.0975Z" fill="#2F9CFC"/>
</g>
<mask id="mask2" mask-type="alpha" maskUnits="userSpaceOnUse" x="8" y="12" width="144" height="57">
<path d="M8 68.6504H152V12H8V68.6504Z" fill="white"/>
</mask>
<g mask="url(#mask2)">
<path d="M53.9455 16.5737V24.5176H24.7293C24.7293 24.5176 23.8488 24.4374 23.2885 25.0793C22.8082 25.641 22.8883 26.4434 22.8883 26.4434V27.5668H53.9455V35.2699H22.8082V36.3131C22.8082 36.3131 22.8082 37.1155 23.2885 37.5167C23.9289 38.0784 24.5692 37.9981 24.5692 37.9981H53.9455V45.9421H20.4069C20.4069 45.9421 16.8849 46.1828 14.6437 43.8558C12.4825 41.5288 12.5625 38.6401 12.5625 38.6401V24.1164C12.5625 24.1164 12.3224 20.9067 14.6437 18.4192C16.4847 16.4132 19.8466 16.4935 19.8466 16.4935L53.9455 16.5737ZM56.3469 16.5737H66.5926V38.0784H98.1301V46.1025H56.3469V16.5737ZM127.026 16.7342H139.273L121.903 31.0974L139.513 45.9421H126.626L110.057 32.0603V45.9421H100.051V16.7342H110.057L109.977 28.9309L127.026 16.7342Z" fill="#2F9CFC"/>
</g>
</svg>
