<svg width="160" height="80" viewBox="0 0 160 80" fill="none" xmlns="http://www.w3.org/2000/svg">
<path d="M13.1459 26.9935L30.0314 34.7806C29.6345 34.5176 21.6053 29.1648 19.1259 24.9341C16.5834 20.5958 16.765 17.3869 18.9183 14.2808C21.0716 11.1746 26.3901 9.22368 34.4845 9.73708C42.5789 10.2505 51.484 12.6827 58.1612 18.6287C58.1612 18.6287 52.4635 8.60747 37.9609 5.8094C23.4584 3.01133 12.3027 8.65884 5.86867 14.4604C4.16297 15.9984 3.28711 17.4661 2.99847 18.8653C3.12898 23.132 13.1459 26.9935 13.1459 26.9935Z" fill="url(#paint0_linear)"/>
<path d="M29.9977 34.8495L13.1144 27.0635C13.0224 27.0278 10.5431 26.059 8.08024 24.5946C4.71102 22.5913 2.97487 20.6642 2.91992 18.8668L2.91962 18.8578L2.92144 18.849C3.23033 17.3516 4.20405 15.8557 5.81547 14.4027C8.41368 12.0598 12.7865 8.84539 18.8637 6.83616C24.9351 4.82889 31.3651 4.45763 37.9751 5.73299C45.4839 7.18174 50.5897 10.5987 53.5506 13.21C56.7603 16.0409 58.214 18.5649 58.2283 18.5901L58.4607 18.9988L58.1084 18.6851C50.7401 12.1237 41.1915 10.2389 34.4787 9.81312C26.9486 9.33544 21.2999 10.9795 18.9817 14.3235C16.7389 17.5588 16.8039 20.819 19.1924 24.8946C21.6655 29.1145 29.7318 34.489 30.074 34.7157L29.9977 34.8495ZM3.07574 18.8711C3.21741 23.0351 13.0737 26.8825 13.1734 26.9209L13.178 26.9229L29.2212 34.3215C27.0819 32.8359 21.1302 28.5081 19.0577 24.9719C17.7992 22.8245 17.1858 20.9184 17.1826 19.1447C17.1794 17.4682 17.7259 15.8627 18.8534 14.2364C21.2033 10.8464 26.903 9.17792 34.4887 9.65939C41.1052 10.079 50.4678 11.9121 57.812 18.2203C57.2522 17.3754 55.8405 15.4349 53.4417 13.3204C50.496 10.7236 45.4163 7.32561 37.9453 5.88415C21.2534 2.66364 9.98869 10.8482 5.92036 14.5165C4.33699 15.9442 3.37999 17.4092 3.07574 18.8711Z" fill="url(#paint1_linear)"/>
<path d="M18.9184 65.7599C16.7651 62.6537 16.5834 59.445 19.1259 55.1067C21.6684 50.7683 30.0482 45.2491 30.0482 45.2491L13.1459 53.0439C13.1459 53.0439 3.12494 56.907 2.99835 61.1747C3.28684 62.5742 4.16278 64.042 5.86874 65.5803C12.3028 71.3819 23.4585 77.0294 37.961 74.2314C52.4635 71.4332 58.1613 61.4121 58.1613 61.4121C51.484 67.3581 42.579 69.7903 34.4846 70.3036C26.3902 70.817 21.0717 68.8661 18.9184 65.7599Z" fill="url(#paint2_linear)"/>
<path d="M30.3777 75.0085C26.4367 75.0086 22.5893 74.3935 18.876 73.1658C12.8052 71.1588 8.43707 67.9478 5.84167 65.6074C4.23611 64.1597 3.26634 62.6704 2.95935 61.181L2.95844 61.1767L2.95859 61.1722C3.02448 58.9503 5.79021 56.8474 8.09869 55.4745C10.5938 53.9908 13.1059 53.0163 13.1309 53.0067L30.0309 45.2129L30.0689 45.2798C29.9851 45.3349 21.6675 50.8438 19.1587 55.1247C16.7617 59.2147 16.6972 62.4876 18.9496 65.7368C21.2757 69.0923 26.9365 70.7422 34.4812 70.2638C41.2001 69.8377 50.7578 67.9509 58.1344 61.382L58.3106 61.2252L58.1943 61.4296C58.1801 61.4547 56.7297 63.9732 53.5247 66.7998C50.5674 69.4079 45.4678 72.8207 37.9676 74.2679C35.4072 74.7618 32.8736 75.0085 30.3777 75.0085ZM3.03657 61.17C3.34113 62.6416 4.30254 64.1154 5.89411 65.5505C9.96663 69.2228 21.243 77.4162 37.9527 74.1922C45.434 72.7488 50.5206 69.3455 53.4702 66.7446C56.1223 64.4062 57.5692 62.2804 57.9932 61.6099C50.6268 68.0561 41.1591 69.9175 34.4862 70.3407C26.914 70.821 21.2274 69.1587 18.8855 65.7804C17.7626 64.1606 17.2183 62.5623 17.2215 60.8939C17.2247 59.1272 17.8364 57.2274 19.0914 55.086C21.2929 51.3295 27.9393 46.6388 29.6311 45.4822L13.1615 53.0775C13.0593 53.117 3.16799 56.9783 3.03657 61.17Z" fill="#00A14B"/>
<path d="M13.1451 53.0426L30.0473 45.2478C30.0473 45.2478 34.8469 42.7064 34.8469 40.1907C34.8469 40.1331 34.8447 40.0761 34.8414 40.0193C34.8447 39.9625 34.8469 39.9054 34.8469 39.8479C34.8469 37.3322 30.0473 34.7908 30.0473 34.7908C30.0473 34.7908 30.0407 34.7864 30.0306 34.7798L13.1451 26.9927C13.1451 26.9927 3.12819 23.1312 2.99769 18.8645C2.19757 22.7432 5.91151 26.096 8.98112 28.9635C13.0828 32.7952 14.9065 36.6017 14.8727 40.0193C14.9065 43.4368 13.0828 47.2434 8.98112 51.075C5.9117 53.9424 2.19802 57.2949 2.99749 61.1733C3.12409 56.9057 13.1451 53.0426 13.1451 53.0426Z" fill="url(#paint3_linear)"/>
<path d="M3.05558 61.8404L2.92127 61.1888C2.13217 57.361 5.62498 54.1013 8.70667 51.2254L8.9277 51.019C12.8014 47.4003 14.8302 43.597 14.7948 40.02C14.8302 36.4416 12.8014 32.6382 8.9277 29.0195L8.70637 28.8129C5.62468 25.9368 2.13179 22.677 2.92143 18.849L3.0552 18.2004L3.07549 18.8621C3.20288 23.0292 13.0736 26.8825 13.1734 26.9209L30.0689 34.7124L30.0874 34.7247C30.3297 34.8533 34.9248 37.3283 34.9248 39.8479C34.9248 39.9054 34.9226 39.9624 34.9194 40.0193C34.9226 40.0761 34.9248 40.1331 34.9248 40.1907C34.9248 42.7234 30.2817 45.211 30.084 45.3157L13.1734 53.1143C13.0736 53.1528 3.19893 57.0076 3.07534 61.1756L3.05558 61.8404ZM2.99036 19.4264C2.63975 22.9391 5.91062 25.992 8.81323 28.7008L9.03456 28.9075C12.9406 32.5564 14.9863 36.399 14.9505 40.02C14.9863 43.6395 12.9406 47.4822 9.03456 51.131L8.81346 51.3374C5.9113 54.0458 2.64096 57.0977 2.99006 60.6096C3.34919 58.9741 5.05698 57.2385 8.07863 55.4416C10.5428 53.9762 13.0238 53.0069 13.1144 52.9717L30.0144 45.178C30.0581 45.1546 34.7691 42.6314 34.7691 40.1907C34.7691 40.1346 34.7669 40.079 34.7637 40.0236L34.7634 40.0193L34.7637 40.0149C34.7669 39.9595 34.7691 39.9039 34.7691 39.8479C34.7691 37.4071 30.0581 34.8839 30.0106 34.8587L29.9923 34.8471L13.1122 27.0625C13.0917 27.0548 10.5776 26.0795 8.08022 24.5946C5.05813 22.7977 3.34995 21.062 2.99036 19.4264Z" fill="url(#paint4_linear)"/>
<path d="M34.0037 40.1876C34.0037 42.3073 29.8228 44.9438 28.89 44.9438C26.7006 44.9438 30.0732 42.5528 30.0992 40.0193C30.1192 38.0605 24.9782 34.6684 27.3232 34.6684C28.2561 34.6684 34.0037 38.0716 34.0037 40.1876Z" fill="url(#paint5_linear)"/>
<path d="M44.3376 41.7075C44.3376 42.1063 44.539 42.4053 44.942 42.6046C45.3448 42.8042 45.8551 42.907 46.4727 42.9133C47.0899 42.9199 47.6943 42.894 48.286 42.8361C48.8774 42.7782 49.4364 42.7107 49.9628 42.6335C50.4893 42.5564 50.7915 42.5178 50.8695 42.5178C50.9213 43.6368 50.6971 44.4278 50.1968 44.8908C49.6963 45.3539 48.6921 45.5854 47.1843 45.5854C45.1044 45.5854 43.5771 45.1676 42.6023 44.3313C41.6273 43.4954 41.1399 42.0484 41.1399 39.9904C41.1399 38.9615 41.273 38.09 41.5395 37.3762C41.8059 36.6623 42.1958 36.1191 42.7095 35.7459C43.2229 35.373 43.7946 35.1092 44.4254 34.9548C45.0557 34.8005 45.7932 34.7234 46.6384 34.7234C48.25 34.7234 49.4364 35.061 50.1968 35.7362C50.9573 36.4115 51.3375 37.4889 51.3375 38.9678C51.3375 39.534 51.2269 39.9874 51.006 40.328C50.7848 40.669 50.4957 40.8972 50.1383 41.0129C49.7806 41.1287 49.3517 41.2125 48.8514 41.2637C48.3509 41.3153 47.8571 41.3313 47.3695 41.312C46.8821 41.2927 46.3557 41.3153 45.7902 41.3795C45.2248 41.444 44.7403 41.5531 44.3376 41.7075ZM44.2401 39.6817C44.461 39.5273 44.8217 39.4245 45.3222 39.373C45.8225 39.3217 46.2905 39.2928 46.7262 39.2862C47.1615 39.2798 47.5481 39.1897 47.8863 39.0161C48.2242 38.8424 48.3865 38.5693 48.3737 38.1961C48.3737 37.8618 48.1072 37.5854 47.5743 37.3665C46.8334 37.0578 46.1119 37.0322 45.41 37.2893C44.4351 37.6366 44.0451 38.4343 44.2401 39.6817Z" fill="white"/>
<path d="M63.8941 38.3891V45.4118C63.4389 45.4374 63.0489 45.4341 62.7242 45.4022C62.3991 45.3702 62.0905 45.296 61.798 45.1803C61.5056 45.0645 61.2911 44.8749 61.1546 44.6111C61.0181 44.3477 60.9563 44.0164 60.9693 43.6175V39.4502V39.4116V38.447C60.7744 37.5082 59.8902 37.135 58.3175 37.3279C57.4986 37.4311 57.024 37.5082 56.8942 37.5595C56.9332 37.7783 56.9527 38.0355 56.9527 38.3312V43.6175C56.9655 44.0164 56.9005 44.3477 56.7577 44.6111C56.6145 44.8749 56.4 45.0645 56.1143 45.1803C55.8282 45.296 55.5226 45.3702 55.1978 45.4022C54.8728 45.4341 54.4828 45.4374 54.028 45.4118V36.016C54.028 35.1801 55.3861 34.73 58.103 34.6655C61.9507 34.5627 63.881 35.8038 63.8941 38.3891Z" fill="white"/>
<path d="M74.0913 30.5367C74.2863 30.6784 74.53 30.7682 74.8225 30.8068C75.115 30.8454 75.3813 30.8647 75.6219 30.8647C75.8623 30.8647 76.0929 30.9003 76.3141 30.9708C76.535 31.0417 76.7071 31.212 76.8308 31.4821C76.9542 31.7522 77.016 32.1447 77.016 32.659V44.0419C77.003 44.0549 76.9411 44.1288 76.8308 44.2638C76.7202 44.3989 76.6194 44.5083 76.5286 44.5918C76.4375 44.6756 76.2684 44.7847 76.0216 44.9198C75.7745 45.0548 75.5016 45.1609 75.2027 45.2381C74.9035 45.3153 74.5007 45.3862 73.9939 45.4503C73.4869 45.5146 72.9147 45.5468 72.278 45.5468C70.2761 45.5468 68.8395 45.1194 67.9688 44.2638C67.0978 43.4086 66.6625 41.9842 66.6625 39.9904C66.6625 39.2187 66.7663 38.5274 66.9744 37.9164C67.1822 37.3056 67.4585 36.807 67.8031 36.4212C68.1473 36.0353 68.5537 35.7139 69.0217 35.4565C69.4897 35.1993 69.9641 35.0194 70.4451 34.9163C70.9258 34.8135 71.4264 34.7619 71.9465 34.7619C72.9473 34.7619 73.6623 34.9163 74.0913 35.2249V30.5367ZM74.0913 40.1833V37.4437C73.9223 37.3925 73.737 37.3472 73.5356 37.3086C73.3339 37.2701 73.0838 37.2411 72.7849 37.2218C72.4857 37.2025 72.203 37.2058 71.9367 37.2315C71.6702 37.2574 71.3938 37.3345 71.108 37.463C70.822 37.5917 70.5749 37.762 70.3671 37.9743C70.159 38.1865 69.99 38.4825 69.8601 38.8617C69.7301 39.2413 69.6652 39.6883 69.6652 40.2026C69.6652 40.6916 69.7432 41.116 69.8991 41.476C70.0552 41.8362 70.2468 42.1126 70.4744 42.3056C70.7016 42.4985 70.9813 42.6432 71.3128 42.7397C71.6443 42.8361 71.9431 42.894 72.2097 42.9133C72.476 42.9326 72.7654 42.9263 73.0774 42.894C73.3894 42.8621 73.6069 42.8331 73.7306 42.8072C73.854 42.7816 73.9676 42.7559 74.0718 42.73H74.0913C74.1041 42.73 74.1041 41.8811 74.0913 40.1833Z" fill="white"/>
<path d="M79.7847 40.0676C79.7716 39.9904 79.7618 39.8876 79.7554 39.7589C79.7487 39.6305 79.7683 39.3796 79.814 39.0064C79.8593 38.6335 79.934 38.2766 80.0382 37.9357C80.1421 37.595 80.324 37.2188 80.5841 36.807C80.844 36.3955 81.1657 36.0419 81.5493 35.7459C81.9326 35.4502 82.4493 35.2027 83.0994 35.0031C83.7493 34.8038 84.4902 34.7041 85.3222 34.7041C85.9072 34.7041 86.4465 34.7493 86.9406 34.8391C87.4345 34.9292 87.86 35.0513 88.2177 35.2057C88.5751 35.36 88.8935 35.553 89.1731 35.7845C89.4525 36.016 89.6831 36.2445 89.8653 36.4694C90.0472 36.6946 90.1999 36.9614 90.3235 37.2701C90.4469 37.5787 90.5411 37.8458 90.6063 38.0707C90.6712 38.2959 90.7166 38.5597 90.7428 38.8617C90.7686 39.1641 90.7848 39.3923 90.7915 39.5466C90.7979 39.701 90.7979 39.8972 90.7915 40.1351C90.7848 40.3732 90.7818 40.505 90.7818 40.5306C90.7818 40.7365 90.775 40.9231 90.7623 41.0901C90.7492 41.2574 90.7102 41.5212 90.6453 41.8811C90.5801 42.2413 90.4893 42.563 90.3723 42.8458C90.2553 43.1288 90.0701 43.4375 89.8166 43.7718C89.5631 44.1065 89.2639 44.3862 88.9197 44.6111C88.5751 44.8363 88.1266 45.0259 87.5743 45.1802C87.0216 45.3346 86.401 45.4118 85.7122 45.4118C84.9972 45.4118 84.3601 45.3669 83.8013 45.2767C83.2423 45.1869 82.768 45.0678 82.378 44.9198C81.988 44.7721 81.6468 44.5695 81.3543 44.3121C81.0618 44.0549 80.8245 43.7911 80.6427 43.521C80.4605 43.2509 80.3111 42.9166 80.1941 42.5178C80.0772 42.1193 79.9895 41.7364 79.9309 41.3698C79.8724 41.0033 79.8237 40.5692 79.7847 40.0676ZM82.69 40.2412C82.729 40.6916 82.7841 41.0485 82.8557 41.312C82.927 41.5757 83.0571 41.8362 83.2457 42.0933C83.4339 42.3508 83.7167 42.5371 84.0938 42.6528C84.4707 42.7686 84.9518 42.8265 85.5367 42.8265C85.9915 42.8265 86.3815 42.7559 86.7066 42.6143C87.0314 42.4729 87.272 42.3122 87.4281 42.1319C87.584 41.9519 87.7074 41.7334 87.7985 41.476C87.8893 41.2188 87.9414 41.0259 87.9545 40.8972C87.9673 40.7688 87.974 40.6271 87.974 40.4727C87.974 40.4601 87.974 40.3925 87.974 40.2701C87.974 40.148 87.974 40.0453 87.974 39.9614C87.974 39.8779 87.9673 39.7525 87.9545 39.5852C87.9414 39.4182 87.9185 39.2735 87.8862 39.1511C87.8536 39.029 87.8083 38.8843 87.7497 38.717C87.6913 38.55 87.6197 38.4053 87.5353 38.2829C87.4506 38.1608 87.3403 38.0354 87.2038 37.9067C87.0673 37.7783 86.9144 37.6722 86.7456 37.5884C86.5765 37.5049 86.3718 37.4374 86.1314 37.3858C85.8907 37.3345 85.6275 37.3086 85.3417 37.3086C84.8217 37.3086 84.3796 37.3795 84.0158 37.5209C83.6518 37.6626 83.3852 37.8265 83.2164 38.0128C83.0474 38.1994 82.9172 38.4439 82.8264 38.746C82.7353 39.0483 82.6866 39.2832 82.6802 39.4502C82.6735 39.6175 82.6768 39.8297 82.69 40.0869C82.69 40.164 82.69 40.2156 82.69 40.2412Z" fill="white"/>
<path d="M100.706 34.7041C100.693 34.73 100.697 34.865 100.716 35.1092C100.736 35.3537 100.732 35.5885 100.706 35.8134C100.68 36.0386 100.628 36.2798 100.55 36.5369C100.472 36.7943 100.313 36.9999 100.073 37.1543C99.8319 37.3086 99.5233 37.3858 99.1465 37.3858C98.6005 37.3858 98.1779 37.4051 97.8791 37.4437C97.5799 37.4823 97.3136 37.5787 97.0796 37.7331C96.8456 37.8874 96.6896 38.1063 96.6117 38.3891C96.5337 38.6721 96.4947 39.058 96.4947 39.5466V45.7205C96.2607 45.5532 95.9518 45.4214 95.5685 45.3249C95.1849 45.2285 94.8599 45.1546 94.5936 45.1031C94.327 45.0518 94.0897 44.9005 93.8819 44.6497C93.6738 44.3989 93.5699 44.0356 93.5699 43.5596V38.3891C93.5699 38.3119 93.573 38.2058 93.5797 38.0707C93.5861 37.9357 93.6089 37.7493 93.6479 37.5112C93.6869 37.2734 93.7518 37.0355 93.8429 36.7974C93.9337 36.5595 94.0701 36.312 94.2523 36.0546C94.4342 35.7974 94.6551 35.5723 94.9153 35.3793C95.1752 35.1864 95.51 35.0257 95.9195 34.897C96.3289 34.7686 96.7872 34.7041 97.2941 34.7041C98.1648 34.7041 98.8082 34.7041 99.2245 34.7041C99.6403 34.7041 99.8679 34.7041 99.9068 34.7041C99.9458 34.7041 100.02 34.7041 100.131 34.7041C100.241 34.7041 100.433 34.7041 100.706 34.7041Z" fill="white"/>
<path d="M106.01 49.6756C105.776 49.5083 105.467 49.4085 105.083 49.3765C104.7 49.3443 104.375 49.3283 104.109 49.3283C103.842 49.3283 103.605 49.19 103.397 48.9135C103.189 48.6367 103.085 48.1834 103.085 47.5533V36.1704C103.098 36.1577 103.16 36.0835 103.27 35.9485C103.38 35.8134 103.481 35.7073 103.572 35.6301C103.663 35.553 103.832 35.4439 104.079 35.3022C104.326 35.1608 104.599 35.0514 104.898 34.9742C105.197 34.897 105.6 34.8264 106.107 34.762C106.614 34.6977 107.186 34.6655 107.823 34.6655C109.825 34.6655 111.261 35.0932 112.132 35.9485C113.003 36.804 113.439 38.2284 113.439 40.2219C113.439 41.1866 113.283 42.0228 112.971 42.73C112.659 43.4376 112.239 43.9811 111.713 44.3603C111.187 44.7399 110.627 45.0163 110.036 45.1899C109.444 45.3635 108.817 45.4504 108.155 45.4504C107.258 45.4504 106.543 45.3605 106.01 45.1803V49.6756ZM106.01 40.029V42.7686C106.218 42.8331 106.442 42.8844 106.682 42.923C106.923 42.9615 107.225 42.9938 107.589 43.0194C107.953 43.0454 108.291 43.0068 108.603 42.9037C108.915 42.8009 109.214 42.6529 109.5 42.4599C109.786 42.267 110.013 41.9583 110.182 41.5339C110.351 41.1094 110.436 40.6014 110.436 40.0097C110.436 39.5211 110.354 39.0966 110.192 38.7363C110.029 38.3764 109.841 38.0997 109.627 37.9067C109.412 37.7138 109.129 37.5691 108.778 37.4726C108.427 37.3762 108.135 37.3183 107.901 37.299C107.667 37.2797 107.375 37.2894 107.024 37.3279C106.673 37.3665 106.458 37.3925 106.38 37.4051C106.302 37.4181 106.185 37.4437 106.029 37.4823H106.01C105.997 37.4823 105.997 38.3312 106.01 40.029Z" fill="white"/>
<path d="M119.112 35.0706C119.749 34.8135 120.815 34.6847 122.31 34.6847C123.038 34.6847 123.662 34.8071 124.182 35.0513C124.702 35.2958 125.079 35.5756 125.313 35.8906C125.547 36.2059 125.725 36.5659 125.849 36.971C125.972 37.3762 126.041 37.6785 126.054 37.8778C126.067 38.0774 126.067 38.2477 126.054 38.3891V45.4118C124.104 45.6689 123.129 45.0711 123.129 43.6175C123.129 43.0773 123.129 42.3701 123.129 41.4953C123.142 39.5789 123.051 38.4117 122.856 37.9935C122.661 37.5757 122.05 37.3538 121.023 37.3279C120.386 37.3279 119.749 37.4437 119.112 37.6752V43.6175C119.138 44.3892 118.895 44.8942 118.381 45.132C117.868 45.3702 117.136 45.463 116.188 45.4118V30.3631C116.422 30.5304 116.73 30.6302 117.114 30.6622C117.497 30.6944 117.822 30.7104 118.089 30.7104C118.355 30.7104 118.592 30.8487 118.8 31.1252C119.008 31.4019 119.112 31.8553 119.112 32.4854V35.0706Z" fill="white"/>
<path d="M129.31 33.6044C129.011 33.2956 128.861 32.9291 128.861 32.5047C128.861 32.0802 129.014 31.7169 129.319 31.4146C129.625 31.1125 129.992 30.9612 130.421 30.9612C130.85 30.9612 131.217 31.1125 131.523 31.4146C131.828 31.7169 131.981 32.0802 131.981 32.5047C131.981 32.9291 131.828 33.2926 131.523 33.5947C131.217 33.8971 130.85 34.0481 130.421 34.0481C129.992 34.0481 129.622 33.9004 129.31 33.6044ZM131.864 36.6334C131.864 36.0034 131.76 35.5499 131.552 35.2732C131.344 34.9968 131.107 34.8584 130.84 34.8584C130.574 34.8584 130.249 34.8424 129.865 34.8102C129.482 34.7782 129.173 34.6784 128.939 34.5111V45.4118C129.888 45.463 130.619 45.3702 131.133 45.132C131.646 44.8942 131.89 44.3892 131.864 43.6175V36.6334Z" fill="white"/>
<path d="M144.616 38.3891V45.4118C144.16 45.4374 143.77 45.4341 143.446 45.4022C143.121 45.3702 142.812 45.296 142.52 45.1803C142.227 45.0645 142.013 44.8749 141.876 44.6111C141.74 44.3477 141.678 44.0164 141.691 43.6175V39.4502V39.4116V38.447C141.496 37.5082 140.612 37.135 139.039 37.3279C138.22 37.4311 137.746 37.5082 137.616 37.5595C137.655 37.7783 137.674 38.0355 137.674 38.3312V43.6175C137.687 44.0164 137.622 44.3477 137.479 44.6111C137.336 44.8749 137.122 45.0645 136.836 45.1803C136.55 45.296 136.244 45.3702 135.919 45.4022C135.594 45.4341 135.204 45.4374 134.75 45.4118V36.016C134.75 35.1801 136.108 34.73 138.825 34.6655C142.672 34.5627 144.603 35.8038 144.616 38.3891Z" fill="white"/>
<path d="M148.164 37.4051C148.164 37.3665 148.157 37.3153 148.145 37.2508C148.132 37.1865 148.128 37.0611 148.135 36.8746C148.141 36.6883 148.161 36.5113 148.193 36.344C148.226 36.177 148.291 35.9871 148.388 35.7748C148.486 35.5626 148.616 35.3826 148.778 35.2346C148.941 35.0869 149.162 34.9615 149.441 34.8584C149.721 34.7556 150.049 34.7041 150.426 34.7041C150.543 34.7041 150.725 34.7041 150.972 34.7041C151.31 34.6914 151.657 34.6914 152.015 34.7041C152.372 34.717 152.73 34.733 153.087 34.7523C153.445 34.7716 153.792 34.8264 154.131 34.9163C154.468 35.0064 154.79 35.1158 155.096 35.2443C155.401 35.373 155.681 35.5563 155.934 35.7941C156.188 36.0323 156.409 36.3054 156.597 36.6141C156.785 36.9228 156.932 37.3023 157.036 37.7524C157.14 38.2027 157.192 38.7107 157.192 39.2765V39.4116V39.5467V39.701V39.8361V39.9904V40.1447V40.3184V40.5113V40.7042V40.9358V41.2445V41.3988C157.192 41.9264 157.133 42.4053 157.016 42.8361C156.899 43.2672 156.753 43.6175 156.578 43.8876C156.402 44.1577 156.184 44.3959 155.924 44.6015C155.664 44.8074 155.42 44.9584 155.193 45.0548C154.966 45.1513 154.702 45.2285 154.404 45.2864C154.104 45.3442 153.874 45.3798 153.711 45.3925C153.549 45.4055 153.357 45.4118 153.136 45.4118H150.445C150.406 45.4118 150.348 45.4088 150.27 45.4022C150.192 45.3958 150.046 45.3765 149.831 45.3442C149.617 45.3123 149.412 45.2641 149.217 45.1995C149.022 45.1354 148.804 45.0292 148.564 44.8812C148.323 44.7335 148.118 44.5599 147.95 44.3603C147.781 44.1611 147.638 43.9006 147.521 43.5789C147.404 43.2576 147.345 42.8973 147.345 42.4985C147.345 41.7913 147.436 41.1962 147.618 40.7139C147.8 40.2316 148.076 39.8587 148.447 39.5949C148.817 39.3314 149.23 39.1481 149.685 39.045C150.14 38.9422 150.692 38.8907 151.342 38.8907C152.473 38.8907 153.243 38.8168 153.653 38.6688C154.062 38.5211 154.267 38.2926 154.267 37.9839C154.267 37.5468 153.841 37.2508 152.99 37.0964C152.138 36.9421 151.235 36.9101 150.28 37C149.324 37.0901 148.619 37.2251 148.164 37.4051ZM154.345 40.3184C154.293 40.3829 154.218 40.4601 154.121 40.5499C154.023 40.6401 153.805 40.7591 153.468 40.9068C153.129 41.0549 152.778 41.1287 152.415 41.1287C151.778 41.1287 151.261 41.2059 150.865 41.3602C150.468 41.5146 150.27 41.7334 150.27 42.0162C150.27 42.3508 150.413 42.6016 150.699 42.7686C150.985 42.9359 151.557 43.0194 152.415 43.0194C152.766 43.0194 153.035 43.0164 153.224 43.0098C153.412 43.0035 153.588 42.9552 153.75 42.8651C153.913 42.7753 154.026 42.6914 154.092 42.6143C154.156 42.5371 154.212 42.3731 154.257 42.1223C154.303 41.8715 154.329 41.6303 154.335 41.3988C154.342 41.1673 154.345 40.8073 154.345 40.3184Z" fill="white"/>
<defs>
<linearGradient id="paint0_linear" x1="30.5798" y1="30.7176" x2="30.5798" y2="5.36888" gradientUnits="userSpaceOnUse">
<stop stop-color="#2B3990"/>
<stop offset="0.0304341" stop-color="#184898"/>
<stop offset="0.0874169" stop-color="#005EA8"/>
<stop offset="0.150105" stop-color="#0071B6"/>
<stop offset="0.217178" stop-color="#0081C4"/>
<stop offset="0.289789" stop-color="#008ED1"/>
<stop offset="0.369823" stop-color="#0099DB"/>
<stop offset="0.460338" stop-color="#00A2E3"/>
<stop offset="0.567311" stop-color="#00A8E9"/>
<stop offset="0.70677" stop-color="#00ACED"/>
<stop offset="1" stop-color="#00AEEF"/>
</linearGradient>
<linearGradient id="paint1_linear" x1="2.91962" y1="19.9205" x2="58.4607" y2="19.9205" gradientUnits="userSpaceOnUse">
<stop stop-color="#034EA2"/>
<stop offset="0.0629981" stop-color="#0055A7"/>
<stop offset="0.183324" stop-color="#0067B4"/>
<stop offset="0.34853" stop-color="#0083CA"/>
<stop offset="0.550547" stop-color="#00AAEC"/>
<stop offset="0.561576" stop-color="#00AEEF"/>
<stop offset="0.684926" stop-color="#00ACED"/>
<stop offset="0.746115" stop-color="#00A8E9"/>
<stop offset="0.793634" stop-color="#00A2E3"/>
<stop offset="0.834115" stop-color="#0099DB"/>
<stop offset="0.870107" stop-color="#008ED0"/>
<stop offset="0.902939" stop-color="#0080C3"/>
<stop offset="0.933369" stop-color="#0070B5"/>
<stop offset="0.961887" stop-color="#005DA7"/>
<stop offset="0.987915" stop-color="#1B4697"/>
<stop offset="1" stop-color="#2B3990"/>
</linearGradient>
<linearGradient id="paint2_linear" x1="30.5798" y1="47.1209" x2="30.5798" y2="74.1154" gradientUnits="userSpaceOnUse">
<stop stop-color="#905501"/>
<stop offset="0.0556973" stop-color="#9E6007"/>
<stop offset="0.168545" stop-color="#B97411"/>
<stop offset="0.290101" stop-color="#D08516"/>
<stop offset="0.421382" stop-color="#E19218"/>
<stop offset="0.567117" stop-color="#ED9B19"/>
<stop offset="0.738648" stop-color="#F6A11A"/>
<stop offset="1" stop-color="#FAA41A"/>
</linearGradient>
<linearGradient id="paint3_linear" x1="2.88739" y1="40.0189" x2="34.8469" y2="40.0189" gradientUnits="userSpaceOnUse">
<stop stop-color="#560003"/>
<stop offset="0.0333951" stop-color="#64010A"/>
<stop offset="0.110465" stop-color="#7F0C14"/>
<stop offset="0.19542" stop-color="#9A131A"/>
<stop offset="0.288717" stop-color="#B1171E"/>
<stop offset="0.39376" stop-color="#C41920"/>
<stop offset="0.517218" stop-color="#D11A21"/>
<stop offset="0.676564" stop-color="#DA1A22"/>
<stop offset="1" stop-color="#DD1A22"/>
</linearGradient>
<linearGradient id="paint4_linear" x1="2.80823" y1="40.0204" x2="34.9248" y2="40.0204" gradientUnits="userSpaceOnUse">
<stop stop-color="#ED1C24"/>
<stop offset="0.313662" stop-color="#E91C24"/>
<stop offset="0.468225" stop-color="#DF1C24"/>
<stop offset="0.587988" stop-color="#D11B23"/>
<stop offset="0.689834" stop-color="#BF1921"/>
<stop offset="0.780353" stop-color="#A8161E"/>
<stop offset="0.862785" stop-color="#8D1118"/>
<stop offset="0.93754" stop-color="#710710"/>
<stop offset="1" stop-color="#560003"/>
</linearGradient>
<linearGradient id="paint5_linear" x1="31.2982" y1="37.1399" x2="26.2667" y2="42.225" gradientUnits="userSpaceOnUse">
<stop stop-color="white" stop-opacity="0.7"/>
<stop offset="0.0275987" stop-color="#FDEEE7" stop-opacity="0.7"/>
<stop offset="0.139818" stop-color="#F4BEA9" stop-opacity="0.7"/>
<stop offset="0.255687" stop-color="#EE967B" stop-opacity="0.7"/>
<stop offset="0.372685" stop-color="#E8785B" stop-opacity="0.7"/>
<stop offset="0.491088" stop-color="#E45D42" stop-opacity="0.7"/>
<stop offset="0.611393" stop-color="#E14531" stop-opacity="0.7"/>
<stop offset="0.73438" stop-color="#DF3027" stop-opacity="0.7"/>
<stop offset="0.86166" stop-color="#DD2023" stop-opacity="0.7"/>
<stop offset="1" stop-color="#DD1A22" stop-opacity="0.7"/>
</linearGradient>
</defs>
</svg>
