<svg width="160" height="80" viewBox="0 0 160 80" fill="none" xmlns="http://www.w3.org/2000/svg">
<path d="M68.6123 46.134C68.6123 48.7832 68.6123 51.4419 68.6123 54.0911C68.6123 54.8916 68.2311 55.1679 67.4783 54.9392C64.5813 54.0816 61.6844 53.2239 58.7874 52.3758C55.7665 51.4895 52.7552 50.5938 49.7344 49.7075C48.5718 49.3645 47.4187 49.0024 46.2656 48.6688C45.8368 48.5449 45.6558 48.2591 45.6558 47.8398C45.6558 42.5032 45.6558 37.1667 45.6558 31.8302C45.6558 31.3633 45.9035 31.0679 46.3038 30.9535C48.6766 30.2388 51.059 29.5432 53.4413 28.8475C56.386 27.9803 59.3306 27.1227 62.2752 26.265C64.0572 25.7409 65.8392 25.1977 67.6212 24.6736C68.1549 24.5116 68.6218 24.8546 68.6218 25.4074C68.6313 28.047 68.6313 30.6772 68.6218 33.3168C68.6218 33.7838 68.3264 34.0697 67.8499 34.0792C66.6111 34.0887 65.3723 34.0887 64.1334 34.0792C63.6855 34.0792 63.3139 33.7266 63.2853 33.2882C63.2091 32.1256 62.2752 31.773 61.3889 32.0303C58.6063 32.8404 55.8332 33.6885 53.0602 34.5175C52.7076 34.6224 52.3455 34.7081 51.9929 34.8225C51.3353 35.0321 50.9923 35.4991 50.9923 36.1661C50.9923 38.6152 50.9923 41.0548 50.9923 43.5038C50.9923 44.1423 51.3067 44.6283 51.9166 44.8189C53.8606 45.4097 55.8047 45.9815 57.7582 46.5533C58.9875 46.9154 60.2263 47.287 61.4652 47.6396C62.5039 47.9351 63.2948 47.3252 63.2948 46.2579C63.2948 45.4669 63.2948 44.6664 63.2948 43.8755C63.2948 43.0369 62.7231 42.4651 61.8845 42.4556C60.7409 42.4461 59.5974 42.4556 58.4539 42.4556C57.863 42.4556 57.5867 42.2078 57.5867 41.5979C57.5771 40.4258 57.5771 39.2442 57.5867 38.072C57.5962 37.4526 57.863 37.2144 58.5015 37.2144C61.5986 37.2144 64.6957 37.2144 67.7928 37.2144C68.374 37.2144 68.6409 37.4812 68.6409 38.0816C68.6123 40.7689 68.6123 43.4467 68.6123 46.134Z" fill="white"/>
<path d="M5.32698 35.6038C5.32698 35.6324 5.32698 35.6705 5.31745 35.6991C5.25074 36.5091 5.89875 37.2143 6.84217 37.2143C8.93865 37.2143 11.0351 37.2333 13.1316 37.1952C13.6939 37.1857 14.0274 37.5287 14.0179 38.0624C13.9798 39.2345 14.0083 40.4162 14.0083 41.5883C14.0083 42.2268 13.7796 42.446 13.1221 42.446C11.0447 42.446 8.95771 42.4745 6.88029 42.4364C5.98451 42.4174 5.30792 43.1035 5.31745 43.8658V46.3245C5.31745 46.353 5.31745 46.3912 5.31745 46.4198C5.31745 46.4293 5.31745 46.4483 5.31745 46.4579C5.3651 47.2774 6.18463 47.9349 7.15664 47.6491C8.51936 47.2488 9.8916 46.8581 11.2638 46.4483C14.8565 45.381 18.4491 44.3137 22.0512 43.2464C22.461 43.1225 22.9565 43.5133 22.9661 43.9993C22.9851 45.2857 22.9851 46.5722 22.9661 47.8587C22.9565 48.3447 22.6706 48.6115 22.2132 48.7449C20.1453 49.3453 18.0774 49.9457 16.0095 50.5555C12.6647 51.5371 9.31983 52.5282 5.97499 53.5097C4.32638 53.9957 2.66825 54.4817 1.01965 54.9486C0.36212 55.1392 0 54.8438 0 54.1577C0 49.3739 0 44.5996 0 39.8158V25.6169C0 24.7592 0.381179 24.4924 1.20071 24.7307C4.2025 25.6264 7.20429 26.5127 10.2061 27.3989C13.3222 28.3233 16.4479 29.2381 19.5736 30.1625C20.5074 30.4388 21.4413 30.7342 22.3752 31.0106C22.7945 31.1345 22.9565 31.4108 22.9661 31.8015C22.9756 33.0594 22.9756 34.3078 22.9661 35.5657C22.9565 36.2041 22.4705 36.5377 21.8606 36.3566C19.1733 35.5561 16.4765 34.7747 13.7892 33.9742C11.6069 33.3262 9.42466 32.6496 7.24241 32.0207C6.27993 31.7443 5.31745 32.2018 5.33651 33.3739V35.6038H5.32698Z" fill="white"/>
<path d="M41.9297 39.8447C41.9297 43.0085 41.9297 46.1627 41.9297 49.3265C41.9297 49.946 41.6153 50.27 40.9863 50.27C36.536 50.27 32.0953 50.27 27.645 50.27C27.0066 50.27 26.6826 49.9364 26.6826 49.2789C26.6826 42.9704 26.6826 36.6714 26.6826 30.3629C26.6826 29.6386 26.9208 29.4004 27.6355 29.4004C32.0858 29.4004 36.5265 29.4004 40.9768 29.4004C41.6915 29.4004 41.9297 29.6386 41.9297 30.3629C41.9297 33.5267 41.9297 36.6904 41.9297 39.8447Z" fill="white"/>
<path d="M102.852 30.9824C102.852 33.9937 102.852 36.9478 102.852 39.9401C101.527 39.9401 100.25 39.9401 98.9446 39.9401C98.9446 34.8609 98.9446 29.7721 98.9446 24.6357C100.212 24.6357 101.479 24.6357 102.747 24.6453C102.833 24.6453 102.947 24.731 103.004 24.8073C104.491 26.7513 105.968 28.7048 107.454 30.6393C108.188 31.6018 108.941 32.5452 109.751 33.5839C109.751 30.5536 109.751 27.628 109.751 24.6739C111.104 24.6739 112.41 24.6739 113.763 24.6739C113.773 24.8168 113.782 24.9693 113.782 25.1217C113.782 29.8865 113.773 34.6417 113.792 39.4064C113.792 39.8829 113.639 39.9973 113.191 39.9877C112.172 39.9591 111.161 39.9973 110.142 39.9687C109.951 39.9591 109.713 39.8257 109.589 39.6637C108.436 38.2057 107.302 36.7477 106.168 35.2706C105.11 33.8889 104.062 32.4976 103.004 31.1063C102.985 31.0777 102.937 31.0586 102.852 30.9824Z" fill="white"/>
<path d="M147.459 24.6641C148.755 24.6641 150.023 24.6641 151.328 24.6641C151.328 25.6551 151.328 26.6176 151.328 27.5801C151.328 28.4377 151.328 29.2954 151.328 30.153C151.328 30.3913 151.366 30.5533 151.662 30.5533C153.091 30.5438 154.511 30.5533 155.998 30.5533C155.998 28.5807 155.998 26.6367 155.998 24.6736C157.341 24.6736 158.637 24.6736 159.971 24.6736C159.971 29.7623 159.971 34.8511 159.971 39.9589C155.807 39.9589 151.643 39.9589 147.45 39.9589C147.45 38.8344 147.45 37.729 147.45 36.5759C150.28 36.5759 153.11 36.5759 155.969 36.5759C155.969 35.6897 155.969 34.8606 155.969 33.9934C153.129 33.9934 150.309 33.9934 147.459 33.9934C147.459 30.8678 147.459 27.7802 147.459 24.6641Z" fill="white"/>
<path d="M87.8713 28.0661C87.8713 28.8856 87.8713 29.6289 87.8713 30.4199C89.72 30.4199 91.5688 30.4199 93.4461 30.4199C93.4461 31.592 93.4461 32.7069 93.4461 33.86C91.6069 33.86 89.7677 33.86 87.8904 33.86C87.8904 34.7558 87.8904 35.623 87.8904 36.5378C90.7111 36.5378 93.5509 36.5378 96.4288 36.5378C96.4288 37.6146 96.4383 38.6438 96.4193 39.673C96.4193 39.7778 96.2192 39.8826 96.1048 39.9779C96.0857 39.997 96.0476 39.9779 96.0095 39.9779C92.0262 39.9779 88.0333 39.9779 84.05 39.9779C84.0024 39.9779 83.9547 39.9684 83.8785 39.9494C83.8785 34.8606 83.8785 29.7719 83.8785 24.6641C88.0429 24.6641 92.1977 24.6641 96.4288 24.6641C96.4288 25.2358 96.4288 25.8076 96.4288 26.3889C96.4288 26.7891 96.4097 27.1798 96.4383 27.5801C96.4669 27.9517 96.3335 28.0756 95.9523 28.0756C94.0464 28.0566 92.1405 28.0661 90.2346 28.0661C89.4628 28.0661 88.6909 28.0661 87.8713 28.0661Z" fill="white"/>
<path d="M127.381 39.9591C123.702 39.9591 120.052 39.9591 116.384 39.9591C116.384 37.9103 116.384 35.89 116.384 33.8221C117.651 33.8221 118.928 33.8221 120.262 33.8221C120.262 34.5368 120.281 35.2611 120.253 35.9853C120.233 36.4141 120.338 36.5857 120.805 36.5571C121.501 36.519 122.206 36.5285 122.902 36.5571C123.302 36.5762 123.416 36.4427 123.416 36.0425C123.407 32.4404 123.407 28.8382 123.407 25.2361C123.407 25.0645 123.407 24.8835 123.407 24.6738C124.731 24.6738 126.037 24.6738 127.381 24.6738C127.381 29.753 127.381 34.8418 127.381 39.9591Z" fill="white"/>
<path d="M120.538 47.4301C120.376 47.4396 120.167 47.5921 120.081 47.735C119.652 48.4402 119.252 49.1644 118.842 49.8696C118.566 50.3461 118.28 50.813 117.965 51.3276C117.651 50.813 117.365 50.3461 117.089 49.8696C116.679 49.1549 116.279 48.4307 115.85 47.735C115.764 47.5921 115.555 47.4491 115.393 47.4301C114.878 47.392 114.354 47.411 113.792 47.411V55.0155H115.65V50.9179C115.688 50.8988 115.736 50.8797 115.774 50.8607C116.488 52.09 117.203 53.3193 117.956 54.6058C118.709 53.3193 119.423 52.09 120.138 50.8607C120.176 50.8797 120.224 50.8988 120.262 50.9179V55.0155H122.12V47.411C121.577 47.411 121.053 47.392 120.538 47.4301Z" fill="white"/>
<path d="M143.981 51.7565C143.981 50.3366 143.981 48.9072 143.981 47.4492C144.619 47.4492 145.22 47.4492 145.868 47.4492C145.868 49.9554 145.868 52.4617 145.868 55.0347C145.267 55.0347 144.677 55.0442 144.076 55.0251C143.981 55.0251 143.867 54.9108 143.8 54.825C142.818 53.5576 141.846 52.2806 140.865 51.0037C140.798 50.9179 140.712 50.8607 140.579 50.7273C140.579 52.1949 140.579 53.5766 140.579 54.9965C139.902 54.9965 139.264 54.9965 138.587 54.9965C138.587 52.4808 138.587 49.965 138.587 47.4111C139.188 47.4111 139.769 47.4015 140.35 47.4206C140.455 47.4206 140.588 47.535 140.665 47.6303C141.742 49.012 142.818 50.4033 143.886 51.7851C143.914 51.7851 143.952 51.7756 143.981 51.7565Z" fill="white"/>
<path d="M90.816 49.1262C89.1388 49.1262 87.5379 49.1262 85.8988 49.1262C85.8988 50.5175 85.8988 51.8898 85.8988 53.2906C86.8517 53.2906 87.8142 53.2906 88.7957 53.2906C88.7957 52.8713 88.7957 52.4615 88.7957 52.0041C88.4717 52.0041 88.1477 52.0041 87.7761 52.0041C87.7761 51.48 87.757 51.013 87.7856 50.5461C87.7952 50.4508 87.9762 50.2888 88.081 50.2888C88.891 50.2697 89.701 50.2697 90.5111 50.2888C90.6159 50.2888 90.7969 50.4889 90.8065 50.6033C90.8255 52.0613 90.816 53.5193 90.816 55.0059C88.4908 55.0059 86.2037 55.0059 83.8881 55.0059C83.8881 52.4901 83.8881 49.9839 83.8881 47.4395C84.0215 47.43 84.1549 47.4109 84.2883 47.4109C86.2895 47.4109 88.2907 47.4204 90.2919 47.4014C90.7112 47.4014 90.8636 47.5253 90.8255 47.9445C90.7874 48.3257 90.816 48.6974 90.816 49.1262Z" fill="white"/>
<path d="M159.99 50.27C159.99 51.8805 159.99 53.4242 159.99 54.9966C157.694 54.9966 155.397 54.9966 153.072 54.9966C153.063 54.8822 153.043 54.7584 153.043 54.644C153.043 52.3855 153.043 50.1366 153.043 47.8781C153.043 47.6208 153.043 47.4111 153.406 47.4111C155.578 47.4207 157.751 47.4111 159.971 47.4111C159.971 47.9734 159.971 48.5166 159.971 49.1264C159.686 49.1264 159.39 49.1264 159.095 49.1264C157.884 49.1264 156.684 49.136 155.473 49.1264C155.169 49.1264 155.045 49.2217 155.054 49.5362C155.064 50.775 155.064 52.0139 155.064 53.2908C156.036 53.2908 156.998 53.2908 157.989 53.2908C157.989 52.8811 157.989 52.4618 157.989 52.0139C157.703 52.0139 157.417 52.0139 157.074 52.0139C157.074 51.4993 157.065 51.0133 157.084 50.5273C157.093 50.4415 157.265 50.2986 157.36 50.2986C158.208 50.27 159.076 50.27 159.99 50.27Z" fill="white"/>
<path d="M130.02 24.6641C130.02 29.7909 130.02 34.8701 130.02 39.9494C135.014 39.9494 139.969 39.9494 144.924 39.9494C144.924 34.832 144.924 29.7623 144.924 24.6641C139.95 24.6641 134.995 24.6641 130.02 24.6641ZM140.912 36.5092C138.625 36.5092 136.338 36.5092 134.013 36.5092C134.013 33.7171 134.013 30.9249 134.013 28.0851C136.329 28.0851 138.606 28.0851 140.912 28.0851C140.912 30.8963 140.912 33.6885 140.912 36.5092Z" fill="white"/>
<path d="M105.692 53.1193C104.948 51.3087 104.224 49.4981 103.471 47.697C103.414 47.5636 103.166 47.4302 102.995 47.4206C102.471 47.3825 101.946 47.3921 101.422 47.4206C101.289 47.4302 101.089 47.535 101.041 47.6494C100.203 49.6315 99.3925 51.6327 98.573 53.6243C98.3919 54.0722 98.2109 54.5296 98.0107 55.0347C98.6206 55.0347 99.1448 54.9966 99.6593 55.0442C100.117 55.0824 100.355 54.9299 100.45 54.482C100.527 54.1294 100.717 53.9483 101.136 53.9769C101.88 54.0246 102.623 54.0055 103.376 53.9865C103.709 53.9769 103.9 54.0436 104.014 54.4153C104.081 54.6345 104.043 55.0538 104.5 55.0442C105.129 55.0252 105.768 55.0442 106.502 55.0442C106.206 54.3391 105.939 53.7387 105.692 53.1193ZM101.317 52.4332C101.622 51.6899 101.908 50.9847 102.242 50.1461C102.575 50.9751 102.861 51.6803 103.166 52.4332C102.537 52.4332 101.975 52.4332 101.317 52.4332Z" fill="white"/>
<path d="M129.668 47.4207H129.401V47.9353V47.9543V50.5749H129.42C129.42 51.7185 129.42 52.862 129.42 53.996V55.0061H131.392V50.5749V47.4111H129.668V47.4207Z" fill="white"/>
</svg>
