<svg width="160" height="80" viewBox="0 0 160 80" fill="none" xmlns="http://www.w3.org/2000/svg">
<g clip-path="url(#clip0_5940_29)">
<path d="M52.2611 34.3456C52.4741 33.1682 52.5805 31.9373 52.5273 30.7064C52.4741 29.5291 52.2611 28.4587 51.8885 27.3349C51.7821 27.0673 51.7288 27.0673 51.4627 27.1743C48.4285 29.0474 45.2347 30.3853 41.7747 31.1881C39.0599 31.8303 36.2919 31.8838 33.5239 31.5092C28.7864 30.9205 24.3683 29.422 20.0033 27.6025C18.5661 27.0138 17.1289 26.4786 15.5852 26.3181C13.1366 26.0505 11.2203 27.6025 10.9541 30.0642C10.688 32.526 11.0606 34.8808 11.6994 37.2355C12.4978 40.0719 13.6157 42.8012 15.4255 45.156C17.608 48.0459 20.5357 49.8655 23.8892 50.9893C27.2959 52.1132 30.8624 52.3808 34.4289 52.1132C38.4212 51.8456 42.2538 50.9358 46.0331 49.7049C46.459 49.5444 46.7784 49.3303 46.9913 48.9557C47.6833 47.9389 48.0559 46.815 48.4285 45.6912C48.4818 45.5841 48.535 45.4236 48.5882 45.3165C48.535 46.6009 48.2156 47.7783 47.843 48.9557C47.4171 50.2401 47.4171 50.2401 46.1396 50.7752C43.4781 51.9526 40.6568 52.5948 37.7824 53.023C32.7787 53.7187 27.775 53.7187 22.7713 53.5046C19.8969 53.3976 17.0224 53.13 14.2544 52.4343C13.5092 52.2202 12.8172 52.0061 12.1784 51.6315C11.4864 51.2034 11.38 50.6682 11.9655 50.026C12.3381 49.5979 13.2431 49.0092 13.7754 48.8486C13.7754 48.8486 13.7754 48.9022 13.7221 48.9022C12.8172 49.7049 13.0301 50.4006 14.0947 50.9358C15.2126 51.471 16.4369 51.578 17.608 51.685C18.0338 51.7386 18.4064 51.7386 18.9387 51.7386C18.5129 51.2034 18.1403 50.7752 17.7144 50.2936C15.532 47.7248 13.6157 44.9419 12.1252 41.8915C10.6348 38.841 9.6766 35.63 9.30399 32.2584C9.14429 30.5459 9.09106 28.8869 9.51691 27.1743C10.1024 24.8731 11.3268 23.9633 13.8286 23.8028C15.7981 23.6957 17.7144 24.2309 19.5775 24.8731C22.6117 25.9434 25.5926 27.2278 28.6267 28.3517C30.3833 28.9939 32.1932 29.5826 34.0562 29.8502C36.079 30.1713 38.1018 30.1713 40.1245 29.9572C43.5313 29.5291 46.7251 28.4587 49.7061 26.6392C50.3448 26.211 51.0368 25.7829 51.5691 25.3012C51.8353 25.0337 51.9417 25.1407 52.0482 25.4083C53.0064 27.2814 53.2725 29.315 53.0596 31.4022C52.9531 32.419 52.7402 33.4358 52.4208 34.3991C52.2611 34.5597 52.2079 34.5061 52.2611 34.3456Z" fill="white"/>
<path d="M28.2009 53.772C26.2846 53.772 24.4215 53.7185 22.7181 53.665C20.163 53.558 17.1289 53.3439 14.148 52.5947C13.456 52.4341 12.7107 52.1665 12.072 51.7919C11.6994 51.5779 11.4864 51.3103 11.4864 51.0427C11.4332 50.7751 11.5929 50.454 11.8591 50.1329C12.2317 49.7048 13.1366 49.1161 13.6689 48.9555L13.7754 48.902L13.7221 49.009C13.7221 49.009 13.7221 49.0626 13.6689 49.0626C13.2431 49.4372 13.0834 49.8118 13.1366 50.1329C13.1898 50.454 13.5092 50.7751 14.0415 51.0427C15.1594 51.5779 16.3304 51.6849 17.5547 51.7919C17.8209 51.7919 18.087 51.8454 18.4064 51.8454C18.5129 51.8454 18.6726 51.8454 18.779 51.8454L18.4064 51.4173C18.1403 51.0962 17.8741 50.7751 17.608 50.5075C15.2658 47.7782 13.456 45.0488 12.0188 42.1054C10.4751 38.9479 9.51691 35.7369 9.19752 32.4724C9.03783 31.0809 8.93137 29.2078 9.41045 27.3883C10.0492 25.0335 11.2735 24.0702 13.7754 23.9097C15.7981 23.8026 17.7144 24.3913 19.5243 24.98C21.2277 25.5687 22.8778 26.2109 24.528 26.8531C25.8587 27.3883 27.1895 27.9234 28.5735 28.4051C30.1704 28.9938 32.0335 29.636 34.003 29.9035C36.0258 30.2246 38.0485 30.2246 40.0713 30.0106C43.4781 29.5824 46.7251 28.4586 49.6528 26.6925C50.1851 26.3714 50.9304 25.8898 51.5159 25.3546C51.6756 25.2476 51.7288 25.1941 51.8353 25.1941C51.9417 25.1941 51.995 25.3011 52.1014 25.4616C53.0064 27.2812 53.3257 29.2078 53.166 31.4555C53.0596 32.4724 52.8467 33.4892 52.5273 34.4525C52.4741 34.4525 52.3676 34.506 52.3144 34.4525C52.2611 34.399 52.3144 34.2919 52.3144 34.2384C52.5273 32.9005 52.6337 31.7231 52.5805 30.5993C52.5273 29.4754 52.3144 28.298 51.9417 27.2277C51.8885 27.1207 51.8885 27.0672 51.8353 27.0136C51.7821 27.0136 51.7288 27.0136 51.6224 27.0672C48.5882 28.9402 45.2879 30.3317 41.8812 31.0809C39.2196 31.6696 36.5049 31.7766 33.6304 31.402C29.5849 30.8668 25.3796 29.6895 20.0566 27.4953C18.4597 26.8531 17.1289 26.3714 15.6917 26.2109C14.5206 26.1038 13.4027 26.3714 12.6043 27.0672C11.7526 27.7629 11.2735 28.7797 11.1138 29.9571C10.9009 32.0977 11.1138 34.399 11.8591 37.1283C12.764 40.3928 13.9351 42.9081 15.532 45.0488C17.608 47.7782 20.376 49.7048 23.9956 50.8821C27.083 51.899 30.543 52.2736 34.4821 52.006C38.2082 51.7384 41.9876 50.9357 46.0864 49.5977C46.5122 49.4372 46.7784 49.2231 47.0445 48.8485C47.6833 47.9387 48.0027 46.8684 48.3753 45.9051L48.4818 45.584C48.535 45.4769 48.535 45.3699 48.6414 45.2629L48.7479 45.1023V45.3164C48.6947 46.6543 48.3221 47.8852 48.0027 48.9555C47.5768 50.2399 47.5768 50.2934 46.2993 50.8286C43.8507 51.899 41.1892 52.5947 37.8889 53.0763C34.5353 53.665 31.2882 53.772 28.2009 53.772ZM13.5624 49.009C13.0301 49.2231 12.2849 49.7048 11.9123 50.1329C11.6461 50.454 11.5397 50.7216 11.5397 50.9892C11.5929 51.2568 11.7526 51.4708 12.1252 51.6849C12.764 52.113 13.5092 52.3271 14.2012 52.4876C17.1821 53.2369 20.163 53.4509 22.7181 53.558C27.1895 53.7185 32.5126 53.8256 37.7292 53.0763C41.0295 52.5947 43.691 51.899 46.0864 50.8286C47.3107 50.2934 47.3107 50.2934 47.7365 49.009C48.0559 48.0457 48.3753 46.8684 48.4818 45.6375C48.4818 45.691 48.4818 45.691 48.4285 45.7445L48.3753 46.0656C48.0027 47.0824 47.6833 48.1528 47.0445 49.0626C46.7784 49.4372 46.459 49.7048 46.0331 49.8118C41.9344 51.2032 38.155 52.006 34.4289 52.2201C30.4366 52.4876 27.0298 52.113 23.8892 51.0962C20.2695 49.8653 17.4483 47.9387 15.3723 45.2094C13.7221 43.0687 12.5511 40.5534 11.6461 37.2353C10.9009 34.506 10.6348 32.2048 10.9009 30.0641C11.0074 28.8867 11.5929 27.8164 12.3914 27.1207C13.2431 26.4249 14.3609 26.1574 15.5852 26.2644C17.0757 26.4249 18.4064 26.9066 20.0033 27.5488C25.3264 29.743 29.4784 30.9204 33.5239 31.4555C36.3984 31.8301 39.1132 31.7231 41.7215 31.1344C45.1282 30.3852 48.3753 28.9938 51.4094 27.1207C51.5159 27.0672 51.6224 27.0136 51.6756 27.0136C51.7288 27.0672 51.7821 27.1207 51.8353 27.2812C52.2079 28.3516 52.4208 29.4754 52.5273 30.6528C52.5805 31.7766 52.5273 32.954 52.2611 34.2919C52.2079 34.399 52.2079 34.399 52.2611 34.399C52.2611 34.399 52.3144 34.399 52.3676 34.399C52.687 33.4357 52.8999 32.4188 53.0064 31.402C53.2193 29.1543 52.8999 27.2277 51.995 25.4616C51.9417 25.3011 51.8885 25.2476 51.7821 25.2476C51.7288 25.2476 51.6756 25.3011 51.5159 25.4081C50.8771 25.9968 50.1851 26.4249 49.5996 26.7996C46.6719 28.6191 43.4248 29.6895 40.0181 30.1176C37.9953 30.3852 35.9725 30.3317 33.9498 30.0106C31.9802 29.743 30.1172 29.1008 28.5203 28.5121C27.1363 28.0305 25.8055 27.4953 24.4747 26.9601C22.8246 26.3179 21.1744 25.6222 19.471 25.087C17.6612 24.4983 15.7449 23.9097 13.7754 24.0167C11.3268 24.1772 10.1024 25.087 9.51691 27.3883C9.03783 29.2078 9.14429 31.0274 9.30399 32.4188C9.62337 35.6834 10.5815 38.8944 12.1252 42.0519C13.5624 44.9418 15.3723 47.6711 17.7144 50.4005C17.9806 50.7216 18.2467 50.9892 18.5129 51.3638L18.992 51.9525H18.8855C18.7258 51.9525 18.5661 51.9525 18.4064 51.9525C18.087 51.9525 17.8209 51.899 17.5547 51.899C16.3304 51.7919 15.1061 51.6314 13.9883 51.1497C13.4027 50.8821 13.0834 50.561 13.0301 50.1864C13.0301 49.7583 13.1898 49.3837 13.5624 49.009Z" fill="white"/>
<path d="M23.2504 57.8929C22.1858 57.8394 21.068 57.7858 20.0034 57.7323C15.6917 57.5183 11.4332 57.0366 7.28122 55.9663C5.6843 55.5381 4.14061 55.003 2.70339 54.0932C2.33077 53.8791 2.01139 53.6115 1.74523 53.2904C0.840313 52.3271 0.840313 51.2568 1.692 50.24C2.59692 49.1161 3.82123 48.4739 5.09877 47.8852C5.52461 47.6712 5.89723 47.5106 6.32307 47.4036C5.73753 47.8317 5.09877 48.2598 4.56646 48.7415C4.08738 49.1696 3.66154 49.5978 3.39538 50.1865C2.96954 51.0962 3.18246 51.899 3.98092 52.4877C5.152 53.3439 6.48276 53.7186 7.81353 54.1467C10.4218 54.8959 13.1366 55.3241 15.8514 55.6987C21.4938 56.4479 27.1363 56.662 32.8319 56.5014C35.1209 56.4479 37.4098 56.3409 39.6455 56.1268C44.8621 55.6452 50.0787 54.8959 55.0824 53.2369C56.7857 52.6482 58.4891 52.006 59.9796 50.9892C60.5651 50.6146 61.0974 50.1865 61.5233 49.5978C62.375 48.5274 62.2685 47.6712 61.2039 46.8149C60.1925 45.9586 59.0214 45.4235 57.9036 44.7813C57.7971 44.7277 57.6907 44.6742 57.5842 44.5137C58.0633 44.6742 58.5424 44.7813 59.0214 44.9418C60.2457 45.3699 61.47 45.7981 62.5346 46.6008C64.238 47.8317 64.2913 49.2767 62.7476 50.7216C61.683 51.7384 60.4054 52.3806 59.0747 52.9158C56.2534 54.0932 53.3257 54.8959 50.3448 55.5381C46.2993 56.3944 42.2538 56.9831 38.155 57.3577C35.1741 57.6253 32.1932 57.8394 29.2123 57.8929C29.1058 57.8929 28.9993 57.9464 28.8929 57.9464C28.8396 57.9999 28.7332 57.9999 28.6267 57.9999C26.9233 57.9999 25.1667 57.9999 23.4633 57.9999C23.4101 57.9464 23.3037 57.9464 23.2504 57.8929Z" fill="white"/>
<path d="M23.4101 57.9997C23.3569 57.9997 23.3036 57.9997 23.2504 57.9462C22.931 57.9462 22.5584 57.8927 22.239 57.8927C21.4938 57.8392 20.7486 57.8392 20.0033 57.7856C16.4369 57.5716 11.8058 57.197 7.28122 56.0196C5.84399 55.645 4.19384 55.1098 2.70339 54.1465C2.27754 53.8789 1.95816 53.6113 1.74523 53.3438C0.840313 52.3269 0.840313 51.2566 1.692 50.2398C2.65016 49.1159 3.92769 48.4737 5.09877 47.885C5.47138 47.671 5.89722 47.5104 6.32307 47.4034L6.58922 47.3499L6.3763 47.5104C6.21661 47.671 6.00369 47.778 5.79076 47.9386C5.36492 48.2061 4.9923 48.5272 4.61969 48.8483C4.24707 49.1694 3.768 49.6511 3.44861 50.2933C3.02277 51.2031 3.23569 51.9523 3.98092 52.541C5.09877 53.3438 6.3763 53.7719 7.81353 54.1465C10.688 54.9493 13.6157 55.4309 15.8514 55.6985C21.1212 56.3942 26.6572 56.6618 32.8319 56.5012C35.2805 56.4477 37.5162 56.2872 39.6455 56.1266C44.2765 55.6985 49.7061 55.0028 55.0824 53.2367C57.1583 52.541 58.6488 51.8453 59.9796 50.989C60.6716 50.5609 61.1506 50.0792 61.5233 49.5976C62.3217 48.5272 62.2153 47.7245 61.2039 46.8682C60.299 46.119 59.2876 45.5838 58.2762 45.0486C58.1697 44.9951 58.01 44.9416 57.9036 44.8346C57.7971 44.7811 57.6907 44.7275 57.5842 44.567L57.531 44.46L57.6374 44.5135C57.7971 44.567 57.9568 44.6205 58.0633 44.6205C58.3827 44.7275 58.702 44.8346 59.0214 44.9416C60.1393 45.3162 61.4168 45.7979 62.5346 46.6006C63.3863 47.2428 63.8654 47.9386 63.8654 48.6343C63.9186 49.33 63.546 50.0792 62.7476 50.7749C61.6297 51.7918 60.299 52.434 59.0746 52.9691C56.6793 53.986 53.9645 54.8422 50.3448 55.5915C46.5654 56.3942 42.5732 56.9829 38.155 57.411C35.0676 57.6786 32.0867 57.8927 29.2123 57.9462C29.159 57.9462 29.0526 57.9462 28.9993 57.9997C28.9461 57.9997 28.9461 57.9997 28.8929 57.9997C28.8396 58.0532 28.7332 58.0532 28.6799 58.0532C28.6799 58.0532 28.6799 58.0532 28.6267 58.0532C26.9233 58.0532 25.1667 58.0532 23.4633 58.0532C23.4633 57.9997 23.4633 57.9997 23.4101 57.9997ZM6.11015 47.5104C5.79076 47.6175 5.41815 47.778 5.152 47.9386C3.92769 48.5272 2.70339 49.1694 1.74523 50.2933C0.893544 51.3101 0.893544 52.3269 1.79846 53.2902C2.06462 53.5578 2.384 53.8254 2.75662 54.093C4.24707 55.0563 5.89723 55.5379 7.28122 55.9661C11.8058 57.197 16.4901 57.5716 20.0033 57.7321C20.7486 57.7856 21.4938 57.7856 22.239 57.8392C22.5584 57.8392 22.931 57.8927 23.2504 57.8927C23.3036 57.9462 23.3569 57.9462 23.4101 57.9462H23.4633C25.1667 57.9462 26.9233 57.9462 28.6267 57.9462H28.6799C28.7332 57.9462 28.7864 57.9462 28.8396 57.8927C28.8929 57.8927 28.8929 57.8927 28.9461 57.8927C28.9993 57.8927 29.1058 57.8392 29.159 57.8392C32.0335 57.7856 35.0144 57.5716 38.1018 57.304C42.5199 56.8759 46.5122 56.2872 50.2916 55.4844C53.9113 54.6817 56.5728 53.8789 59.0214 52.8621C60.299 52.3269 61.6297 51.6847 62.6943 50.6679C63.4396 49.9722 63.8122 49.2765 63.7589 48.5808C63.7057 47.885 63.2799 47.2428 62.4282 46.6006C61.3103 45.7979 60.0328 45.3162 58.9682 44.9416C58.6488 44.8346 58.3294 44.7275 58.01 44.6205C57.9036 44.567 57.7971 44.567 57.6907 44.5135C57.7439 44.567 57.8503 44.6205 57.9036 44.674C58.01 44.7275 58.1697 44.7811 58.2762 44.8881C59.2876 45.4233 60.299 45.9584 61.2039 46.7077C62.2685 47.6175 62.375 48.4737 61.5233 49.5441C61.1506 50.0257 60.6716 50.4538 59.9796 50.9355C58.6488 51.8453 57.1583 52.541 55.0824 53.1832C49.7061 54.9493 44.2233 55.645 39.6455 56.0731C37.463 56.2872 35.2273 56.3942 32.7787 56.4477C26.604 56.6083 21.068 56.3407 15.7981 55.645C13.5624 55.3774 10.6348 54.8957 7.7603 54.093C6.32307 53.6649 5.04553 53.2902 3.92769 52.434C3.12923 51.8988 2.91631 51.0425 3.39538 50.1327C3.66154 49.5441 4.19384 49.0624 4.56646 48.6878C4.93907 48.3667 5.36492 48.0456 5.73753 47.7245C5.84399 47.671 5.95046 47.5639 6.11015 47.5104Z" fill="white"/>
<path d="M53.6984 39.9648C56.0405 37.2889 58.0633 34.4525 59.6602 31.2415C60.299 29.9571 60.8845 28.6192 61.0974 27.1207C61.3636 25.1406 60.299 24.3378 58.5424 24.1773C57.531 24.1238 56.5728 24.3378 55.6147 24.5519C56.9454 23.7492 58.2762 23.0534 59.8731 22.9999C61.8959 22.9464 63.1202 24.4449 62.8008 26.532C62.5346 28.3516 61.683 29.9571 60.8313 31.5626C59.1279 34.7736 56.839 37.5565 54.071 39.9648C54.0177 40.0183 53.9645 40.0718 53.9113 40.0718C53.7516 40.2323 53.6984 40.1253 53.6984 39.9648Z" fill="white"/>
<path d="M53.8048 40.1788C53.7516 40.1788 53.7516 40.1788 53.6984 40.1788C53.6451 40.1253 53.5919 40.0718 53.5919 39.9647C56.0937 37.1283 58.0633 34.2919 59.5537 31.2415C60.1393 30.0641 60.778 28.6727 60.991 27.1742C61.0974 26.3179 60.991 25.6757 60.6183 25.1941C60.1925 24.6589 59.5005 24.3913 58.4891 24.3378C57.6374 24.2843 56.7857 24.4449 55.934 24.6589C55.8276 24.7124 55.6679 24.7124 55.5614 24.766L55.2953 24.8195L55.5082 24.7124C56.7325 23.9632 58.1697 23.1605 59.8199 23.1605C60.778 23.1605 61.6297 23.4816 62.162 24.1238C62.7476 24.766 62.9605 25.7293 62.8008 26.7996C62.5346 28.6192 61.683 30.2247 60.8313 31.8302C59.1279 34.9877 56.839 37.8241 54.071 40.2323C54.0177 40.2858 54.0177 40.2858 53.9645 40.3394C53.9645 40.3394 53.9113 40.3393 53.9113 40.3929C53.9113 40.1788 53.8581 40.1788 53.8048 40.1788ZM53.7516 39.9647C53.7516 40.0182 53.7516 40.0718 53.8048 40.1253C53.8581 40.1253 53.9113 40.1253 53.9645 40.1253C53.9645 40.1253 54.0177 40.1253 54.0177 40.0718C54.071 40.0182 54.071 40.0182 54.1242 39.9647C56.8922 37.5565 59.1279 34.7201 60.8313 31.6161C61.683 30.0106 62.4814 28.4051 62.8008 26.5855C62.9605 25.5687 62.7476 24.6589 62.2153 24.0167C61.683 23.428 60.8845 23.1069 59.9263 23.1069C58.3827 23.1069 57.0519 23.8027 55.8808 24.4984C55.934 24.4984 55.9873 24.4984 55.9873 24.4449C56.839 24.2843 57.6907 24.0702 58.5424 24.1238C59.5537 24.1773 60.299 24.4984 60.7248 25.0335C61.0974 25.5152 61.2571 26.2109 61.1507 27.1207C60.9377 28.6727 60.299 30.0641 59.7134 31.2415C58.1697 34.2919 56.2002 37.1283 53.7516 39.9647Z" fill="white"/>
<path d="M53.6984 39.9648C53.7516 40.0719 53.858 40.1254 53.9645 40.1254C53.379 40.6606 52.7402 41.1957 52.1547 41.7309L52.1014 41.6774C52.6337 41.0887 53.1661 40.5 53.6984 39.9648Z" fill="white"/>
<path d="M52.1547 41.7842L52.0482 41.6772L53.6984 39.9111L53.7516 39.9646C53.8048 40.0717 53.8581 40.1252 53.9645 40.1252H54.071L52.1547 41.7842ZM53.6984 40.0182L52.2079 41.6237L53.8581 40.1787C53.8048 40.1252 53.6984 40.0717 53.6984 40.0182Z" fill="white"/>
<path d="M52.2611 34.3457C52.2611 34.4527 52.3144 34.5063 52.4208 34.5063C52.2611 35.2555 51.9417 35.8977 51.6224 36.5934C51.8885 35.8442 52.0482 35.0949 52.2611 34.3457Z" fill="white"/>
<path d="M51.6224 36.5933L51.5691 36.5398C51.7288 36.0581 51.8885 35.63 51.995 35.1484C52.0482 34.8808 52.1547 34.5597 52.2079 34.2921L52.2611 34.1851L52.3144 34.2921C52.3676 34.3991 52.3676 34.3991 52.4208 34.4526H52.4741V34.5062C52.3144 35.1484 52.0482 35.8441 51.6224 36.5933ZM52.2611 34.4526C52.2079 34.7202 52.1014 34.9343 52.0482 35.2019C51.995 35.4695 51.8885 35.737 51.8353 36.0046C52.1014 35.4695 52.2611 34.9878 52.3676 34.5062C52.3144 34.5062 52.2611 34.5062 52.2611 34.4526Z" fill="white"/>
<path d="M79.8878 40.6606C79.0894 42.2661 78.2909 43.8181 77.4925 45.4236C77.386 45.5842 77.2795 45.6377 77.1198 45.6377C72.7549 45.6377 68.39 45.6377 64.0251 45.6377H63.9719C63.9719 45.2631 64.1848 45.156 64.5042 45.156C65.7285 45.156 66.4737 44.4603 66.9528 43.39C68.8691 39.0551 70.8386 34.7203 72.5952 30.3319C72.5952 30.2784 72.6485 30.2784 72.6485 30.2249C73.0743 28.8869 72.8082 28.4588 71.4242 28.4053C71.3177 28.4053 71.2112 28.4053 71.1048 28.3518C71.1048 28.0307 71.2645 27.8701 71.5839 27.8701C75.5762 27.8701 79.5685 27.8701 83.5075 27.8701C83.8269 27.8701 83.8801 27.9236 83.7737 28.2447C83.2414 29.4221 82.7623 30.653 82.2832 31.8304C82.1768 32.0444 82.0703 32.205 81.8041 32.0979C81.4848 31.9909 81.7509 31.7768 81.7509 31.6698C82.1235 29.9038 81.3251 28.8869 79.5152 28.8334C78.2909 28.7799 77.1198 28.7799 75.8955 28.7799C75.6294 28.7799 75.4697 28.8334 75.31 29.101C74.3519 31.2952 73.4469 33.4359 72.4888 35.5765C72.4888 35.6301 72.4888 35.6301 72.4888 35.7371C73.6599 35.7906 74.8309 35.8441 75.9488 35.4695C76.9602 35.1484 77.5457 34.3457 78.078 33.4894C78.2377 33.2218 78.3974 33.0077 78.77 33.1683C77.9715 35.0414 77.2263 36.8609 76.4278 38.734C76.3214 38.9481 76.2149 39.1622 76.1085 39.3762C76.0552 39.5903 75.8423 39.5903 75.7358 39.5368C75.5229 39.4833 75.6826 39.3227 75.6826 39.2157C75.8423 38.7875 76.002 38.3594 76.002 37.9313C76.002 37.2891 75.6294 36.8609 74.9906 36.7539C74.0857 36.6469 73.1808 36.6469 72.3291 36.6469C72.0629 36.6469 71.9565 36.8074 71.85 37.0215C70.9451 39.1622 69.9869 41.2493 69.082 43.39C68.7094 44.2463 68.9756 44.5674 69.8805 44.6209C71.3177 44.6209 72.7017 44.7279 74.1389 44.4603C76.3214 44.0322 77.8118 42.6943 79.0894 40.9817C79.3555 40.7677 79.462 40.5001 79.8878 40.6606Z" fill="white"/>
<path d="M77.1199 45.691C74.5115 45.691 71.9032 45.691 69.3482 45.691H64.0251C63.9719 45.691 63.9719 45.691 63.9719 45.6375H63.9186V45.584C63.9186 45.4234 63.9719 45.2629 64.0251 45.2094C64.1316 45.1023 64.2913 45.0488 64.5042 45.0488C64.5042 45.0488 64.5042 45.0488 64.5574 45.0488C65.6753 45.0488 66.4205 44.5137 66.8996 43.3363C67.2722 42.5335 67.5916 41.7843 67.9642 40.9815C69.5079 37.5029 71.1048 33.9173 72.542 30.2782V30.2247V30.1711C72.7549 29.4754 72.8082 29.1008 72.6485 28.8332C72.4888 28.5656 72.1162 28.4586 71.3709 28.4051C71.3177 28.4051 71.2112 28.4051 71.158 28.4051H70.9983V28.3516C70.9983 27.977 71.158 27.8164 71.5306 27.8164C75.0971 27.8164 79.0362 27.8164 83.4543 27.8164C83.614 27.8164 83.7205 27.8164 83.7737 27.9234C83.8269 28.0305 83.7737 28.1375 83.7205 28.2981C83.2414 29.4219 82.7623 30.5993 82.3365 31.6696L82.23 31.8837C82.0703 32.2583 81.8574 32.2583 81.6977 32.2048C81.5912 32.1513 81.538 32.1513 81.538 32.0442C81.4848 31.9372 81.538 31.8837 81.5912 31.7767C81.5912 31.7231 81.6445 31.7231 81.6445 31.6696C81.8042 30.8133 81.6977 30.1176 81.3783 29.636C81.0057 29.1543 80.3669 28.9403 79.5152 28.8867C78.8232 28.8867 78.1312 28.8332 77.4392 28.8332C76.9069 28.8332 76.4279 28.8332 75.8955 28.8332C75.6294 28.8332 75.5229 28.8867 75.3632 29.1543C74.7245 30.6528 74.0857 32.1513 73.4469 33.5962C73.1276 34.2919 72.8614 34.9341 72.542 35.6299V35.6834C72.542 35.6834 72.542 35.6834 72.542 35.7369H72.7549C73.8196 35.7904 74.8842 35.7904 75.9488 35.4693C77.0134 35.1482 77.5989 34.2919 78.0248 33.4892C78.1845 33.2216 78.3442 32.954 78.8232 33.1681H78.8765L78.2377 34.6666C77.6522 36.058 77.0666 37.3959 76.4811 38.7874C76.4279 38.8944 76.3746 38.9479 76.3746 39.0549C76.3214 39.162 76.2682 39.3225 76.2149 39.4296C76.1617 39.6436 76.002 39.6971 75.7359 39.6436C75.6294 39.6436 75.5762 39.5901 75.5762 39.5366C75.5229 39.4831 75.5762 39.376 75.6294 39.3225C75.6294 39.269 75.6826 39.269 75.6826 39.269C75.6826 39.162 75.7359 39.1085 75.7891 39.0014C75.8955 38.6803 76.002 38.3057 76.002 37.9846C76.002 37.3424 75.6294 36.9678 75.0439 36.8607C74.4051 36.7537 73.7131 36.7537 73.0211 36.7537C72.8082 36.7537 72.5952 36.7537 72.3291 36.7537C72.1162 36.7537 72.0097 36.8607 71.9032 37.0748C71.5839 37.8241 71.2645 38.5733 70.8919 39.3225C70.3063 40.6604 69.6676 42.0519 69.082 43.4433C68.9223 43.8715 68.8691 44.139 68.9756 44.2996C69.082 44.4601 69.3482 44.5672 69.774 44.5672C70.0402 44.5672 70.2531 44.5672 70.5192 44.5672C71.6903 44.5672 72.8614 44.6207 74.0325 44.4066C75.9488 44.032 77.4925 42.9081 78.9297 40.928L78.9829 40.8745C79.1426 40.6604 79.3023 40.3929 79.7282 40.6069L79.7814 40.6604L79.1958 41.7843C78.6103 42.9617 77.9715 44.2461 77.386 45.4234C77.4392 45.6375 77.3328 45.691 77.1199 45.691ZM64.0251 45.5305H69.3482C71.9565 45.5305 74.5648 45.5305 77.1199 45.5305C77.2795 45.5305 77.386 45.5305 77.4392 45.3699C78.0248 44.139 78.6635 42.9081 79.2491 41.7308L79.7814 40.714C79.5152 40.6069 79.4088 40.7675 79.2491 40.9815L79.1958 41.0351C77.7054 43.0687 76.1617 44.1926 74.1922 44.5672C73.0211 44.7812 71.7968 44.7812 70.6257 44.7277C70.4128 44.7277 70.1466 44.7277 69.9337 44.7277C69.4546 44.7277 69.1353 44.6207 69.0288 44.4066C68.8691 44.1926 68.9223 43.8715 69.1352 43.4433C69.7208 42.0519 70.3596 40.6604 70.9451 39.3225C71.2645 38.5733 71.5839 37.8241 71.9565 37.0748C72.0629 36.8607 72.1694 36.6467 72.4888 36.6467C72.7017 36.6467 72.9146 36.6467 73.1808 36.6467C73.8196 36.6467 74.5115 36.6467 75.2035 36.7537C75.8423 36.8607 76.2682 37.2889 76.2682 37.9846C76.2682 38.3592 76.1617 38.7338 76.0552 39.0549C76.002 39.162 76.002 39.2155 76.002 39.3225C76.002 39.376 75.9488 39.376 75.9488 39.4296C75.9488 39.4831 75.8955 39.5366 75.8955 39.5366C75.8955 39.5366 75.8955 39.5901 75.9488 39.5901C76.1085 39.6436 76.2149 39.5901 76.2682 39.4831C76.3214 39.3225 76.3746 39.2155 76.4279 39.1085C76.4811 39.0014 76.5343 38.9479 76.5343 38.8409C77.1198 37.4494 77.7054 36.1115 78.2909 34.7201L78.8765 33.3286C78.5571 33.2216 78.4506 33.3822 78.2909 33.6497C77.8118 34.4525 77.2263 35.3623 76.1617 35.6834C75.0971 36.0045 73.9792 35.951 72.9146 35.951H72.5952V35.8974C72.5952 35.8439 72.5952 35.8439 72.5952 35.7904C72.5952 35.7369 72.5952 35.7369 72.5952 35.6834C72.9146 34.9877 73.1808 34.3455 73.5002 33.6497C74.1389 32.2048 74.7777 30.6528 75.4165 29.2078C75.5762 28.8867 75.7891 28.8332 76.0552 28.8332C76.5875 28.8332 77.0666 28.8332 77.5989 28.8332C78.2909 28.8332 78.9829 28.8332 79.6749 28.8867C80.5798 28.9403 81.2718 29.2078 81.6445 29.6895C82.0171 30.1711 82.1235 30.9204 81.9638 31.8302C81.9638 31.8837 81.9106 31.9372 81.9106 31.9907C81.8574 32.0442 81.8574 32.0978 81.8574 32.1513C81.8574 32.2048 81.9106 32.2048 81.9638 32.2048C82.0703 32.2583 82.23 32.2583 82.3365 31.9372L82.4429 31.7231C82.922 30.5993 83.3478 29.4754 83.8269 28.3516C83.8802 28.2445 83.8801 28.1375 83.8801 28.084C83.8269 28.0305 83.6672 28.0305 83.614 28.0305C79.1426 28.0305 75.2568 28.0305 71.6903 28.0305C71.4242 28.0305 71.2645 28.1375 71.2645 28.4051H71.3177C71.3709 28.4051 71.4774 28.4051 71.5306 28.4051C72.2759 28.4586 72.7017 28.5656 72.8614 28.8867C73.0743 29.1543 73.0211 29.636 72.8082 30.3317C72.8082 30.3317 72.8082 30.3852 72.7549 30.3852V30.4387C71.2645 34.0244 69.7208 37.61 68.1771 41.1421C67.8045 41.9448 67.4851 42.6941 67.1125 43.4968C66.5802 44.7277 65.7285 45.3164 64.6106 45.2629C64.3977 45.2629 64.2913 45.3164 64.238 45.3699C64.0783 45.3164 64.0251 45.4234 64.0251 45.5305Z" fill="white"/>
<path d="M137.59 42.5332C137.643 42.9078 137.643 43.336 137.696 43.7106C138.016 44.995 139.293 45.5837 140.677 45.2091C141.902 44.888 142.647 43.6036 142.274 42.4262C142.114 41.784 141.742 41.1953 141.369 40.6601C140.943 40.0179 140.518 39.3757 140.145 38.68C139.08 36.5393 140.518 33.9705 142.86 33.7565C143.658 33.6494 144.403 33.81 145.095 34.1846C145.681 34.5057 146.213 34.5057 146.639 33.917C146.746 33.7565 146.905 33.6494 147.118 33.7565C147.384 33.8635 147.171 34.0776 147.118 34.2381C146.799 35.2549 146.426 36.2718 146.107 37.2886C146.054 37.5026 146 37.7167 145.681 37.6632C145.362 37.6097 145.521 37.3421 145.521 37.1815C145.521 36.6999 145.521 36.2182 145.415 35.7901C145.255 35.0944 144.829 34.5592 144.137 34.3987C143.392 34.2381 142.647 34.3987 142.168 35.0409C141.689 35.6831 141.635 36.3788 142.008 37.021C142.381 37.6097 142.753 38.1984 143.126 38.7335C143.605 39.4828 144.137 40.232 144.297 41.1418C144.67 43.0149 143.552 44.888 141.582 45.5837C140.358 46.0653 139.134 46.0118 137.962 45.4231C137.27 45.102 136.685 44.995 136.206 45.7442C136.099 45.9048 135.94 45.9583 135.78 45.8513C135.62 45.7442 135.727 45.5837 135.78 45.4766C136.153 44.2993 136.525 43.1219 136.898 41.9445C136.951 41.7305 137.058 41.5699 137.324 41.6234C137.643 41.677 137.483 41.9445 137.537 42.1051C137.643 42.2656 137.643 42.4262 137.59 42.5332C137.643 42.5332 137.643 42.5332 137.59 42.5332Z" fill="white"/>
<path d="M136.099 46.012C136.046 46.012 135.94 46.012 135.887 45.9585C135.727 45.8514 135.78 45.6909 135.833 45.5839V45.5303C135.993 45.0487 136.153 44.567 136.312 44.0854C136.525 43.3897 136.791 42.6939 137.004 41.9447C137.058 41.7842 137.164 41.5166 137.483 41.5701C137.803 41.6236 137.75 41.8377 137.75 41.9982C137.75 42.0517 137.75 42.1053 137.75 42.1053C137.75 42.2123 137.75 42.3193 137.75 42.4264C137.75 42.4799 137.75 42.5334 137.75 42.5334V42.5869H137.696C137.696 42.6939 137.696 42.801 137.696 42.908C137.696 43.1756 137.75 43.4432 137.803 43.7108C137.909 44.2459 138.229 44.6741 138.708 44.9952C139.24 45.3163 139.985 45.4233 140.73 45.2092C141.316 45.0487 141.795 44.6741 142.114 44.1389C142.381 43.6037 142.487 43.0686 142.327 42.4799C142.168 41.8377 141.795 41.249 141.422 40.7138C141.316 40.5533 141.21 40.3927 141.156 40.2857C140.837 39.804 140.518 39.2689 140.251 38.7337C139.719 37.7169 139.772 36.5395 140.305 35.5227C140.837 34.5059 141.902 33.8102 143.019 33.7031C143.871 33.5961 144.616 33.7566 145.255 34.1848C145.841 34.5594 146.32 34.4524 146.746 33.9172C146.905 33.7031 147.118 33.5961 147.278 33.7031C147.384 33.7566 147.384 33.8102 147.438 33.8637C147.491 33.9707 147.438 34.0777 147.384 34.1313C147.384 34.1848 147.331 34.1848 147.331 34.2383C147.012 35.1481 146.746 36.0579 146.426 36.9676L146.32 37.3423C146.266 37.5563 146.16 37.7704 145.841 37.7169C145.734 37.7169 145.681 37.6634 145.628 37.6099C145.574 37.5028 145.574 37.3958 145.628 37.2888C145.628 37.2352 145.628 37.1817 145.628 37.1817C145.628 36.7536 145.628 36.2719 145.521 35.8438C145.308 35.0946 144.882 34.6129 144.244 34.5059C143.445 34.3453 142.806 34.5594 142.327 35.1481C141.848 35.7903 141.795 36.4325 142.168 37.0747C142.381 37.4493 142.594 37.7704 142.86 38.145C143.019 38.3591 143.179 38.5732 143.286 38.8407L143.392 39.0548C143.818 39.7505 144.297 40.4462 144.457 41.3025C144.829 43.2291 143.711 45.1022 141.689 45.7979C140.411 46.2796 139.187 46.2261 138.069 45.6374C137.377 45.3163 136.845 45.2092 136.419 45.905C136.366 46.012 136.259 46.0655 136.153 46.0655C136.153 46.012 136.099 46.012 136.099 46.012ZM137.377 41.6771C137.217 41.6771 137.164 41.7842 137.111 41.9982C136.898 42.6939 136.632 43.4432 136.419 44.1389C136.259 44.6206 136.099 45.1022 135.94 45.5839C135.94 45.5839 135.94 45.6374 135.887 45.6374C135.833 45.7444 135.833 45.8514 135.887 45.905C135.94 45.9585 135.993 45.9585 136.046 45.9585C136.099 45.9585 136.153 45.905 136.206 45.8514C136.738 45.0487 137.377 45.2092 138.016 45.5303C139.134 46.0655 140.358 46.119 141.582 45.6909C143.498 44.9952 144.616 43.1756 144.244 41.3025C144.084 40.4998 143.658 39.804 143.232 39.1083L143.126 38.8943C142.966 38.6802 142.806 38.4126 142.7 38.1985C142.487 37.8774 142.221 37.5028 142.008 37.1282C141.582 36.4325 141.635 35.7368 142.168 35.041C142.647 34.3988 143.339 34.1848 144.19 34.3453C144.882 34.5059 145.308 34.9875 145.521 35.7903C145.628 36.2719 145.628 36.7001 145.628 37.1817C145.628 37.2352 145.628 37.2887 145.628 37.3423C145.628 37.3958 145.574 37.5028 145.628 37.5563C145.628 37.6099 145.681 37.6099 145.787 37.6099C146 37.6634 146.054 37.5563 146.16 37.2888L146.266 36.9141C146.586 36.0043 146.852 35.0946 147.171 34.1848C147.171 34.1313 147.225 34.0777 147.225 34.0777C147.278 34.0242 147.278 33.9172 147.278 33.9172C147.278 33.8637 147.225 33.8637 147.171 33.8637C147.012 33.7566 146.852 33.9172 146.799 34.0242C146.373 34.6129 145.841 34.7199 145.149 34.2918C144.51 33.9172 143.765 33.7566 142.966 33.8637C141.848 33.9707 140.89 34.6129 140.358 35.6297C139.826 36.593 139.772 37.7169 140.305 38.7337C140.571 39.2689 140.89 39.7505 141.21 40.2857C141.316 40.4462 141.422 40.6068 141.476 40.7138C141.848 41.249 142.221 41.8377 142.381 42.5334C142.54 43.1221 142.487 43.7643 142.168 44.2995C141.848 44.8346 141.316 45.2628 140.73 45.4233C139.932 45.6374 139.187 45.5303 138.601 45.2092C138.122 44.8881 137.75 44.46 137.643 43.8713C137.59 43.6037 137.59 43.3362 137.537 43.0686C137.537 42.9615 137.537 42.801 137.537 42.6939V42.6404H137.59V42.5869C137.59 42.4799 137.59 42.3728 137.59 42.3193C137.59 42.2658 137.59 42.2123 137.59 42.1588C137.59 41.9982 137.643 41.9447 137.43 41.8912C137.43 41.6771 137.377 41.6771 137.377 41.6771Z" fill="white"/>
<path d="M82.3365 42.5874C82.3365 44.0859 82.7623 44.8351 83.8269 45.1562C85.69 45.6914 87.2869 44.514 87.1272 42.6944C87.074 42.2663 86.9143 41.8917 86.7014 41.5171C86.1691 40.6608 85.6368 39.8045 85.1045 38.8947C84.3592 37.6103 84.3592 36.3259 85.2642 35.1486C86.1691 33.9177 87.4466 33.543 88.9371 33.7571C89.3629 33.8106 89.7355 34.0782 90.1081 34.2388C90.6404 34.5064 91.1195 34.3993 91.4389 33.9712C91.5986 33.7571 91.8115 33.5966 91.9712 33.7571C92.1841 33.9177 91.9712 34.1317 91.918 34.2923C91.5986 35.3091 91.226 36.2724 90.9066 37.2892C90.8534 37.5033 90.7469 37.7174 90.4808 37.6638C90.1614 37.6103 90.3211 37.3427 90.3211 37.1822C90.3211 36.647 90.3211 36.0583 90.1614 35.5232C89.7888 34.5064 88.7774 34.0782 87.7128 34.4528C86.7546 34.8275 86.2755 35.8978 86.7014 36.8611C87.1272 37.8244 87.8725 38.5736 88.3515 39.4834C89.4694 41.4635 89.4161 42.9085 88.2451 44.2999C86.8078 45.9054 84.8383 46.3871 82.8688 45.5308C82.6026 45.4238 82.3897 45.3167 82.1235 45.2632C81.6445 45.1562 81.3251 45.3703 81.0589 45.7449C80.9525 45.9054 80.7928 46.0125 80.5799 45.9054C80.3669 45.7984 80.5266 45.6378 80.5799 45.4773C80.9525 44.3534 81.3251 43.2296 81.6445 42.1057C81.6977 41.8917 81.6977 41.5706 82.0703 41.6241C82.4962 41.6776 82.23 41.9987 82.2832 42.2128C82.3365 42.3733 82.3365 42.4804 82.3365 42.5874Z" fill="white"/>
<path d="M80.7395 46.0123C80.6863 46.0123 80.6331 46.0123 80.5798 45.9588C80.3669 45.8518 80.4734 45.6377 80.5266 45.5307C80.5266 45.4772 80.5798 45.4772 80.5798 45.4236C80.846 44.6744 81.0589 43.8717 81.3251 43.1224C81.4315 42.8013 81.538 42.4267 81.6445 42.1056C81.6445 42.0521 81.6445 42.0521 81.6977 41.9986C81.7509 41.7845 81.8042 41.5169 82.1768 41.5704C82.2832 41.5704 82.3897 41.6239 82.3897 41.6775C82.4429 41.7845 82.4429 41.8915 82.3897 41.9986C82.3897 42.0521 82.3365 42.1591 82.3897 42.2126C82.3897 42.3197 82.3897 42.3732 82.3897 42.4802C82.3897 42.5337 82.3897 42.5337 82.3897 42.5872C82.3897 44.0857 82.8155 44.7814 83.8269 45.1025C84.7318 45.3701 85.5835 45.2096 86.2223 44.7279C86.8078 44.2463 87.074 43.497 87.0208 42.6943C86.9675 42.2661 86.8078 41.8915 86.5949 41.5169C86.3288 41.0888 86.1158 40.7142 85.8497 40.286C85.5835 39.8579 85.2641 39.3762 84.998 38.8946C84.1995 37.5567 84.2528 36.2723 85.1577 35.0414C86.0626 33.864 87.2869 33.3824 88.8838 33.5964C89.2032 33.6499 89.5758 33.8105 89.842 33.971C89.8952 34.0246 90.0017 34.0246 90.0549 34.0781C90.534 34.3457 90.9598 34.2386 91.3324 33.8105C91.4389 33.7035 91.6518 33.3824 91.9712 33.5964C92.1841 33.7035 92.0777 33.9175 91.9712 34.0781C91.9712 34.1316 91.918 34.1851 91.918 34.1851C91.7583 34.6132 91.5986 35.0949 91.4921 35.523C91.3324 36.0582 91.1195 36.6469 90.9598 37.1821C90.9066 37.3961 90.8001 37.6637 90.4275 37.6102C90.3211 37.6102 90.2678 37.5567 90.2146 37.5032C90.1614 37.3961 90.1614 37.2891 90.2146 37.1821C90.2146 37.1285 90.2146 37.075 90.2146 37.075C90.2146 37.0215 90.2146 36.9145 90.2146 36.8609C90.2146 36.3793 90.2146 35.8976 90.0549 35.4695C89.8952 34.9879 89.5758 34.6668 89.15 34.4527C88.7241 34.2386 88.1918 34.2386 87.7127 34.4527C87.2869 34.6132 86.9143 34.9343 86.7546 35.3625C86.5949 35.7906 86.5949 36.3258 86.7546 36.7539C86.9675 37.2891 87.3401 37.7707 87.6595 38.2524C87.9257 38.627 88.1918 38.9481 88.4047 39.3762C89.5226 41.4099 89.4694 42.9083 88.2983 44.2463C86.8611 45.8518 84.8383 46.3334 82.8688 45.5307C82.8155 45.4772 82.7091 45.4772 82.6558 45.4236C82.4961 45.3701 82.3365 45.2631 82.1235 45.2096C81.7509 45.1025 81.3783 45.2631 81.1122 45.6912C81.0057 45.9588 80.8992 46.0123 80.7395 46.0123ZM82.0703 41.6775C81.9106 41.6775 81.8574 41.7845 81.8042 41.9986C81.8042 42.0521 81.8042 42.1056 81.7509 42.1056C81.6445 42.4267 81.538 42.8013 81.4315 43.1224C81.1654 43.8717 80.9525 44.6744 80.6863 45.4236C80.6863 45.4772 80.6331 45.4772 80.6331 45.5307C80.5799 45.6912 80.5266 45.7447 80.6331 45.7983C80.7928 45.9053 80.9525 45.7447 81.0057 45.6377C81.3251 45.1561 81.6977 44.9955 82.1235 45.1025C82.2832 45.1561 82.4961 45.2096 82.6558 45.3166C82.7091 45.3701 82.8155 45.3701 82.8688 45.4236C84.7851 46.2264 86.7546 45.7447 88.1386 44.1928C89.3097 42.8548 89.3629 41.4634 88.2451 39.4833C88.0321 39.1087 87.766 38.734 87.5531 38.4129C87.2337 37.9313 86.8611 37.4496 86.5949 36.8609C86.382 36.3793 86.382 35.8441 86.5949 35.3625C86.8078 34.8808 87.1804 34.5597 87.6595 34.3457C88.1918 34.1316 88.7241 34.1316 89.2032 34.3457C89.6291 34.5597 90.0017 34.9343 90.1614 35.416C90.3211 35.8976 90.3211 36.3793 90.3211 36.8609C90.3211 36.9145 90.3211 37.0215 90.3211 37.075C90.3211 37.1285 90.3211 37.1821 90.3211 37.2356C90.3211 37.3426 90.2678 37.3961 90.3211 37.4496C90.3211 37.5032 90.3743 37.5032 90.4807 37.5032C90.6937 37.5567 90.7469 37.4496 90.8534 37.1821C91.0131 36.6469 91.226 36.0582 91.3857 35.523C91.5454 35.0949 91.7051 34.6132 91.8115 34.1851C91.8115 34.1316 91.8647 34.0781 91.8647 34.0246C91.9712 33.864 91.9712 33.8105 91.8647 33.7035C91.7583 33.6499 91.6518 33.5964 91.3857 33.9175C91.0131 34.3992 90.534 34.5062 89.9484 34.2386C89.8952 34.1851 89.7887 34.1851 89.7355 34.1316C89.4161 33.971 89.0967 33.8105 88.7774 33.757C87.2337 33.5429 86.0094 33.971 85.1577 35.1484C84.306 36.3258 84.2528 37.5567 84.998 38.8411C85.2641 39.3227 85.5835 39.7509 85.8497 40.2325C86.1158 40.6071 86.382 41.0353 86.5949 41.4634C86.8078 41.838 87.0208 42.2126 87.074 42.6943C87.1272 43.5506 86.8078 44.2998 86.2223 44.835C85.5303 45.3701 84.6254 45.5307 83.6672 45.2631C82.6026 44.942 82.1235 44.1392 82.1768 42.6408C82.1768 42.5872 82.1768 42.5872 82.1768 42.5337C82.1768 42.4267 82.1768 42.3732 82.1768 42.3197C82.1768 42.2661 82.1768 42.1591 82.1768 42.0521C82.1768 41.945 82.23 41.8915 82.1768 41.838C82.1768 41.7845 82.1235 41.7845 82.0171 41.7845C82.1235 41.731 82.0703 41.6775 82.0703 41.6775Z" fill="white"/>
<path d="M135.248 36.8603C135.301 36.4857 135.248 36.1111 135.141 35.79C134.982 35.0943 134.556 34.5591 133.864 34.3986C133.119 34.238 132.373 34.3986 131.894 35.0408C131.415 35.683 131.362 36.3787 131.735 37.0209C132.267 37.8771 132.852 38.7334 133.385 39.5897C133.864 40.3924 134.236 41.3022 134.13 42.2655C133.811 44.7808 131.043 46.4934 128.487 45.7441C128.168 45.6371 127.902 45.5301 127.583 45.423C126.837 45.1019 126.624 45.1554 126.092 45.7441C125.986 45.9047 125.826 46.0652 125.666 45.9582C125.4 45.8512 125.56 45.6371 125.613 45.4765C125.986 44.2992 126.358 43.1753 126.731 41.9979C126.784 41.7839 126.891 41.6233 127.157 41.6768C127.476 41.7304 127.37 41.9979 127.316 42.1585C127.263 42.5331 127.316 42.9077 127.316 43.2823C127.476 44.6203 128.168 45.316 129.446 45.3695C130.883 45.423 131.841 44.7273 132.107 43.4964C132.214 42.9612 132.054 42.4796 131.841 41.9444C131.362 40.9276 130.67 40.0713 130.084 39.0545C129.339 37.7701 129.286 36.5392 130.138 35.3083C131.043 34.0239 132.32 33.5958 133.811 33.8099C134.236 33.8634 134.662 34.131 135.035 34.2915C135.567 34.5591 135.993 34.4521 136.366 34.0239C136.525 33.8634 136.685 33.6493 136.898 33.7563C137.164 33.9169 136.898 34.131 136.845 34.345C136.525 35.3083 136.206 36.2181 135.887 37.1814C135.833 37.3955 135.833 37.7701 135.407 37.6631C135.035 37.556 135.301 37.2349 135.248 37.0744C135.248 36.9674 135.248 36.9138 135.248 36.8603Z" fill="white"/>
<path d="M125.719 46.0119C125.666 46.0119 125.613 46.0119 125.613 45.9584C125.347 45.8513 125.453 45.6373 125.507 45.4767C125.507 45.4232 125.507 45.4232 125.56 45.3697C125.719 44.888 125.879 44.4064 126.039 43.9247C126.252 43.229 126.465 42.5333 126.678 41.8376C126.731 41.677 126.837 41.4094 127.157 41.463C127.263 41.463 127.37 41.5165 127.37 41.57C127.423 41.677 127.423 41.7841 127.37 41.8911C127.37 41.9446 127.37 41.9446 127.37 41.9981C127.316 42.3728 127.37 42.7474 127.37 43.0685C127.529 44.4064 128.168 45.0486 129.446 45.1021C130.83 45.1556 131.788 44.5134 132.054 43.229C132.16 42.6403 132.001 42.1587 131.788 41.7305C131.522 41.1419 131.096 40.5532 130.776 39.9645C130.563 39.5899 130.297 39.2153 130.084 38.8406C129.286 37.5027 129.339 36.2183 130.138 35.0409C130.989 33.8101 132.267 33.2749 133.864 33.489C134.183 33.5425 134.503 33.703 134.822 33.8636C134.928 33.9171 134.982 33.9706 135.088 34.0241C135.567 34.2382 135.993 34.1847 136.312 33.7565C136.472 33.596 136.632 33.3284 136.898 33.489C137.004 33.5425 137.058 33.596 137.058 33.6495C137.111 33.7565 137.004 33.8636 136.951 33.9706C136.898 34.0241 136.898 34.0776 136.898 34.1312C136.632 35.0409 136.312 35.8972 136.046 36.807L135.993 37.0211C135.993 37.0746 135.993 37.1281 135.94 37.1816C135.887 37.3957 135.833 37.6633 135.461 37.5562C135.141 37.5027 135.195 37.2887 135.248 37.1281C135.248 37.0211 135.301 36.9676 135.248 36.914C135.248 36.8605 135.248 36.807 135.248 36.7535V36.7C135.248 36.3789 135.248 36.0042 135.141 35.6296C134.928 34.8804 134.503 34.3987 133.864 34.2917C133.278 34.1847 132.533 34.1847 131.947 34.9339C131.468 35.5761 131.415 36.2183 131.788 36.8605C132.054 37.3422 132.373 37.8238 132.693 38.3055C132.959 38.6801 133.172 39.0547 133.438 39.4293C134.023 40.3926 134.29 41.2489 134.183 42.1052C134.023 43.2825 133.331 44.3529 132.267 45.0486C131.149 45.7978 129.765 46.0119 128.487 45.6373C128.221 45.5838 127.902 45.4232 127.583 45.3162C126.891 44.9951 126.624 45.0486 126.145 45.5838L126.092 45.6373C125.986 45.9049 125.879 46.0119 125.719 46.0119ZM126.997 41.677C126.837 41.677 126.784 41.7841 126.731 41.9981C126.518 42.6939 126.305 43.3896 126.092 44.0853C125.932 44.5669 125.773 45.0486 125.613 45.5302C125.613 45.5838 125.613 45.5838 125.56 45.6373C125.507 45.7978 125.453 45.8513 125.613 45.9584C125.719 46.0119 125.826 45.9584 125.932 45.7978L125.986 45.7443C126.518 45.1556 126.784 45.1021 127.529 45.4232C127.902 45.5838 128.168 45.6908 128.434 45.7443C129.659 46.1189 131.043 45.9049 132.107 45.1556C133.119 44.4599 133.811 43.4431 133.97 42.2657C134.077 41.463 133.864 40.6067 133.278 39.6434C133.065 39.2688 132.799 38.8942 132.533 38.5195C132.214 38.0379 131.894 37.5562 131.628 37.0746C131.202 36.3789 131.255 35.6831 131.788 34.9874C132.267 34.3452 132.959 34.1312 133.811 34.2917C134.503 34.4523 134.928 34.9339 135.141 35.7367C135.248 36.1113 135.301 36.4859 135.248 36.8605V36.914C135.248 36.9676 135.248 36.9676 135.248 37.0211C135.301 37.1281 135.248 37.2351 135.248 37.2887C135.195 37.4492 135.195 37.5562 135.354 37.5562C135.62 37.6098 135.62 37.5027 135.727 37.2351C135.727 37.1816 135.727 37.1281 135.78 37.0746L135.833 36.8605C136.153 36.0042 136.419 35.0945 136.685 34.2382C136.685 34.1847 136.738 34.1312 136.738 34.0776C136.791 33.9706 136.845 33.9171 136.845 33.8101C136.845 33.7565 136.791 33.7565 136.738 33.703C136.579 33.596 136.472 33.7565 136.259 33.9171C135.887 34.3452 135.407 34.4523 134.875 34.1847C134.769 34.1312 134.715 34.0776 134.609 34.0241C134.29 33.8636 133.97 33.703 133.651 33.6495C132.107 33.4354 130.883 33.9171 130.031 35.148C129.233 36.2718 129.179 37.5027 129.978 38.7871C130.191 39.1617 130.457 39.5364 130.67 39.911C131.043 40.4461 131.415 41.0348 131.735 41.677C131.947 42.1052 132.16 42.6403 132.001 43.229C131.735 44.5134 130.723 45.2627 129.286 45.1556C127.955 45.1021 127.263 44.4064 127.103 43.015C127.05 42.6403 127.05 42.2657 127.103 41.8911C127.103 41.8376 127.103 41.7841 127.103 41.7841C127.103 41.677 127.157 41.6235 127.103 41.57C127.103 41.5165 127.05 41.5165 126.944 41.5165C127.05 41.677 127.05 41.677 126.997 41.677Z" fill="white"/>
<path d="M112.146 33.7034C111.294 35.6835 110.442 37.5566 109.591 39.4832C109.857 39.4832 109.91 39.2692 109.963 39.1621C111.294 37.4496 112.625 35.737 114.381 34.4526C114.86 34.1315 115.286 33.7569 115.872 33.7034C116.564 33.6499 116.883 33.9175 116.777 34.6132C116.67 35.3624 116.404 36.0581 115.872 36.6468C115.659 36.9144 115.339 37.075 114.967 36.9679C114.594 36.8609 114.488 36.5398 114.488 36.1652C114.488 35.6835 114.222 35.523 113.796 35.7906C113.53 35.9511 113.263 36.1652 113.051 36.3792C110.602 38.841 108.579 41.5704 107.355 44.8884C107.142 45.4771 106.876 45.6912 106.237 45.6377C105.864 45.5841 105.492 45.6377 105.066 45.6377C105.598 44.4068 106.131 43.1759 106.663 41.9985C107.515 40.0719 108.366 38.1453 109.165 36.1652C109.591 35.0413 109.324 34.7202 108.1 34.8273C107.94 34.8273 107.727 35.0413 107.621 34.7737C107.515 34.6132 107.515 34.3456 107.834 34.2921C109.218 34.1315 110.602 33.9175 112.146 33.7034Z" fill="white"/>
<path d="M106.503 45.691C106.45 45.691 106.343 45.691 106.29 45.691C106.077 45.6375 105.811 45.691 105.545 45.691C105.385 45.691 105.279 45.691 105.119 45.691H105.013L105.066 45.584C105.226 45.2093 105.385 44.7812 105.545 44.4066C105.918 43.5503 106.29 42.7476 106.61 41.9448C106.823 41.4632 107.035 40.9815 107.248 40.4999C107.887 39.0549 108.526 37.61 109.111 36.1115C109.324 35.5763 109.378 35.2552 109.218 35.0411C109.058 34.8271 108.739 34.7736 108.1 34.8806C108.047 34.8806 107.994 34.8806 107.994 34.9341C107.887 34.9876 107.674 35.0411 107.568 34.8271C107.515 34.72 107.461 34.5595 107.515 34.4525C107.568 34.3454 107.674 34.2919 107.781 34.2919C108.792 34.1314 109.803 33.9708 110.868 33.8103L112.199 33.5962L109.644 39.376C109.75 39.3225 109.803 39.269 109.857 39.2155C109.857 39.1619 109.91 39.1619 109.91 39.1084C111.134 37.5029 112.518 35.7369 114.328 34.3989C114.807 34.0243 115.286 33.7032 115.872 33.6497C116.244 33.5962 116.511 33.6497 116.67 33.8638C116.83 34.0243 116.883 34.2919 116.83 34.6665C116.723 35.4693 116.404 36.165 115.925 36.7537C115.606 37.0748 115.286 37.2353 114.914 37.1283C114.435 36.9678 114.381 36.5931 114.381 36.2185C114.381 36.0044 114.328 35.8439 114.222 35.7904C114.115 35.7369 113.955 35.7369 113.743 35.8974C113.53 36.058 113.263 36.2185 112.997 36.4861C110.283 39.2155 108.419 41.9983 107.302 44.9418C107.195 45.4769 106.929 45.691 106.503 45.691ZM105.864 45.5304C106.024 45.5304 106.131 45.5304 106.29 45.5304C106.823 45.584 107.089 45.4234 107.302 44.8347C108.419 41.8378 110.283 39.0549 112.997 36.3255C113.263 36.058 113.53 35.8439 113.743 35.6833C114.009 35.5228 114.168 35.5228 114.328 35.5763C114.488 35.6833 114.541 35.8439 114.541 36.1115C114.541 36.5396 114.701 36.8072 114.967 36.8607C115.286 36.9678 115.552 36.8607 115.819 36.5396C116.298 36.0044 116.617 35.3087 116.723 34.5595C116.777 34.2384 116.723 34.0243 116.564 33.8638C116.404 33.7032 116.191 33.6497 115.872 33.7032C115.339 33.7567 114.86 34.0778 114.381 34.4525C112.571 35.7904 111.187 37.5564 109.963 39.1619L109.91 39.2155C109.857 39.3225 109.75 39.4295 109.537 39.483H109.431L111.986 33.7032L110.868 33.8638C109.803 34.0243 108.792 34.1849 107.781 34.3454C107.674 34.3454 107.621 34.3989 107.568 34.4525C107.515 34.5595 107.568 34.6665 107.621 34.72C107.674 34.8271 107.727 34.8271 107.887 34.7736C107.94 34.7736 107.994 34.72 108.047 34.72C108.686 34.6665 109.058 34.72 109.271 34.9341C109.431 35.1482 109.431 35.5228 109.165 36.1115C108.579 37.5564 107.94 39.0549 107.302 40.4999C107.089 40.9815 106.876 41.4632 106.663 41.9448C106.29 42.7476 105.971 43.6038 105.598 44.4066C105.439 44.7812 105.279 45.1023 105.119 45.4769C105.226 45.4769 105.332 45.4769 105.439 45.4769C105.651 45.5304 105.758 45.5304 105.864 45.5304Z" fill="white"/>
<path d="M127.476 50.4007C127.476 49.9726 127.476 49.5445 127.476 49.1163C127.476 48.9558 127.37 48.6347 127.636 48.5812C127.902 48.5812 128.275 48.3136 128.487 48.7417C128.594 49.0093 128.7 48.7952 128.807 48.7417C129.552 48.3671 130.244 48.2601 130.883 48.9023C131.096 49.1163 131.149 48.9558 131.255 48.8488C131.735 48.4741 132.214 48.3671 132.799 48.5277C133.331 48.6347 133.704 49.0093 133.757 49.598C133.81 50.3472 133.757 51.15 133.811 51.8992C133.811 52.3809 133.491 52.2203 133.278 52.2203C133.012 52.2203 132.799 52.2738 132.799 51.8992C132.799 51.3641 132.799 50.7754 132.799 50.2402C132.799 49.7585 132.693 49.3304 132.107 49.3304C131.628 49.3304 131.255 49.705 131.255 50.2402C131.202 50.7754 131.202 51.3105 131.255 51.8457C131.309 52.2738 131.043 52.2738 130.723 52.2738C130.404 52.2738 130.191 52.2203 130.191 51.7922C130.191 51.2035 130.191 50.6683 130.191 50.0796C130.191 49.6515 129.978 49.3304 129.552 49.3304C129.073 49.2769 128.807 49.5445 128.647 49.9726C128.487 50.5613 128.541 51.0965 128.594 51.6852C128.594 52.0598 128.541 52.2738 128.062 52.2738C127.583 52.2738 127.583 52.0598 127.583 51.6852C127.476 51.257 127.476 50.8289 127.476 50.4007Z" fill="white"/>
<path d="M127.902 52.3806C127.689 52.3806 127.583 52.3271 127.476 52.2736C127.37 52.1666 127.37 51.9525 127.37 51.7384C127.37 51.4173 127.37 51.1497 127.37 50.8286C127.37 50.7216 127.37 50.5611 127.37 50.454C127.37 50.347 127.37 50.1864 127.37 50.0794C127.37 49.7583 127.37 49.4907 127.37 49.1696C127.37 49.1161 127.37 49.0626 127.37 49.0091C127.37 48.902 127.316 48.7415 127.423 48.688C127.476 48.6345 127.529 48.6345 127.583 48.5809C127.636 48.5809 127.689 48.5809 127.795 48.5274C128.062 48.4739 128.328 48.4204 128.487 48.7415C128.541 48.795 128.541 48.8485 128.541 48.8485C128.541 48.8485 128.594 48.8485 128.647 48.795L128.7 48.7415C129.605 48.2598 130.244 48.3669 130.83 48.9556C130.883 49.0091 130.936 49.0091 130.936 49.0091C130.989 49.0091 130.989 48.9556 131.043 48.902L131.096 48.8485C131.575 48.4739 132.107 48.3669 132.693 48.4739C133.331 48.6345 133.651 49.0091 133.651 49.5978C133.651 50.0259 133.651 50.454 133.651 50.8822C133.651 51.2033 133.651 51.5779 133.651 51.9525C133.651 52.113 133.651 52.2201 133.544 52.2736C133.438 52.3806 133.278 52.3806 133.172 52.3806C133.119 52.3806 133.065 52.3806 133.012 52.3806H132.959C132.799 52.3806 132.639 52.3806 132.533 52.2736C132.48 52.2201 132.427 52.113 132.427 51.9525C132.427 51.6314 132.427 51.2568 132.427 50.9357C132.427 50.7216 132.427 50.5075 132.427 50.2935C132.427 49.7048 132.214 49.4372 131.788 49.4372C131.362 49.4372 130.989 49.7583 130.989 50.2935C130.936 50.9357 130.936 51.4173 130.989 51.899C130.989 52.0595 130.989 52.2201 130.883 52.2736C130.776 52.3806 130.617 52.3806 130.457 52.3806H130.404C130.244 52.3806 130.031 52.3806 129.925 52.2736C129.818 52.1666 129.818 52.0595 129.818 51.8455C129.818 51.3103 129.818 50.7216 129.818 50.1864V50.1329C129.818 49.8118 129.712 49.4907 129.233 49.4372C128.807 49.3837 128.541 49.5978 128.434 50.0794C128.328 50.5611 128.328 51.0427 128.328 51.4708C128.328 51.5779 128.328 51.6849 128.328 51.7384C128.328 51.9525 128.328 52.113 128.221 52.2201C128.328 52.3271 128.168 52.3806 127.902 52.3806C127.955 52.3806 127.902 52.3806 127.902 52.3806ZM128.062 48.5809C127.955 48.5809 127.902 48.5809 127.795 48.6345C127.742 48.6345 127.636 48.688 127.583 48.688C127.529 48.688 127.529 48.688 127.476 48.7415C127.423 48.795 127.476 48.902 127.476 49.0091C127.476 49.0626 127.476 49.1161 127.476 49.1696C127.476 49.4907 127.476 49.7583 127.476 50.0794C127.476 50.1864 127.476 50.347 127.476 50.454C127.476 50.5611 127.476 50.7216 127.476 50.8286C127.476 51.1497 127.476 51.4173 127.476 51.7384C127.476 51.9525 127.476 52.113 127.529 52.1666C127.583 52.2201 127.689 52.2736 127.902 52.2736C128.115 52.2736 128.221 52.2201 128.275 52.1666C128.328 52.113 128.381 51.9525 128.381 51.7384C128.381 51.6314 128.381 51.5244 128.381 51.4708C128.381 50.9892 128.328 50.5075 128.487 50.0259C128.594 49.5442 128.967 49.2767 129.446 49.3302C129.871 49.3837 130.138 49.6513 130.138 50.1329V50.1864C130.138 50.7216 130.191 51.3103 130.138 51.8455C130.138 52.006 130.138 52.113 130.191 52.1666C130.244 52.2201 130.351 52.2736 130.563 52.2201H130.617C130.776 52.2201 130.883 52.2201 130.989 52.1131C131.043 52.0595 131.043 51.9525 131.043 51.8455C130.989 51.3638 130.989 50.8822 131.043 50.24C131.096 49.6513 131.468 49.2231 132.001 49.2767C132.693 49.3302 132.799 49.8653 132.746 50.2935C132.746 50.5075 132.746 50.7216 132.746 50.9357C132.746 51.2568 132.746 51.6314 132.746 51.9525C132.746 52.0595 132.746 52.1666 132.799 52.1666C132.852 52.2201 132.959 52.2201 133.119 52.2201H133.172C133.225 52.2201 133.278 52.2201 133.331 52.2201C133.438 52.2201 133.544 52.2201 133.598 52.1666C133.651 52.113 133.651 52.0595 133.651 51.9525C133.651 51.5779 133.651 51.2568 133.651 50.8822C133.651 50.454 133.651 50.0259 133.651 49.5978C133.651 49.0626 133.331 48.7415 132.746 48.5809C132.214 48.4739 131.681 48.5809 131.255 48.902L131.202 48.9556C131.149 49.0091 131.096 49.0626 130.989 49.0626C130.936 49.0626 130.83 49.0091 130.776 48.9556C130.244 48.4204 129.605 48.3669 128.807 48.795C128.807 48.795 128.754 48.795 128.754 48.8485C128.7 48.902 128.647 48.9556 128.541 48.902C128.487 48.902 128.434 48.8485 128.381 48.7415C128.328 48.6345 128.221 48.5809 128.062 48.5809Z" fill="white"/>
<path d="M157.072 49.1162C156.753 49.4908 156.487 49.8119 156.008 49.4373C155.848 49.3303 155.529 49.2768 155.422 49.5444C155.316 49.8119 155.635 49.8119 155.795 49.919C156.061 50.0795 156.38 50.1866 156.646 50.3471C157.392 50.8288 157.285 51.7921 156.54 52.1667C155.954 52.4878 155.369 52.4343 154.783 52.1132C154.624 52.0061 154.198 51.8991 154.411 51.578C154.57 51.3639 154.783 50.8288 155.262 51.3104C155.369 51.4175 155.529 51.4175 155.688 51.471C155.901 51.5245 156.061 51.471 156.167 51.2569C156.274 51.0428 156.061 50.9358 155.901 50.8288C155.582 50.6147 155.209 50.5077 154.89 50.2936C154.57 50.0795 154.358 49.7584 154.411 49.2768C154.517 48.8486 154.837 48.5811 155.262 48.474C155.954 48.367 156.54 48.5811 157.072 49.1162Z" fill="white"/>
<path d="M155.688 52.4341C155.369 52.4341 155.05 52.327 154.73 52.1665C154.677 52.1665 154.677 52.113 154.624 52.113C154.464 52.0595 154.304 51.9524 154.251 51.8454C154.251 51.7384 154.251 51.6848 154.304 51.5778C154.304 51.5243 154.358 51.5243 154.358 51.4708C154.464 51.3102 154.57 51.0962 154.783 51.0962C154.943 51.0962 155.05 51.1497 155.209 51.3102C155.316 51.4173 155.475 51.4173 155.582 51.4708H155.635C155.742 51.4708 155.954 51.5243 156.061 51.3102C156.114 51.1497 156.008 51.0962 155.848 50.9891H155.795C155.688 50.9356 155.529 50.8286 155.422 50.7751C155.209 50.668 154.996 50.561 154.783 50.4539C154.358 50.1864 154.198 49.8117 154.304 49.3836C154.411 48.9555 154.677 48.6344 155.156 48.5273C155.901 48.3133 156.487 48.5273 157.019 49.0625L157.072 49.116L157.019 49.1695L156.966 49.116L157.019 49.1695C156.7 49.5442 156.38 49.9188 155.848 49.4906C155.742 49.4371 155.635 49.3836 155.529 49.4371C155.475 49.4371 155.422 49.4906 155.369 49.5977C155.316 49.7047 155.422 49.7582 155.582 49.8653C155.635 49.8653 155.688 49.9188 155.688 49.9188C155.795 49.9723 155.901 50.0258 156.008 50.0793C156.167 50.1864 156.38 50.2399 156.54 50.3469C156.913 50.561 157.072 50.9356 157.072 51.3637C157.072 51.7384 156.806 52.113 156.434 52.2735C156.274 52.3806 155.954 52.4341 155.688 52.4341ZM154.89 51.2032C154.89 51.2032 154.837 51.2032 154.89 51.2032C154.73 51.2032 154.624 51.4173 154.517 51.5243C154.517 51.5778 154.464 51.5778 154.464 51.6313C154.411 51.6848 154.411 51.7384 154.411 51.7919C154.464 51.8989 154.57 51.9524 154.73 52.0059C154.783 52.0059 154.837 52.0595 154.837 52.0595C155.369 52.3806 155.954 52.3806 156.54 52.113C156.913 51.9524 157.126 51.6313 157.126 51.2567C157.126 50.9356 156.966 50.561 156.646 50.3469C156.487 50.2399 156.327 50.1328 156.114 50.0793C156.008 50.0258 155.901 49.9723 155.795 49.9188C155.742 49.9188 155.742 49.8653 155.688 49.8653C155.529 49.8117 155.316 49.7047 155.369 49.4906C155.422 49.3836 155.475 49.2766 155.582 49.2766C155.742 49.2231 155.901 49.2766 156.008 49.3836C156.434 49.7047 156.7 49.4371 156.966 49.116C156.487 48.6344 155.901 48.4738 155.262 48.6344C154.837 48.7414 154.57 49.009 154.464 49.3836C154.358 49.7582 154.517 50.0793 154.89 50.2934C155.103 50.4004 155.316 50.5075 155.475 50.6145C155.635 50.668 155.742 50.7215 155.901 50.8286H155.954C156.114 50.9356 156.327 51.0426 156.221 51.3102C156.114 51.5243 155.954 51.5778 155.688 51.5243H155.635C155.475 51.4708 155.316 51.4708 155.209 51.3637C155.05 51.2567 154.943 51.2032 154.89 51.2032Z" fill="white"/>
<path d="M105.013 35.844C104.853 34.5596 103.948 33.7568 102.671 33.7568C101.393 33.7568 100.382 34.292 99.4235 35.0412C98.838 35.5229 98.3057 36.0045 97.7201 36.4862C97.6669 36.4862 97.6669 36.4327 97.6137 36.4327C97.9863 35.5764 98.3589 34.6666 98.7315 33.8104C98.5186 33.7568 98.3589 33.8104 98.146 33.8104C97.0281 33.9709 95.8571 34.185 94.7392 34.3455C94.4731 34.399 94.1537 34.3455 94.2069 34.7201C94.2601 35.1483 94.5795 34.8272 94.7924 34.8272C95.857 34.7201 96.1764 35.0948 95.7506 36.1116C95.6974 36.2721 95.6441 36.4327 95.5377 36.6467C93.7811 40.6605 92.0244 44.6743 90.3211 48.688C89.842 49.8654 89.2564 50.9357 87.766 50.8822C87.4998 50.8822 87.3934 51.0963 87.3934 51.3104C87.3934 51.5244 87.6595 51.4174 87.766 51.4174C89.4694 51.4174 91.226 51.4174 92.9294 51.4174C93.0358 51.4174 93.0891 51.4174 93.1955 51.4174C93.4617 51.4174 93.5149 51.2568 93.5149 51.0428C93.5149 50.8287 93.302 50.8822 93.1955 50.8822C92.9826 50.8287 92.7697 50.8287 92.5567 50.8287C91.8647 50.7217 91.5986 50.3471 91.8647 49.7049C92.3971 48.3134 93.0358 46.9755 93.6214 45.5841C93.7278 45.37 93.8343 45.3165 94.0472 45.4235C95.4844 46.2263 96.9749 46.0122 98.3589 45.4235C100.967 44.2997 102.671 42.266 104.055 39.8578C104.747 38.6269 105.172 37.2889 105.013 35.844ZM101.393 40.9816C100.541 42.4801 99.53 43.818 98.0927 44.7278C96.8152 45.5305 95.5377 45.5305 94.6327 44.7813C94.3134 44.5137 94.2069 44.2997 94.4198 43.8715C95.0054 42.5871 95.5377 41.2492 96.1764 39.9648C96.9749 38.2522 98.0927 36.8073 99.5832 35.6834C99.9558 35.4159 100.382 35.2018 100.808 35.0412C102.138 34.6666 102.937 35.2553 102.883 36.8073C102.777 38.2522 102.138 39.6437 101.393 40.9816Z" fill="white"/>
<path d="M87.5531 51.4708C87.4998 51.4708 87.4466 51.4708 87.3934 51.4172C87.3401 51.3637 87.3401 51.3102 87.3401 51.2567C87.3401 51.1497 87.3934 50.9891 87.4466 50.9356C87.4998 50.8286 87.6063 50.8286 87.766 50.8286C89.2032 50.8821 89.7355 49.8653 90.2678 48.6879C91.4921 45.905 92.7164 43.0686 93.8875 40.3928C94.4198 39.1619 94.9521 37.931 95.4844 36.7001C95.5377 36.5396 95.6441 36.3255 95.6973 36.2185C95.857 35.7368 95.9103 35.4157 95.7506 35.2552C95.5909 35.0946 95.2715 34.9876 94.7392 35.0411C94.686 35.0411 94.6327 35.0946 94.5795 35.0946C94.473 35.1481 94.3133 35.2016 94.2069 35.1481C94.1537 35.0946 94.1004 35.0411 94.1004 34.8805C94.1004 34.7735 94.1004 34.6665 94.1537 34.613C94.2601 34.5059 94.4198 34.4524 94.5795 34.4524C94.6327 34.4524 94.6327 34.4524 94.686 34.4524C95.6973 34.2919 96.7087 34.1313 97.7201 33.9708L98.0927 33.9172C98.1459 33.9172 98.146 33.9172 98.1992 33.9172C98.3589 33.8637 98.5186 33.8637 98.6783 33.9172H98.7315L97.6136 36.5396C97.7733 36.379 97.933 36.272 98.0927 36.1114C98.4653 35.7903 98.838 35.4157 99.2638 35.0946C100.382 34.1848 101.446 33.7567 102.564 33.7567C103.842 33.7567 104.8 34.613 104.959 35.8974C105.119 37.1818 104.8 38.5197 104.001 39.9646C102.404 42.801 100.595 44.6206 98.3056 45.5839C96.6555 46.2796 95.2183 46.2796 93.9407 45.5839C93.8343 45.5304 93.781 45.5304 93.7278 45.5304C93.6746 45.5304 93.6213 45.5839 93.6213 45.6909C93.4084 46.2261 93.1423 46.8148 92.9293 47.35C92.61 48.1527 92.2374 48.9555 91.918 49.8117C91.8115 50.0793 91.8115 50.2934 91.8647 50.5075C91.9712 50.668 92.1841 50.8286 92.5567 50.8821C92.6632 50.8821 92.7697 50.9356 92.8761 50.9356C92.9826 50.9356 93.089 50.9356 93.1955 50.9891C93.1955 50.9891 93.2487 50.9891 93.302 50.9891C93.3552 50.9891 93.4617 50.9891 93.5149 51.0426C93.5681 51.0961 93.5681 51.1497 93.5681 51.2032C93.5681 51.3637 93.5149 51.4708 93.4617 51.5243C93.4084 51.5778 93.302 51.6313 93.1955 51.6313C93.1423 51.6313 93.089 51.6313 93.0358 51.6313C92.9826 51.6313 92.9826 51.6313 92.9293 51.6313H91.9712C90.5872 51.6313 89.15 51.6313 87.766 51.6313C87.766 51.6313 87.7128 51.6313 87.6595 51.6313C87.6595 51.4708 87.6063 51.4708 87.5531 51.4708ZM87.766 50.9356C87.6595 50.9356 87.6063 50.9891 87.5531 51.0426C87.4998 51.0961 87.4466 51.2032 87.4998 51.3102C87.4998 51.3637 87.4998 51.3637 87.5531 51.3637C87.6063 51.4172 87.6595 51.3637 87.766 51.3637C87.8192 51.3637 87.8192 51.3637 87.8724 51.3637C89.2564 51.3637 90.6937 51.3637 92.0777 51.3637H93.0358C93.089 51.3637 93.089 51.3637 93.1423 51.3637C93.1955 51.3637 93.2487 51.3637 93.302 51.3637C93.4084 51.3637 93.4617 51.3637 93.5149 51.3102C93.5681 51.2567 93.5681 51.1497 93.5681 51.0961C93.5681 51.0426 93.5681 51.0426 93.5681 50.9891C93.5681 50.9891 93.5149 50.9891 93.4084 50.9891C93.3552 50.9891 93.3552 50.9891 93.302 50.9891C93.1955 50.9891 93.089 50.9891 92.9826 50.9356C92.8761 50.9356 92.7697 50.9356 92.6632 50.8821C92.2906 50.8286 92.0244 50.668 91.918 50.4539C91.8115 50.2399 91.8115 49.9723 91.918 49.6512C92.2374 48.8484 92.61 47.9922 92.9293 47.1894C93.1423 46.6543 93.4084 46.0656 93.6213 45.5304C93.6746 45.3698 93.7278 45.3163 93.8343 45.3163C93.9407 45.2628 94.0472 45.3163 94.1537 45.3698C95.378 46.0656 96.8152 46.0656 98.4121 45.3698C100.701 44.4065 102.458 42.6405 104.055 39.8041C104.853 38.4127 105.172 37.0747 105.013 35.7903C104.906 34.5594 103.948 33.7567 102.724 33.7567C101.659 33.7567 100.648 34.1313 99.5299 35.0411C99.1573 35.3622 98.7315 35.6833 98.3589 36.0044C98.1992 36.165 98.0395 36.3255 97.8266 36.4325L97.7733 36.4861L97.6136 36.379L98.7315 33.7567C98.625 33.7032 98.4653 33.7567 98.3589 33.7567C98.3056 33.7567 98.3056 33.7567 98.2524 33.7567L97.8798 33.8102C96.8684 33.9708 95.857 34.1313 94.8457 34.2919C94.7924 34.2919 94.7924 34.2919 94.7392 34.2919C94.5795 34.2919 94.473 34.3454 94.3666 34.3989C94.3133 34.4524 94.3133 34.5059 94.3133 34.613C94.3133 34.72 94.3666 34.7735 94.3666 34.7735C94.4198 34.827 94.5263 34.7735 94.6327 34.72C94.686 34.6665 94.7392 34.6665 94.8457 34.6665C95.4312 34.613 95.7506 34.72 95.9635 34.9341C96.1232 35.1481 96.1232 35.5228 95.9103 36.0044C95.857 36.165 95.8038 36.3255 95.6973 36.5396C95.165 37.7705 94.6327 39.0013 94.1004 40.2322C92.9293 42.9616 91.705 45.798 90.4807 48.5273C89.842 49.9188 89.3097 50.9356 87.766 50.9356ZM96.1232 45.3698C95.5376 45.3698 95.0053 45.2093 94.5263 44.8347C94.2069 44.5671 94.0472 44.353 94.2601 43.8714C94.5795 43.1757 94.8989 42.4264 95.2183 41.7307C95.4844 41.142 95.7506 40.5533 96.0167 39.9646C96.8152 38.1986 97.9863 36.7536 99.4767 35.6833C99.8493 35.4157 100.275 35.2016 100.754 35.0411C101.393 34.827 101.925 34.8805 102.298 35.2016C102.724 35.5228 102.883 36.1114 102.883 36.9142C102.777 38.4127 102.032 39.9111 101.393 41.035C100.382 42.801 99.317 43.9784 98.0395 44.7812C97.454 45.1558 96.762 45.3698 96.1232 45.3698ZM101.446 35.0411C101.233 35.0411 101.02 35.0946 100.754 35.1481C100.328 35.2552 99.9026 35.4692 99.5299 35.7368C98.0927 36.8072 96.9216 38.2521 96.1232 40.0182C95.857 40.6068 95.5909 41.1955 95.3247 41.7842C95.0053 42.4799 94.686 43.2292 94.3666 43.9249C94.1537 44.353 94.2601 44.5136 94.5795 44.7812C95.4844 45.5304 96.762 45.4769 97.9863 44.7276C99.2638 43.9249 100.328 42.7475 101.287 40.9815C101.925 39.8576 102.671 38.3591 102.724 36.9142C102.724 36.165 102.564 35.5763 102.191 35.3087C102.032 35.0946 101.766 35.0411 101.446 35.0411Z" fill="white"/>
<path d="M159.574 35.4694C158.882 34.0244 157.285 33.3822 155.475 33.8104C152.654 34.4526 150.525 36.1116 148.981 38.5733C148.236 39.7507 147.704 41.0351 147.704 41.8914C147.65 44.2461 148.555 45.477 150.152 45.8516C150.898 46.0122 151.643 46.0122 152.388 45.7981C156.167 44.7813 158.616 42.3195 159.734 38.5198C160 37.503 160.053 36.4862 159.574 35.4694ZM157.232 39.1085C156.487 41.0886 155.422 42.8012 153.932 44.2461C153.506 44.6743 153.027 44.9954 152.441 45.2094C150.898 45.7446 149.726 44.8883 149.726 43.0152C149.78 41.9449 150.152 40.7675 150.738 39.5902C151.483 38.0382 152.388 36.6467 153.666 35.4694C154.358 34.8272 155.156 34.292 156.221 34.3455C157.179 34.399 157.764 34.9342 157.871 35.8975C157.924 37.0214 157.605 38.0382 157.232 39.1085Z" fill="white"/>
<path d="M151.217 46.0122C150.844 46.0122 150.525 45.9587 150.152 45.9052C148.449 45.5306 147.597 44.1391 147.65 41.8914C147.704 41.0352 148.183 39.7508 148.928 38.5199C150.525 35.9511 152.707 34.3456 155.475 33.7569C157.338 33.3287 158.989 34.0245 159.681 35.4694C160.106 36.3792 160.16 37.396 159.787 38.5734C158.669 42.3731 156.167 44.8349 152.388 45.9052C152.015 45.9587 151.59 46.0122 151.217 46.0122ZM156.54 33.7569C156.221 33.7569 155.848 33.8104 155.475 33.8639C152.761 34.5061 150.578 36.0581 148.981 38.5734C148.236 39.7508 147.757 41.0352 147.704 41.8914C147.65 44.0856 148.449 45.4235 150.099 45.7982C150.844 45.9587 151.59 45.9587 152.282 45.7446C156.008 44.7278 158.456 42.3196 159.574 38.5199C159.894 37.3425 159.894 36.3792 159.468 35.5229C158.989 34.3991 157.871 33.7569 156.54 33.7569ZM151.536 45.37C151.11 45.37 150.791 45.263 150.472 45.0489C149.939 44.6743 149.62 43.9251 149.673 42.9618C149.726 41.945 150.099 40.7676 150.685 39.5367C151.536 37.8242 152.494 36.4327 153.612 35.4159C154.517 34.6132 155.316 34.2385 156.221 34.292C157.179 34.3456 157.818 34.9343 157.924 35.8976C158.03 37.0214 157.711 38.1453 157.338 39.1621C156.593 41.1422 155.475 42.9083 153.985 44.2997C153.506 44.7813 153.027 45.0489 152.494 45.263C152.122 45.3165 151.802 45.37 151.536 45.37ZM156.061 34.3991C155.209 34.3991 154.464 34.7202 153.666 35.5229C152.548 36.5398 151.59 37.8777 150.791 39.6437C150.206 40.8746 149.886 42.052 149.78 43.0153C149.78 43.9251 150.046 44.6208 150.525 44.9954C151.004 45.3165 151.643 45.37 152.388 45.156C152.92 44.9954 153.399 44.6743 153.825 44.2462C155.262 42.8547 156.38 41.1422 157.126 39.1621C157.498 38.1453 157.818 37.0749 157.711 35.9511C157.658 35.0413 157.019 34.5061 156.114 34.4526C156.167 34.3991 156.114 34.3991 156.061 34.3991Z" fill="white"/>
<path d="M126.624 34.7202C126.252 33.9175 125.507 33.7569 124.655 33.7034C124.548 33.7034 124.389 33.7034 124.282 33.7034C124.282 33.7034 124.282 33.7034 124.282 33.6499C123.91 33.7034 123.537 33.7034 123.218 33.7569C119.385 34.5062 115.765 38.2524 115.18 42.1056C114.914 43.7111 115.712 45.7982 118.054 45.9053C118.906 45.9588 119.758 45.7982 120.556 45.5306C122.047 44.9955 123.324 44.0322 124.548 43.0153C124.655 42.9083 124.815 42.8013 124.655 42.6407C124.495 42.4802 124.389 42.5872 124.282 42.6407C124.069 42.8013 123.856 42.9083 123.643 43.0689C122.739 43.6575 121.834 44.2462 120.769 44.4603C118.64 44.942 117.096 43.6575 117.415 41.5704C117.575 40.6071 117.628 40.5536 118.587 40.4465C120.183 40.286 121.727 39.9114 123.218 39.2157C124.389 38.6805 125.507 37.9848 126.252 36.8609C126.678 36.2187 126.997 35.523 126.624 34.7202ZM124.868 35.7906C124.655 36.6468 124.123 37.2355 123.484 37.8242C122.1 39.0016 120.45 39.5903 118.693 39.8579C118.48 39.9114 118.267 39.9114 117.948 39.9649C118.906 37.6101 120.183 35.7371 122.472 34.6132C122.898 34.3991 123.324 34.2921 123.803 34.2921C124.708 34.3456 125.134 34.8808 124.868 35.7906Z" fill="white"/>
<path d="M118.32 46.0125C118.214 46.0125 118.161 46.0125 118.054 46.0125C117.149 45.959 116.351 45.6379 115.819 44.9957C115.233 44.2464 114.967 43.1761 115.127 42.1593C115.712 38.3061 119.385 34.5064 123.218 33.7571C123.484 33.7036 123.697 33.7036 123.963 33.7036C124.069 33.7036 124.176 33.7036 124.282 33.7036H124.335V33.7571H124.389C124.495 33.7571 124.548 33.7571 124.655 33.7571C125.453 33.8106 126.252 33.9177 126.678 34.7739C127.05 35.5767 126.731 36.3259 126.252 37.0217C125.453 38.2525 124.176 38.9483 123.218 39.4299C121.887 40.0721 120.396 40.4467 118.587 40.6608C117.682 40.7678 117.628 40.8214 117.469 41.7311C117.309 42.6944 117.575 43.4972 118.161 44.0324C118.746 44.621 119.704 44.7816 120.769 44.5675C121.834 44.2999 122.739 43.7113 123.643 43.1761C123.75 43.1226 123.856 43.0691 123.963 42.962C124.069 42.855 124.229 42.8015 124.335 42.6944C124.335 42.6944 124.335 42.6944 124.389 42.6944C124.495 42.6409 124.655 42.5339 124.761 42.748C124.921 42.962 124.815 43.1226 124.655 43.1761H124.602C123.537 44.0859 122.206 45.1027 120.556 45.6914C119.811 45.8519 119.066 46.0125 118.32 46.0125ZM124.282 33.7571C124.176 33.7571 124.069 33.7571 124.016 33.7571C123.75 33.7571 123.537 33.8106 123.271 33.8106C119.438 34.5599 115.872 38.2525 115.286 42.1058C115.127 43.0691 115.393 44.1394 115.978 44.8351C116.511 45.4773 117.203 45.7984 118.107 45.8519C118.959 45.9054 119.758 45.7449 120.609 45.4773C122.206 44.8886 123.537 43.8718 124.602 42.962H124.655C124.761 42.855 124.815 42.8015 124.708 42.6944C124.602 42.5874 124.548 42.5874 124.495 42.6944C124.495 42.6944 124.442 42.6944 124.442 42.748C124.335 42.8015 124.176 42.9085 124.069 42.962C123.963 43.0155 123.856 43.0691 123.75 43.1761C122.845 43.7648 121.94 44.3535 120.875 44.621C119.811 44.8886 118.799 44.6746 118.161 44.0859C117.575 43.4972 117.309 42.6409 117.469 41.6776C117.628 40.7143 117.682 40.6073 118.693 40.5002C120.45 40.2862 121.993 39.9116 123.271 39.2694C124.229 38.7877 125.453 38.1455 126.252 36.9146C126.731 36.1654 126.997 35.5232 126.624 34.8275C126.252 34.0247 125.507 33.9177 124.708 33.8642C124.602 33.8642 124.548 33.8642 124.442 33.8642L124.282 33.7571ZM117.788 40.0186L117.841 39.9116C118.906 37.2357 120.343 35.5232 122.366 34.5599C122.845 34.3458 123.271 34.2388 123.75 34.2388C124.229 34.2388 124.602 34.3993 124.815 34.6669C125.027 34.9345 125.027 35.3091 124.921 35.7908C124.708 36.54 124.282 37.1822 123.484 37.8244C122.206 38.8947 120.663 39.5905 118.64 39.9116C118.48 39.9116 118.374 39.9651 118.161 39.9651C118.054 39.9651 117.948 39.9651 117.841 40.0186H117.788ZM123.697 34.3993C123.271 34.3993 122.845 34.5064 122.419 34.7204C120.45 35.6837 119.066 37.3428 118.001 39.9116C118.054 39.9116 118.107 39.9116 118.214 39.9116C118.374 39.9116 118.533 39.858 118.693 39.858C120.663 39.5369 122.206 38.8947 123.431 37.8244C124.176 37.1822 124.602 36.54 124.815 35.8443C124.921 35.4162 124.921 35.0415 124.708 34.8275C124.548 34.5064 124.229 34.3993 123.697 34.3993C123.75 34.3993 123.75 34.3993 123.697 34.3993Z" fill="white"/>
<path d="M106.237 49.1163C106.237 48.6347 105.598 48.26 105.332 48.5811C105.066 49.0093 104.853 48.6882 104.693 48.6347C103.735 48.26 102.564 48.6347 102.138 49.5444C101.712 50.4542 102.085 51.5781 102.937 52.0062C103.682 52.3808 104.427 52.3273 105.172 51.8457C105.013 52.7555 104.321 53.0766 103.416 52.7019C103.096 52.5949 102.83 52.4879 102.458 52.4879C102.298 52.4879 102.085 52.3808 102.032 52.5949C101.979 52.7555 102.138 52.916 102.245 53.023C102.83 53.6652 103.629 53.6652 104.374 53.6117C105.492 53.5582 106.131 52.916 106.131 51.7921C106.237 50.9894 106.237 50.0261 106.237 49.1163ZM104.108 51.471C103.469 51.471 102.99 50.9894 102.99 50.3472C103.043 49.705 103.522 49.2769 104.214 49.3304C104.853 49.3839 105.279 49.812 105.226 50.4542C105.226 51.0429 104.747 51.471 104.108 51.471Z" fill="white"/>
<path d="M104.001 53.7721C103.363 53.7721 102.724 53.6651 102.245 53.1299L102.191 53.0764C102.085 52.9694 101.979 52.8624 102.032 52.6483C102.085 52.4342 102.245 52.4877 102.404 52.4877C102.458 52.4877 102.511 52.4877 102.511 52.4877C102.83 52.4342 103.15 52.5413 103.469 52.7018C103.895 52.9159 104.321 52.9159 104.64 52.7553C104.906 52.5948 105.066 52.3807 105.119 52.0061C104.321 52.4342 103.629 52.4342 102.937 52.0596C102.032 51.5779 101.659 50.4541 102.085 49.4908C102.511 48.581 103.735 48.1529 104.693 48.581C104.747 48.581 104.8 48.6345 104.853 48.688C104.906 48.7416 105.013 48.7951 105.066 48.7951C105.119 48.7951 105.226 48.7416 105.279 48.581C105.385 48.4205 105.545 48.3669 105.758 48.4205C106.024 48.474 106.29 48.7951 106.29 49.1162V49.7584C106.29 50.4541 106.29 51.1498 106.29 51.8455C106.29 53.0229 105.598 53.6651 104.48 53.7186C104.321 53.7721 104.161 53.7721 104.001 53.7721ZM102.298 52.6483C102.245 52.6483 102.191 52.6483 102.191 52.7553C102.138 52.8624 102.245 52.9159 102.351 53.0764L102.404 53.1299C102.99 53.7721 103.735 53.7721 104.48 53.7186C105.545 53.6651 106.184 53.0229 106.184 51.9526C106.184 51.2568 106.184 50.5611 106.184 49.8654V49.2232C106.184 48.9556 105.971 48.7416 105.758 48.6345C105.651 48.6345 105.545 48.581 105.439 48.7416C105.332 48.9021 105.226 48.9556 105.119 49.0091C105.013 49.0091 104.906 48.9556 104.8 48.9021C104.747 48.8486 104.747 48.8486 104.693 48.8486C103.735 48.474 102.617 48.8486 102.191 49.7049C101.766 50.5611 102.138 51.6315 102.99 52.1131C103.682 52.4877 104.427 52.4342 105.172 51.9526L105.279 51.8991V52.0061C105.226 52.4342 105.013 52.7553 104.693 52.9694C104.374 53.1835 103.895 53.1299 103.416 52.9159C103.096 52.7553 102.83 52.7018 102.511 52.7553C102.458 52.7553 102.404 52.7553 102.351 52.7553C102.351 52.6483 102.298 52.6483 102.298 52.6483ZM104.161 51.5244C103.788 51.5244 103.469 51.3639 103.256 51.1498C103.043 50.9357 102.937 50.6682 102.99 50.3471C102.99 50.026 103.15 49.7584 103.363 49.5978C103.575 49.3838 103.948 49.2767 104.267 49.3302C104.959 49.3838 105.385 49.8654 105.332 50.5076C105.332 51.0963 104.8 51.5244 104.161 51.5244ZM104.161 49.3838C103.895 49.3838 103.629 49.4908 103.416 49.6513C103.203 49.8119 103.096 50.0795 103.096 50.3471C103.096 50.6146 103.15 50.8822 103.363 51.0428C103.575 51.2569 103.842 51.3639 104.161 51.3639C104.747 51.3639 105.226 50.9893 105.226 50.4006C105.226 49.8119 104.853 49.3838 104.267 49.3302C104.214 49.3838 104.161 49.3838 104.161 49.3838Z" fill="white"/>
<path d="M118.906 51.6313C118.906 51.2031 118.906 50.8285 118.906 50.4004C118.906 49.9722 118.906 49.5441 118.906 49.116C118.906 48.9554 119.012 48.6343 118.746 48.5808C118.48 48.5273 118.054 48.4202 117.895 48.6878C117.735 49.0089 117.628 48.7949 117.469 48.7413C116.564 48.3132 115.606 48.4738 115.02 49.223C114.488 49.8652 114.488 50.9355 114.967 51.5777C115.552 52.3805 116.511 52.5946 117.469 52.1664C117.628 52.1129 117.682 51.9524 117.895 52.2199C118.054 52.434 118.48 52.3805 118.746 52.2735C119.012 52.1664 118.906 51.8453 118.906 51.6313ZM116.777 51.5242C116.138 51.5242 115.659 51.0426 115.659 50.4004C115.659 49.7582 116.191 49.33 116.83 49.33C117.469 49.33 117.948 49.8652 117.948 50.4539C117.895 51.0961 117.469 51.5242 116.777 51.5242Z" fill="white"/>
<path d="M116.564 52.4341C115.925 52.4341 115.393 52.1665 114.967 51.6314C114.488 50.9356 114.488 49.8653 115.02 49.2231C115.606 48.4739 116.617 48.2598 117.575 48.6879C117.628 48.6879 117.628 48.7415 117.682 48.7415C117.735 48.795 117.735 48.795 117.788 48.795C117.788 48.795 117.841 48.795 117.895 48.6344C118.054 48.3668 118.374 48.4204 118.64 48.4739C118.693 48.4739 118.746 48.4739 118.799 48.4739C119.066 48.5274 119.012 48.7415 119.012 48.902C119.012 48.9555 119.012 49.009 119.012 49.0626C119.012 49.3837 119.012 49.7048 119.012 49.9723C119.012 50.0794 119.012 50.1864 119.012 50.2934V50.347C119.012 50.454 119.012 50.561 119.012 50.7216C119.012 50.9892 119.012 51.3103 119.012 51.5778C119.012 51.6314 119.012 51.6849 119.012 51.7384C119.066 51.8989 119.066 52.113 118.853 52.22C118.693 52.2736 118.161 52.4341 117.895 52.1665C117.788 52.006 117.735 52.0595 117.628 52.113C117.575 52.113 117.575 52.1665 117.522 52.1665C117.203 52.3806 116.883 52.4341 116.564 52.4341ZM116.511 48.5809C115.925 48.5809 115.446 48.8485 115.073 49.2766C114.594 49.9188 114.594 50.9356 115.02 51.5243C115.606 52.2736 116.511 52.4876 117.469 52.113C117.469 52.113 117.522 52.113 117.522 52.0595C117.628 52.006 117.788 51.9525 117.948 52.1665C118.107 52.3271 118.48 52.3271 118.746 52.22C118.853 52.1665 118.853 52.0595 118.853 51.8989C118.853 51.8454 118.853 51.7384 118.853 51.6849C118.853 51.4173 118.853 51.0962 118.853 50.8286C118.853 50.7216 118.853 50.6145 118.853 50.5075V50.454C118.853 50.347 118.853 50.1864 118.853 50.0794C118.853 49.7583 118.853 49.4907 118.853 49.1696C118.853 49.1161 118.853 49.0626 118.853 49.009C118.906 48.795 118.853 48.7415 118.746 48.7415C118.693 48.7415 118.64 48.7415 118.587 48.6879C118.32 48.6344 118.054 48.5809 117.948 48.795C117.895 48.902 117.841 48.9555 117.735 49.009C117.628 49.009 117.575 48.9555 117.522 48.9555L117.469 48.902C117.149 48.6344 116.83 48.5809 116.511 48.5809ZM116.777 51.5778C116.404 51.5778 116.085 51.4173 115.872 51.2032C115.659 50.9892 115.552 50.7216 115.552 50.4005C115.552 49.7583 116.138 49.2231 116.777 49.2766C117.096 49.2766 117.415 49.4372 117.628 49.6512C117.841 49.8653 117.948 50.1329 117.948 50.454C118.001 51.0962 117.469 51.5778 116.777 51.5778ZM116.777 49.3837C116.191 49.3837 115.712 49.8118 115.712 50.4005C115.712 50.6681 115.819 50.9356 115.978 51.0962C116.191 51.3103 116.457 51.4173 116.777 51.4173C117.415 51.4173 117.841 51.0427 117.895 50.4005C117.895 50.1329 117.788 49.8653 117.628 49.7048C117.415 49.5442 117.149 49.3837 116.777 49.3837C116.83 49.3837 116.777 49.3837 116.777 49.3837Z" fill="white"/>
<path d="M143.286 50.7215C144.084 50.7215 144.936 50.7215 145.734 50.7215C146.054 50.7215 146.16 50.6144 146.107 50.2933C146.054 49.33 145.255 48.5808 144.137 48.5273C142.753 48.4203 141.689 49.5976 141.955 50.8285C142.114 51.6848 142.7 52.1664 143.445 52.327C144.35 52.4875 145.202 52.434 145.841 51.6313C145.415 51.4172 145.095 51.2566 144.616 51.5242C144.137 51.7918 143.552 51.7383 143.126 51.2566C143.019 51.1496 142.913 51.0426 142.966 50.882C142.966 50.6144 143.179 50.7215 143.286 50.7215ZM145.042 49.9187C144.35 49.9187 143.658 49.9187 142.966 49.9187C143.552 49.0625 144.51 49.116 145.042 49.9187Z" fill="white"/>
<path d="M144.137 52.4341C143.924 52.4341 143.658 52.3805 143.392 52.3805C142.54 52.22 142.008 51.6848 141.848 50.8286C141.742 50.2399 141.902 49.6512 142.274 49.1695C142.7 48.6344 143.392 48.3668 144.084 48.4203C145.255 48.5273 146.054 49.223 146.107 50.2399C146.107 50.4004 146.107 50.561 146 50.6145C145.947 50.668 145.841 50.7215 145.628 50.7215C144.989 50.7215 144.297 50.7215 143.658 50.7215H143.179C143.126 50.7215 143.126 50.7215 143.073 50.7215C142.966 50.7215 142.86 50.7215 142.86 50.775C142.806 50.8821 142.86 50.9356 143.019 51.0961C143.392 51.5243 143.924 51.6313 144.457 51.3637C144.989 51.0961 145.308 51.2567 145.734 51.4708L145.841 51.5243L145.787 51.5778C145.415 52.1665 144.882 52.4341 144.137 52.4341ZM143.924 48.5273C143.339 48.5273 142.753 48.7949 142.381 49.223C142.008 49.6512 141.848 50.2399 141.955 50.775C142.114 51.5778 142.647 52.0594 143.392 52.22C144.403 52.4341 145.149 52.22 145.681 51.5778C145.308 51.3637 144.989 51.2567 144.563 51.4708C144.031 51.7383 143.392 51.6848 142.966 51.2032C142.86 51.0961 142.753 50.9356 142.806 50.775C142.86 50.6145 143.019 50.6145 143.126 50.6145C143.179 50.6145 143.179 50.6145 143.232 50.6145H143.711C144.35 50.6145 145.042 50.6145 145.681 50.6145C145.841 50.6145 145.894 50.6145 145.947 50.561C146 50.5075 146 50.4004 146 50.2399C145.947 49.2766 145.149 48.5808 144.084 48.5273C144.084 48.5273 143.978 48.5273 143.924 48.5273ZM145.149 49.9723H142.806L142.86 49.8652C143.179 49.4371 143.605 49.223 144.031 49.223C144.403 49.223 144.776 49.4906 145.042 49.8652L145.149 49.9723ZM143.073 49.8652H144.936C144.723 49.5441 144.403 49.3836 144.084 49.3836C143.711 49.3301 143.339 49.5441 143.073 49.8652Z" fill="white"/>
</g>
<defs>
<clipPath id="clip0_5940_29">
<rect width="160" height="80" fill="white"/>
</clipPath>
</defs>
</svg>
