<svg width="160" height="80" viewBox="0 0 160 80" fill="none" xmlns="http://www.w3.org/2000/svg">
<path d="M24.1222 28.2826V31.7189C24.1222 33.1549 23.6094 34.4029 22.5836 35.4629C21.5579 36.4886 20.3099 37.0015 18.8396 37.0015H8.01795V31.018H16.771C17.5232 31.018 17.8993 30.6931 17.8993 30.0264C17.8993 29.3255 17.5232 28.9835 16.771 28.9835H7.31702C6.95801 28.9835 6.65028 29.1203 6.39385 29.3767C6.1545 29.6503 6.01774 29.958 6.01774 30.3341V37.6853C6.01774 38.0443 6.13741 38.3692 6.39385 38.6256C6.63319 38.882 6.94091 39.0188 7.31702 39.0188H14.634V45.0536H5.28262C3.84656 45.0536 2.59857 44.5408 1.53863 43.515C0.512875 42.4551 0 41.2071 0 39.771V28.3168C0 26.8637 0.512875 25.6328 1.53863 24.607C2.58147 23.53 3.82947 23 5.28262 23H18.8225C20.2928 23 21.5237 23.53 22.5323 24.5728C23.5923 25.5815 24.1222 26.8124 24.1222 28.2826Z" fill="url(#paint0_linear)"/>
<path d="M24.1222 30.4022V33.8385C24.1222 35.2745 23.6094 36.5225 22.5836 37.5825C21.5579 38.6082 20.3099 39.1211 18.8396 39.1211H8.01795V33.1376H16.771C17.5232 33.1376 17.8993 32.8127 17.8993 32.146C17.8993 31.4451 17.5232 31.1032 16.771 31.1032H7.31702C6.95801 31.1032 6.65028 31.2399 6.39385 31.4964C6.1545 31.7699 6.01774 32.0776 6.01774 32.4537V39.8049C6.01774 40.164 6.13741 40.4888 6.39385 40.7452C6.63319 41.0017 6.94091 41.1384 7.31702 41.1384H14.634V47.1733H5.28262C3.84656 47.1733 2.59857 46.6604 1.53863 45.6346C0.512875 44.5747 0 43.3267 0 41.8906V30.4364C0 28.9833 0.512875 27.7524 1.53863 26.7266C2.58147 25.6838 3.82947 25.1538 5.28262 25.1538H18.8225C20.2928 25.1538 21.5237 25.6838 22.5323 26.7266C23.5923 27.7011 24.1222 28.932 24.1222 30.4022Z" fill="#1A1B1A"/>
<path d="M24.1222 29.3422V32.7785C24.1222 34.2145 23.6094 35.4625 22.5836 36.5224C21.5579 37.5482 20.3099 38.0611 18.8396 38.0611H8.01795V32.0775H16.771C17.5232 32.0775 17.8993 31.7527 17.8993 31.086C17.8993 30.385 17.5232 30.0431 16.771 30.0431H7.31702C6.95801 30.0431 6.65028 30.1799 6.39385 30.4363C6.1545 30.6928 6.03483 31.0176 6.03483 31.3766V38.7278C6.03483 39.0868 6.1545 39.4116 6.41094 39.6681C6.65028 39.9245 6.95801 40.0613 7.33412 40.0613H14.6511V46.079H5.28262C3.84656 46.079 2.59857 45.5661 1.53863 44.5404C0.512875 43.4804 0 42.2325 0 40.7964V29.3422C0 27.889 0.512875 26.6581 1.53863 25.6324C2.58147 24.5895 3.82947 24.0596 5.28262 24.0596H18.8225C20.2928 24.0596 21.5237 24.5895 22.5323 25.6324C23.5923 26.641 24.1222 27.8719 24.1222 29.3422Z" fill="url(#paint1_linear)"/>
<path d="M6.39387 39.6689C6.63321 39.9253 6.94094 40.0621 7.31704 40.0621H14.6341V39.7373H7.31704C6.95803 39.7373 6.65031 39.6176 6.39387 39.3441C6.15453 39.0876 6.01776 38.7799 6.01776 38.4038V38.7286C6.03486 39.1047 6.15453 39.4125 6.39387 39.6689Z" fill="white"/>
<path d="M17.8994 31.0865C17.8994 31.0352 17.8994 30.9668 17.8823 30.9155C17.831 31.4626 17.4549 31.7532 16.7711 31.7532H8.01801V32.078H16.7711C17.5233 32.078 17.8994 31.7361 17.8994 31.0865Z" fill="white"/>
<path d="M38.2947 34.1124C37.2861 33.0695 36.0381 32.5396 34.5849 32.5396H25.1309C25.1309 32.5396 25.2848 35.0697 24.4642 36.6767C23.2162 37.9247 23.712 39.1044 18.8396 39.1385H15.7624V41.2755C15.7624 42.7458 16.2753 43.9938 17.301 45.0195C18.3268 46.0453 19.5748 46.5581 21.045 46.5581H31.8667V40.5575H23.1136C22.3443 40.5575 21.9511 40.2327 21.9511 39.5659C21.9511 38.865 22.3443 38.5231 23.1136 38.5231H32.5334C32.8924 38.5231 33.2172 38.6599 33.4737 38.9163C33.7301 39.1898 33.8669 39.4976 33.8669 39.8737V47.2249C33.8669 47.5839 33.7301 47.9087 33.4737 48.1652C33.2172 48.4216 32.9095 48.5584 32.5334 48.5584H21.7972V54.5932H34.602C36.0552 54.5932 37.2861 54.0803 38.3118 53.0546C39.3547 52.0117 39.8846 50.7637 39.8846 49.3106V37.8564C39.8675 36.3519 39.3376 35.121 38.2947 34.1124Z" fill="url(#paint2_linear)"/>
<path d="M38.2947 36.2325C37.2861 35.1896 36.0381 34.6597 34.5849 34.6597H25.1309C24.96 36.0444 24.3616 37.2753 23.3529 38.3353C22.1049 39.5833 20.6005 40.1987 18.8396 40.1987H15.7624V43.3956C15.7624 44.8659 16.2753 46.1139 17.301 47.1396C18.3268 48.1654 19.5748 48.6783 21.045 48.6783H31.8667V42.6776H23.1136C22.3443 42.6776 21.9511 42.3528 21.9511 41.6861C21.9511 40.9851 22.3443 40.6432 23.1136 40.6432H32.5334C32.8924 40.6432 33.2172 40.78 33.4737 41.0364C33.7301 41.31 33.8669 41.6177 33.8669 41.9938V49.345C33.8669 49.704 33.7301 50.0288 33.4737 50.2853C33.2172 50.5417 32.9095 50.6785 32.5334 50.6785H21.7972V56.6791H34.602C36.0552 56.6791 37.2861 56.1662 38.3118 55.1405C39.3547 54.0976 39.8846 52.8496 39.8846 51.3965V39.9423C39.8675 38.472 39.3376 37.2411 38.2947 36.2325Z" fill="#1A1B1A"/>
<path d="M38.2947 35.1719C37.2861 34.1291 36.0381 33.5991 34.5849 33.5991H25.1309C24.96 34.9839 24.3616 36.2148 23.3529 37.2747C22.1049 38.5227 20.6005 39.1382 18.8396 39.1382H15.7624V42.318C15.7624 43.7882 16.2753 45.0362 17.301 46.062C18.3268 47.0877 19.5748 47.6006 21.045 47.6006H31.8667V41.6H23.1136C22.3443 41.6 21.9511 41.2752 21.9511 40.6084C21.9511 39.9075 22.3443 39.5656 23.1136 39.5656H32.5334C32.8924 39.5656 33.2172 39.7023 33.4737 39.9588C33.7301 40.2323 33.8669 40.54 33.8669 40.9161V48.2674C33.8669 48.6264 33.7301 48.9512 33.4737 49.2076C33.2172 49.4641 32.9095 49.6008 32.5334 49.6008H21.7972V55.6357H34.602C36.0552 55.6357 37.2861 55.1228 38.3118 54.097C39.3547 53.0542 39.8846 51.8062 39.8846 50.353V38.8988C39.8675 37.4115 39.3376 36.1806 38.2947 35.1719Z" fill="url(#paint3_linear)"/>
<path d="M33.4565 49.208C33.2172 49.4644 32.9094 49.6012 32.5333 49.6012H21.7629V49.2763H32.5333C32.8923 49.2763 33.2001 49.1567 33.4565 48.8831C33.6958 48.6267 33.8326 48.319 33.8326 47.9429V48.2677C33.8326 48.6438 33.7129 48.9515 33.4565 49.208Z" fill="white"/>
<path d="M21.9681 40.6085C21.9681 40.5572 21.9681 40.4888 21.9852 40.4375C22.0365 40.9846 22.4126 41.2752 23.0965 41.2752H31.8495V41.6H23.0965C22.3442 41.6 21.9681 41.2752 21.9681 40.6085Z" fill="white"/>
<path d="M60.2287 27.6501V29.8897C60.2287 30.8129 59.9039 31.6335 59.2372 32.3173C58.5704 32.984 57.7669 33.326 56.8266 33.326H50.2789C49.9883 33.326 49.8515 33.1892 49.8515 32.8986V29.8555C49.8515 29.5649 49.9883 29.4281 50.2789 29.4281H55.4932C55.9719 29.4281 56.2283 29.2059 56.2283 28.7785C56.2283 28.3169 55.989 28.0946 55.4932 28.0946H49.4071C49.1677 28.0946 48.9797 28.1801 48.8087 28.3511C48.6548 28.522 48.5694 28.7272 48.5694 28.9665V33.7533C48.5694 33.9927 48.6548 34.1978 48.8087 34.3688C48.9626 34.5398 49.1677 34.6252 49.4071 34.6252H56.348V38.5402H48.0907C47.1675 38.5402 46.364 38.1983 45.6802 37.5315C45.0134 36.8477 44.6886 36.0271 44.6886 35.1039V27.6501C44.6886 26.7099 45.0134 25.9064 45.6802 25.2396C46.3469 24.5558 47.1675 24.2139 48.0907 24.2139H56.8266C57.7669 24.2139 58.5704 24.5558 59.2201 25.2396C59.8868 25.8893 60.2287 26.6928 60.2287 27.6501Z" fill="#1A1B1A"/>
<path d="M65.5968 24.2139V30.7103C65.5968 31.7873 65.9729 32.7105 66.7251 33.4627C67.4773 34.232 68.3834 34.6081 69.4434 34.6081H72.23C72.4693 34.6081 72.6574 34.4201 72.6574 34.1807V24.2139H76.5211V37.4973C76.5211 38.0615 76.0595 38.5231 75.4953 38.5231H68.4176C67.5457 38.5231 66.7251 38.3521 65.9387 38.0102C65.1523 37.6683 64.4172 37.1554 63.7676 36.4887C62.417 35.121 61.7502 33.5653 61.7502 31.7873V24.2139H65.5968Z" fill="#1A1B1A"/>
<path d="M156.153 38.5402V32.0438C156.153 30.9667 155.777 30.0435 155.025 29.2913C154.273 28.522 153.367 28.1459 152.307 28.1459H149.52C149.281 28.1459 149.093 28.334 149.093 28.5733V38.5402H145.229V25.2396C145.229 24.6755 145.691 24.2139 146.255 24.2139H153.333C154.204 24.2139 155.025 24.3848 155.811 24.7267C156.598 25.0687 157.333 25.5815 157.983 26.2483C159.333 27.6159 160 29.1717 160 30.9496V38.5231H156.153V38.5402Z" fill="#1A1B1A"/>
<path d="M78.3162 28.8639V38.5402H82.1798V29.1717C82.1798 28.4023 82.7953 27.7869 83.5475 27.7869H90.7106V24.2139H82.932C80.3848 24.2139 78.3162 26.2825 78.3162 28.8639Z" fill="#1A1B1A"/>
<path d="M104.302 27.6501V35.1039C104.302 36.0442 103.96 36.8648 103.293 37.5315C102.626 38.1983 101.84 38.5402 100.9 38.5402H92.1637C91.2405 38.5402 90.437 38.1983 89.7532 37.5315C89.0865 36.8477 88.7617 36.0271 88.7617 35.1039V32.8473C88.7617 31.907 89.0865 31.1035 89.7532 30.4368C90.42 29.7529 91.2405 29.411 92.1637 29.411H98.7114C99.0021 29.411 99.1388 29.5478 99.1388 29.8384V32.8815C99.1388 33.1721 99.0021 33.3089 98.7114 33.3089H93.4972C93.0014 33.3089 92.745 33.5311 92.745 33.9756C92.745 34.3859 93.0014 34.6081 93.4972 34.6081H99.5662C99.8056 34.6081 100.011 34.5227 100.165 34.3688C100.336 34.2149 100.421 34.0098 100.421 33.7704V28.9494C100.421 28.7101 100.336 28.5049 100.165 28.334C99.9936 28.163 99.8056 28.0775 99.5662 28.0775H92.6424V24.2139H100.9C101.84 24.2139 102.643 24.5558 103.293 25.2396C103.977 25.8893 104.302 26.6928 104.302 27.6501Z" fill="#1A1B1A"/>
<path d="M143.434 27.6501V35.1039C143.434 36.0442 143.092 36.8648 142.426 37.5315C141.759 38.1983 140.972 38.5402 140.032 38.5402H131.296C130.373 38.5402 129.57 38.1983 128.886 37.5315C128.219 36.8477 127.894 36.0271 127.894 35.1039V32.8473C127.894 31.907 128.219 31.1035 128.886 30.4368C129.552 29.7529 130.373 29.411 131.296 29.411H137.844C138.135 29.411 138.271 29.5478 138.271 29.8384V32.8815C138.271 33.1721 138.135 33.3089 137.844 33.3089H132.63C132.134 33.3089 131.877 33.5311 131.877 33.9756C131.877 34.3859 132.134 34.6081 132.63 34.6081H138.699C138.938 34.6081 139.143 34.5227 139.297 34.3688C139.468 34.2149 139.553 34.0098 139.553 33.7704V28.9494C139.553 28.7101 139.468 28.5049 139.297 28.334C139.126 28.163 138.938 28.0775 138.699 28.0775H131.775V24.2139H140.032C140.972 24.2139 141.776 24.5558 142.426 25.2396C143.109 25.8893 143.434 26.6928 143.434 27.6501Z" fill="#1A1B1A"/>
<path d="M121.363 32.8473V35.0868C121.363 36.0271 121.021 36.8477 120.355 37.5144C119.688 38.1812 118.902 38.5231 117.961 38.5231H105.823C105.823 38.5231 105.823 34.5739 105.823 34.6081H116.628C117.124 34.6081 117.38 34.403 117.38 33.9756C117.38 33.5311 117.124 33.3089 116.628 33.3089H109.225C108.302 33.3089 107.499 32.9669 106.815 32.3002C106.148 31.6164 105.823 30.7958 105.823 29.8726V27.6501C105.823 26.7099 106.148 25.9064 106.815 25.2396C107.482 24.5558 108.302 24.2139 109.225 24.2139H117.483V28.1117H110.559C110.063 28.1117 109.807 28.334 109.807 28.7785C109.807 29.2059 110.063 29.4281 110.559 29.4281H117.961C118.902 29.4281 119.705 29.77 120.355 30.4538C121.021 31.0864 121.363 31.907 121.363 32.8473Z" fill="#1A1B1A"/>
<path d="M126.39 24.2139V38.5402H122.526V24.2139H126.39Z" fill="#1A1B1A"/>
<path d="M60.2287 26.4363V28.6758C60.2287 29.599 59.9039 30.4196 59.2372 31.1034C58.5704 31.7702 57.7669 32.1121 56.8266 32.1121H50.2789C49.9883 32.1121 49.8515 31.9753 49.8515 31.6847V28.6416C49.8515 28.351 49.9883 28.2142 50.2789 28.2142H55.4932C55.9719 28.2142 56.2283 27.992 56.2283 27.5646C56.2283 27.103 55.989 26.8808 55.4932 26.8808H49.4071C49.1677 26.8808 48.9797 26.9662 48.8087 27.1372C48.6548 27.3082 48.5694 27.5133 48.5694 27.7526V32.5395C48.5694 32.7788 48.6548 32.984 48.8087 33.1549C48.9626 33.3259 49.1677 33.4114 49.4071 33.4114H56.348V37.3263H48.0907C47.1675 37.3263 46.364 36.9844 45.6802 36.3177C45.0134 35.6338 44.6886 34.8132 44.6886 33.8901V26.4363C44.6886 25.496 45.0134 24.6925 45.6802 24.0258C46.3469 23.3419 47.1675 23 48.0907 23H56.8266C57.7669 23 58.5704 23.3419 59.2201 24.0258C59.8868 24.6754 60.2287 25.4789 60.2287 26.4363Z" fill="url(#paint4_linear)"/>
<path d="M65.5968 23V29.4964C65.5968 30.5735 65.9729 31.4966 66.7251 32.2489C67.4773 33.0182 68.3834 33.3943 69.4434 33.3943H72.23C72.4693 33.3943 72.6574 33.2062 72.6574 32.9669V23H76.5211V36.2835C76.5211 36.8476 76.0595 37.3092 75.4953 37.3092H68.4176C67.5457 37.3092 66.7251 37.1383 65.9387 36.7963C65.1523 36.4544 64.4172 35.9416 63.7676 35.2748C62.417 33.9071 61.7502 32.3514 61.7502 30.5735V23H65.5968Z" fill="url(#paint5_linear)"/>
<path d="M156.153 37.3263V30.8299C156.153 29.7529 155.777 28.8297 155.025 28.0775C154.273 27.3082 153.367 26.932 152.307 26.932H149.52C149.281 26.932 149.093 27.1201 149.093 27.3594V37.3263H145.229V24.0258C145.229 23.4616 145.691 23 146.255 23H153.333C154.204 23 155.025 23.171 155.811 23.5129C156.598 23.8548 157.333 24.3677 157.983 25.0344C159.333 26.4021 160 27.9578 160 29.7358V37.3092H156.153V37.3263Z" fill="url(#paint6_linear)"/>
<path d="M78.3162 27.6501V37.3263H82.1798V27.9578C82.1798 27.1885 82.7953 26.573 83.5475 26.573H90.7106V23H82.932C80.3848 23 78.3162 25.0857 78.3162 27.6501Z" fill="url(#paint7_linear)"/>
<path d="M104.302 26.4363V33.8901C104.302 34.8303 103.96 35.6509 103.293 36.3177C102.626 36.9844 101.84 37.3263 100.9 37.3263H92.1637C91.2405 37.3263 90.437 36.9844 89.7532 36.3177C89.0865 35.6338 88.7617 34.8132 88.7617 33.8901V31.6505C88.7617 30.7102 89.0865 29.9067 89.7532 29.24C90.42 28.5561 91.2405 28.2142 92.1637 28.2142H98.7114C99.0021 28.2142 99.1388 28.351 99.1388 28.6416V31.6847C99.1388 31.9753 99.0021 32.1121 98.7114 32.1121H93.4972C93.0014 32.1121 92.745 32.3343 92.745 32.7788C92.745 33.1891 93.0014 33.4114 93.4972 33.4114H99.5662C99.8056 33.4114 100.011 33.3259 100.165 33.172C100.336 33.0182 100.421 32.813 100.421 32.5737V27.7526C100.421 27.5133 100.336 27.3082 100.165 27.1372C99.9936 26.9662 99.8056 26.8808 99.5662 26.8808H92.6424V23H100.9C101.84 23 102.643 23.3419 103.293 24.0258C103.977 24.6754 104.302 25.4789 104.302 26.4363Z" fill="url(#paint8_linear)"/>
<path d="M143.434 26.4363V33.8901C143.434 34.8303 143.092 35.6509 142.426 36.3177C141.759 36.9844 140.972 37.3263 140.032 37.3263H131.296C130.373 37.3263 129.57 36.9844 128.886 36.3177C128.219 35.6338 127.894 34.8132 127.894 33.8901V31.6505C127.894 30.7102 128.219 29.9067 128.886 29.24C129.552 28.5561 130.373 28.2142 131.296 28.2142H137.844C138.135 28.2142 138.271 28.351 138.271 28.6416V31.6847C138.271 31.9753 138.135 32.1121 137.844 32.1121H132.63C132.134 32.1121 131.877 32.3343 131.877 32.7788C131.877 33.1891 132.134 33.4114 132.63 33.4114H138.699C138.938 33.4114 139.143 33.3259 139.297 33.172C139.468 33.0182 139.553 32.813 139.553 32.5737V27.7526C139.553 27.5133 139.468 27.3082 139.297 27.1372C139.126 26.9662 138.938 26.8808 138.699 26.8808H131.775V23H140.032C140.972 23 141.776 23.3419 142.426 24.0258C143.109 24.6754 143.434 25.4789 143.434 26.4363Z" fill="url(#paint9_linear)"/>
<path d="M121.363 31.6505V33.8901C121.363 34.8303 121.021 35.6509 120.355 36.3177C119.688 36.9844 118.902 37.3263 117.961 37.3263H105.823C105.823 37.3263 105.823 33.3772 105.823 33.4114H116.628C117.124 33.4114 117.38 33.2062 117.38 32.7788C117.38 32.3343 117.124 32.1121 116.628 32.1121H109.225C108.302 32.1121 107.499 31.7702 106.815 31.1034C106.148 30.4196 105.823 29.599 105.823 28.6758V26.4363C105.823 25.496 106.148 24.6925 106.815 24.0258C107.482 23.3419 108.302 23 109.225 23H117.483V26.8979H110.559C110.063 26.8979 109.807 27.1201 109.807 27.5646C109.807 27.992 110.063 28.2142 110.559 28.2142H117.961C118.902 28.2142 119.705 28.5561 120.355 29.24C121.021 29.8896 121.363 30.6931 121.363 31.6505Z" fill="url(#paint10_linear)"/>
<path d="M126.39 23V37.3263H122.526V23H126.39Z" fill="url(#paint11_linear)"/>
<path d="M50.2791 28.7268H55.4933C55.972 28.7268 56.2285 28.5046 56.2285 28.0772C56.2285 28.043 56.2285 28.0259 56.2285 27.9917C56.1943 28.3678 55.9549 28.5559 55.5104 28.5559H50.2962C50.0056 28.5559 49.8688 28.6926 49.8688 28.9833V29.1542C49.8517 28.8636 49.9885 28.7268 50.2791 28.7268Z" fill="white"/>
<path d="M48.8087 33.6673C48.9626 33.8382 49.1678 33.9237 49.4071 33.9237H56.348V33.7527H49.4071C49.1678 33.7527 48.9797 33.6673 48.8087 33.4963C48.6549 33.3254 48.5694 33.1202 48.5694 32.8809V33.0518C48.5694 33.3083 48.6549 33.4963 48.8087 33.6673Z" fill="white"/>
<path d="M66.7251 32.7789C67.4773 33.5482 68.3834 33.9243 69.4434 33.9243H72.23C72.4693 33.9243 72.6574 33.7362 72.6574 33.4969V33.3259C72.6574 33.5653 72.4693 33.7533 72.23 33.7533H69.4434C68.3834 33.7533 67.4773 33.3772 66.7251 32.6079C65.9729 31.8386 65.5968 30.9325 65.5968 29.8555V30.0264C65.5968 31.0864 65.9729 32.0095 66.7251 32.7789Z" fill="white"/>
<path d="M93.4973 33.9242H99.5663C99.8056 33.9242 100.011 33.8387 100.165 33.6848C100.336 33.531 100.421 33.3258 100.421 33.0865V32.9155C100.421 33.1549 100.336 33.36 100.165 33.5139C99.9937 33.6677 99.8056 33.7532 99.5663 33.7532H93.4973C93.0357 33.7532 92.7963 33.5652 92.7621 33.2062C92.7621 33.2403 92.7621 33.2574 92.7621 33.2916C92.7621 33.719 93.0015 33.9242 93.4973 33.9242Z" fill="white"/>
<path d="M92.1637 28.7271H98.7114C99.0021 28.7271 99.1388 28.8639 99.1388 29.1545V28.9835C99.1388 28.6929 99.0021 28.5562 98.7114 28.5562H92.1637C91.2235 28.5562 90.42 28.8981 89.7532 29.5819C89.0865 30.2486 88.7617 31.0521 88.7617 31.9924V32.1634C88.7617 31.2231 89.0865 30.4196 89.7532 29.7529C90.437 29.069 91.2405 28.7271 92.1637 28.7271Z" fill="white"/>
<path d="M131.296 28.7271H137.844C138.135 28.7271 138.271 28.8639 138.271 29.1545V28.9835C138.271 28.6929 138.135 28.5562 137.844 28.5562H131.296C130.356 28.5562 129.552 28.8981 128.886 29.5819C128.219 30.2486 127.894 31.0521 127.894 31.9924V32.1634C127.894 31.2231 128.219 30.4196 128.886 29.7529C129.57 29.069 130.373 28.7271 131.296 28.7271Z" fill="white"/>
<path d="M132.63 33.9242H138.699C138.938 33.9242 139.143 33.8387 139.297 33.6848C139.468 33.531 139.554 33.3258 139.554 33.0865V32.9155C139.554 33.1549 139.468 33.36 139.297 33.5139C139.126 33.6677 138.938 33.7532 138.699 33.7532H132.63C132.168 33.7532 131.929 33.5652 131.895 33.2062C131.895 33.2403 131.895 33.2574 131.895 33.2916C131.895 33.719 132.134 33.9242 132.63 33.9242Z" fill="white"/>
<path d="M117.363 33.2915C117.363 33.2573 117.363 33.2402 117.363 33.2061C117.329 33.5651 117.09 33.7531 116.628 33.7531H105.823C105.823 33.7531 105.823 33.8215 105.823 33.9241H116.628C117.124 33.9241 117.363 33.7189 117.363 33.2915Z" fill="white"/>
<path d="M110.559 28.7268H117.961C118.902 28.7268 119.705 29.0687 120.355 29.7526C121.022 30.4022 121.363 31.2228 121.363 32.1631V31.9921C121.363 31.0348 121.022 30.2313 120.355 29.5816C119.705 28.8978 118.902 28.5559 117.961 28.5559H110.559C110.097 28.5559 109.858 28.3678 109.824 27.9917C109.824 28.0259 109.824 28.043 109.824 28.0772C109.807 28.5046 110.063 28.7268 110.559 28.7268Z" fill="white"/>
<path d="M60.2287 26.949V29.1885C60.2287 30.1117 59.9039 30.9323 59.2372 31.6161C58.5704 32.2829 57.7669 32.6248 56.8266 32.6248H50.2789C49.9883 32.6248 49.8515 32.488 49.8515 32.1974V29.1543C49.8515 28.8637 49.9883 28.7269 50.2789 28.7269H55.4932C55.9719 28.7269 56.2283 28.5047 56.2283 28.0773C56.2283 27.6157 55.989 27.3935 55.4932 27.3935H49.4071C49.1677 27.3935 48.9797 27.4789 48.8087 27.6499C48.6548 27.8208 48.5694 28.026 48.5694 28.2653V33.0522C48.5694 33.2915 48.6548 33.4967 48.8087 33.6676C48.9626 33.8386 49.1677 33.9241 49.4071 33.9241H56.348V37.839H48.0907C47.1675 37.839 46.364 37.4971 45.6802 36.8304C45.0134 36.1465 44.6886 35.3259 44.6886 34.4027V26.949C44.6886 26.0087 45.0134 25.2052 45.6802 24.5384C46.3469 23.8546 47.1675 23.5127 48.0907 23.5127H56.8266C57.7669 23.5127 58.5704 23.8546 59.2201 24.5384C59.8868 25.1881 60.2287 25.9916 60.2287 26.949Z" fill="url(#paint12_linear)"/>
<path d="M65.5968 23.5127V30.0091C65.5968 31.0862 65.9729 32.0093 66.7251 32.7615C67.4773 33.5309 68.3834 33.907 69.4434 33.907H72.23C72.4693 33.907 72.6574 33.7189 72.6574 33.4796V23.5127H76.5211V36.7962C76.5211 37.3603 76.0595 37.8219 75.4953 37.8219H68.4176C67.5457 37.8219 66.7251 37.651 65.9387 37.309C65.1523 36.9671 64.4172 36.4542 63.7676 35.7875C62.417 34.4198 61.7502 32.8641 61.7502 31.0862V23.5127H65.5968Z" fill="url(#paint13_linear)"/>
<path d="M156.153 37.839V31.3426C156.153 30.2655 155.777 29.3424 155.025 28.5902C154.273 27.8208 153.367 27.4447 152.307 27.4447H149.52C149.281 27.4447 149.093 27.6328 149.093 27.8721V37.839H145.229V24.5555C145.229 23.9914 145.691 23.5298 146.255 23.5298H153.333C154.204 23.5298 155.025 23.7007 155.811 24.0427C156.598 24.3846 157.333 24.8975 157.983 25.5642C159.333 26.9319 160 28.4876 160 30.2655V37.839H156.153Z" fill="url(#paint14_linear)"/>
<path d="M78.3162 28.1628V37.839H82.1798V28.4705C82.1798 27.7012 82.7953 27.0857 83.5475 27.0857H90.7106V23.5127H82.932C80.3848 23.5127 78.3162 25.5984 78.3162 28.1628Z" fill="url(#paint15_linear)"/>
<path d="M104.302 26.949V34.4027C104.302 35.343 103.96 36.1636 103.293 36.8304C102.626 37.4971 101.84 37.839 100.9 37.839H92.1637C91.2405 37.839 90.437 37.4971 89.7532 36.8304C89.0865 36.1465 88.7617 35.3259 88.7617 34.4027V32.1632C88.7617 31.2229 89.0865 30.4194 89.7532 29.7527C90.42 29.0688 91.2405 28.7269 92.1637 28.7269H98.7114C99.0021 28.7269 99.1388 28.8637 99.1388 29.1543V32.1974C99.1388 32.488 99.0021 32.6248 98.7114 32.6248H93.4972C93.0014 32.6248 92.745 32.847 92.745 33.2915C92.745 33.7018 93.0014 33.9241 93.4972 33.9241H99.5662C99.8056 33.9241 100.011 33.8386 100.165 33.6847C100.336 33.5309 100.421 33.3257 100.421 33.0864V28.2653C100.421 28.026 100.336 27.8208 100.165 27.6499C99.9936 27.4789 99.8056 27.3935 99.5662 27.3935H92.6424V23.5127H100.9C101.84 23.5127 102.643 23.8546 103.293 24.5384C103.977 25.1881 104.302 25.9916 104.302 26.949Z" fill="url(#paint16_linear)"/>
<path d="M143.434 26.949V34.4027C143.434 35.343 143.092 36.1636 142.426 36.8304C141.759 37.4971 140.972 37.839 140.032 37.839H131.296C130.373 37.839 129.57 37.4971 128.886 36.8304C128.219 36.1465 127.894 35.3259 127.894 34.4027V32.1632C127.894 31.2229 128.219 30.4194 128.886 29.7527C129.552 29.0688 130.373 28.7269 131.296 28.7269H137.844C138.135 28.7269 138.271 28.8637 138.271 29.1543V32.1974C138.271 32.488 138.135 32.6248 137.844 32.6248H132.63C132.134 32.6248 131.877 32.847 131.877 33.2915C131.877 33.7018 132.134 33.9241 132.63 33.9241H138.699C138.938 33.9241 139.143 33.8386 139.297 33.6847C139.468 33.5309 139.553 33.3257 139.553 33.0864V28.2653C139.553 28.026 139.468 27.8208 139.297 27.6499C139.126 27.4789 138.938 27.3935 138.699 27.3935H131.775V23.5127H140.032C140.972 23.5127 141.776 23.8546 142.426 24.5384C143.109 25.1881 143.434 25.9916 143.434 26.949Z" fill="url(#paint17_linear)"/>
<path d="M121.363 32.1632V34.4027C121.363 35.343 121.021 36.1636 120.355 36.8304C119.688 37.4971 118.902 37.839 117.961 37.839H105.823C105.823 37.839 105.823 33.8899 105.823 33.9241H116.628C117.124 33.9241 117.38 33.7189 117.38 33.2915C117.38 32.847 117.124 32.6248 116.628 32.6248H109.225C108.302 32.6248 107.499 32.2829 106.815 31.6161C106.148 30.9323 105.823 30.1117 105.823 29.1885V26.949C105.823 26.0087 106.148 25.2052 106.815 24.5384C107.482 23.8546 108.302 23.5127 109.225 23.5127H117.483V27.4105H110.559C110.063 27.4105 109.807 27.6328 109.807 28.0773C109.807 28.5047 110.063 28.7269 110.559 28.7269H117.961C118.902 28.7269 119.705 29.0688 120.355 29.7527C121.021 30.4023 121.363 31.2058 121.363 32.1632Z" fill="url(#paint18_linear)"/>
<path d="M126.39 23.5127V37.839H122.526V23.5127H126.39Z" fill="url(#paint19_linear)"/>
<path d="M136.681 43.3783C137.331 42.6945 138.134 42.3525 139.075 42.3525H147.811C148.751 42.3525 149.554 42.6945 150.221 43.3783C150.888 44.045 151.213 44.8485 151.213 45.7888V53.2426C151.213 54.1658 150.888 54.9864 150.221 55.6702C149.537 56.337 148.734 56.6789 147.811 56.6789H139.553V52.7639H146.494C146.734 52.7639 146.922 52.6784 147.093 52.5075C147.247 52.3365 147.332 52.1314 147.332 51.892V47.1052C147.332 46.8658 147.247 46.6607 147.093 46.4897C146.939 46.3188 146.734 46.2333 146.494 46.2333H140.408C139.93 46.2333 139.673 46.4555 139.673 46.9171C139.673 47.3445 139.912 47.5668 140.408 47.5668H145.622C145.913 47.5668 146.05 47.7035 146.05 47.9942V51.0372C146.05 51.3279 145.913 51.4646 145.622 51.4646H139.075C138.134 51.4646 137.331 51.1227 136.664 50.456C135.997 49.7721 135.673 48.9515 135.673 48.0284V45.7888C135.673 44.8314 136.015 44.0279 136.681 43.3783Z" fill="#1A1B1A"/>
<path d="M130.561 56.6789V50.1824C130.561 49.1054 130.185 48.1822 129.433 47.43C128.681 46.6607 127.774 46.2846 126.715 46.2846H123.928C123.689 46.2846 123.501 46.4726 123.501 46.712V56.6789H119.637V43.3954C119.637 42.8312 120.098 42.3696 120.663 42.3696H127.74C128.612 42.3696 129.433 42.5406 130.219 42.8825C131.006 43.2244 131.741 43.7373 132.39 44.404C133.741 45.7717 134.408 47.3274 134.408 49.1054V56.6789H130.561Z" fill="#1A1B1A"/>
<path d="M90.0098 45.7888V53.2426C90.0098 54.1829 89.6678 55.0035 89.0011 55.6702C88.3344 56.337 87.5479 56.6789 86.6077 56.6789H77.8717C76.9485 56.6789 76.145 56.337 75.4612 55.6702C74.7944 54.9864 74.4696 54.1658 74.4696 53.2426V51.003C74.4696 50.0628 74.7944 49.2593 75.4612 48.5925C76.1279 47.9087 76.9485 47.5668 77.8717 47.5668H84.4194C84.71 47.5668 84.8468 47.7035 84.8468 47.9942V51.0372C84.8468 51.3279 84.71 51.4646 84.4194 51.4646H79.2052C78.7094 51.4646 78.4529 51.6869 78.4529 52.1314C78.4529 52.5417 78.7094 52.7639 79.2052 52.7639H85.2742C85.5135 52.7639 85.7187 52.6784 85.8725 52.5246C86.0435 52.3707 86.129 52.1656 86.129 51.9262V47.1052C86.129 46.8658 86.0435 46.6607 85.8725 46.4897C85.7016 46.3188 85.5135 46.2333 85.2742 46.2333H78.3504V42.3525H86.6077C87.5479 42.3525 88.3514 42.6945 89.0011 43.3783C89.6678 44.0279 90.0098 44.8314 90.0098 45.7888Z" fill="#1A1B1A"/>
<path d="M71.9394 55.6531C71.2898 56.337 70.4863 56.6789 69.546 56.6789H61.2887V52.7981H68.2125C68.4519 52.7981 68.657 52.7126 68.8109 52.5417C68.9818 52.3707 69.0673 52.1656 69.0673 51.9262V47.1052C69.0673 46.8658 68.9818 46.6607 68.8109 46.5068C68.6399 46.353 68.4519 46.2675 68.2125 46.2675H62.1435C61.6477 46.2675 61.3913 46.4726 61.3913 46.9C61.3913 47.3445 61.6477 47.5668 62.1435 47.5668H67.3577C67.6484 47.5668 67.7851 47.7035 67.7851 47.9942V51.0372C67.7851 51.3279 67.6484 51.4646 67.3577 51.4646H60.81C59.8698 51.4646 59.0663 51.1227 58.3995 50.4389C57.7328 49.7721 57.408 48.9686 57.408 48.0284V45.7888C57.408 44.8656 57.7328 44.045 58.3995 43.3612C59.0834 42.6945 59.8869 42.3525 60.81 42.3525H69.546C70.4863 42.3525 71.2727 42.6945 71.9394 43.3612C72.6062 44.045 72.9481 44.8485 72.9481 45.7888V53.2426C72.9481 54.2 72.6062 55.0035 71.9394 55.6531Z" fill="#1A1B1A"/>
<path d="M117.859 42.3525V56.6789H113.995V42.3525H117.859Z" fill="#1A1B1A"/>
<path d="M112.046 47.0026V56.6789H108.183L108.2 47.6181C108.2 46.8488 107.584 46.2333 106.832 46.2333H104.712V56.6789H100.849V47.6181C100.849 46.8488 100.233 46.2333 99.4809 46.2333H95.6685V56.6789H91.8049V42.3525H98.6432C99.0877 42.3525 99.5835 42.4551 100.113 42.6432C100.695 42.8483 101.413 43.2415 101.772 43.498V42.3696H107.43C109.978 42.3525 112.046 44.4382 112.046 47.0026Z" fill="#1A1B1A"/>
<path d="M136.681 42.1644C137.331 41.4806 138.134 41.1387 139.075 41.1387H147.811C148.751 41.1387 149.554 41.4806 150.221 42.1644C150.888 42.8312 151.213 43.6347 151.213 44.5749V52.0287C151.213 52.9519 150.888 53.7725 150.221 54.4563C149.537 55.1231 148.734 55.465 147.811 55.465H139.553V51.55H146.494C146.734 51.55 146.922 51.4646 147.093 51.2936C147.247 51.1226 147.332 50.9175 147.332 50.6781V45.8913C147.332 45.652 147.247 45.4468 147.093 45.2759C146.939 45.1049 146.734 45.0194 146.494 45.0194H140.408C139.93 45.0194 139.673 45.2417 139.673 45.7033C139.673 46.1307 139.912 46.3529 140.408 46.3529H145.622C145.913 46.3529 146.05 46.4897 146.05 46.7803V49.8234C146.05 50.114 145.913 50.2508 145.622 50.2508H139.075C138.134 50.2508 137.331 49.9088 136.664 49.2421C135.997 48.5583 135.673 47.7377 135.673 46.8145V44.5749C135.673 43.6347 136.015 42.8312 136.681 42.1644Z" fill="url(#paint20_linear)"/>
<path d="M130.561 55.465V48.9686C130.561 47.8915 130.185 46.9683 129.433 46.2161C128.681 45.4468 127.774 45.0707 126.715 45.0707H123.928C123.689 45.0707 123.501 45.2588 123.501 45.4981V55.465H119.637V42.1815C119.637 41.6173 120.098 41.1558 120.663 41.1558H127.74C128.612 41.1558 129.433 41.3267 130.219 41.6686C131.006 42.0106 131.741 42.5234 132.39 43.1902C133.741 44.5578 134.408 46.1136 134.408 47.8915V55.465H130.561Z" fill="url(#paint21_linear)"/>
<path d="M90.0098 44.592V52.0458C90.0098 52.9861 89.6678 53.8067 89.0011 54.4734C88.3344 55.1402 87.5479 55.4821 86.6077 55.4821H77.8717C76.9485 55.4821 76.145 55.1402 75.4612 54.4734C74.7944 53.7896 74.4696 52.969 74.4696 52.0458V49.8063C74.4696 48.866 74.7944 48.0625 75.4612 47.3957C76.1279 46.7119 76.9485 46.37 77.8717 46.37H84.4194C84.71 46.37 84.8468 46.5068 84.8468 46.7974V49.8405C84.8468 50.1311 84.71 50.2678 84.4194 50.2678H79.2052C78.7094 50.2678 78.4529 50.4901 78.4529 50.9346C78.4529 51.3449 78.7094 51.5671 79.2052 51.5671H85.2742C85.5135 51.5671 85.7187 51.4817 85.8725 51.3278C86.0435 51.1739 86.129 50.9688 86.129 50.7294V45.9084C86.129 45.6691 86.0435 45.4639 85.8725 45.293C85.7016 45.122 85.5135 45.0365 85.2742 45.0365H78.3504V41.1558H86.6077C87.5479 41.1558 88.3514 41.4977 89.0011 42.1815C89.6678 42.8312 90.0098 43.6347 90.0098 44.592Z" fill="url(#paint22_linear)"/>
<path d="M71.9394 54.4563C71.2898 55.1402 70.4863 55.4821 69.546 55.4821H61.2887V51.6013H68.2125C68.4519 51.6013 68.657 51.5158 68.8109 51.3449C68.9818 51.1739 69.0673 50.9688 69.0673 50.7294V45.9084C69.0673 45.6691 68.9818 45.4639 68.8109 45.3101C68.6399 45.1562 68.4519 45.0707 68.2125 45.0707H62.1435C61.6477 45.0707 61.3913 45.2759 61.3913 45.7033C61.3913 46.1477 61.6477 46.37 62.1435 46.37H67.3577C67.6484 46.37 67.7851 46.5068 67.7851 46.7974V49.8405C67.7851 50.1311 67.6484 50.2678 67.3577 50.2678H60.81C59.8698 50.2678 59.0663 49.9259 58.3995 49.2421C57.7328 48.5754 57.408 47.7719 57.408 46.8316V44.592C57.408 43.6689 57.7328 42.8483 58.3995 42.1644C59.0834 41.4977 59.8869 41.1558 60.81 41.1558H69.546C70.4863 41.1558 71.2727 41.4977 71.9394 42.1644C72.6062 42.8483 72.9481 43.6518 72.9481 44.592V52.0458C72.9481 52.9861 72.6062 53.7896 71.9394 54.4563Z" fill="url(#paint23_linear)"/>
<path d="M117.859 41.1387V55.465H113.995V41.1387H117.859Z" fill="url(#paint24_linear)"/>
<path d="M112.046 45.8058V55.4821H108.183L108.2 46.4213C108.2 45.652 107.584 45.0365 106.832 45.0365H104.712V55.4821H100.849V46.4213C100.849 45.652 100.233 45.0365 99.4809 45.0365H95.6685V55.4821H91.8049V41.1558H98.6432C99.0877 41.1558 99.5835 41.2583 100.113 41.4464C100.695 41.6515 101.413 42.0447 101.772 42.3012V41.1729H107.43C109.978 41.1387 112.046 43.2244 112.046 45.8058Z" fill="url(#paint25_linear)"/>
<path d="M140.408 46.8831H145.622C145.913 46.8831 146.05 47.0198 146.05 47.3105V47.1395C146.05 46.8489 145.913 46.7121 145.622 46.7121H140.408C139.964 46.7121 139.724 46.5241 139.69 46.1479C139.69 46.1821 139.69 46.1992 139.69 46.2334C139.673 46.6608 139.929 46.8831 140.408 46.8831Z" fill="white"/>
<path d="M147.093 51.8235C147.247 51.6526 147.332 51.4474 147.332 51.2081V51.0371C147.332 51.2765 147.247 51.4816 147.093 51.6526C146.939 51.8235 146.734 51.909 146.494 51.909H139.553V52.08H146.494C146.734 52.0629 146.939 51.9774 147.093 51.8235Z" fill="white"/>
<path d="M77.8717 46.8829H84.4194C84.71 46.8829 84.8468 47.0196 84.8468 47.3103V47.1393C84.8468 46.8487 84.71 46.7119 84.4194 46.7119H77.8717C76.9314 46.7119 76.1279 47.0538 75.4612 47.7377C74.7944 48.4044 74.4696 49.2079 74.4696 50.1482V50.3191C74.4696 49.3789 74.7944 48.5754 75.4612 47.9086C76.1279 47.2077 76.9314 46.8829 77.8717 46.8829Z" fill="white"/>
<path d="M79.188 52.0629H85.257C85.4964 52.0629 85.7015 51.9774 85.8554 51.8235C86.0263 51.6696 86.1118 51.4645 86.1118 51.2252V51.0542C86.1118 51.2935 86.0263 51.4987 85.8554 51.6526C85.6844 51.8064 85.4964 51.8919 85.257 51.8919H79.188C78.7264 51.8919 78.4871 51.7038 78.4529 51.3448C78.4529 51.379 78.4529 51.3961 78.4529 51.4303C78.4529 51.8577 78.6922 52.0629 79.188 52.0629Z" fill="white"/>
<path d="M68.8109 51.8577C68.9819 51.6867 69.0674 51.4816 69.0674 51.2422V51.0713C69.0674 51.3106 68.9819 51.5158 68.8109 51.6867C68.64 51.8577 68.4519 51.9432 68.2126 51.9432H61.2888V52.1141H68.2126C68.4519 52.097 68.64 52.0116 68.8109 51.8577Z" fill="white"/>
<path d="M62.1436 46.8826H67.3578C67.6484 46.8826 67.7852 47.0194 67.7852 47.31V47.139C67.7852 46.8484 67.6484 46.7116 67.3578 46.7116H62.1436C61.682 46.7116 61.4426 46.5236 61.4085 46.1304C61.4085 46.1646 61.4085 46.1817 61.4085 46.2159C61.3914 46.6603 61.6478 46.8826 62.1436 46.8826Z" fill="white"/>
<path d="M136.681 42.6771C137.331 41.9933 138.134 41.6514 139.075 41.6514H147.811C148.751 41.6514 149.554 41.9933 150.221 42.6771C150.888 43.3439 151.213 44.1474 151.213 45.0876V52.5414C151.213 53.4646 150.888 54.2852 150.221 54.969C149.537 55.6358 148.734 55.9777 147.811 55.9777H139.553V52.0627H146.494C146.734 52.0627 146.922 51.9773 147.093 51.8063C147.247 51.6353 147.332 51.4302 147.332 51.1909V46.404C147.332 46.1647 147.247 45.9595 147.093 45.7886C146.939 45.6176 146.734 45.5321 146.494 45.5321H140.408C139.93 45.5321 139.673 45.7544 139.673 46.216C139.673 46.6434 139.912 46.8656 140.408 46.8656H145.622C145.913 46.8656 146.05 47.0024 146.05 47.293V50.3532C146.05 50.6438 145.913 50.7806 145.622 50.7806H139.075C138.134 50.7806 137.331 50.4386 136.664 49.7719C135.997 49.0881 135.673 48.2675 135.673 47.3443V45.1047C135.673 44.1474 136.015 43.3439 136.681 42.6771Z" fill="url(#paint26_linear)"/>
<path d="M130.561 55.9948V49.4983C130.561 48.4213 130.185 47.4981 129.433 46.7459C128.681 45.9766 127.774 45.6005 126.715 45.6005H123.928C123.689 45.6005 123.501 45.7885 123.501 46.0279V55.9948H119.637V42.7113C119.637 42.1471 120.098 41.6855 120.663 41.6855H127.74C128.612 41.6855 129.433 41.8565 130.219 42.1984C131.006 42.5403 131.741 43.0532 132.39 43.72C133.741 45.0876 134.408 46.6433 134.408 48.4213V55.9948H130.561Z" fill="url(#paint27_linear)"/>
<path d="M90.0098 45.1047V52.5585C90.0098 53.4988 89.6678 54.3194 89.0011 54.9861C88.3344 55.6529 87.5479 55.9948 86.6077 55.9948H77.8717C76.9485 55.9948 76.145 55.6529 75.4612 54.9861C74.7944 54.3023 74.4696 53.4817 74.4696 52.5585V50.3189C74.4696 49.3787 74.7944 48.5752 75.4612 47.9084C76.1279 47.2246 76.9485 46.8827 77.8717 46.8827H84.4194C84.71 46.8827 84.8468 47.0195 84.8468 47.3101V50.3531C84.8468 50.6438 84.71 50.7805 84.4194 50.7805H79.2052C78.7094 50.7805 78.4529 51.0028 78.4529 51.4473C78.4529 51.8576 78.7094 52.0798 79.2052 52.0798H85.2742C85.5135 52.0798 85.7187 51.9943 85.8725 51.8405C86.0435 51.6866 86.129 51.4815 86.129 51.2421V46.4211C86.129 46.1818 86.0435 45.9766 85.8725 45.8056C85.7016 45.6347 85.5135 45.5492 85.2742 45.5492H78.3504V41.6685H86.6077C87.5479 41.6685 88.3514 42.0104 89.0011 42.6942C89.6678 43.3438 90.0098 44.1474 90.0098 45.1047Z" fill="url(#paint28_linear)"/>
<path d="M71.9394 54.969C71.2898 55.6529 70.4863 55.9948 69.546 55.9948H61.2887V52.114H68.2125C68.4519 52.114 68.657 52.0285 68.8109 51.8576C68.9818 51.6866 69.0673 51.4815 69.0673 51.2421V46.4211C69.0673 46.1818 68.9818 45.9766 68.8109 45.8227C68.6399 45.6689 68.4519 45.5834 68.2125 45.5834H62.1435C61.6477 45.5834 61.3913 45.7886 61.3913 46.216C61.3913 46.6604 61.6477 46.8827 62.1435 46.8827H67.3577C67.6484 46.8827 67.7851 47.0195 67.7851 47.3101V50.3531C67.7851 50.6438 67.6484 50.7805 67.3577 50.7805H60.81C59.8698 50.7805 59.0663 50.4386 58.3995 49.7548C57.7328 49.088 57.408 48.2845 57.408 47.3443V45.1047C57.408 44.1815 57.7328 43.3609 58.3995 42.6771C59.0834 42.0104 59.8869 41.6685 60.81 41.6685H69.546C70.4863 41.6685 71.2727 42.0104 71.9394 42.6771C72.6062 43.3609 72.9481 44.1644 72.9481 45.1047V52.5585C72.9481 53.4988 72.6062 54.3194 71.9394 54.969Z" fill="url(#paint29_linear)"/>
<path d="M117.859 41.6685V55.9948H113.995V41.6685H117.859Z" fill="url(#paint30_linear)"/>
<path d="M112.046 46.3185V55.9948H108.183L108.2 46.934C108.2 46.1647 107.584 45.5492 106.832 45.5492H104.712V55.9948H100.849V46.934C100.849 46.1647 100.233 45.5492 99.4809 45.5492H95.6685V55.9948H91.8049V41.6685H98.6432C99.0877 41.6685 99.5835 41.771 100.113 41.9591C100.695 42.1642 101.413 42.5574 101.772 42.8139V41.6856H107.43C109.978 41.6685 112.046 43.7541 112.046 46.3185Z" fill="url(#paint31_linear)"/>
<defs>
<linearGradient id="paint0_linear" x1="0" y1="34.0109" x2="24.1139" y2="34.0109" gradientUnits="userSpaceOnUse">
<stop stop-color="#BE8E4B"/>
<stop offset="0.0418612" stop-color="#C4995A"/>
<stop offset="0.1227" stop-color="#D4B783"/>
<stop offset="0.15" stop-color="#DAC292"/>
<stop offset="0.2246" stop-color="#D4B782"/>
<stop offset="0.3685" stop-color="#C49A5A"/>
<stop offset="0.5" stop-color="#B47B30"/>
<stop offset="0.5608" stop-color="#BA8640"/>
<stop offset="0.6789" stop-color="#CAA268"/>
<stop offset="0.8412" stop-color="#E3CFA9"/>
<stop offset="0.85" stop-color="#E4D2AD"/>
<stop offset="0.8772" stop-color="#DEC79D"/>
<stop offset="0.9301" stop-color="#CFAB75"/>
<stop offset="0.9919" stop-color="#BA853E"/>
</linearGradient>
<linearGradient id="paint1_linear" x1="12.057" y1="45.6804" x2="12.057" y2="24.3446" gradientUnits="userSpaceOnUse">
<stop stop-color="#BA903E"/>
<stop offset="0.1199" stop-color="#C0994E"/>
<stop offset="0.3528" stop-color="#CEB076"/>
<stop offset="0.6724" stop-color="#E5D6B7"/>
<stop offset="0.9919" stop-color="white"/>
</linearGradient>
<linearGradient id="paint2_linear" x1="15.748" y1="43.5485" x2="39.8619" y2="43.5485" gradientUnits="userSpaceOnUse">
<stop stop-color="#7C7D7E"/>
<stop offset="0.00706437" stop-color="#7A7B7C"/>
<stop offset="0.1328" stop-color="#5E5E60"/>
<stop offset="0.258" stop-color="#4A4A4C"/>
<stop offset="0.3811" stop-color="#3E3D40"/>
<stop offset="0.5" stop-color="#3A393C"/>
<stop offset="0.6189" stop-color="#3E3D40"/>
<stop offset="0.742" stop-color="#4A4A4C"/>
<stop offset="0.8672" stop-color="#5E5E60"/>
<stop offset="0.9929" stop-color="#7A7B7C"/>
<stop offset="1" stop-color="#7C7D7E"/>
</linearGradient>
<linearGradient id="paint3_linear" x1="27.805" y1="59.5674" x2="27.805" y2="33.7326" gradientUnits="userSpaceOnUse">
<stop stop-color="white"/>
<stop offset="0.4162" stop-color="#97999B"/>
<stop offset="0.9919" stop-color="white"/>
</linearGradient>
<linearGradient id="paint4_linear" x1="44.6824" y1="30.1628" x2="60.2287" y2="30.1628" gradientUnits="userSpaceOnUse">
<stop stop-color="#7C7D7E"/>
<stop offset="0.00706437" stop-color="#7A7B7C"/>
<stop offset="0.1328" stop-color="#5E5E60"/>
<stop offset="0.258" stop-color="#4A4A4C"/>
<stop offset="0.3811" stop-color="#3E3D40"/>
<stop offset="0.5" stop-color="#3A393C"/>
<stop offset="0.6189" stop-color="#3E3D40"/>
<stop offset="0.742" stop-color="#4A4A4C"/>
<stop offset="0.8672" stop-color="#5E5E60"/>
<stop offset="0.9929" stop-color="#7A7B7C"/>
<stop offset="1" stop-color="#7C7D7E"/>
</linearGradient>
<linearGradient id="paint5_linear" x1="61.7371" y1="30.1628" x2="76.5203" y2="30.1628" gradientUnits="userSpaceOnUse">
<stop stop-color="#7C7D7E"/>
<stop offset="0.00706437" stop-color="#7A7B7C"/>
<stop offset="0.1328" stop-color="#5E5E60"/>
<stop offset="0.258" stop-color="#4A4A4C"/>
<stop offset="0.3811" stop-color="#3E3D40"/>
<stop offset="0.5" stop-color="#3A393C"/>
<stop offset="0.6189" stop-color="#3E3D40"/>
<stop offset="0.742" stop-color="#4A4A4C"/>
<stop offset="0.8672" stop-color="#5E5E60"/>
<stop offset="0.9929" stop-color="#7A7B7C"/>
<stop offset="1" stop-color="#7C7D7E"/>
</linearGradient>
<linearGradient id="paint6_linear" x1="145.225" y1="30.1628" x2="160.008" y2="30.1628" gradientUnits="userSpaceOnUse">
<stop stop-color="#7C7D7E"/>
<stop offset="0.00706437" stop-color="#7A7B7C"/>
<stop offset="0.1328" stop-color="#5E5E60"/>
<stop offset="0.258" stop-color="#4A4A4C"/>
<stop offset="0.3811" stop-color="#3E3D40"/>
<stop offset="0.5" stop-color="#3A393C"/>
<stop offset="0.6189" stop-color="#3E3D40"/>
<stop offset="0.742" stop-color="#4A4A4C"/>
<stop offset="0.8672" stop-color="#5E5E60"/>
<stop offset="0.9929" stop-color="#7A7B7C"/>
<stop offset="1" stop-color="#7C7D7E"/>
</linearGradient>
<linearGradient id="paint7_linear" x1="78.3126" y1="30.1628" x2="90.7095" y2="30.1628" gradientUnits="userSpaceOnUse">
<stop stop-color="#7C7D7E"/>
<stop offset="0.00706437" stop-color="#7A7B7C"/>
<stop offset="0.1328" stop-color="#5E5E60"/>
<stop offset="0.258" stop-color="#4A4A4C"/>
<stop offset="0.3811" stop-color="#3E3D40"/>
<stop offset="0.5" stop-color="#3A393C"/>
<stop offset="0.6189" stop-color="#3E3D40"/>
<stop offset="0.742" stop-color="#4A4A4C"/>
<stop offset="0.8672" stop-color="#5E5E60"/>
<stop offset="0.9929" stop-color="#7A7B7C"/>
<stop offset="1" stop-color="#7C7D7E"/>
</linearGradient>
<linearGradient id="paint8_linear" x1="88.7633" y1="30.1628" x2="104.309" y2="30.1628" gradientUnits="userSpaceOnUse">
<stop stop-color="#7C7D7E"/>
<stop offset="0.00706437" stop-color="#7A7B7C"/>
<stop offset="0.1328" stop-color="#5E5E60"/>
<stop offset="0.258" stop-color="#4A4A4C"/>
<stop offset="0.3811" stop-color="#3E3D40"/>
<stop offset="0.5" stop-color="#3A393C"/>
<stop offset="0.6189" stop-color="#3E3D40"/>
<stop offset="0.742" stop-color="#4A4A4C"/>
<stop offset="0.8672" stop-color="#5E5E60"/>
<stop offset="0.9929" stop-color="#7A7B7C"/>
<stop offset="1" stop-color="#7C7D7E"/>
</linearGradient>
<linearGradient id="paint9_linear" x1="127.895" y1="30.1628" x2="143.441" y2="30.1628" gradientUnits="userSpaceOnUse">
<stop stop-color="#7C7D7E"/>
<stop offset="0.00706437" stop-color="#7A7B7C"/>
<stop offset="0.1328" stop-color="#5E5E60"/>
<stop offset="0.258" stop-color="#4A4A4C"/>
<stop offset="0.3811" stop-color="#3E3D40"/>
<stop offset="0.5" stop-color="#3A393C"/>
<stop offset="0.6189" stop-color="#3E3D40"/>
<stop offset="0.742" stop-color="#4A4A4C"/>
<stop offset="0.8672" stop-color="#5E5E60"/>
<stop offset="0.9929" stop-color="#7A7B7C"/>
<stop offset="1" stop-color="#7C7D7E"/>
</linearGradient>
<linearGradient id="paint10_linear" x1="105.818" y1="30.1628" x2="121.364" y2="30.1628" gradientUnits="userSpaceOnUse">
<stop stop-color="#7C7D7E"/>
<stop offset="0.00706437" stop-color="#7A7B7C"/>
<stop offset="0.1328" stop-color="#5E5E60"/>
<stop offset="0.258" stop-color="#4A4A4C"/>
<stop offset="0.3811" stop-color="#3E3D40"/>
<stop offset="0.5" stop-color="#3A393C"/>
<stop offset="0.6189" stop-color="#3E3D40"/>
<stop offset="0.742" stop-color="#4A4A4C"/>
<stop offset="0.8672" stop-color="#5E5E60"/>
<stop offset="0.9929" stop-color="#7A7B7C"/>
<stop offset="1" stop-color="#7C7D7E"/>
</linearGradient>
<linearGradient id="paint11_linear" x1="122.518" y1="30.1628" x2="126.387" y2="30.1628" gradientUnits="userSpaceOnUse">
<stop stop-color="#7C7D7E"/>
<stop offset="0.00706437" stop-color="#7A7B7C"/>
<stop offset="0.1328" stop-color="#5E5E60"/>
<stop offset="0.258" stop-color="#4A4A4C"/>
<stop offset="0.3811" stop-color="#3E3D40"/>
<stop offset="0.5" stop-color="#3A393C"/>
<stop offset="0.6189" stop-color="#3E3D40"/>
<stop offset="0.742" stop-color="#4A4A4C"/>
<stop offset="0.8672" stop-color="#5E5E60"/>
<stop offset="0.9929" stop-color="#7A7B7C"/>
<stop offset="1" stop-color="#7C7D7E"/>
</linearGradient>
<linearGradient id="paint12_linear" x1="52.4556" y1="39.7648" x2="52.4556" y2="24.2536" gradientUnits="userSpaceOnUse">
<stop stop-color="white"/>
<stop offset="0.4162" stop-color="#97999B"/>
<stop offset="0.9919" stop-color="white"/>
</linearGradient>
<linearGradient id="paint13_linear" x1="69.1287" y1="39.7648" x2="69.1287" y2="24.2536" gradientUnits="userSpaceOnUse">
<stop stop-color="white"/>
<stop offset="0.4162" stop-color="#97999B"/>
<stop offset="0.9919" stop-color="white"/>
</linearGradient>
<linearGradient id="paint14_linear" x1="152.616" y1="39.7648" x2="152.616" y2="24.2536" gradientUnits="userSpaceOnUse">
<stop stop-color="white"/>
<stop offset="0.4162" stop-color="#97999B"/>
<stop offset="0.9919" stop-color="white"/>
</linearGradient>
<linearGradient id="paint15_linear" x1="84.511" y1="39.7648" x2="84.511" y2="24.2536" gradientUnits="userSpaceOnUse">
<stop stop-color="white"/>
<stop offset="0.4162" stop-color="#97999B"/>
<stop offset="0.9919" stop-color="white"/>
</linearGradient>
<linearGradient id="paint16_linear" x1="96.5364" y1="39.7648" x2="96.5364" y2="24.2536" gradientUnits="userSpaceOnUse">
<stop stop-color="white"/>
<stop offset="0.4162" stop-color="#97999B"/>
<stop offset="0.9919" stop-color="white"/>
</linearGradient>
<linearGradient id="paint17_linear" x1="135.668" y1="39.7648" x2="135.668" y2="24.2536" gradientUnits="userSpaceOnUse">
<stop stop-color="white"/>
<stop offset="0.4162" stop-color="#97999B"/>
<stop offset="0.9919" stop-color="white"/>
</linearGradient>
<linearGradient id="paint18_linear" x1="113.591" y1="39.7648" x2="113.591" y2="24.2536" gradientUnits="userSpaceOnUse">
<stop stop-color="white"/>
<stop offset="0.4162" stop-color="#97999B"/>
<stop offset="0.9919" stop-color="white"/>
</linearGradient>
<linearGradient id="paint19_linear" x1="124.452" y1="39.7648" x2="124.452" y2="24.2536" gradientUnits="userSpaceOnUse">
<stop stop-color="white"/>
<stop offset="0.4162" stop-color="#97999B"/>
<stop offset="0.9919" stop-color="white"/>
</linearGradient>
<linearGradient id="paint20_linear" x1="135.671" y1="48.3096" x2="151.217" y2="48.3096" gradientUnits="userSpaceOnUse">
<stop stop-color="#7C7D7E"/>
<stop offset="0.00706437" stop-color="#7A7B7C"/>
<stop offset="0.1328" stop-color="#5E5E60"/>
<stop offset="0.258" stop-color="#4A4A4C"/>
<stop offset="0.3811" stop-color="#3E3D40"/>
<stop offset="0.5" stop-color="#3A393C"/>
<stop offset="0.6189" stop-color="#3E3D40"/>
<stop offset="0.742" stop-color="#4A4A4C"/>
<stop offset="0.8672" stop-color="#5E5E60"/>
<stop offset="0.9929" stop-color="#7A7B7C"/>
<stop offset="1" stop-color="#7C7D7E"/>
</linearGradient>
<linearGradient id="paint21_linear" x1="119.637" y1="48.3096" x2="134.42" y2="48.3096" gradientUnits="userSpaceOnUse">
<stop stop-color="#7C7D7E"/>
<stop offset="0.00706437" stop-color="#7A7B7C"/>
<stop offset="0.1328" stop-color="#5E5E60"/>
<stop offset="0.258" stop-color="#4A4A4C"/>
<stop offset="0.3811" stop-color="#3E3D40"/>
<stop offset="0.5" stop-color="#3A393C"/>
<stop offset="0.6189" stop-color="#3E3D40"/>
<stop offset="0.742" stop-color="#4A4A4C"/>
<stop offset="0.8672" stop-color="#5E5E60"/>
<stop offset="0.9929" stop-color="#7A7B7C"/>
<stop offset="1" stop-color="#7C7D7E"/>
</linearGradient>
<linearGradient id="paint22_linear" x1="74.4567" y1="48.3096" x2="90.0029" y2="48.3096" gradientUnits="userSpaceOnUse">
<stop stop-color="#7C7D7E"/>
<stop offset="0.00706437" stop-color="#7A7B7C"/>
<stop offset="0.1328" stop-color="#5E5E60"/>
<stop offset="0.258" stop-color="#4A4A4C"/>
<stop offset="0.3811" stop-color="#3E3D40"/>
<stop offset="0.5" stop-color="#3A393C"/>
<stop offset="0.6189" stop-color="#3E3D40"/>
<stop offset="0.742" stop-color="#4A4A4C"/>
<stop offset="0.8672" stop-color="#5E5E60"/>
<stop offset="0.9929" stop-color="#7A7B7C"/>
<stop offset="1" stop-color="#7C7D7E"/>
</linearGradient>
<linearGradient id="paint23_linear" x1="57.402" y1="48.3096" x2="72.9482" y2="48.3096" gradientUnits="userSpaceOnUse">
<stop stop-color="#7C7D7E"/>
<stop offset="0.00706437" stop-color="#7A7B7C"/>
<stop offset="0.1328" stop-color="#5E5E60"/>
<stop offset="0.258" stop-color="#4A4A4C"/>
<stop offset="0.3811" stop-color="#3E3D40"/>
<stop offset="0.5" stop-color="#3A393C"/>
<stop offset="0.6189" stop-color="#3E3D40"/>
<stop offset="0.742" stop-color="#4A4A4C"/>
<stop offset="0.8672" stop-color="#5E5E60"/>
<stop offset="0.9929" stop-color="#7A7B7C"/>
<stop offset="1" stop-color="#7C7D7E"/>
</linearGradient>
<linearGradient id="paint24_linear" x1="113.984" y1="48.3096" x2="117.853" y2="48.3096" gradientUnits="userSpaceOnUse">
<stop stop-color="#7C7D7E"/>
<stop offset="0.00706437" stop-color="#7A7B7C"/>
<stop offset="0.1328" stop-color="#5E5E60"/>
<stop offset="0.258" stop-color="#4A4A4C"/>
<stop offset="0.3811" stop-color="#3E3D40"/>
<stop offset="0.5" stop-color="#3A393C"/>
<stop offset="0.6189" stop-color="#3E3D40"/>
<stop offset="0.742" stop-color="#4A4A4C"/>
<stop offset="0.8672" stop-color="#5E5E60"/>
<stop offset="0.9929" stop-color="#7A7B7C"/>
<stop offset="1" stop-color="#7C7D7E"/>
</linearGradient>
<linearGradient id="paint25_linear" x1="91.7777" y1="48.3096" x2="112.04" y2="48.3096" gradientUnits="userSpaceOnUse">
<stop stop-color="#7C7D7E"/>
<stop offset="0.00706437" stop-color="#7A7B7C"/>
<stop offset="0.1328" stop-color="#5E5E60"/>
<stop offset="0.258" stop-color="#4A4A4C"/>
<stop offset="0.3811" stop-color="#3E3D40"/>
<stop offset="0.5" stop-color="#3A393C"/>
<stop offset="0.6189" stop-color="#3E3D40"/>
<stop offset="0.742" stop-color="#4A4A4C"/>
<stop offset="0.8672" stop-color="#5E5E60"/>
<stop offset="0.9929" stop-color="#7A7B7C"/>
<stop offset="1" stop-color="#7C7D7E"/>
</linearGradient>
<linearGradient id="paint26_linear" x1="143.444" y1="58.9457" x2="143.444" y2="41.359" gradientUnits="userSpaceOnUse">
<stop stop-color="white"/>
<stop offset="0.4162" stop-color="#97999B"/>
<stop offset="0.9919" stop-color="white"/>
</linearGradient>
<linearGradient id="paint27_linear" x1="127.028" y1="58.9457" x2="127.028" y2="41.359" gradientUnits="userSpaceOnUse">
<stop stop-color="white"/>
<stop offset="0.4162" stop-color="#97999B"/>
<stop offset="0.9919" stop-color="white"/>
</linearGradient>
<linearGradient id="paint28_linear" x1="82.2298" y1="58.9457" x2="82.2298" y2="41.359" gradientUnits="userSpaceOnUse">
<stop stop-color="white"/>
<stop offset="0.4162" stop-color="#97999B"/>
<stop offset="0.9919" stop-color="white"/>
</linearGradient>
<linearGradient id="paint29_linear" x1="65.1751" y1="58.9457" x2="65.1751" y2="41.359" gradientUnits="userSpaceOnUse">
<stop stop-color="white"/>
<stop offset="0.4162" stop-color="#97999B"/>
<stop offset="0.9919" stop-color="white"/>
</linearGradient>
<linearGradient id="paint30_linear" x1="115.919" y1="58.9457" x2="115.919" y2="41.359" gradientUnits="userSpaceOnUse">
<stop stop-color="white"/>
<stop offset="0.4162" stop-color="#97999B"/>
<stop offset="0.9919" stop-color="white"/>
</linearGradient>
<linearGradient id="paint31_linear" x1="101.909" y1="58.9457" x2="101.909" y2="41.359" gradientUnits="userSpaceOnUse">
<stop stop-color="white"/>
<stop offset="0.4162" stop-color="#97999B"/>
<stop offset="0.9919" stop-color="white"/>
</linearGradient>
</defs>
</svg>
