<svg width="160" height="80" viewBox="0 0 160 80" fill="none" xmlns="http://www.w3.org/2000/svg">
<path d="M41.2159 14.581H58.4313L58.8561 20.391H57.8376C57.4361 18.0031 57.3837 17.486 56.5107 16.5622C55.6377 15.6384 53.9033 15.6965 52.5007 15.6965H48.1009C47.9541 15.6863 47.8068 15.7068 47.6685 15.7569C47.5301 15.8069 47.4038 15.8853 47.2977 15.987C47.0971 16.2336 46.9992 16.5477 47.0242 16.8643V24.2664H48.9506C49.4249 24.2822 49.8967 24.1912 50.3309 24.0001C50.7652 23.809 51.1507 23.5227 51.459 23.1624C52.0992 22.4265 52.4445 21.2935 52.4949 19.7636H53.5425V30.1461H52.4949C52.4445 28.4264 52.0933 27.1966 51.4415 26.4567C51.1096 26.0845 50.6985 25.7912 50.2382 25.5982C49.778 25.4051 49.2804 25.3174 48.7818 25.3412H47.0358V33.6728C47.0271 33.8137 47.0521 33.9547 47.1088 34.084C47.1654 34.2133 47.2522 34.3273 47.3617 34.4165C47.685 34.6173 48.0651 34.7071 48.4442 34.6722H51.9362C55.7075 34.6722 57.8842 33.4404 58.4604 28.6297H59.5545L59.1413 35.8051H41.2159V34.6431H42.1645C42.6064 34.6854 43.0496 34.5769 43.4216 34.3352C43.5454 34.2216 43.6422 34.0817 43.7046 33.9259C43.7671 33.77 43.7937 33.6021 43.7825 33.4346V16.8643C43.7984 16.7054 43.7802 16.545 43.729 16.3937C43.6778 16.2424 43.5948 16.1037 43.4856 15.987C43.1994 15.7701 42.8428 15.6666 42.4846 15.6965H41.2159V14.581Z" fill="white"/>
<path d="M58.0704 21.5995H65.8401V22.6337C65.2358 22.5992 64.6305 22.6841 64.0592 22.8836C63.941 22.9401 63.8414 23.0292 63.7723 23.1404C63.7032 23.2516 63.6675 23.3802 63.6692 23.5111C63.6707 23.7421 63.7223 23.97 63.8205 24.1792L67.5919 32.5922L71.0256 24.4581C71.0748 24.322 71.1004 24.1786 71.1013 24.034C71.1013 23.298 70.3738 22.839 68.9188 22.657V21.5995H74.8086V22.6337C74.2984 22.6629 73.8057 22.8296 73.3827 23.116C73.027 23.3933 72.7517 23.7603 72.5854 24.1792L67.3474 36.2351H66.5326L60.9455 23.848C60.7966 23.472 60.5394 23.1486 60.2064 22.9184C59.5159 22.7215 58.8001 22.6275 58.0821 22.6395L58.0704 21.5995Z" fill="white"/>
<path d="M80.2968 21.1754C81.2012 21.158 82.099 21.3334 82.93 21.6901C83.761 22.0468 84.5062 22.5765 85.1157 23.2438C86.4574 24.7343 87.1577 26.6919 87.0654 28.6936C87.1059 30.0717 86.8061 31.4385 86.1924 32.6735C85.6234 33.7559 84.7601 34.6561 83.7015 35.2706C82.6474 35.9033 81.4395 36.2349 80.2095 36.2293C79.3283 36.236 78.4561 36.0526 77.6525 35.6916C76.8489 35.3306 76.1329 34.8005 75.5536 34.1376C74.2368 32.6435 73.5487 30.6994 73.633 28.7111C73.5502 26.7274 74.2359 24.7882 75.5477 23.2961C76.1384 22.6205 76.8689 22.0809 77.6889 21.7148C78.5088 21.3486 79.3986 21.1646 80.2968 21.1754ZM80.2968 22.2503C79.7388 22.2502 79.1898 22.3913 78.7012 22.6606C78.2127 22.9299 77.8005 23.3184 77.5032 23.7899C76.7738 24.8164 76.4091 26.4354 76.4091 28.6471C76.4091 30.8588 76.7719 32.507 77.4974 33.5915C77.7912 34.0693 78.2028 34.4639 78.6929 34.7375C79.183 35.0112 79.7353 35.1547 80.2968 35.1544C80.8696 35.1593 81.4342 35.0184 81.9372 34.7449C82.4403 34.4714 82.8652 34.0745 83.1719 33.5915C83.9052 32.5496 84.2718 30.8472 84.2718 28.4845C84.2718 26.2921 83.9091 24.706 83.1835 23.726C82.8615 23.262 82.4292 22.8848 81.9255 22.6283C81.4218 22.3718 80.8622 22.2439 80.2968 22.2561V22.2503Z" fill="white"/>
<path d="M91.7912 14.3021V33.7135C91.7832 33.8341 91.802 33.955 91.8462 34.0675C91.8905 34.18 91.9592 34.2814 92.0473 34.3642C92.3109 34.5698 92.6383 34.6767 92.9727 34.6664H93.8864V35.8284H87.0189V34.6664H87.8628C88.2324 34.6917 88.5975 34.573 88.8812 34.3352C89.0002 34.2103 89.092 34.0622 89.1511 33.9003C89.2102 33.7383 89.2352 33.566 89.2246 33.394V17.2885C89.2426 17.0859 89.2154 16.8818 89.145 16.6909C89.0745 16.5 88.9626 16.3271 88.8172 16.1846C88.4339 15.857 87.9424 15.683 87.4379 15.6965H86.1633V14.581L91.7912 14.3021Z" fill="white"/>
<path d="M99.0196 21.3439V30.762C98.9574 31.7298 99.2699 32.6845 99.8926 33.4288C100.177 33.7392 100.526 33.9842 100.915 34.1467C101.304 34.3092 101.724 34.3854 102.145 34.3701C102.702 34.3761 103.254 34.2559 103.758 34.0184C104.262 33.7809 104.705 33.4323 105.055 32.9989C105.854 32.0371 106.269 30.8139 106.219 29.5651V24.2431C106.229 24.0261 106.187 23.8098 106.096 23.6125C106.005 23.4152 105.867 23.2429 105.695 23.1102C105.079 22.7747 104.381 22.6197 103.681 22.6628V21.5995L108.675 21.3439V33.0047C108.661 33.2316 108.694 33.4589 108.773 33.6721C108.853 33.8853 108.976 34.0795 109.135 34.2422C109.487 34.5469 109.944 34.7014 110.409 34.6722H111.306V35.6889L106.522 35.7935L106.219 33.0047C105.495 33.895 104.627 34.6588 103.652 35.2648C102.868 35.748 101.967 36.0091 101.045 36.0201C100.447 36.0349 99.8524 35.9282 99.2972 35.7065C98.7419 35.4847 98.2376 35.1526 97.8149 34.7303C96.9341 33.882 96.4937 32.4411 96.4937 30.4076V24.2431C96.5084 23.9981 96.458 23.7536 96.3476 23.5342C96.2372 23.3149 96.0708 23.1285 95.8652 22.994C95.2788 22.7333 94.6374 22.6196 93.997 22.6628V21.5995L99.0196 21.3439Z" fill="white"/>
<path d="M114.186 15.8127H115.205V21.6228H123.865V23.0172H115.205V32.1099C115.166 32.7655 115.373 33.4121 115.787 33.9227C115.964 34.1257 116.183 34.2872 116.429 34.3957C116.676 34.5042 116.943 34.5569 117.213 34.5501C117.559 34.5427 117.898 34.4523 118.202 34.2865C118.506 34.1206 118.766 33.8843 118.959 33.5973C119.444 32.9621 119.727 31.9104 119.808 30.4424H120.827C120.765 32.3326 120.334 33.7348 119.535 34.6489C119.152 35.0952 118.673 35.4501 118.134 35.6874C117.595 35.9247 117.01 36.0384 116.421 36.0201C115.92 36.0494 115.419 35.9792 114.945 35.8137C114.472 35.6481 114.036 35.3905 113.663 35.0556C113.33 34.7274 113.07 34.3337 112.899 33.8995C112.728 33.4654 112.649 33.0003 112.667 32.5341V22.9939H110.194V21.9365C111.192 21.8046 112.103 21.3001 112.743 20.5247C113.635 19.4014 114.117 17.8307 114.186 15.8127Z" fill="white"/>
<path d="M120.809 21.5995L126.472 21.4311V33.6322C126.459 33.7618 126.474 33.8928 126.516 34.0161C126.559 34.1394 126.627 34.2522 126.717 34.3468C126.962 34.5529 127.275 34.6605 127.596 34.6489H128.62V35.8109H121.7V34.6489H122.637C122.814 34.6642 122.991 34.6433 123.16 34.5873C123.328 34.5313 123.483 34.4416 123.615 34.3236C123.839 34.0608 123.952 33.721 123.929 33.3765V24.7254C123.947 24.49 123.912 24.2537 123.829 24.033C123.745 23.8122 123.615 23.6123 123.446 23.4471C123.034 23.1317 122.52 22.9786 122.003 23.0172H120.839L120.809 21.5995ZM124.755 14.8831C124.98 14.8832 125.202 14.929 125.408 15.018C125.615 15.1069 125.8 15.237 125.954 15.4002C126.119 15.5566 126.25 15.745 126.339 15.9538C126.428 16.1627 126.474 16.3875 126.472 16.6145C126.471 16.8318 126.426 17.0466 126.34 17.2463C126.254 17.4459 126.129 17.6262 125.972 17.7765C125.817 17.9372 125.63 18.0644 125.424 18.1503C125.218 18.2362 124.996 18.2791 124.773 18.2762C124.547 18.2789 124.323 18.2354 124.115 18.1485C123.907 18.0616 123.719 17.933 123.562 17.7707C123.404 17.6207 123.278 17.4405 123.191 17.2409C123.104 17.0414 123.058 16.8264 123.056 16.6087C123.056 16.3845 123.102 16.1628 123.192 15.957C123.281 15.7513 123.411 15.5657 123.574 15.4118C123.725 15.2489 123.907 15.1184 124.111 15.0285C124.314 14.9385 124.533 14.8911 124.755 14.8889V14.8831Z" fill="white"/>
<path d="M135.767 21.1754C136.671 21.158 137.569 21.3334 138.4 21.6901C139.231 22.0468 139.976 22.5765 140.586 23.2438C141.929 24.7334 142.632 26.6911 142.541 28.6936C142.582 30.0717 142.282 31.4385 141.668 32.6735C141.099 33.7558 140.236 34.6559 139.177 35.2706C138.123 35.9031 136.915 36.2346 135.685 36.2293C134.804 36.2364 133.932 36.0532 133.128 35.6921C132.324 35.3311 131.608 34.8008 131.029 34.1376C129.712 32.6438 129.024 30.6995 129.109 28.7111C129.023 26.729 129.704 24.79 131.012 23.2961C131.603 22.6197 132.335 22.0797 133.156 21.7136C133.977 21.3474 134.868 21.1638 135.767 21.1754ZM135.767 22.2503C135.209 22.2502 134.66 22.3913 134.171 22.6606C133.683 22.9299 133.27 23.3184 132.973 23.7899C132.244 24.8164 131.879 26.4354 131.879 28.6471C131.879 30.8588 132.242 32.507 132.967 33.5915C133.261 34.0693 133.673 34.4639 134.163 34.7375C134.653 35.0112 135.205 35.1547 135.767 35.1544C136.341 35.1603 136.906 35.0198 137.41 34.7463C137.915 34.4728 138.34 34.0753 138.648 33.5915C139.381 32.5496 139.748 30.8472 139.748 28.4845C139.748 26.2921 139.385 24.706 138.659 23.726C138.337 23.2611 137.904 22.8835 137.399 22.6269C136.894 22.3704 136.333 22.243 135.767 22.2561V22.2503Z" fill="white"/>
<path d="M142.244 21.5996L146.97 21.3091C147.182 22.3383 147.324 23.3807 147.395 24.4291C147.948 23.4831 148.723 22.6856 149.653 22.105C150.535 21.5881 151.541 21.3209 152.563 21.3323C153.39 21.3124 154.208 21.5129 154.932 21.9133C155.609 22.325 156.145 22.933 156.468 23.6563C156.864 24.4954 157.063 25.4133 157.05 26.3406V33.2545C157.03 33.4517 157.051 33.6508 157.111 33.8396C157.171 34.0285 157.269 34.203 157.4 34.3526C157.734 34.6008 158.149 34.7167 158.564 34.678H158.977V35.84H152.674V34.678H152.796C153.284 34.7236 153.773 34.6116 154.193 34.3584C154.329 34.2401 154.435 34.092 154.504 33.9256C154.572 33.7593 154.601 33.5793 154.588 33.3998V27.3166C154.666 26.3021 154.464 25.2858 154.006 24.3768C153.74 23.9382 153.36 23.5801 152.906 23.3406C152.452 23.1012 151.941 22.9894 151.428 23.0172C150.877 23.0102 150.331 23.1309 149.834 23.3698C149.338 23.6087 148.903 23.9594 148.565 24.3942C147.76 25.416 147.347 26.6916 147.401 27.9906V33.2487C147.381 33.4463 147.402 33.6459 147.463 33.835C147.524 34.024 147.624 34.1983 147.756 34.3468C148.093 34.5902 148.505 34.7055 148.92 34.6722H149.321V35.8342H142.972V34.6722H143.368C143.767 34.6998 144.165 34.5935 144.497 34.3701C144.617 34.2845 144.716 34.1712 144.784 34.0398C144.852 33.9084 144.887 33.7626 144.887 33.6147V24.4581C144.904 24.2069 144.869 23.9548 144.784 23.7178C144.699 23.4807 144.565 23.2639 144.392 23.0811C143.999 22.7447 143.489 22.5758 142.972 22.6105H142.244V21.5996Z" fill="white"/>
<path d="M65.6015 40.4822L66.8469 38.2395H67.8654L68.4474 47.187H67.458C66.682 44.6151 65.7877 42.7539 64.775 41.6036C64.2282 40.9294 63.5398 40.3833 62.7584 40.0038C61.9771 39.6243 61.1218 39.4207 60.2529 39.4074C59 39.3951 57.7762 39.784 56.761 40.5171C55.6529 41.359 54.8252 42.5153 54.3864 43.8346C53.8393 45.3104 53.56 46.7977 53.56 49.4762C53.4739 51.3464 53.7546 53.2155 54.3864 54.9783C54.8057 56.2605 55.6004 57.3877 56.6678 58.2145C57.667 58.9142 58.864 59.2766 60.0841 59.2487C60.8338 59.2959 61.5851 59.1882 62.2911 58.9322C62.9971 58.6763 63.6426 58.2777 64.1872 57.7613C64.6731 57.2512 65.0516 56.649 65.3005 55.9904C65.5494 55.3318 65.6636 54.6301 65.6364 53.9267V51.8176C65.6433 51.6669 65.6117 51.5168 65.5445 51.3816C65.4773 51.2464 65.3767 51.1306 65.2523 51.0449C64.8654 50.8316 64.4241 50.7366 63.9835 50.7718H62.0862V49.7086H70.8394V50.7718H70.1527C69.7256 50.734 69.2979 50.8381 68.9363 51.0681C68.8144 51.1732 68.7185 51.305 68.6559 51.4531C68.5933 51.6012 68.5658 51.7617 68.5755 51.9222V60.4804H67.5802C67.2155 59.148 66.8275 57.8698 66.4163 56.6458C65.7562 57.7858 64.8246 58.7457 63.7042 59.4404C62.625 60.0718 61.393 60.3954 60.1424 60.3758C58.2957 60.3824 56.4831 59.8797 54.9044 58.9233C53.2639 57.9417 51.9298 56.5233 51.0516 54.8272C50.1066 53.1918 49.6295 51.3288 49.6723 49.4413C49.6348 47.5415 50.1221 45.668 51.0807 44.0263C51.9777 42.3091 53.3102 40.8566 54.9451 39.8141C56.4115 38.8247 58.1341 38.2817 59.9037 38.2512C60.8347 38.2467 61.7591 38.408 62.6333 38.7276C63.7054 39.1602 64.706 39.7518 65.6015 40.4822Z" fill="white"/>
<path d="M85.9713 58.8304L86.2099 59.2487C86.2099 60.0505 85.2438 59.9633 84.3417 59.9633C83.6549 59.9633 82.2756 59.9285 81.7984 59.5683C81.3211 59.208 81.1291 58.7955 80.7741 57.8543C80.0495 58.6853 79.1798 59.3783 78.2075 59.8994C77.3798 60.2565 76.484 60.429 75.5827 60.4049C74.3971 60.4872 73.2199 60.1543 72.2537 59.4637C71.8855 59.1796 71.5886 58.8138 71.3866 58.3953C71.1845 57.9768 71.0829 57.517 71.0897 57.0525C71.0897 55.5768 71.9588 54.3508 73.697 53.3747C75.8569 52.2773 78.2123 51.6159 80.6286 51.4284V49.2554C80.6306 48.8791 80.5485 48.5071 80.3885 48.1664C80.2284 47.8257 79.9943 47.5249 79.7032 47.2858C79.0566 46.7326 78.2264 46.4405 77.3752 46.4666C76.5817 46.4453 75.7967 46.6337 75.0996 47.0127C74.6457 47.2877 74.4187 47.555 74.4187 47.8145C74.4728 48.0801 74.5998 48.3255 74.7853 48.5233C75.0414 48.8291 75.1959 49.2067 75.2277 49.604C75.2356 49.8104 75.2003 50.0162 75.1242 50.2083C75.048 50.4003 74.9326 50.5745 74.7853 50.7195C74.6307 50.8664 74.4478 50.9802 74.2477 51.0541C74.0476 51.128 73.8344 51.1605 73.6214 51.1495C73.386 51.156 73.1519 51.1139 72.9336 51.026C72.7152 50.938 72.5175 50.806 72.3526 50.6382C72.1835 50.4638 72.0515 50.257 71.9645 50.0304C71.8775 49.8037 71.8373 49.5619 71.8463 49.3193C71.8463 48.3161 72.4108 47.402 73.5399 46.577C74.8473 45.6958 76.4048 45.2597 77.9805 45.3336C79.6683 45.3336 80.9584 45.6977 81.8508 46.4259C82.2666 46.7395 82.6039 47.1452 82.8362 47.6109C83.0685 48.0767 83.1894 48.5899 83.1893 49.1102V56.8666C83.1639 57.3358 83.2816 57.8018 83.5269 58.2029C83.6129 58.3491 83.728 58.4761 83.8651 58.5761C84.0023 58.676 84.1586 58.7467 84.3242 58.7839C84.8714 58.8394 85.4219 58.8549 85.9713 58.8304ZM80.681 52.4103C78.1085 52.7666 76.2869 53.3476 75.216 54.1533C74.821 54.4534 74.5052 54.8452 74.2963 55.2948C74.0874 55.7443 73.9915 56.238 74.0171 56.733C73.9771 57.3991 74.2007 58.0542 74.6398 58.5573C74.8482 58.7757 75.1008 58.9473 75.3808 59.0605C75.6608 59.1737 75.9618 59.226 76.2636 59.2138C76.8476 59.2175 77.426 59.099 77.9613 58.8658C78.4966 58.6326 78.977 58.29 79.3715 57.8601C79.807 57.4088 80.1477 56.8751 80.3736 56.2904C80.5995 55.7057 80.7059 55.0818 80.6868 54.4554L80.681 52.4103Z" fill="white"/>
<path d="M85.4475 45.752L89.5214 45.4963C89.7331 46.4908 89.8789 47.4981 89.9579 48.5117C90.5605 47.5814 91.354 46.7893 92.2859 46.1877C93.0559 45.7343 93.9353 45.4993 94.8292 45.5079C95.7048 45.4737 96.5649 45.7449 97.262 46.2749C97.9943 46.9447 98.5075 47.8194 98.7344 48.7848C99.2974 47.8085 100.068 46.9675 100.993 46.3213C101.795 45.7868 102.74 45.5036 103.705 45.5079C104.246 45.4694 104.789 45.554 105.293 45.7553C105.797 45.9565 106.249 46.2693 106.615 46.6699C107.479 47.7858 107.92 49.1709 107.86 50.5801V57.6103C107.84 57.7696 107.858 57.9315 107.914 58.0822C107.97 58.2329 108.061 58.368 108.18 58.476C108.548 58.7337 108.995 58.8568 109.443 58.8246H110.153V59.9866H102.995V58.8246H103.71C104.157 58.8667 104.605 58.7605 104.985 58.5225C105.112 58.4082 105.21 58.2667 105.274 58.1086C105.337 57.9506 105.364 57.7801 105.352 57.6103V50.5511C105.414 49.6701 105.144 48.7978 104.595 48.105C104.341 47.8202 104.028 47.5949 103.677 47.4452C103.325 47.2955 102.945 47.2252 102.564 47.2393C101.944 47.2285 101.336 47.4047 100.818 47.7448C100.285 48.1048 99.865 48.6085 99.6074 49.1973C99.225 49.9057 99.0025 50.689 98.9556 51.4923V57.6103C98.9409 57.7781 98.963 57.9472 99.0202 58.1057C99.0775 58.2642 99.1687 58.4084 99.2873 58.5283C99.585 58.7496 99.9533 58.855 100.323 58.8246H101.295V59.9866H94.0319V58.8246H94.8525C95.2635 58.8569 95.6734 58.7505 96.0165 58.5225C96.1369 58.4329 96.2344 58.3162 96.3012 58.182C96.3679 58.0477 96.402 57.8996 96.4006 57.7497V51.1844C96.4006 49.7977 96.1542 48.7925 95.6615 48.1689C95.4301 47.8651 95.1292 47.6211 94.7839 47.4574C94.4385 47.2936 94.059 47.2149 93.6769 47.2277C93.2074 47.2035 92.7388 47.2909 92.3098 47.4828C91.8808 47.6748 91.5036 47.9657 91.2092 48.3316C90.3927 49.3555 89.9585 50.6311 89.9812 51.9397V57.6103C89.9619 57.7716 89.9779 57.9351 90.0282 58.0896C90.0784 58.2441 90.1617 58.3858 90.2722 58.505C90.6509 58.7472 91.0984 58.8594 91.5468 58.8246H92.2743V59.9866H85.0866V58.8246H86.1633C86.503 58.8482 86.8387 58.7399 87.1003 58.5225C87.2069 58.4244 87.2911 58.3047 87.3473 58.1714C87.4036 58.0381 87.4305 57.8943 87.4263 57.7497V48.4536C87.4443 48.2431 87.4185 48.0312 87.3504 47.8312C87.2823 47.6312 87.1734 47.4475 87.0305 47.2916C86.5666 46.9684 86.0132 46.7978 85.4475 46.8036V45.752Z" fill="white"/>
<path d="M110.456 45.7519L115.531 45.5834V57.7846C115.518 57.9142 115.533 58.0452 115.575 58.1685C115.617 58.2918 115.685 58.4046 115.775 58.4992C116.023 58.7056 116.338 58.8133 116.66 58.8013H118.272V59.9633H109.583V58.8013H111.672C111.849 58.817 112.027 58.7962 112.195 58.7402C112.363 58.6842 112.518 58.5943 112.65 58.476C112.873 58.213 112.984 57.8728 112.958 57.5289V48.6047C112.976 48.3684 112.942 48.1311 112.859 47.9094C112.776 47.6876 112.645 47.4867 112.475 47.3207C112.064 47.0047 111.55 46.8516 111.032 46.8907H110.45L110.456 45.7519ZM113.814 39.0355C114.039 39.0352 114.261 39.0809 114.467 39.1699C114.673 39.2588 114.859 39.3891 115.013 39.5526C115.178 39.709 115.309 39.8974 115.398 40.1062C115.487 40.3151 115.532 40.5399 115.531 40.7669C115.53 40.9842 115.485 41.199 115.399 41.3987C115.313 41.5983 115.187 41.7786 115.03 41.9289C114.832 42.1236 114.589 42.2669 114.323 42.3461C114.057 42.4254 113.775 42.4382 113.503 42.3835C113.23 42.3288 112.975 42.2082 112.76 42.0323C112.545 41.8564 112.377 41.6305 112.27 41.3746C112.163 41.1186 112.12 40.8402 112.146 40.564C112.171 40.2877 112.264 40.0219 112.417 39.7899C112.569 39.5579 112.776 39.3667 113.02 39.2332C113.263 39.0996 113.536 39.0278 113.814 39.0239V39.0355Z" fill="white"/>
<path d="M117.853 45.7519L122.579 45.4614C122.79 46.4907 122.932 47.5331 123.004 48.5814C123.557 47.6355 124.331 46.8379 125.262 46.2574C126.152 45.7356 127.169 45.4683 128.201 45.4847C129.028 45.4648 129.846 45.6653 130.57 46.0657C131.248 46.4765 131.784 47.0848 132.106 47.8087C132.501 48.648 132.7 49.5658 132.688 50.4929V57.4069C132.668 57.604 132.689 57.8031 132.749 57.992C132.809 58.1808 132.907 58.3554 133.037 58.505C133.372 58.7532 133.786 58.8691 134.201 58.8304H134.614V59.9924H128.282V58.8304H128.404C128.892 58.876 129.382 58.7639 129.801 58.5108C129.935 58.3955 130.041 58.2514 130.11 58.0893C130.18 57.9273 130.211 57.7515 130.203 57.5754V51.469C130.28 50.4526 130.079 49.4344 129.621 48.5233C129.355 48.0832 128.974 47.7237 128.518 47.4832C128.063 47.2427 127.551 47.1303 127.037 47.158C126.485 47.1514 125.94 47.2723 125.443 47.5112C124.947 47.75 124.512 48.1004 124.173 48.5349C123.369 49.557 122.956 50.8324 123.009 52.1314V57.3895C122.989 57.5871 123.01 57.7867 123.071 57.9757C123.133 58.1647 123.232 58.339 123.364 58.4876C123.701 58.7309 124.114 58.8463 124.528 58.8129H124.93V59.9749H117.981V58.8129H118.97C119.37 58.8401 119.767 58.7338 120.099 58.5108C120.221 58.4247 120.32 58.3105 120.388 58.178C120.456 58.0455 120.491 57.8985 120.489 57.7497V48.5872C120.507 48.336 120.473 48.0838 120.387 47.8467C120.302 47.6096 120.168 47.3929 119.995 47.2103C119.602 46.8733 119.091 46.7043 118.575 46.7396H117.847L117.853 45.7519Z" fill="white"/>
<path d="M145.387 46.5363C146.4 45.5137 149.228 44.0206 150.13 43.9857C150.387 43.9507 150.647 43.9683 150.896 44.0372C151.145 44.1061 151.378 44.225 151.58 44.3866C151.911 44.712 151.312 45.4382 151.312 45.903C151.324 46.2449 151.203 46.5782 150.974 46.8326C150.876 46.9486 150.754 47.042 150.617 47.1062C150.479 47.1704 150.329 47.2039 150.177 47.2045C149.599 47.2045 149.211 46.8501 149.013 46.1412C148.932 45.8391 148.794 45.688 148.6 45.688C147.683 46.0099 146.836 46.5028 146.103 47.1406C146.47 47.6154 146.771 48.1371 146.999 48.6918C147.164 49.1463 147.247 49.6263 147.244 50.1095C147.258 50.9294 147.036 51.7362 146.604 52.4335C146.065 53.2007 145.335 53.8137 144.485 54.2114C143.617 54.695 142.644 54.9603 141.651 54.9841H139.998C139.204 54.9183 138.405 55.0438 137.67 55.3502C137.484 55.4676 137.332 55.6321 137.229 55.8269C137.127 56.0218 137.078 56.2401 137.088 56.4599C137.08 56.6397 137.12 56.8185 137.202 56.9785C137.285 57.1385 137.408 57.2741 137.559 57.3721C138.113 57.6319 138.725 57.7421 139.334 57.6916L143.082 57.6161C144.976 57.6161 146.334 57.9318 147.156 58.5631C147.561 58.8613 147.887 59.2538 148.105 59.7065C148.323 60.1592 148.427 60.6583 148.408 61.1602C148.415 61.7446 148.29 62.3231 148.043 62.853C147.797 63.3829 147.434 63.8508 146.982 64.2221C145.655 65.3841 143.674 65.9651 141.04 65.9651C138.863 65.9651 137.249 65.5662 136.197 64.7683C135.835 64.5427 135.533 64.2331 135.316 63.866C135.099 63.4988 134.974 63.0849 134.952 62.6592C134.968 62.3508 135.049 62.0493 135.19 61.7741C135.33 61.4988 135.527 61.2561 135.767 61.0615C136.545 60.4581 137.472 60.0766 138.45 59.9575C137.617 59.797 136.838 59.4293 136.186 58.8885C135.944 58.6675 135.751 58.3981 135.621 58.0977C135.491 57.7973 135.425 57.4728 135.429 57.1455C135.411 56.5245 135.622 55.9185 136.023 55.4431C136.615 54.8518 137.351 54.4251 138.159 54.2056C137.375 53.7958 136.707 53.1965 136.215 52.4626C135.773 51.7689 135.546 50.9604 135.563 50.1385C135.56 49.4831 135.704 48.8353 135.985 48.243C136.266 47.6507 136.677 47.129 137.187 46.7164C138.374 45.7508 139.876 45.2545 141.406 45.322C142.1 45.3196 142.791 45.4214 143.455 45.6241C144.141 45.8309 144.792 46.1383 145.387 46.5363ZM142.291 59.9517C140.429 59.9517 139.1 60.2093 138.304 60.7245C137.959 60.904 137.668 61.1707 137.458 61.4979C137.249 61.8252 137.129 62.2016 137.111 62.5895C137.104 62.9145 137.184 63.2356 137.341 63.5202C137.499 63.8048 137.728 64.0429 138.007 64.2105C139.03 64.7961 140.201 65.0707 141.377 65.0007C143.119 65.0007 144.431 64.7121 145.311 64.135C146.192 63.5578 146.635 62.9207 146.638 62.2235C146.635 61.8008 146.49 61.3915 146.225 61.0615C145.884 60.6594 145.427 60.3731 144.916 60.2422C144.058 60.0273 143.174 59.9353 142.291 59.9692V59.9517ZM141.395 46.2749C140.972 46.2646 140.552 46.3484 140.165 46.5202C139.779 46.6921 139.435 46.9476 139.16 47.2684C138.532 48.0556 138.219 49.0471 138.281 50.0514C138.215 51.1116 138.526 52.161 139.16 53.0145C139.434 53.3418 139.776 53.6056 140.162 53.7875C140.548 53.9694 140.97 54.0651 141.397 54.0678C141.824 54.0706 142.246 53.9804 142.635 53.8035C143.024 53.6266 143.369 53.3673 143.647 53.0436C144.274 52.2092 144.583 51.1796 144.52 50.1385C144.576 49.1261 144.259 48.1281 143.63 47.3323C143.36 47.0021 143.018 46.737 142.631 46.557C142.244 46.3769 141.822 46.2864 141.395 46.2923V46.2749Z" fill="white"/>
<path d="M150.672 44.0903C151.13 44.0979 151.566 44.2849 151.887 44.6109C152.209 44.937 152.389 45.376 152.389 45.8333C152.388 46.0506 152.343 46.2656 152.257 46.4652C152.171 46.6649 152.045 46.8452 151.888 46.9953C151.69 47.1902 151.447 47.3335 151.18 47.4128C150.914 47.492 150.632 47.5046 150.359 47.4497C150.086 47.3947 149.831 47.2737 149.616 47.0974C149.401 46.921 149.233 46.6947 149.126 46.4383C149.019 46.1819 148.977 45.9033 149.004 45.6268C149.03 45.3503 149.124 45.0845 149.277 44.8527C149.43 44.6209 149.638 44.4301 149.882 44.2972C150.126 44.1642 150.399 44.0932 150.677 44.0903H150.672Z" fill="white"/>
<path d="M32.0203 57.6684H31.6479H31.4558V56.7446H31.7119C31.9082 56.7239 32.1067 56.7457 32.2939 56.8085C32.3685 56.8447 32.4309 56.902 32.4733 56.9732C32.5157 57.0445 32.5363 57.1266 32.5325 57.2094C32.5331 57.2762 32.5193 57.3423 32.492 57.4033C32.4647 57.4643 32.4246 57.5188 32.3743 57.5629C32.3241 57.607 32.2649 57.6398 32.2008 57.659C32.1367 57.6782 32.0692 57.6834 32.0029 57.6742L32.0203 57.6684ZM33.1029 57.221C33.1088 57.0793 33.0813 56.9382 33.0227 56.809C32.9641 56.6799 32.8759 56.5663 32.7653 56.4773C32.4922 56.2932 32.1604 56.2166 31.8341 56.2623H30.8971V59.2603H31.4791V58.1564H31.9796L32.5616 59.2719H33.2018L32.5325 58.0518C32.7073 57.998 32.8592 57.8878 32.9646 57.7385C33.0699 57.5892 33.1226 57.4092 33.1145 57.2268L33.1029 57.221ZM31.9505 60.1318C31.4901 60.1318 31.04 59.9955 30.6571 59.7402C30.2743 59.4848 29.9759 59.1218 29.7997 58.6972C29.6235 58.2725 29.5774 57.8052 29.6673 57.3544C29.7571 56.9036 29.9788 56.4895 30.3044 56.1645C30.6299 55.8394 31.0448 55.6181 31.4963 55.5284C31.9479 55.4388 32.416 55.4848 32.8414 55.6607C33.2668 55.8366 33.6303 56.1345 33.8861 56.5166C34.1419 56.8988 34.2785 57.3482 34.2785 57.8078C34.2785 58.4242 34.0332 59.0153 33.5966 59.4511C33.1601 59.887 32.5679 60.1318 31.9505 60.1318ZM31.9505 54.9028C31.375 54.9028 30.8124 55.0731 30.3338 55.3924C29.8553 55.7116 29.4823 56.1653 29.262 56.6961C29.0418 57.2269 28.9842 57.811 29.0964 58.3745C29.2087 58.9381 29.4859 59.4557 29.8928 59.862C30.2998 60.2682 30.8183 60.5449 31.3828 60.657C31.9473 60.7691 32.5324 60.7116 33.0641 60.4917C33.5958 60.2718 34.0503 59.8995 34.3701 59.4217C34.6898 58.944 34.8605 58.3824 34.8605 57.8078C34.8605 57.0373 34.5539 56.2984 34.0082 55.7536C33.4624 55.2088 32.7223 54.9028 31.9505 54.9028Z" fill="#A3A3A3"/>
<path d="M1.05237 16.7888C15.0202 9.3287 33.1203 17.1955 34.4822 36.1886C8.52518 38.2221 5.39987 26.5555 1.05237 16.7888Z" fill="url(#paint0_linear)"/>
<path d="M1.05237 57.5115C15.0202 64.9716 33.1203 57.1048 34.4822 38.1117C8.52518 36.0782 5.39987 47.739 1.05237 57.5115Z" fill="url(#paint1_linear)"/>
<path d="M29.6342 22.7155C23.0518 13.9713 10.987 11.4846 1 16.8067C4.89355 25.5566 7.80934 35.823 27.021 36.4098C28.8645 33.095 29.8301 29.3654 29.8262 25.574C29.8229 24.6181 29.7588 23.6633 29.6342 22.7155ZM5.70834 47.8905C6.29033 47.9311 6.82577 47.9602 7.39612 47.9602C11.094 47.9619 14.7348 47.0496 17.9936 45.3049C21.2524 43.5601 24.0279 41.0372 26.0723 37.9611C14.5256 38.5246 9.09555 42.7137 5.70834 47.8905Z" fill="url(#paint2_radial)"/>
<defs>
<linearGradient id="paint0_linear" x1="17.5461" y1="28.5367" x2="14.7503" y2="54.6714" gradientUnits="userSpaceOnUse">
<stop stop-color="#D9DBDE"/>
<stop offset="1" stop-color="#A8A8A8"/>
</linearGradient>
<linearGradient id="paint1_linear" x1="1081.84" y1="608.023" x2="1008.91" y2="1623.04" gradientUnits="userSpaceOnUse">
<stop stop-color="#D9DBDE"/>
<stop offset="1" stop-color="#A8A8A8"/>
</linearGradient>
<radialGradient id="paint2_radial" cx="0" cy="0" r="1" gradientUnits="userSpaceOnUse" gradientTransform="translate(9.70664 31.7501) scale(26.7368 26.6914)">
<stop stop-color="#C2C2C2"/>
<stop offset="0.22" stop-color="#BDBDBD"/>
<stop offset="0.46" stop-color="#B0B0B0"/>
<stop offset="0.72" stop-color="#999999"/>
<stop offset="0.99" stop-color="#7A7A7A"/>
<stop offset="1" stop-color="#787878"/>
</radialGradient>
</defs>
</svg>
