<svg width="160" height="80" viewBox="0 0 160 80" fill="none" xmlns="http://www.w3.org/2000/svg">
<path d="M0 52.9209H16.0552L18.3838 47.4058H0V52.9209Z" fill="#00B8FF"/>
<path d="M0 46.303L19.7932 43.5454L22.1831 37.6626L0 40.7878V46.303Z" fill="#00B8FF"/>
<path d="M0 39.6848L24.0214 33.5569L26.7177 27L0 33.9858V39.6848Z" fill="#00B8FF"/>
<path d="M38.4221 42.5649H43.6921L45.4692 38.4592H38.4221V35.5791H46.6335L48.5331 31.2283V31.167H33.2746V50.041H48.5331V45.5676H38.4221V42.5649Z" fill="white"/>
<path d="M104.236 32.9441C102.827 31.7798 100.927 31.167 98.537 31.167H90.4481V49.9797H95.6569V44.5871H98.2306C100.682 44.5871 102.581 43.9743 104.113 42.81C105.584 41.6457 106.319 39.9299 106.319 37.7851C106.381 35.7629 105.645 34.1084 104.236 32.9441ZM100.314 39.8686C99.7626 40.2976 99.0272 40.5427 98.108 40.5427H95.6569V35.5791H98.108C99.0885 35.5791 99.8238 35.7629 100.314 36.1919C100.866 36.6208 101.111 37.2336 101.111 38.0303C101.111 38.8269 100.866 39.4397 100.314 39.8686Z" fill="white"/>
<path d="M113.367 31.167H108.158V50.041H119.74L121.639 45.445H113.367V31.167Z" fill="white"/>
<path d="M130.586 31.0442L123.845 46.9768L122.558 49.9795H124.336H128.074L129.422 46.6091H136.653L138.001 49.9795H143.577L135.55 30.9829H130.586V31.0442ZM130.892 42.5647L133.037 37.2334L135.121 42.5647H130.892Z" fill="white"/>
<path d="M154.178 31.167L150.257 38.0303L146.396 31.167H140.452L147.622 42.9326V50.041H152.83V42.8713L160 31.167H154.178Z" fill="white"/>
<path d="M63.9755 31.167L59.686 43.1164L55.3964 31.167H49.5749L57.2348 50.1635H62.0758L69.7357 31.167H63.9755Z" fill="white"/>
<path d="M78.5599 30.8604C73.1674 30.8604 68.7552 35.2725 68.7552 40.665C68.7552 46.0576 73.1674 50.4697 78.5599 50.4697C83.9525 50.4697 88.3646 46.0576 88.3646 40.665C88.3033 35.2112 83.9525 30.8604 78.5599 30.8604ZM78.5599 45.7512C75.7411 45.7512 73.4125 43.4226 73.4125 40.6037C73.4125 37.7849 75.7411 35.4563 78.5599 35.4563C81.3788 35.4563 83.7074 37.7849 83.7074 40.6037C83.7074 43.4226 81.3788 45.7512 78.5599 45.7512Z" fill="white"/>
</svg>
