<svg width="160" height="80" viewBox="0 0 160 80" fill="none" xmlns="http://www.w3.org/2000/svg">
<g clip-path="url(#clip0)">
<path d="M56.9254 59.2701C56.9254 62.5548 56.9254 65.8172 56.9254 69.1018C56.8369 73.8289 53.7839 77.9791 49.2928 79.466C46.6159 80.3094 43.7177 80.154 41.1293 79C40.355 78.7558 39.9125 77.9569 40.1337 77.1579C40.1559 77.1135 40.1559 77.0914 40.178 77.047C40.4877 76.2258 41.3948 75.8041 42.2133 76.1148C42.3018 76.1592 42.3903 76.2036 42.4788 76.248C43.4522 76.7363 44.5363 77.0026 45.6425 76.9804C48.8061 77.0248 51.7264 75.2049 53.0981 72.342C53.6069 71.2101 53.8724 69.9895 53.9388 68.7467C53.9609 68.6801 53.9166 68.6135 53.8945 68.5469C53.806 68.4804 53.7397 68.5691 53.6733 68.6135C52.5671 69.6788 51.1733 70.4556 49.6689 70.8107C48.5185 71.077 47.3017 71.1214 46.1292 70.966C43.3416 70.6553 40.8638 69.1018 39.3373 66.7493C38.2311 65.0848 37.678 63.0874 37.7444 61.0678C37.7665 57.0952 37.7444 53.1226 37.7444 49.1278C37.7001 48.3954 38.2311 47.7518 38.9612 47.6631C39.6249 47.5299 40.3107 47.885 40.5762 48.5064C40.6868 48.7727 40.7311 49.0612 40.7089 49.3498C40.7089 53.2336 40.7311 57.1174 40.7089 61.0012C40.5762 63.2871 41.6381 65.4843 43.4965 66.8159C44.8239 67.7702 46.461 68.1697 48.076 67.9255C50.6866 67.6148 52.3901 66.0835 53.4299 63.7532C53.7618 62.9098 53.9388 62.0221 53.9166 61.09C53.9388 57.1618 53.9388 53.2114 53.8945 49.261C53.8724 48.1069 54.6246 47.5299 55.3989 47.5965C56.2396 47.5965 56.9033 48.2623 56.9254 49.1056C56.9254 49.1722 56.9254 49.2388 56.9033 49.3054C56.9254 52.6787 56.9254 55.9633 56.9254 59.2701ZM26.3729 60.291C29.3154 60.291 32.2578 60.3132 35.2002 60.291C35.9524 60.3798 36.6382 59.8472 36.7488 59.0926C36.771 58.9816 36.771 58.8485 36.7488 58.7375C36.6161 56.2519 35.6869 53.8772 34.1161 51.9464C31.5498 48.6174 27.3021 47.0416 23.2093 47.9516C19.2713 48.6618 16.528 51.1918 15.0015 54.8093C13.5635 58.0495 13.6741 61.778 15.3333 64.9072C16.705 67.7702 19.2271 69.9229 22.2801 70.7885C24.3818 71.4321 26.6384 71.3877 28.718 70.7219C29.9348 70.3668 31.0631 69.7676 32.0365 68.9686C32.656 68.5026 32.8109 67.637 32.3463 66.9934C32.3242 66.9712 32.3241 66.949 32.302 66.9268C31.8817 66.2832 31.0189 66.0835 30.3773 66.5052C30.333 66.5273 30.2888 66.5495 30.2667 66.5939C28.6074 67.8146 26.5721 68.3472 24.5367 68.1253C23.1429 67.9921 21.8155 67.4817 20.6872 66.6605C18.6961 65.2401 17.4129 63.043 17.1032 60.6239C17.059 60.3354 17.1475 60.2688 17.4129 60.2688C20.4217 60.291 23.4084 60.291 26.3729 60.291ZM17.6784 57.3393C17.4793 57.3393 17.2802 57.3615 17.3687 57.0286C17.8775 55.2088 18.9395 53.5887 20.4439 52.4346C22.2137 51.0364 24.4924 50.4594 26.7269 50.8811C29.8684 51.4137 31.8596 53.3223 33.1206 56.1631C33.1427 56.2075 33.1427 56.2519 33.1427 56.2962C33.364 57.3393 33.364 57.3393 32.302 57.3393H25.3331C22.7889 57.3393 20.2447 57.3393 17.6784 57.3393ZM71.3721 60.291C74.2923 60.291 77.2348 60.291 80.1551 60.291C80.9736 60.3576 81.6816 59.7584 81.7479 58.9594C81.7479 58.8707 81.7479 58.7819 81.7479 58.6931C81.6816 57.3837 81.394 56.1187 80.8851 54.9203C80.1329 53.0116 78.8719 51.3471 77.2569 50.0821C75.133 48.3954 72.434 47.5743 69.7349 47.7962C68.1199 47.8406 66.527 48.2845 65.1111 49.1056C60.9298 51.6579 58.8502 55.3641 59.1157 60.3576C59.3148 66.5939 64.5359 71.4764 70.7526 71.2545C72.9649 71.1657 75.0888 70.4556 76.8808 69.1684C77.6109 68.7245 77.8542 67.7702 77.4118 67.0378C77.4118 67.0156 77.3896 67.0156 77.3896 67.0156C76.9914 66.3276 76.1065 66.1057 75.4428 66.5274C75.3764 66.5717 75.3321 66.6161 75.2658 66.6605C74.6021 67.1266 73.8941 67.5039 73.1419 67.7924C71.549 68.3472 69.8234 68.3916 68.2084 67.9255C66.8146 67.5482 65.5536 66.7715 64.558 65.7062C63.2306 64.3746 62.3899 62.6213 62.1687 60.7349C62.1244 60.4242 62.1687 60.3354 62.4784 60.3354C65.4651 60.291 68.4296 60.291 71.3721 60.291ZM62.7218 57.3615C62.4563 57.3615 62.3457 57.2728 62.4342 56.9842C63.4076 53.8328 65.443 51.7466 68.6066 50.9699C71.1729 50.3041 73.9163 51.0142 75.841 52.8341C77.0799 53.9216 77.9648 55.3641 78.3409 56.962C78.4294 57.3393 78.2524 57.3393 77.987 57.3393C75.4428 57.3393 72.8986 57.3393 70.3544 57.3393V57.3615C67.8323 57.3615 65.2881 57.3615 62.7218 57.3615ZM119.048 70.278C122.721 68.325 125.066 65.3733 125.619 61.1344C125.973 58.9151 125.663 56.6513 124.756 54.6096C123.008 50.9477 120.309 48.462 116.172 47.8406C114.424 47.5299 112.632 47.7296 110.973 48.3511C106.416 50.1487 103.429 54.6096 103.517 59.5365C103.495 61.3785 103.916 63.1762 104.778 64.7963C106.902 68.7689 110.088 71.077 114.358 71.2323C115.951 71.2989 117.566 70.966 119.048 70.278ZM117.765 67.4817C115.199 68.8133 111.88 68.2362 109.579 66.2166C108.053 64.9294 107.013 63.1318 106.681 61.1566C106.017 57.184 107.632 53.3224 111.438 51.4359C114.115 50.1487 117.322 50.5926 119.557 52.5678C121.039 53.8328 122.057 55.5195 122.499 57.4059C122.61 58.0051 122.676 58.6044 122.721 59.2258C122.654 63.0652 121.017 65.795 117.765 67.4817ZM127.411 69.6344C127.433 70.4556 128.03 71.1214 128.827 71.2101C129.667 71.2545 130.375 70.5887 130.397 69.7676C130.397 69.7232 130.397 69.6788 130.397 69.6566C130.397 65.7062 130.375 61.7558 130.375 57.8054C130.309 55.6748 131.238 53.6331 132.897 52.2793C134.822 50.6148 137.521 50.2597 139.8 51.3915C142.233 52.368 143.76 54.7871 143.649 57.4059C143.672 61.3785 143.649 65.3733 143.649 69.3459C143.605 69.7898 143.738 70.2558 144.003 70.6109C144.357 71.0992 144.977 71.3211 145.574 71.1436C146.282 70.9216 146.747 70.2558 146.702 69.5012C146.702 65.5287 146.725 61.5339 146.68 57.5613C146.68 56.7845 146.592 55.9855 146.415 55.231C145.375 50.7923 141.371 47.6853 136.835 47.7518C134.557 47.6853 132.344 48.5286 130.707 50.1265C130.619 50.2153 130.552 50.3041 130.442 50.2597C130.287 50.1931 130.353 50.0599 130.375 49.949C130.442 49.5273 130.397 49.0834 130.243 48.6618C129.933 47.9516 129.136 47.6187 128.406 47.8628C127.765 48.1291 127.344 48.7949 127.411 49.5051C127.411 52.8785 127.411 56.2519 127.411 59.6252C127.411 62.9764 127.411 66.3054 127.411 69.6344ZM83.6284 63.0874C84.0488 64.3968 84.7125 65.6174 85.5753 66.6827C87.1018 68.6135 89.1814 70.0339 91.5486 70.7219C93.1194 71.1657 94.7565 71.2989 96.3937 71.1214C98.6282 70.8994 100.774 70.0339 102.544 68.6357C102.787 68.4804 102.942 68.2584 103.031 67.9921C103.23 67.3041 103.053 66.7937 102.345 66.261C101.88 65.8616 101.194 65.8616 100.708 66.261C99.2034 67.3707 97.4335 68.0143 95.5751 68.1475C93.5176 68.3472 91.4823 67.7702 89.8009 66.5717C85.9072 63.9529 84.8674 58.6487 87.4779 54.7427C87.6549 54.4986 87.8098 54.2545 88.0089 54.0325C89.6239 51.9686 92.0575 50.7479 94.6681 50.7035C96.7698 50.637 98.8494 51.3028 100.531 52.5678C100.84 52.8563 101.239 53.0116 101.659 52.9673C102.301 52.8785 102.832 52.4124 103.009 51.7688C103.163 51.0586 102.92 50.5704 102.19 50.0599C100.42 48.7949 98.3627 48.0182 96.1946 47.8184C94.4247 47.5743 92.6106 47.774 90.9071 48.3289C86.5709 49.949 82.8984 54.1879 83.0311 59.5143C83.0311 60.7571 83.2302 61.9555 83.6284 63.0874Z" fill="white"/>
<path fill-rule="evenodd" clip-rule="evenodd" d="M16 0C14.8954 0 14 0.895435 14 2V34.7164C14 35.8209 14.8954 36.7164 16 36.7164H35.941C37.0455 36.7164 37.941 35.8209 37.941 34.7164V2C37.941 0.89543 37.0455 0 35.941 0H16ZM28.569 14.9352L25.9078 8.04736L23.2467 14.9352L15.8942 15.3457L21.602 20.0131L19.719 27.1546L25.9078 23.1514L32.0966 27.1546L30.2137 20.0131L35.9215 15.3457L28.569 14.9352Z" fill="#FCD032"/>
<path fill-rule="evenodd" clip-rule="evenodd" d="M43.2 0C42.0954 0 41.2 0.895435 41.2 2V34.7164C41.2 35.8209 42.0954 36.7164 43.2 36.7164H63.141C64.2455 36.7164 65.141 35.8209 65.141 34.7164V2C65.141 0.89543 64.2455 0 63.141 0H43.2ZM55.769 14.9352L53.1078 8.04736L50.4466 14.9352L43.0941 15.3457L48.8019 20.0131L46.919 27.1546L53.1078 23.1514L59.2966 27.1546L57.4137 20.0131L63.1215 15.3457L55.769 14.9352Z" fill="#FCD032"/>
<path fill-rule="evenodd" clip-rule="evenodd" d="M70.4 0C69.2954 0 68.4 0.895435 68.4 2V34.7164C68.4 35.8209 69.2954 36.7164 70.4 36.7164H90.341C91.4455 36.7164 92.341 35.8209 92.341 34.7164V2C92.341 0.89543 91.4455 0 90.341 0H70.4ZM82.969 14.9352L80.3078 8.04736L77.6467 14.9352L70.2942 15.3457L76.002 20.0131L74.119 27.1546L80.3078 23.1514L86.4966 27.1546L84.6137 20.0131L90.3215 15.3457L82.969 14.9352Z" fill="#FCD032"/>
<path fill-rule="evenodd" clip-rule="evenodd" d="M97.5998 0C96.4952 0 95.5998 0.895435 95.5998 2V34.7164C95.5998 35.8209 96.4952 36.7164 97.5998 36.7164H117.541C118.645 36.7164 119.541 35.8209 119.541 34.7164V2C119.541 0.89543 118.645 0 117.541 0H97.5998ZM110.169 14.9352L107.508 8.04736L104.846 14.9352L97.4939 15.3457L103.202 20.0131L101.319 27.1546L107.508 23.1514L113.696 27.1546L111.814 20.0131L117.521 15.3457L110.169 14.9352Z" fill="#FCD032"/>
<path fill-rule="evenodd" clip-rule="evenodd" d="M124.8 0C123.695 0 122.8 0.895435 122.8 2V34.7164C122.8 35.8209 123.695 36.7164 124.8 36.7164H144.741C145.845 36.7164 146.741 35.8209 146.741 34.7164V2C146.741 0.89543 145.845 0 144.741 0H124.8ZM137.369 14.9352L134.708 8.04736L132.046 14.9352L124.694 15.3457L130.402 20.0131L128.519 27.1546L134.708 23.1514L140.896 27.1546L139.013 20.0131L144.721 15.3457L137.369 14.9352Z" fill="#FCD032"/>
</g>
<defs>
<clipPath id="clip0">
<rect width="160" height="80" fill="white"/>
</clipPath>
</defs>
</svg>
