<svg width="160" height="80" viewBox="0 0 160 80" fill="none" xmlns="http://www.w3.org/2000/svg">
<path d="M105.96 47.2065C103.915 47.2065 102.388 46.2002 101.961 44.4252C101.556 46.2002 100.03 47.2065 97.9856 47.2065C94.6194 47.2065 92.955 44.9867 92.955 41.9765V32.9937H96.235V42.1785C96.235 43.6357 96.7504 44.6046 98.279 44.6046C99.738 44.6046 100.322 43.6357 100.345 42.1785V32.9937H103.602V42.1785C103.602 43.6357 104.208 44.6046 105.667 44.6046C107.196 44.6046 107.71 43.6357 107.71 42.1785V32.9937H110.99V41.9774C110.989 44.9876 109.328 47.2065 105.96 47.2065ZM120.877 46.9846V45.9956C120.091 46.8505 118.834 47.2065 117.665 47.2065C115.509 47.2065 113.422 45.886 113.422 43.4799C113.422 40.9214 115.42 40.0222 117.802 40.0222H120.877V39.64C120.877 37.8868 119.396 37.7084 118.047 37.7084C116.699 37.7084 115.689 37.9556 114.881 38.3587L114.095 36.2468C114.657 35.9578 116.183 35.1943 118.766 35.1943C121.64 35.1943 124.156 36.9023 124.156 39.7532V46.9837H120.877V46.9846ZM120.877 41.9077H118.632C117.395 41.9077 116.699 42.3569 116.699 43.2788C116.699 44.1998 117.463 44.696 118.339 44.696C119.979 44.696 120.877 43.728 120.877 43.1882V41.9077ZM127.051 46.9793V30.4396H130.272V46.9793H127.051ZM133.232 46.9793V30.4396H136.453V46.9793H133.232ZM142.039 42.2246V42.4266C142.039 44.1563 143.365 44.6968 144.756 44.6968C146.103 44.6968 147.517 44.2424 148.508 43.7732L149.429 45.9965C148.866 46.289 146.958 47.2074 144.373 47.2074C141.118 47.2074 138.76 45.2104 138.76 42.1976V40.2041C138.76 37.1704 141.118 35.1961 144.373 35.1961C147.653 35.1961 150.011 37.193 150.011 40.2041L149.989 42.1915L142.039 42.2246ZM144.373 37.6857C143.251 37.6857 142.039 38.1576 142.039 40.1119H146.733C146.733 38.1576 145.52 37.6857 144.373 37.6857ZM158.678 46.9846C155.849 46.9846 153.49 45.2766 153.49 42.7626V38.0244H151.447V35.4433H153.49V31.8925H156.748V35.4215H159.982V38.0244H156.748V42.941C156.748 43.7732 157.554 44.38 158.656 44.38H159.982V46.9846H158.678Z" fill="#333333"/>
<path d="M43.4307 42.2246V42.4266C43.4307 44.1563 44.7556 44.6969 46.1458 44.6969C47.4951 44.6969 48.9088 44.2425 49.8986 43.7733L50.8196 45.9965C50.2572 46.289 48.3482 47.2074 45.7654 47.2074C42.5097 47.2074 40.1523 45.2105 40.1523 42.1976V40.2042C40.1523 37.1704 42.5088 35.1961 45.7654 35.1961C49.0437 35.1961 51.4028 37.1931 51.4028 40.2042V42.2246H43.4307ZM45.7654 37.6858C44.6424 37.6858 43.4307 38.1576 43.4307 40.1119H48.1245C48.1245 38.1576 46.911 37.6858 45.7654 37.6858ZM53.1804 46.9846V44.9415L59.8068 35.5974H53.6966V32.9937H64.0949V35.0385L57.4024 44.38H64.41V46.9846H53.1804ZM69.5809 42.2246V42.4266C69.5809 44.1563 70.9049 44.6969 72.2977 44.6969C73.6444 44.6969 75.0599 44.2425 76.0488 43.7733L76.9689 45.9965C76.4065 46.289 74.4992 47.2074 71.9156 47.2074C68.6581 47.2074 66.3016 45.2105 66.3016 42.1976V40.2042C66.3016 37.1704 68.6581 35.1961 71.9156 35.1961C75.1948 35.1961 77.553 37.1931 77.553 40.2042V42.2246H69.5809ZM71.9156 37.6858C70.7926 37.6858 69.5809 38.1576 69.5809 40.1119H74.2738C74.2738 38.1576 73.0612 37.6858 71.9156 37.6858ZM82.5088 42.2246V42.4266C82.5088 44.1563 83.8337 44.6969 85.2257 44.6969C86.5724 44.6969 87.9878 44.2425 88.9767 43.7733L89.8977 45.9965C89.3354 46.289 87.4272 47.2074 84.8444 47.2074C81.587 47.2074 79.2296 45.2105 79.2296 42.1976V40.2042C79.2296 37.1704 81.587 35.1961 84.8444 35.1961C88.1227 35.1961 90.4818 37.1931 90.4818 40.2042V42.2246H82.5088ZM84.8444 37.6858C83.7214 37.6858 82.5088 38.1576 82.5088 40.1119H87.2026C87.2026 38.1576 85.9891 37.6858 84.8444 37.6858Z" fill="#333333"/>
<path d="M26.2024 41.6501V45.2192H12.2742C11.3097 45.2192 10.4853 44.3521 10.4853 43.3885C10.4853 42.4257 11.2662 41.6413 12.2307 41.6413L26.2024 41.6501ZM12.2742 34.5119C11.3097 34.5119 10.4461 35.3771 10.4461 36.3399C10.4461 37.3036 11.2662 38.1541 12.2307 38.1541L26.2024 38.168V34.5119H12.2742ZM9.50337 48.6229C7.45506 48.6229 5.79587 47.8246 5.79587 45.24C5.79587 41.8181 9.16474 42.7678 9.16474 39.8986C9.16474 37.0285 5.70359 38.0696 5.70359 34.6477C5.70359 32.0631 7.45506 31.1734 9.50337 31.1734L27.8564 31.1169V26H8.70511C4.04701 26 0.189772 28.5175 0.189772 33.7293C0.189772 38.1532 3.50555 38.1532 3.50555 39.8986C3.50555 41.6431 0 41.597 0 46.0218C0 51.2353 4.13406 53.7502 8.79217 53.7502H27.9434L27.9338 48.6229H9.50337Z" fill="#03C5D3"/>
</svg>
