<svg width="160" height="80" viewBox="0 0 160 80" fill="none" xmlns="http://www.w3.org/2000/svg">
<path d="M152.117 23.9047C155.844 23.857 158.806 20.857 158.901 17.1428C158.901 13.3809 155.844 10.3809 152.117 10.3809C148.343 10.3809 145.333 13.4285 145.333 17.1428C145.381 20.9047 148.391 23.9047 152.117 23.9047Z" fill="#F72442"/>
<path d="M134.68 56.8569H144.712V27.3331H134.68V56.8569ZM114.471 46.9522C111.031 46.9522 109.216 44.1902 109.216 40.9045C109.216 37.7141 111.031 35.095 114.471 35.095C116.525 35.095 118.484 35.9522 119.869 37.4283V44.5712C118.436 46.0474 116.525 46.9045 114.471 46.9522ZM114.423 69.9522C124.981 69.9522 129.902 64.8093 129.902 56.0474V27.3331H119.869V28.9998C118.054 27.3331 115.426 26.3331 112.464 26.3331C104.343 26.3331 98.992 32.3807 98.992 40.8569C98.992 49.4283 104.343 55.6188 112.464 55.6188C115.14 55.5712 117.767 54.6664 119.869 52.9522V55.9522C119.869 59.1903 118.006 60.8569 113.754 60.8569C110.315 60.8569 105.68 59.5236 101.715 56.7617V66.3807C104.247 67.9998 109.311 69.8569 114.375 69.8569L114.423 69.9522ZM76.4902 57.9522C79.4523 58.0474 82.3665 56.9045 84.5163 54.8093V56.8569H94.549V27.3331H84.5163V46.2855C83.3698 47.9045 81.7454 48.9522 79.93 48.9522C77.5413 48.9522 75.9169 47.3331 75.9169 44.7617V27.3331H65.8843V47.1903C65.8843 54.095 71.0439 57.9522 76.5858 57.9522H76.4902ZM33.8754 56.8569H61.5846V48.7617H47.3478L61.1069 35.2855V27.3331H34.3531V35.4283H47.9689L33.8754 48.8569V56.8569ZM0.911011 56.8569H30.5312V47.3331H11.4214V40.6664H28.6202V31.1426H11.4214V23.9998H30.5312V14.9521H0.911011V56.8569Z" fill="white"/>
<mask id="mask0" style="mask-type:alpha" maskUnits="userSpaceOnUse" x="0" y="14" width="145" height="56">
<path d="M134.68 56.8569H144.712V27.3331H134.68V56.8569ZM114.471 46.9522C111.031 46.9522 109.216 44.1902 109.216 40.9045C109.216 37.7141 111.031 35.095 114.471 35.095C116.525 35.095 118.484 35.9522 119.869 37.4283V44.5712C118.436 46.0474 116.525 46.9045 114.471 46.9522ZM114.423 69.9522C124.981 69.9522 129.902 64.8093 129.902 56.0474V27.3331H119.869V28.9998C118.054 27.3331 115.426 26.3331 112.464 26.3331C104.343 26.3331 98.992 32.3807 98.992 40.8569C98.992 49.4283 104.343 55.6188 112.464 55.6188C115.14 55.5712 117.767 54.6664 119.869 52.9522V55.9522C119.869 59.1903 118.006 60.8569 113.754 60.8569C110.315 60.8569 105.68 59.5236 101.715 56.7617V66.3807C104.247 67.9998 109.311 69.8569 114.375 69.8569L114.423 69.9522ZM76.4902 57.9522C79.4523 58.0474 82.3665 56.9045 84.5163 54.8093V56.8569H94.549V27.3331H84.5163V46.2855C83.3698 47.9045 81.7454 48.9522 79.93 48.9522C77.5413 48.9522 75.9169 47.3331 75.9169 44.7617V27.3331H65.8843V47.1903C65.8843 54.095 71.0439 57.9522 76.5858 57.9522H76.4902ZM33.8754 56.8569H61.5846V48.7617H47.3478L61.1069 35.2855V27.3331H34.3531V35.4283H47.9689L33.8754 48.8569V56.8569ZM0.911011 56.8569H30.5312V47.3331H11.4214V40.6664H28.6202V31.1426H11.4214V23.9998H30.5312V14.9521H0.911011V56.8569Z" fill="black"/>
</mask>
<g mask="url(#mask0)">
<path d="M-6.25516 -16.9049C-6.25516 -16.9049 -2.09877 52.1427 109.407 50.4284C220.913 48.7141 226.693 -51.4287 226.693 -51.4287L-6.25516 -16.9049Z" fill="url(#paint0_linear)"/>
</g>
<defs>
<linearGradient id="paint0_linear" x1="95.1569" y1="52.0434" x2="116.739" y2="-70.7533" gradientUnits="userSpaceOnUse">
<stop stop-color="#F72442"/>
<stop offset="0.05" stop-color="#CE1E37"/>
<stop offset="0.13" stop-color="#BA1D34"/>
<stop offset="0.21" stop-color="#A5192E"/>
<stop offset="0.29" stop-color="#991D2E"/>
<stop offset="0.37" stop-color="white"/>
<stop offset="0.45" stop-color="white"/>
<stop offset="0.52" stop-color="white"/>
<stop offset="0.59" stop-color="white"/>
</linearGradient>
</defs>
</svg>
