<svg width="160" height="80" viewBox="0 0 160 80" fill="none" xmlns="http://www.w3.org/2000/svg">
<path d="M131.15 64.7065L136.516 65.2478C135.842 60.9907 135.073 56.8159 134.544 52.6108C133.946 47.847 133.68 43.0486 134.415 38.2654C134.631 36.8362 135.062 35.4374 135.397 33.9346L130.601 34.1772C130.331 35.589 130.076 36.964 129.8 38.3346C129.512 39.7465 129.213 41.1554 128.902 42.5614C128.595 43.9321 128.276 45.2984 127.932 46.6604C127.58 48.0549 127.23 49.4537 126.814 50.8309C126.421 52.1301 125.937 53.3947 125.494 54.6766L125.216 54.6051C124.25 49.8132 123.333 45.0126 122.3 40.238C121.884 38.3108 121.577 36.375 120.875 34.4717C120.227 32.7134 120.478 30.6325 120.288 28.6967C120.05 26.2628 119.875 23.8138 119.472 21.4059C119.083 19.0825 117.206 17.7248 114.879 17.9976C113.767 18.1297 112.676 18.5801 111.618 18.9959C110.519 19.4289 109.489 20.0352 108.396 20.4813C106.669 21.185 104.911 21.2327 103.332 20.1717C101.706 19.089 100.065 17.9478 98.6616 16.5923C96.9751 14.964 95.1785 13.7211 92.8312 13.3703C92.2395 13.2772 91.6522 13.1343 91.0626 13.013C90.9747 13.0134 90.8867 13.0091 90.7992 13H89.6482C89.5122 13.0195 89.374 13.0346 89.2358 13.0476L88.9788 13.0823C88.8277 13.1083 88.6765 13.1278 88.5254 13.1429H88.4994C88.4781 13.1664 88.4503 13.183 88.4195 13.1906C83.2132 14.0112 80.3002 17.3264 78.8966 22.1594C78.4086 23.8441 78.1603 25.6132 77.9443 27.3563C77.7284 29.0994 76.8214 30.0522 75.1738 30.3228C71.952 30.8533 68.7259 31.373 65.4911 31.8169C63.0359 32.1547 60.5936 32.4665 58.2377 34.0841C58.7948 33.978 59.1014 33.9282 59.3843 33.8675C61.1313 33.4756 62.8566 32.9364 64.6252 32.7156C68.2961 32.2587 71.9952 31.9772 75.6813 31.6069C77.5513 31.4207 78.1991 30.7927 78.4885 28.937C78.7174 27.4776 78.97 26.0203 79.1363 24.5522C79.4948 21.3821 80.7343 18.6386 83.1031 16.5014C83.8663 15.7966 84.7734 15.2668 85.7613 14.9488C90.0801 13.6821 93.9843 14.4616 97.4026 17.5104C98.6351 18.6103 99.9324 19.6349 101.287 20.5787C102.987 21.761 104.919 22.0209 106.96 21.748C108.71 21.5151 110.384 20.8833 111.853 19.901C115.129 17.7638 117.962 19.0868 118.416 22.9606C118.601 24.537 118.813 26.1091 118.994 27.6833C119.247 29.8594 119.48 32.0378 119.726 34.2335C117.926 33.8285 117.859 33.677 117.567 31.975C117.12 29.4242 116.604 26.8821 116.045 24.353C115.935 23.8528 115.488 23.4262 115.194 22.9671C115.224 23.3136 115.241 23.6622 115.285 24.0087C115.639 26.8814 115.999 29.7541 116.364 32.6268V32.8433L116.252 32.7415H115.604C115.62 32.8951 115.648 33.0472 115.688 33.1963C116.89 36.4915 117.448 39.9879 117.332 43.4947C117.181 49.5837 116.846 55.6683 116.55 61.753C116.464 63.5047 116.243 65.2478 116.088 66.9498H121.201C120.338 62.6667 119.906 52.1171 120.517 49.4602L125.531 65.4232H125.833L129.977 48.8236C131.023 51.3071 131.533 53.9843 131.474 56.6795C131.435 59.3386 131.262 61.9803 131.15 64.7065Z" fill="white"/>
<path d="M23.845 68L20.7312 66.7441C22.7654 58.5937 23.5859 50.2874 23.5384 41.8187H22.0139L21.2387 37.6526L35.8448 35.3032L36.4084 38.5967L34.2641 39.2463C34.5772 48.5097 35.1689 57.6908 38.1316 66.6488L35.9722 67.1512L33.6876 67.6709L31.8391 56.0559C30.1893 56.3266 28.572 56.5691 26.9697 56.8853C26.7538 56.9264 26.5378 57.3335 26.4838 57.6041C25.8036 61.0687 25.1536 64.5333 24.4972 67.9978L23.845 68ZM31.0596 41.5026C29.6862 41.704 28.5158 41.8469 27.3605 42.0656C27.1252 42.111 26.7689 42.438 26.7667 42.6394C26.7278 45.6167 26.7408 48.5941 26.7408 51.7079L31.0596 51.2965V41.5026Z" fill="white"/>
<path d="M141.532 68L138.293 66.7333C140.314 58.5656 141.165 50.2549 141.1 41.7538L139.627 41.8382C139.491 41.2081 139.338 40.5585 139.215 39.9024C139.092 39.2463 138.999 38.5555 138.844 37.6439L153.413 35.3032L153.972 38.5945L151.835 39.2571C152.126 48.5313 152.744 57.7167 155.678 66.6835L151.232 67.7077L149.384 56.0797C147.732 56.3547 146.119 56.6124 144.512 56.9112C144.409 56.9566 144.318 57.0251 144.246 57.1115C144.175 57.1979 144.124 57.2998 144.097 57.4093C143.415 60.8738 142.754 64.3384 142.096 67.803C142.085 67.8593 142.147 67.9307 142.178 67.9957L141.532 68ZM148.6 41.5004L144.421 42.1219V51.6949L148.6 51.29V41.5004Z" fill="white"/>
<path d="M83.0125 68L79.8403 66.7549C81.8433 58.5751 82.7754 50.1685 82.613 41.7473L81.1468 41.8728L80.3521 37.6504L94.9734 35.3032L95.5132 38.6118L93.5201 39.2008C93.1616 42.4488 94.237 59.0528 97.258 66.6618L92.7837 67.686L90.9439 56.0602C89.2985 56.3309 87.6833 56.5821 86.0767 56.8809C85.9704 56.9259 85.876 56.9952 85.8011 57.0831C85.7261 57.1711 85.6726 57.2753 85.6448 57.3876C84.9732 60.9215 84.3254 64.4618 83.6754 67.9978L83.0125 68ZM85.9471 51.578C86.1192 51.6068 86.2931 51.6242 86.4675 51.6299C87.1897 51.6251 87.9109 51.5753 88.6269 51.4805C90.6395 51.1124 90.2896 51.6451 90.2983 49.5772C90.3112 46.9225 90.2983 44.2677 90.2983 41.4723L85.9536 42.1219L85.9471 51.578Z" fill="white"/>
<path d="M155.879 26.579C155.917 26.4505 155.955 26.3221 155.994 26.1936V26.1351V25.3426C155.931 24.9689 155.848 24.5988 155.745 24.2339L155.734 24.208L155.572 23.9914C154.925 23.5764 154.255 23.197 153.566 22.8546C152.86 22.5233 152.271 22.179 152.364 21.2977C152.45 20.5398 152.97 20.2843 153.679 20.3774C154.307 20.4597 154.421 20.7867 154.195 21.3692C154.121 21.5576 154.275 22.0058 154.432 22.0707C154.575 22.1225 154.726 22.1437 154.877 22.1329C155.028 22.122 155.175 22.0795 155.309 22.008C156.013 21.5597 155.957 20.3839 155.21 19.9011C154.78 19.5984 154.274 19.4218 153.75 19.3912C153.225 19.3606 152.703 19.4772 152.24 19.7278C151.178 20.2865 150.772 21.2436 150.824 22.428C150.876 23.6125 151.733 23.9438 152.633 24.2837C153.158 24.4873 153.841 24.693 154.087 25.1152C154.423 25.7155 154.544 26.4132 154.43 27.0922C154.348 27.4971 153.668 27.9583 153.188 28.045C152.819 28.1186 152.346 27.666 152.154 27.5686C152.42 26.8973 152.802 26.3971 152.679 26.1351C152.508 25.7713 151.949 25.3643 151.578 25.3859C151.206 25.4076 150.714 25.8948 150.599 26.2759C150.221 27.5621 151.413 28.7942 152.858 28.7097C154.262 28.6296 155.154 27.8436 155.819 26.7328C155.84 26.6808 155.86 26.6288 155.879 26.579Z" fill="white"/>
<path d="M102.06 60.7937C102.011 62.6862 103.725 64.2734 105.785 64.241C106.8 64.2189 107.784 63.8862 108.605 63.2874C109.426 62.6887 110.045 61.8526 110.378 60.8912C111.277 58.2732 110.216 55.1356 107.839 53.7087C106.833 53.1045 105.695 52.7169 104.6 52.2471C104.304 52.1193 103.984 52.05 103.68 51.9396C99.6571 50.4866 98.3981 48.9601 98.4737 45.6362C98.573 41.2211 100.575 38.0726 104.192 37.0354C105.747 36.5894 107.431 36.5786 109.374 36.3295L108.243 23.9502L108.61 23.8766C109.215 26.4339 109.884 28.9782 110.402 31.5528C110.682 33.1148 110.866 34.6928 110.953 36.2776C111.009 37.0376 111.285 37.4599 111.961 37.8453C114.28 39.1726 114.864 41.7018 113.451 43.9754C112.886 44.887 112.091 45.4565 110.985 45.4782C110.633 45.4998 110.282 45.4304 109.965 45.2767C109.647 45.1229 109.375 44.8899 109.173 44.6001C108.972 44.3103 108.848 43.9734 108.813 43.6217C108.779 43.27 108.835 42.9153 108.977 42.5917C109.098 42.2929 109.269 42.0136 109.409 41.7256C109.806 40.879 109.556 40.2726 108.731 39.8656C106.787 38.9063 104.606 39.3978 103.652 41.0154C102.665 42.687 103.235 45.2919 104.896 46.4158C105.531 46.8195 106.209 47.152 106.917 47.4075C107.755 47.7294 108.608 48.0091 109.474 48.2455C114.293 49.5923 116.055 53.2388 114.959 58.2689C113.713 63.9919 106.537 67.7727 101.328 65.6116C97.9555 64.2128 96.3122 60.7439 97.5257 57.5998C98.2016 55.8459 99.8471 54.9191 101.557 55.3262C103.512 55.7896 104.663 57.1992 104.47 58.8925C104.298 60.4667 103.624 60.9973 102.06 60.7937Z" fill="white"/>
<path d="M52.308 35.4006L55.9984 34.751C54.99 45.1036 55.8991 55.2959 56.4303 65.6333C55.4946 65.6694 54.5576 65.6579 53.6231 65.5987C53.338 65.5684 53.0249 65.1656 52.8435 64.8603C49.9355 59.9825 47.0384 55.0982 44.152 50.2073L43.854 50.2333L43.2537 64.3514L38.4576 63.1302C40.0146 54.8823 41.1418 46.6518 40.3579 38.1268C41.6363 38.1268 42.8434 38.0922 44.044 38.1615C44.2405 38.1723 44.5018 38.6184 44.5795 38.9064C46.1284 44.4972 48.5152 49.8197 51.658 54.6918C51.9204 55.1272 52.2777 55.4974 52.7032 55.7745L52.308 35.4006Z" fill="white"/>
<path d="M72.7273 66.6164H67.5944C67.3266 58.2582 68.0392 49.8479 65.638 41.5438L58.8532 42.4857L58.3176 36.3166C65.2471 36.6934 71.8851 35.9832 78.5922 34.5259V38.7202C76.4328 39.1532 74.1697 39.5582 71.9348 40.054C70.0604 40.4698 70.0496 40.5174 70.0777 42.4186C70.1749 49.2741 70.4275 56.121 71.7814 62.8704C72.0255 64.1025 72.3926 65.3064 72.7273 66.6164Z" fill="white"/>
<path d="M12.2512 66.8307H6.55476C7.0104 56.3548 7.38829 45.9134 5 35.537C10.433 35.8727 15.4277 33.6878 20.9191 33.2461L19.3211 39.6988C18.4336 39.2853 17.7275 38.8652 16.9674 38.6162C15.3068 38.0792 13.6376 38.2611 11.9792 38.7266C10.2516 39.2116 10.1847 39.19 10.0357 40.9894C9.88887 42.8516 9.85432 44.7268 9.81977 46.5955C9.80033 47.4616 10.1545 48.0788 11.178 47.8557C12.5557 47.5548 13.9248 47.2213 15.3068 46.8987L14.985 53.0201C13.7866 51.4611 12.3787 51.3853 10.8045 51.7209C10.1156 51.8725 9.97309 52.154 9.96013 52.7927C9.84894 57.1608 10.5136 61.5139 11.923 65.6485C12.0483 66.0209 12.126 66.3977 12.2512 66.8307Z" fill="white"/>
<path d="M90.8252 34.673C88.8968 34.673 87.3701 34.2161 86.1781 33.2201C84.5954 31.8751 83.1056 30.4238 81.719 28.8764C81.3713 28.4974 81.2288 27.5772 81.4469 27.1441C81.6348 26.7565 82.4726 26.4945 83.0125 26.5118C84.4096 26.5594 85.8003 26.7738 87.1909 26.9449C87.7605 27.0357 88.3424 27.0108 88.9022 26.8717C89.4619 26.7326 89.9881 26.4821 90.4494 26.135C92.3454 24.7081 94.2262 23.2573 96.12 21.826C96.6263 21.4229 97.157 21.052 97.7093 20.7151C98.4392 20.2951 98.9639 20.5246 98.9704 21.3474C98.9769 22.1703 98.9423 23.1273 98.5904 23.8614C97.1803 26.8106 95.6644 29.7079 94.1377 32.6029C93.3776 34.0321 92.1165 34.7012 90.8252 34.673Z" fill="white"/>
<path d="M140.686 24.8466L142.251 18.671H143.633C142.81 21.932 143.417 25.1 144.065 28.387L142.264 28.2354V23.5452L141.96 23.5019L140.647 28.6035L139.152 23.961L138.904 23.9848L139.144 28.8677H137.673C137.837 25.4269 138.513 21.9645 137.587 18.3809C138.541 18.5368 139.275 18.6234 139.45 19.7753C139.707 21.4708 140.122 23.1425 140.47 24.825L140.686 24.8466Z" fill="white"/>
<path d="M130.994 29.4328C129.729 29.3982 130.169 28.4931 130.035 27.8933C128.209 29.8876 126.339 29.5043 125.457 26.9448C125.09 25.9248 124.951 24.8361 125.05 23.7561C125.15 22.6761 125.485 21.6312 126.032 20.6956C126.42 20.0536 126.976 19.5296 127.638 19.1799C128.122 18.9249 128.683 18.8629 129.21 19.0064C129.737 19.1498 130.19 19.488 130.478 19.9529C131.126 21.0204 131.044 22.9952 130.197 23.5647C129.856 23.7943 128.982 23.8159 128.815 23.5885C128.535 23.2074 128.599 22.5513 128.599 22.01C128.599 21.9342 129.031 21.7263 129.109 21.7935C129.367 22.0189 129.603 22.2691 129.813 22.5405C129.99 21.4578 129.647 20.6047 128.91 20.3925C128.135 20.1759 127.287 20.7195 126.885 21.787C126.252 23.4172 126.257 25.2269 126.898 26.8539C127.114 27.3996 127.727 28.1531 128.174 28.1639C129.118 28.1856 129.038 27.235 129.103 26.4576H127.807L127.526 25.5395C128.234 25.323 128.876 25.1259 129.521 24.9419C130.167 24.7578 130.83 24.5911 131.61 24.3832L131.743 25.86L130.759 26.187L130.994 29.4328Z" fill="white"/>
<path d="M87.057 18.7512C86.1047 17.3438 84.2843 17.3697 83.4162 18.8227C83.1322 19.3418 82.9104 19.8927 82.7554 20.464C82.755 20.5146 82.7477 20.5648 82.7339 20.6134L82.7166 20.6871C82.7142 20.7178 82.7091 20.7482 82.7015 20.778C82.7015 21.131 82.6799 21.4839 82.6626 21.8369C82.7679 22.3858 82.9174 22.9253 83.1096 23.4501C83.5048 24.4158 84.2238 25.0308 85.3446 24.9918C86.4653 24.9528 87.1649 24.3703 87.5471 23.3808C87.8646 22.6309 87.9862 21.8123 87.9004 21.0023C87.8146 20.1923 87.5243 19.4175 87.057 18.7512Z" fill="white"/>
<path d="M131.877 19.7537L136.531 18.9698C136.302 19.548 136.149 19.8706 136.047 20.2106C135.923 20.5293 135.86 20.8688 135.861 21.211C136.134 23.7358 136.44 26.2563 136.753 28.9132L135.656 29.1578L135.041 25.6673C133.806 25.4659 133.242 25.9878 133.154 27.1722C133.064 27.8742 132.938 28.5709 132.776 29.2596L131.696 28.9088C131.951 26.9102 132.298 24.996 132.4 23.0624C132.447 22.0273 132.08 20.9598 131.877 19.7537ZM134.721 23.9978V21.0118L133.555 21.2565V24.1321L134.721 23.9978Z" fill="white"/>
<path d="M146.304 27.378L149.919 26.7068L149.779 28.2658L144.929 28.6859V19.5914L148.816 19.2081L148.69 20.7953H146.356L146.227 22.7983H148.293L148.423 23.8203C147.682 23.9936 146.518 23.9936 146.397 24.3487C146.106 25.1975 146.304 26.2195 146.304 27.378Z" fill="white"/>
<path d="M90.3156 20.6697C90.4602 20.15 90.5315 19.587 90.7669 19.1193C91.609 17.4541 93.7533 16.5209 95.5326 17.0211C95.9419 17.1404 96.3181 17.3531 96.6318 17.6425C96.7358 17.756 96.8144 17.8904 96.8625 18.0368C96.9105 18.1831 96.9268 18.3381 96.9103 18.4913C96.8801 18.6537 96.4655 18.8075 96.2064 18.8486C95.7119 18.9244 95.2023 18.8984 94.6948 18.9482C93.3106 19.0846 91.9912 19.3813 91.0757 20.5744C90.9828 20.6978 90.7863 20.7411 90.6438 20.8234L90.3156 20.6697Z" fill="white"/>
<path d="M115.184 22.9606L115.036 22.9022L115.08 22.8069L115.188 22.9563L115.184 22.9606Z" fill="white"/>
<path d="M134.721 24L133.555 24.1343V21.2565L134.721 21.0118V24Z" fill="white"/>
</svg>
