<svg width="160" height="80" viewBox="0 0 160 80" fill="none" xmlns="http://www.w3.org/2000/svg">
<g clip-path="url(#clip0)">
<path d="M155.835 24.7651C145.705 24.7847 135.576 24.7651 125.427 24.7847C125.153 24.7847 124.899 24.8042 124.625 24.8434C122.611 25.2345 121.242 26.8966 121.242 28.989C121.242 39.099 121.222 49.1895 121.222 59.2995C121.222 61.7048 123.041 63.5234 125.427 63.5234C135.537 63.5234 145.666 63.5234 155.776 63.5234C156.089 63.5234 156.402 63.5038 156.715 63.4256C158.26 63.0541 159.277 62.1154 159.805 60.6292C159.863 60.4337 159.922 60.2577 159.981 60.0621C159.981 49.4633 159.981 38.8448 159.981 28.2459C159.902 27.9917 159.844 27.7375 159.765 27.5029C159.12 25.7429 157.438 24.7651 155.835 24.7651Z" fill="url(#paint0_linear)"/>
<path d="M159.414 3H121.848C121.516 3 121.262 3.25422 121.262 3.58665V3.66487C121.262 3.99731 121.516 4.25153 121.848 4.25153H159.414C159.746 4.25153 160 3.99731 160 3.66487V3.58665C160 3.25422 159.746 3 159.414 3Z" fill="url(#paint1_linear)"/>
<path d="M158.573 8.59277H122.709C121.907 8.59277 121.262 9.23809 121.262 10.0399C121.262 10.8416 121.907 11.4869 122.709 11.4869H158.573C159.375 11.4869 160.02 10.8416 160.02 10.0399C160.02 9.23809 159.355 8.59277 158.573 8.59277Z" fill="url(#paint2_linear)"/>
<path d="M156.617 15.5742H124.645C122.787 15.5742 121.262 17.08 121.262 18.9573C121.262 20.8345 122.767 22.3403 124.645 22.3403H156.617C158.475 22.3403 160 20.8345 160 18.9573C160 17.08 158.475 15.5742 156.617 15.5742Z" fill="url(#paint3_linear)"/>
<path d="M3.59814 76.8793C3.48081 76.8402 3.36348 76.8011 3.24615 76.762C1.56441 76.2926 0.488878 75.2171 0.136886 73.4767C0.0391102 73.0074 0 72.5185 0 72.0296C0 62.2716 0.0195551 52.5136 0.0391102 42.736C0.0391102 42.208 0.0977756 41.6605 0.215106 41.1521C0.664874 39.353 2.28795 38.121 4.14569 38.1015C5.65143 38.0819 7.15717 38.1015 8.64336 38.1015C17.2867 38.1015 25.9105 38.1015 34.5539 38.1015C35.6881 38.1015 36.6854 38.4535 37.4872 39.2357C38.3671 40.0765 38.7778 41.0934 38.7778 42.3058C38.7778 49.4825 38.7778 56.6593 38.7974 63.8556C38.7974 66.7888 38.7778 69.7026 38.8169 72.6358C38.8365 74.65 37.4089 76.3904 35.5317 76.762C35.4534 76.7815 35.3948 76.8206 35.3361 76.8597C24.7568 76.8793 14.1775 76.8793 3.59814 76.8793Z" fill="url(#paint4_linear)"/>
<path d="M84.5954 76.8793C84.5172 76.8402 84.4194 76.8011 84.3412 76.7816C82.3465 76.3122 81.0559 74.7087 81.0559 72.6554C81.0559 65.2636 81.0559 57.8522 81.0559 50.4604C81.0559 47.7422 81.0364 45.024 81.0755 42.2863C81.095 40.4872 81.975 39.1966 83.6176 38.4535C84.1652 38.1993 84.7518 38.1406 85.358 38.1406C93.2974 38.1406 101.256 38.1406 109.196 38.1406C111.347 38.1406 113.478 38.1406 115.629 38.1406C117.702 38.1406 119.364 39.5095 119.736 41.5432C119.775 41.7779 119.795 42.0321 119.795 42.2863C119.795 52.4159 119.795 62.5259 119.834 72.6554C119.834 74.6696 118.426 76.41 116.548 76.7816C116.47 76.8011 116.412 76.8402 116.353 76.8793C105.754 76.8793 95.1747 76.8793 84.5954 76.8793Z" fill="url(#paint5_linear)"/>
<path d="M44.0577 76.8794C43.9599 76.8403 43.8621 76.8011 43.7643 76.762C41.887 76.2927 40.616 74.7283 40.5768 72.7923C40.5768 72.6555 40.5768 72.5186 40.5768 72.3621C40.5768 62.4086 40.5768 52.455 40.5964 42.521C40.5964 42.0321 40.6355 41.5042 40.7724 41.0348C41.2808 39.2944 42.8648 38.1211 44.703 38.1016C47.9882 38.1016 51.2735 38.1016 54.5588 38.1016C61.4031 38.1016 68.2669 38.1016 75.1112 38.1016C76.265 38.1016 77.2623 38.4731 78.0836 39.2749C78.944 40.0962 79.3351 41.1326 79.3351 42.3059C79.3351 46.9405 79.3351 51.575 79.3351 56.19C79.3351 61.6655 79.3351 67.1409 79.3351 72.6163C79.3351 73.8092 78.9244 74.8456 78.0445 75.6865C77.4969 76.2145 76.8712 76.5469 76.1281 76.7425C76.0107 76.7816 75.8934 76.8207 75.7761 76.8598C65.1967 76.8794 54.637 76.8794 44.0577 76.8794Z" fill="url(#paint6_linear)"/>
<path d="M17.091 69.2329V54.9576H14.9008V51.7897C15.2528 51.7897 16.6999 51.7897 17.091 51.7897C17.091 51.7897 17.0714 50.2253 17.091 49.6582C17.1105 49.2475 17.1497 48.8369 17.2279 48.4458C17.5603 47.0182 18.4794 46.1774 19.8874 45.8645C21.0216 45.6103 22.1949 45.6494 23.3486 45.708C23.6028 45.7276 23.8375 45.7472 24.1504 45.7863L24.1699 48.9738C23.9548 48.9738 23.7788 48.9738 23.6028 48.9933C23.1922 49.0129 22.7815 49.0324 22.3904 49.0911C21.9407 49.1693 21.6669 49.5017 21.6473 49.932C21.6082 50.5186 21.6473 51.7701 21.6473 51.7701H24.1895V54.9381H21.6473V69.2133H17.091V69.2329Z" fill="white"/>
<path d="M143.124 32.4497H138.646V36.2434H143.124V32.4497Z" fill="white"/>
<path d="M143.124 38.4336H138.646V55.8376H143.124V38.4336Z" fill="white"/>
<path d="M106.752 65.5958L99.8877 65.5763C100.044 65.3416 104.405 58.8297 106.497 55.74C106.693 55.4467 106.791 55.1534 106.791 54.7818C106.771 53.9605 106.771 52.0441 106.752 51.9072L94.862 51.9268C94.862 53.1001 94.862 54.2734 94.862 55.5249C97.0326 55.5249 99.1837 55.5249 101.413 55.5249C101.257 55.7596 96.8762 62.3105 94.7838 65.4198C94.6078 65.6936 94.51 65.9674 94.51 66.2802C94.5296 67.1016 94.5296 69.1353 94.5491 69.2722H106.752V65.5958Z" fill="white"/>
<path d="M66.1354 67.5516C66.0376 66.7889 65.9985 66.0263 65.979 65.2636C65.9594 62.4086 65.979 59.5731 65.979 56.718C65.979 55.8967 65.9399 55.095 65.7639 54.2932C65.4901 53.1003 64.8057 52.2399 63.7106 51.7119C63.339 51.5359 62.9479 51.399 62.5568 51.3013C61.2662 50.9688 59.956 50.9493 58.6458 51.047C57.8049 51.1057 56.9836 51.3013 56.2014 51.6533C54.3632 52.4941 53.3268 54.5279 53.6006 56.7571L57.5507 56.7376C57.5898 56.3269 57.6094 55.9358 57.6876 55.5252C57.844 54.8212 58.2547 54.3127 58.9782 54.1368C59.4476 54.0194 59.9364 54.039 60.4253 54.1563C60.7969 54.2541 61.1293 54.4301 61.3249 54.7821C61.7355 55.5056 61.7942 56.2683 61.54 57.0505C61.3249 57.7153 60.7382 57.9304 60.1516 58.126C60.0147 58.1651 59.8778 58.2042 59.7409 58.2433C59.0174 58.4389 58.2743 58.6149 57.5703 58.83C56.8272 59.0646 56.0841 59.3189 55.3801 59.6513C54.2459 60.1793 53.5028 61.0984 53.229 62.3303C53.1117 62.8388 53.0335 63.3863 53.0139 63.8947C52.9553 65.1267 53.1313 66.3391 53.7766 67.4147C54.4023 68.4706 55.3214 69.116 56.573 69.2333C57.1205 69.292 57.6681 69.2528 58.2156 69.2333C59.6236 69.1551 60.7382 68.5684 61.4813 67.3364C61.5204 67.2582 61.5986 67.1996 61.6768 67.1018C61.8137 67.5907 61.9311 68.0209 62.068 68.4511C62.2048 68.8617 62.2244 68.8422 62.635 68.8422H66.4874C66.3505 68.3924 66.1745 67.9818 66.1354 67.5516ZM61.6573 63.7774C61.5595 65.5569 59.9364 66.3391 58.5676 66.1436C58.1765 66.0849 57.8636 65.8503 57.6876 65.4983C57.1792 64.501 57.1401 63.4645 57.5703 62.4281C57.7267 62.0761 57.9614 61.7828 58.2938 61.5872C58.5676 61.4308 58.8609 61.2548 59.1738 61.157C60.0147 60.9224 60.8555 60.7268 61.6768 60.1402C61.6768 61.4308 61.716 62.6041 61.6573 63.7774Z" fill="white"/>
</g>
<defs>
<linearGradient id="paint0_linear" x1="140.624" y1="63.2848" x2="140.624" y2="25.1263" gradientUnits="userSpaceOnUse">
<stop stop-color="#BB050B"/>
<stop offset="1" stop-color="#F01F27"/>
</linearGradient>
<linearGradient id="paint1_linear" x1="140.634" y1="63.2845" x2="140.634" y2="25.126" gradientUnits="userSpaceOnUse">
<stop stop-color="#BB050B"/>
<stop offset="1" stop-color="#F01F27"/>
</linearGradient>
<linearGradient id="paint2_linear" x1="140.634" y1="63.2846" x2="140.634" y2="25.126" gradientUnits="userSpaceOnUse">
<stop stop-color="#BB050B"/>
<stop offset="1" stop-color="#F01F27"/>
</linearGradient>
<linearGradient id="paint3_linear" x1="140.634" y1="63.2848" x2="140.634" y2="25.1262" gradientUnits="userSpaceOnUse">
<stop stop-color="#BB050B"/>
<stop offset="1" stop-color="#F01F27"/>
</linearGradient>
<linearGradient id="paint4_linear" x1="19.4052" y1="76.582" x2="19.4052" y2="39.0357" gradientUnits="userSpaceOnUse">
<stop stop-color="#3B393B"/>
<stop offset="1" stop-color="#5B5E63"/>
</linearGradient>
<linearGradient id="paint5_linear" x1="100.438" y1="80.8842" x2="100.438" y2="26.7843" gradientUnits="userSpaceOnUse">
<stop stop-color="#3B393B"/>
<stop offset="1" stop-color="#5B5E63"/>
</linearGradient>
<linearGradient id="paint6_linear" x1="59.9407" y1="76.191" x2="59.9407" y2="37.6391" gradientUnits="userSpaceOnUse">
<stop stop-color="#BB050B"/>
<stop offset="1" stop-color="#F01F27"/>
</linearGradient>
<clipPath id="clip0">
<rect width="160" height="80" fill="white"/>
</clipPath>
</defs>
</svg>
