<svg width="160" height="80" viewBox="0 0 160 80" fill="none" xmlns="http://www.w3.org/2000/svg">
<g clip-path="url(#clip0)">
<path d="M83.763 40.7112C78.5186 40.7112 74.2519 44.9778 74.2519 50.2223C74.2519 55.4667 78.5186 59.7334 83.763 59.7334C89.0075 59.7334 93.2741 55.4667 93.2741 50.2223C93.2741 44.9778 89.0075 40.7112 83.763 40.7112ZM83.763 55.6742C80.7704 55.6742 78.3111 53.2445 78.3111 50.2223C78.3111 47.2001 80.7408 44.7704 83.763 44.7704C86.7852 44.7704 89.2149 47.2001 89.2149 50.2223C89.2149 53.2445 86.7556 55.6742 83.763 55.6742Z" fill="white"/>
<path d="M156.593 41.363C155.526 40.7111 154.252 40.3259 152.919 40.3259C151.022 40.3259 149.304 41.0667 148.03 42.2815C146.756 41.0667 145.037 40.3259 143.141 40.3259C141.778 40.3259 140.533 40.7111 139.467 41.363C137.422 42.6074 136.03 44.8593 136.03 47.437V59.1408H140.682V54.1037V47.5852C140.682 46.1926 141.807 45.0667 143.2 45.0667C144.593 45.0667 145.719 46.1926 145.719 47.5852V54.0741V59.1704H150.37V54.0741V47.6148V47.5556C150.37 46.163 151.496 45.0667 152.889 45.0667C154.282 45.0667 155.407 46.1926 155.407 47.5556V47.6148V54.1333V59.1704H160V47.4667C160 44.8593 158.637 42.6074 156.593 41.363Z" fill="white"/>
<path d="M129.333 40.948V45.3924V52.8591C129.333 54.2221 128.237 55.348 126.844 55.348C125.57 55.348 124.504 54.3702 124.385 53.1258V52.6221V45.3924V40.948H119.733V52.0591C119.733 53.2147 120 54.311 120.504 55.2591C121.689 57.5702 124.089 59.1702 126.844 59.1702C128.207 59.1702 129.452 58.785 130.519 58.1332C132.563 56.8887 133.956 54.6369 133.956 52.0591V40.948H129.333Z" fill="white"/>
<path d="M70.4593 40.4148C70.6074 38.9037 71.8815 37.7185 73.4519 37.7185C73.5407 37.7185 73.6296 37.7185 73.6889 37.7185V33.4814C73.6 33.4814 73.4815 33.4814 73.3926 33.4814C72.0296 33.4814 70.7852 33.8666 69.7185 34.5185C67.6741 35.7629 66.2815 38.0148 66.2815 40.5926V41.8074H64.3259V45.5703H66.2815V59.4666H70.4593V46.1629V45.5407H73.6889V43.7037V41.7777H70.637H70.4593V41.037V40.4148Z" fill="white"/>
<path d="M116.178 40.948H112V59.1702H116.178V40.948Z" fill="white"/>
<path d="M105.452 40.948L91.3777 59.1702H96.3555L110.43 40.948H105.452Z" fill="white"/>
<path d="M96.3555 40.948L110.43 59.1702H105.452L91.3777 40.948H96.3555Z" fill="white"/>
<path d="M44.8296 20.0889C46.2519 20.0889 47.5852 20 48.9185 20C49.6296 23.1111 50.2519 26.5185 52.7407 28.6222C54.7852 30.9037 57.8074 32.0296 60.7407 32.4741C60.7407 33.9556 60.6519 35.4074 60.6519 36.8889C55.1407 36.9778 50.0741 40.3852 46.963 44.9778C44.4741 48.1778 43.0519 52.0593 42.0741 56C41.9852 57.1852 41.8963 58.4 41.8963 59.6741C40.4741 59.6741 38.963 59.6741 37.4519 59.6741C37.7185 51.4963 41.1852 43.5259 47.1407 38.1037C48.7407 36.7407 50.6074 35.5259 52.3852 34.3407C50.6074 32.9778 49.0074 31.4074 47.4963 29.6593C43.8519 39.0815 35.1407 46.4296 25.1556 47.3481C24.8889 51.4667 25.2444 55.6148 24.7111 59.6444C23.3778 59.6444 22.0444 59.6444 20.7111 59.6444C20.6222 55.5259 20.7111 51.4667 20.6222 47.3481C14.0444 46.3407 8.08889 42.4 4.26667 36.8C2.4 33.8667 0.444444 30.8444 0 27.2593C6.93333 25.4222 14.9333 27.3481 19.9111 32.8593C22.5778 35.5259 24.0889 39.1111 24.8889 42.7852C31.3778 42.4296 36.9778 38.1926 40.8 32.9778C43.4074 29.1852 44.7407 24.6815 44.8296 20.0889ZM5.95556 31.0222C6.04444 31.2889 6.4 31.763 6.48889 31.9407C9.51111 37.1852 14.4889 41.3926 20.3556 42.6667C18.7556 36.1481 12.4444 31.2889 5.95556 31.0222Z" fill="#FC8407"/>
</g>
<defs>
<clipPath id="clip0">
<rect width="160" height="80" fill="white"/>
</clipPath>
</defs>
</svg>
