<svg width="160" height="80" viewBox="0 0 160 80" fill="none" xmlns="http://www.w3.org/2000/svg">
<path d="M155.542 32.1457C155.505 32.0719 155.468 32.035 155.394 31.9982L155.245 31.8875C154.577 31.0394 153.65 30.7076 152.537 30.6707C148.642 30.6338 144.746 30.6338 140.851 30.5601C139.886 30.5601 138.81 30.6338 137.846 30.5601C137.475 30.5969 137.104 30.6707 136.77 30.7444L136.622 30.7813L136.362 30.8919C136.213 30.9657 136.065 31.0394 135.954 31.1132L135.434 31.4082C133.95 32.2563 133.691 34.1 133.394 35.87C132.949 38.7831 132.429 41.6593 131.984 44.5355C131.539 47.3011 132.058 48.4074 134.692 49.403C134.804 49.4399 134.878 49.4767 134.989 49.4767C139.144 49.4767 143.374 49.403 147.566 49.4399C148.196 49.4399 148.827 49.4767 149.458 49.5136C149.532 49.5136 149.606 49.5136 149.717 49.4767C152.797 48.7393 154.169 47.1536 154.689 43.6506C154.726 43.5399 154.763 43.4293 154.8 43.3187L155.542 38.8937C155.69 38.0456 155.839 37.1975 156.024 36.3863C156.358 34.8744 156.469 33.4363 155.542 32.1457ZM152.5 36.2756C152.055 39.0044 151.572 41.7331 151.053 44.4249C150.719 46.1212 150.163 46.6005 148.419 46.6005C145.043 46.6374 141.667 46.6374 138.291 46.6374C136.77 46.6743 135.546 45.5312 135.471 44.0193C135.471 43.7981 135.471 43.6137 135.509 43.3924C135.954 40.7375 136.399 38.0825 136.844 35.4644C137.03 34.2844 137.66 33.6575 138.81 33.6575C143.077 33.6207 147.343 33.6575 151.609 33.6575C151.721 33.6575 151.832 33.6944 151.943 33.7313C152.277 33.8419 152.685 34.1 152.685 34.4688C152.685 35.0956 152.611 35.6856 152.5 36.2756Z" fill="white"/>
<path d="M126.865 30.6707C122.376 30.6707 117.887 30.7076 113.361 30.7445C113.175 30.7445 112.99 30.7445 112.804 30.7076H112.73C112.47 30.7445 112.21 30.7813 111.988 30.7813L111.431 30.8182C111.172 30.892 110.912 30.9657 110.689 31.1132L110.244 31.3345C107.351 32.7726 106.238 37.3819 108.167 39.9262L108.723 40.2581C109.614 40.8481 111.246 40.885 112.507 40.9219C115.661 41.0325 118.814 40.9219 121.967 40.9219C123.897 40.9219 124.268 41.3644 123.971 43.2081C123.934 43.3925 123.934 43.5768 123.897 43.7612C123.526 46.1949 123.043 46.6374 120.521 46.6006C116.217 46.5637 111.877 46.5637 107.573 46.5268C107.165 46.5268 106.757 46.5637 106.312 46.6006C105.829 47.5593 105.496 48.4443 105.904 49.4399L122.153 49.4768C122.45 49.3662 122.932 49.4768 123.229 49.4399C125.64 48.9605 126.902 47.1906 127.31 44.8306C127.458 43.9825 127.495 43.0975 127.644 42.2494L127.532 40.5531C126.827 38.5619 125.195 38.0825 123.34 38.0825C119.816 38.0825 116.328 38.0825 112.804 38.0825C111.394 38.0825 110.764 37.64 110.652 36.6075C110.541 34.9482 111.32 33.7313 112.693 33.6207C113.101 33.5838 113.546 33.6207 113.991 33.6207C118.183 33.6207 122.376 33.6576 126.568 33.6576C127.198 33.6576 127.977 33.9157 128.237 32.9569L128.497 30.7076C127.792 30.7076 127.31 30.6707 126.865 30.6707Z" fill="white"/>
<path d="M86.0187 42.4706C84.3121 44.6831 82.2717 47.2643 80.6022 49.4768C79.3038 49.4768 78.2279 49.5505 76.9294 49.4768C77.152 48.9974 77.4488 48.5549 77.7085 48.1124C78.1537 47.4855 78.636 46.8955 79.1183 46.2687L79.7119 45.5681L82.0491 42.5812L82.5685 41.9543L87.2429 35.9806L87.9107 35.2063L91.7319 30.4863L93.8465 30.5232L94.1433 30.8919L94.6627 31.9244C96.9999 37.1975 99.3372 42.5075 101.674 47.7805C101.971 48.2968 102.194 48.8868 102.379 49.4399C101.229 49.403 99.8195 49.4768 98.6323 49.4399C96.8515 45.2731 94.9966 40.9587 93.2159 36.7919C92.9191 36.1281 92.6223 35.5013 92.1771 34.5425C90.0253 36.9763 88.2817 39.3731 86.5381 41.77L86.0187 42.4706Z" fill="white"/>
<path d="M70.771 49.4399C73.1082 48.8499 74.147 47.1168 74.5922 44.5724C74.8519 43.1343 75.0745 41.8068 75.2971 40.3687C75.3713 39.9631 75.4455 39.5575 75.4826 39.1887C75.4826 39.115 75.3342 39.115 75.2229 39.115H72.2179C72.1437 39.115 72.1066 39.1519 72.0695 39.2256C71.7727 40.9218 71.5501 42.5074 71.2533 44.0931C70.8452 46.3424 70.5113 46.6374 68.2483 46.6374C65.5401 46.6743 62.8319 46.6374 60.0865 46.6374C59.1962 46.6374 58.3429 46.5268 57.6751 45.7893C57.6009 45.7155 57.6009 45.6418 57.6009 45.5312C58.1203 42.3599 58.6768 39.2256 59.1962 36.0544C59.5301 33.9894 59.8268 33.6575 61.9044 33.6575C66.5417 33.6575 71.2162 33.6575 75.8536 33.6575C75.9278 33.6575 75.9649 33.6207 76.002 33.5469L76.5213 30.9657C76.5584 30.8919 76.5213 30.8182 76.4471 30.7813C76.4471 30.7813 76.4471 30.7813 76.41 30.7813H59.3817C56.4879 31.4451 56.0799 33.8788 55.7089 36.7919C55.375 39.2994 54.8927 41.6225 54.4846 44.0562C54.2249 45.4943 54.0394 46.4899 54.4846 47.7436C54.5217 47.7805 54.5217 47.8174 54.5588 47.8543C54.5959 47.8911 54.5959 47.928 54.633 47.9649C54.6701 48.0018 54.7072 48.0755 54.7072 48.1124C54.8185 48.2968 54.9669 48.4443 55.1153 48.5918C55.7089 49.2555 56.6734 49.403 57.638 49.3661L69.5097 49.4399" fill="white"/>
<path d="M32.6334 30.4863C32.5221 31.5188 32.3366 32.5513 32.114 33.5838C31.5204 37.1606 30.8526 40.7006 30.2219 44.2406C29.888 46.1212 30.3332 46.6374 32.3366 46.6374C35.9352 46.6374 39.5709 46.6374 43.1694 46.6374C44.0598 46.6374 44.8389 46.0106 45.0615 45.1624C45.3583 43.9456 45.4696 42.6918 45.6551 41.475L46.397 37.05C46.6938 35.4644 46.9535 33.8788 47.2874 32.2932C47.3616 31.6663 47.51 31.0763 47.6955 30.4863L50.8118 30.5232C50.6634 31.8507 50.5521 33.1782 50.3666 34.5057C49.8101 38.0088 49.1795 41.5118 48.623 45.0149C48.2891 47.043 47.2874 48.5549 45.2841 49.2924C42.2049 49.3661 39.1257 49.4399 36.0465 49.4399C33.9318 49.4399 31.7801 49.3661 29.6655 49.2924C29.48 49.2924 29.3316 49.2555 29.1832 49.1818C26.9572 48.1862 26.4749 47.3749 26.8459 44.9043C27.2911 41.6962 27.8847 38.4881 28.4412 35.3169C28.738 33.6944 29.109 32.1088 29.48 30.4863C30.4074 30.4863 31.7059 30.4863 32.6334 30.4863Z" fill="white"/>
<path d="M24.8426 30.6707C24.7313 31.5188 24.62 32.6251 24.4716 33.6207H9.85465L8.89008 38.9306H22.5054L22.0231 41.8806H8.40779L7.22063 49.2924H3.73333C4.06722 47.4118 4.40111 45.6418 4.6979 43.835C5.25439 40.3319 5.81087 36.8288 6.40445 33.3257L6.77544 31.5557L7.03513 30.7445L7.07223 30.6707C12.2661 30.6707 17.497 30.6707 22.6909 30.7076C23.3957 30.6707 24.1006 30.6339 24.8426 30.6707Z" fill="white"/>
</svg>
