<svg width="160" height="80" viewBox="0 0 160 80" fill="none" xmlns="http://www.w3.org/2000/svg">
<path d="M38.4484 27.5478C39.5904 27.6644 40.7717 27.6644 41.2443 26.3434C41.7168 25.0224 40.7324 24.2842 39.8267 23.6237C37.7396 22.1084 35.3769 21.0982 32.9355 20.3989C29.864 19.4664 26.6744 18.6505 23.4454 19.1556C15.5698 20.4766 9.78127 24.5173 7.02481 32.2102C7.96988 32.5598 8.44242 31.7051 9.07247 31.3165C10.2144 30.6172 11.3564 29.9567 12.8134 29.6847C12.7346 30.8892 12.2621 31.7439 12.0258 32.6764C10.3326 38.8151 11.0807 45.3036 16.2786 48.8003C17.46 49.422 19.5076 51.6755 21.004 50.9373C17.0268 44.9928 16.4361 36.1343 21.0827 30.6172C22.5004 28.9465 23.9967 27.2758 26.32 26.7319C28.9583 26.7319 29.4309 26.693 31.7542 26.8485L34.9044 27.1204L38.4484 27.5478Z" fill="#8E8E8E"/>
<path d="M75.9756 37.1831C73.1404 37.1831 70.4627 37.1831 67.7456 37.1831C66.5643 37.1831 64.7135 34.7353 65.1073 33.6086C65.3042 33.0258 65.8555 32.987 66.4068 32.987C70.7384 32.987 75.0699 33.0258 79.4015 32.987C80.8191 32.987 80.8191 33.8029 80.7797 34.7742C80.7404 39.4754 78.8502 43.2053 74.5974 45.4976C70.7384 47.5568 66.8399 47.2848 63.2959 44.7594C59.3581 41.9231 57.7436 37.9213 58.4131 33.2201C59.1219 28.0526 62.9415 24.1285 67.6275 23.3514C72.471 22.5355 77.0782 24.8667 79.4015 29.2959C80.3466 31.0443 80.1497 31.2774 78.0627 31.394C76.3694 31.3551 75.4637 31.8602 74.243 29.801C71.7622 26.7316 67.47 26.8094 64.7923 29.7233C62.784 31.9379 62.3115 34.5411 63.099 37.3385C63.9653 40.3302 66.4855 42.3505 69.3207 42.4282C72.3922 42.4671 74.6368 40.7575 75.9756 37.1831Z" fill="white"/>
<path d="M137.248 34.8524C137.248 38.2715 137.208 41.6905 137.287 45.1484C137.327 46.2752 137.09 46.7414 135.791 46.7414C132.877 46.7414 132.877 46.7803 132.877 43.9051C132.877 39.5 133.192 39.1651 129.057 39.1651C126.064 39.2428 125.671 39.5 125.671 41.0541C125.671 41.7535 125.671 43.0504 125.671 43.7497C125.671 47.0522 125.671 47.0134 122.324 46.7414C121.418 46.6637 121.26 46.314 121.26 45.537C121.3 38.5046 121.3 31.4334 121.26 24.401C121.26 23.3519 121.575 23.08 122.599 23.1188C123.111 23.1577 123.662 23.1188 124.174 23.1188C125.434 23.1577 125.71 23.4297 125.671 24.6341C125.592 27.6646 125.71 30.6951 125.631 33.7645C125.592 34.8913 125.986 35.2021 127.088 35.1632C128.9 35.0467 129.569 35.1632 131.617 35.1632C133.468 35.1632 132.956 33.4149 132.956 30.2289C132.995 29.4907 132.877 26.1882 132.798 24.4398C132.759 23.4297 133.074 23.1577 134.137 23.1188C134.649 23.08 135.2 23.1188 135.712 23.1188C136.933 23.1188 137.287 23.3908 137.248 24.6341C137.208 28.0143 137.248 31.4334 137.248 34.8524Z" fill="white"/>
<path d="M109.88 23.1182C113.306 23.1182 116.023 24.5946 118.268 27.12C119.016 27.9748 119.016 28.5187 118.071 29.2958C116.653 30.4614 115.708 31.1996 114.054 29.2958C111.652 26.5372 107.557 26.8869 105.037 29.6066C102.28 32.5594 102.359 37.4549 105.194 40.3689C107.911 43.1663 112.007 43.0886 114.684 39.9803C116.417 37.96 117.165 39.9415 118.11 40.602C119.37 41.5344 118.78 42.1172 118.11 42.8943C114.999 46.5465 109.841 47.7509 105.47 45.8083C100.784 43.7491 97.8698 38.5039 98.618 33.4142C99.4056 27.3531 104.092 23.1182 109.88 23.1182Z" fill="white"/>
<path d="M7.18243 32.4429C7.0643 34.9295 6.63114 37.416 6.82803 39.9026C7.18243 44.2542 8.4819 48.3337 11.1596 51.9859C12.6166 53.2292 14.0736 54.4336 14.6249 56.2597C8.52128 55.9877 3.1265 52.0247 1.512 46.5853C-0.102496 41.1071 2.2208 35.2403 7.18243 32.4429Z" fill="#8E8E8E"/>
<path d="M48.4898 44.5653C50.7344 47.3239 51.1281 50.4709 49.9468 53.618C48.6079 57.1536 45.2608 58.0473 41.8743 58.5135C40.4173 58.7078 38.8816 58.5523 37.3852 58.5135C37.3458 57.6199 38.1728 57.4256 38.6847 57.0371C40.0629 55.9881 41.5199 55.0167 42.5831 53.618C43.8038 52.4136 44.9064 51.1314 45.6546 49.5385C46.324 48.2952 46.9147 47.0519 47.4266 45.7309C47.5841 45.3035 47.5054 44.4099 48.4898 44.5653Z" fill="#8E8E8E"/>
<path d="M36.637 58.5914C29.9822 61.5054 23.3667 62.0493 16.7118 58.6691C15.7273 58.164 14.1916 57.1539 13.5616 56.1825C15.2548 55.0558 17.7356 56.2214 19.547 56.1048C22.146 56.1437 24.7055 56.0271 27.3045 55.7551C30.5335 56.2602 33.7231 56.9596 36.637 58.5914Z" fill="#8E8E8E"/>
<path d="M39.8267 42.6616C40.1023 43.7495 40.9293 44.41 41.7168 45.1482C43.2919 46.6635 44.9064 48.101 46.009 50.0048C45.1821 51.4424 44.237 52.8411 42.8982 53.8901C41.4412 52.336 40.0236 50.743 38.5666 49.1889C39.551 47.1297 39.9448 44.9539 39.8267 42.6616Z" fill="#636363"/>
<path d="M38.094 38.5428C41.4806 41.923 45.8121 40.7574 48.3323 44.2153C48.3323 42.7389 48.1354 41.4956 47.7023 39.8638C47.3085 37.6492 45.9696 35.9397 44.237 34.6187C41.0474 32.1321 37.2671 31.3162 33.3293 31.5493C29.3521 31.7824 26.005 33.3754 24.1542 37.1829C23.4061 38.6982 23.3667 40.33 23.7211 41.923C24.1149 43.8268 25.8475 45.0701 27.7376 44.9535C29.6672 44.837 31.006 43.3606 31.3998 41.0294C31.7936 38.6982 32.0298 36.9498 34.8651 36.5613C35.7314 36.639 37.0702 36.8333 38.094 38.5428Z" fill="#8E8E8E"/>
<path d="M32.5811 53.5015C32.8962 53.5792 33.2112 53.6181 33.6837 53.7346C31.6755 54.8614 29.8247 55.9881 27.5408 55.9104C25.4144 55.9104 23.9967 54.7448 22.776 53.1907C22.2641 52.6079 21.0434 52.4525 21.5947 51.248C24.9418 53.5792 28.7221 53.7735 32.5811 53.5015Z" fill="#434343"/>
<path d="M128.033 53.9291C128.033 54.9004 128.151 55.8717 127.521 56.7265C126.576 57.9698 124.765 58.164 123.623 57.2316C123.229 56.9208 122.993 56.4545 122.875 55.9883C122.52 54.5896 122.56 53.2297 122.639 51.831C122.639 51.6368 122.954 51.3648 123.15 51.3648C123.544 51.3259 123.702 51.6756 123.702 52.0253C123.741 52.9966 123.702 53.9679 123.741 54.9393C123.781 55.9883 124.292 56.7265 125.395 56.6488C126.379 56.6099 126.852 55.9106 126.852 54.9393C126.852 54.0845 126.852 53.2686 126.852 52.4138C126.852 51.9476 126.931 51.4036 127.482 51.4036C128.112 51.4036 128.033 52.0253 128.033 52.4527C128.033 52.9189 128.033 53.424 128.033 53.9291Z" fill="#909090"/>
<path d="M109.644 57.8142C108.541 57.853 107.951 57.5033 107.557 56.9594C107.281 56.532 106.848 56.0269 107.321 55.5995C107.99 55.0167 108.108 55.7161 108.384 56.1435C108.699 56.6486 109.171 56.804 109.762 56.5709C110.116 56.4543 110.274 56.1435 110.234 55.7938C110.116 55.0167 109.408 55.0556 108.896 54.8613C107.911 54.5505 107.321 54.0066 107.399 52.9187C107.478 51.9862 108.069 51.52 108.896 51.3257C109.801 51.0926 110.589 51.4034 111.101 52.1805C111.376 52.569 111.652 52.9964 111.219 53.3849C110.707 53.8123 110.431 53.3849 110.195 52.9575C109.959 52.4913 109.565 52.297 109.053 52.4913C108.856 52.569 108.581 52.7633 108.581 53.0352C108.541 53.6569 109.211 53.7734 109.723 53.9289C110.904 54.2785 111.77 54.9002 111.495 56.2989C111.18 57.4256 110.313 57.7753 109.644 57.8142Z" fill="#8F8F8F"/>
<path d="M156.149 57.8142C155.047 57.853 154.456 57.5033 154.062 56.9594C153.787 56.532 153.353 56.0269 153.826 55.5995C154.495 55.0167 154.614 55.7161 154.889 56.1435C155.204 56.6486 155.677 56.804 156.267 56.5709C156.622 56.4543 156.779 56.1435 156.74 55.7938C156.622 55.0167 155.913 55.0556 155.401 54.8613C154.417 54.5505 153.826 54.0066 153.905 52.9187C153.983 51.9862 154.574 51.52 155.401 51.3257C156.307 51.0926 157.094 51.4034 157.606 52.1805C157.882 52.569 158.158 52.9964 157.724 53.3849C157.212 53.8123 156.937 53.3849 156.701 52.9575C156.464 52.4913 156.07 52.297 155.559 52.4913C155.362 52.569 155.086 52.7633 155.086 53.0352C155.047 53.6569 155.716 53.7734 156.228 53.9289C157.409 54.2785 158.276 54.9002 158 56.2989C157.685 57.4256 156.819 57.7753 156.149 57.8142Z" fill="#8F8F8F"/>
<path d="M116.181 55.0556C116.062 53.7735 116.732 52.1805 114.566 52.2194C114.487 52.2194 114.251 51.8697 114.29 51.792C114.409 51.5977 114.605 51.3258 114.802 51.2869C116.102 51.248 117.401 51.248 118.74 51.248C118.937 51.248 119.213 51.52 119.252 51.7143C119.331 51.9474 119.134 52.2971 118.858 52.2582C116.85 52.1417 117.441 53.6181 117.362 54.6671C117.323 55.3665 117.362 56.1047 117.323 56.804C117.323 57.1925 117.323 57.6588 116.771 57.6588C116.299 57.6588 116.141 57.2314 116.141 56.8429C116.181 56.2212 116.181 55.5607 116.181 55.0556Z" fill="#929292"/>
<path d="M48.1354 32.5987C47.1903 32.4433 45.4183 32.8707 45.379 31.472C45.3396 30.0344 47.0722 30.2676 48.1748 30.1899C49.1592 30.151 50.5375 29.9179 50.5375 31.3943C50.4981 32.7153 49.238 32.5987 48.1354 32.5987Z" fill="#909090"/>
<path d="M47.1904 27.3147C47.0329 28.2472 46.3635 28.558 45.5365 28.6745C44.9459 28.7522 44.4339 28.558 44.4733 27.8586C44.5127 26.965 45.1034 26.4599 45.9697 26.3045C46.6785 26.188 47.0329 26.6542 47.1904 27.3147Z" fill="#919191"/>
<path d="M98.4605 44.4486C95.8615 37.7659 93.2232 31.0832 90.6243 24.4005C90.4274 23.8954 90.388 23.1183 89.6004 23.1572C88.9704 23.196 88.931 23.8954 88.7341 24.3228C86.017 31.3163 83.3 38.2709 80.5829 45.2645C80.4254 45.653 80.0316 46.0415 80.3466 46.5078C80.6222 46.8963 84.5207 46.6632 84.6388 46.2358C85.0326 44.604 86.2927 44.9148 87.4346 44.9148C89.2854 44.9148 91.0968 44.9148 92.9476 44.9148C93.4595 44.9148 94.2076 44.7205 94.3258 45.3033C94.6802 46.8963 95.8221 46.6632 96.5703 46.6243C99.3268 46.702 99.3268 46.702 98.4605 44.4486ZM86.8046 40.641C87.7497 38.1155 88.616 35.7455 89.6792 32.9092C90.7424 35.7455 91.6087 38.1155 92.5932 40.641C90.5849 40.641 88.7735 40.641 86.8046 40.641Z" fill="white"/>
<path d="M157.331 44.4486C154.732 37.7659 152.093 31.0832 149.494 24.4005C149.297 23.8954 149.258 23.1183 148.471 23.1572C147.84 23.196 147.801 23.8954 147.604 24.3228C144.887 31.3163 142.17 38.2709 139.453 45.2645C139.295 45.653 138.902 46.0415 139.217 46.5078C139.492 46.8963 143.391 46.6632 143.509 46.2358C143.903 44.604 145.163 44.9148 146.305 44.9148C148.156 44.9148 149.967 44.9148 151.818 44.9148C152.33 44.9148 153.078 44.7205 153.196 45.3033C153.55 46.8963 154.692 46.6632 155.44 46.6243C158.197 46.702 158.197 46.702 157.331 44.4486ZM145.675 40.641C146.62 38.1155 147.486 35.7455 148.549 32.9092C149.613 35.7455 150.479 38.1155 151.463 40.641C149.494 40.641 147.644 40.641 145.675 40.641Z" fill="white"/>
<path d="M22.8154 53.1519C24.3905 54.0843 25.8082 55.2499 27.5802 55.8716C27.5802 55.9881 27.5802 56.1047 27.5408 56.2212C24.9418 56.6486 22.3035 56.7263 19.7046 56.6098C19.5077 55.5219 20.2952 55.1722 21.0828 54.7837C21.7916 54.3951 22.776 54.2786 22.8154 53.1519Z" fill="#606060"/>
<path d="M147.525 51.2482C145.635 51.1316 144.1 52.4915 144.021 54.3564C143.942 56.2602 145.281 57.7366 147.171 57.8143C148.982 57.8532 150.597 56.4156 150.676 54.6284C150.715 52.9577 149.219 51.3647 147.525 51.2482ZM147.329 56.6487C146.029 56.6487 145.281 55.9105 145.202 54.6672C145.281 53.3074 145.95 52.4526 147.25 52.4138C148.628 52.3749 149.534 53.2297 149.494 54.5895C149.455 55.794 148.667 56.6487 147.329 56.6487Z" fill="#8E8E8E"/>
<path d="M133.271 51.2482C131.262 51.0928 131.144 51.2093 131.144 53.9679C131.144 54.1621 131.144 54.3564 131.144 54.5507C131.144 55.25 131.144 55.9494 131.144 56.6876C131.144 57.2315 131.302 57.62 131.932 57.8143C133.94 58.3583 136.303 56.9595 136.46 54.9003C136.618 53.0743 135.2 51.4036 133.271 51.2482ZM134.491 56.1436C133.979 56.6099 133.349 56.8041 132.68 56.571C132.247 56.4156 132.326 55.6774 132.286 55.2112C132.247 54.5118 132.286 53.8125 132.286 53.1131C132.286 52.5303 132.601 52.3361 133.546 52.4138C134.137 52.4915 134.846 52.9966 135.2 53.929C135.555 54.8615 135.121 55.5608 134.491 56.1436Z" fill="#8F8F8F"/>
<path d="M139.807 57.5809C139.571 57.5809 139.335 57.3866 139.335 57.1146V51.6752C139.335 51.4421 139.532 51.209 139.807 51.209C140.044 51.209 140.28 51.4032 140.28 51.6752V57.1535C140.241 57.3866 140.044 57.5809 139.807 57.5809Z" fill="#9A9A9A"/>
<path d="M14.0341 28.5576C14.0341 28.5576 7.73366 30.5003 6.9461 32.3263C6.15854 34.1524 4.78032 50.4318 13.4828 56.1043C21.5553 57.2699 31.7936 57.2311 35.0226 53.1904C29.9428 53.4235 25.375 54.5891 20.1771 50.2764C15.8455 48.6834 8.48184 44.9924 14.0341 28.5576Z" fill="url(#paint0_linear)"/>
<path d="M35.0619 53.2294C29.9822 53.4625 25.4143 54.6281 20.2164 50.3154C20.2164 50.3154 24.5874 56.2988 28.0526 56.3765C31.321 56.3765 34.7469 53.8122 35.0619 53.2294Z" fill="#4A4A4A"/>
<path opacity="0.6" d="M25.6112 26.8871C25.6112 26.8871 33.9594 21.2923 36.0858 21.5643C38.2122 21.8363 41.4018 24.6725 41.323 25.9935C41.2837 26.3043 41.0474 26.8094 40.9293 26.9648C40.5355 27.5088 39.3148 27.6642 38.606 27.5476C36.4008 27.2368 30.1397 26.4598 25.6112 26.8871Z" fill="url(#paint1_linear)"/>
<path d="M38.094 38.543C38.094 38.543 48.4504 40.7964 48.3323 44.2155C48.2142 47.6345 43.5282 55.5994 39.9842 57.5809C36.6371 59.4847 33.6443 58.1637 28.3677 56.3376C32.7386 55.1332 36.5189 53.0351 38.094 49.7715C39.6692 46.5078 39.9054 41.3404 38.094 38.543Z" fill="url(#paint2_linear)"/>
<path d="M26 27C21 27 12 29.6668 6.99998 32.0002C13 17.0001 28.5 17.5 36 21.5C33.6667 21.6667 29.5 24.4998 26 27Z" fill="#C4C4C4"/>
<defs>
<linearGradient id="paint0_linear" x1="6.35728" y1="42.6618" x2="35.0522" y2="42.6618" gradientUnits="userSpaceOnUse">
<stop stop-color="#636363"/>
<stop offset="1" stop-color="#3F3F3F"/>
</linearGradient>
<linearGradient id="paint1_linear" x1="35.6884" y1="30.0491" x2="31.7568" y2="23.1474" gradientUnits="userSpaceOnUse">
<stop stop-color="#828282"/>
<stop offset="1" stop-color="#3F3F3F"/>
</linearGradient>
<linearGradient id="paint2_linear" x1="28.3743" y1="48.5268" x2="48.3521" y2="48.5268" gradientUnits="userSpaceOnUse">
<stop stop-color="#D9D9D9"/>
<stop offset="1" stop-color="#3F3F3F"/>
</linearGradient>
</defs>
</svg>
