<svg width="160" height="80" viewBox="0 0 160 80" fill="none" xmlns="http://www.w3.org/2000/svg">
<path d="M94.219 30H3V48.9999H84.8354L87.2179 45.7298H99.9116L102.382 48.9999H107.938L94.219 30ZM24.1985 44.1179C22.3628 45.5075 19.9119 46.4431 16.0355 46.4431C12.159 46.4431 6.90576 44.9887 6.58353 40.1994C6.25154 35.4008 10.1768 32.5197 16.1429 32.5197C22.1089 32.5197 23.8665 34.706 23.8665 34.706L22.1773 36.6884C20.6345 35.5397 19.9412 34.9468 15.9866 34.9468C12.0321 34.9468 9.61049 36.2993 9.61049 39.4583C9.61049 42.6172 11.9539 44.016 16.1331 44.016C20.3123 44.016 21.3375 42.8673 21.3375 42.8673V40.959H14.7466V38.4578H24.1985V44.1179ZM42.8778 46.2023L41.1202 43.7381H30.8285L29.1393 46.2023H25.878L35.6619 32.3808H36.2087L46.2758 46.2115H42.8778V46.2023ZM68.0309 46.2023H65.0234V38.1428L58.9793 43.664H58.286L51.988 38.1058V46.2023H49.0196V32.5475H49.7519L58.618 40.2642L67.2595 32.5475H68.0309V46.2023H68.0309ZM87.8135 35.2618H75.9107V37.9761H85.8704L84.1519 40.5514H75.9498V43.6084H81.994L80.2364 46.2115H72.9521V32.5475H89.6492L87.8135 35.2618ZM89.9715 41.6445L93.4964 36.8181L97.0213 41.6445H89.9715Z" fill="white"/>
<path d="M32.586 41.2369L35.8766 36.5865L39.2844 41.2369H32.586Z" fill="white"/>
<path d="M144.096 48.9999V34.7338H135.073V30.5281H158V34.6967H148.978V48.9999H144.096Z" fill="white"/>
<path d="M127.564 41.8577C132.915 40.5422 132.515 36.3643 132.515 36.3643C132.515 30.1205 124.098 30.5374 124.098 30.5374H109.94V49H114.841V42.3764H121.774L128.16 49H134.302L127.564 41.8577ZM124.947 38.3745H114.832V34.669H124.987C124.987 34.669 127.574 34.8543 127.574 36.5218C127.574 38.1892 124.947 38.3745 124.947 38.3745Z" fill="white"/>
</svg>
