<svg width="160" height="80" viewBox="0 0 160 80" fill="none" xmlns="http://www.w3.org/2000/svg">
<g clip-path="url(#clip0)">
<path d="M160 23.3047C159.315 25.0095 158.61 26.7142 157.943 28.4285C155.01 35.9428 152.105 43.4571 149.143 50.9523C148.677 52.1333 148.096 53.2952 147.41 54.3619C146.172 56.2762 144.296 57.2 142.048 57.4381C140.058 57.6571 138.105 57.4476 136.067 56.9714C136.305 55.2857 136.534 53.6285 136.772 51.9047C137.353 52.0381 137.848 52.219 138.343 52.2571C139.277 52.3142 140.229 52.3904 141.153 52.2762C142.172 52.1523 143.019 51.5904 143.458 50.6C144.067 49.2476 144.639 47.8857 145.21 46.5142C145.277 46.3523 145.239 46.1142 145.172 45.9428C142.381 39.3428 139.591 32.7428 136.791 26.1523C136.762 26.0762 136.696 26.0095 136.572 25.819C136.419 26.1714 136.305 26.4476 136.2 26.7143C133.734 32.9619 131.267 39.2095 128.819 45.4571C128.648 45.8952 128.458 46.0857 127.962 46.0666C126.315 46.0285 124.677 46.0381 123.029 46.0571C122.639 46.0666 122.448 45.9428 122.286 45.5714C119.315 38.2666 116.324 30.9714 113.343 23.6762C113.286 23.5333 113.258 23.3809 113.191 23.1714C115.172 23.1714 117.105 23.1523 119.029 23.2C119.21 23.2 119.467 23.5333 119.553 23.7523C121.239 28.1333 122.905 32.5238 124.581 36.9047C124.867 37.6476 125.153 38.3904 125.515 39.3142C125.677 38.9238 125.772 38.7142 125.858 38.4952C127.734 33.6095 129.629 28.7333 131.477 23.8381C131.686 23.2952 131.953 23.1523 132.496 23.1619C135.381 23.1904 138.258 23.1904 141.143 23.1619C141.629 23.1619 141.848 23.3047 142.019 23.7523C143.953 28.5904 145.905 33.4285 147.848 38.2571C147.943 38.5047 148.058 38.7333 148.239 39.1238C148.381 38.8 148.467 38.6095 148.543 38.419C150.296 33.5619 152.067 28.7142 153.791 23.8476C153.981 23.2952 154.248 23.1523 154.8 23.1619C156.534 23.1904 158.267 23.1523 160 23.1428C160 23.2095 160 23.2571 160 23.3047Z" fill="#C23844"/>
<path d="M19.2765 26.4764C19.2765 25.4097 19.2765 24.343 19.2765 23.2383C21.105 23.2383 22.8479 23.2383 24.6479 23.2383C24.6574 23.5049 24.686 23.743 24.686 23.9811C24.686 30.7049 24.705 37.4287 24.6765 44.1525C24.6669 46.1144 24.4384 48.0478 23.8098 49.924C22.6098 53.5049 20.2193 55.8668 16.6003 56.8668C12.2955 58.0478 8.02884 57.7335 3.91455 56.0382C2.66693 55.524 1.57169 54.6573 0.324073 53.9049C1.54312 52.2383 2.65741 50.724 3.80979 49.1525C4.00026 49.3049 4.17169 49.4383 4.3336 49.5716C7.07645 51.924 10.2098 52.8859 13.7907 52.2287C16.6098 51.7144 18.3526 49.9811 18.7907 47.124C18.9907 45.8192 18.9622 44.4859 19.0479 43.1049C18.8669 43.1525 18.7907 43.1525 18.7622 43.1906C16.4098 46.3525 10.4098 47.4287 6.04788 45.0859C2.17169 43.0002 0.266929 39.6859 0.0288334 35.3621C-0.142595 32.2668 0.485977 29.3716 2.38122 26.8383C5.88598 22.1525 12.2098 21.7335 16.2479 23.8002C17.4574 24.4192 18.3526 25.3906 19.0955 26.5144C19.1526 26.5049 19.2193 26.4954 19.2765 26.4764ZM19.2669 34.524C19.286 30.4573 16.6003 27.7525 12.5241 27.7335C8.50503 27.7144 5.67645 30.524 5.66693 34.5525C5.64788 38.2763 8.63836 41.2573 12.4098 41.2668C16.4098 41.2859 19.2479 38.4859 19.2669 34.524Z" fill="#C23844"/>
<path d="M72.4097 46.0476C70.5144 46.0476 68.6954 46.0476 66.8097 46.0476C66.7906 45.7524 66.7621 45.4667 66.7621 45.1905C66.7621 41.1619 66.7811 37.1334 66.743 33.1143C66.7335 32.1334 66.6192 31.1334 66.3811 30.1905C66.0668 28.9143 65.1811 28.1143 63.8478 27.8667C60.4478 27.2286 57.6478 29.3905 57.5621 32.8762C57.4668 36.9715 57.524 41.0667 57.5144 45.1524C57.5144 45.4381 57.5144 45.7238 57.5144 46.0476C55.5906 46.0476 53.7621 46.0476 51.8859 46.0476C51.8859 38.4286 51.8859 30.8381 51.8859 23.2286C53.6668 23.2286 55.4001 23.2286 57.2192 23.2286C57.2192 24.3619 57.2192 25.4667 57.2192 26.581C57.2668 26.6191 57.324 26.6572 57.3716 26.6953C58.943 23.9143 61.2954 22.581 64.4573 22.6476C67.5716 22.7143 70.0859 23.7524 71.5049 26.8286C71.6668 26.6095 71.7906 26.4667 71.8954 26.3143C73.3716 23.981 75.543 22.8476 78.2478 22.6857C79.7621 22.5905 81.2668 22.6953 82.6859 23.3048C85.2383 24.4095 86.4859 26.5143 86.9906 29.1143C87.1906 30.1429 87.2763 31.2095 87.2859 32.2572C87.3144 36.5715 87.2954 40.8953 87.2954 45.2095C87.2954 45.4762 87.2954 45.7334 87.2954 46.0381C85.4097 46.0381 83.5906 46.0381 81.6573 46.0381C81.6573 45.7905 81.6573 45.5334 81.6573 45.2762C81.6573 41.2953 81.6954 37.3143 81.6383 33.3334C81.6192 32.2476 81.4287 31.1429 81.1144 30.0953C80.743 28.8476 79.7716 28.0953 78.4668 27.8572C75.343 27.3048 73.1144 28.9048 72.5716 32.0857C72.4668 32.7048 72.4192 33.3334 72.4192 33.9619C72.4097 37.7143 72.4097 41.4762 72.4097 45.2286C72.4097 45.4762 72.4097 45.7238 72.4097 46.0476Z" fill="#C23844"/>
<path d="M113.343 36.6381C107.372 36.6381 101.61 36.6381 95.7813 36.6381C95.9527 38.4952 96.6765 40 98.2003 40.9809C100.629 42.5428 103.181 42.5333 105.667 41.1143C106.572 40.6 107.324 39.8286 108.229 39.1143C109.467 40.0476 110.791 41.0476 112.162 42.0762C111.343 43.1524 110.391 44.019 109.305 44.7428C104.362 47.9905 96.7718 47.0381 92.9622 42.5619C89.9527 39.019 89.3051 34.8952 90.7622 30.5428C92.1908 26.2762 95.3432 23.8286 99.7051 22.9238C102.343 22.3809 104.962 22.4857 107.41 23.7047C110.648 25.3238 112.305 28.1238 112.915 31.5714C113.2 33.2 113.2 34.8762 113.343 36.6381ZM107.505 32.3428C107.553 29.7333 106.115 27.6667 103.696 27.1619C102.496 26.9143 101.172 26.9047 99.9622 27.1238C97.6861 27.5428 95.6765 30.2476 95.867 32.3428C99.7337 32.3428 103.591 32.3428 107.505 32.3428Z" fill="#C23844"/>
<path d="M43.1433 46.0383C43.1433 45.0287 43.1433 44.0573 43.1433 42.943C42.9433 43.1049 42.829 43.1621 42.7623 43.2478C41.3433 45.3049 39.3052 46.3049 36.9052 46.5621C34.248 46.8478 31.7528 46.3716 29.5718 44.6954C26.3052 42.1811 26.448 36.2668 30.4575 33.9144C32.3147 32.8192 34.3623 32.3049 36.4766 32.1049C38.648 31.9049 40.829 31.8478 43.0194 31.724C43.4099 30.5716 42.8194 28.5811 41.3813 27.7716C39.248 26.5621 37.0099 26.6287 34.8004 27.4097C33.7242 27.7906 32.7528 28.4954 31.7813 29.0192C30.8861 28.1335 29.9147 27.1621 28.9052 26.1621C30.1623 24.8954 31.7242 23.9335 33.5528 23.3906C36.7813 22.4383 40.0194 22.2383 43.2194 23.4097C46.2099 24.5049 47.7242 26.7811 48.0671 29.8764C48.1718 30.8383 48.2099 31.8002 48.2194 32.7716C48.2385 36.9049 48.229 41.0478 48.229 45.1811C48.229 45.4478 48.229 45.7144 48.229 46.0192C46.5432 46.0383 44.9052 46.0383 43.1433 46.0383ZM42.829 35.8668C41.6766 35.8668 40.629 35.8287 39.5718 35.8764C37.7718 35.9525 35.9813 36.1335 34.3813 37.0954C32.5337 38.2002 32.4861 40.4954 34.2766 41.6859C36.0861 42.8859 39.7337 42.5525 41.3147 41.0573C42.8099 39.6287 42.8575 37.8002 42.829 35.8668Z" fill="#C23844"/>
</g>
<defs>
<clipPath id="clip0">
<rect width="160" height="80" fill="white"/>
</clipPath>
</defs>
</svg>
