<svg width="160" height="80" viewBox="0 0 160 80" fill="none" xmlns="http://www.w3.org/2000/svg">
<path d="M20.7728 38.392V40.7849C20.7728 45.4989 18.2343 50.0602 11.8522 50.0602C5.47011 50.0602 2 45.6785 2 39.5324C2 33.3862 5.47911 29 11.8522 29C16.524 29 19.463 31.4468 20.2327 35.1731H15.8084C15.3583 33.6646 14.0396 32.7802 11.8432 32.7802C8.18858 32.7802 6.36576 35.6534 6.36576 39.5144C6.36576 43.3754 8.18858 46.3025 11.8522 46.3025C15.0028 46.3025 16.416 44.4529 16.5015 41.8624H11.6992V38.392H20.7728Z" fill="#F0F0F0"/>
<path d="M35.7064 44.197H27.965L26.3133 49.6921H22.1185L28.5952 29.3682H35.1843L41.6924 49.6921H37.3852L35.7064 44.197ZM29.0497 40.4976H34.5857L32.4478 33.4401H31.2056L29.0497 40.4976Z" fill="#F0F0F0"/>
<path d="M43.8618 29.3682H50.397L53.7365 37.566H54.4792L57.7872 29.3682H64.3494V49.6921H60.3842V34.549H59.6416L56.2165 42.7469H51.9632L48.5696 34.549H47.827V49.6921H43.8618V29.3682Z" fill="#F0F0F0"/>
<path d="M83.7298 45.9075V49.6921H68.3461V29.3682H83.4147V33.1528H72.6128V37.4178H81.0293V41.1172H72.6128V45.9075H83.7298Z" fill="#F0F0F0"/>
<path d="M100.878 39.474C101.574 39.874 102.152 40.4505 102.553 41.1451C102.953 41.8398 103.163 42.6278 103.16 43.4293C103.16 47.6719 99.7076 49.6921 95.7964 49.6921H86.9523L90.5215 29.3682H98.5959C101.476 29.3682 104.105 30.9619 104.105 34.0058C104.129 35.0332 103.846 36.0445 103.292 36.9111C102.738 37.7777 101.939 38.4604 100.995 38.8724L100.878 39.474ZM95.4768 48.0041C98.5869 48.0041 101.269 46.6931 101.269 43.3664C101.269 40.8613 99.0414 39.923 96.8451 39.923H90.544L89.1172 48.0041H95.4768ZM90.8635 38.1945H97.1646C99.9326 38.1945 102.215 37.1709 102.215 34.154C102.215 31.99 100.302 31.0787 98.3888 31.0787H92.1192L90.8635 38.1945Z" fill="#F0F0F0"/>
<path d="M120.2 47.9816L119.916 49.6876H105.815L109.384 29.3682H123.022L122.738 31.0742H110.982L109.699 38.2574H119.259L118.975 39.9634H109.411L107.984 47.9906L120.2 47.9816Z" fill="#F0F0F0"/>
<path d="M139.035 49.6921H137.064L135.921 43.115H126.735L123.31 49.6921H121.257L131.929 29.3682H135.381L139.035 49.6921ZM127.621 41.409H135.624L133.914 31.3615H132.829L127.621 41.409Z" fill="#F0F0F0"/>
<path d="M156.778 31.0786H150.026L146.745 49.692H144.864L148.145 31.0786H141.394L141.677 29.3726H157.088L156.778 31.0786Z" fill="#F0F0F0"/>
</svg>
