<svg width="160" height="80" viewBox="0 0 160 80" fill="none" xmlns="http://www.w3.org/2000/svg">
<path d="M51.4076 57.2323C52.0835 57.4945 52.7593 57.783 53.4612 57.9928C54.371 58.2551 54.423 58.2288 54.397 57.3109C54.319 53.8754 54.2411 50.4398 54.1371 47.0042L54.345 46.7682L54.371 46.7419C54.839 46.3223 55.3329 45.9814 55.9827 46.3223C56.6326 46.6633 56.7106 47.2402 56.6846 47.8959C56.6846 48.1057 56.7106 48.3417 56.7106 48.5515C56.6586 50.0726 56.5546 51.5937 56.5286 53.1148C56.3987 58.7009 56.2947 64.287 56.2167 69.8731C56.1907 71.0008 56.1647 72.1547 56.1647 73.2824C56.1647 73.8069 56.0607 74.279 55.4109 74.279C54.865 74.2528 54.8909 73.8069 54.865 73.4136C54.813 72.6792 54.735 71.9449 54.709 71.2106C54.657 67.7226 54.605 64.2083 54.579 60.7203C54.579 60.1171 54.397 59.7762 53.7731 59.5926C52.0835 59.0681 50.3938 58.5173 48.7301 57.9141C44.3628 56.2357 40.0996 54.4261 36.2003 51.8822C32.6649 49.6006 29.5195 46.8993 27.2579 43.2801C24.2425 38.4546 23.6706 33.393 25.6722 28.0167C27.076 24.2402 29.2336 20.9358 31.8851 17.9723C33.2368 16.4512 33.5488 14.9039 32.9249 13.0418C31.9631 10.2094 30.2474 7.84913 28.1158 5.77729L28.2197 5.51503L29.4675 5.48881C35.3945 5.41013 41.2174 6.14445 46.8064 8.21629C53.4092 10.6553 59.4661 14.0909 64.4052 19.2573C66.4589 21.4079 68.2785 23.7419 70.1762 26.0236C70.3842 26.2596 70.6441 26.3907 70.9561 26.417C75.0633 26.653 77.3509 26.8366 81.3022 27.1251C82.446 27.23 83.5638 27.4922 84.6296 27.9643C84.1617 28.0167 82.9659 28.1216 82.472 28.0954C78.6507 27.9381 75.4272 28.0692 71.398 28.0692C69.7083 28.0692 68.9024 28.0167 68.0966 27.0202C66.8228 25.4204 65.445 23.8993 64.1453 22.3258C63.7034 21.7226 63.0015 21.4079 62.2476 21.4341C60.116 21.4079 58.0104 21.6177 55.9308 22.0635C50.7837 23.165 46.1825 25.3679 42.3872 29.092C39.4237 31.9768 37.3701 35.4124 37.0582 39.6872C36.9542 41.2083 36.9802 42.7294 37.656 44.1456L37.916 44.9324L38.176 45.4569L38.4359 46.2961C39.1898 48.3417 40.5415 49.9677 42.0233 51.4626C43.9989 53.4033 46.2605 55.0293 48.7301 56.2094L51.4076 57.2323ZM37.864 31.4785C38.8258 30.2722 39.7097 28.9609 40.7755 27.8332C43.453 25.0532 46.7024 22.9027 50.3158 21.5652C52.3174 20.8309 54.397 20.3326 56.4507 19.7294H56.5027C57.3085 19.6507 58.1144 19.5458 58.9202 19.4671C59.7781 19.3885 60.6359 19.3622 61.4938 19.3098C60.8439 18.6541 60.246 17.9198 59.5181 17.3429C53.2532 12.3075 46.3905 8.45232 38.3319 7.19348C35.8624 6.8001 33.3408 6.61651 30.8713 6.32803C30.6633 6.32803 30.4813 6.38048 30.2994 6.45916C30.3774 6.64274 30.4553 6.85255 30.5593 7.0099C31.4172 8.16384 32.301 9.344 33.1849 10.4979C33.2109 10.5242 33.2368 10.5766 33.2628 10.6291C33.9127 12.0715 34.7186 13.4877 34.8746 15.0874C34.8746 15.1923 34.8746 15.3235 34.8746 15.4284L34.8226 16.5036C34.7706 16.5561 34.7706 16.6348 34.7966 16.6872C34.2767 17.474 33.7568 18.287 33.2109 19.0475C31.7811 21.0669 30.1954 22.9814 28.8956 25.0795C27.102 27.7807 26.0621 30.9016 25.8542 34.1273C25.7762 35.5435 25.9842 36.9597 26.4781 38.2972V38.3235L26.712 39.1889C26.79 39.5561 26.946 39.9232 27.102 40.2642C28.9996 43.962 31.5471 47.1353 35.0565 49.4432C36.7982 50.8332 38.6959 51.9609 40.7495 52.8001L41.0094 52.905L40.9055 52.6427C40.6715 52.3543 40.4375 52.0396 40.1776 51.7511C35.3425 46.5059 33.7308 39.425 37.2661 32.6063" fill="#D85F20"/>
<path d="M56.1915 29.4338C57.3113 29.4338 58.2191 28.5179 58.2191 27.3881C58.2191 26.2584 57.3113 25.3425 56.1915 25.3425C55.0717 25.3425 54.1639 26.2584 54.1639 27.3881C54.1639 28.5179 55.0717 29.4338 56.1915 29.4338Z" fill="#D85F20"/>
<path d="M92.6629 48.2638C92.8189 50.5192 92.9749 52.7746 93.1309 55.03C93.1829 55.9479 93.2608 56.8658 93.3388 57.7575C93.3648 58.0985 93.3648 58.3869 92.9489 58.4132C92.585 58.4394 92.117 58.5443 91.9871 58.0198C91.9091 57.7313 91.8571 57.4428 91.8311 57.1281C91.7011 55.2661 91.5971 53.404 91.4932 51.5158C91.4932 51.3322 91.4932 51.1749 91.4672 50.9913C91.3892 50.7028 91.2852 50.4405 91.1812 50.1783C91.0512 50.4405 90.9213 50.7028 90.8173 50.965C90.1674 53.1418 89.5175 55.2923 88.8936 57.469C88.7377 57.9936 88.6337 58.4394 87.9058 58.4394C87.2559 58.4394 87.022 58.1509 86.84 57.5477C86.2161 55.4234 85.5662 53.2991 84.9163 51.1749C84.8384 50.9651 84.7344 50.7815 84.6304 50.5979C84.5784 50.4668 84.5004 50.3356 84.3964 50.2045C84.3444 50.3356 84.3184 50.493 84.3184 50.6503C84.2145 52.2501 84.0325 53.8499 83.9285 55.4759C83.8765 56.2627 83.7725 57.0494 83.7465 57.81C83.7206 58.5705 83.1487 58.4394 82.7067 58.4132C82.1348 58.3869 82.3428 57.9936 82.3688 57.6526C82.5768 54.4269 82.7847 51.2273 82.9667 48.0015C83.0967 46.7952 83.6166 46.428 84.7084 46.7689C84.9423 46.8738 85.1243 47.0312 85.2283 47.2672C85.4103 47.5557 85.5402 47.8704 85.6702 48.2113C85.7482 48.3162 85.7222 48.4474 85.8002 48.5261H85.7742L86.0601 49.3128L86.3201 50.0996C86.4241 50.729 86.58 51.3584 86.736 51.9879C87.022 53.0631 87.2819 54.1384 87.6199 55.2136C87.6718 55.371 87.7498 55.5021 87.8538 55.6332C87.9578 55.5283 88.0358 55.4234 88.0878 55.2923C88.3997 54.0072 88.6857 52.696 88.9716 51.4109L89.2316 50.6241L89.7775 48.7883L89.7515 48.8145C89.8295 48.7096 89.8295 48.5785 89.9074 48.4998C90.0114 48.1851 90.2454 47.8966 90.3234 47.5819C90.4533 47.0836 90.7393 46.9263 91.2592 46.9001C92.403 46.8476 92.429 46.8214 92.6629 48.2638Z" fill="#D85F20"/>
<path d="M108.39 68.9035C108 68.5101 107.922 68.3265 108.364 67.9069C109.092 67.225 109.248 66.3333 109.04 65.3892C108.936 64.9172 108.78 64.4713 108.65 64.0255L108.364 63.5272L108.104 63.2649L107.636 63.0551C107.558 63.0289 107.454 63.0027 107.376 63.0027L102.515 62.7404C102.333 62.7142 102.177 62.7404 101.995 62.7666C101.657 62.8715 101.449 63.16 101.475 63.501C101.501 64.314 101.579 65.1532 101.579 65.9662C101.605 68.4052 101.579 70.8442 101.579 73.2832C101.579 74.4109 101.605 74.4109 102.749 74.4109C103.945 74.4109 105.167 74.4109 106.362 74.3584C107.506 74.306 108.494 73.8602 108.91 72.68C109.378 71.3425 109.43 70.005 108.39 68.9035ZM103.893 64.2091C104.231 64.2353 104.569 64.2091 104.933 64.2091C105.375 64.2091 105.791 64.1828 106.232 64.2091C107.116 64.2877 107.558 64.7336 107.662 65.5728C107.792 66.5432 107.48 67.3037 106.7 67.4611C105.609 67.6446 104.491 67.5922 103.373 67.5922C103.243 67.5922 103.035 67.225 103.035 67.0152C102.983 66.3596 103.035 65.7039 103.009 65.0745C102.931 64.3926 103.243 64.1566 103.893 64.2091ZM107.35 72.4964C107.35 72.5226 107.324 72.5226 107.298 72.5226C107.246 72.6013 107.168 72.6538 107.09 72.7062C107.038 72.7324 107.012 72.7587 106.96 72.7587C106.648 72.8636 106.336 72.916 105.999 72.9423H105.973H105.817H105.687C105.141 73.0209 104.569 73.0472 103.997 73.0472C103.919 73.0472 103.841 73.0209 103.763 72.9947H103.737C103.581 73.0209 103.399 72.9685 103.269 72.8636C103.139 72.7849 103.035 72.6275 103.009 72.4702C102.983 72.444 102.983 72.4177 102.983 72.3653C102.931 71.4474 102.957 70.5295 102.957 69.6116C102.957 69.1133 103.191 68.9035 103.685 68.9297C104.465 68.9559 105.245 68.9035 106.025 68.9559C106.752 69.0084 107.402 69.3231 107.61 70.0836C107.818 70.8442 107.948 71.8145 107.35 72.4964Z" fill="#D85F20"/>
<path d="M95.4965 64.7598C95.4185 64.5762 95.3405 64.3927 95.2625 64.1829L95.1845 64.0255C95.0805 63.9206 95.0025 63.8157 94.9246 63.7108C94.0927 62.4782 92.247 62.688 90.7913 62.7142C89.0496 62.7667 87.7239 63.1863 87.2559 65.2843C87.048 67.0415 86.814 68.8248 87.1 70.5819C87.178 71.1065 87.2819 71.6047 87.4119 72.103C87.8278 73.5192 88.8157 74.2536 90.2454 74.3847C91.0513 74.4371 91.8831 74.4371 92.689 74.3847C94.5346 74.2273 95.7824 72.8111 95.8604 70.5819C95.9124 68.9559 95.7564 67.3037 95.6784 65.6515C95.6004 65.3892 95.5484 65.0745 95.4965 64.7598ZM94.5346 68.7461C94.4306 69.7165 94.3527 70.6344 94.1707 71.5261C93.9887 72.4177 93.3648 72.916 92.403 72.916C91.7531 72.916 91.1032 72.9423 90.4534 72.916C89.4655 72.8636 88.8936 72.444 88.6857 71.4998C88.2178 69.5854 88.2438 67.5922 88.7117 65.704C88.9716 64.6549 89.5955 64.2353 90.6873 64.1829C91.2852 64.1566 91.9091 64.1566 92.507 64.2091C93.3648 64.2615 93.9887 64.7074 94.1447 65.599C94.3007 66.5956 94.4046 67.5922 94.5086 68.5363C94.5606 68.6412 94.5606 68.6937 94.5346 68.7461Z" fill="#D85F20"/>
<path d="M135.503 48.0015C135.477 51.1748 135.477 54.3481 135.451 57.5477C135.451 58.0722 135.425 58.4918 134.723 58.4656C134.177 58.4393 133.943 58.282 133.943 57.705C133.969 56.5773 133.943 55.4496 133.969 54.2957C133.995 53.5876 133.684 53.4302 132.956 53.4827C131.968 53.5614 130.98 53.5614 129.992 53.4827C129.212 53.404 128.9 53.5614 128.926 54.2957C128.978 55.3709 128.926 56.4724 128.952 57.5739C128.978 58.1509 128.822 58.4656 128.173 58.4656C127.471 58.4656 127.445 58.046 127.445 57.5214C127.445 54.6891 127.419 51.8567 127.419 49.0243C127.419 48.5522 127.445 48.0802 127.445 47.6081C127.419 47.0311 127.731 46.8738 128.25 46.8738C128.77 46.8738 128.952 47.0836 128.952 47.5819C128.952 47.9753 128.978 48.3686 129.004 48.7358L129.056 52.014L129.108 52.0665H130.512H133.398C133.917 52.1714 133.943 51.8305 133.943 51.4633C133.943 50.5716 133.917 49.6799 133.917 48.7883C133.917 48.4473 133.943 48.1064 133.943 47.7655C133.917 47.2409 134.047 46.8738 134.697 46.8738C135.347 46.8738 135.477 47.1885 135.477 47.7392C135.477 47.8441 135.503 47.9228 135.503 48.0015Z" fill="#D85F20"/>
<path d="M62.0925 64.445C62.9763 63.0026 64.3021 62.6092 66.0697 62.7666C66.7456 62.7928 67.3955 62.8715 68.0454 62.9502C68.7473 63.1075 69.1372 63.16 69.2932 63.5796C69.3712 63.7894 69.2412 64.0254 69.0332 64.1041C68.9812 64.1041 68.9552 64.1303 68.9032 64.1303C67.7334 64.1303 66.5377 64.1565 65.3679 64.1565C63.8341 64.1828 63.3662 64.6024 63.1063 66.071C62.8203 67.697 62.8203 69.3755 63.1063 71.0015C63.4182 72.9422 64.2761 72.9159 66.5637 72.6537V72.6799C68.0454 72.575 68.0714 72.5488 68.0714 71.1326C68.0714 70.7917 68.0714 70.4507 68.0714 70.1098C68.0714 69.6639 67.8634 69.4804 67.4475 69.4804C67.0316 69.4804 66.5637 69.4804 66.1477 69.4804C65.9398 69.4804 65.7578 69.2968 65.7578 69.087C65.7578 68.6936 65.9138 68.3002 66.4597 68.2478C67.0576 68.1691 67.6815 68.1429 68.2793 68.1953C69.4231 68.3264 69.3712 68.51 69.5531 69.2181C69.5531 69.2706 69.5531 69.2968 69.5531 69.3492C69.5271 70.7654 69.5271 72.1816 69.4491 73.5716C69.4231 73.8863 69.2932 74.1748 69.0852 74.4108C68.9812 74.4895 68.4613 74.3321 68.3573 74.1485C68.0974 73.7289 67.8374 73.8076 67.4995 73.9912C67.1875 74.1486 66.8756 74.2797 66.5377 74.3584C63.8341 74.9091 62.0925 74.0699 61.6245 71.1326C61.2866 68.9821 61.4166 66.7791 61.9885 64.6548C62.0145 64.5762 62.0405 64.4975 62.0925 64.445Z" fill="#D85F20"/>
<path d="M69.2411 53.1941C69.2411 53.1679 69.2411 53.1417 69.2411 53.1155C69.2411 52.9843 69.2411 52.8532 69.2411 52.7483C69.1891 52.3025 68.8772 52.1713 68.3833 52.2238C67.6554 52.2762 66.9275 52.3025 66.2257 52.3811C65.6538 52.4336 65.4718 52.7483 65.5238 53.1679C65.5498 53.3515 65.7058 53.5088 65.8877 53.5088C66.2517 53.5088 66.6416 53.5351 67.0055 53.5088C67.5774 53.4826 67.8634 53.64 67.8894 54.2956C68.0193 56.4986 67.8894 56.7084 65.6798 57.0231C63.9901 57.2591 63.2362 56.7608 62.8983 55.1086C62.5603 53.5351 62.5603 51.8828 62.8463 50.3093C63.1582 48.5784 63.7821 48.0539 65.7318 48.1063C66.6416 48.1326 67.5514 48.1588 68.4873 48.2112C68.7732 48.2112 69.0332 47.9752 69.0332 47.6867C69.0332 47.6605 69.0332 47.608 69.0332 47.5818C68.9552 47.136 68.7732 47.1098 68.0453 47.0311C67.5774 46.9786 67.1095 46.8475 66.6416 46.8213C64.8739 46.6901 63.1062 46.5328 61.9364 48.2899C61.7805 48.6046 61.6505 48.8931 61.5205 49.2078C61.4425 49.4963 61.3645 49.7848 61.2606 50.0733C61.2346 50.2044 61.2086 50.2831 61.1566 50.5716C60.8446 52.1189 61.1566 53.6924 61.3905 55.2397C61.6765 57.0231 62.6123 58.8327 65.3678 58.518C65.9917 58.4131 66.6156 58.2557 67.2135 58.0459C67.5514 57.941 67.8114 57.8099 68.0973 58.177C68.1233 58.2295 68.1753 58.2557 68.2273 58.2819C68.5653 58.4393 68.9812 58.2819 69.1371 57.9148C69.1631 57.8361 69.1891 57.7837 69.1891 57.705C69.1891 57.6787 69.1891 57.6525 69.1891 57.6263C69.2151 56.7871 69.2411 55.9478 69.2411 55.1086C69.2671 54.4267 69.2411 53.8236 69.2411 53.1941Z" fill="#D85F20"/>
<path d="M122.999 73.493C121.882 70.1624 120.738 66.8317 119.62 63.4748C119.36 62.924 119.074 62.9765 118.736 62.8978C118.346 62.8454 117.956 63.0027 117.722 63.3174C117.722 63.3699 117.696 63.3961 117.67 63.4223C117.566 63.6059 117.462 63.7895 117.384 63.9731C117.203 64.4189 116.995 64.8648 116.761 65.2844L116.683 65.4417C116.527 66.0449 116.293 66.6219 116.033 67.1988C116.033 67.2251 116.007 67.2513 116.007 67.3038C115.981 67.3824 115.929 67.4611 115.903 67.5398L115.851 67.6447L115.669 68.1692C115.279 69.4543 114.915 70.7393 114.499 71.9982C114.343 72.4965 114.109 72.9685 113.953 73.4668C113.849 73.7815 113.589 74.1487 114.083 74.3585C114.577 74.5683 115.279 74.3585 115.435 73.9651C115.669 73.3881 115.851 72.8112 115.981 72.2342C116.137 71.5261 116.527 71.2376 117.255 71.2901C118.086 71.3425 118.892 71.3425 119.724 71.2901C120.478 71.2376 120.842 71.5523 120.972 72.2604C121.076 72.7587 121.258 73.257 121.414 73.7553C121.544 74.2011 121.804 74.3585 122.272 74.3847C123.181 74.4896 123.285 74.3323 122.999 73.493ZM119.334 70.005C119.074 70.005 118.814 70.005 118.554 70.005C116.839 70.005 116.839 70.005 117.384 68.4052C117.696 67.5136 117.982 66.5957 118.294 65.704C118.346 65.5729 118.528 65.4942 118.632 65.3893C118.71 65.4942 118.788 65.5991 118.84 65.704C119.23 66.8579 119.646 67.9856 120.01 69.1396C120.27 69.9263 120.218 69.9788 119.334 70.005Z" fill="#D85F20"/>
<path d="M80.3932 57.4428C80.2372 56.8921 80.0812 56.3414 79.9253 55.7906C79.8213 55.4759 79.7173 55.1612 79.6133 54.8465C79.3794 54.2695 79.1454 53.6663 78.9634 53.0631C78.9114 52.9845 78.8595 52.9058 78.8335 52.8009C78.6255 52.1452 78.4175 51.4634 78.2356 50.8077C77.8976 50.0472 77.6117 49.2604 77.3777 48.4736C77.2217 48.1851 77.1178 47.8704 77.0138 47.5557C76.8578 46.9787 76.4679 46.8738 75.948 46.8476C75.4281 46.8214 75.1681 47.0837 75.0381 47.5557C74.8302 48.1851 74.5962 48.7883 74.3883 49.3915C73.8424 50.8339 73.2705 52.3026 72.7246 53.745L72.2047 55.0038C72.0747 55.5021 71.9447 56.0004 71.7627 56.4987C71.7107 56.7347 71.6328 56.9708 71.5548 57.1806C71.5548 57.2068 71.5288 57.233 71.5288 57.2593C71.5288 57.3117 71.5288 57.3642 71.5028 57.4166C71.4768 57.7051 71.4248 57.9936 71.3728 58.2821C71.8407 58.3345 72.3086 58.3607 72.7765 58.3083C72.9585 58.2821 72.8805 58.046 72.9585 57.8362C73.1925 57.2855 73.3744 56.6823 73.5304 56.1053C73.6604 55.5284 73.9983 55.3448 74.5442 55.3448C75.4801 55.371 76.4419 55.3972 77.4037 55.3448C78.0536 55.3186 78.3396 55.607 78.4695 56.2102C78.5995 56.761 78.7555 57.3117 78.9634 57.8362C79.1454 58.3607 79.7173 58.623 80.2372 58.4394C80.2632 58.4394 80.3152 58.4132 80.3412 58.387C80.8871 58.1772 80.4712 57.7838 80.3932 57.4428ZM76.6239 54.0073C76.4159 54.0073 76.1819 54.0073 75.974 54.0073C74.1543 53.981 74.1283 54.2695 74.8562 52.2764C75.1421 51.4896 75.3761 50.7028 75.662 49.9423C75.766 49.7587 75.87 49.5751 76 49.4177C76.1559 49.6013 76.2859 49.8111 76.3899 50.0209C76.7278 51.0175 77.0658 51.9879 77.3777 52.9845C77.6897 53.981 77.6377 53.981 76.6239 54.0073Z" fill="#D85F20"/>
<path d="M125.235 53.6924C125.235 53.6399 125.209 53.6137 125.209 53.5613L125.183 53.4826L125.053 53.2466C124.481 52.3024 123.623 51.9615 122.558 51.9615C122.09 51.9615 121.622 51.9353 121.154 51.9353C120.894 51.9353 120.634 51.9615 120.374 51.9615C119.516 51.909 119.256 51.6992 119.152 50.9125C119.1 50.5715 119.1 50.2044 119.126 49.8634C119.204 48.4997 119.49 48.2112 120.816 48.2112C122.038 48.2112 123.259 48.2374 124.481 48.2374C124.663 48.2374 124.819 48.0801 124.845 47.8965C124.871 47.4507 124.767 47.0573 124.117 47.0048C123.051 46.8999 121.986 46.7426 120.92 46.7426C119.048 46.7163 118.268 47.2409 117.8 48.9193C117.8 48.998 117.8 49.0767 117.774 49.1553C117.774 49.3651 117.748 49.6012 117.722 49.811C117.748 50.2044 117.748 50.624 117.774 51.0174C117.878 52.5647 118.71 53.4039 120.244 53.4564C121.024 53.4826 121.804 53.4301 122.584 53.4826C123.493 53.535 123.779 53.8497 123.857 54.7676C123.909 55.2135 123.883 55.6331 123.831 56.0789V56.1052C123.805 56.315 123.701 56.5248 123.545 56.6559L123.519 56.6821C123.415 56.787 123.285 56.8395 123.155 56.8919H123.129H123.103L123.025 56.9182H122.973H122.921H122.895H122.869H122.766H122.74C122.714 56.9182 122.688 56.9182 122.636 56.9182H122.584C121.44 56.9706 120.296 57.0493 119.178 57.0231C118.268 56.9968 118.138 56.9444 118.112 57.6525C118.112 57.8885 118.294 58.0983 118.528 58.1245C119.958 58.2295 121.414 58.413 122.843 58.413C124.403 58.413 125.261 57.4165 125.287 55.8429C125.287 55.161 125.261 54.4267 125.235 53.6924Z" fill="#D85F20"/>
<path d="M102.463 57.8624C102.463 58.0459 102.307 58.2033 102.125 58.2295C100.592 58.3082 99.0838 58.4393 97.5501 58.4656C96.1723 58.4918 95.4964 57.7837 95.4705 56.3937C95.4445 53.8761 95.4445 51.3584 95.4185 48.8145C95.8344 47.136 96.4843 46.7164 98.2 46.8738C99.2658 46.9787 100.358 46.9262 101.449 47.0049C102.255 47.0574 102.411 47.1098 102.567 47.6868C102.619 47.8704 102.515 48.0802 102.307 48.1326C102.281 48.1326 102.255 48.1326 102.229 48.1326C101.085 48.1588 99.9416 48.2113 98.7978 48.2113C96.9522 48.2375 96.9262 48.2113 96.9522 50.0995C96.9782 52.1452 96.6402 52.0665 98.8238 52.014C99.5517 52.0665 100.254 52.0665 100.981 52.0402C101.787 52.014 102.021 52.4074 101.917 53.1155L101.735 53.2729L99.3697 53.404C98.8238 53.404 98.2519 53.4302 97.706 53.404C97.1601 53.3778 96.9002 53.5876 96.9262 54.1645C96.9522 54.7415 96.9522 55.3185 96.9262 55.8692C96.8742 56.6298 97.1341 56.9969 97.888 56.9445C98.096 56.9182 98.3039 56.9445 98.5379 56.9182L101.579 57.0756C102.359 57.1543 102.437 57.1543 102.463 57.8624Z" fill="#D85F20"/>
<path d="M111.743 47.477C111.795 47.8179 111.588 48.1588 111.25 48.2113C111.224 48.2113 111.172 48.2113 111.146 48.2113C109.924 48.2113 108.702 48.2113 107.506 48.2375C106.518 48.2638 106.31 48.4473 106.206 49.3652C106.18 49.5226 106.154 49.6799 106.154 49.8111C106.18 52.3287 105.843 51.8042 108.156 51.9354H108.182C108.91 51.9878 109.612 52.0665 110.34 52.1189C110.86 52.1714 111.068 52.1714 111.172 52.4074C111.276 52.7484 111.094 53.0893 110.782 53.1942C110.73 53.2204 110.678 53.2204 110.6 53.2204C109.404 53.2991 108.182 53.3778 106.986 53.404C106.388 53.4302 106.128 53.6138 106.154 54.2432C106.18 55.3709 106.154 56.4986 106.18 57.6526C106.18 58.2033 105.999 58.4393 105.427 58.4393C104.855 58.4393 104.829 58.0722 104.829 57.6526C104.829 55.5545 104.829 53.4564 104.829 51.3584C104.829 50.6765 104.803 49.9684 104.803 49.2866C104.803 48.8145 104.803 48.8145 104.803 49.2603C104.829 49.0505 104.829 48.8407 104.855 48.6309C105.011 47.477 105.557 46.9 106.726 46.9C108.104 46.8738 109.482 46.9262 110.86 47.0049C111.432 47.0311 111.665 47.0836 111.743 47.477Z" fill="#D85F20"/>
<path d="M75.1681 64.2091C75.1681 63.9468 75.1941 63.7108 75.1941 63.4485C75.1941 62.8715 75.558 62.7404 76.0259 62.7404C76.4939 62.7404 76.7018 62.9764 76.6758 63.4485C76.6758 63.7108 76.7018 63.9468 76.7018 64.2091C76.7018 65.4154 76.6758 66.6481 76.6758 67.8544C76.6758 69.1133 76.6758 70.3721 76.6758 71.6309C76.6758 72.8898 76.7798 72.916 78.0276 72.916C78.1056 72.916 78.2095 72.916 78.2875 72.8898C79.1454 72.8898 80.0032 72.916 80.8611 72.916C82.0049 72.916 82.1868 72.916 82.3168 73.7028C82.3688 73.9913 82.1608 74.2535 81.8749 74.306C81.8489 74.306 81.8489 74.306 81.8229 74.306C80.2112 74.3322 78.5995 74.4109 76.9878 74.3584C75.792 74.3322 75.1941 73.5192 75.1941 72.103C75.1681 69.5067 75.1681 66.8579 75.1681 64.2091Z" fill="#D85F20"/>
<path d="M134.567 72.9423C133.658 72.9423 132.748 72.916 131.838 72.916C131.656 72.916 131.5 72.9423 131.318 72.9423C130.096 72.9423 129.992 72.8636 129.992 71.5785C129.992 68.9559 130.018 66.3334 130.018 63.7108C129.992 63.5534 129.992 63.3699 129.992 63.2125C129.966 63.0551 129.836 62.924 129.654 62.924H129.004C128.848 62.924 128.692 63.0551 128.666 63.2125C128.64 63.3699 128.64 63.5534 128.64 63.7108C128.64 63.973 128.588 64.2353 128.562 64.4976C128.588 66.989 128.614 69.4542 128.614 71.9457C128.614 73.8864 129.16 74.4109 131.084 74.4109C132.202 74.4109 133.32 74.3584 134.463 74.4371C134.645 74.4633 134.827 74.4371 135.009 74.3847C135.165 74.3322 135.269 74.1749 135.269 74.0175V73.257C135.269 73.0996 135.139 72.9685 134.983 72.9423C134.879 72.9685 134.723 72.9423 134.567 72.9423Z" fill="#D85F20"/>
<path d="M115.383 58.1508L115.487 57.9672L115.539 57.8099C115.539 55.1873 115.539 52.5385 115.539 49.9159C115.539 49.4439 115.539 48.998 115.539 48.526C115.539 47.8441 115.539 48.4997 115.539 48.4997C115.539 48.2112 115.513 47.9228 115.461 47.6343C115.305 46.9786 115.227 46.8737 114.681 46.9C114.135 46.9262 114.161 47.136 114.057 47.6605C114.005 48.0277 113.979 48.4211 113.979 48.7882V48.8144C114.005 51.673 114.005 54.5317 114.031 57.3903C114.031 58.4917 114.291 58.7016 115.201 58.2819L115.383 58.1508Z" fill="#D85F20"/>
</svg>
