<svg width="160" height="80" viewBox="0 0 160 80" fill="none" xmlns="http://www.w3.org/2000/svg">
<path d="M36.0605 27.1192L31.2236 24.1463L30.2686 24.6854L30.2378 24.67L11.861 35.2987V43.9248L19.3319 48.2379L26.8027 43.9248V38.6875L19.2856 43.0006V37.7633L30.6229 31.1088L30.6845 31.1396V47.4677L19.3165 53.9374L6.93174 46.7746V32.449L26.2328 21.2812L21.6424 18.6163C20.2099 17.7845 18.4538 17.7845 17.0213 18.6163L2.31058 27.1192C0.878021 27.951 0 29.476 0 31.1242V48.1147C0 49.7629 0.878021 51.2879 2.31058 52.1197L17.0213 60.6226C18.4538 61.4544 20.2099 61.4544 21.6424 60.6226L36.0451 52.1197C37.4776 51.2879 38.3556 49.7629 38.3556 48.1147V31.1242C38.371 29.4606 37.493 27.9356 36.0605 27.1192Z" fill="#8BC344"/>
<path d="M61.508 38.6566C61.508 41.799 60.861 44.0479 58.9664 45.804C57.3027 47.3598 55.3927 47.8065 53.3748 47.8065C50.5096 47.8065 48.5688 46.759 47.2748 45.4497C46.0887 44.2636 44.9951 42.3227 44.9951 39.7041C44.9951 37.1778 45.9963 35.1137 47.3827 33.7428C48.692 32.4334 50.7407 31.4014 53.5596 31.4014C55.0384 31.4014 56.6404 31.7403 57.8419 32.4796C59.0742 33.2344 60.1063 34.4975 60.6762 35.7453L56.7482 37.3627C56.4555 36.6233 56.0088 36.0995 55.6083 35.7607C54.9151 35.1907 54.1758 34.9751 53.3902 34.9751C52.4197 34.9751 51.4185 35.3294 50.6791 36.0687C49.7549 36.993 49.2927 38.4717 49.2927 39.7195C49.2927 41.1674 49.8165 42.3689 50.5559 43.1545C51.326 43.9709 52.2503 44.3714 53.4672 44.3714C54.1758 44.3714 55.023 44.2482 55.747 43.632C56.1321 43.324 56.5788 42.754 56.7174 41.876H53.3286V38.6566H61.508Z" fill="white"/>
<path d="M75.2943 36.8082V47.4522H71.4895L71.3047 46.5126C70.4575 47.4677 69.2252 47.8065 68.1777 47.8065C67.0378 47.8065 65.6361 47.4677 64.3421 46.1121C63.3255 45.0184 62.8171 43.8015 62.8171 42.1995C62.8171 40.197 63.6027 38.7953 64.4654 37.9327C65.3742 37.0238 66.7759 36.4385 68.3009 36.4385C70.0107 36.4385 70.935 37.2703 71.3355 37.6554L71.4895 36.7928H75.2943V36.8082ZM71.6744 42.1225C71.6744 41.5834 71.5203 40.8594 70.8734 40.2432C70.4883 39.8889 69.9029 39.5038 69.0249 39.5038C68.5166 39.5038 67.8234 39.6887 67.2226 40.2432C66.6527 40.7824 66.4062 41.5218 66.4062 42.1225C66.4062 42.7849 66.6835 43.5089 67.2072 44.0018C67.6385 44.4177 68.3625 44.772 69.0557 44.772C69.7181 44.772 70.3958 44.4947 70.9042 43.971C71.2739 43.6167 71.6744 43.0467 71.6744 42.1225Z" fill="white"/>
<path d="M95.8123 40.5358V47.4676H92.0075V42.1995C92.0075 41.075 91.8843 40.3202 91.453 39.9197C91.2373 39.7348 90.96 39.5654 90.4517 39.5654C90.0204 39.5654 89.6661 39.6886 89.3272 39.9967C88.6803 40.6129 88.6341 41.4909 88.6341 42.0146V47.4676H84.8293V42.1995C84.8293 41.1828 84.7523 40.3664 84.3364 39.9197C83.9975 39.5654 83.5816 39.4884 83.1965 39.4884C82.796 39.4884 82.4571 39.5654 82.149 39.8735C81.4866 40.5204 81.4866 41.5371 81.4866 42.2149V47.483H77.6819V36.8389H81.4866L81.5945 37.9942C82.4263 37.1162 83.6278 36.6541 84.6753 36.6541C85.43 36.6541 86.154 36.8235 86.724 37.1316C87.5096 37.5321 87.9409 38.1328 88.2027 38.6566C88.634 37.8864 89.1732 37.4397 89.6507 37.1778C90.4209 36.7465 91.1449 36.6541 91.8689 36.6541C92.6545 36.6541 93.9484 36.7773 94.8264 37.6245C95.766 38.5333 95.8123 39.7964 95.8123 40.5358Z" fill="white"/>
<path d="M109.383 42.7849H101.404C101.404 43.3549 101.619 44.1251 102.081 44.5872C102.328 44.8337 102.805 45.1109 103.668 45.1109C103.761 45.1109 104.438 45.0801 104.916 44.8182C105.162 44.6796 105.424 44.4331 105.594 44.0943H109.26C109.09 44.695 108.751 45.5268 107.966 46.297C107.18 47.0672 105.932 47.7758 103.606 47.7758C102.189 47.7758 100.495 47.4677 99.1702 46.143C98.477 45.4498 97.5836 44.1251 97.5836 42.0918C97.5836 40.2895 98.2613 38.857 99.1856 37.9481C100.079 37.0855 101.465 36.3923 103.56 36.3923C104.808 36.3923 106.41 36.6542 107.673 37.8557C109.183 39.2883 109.368 41.1521 109.368 42.3536V42.7849H109.383ZM105.871 40.5822C105.778 40.1817 105.532 39.7196 105.255 39.4269C104.746 38.9186 104.053 38.857 103.668 38.857C103.021 38.857 102.513 39.0264 102.112 39.4269C101.85 39.7196 101.604 40.1047 101.542 40.5822H105.871Z" fill="white"/>
<path d="M119.812 43.8323C119.812 45.1263 119.257 45.9735 118.733 46.4818C117.501 47.7141 115.684 47.8219 114.805 47.8219C113.85 47.8219 112.325 47.6217 110.677 46.605L111.863 43.9402C112.31 44.279 112.865 44.5563 113.388 44.7258C113.866 44.8952 114.605 45.003 115.021 45.003C115.314 45.003 115.761 44.926 115.992 44.7104C116.161 44.5409 116.176 44.4023 116.176 44.2174C116.176 44.048 116.146 43.8785 115.992 43.7399C115.761 43.5243 115.375 43.4472 114.99 43.3548L113.835 43.0929C113.311 42.9697 112.541 42.7849 111.971 42.1687C111.571 41.7374 111.278 41.1521 111.278 40.3357C111.278 39.3036 111.679 38.364 112.279 37.7324C113.096 36.9006 114.513 36.4385 116.084 36.4385C117.655 36.4385 118.687 36.8236 119.273 37.0392L118.21 39.5655C117.686 39.3344 116.746 39.0417 116.053 39.0417C115.668 39.0417 115.406 39.1188 115.175 39.2574C114.96 39.3806 114.836 39.5501 114.836 39.7811C114.836 40.12 115.052 40.274 115.283 40.3819C115.637 40.5205 116.099 40.5205 116.7 40.6899L117.393 40.8748C117.886 41.0134 118.656 41.3985 118.965 41.7066C119.534 42.2149 119.812 43.0467 119.812 43.8323Z" fill="white"/>
<path d="M128.468 31.386H129.978V47.5754H128.468V31.386Z" fill="white"/>
<path d="M134.029 39.9812C134.029 39.7809 134.014 39.5499 134.014 39.2572C133.998 38.9799 133.983 38.6873 133.983 38.3946C133.968 38.1019 133.968 37.8401 133.952 37.5782C133.937 37.3317 133.937 37.1315 133.937 36.9928H135.308C135.323 37.3933 135.338 37.763 135.338 38.1327C135.338 38.5024 135.369 38.7335 135.4 38.8413H135.462C135.739 38.256 136.201 37.763 136.833 37.3471C137.48 36.9312 138.219 36.7156 139.082 36.7156C139.898 36.7156 140.576 36.8388 141.099 37.1007C141.623 37.3625 142.024 37.7014 142.316 38.1173C142.609 38.5332 142.825 39.0262 142.933 39.5653C143.04 40.1198 143.102 40.6744 143.102 41.2597V47.5753H141.716V41.3521C141.716 40.9208 141.685 40.5049 141.608 40.1044C141.531 39.7039 141.392 39.3342 141.207 39.0108C141.022 38.6873 140.745 38.4408 140.406 38.2406C140.067 38.0557 139.621 37.9479 139.066 37.9479C138.558 37.9479 138.08 38.0403 137.634 38.2098C137.187 38.3792 136.802 38.6565 136.463 39.0108C136.139 39.365 135.878 39.8118 135.693 40.3663C135.508 40.9054 135.4 41.537 135.4 42.2764V47.5753H134.029V39.9812Z" fill="white"/>
<path d="M155.61 46.0197C155.086 46.6513 154.501 47.1134 153.854 47.4061C153.192 47.6988 152.483 47.8528 151.728 47.8528C150.927 47.8528 150.172 47.7142 149.479 47.4369C148.786 47.1596 148.201 46.7745 147.723 46.2816C147.23 45.7887 146.861 45.2033 146.583 44.5256C146.306 43.8478 146.167 43.1084 146.167 42.292C146.167 41.491 146.306 40.7362 146.583 40.0584C146.861 39.3807 147.246 38.7953 147.723 38.3024C148.216 37.8095 148.801 37.4244 149.479 37.1471C150.157 36.8698 150.912 36.7312 151.728 36.7312C152.498 36.7312 153.222 36.8852 153.885 37.2087C154.547 37.5322 155.132 37.9789 155.656 38.5643L154.563 39.3807C154.162 38.934 153.731 38.5951 153.253 38.3332C152.776 38.0867 152.267 37.9481 151.713 37.9481C151.066 37.9481 150.496 38.0559 149.972 38.287C149.448 38.5181 149.017 38.8261 148.647 39.2112C148.278 39.5963 148 40.0584 147.816 40.5822C147.631 41.1059 147.523 41.6758 147.523 42.2612C147.523 42.8465 147.615 43.4165 147.816 43.9402C148 44.4639 148.278 44.9261 148.647 45.3112C149.017 45.6963 149.448 46.0043 149.972 46.2354C150.496 46.4665 151.066 46.5743 151.713 46.5743C152.298 46.5743 152.822 46.4356 153.299 46.1738C153.777 45.9119 154.193 45.5576 154.547 45.1109L155.61 46.0197Z" fill="white"/>
<path d="M157.797 46.6203C157.797 46.3122 157.905 46.0503 158.121 45.8501C158.336 45.6344 158.598 45.5266 158.891 45.5266C159.199 45.5266 159.461 45.6344 159.661 45.8501C159.877 46.0657 159.985 46.3276 159.985 46.6203C159.985 46.9284 159.877 47.1902 159.661 47.3905C159.446 47.6061 159.184 47.714 158.891 47.714C158.583 47.714 158.321 47.6061 158.121 47.3905C157.905 47.1748 157.797 46.913 157.797 46.6203Z" fill="white"/>
</svg>
