<svg width="160" height="80" viewBox="0 0 160 80" fill="none" xmlns="http://www.w3.org/2000/svg">
<path d="M142.518 23H17.482C7.85635 23 0 30.8563 0 40.482C0 50.0914 7.85635 57.964 17.482 57.964H142.518C152.127 57.964 160 50.1076 160 40.482C160 30.8563 152.144 23 142.518 23Z" fill="#505758"/>
<path d="M143.281 23C143.281 23 17.482 23.0162 17.482 23C27.1401 23 34.964 30.8239 34.964 40.482C34.964 47.5917 30.7112 53.7112 24.6079 56.4382H143.281C152.468 56.4382 160 48.9227 160 39.7191C160 30.5155 152.485 23 143.281 23Z" fill="black"/>
<path d="M17.482 56.5031C26.3302 56.5031 33.5031 49.3302 33.5031 40.482C33.5031 31.6338 26.3302 24.4609 17.482 24.4609C8.63377 24.4609 1.46088 31.6338 1.46088 40.482C1.46088 49.3302 8.63377 56.5031 17.482 56.5031Z" fill="black"/>
<path d="M52.4297 36.4567C52.3648 39.9304 49.6378 42.2841 45.9856 42.0243C42.6742 41.7971 40.4667 39.4272 40.3043 35.9211C40.1907 33.5512 40.8238 31.4248 42.9502 30.1262C45.1578 28.7627 47.5276 28.714 49.9138 29.7366C50.352 29.9314 50.7578 30.2236 51.05 30.6294C51.4721 31.2138 51.5532 31.8306 51.0987 32.4149C50.6767 32.9831 50.0923 32.9668 49.4917 32.772C48.8587 32.561 48.2906 32.1877 47.625 32.0254C45.6772 31.5059 44.1514 32.3662 43.6969 34.3141C43.4209 35.499 43.5183 36.684 44.1189 37.7715C44.8818 39.1513 46.6511 39.6707 48.0471 38.924C48.3879 38.7455 48.6477 38.4695 48.8424 38.1286C49.3781 37.1547 49.232 36.9112 48.1282 36.9275C47.9334 36.9275 47.7549 36.9275 47.5601 36.9275C46.3102 36.9275 45.7259 36.0672 46.1641 34.866C46.3265 34.4439 46.6511 34.2492 47.1056 34.2167C48.0958 34.168 49.1022 34.0868 50.0923 34.0706C51.959 34.0868 52.4622 34.6063 52.4297 36.4567Z" fill="#9CA2A9"/>
<path d="M46.5213 41.7968C46.3427 41.7968 46.1804 41.7968 46.0018 41.7806C42.7879 41.5533 40.6939 39.3133 40.5478 35.9046C40.418 33.275 41.262 31.4407 43.08 30.3207C44.2325 29.6227 45.4499 29.2656 46.6998 29.2656C47.7062 29.2656 48.7613 29.4929 49.8164 29.9636C50.2547 30.1584 50.6118 30.4181 50.8552 30.7752C51.2448 31.3109 51.2611 31.7978 50.9039 32.2848C50.7092 32.5445 50.4657 32.6744 50.1573 32.6744C49.9787 32.6744 49.7839 32.6419 49.5729 32.5607C49.3132 32.4634 49.0535 32.3497 48.7938 32.2361C48.4529 32.0738 48.0958 31.9115 47.69 31.8141C47.3004 31.7167 46.9271 31.6517 46.5537 31.6517C44.9792 31.6517 43.8592 32.6094 43.4696 34.2814C43.1612 35.5962 43.3073 36.8136 43.9241 37.9011C44.476 38.9075 45.5473 39.5243 46.6998 39.5243C47.2192 39.5243 47.7224 39.3945 48.1769 39.1672C48.5503 38.9724 48.8425 38.664 49.0697 38.2745C49.3457 37.7713 49.508 37.3655 49.3294 37.0733C49.1509 36.7811 48.7613 36.7162 48.2094 36.7162H47.9497C47.8523 36.7162 47.7387 36.7162 47.6413 36.7162H47.5926C47.0732 36.7162 46.6674 36.5538 46.4726 36.2454C46.2615 35.937 46.2453 35.4988 46.4401 34.9956C46.5537 34.6872 46.781 34.5248 47.1706 34.5086C47.4952 34.4924 47.8036 34.4761 48.1282 34.4599C48.7938 34.4274 49.4755 34.3787 50.1573 34.3787H50.2384C51.0825 34.3787 51.5857 34.5086 51.8616 34.7845C52.1538 35.0767 52.2674 35.5799 52.2512 36.4889C52.1214 39.6055 49.8002 41.7968 46.5213 41.7968Z" fill="#FDFDFD"/>
<path d="M128.705 34.2328C129.289 34.2328 129.889 34.2003 130.474 34.249C131.172 34.314 131.643 34.736 131.74 35.4177C132.324 40.0764 128.753 43.2903 124.452 42.008C122.277 41.3587 120.686 39.2161 120.491 36.6838C120.377 35.2554 120.41 33.827 120.946 32.4635C122.293 29.0385 126.887 27.6588 129.889 29.8177C130.523 30.2722 131.009 30.824 130.961 31.6843C130.88 32.707 130.068 33.2102 129.143 32.8044C128.477 32.5122 127.893 32.0577 127.179 31.8791C125.783 31.522 124.549 32.0577 123.981 33.3725C123.348 34.8334 123.38 36.3267 124.013 37.7714C124.565 39.0213 125.734 39.5569 127.081 39.281C127.649 39.1674 128.055 38.8427 128.331 38.3395C128.883 37.3331 128.753 37.0896 127.633 37.0734C126.253 37.0572 125.945 36.8462 125.864 35.856C125.766 34.6061 126.059 34.2977 127.325 34.249C127.682 34.2328 128.331 34.2328 128.558 34.2328C128.591 34.2166 128.672 34.2328 128.705 34.2328Z" fill="#9EA3AA"/>
<path d="M126.318 42.0404C125.734 42.0404 125.117 41.943 124.517 41.7644C122.439 41.1476 120.913 39.1024 120.734 36.6675C120.637 35.5151 120.605 33.9892 121.173 32.5446C122.001 30.4344 124.176 29.0222 126.594 29.0222C127.763 29.0222 128.851 29.3631 129.76 30.0124C130.474 30.5318 130.766 31.0188 130.717 31.6681C130.669 32.3011 130.295 32.6907 129.776 32.6907C129.613 32.6907 129.435 32.642 129.24 32.5608C129.013 32.4634 128.786 32.3336 128.558 32.2037C128.153 31.9765 127.731 31.7492 127.227 31.6194C126.935 31.5382 126.627 31.5057 126.351 31.5057C125.182 31.5057 124.224 32.1388 123.754 33.2426C123.104 34.7522 123.104 36.3104 123.786 37.8363C124.273 38.9238 125.215 39.5569 126.383 39.5569C126.627 39.5569 126.87 39.5244 127.13 39.4757C127.747 39.3459 128.218 38.9887 128.542 38.4044C128.851 37.8687 128.997 37.4629 128.818 37.1545C128.64 36.8461 128.218 36.7812 127.633 36.7812C126.302 36.7649 126.172 36.5864 126.107 35.791C126.059 35.2229 126.107 34.8982 126.253 34.7359C126.399 34.5574 126.724 34.4762 127.341 34.46C127.568 34.46 127.958 34.4437 128.282 34.4437C128.396 34.4437 128.51 34.4437 128.558 34.4437H128.623C128.672 34.4437 128.704 34.4437 128.737 34.4437C128.899 34.4437 129.062 34.4437 129.224 34.4437C129.419 34.4437 129.597 34.4437 129.792 34.4437C130.068 34.4437 130.279 34.4437 130.49 34.4762C131.074 34.5249 131.464 34.8658 131.529 35.4339C131.772 37.3493 131.285 39.0861 130.198 40.336C129.191 41.4398 127.828 42.0404 126.318 42.0404Z" fill="#F6F6F7"/>
<path d="M109.405 34.5249C109.356 35.4826 109.567 36.9922 109.21 38.4855C108.609 40.9853 106.694 42.3488 103.918 42.2676C101.467 42.1864 99.5516 40.5145 99.2108 38.0797C98.8536 35.4988 99.0647 32.9017 99.0809 30.3208C99.0809 29.3144 99.5679 29.006 100.655 29.0384C101.581 29.0709 101.905 29.3793 101.954 30.4019C102.051 32.6095 101.873 34.8333 102.068 37.0408C102.214 38.729 103.269 39.5731 104.843 39.2647C105.85 39.0699 106.483 38.1446 106.515 36.7162C106.548 34.882 106.531 33.0477 106.531 31.1973C106.531 30.9213 106.515 30.6616 106.548 30.3857C106.645 29.3306 107.002 29.0222 108.057 29.0384C109.064 29.0546 109.388 29.3468 109.421 30.4181C109.421 31.6031 109.405 32.788 109.405 34.5249Z" fill="#9EA3A8"/>
<path d="M104.178 42.0406C104.097 42.0406 104.015 42.0406 103.918 42.0406C101.564 41.9594 99.7626 40.3686 99.4542 38.0637C99.1945 36.1483 99.2432 34.2004 99.2919 32.3013C99.3081 31.652 99.3243 30.9865 99.3243 30.3372C99.3243 29.5581 99.6165 29.2983 100.493 29.2983C100.542 29.2983 100.59 29.2983 100.639 29.2983C101.402 29.3146 101.646 29.4769 101.694 30.4346C101.743 31.3923 101.727 32.3662 101.727 33.3077C101.71 34.5413 101.694 35.8237 101.808 37.0898C101.938 38.6643 102.847 39.5895 104.21 39.5895C104.421 39.5895 104.648 39.5733 104.876 39.5246C106.012 39.2973 106.71 38.2585 106.742 36.7326C106.759 35.4665 106.759 34.2004 106.759 32.9668C106.759 32.3824 106.759 31.7981 106.759 31.23V31.0514C106.759 30.8404 106.759 30.6456 106.775 30.4346C106.856 29.5094 107.083 29.2983 107.976 29.2983H108.041C108.918 29.3146 109.129 29.5256 109.161 30.4346C109.177 31.23 109.177 32.0091 109.177 32.9993C109.177 33.47 109.177 33.9894 109.177 34.5575C109.161 34.8335 109.177 35.1906 109.177 35.5477C109.193 36.3918 109.226 37.4469 108.982 38.4533C108.414 40.7258 106.677 42.0406 104.178 42.0406Z" fill="#F5F6F7"/>
<path d="M132.795 35.5803C132.795 34.0707 132.779 32.5611 132.795 31.0353C132.811 29.7367 133.331 29.2173 134.613 29.2011C135.879 29.1848 137.161 29.2011 138.427 29.2011C138.898 29.2011 139.418 29.2498 139.629 29.7043C139.872 30.2724 139.872 30.9379 139.629 31.5223C139.515 31.7982 139.19 31.8794 138.866 31.8956C138.087 31.9281 137.307 32.0255 136.528 32.0255C135.765 32.0092 135.457 32.2852 135.473 33.0643C135.489 33.8759 135.863 34.1032 136.577 34.0707C137.145 34.0382 137.713 34.0382 138.281 34.0707C139.19 34.1194 139.531 34.5252 139.531 35.4991C139.531 36.4893 139.207 36.8626 138.265 36.8951C137.746 36.9113 137.243 36.9113 136.723 36.8951C136.041 36.8789 135.652 37.1386 135.652 37.8852C135.668 38.6969 135.944 39.0377 136.756 39.054C137.437 39.0702 138.103 39.0702 138.785 39.0702C139.515 39.0702 139.856 39.4598 139.888 40.174C139.937 41.3427 139.775 41.6998 138.931 41.7972C137.324 41.9757 135.7 41.9757 134.077 41.7972C133.152 41.6998 132.827 41.294 132.811 40.3363C132.779 38.778 132.795 37.171 132.795 35.5803Z" fill="#9EA3AA"/>
<path d="M136.512 41.7161C135.717 41.7161 134.905 41.6674 134.094 41.5862C133.314 41.5051 133.055 41.1966 133.038 40.3688C133.022 39.2488 133.022 38.1125 133.022 37.0088C133.022 36.538 133.022 36.0673 133.022 35.5966V35.3368C133.022 34.9635 133.022 34.5902 133.022 34.2006C133.022 33.1617 133.022 32.0904 133.022 31.0353C133.038 29.8666 133.444 29.4446 134.597 29.4446C135.051 29.4446 135.506 29.4446 135.96 29.4446C136.334 29.4446 136.691 29.4446 137.064 29.4446C137.437 29.4446 137.794 29.4446 138.168 29.4446H138.411C138.898 29.4446 139.255 29.5095 139.385 29.8017C139.596 30.3049 139.596 30.8892 139.385 31.4249C139.336 31.5548 139.142 31.6359 138.833 31.6521C138.557 31.6684 138.281 31.6846 138.005 31.7008C137.551 31.7333 137.08 31.7658 136.626 31.7658H136.463C136.009 31.7658 135.717 31.8632 135.506 32.0742C135.295 32.2852 135.197 32.5936 135.214 33.0643C135.23 33.9084 135.619 34.3142 136.447 34.3142C136.496 34.3142 136.545 34.3142 136.577 34.3142C136.869 34.298 137.145 34.298 137.405 34.298C137.697 34.298 137.973 34.298 138.249 34.3142C139.028 34.3629 139.272 34.6389 139.272 35.4992C139.272 36.3757 139.044 36.6192 138.249 36.6516C138.005 36.6679 137.746 36.6679 137.47 36.6679C137.226 36.6679 136.983 36.6679 136.723 36.6679H136.674C136.236 36.6679 135.928 36.7815 135.717 36.9925C135.506 37.2035 135.408 37.5119 135.425 37.9015C135.441 38.8592 135.847 39.2812 136.756 39.3137C137.178 39.3299 137.616 39.3299 138.038 39.3299C138.281 39.3299 138.541 39.3299 138.785 39.3299C139.369 39.3299 139.612 39.5897 139.645 40.2065C139.694 41.3914 139.499 41.5051 138.898 41.5862C138.103 41.6836 137.307 41.7161 136.512 41.7161Z" fill="#FEFEFE"/>
<path d="M71.1129 35.921C71.5674 35.3204 71.5674 34.7036 71.7135 34.1517C72.0219 32.9992 72.2492 31.8305 72.5576 30.6942C72.8822 29.4444 73.564 28.9412 74.7651 29.0061C75.9014 29.0548 76.7942 29.7852 76.924 30.9377C77.2973 34.0543 77.622 37.1709 77.9304 40.2874C78.044 41.375 77.5408 42.0243 76.6968 42.1541C75.8527 42.2677 75.2196 41.7483 75.0249 40.6608C74.7814 39.281 74.5704 37.8851 74.3593 36.5053C74.3269 36.2943 74.3593 36.0671 74.0834 35.8236C73.8399 36.7488 73.6289 37.6091 73.4016 38.4694C73.1582 39.4109 72.8985 40.3361 72.4602 41.2289C72.1193 41.9269 71.5999 42.219 70.837 42.1866C70.0903 42.1541 69.6196 41.7645 69.3761 41.099C68.8891 39.7031 68.4346 38.2909 67.9477 36.8787C67.8665 36.6514 67.8665 36.3917 67.5743 36.1645C67.2659 37.0735 67.2497 37.9987 67.0549 38.8915C66.9088 39.5732 66.8439 40.2874 66.6491 40.9529C66.3732 41.8782 65.7401 42.284 64.9772 42.1541C64.2143 42.008 63.7111 41.3912 63.8085 40.466C64.052 38.2097 64.3766 35.9697 64.685 33.7134C64.8149 32.7719 64.9285 31.8305 65.0908 30.9053C65.2856 29.7365 65.9998 29.071 67.0711 29.0061C68.2885 28.9412 68.9216 29.4119 69.3274 30.6455C69.8793 32.3661 70.4799 34.0868 71.1129 35.921Z" fill="#9CA2A9"/>
<path d="M78.9368 35.515C78.9368 34.119 78.9205 32.7393 78.9368 31.3433C78.9692 29.6065 79.4562 29.152 81.193 29.152C82.378 29.152 83.5792 29.1358 84.7641 29.1682C85.7218 29.1845 86.014 29.5091 86.0789 30.4343C86.1438 31.5868 85.949 31.8952 84.9589 32.0089C84.1797 32.09 83.4006 32.09 82.6052 32.1063C81.9722 32.1063 81.7612 32.4147 81.7612 33.0153C81.7612 33.6158 81.9073 34.0379 82.6052 34.0379C83.2545 34.0379 83.9038 34.0216 84.5531 34.0541C85.4945 34.1028 85.8354 34.5248 85.8192 35.5637C85.803 36.5701 85.4945 36.9272 84.5693 36.9759C84.0012 37.0084 83.4331 36.9921 82.8649 36.9921C82.2319 37.0084 81.9559 37.3168 81.9722 37.966C81.9884 38.6153 82.2319 39.0049 82.9136 39.0049C83.6441 39.0211 84.3745 39.0211 85.105 39.0374C85.8841 39.0698 86.1763 39.5406 86.1925 40.2548C86.225 41.3586 86.0302 41.8293 85.2024 41.8942C83.5629 42.0403 81.9073 42.0241 80.2678 41.8942C79.4887 41.8293 79.0179 41.3586 79.0179 40.5632C78.9855 38.9562 78.953 37.4142 78.953 35.8072C78.9368 35.7909 78.9368 35.5475 78.9368 35.515Z" fill="#9CA2A9"/>
<path d="M84.5693 47.0727C84.5693 46.6182 84.5693 46.1475 84.5693 45.693C84.5693 45.2709 84.7479 45.0437 85.2024 45.0437C85.6407 45.0437 85.7381 45.3034 85.7381 45.6767C85.7543 46.5208 85.7705 47.3486 85.803 48.1927C85.8354 48.8582 86.0789 49.3614 86.8581 49.3452C87.6534 49.3289 87.832 48.7933 87.8482 48.1278C87.8644 47.3649 87.8482 46.6182 87.8644 45.8553C87.8807 45.4495 87.8969 45.0274 88.5137 45.0437C89.0656 45.0761 89.0818 45.4495 89.0818 45.839C89.0818 46.6506 89.1143 47.4623 89.0656 48.2739C89.0007 49.7185 88.0917 50.5788 86.7444 50.5301C85.4134 50.4814 84.6018 49.6049 84.5693 48.2089C84.5531 47.8356 84.5693 47.446 84.5693 47.0727Z" fill="#E82D2E"/>
<path d="M63.8572 49.7993C63.4351 49.5883 62.9806 49.4098 62.5911 49.1663C62.1366 48.8741 61.8119 48.9553 61.4873 49.3611C61.1789 49.7506 60.8218 50.124 60.4809 50.5136C60.351 50.335 60.3348 50.3188 60.3348 50.3025C60.2861 49.5721 60.838 48.7605 60.4322 48.1924C60.0751 47.6729 59.2635 47.4782 58.6304 47.1048C59.0687 46.8451 59.5394 46.8126 59.9615 46.7964C60.7081 46.7639 60.9841 46.3906 61.0166 45.6926C61.0328 45.2868 61.1464 44.8972 61.2276 44.4265C61.6496 44.7836 61.8282 45.2706 62.0229 45.7089C62.2502 46.212 62.5261 46.4718 63.1267 46.277C63.5812 46.1309 64.0844 46.1309 64.6525 46.0497C64.3441 46.6179 63.8896 46.975 63.4838 47.3645C63.1754 47.6567 63.1267 47.9002 63.3377 48.2735C63.5975 48.728 63.7922 49.215 64.0195 49.6857C63.9546 49.7344 63.9059 49.7669 63.8572 49.7993Z" fill="#FAC824"/>
<path d="M130.149 50.5297C129.646 50.0427 129.24 49.7181 128.915 49.3447C128.575 48.9389 128.25 48.9065 127.812 49.1824C127.406 49.4259 126.968 49.6044 126.562 49.8155C126.513 49.7668 126.464 49.7181 126.416 49.6694C126.627 49.2311 126.838 48.7604 127.081 48.3383C127.309 47.9488 127.309 47.6566 126.935 47.3644C126.513 47.0398 126.124 46.6664 125.702 46.3256C125.75 46.2444 125.799 46.1795 125.864 46.0983C126.351 46.1632 126.854 46.1632 127.309 46.2931C127.909 46.4716 128.201 46.2606 128.412 45.725C128.591 45.2867 128.851 44.8809 129.094 44.4426C129.159 44.5238 129.224 44.5563 129.224 44.5887C129.208 46.2931 130.036 47.1534 131.902 46.9586C131.74 47.1534 131.707 47.2021 131.659 47.2346C131.091 47.6241 130.149 47.7053 129.938 48.3221C129.727 48.8902 130.036 49.6531 130.149 50.5297Z" fill="#FAC824"/>
<path d="M69.928 45.0435C70.3663 45.0435 70.7883 45.1084 71.1454 45.3843C71.3889 45.5629 71.4863 45.8226 71.3727 46.0985C71.259 46.3583 71.0156 46.3907 70.7558 46.342C70.2851 46.2609 69.6196 45.8064 69.4248 46.4881C69.2463 47.1212 70.1066 47.1049 70.5124 47.3322C71.2103 47.7218 71.6811 48.225 71.5674 49.069C71.4538 49.8969 70.9182 50.3189 70.1228 50.5137C69.4735 50.6598 68.8891 50.5299 68.321 50.254C67.9801 50.0916 67.7042 49.8482 67.8665 49.4261C68.0288 49.0366 68.3859 49.1015 68.7106 49.1826C68.9378 49.2476 69.1651 49.345 69.4086 49.4099C69.7494 49.4911 70.0741 49.4748 70.2364 49.1015C70.3987 48.7281 70.1552 48.4847 69.8468 48.3386C69.6521 48.2412 69.4573 48.16 69.2463 48.0789C68.2561 47.6568 67.9152 47.1536 68.0775 46.3907C68.2399 45.5467 68.9378 45.0435 69.928 45.0435Z" fill="#E82D2E"/>
<path d="M120.783 45.0434C121.221 45.0434 121.644 45.1083 122.001 45.4005C122.228 45.5953 122.325 45.8387 122.195 46.1147C122.066 46.3906 121.822 46.3906 121.562 46.3419C121.351 46.2932 121.157 46.2121 120.946 46.1796C120.686 46.1309 120.377 46.0985 120.264 46.4393C120.166 46.764 120.377 46.9263 120.653 47.0399C120.929 47.1536 121.205 47.2672 121.465 47.397C122.147 47.7541 122.52 48.306 122.406 49.1176C122.293 49.8805 121.806 50.2701 121.092 50.4811C120.329 50.6922 119.647 50.5298 118.998 50.1403C118.754 49.9942 118.576 49.7669 118.689 49.4585C118.819 49.1014 119.111 49.0689 119.42 49.1501C119.728 49.2313 120.037 49.3611 120.345 49.426C120.653 49.491 120.946 49.4423 121.059 49.0852C121.157 48.7443 121.027 48.5008 120.718 48.3547C120.524 48.2573 120.329 48.1924 120.118 48.095C119.03 47.6243 118.738 47.186 118.933 46.277C119.111 45.4979 119.809 45.0271 120.783 45.0434Z" fill="#E82D2E"/>
<path d="M77.3461 48.2899C77.3461 47.9165 77.3298 47.527 77.3461 47.1536C77.3785 46.6017 77.3948 46.1148 76.6156 46.131C76.3072 46.131 76.0313 45.9362 76.0475 45.5629C76.0637 45.2058 76.3234 45.0435 76.6481 45.0435C77.5408 45.0435 78.4336 45.0435 79.3264 45.0759C79.6673 45.0922 79.8945 45.2545 79.8945 45.6278C79.8945 46.0011 79.6186 46.1797 79.3101 46.1797C78.5797 46.1472 78.5635 46.6017 78.5635 47.1212C78.5797 47.9328 78.5472 48.7444 78.5472 49.556C78.5472 50.0267 78.5797 50.5299 77.8817 50.5137C77.1837 50.4974 77.2811 49.9618 77.2811 49.5073C77.2811 49.1015 77.2811 48.6957 77.2811 48.2899C77.2974 48.2899 77.3136 48.2899 77.3461 48.2899Z" fill="#E82D2E"/>
<path d="M104.194 47.8026C104.194 48.4843 104.194 49.1498 104.194 49.8316C104.194 50.2536 104.015 50.4809 103.561 50.4809C103.123 50.4809 102.993 50.2212 102.977 49.8641C102.96 48.4843 102.944 47.1208 102.96 45.7411C102.96 45.4002 103.123 45.0918 103.545 45.108C103.967 45.1243 104.178 45.384 104.178 45.7898C104.178 46.4553 104.178 47.1371 104.194 47.8026C104.178 47.8026 104.178 47.8026 104.194 47.8026Z" fill="#E42C2D"/>
<path d="M63.2404 40.3847C63.1917 40.0763 63.078 39.7678 62.9807 39.4594C62.2827 37.398 61.6009 35.3365 60.9029 33.2588C60.5945 32.3498 60.3348 31.4083 59.9777 30.5155C59.6368 29.6715 59.0849 29.0547 58.0623 29.0384C57.0559 29.0222 56.4716 29.5903 56.0658 30.4019C55.9359 30.6616 55.8385 30.9376 55.7411 31.2298C54.7834 33.973 53.8257 36.7 52.868 39.4432C52.7382 39.8003 52.5759 40.1412 52.6246 40.4983C52.6083 41.3911 52.9979 41.9267 53.7446 42.0728C54.4426 42.2189 55.0269 41.8131 55.3191 41.0015C55.8548 39.5406 55.8548 39.5406 57.3968 39.5244C57.5591 39.5244 57.7215 39.5406 57.8838 39.5244C59.2148 39.3458 60.2537 39.5244 60.4971 41.18C60.6108 41.9267 61.4711 42.2351 62.1853 42.0403C62.9482 41.8293 63.354 41.2125 63.2404 40.3847ZM62.1041 41.7969C61.9905 41.8293 61.8769 41.8456 61.747 41.8456C61.2925 41.8456 60.8056 41.6183 60.7244 41.1313C60.5296 39.8165 59.8479 39.216 58.598 39.216C58.3707 39.216 58.111 39.2322 57.8188 39.2809C57.7701 39.2809 57.7215 39.2971 57.6403 39.2971C57.5916 39.2971 57.5591 39.2971 57.5104 39.2971C57.4617 39.2971 57.413 39.2971 57.3806 39.2971H57.3643C55.7249 39.3134 55.6275 39.362 55.0594 40.9366C54.8321 41.5371 54.4588 41.878 53.9718 41.878C53.9069 41.878 53.8257 41.878 53.7446 41.8618C53.1115 41.7319 52.8031 41.2937 52.8194 40.5308V40.5145V40.4983C52.7869 40.2548 52.8843 39.9951 52.9817 39.7192C52.9979 39.6542 53.0304 39.6055 53.0466 39.5406C54.0043 36.7974 54.962 34.0541 55.9197 31.3272C56.0171 31.0512 56.1145 30.7753 56.2443 30.5318C56.6664 29.6715 57.202 29.2981 57.9812 29.2981H58.0299C58.8415 29.3144 59.3771 29.7364 59.718 30.6292C59.9615 31.2298 60.1563 31.879 60.351 32.4959C60.4484 32.788 60.5458 33.0802 60.6432 33.3724L61.3737 35.5313C61.8282 36.8785 62.2827 38.2096 62.7209 39.5568L62.7696 39.6867C62.8508 39.9464 62.9482 40.1899 62.9807 40.4496C63.0943 41.1151 62.7696 41.6183 62.1041 41.7969Z" fill="#9CA2A9"/>
<path d="M62.7859 39.6544L62.7372 39.5246C62.2827 38.1773 61.8444 36.8463 61.3899 35.499L60.6595 33.3401C60.5621 33.048 60.4647 32.7558 60.3673 32.4636C60.1725 31.8468 59.9615 31.2137 59.7343 30.5969C59.3772 29.7041 58.8415 29.2821 58.0461 29.2659H57.9974C57.2345 29.2659 56.6988 29.6554 56.2606 30.4995C56.1307 30.743 56.0333 31.0189 55.9359 31.2949C54.9782 34.0381 54.0205 36.7651 53.0628 39.5083C53.0466 39.5733 53.0141 39.622 52.9979 39.6869C52.9005 39.9628 52.8031 40.2225 52.8356 40.466V40.4823V40.4985C52.8194 41.2614 53.1278 41.6997 53.7608 41.8295C53.842 41.8458 53.9069 41.8458 53.9881 41.8458C54.4588 41.8458 54.8484 41.5049 55.0756 40.9043C55.6438 39.346 55.7249 39.2811 57.3806 39.2649H57.3968C57.4455 39.2649 57.4942 39.2649 57.5267 39.2649C57.5754 39.2649 57.6078 39.2649 57.6565 39.2649C57.7215 39.2649 57.7864 39.2649 57.8351 39.2486C58.1273 39.2162 58.387 39.1837 58.6142 39.1837C59.8641 39.1837 60.5296 39.8005 60.7407 41.0991C60.8218 41.586 61.3088 41.8133 61.7633 41.8133C61.8769 41.8133 62.0068 41.7971 62.1204 41.7646C62.7859 41.586 63.1106 41.0829 63.0132 40.3849C62.9645 40.1576 62.8671 39.9141 62.7859 39.6544ZM59.1824 36.4242C58.9389 36.7326 58.4519 36.9112 57.8351 36.9112H57.8026C57.3644 36.9112 56.8287 36.8625 56.5852 36.4892C56.3904 36.197 56.4067 35.7912 56.6339 35.1906C56.7638 34.8497 56.8936 34.5088 57.0235 34.1842C57.1209 33.9407 57.3157 33.4375 57.3157 33.4375C57.3806 33.259 57.5105 32.9506 57.9 32.9506C58.176 32.9506 58.387 33.1129 58.4844 33.3888C58.5331 33.5349 58.598 33.681 58.6467 33.8271C58.8902 34.4601 59.1337 35.1094 59.3122 35.7749C59.3609 36.0022 59.3285 36.2294 59.1824 36.4242Z" fill="#F9F9FA"/>
<path d="M58.6467 33.8109C58.598 33.6648 58.5331 33.5187 58.4844 33.3726C58.387 33.0966 58.1597 32.9343 57.9 32.9343C57.5105 32.9343 57.3806 33.259 57.3157 33.4213C57.3157 33.4213 57.1209 33.9245 57.0235 34.168C56.8936 34.5088 56.7638 34.8335 56.6339 35.1744C56.4067 35.7912 56.3904 36.197 56.5852 36.4729C56.8287 36.8463 57.3644 36.895 57.8026 36.895H57.8351C58.4519 36.895 58.9551 36.7164 59.1824 36.408C59.3285 36.2132 59.3772 35.986 59.3122 35.7425C59.1174 35.0932 58.874 34.4439 58.6467 33.8109ZM57.8026 36.6677C56.7151 36.6515 56.4716 36.2944 56.8612 35.2717C57.0884 34.6874 57.2994 34.1193 57.5267 33.5511C57.5916 33.3726 57.6566 33.194 57.9 33.194C58.0948 33.194 58.2084 33.3401 58.2571 33.47C58.5493 34.2491 58.8577 35.0283 59.0687 35.8236C59.2148 36.3431 58.6467 36.6839 57.8026 36.6677Z" fill="#9CA2A9"/>
<path d="M77.5895 40.0925C77.5895 40.4334 77.6058 40.5957 77.5895 40.758C77.5408 41.3586 77.1513 41.6833 76.6156 41.7969C76.0962 41.8943 75.7391 41.6183 75.5281 41.1476C75.1547 40.2873 75.1547 39.3621 74.9924 38.4531C74.8463 37.6577 74.7652 36.8461 74.6191 36.0507C74.5704 35.791 74.5217 35.4664 74.197 35.4177C73.8237 35.369 73.7263 35.6936 73.6451 36.002C73.288 37.333 72.9309 38.6641 72.5414 39.9789C72.4277 40.3685 72.233 40.7256 72.0869 41.0989C71.8758 41.6021 71.47 41.8131 70.9344 41.8293C70.3663 41.8293 69.928 41.5859 69.7332 41.0502C69.2462 39.7029 68.808 38.3394 68.3372 36.9922C68.2723 36.8136 68.2399 36.6188 68.1749 36.4565C68.0451 36.1481 68.0288 35.6774 67.5581 35.7261C67.1361 35.7748 67.1361 36.2455 67.0711 36.5701C66.8764 37.6577 66.7303 38.7615 66.5355 39.849C66.4706 40.1899 66.4056 40.547 66.292 40.8716C66.0972 41.4398 65.7563 41.9267 65.0584 41.7969C64.3766 41.667 64.052 41.1638 64.1169 40.4821C64.1981 39.5731 64.3117 38.6641 64.4415 37.7551C64.75 35.5151 65.0584 33.2588 65.3992 31.035C65.5778 29.8338 66.2433 29.3306 67.3796 29.3469C68.3048 29.3631 68.7106 29.9312 68.9703 30.7103C69.4897 32.2686 70.0254 33.8269 70.5448 35.3852C70.6584 35.7261 70.6909 36.1968 71.2103 36.1481C71.6486 36.0994 71.6811 35.6936 71.7622 35.3527C72.0869 33.9568 72.4115 32.5608 72.7361 31.1811C73.0608 29.8176 73.5315 29.3306 74.5379 29.3306C75.6742 29.3144 76.4533 29.9637 76.5831 31.0999C76.8753 33.6808 77.135 36.2455 77.411 38.8264C77.4759 39.2971 77.5408 39.7841 77.5895 40.0925Z" fill="#FEFEFE"/>
<path d="M79.2289 35.6936C79.3101 34.0055 79.1478 32.3823 79.3426 30.7753C79.4562 29.8987 79.8133 29.5092 80.6898 29.4929C82.0695 29.4605 83.4493 29.4929 84.829 29.4929C85.4133 29.4929 85.738 29.7689 85.7217 30.3857C85.7055 30.9214 85.9003 31.5382 85.0238 31.668C84.2446 31.7817 83.4655 31.733 82.6864 31.7654C81.7449 31.7979 81.469 32.0739 81.469 33.064C81.469 34.0217 81.7774 34.3301 82.7188 34.3626C83.2869 34.3788 83.8551 34.3463 84.4232 34.3788C85.2348 34.4113 85.5432 34.7522 85.5107 35.5638C85.4783 36.2293 85.2348 36.7 84.4394 36.6675C83.8713 36.6351 83.3032 36.6351 82.7351 36.6838C82.102 36.7325 81.68 37.0246 81.6475 37.7389C81.5988 38.6803 81.8423 39.1348 82.5565 39.3134C83.3032 39.4919 84.0661 39.3783 84.8128 39.3783C85.527 39.3783 85.8516 39.6867 85.8516 40.4009C85.8678 41.2775 85.6406 41.6346 84.8614 41.6508C83.4493 41.6833 82.0533 41.6995 80.6411 41.6508C79.6834 41.6183 79.4562 41.3099 79.3263 40.3685C79.1316 38.7777 79.3101 37.2032 79.2289 35.6936Z" fill="#FEFEFE"/>
<path d="M98.1394 46.5366C97.7173 45.4977 96.8408 45.0757 95.7533 45.0595C95.3475 45.0595 94.9417 45.0757 94.5359 45.0595C93.984 45.0432 93.7567 45.3354 93.7567 45.8549C93.7567 46.4554 93.7567 47.0398 93.7567 47.6404C93.7567 48.3708 93.7567 49.085 93.7567 49.8155C93.7567 50.059 93.7892 50.2862 94.0651 50.4323C94.9741 50.9193 97.1654 50.4648 97.7985 49.6045C98.5127 48.663 98.5614 47.5917 98.1394 46.5366ZM96.4025 49.1337C96.0779 49.3448 95.7046 49.4422 95.3312 49.2961C94.9254 49.1337 94.9741 48.7442 94.9579 48.4033C94.9579 48.1923 94.9579 47.9813 94.9579 47.754C94.9579 47.5592 94.9579 47.3807 94.9579 47.1859C94.9579 46.8126 94.9092 46.3905 95.3637 46.2282C95.7533 46.0983 96.1591 46.1633 96.5162 46.423C97.2628 46.9911 97.1979 48.6305 96.4025 49.1337Z" fill="#E92D2E"/>
<path d="M111.774 45.0435C110.232 45.0435 109.226 46.1472 109.242 47.7867C109.258 49.4261 110.313 50.5461 111.807 50.5299C113.316 50.5137 114.355 49.3774 114.355 47.7542C114.355 46.131 113.316 45.0435 111.774 45.0435ZM111.726 49.345C110.995 49.345 110.508 48.6794 110.524 47.738C110.541 46.8128 111.076 46.1797 111.823 46.1797C112.57 46.1797 113.089 46.829 113.105 47.7542C113.105 48.6307 112.489 49.345 111.726 49.345Z" fill="#E92D2E"/>
<path d="M119.485 40.2386C119.322 39.7354 119.03 39.3296 118.689 38.9401C118.218 38.4206 117.764 37.885 117.277 37.3818C117.001 37.0896 116.904 36.9598 117.374 36.7163C118.981 35.9047 119.679 34.3788 119.403 32.4472C119.176 30.8889 117.975 29.7365 116.271 29.3631C115.199 29.1196 114.112 29.2333 113.04 29.2333C111.206 29.217 110.752 29.6715 110.752 31.522C110.735 34.4113 110.752 37.3169 110.752 40.2062C110.752 40.4172 110.752 40.6444 110.784 40.8555C110.93 41.8294 111.287 42.1053 112.342 42.0566C113.284 42.0079 113.544 41.7482 113.592 40.7581C113.641 39.7192 113.69 38.6804 113.738 37.6253C113.868 37.674 113.933 37.674 113.966 37.6902C114.777 38.7291 115.589 39.7841 116.4 40.823C116.66 41.1639 116.936 41.5047 117.261 41.7807C117.78 42.2352 118.397 42.3326 118.965 41.9105C119.517 41.4885 119.696 40.9204 119.485 40.2386ZM114.842 34.8171C114.177 34.8009 113.82 34.2815 113.836 33.34C113.852 32.4797 114.193 32.0901 114.956 32.0901C115.897 32.0901 116.4 32.5609 116.384 33.4374C116.352 34.3302 115.784 34.8496 114.842 34.8171Z" fill="#9EA3A8"/>
<path d="M119.257 40.3197C119.127 39.9139 118.916 39.5568 118.511 39.1023L118.3 38.8588C117.91 38.4206 117.52 37.9661 117.098 37.544C116.936 37.3817 116.758 37.1869 116.806 36.9597C116.839 36.7324 117.066 36.6026 117.277 36.489C118.77 35.7423 119.436 34.3138 119.176 32.4634C118.965 31.035 117.845 29.9312 116.238 29.5741C115.654 29.4442 115.069 29.428 114.582 29.428C114.355 29.428 114.144 29.428 113.917 29.4442C113.69 29.4442 113.462 29.4604 113.251 29.4604C113.187 29.4604 112.943 29.4604 112.943 29.4604C111.352 29.4604 111.011 29.8175 111.011 31.5057C111.011 33.7782 111.011 36.0994 111.011 38.3394V40.1899C111.011 40.3847 111.011 40.5957 111.044 40.8067C111.157 41.6021 111.385 41.7969 112.131 41.7969C112.196 41.7969 112.278 41.7969 112.342 41.7969C113.154 41.7644 113.316 41.5858 113.365 40.7255C113.398 40.0113 113.43 39.2809 113.462 38.5504L113.527 37.2681L113.836 37.3655C113.884 37.3817 113.917 37.3817 113.949 37.3979C114.014 37.4142 114.112 37.4304 114.177 37.5278C114.485 37.9336 114.81 38.3394 115.118 38.7452C115.621 39.3945 116.108 40.0276 116.611 40.6768C116.871 41.0177 117.147 41.3424 117.439 41.6021C117.699 41.8293 117.959 41.9429 118.218 41.9429C118.429 41.9429 118.64 41.8618 118.835 41.7157C119.29 41.3586 119.436 40.8879 119.257 40.3197ZM114.81 35.1579C113.933 35.1092 113.414 34.395 113.462 33.2912C113.511 32.2199 113.998 31.7329 115.021 31.7654C116.141 31.7979 116.725 32.4147 116.693 33.5022C116.66 34.5411 115.913 35.2066 114.81 35.1579Z" fill="#FBFBFB"/>
<path d="M115.037 31.7655C114.014 31.733 113.527 32.2038 113.479 33.2913C113.43 34.3951 113.949 35.1255 114.826 35.158C115.914 35.2067 116.676 34.5412 116.709 33.5023C116.741 32.4148 116.157 31.7979 115.037 31.7655ZM114.842 34.8171C114.177 34.8009 113.82 34.2815 113.836 33.34C113.852 32.4797 114.193 32.0901 114.956 32.0901C115.897 32.0901 116.401 32.5609 116.384 33.4374C116.352 34.3302 115.784 34.8496 114.842 34.8171Z" fill="#9EA3AA"/>
<path d="M149.839 40.2386C149.676 39.7354 149.384 39.3296 149.043 38.9401C148.573 38.4206 148.118 37.885 147.631 37.3818C147.355 37.0896 147.258 36.9598 147.729 36.7163C149.336 35.9047 150.034 34.3788 149.758 32.4472C149.53 30.8889 148.329 29.7365 146.625 29.3631C145.553 29.1196 144.466 29.2333 143.395 29.2333C141.56 29.217 141.106 29.6715 141.106 31.522C141.09 34.4113 141.106 37.3169 141.106 40.2062C141.106 40.4172 141.106 40.6444 141.138 40.8555C141.284 41.8294 141.642 42.1053 142.697 42.0566C143.638 42.0079 143.898 41.7482 143.946 40.7581C143.995 39.7192 144.044 38.6804 144.093 37.6253C144.222 37.674 144.287 37.674 144.32 37.6902C145.131 38.7291 145.943 39.7841 146.755 40.823C147.014 41.1639 147.29 41.5047 147.615 41.7807C148.134 42.2352 148.751 42.3326 149.319 41.9105C149.871 41.4885 150.05 40.9204 149.839 40.2386ZM145.196 34.8171C144.531 34.8009 144.174 34.2815 144.19 33.34C144.206 32.4797 144.547 32.0901 145.31 32.0901C146.251 32.0901 146.755 32.5609 146.738 33.4374C146.706 34.3302 146.138 34.8496 145.196 34.8171Z" fill="#9EA3A8"/>
<path d="M149.611 40.3197C149.482 39.9139 149.271 39.5568 148.865 39.1023L148.654 38.8588C148.264 38.4206 147.875 37.9661 147.453 37.544C147.29 37.3817 147.112 37.1869 147.16 36.9597C147.193 36.7324 147.42 36.6026 147.631 36.489C149.124 35.7423 149.79 34.3138 149.53 32.4634C149.319 31.035 148.199 29.9312 146.592 29.5741C146.008 29.4442 145.424 29.428 144.937 29.428C144.709 29.428 144.498 29.428 144.271 29.4442C144.044 29.4442 143.817 29.4604 143.606 29.4604C143.541 29.4604 143.297 29.4604 143.297 29.4604C141.706 29.4604 141.366 29.8175 141.366 31.5057C141.366 33.7782 141.366 36.0994 141.366 38.3394V40.1899C141.366 40.3847 141.366 40.5957 141.398 40.8067C141.512 41.6021 141.739 41.7969 142.486 41.7969C142.55 41.7969 142.632 41.7969 142.697 41.7969C143.508 41.7644 143.67 41.5858 143.719 40.7255C143.752 40.0113 143.784 39.2809 143.817 38.5504L143.882 37.2681L144.19 37.3655C144.239 37.3817 144.271 37.3817 144.304 37.3979C144.368 37.4142 144.466 37.4304 144.531 37.5278C144.839 37.9336 145.164 38.3394 145.472 38.7452C145.975 39.3945 146.462 40.0276 146.966 40.6768C147.225 41.0177 147.501 41.3424 147.793 41.6021C148.053 41.8293 148.313 41.9429 148.573 41.9429C148.784 41.9429 148.995 41.8618 149.189 41.7157C149.644 41.3586 149.79 40.8879 149.611 40.3197ZM145.164 35.1579C144.287 35.1092 143.768 34.395 143.817 33.2912C143.865 32.2199 144.352 31.7329 145.375 31.7654C146.495 31.7979 147.079 32.4147 147.047 33.5022C147.014 34.5411 146.268 35.2066 145.164 35.1579Z" fill="#FBFBFB"/>
<path d="M145.391 31.7655C144.369 31.733 143.882 32.2038 143.833 33.2913C143.784 34.3951 144.304 35.1255 145.18 35.158C146.268 35.2067 147.031 34.5412 147.063 33.5023C147.096 32.4148 146.511 31.7979 145.391 31.7655ZM145.196 34.8171C144.531 34.8009 144.174 34.2815 144.19 33.34C144.206 32.4797 144.547 32.0901 145.31 32.0901C146.251 32.0901 146.755 32.5609 146.738 33.4374C146.706 34.3302 146.138 34.8496 145.196 34.8171Z" fill="#9EA3AA"/>
<path d="M91.9063 42.1704C91.2083 42.1704 90.5103 42.1379 89.8286 42.1054L89.5201 42.0892C88.319 42.0405 88.0755 41.4399 88.0755 40.4822C88.0755 39.5408 88.0268 38.5993 87.9781 37.6741C87.9132 36.4891 87.8482 35.2717 87.8807 34.0705C87.8807 33.7621 87.8807 33.4537 87.8807 33.1291C87.8807 32.4311 87.8807 31.7006 87.8807 30.9864C87.8969 29.7041 88.3839 29.1847 89.5851 29.136C90.4941 29.0873 91.2245 29.071 91.9063 29.071C92.5718 29.071 93.1724 29.0873 93.7567 29.136C94.8118 29.2009 95.7046 29.6554 96.2727 30.3858C96.8408 31.1163 97.0356 32.0902 96.8246 33.1128C96.6948 33.7621 96.3539 34.2816 95.802 34.6387C95.6884 34.7036 95.6397 34.7685 95.6072 34.801C95.6397 34.8172 95.7046 34.8497 95.802 34.8821C97.4414 35.434 98.2206 36.6352 98.107 38.4532C97.9933 40.2225 96.9545 41.4399 95.1527 41.8619C94.195 42.073 93.1724 42.1704 91.9063 42.1704ZM92.4419 39.1999C92.5069 39.1999 92.5718 39.1999 92.6205 39.1999C92.6854 39.1999 92.7666 39.1999 92.8315 39.1999C93.4483 39.1999 93.8541 39.0863 94.1463 38.8103C94.406 38.5831 94.5034 38.2422 94.4385 37.9013C94.3573 37.4793 94.0327 37.1384 93.6107 36.9923C93.286 36.8787 92.9127 36.8138 92.588 36.8138C92.1173 36.8138 91.744 36.9436 91.6628 37.1222C91.4193 37.6416 91.4193 38.2747 91.679 38.8752C91.7764 39.135 91.9712 39.1674 92.3445 39.1674L92.4419 39.1999ZM92.2147 31.9928C91.3706 31.9928 91.257 32.1714 91.257 32.8531C91.257 33.2752 91.3219 33.5349 91.4518 33.6647C91.5979 33.8108 91.8738 33.8758 92.3283 33.8758C93.0588 33.8758 93.5133 33.5186 93.5295 32.9505C93.5295 32.707 93.4646 32.5123 93.3185 32.3499C93.1075 32.1227 92.7016 31.9928 92.2147 31.9928Z" fill="#9CA2A9"/>
<path d="M95.7046 35.1093C95.0878 34.9145 95.2988 34.6872 95.6559 34.4438C96.1429 34.1029 96.4513 33.6484 96.5649 33.064C96.9545 31.1162 95.7695 29.5092 93.708 29.3793C92.3283 29.2819 90.9486 29.3144 89.5689 29.3793C88.4813 29.428 88.108 29.8825 88.0917 31.0026C88.0755 32.0252 88.0917 33.064 88.0917 34.0867C88.0431 36.2293 88.2865 38.3557 88.2865 40.4821C88.2865 41.456 88.5462 41.8131 89.5039 41.8456C91.3544 41.9268 93.2373 42.0404 95.0553 41.6021C96.7434 41.1963 97.7174 40.0763 97.8148 38.4206C97.9284 36.8623 97.344 35.6612 95.7046 35.1093ZM92.2147 31.7492C93.2049 31.7492 93.8054 32.22 93.7892 32.9504C93.773 33.6646 93.2049 34.1191 92.3446 34.1191C91.3382 34.1191 91.0135 33.8107 91.0298 32.8368C91.0135 31.9927 91.2895 31.7492 92.2147 31.7492ZM94.3086 39.005C93.8704 39.3946 93.3023 39.4757 92.588 39.4433C92.2472 39.4108 91.679 39.5406 91.4518 38.9888C91.1921 38.3557 91.1596 37.674 91.4518 37.0409C91.679 36.5539 92.7504 36.4565 93.6918 36.7812C94.7144 37.1058 95.0553 38.3395 94.3086 39.005Z" fill="white"/>
<path d="M61.2275 44.2156L62.38 46.4069L64.8311 45.9849L63.0942 47.7704L64.2629 49.978L62.0229 48.8742L60.2861 50.6597L60.6432 48.1924L58.4194 47.0887L60.8704 46.6666L61.2275 44.2156Z" fill="#FAC824"/>
<path d="M129.224 44.2156L128.071 46.4069L125.62 45.9849L127.357 47.7704L126.188 49.978L128.429 48.8742L130.165 50.6597L129.808 48.1924L132.032 47.0887L129.581 46.6666L129.224 44.2156Z" fill="#FAC824"/>
<path d="M30.1268 42.3489C30.9384 43.2741 30.9546 44.1182 30.1268 45.157C29.8184 45.5466 29.3964 45.8712 29.0393 46.2284C28.8445 46.4718 28.6172 46.6829 28.325 46.8289C26.4746 47.673 24.5267 48.0463 22.5302 48.2574C18.4884 48.6632 14.479 48.3385 10.4859 47.7542C9.2036 47.5756 7.9375 47.2672 6.72009 46.8289C6.41168 46.7153 6.1682 46.5205 5.98964 46.2446C4.3502 45.3356 4.10672 44.2967 5.2105 42.8358C5.45398 42.7709 5.63254 42.9008 5.79486 43.0306C6.96357 43.8747 8.32707 44.2156 9.72303 44.3941C10.0801 44.4428 10.4048 44.5077 10.7132 44.7188C12.3851 45.9037 14.2518 45.9037 16.1347 45.4979C16.8165 45.3518 17.4171 45.3518 18.0988 45.4979C19.9493 45.8712 21.7997 45.9686 23.4716 44.8162C23.78 44.6051 24.1209 44.5727 24.478 44.5727C26.2149 44.6051 27.7569 44.0695 29.1366 43.0144C29.2827 42.9008 29.4451 42.7871 29.6398 42.8034C29.9645 43.5014 29.3964 43.826 29.0068 44.1669C28.0329 45.0272 26.8804 45.4817 25.598 45.6602C24.4293 45.7576 23.2768 45.9524 22.2218 46.5043C21.8647 46.6829 21.4751 46.7802 21.0693 46.7965C20.0304 47.0562 18.9916 46.9426 17.9689 46.6666C17.3846 46.5205 16.8165 46.4718 16.2159 46.6179C14.7225 46.8939 13.2616 46.9101 11.8007 46.4394C10.3074 45.4817 8.57055 45.3518 6.75255 44.946C8.22968 46.2933 9.96651 46.5692 11.7033 46.8127C13.3266 46.9588 14.9335 47.1698 16.5568 47.1211C18.0339 47.0887 19.511 47.186 20.9881 46.975C22.5951 46.975 24.1696 46.7315 25.7441 46.3744C27.1563 46.0498 28.5361 45.6115 29.5749 44.5077C30.2242 43.826 30.2567 43.5014 29.8509 42.7384C29.7697 42.4787 29.8671 42.3651 30.1268 42.3489Z" fill="#794826"/>
<path d="M5.66499 38.1123C5.37281 36.2132 6.24935 34.6873 7.35313 33.3076C12.3202 27.2206 21.6536 26.8959 27.0265 32.6259C28.0653 33.7297 28.9094 34.9795 29.2665 36.5053C29.4126 37.1059 29.4126 37.6741 29.234 38.2584C29.3152 38.6967 28.9419 38.8752 28.7146 39.1512C27.481 40.1251 25.9714 40.3524 24.478 40.5958C20.907 41.164 17.3197 41.0016 13.7324 40.9042C11.6222 40.8393 9.47954 40.5958 7.48299 39.8005C6.99603 39.6057 6.54153 39.3947 6.18442 39.0051C5.9734 38.7291 5.58383 38.5506 5.66499 38.1123Z" fill="#744C29"/>
<path d="M28.7146 38.9076C28.8769 38.6965 29.0555 38.4855 29.2178 38.2583C30.1755 38.8751 30.208 39.0536 29.6723 40.3684C29.721 40.5957 29.5911 40.758 29.4775 40.9366C29.3964 41.0664 29.3314 41.1801 29.2665 41.3099C29.1691 41.4885 29.0392 41.6346 28.8769 41.7482C27.3024 42.852 25.4682 43.0792 23.6339 43.3389C23.3418 43.3876 23.0496 43.4039 22.7574 43.4688C17.7092 43.9557 12.7097 43.7772 7.77517 42.4786C7.14212 42.3163 6.5253 42.1377 5.94094 41.8618C5.72992 41.7482 5.5676 41.6021 5.43774 41.4073C5.30789 41.1638 5.21049 40.9366 5.30789 40.6606C5.21049 40.3847 5.12933 40.0925 5.01571 39.8166C4.69107 39.0374 4.86962 38.4531 5.66499 38.0959C5.82732 38.307 5.98964 38.518 6.16819 38.7452C6.15196 38.7777 6.11949 38.8264 6.10326 38.8589C5.66499 39.3783 5.95717 40.5957 6.63892 41.0664C6.9311 41.2612 7.25574 41.3911 7.59662 41.4722C9.85288 42.0728 12.1578 42.3001 14.4628 42.4137C15.2744 42.4462 16.086 42.5436 16.8814 42.5273C18.9266 42.4624 20.9719 42.4949 23.0171 42.3325C24.3644 42.2351 25.6954 42.0728 26.994 41.7157C28.0815 41.4235 28.6497 40.6931 28.9905 39.6867C29.1042 39.3621 29.023 39.1673 28.7633 39.0049C28.7633 38.9887 28.7308 38.94 28.7146 38.9076Z" fill="#963528"/>
<path d="M5.98962 46.2285C6.21687 46.3421 6.44412 46.4558 6.67137 46.5694C6.785 46.8129 6.97978 47.0077 7.04471 47.2836C7.28819 48.4361 8.0998 49.0529 9.10619 49.4912C10.9567 50.3028 12.9207 50.6761 14.9173 50.8384C17.7254 51.0819 20.5174 50.9845 23.2768 50.3839C25.5656 49.8807 27.692 49.199 28.3737 46.5532C28.601 46.472 28.7471 46.2123 29.023 46.2285C28.9094 48.3387 27.8705 49.7346 25.8577 50.4651C23.9423 51.1631 21.962 51.5851 19.9492 51.6987C16.4593 51.9097 13.0181 51.6987 9.64185 50.5949C7.49921 49.8807 6.15195 48.5984 5.98962 46.2285Z" fill="#744C29"/>
<path d="M5.30788 40.6768C5.37281 40.8878 5.45397 41.0989 5.5189 41.2936C5.50266 41.3748 5.48643 41.456 5.4702 41.5371C5.4702 42.089 5.81107 42.4137 6.21688 42.7058C7.2882 43.4687 8.52184 43.7609 9.78794 43.8745C10.3398 43.9232 10.8106 44.0693 11.2651 44.4102C12.7747 45.4978 14.4953 45.3517 16.1672 44.9621C16.8651 44.7998 17.4495 44.7998 18.1313 44.9621C19.8519 45.3841 21.5562 45.4166 23.1145 44.394C23.5528 44.1018 24.0073 44.0531 24.5105 44.0693C26.0201 44.1018 27.3673 43.5986 28.6172 42.7708C29.445 42.2189 29.6074 41.7644 29.3801 40.8716C29.4775 40.7093 29.5749 40.547 29.6723 40.3684C30.5164 40.8716 30.4027 41.5858 30.1268 42.3487C30.0456 42.4461 29.9482 42.5435 29.8671 42.6571C29.8508 42.7545 29.7859 42.8195 29.6885 42.8519C28.0978 44.1992 26.2798 44.8647 24.1858 44.7835C23.9586 44.7835 23.78 44.816 23.5852 44.9459C21.7672 46.212 19.7869 46.1146 17.7741 45.6114C17.3034 45.4978 16.9138 45.4978 16.4593 45.6114C14.3492 46.1308 12.3039 46.1957 10.4697 44.7673C10.0477 44.4427 9.52823 44.5725 9.07373 44.5076C7.62907 44.2803 6.3305 43.7772 5.19425 42.8195C4.5125 41.602 4.52874 41.2449 5.30788 40.6768Z" fill="#03693D"/>
<path d="M28.39 46.5693C28.2763 48.1601 27.4323 49.1827 25.9714 49.7995C24.1534 50.5462 22.2542 50.9358 20.3226 51.0819C17.0924 51.3254 13.8622 51.228 10.7294 50.3027C10.0477 50.1079 9.41462 49.8482 8.76533 49.5723C7.40183 49.0204 6.83371 47.9491 6.67139 46.5693C8.76533 47.316 10.9567 47.6244 13.148 47.8517C15.5991 48.1114 18.0501 48.2737 20.5012 48.1601C23.2119 48.0302 25.8902 47.7218 28.39 46.5693Z" fill="#CF8C41"/>
<path d="M11.5248 47.0399C9.98276 46.7802 8.47317 46.4718 7.12591 45.579C6.7688 45.3355 6.55778 45.0271 6.46039 44.4915C8.18099 45.368 10.1938 44.946 11.6709 46.2283C11.7521 46.5205 11.7358 46.8127 11.5248 47.0399Z" fill="#885932"/>
<path d="M25.9714 46.5532C24.3806 46.9591 22.7574 47.2188 21.1017 47.2025C20.9232 46.9915 20.9232 46.7805 21.1017 46.5532C21.6212 46.5208 22.1406 46.3747 22.5464 46.115C23.5203 45.5144 24.5917 45.5793 25.6467 45.417C25.7117 45.8066 26.0201 46.1312 25.9714 46.5532Z" fill="#92613B"/>
<path d="M25.9714 46.5532C25.7928 46.1961 25.3221 45.9201 25.6467 45.4332C27.3186 45.076 28.9094 44.5891 29.7048 42.8523C29.7697 42.7873 29.8184 42.7224 29.8833 42.6575C30.6949 42.9659 30.4352 43.5502 30.1755 44.0372C29.6398 45.0598 28.6659 45.6117 27.6433 46.0337C27.1076 46.2448 26.5233 46.3746 25.9714 46.5532Z" fill="#95643D"/>
<path d="M21.1018 46.5693C21.1018 46.7803 21.1018 46.9913 21.1018 47.2185C19.5922 47.4945 18.0664 47.3484 16.5568 47.3809C16.1997 47.1374 16.0211 46.8452 16.2321 46.4069C16.9626 46.0985 17.6281 46.3745 18.3423 46.5206C19.2351 46.7153 20.1765 46.7965 21.1018 46.5693Z" fill="#8E5E37"/>
<path d="M16.2322 46.3908C16.3458 46.7155 16.4432 47.0401 16.5568 47.3648C14.8687 47.4297 13.1967 47.1862 11.5248 47.0401C11.5573 46.7642 11.4112 46.4558 11.6872 46.2285C13.1805 46.5856 14.7063 46.683 16.2322 46.3908Z" fill="#8B5B35"/>
<path d="M24.9975 31.7495C26.8155 33.0318 28.1465 34.6875 28.6822 36.8951C28.9094 37.8041 28.5523 38.356 27.6109 38.8267C26.1824 39.5409 24.6241 39.7195 23.0659 39.8818C20.2577 40.174 17.4495 40.0766 14.6414 40.0441C12.5961 40.0279 10.5509 39.7681 8.57058 39.2325C8.44072 39.2 8.31086 39.1513 8.18101 39.1189C6.18445 38.4696 5.74619 37.5443 6.67142 35.629C8.24593 32.3663 10.9567 30.4509 14.3654 29.5581C17.6119 28.7141 20.7284 29.1686 23.6827 30.7918C23.8288 30.8729 23.9262 30.9866 24.056 31.1002C24.0073 31.1651 23.9424 31.2138 23.8612 31.2301C23.3905 31.295 23.0496 30.9541 22.6438 30.8405C22.4166 30.7593 22.2056 30.6782 21.9945 30.5808C21.54 30.3698 21.0368 30.3211 20.5661 30.1263C20.3226 30.0126 20.0467 30.0289 19.7707 29.9964C19.5273 29.9802 19.3162 29.8828 19.0728 29.8666C18.878 29.8503 18.667 29.8503 18.4722 29.8503C18.0664 29.8666 17.6768 29.8016 17.271 29.9153C17.1898 29.9315 17.1087 29.9477 17.0275 29.9639C16.8652 29.9802 16.7029 29.9964 16.5405 29.9964C16.4269 29.9964 16.3133 29.9802 16.1834 29.9639C15.9724 29.9153 15.7614 29.8503 15.5342 29.8503C15.2582 29.8341 14.9823 29.8179 14.7063 29.9153C14.6414 29.9477 14.5765 29.9639 14.5278 29.9964C14.3167 30.11 14.3817 30.3697 14.2518 30.5158C14.0246 30.7106 13.7811 30.8405 13.4727 30.8405C13.3104 30.7918 13.1805 30.6619 13.0019 30.6619C12.7422 30.6457 12.4987 30.6457 12.2553 30.7269C12.0605 30.808 11.9144 30.9216 11.7845 31.084C11.606 31.3924 12.0118 31.4248 12.028 31.6521C11.9956 32.0741 11.606 32.204 11.3625 32.4475C10.4373 33.2915 9.65813 34.233 9.12247 35.3692C8.45695 36.7814 8.74913 37.5606 10.2425 38.0475C12.304 38.7293 14.4466 38.8916 16.6055 38.8267C17.5956 38.7293 18.5858 39.0215 19.576 38.8429C21.5725 38.8916 23.5691 38.7618 25.5169 38.3397C26.3123 38.1612 27.0914 37.9664 27.6595 37.3171C27.8543 36.96 27.8706 36.5867 27.7569 36.1971C27.692 35.8724 27.6271 35.5478 27.4648 35.2556C27.3349 34.9472 27.1726 34.6713 26.9778 34.4115C26.6856 34.0057 26.4259 33.5837 26.0526 33.2428C25.9065 33.1292 25.7442 33.0967 25.5818 33.048C25.5169 33.0156 25.452 32.9831 25.4033 32.9344C25.2734 32.7721 25.176 32.5773 25.0462 32.415C24.9813 32.3338 24.9326 32.2364 24.8839 32.1391C24.8676 32.0741 24.8514 31.993 24.8514 31.928C24.9001 31.8631 24.9488 31.7982 24.9975 31.7495Z" fill="#CF8C41"/>
<path d="M6.1682 38.7451C7.5317 39.9138 9.21984 40.1248 10.8917 40.3846C14.3654 40.9364 17.8878 40.7417 21.3777 40.6767C23.2931 40.628 25.2409 40.4333 27.0752 39.7677C27.6595 39.5567 28.2114 39.297 28.7146 38.9074L28.7308 38.9399C29.0717 39.5405 29.0068 39.8002 28.3413 40.0924C27.5134 40.4495 26.6369 40.628 25.7766 40.7904C23.4067 41.2286 21.0368 41.4072 18.6182 41.4721C15.5341 41.5695 12.4987 41.3747 9.47955 40.7904C8.45693 40.5793 7.40184 40.3846 6.46038 39.8976C5.84356 39.5892 5.79486 39.3295 6.1682 38.7938V38.7451Z" fill="#A9322E"/>
<path d="M23.8287 31.1487C23.9099 31.1324 23.9748 31.1324 24.056 31.1162C24.4456 31.2298 24.7702 31.4246 24.9974 31.7493C24.9974 31.8142 24.9812 31.8791 24.9812 31.9603C24.4131 31.9603 23.9911 31.7493 23.8287 31.1487Z" fill="#CF8D43"/>
<path d="M6.15197 38.7777C5.82733 39.2809 6.11951 39.5081 6.55778 39.6867C8.05113 40.3197 9.65811 40.5794 11.2326 40.8716C13.1156 41.2125 15.0309 41.1963 16.9301 41.3099C18.4559 41.4073 19.9817 41.1638 21.5238 41.0826C23.2119 40.9852 24.9001 40.7418 26.5395 40.3846C27.1076 40.2548 27.6758 40.0762 28.2439 39.8977C28.7309 39.7516 28.9743 39.4594 28.7146 38.94C29.2665 38.9238 29.4288 39.1348 29.2503 39.6867C28.8769 40.9365 28.1303 41.7157 26.8317 42.0241C25.0949 42.4137 23.3418 42.6247 21.5725 42.6734C20.2252 42.7058 18.878 42.8357 17.5469 42.787C15.9075 42.7221 14.268 42.7383 12.6448 42.5598C10.8755 42.365 9.12245 42.154 7.41808 41.7157C6.24937 41.4073 5.53515 40.5145 5.51892 39.3296C5.51892 38.8751 5.7624 38.7452 6.15197 38.7777Z" fill="#D8372A"/>
<path d="M5.85973 41.667C10.8917 43.3714 16.0697 43.7447 21.3289 43.3551C21.8321 43.3227 22.3516 43.3227 22.871 43.3064C23.0982 43.1928 23.3255 43.1766 23.4716 43.4363C23.5852 44.0369 23.1632 44.3291 22.7411 44.5725C21.264 45.4004 19.6895 45.4491 18.115 44.9621C17.4657 44.7511 16.9138 44.7186 16.2483 44.9459C14.901 45.4166 13.5375 45.3192 12.1903 44.8972C11.3949 44.6375 11.0053 44.2479 10.8268 43.6311C10.1288 43.9233 9.44703 43.9882 8.76528 43.5986C8.73282 43.5012 8.76528 43.4363 8.86268 43.3876C8.96007 43.3551 9.07369 43.3551 9.04123 43.3389C8.22962 43.2415 7.35309 42.9493 6.52525 42.4786C6.21684 42.3 5.87597 42.1702 5.82727 41.7644C5.82727 41.7319 5.8435 41.6995 5.85973 41.667Z" fill="#8CC041"/>
<path d="M8.73287 43.4851C9.38216 43.6799 10.0639 43.4851 10.6807 43.5825C11.2002 43.6636 11.5248 44.4752 12.1741 44.6863C13.635 45.157 15.0796 45.2219 16.5081 44.6538C16.9626 44.4752 17.3359 44.4752 17.8066 44.6538C19.3487 45.2544 20.907 45.2219 22.4166 44.5239C22.8548 44.3291 23.2931 44.0857 23.3742 43.5175C24.267 43.8584 25.1435 43.7773 26.0363 43.5175C26.361 43.4364 26.7018 43.3552 26.994 43.1767C27.692 42.852 28.325 42.43 28.8769 41.8781C29.0879 41.6995 29.2503 41.4723 29.2016 41.1639C29.2503 41.0665 29.3152 40.9529 29.3639 40.8555C29.932 41.4398 29.932 41.8132 29.2665 42.4787C28.39 43.3552 27.2537 43.7935 26.0688 44.1019C25.9389 44.1344 25.8091 44.1668 25.6792 44.1668C24.4131 44.1831 23.2606 44.5889 22.0919 45.0921C20.7609 45.6602 19.3 45.5953 17.904 45.1245C17.3684 44.946 16.9139 45.0109 16.362 45.1407C14.4141 45.5952 12.4825 45.7738 10.7781 44.3129C10.2425 43.8584 9.47955 44.1344 8.83027 43.972C7.79141 43.7123 6.78502 43.4364 5.95718 42.7709C5.55138 42.4462 4.91833 42.0891 5.38906 41.3587C5.56761 41.5372 5.665 41.7807 5.81109 41.9755C6.41168 42.6085 7.19082 42.9169 8.00243 43.1604C8.24591 43.2903 8.55432 43.2416 8.73287 43.4851Z" fill="#01944B"/>
<path d="M26.1337 43.6473C25.4844 43.9557 24.7864 43.9395 24.0884 43.9719C23.6989 43.9882 23.6177 43.6635 23.3905 43.5174C23.2768 43.2902 23.0658 43.3226 22.871 43.3064C23.9748 43.0954 25.0624 42.9006 26.1662 42.6896C27.1563 42.4948 28.0653 42.1215 28.8931 41.5696C28.9418 41.6345 28.9581 41.7157 28.9418 41.7968C27.8381 43.1928 26.2798 43.5012 24.6079 43.5661C24.965 43.5824 25.3059 43.4687 25.663 43.485C25.8415 43.485 26.0201 43.485 26.1337 43.6473Z" fill="#8CBE40"/>
<path d="M28.8932 41.6997C28.8932 41.651 28.8932 41.6186 28.8932 41.5699C29.0068 41.44 29.1042 41.3102 29.2178 41.1965C29.4613 41.5212 29.3152 41.7809 29.0555 42.0081C28.9257 41.927 28.9743 41.7809 28.8932 41.6997Z" fill="#C0D230"/>
<path d="M5.63252 42.073C5.43773 41.8782 5.38904 41.6347 5.38904 41.375C5.43773 41.3588 5.48643 41.3425 5.51889 41.3101C5.63252 41.4237 5.74614 41.5535 5.85977 41.6672L5.82731 41.7159C5.76238 41.8295 5.81107 42.008 5.63252 42.073Z" fill="#A4C338"/>
<path d="M21.9133 48.6794C23.3255 48.5009 24.7377 48.3223 26.1174 47.9977C26.2635 47.9652 26.4421 47.8191 26.5557 47.9815C26.6856 48.1762 26.5232 48.3223 26.3934 48.4847C25.5656 49.491 24.3644 49.5884 23.1957 49.7995C22.8386 49.7021 22.5139 49.5397 22.2055 49.345C21.9945 49.1989 21.6861 49.0528 21.9133 48.6794Z" fill="#E8B877"/>
<path d="M18.9916 50.2863C17.8553 50.546 16.7191 50.546 15.5828 50.2863C15.2419 49.9941 15.0796 49.6046 15.0147 49.1825C14.9985 49.0202 14.9498 48.7767 15.2582 48.8254C16.3944 48.8254 17.5307 48.8254 18.6669 48.8416C18.5371 49.4422 17.9527 49.0202 17.6281 49.3286C17.7092 49.7344 17.9527 50.0104 18.4072 50.0915C18.6182 50.1077 18.8455 50.1078 18.9916 50.2863Z" fill="#E2A96A"/>
<path d="M13.4727 50.124C12.3851 49.9454 11.2651 49.8481 10.5184 48.8904C10.3723 48.6956 10.1775 48.5495 10.21 48.1599C11.2489 48.3385 12.2877 48.5008 13.3266 48.6793C13.4402 49.1501 13.7648 49.6046 13.4727 50.124Z" fill="#DF9F62"/>
<path d="M18.9916 50.2866C18.3748 50.3028 17.758 50.384 17.4496 49.6373C17.2872 49.2315 17.1898 48.9231 17.8229 48.9718C18.0988 48.988 18.4072 49.0854 18.6507 48.8257C18.9267 48.8257 19.2026 48.8257 19.4623 48.8257C19.998 49.199 20.4687 49.6535 20.9232 50.1243C20.3064 50.4489 19.6409 50.2216 18.9916 50.2866Z" fill="#E4AD6F"/>
<path d="M20.9394 50.1242C20.2577 49.9132 19.8194 49.4262 19.4785 48.8257C20.2901 48.777 21.1017 48.712 21.9133 48.6633C21.9133 49.0691 22.2704 49.1341 22.5302 49.2964C22.7736 49.4425 23.082 49.4912 23.2119 49.7996C22.4652 50.0431 21.7185 50.1567 20.9394 50.1242Z" fill="#E6B273"/>
<path d="M13.4727 50.1241C13.5376 49.6209 13.0506 49.1826 13.3103 48.6632C13.9596 48.7444 14.6251 48.5009 15.2582 48.8255C14.966 49.3936 15.5828 49.7832 15.5828 50.2864C14.8686 50.3189 14.1544 50.3026 13.4727 50.1241Z" fill="#E1A366"/>
<path d="M27.1888 45.3357C28.2926 44.9136 29.1529 44.2481 29.8508 43.3066C30.0294 44.2806 28.4549 45.4493 27.1888 45.3357Z" fill="#A6784D"/>
<path d="M16.5568 39.0863C14.3979 39.1188 12.2715 38.9564 10.21 38.2909C8.55437 37.7553 8.19726 36.895 8.92771 35.3367C9.49583 34.1355 10.2912 33.0966 11.3463 32.2688C11.395 32.3175 11.4275 32.3824 11.4275 32.4636C11.395 32.7558 11.184 32.9505 11.0216 33.1778C11.184 33.5024 11.5735 33.1453 11.7359 33.4213C11.9144 33.9245 12.4338 34.3303 12.2228 34.9471C12.3202 34.9146 12.3527 34.7685 12.4825 34.8497C12.6936 35.077 12.6124 35.3529 12.6124 35.6126C12.6286 36.197 12.8234 36.7002 13.1318 37.1871C13.6999 38.0799 14.5603 38.015 15.4855 37.739C15.729 38.2747 16.4756 38.437 16.5568 39.0863Z" fill="#DF9F63"/>
<path d="M27.9192 37.3006C27.7244 37.9175 27.1726 38.1122 26.6369 38.2746C24.3644 39.0212 21.9945 39.1186 19.6246 39.0862C18.6182 38.7778 17.5631 38.583 16.6217 38.0636C16.297 37.885 15.9399 37.7389 15.875 37.3006C15.8588 37.0409 15.8588 36.7812 16.1022 36.6189C16.6054 36.6514 16.9625 37.0085 17.4008 37.187C18.0176 37.4305 18.6182 37.7551 19.3162 37.7064C19.8681 37.9824 20.4525 38.0149 21.053 38.0636C22.725 38.4207 24.3157 38.0636 25.9227 37.6253C26.3122 37.5117 26.6856 37.3656 27.0752 37.2519C27.3673 37.1546 27.6595 37.0572 27.9192 37.3006Z" fill="#E2A769"/>
<path d="M17.0275 29.8504C17.0924 29.8504 17.1411 29.8342 17.206 29.8342C17.5307 29.7368 17.8553 29.6881 18.1637 29.9153C18.2124 29.9802 18.2449 30.0614 18.2449 30.1426C18.1637 30.4347 17.9365 30.6458 17.8066 30.9055C17.3196 31.9606 17.4495 32.8858 18.2286 33.7461C18.5858 34.1519 19.024 34.4765 19.3811 34.8823C19.4948 35.2882 19.2837 35.5966 19.0403 35.8887C18.9753 35.9374 19.0403 36.116 18.9591 36.1322C17.5631 36.0348 15.6315 33.7786 15.8101 32.5125C15.9237 32.269 16.1672 32.2527 16.3782 32.1391C16.573 32.0255 16.7353 31.9119 16.5243 31.6684C16.2159 31.0516 16.3944 30.4347 17.0275 29.8504Z" fill="#E6B374"/>
<path d="M23.8288 31.1489C24.1372 31.5223 24.5754 31.7171 24.9812 31.9606C24.9812 32.0093 24.9975 32.0579 24.9975 32.1066C24.7702 32.269 24.5917 32.4962 24.4456 32.7397C23.5853 33.4864 22.5951 33.6325 21.5238 33.2916C21.1829 33.178 20.907 32.9832 20.7447 32.6423C20.5499 32.3501 21.118 32.1229 20.8258 31.8145C20.4687 31.3275 20.6148 30.873 21.1829 30.6944C21.4264 30.6295 21.6537 30.6944 21.8809 30.7269C22.1569 30.7107 22.449 30.8892 22.7087 30.6458C23.0821 30.8243 23.4554 30.9866 23.8288 31.1489Z" fill="#ECC380"/>
<path d="M26.1337 33.0806C26.5882 33.4052 26.8966 33.8597 27.1076 34.3629C27.1726 34.8499 26.783 35.0122 26.4746 35.1907C25.2085 35.9699 23.7963 36.2783 22.3192 36.2458C22.027 36.0997 21.9783 35.7913 21.8322 35.5479C21.7835 35.4342 21.7835 35.3044 21.7997 35.1907C21.8484 34.996 21.8809 34.8012 21.9783 34.6064C22.1893 34.3142 22.5302 34.298 22.8548 34.233C23.2606 34.2006 23.6015 34.4603 23.9748 34.5415C24.3482 34.6389 24.7378 34.8174 24.9975 34.3304C25.1923 33.9409 25.6468 33.7785 25.8415 33.389C25.9227 33.2754 25.9876 33.1617 26.1337 33.0806Z" fill="#E8B676"/>
<path d="M21.9458 35.5153C22.2055 35.6614 22.2542 35.9049 22.2379 36.1646C22.384 36.749 22.7898 36.7977 23.3093 36.7327C24.8513 36.5379 26.3122 36.0997 27.5945 35.1907C27.8867 35.4504 27.9354 35.7913 27.9192 36.1646C27.9679 36.4243 27.8218 36.5866 27.627 36.684C25.6954 37.6904 23.6826 38.2585 21.475 37.8852C21.3939 37.8203 21.1666 37.804 21.2153 37.7229C21.5237 37.0411 21.6698 36.1971 21.9458 35.5153Z" fill="#E4AD6E"/>
<path d="M27.5946 35.1904C27.4648 35.6611 27.0265 35.791 26.6531 35.9858C25.452 36.6026 24.1372 36.8785 22.8061 36.9759C22.2218 37.0246 21.8971 36.8136 22.238 36.1643C23.2606 35.9208 24.3482 35.9858 25.3546 35.5313C26.0201 35.2391 26.6856 34.9794 27.1239 34.3625C27.4161 34.5573 27.5297 34.8657 27.5946 35.1904Z" fill="#E5B172"/>
<path d="M21.3615 37.7715C23.4392 37.9176 25.4195 37.5605 27.2862 36.6353C27.5297 36.5217 27.8056 36.4405 27.903 36.1646C28.1465 36.5541 28.1465 36.9275 27.903 37.317C26.783 37.4144 25.7928 38.0475 24.689 38.1936C23.6339 38.3234 22.5789 38.502 21.5075 38.4533C21.2478 38.4371 21.0368 38.3721 20.9232 38.1286C20.907 37.7715 21.1342 37.7715 21.3615 37.7715Z" fill="#E3AA6B"/>
<path d="M13.4727 30.8239C13.7486 30.7103 14.0084 30.5966 14.2843 30.4992C14.6414 30.1908 15.1446 30.2558 15.5504 30.3532C15.8426 30.8888 15.1446 31.181 15.0959 31.6193C14.9985 31.7329 14.8849 31.8303 14.7713 31.9114C14.544 32.0251 14.5765 32.2523 14.5602 32.4471C14.5115 32.6906 14.4466 32.9178 14.2194 33.0639C13.7973 33.1775 13.3591 33.4048 12.9208 33.0964C12.6611 32.512 12.7422 31.8952 12.8234 31.2946C12.937 30.9862 13.1318 30.8077 13.4727 30.8239Z" fill="#E3AA6B"/>
<path d="M22.0107 30.9054C21.7835 30.9865 21.6049 30.8567 21.3939 30.8404C21.053 30.808 20.842 31.0677 20.7122 31.3112C20.5012 31.6845 21.0368 31.5546 21.0855 31.7657C20.907 32.2039 20.631 32.4799 20.1278 32.4636C20.0791 32.4149 20.0304 32.35 20.0142 32.2689C19.998 32.0091 19.8681 31.9767 19.6409 32.0578C19.4461 32.1228 19.2513 32.2202 19.0403 32.1552C18.6669 31.7819 18.9429 31.4086 19.0565 31.0514C19.1539 30.7755 19.3324 30.532 19.4785 30.2885C19.5922 30.11 19.7707 29.9801 19.9655 29.9152C20.1765 29.9152 20.3713 29.8503 20.5661 29.9639C21.053 30.1424 21.6049 30.1424 22.0432 30.4509C22.0919 30.6294 22.0919 30.7755 22.0107 30.9054Z" fill="#EABE7D"/>
<path d="M16.0373 37.2358C16.3458 37.9501 17.0924 37.9825 17.6606 38.2909C18.2936 38.6318 19.1214 38.4695 19.6409 39.0863C18.6182 39.3298 17.5794 38.9727 16.5568 39.0863C16.4269 38.7779 16.1347 38.7292 15.8913 38.5831C15.6153 38.437 15.4205 38.2585 15.5666 37.9014C15.5179 37.5605 15.664 37.317 16.0373 37.2358Z" fill="#E0A366"/>
<path d="M12.9857 31.1489C12.9857 31.7982 12.9857 32.4475 12.9857 33.0968C13.0668 33.3565 12.8558 33.5026 12.7584 33.6811C12.5312 33.9896 12.515 34.3304 12.5637 34.6875C12.5637 34.7687 12.515 34.8174 12.4663 34.8661C12.4013 34.9797 12.3364 35.0771 12.1254 35.4342C12.3689 34.509 11.6384 34.0869 11.6871 33.4052C11.5897 33.2753 11.3787 33.3727 11.33 33.1942C11.4274 32.8208 11.8332 32.8695 12.0929 32.5774C11.817 32.5611 11.541 32.6423 11.3625 32.4313C11.3625 32.3826 11.3625 32.3176 11.3625 32.2689C11.5573 32.0255 11.8981 31.9443 12.0118 31.6197C12.2715 31.3437 12.5474 31.0678 12.9857 31.1489Z" fill="#E0A568"/>
<path d="M14.9335 31.6034C15.1446 31.2301 15.0147 30.6619 15.5828 30.4996C15.6315 30.4022 15.7127 30.3373 15.8101 30.2724C15.875 30.2399 15.9399 30.2074 16.0049 30.175C16.1996 30.0776 16.3944 29.9802 16.573 29.8503C16.7353 29.8503 16.8976 29.8503 17.0437 29.8666C16.8814 30.2561 16.7353 30.6619 16.5243 31.0353C16.3457 31.3437 16.5892 31.4573 16.7191 31.6359C16.8327 31.782 16.8165 31.9118 16.6541 32.0092C16.4431 31.993 16.2646 31.8144 16.0536 31.7982C15.7127 31.6359 15.3556 31.7982 15.0147 31.7008C14.9822 31.6521 14.9498 31.6196 14.9335 31.6034Z" fill="#E6B172"/>
<path d="M12.9857 31.1488C12.661 31.3111 12.4013 31.6033 12.0117 31.6358C11.752 31.4897 11.0378 31.5871 11.6709 30.9865C12.0117 31.1975 12.2877 30.954 12.5961 30.8729C12.7909 30.7755 12.9857 30.6781 13.1318 30.4995C13.3428 30.4995 13.4564 30.6131 13.4726 30.8242C13.3103 30.9215 13.148 31.0352 12.9857 31.1488Z" fill="#CF8D43"/>
<path d="M9.46335 33.064C9.52828 33.2263 9.54451 33.2588 9.54451 33.275C9.49582 33.7295 9.15494 33.9567 8.81407 34.1677C8.71667 34.2327 8.58682 34.1353 8.61928 34.0054C8.70044 33.5185 9.07378 33.3237 9.46335 33.064Z" fill="#EFD7B8"/>
<path d="M12.661 30.9866C12.3201 31.0515 11.9792 31.5872 11.6708 30.9703C11.8332 30.8567 11.8819 30.597 12.1578 30.6457C12.385 30.5483 12.6285 30.4996 12.8071 30.6782C12.9045 30.7755 12.7584 30.9054 12.661 30.9866Z" fill="#EFD7BA"/>
<path d="M14.5764 29.8341C14.8848 29.5906 15.2257 29.7367 15.5666 29.7043C15.8587 30.1912 15.7613 30.2886 14.9497 30.3048C14.7063 30.2237 14.5277 30.1101 14.5764 29.8341Z" fill="#F6EBDE"/>
<path d="M18.2124 30.1425C18.2124 30.0938 18.1962 30.0613 18.1962 30.0126C18.0826 29.7854 18.2611 29.7854 18.391 29.7529C18.6507 29.7854 18.9104 29.9477 19.1376 29.688C19.3487 29.7367 19.5597 29.7854 19.7707 29.8341C19.8519 29.899 19.8519 29.9802 19.7869 30.0613C19.3811 30.4671 18.8942 30.386 18.4072 30.3048C18.326 30.2723 18.2611 30.2237 18.2124 30.1425Z" fill="#EDCDA3"/>
<path d="M15.9075 30.3209C15.8425 30.4508 15.7127 30.467 15.5828 30.4833C15.1446 30.4833 14.7225 30.4833 14.2843 30.4833C14.1219 30.2236 14.1057 29.9801 14.4303 29.834C14.5927 30.045 14.7388 30.2885 15.0796 30.2398C15.3394 30.3047 15.6478 30.0937 15.9075 30.3209Z" fill="#CF8D43"/>
<path d="M15.9075 30.321C15.5828 30.321 15.2582 30.321 14.9335 30.321C14.8848 30.2885 14.8524 30.256 14.8848 30.2236C14.9011 30.1911 14.9173 30.1749 14.9335 30.1749C15.1445 30.0288 15.8263 30.4671 15.5666 29.7042C15.8101 29.6392 16.0211 29.7529 16.2321 29.8502C16.4594 30.2236 16.0535 30.1911 15.9075 30.321Z" fill="#E6B172"/>
<path d="M22.0107 30.9051C21.8971 30.7427 21.8809 30.5967 22.0757 30.4668C22.2867 30.5317 22.4977 30.5967 22.7087 30.6454C22.6276 31.1648 22.2705 30.9051 22.0107 30.9051Z" fill="#FAF3E7"/>
<path d="M12.661 30.9863C12.8234 30.3857 12.3364 30.7428 12.1578 30.6292C12.45 30.3695 12.8071 30.5156 13.1318 30.4831C13.148 30.824 12.9532 30.9539 12.661 30.9863Z" fill="#E9C599"/>
<path d="M18.4722 29.8176C18.3423 29.8339 18.2287 29.8826 18.18 30.0124C17.8878 29.7689 17.5307 29.8339 17.2061 29.8176C17.6281 29.5092 18.0826 29.7202 18.5371 29.6878C18.5533 29.7527 18.5371 29.8014 18.4722 29.8176Z" fill="#CF8D43"/>
<path d="M18.4722 29.8178C18.5046 29.7854 18.5209 29.7367 18.5371 29.688C18.7319 29.688 18.9429 29.688 19.1377 29.7042C19.1052 30.0938 18.9754 30.11 18.4722 29.8178Z" fill="#FAF2E7"/>
<path d="M25.5007 32.9182C25.5494 32.9019 25.5981 32.9019 25.663 32.9019C25.7766 33.048 25.7929 33.2103 25.6955 33.3727C25.2897 33.5512 25.0624 33.324 24.9163 32.9831C24.9163 32.8532 24.965 32.7558 25.0949 32.6909C25.2734 32.6909 25.3708 32.8208 25.5007 32.9182Z" fill="#E0A970"/>
<path d="M24.5105 32.5933C24.1858 31.9278 24.7377 32.1551 25.0137 32.1064C25.0624 32.1551 25.1111 32.22 25.1598 32.2687C25.1273 32.3174 25.0786 32.3499 25.0299 32.3986C24.9325 32.4797 24.8838 32.6096 24.7702 32.6583C24.6728 32.6907 24.5754 32.6745 24.5105 32.5933Z" fill="#DC9F68"/>
<path d="M25.6467 33.4052C25.6467 33.2429 25.6467 33.0805 25.663 32.9182C25.8415 32.9344 26.0363 32.902 26.1337 33.0968C26.1337 33.2266 26.1012 33.3565 25.9714 33.4214C25.8577 33.5026 25.7441 33.5026 25.6467 33.4052Z" fill="#DA995F"/>
<path d="M24.9975 32.2852C25.0461 32.2852 25.0948 32.2852 25.1435 32.2852C25.3383 32.4637 25.5818 32.6098 25.4844 32.9344C25.3546 32.9344 25.2085 32.9344 25.1111 32.8046C24.9812 32.6585 24.8189 32.5124 24.9975 32.2852Z" fill="#F9F1E3"/>
<path d="M15.9075 30.3209C16.0211 30.1586 16.2646 30.0937 16.2321 29.834C16.3457 29.834 16.4594 29.834 16.5568 29.834C16.4269 30.1262 16.2808 30.3859 15.9075 30.3209Z" fill="#CF8D43"/>
<path d="M19.7869 29.9963C19.7869 29.9476 19.7869 29.8989 19.7869 29.834C20.0629 29.8664 20.3713 29.7203 20.6148 29.98C20.4037 29.98 20.1927 29.9963 19.9817 29.9963C19.9005 30.0774 19.8356 30.0612 19.7869 29.9963Z" fill="#CF8D43"/>
<path d="M14.9335 30.175C14.9335 30.2237 14.9335 30.2724 14.9335 30.3373C14.6251 30.3211 14.4465 30.175 14.4303 29.8503C14.479 29.8503 14.5277 29.8503 14.5764 29.8503C14.6251 29.9964 14.7712 30.0938 14.9335 30.175Z" fill="#DDA470"/>
<path d="M25.9552 41.0501C26.6694 40.8553 27.3998 40.6442 28.1141 40.4495C28.0004 41.3422 27.3511 41.7156 25.6468 41.8617C25.3384 41.4396 25.5331 41.1961 25.9552 41.0501Z" fill="#E8807B"/>
<path d="M12.8234 41.5211C13.6837 41.6023 14.5764 41.3426 15.4205 41.6835C15.1608 41.9269 14.69 41.8782 14.6089 42.3327C13.9434 42.4464 13.3103 42.138 12.661 42.1704C12.3851 42.0081 12.2877 41.7971 12.4662 41.5049C12.5799 41.44 12.6935 41.4237 12.8234 41.5211Z" fill="#DD4E40"/>
<path d="M14.6089 42.3328C14.2031 41.2615 15.1283 41.8621 15.4205 41.6835C15.7939 41.6835 16.1834 41.6835 16.5568 41.6835C16.7353 41.8945 16.7191 42.1218 16.5568 42.3328C15.9075 42.3328 15.2582 42.3328 14.6089 42.3328Z" fill="#DF584B"/>
<path d="M25.9551 41.0503C25.663 41.2451 25.5818 41.5373 25.6305 41.8619C25.2896 42.1216 24.8838 41.9755 24.5105 42.008C23.8612 42.1703 23.7476 41.9106 24.0073 41.3587C24.6728 41.2613 25.3221 41.1639 25.9551 41.0503Z" fill="#E77A74"/>
<path d="M19.6409 41.6834C20.4038 41.6347 21.1505 41.5861 21.9134 41.5374C21.8484 41.9107 21.4102 41.9919 21.2641 42.3165C20.7284 42.3165 20.1765 42.3327 19.6409 42.3327C19.4623 42.1217 19.4623 41.9107 19.6409 41.6834Z" fill="#E36A61"/>
<path d="M24.0235 41.3749C23.9911 41.7482 24.0235 42.0566 24.5267 42.0242C24.0073 42.3163 23.4392 42.1378 22.9035 42.1865C22.7737 42.2839 22.6438 42.2676 22.5139 42.1865C22.3679 41.9592 22.4003 41.7482 22.5626 41.5372C23.0496 41.5534 23.5203 41.2775 24.0235 41.3749Z" fill="#E5746C"/>
<path d="M16.5568 42.3329C16.5568 42.1219 16.5568 41.8946 16.5568 41.6836C17.0437 41.6836 17.5307 41.6836 18.0177 41.6836C18.1962 41.8621 18.2287 42.0894 18.18 42.3329C17.6443 42.7549 17.0924 42.2517 16.5568 42.3329Z" fill="#E05E52"/>
<path d="M18.18 42.349C17.9365 42.1867 18.0339 41.927 18.0177 41.6997C18.5533 41.6997 19.1052 41.6997 19.6409 41.6997C19.6409 41.9107 19.6409 42.138 19.6409 42.349C19.1539 42.3328 18.667 42.3328 18.18 42.349Z" fill="#E26359"/>
<path d="M10.0639 41.1962C10.4535 41.2124 10.843 41.1312 11.2002 41.3585C11.3625 41.5533 11.4923 41.7481 11.3625 42.0078C10.7619 41.8941 10.1775 41.7967 9.57694 41.6831C9.36592 41.1637 9.57694 41.0501 10.0639 41.1962Z" fill="#DA4434"/>
<path d="M10.0639 41.1967C9.70677 41.1642 9.54445 41.3265 9.57692 41.6836C8.94386 41.4888 8.31081 41.2778 7.79138 40.5474C8.63545 40.7908 9.34967 41.0019 10.0639 41.1967Z" fill="#D83E2D"/>
<path d="M11.3625 42.0082C11.2488 41.8134 11.1677 41.6024 11.2001 41.3589C11.3625 41.3589 11.5248 41.3589 11.6871 41.3589C11.9306 41.5537 12.2552 41.3264 12.4987 41.5212C12.4662 41.7647 12.5474 41.9595 12.661 42.1705C12.2228 42.1218 11.7845 42.0731 11.3625 42.0082Z" fill="#DB4939"/>
<path d="M22.5626 41.5374C22.5626 41.7484 22.5626 41.9594 22.5626 42.1704C22.2055 42.3814 21.7835 42.1379 21.4264 42.3165C21.3777 42.3165 21.3128 42.3165 21.2641 42.3165C21.118 41.7484 21.5887 41.7159 21.9134 41.5374C22.1244 41.5374 22.3354 41.5374 22.5626 41.5374Z" fill="#E46E66"/>
<path d="M21.4264 42.3165C21.7673 42.0244 22.1893 42.2354 22.5626 42.1704C22.6763 42.1704 22.7899 42.1704 22.8873 42.1867C22.4328 42.4626 21.9134 42.2841 21.4264 42.3165Z" fill="#E36A61"/>
<path d="M12.4987 41.521C12.2228 41.4723 11.9144 41.6346 11.6871 41.3586C12.0605 41.4236 12.4825 41.2125 12.8234 41.521C12.7098 41.521 12.5961 41.521 12.4987 41.521Z" fill="#DA4434"/>
<path d="M22.7899 43.7126C21.9621 45.0437 19.4461 45.1898 18.0663 43.9886C19.7058 44.1509 21.2641 44.3782 22.7899 43.7126Z" fill="#D0D82B"/>
<path d="M16.3782 44.2804C14.6414 45.1569 12.5961 44.9134 11.7358 43.5986C13.1967 44.2966 14.6089 44.2804 16.0536 44.1181C16.2321 44.0369 16.3945 43.972 16.3782 44.2804Z" fill="#D1D82B"/>
<path d="M5.63251 42.0729C5.66497 41.9431 5.66497 41.797 5.81106 41.7158C6.44411 42.43 7.32065 42.6897 8.18095 42.9819C8.58675 43.1118 8.99256 43.2254 9.43082 43.3553C9.2685 43.5663 9.07372 43.4364 8.92763 43.4689C8.61922 43.3066 8.24588 43.5176 7.93747 43.3228C7.06093 43.1118 6.2331 42.8196 5.63251 42.0729Z" fill="#C2D32F"/>
<path d="M7.95374 43.3065C8.27838 43.339 8.63548 43.2091 8.94389 43.4526C8.87897 43.4688 8.81404 43.4851 8.73288 43.4851C8.45693 43.4688 8.16475 43.5338 7.95374 43.3065Z" fill="#9EC738"/>
<path d="M16.3782 44.2804C16.3132 44.1505 16.1834 44.1343 16.0535 44.1181C16.1996 43.9395 16.4269 43.8908 16.573 44.0369C16.6704 44.1181 16.4918 44.2317 16.3782 44.2804Z" fill="#BAD032"/>
<path d="M28.8932 41.6997C29.023 41.7646 29.0393 41.8783 29.0393 41.9919C28.4874 42.5762 27.8705 43.047 27.1076 43.3229C26.6369 43.4852 26.1175 43.5339 25.6305 43.6313C25.2572 43.6313 24.8838 43.6313 24.5105 43.6313C26.085 43.1768 27.7894 43.1119 28.8932 41.6997Z" fill="#CCD62C"/>
<path d="M25.6467 43.6314C26.1175 43.4204 26.6044 43.323 27.1239 43.323C26.8317 43.534 26.4908 43.6152 26.1499 43.6476C25.9714 43.6314 25.809 43.6314 25.6467 43.6314Z" fill="#C0D230"/>
<path d="M11.3625 32.4472C11.7033 32.577 12.239 32.0901 12.3364 32.5121C12.4338 32.9017 11.8007 32.9666 11.4598 33.1452C11.4111 33.1776 11.3787 33.2101 11.33 33.2426C11.119 33.3724 10.9242 33.4698 10.8755 33.0965C11.0378 32.8692 11.2001 32.6582 11.3625 32.4472Z" fill="#F3DEC5"/>
<path d="M10.8755 33.0806C10.9729 33.2754 11.1677 33.2104 11.33 33.2267C11.4598 33.2429 11.6059 33.2591 11.6709 33.4052C11.4274 33.4539 11.1677 33.5188 10.9242 33.5675C10.7943 33.5838 10.632 33.5838 10.6158 33.4214C10.5833 33.2267 10.7456 33.1455 10.8755 33.0806Z" fill="#D7915A"/>
<path d="M18.9591 35.8397C18.9266 36.5215 18.9104 37.187 19.3 37.7876C19.1052 38.0148 18.8779 37.9499 18.6507 37.8525C17.7904 37.5279 16.8165 37.3006 16.1509 36.5864C16.1672 36.3754 16.2321 36.1968 16.2321 35.9858C16.508 35.7748 16.7353 35.9696 16.9625 36.0832C17.2385 36.2293 17.5144 36.3916 17.8066 36.5539C18.2611 36.8136 18.6182 36.8786 18.6507 36.1806C18.6507 36.0507 18.7318 35.9209 18.8292 35.8235C18.8617 35.8397 18.9104 35.8397 18.9591 35.8397Z" fill="#E3AA6C"/>
<path d="M20.144 34.2813C19.8681 34.4761 19.6733 34.7682 19.3973 34.963C17.3521 33.8592 16.5567 31.603 18.2124 30.1421C18.2448 30.1421 18.2935 30.1583 18.326 30.1583C18.748 30.4018 19.2188 30.1096 19.6408 30.3369C19.5759 30.8725 19.1052 31.2459 19.0727 31.7978C19.0565 31.9439 19.0565 32.0575 19.1863 32.1386C19.2188 32.1873 19.235 32.2523 19.2188 32.301C19.2025 32.3497 19.1701 32.3984 19.1538 32.4633C19.2675 32.6905 19.5759 32.5769 19.7057 32.7879C19.8031 33.0639 19.9168 33.3398 20.1115 33.5671C20.2576 33.7619 20.3226 34.0216 20.144 34.2813Z" fill="#E8B877"/>
<path d="M18.8293 35.8397C18.8293 37.3168 18.8293 37.3006 17.5145 36.6513C17.0924 36.4403 16.7516 36.0507 16.2484 36.002C16.1185 34.9145 15.5666 34.0866 14.7712 33.3887C14.6252 33.2263 14.2356 33.3075 14.3005 32.9342C14.2843 32.6907 14.3492 32.4797 14.4628 32.2686C14.6576 32.1388 14.8686 32.2199 15.0797 32.2037C15.3718 32.2362 15.6965 32.1712 15.9237 32.431C16.1834 34.1678 17.1898 35.2878 18.8293 35.8397Z" fill="#E4AE6F"/>
<path d="M15.9075 32.4473C15.5828 32.4473 15.2582 32.4473 14.9335 32.4473C15.0959 31.863 15.6315 32.1876 15.9562 31.9928C16.1509 31.9442 16.3457 31.8468 16.5567 31.9604C16.6866 31.8955 16.7191 31.7656 16.7191 31.6357C17.0437 31.7818 17.0112 31.9604 16.7678 32.1389C16.5081 32.3337 16.2321 32.4636 15.9075 32.4473Z" fill="#DA9960"/>
<path d="M20.1441 34.2817C20.1603 33.9408 20.0305 33.6649 19.7545 33.4538C19.511 33.2591 19.4299 33.048 19.6409 32.7721C19.6896 32.7072 19.7383 32.6585 19.8032 32.6098C20.1279 32.5611 20.42 32.3501 20.7771 32.4312C21.4751 33.2753 22.5789 33.5188 23.5853 33.0643C23.8937 32.9182 24.1372 32.626 24.5105 32.5935C24.6079 32.5935 24.7215 32.5935 24.8189 32.5773C24.9326 32.6585 24.9326 32.7883 24.9163 32.902C24.9975 33.4376 24.543 33.6324 24.2508 33.9408C24.0073 34.1031 23.6827 34.0869 23.4392 34.2492C23.2769 34.3304 23.0334 34.0869 22.9036 34.3791C22.6601 34.5901 22.2867 34.444 22.0757 34.7037C21.6212 34.6875 21.5725 34.0707 21.118 34.0544C20.9395 34.0382 20.7609 34.022 20.6148 34.1843C20.4525 34.2168 20.2902 34.2492 20.1441 34.2817Z" fill="#EBBF7D"/>
<path d="M20.7771 32.4475C20.4525 32.5449 20.1278 32.6585 19.8032 32.7559C19.7545 32.7072 19.722 32.6423 19.722 32.5611C19.7383 32.4962 19.7707 32.4313 19.8194 32.3826C19.9331 32.3339 20.0305 32.3339 20.1116 32.415C20.5337 32.3501 20.7771 31.993 21.1018 31.782C21.4102 32.204 20.9395 32.2527 20.7771 32.4475Z" fill="#DB9C63"/>
<path d="M24.1696 33.9246C24.2021 33.4539 24.8839 33.4214 24.8352 32.902C24.8839 32.837 24.9326 32.837 24.9813 32.902C25.0949 33.2104 25.4033 33.2753 25.6468 33.4052C25.7604 33.4052 25.8578 33.4052 25.9714 33.4214C25.9714 33.9733 25.3384 33.9895 25.1598 34.3953C25.0462 34.4603 24.9001 34.3791 24.7865 34.444C24.6404 34.444 24.5268 34.3953 24.4131 34.3304C24.267 34.233 24.121 34.1356 24.1696 33.9246Z" fill="#EABC7B"/>
<path d="M21.1018 33.9083C21.6699 33.8921 21.7835 34.4115 22.0757 34.7199C22.0757 34.9147 22.0919 35.1095 21.8809 35.2231C21.6537 34.8823 21.4589 34.4927 21.0855 34.2817C21.0044 34.1356 21.0044 34.022 21.1018 33.9083Z" fill="#F0D9B2"/>
<path d="M22.8873 34.3787C22.8223 34.2326 22.7087 34.0865 22.9197 33.9729C23.1794 33.8431 23.1794 34.1839 23.3418 34.2326C23.4879 34.2164 23.6177 34.2489 23.7476 34.2976C23.9099 34.3625 24.1047 34.4112 24.2021 34.5735C24.1858 34.7034 24.1534 34.7845 23.9911 34.7196C23.5853 34.7683 23.2931 34.4112 22.8873 34.3787Z" fill="#DA9B62"/>
<path d="M24.0235 34.7036C24.0722 34.6549 24.1371 34.6062 24.1858 34.5575C24.3481 34.2978 24.6241 34.4764 24.8351 34.379C24.9487 34.2004 25.0461 34.3628 25.1597 34.379C24.9487 35.0932 24.4942 34.9309 24.0235 34.7036Z" fill="#DDA067"/>
<path d="M14.2842 32.934C14.4465 33.0801 14.6088 33.2424 14.7549 33.3885C14.0245 33.421 13.2453 33.2749 12.7746 34.054C12.45 33.9729 12.5798 33.7618 12.6448 33.5833C12.7584 33.421 12.872 33.2749 12.9694 33.1126C13.4239 33.0476 13.8297 32.8529 14.2842 32.934Z" fill="#EACD9E"/>
<path d="M16.5568 31.9443C16.3944 32.0092 16.2321 32.0579 16.0698 32.1228C15.7452 32.2527 15.4043 32.1715 15.0634 32.1878C14.8037 32.204 14.5927 32.1228 14.6414 31.7982C14.7388 31.7333 14.8524 31.717 14.9498 31.6521C14.9498 31.6846 14.9498 31.6521 14.9498 31.6521C15.3394 31.8306 15.7127 31.7657 16.1023 31.6196C16.3133 31.6196 16.5405 31.6196 16.5568 31.9443Z" fill="#EECEA4"/>
<path d="M14.6252 31.7981C14.9823 32.3987 15.5829 32.0091 16.0536 32.139C15.7452 32.4798 15.2257 32.0903 14.9336 32.4474C14.7712 32.3987 14.6089 32.3338 14.4466 32.2851C14.3492 32.0578 14.1869 31.8143 14.6252 31.7981Z" fill="#DA9961"/>
<path d="M19.1702 32.2687C19.1702 32.22 19.1702 32.1713 19.1702 32.1064C19.4299 31.9765 19.6734 31.798 19.9818 31.7817C20.1279 31.7817 20.3389 31.733 20.3551 31.9603C20.3551 32.0577 20.1928 32.1551 20.1116 32.2525C19.8032 32.3823 19.4786 32.5609 19.1702 32.2687Z" fill="#F9EFE0"/>
<path d="M19.6409 30.3206C19.2026 30.2394 18.7319 30.4829 18.326 30.1421C18.813 30.1258 19.3324 30.2557 19.7869 29.9797C19.8519 29.9797 19.9006 29.9797 19.9655 29.9797C19.8519 30.1096 19.7382 30.2232 19.6409 30.3206Z" fill="#DC9E65"/>
<path d="M19.1701 32.2687C19.4785 32.2687 19.8031 32.2687 20.1116 32.2524C20.1116 32.3011 20.1116 32.3498 20.1116 32.3985C20.0142 32.4148 19.9168 32.4148 19.8031 32.431C19.5597 32.6096 19.3 32.6096 19.024 32.4959C18.9428 32.431 18.9266 32.3498 18.9915 32.2687C19.0565 32.2687 19.1052 32.2687 19.1701 32.2687Z" fill="#F1D8B4"/>
<path d="M12.661 33.5674C12.6773 33.7297 12.6286 33.9083 12.7909 34.0381C12.6935 34.2491 12.5961 34.4764 12.4825 34.6874C12.1741 34.2654 12.3526 33.9083 12.661 33.5674Z" fill="#E9C995"/>
<path d="M16.086 31.6195C15.7289 32.1552 15.3393 32.1552 14.9335 31.652C15.3069 31.5221 15.6964 31.3923 16.086 31.6195Z" fill="#F7E8D7"/>
<path d="M24.9812 32.9019H24.9163H24.8514C24.8351 32.8045 24.8351 32.6908 24.8189 32.5935C24.7377 32.3987 24.7053 32.2526 25.0137 32.285C25.0624 32.4474 25.0949 32.6259 25.1436 32.7882C25.0786 32.8369 25.0299 32.8694 24.9812 32.9019Z" fill="#F0D6B3"/>
<path d="M21.1017 33.9081C21.1017 34.0217 21.0855 34.1516 21.0855 34.2652C20.9232 34.249 20.7771 34.2165 20.6148 34.2003C20.5011 33.6322 20.9394 34.0055 21.1017 33.9081Z" fill="#F3D6A5"/>
<path d="M18.9916 32.2688C18.9916 32.3175 18.9916 32.3662 19.0078 32.4149C19.2351 32.6584 19.576 32.3987 19.8032 32.5934C19.8032 32.6421 19.8032 32.7071 19.8032 32.7558C19.7545 32.7558 19.6896 32.772 19.6409 32.772C19.4299 32.7558 19.2026 32.8045 19.0078 32.7395C18.6345 32.6097 18.6994 32.4311 18.9916 32.2688Z" fill="#D69158"/>
<path d="M23.6988 34.3791C23.5852 34.3304 23.4716 34.2817 23.358 34.233C23.4716 33.6811 23.8774 33.957 24.1696 33.9246C24.267 34.022 24.3806 34.1356 24.478 34.233C24.2832 34.6388 23.9748 34.444 23.6988 34.3791Z" fill="#F6E6D0"/>
<path d="M19.8032 32.5931C19.5435 32.5444 19.2188 32.723 19.0078 32.4146C19.2675 32.4308 19.5435 32.4308 19.8032 32.447C19.8032 32.4957 19.8032 32.5444 19.8032 32.5931Z" fill="#E4B382"/>
<path d="M23.6989 34.379C23.9586 34.3303 24.267 34.4926 24.4781 34.2329C24.5917 34.2816 24.7053 34.3303 24.8189 34.379C24.6566 34.6225 24.3969 34.5089 24.1696 34.5576C24.0073 34.5251 23.8125 34.5738 23.6989 34.379Z" fill="#EECFA4"/>
<path d="M21.9005 36.5433C22.1578 35.4159 21.7146 34.3532 20.9105 34.1697C20.1064 33.9862 19.246 34.7514 18.9887 35.8788C18.7314 37.0062 19.1746 38.0689 19.9787 38.2524C20.7828 38.4359 21.6432 37.6707 21.9005 36.5433Z" fill="#241F20"/>
<path d="M21.4102 35.6613C21.3615 36.0022 21.1667 36.1969 20.8258 36.1807C20.4849 36.1645 20.2739 35.9535 20.3064 35.5963C20.3226 35.2555 20.5499 35.0445 20.8907 35.0607C21.2316 35.0932 21.3939 35.3204 21.4102 35.6613Z" fill="#D7D6D6"/>
<path d="M14.9006 38.156C15.9406 37.9187 16.5153 36.5502 16.1842 35.0994C15.8531 33.6486 14.7415 32.6649 13.7015 32.9022C12.6615 33.1396 12.0868 34.5081 12.4179 35.9589C12.749 37.4097 13.8605 38.3934 14.9006 38.156Z" fill="#241F20"/>
<path d="M14.3654 35.223C14.3005 35.6613 14.0894 35.9535 13.6349 35.9535C13.2291 35.9535 12.9694 35.6937 12.9694 35.2879C12.9694 34.8334 13.2291 34.5737 13.6836 34.5737C14.0894 34.5737 14.3005 34.8497 14.3654 35.223Z" fill="#DAD9D9"/>
</svg>
