<svg width="160" height="80" viewBox="0 0 160 80" fill="none" xmlns="http://www.w3.org/2000/svg">
<g clip-path="url(#clip0)">
<path d="M21.0676 39.3125C27.5789 39.3125 34.0431 39.3125 40.5544 39.3125C40.9555 41.9312 40.1534 45.6352 39.0681 48.419C36.591 53.9159 32.7219 57.9029 26.706 59.4364C23.1436 60.3329 19.5341 60.3093 15.9717 59.5308C12.2206 58.4691 8.09203 55.9212 6.88884 54.7416C5.80362 53.6564 4.71839 52.5948 3.8219 51.368C0.707775 47.0743 -0.519002 42.2143 0.188754 37.0005C1.27398 29.0029 5.66207 23.3644 13.1879 20.4391C20.4306 17.6316 31.1885 18.5517 37.7706 26.2898C36.0956 28.0592 34.3969 29.805 32.8163 31.48C31.2356 30.3476 29.7729 29.0737 28.1215 28.1536C21.2799 24.3317 12.5273 26.7381 9.05929 33.4146C4.85994 41.5302 9.81423 50.9669 18.6376 52.6655C21.6573 53.2317 24.6299 53.0666 27.4138 51.6511C29.6314 50.5187 31.0705 48.6785 32.2029 46.3665C28.4282 46.3665 24.7715 46.3665 21.044 46.3665C21.0675 43.9601 21.0676 41.6481 21.0676 39.3125Z" fill="white"/>
<path d="M40.2711 44.3613C39.988 45.7768 39.5634 47.1924 39.068 48.4427C36.5908 53.9396 32.7217 57.9267 26.7058 59.4601C23.1435 60.3566 19.5339 60.333 15.9715 59.5545C12.2204 58.4929 8.09186 55.9449 6.88867 54.7653C22.0582 56.8886 27.7911 55.7562 40.2711 44.3613Z" fill="url(#paint0_linear)"/>
<path d="M15.9717 59.5306C12.2206 58.469 8.09203 55.9211 6.88884 54.7415C5.80362 53.6563 4.71839 52.5946 3.8219 51.3678C0.707775 47.0741 -0.519002 42.2142 0.188754 37.0004C0.825734 32.3764 2.54794 28.5309 5.35537 25.5583C4.12859 34.0514 3.42084 47.0269 15.9717 59.5306Z" fill="url(#paint1_linear)"/>
<path d="M66.3638 59.3656C64.4764 59.3656 62.6127 59.3656 60.6781 59.3656C60.0176 57.667 59.0267 55.1662 58.3897 53.3969H46.8533C46.2871 54.9539 45.1783 57.9029 44.5413 59.4128H38.8557C38.8557 59.4128 46.6174 39.1474 49.7787 30.9138H55.4407C58.9559 40.0203 66.3638 59.3656 66.3638 59.3656ZM52.6805 38.4868C51.4065 41.8133 50.2033 44.9038 49.0002 48.0415C51.5245 48.0415 53.9073 48.0415 56.3608 48.0415C55.1576 44.8802 53.9545 41.8133 52.6805 38.4868Z" fill="white"/>
<path d="M135.252 30.9138H141.362L147.355 39.9967L153.276 30.9374H159.457L150.422 44.7151C153.253 48.9852 160 59.4128 160 59.4128H153.866C151.979 56.5582 147.331 49.4806 147.331 49.4806L140.843 59.3892H134.615L144.264 44.6915L135.252 30.9138Z" fill="white"/>
<path d="M113.925 36.2218C110.787 36.2218 107.768 36.2218 104.701 36.2218C104.701 34.4288 104.701 32.7302 104.701 30.9844C110.386 30.9844 116.072 30.9844 121.876 30.9844C118.526 38.6753 115.175 46.3191 111.778 54.0808C114.963 54.0808 118.03 54.0808 121.144 54.0808C121.144 55.8738 121.144 57.5724 121.144 59.3654C115.411 59.3654 109.679 59.3654 103.804 59.3654C107.178 51.6508 110.528 44.0071 113.925 36.2218Z" fill="white"/>
<path d="M97.1748 30.9138H91.8667L85.2609 50.6602L78.6552 30.9138H73.347C71.6956 40.4213 70.0678 49.8817 68.4399 59.3656C70.2329 59.3656 71.9787 59.3656 73.7717 59.3656C74.7862 53.5384 76.8622 41.5302 76.8622 41.5302C78.8204 47.3573 80.8729 53.5384 82.8074 59.3656C84.4352 59.3656 85.9923 59.3656 87.6437 59.3656C89.6254 53.4912 93.636 41.5302 93.636 41.5302C94.6269 47.3573 95.6885 53.5148 96.6794 59.342C98.4488 59.342 100.147 59.342 101.94 59.342C100.36 49.8581 98.7555 40.3977 97.1748 30.9138Z" fill="white"/>
<path d="M125.816 30.9375C127.609 30.9375 129.354 30.9375 131.147 30.9375C131.147 40.3978 131.147 49.8346 131.147 59.3421C129.378 59.3421 127.632 59.3421 125.816 59.3421C125.816 49.9054 125.816 40.4686 125.816 30.9375Z" fill="white"/>
<path d="M123.716 29.6401C123.716 29.6401 128.033 25.9362 133.223 29.6401C133.223 29.6401 132.634 25.5823 128.481 25.5823C124.329 25.5823 123.716 29.6401 123.716 29.6401Z" fill="#F0A50D"/>
</g>
<defs>
<linearGradient id="paint0_linear" x1="11.1146" y1="59.2171" x2="37.3802" y2="49.6231" gradientUnits="userSpaceOnUse">
<stop stop-color="white"/>
<stop offset="1" stop-color="#F2AC0B"/>
</linearGradient>
<linearGradient id="paint1_linear" x1="7.9857" y1="28.852" x2="7.9857" y2="60.3383" gradientUnits="userSpaceOnUse">
<stop stop-color="white"/>
<stop offset="1" stop-color="#F2AC0B"/>
</linearGradient>
<clipPath id="clip0">
<rect width="160" height="80" fill="white"/>
</clipPath>
</defs>
</svg>
