<svg width="160" height="80" viewBox="0 0 160 80" fill="none" xmlns="http://www.w3.org/2000/svg">
<g clip-path="url(#clip0)">
<path d="M159.657 39.6371C159.086 41.9689 157.302 42.7461 155.176 43.089C151.725 43.6377 148.273 43.4548 144.798 43.2033C143.541 43.1119 142.306 42.9062 141.049 42.8376C139.906 42.769 140.157 42.6547 140.157 42.4032C140.157 41.9917 140.157 40.7801 140.18 40.643C140.249 40.4144 140.82 40.483 141.14 40.5058C144.181 40.6887 147.221 40.8487 150.284 40.7801C151.359 40.7573 152.41 40.6658 153.439 40.3229C154.628 39.9114 155.336 39.1113 155.451 37.8311C155.565 36.4824 155.222 35.3394 153.942 34.6307C153.142 34.1735 152.25 33.9677 151.359 33.7163C148.913 33.0305 146.467 32.3218 143.998 31.6588C139.22 30.4015 139.106 26.2638 140.157 22.9033C140.569 21.6003 141.757 21.0059 143.015 20.663C145.209 20.0457 147.45 20 149.69 20.0457C152.365 20.1143 155.016 20.3658 157.645 20.7316C157.965 20.7773 158.834 20.7544 158.811 21.143C158.766 21.646 158.811 22.1946 158.811 22.7204C158.811 22.8347 158.788 22.9947 158.697 23.0176C158.491 23.0633 157.92 23.0405 157.714 23.0405C154.719 22.8804 151.702 22.6747 148.684 22.7204C148.044 22.7204 147.381 22.7433 146.741 22.8347C144.981 23.109 144.249 23.8634 144.089 25.4408C143.906 27.1325 144.501 28.3441 146.101 28.8699C148.707 29.7157 151.359 30.4015 153.988 31.1559C154.971 31.4531 155.954 31.7503 156.914 32.116C158.285 32.6647 159.314 33.5791 159.68 35.0879C159.726 35.2708 160 36.1166 160 37.4425C159.931 38.6313 159.703 39.4542 159.657 39.6371Z" fill="white"/>
<path d="M54.4078 32.2076C54.4078 28.9614 54.4078 25.7381 54.4078 22.4919C54.4078 22.1033 54.2706 21.6689 54.9107 21.5317C59.277 20.6402 63.6662 19.7486 68.1469 20.183C72.4446 20.6173 75.2793 23.6349 75.3708 27.9327C75.4851 32.6648 75.3936 38.1513 75.4165 42.8834C75.3022 42.8834 71.3931 42.8834 71.0044 42.8834C71.0502 38.7685 71.0273 33.6478 71.0273 29.5329C71.0273 29.1443 71.0273 28.7785 71.0044 28.3899C70.6844 24.5265 68.5812 22.629 64.7178 22.7205C63.0719 22.7433 61.4716 23.0405 59.8257 23.2463C59.0484 23.3377 58.7741 23.6349 58.7741 24.4807C58.8198 30.1958 58.7741 37.1683 58.8198 42.8834C58.6369 42.8834 54.4306 42.8834 54.4306 42.8834C54.4306 42.8834 54.4306 40.5516 54.4078 39.6372C54.3849 37.1454 54.4078 34.6765 54.4078 32.2076Z" fill="white"/>
<path d="M118.76 22.7661C117.068 22.7661 115.079 22.5604 113.113 22.8347C110.964 23.1319 110.027 24.5264 110.439 26.6524C110.713 28.0698 111.719 28.7556 112.999 29.1213C115.445 29.83 117.914 30.493 120.36 31.1788C121.457 31.476 122.555 31.8189 123.583 32.2989C125.046 32.9848 125.892 34.1278 126.098 35.728C126.235 36.7796 126.235 37.854 126.098 38.9285C125.824 41.0088 124.635 42.2889 122.623 42.8376C120.794 43.3405 118.943 43.3862 117.068 43.4091C113.708 43.4777 110.37 43.2034 107.032 42.7919C106.209 42.6776 105.615 41.2145 106.118 40.5516C106.347 40.2315 106.69 40.4373 106.964 40.4373C110.187 40.6887 113.433 40.8716 116.657 40.7802C117.731 40.7573 118.783 40.6659 119.811 40.3001C121.023 39.8886 121.663 39.0199 121.755 37.7397C121.846 36.4824 121.503 35.408 120.36 34.6993C119.537 34.1964 118.6 33.9906 117.685 33.7163C115.239 33.0305 112.77 32.3447 110.324 31.6589C106.072 30.493 105.272 27.4525 106.392 23.0405C106.735 21.7146 107.901 21.0973 109.158 20.6859C110.736 20.1829 112.382 20.0915 114.005 20.0458C117.365 19.9543 120.703 20.3429 124.018 20.7087C125.344 20.8459 124.909 21.7603 124.932 22.469C125.001 23.4748 124.246 23.0176 123.812 23.0176C122.235 22.9719 120.634 22.8576 118.76 22.7661Z" fill="white"/>
<path d="M135.105 31.8646C135.105 35.2022 135.082 39.5457 135.128 42.8833C134.716 42.8833 131.196 42.8833 130.716 42.8833C130.716 37.0539 130.739 26.721 130.693 20.8916C131.104 20.8916 134.808 20.8916 135.105 20.8916C135.105 23.452 135.105 29.3271 135.105 31.8646Z" fill="white"/>
<path d="M56.991 56.6225C57.5625 54.8622 58.0654 53.422 58.4769 51.9589C58.8427 50.7473 59.8028 51.3646 60.4658 51.3189C61.243 51.2503 60.923 51.9818 60.923 52.3476C60.9458 54.2221 60.923 56.0738 60.9458 57.9484C60.9687 58.5656 60.7401 58.7256 60.1686 58.7256C59.5971 58.7256 59.4828 58.497 59.4828 57.9712C59.5056 56.5996 59.4828 55.228 59.2313 53.7878C58.7512 55.1365 58.2712 56.5082 57.7911 57.8569C57.6768 58.1541 57.6997 58.5885 57.2653 58.657C56.7167 58.7485 56.2595 58.7256 56.0537 58.0169C55.6194 56.5767 55.0707 55.1594 54.3392 53.7649C54.3392 55.1365 54.3163 56.5082 54.3392 57.8569C54.3392 58.3827 54.3163 58.7028 53.6305 58.7028C52.9904 58.7028 52.8761 58.4513 52.899 57.9026C52.9218 56.0052 52.899 54.085 52.9218 52.1875C52.9218 51.8446 52.6704 51.1817 53.4019 51.296C54.0649 51.3874 54.9564 50.7473 55.345 51.8675C55.848 53.3534 56.3509 54.8165 56.991 56.6225Z" fill="white"/>
<path d="M70.913 56.0279C70.913 54.702 70.9358 53.3989 70.913 52.073C70.913 51.5472 70.9816 51.2272 71.6445 51.2272C72.2846 51.2272 72.3989 51.5015 72.3761 52.0501C72.3532 53.879 72.3989 55.7078 72.3532 57.5138C72.3532 57.9024 72.6961 58.5196 71.9874 58.6339C71.3702 58.7254 70.753 58.7482 70.3415 57.9939C69.7014 56.7823 68.9241 55.6621 68.1926 54.4962C68.0554 54.2905 67.9183 54.0847 67.4839 53.9247C67.4839 55.2277 67.4839 56.5079 67.4839 57.811C67.4839 58.291 67.5296 58.6797 66.821 58.6797C66.0894 58.6797 66.0666 58.3139 66.0666 57.7652C66.0894 55.9136 66.0666 54.039 66.0894 52.1873C66.0894 51.8673 65.8608 51.3186 66.4323 51.2729C66.9581 51.2272 67.5525 51.0443 67.9411 51.7072C68.8098 53.1703 69.7242 54.6105 70.6387 56.0507C70.7301 56.0736 70.8215 56.0507 70.913 56.0279Z" fill="white"/>
<path d="M42.4061 57.9482C40.8058 59.1598 39.137 59.1598 37.8797 58.0168C36.5538 56.828 36.2566 54.4048 37.2625 52.7589C38.1083 51.3415 39.9371 50.7243 41.5602 51.3415C42.1775 51.5701 42.7261 51.9359 43.0233 52.5531C43.1833 52.8732 43.6405 53.3304 43.1604 53.5818C42.8175 53.7647 42.1774 53.9019 41.8345 53.3304C41.2402 52.3017 40.3486 52.2102 39.3885 52.6217C38.4741 53.0103 37.994 54.4277 38.2455 55.7307C38.4741 56.9195 39.1599 57.6053 40.1657 57.6739C40.7601 57.7196 41.3088 57.5824 41.7202 57.1023C41.9717 56.8052 42.2232 56.4394 42.0631 56.0736C41.926 55.7307 41.5145 55.9365 41.2402 55.9136C40.8515 55.8907 40.4858 55.9593 40.4629 55.365C40.4401 54.6791 40.8973 54.7934 41.3088 54.7934C43.5491 54.7249 43.5491 54.7249 43.5491 56.9423C43.5491 57.2395 43.5719 57.5596 43.5491 57.8567C43.5034 58.1768 43.7777 58.6568 43.1604 58.7483C42.5889 58.7712 42.5204 58.3825 42.4061 57.9482Z" fill="white"/>
<path d="M80.6972 56.7367C80.6972 57.0339 80.7201 57.3539 80.6972 57.6511C80.6515 57.994 80.9258 58.4741 80.4686 58.657C80.0571 58.817 79.8057 58.6113 79.6457 58.1541C79.5085 57.7883 79.3028 58.1541 79.1427 58.2455C77.1996 59.48 74.7992 58.657 74.0906 56.4624C73.5876 54.8622 73.7477 53.3305 74.9364 52.0961C75.9423 51.0445 77.2453 50.8387 78.6169 51.2502C79.3028 51.456 79.8285 51.8675 80.1943 52.4847C80.3772 52.8047 80.7201 53.2848 80.3772 53.4677C79.9886 53.6963 79.4171 53.7877 78.9827 53.2162C78.2283 52.2332 77.1767 52.0503 76.308 52.6676C75.3479 53.3534 75.0279 55.3422 75.7137 56.5538C76.2395 57.4911 77.4053 57.8569 78.3883 57.3997C78.7084 57.2396 78.9598 57.011 79.1199 56.7139C79.3942 56.1652 79.4628 55.7766 78.6169 55.8223C78.2054 55.8452 77.6568 56.0509 77.6797 55.2508C77.7025 54.4507 78.2969 54.725 78.6627 54.725C80.6972 54.7021 80.6972 54.7021 80.6972 56.7367Z" fill="white"/>
<path d="M125.435 56.0737C125.435 54.7249 125.458 53.3533 125.435 52.0046C125.435 51.5016 125.526 51.2502 126.121 51.2502C126.738 51.2502 126.898 51.4559 126.875 52.0503C126.852 53.902 126.875 55.7765 126.852 57.6282C126.852 57.9711 127.172 58.5655 126.532 58.6569C125.961 58.7255 125.344 58.8627 124.955 58.1312C124.201 56.8052 123.378 55.5479 122.555 54.2449C122.463 54.1077 122.349 53.9706 122.052 53.5591C122.052 55.205 122.029 56.5538 122.075 57.9025C122.097 58.4969 121.892 58.6798 121.297 58.7027C120.703 58.7027 120.634 58.4283 120.634 57.9483C120.657 56.0509 120.634 54.1534 120.657 52.256C120.657 51.936 120.406 51.3873 120.977 51.3187C121.503 51.2502 122.097 51.0673 122.486 51.7302C123.378 53.2162 124.315 54.6792 125.229 56.1652C125.275 56.1423 125.344 56.1194 125.435 56.0737Z" fill="white"/>
<path d="M98.3455 54.7707C98.4598 53.7878 97.8197 52.1647 98.5969 51.4788C99.2599 50.8845 100.837 51.296 102.003 51.2731C102.415 51.2731 102.849 51.296 103.26 51.2731C103.786 51.2274 103.901 51.4789 103.901 51.9589C103.901 52.4161 103.718 52.5533 103.283 52.5304C102.369 52.5076 101.454 52.5533 100.54 52.5076C99.8085 52.4618 99.8771 52.9191 99.8771 53.3991C99.8771 53.8335 99.74 54.3364 100.517 54.2907C101.317 54.245 102.117 54.2907 102.918 54.2678C103.42 54.245 103.58 54.4507 103.58 54.9308C103.58 55.4794 103.26 55.4337 102.895 55.4337C102.277 55.4337 101.683 55.4337 101.066 55.4337C99.9686 55.4337 99.5342 56.1424 99.9 57.1482C100.037 57.514 100.311 57.4226 100.54 57.4454C101.409 57.4683 102.3 57.4454 103.169 57.4454C103.58 57.4454 103.992 57.354 103.992 58.0398C103.992 58.657 103.695 58.7027 103.215 58.7027C101.843 58.6799 100.471 58.6799 99.0999 58.7027C98.5055 58.7256 98.2997 58.5427 98.3226 57.9255C98.3683 56.9425 98.3455 55.9595 98.3455 54.7707Z" fill="white"/>
<path d="M104.746 51.3872C104.701 51.3414 104.724 51.2957 104.769 51.2729C104.861 51.2729 105.684 51.2729 105.912 51.2729C105.981 51.2957 106.072 51.3186 106.141 51.3643C106.347 51.57 107.421 53.4675 108.015 54.2904C108.038 54.3362 108.13 54.4962 108.175 54.4962C108.221 54.4962 108.313 54.3133 108.335 54.2904C108.701 53.6732 109.204 52.8502 109.524 52.233C109.707 51.913 109.913 51.5243 110.096 51.3186C110.119 51.2957 110.164 51.25 110.301 51.25C110.507 51.25 111.216 51.25 111.582 51.25C111.627 51.25 111.65 51.2729 111.673 51.2957C111.696 51.3186 111.627 51.41 111.604 51.4329C111.124 52.2787 110.644 53.0331 110.119 53.7646C109.707 54.3362 109.25 55.022 109.021 55.6392C108.907 55.9592 108.953 56.4393 108.93 56.9651C108.93 57.5823 108.907 58.3596 108.907 58.7025H107.49C107.49 58.7025 107.49 57.6281 107.49 57.0108C107.49 56.485 107.513 55.9821 107.398 55.6621C107.17 54.9991 106.598 54.359 106.187 53.7418C105.661 53.0103 105.249 52.2101 104.746 51.3872Z" fill="white"/>
<path d="M64.2606 58.7257C64.1235 58.7257 62.9119 58.7257 62.7518 58.7257C62.7518 58.68 62.7518 51.3646 62.7518 51.2732C62.8661 51.2732 64.2149 51.2732 64.2606 51.2732C64.2606 51.3418 64.2606 58.68 64.2606 58.7257Z" fill="white"/>
<path d="M24.0263 21.0518C24.0263 20.3432 23.912 20.0688 23.1119 20.0688C19.2713 20.1146 15.4079 20.046 11.5674 20.1146C6.28661 20.206 1.98886 23.475 0.434348 28.5272C0.342906 28.8244 0 30.859 0 31.6134C0 32.4592 0.182883 34.2423 0.388627 35.0196C2.76611 42.9978 11.9789 46.1526 18.6998 41.3062C18.9284 41.1461 19.0884 40.8261 19.5228 40.9404C19.5228 41.832 19.5456 42.7464 19.5228 43.6379C19.3856 47.4556 16.9396 50.4275 13.1905 51.2962C11.2245 51.7534 9.25846 51.479 7.26961 51.4105C6.90384 51.3876 6.49236 51.1819 6.33233 51.6162C6.30947 51.7076 6.03515 53.1936 6.12659 53.445C6.21803 53.6965 6.4695 53.8794 7.01815 53.948C8.98414 54.1309 10.973 54.3595 12.939 54.2223C19.8657 53.7194 23.9348 49.6731 23.9806 43.135C24.0491 35.7739 24.0034 28.4129 24.0263 21.0518ZM19.5228 32.2992C19.317 36.6426 15.728 39.9574 11.4759 39.8431C7.20103 39.7288 3.84055 36.1169 3.88627 31.7048C3.90913 27.3156 7.17817 23.9323 11.5445 23.818C12.6418 23.7951 13.762 23.818 14.8593 23.818C16.1623 23.818 17.4425 23.8408 18.7455 23.818C19.2942 23.818 19.5914 23.8865 19.5685 24.5495C19.5228 27.1327 19.6371 29.7159 19.5228 32.2992Z" fill="white"/>
<path d="M84.3549 34.1277C85.9094 34.1505 87.4868 34.1277 89.0413 34.1277C90.3443 34.1277 91.6245 34.1734 92.9276 34.1277C94.8707 34.0591 96.8138 33.8076 98.5969 32.9847C100.083 32.2989 101.546 31.3616 101.843 29.6928C102.735 24.7321 101.729 22.3089 97.1796 20.8915C93.6591 19.7942 90.0472 19.8399 86.4352 20.4114C82.206 21.0972 79.9657 23.2918 79.2342 27.521C78.7541 30.2414 78.9141 32.9847 79.4856 35.6822C80.4001 40.0714 82.9833 42.6318 87.5096 43.1804C91.9446 43.7062 96.3338 43.249 100.7 42.6546C101.82 42.5175 101.112 41.4887 101.226 40.8715C101.363 40.14 100.746 40.3914 100.38 40.4143C96.6995 40.6658 93.019 41.0772 89.3385 40.5515C85.7951 40.0485 84.2406 38.3797 83.7605 34.8135C83.6691 34.2648 83.8063 34.1277 84.3549 34.1277ZM83.4176 30.5843C83.4634 29.6013 83.4405 28.6183 83.5777 27.6353C83.9663 24.9607 85.3379 23.4519 87.9897 22.9947C90.07 22.6289 92.1503 22.606 94.2306 22.9718C96.4938 23.3604 97.5682 24.4577 97.6597 26.4009C97.7968 29.167 96.9739 30.4929 94.6421 31.1558C92.6761 31.7273 90.6415 31.3616 88.9499 31.4759C87.1896 31.4759 85.7494 31.4302 84.3092 31.4987C83.6005 31.4987 83.3948 31.2701 83.4176 30.5843Z" fill="white"/>
<path d="M33.1247 34.1276C34.6564 34.1734 36.1652 34.1505 37.6968 34.1505C38.9998 34.1505 40.28 34.1962 41.5831 34.1505C43.5262 34.0819 45.4465 33.8305 47.2525 33.0075C48.7155 32.3445 50.1329 31.4301 50.4529 29.807C51.3902 24.9606 50.5215 22.3774 45.9266 20.9601C42.086 19.7256 38.1769 19.7713 34.2906 20.5714C30.6787 21.303 28.5755 23.6119 27.9125 27.1781C27.2953 30.5157 27.4782 33.8533 28.5069 37.0995C29.5128 40.2771 31.6159 42.2888 34.9078 42.9289C39.5714 43.8433 44.2349 43.2947 48.8755 42.6774C49.1042 42.6546 49.4242 42.586 49.5156 42.4946C49.6757 42.3345 49.4242 40.7114 49.4242 40.6657C49.4013 40.2314 48.8984 40.4143 48.5555 40.4371C44.9436 40.6657 41.3316 41.0772 37.7425 40.5514C34.4506 40.0485 32.7818 38.2654 32.3932 34.9735C32.3246 34.3563 32.416 34.1048 33.1247 34.1276ZM32.0503 30.6757C32.0503 29.487 32.0731 28.3211 32.2789 27.1552C32.6904 24.8463 34.0849 23.4518 36.5309 22.9946C38.6341 22.606 40.7601 22.5831 42.8861 22.9489C45.1264 23.3375 46.2237 24.4577 46.338 26.4008C46.4752 29.1441 45.6294 30.4928 43.2976 31.1558C41.3316 31.7273 39.297 31.3615 37.6054 31.4758C35.8451 31.4758 34.4049 31.453 32.9418 31.4987C32.3246 31.4987 32.0503 31.3387 32.0503 30.6757Z" fill="white"/>
<path d="M95.5107 54.6335C96.4709 54.0848 96.6766 53.3076 96.4252 52.416C96.1508 51.5016 95.3507 51.2959 94.5049 51.273C93.4762 51.2501 92.4475 51.2959 91.4188 51.2501C90.893 51.2273 90.6873 51.3873 90.6873 51.936C90.7101 53.9477 90.7101 55.9822 90.6873 57.994C90.6873 58.4512 90.7787 58.7026 91.3045 58.6798C92.4018 58.634 93.5219 58.6798 94.6192 58.634C95.6479 58.5883 96.5166 58.1997 96.7909 57.1253C97.0881 56.0508 96.6766 55.205 95.5107 54.6335ZM93.4762 52.4389C94.162 52.4617 95.0764 52.3703 95.0078 53.4219C94.9392 54.6106 93.8877 54.222 93.1562 54.3363C92.2875 54.4735 92.2189 54.0162 92.1732 53.3076C92.1046 52.1417 92.859 52.4846 93.4762 52.4389ZM95.305 56.508C95.2136 57.8339 94.0934 57.3996 93.2933 57.5368C92.2417 57.7196 92.2189 57.1481 92.1732 56.3023C92.0817 55.0221 92.9275 55.3879 93.5676 55.3422C94.3906 55.365 95.3964 55.2507 95.305 56.508Z" fill="white"/>
<path d="M132.065 51.2958C131.242 51.2501 130.396 51.3186 129.55 51.2729C128.864 51.2272 128.59 51.4101 128.636 52.1416C128.704 53.0789 128.658 54.039 128.658 54.9992C128.658 55.1592 128.658 55.2964 128.658 55.4564C128.658 58.9769 128.658 58.9769 132.156 58.6797C134.122 58.5197 135.265 57.1023 135.219 54.8849C135.196 52.7131 134.031 51.3872 132.065 51.2958ZM130.899 57.4681C130.35 57.4452 130.167 57.2623 130.19 56.7366C130.213 56.1193 130.19 55.525 130.19 54.9077C130.19 54.702 130.167 54.4962 130.167 54.3134C130.167 54.2448 130.19 54.1762 130.19 54.1305C130.327 53.6047 129.733 52.8503 130.601 52.576C131.63 52.2559 133.002 52.8046 133.39 53.6275C134.465 55.7078 133.23 57.5595 130.899 57.4681Z" fill="white"/>
<path d="M115.491 51.0901C113.319 51.0672 111.787 52.7132 111.787 55.0221C111.787 57.331 113.296 58.9083 115.537 58.8626C117.685 58.8397 119.103 57.2852 119.103 54.9535C119.08 52.6674 117.617 51.1129 115.491 51.0901ZM115.422 57.6281C114.142 57.6053 113.365 56.5994 113.342 55.0221C113.342 53.3533 114.142 52.3703 115.491 52.3931C116.794 52.416 117.548 53.3761 117.571 54.9992C117.571 56.6223 116.725 57.651 115.422 57.6281Z" fill="white"/>
<path d="M51.5274 57.8108C50.8415 55.8677 50.0871 53.9703 49.4013 52.05C49.2185 51.5014 48.9898 51.1585 48.3498 51.3185C47.7325 51.1585 47.4125 51.4328 47.2067 52.05C46.5209 53.9932 45.8123 55.9134 45.0121 57.788C44.5778 58.7938 45.1036 58.7253 45.7894 58.7024C46.4066 58.7024 46.3609 58.1995 46.5209 57.8566C46.6809 57.5365 46.6124 57.0336 47.161 57.0336C47.9611 57.0107 48.7841 56.9422 49.5385 57.0793C50.0414 57.1708 49.9728 57.9023 50.1786 58.3138C50.5215 58.9767 51.1387 58.7481 51.5731 58.6338C52.0989 58.4967 51.6188 58.0395 51.5274 57.8108ZM47.2525 55.7991C47.5725 54.9076 47.8697 54.0389 48.2812 52.9187C48.5098 53.5131 48.6469 53.8789 48.7841 54.2446C49.4013 56.0963 49.4013 56.0963 47.2525 55.7991Z" fill="white"/>
<path d="M88.1269 55.8224C88.1497 55.5938 88.2183 55.3423 87.8983 55.2738C87.6011 55.2052 87.4868 55.3881 87.4182 55.6395C87.3496 55.8681 87.281 56.0739 87.1667 56.4625C86.801 56.0282 86.5724 55.731 86.298 55.4567C85.7951 54.9766 85.7265 54.6337 86.3895 54.1536C87.2353 53.5135 87.3268 52.4848 86.7781 51.8447C86.2523 51.2275 85.0636 51.0903 84.3549 51.5475C83.6234 52.0276 83.4405 52.9649 84.1034 53.8564C84.5835 54.5194 84.3092 54.7023 83.7834 55.0452C82.9375 55.5938 82.5718 56.3939 82.8461 57.3998C83.0976 58.2913 83.7605 58.68 84.6064 58.7943C85.3608 58.9086 86.0923 58.7714 86.6409 58.2685C87.0753 57.8798 87.3496 57.7884 87.6925 58.3142C87.9897 58.7485 88.3555 58.8171 88.8355 58.5199C87.9668 57.3769 87.944 57.3769 88.1269 55.8224ZM85.3836 51.959C85.978 51.9361 86.298 52.2333 86.3666 52.8277C86.2752 53.4449 85.9094 54.0393 85.3608 54.0393C84.835 54.0393 84.5835 53.3764 84.5378 52.8277C84.5149 52.2562 84.8578 52.0047 85.3836 51.959ZM84.995 58.1542C84.3092 58.0856 83.6919 57.7427 83.6462 56.8054C83.6234 56.1196 84.4235 55.1137 84.9493 55.1595C85.2007 55.1823 86.7552 57.0112 86.7095 57.2626C86.6638 57.6741 85.818 58.177 84.995 58.1542Z" fill="white"/>
</g>
<defs>
<clipPath id="clip0">
<rect width="160" height="80" fill="white"/>
</clipPath>
</defs>
</svg>
