<svg width="160" height="80" viewBox="0 0 160 80" fill="none" xmlns="http://www.w3.org/2000/svg">
<path d="M46.6377 38.8456C46.6377 20.6638 65.7431 6.00286 82.0201 5.8297C97.2582 5.71426 108.34 13.6219 111.861 27.417C108.514 12.9293 97.0273 4.61758 81.3275 4.79074C64.7618 4.90618 45.3102 19.8557 45.3102 38.3838C45.3102 60.0865 55.5843 71.8614 75.1514 71.8614C77.5757 71.8614 79.9999 71.6306 82.4242 71.1111C80.2885 71.5151 78.1529 71.6883 75.9595 71.6883C57.3737 71.6883 46.6377 57.0274 46.6377 38.8456Z" fill="#733A03"/>
<path d="M112.843 38.326C112.958 34.401 112.612 30.7647 111.861 27.4746C108.398 13.6218 97.2583 5.71415 82.0202 5.88731C65.7432 6.06047 46.6378 20.7214 46.6378 38.9032C46.6378 57.085 57.3737 71.8036 75.9019 71.8036C78.0952 71.8036 80.2309 71.5727 82.3665 71.2264C98.4127 67.8787 112.323 54.4299 112.843 38.326Z" fill="url(#paint0_linear)"/>
<path d="M77.9222 12.2945C77.8645 12.2367 77.8645 12.1213 77.8068 12.0636C76.1906 10.5051 74.4013 9.58161 72.0348 10.2165C70.4186 10.6206 69.2065 11.5441 68.0521 12.5831C67.879 12.6985 67.7635 12.8717 67.6481 12.9871C66.436 15.3536 66.3782 17.7201 67.5326 20.0867C67.6481 20.2598 67.8212 20.433 67.9367 20.6061C68.283 21.0102 68.6293 21.4719 68.9756 21.876C69.7837 21.7028 70.4186 22.3377 71.2267 22.4532C73.9973 22.4532 76.2484 21.4142 77.9222 19.2209C79.1344 16.9121 79.0189 14.6033 77.9222 12.2945ZM75.7866 19.5672C74.459 20.9525 72.7274 21.6451 70.765 20.6061C68.4562 19.9135 68.2253 17.8933 68.1676 15.9885C68.1098 13.9683 69.9569 11.9481 71.9194 11.5441C74.055 11.0823 75.6712 11.8904 76.6524 13.9106C77.7491 15.9885 77.2873 18.0087 75.7866 19.5672Z" fill="#764508"/>
<path d="M104.531 57.2583C104.473 57.2005 104.416 57.0851 104.358 57.0274C102.396 54.2568 100.375 51.544 98.4129 48.7734C98.3551 48.7157 98.2974 48.7157 98.2397 48.658C97.3162 47.9076 97.7202 47.3304 98.2974 46.8687C97.0276 47.0995 95.7577 47.3304 95.7577 49.1775C95.8155 49.2352 95.8155 49.2929 95.7577 49.4083C98.5283 50.6205 99.2787 53.5065 101.818 55.6998C99.5673 55.6998 98.4129 54.9495 97.0853 54.5454C94.9497 54.0837 92.9872 53.0447 90.8515 52.5252C90.5629 52.5252 90.2166 52.5829 89.928 52.6984C89.2354 53.3333 87.6769 53.5065 88.4273 55.0072C89.0045 54.6609 89.6394 55.0072 89.9857 55.4689C91.3133 57.2005 92.8717 58.759 93.7953 60.7792C94.0261 61.1832 94.3147 61.5873 94.4879 61.9336C95.0074 62.9148 93.9107 62.7994 94.0261 63.6075C94.0839 64.0692 94.0839 64.1847 94.4879 64.2424C96.1041 64.0115 97.0276 62.6262 98.2974 61.7604C98.3551 61.7027 98.4129 61.7027 98.4706 61.645C98.4129 61.0678 98.1243 60.7215 97.5471 60.7792C97.4893 60.8946 97.3739 60.9523 97.3162 61.0101C96.7967 61.4718 96.3927 61.1255 95.9886 60.606C95.1805 59.5093 94.4302 58.4127 93.6221 57.316C93.5644 57.2583 93.5644 57.2583 93.5066 57.2005C93.1603 56.7965 92.8717 56.3347 92.5254 55.9307C92.4677 55.9307 92.4677 55.873 92.4677 55.873C92.0059 55.6421 91.9482 55.1226 91.775 54.6609C92.6986 54.3145 93.3912 54.8917 94.0839 55.2381C94.3147 55.3535 94.5456 55.4689 94.7765 55.4689C96.9121 56.1616 99.1055 56.7965 101.241 57.5469C102.453 57.9509 103.55 58.1241 104.531 57.2583Z" fill="#764508"/>
<path d="M78.6149 58.2972C78.2686 57.8355 78.0954 57.6623 77.8646 57.4314C77.7491 57.316 77.6337 57.2583 77.5182 57.1428C76.5947 56.3925 75.6135 56.0461 74.5745 56.0461C73.8242 56.0461 73.0738 56.1616 72.3234 56.4502C71.169 56.8542 70.2455 57.8932 68.8602 57.7777C68.8602 57.72 68.9179 57.72 68.9179 57.6623C68.2253 57.8355 67.879 58.2395 67.879 58.9321C67.9367 58.8744 67.9367 58.8167 67.9944 58.8167C68.0521 58.9321 68.1099 59.0476 68.1676 59.163C67.7635 61.2987 66.9555 63.3766 67.3018 65.6277C67.2441 65.9163 67.3018 66.2049 67.3595 66.4358C67.879 67.0707 68.3407 67.7056 68.8602 68.3405C69.0334 68.456 69.1488 68.5714 69.322 68.6868C70.9959 69.4949 72.7852 69.4949 74.5745 69.2063C77.5182 67.9365 78.9035 65.4545 79.5384 62.4531C79.7693 60.8946 79.0767 58.9321 78.6149 58.2972ZM73.3624 67.8788C71.2845 68.1096 69.6106 67.417 68.8025 65.5122C67.9367 63.3766 68.2253 61.2409 69.6683 59.4516C70.9381 57.8355 72.612 56.7388 74.8631 57.6623C76.3061 58.0663 77.0565 59.1053 77.4605 60.4906C78.384 63.7806 76.8256 66.5512 73.3624 67.8788Z" fill="#764508"/>
<path d="M68.687 54.0836C66.6668 53.7373 65.6855 51.8325 64.0117 50.909C63.8962 50.8513 63.7808 50.7936 63.6076 50.7936C62.3955 50.4472 61.1834 50.505 59.9135 50.5627C59.5095 50.505 59.0477 50.6781 58.586 50.909C56.0463 52.8138 54.6033 55.3534 54.4879 58.528C54.5456 58.5858 54.6033 58.6435 54.661 58.7012C54.6033 58.7589 54.5456 58.7589 54.5456 58.8166C54.661 59.4516 54.8342 60.1442 54.9496 60.7791C55.0073 60.7791 55.1228 60.7791 55.1805 60.7791C55.1805 60.8368 55.1228 60.8368 55.1228 60.8946C55.7577 61.5295 56.3349 62.2221 57.0853 62.6262C58.99 63.5497 60.9525 64.8195 63.0304 63.0302C63.0304 63.0302 63.0304 63.0302 62.9727 63.0302C62.9727 63.0302 62.9727 63.0302 62.915 63.0302C62.9727 63.0302 63.0304 63.0302 63.0881 63.0302C63.2613 62.1644 62.9727 61.9335 62.0492 62.1067C60.9525 62.2798 59.7404 62.5684 58.7014 61.8758C58.5283 61.8181 58.4128 61.7604 58.2974 61.7026C56.3926 60.7791 56.1617 59.0475 56.3926 57.1428C56.6812 54.7762 58.4705 52.8715 60.8948 52.2943C62.6841 51.4862 63.8962 52.5252 64.9929 53.7373C66.1473 54.5454 65.6278 55.6998 65.6278 56.7387C65.6278 57.085 65.6855 57.4314 65.8587 57.72C65.9741 57.72 66.0319 57.6622 66.1473 57.6622C67.7635 57.1428 68.0521 55.4689 68.9179 54.2568C68.8024 54.1413 68.7447 54.1413 68.687 54.0836Z" fill="#764508"/>
<path d="M104.762 16.1618C104.704 16.104 104.647 16.0463 104.647 15.9886C102.915 15.1805 101.761 13.3912 99.798 12.9294C99.798 13.1026 99.7403 13.218 99.7403 13.3912C99.7403 13.5644 99.6826 13.7375 99.6826 13.9107C101.241 14.8919 100.144 15.4691 99.3363 16.104C98.355 17.3162 97.6624 18.7592 96.2771 19.625C95.5268 21.1257 94.6032 22.3955 92.6985 22.3955C92.2944 22.3955 92.179 22.8573 92.1213 23.2036C92.4099 23.4345 92.7562 23.6654 93.0448 23.8963C94.6032 25.1084 96.1617 26.4359 98.0087 27.1863C103.319 27.3017 106.436 24.4157 106.724 19.2209C106.378 18.0665 105.57 17.143 104.762 16.1618ZM102.338 24.9929C100.433 26.4359 98.6436 26.3205 96.2771 24.6466C95.1804 24.1849 95.0073 23.6077 95.8154 22.6841C97.6624 20.6062 99.4517 18.4706 101.241 16.3349C101.818 15.6423 102.28 15.7 102.857 16.2772C103.492 16.9698 104.185 17.6625 104.82 18.3551C105.743 21.0102 104.993 22.915 102.338 24.9929Z" fill="#764508"/>
<path d="M89.5239 19.1631C89.1199 19.5094 88.8313 19.798 88.4272 19.8557C87.0997 19.9134 84.3291 19.1631 84.1559 19.1631C83.521 19.3939 85.3681 12.9293 86.003 10.6782C86.1761 9.81241 86.7533 9.75469 87.3883 9.87013C87.5037 9.87013 87.6191 9.87013 87.6769 9.92785C88.6004 8.83117 87.6769 8.71573 86.9842 8.54257C86.0607 8.36941 85.0795 8.25397 84.1559 8.08081C84.0982 8.19625 84.0405 8.25397 83.9828 8.36941C83.8673 8.54257 83.7519 8.71573 83.6942 8.88889C83.5787 9.06205 83.521 9.23521 83.7519 9.23521C83.8673 9.23521 83.9828 9.23521 84.0405 9.23521H84.0982C85.4258 9.40837 84.964 10.1587 84.6754 10.8514C84.56 11.0823 84.5023 11.3131 84.5023 11.4863C83.8096 14.026 83.0593 16.6234 82.3666 19.1631C81.6163 19.2208 80.6927 18.9322 80.4619 20.0866C80.6927 20.3175 80.9813 20.3752 81.2122 20.4906C81.7317 20.6061 85.5989 21.0101 86.5802 21.3564C88.7735 22.0491 90.6783 21.9336 91.2555 19.1631C90.6783 18.5281 90.1011 18.6436 89.5239 19.1631Z" fill="#764508"/>
<path d="M55.5268 29.495C60.029 32.2079 63.3768 31.0535 66.1473 25.8586C66.205 25.5123 66.4936 25.2814 67.1286 25.5123C68.5138 25.3392 68.3984 24.5311 67.8212 23.6653C67.3594 23.0304 66.7245 22.5109 66.205 21.876C65.2815 22.5686 64.3003 23.2035 63.4345 24.0116C63.0304 24.4156 63.0882 24.8197 63.6654 25.0506C64.0117 25.166 64.1848 25.0506 64.4157 25.1083C65.1084 25.3392 64.5312 25.8586 64.4157 26.1472C64.2426 26.609 63.8385 26.9553 63.5499 27.3594C62.1646 29.1487 60.433 30.0145 58.182 29.091C56.104 28.4561 55.296 26.9553 55.4114 24.8774C55.5268 22.7418 57.0276 20.7793 59.1055 20.0866C60.0867 19.7403 61.3566 20.1444 61.8183 18.7591C59.9136 17.6047 57.7779 18.99 56.8544 19.6249C55.9309 20.3175 55.0651 21.1256 54.6033 22.28C53.9107 24.8774 53.5644 27.3017 55.5268 29.495Z" fill="#764508"/>
<path d="M54.3146 37.7489C55.4113 37.4025 55.873 35.6709 56.0462 34.9206C55.3535 34.632 54.43 34.632 53.4488 34.7474C53.3333 34.9783 53.2179 35.3823 53.1602 35.9018C53.1025 36.5945 52.987 39.1341 52.8139 39.9422C52.6407 40.5771 52.7561 41.2698 53.4488 41.5007L54.5455 41.2698L54.0837 39.9422C54.0837 39.9422 52.6407 38.2106 54.3146 37.7489Z" fill="#543407"/>
<path d="M57.4314 38.0375C57.4314 38.0375 57.8931 37.1717 56.6233 35.3824C56.4501 35.1515 56.277 35.0361 55.9884 34.9207C55.8152 35.6133 55.3535 37.4026 54.2568 37.7489C52.6406 38.2107 54.0836 39.9423 54.0836 39.9423L54.5454 41.2699L55.5843 41.039L57.4314 38.0375Z" fill="#CEAB3C"/>
<path d="M118.961 27.0131C118.442 25.5124 116.191 19.3364 114.055 16.6235C114.979 18.2397 115.787 19.9136 116.479 21.7029C116.537 21.9915 116.652 22.3378 116.71 22.6264C119.365 29.6683 119.481 36.8833 117.922 44.156C115.787 51.0247 111.169 58.7592 107.994 61.9338C106.205 64.358 104.069 66.3782 101.703 68.2253C100.606 69.0911 99.3941 69.7837 98.182 70.5341C95.5846 72.3811 91.2556 73.9973 89.6971 74.6899C85.7722 76.4792 81.6163 77.0564 77.345 77.1142C65.2815 76.941 60.1445 74.4013 56.9699 72.2657C56.4504 71.9771 55.9886 71.6885 55.5269 71.3422C57.5471 73.4201 60.9525 75.094 62.9727 76.1906C65.5124 77.7491 68.3407 78.6149 71.2844 78.9612C78.2108 80.5196 85.0218 80.1156 91.7173 77.6336C95.3537 76.5947 98.7592 74.9208 101.761 72.612C102.8 72.0348 103.781 71.3999 104.589 70.5341C106.667 69.1488 108.341 67.4172 109.899 65.5124C111.631 64.0694 112.901 62.2801 113.94 60.2599C115.787 57.9511 117.114 55.3537 117.98 52.5254C118.903 50.8515 119.481 49.0622 119.712 47.1574C121.501 40.4619 121.097 33.7087 118.961 27.0131ZM92.8717 76.7678C92.8717 76.7101 92.8717 76.7678 92.8717 76.7678V76.7678Z" fill="url(#paint1_linear)"/>
<path d="M116.768 22.6263C116.71 22.3377 116.595 21.9914 116.537 21.7028C115.844 19.9134 115.036 18.2396 114.113 16.6234C112.958 14.7186 111.631 12.8716 109.957 11.3132C109.495 10.7937 107.879 9.29296 106.609 8.254C106.032 7.84996 105.512 7.3882 104.935 6.98416C103.55 5.88747 102.049 4.96395 100.491 4.21359C99.394 3.52095 98.9322 3.17463 98.1241 2.94375C95.1804 1.90479 92.3521 0.808109 89.2352 0.288629C88.1963 0.288629 83.8673 2.86535e-05 81.8471 0.0577487C80.4041 -0.173132 77.114 0.461789 75.6133 0.634949C74.2858 0.634949 72.3233 1.09671 72.2656 1.15443C70.4762 1.84707 68.6869 2.53971 66.8399 3.23235C64.8774 3.86727 63.1458 4.79079 61.4719 6.00291C55.1227 9.23524 50.3897 14.1992 46.7533 20.202C43.4055 24.9928 41.3853 30.3031 40.5772 36.0751C39.7692 39.8269 39.8269 43.5787 40.4041 47.3882C40.4618 49.0044 40.6927 50.6205 41.3853 52.179C41.443 53.1025 41.7316 54.026 42.3088 54.8918C42.3088 56.1039 42.9438 57.0852 43.6364 58.0087C43.8096 59.0476 44.3868 59.9134 45.0217 60.6638C47.5036 65.3391 51.3132 68.6292 55.5845 71.342C56.0462 71.6306 56.5657 71.9769 57.0275 72.2655C60.2021 74.4012 65.3391 76.9409 77.4026 77.114C81.6739 77.0563 85.8298 76.4791 89.7547 74.6898C91.3709 73.9971 95.6422 72.381 98.2396 70.5339C99.394 69.7836 100.664 69.0909 101.76 68.2251C104.069 66.3781 106.263 64.3579 108.052 61.9337C111.227 58.7013 115.844 51.0246 117.98 44.1559C119.538 36.8831 119.423 29.7259 116.768 22.6263ZM50.9669 59.4517C50.101 58.4704 49.5816 57.8932 48.658 56.0462C47.6768 53.622 46.9264 50.7937 46.7533 49.9279C46.407 49.1198 45.5412 41.8471 45.5989 41.1544C46.0029 35.6133 47.1573 30.3031 49.697 25.3969C50.0433 24.8197 50.3897 24.2425 50.6783 23.6653C51.0823 22.5686 55.1804 17.0852 56.9697 15.6999C58.7591 13.7951 60.9524 12.3521 63.0303 10.8514C63.6075 10.4474 64.9351 9.52384 65.2814 9.4084C67.7057 8.19628 72.7273 6.23379 72.7273 6.23379C75.267 5.54115 76.8254 5.36799 78.9034 5.31027C79.2497 5.25255 81.3853 5.36799 82.2511 5.36799C84.8485 5.36799 87.4459 5.59887 89.9856 6.17607C93.2179 6.75328 96.1039 8.254 98.8745 9.92788C99.6249 10.3896 101.472 11.544 101.645 11.8326C103.838 14.1414 106.32 16.1616 107.821 19.0476C108.398 19.8557 110.996 24.7619 111.284 26.6667C111.457 27.1285 112.612 31.5729 112.381 33.3045C112.496 35.9596 111.746 42.5974 111.631 43.1169C110.592 47.9654 108.456 52.2944 105.628 56.2771C104.993 57.316 103.319 59.4517 103.203 59.5094C100.317 62.1068 97.4315 64.6465 94.0837 66.609C93.7374 66.7821 89.3507 69.0909 87.2728 69.6104C85.368 70.3031 83.4055 70.7648 81.443 71.0534C77.8067 71.7461 74.1703 71.5729 70.5339 70.9957C68.1674 70.7071 64.4156 69.5527 63.7807 69.2064C61.5873 68.052 59.2785 67.1285 57.4315 65.3969C54.9495 63.5498 52.6985 61.9337 50.9669 59.4517Z" fill="url(#paint2_linear)"/>
<path d="M77.2872 11.6594C77.2295 11.6017 77.2295 11.4863 77.1718 11.4286C75.5556 9.87012 73.7663 8.9466 71.3998 9.58152C69.7836 9.98556 68.5715 10.9091 67.4171 11.948C67.2439 12.0635 67.1285 12.2366 67.0131 12.3521C65.8009 14.7186 65.7432 17.0851 66.8976 19.4517C67.0131 19.6248 67.1862 19.798 67.3017 19.9711C67.648 20.3752 67.9943 20.8369 68.3406 21.241C69.1487 21.0678 69.7836 21.7027 70.5917 21.8182C73.3623 21.8182 75.6134 20.7792 77.2872 18.5859C78.4994 16.277 78.3839 13.9682 77.2872 11.6594ZM75.1516 18.9899C73.824 20.3752 72.0924 21.0678 70.1299 20.0289C67.8211 19.3362 67.5903 17.316 67.5325 15.4112C67.4748 13.391 69.3219 11.3708 71.2844 10.9668C73.42 10.505 75.0362 11.3131 76.0174 13.3333C77.1141 15.3535 76.6523 17.3737 75.1516 18.9899Z" fill="#ECDA68"/>
<path d="M87.5613 66.8397C86.1183 67.1861 85.6565 66.378 85.5411 65.1081C85.4257 63.9537 85.1371 62.7416 85.0216 61.5872C84.8485 60.0865 84.2713 58.528 84.5599 57.085C84.6753 56.6233 85.8297 56.7387 86.1183 56.3347C86.2915 56.1038 85.8874 55.2957 85.7143 55.1226C84.6176 55.238 83.5209 55.4112 82.4819 55.5266C81.847 55.5843 81.0967 55.642 80.8658 56.0461C80.5772 56.5078 80.7503 57.1428 80.9812 57.1428C81.5584 57.1428 82.1933 57.1428 82.4242 57.4891C82.7128 57.8931 82.6551 58.6435 82.8283 59.0475C83.6363 61.3563 83.29 63.9537 83.9827 66.2625C84.329 67.3015 83.6363 67.7633 82.6551 67.7633C82.6551 67.8787 82.6551 68.0519 82.5397 68.1673C82.7128 68.4559 82.886 68.8022 83.0591 69.0908C84.2135 68.8022 85.3679 68.5136 86.5223 68.2827C87.4459 68.1096 87.8499 67.7055 87.5613 66.8397Z" fill="#764508"/>
<path d="M86.6378 66.4935C85.1948 66.8399 84.733 66.0318 84.6176 64.7619C84.5021 63.6075 84.2135 62.3954 84.0981 61.241C83.9249 59.7403 83.3477 58.1819 83.6363 56.7389C83.7518 56.2771 84.9062 56.3925 85.1948 55.9885C85.3679 55.7576 84.9639 54.9495 84.7907 54.7764C83.6941 54.8918 82.5974 55.065 81.5584 55.1804C80.9235 55.2381 80.1731 55.2958 79.9423 55.6999C79.7114 56.1039 79.8845 56.7389 80.1731 56.7389C80.7503 56.7389 81.3853 56.7388 81.6161 57.0852C81.9047 57.4892 81.847 58.2396 82.0202 58.6436C82.8283 60.9524 82.4819 63.5498 83.1746 65.8586C83.5209 66.8976 82.8283 67.3593 81.847 67.3593C81.847 67.4748 81.847 67.6479 81.7316 67.7634C81.9047 68.052 82.0779 68.3983 82.2511 68.6869C83.4055 68.3983 84.5599 68.1097 85.7143 67.8788C86.4646 67.7634 86.8687 67.4171 86.6378 66.4935Z" fill="#FBF576"/>
<path d="M103.896 56.6235C103.838 56.5658 103.781 56.4503 103.723 56.3926C101.761 53.6221 99.7403 50.9092 97.7778 48.1387C97.7201 48.0809 97.6624 48.0809 97.6047 48.0232C96.6812 47.2728 97.0852 46.6956 97.6624 46.2339C96.3926 46.4648 95.1227 46.6956 95.1227 48.5427C95.1804 48.6004 95.1804 48.6581 95.1227 48.7736C97.8933 49.9857 98.6436 52.8717 101.183 55.0651C98.9322 55.0651 97.7778 54.3147 96.4503 53.9107C94.3146 53.4489 92.3522 52.4099 90.2165 51.8905C89.9279 51.8905 89.5816 51.9482 89.293 52.0636C88.6004 52.6985 87.0419 52.8717 87.7923 54.3724C88.3695 54.0261 89.0044 54.3724 89.3507 54.8342C90.6783 56.5658 92.2367 58.1242 93.1602 60.1444C93.3911 60.5485 93.6797 60.9525 93.8529 61.2988C94.3724 62.2801 93.2757 62.1646 93.3911 62.9727C93.4488 63.4345 93.4488 63.5499 93.8529 63.6076C95.469 63.3767 96.3926 61.9915 97.6624 61.1257C97.7201 61.0679 97.7778 61.0679 97.8356 61.0102C97.7778 60.433 97.4892 60.0867 96.912 60.1444C96.8543 60.2599 96.7389 60.3176 96.6812 60.3753C96.1617 60.8371 95.7576 60.4907 95.3536 59.9713C94.5455 58.8746 93.7952 57.7779 92.9871 56.6812C92.9294 56.6235 92.9294 56.6235 92.8716 56.5658C92.5253 56.1617 92.2367 55.7 91.8904 55.2959C91.8327 55.2959 91.8327 55.2382 91.8327 55.2382C91.3709 55.0073 91.3132 54.4879 91.14 54.0261C92.0636 53.6798 92.7562 54.257 93.4488 54.6033C93.6797 54.7187 93.9106 54.8342 94.1415 54.8342C96.2771 55.5268 98.4705 56.1617 100.606 56.9121C101.818 57.3739 102.915 57.4893 103.896 56.6235Z" fill="#FBEC70"/>
<path d="M77.9798 57.6623C77.6334 57.2006 77.4603 57.0274 77.2294 56.7965C77.114 56.6811 76.9985 56.6234 76.8831 56.5079C75.9596 55.7576 74.9783 55.4112 73.9393 55.4112C73.189 55.4112 72.4386 55.2958 71.6883 55.5844C70.5339 55.9884 68.5714 56.9697 68.2828 57.0851C68.1096 57.2006 67.5324 57.6046 67.2438 58.355C67.1861 58.5281 66.4935 60.1443 66.378 61.8182C66.2626 63.7229 66.7243 65.7431 66.7243 65.9163C67.0707 66.7244 67.5324 67.417 68.2251 67.821C68.3982 67.9365 68.5137 68.0519 68.6868 68.1674C70.3607 68.9754 72.15 68.9754 73.9393 68.6868C76.8831 67.417 78.2684 64.935 78.9033 61.9336C79.1342 60.2597 78.4415 58.2972 77.9798 57.6623ZM72.7272 67.2438C70.6493 67.4747 68.9754 66.7821 68.1673 64.8773C67.3015 62.7417 67.5901 60.606 69.0331 58.8167C70.303 57.2006 71.9769 56.1039 74.2279 57.0274C75.6709 57.4314 76.4213 58.4704 76.8253 59.8557C77.7489 63.1457 76.1904 65.9163 72.7272 67.2438Z" fill="#F2E367"/>
<path d="M68.0519 53.4488C66.0317 53.1025 65.0505 51.1978 63.3766 50.2742C63.2612 50.2165 63.1457 50.1588 62.9726 50.1588C61.7604 49.8125 60.5483 49.8702 59.2785 49.9279C58.8744 49.8702 58.4127 50.0433 57.9509 50.2742C55.4112 52.179 53.9682 54.7187 53.8528 57.8933C53.9105 57.951 53.9682 58.0087 54.0259 58.0664C53.9682 58.1242 53.9105 58.1242 53.9105 58.1819C54.0259 58.8168 54.1991 59.5094 54.3145 60.1444C54.3723 60.1444 54.4877 60.1444 54.5454 60.1444C54.5454 60.2021 54.4877 60.2021 54.4877 60.2598C55.1226 60.8947 55.6998 61.5874 56.4502 61.9914C58.3549 62.9149 60.3174 64.1848 62.3954 62.3954C62.3954 62.3954 62.3954 62.3954 62.3376 62.3954C62.3376 62.3954 62.3376 62.3954 62.2799 62.3954C62.3376 62.3954 62.3954 62.3954 62.4531 62.3954C62.6262 61.5296 62.3376 61.2988 61.4141 61.4719C60.3174 61.6451 59.1053 61.9337 58.0663 61.241C57.8932 61.1833 57.7777 61.1256 57.6623 61.0679C55.7575 60.1444 55.5267 58.4128 55.7575 56.508C56.0461 54.1415 57.8355 52.2367 60.2597 51.6595C62.049 50.8514 63.2612 51.8904 64.3578 53.1025C65.5122 53.9106 64.9928 55.065 64.9928 56.104C64.9928 56.4503 65.0505 56.7966 65.2236 57.0852C65.3391 57.0852 65.3968 57.0275 65.5122 57.0275C67.1284 56.508 67.417 54.8341 68.2828 53.622C68.1674 53.5643 68.1096 53.5066 68.0519 53.4488Z" fill="#F8EE6E"/>
<path d="M104.127 15.5844C104.069 15.5267 104.011 15.4689 104.011 15.4112C102.28 14.6031 101.125 12.8138 99.163 12.3521C99.163 12.5252 99.1053 12.6407 99.1053 12.8138C99.1053 12.987 99.0475 13.1601 99.0475 13.3333C100.606 14.3145 99.5093 14.8917 98.7012 15.5267C97.72 16.7388 97.0273 18.1818 95.6421 19.0476C94.8917 20.5483 93.9682 21.8181 92.0634 21.8181C91.6594 21.8181 91.5439 22.2799 91.4862 22.6262C91.7748 22.8571 92.1211 23.088 92.4097 23.3189C93.9682 24.531 95.5266 25.8585 97.3737 26.6089C102.684 26.7243 105.801 23.8383 106.089 18.6435C105.743 17.4314 104.935 16.5079 104.127 15.5844ZM101.703 24.3578C99.7979 25.8008 98.0086 25.6854 95.6421 24.0115C94.5454 23.5497 94.3722 22.9725 95.1803 22.049C97.0273 19.9711 98.8167 17.8355 100.606 15.6998C101.183 15.0072 101.645 15.0649 102.222 15.6421C102.857 16.3347 103.55 17.0274 104.185 17.72C105.108 20.3751 104.416 22.3376 101.703 24.3578Z" fill="#F5E068"/>
<path d="M88.8889 18.5858C88.4848 18.9321 88.1963 19.2207 87.7922 19.2784C86.4647 19.3361 83.6941 18.5858 83.5209 18.5858C82.886 18.8167 84.733 12.352 85.368 10.1009C85.5988 9.23512 86.1183 9.1774 86.7532 9.23512C86.8687 9.23512 86.9841 9.23512 87.0419 9.29284C87.9654 8.19616 87.0419 8.08072 86.3492 7.90756C85.4257 7.7344 84.4444 7.61896 83.5209 7.4458C83.4632 7.56124 83.4055 7.61896 83.3478 7.7344C83.2323 7.90756 83.1169 8.08072 83.0592 8.25388C82.9437 8.42704 82.886 8.6002 83.1169 8.6002C83.2323 8.6002 83.3478 8.6002 83.4055 8.6002H83.4632C84.7908 8.77336 84.329 9.52372 84.0404 10.2164C83.925 10.4472 83.8672 10.6781 83.8672 10.8513C83.1746 13.391 82.4242 15.9884 81.7316 18.5281C80.9812 18.5858 80.0577 18.2972 79.8268 19.4516C80.0577 19.6825 80.3463 19.7402 80.5772 19.8556C81.0967 19.9711 84.9639 20.3751 85.9452 20.7214C88.1385 21.4141 90.0433 21.2986 90.6205 18.5281C90.0433 17.8931 89.4661 18.0663 88.8889 18.5858Z" fill="#F6ED79"/>
<path d="M54.8918 28.86C59.394 31.5729 62.7418 30.4184 65.5123 25.2236C65.57 24.8773 65.8586 24.6464 66.4936 24.8773C67.8788 24.7042 67.7634 23.8961 67.1862 23.0303C66.7244 22.3954 66.0895 21.8759 65.57 21.241C64.6465 21.9336 63.6653 22.5685 62.7995 23.3766C62.3954 23.7806 62.4532 24.1847 63.0304 24.4156C63.3767 24.531 63.5498 24.4156 63.7807 24.4733C64.4734 24.7042 63.8962 25.2236 63.7807 25.5122C63.6076 25.974 63.2035 26.3203 62.9149 26.7244C61.5296 28.5137 59.798 29.3795 57.547 28.456C55.469 27.821 54.661 26.3203 54.7764 24.2424C54.8918 22.1068 56.3926 20.1443 58.4705 19.4516C59.4517 19.1053 60.7216 19.5094 61.1833 18.1241C59.2786 16.9697 57.1429 18.355 56.2194 18.9899C55.2959 19.6825 54.4301 20.4906 53.9683 21.645C53.2757 24.2424 52.9294 26.6666 54.8918 28.86Z" fill="#E1CF62"/>
<path d="M52.8138 39.9424C53.0447 39.1343 53.1024 36.5946 53.1601 35.902C53.2178 35.3825 53.3333 34.9784 53.4487 34.7476C51.3131 34.9784 49.0043 35.7288 49.0043 35.7288C50.1587 36.0751 50.3318 37.8644 50.5627 39.0766C50.7936 40.2887 49.2351 41.7317 48.7734 42.4243C50.1587 42.8861 52.6983 41.6162 52.6983 41.6162L53.4487 41.4431C52.8138 41.2699 52.6406 40.5773 52.8138 39.9424Z" fill="#CEAB3C"/>
<path d="M54.43 37.2295C54.43 37.2295 56.9119 37.4027 57.5469 37.3449C58.1818 37.2872 58.5281 37.8067 58.5281 37.8067L57.3737 39.2497C57.3737 39.2497 54.1991 39.4806 54.0837 39.4806C53.9682 39.4806 54.43 37.2295 54.43 37.2295Z" fill="#543407"/>
<path d="M106.551 36.0175C105.743 35.8443 105.051 35.498 105.051 35.498C104.589 35.2671 103.492 38.3263 102.857 39.2498C102.338 40.0579 102.511 41.5586 104.243 42.3667C105.974 42.0204 107.475 38.4994 106.551 36.0175Z" fill="#543407"/>
<path d="M109.379 38.9611C109.149 37.749 110.13 35.902 110.88 35.0939C110.361 34.9207 109.668 35.0362 108.687 35.8442C108.167 36.2483 107.359 36.1906 106.609 35.9597C107.532 38.4994 106.032 41.9626 104.358 42.3666C104.646 42.5398 105.05 42.6552 105.455 42.7129C108.225 43.3479 111.169 41.3854 111.169 41.3854C111.169 41.3854 109.61 40.1155 109.379 38.9611Z" fill="#CEAB3C"/>
<path d="M54.2568 40.2309C54.1991 40.9235 54.0836 43.4632 53.9105 44.2713C53.7373 45.0794 53.9682 45.8874 55.0072 45.8874C56.0461 45.8874 63.7229 47.619 79.4228 43.6941C91.948 40.5195 103.03 39.3074 103.838 41.3276C105.974 41.5584 108.052 36.4213 105.916 33.8239C104.185 31.746 90.3896 33.6508 79.5382 36.1905C68.6868 38.7302 57.0851 39.2496 56.1038 38.9033C55.1226 38.6147 54.4877 38.2107 54.2568 40.2309Z" fill="#6B3A06"/>
<path d="M53.218 39.1921C53.1603 39.8847 53.0448 42.4244 52.8717 43.2325C52.6985 44.0405 52.9294 44.8486 53.9684 44.8486C55.0073 44.8486 62.6841 46.5802 78.3839 42.6553C90.9092 39.4807 101.991 38.2685 102.8 40.2887C104.935 40.5196 107.013 35.3825 104.877 32.7851C103.146 30.7072 89.3507 32.612 78.4994 35.1516C67.648 37.6913 56.0463 38.2108 55.065 37.8645C54.0838 37.5182 53.4489 37.1719 53.218 39.1921Z" fill="#F9D440"/>
<path d="M68.6291 38.0377C69.6104 38.0377 71.2265 36.8833 71.1111 39.1343C69.2063 38.6726 68.86 39.1921 69.2063 41.9049C69.3795 43.2902 69.3795 43.2902 67.5324 43.4633C68.2828 42.4821 68.3982 41.3854 68.3405 40.3465C68.2828 39.7115 68.5714 38.1531 67.1861 39.6538C66.8975 39.9424 66.6089 39.8847 66.4935 39.5961C66.378 39.3652 66.378 38.7303 66.5512 38.6149C67.0707 38.2108 67.8788 38.0377 68.6291 38.0377Z" fill="#44360B"/>
<path d="M83.0015 40.5196C83.8673 39.0188 83.9827 37.5758 83.5787 36.4214C82.7706 34.2281 84.1559 34.9207 85.3103 34.7476C84.5599 36.4214 84.2713 37.8067 84.9062 39.3652C85.1948 40.1155 85.1371 40.1155 83.0015 40.5196Z" fill="#3D300A"/>
<path d="M76.8833 36.9985C76.1906 36.9985 74.6322 35.7286 75.498 38.0951C75.8443 39.1341 76.0752 40.6348 74.7476 41.5006C71.6885 40.6926 74.1127 38.5569 73.7087 36.9407C72.9583 37.2293 71.9771 36.9407 71.6885 38.1529C72.9006 38.4415 72.4388 39.4227 72.4388 40.1731C72.5543 42.9436 73.1315 43.29 75.6134 41.9047C77.2296 40.5771 75.8443 38.4415 76.8833 36.9985Z" fill="#372B08"/>
<path d="M64.8775 41.0389C64.1849 40.6926 62.9727 41.0966 62.9727 40.1154C62.9727 39.365 63.8963 39.2496 64.4157 39.9999C64.6466 40.3462 64.9352 40.4617 65.3393 40.5194C65.6856 39.8845 66.1473 39.0187 65.1084 38.7878C64.1849 38.5569 63.0305 38.2683 62.2224 39.0764C61.5297 39.769 61.5875 40.6348 62.1647 41.4429C62.8573 41.7892 64.0694 41.5584 64.2426 42.3664C64.4735 43.5208 63.4922 43.0591 62.9727 42.8859C62.6264 42.7705 62.3378 42.3087 61.9915 42.1356C61.8761 42.0778 61.5875 42.1933 61.3566 42.251C61.472 42.9436 60.9525 44.098 61.8183 44.1558C62.915 44.2135 64.1849 44.6175 65.1661 43.6363C65.9165 42.8859 66.0319 42.1356 65.397 41.2698C65.1661 41.1543 64.9352 41.0966 64.8775 41.0389Z" fill="#6B5615"/>
<path d="M95.3537 35.7864C94.4879 35.5556 93.3335 35.9019 93.1026 34.5743C94.3147 33.7662 94.9496 34.228 95.2959 35.4401C96.4503 35.0938 95.9886 34.0548 96.1617 33.3622C95.3537 33.3045 94.5456 33.1313 93.7952 33.3045C92.2945 33.6508 91.4287 34.4589 92.5831 36.075C92.9294 36.2482 93.218 36.4214 93.5643 36.5945C94.1415 36.8831 95.0073 36.71 95.1228 37.6335C95.1805 38.0375 94.8919 38.3261 94.5456 38.4993C93.5643 38.9033 93.5066 37.9221 93.1026 37.518C92.8717 37.2294 92.6985 36.8254 92.2368 36.9986C91.6596 37.2294 91.7173 37.8066 91.7173 38.3261C91.7173 38.8456 91.8905 39.3074 92.4677 39.1919C93.5643 38.961 94.7187 39.3651 95.7577 38.7879C96.5081 37.6335 96.6235 36.5945 95.3537 35.7864Z" fill="#4E3C0C"/>
<path d="M91.1401 36.0752C91.0246 35.2671 90.6783 34.2859 89.8702 34.1705C89.4085 34.1127 88.7735 33.9973 88.254 33.9973C87.6191 33.9973 86.811 33.8241 86.2916 34.6899C86.0607 35.094 86.003 35.6712 85.8875 36.6524C85.8298 37.3451 86.003 38.0954 86.2916 38.7303C86.7533 39.6539 87.9077 40.0579 89.0044 39.5961C90.4474 38.9035 91.3709 37.8068 91.1401 36.0752ZM89.9856 37.2873C89.7548 38.3263 88.9467 38.7881 88.0232 38.7303C87.0996 38.7303 86.6956 37.9223 86.6956 36.9987C86.6956 36.4793 86.811 36.4793 86.811 36.0175C86.811 36.0175 86.811 34.8054 87.6768 34.9208C90.1011 34.8631 90.4474 35.498 89.9856 37.2873Z" fill="#413109"/>
<path d="M81.0389 35.7864C80.808 35.8441 77.7488 35.6709 77.8643 37.0562C78.961 38.4992 78.1529 39.9999 78.1529 41.5007C80.3462 41.6738 82.0201 40.9812 82.5973 38.7301C82.8282 37.4603 82.7128 36.1327 81.0389 35.7864ZM79.6536 40.3463C78.5569 40.2885 79.365 39.1341 79.1341 38.5569C79.2496 37.6911 78.8455 36.5945 80.2885 36.5367C81.5584 36.479 81.4429 37.4025 81.4429 38.2106C81.5006 39.5382 80.808 40.404 79.6536 40.3463Z" fill="#493A0D"/>
<defs>
<linearGradient id="paint0_linear" x1="63.7209" y1="70.8034" x2="94.5049" y2="8.562" gradientUnits="userSpaceOnUse">
<stop stop-color="#FBAB13"/>
<stop offset="0.0027027" stop-color="#FBAB13"/>
<stop offset="0.1812" stop-color="#E39010"/>
<stop offset="0.3546" stop-color="#D27C0F"/>
<stop offset="0.473" stop-color="#CC750E"/>
<stop offset="0.5908" stop-color="#CF790F"/>
<stop offset="0.7127" stop-color="#D78611"/>
<stop offset="0.8364" stop-color="#E59A14"/>
<stop offset="0.9606" stop-color="#F8B719"/>
<stop offset="0.9865" stop-color="#FDBE1A"/>
</linearGradient>
<linearGradient id="paint1_linear" x1="76.2248" y1="76.6568" x2="115.09" y2="28.9416" gradientUnits="userSpaceOnUse">
<stop stop-color="#C9A265"/>
<stop offset="0.2568" stop-color="#AE7E3D"/>
<stop offset="0.3973" stop-color="#C1934B"/>
<stop offset="0.7216" stop-color="#DAB167"/>
<stop offset="1" stop-color="#FAE3B2"/>
</linearGradient>
<linearGradient id="paint2_linear" x1="64.0186" y1="75.2036" x2="96.4111" y2="-2.2125" gradientUnits="userSpaceOnUse">
<stop stop-color="#FDF737"/>
<stop offset="0.1543" stop-color="#D5AA21"/>
<stop offset="0.7811" stop-color="#CA9F1D"/>
<stop offset="0.9378" stop-color="#FCED54"/>
<stop offset="1" stop-color="#FBF7A7"/>
</linearGradient>
</defs>
</svg>
