<svg width="160" height="80" viewBox="0 0 160 80" fill="none" xmlns="http://www.w3.org/2000/svg">
<mask id="mask0" mask-type="alpha" maskUnits="userSpaceOnUse" x="0" y="9" width="64" height="64">
<path d="M0 9.03149V72.3496H63.3181V9.03149H0Z" fill="white"/>
</mask>
<g mask="url(#mask0)">
<path d="M4.38356 67.966V47.8747H10.5936C11.0807 47.8747 11.5677 47.6312 11.933 47.2659L12.1766 46.9006L14.8554 54.2065C15.0989 54.9371 15.8295 55.4242 16.5601 55.4242C17.2907 55.4242 18.0213 54.9371 18.2648 54.2065L27.2755 29.3663L33.8508 39.7164C34.2161 40.2035 34.7032 40.5688 35.312 40.5688H43.7139L47.7321 50.31C47.9756 50.9189 48.5845 51.4059 49.3151 51.4059C50.0457 51.4059 50.6545 51.1624 51.0198 50.5536L52.6027 47.8747H58.8128V67.966H4.38356ZM58.9346 13.4151V44.7088H51.8721C51.2633 44.7088 50.6545 45.0741 50.2892 45.5612L49.8021 46.4135L46.5145 38.4988C46.2709 37.8899 45.5403 37.4029 44.9315 37.4029H36.4079L28.6149 25.2263C28.2496 24.6175 27.6408 24.374 26.9102 24.374C26.3014 24.374 25.6925 24.861 25.449 25.4699L16.6819 49.7012L14.3683 43.2476L14.2466 43.1259C14.003 42.6388 13.3942 42.2735 12.9072 42.2735C12.2983 42.2735 11.8113 42.517 11.446 42.8823L9.98478 44.587H4.38356V13.4151H58.9346ZM0 72.3496H63.3181V9.03149H0V72.3496Z" fill="white"/>
</g>
<path d="M129.802 22.3633C129.802 23.2156 130.411 23.5809 131.263 23.5809H131.75C132.724 23.5809 133.212 23.2156 133.212 22.3633V22.2415H137.352V22.6068C137.352 25.2856 135.769 27.1121 132.481 27.1121H130.533C127.245 27.1121 125.54 25.2856 125.54 22.3633V18.2232C125.54 15.3008 127.245 13.4744 130.533 13.4744H132.481C135.647 13.4744 137.473 15.3008 137.473 18.2232V21.1456H129.924V22.3633H129.802ZM133.212 18.7103V18.2232C133.212 17.3709 132.603 17.0056 131.75 17.0056H131.263C130.289 17.0056 129.802 17.3709 129.802 18.2232V18.7103H133.212Z" fill="white"/>
<path d="M146.484 13.4744C148.919 13.4744 150.989 14.8138 150.989 17.7362V26.9903H146.728V18.345C146.728 17.4926 146.241 17.1273 145.266 17.1273H144.901C143.927 17.1273 143.44 17.4926 143.44 18.4668V27.1121H139.178V13.4744H143.44V14.692C144.049 13.7179 145.388 13.4744 146.241 13.4744H146.484Z" fill="white"/>
<path d="M128.828 57.919H133.09V54.0225H128.828V57.919ZM128.828 72.2873H133.09V58.8931H128.828V72.2873Z" fill="white"/>
<path d="M134.795 63.5201C134.795 60.5977 136.499 58.7712 139.787 58.7712H141.735C144.901 58.7712 146.728 60.5977 146.728 63.5201V67.5384C146.728 70.4607 145.023 72.2872 141.735 72.2872H139.787C136.621 72.2872 134.795 70.4607 134.795 67.5384V63.5201ZM141.005 68.8778C141.857 68.8778 142.466 68.5125 142.466 67.6601V63.5201C142.466 62.6677 141.857 62.3024 141.005 62.3024H140.518C139.543 62.3024 139.056 62.6677 139.056 63.5201V67.6601C139.056 68.5125 139.665 68.8778 140.518 68.8778H141.005Z" fill="white"/>
<path d="M155.738 68.3908V68.1473C155.738 67.782 155.251 67.6602 154.521 67.5384L151.476 67.0514C149.406 66.6861 148.067 65.5902 148.067 63.5202V62.7896C148.067 60.476 150.015 58.8931 152.572 58.8931H155.008C157.808 58.8931 159.513 60.5978 159.513 62.7896V63.2766H155.373V63.1549C155.373 62.546 155.251 62.3025 154.399 62.3025H153.181C152.694 62.3025 152.329 62.546 152.329 63.0331C152.329 63.2766 152.451 63.5202 153.059 63.6419L156.591 64.2508C158.904 64.7378 159.878 65.8337 159.878 67.6602V68.3908C159.878 70.7043 158.052 72.5308 155.373 72.5308H152.207C149.65 72.5308 147.945 70.9479 147.945 68.6343V68.0255H152.085V68.1473C152.085 68.7561 152.329 68.9996 153.059 68.9996H154.642C155.251 68.8778 155.738 68.7561 155.738 68.3908Z" fill="white"/>
<path d="M81.8265 20.7804V17.0056H89.4977V22.2416C89.4977 25.1639 87.5495 26.9904 84.3836 26.9904H80.3653C77.1994 26.9904 75.2512 25.1639 75.2512 22.2416V13.9615C75.2512 11.0391 77.3212 9.21265 80.3653 9.21265H84.2618C87.4277 9.21265 89.376 11.0391 89.376 13.9615V16.0315H84.9924V14.4486C84.9924 13.4744 84.3836 12.9874 83.4095 12.9874H81.3394C80.3653 12.9874 79.7565 13.4744 79.7565 14.4486V21.7545C79.7565 22.7286 80.3653 23.2157 81.3394 23.2157H83.4095C84.3836 23.2157 84.9924 22.7286 84.9924 21.7545V20.7804H81.8265Z" fill="white"/>
<path d="M91.0807 18.2232C91.0807 15.3008 92.7854 13.4744 96.0731 13.4744H98.0213C101.187 13.4744 103.014 15.3008 103.014 18.2232V22.2415C103.014 25.1639 101.309 26.9903 98.0213 26.9903H96.0731C92.9072 26.9903 91.0807 25.1639 91.0807 22.2415V18.2232ZM97.2907 23.5809C98.1431 23.5809 98.7519 23.2156 98.7519 22.3633V18.2232C98.7519 17.3709 98.1431 17.0056 97.2907 17.0056H96.8037C95.8295 17.0056 95.3425 17.3709 95.3425 18.2232V22.3633C95.3425 23.2156 95.9513 23.5809 96.8037 23.5809H97.2907Z" fill="white"/>
<path d="M104.597 9.21265H108.858V22.6069C108.858 23.0939 109.102 23.4592 109.711 23.4592H110.685V26.9904H108.493C105.327 26.9904 104.597 25.5292 104.597 23.2157V9.21265Z" fill="white"/>
<path d="M111.903 17.7362C111.903 14.9356 113.851 13.4744 116.408 13.4744H116.773C117.504 13.4744 118.965 13.718 119.574 14.6921V9.21265H123.714V26.9904H119.574V25.7728C118.965 26.7469 117.747 26.9904 117.139 26.9904H116.53C113.973 26.9904 112.024 25.4075 112.024 22.6069V17.7362H111.903ZM116.164 22.3633C116.164 23.2157 116.651 23.581 117.626 23.581H118.113C119.087 23.581 119.574 23.2157 119.574 22.3633V18.3451C119.574 17.4927 119.087 17.1274 118.113 17.1274H117.626C116.651 17.1274 116.164 17.4927 116.164 18.3451V22.3633Z" fill="white"/>
<path d="M90.3501 49.6389H85.2359L81.9483 43.307H79.8782V49.7606H75.4947V31.8611H84.3836C87.5495 31.8611 89.4977 33.6876 89.4977 36.6099V38.1929C89.4977 40.1411 88.5236 41.8459 86.3318 42.5765L90.3501 49.6389ZM83.4094 39.4106C84.3836 39.4106 85.1142 38.9235 85.1142 37.9494V37.097C85.1142 36.1229 84.5053 35.6358 83.4094 35.6358H79.8782V39.4106H83.4094Z" fill="white"/>
<path d="M90.9589 40.8717C90.9589 37.9493 92.6636 36.1228 95.9513 36.1228H97.8995C101.065 36.1228 102.892 37.9493 102.892 40.8717V44.8899C102.892 47.8123 101.187 49.6388 97.8995 49.6388H95.9513C92.7854 49.6388 90.9589 47.8123 90.9589 44.8899V40.8717ZM97.1689 46.2293C98.0213 46.2293 98.6301 45.8641 98.6301 45.0117V40.8717C98.6301 40.0193 98.0213 39.654 97.1689 39.654H96.6819C95.7078 39.654 95.2207 40.0193 95.2207 40.8717V45.0117C95.2207 45.8641 95.8295 46.2293 96.6819 46.2293H97.1689Z" fill="white"/>
<path d="M116.164 44.2811V44.8899C116.164 47.8123 114.46 49.6388 111.172 49.6388H109.224C106.058 49.6388 104.231 47.8123 104.231 44.8899V40.8717C104.231 37.9493 105.936 36.1228 109.224 36.1228H111.172C114.338 36.1228 116.164 37.9493 116.164 40.8717V41.6023H111.903V40.8717C111.903 40.0193 111.294 39.654 110.441 39.654H109.954C108.98 39.654 108.493 40.0193 108.493 40.8717V45.0117C108.493 45.8641 109.102 46.2293 109.954 46.2293H110.441C111.294 46.2293 111.903 45.8641 111.903 45.0117V44.2811H116.164Z" fill="white"/>
<path d="M130.411 49.6389H125.906L123.349 44.0376L122.009 45.6206V49.6389H117.747V31.8611H122.009V40.75L125.662 36.1229H130.533L126.514 41.1153L130.411 48.9083V49.6389Z" fill="white"/>
<path d="M89.2542 67.66C89.2542 70.5823 87.3059 72.4088 84.14 72.4088H80.3653C77.1994 72.4088 75.2512 70.7041 75.2512 67.7817V65.8335H79.6347V67.1729C79.6347 68.147 80.2436 68.6341 81.3394 68.6341H83.2877C84.3836 68.6341 84.9924 68.2688 84.9924 67.4164V67.1729C84.9924 66.1988 84.6271 66.077 83.2877 65.7117L78.5388 64.6158C76.2253 64.1288 75.2512 62.6676 75.2512 60.4758V59.1364C75.2512 56.214 77.4429 54.5093 80.6088 54.5093H84.0183C87.1842 54.5093 89.1324 56.3358 89.1324 59.1364V60.9629H84.7489V59.7452C84.7489 58.7711 84.14 58.284 83.0442 58.284H81.2177C80.1218 58.284 79.513 58.6493 79.513 59.5017V59.867C79.513 60.4758 79.8783 60.7193 80.8524 60.9629L84.9924 61.937C87.6713 62.5458 89.2542 63.6417 89.2542 66.077V67.66Z" fill="white"/>
<path d="M96.8037 58.8928H99.726V62.424H96.8037V67.9035C96.8037 68.3906 97.0472 68.7559 97.656 68.7559H99.6043V72.2871H96.8037C93.6377 72.2871 92.4201 70.8259 92.4201 68.5123V62.3023H90.1065L90.9589 58.7711H92.5419V54.5093H96.8037V58.8928Z" fill="white"/>
<path d="M105.693 72.2872C103.257 72.2872 101.187 70.9478 101.187 68.0254V58.7712H105.449V67.5384C105.449 68.3907 105.936 68.756 106.91 68.756H107.276C108.25 68.756 108.737 68.3907 108.737 67.4166V58.7712H112.998V72.2872H108.737V71.0696C108.128 72.0437 106.788 72.2872 105.936 72.2872H105.693Z" fill="white"/>
<path d="M114.947 63.0331C114.947 60.2324 116.895 58.7713 119.452 58.7713H119.817C120.548 58.7713 122.009 59.0148 122.618 59.9889V54.3877H126.758V72.1655H122.618V70.9478C122.009 71.9219 120.791 72.1655 120.183 72.1655H119.574C117.017 72.1655 115.069 70.5825 115.069 67.7819V63.0331H114.947ZM119.209 67.6601C119.209 68.5125 119.696 68.8778 120.67 68.8778H121.157C122.131 68.8778 122.618 68.5125 122.618 67.6601V63.6419C122.618 62.7895 122.131 62.4242 121.157 62.4242H120.67C119.696 62.4242 119.209 62.7895 119.209 63.6419V67.6601Z" fill="white"/>
</svg>
