<svg width="160" height="80" viewBox="0 0 160 80" fill="none" xmlns="http://www.w3.org/2000/svg">
<path d="M7.06766 66.0002C6.45652 66.0269 5.84629 65.9301 5.27373 65.7156C4.70117 65.5011 4.17816 65.1733 3.73622 64.7521C3.29428 64.3308 2.94257 63.8248 2.70229 63.2645C2.46201 62.7042 2.33813 62.1013 2.33813 61.492C2.33813 60.8828 2.46201 60.2798 2.70229 59.7195C2.94257 59.1592 3.29428 58.6532 3.73622 58.232C4.17816 57.8107 4.70117 57.483 5.27373 57.2684C5.84629 57.0539 6.45652 56.9571 7.06766 56.9838C8.24887 56.9812 9.39107 57.4048 10.2829 58.1762L8.9833 59.6181C8.73149 59.3684 8.43265 59.1706 8.10392 59.0361C7.77519 58.9016 7.42303 58.8332 7.06766 58.8346C6.36 58.8346 5.68133 59.1145 5.18094 59.6129C4.68054 60.1113 4.39943 60.7872 4.39943 61.492C4.39943 62.1968 4.68054 62.8727 5.18094 63.3711C5.68133 63.8695 6.36 64.1495 7.06766 64.1495C7.55502 64.1475 8.02857 63.9881 8.41721 63.6952C8.80586 63.4023 9.08861 62.9917 9.22302 62.5252H7.12505L7.79774 60.9009H11.3784V61.4688C11.4003 62.0498 11.3056 62.6293 11.0997 63.1734C10.8938 63.7174 10.581 64.215 10.1795 64.6371C9.77798 65.0591 9.29592 65.3971 8.76158 65.6311C8.22723 65.8652 7.65133 65.9907 7.06766 66.0002Z" fill="white"/>
<path d="M18.0944 64.4685H14.6968L14.2406 65.7289H12.131L15.4261 57.2573H17.434L20.7292 65.7289H18.5498L18.0944 64.4685ZM17.5241 62.8768L16.4068 59.7766L15.2779 62.8768H17.5241Z" fill="white"/>
<path d="M24.3541 65.7284H22.3477V57.2568H24.434L27.0224 60.925L29.4741 57.2568H31.5416V65.7284H29.5344V60.9815L29.546 60.5843L27.0943 64.1048H26.9003L24.3461 60.5502L24.3578 60.9706L24.3541 65.7284Z" fill="white"/>
<path d="M33.6708 57.2568H35.7005V65.7284H33.6708V57.2568Z" fill="white"/>
<path d="M39.863 60.6754V65.7291H37.8333V57.2568H39.7831L43.4771 62.3214V57.2568H45.5067V65.7284H43.5686L39.863 60.6754Z" fill="white"/>
<path d="M52.0636 66.0002C51.4525 66.0269 50.8422 65.9301 50.2697 65.7156C49.6971 65.5011 49.1741 65.1733 48.7322 64.7521C48.2903 64.3308 47.9385 63.8248 47.6983 63.2645C47.458 62.7042 47.3341 62.1013 47.3341 61.492C47.3341 60.8828 47.458 60.2798 47.6983 59.7195C47.9385 59.1592 48.2903 58.6532 48.7322 58.232C49.1741 57.8107 49.6971 57.483 50.2697 57.2684C50.8422 57.0539 51.4525 56.9571 52.0636 56.9838C53.2448 56.9812 54.387 57.4048 55.2789 58.1762L53.9792 59.6181C53.7274 59.3684 53.4286 59.1706 53.0999 59.0361C52.7711 58.9016 52.419 58.8332 52.0636 58.8346C51.356 58.8346 50.6773 59.1145 50.1769 59.6129C49.6765 60.1113 49.3954 60.7872 49.3954 61.492C49.3954 62.1968 49.6765 62.8727 50.1769 63.3711C50.6773 63.8695 51.356 64.1495 52.0636 64.1495C52.5508 64.1473 53.0242 63.9878 53.4127 63.695C53.8012 63.4021 54.0839 62.9916 54.2183 62.5252H52.1196L52.7922 60.9009H56.3729V61.4688C56.3948 62.0497 56.3001 62.6291 56.0943 63.173C55.8885 63.717 55.5758 64.2146 55.1745 64.6366C54.7731 65.0586 54.2913 65.3966 53.7571 65.6307C53.2229 65.8649 52.6472 65.9905 52.0636 66.0002Z" fill="white"/>
<path d="M62.3835 59.0736H60.7643V57.2568H66.0324V59.0736H64.4132V65.7298H62.3835V59.0736Z" fill="white"/>
<path d="M67.7309 57.2568H72.6533V59.0424H69.7569V60.598H72.3627V62.2223H69.7627V63.9485H72.7499V65.7313H67.733L67.7309 57.2568Z" fill="white"/>
<path d="M80.8439 59.323C80.3327 59.013 79.7431 58.8554 79.1447 58.8687C78.7915 58.857 78.4394 58.9162 78.1096 59.0427C77.7798 59.1693 77.4789 59.3607 77.2248 59.6055C76.9708 59.8502 76.7688 60.1434 76.6308 60.4675C76.4928 60.7916 76.4217 61.14 76.4217 61.4921C76.4217 61.8441 76.4928 62.1926 76.6308 62.5167C76.7688 62.8408 76.9708 63.1339 77.2248 63.3787C77.4789 63.6235 77.7798 63.8149 78.1096 63.9414C78.4394 64.068 78.7915 64.1272 79.1447 64.1155C79.7431 64.1288 80.3327 63.9711 80.8439 63.6612V65.6031C80.2719 65.8629 79.6484 65.991 79.0198 65.9778C78.4283 65.9778 77.8427 65.8618 77.2962 65.6364C76.7498 65.4109 76.2533 65.0805 75.835 64.664C75.4168 64.2474 75.0851 63.7529 74.8587 63.2087C74.6324 62.6645 74.5158 62.0812 74.5158 61.4921C74.5158 60.903 74.6324 60.3197 74.8587 59.7755C75.0851 59.2312 75.4168 58.7367 75.835 58.3202C76.2533 57.9037 76.7498 57.5732 77.2962 57.3478C77.8427 57.1224 78.4283 57.0063 79.0198 57.0063C79.6493 56.997 80.2727 57.129 80.8439 57.3927V59.323Z" fill="white"/>
<path d="M82.8402 57.2568H84.8699V60.2999H87.6979V57.2568H89.7276V65.7284H87.6979V62.1289H84.8699V65.7284H82.8402V57.2568Z" fill="white"/>
<path d="M93.8894 60.6754V65.7291H91.8619V57.2568H93.8117L97.5064 62.3214V57.2568H99.536V65.7284H97.5979L93.8894 60.6754Z" fill="white"/>
<path d="M110.799 61.481C110.84 62.4193 110.598 63.3485 110.104 64.1487C109.611 64.9489 108.888 65.5835 108.028 65.9708C107.169 66.3581 106.213 66.4803 105.284 66.3217C104.354 66.163 103.494 65.7308 102.813 65.0807C102.133 64.4306 101.663 63.5925 101.465 62.6742C101.267 61.7559 101.349 60.7995 101.702 59.9284C102.054 59.0572 102.661 58.3112 103.443 57.7864C104.225 57.2615 105.147 56.9819 106.09 56.9836C106.696 56.9697 107.299 57.0752 107.864 57.2939C108.429 57.5126 108.945 57.8403 109.382 58.2581C109.82 58.676 110.17 59.1758 110.413 59.7289C110.656 60.2819 110.787 60.8774 110.799 61.481ZM103.41 61.4925C103.409 62.0193 103.565 62.5346 103.858 62.9732C104.151 63.4118 104.567 63.7541 105.056 63.9567C105.544 64.1593 106.082 64.2132 106.6 64.1115C107.119 64.0098 107.596 63.7571 107.971 63.3853C108.346 63.0136 108.602 62.5396 108.706 62.0231C108.81 61.5067 108.758 60.9711 108.557 60.484C108.355 59.9969 108.013 59.5803 107.574 59.2868C107.135 58.9933 106.618 58.8361 106.089 58.8351C105.737 58.8317 105.389 58.8979 105.063 59.0301C104.737 59.1622 104.441 59.3576 104.191 59.6049C103.942 59.8521 103.745 60.1462 103.611 60.4702C103.477 60.7942 103.409 61.1415 103.411 61.4918L103.41 61.4925Z" fill="white"/>
<path d="M114.665 57.2568V63.9001H117.538V65.7284H112.635V57.2568H114.665Z" fill="white"/>
<path d="M128.121 61.481C128.162 62.4193 127.92 63.3484 127.427 64.1486C126.933 64.9488 126.21 65.5835 125.351 65.9708C124.492 66.3581 123.536 66.4803 122.606 66.3218C121.677 66.1632 120.816 65.731 120.136 65.081C119.455 64.431 118.985 63.5929 118.787 62.6746C118.589 61.7564 118.671 60.8001 119.024 59.9289C119.376 59.0578 119.982 58.3117 120.764 57.7867C121.546 57.2618 122.468 56.9821 123.411 56.9837C124.017 56.9696 124.62 57.075 125.185 57.2937C125.751 57.5123 126.267 57.84 126.704 58.2579C127.142 58.6758 127.492 59.1756 127.735 59.7287C127.978 60.2818 128.11 60.8773 128.121 61.481ZM120.732 61.4926C120.731 62.0193 120.887 62.5346 121.18 62.9732C121.473 63.4118 121.89 63.7541 122.378 63.9567C122.866 64.1593 123.404 64.2132 123.923 64.1115C124.441 64.0098 124.919 63.7571 125.293 63.3854C125.668 63.0136 125.924 62.5396 126.028 62.0231C126.132 61.5067 126.08 60.9711 125.879 60.484C125.677 59.9969 125.335 59.5803 124.896 59.2868C124.457 58.9933 123.94 58.8361 123.411 58.8351C123.059 58.8315 122.71 58.8976 122.384 59.0297C122.058 59.1617 121.762 59.3571 121.513 59.6043C121.263 59.8516 121.066 60.1459 120.932 60.4699C120.797 60.794 120.729 61.1414 120.732 61.4919L120.732 61.4926Z" fill="white"/>
<path d="M134.381 66.0002C133.77 66.0269 133.159 65.9301 132.587 65.7156C132.014 65.5011 131.491 65.1733 131.049 64.7521C130.607 64.3308 130.256 63.8248 130.015 63.2645C129.775 62.7042 129.651 62.1013 129.651 61.492C129.651 60.8828 129.775 60.2798 130.015 59.7195C130.256 59.1592 130.607 58.6532 131.049 58.232C131.491 57.8107 132.014 57.483 132.587 57.2684C133.159 57.0539 133.77 56.9571 134.381 56.9838C135.562 56.9812 136.704 57.4048 137.596 58.1762L136.296 59.6181C136.045 59.3684 135.746 59.1706 135.417 59.0361C135.088 58.9016 134.736 58.8332 134.381 58.8346C133.673 58.8346 132.994 59.1145 132.494 59.6129C131.994 60.1113 131.712 60.7872 131.712 61.492C131.712 62.1968 131.994 62.8727 132.494 63.3711C132.994 63.8695 133.673 64.1495 134.381 64.1495C134.868 64.1475 135.342 63.9881 135.73 63.6952C136.119 63.4023 136.402 62.9917 136.536 62.5252H134.438L135.111 60.9009H138.691V61.4688C138.713 62.0498 138.618 62.6293 138.412 63.1733C138.206 63.7173 137.894 64.215 137.492 64.637C137.091 65.0591 136.609 65.3971 136.074 65.6311C135.54 65.8652 134.964 65.9907 134.381 66.0002Z" fill="white"/>
<path d="M140.516 57.2568H142.545V65.7284H140.516V57.2568Z" fill="white"/>
<path d="M144.677 57.2568H149.603V59.0424H146.707V60.598H149.307V62.2223H146.707V63.9485H149.694V65.7313H144.677L144.677 57.2568Z" fill="white"/>
<path d="M156.343 59.0616C155.824 58.8387 155.266 58.7228 154.701 58.7208C153.96 58.7208 153.618 58.9705 153.618 59.3684C153.618 59.7663 154.04 60.1063 154.929 60.743C156.236 61.7306 156.901 62.3898 156.901 63.4461C156.901 64.9654 155.488 65.8648 153.697 65.8648C152.994 65.8681 152.294 65.7646 151.622 65.558L151.634 63.8093C152.286 64.0728 152.982 64.2153 153.686 64.2296C154.404 64.2296 154.815 63.8773 154.815 63.4801C154.815 63.0713 154.336 62.6842 153.39 62.015C151.93 60.9818 151.497 60.3458 151.497 59.3691C151.497 58.1883 152.455 57.0865 154.61 57.0865C155.202 57.0783 155.79 57.1665 156.353 57.3476L156.343 59.0616Z" fill="white"/>
<path d="M21.6779 51.6463C10.6033 51.6463 2 43.2197 2 32.8055C2 22.4383 10.6033 14.0586 21.6779 14.0586C26.6021 14.0476 31.3637 15.8134 35.0816 19.0291L29.663 25.0415C28.6134 24.0004 27.3677 23.176 25.9975 22.6155C24.6272 22.055 23.1593 21.7696 21.6779 21.7756C20.2098 21.7638 18.7538 22.0416 17.394 22.593C16.0342 23.1443 14.7974 23.9584 13.755 24.9882C12.7127 26.018 11.8853 27.2431 11.3207 28.593C10.7561 29.9428 10.4655 31.3906 10.4655 32.8529C10.4655 34.3151 10.7561 35.7629 11.3207 37.1128C11.8853 38.4626 12.7127 39.6877 13.755 40.7175C14.7974 41.7473 16.0342 42.5614 17.394 43.1128C18.7538 43.6642 20.2098 43.942 21.6779 43.9301C23.7087 43.9204 25.6816 43.2555 27.3011 42.0352C28.9206 40.8148 30.0995 39.1047 30.6611 37.161H18.9523L24.7196 30.3918H39.6444V32.7592C39.6451 43.3615 31.7544 51.6463 21.6779 51.6463Z" fill="white"/>
<path d="M92.5956 29.4438V50.5131H84.1384V15.1943H92.2658L107.666 36.3078V15.1943H116.127V50.5131H108.043L92.5956 29.4438Z" fill="white"/>
<path d="M139.034 51.6463C127.958 51.6463 119.356 43.2197 119.356 32.8055C119.356 22.4383 127.958 14.0586 139.034 14.0586C143.958 14.0476 148.719 15.8133 152.436 19.0291L147.019 25.0415C145.969 24.0004 144.723 23.176 143.353 22.6156C141.983 22.0551 140.515 21.7697 139.034 21.7756C137.565 21.7638 136.109 22.0416 134.75 22.593C133.39 23.1443 132.153 23.9584 131.111 24.9882C130.068 26.018 129.241 27.2431 128.676 28.593C128.112 29.9428 127.821 31.3906 127.821 32.8529C127.821 34.3151 128.112 35.7629 128.676 37.1128C129.241 38.4626 130.068 39.6877 131.111 40.7175C132.153 41.7473 133.39 42.5614 134.75 43.1128C136.109 43.6642 137.565 43.942 139.034 43.9301C141.064 43.9202 143.037 43.2553 144.657 42.035C146.276 40.8147 147.455 39.1046 148.017 37.161H136.03L142.076 30.3918H157V32.7592C157 43.3615 149.11 51.6463 139.034 51.6463Z" fill="white"/>
<path d="M66.9579 27.7175C67.6788 27.5457 68.3325 27.165 68.8364 26.6235C69.3403 26.0821 69.6718 25.404 69.7891 24.6751C69.9064 23.9461 69.8042 23.1989 69.4955 22.5277C69.1867 21.8565 68.6852 21.2915 68.0543 20.9039C67.4234 20.5163 66.6913 20.3236 65.9506 20.3501C65.2098 20.3765 64.4935 20.621 63.892 21.0525C63.2906 21.4841 62.8311 22.0835 62.5714 22.775C62.3117 23.4664 62.2635 24.2191 62.4329 24.9378C62.5426 25.4185 62.7474 25.8726 63.0354 26.2736C63.3233 26.6746 63.6886 27.0144 64.1099 27.2732C64.5311 27.532 65 27.7046 65.489 27.7809C65.978 27.8571 66.4774 27.8356 66.9579 27.7175Z" fill="white"/>
<path d="M61.1108 14C57.3772 14 53.7275 15.1027 50.6231 17.1686C47.5187 19.2344 45.0992 22.1708 43.6704 25.6062C42.2416 29.0417 41.8677 32.8219 42.5961 36.469C43.3245 40.1161 45.1224 43.4661 47.7625 46.0955C50.4025 48.7249 53.7662 50.5155 57.428 51.2409C61.0899 51.9664 64.8855 51.5941 68.3348 50.171C71.7842 48.748 74.7325 46.3382 76.8068 43.2464C78.881 40.1546 79.9882 36.5196 79.9882 32.8011C79.9882 27.8147 77.9993 23.0326 74.4591 19.5067C70.9189 15.9808 66.1174 14 61.1108 14ZM64.6464 17.9069C65.8733 17.6741 67.1419 17.8057 68.2944 18.2852C69.4468 18.7648 70.4323 19.5712 71.1283 20.6042C71.8242 21.6371 72.1999 22.851 72.2086 24.095C72.2174 25.3389 71.8587 26.5579 71.1774 27.6005C70.496 28.643 69.5219 29.463 68.3763 29.9586C67.2306 30.4541 65.964 30.6033 64.7339 30.3876C63.5039 30.1719 62.3646 29.6008 61.4578 28.7453C60.5511 27.8898 59.9168 26.7878 59.6339 25.5761C59.4523 24.7446 59.4382 23.8855 59.5925 23.0485C59.7467 22.2116 60.0662 21.4134 60.5325 20.7003C60.9987 19.9872 61.6024 19.3734 62.3086 18.8944C63.0148 18.4154 63.8094 18.0807 64.6464 17.9098V17.9069ZM46.6349 28.6149C46.4521 27.7831 46.4371 26.9234 46.5908 26.0859C46.7445 25.2483 47.0638 24.4495 47.5302 23.7359C47.9966 23.0223 48.6007 22.4081 49.3076 21.9291C50.0144 21.4501 50.8097 21.1158 51.6474 20.9457C53.2634 20.564 54.9635 20.7781 56.4332 21.5484L55.1198 23.9359C54.6946 23.6747 54.2218 23.4996 53.7285 23.4208C53.2352 23.3419 52.7312 23.3609 52.2453 23.4765C51.7656 23.5887 51.3129 23.7938 50.9129 24.0802C50.5129 24.3667 50.1734 24.7288 49.9139 25.1458C49.6544 25.5629 49.48 26.0268 49.4005 26.511C49.321 26.9953 49.338 27.4904 49.4506 27.9681C49.5633 28.4457 49.7692 28.8966 50.0568 29.295C50.3444 29.6934 50.708 30.0315 51.1267 30.2899C51.5455 30.5484 52.0113 30.7222 52.4975 30.8014C52.9837 30.8805 53.4808 30.8636 53.9604 30.7514C54.6266 30.5923 55.223 30.2225 55.6603 29.6973C56.0976 29.1722 56.3523 28.52 56.386 27.8385L52.6048 28.748L53.9125 26.071L58.8131 24.925L58.9961 25.702C59.2135 26.4902 59.2708 27.3136 59.1645 28.1241C59.0583 28.9346 58.7906 29.7158 58.3773 30.4219C57.964 31.128 57.4133 31.7449 56.7575 32.2363C56.1017 32.7277 55.354 33.0838 54.5583 33.2837C53.7302 33.5013 52.867 33.5529 52.0188 33.4355C51.1706 33.3181 50.3542 33.034 49.6171 32.5998C48.88 32.1656 48.2369 31.5898 47.7251 30.906C47.2133 30.2222 46.843 29.4439 46.6357 28.6163L46.6349 28.6149ZM60.3008 46.071L53.5979 40.34L55.2288 47.2575L52.4508 47.9087L49.7172 36.3144L52.3862 35.6901L59.0775 41.4405L57.443 34.5079L60.2209 33.8567L62.9545 45.4524L60.3008 46.071ZM70.5647 44.0654C69.7375 44.2954 68.8721 44.3564 68.0206 44.2447C67.1691 44.1331 66.3491 43.8511 65.6098 43.4157C64.8705 42.9803 64.2273 42.4006 63.7187 41.7113C63.2102 41.022 62.8469 40.2373 62.6506 39.4046C62.4543 38.5719 62.4291 37.7082 62.5765 36.8655C62.7239 36.0229 63.0409 35.2186 63.5084 34.501C63.9759 33.7835 64.5843 33.1675 65.2969 32.6901C66.0096 32.2127 66.8118 31.8838 67.6553 31.7231C69.2713 31.3415 70.9714 31.5556 72.4411 32.3257L71.127 34.7133C70.7019 34.452 70.2291 34.2768 69.7357 34.198C69.2424 34.1191 68.7384 34.1381 68.2525 34.2539C67.7688 34.362 67.3114 34.5646 66.9067 34.8498C66.5021 35.1351 66.1582 35.4974 65.895 35.9158C65.6319 36.3342 65.4545 36.8004 65.3734 37.2875C65.2922 37.7746 65.3087 38.2729 65.422 38.7535C65.5354 39.2342 65.7432 39.6877 66.0336 40.0879C66.324 40.4881 66.6912 40.827 67.1138 41.0849C67.5365 41.3429 68.0064 41.5149 68.4962 41.591C68.986 41.667 69.4861 41.6456 69.9676 41.528C70.6336 41.369 71.23 40.9993 71.6673 40.4743C72.1046 39.9493 72.3593 39.2972 72.3932 38.6159L68.7951 39.5022L69.9182 36.8491L74.8188 35.7031L75.0019 36.4801C75.2198 37.2685 75.2776 38.0923 75.1716 38.9032C75.0657 39.7141 74.7983 40.4958 74.385 41.2024C73.9717 41.909 73.4209 42.5263 72.7649 43.018C72.1088 43.5098 71.3608 43.8661 70.5647 44.0661V44.0654Z" fill="white"/>
<g clip-path="url(#clip0)">
<path d="M61.1957 52.3469C71.8223 52.3469 80.4369 43.7714 80.4369 33.193C80.4369 22.6146 71.8223 14.0391 61.1957 14.0391C50.5691 14.0391 41.9545 22.6146 41.9545 33.193C41.9545 43.7714 50.5691 52.3469 61.1957 52.3469Z" fill="#7F5F28"/>
<path d="M43.5818 40.3776C42.7969 38.9101 42.5097 37.3092 42.2417 35.6892C42.2034 35.5177 42.2608 35.308 42.0502 35.1937C42.0502 33.7262 42.0502 32.2777 42.0502 30.8102C42.4331 30.0669 42.3948 29.2474 42.5863 28.466C43.6967 24.3112 45.841 20.8235 49.2872 18.1743C49.4595 18.2315 49.651 18.2506 49.7467 18.4411C49.785 18.8223 49.4404 18.9557 49.2298 19.1654C47.7938 20.5376 46.3388 21.8907 45.4007 23.6632C44.7497 24.7114 44.2136 25.7978 43.8882 26.9985C42.7969 30.3337 42.5097 33.7071 43.3521 37.1376C43.601 38.1478 43.9839 39.1197 44.4625 40.0346C44.654 40.3967 44.9029 40.7397 44.8263 41.1781C44.5008 41.5211 44.3668 41.1781 44.1753 41.0065C43.9647 40.7969 43.9839 40.3776 43.5818 40.3776Z" fill="#7E6030"/>
<path d="M49.6893 18.4219C49.4978 18.4219 49.3638 18.3456 49.2872 18.1551C51.6229 16.2111 54.3033 15.0294 57.2517 14.4196C62.0572 13.4285 66.5564 14.229 70.7684 16.7257C70.6344 17.2402 70.2898 16.9734 70.0409 16.8781C69.6006 16.7257 69.2176 16.4398 68.739 16.3635C67.7434 16.0395 66.7096 15.7727 65.7523 15.3534C63.5314 14.6673 61.2531 14.8198 58.994 14.9723C58.5919 14.9913 58.1707 15.0104 57.7878 15.1438C57.3283 15.3916 56.8114 15.4487 56.3136 15.5631C54.1502 16.0586 52.159 16.9734 50.3211 18.1932C50.1296 18.3075 49.9381 18.4219 49.6893 18.4219Z" fill="#7F5F28"/>
<path d="M79.7859 36.3941C79.8434 36.7563 79.7094 37.0993 79.5945 37.4424C79.6519 38.2047 79.2116 38.8336 79.0584 39.5388C79.001 39.6151 78.9244 39.6532 78.8478 39.6532C78.5798 39.5388 78.2735 39.5769 78.0054 39.4626C77.7757 39.3101 77.6034 39.4626 77.4119 39.5579C77.0864 39.7103 76.9716 39.5388 76.9141 39.2529C77.0481 38.4144 77.4502 37.6711 77.6417 36.8516C77.6799 36.68 77.7948 36.5085 78.0246 36.5276C78.3883 36.8325 78.1777 37.309 78.35 37.7473C79.3456 35.7461 79.3456 33.7069 78.8861 31.477C78.5989 32.2203 78.7138 32.8492 78.6181 33.4401C78.5798 33.7069 78.7138 34.2215 78.082 34.0118C77.8714 33.6116 77.9288 33.1732 77.9288 32.7539C77.9288 32.3537 77.948 31.9344 77.9288 31.5342C77.9097 30.7528 78.2543 30.3526 79.0584 30.3907C79.7285 30.6194 79.8434 31.2102 79.9008 31.801C79.9391 32.1631 80.1497 32.5062 80.0923 32.8874C80.0731 34.0118 80.188 35.2316 79.7859 36.3941Z" fill="#EDDD42"/>
<path d="M76.895 22.4242C78.3309 24.5016 79.4605 26.7314 79.8051 29.2662C79.4988 29.8189 79.135 29.4568 78.7712 29.3424C78.216 28.7516 78.2543 27.9702 78.082 27.246C77.9288 26.6552 77.7374 26.0834 77.5076 25.5117C77.1822 24.7303 76.8184 23.9679 76.5121 23.1675C76.5887 22.9006 76.0717 22.3289 76.895 22.4242Z" fill="#826116"/>
<path d="M76.895 22.4239C76.3398 22.5383 76.8758 22.9385 76.7035 23.1482C76.2632 23.2244 76.2057 22.8242 76.0526 22.5955C74.3295 20.1369 72.1852 18.1739 69.4665 16.8588C69.2368 16.7254 68.9879 16.6111 68.8347 16.3824C68.7964 16.2871 68.7964 16.2108 68.8539 16.1346C69.5623 16.1155 70.0026 16.9541 70.7876 16.7064C72.0703 17.1638 73.0467 18.0786 74.0232 18.9553C75.1336 19.9844 76.2249 21.0327 76.895 22.4239Z" fill="#8A6C37"/>
<path d="M74.0423 47.0859C73.9274 47.1811 73.8126 47.2955 73.6977 47.3908C73.085 47.8101 72.5298 48.2865 71.9363 48.744C71.5534 48.8964 71.2854 49.2967 70.7876 49.1632C70.6153 48.7821 70.9407 48.6487 71.1513 48.4962C73.0085 47.143 74.7124 45.6374 76.11 43.8078C76.9524 42.7024 77.6034 41.5398 78.1777 40.301C78.3118 40.0151 78.3309 39.5768 78.8095 39.5958L78.8478 39.6149C78.9627 39.8245 78.9244 40.0342 78.8287 40.2438C78.0437 42.3784 76.8376 44.2271 75.2868 45.8852C74.8656 46.2663 74.4635 46.6856 74.0423 47.0859Z" fill="#EDDD42"/>
<path d="M78.8287 29.285C79.1541 29.1897 79.4988 29.4565 79.8242 29.2659C80.1306 30.1807 79.9965 31.1718 80.188 32.1056C80.2263 32.3534 80.4178 32.6393 79.9774 32.7155C79.8242 31.896 79.7859 31.0574 79.1924 30.3713C78.8287 30.257 78.7329 29.952 78.6755 29.628C78.6755 29.5137 78.7138 29.3803 78.8287 29.285Z" fill="#9E8023"/>
<path d="M79.9774 32.7349C80.1689 32.5633 80.1114 32.3156 80.188 32.125C80.3603 33.5735 80.4178 35.0219 79.7859 36.3941C79.9966 35.1744 79.9583 33.9546 79.9774 32.7349Z" fill="#B09B59"/>
<path d="M78.8287 40.225C78.8287 40.0153 78.8478 39.8057 78.8478 39.596C79.2499 38.929 79.3073 38.1285 79.5945 37.4233C79.7859 38.4906 79.2499 39.3483 78.8287 40.225Z" fill="#B8AE85"/>
<path d="M71.9363 48.7247C72.3766 48.0958 72.951 47.6193 73.6977 47.3716C73.219 47.9815 72.6638 48.477 71.9363 48.7247Z" fill="#B3A683"/>
<path d="M74.0423 47.086C74.3103 46.5333 74.7124 46.114 75.2868 45.8662C74.9804 46.3808 74.5784 46.8191 74.0423 47.086Z" fill="#B3A683"/>
<path d="M50.455 48.344C50.5891 48.5536 50.6082 48.7061 50.3019 48.7251C47.2195 46.6096 44.9411 43.8652 43.5818 40.3775C43.6775 39.8438 43.8881 40.1678 44.0413 40.3394C44.3093 40.6252 44.3093 41.1208 44.7497 41.2923C44.788 41.3113 44.8263 41.3495 44.8646 41.3685C45.9176 43.0838 46.9323 44.8181 48.4831 46.1522C49.0957 46.9146 49.919 47.5054 50.455 48.344Z" fill="#7B5B26"/>
<path d="M43.1989 37.2898C42.3948 35.2315 42.548 33.0778 42.7203 30.9623C42.8352 29.5329 43.0841 28.0845 43.7542 26.7694C43.7924 26.7885 43.8307 26.8266 43.869 26.8457C44.0222 27.913 43.3712 28.8468 43.3521 29.7616C43.6967 28.1798 44.0605 26.4836 44.9412 24.9779C45.1135 24.673 45.1901 24.1203 45.8027 24.3871C45.9367 24.8064 45.6879 25.1113 45.5347 25.4544C44.3477 27.9892 43.6393 30.6002 43.9265 33.3256C43.9073 32.6967 43.9839 31.9915 44.1562 31.3054C44.2137 31.0767 44.1945 30.6765 44.654 30.8289C44.9603 31.3054 44.8455 31.82 44.7689 32.3155C44.654 33.0397 44.6349 33.7639 44.7497 34.4882C44.788 34.6978 44.788 34.9075 44.7114 35.1171C44.0605 35.5364 43.869 35.4411 43.2947 34.4119C43.2372 34.2404 43.1798 34.0498 43.1415 33.8783C43.3521 34.7169 43.2564 35.5745 43.4287 36.4131C43.4478 36.7371 43.4861 37.042 43.1989 37.2898Z" fill="#C7AE2B"/>
<path d="M49.6892 18.4221C51.8144 16.7069 54.2842 15.7539 56.9262 15.1822C57.1368 15.1441 57.3474 15.0678 57.558 15.0106C58.0367 14.8201 58.5344 14.9344 59.0131 14.9344C59.262 15.3918 58.8216 15.3728 58.611 15.4109C58.1515 15.5062 57.7112 15.6396 57.2708 15.7539C56.0838 15.8492 54.9925 16.3066 53.8821 16.6878C51.0294 17.7551 48.8277 19.68 46.894 21.967C46.4154 22.5388 46.1473 23.3011 45.3815 23.6251C45.3432 23.6061 45.3049 23.568 45.2666 23.5489C46.1856 21.6049 47.7555 20.2137 49.3063 18.8224C49.4403 18.689 49.5744 18.5556 49.6892 18.4221Z" fill="#C1A845"/>
<path d="M43.1989 37.2899C43.1607 35.8605 42.7586 34.4692 42.8735 32.7539C43.3138 33.44 43.3904 33.9355 43.3904 34.4501C43.5244 34.8885 43.869 35.2506 43.8307 35.7461C43.8307 36.68 43.9839 37.5948 44.2902 38.4906C44.4243 38.8336 44.5391 39.1957 44.6923 39.5388C45.1135 40.7776 46.0325 41.7496 46.4728 42.9693C46.4154 43.0456 46.3388 43.1027 46.2431 43.1218C45.3815 42.8169 45.2092 41.9211 44.7306 41.3112C44.7306 41.3112 44.7306 41.3112 44.7306 41.2922C44.2519 39.939 43.3904 38.7383 43.1989 37.2899Z" fill="#E9D831"/>
<path d="M43.7541 26.7883C44.0222 25.5876 44.5391 24.5203 45.2666 23.5483L45.324 23.6055C45.5155 23.8533 45.4006 24.082 45.2858 24.3107C44.9411 25.0159 44.5391 25.6829 44.271 26.4262C44.1945 26.6168 44.0796 26.8455 43.8116 26.8074L43.7541 26.7883Z" fill="#C7AE2B"/>
<path d="M58.1707 51.3934C56.103 51.1647 54.2076 50.3833 52.427 49.3732C51.891 49.0683 51.374 48.7062 50.8571 48.3631C50.3785 47.9057 49.6127 47.6579 49.7275 46.7813C49.9573 46.6288 50.1679 46.7241 50.3593 46.8575C50.8188 47.2387 51.1634 47.7532 51.7378 48.0201C52.2547 48.3441 52.8099 48.6299 53.3077 48.973C53.8821 49.4113 54.5522 49.6591 55.2414 49.9069C55.969 50.2499 56.7539 50.1165 57.5197 50.2118C57.8069 50.269 58.0941 50.3643 58.3813 50.4596C58.5727 50.5358 58.745 50.6311 58.8982 50.7836C59.2237 51.7174 58.6302 51.4697 58.1707 51.3934Z" fill="#EFDF3D"/>
<path d="M49.7658 46.8005C49.8424 47.5056 50.5891 47.7534 50.8188 48.3633C50.7039 48.3633 50.5699 48.3633 50.4551 48.3442C49.6127 47.7915 48.9617 47.0482 48.3682 46.2478C48.2725 46.0381 48.3873 45.9047 48.5405 45.7904C48.6745 45.7332 48.7894 45.7141 48.9234 45.7523C49.2872 45.9428 49.5361 46.2287 49.7658 46.5337C49.8041 46.6289 49.8041 46.7242 49.7658 46.8005Z" fill="#9E7C14"/>
<path d="M68.8539 16.1351C68.873 16.1923 68.873 16.2494 68.873 16.3257C68.4518 16.6497 68.0306 16.4019 67.6286 16.2685C66.6139 15.9445 65.5992 15.6586 64.527 15.5633C63.2443 15.1822 61.9232 15.2774 60.6022 15.2584C60.1427 15.2584 59.6449 15.3537 59.262 14.9916C59.262 14.7247 59.4534 14.7057 59.6449 14.7057C61.7701 14.7057 63.8952 14.5723 65.9821 15.2203C66.9393 15.5252 67.8966 15.8301 68.8539 16.1351Z" fill="#C1A845"/>
<path d="M65.9821 15.2202C64.0867 14.8962 62.1913 14.7056 60.2767 14.8199C59.9512 14.839 59.5683 14.7246 59.2811 14.9915C59.2237 15.0486 59.1663 15.0486 59.1088 14.9915C58.5919 14.9915 58.075 14.9915 57.558 15.0105C57.9792 14.6103 58.5536 14.7437 58.994 14.7246C61.3489 14.5912 63.7229 14.3053 65.9821 15.2202Z" fill="#8A6C37"/>
<path d="M49.6509 46.6285C49.4212 46.3808 49.1723 46.133 48.9426 45.8852C49.1914 45.6184 49.3829 45.3706 49.0766 45.0085C48.6937 44.5511 48.3873 44.0365 47.7938 43.8078C47.3535 43.2361 46.9706 42.6834 47.6981 42.0544C48.215 41.7495 48.7511 41.3493 49.1914 42.1688C48.8277 43.1598 48.9426 43.6554 49.785 44.3034C50.6082 44.9514 51.4698 45.5422 52.4653 45.8852C53.3652 46.2092 54.1884 46.6857 54.9925 47.1812C56.2944 48.096 57.8261 48.3628 59.3386 48.4581C63.4548 48.725 67.1882 47.6577 70.5578 45.2372C73.4488 43.1598 75.3633 40.3963 76.5886 37.1183C77.0481 35.8604 77.1821 34.5263 77.3162 33.2113C77.4885 32.6967 77.3353 32.144 77.4885 31.6294C77.5651 31.4197 77.6799 31.191 77.9288 31.2101C78.2543 31.2292 78.1203 31.5341 78.1394 31.7247C78.1777 32.0677 78.0628 32.4108 78.2351 32.7348C78.2543 33.1731 78.2734 33.5924 78.2926 34.0308C78.7138 34.9265 78.5606 35.746 78.0245 36.5465C77.7182 37.4994 77.4119 38.4524 77.1056 39.4244C77.029 39.7293 76.8758 40.0342 77.1821 40.282C77.2013 40.949 76.6461 41.3493 76.4355 41.9782C76.7801 41.902 76.895 41.3302 77.3353 41.5589C77.2779 42.6071 76.7035 43.3314 75.8611 43.865C75.2867 43.5029 75.057 44.0556 74.6932 44.2843C74.2146 44.6274 73.736 44.9704 73.5445 45.5803C73.4105 45.8281 73.1999 45.9805 72.951 46.0949C72.166 46.476 71.5534 47.124 70.8067 47.5814C70.2706 47.8292 69.792 48.1532 69.2559 48.42C67.82 49.0108 66.3649 49.6207 64.8907 50.1353C64.527 50.2687 64.1632 50.4021 63.8952 50.688C62.5741 51.2407 61.2148 51.2026 59.8555 50.8786C60.449 50.4021 61.1957 50.7833 61.9998 50.4784C61.3488 50.2687 60.7745 50.4402 60.2767 50.2687C59.664 49.9638 58.9748 49.9638 58.3238 49.8113C58.1324 49.7922 57.9409 49.7922 57.7495 49.7732C57.156 49.7351 56.6199 49.4682 56.0455 49.3539C55.2989 49.2014 54.6862 48.725 53.9395 48.6106C53.4226 48.4391 52.944 48.1532 52.5036 47.8483C52.1016 47.448 51.5846 47.2003 51.1634 46.8382C50.7039 46.2855 50.1679 46.476 49.6509 46.6285Z" fill="#9C7A39"/>
<path d="M75.7462 43.789C76.4546 43.141 77.029 42.4168 77.2779 41.4829C77.2779 41.4448 77.2779 41.4066 77.2779 41.3495C77.3544 41.0255 77.4693 40.7205 77.565 40.3965C77.7374 40.0535 77.6991 39.5961 78.1203 39.3864C78.3692 39.4246 78.7329 38.929 78.8286 39.558C78.1394 40.7587 77.6608 42.0546 76.8375 43.1982C75.2293 45.428 73.3339 47.3529 70.9981 48.8205C70.9024 48.8776 70.845 49.011 70.7684 49.1254C70.711 49.1826 70.6344 49.2397 70.5769 49.2969C69.5622 49.5447 68.7581 50.307 67.7051 50.4404C67.5137 50.2689 67.2265 50.2689 67.0925 50.0402C67.0733 49.9449 67.0925 49.8687 67.1308 49.7924C67.4371 49.4875 67.8583 49.4303 68.2412 49.2969C70.4621 48.4774 72.2426 47.0861 73.7551 45.3137C73.8125 45.2374 73.87 45.1803 73.9466 45.1421C74.138 45.0468 74.3486 44.9897 74.5209 44.8753C75.0378 44.6276 75.2293 44.0367 75.7462 43.789Z" fill="#E3CF28"/>
<path d="M78.0054 36.5276C78.1011 35.689 78.1777 34.8504 78.2734 34.0118C78.5989 33.0017 78.2351 31.8963 78.7712 30.9053C79.8817 32.106 79.6711 36.9659 78.1586 38.3762C77.9097 37.7473 78.1586 37.1184 78.0054 36.5276Z" fill="#FAF5BE"/>
<path d="M78.2351 32.7159C77.8522 32.3347 78.1969 31.8011 77.948 31.3056C77.3353 31.8773 77.9863 32.735 77.4885 33.2877C77.3736 33.3448 77.297 33.3258 77.2013 33.2305C76.9141 32.754 77.1056 32.1823 76.895 31.6867C76.8184 30.791 76.5695 29.8952 76.6269 28.9804C76.6652 28.5611 76.7609 28.1609 77.163 27.9131C77.6799 27.7988 77.7374 28.2371 77.7948 28.5421C77.9097 29.1519 78.2926 29.4378 78.8095 29.6475C78.9244 29.8952 79.0584 30.1239 79.1733 30.3717C77.6991 30.6766 78.4075 31.8773 78.2351 32.7159Z" fill="#A88941"/>
<path d="M78.1203 39.3864C77.9863 39.7866 77.9671 40.2059 77.6991 40.5489C77.5076 40.4537 77.4502 40.2059 77.2396 40.1678C77.2013 40.1678 77.163 40.1678 77.1247 40.1487C77.0099 40.1868 76.8758 40.2821 76.7801 40.2631C76.5121 40.1868 76.7035 40.0153 76.761 39.92C76.8567 39.7294 76.9907 39.577 77.1056 39.3864C77.4119 39.596 77.4693 39.2911 77.5842 39.1577C78.082 38.5097 78.0054 39.1386 78.1203 39.3864Z" fill="#9D7F42"/>
<path d="M77.297 27.9512C77.1247 28.2561 76.8375 28.5039 76.9141 28.9041C76.5504 28.9613 76.4929 28.6564 76.4355 28.4467C76.1483 27.4176 75.5356 26.5218 75.0762 25.5689C74.3869 24.2919 73.8126 22.9197 72.4532 22.1574C72.3384 22.0049 72.2426 21.8524 72.3192 21.6619C72.5681 21.4141 72.8936 21.395 73.1999 21.376C73.3339 21.395 73.4679 21.4332 73.5828 21.5094C74.1572 21.8524 74.4061 22.5004 74.923 22.9007C75.1719 23.2437 75.4399 23.5868 75.708 23.9108C76.2057 24.6731 76.7227 25.4164 77.2205 26.1788C77.3353 26.3503 77.4693 26.5218 77.6034 26.7505C77.6225 26.3503 77.3928 25.9882 77.5459 25.6261C77.5842 25.5498 77.6417 25.4926 77.7374 25.4545C78.0054 26.0072 78.1969 26.579 78.2735 27.1698C78.3692 27.4366 78.4649 27.7606 78.216 27.9321C77.9288 28.1418 77.7374 27.875 77.5076 27.6844C77.3736 27.6081 77.4311 27.9321 77.297 27.9512Z" fill="#AD8F4E"/>
<path d="M77.7374 25.4733C77.7182 25.5686 77.6799 25.6448 77.6608 25.7401C77.5651 25.7782 77.4885 25.7782 77.3928 25.7401C76.8567 25.0159 76.6652 24.1011 76.0909 23.3959C75.7654 22.9766 75.4591 22.5383 75.1145 22.1571C74.7698 21.5472 74.2146 21.147 73.736 20.6705C73.5445 20.4418 73.3531 20.2131 73.1425 20.0225C72.4724 19.4317 71.764 18.86 70.8833 18.5741C70.1558 18.0595 69.2751 17.7927 68.7007 17.0875C68.6241 16.3061 69.1219 16.6301 69.4857 16.6873C72.4724 17.9642 74.6741 20.1369 76.4546 22.786C76.5312 22.9195 76.6461 23.0338 76.7418 23.1482C77.0481 23.9296 77.3928 24.711 77.7374 25.4733Z" fill="#EDDD30"/>
<path d="M77.297 27.9514C77.2587 27.6845 77.2205 27.4177 77.1822 27.1318C77.5842 27.2843 77.6034 27.9323 78.082 27.8561C78.3883 27.7989 78.216 27.4368 78.2735 27.2081C78.4649 27.9132 78.6564 28.5994 78.8287 29.3045C78.8287 29.4379 78.8287 29.5523 78.8287 29.6857C78.1777 29.8953 77.814 29.6476 77.6799 28.9996C77.6034 28.6184 77.5459 28.2372 77.297 27.9514Z" fill="#866426"/>
<path d="M69.4474 16.6876C69.2559 16.8401 68.6624 16.4017 68.8539 17.1069C68.2221 17.3547 67.7626 16.8782 67.2265 16.6876C66.6521 16.3255 65.9821 16.2111 65.3694 15.9634C65.0822 15.849 64.6419 15.8681 64.6419 15.3726C65.7715 15.4107 66.8053 15.7728 67.8583 16.0968C68.1838 16.1921 68.5284 16.2493 68.873 16.3255C69.0645 16.4398 69.2559 16.5733 69.4474 16.6876Z" fill="#DCC520"/>
<path d="M48.5788 45.8661C48.5214 45.9995 48.4448 46.1329 48.3874 46.2472C46.7217 44.9131 45.5921 43.2169 44.7689 41.2729C45.2666 41.8638 45.7644 42.4546 46.2622 43.0454C46.76 43.3313 47.0855 43.8268 47.5067 44.1889C47.6598 44.3414 47.813 44.4939 47.9662 44.6463C48.215 45.0275 48.8468 45.2181 48.5788 45.8661Z" fill="#805D0F"/>
<path d="M44.5391 30.7908C44.0413 31.7628 44.3859 32.9254 43.7924 33.8974C43.5435 32.7539 43.5052 31.6104 43.6775 30.4668C43.9456 28.4848 44.5965 26.617 45.5347 24.8446C45.6112 24.673 45.6495 24.4824 45.707 24.3109C45.5538 23.9488 45.7835 23.701 45.9559 23.4533C47.3343 21.6618 48.8085 19.9846 50.6465 18.6314C51.7952 17.8691 52.9631 17.1449 54.265 16.6493C58.4196 14.9912 62.6316 14.6482 66.8627 16.3635C67.6668 16.8209 68.5475 17.0877 69.3325 17.5642C69.5622 17.6976 69.926 17.831 69.792 18.174C69.658 18.498 69.2942 18.3837 69.0262 18.2884C68.0497 18.0025 67.169 17.4498 66.0969 17.507C64.8333 17.2402 63.5888 16.8399 62.2678 16.9543C57.0985 16.7637 52.6376 18.4027 49.0383 22.1954C47.6981 23.6248 46.6834 25.2638 45.8793 27.0363C45.4581 28.0083 45.2092 29.0184 44.922 30.0285C44.8071 30.2953 44.788 30.6003 44.5391 30.7908Z" fill="#765423"/>
<path d="M50.6848 18.8222C48.7894 20.4612 47.0089 22.1956 45.6878 24.3301C44.6348 25.5308 44.2519 27.0174 43.7924 28.4849C43.5627 29.2092 43.4478 29.9715 43.1989 30.6957C43.1415 29.3616 43.6584 28.1228 43.8116 26.8268C44.3094 25.7595 44.8263 24.6732 45.3241 23.6059C46.4537 22.2146 47.4875 20.7281 48.866 19.5464C50.3402 18.2886 51.8718 17.145 53.7289 16.5161C53.8247 16.9545 53.4417 17.0116 53.1929 17.1641C52.3505 17.6977 51.4506 18.1552 50.6848 18.8222Z" fill="#DFCA2A"/>
<path d="M44.5391 30.7907C44.5774 30.5238 44.5008 30.238 44.7305 30.0283C45.19 30.7907 44.9986 31.7055 45.3432 32.4869C45.6112 33.6685 45.5538 34.9073 45.9367 36.0699C45.9559 36.3367 45.9559 36.6035 45.8027 36.8323C45.19 37.061 45.19 36.4892 45.0369 36.1843C44.7688 35.7078 44.8646 35.0979 44.5582 34.6214C44.2328 33.8972 44.3668 33.1349 44.4817 32.3916C44.5199 31.8579 44.5391 31.3434 44.5391 30.7907Z" fill="#D9C46E"/>
<path d="M44.5391 34.6216C45.056 34.8693 44.9986 35.403 45.1326 35.8223C45.2475 36.2225 45.3815 36.6037 45.707 36.8896C45.975 37.0611 46.0707 37.3279 46.109 37.6329C46.1282 37.8234 46.0899 38.014 45.9941 38.1665C45.4006 38.4714 45.3623 37.6519 44.922 37.6519C44.5774 37.2707 44.5391 36.7943 44.5008 36.2987C44.5199 35.9176 44.3093 35.5173 44.5582 35.1552C44.5391 34.9837 44.5391 34.8122 44.5391 34.6216Z" fill="#CBB36A"/>
<path d="M44.5391 35.1744C44.5966 35.5556 44.8072 35.9368 44.7306 36.337C44.0796 36.661 43.7733 36.3561 43.601 35.7652C43.5436 35.3269 43.467 34.8885 43.4095 34.4502C43.8116 34.6598 43.8116 35.4794 44.5391 35.1744Z" fill="#D9C46E"/>
<path d="M66.9393 16.5161C62.7847 15.1057 58.6685 15.1438 54.5905 16.8401C54.4565 16.8972 54.2841 16.8972 54.131 16.9163C54.131 16.3445 54.6671 16.3445 54.9925 16.2302C55.7201 16.0015 56.4284 15.6775 57.1943 15.5631C57.8261 15.3726 58.477 15.182 59.1088 14.9914C59.1662 14.9914 59.2237 14.9914 59.2811 14.9914C61.0808 15.0676 62.8996 14.7436 64.6418 15.3726C65.4651 15.9443 66.5372 15.8681 67.3414 16.5161C67.2073 16.6304 67.0733 16.6304 66.9393 16.5161Z" fill="#BFA119"/>
<path d="M57.1943 15.563C56.2179 16.1157 55.0117 16.1538 54.131 16.9162C52.9823 17.5641 51.8335 18.1931 50.6848 18.8411C51.1252 18.0787 51.9484 17.831 52.6185 17.3736C53.0014 17.1067 53.4801 16.9543 53.7481 16.535C54.8585 16.0776 55.9498 15.582 57.1943 15.563Z" fill="#D0B71F"/>
<path d="M46.4345 43.0268C45.7261 41.9214 44.9603 40.8541 44.5582 39.5962C44.4625 39.2341 44.3476 38.872 44.2519 38.5289C44.1753 38.1859 44.1179 37.8047 44.7114 37.8809C44.9412 37.9953 45.1135 38.1668 45.2666 38.3765C45.5155 38.891 45.8027 39.3866 45.9367 39.9393C46.0899 40.8731 46.7025 41.5974 47.028 42.455C47.1812 42.8743 47.4301 43.427 46.5494 43.1411C46.4919 43.103 46.4537 43.0649 46.4345 43.0268Z" fill="#FAF5BE"/>
<path d="M47.411 44.3414C46.9515 43.9793 46.492 43.6172 46.2431 43.0454C46.3005 43.0263 46.358 43.0073 46.4154 43.0264L46.4537 43.0073C46.6643 43.1407 46.8174 43.3503 47.1621 43.2932C47.0089 42.3402 46.3388 41.6351 46.0899 40.7774C46.0708 40.0913 46.6451 40.2057 47.0472 40.0723C47.1429 40.0723 47.2195 40.0913 47.3152 40.1485C47.6216 40.4153 47.6407 40.8156 47.7556 41.1586C47.813 41.5207 48.0236 41.8828 47.7747 42.264C47.0663 42.8739 47.7173 43.3122 47.947 43.7887C48.0236 43.8649 48.0619 43.9602 48.081 44.0746C48.0428 44.5129 47.7747 44.532 47.411 44.3414Z" fill="#B2944C"/>
<path d="M45.1135 38.4333C44.9986 38.2999 44.8646 38.1856 44.7497 38.0522C44.5965 37.8616 44.4625 37.6329 44.2902 37.4614C44.1753 37.8425 44.4051 38.2618 44.1562 38.643C43.6776 37.7472 43.6393 36.7562 43.601 35.7651C43.8116 36.2797 44.2902 36.2607 44.7306 36.3369C44.7306 36.8134 44.8071 37.2708 45.1135 37.671C45.3432 37.9378 45.3432 38.1856 45.1135 38.4333Z" fill="#EDE27C"/>
<path d="M44.1562 38.6432C44.2902 38.0333 43.7542 37.4615 44.1371 36.7563C44.5966 37.0994 44.5966 37.614 44.7497 38.0523C44.3477 37.8808 44.3477 38.1476 44.3668 38.4144C44.4051 38.8147 44.6349 39.1768 44.5391 39.5961C44.2902 39.3293 44.2519 38.9671 44.1562 38.6432Z" fill="#FAF6B5"/>
<path d="M52.5611 47.6007C53.0206 47.8485 53.4609 48.0962 53.9204 48.344C54.5713 48.5727 55.1457 48.992 55.7775 49.2397C56.0073 49.335 56.2944 49.4875 56.1987 49.7734C56.103 50.1164 55.7584 50.0974 55.4903 50.0211C54.6671 49.8115 53.863 49.5447 53.1354 49.1063C52.5802 48.8586 52.0633 48.5346 51.6038 48.1534C51.3549 47.9628 51.1252 47.7532 50.9146 47.5245C50.7805 47.372 50.5125 47.2386 50.704 46.9908C50.8571 46.8002 51.106 46.8765 51.3166 46.9718C51.7378 47.2005 52.159 47.372 52.5611 47.6007Z" fill="#FBF9D3"/>
<path d="M52.5611 47.6008C51.9484 47.5817 51.4315 47.2387 50.7997 47.0481C50.9146 47.5817 51.4889 47.7151 51.6038 48.1726C50.9911 47.982 50.6657 47.4674 50.2636 47.029C50.4168 46.5526 50.7231 46.4192 51.1826 46.6288C51.6612 46.9528 52.2164 47.1434 52.5611 47.6008Z" fill="#F2E989"/>
<path d="M51.2209 46.6287C50.838 46.5715 50.5699 46.8383 50.3019 47.0289C50.1296 46.9527 49.9573 46.8764 49.785 46.8002C49.7467 46.743 49.7084 46.6858 49.6701 46.6287C50.1679 45.9997 50.6848 45.9616 51.2209 46.6287Z" fill="#D2C073"/>
<path d="M66.0012 50.2688C65.8672 50.326 65.7332 50.3832 65.5991 50.4594C65.0248 50.5166 64.4696 50.5737 63.8952 50.65C63.8569 50.2497 64.1632 50.0973 64.4504 49.9829C66.0395 49.3731 67.6286 48.7632 69.2176 48.1724C69.2751 48.2486 69.2942 48.3439 69.2559 48.4392C68.471 49.2206 67.3988 49.4112 66.4415 49.8305C66.2692 49.9258 65.848 49.8114 66.0012 50.2688Z" fill="#D4C16F"/>
<path d="M48.0044 43.9606C48.0044 43.9034 47.9853 43.8463 47.9853 43.77C48.9043 43.9225 49.1914 44.7611 49.5935 45.39C49.8615 45.8093 49.268 45.8284 48.9426 45.8855C48.8085 45.8855 48.6937 45.8665 48.5596 45.8665C48.5405 45.3328 47.9853 45.1613 47.7938 44.742C47.9661 44.4942 48.2533 44.3037 48.0044 43.9606Z" fill="#846226"/>
<path d="M77.297 33.2876C77.3545 33.2876 77.431 33.2876 77.4885 33.2876C77.4693 36.8134 76.0526 39.8056 73.8891 42.4548C71.3236 45.6185 67.9732 47.5625 63.9718 48.4011C61.2148 48.9728 58.477 48.8966 55.8158 47.9246C55.452 47.7912 54.9734 47.734 54.8968 47.2194C55.0117 47.0098 55.2031 46.8573 55.4329 46.8764C56.3902 46.8955 56.9262 46.438 57.0603 45.4851C57.9027 45.5995 58.7068 45.9235 59.5683 46.0188C60.0087 46.0759 60.5447 46.0759 60.6979 46.5715C60.8511 47.067 60.2576 47.2004 59.8938 47.6006C62.7848 47.9818 65.2737 47.086 67.7626 46.114C69.2751 45.6757 70.3855 44.6275 71.5342 43.6745C71.764 43.484 71.7448 43.2362 71.6874 42.9694C71.9554 42.2642 72.4341 41.7496 73.1233 41.4256C73.7934 41.559 74.0231 41.0063 74.272 40.6061C75.4973 38.7384 76.4546 36.7372 76.895 34.5264C76.9333 34.0881 76.9524 33.6307 77.297 33.2876Z" fill="#A58333"/>
<path d="M57.0028 45.4852C57.1943 46.743 57.0794 46.8574 55.8158 47.0099C55.5095 47.048 55.2031 47.1242 54.8968 47.2005C52.9823 46.2856 50.8954 45.6567 49.2872 44.1892C48.5979 43.5603 48.5597 42.6836 49.1532 42.2452C49.5935 42.0737 49.8615 42.4167 50.1487 42.6264C50.7997 43.1219 51.4315 43.6556 52.1016 44.132C52.6759 44.5323 53.078 44.4941 53.4609 43.9224C53.9395 44.2083 53.8821 44.7228 53.9778 45.1802C53.9778 45.7901 54.1693 46.4191 54.7245 46.5715C55.3563 46.724 56.1221 46.6859 56.5433 45.9616C56.5816 45.8282 56.6199 45.7139 56.6773 45.5995C56.7156 45.5233 56.7922 45.4661 56.8879 45.4471C56.9071 45.4471 56.9454 45.4661 57.0028 45.4852Z" fill="#96722B"/>
<path d="M53.3843 43.9034C53.2886 45.0469 53.3078 45.0088 52.293 44.4942C51.1252 43.9034 50.3019 42.8361 49.134 42.2453C48.6937 41.5211 48.2533 41.9785 47.7939 42.2453C47.7173 41.8641 47.5258 41.502 47.6024 41.1018C47.9662 40.2632 48.4257 40.1298 49.1723 40.7778C50.0913 41.5782 51.0103 42.3406 51.9676 43.0839C52.3888 43.4079 52.7908 43.5032 53.2503 43.1601C53.5949 43.3507 53.5758 43.6175 53.3843 43.9034Z" fill="#A78533"/>
<path d="M66.365 49.6589C67.3222 49.2205 68.2795 48.7631 69.2368 48.3248C69.6963 47.9817 70.1749 47.6958 70.711 47.4862C71.4768 46.9907 72.1852 46.438 72.8936 45.8662C73.0659 45.7137 73.2382 45.5613 73.4105 45.4088C73.5254 45.2754 73.6594 45.1801 73.8508 45.2754C73.8891 45.4088 74.0423 45.5613 73.8891 45.7137C71.9554 47.5624 69.8686 49.2015 67.1882 49.8685C66.8627 49.9257 66.499 50.1925 66.365 49.6589Z" fill="#FBF6B3"/>
<path d="M77.2779 41.4826C76.895 41.6351 76.8567 42.1115 76.5312 42.3021C76.3972 42.3974 76.244 42.4546 76.0909 42.3593C75.9185 42.2449 76.0143 42.0734 76.0909 41.94C76.4163 41.3492 76.761 40.7393 77.0864 40.1485C77.4119 39.9579 77.5268 40.1485 77.5459 40.4344C77.6034 40.8155 77.4119 41.1395 77.2779 41.4826Z" fill="#866530"/>
<path d="M75.7462 43.7891C75.4974 44.3418 75.1336 44.7802 74.5975 45.0851C74.3678 44.7992 74.6741 44.5324 74.5975 44.2465C74.5975 44.2084 74.5784 44.1703 74.5784 44.1322C74.789 43.9035 74.9804 43.6557 75.2102 43.4651C75.7462 43.0077 75.7462 43.4079 75.7462 43.7891Z" fill="#BCA45E"/>
<path d="M72.8936 45.8662C72.3766 46.6667 71.5151 47.0478 70.7876 47.5815C70.7301 47.5434 70.6918 47.5053 70.711 47.4481C70.7301 47.3909 70.7301 47.3718 70.7493 47.3718C71.4385 46.8382 72.0703 46.2093 72.8936 45.8662Z" fill="#F6EFA2"/>
<path d="M73.8508 45.2944C73.6977 45.3325 73.5637 45.3897 73.4105 45.4278C73.4296 44.6655 74.0423 44.4368 74.5784 44.1318L74.6167 44.189C74.6167 44.6655 74.2529 44.9704 74.004 45.3135C73.9657 45.2944 73.9083 45.2944 73.8508 45.2944Z" fill="#BCA45E"/>
<path d="M70.7493 47.3716C70.7684 47.4478 70.7684 47.524 70.7876 47.5812C70.2706 47.829 69.7537 48.0767 69.2559 48.3436C69.2751 48.2864 69.2751 48.2292 69.2559 48.153C69.7346 47.848 70.1749 47.505 70.7493 47.3716Z" fill="#F1E89A"/>
<path d="M74.0231 45.2944C73.9274 44.7607 74.3869 44.532 74.6358 44.1699C75.4016 44.4939 74.3869 44.7798 74.5975 45.0847C74.4252 45.2181 74.2529 45.3325 74.0231 45.2944Z" fill="#DCCC85"/>
<path d="M77.2779 41.4828C77.0673 41.0635 77.9671 40.4917 77.1056 40.1677C77.163 40.0153 77.2779 39.8437 77.4311 39.9009C77.7182 40.0153 77.6417 40.3202 77.68 40.568C77.68 40.911 77.5651 41.235 77.2779 41.4828Z" fill="#9C7A39"/>
<path d="M72.3192 21.6619C72.3766 21.7953 72.4532 21.9097 72.5107 22.0431C72.3383 22.7673 72.5489 23.3581 73.0276 23.949C73.6785 24.7304 74.004 25.7214 74.5018 26.6172C74.655 26.9221 74.789 27.2461 75.0187 27.532C75.4016 26.8268 74.789 26.1216 75.191 25.4736C76.0334 26.4838 76.378 27.7416 76.9141 28.9042C76.7801 29.8762 77.2013 30.791 77.1056 31.763C77.297 33.8594 76.6844 35.8034 75.9186 37.7093C75.5356 38.6432 75.0761 39.558 74.4826 40.3775C74.0423 41.0064 73.7551 40.9683 73.4296 40.206C73.3722 39.7104 73.4871 39.2149 73.5445 38.7194C73.6402 37.938 73.6402 37.1566 73.0276 36.5467C72.9701 36.4705 72.9127 36.3942 72.817 36.3561C71.8406 35.8797 68.9305 36.9279 68.5093 37.8999C68.4135 38.1286 68.2987 38.3573 68.2221 38.605C68.3752 39.3102 68.7007 39.7486 69.524 39.5008C69.8303 39.4055 70.2515 39.3102 70.2323 39.901C69.0262 41.4067 66.9393 41.3876 65.6374 39.882C64.6802 37.0803 66.3267 35.0792 69.3134 35.4032C69.8686 35.4604 70.3089 35.4413 70.6344 34.9267C70.9407 34.4312 71.1513 33.9738 70.711 33.4592C70.3472 32.735 69.5814 32.7922 68.9687 32.5063C68.6241 32.3347 68.0306 32.5063 67.954 32.1251C67.8583 31.6677 68.471 31.5724 68.7964 31.3628C71.0173 29.9905 71.9937 27.6082 71.2662 25.2259C71.1513 24.8257 70.979 24.4445 70.6535 24.1586C69.9643 23.0913 69.2559 22.0431 68.0498 21.4713C67.8775 21.3951 67.7817 21.2045 67.8966 20.9949C68.0689 20.7852 68.3369 20.6709 68.5858 20.728C69.792 21.033 71.0365 21.052 72.2043 21.5476C72.2426 21.5857 72.2809 21.6238 72.3192 21.6619Z" fill="#B6953A"/>
<path d="M73.6402 40.149C73.6594 40.3205 73.5828 40.5683 73.8125 40.6254C74.0806 40.6826 74.2146 40.4539 74.3295 40.2824C75.057 39.1389 75.6697 37.9382 76.1292 36.6422C76.7035 35.0603 76.8758 33.4022 77.0864 31.7632C77.4693 32.2396 77.2013 32.7733 77.2779 33.2879C76.9524 36.3563 75.6888 39.0626 73.87 41.5021C73.6594 41.788 73.3148 42.2073 73.0659 41.464C72.8936 40.8732 73.0467 40.4158 73.6402 40.149Z" fill="#AC8A35"/>
<path d="M75.191 25.4735C75.325 26.1596 75.4399 26.8267 75.3825 27.5318C75.3633 27.7034 75.4399 27.9511 75.2102 28.0274C74.9804 28.1036 74.8847 27.894 74.789 27.7415C73.9849 26.2359 73.3531 24.654 72.2809 23.3008C71.9554 22.8815 72.0512 22.4051 72.4915 22.062C74.0614 22.6719 74.5209 24.1394 75.191 25.4735Z" fill="#AB8939"/>
<path d="M70.979 18.4028C71.9172 18.6697 72.6447 19.2224 73.2765 19.9275C73.1425 20.0609 72.9893 20.0228 72.8744 19.9656C73.0659 20.5183 73.8891 20.8614 73.4679 21.6619C73.3914 21.6047 73.3148 21.5475 73.2382 21.5094C72.7213 21.2426 72.1852 21.0139 72.032 20.3849C72.2426 20.0038 72.1278 19.7369 71.7831 19.5082C71.5342 19.1271 70.9216 19.0127 70.979 18.4028Z" fill="#EDDE5E"/>
<path d="M73.4679 21.6619C73.5254 21.1092 73.085 20.7852 72.8361 20.3659C72.4532 19.6798 72.9893 19.9466 73.2765 19.9466C73.5062 20.099 73.736 20.2515 73.8317 20.5374C73.6594 20.9376 74.0423 21.1473 74.1572 21.4332C74.3869 21.8524 74.7315 22.2146 74.9039 22.6529C74.923 22.7863 74.9039 22.9197 74.789 23.015C74.3486 22.5576 73.9083 22.1193 73.4679 21.6619Z" fill="#F1E88F"/>
<path d="M72.1086 20.3468C72.3575 20.8613 73.0084 20.9757 73.2382 21.5093C72.951 21.6618 72.6447 21.6809 72.3192 21.6809C71.8406 21.2806 70.9982 21.5093 70.7493 20.747C71.0556 20.442 71.5151 20.4992 71.8597 20.3086C71.9554 20.2515 72.032 20.2705 72.1086 20.3468Z" fill="#BEA35D"/>
<path d="M77.0673 26.2552C76.4738 25.55 75.9377 24.7877 75.5356 23.9491C75.6122 23.8919 75.6888 23.8729 75.7845 23.8919C76.4546 24.5208 77.0864 25.1688 77.163 26.1599C77.1439 26.198 77.1056 26.2361 77.0673 26.2552Z" fill="#F8F3A4"/>
<path d="M77.4693 25.7021C77.5268 25.7021 77.5842 25.7021 77.6416 25.7403C77.6991 26.1596 77.948 26.5788 77.7948 27.0553C77.3736 26.941 77.1821 26.636 77.0673 26.2739L77.1247 26.2167C77.3162 26.0833 77.297 25.8356 77.4693 25.7021Z" fill="#F8F3A4"/>
<path d="M75.7462 23.9488C75.6696 23.9488 75.5931 23.9488 75.5165 23.9488C75.191 23.7011 74.9804 23.358 74.7698 23.015C74.7698 22.8816 74.7698 22.7482 74.7698 22.6147C75.459 22.8053 75.6696 23.339 75.7462 23.9488Z" fill="#FBF6B7"/>
<path d="M75.7462 23.949C75.4208 23.5107 75.0953 23.0533 74.7698 22.6149C74.3869 22.329 74.138 21.9288 74.004 21.4714C74.1572 21.1665 74.3486 21.1855 74.5784 21.3761C74.8081 21.5667 74.9804 21.8335 75.2102 22.0241C76.3014 23.0533 76.9524 24.3302 77.4502 25.7024C77.3162 25.8549 77.7756 26.4076 77.1056 26.217C76.8567 25.3594 76.2057 24.7114 75.7462 23.949Z" fill="#FBF7C4"/>
<path d="M70.979 18.4029C71.3045 18.7269 71.63 19.07 71.9554 19.394C71.7257 19.9276 71.3619 19.6608 71.0556 19.5083C70.5387 19.2415 70.0217 18.9175 69.4282 18.8032C68.471 18.4029 67.5328 17.9074 66.5181 17.6787C66.3458 17.6025 66.1352 17.5262 66.1735 17.2785C67.4371 17.1832 68.4518 17.9836 69.658 18.1361C68.9687 17.2404 67.8009 17.1451 66.9393 16.5161C67.0733 16.5161 67.2074 16.5161 67.3414 16.4971C67.8392 16.6877 68.3561 16.8973 68.8539 17.0879C69.5622 17.5453 70.2706 17.9646 70.979 18.4029Z" fill="#987936"/>
<path d="M75.2293 22.0242C74.7507 22.0051 74.6741 21.1475 74.0232 21.4715C73.7934 21.1856 73.1808 20.976 73.8317 20.5186C74.3486 20.976 74.9421 21.3571 75.2293 22.0242Z" fill="#FBF6B7"/>
<path d="M48.0044 43.9604C48.2725 44.3035 48.6745 44.7037 47.7938 44.7419C47.6598 44.6084 47.5449 44.4941 47.4109 44.3607C47.6981 44.3416 47.9853 44.3416 48.0044 43.9604Z" fill="#9C7A39"/>
<path d="M45.6879 26.9983C46.9323 23.8155 49.0766 21.357 51.891 19.4892C54.1693 17.9645 56.6199 16.9354 59.4535 16.8591C60.3533 16.8401 61.2531 16.6686 62.1721 16.7067C62.3827 17.0307 62.1721 17.1641 61.9041 17.2784C60.2193 17.3547 58.5536 17.4881 56.9071 17.9645C52.293 19.3368 48.9043 22.1193 46.6834 26.3503C46.5303 26.6553 46.3962 26.9983 46.1665 27.2461C46.0516 27.3414 45.8793 27.4557 45.7453 27.3795C45.5921 27.3033 45.573 27.1317 45.6879 26.9983Z" fill="#F4E9A3"/>
<path d="M45.6878 26.9985C45.6878 27.3035 45.8601 27.3225 46.0707 27.1891C46.3579 27.4559 46.3196 27.7799 46.3196 28.123C45.975 29.4571 45.8218 30.8103 45.5729 32.1634C45.4772 32.354 45.4198 32.5827 45.1326 32.5446C44.7688 31.7441 44.7305 30.9056 44.7497 30.0479C44.922 28.9806 45.19 27.9515 45.6878 26.9985Z" fill="#EBDC8A"/>
<path d="M61.7892 17.088C62.0381 17.088 62.1721 16.9355 62.1721 16.6878C63.5506 16.5734 64.8525 16.9927 66.1735 17.2786C66.3075 17.3357 66.4415 17.412 66.5756 17.4692C66.8627 17.6788 67.1882 17.8884 66.901 18.3077C66.1352 18.5555 65.4268 18.1362 64.6802 18.079C64.3738 18.0219 64.0866 17.9266 63.7995 17.8122C63.3591 17.6788 62.9188 17.5454 62.4593 17.5073C62.1721 17.4882 61.8083 17.5454 61.7892 17.088Z" fill="#EFE18C"/>
<path d="M45.1326 32.525C45.2858 32.4297 45.3241 32.2963 45.3241 32.1248C45.841 32.1629 45.6687 32.6393 45.8027 32.9062C45.8602 33.0396 45.8793 33.2492 46.0516 33.2683C46.3005 33.3064 46.3579 33.0777 46.3962 32.9062C46.6451 31.8008 46.9323 30.7144 47.3918 29.6662C47.6024 29.2088 47.7938 28.7323 48.0427 28.313C48.215 28.0271 48.3491 27.665 48.8086 27.7413C48.9426 27.9128 48.9617 28.0843 48.9043 28.2749C48.3491 29.2469 47.9087 30.2951 47.6024 31.3624C47.5067 31.6292 47.4684 31.9151 47.3918 32.1819C47.1812 32.8299 47.0855 33.497 47.0855 34.1831C47.0663 34.2784 47.0472 34.3927 47.028 34.488C46.8749 34.8883 46.9706 35.3075 46.8557 35.7078C46.6643 36.3748 46.3005 36.5082 45.707 36.1271C45.2092 34.9835 45.3624 33.7257 45.1326 32.525Z" fill="#E9D361"/>
<path d="M45.707 36.1464C46.4154 36.4704 46.5877 36.0321 46.6643 35.4794C46.7217 35.1363 46.5303 34.7361 46.8557 34.4312C47.3344 35.4031 47.1812 36.4514 46.9897 37.4234C46.8749 37.9761 46.4345 38.281 45.8985 37.6711C45.841 37.4234 45.7644 37.1565 45.707 36.9088C45.707 36.661 45.707 36.3942 45.707 36.1464Z" fill="#E1C95B"/>
<path d="M45.8985 37.6711C46.626 38.0714 46.8174 37.614 46.8366 37.0613C46.8749 36.1846 46.8557 35.3079 46.8557 34.4312C46.8557 34.374 46.8557 34.2978 46.8557 34.2406C47.0089 33.5354 47.028 32.8303 47.2386 32.1441C47.2578 31.8773 47.1621 31.5914 47.4301 31.3818C47.6024 31.3056 47.5067 30.6766 47.9279 31.134C48.0236 32.2204 47.5641 33.2305 47.4684 34.2978C47.3727 35.5556 47.3152 36.8135 47.2961 38.0904C47.2961 38.5859 47.2961 39.1196 46.7983 39.4436C46.0325 39.4055 45.6687 39.0243 45.8793 38.2429C45.8985 38.0523 45.8985 37.8617 45.8985 37.6711Z" fill="#CDB252"/>
<path d="M45.8984 38.2428C45.975 38.7384 46.2048 39.1386 46.6643 39.3864C46.9706 39.5579 47.2003 39.7675 47.0472 40.1487C47.0089 40.6252 46.2239 40.1678 46.2622 40.7586C45.8027 40.6633 45.8984 40.2059 45.7261 39.9391C45.573 39.4245 45.1901 39.0052 45.1326 38.4334C45.1326 38.1857 45.1326 37.9379 45.1326 37.6711C45.6496 37.4805 45.4772 38.2619 45.8984 38.2428Z" fill="#BDA158"/>
<path d="M45.707 39.939C45.8793 40.2058 46.0708 40.4917 46.2431 40.7585C46.5111 41.7686 47.3344 42.5691 47.4301 43.7316C46.894 43.6173 46.6643 43.3314 46.4728 43.0074C46.7026 42.9883 47.1812 43.3123 46.8749 42.6453C46.4728 41.7495 45.7836 40.9681 45.707 39.939Z" fill="#F6F0AC"/>
<path d="M53.1929 43.1411C53.1354 43.8653 52.7908 43.9034 52.2547 43.5413C51.1826 42.779 50.1104 41.9976 49.1915 41.0637C48.6554 40.511 48.1193 40.2823 47.6024 41.1018C47.2961 40.8541 47.4684 40.4157 47.2195 40.1489C47.1237 40.0155 47.0472 39.863 47.0663 39.7105C47.5449 37.4235 47.3152 35.0602 47.7555 32.7541C47.947 31.7631 48.1767 30.772 48.7894 29.9335C49.268 29.6285 49.3063 30.0859 49.4212 30.3146C49.6318 30.772 49.7658 31.2485 50.0147 31.6869C50.7039 33.6499 53.1737 34.984 55.4903 34.6409C58.1707 34.2407 59.7598 32.5826 60.0087 30.0097C60.1044 29.0758 60.2384 28.9805 61.0042 29.2664C61.0808 29.3236 61.1382 29.3998 61.1957 29.4951C62.0955 31.096 63.5123 31.8965 65.312 32.1062C65.6757 32.1443 66.0969 32.0299 66.2692 32.5254C66.2501 32.8304 65.982 32.9257 65.7714 33.04C64.0484 33.9739 62.9379 35.3461 62.6699 37.3092C62.6316 37.576 62.6124 37.8809 62.3827 38.0906C61.9041 38.1287 61.8466 37.7856 61.7317 37.4616C61.6169 37.1376 61.5786 36.7946 61.4254 36.4896C61.1574 35.8798 61.0617 35.1746 60.449 34.7744C59.9321 34.4885 59.4534 34.7362 58.9748 34.8887C58.4579 35.0412 58.5919 35.4795 58.6876 35.8416C58.9748 36.947 59.2045 38.0715 59.4534 39.1769C59.5492 39.5581 59.8363 40.0536 59.4343 40.3204C58.9939 40.6253 58.7068 40.1298 58.4004 39.8821C57.1177 38.8529 55.8732 37.7475 54.6288 36.6612C54.0544 36.1466 53.5183 36.0513 52.81 36.2419C52.1782 36.4134 51.9867 36.6802 52.1399 37.3282C52.5419 38.891 52.8865 40.4729 53.2312 42.0547C53.3077 42.4169 53.48 42.798 53.1929 43.1411Z" fill="#B6953A"/>
<path d="M48.9617 29.8189C48.6362 31.0196 48.1193 32.1631 47.9278 33.421C47.7364 34.6026 47.8321 35.8033 47.679 36.9849C47.5258 38.0331 47.4301 39.1004 47.2386 40.1486C47.1812 40.1486 47.1046 40.1486 47.0472 40.1486C46.9131 39.9009 46.7983 39.6341 46.6642 39.3863C46.9514 39.1385 47.0663 38.8145 47.0472 38.4524C46.9514 35.9367 47.2195 33.44 47.813 31.0005C47.7172 29.9713 48.4065 29.209 48.732 28.3323C48.732 28.1417 48.7511 27.9511 48.7511 27.7605C48.6937 27.5128 48.6554 27.2841 49.0383 27.4556C49.3063 28.2561 49.4212 29.0565 48.9617 29.8189Z" fill="#C4A643"/>
<path d="M67.9158 46.2475C65.714 47.2576 63.4166 47.9627 60.9659 47.9627C60.7362 47.9627 60.4873 48.0199 60.2958 47.9246C59.9895 47.7912 59.4726 47.9246 59.4152 47.5435C59.3577 47.1623 59.8938 47.2385 60.1427 47.067C60.315 46.9526 60.6213 46.8955 60.5256 46.6096C60.449 46.3428 60.1044 46.3237 59.8746 46.2856C58.8791 46.1141 57.8452 46.1141 56.9837 45.4851C56.4667 45.0468 56.5433 44.3416 56.237 43.808C56.0455 43.3315 55.9115 42.855 55.8349 42.3595C55.7967 42.0546 55.7584 41.6925 56.0647 41.4828C56.4093 41.2541 56.6582 41.54 56.9071 41.7306C58.1133 42.6644 59.2046 43.7317 60.3916 44.6656C61.1574 45.2564 61.8275 45.3136 62.6699 44.8943C63.206 44.6275 63.1102 44.1891 63.0337 43.7508C62.8805 42.9122 62.4401 42.1499 62.5359 41.2541C62.8231 40.5108 63.206 40.8539 63.5889 41.1588C65.0248 42.9884 66.8053 44.0748 69.2559 43.6174C69.6771 43.5602 70.0983 43.3887 70.5387 43.3887C71.3236 43.7317 71.4002 43.9604 70.7684 44.4369C69.8686 45.123 68.9305 45.7519 67.9158 46.2475Z" fill="#B29037"/>
<path d="M70.577 43.5792C70.1366 43.6554 69.6771 43.7126 69.2368 43.7888C69.2559 43.1599 70.1558 43.1789 70.1175 42.5119C70.5004 41.9592 71.1513 41.7114 71.5917 41.1968C72.0512 40.6632 72.4724 40.1296 72.4149 39.3672C72.6447 38.3762 72.683 37.3279 73.0276 36.356C74.0423 36.9658 73.8509 37.9569 73.736 38.8526C73.6785 39.291 73.6211 39.7103 73.6211 40.1486C73.4297 40.587 73.2382 41.0444 73.0467 41.4827C72.6064 41.9973 72.1469 42.4928 71.7066 43.0074C71.5151 43.522 70.979 43.4267 70.577 43.5792Z" fill="#81631C"/>
<path d="M70.577 43.5796C70.9599 43.389 71.3428 43.1984 71.7257 43.0078C72.2426 43.065 72.0895 43.4271 71.898 43.5986C70.6918 44.6469 69.524 45.8094 67.8966 46.2478C68.8156 45.6188 69.7537 44.9899 70.6536 44.3419C70.979 44.0942 71.4577 43.732 70.577 43.5796Z" fill="#AC8A35"/>
<path d="M61.5786 43.7507C62.823 43.541 62.5933 42.7787 62.3635 41.902C61.7509 39.4815 61.1957 37.042 60.6213 34.6025C61.2531 35.0028 61.3488 35.6889 61.5594 36.3178C61.7126 37.1183 61.9615 37.8806 62.2487 38.6239C62.5741 39.4625 62.7273 40.3582 62.7082 41.2731C62.6699 42.2832 63.1868 43.1599 63.34 44.1319C63.4357 44.7227 63.2059 44.8751 62.7656 45.1229C61.3297 45.8852 60.3915 45.0848 59.4343 44.2081C58.5153 43.3886 57.558 42.5881 56.6199 41.7876C56.4859 41.6733 56.3519 41.4636 56.1413 41.578C55.9498 41.6923 55.9881 41.9211 56.0072 42.0926C56.1221 42.6453 56.2561 43.198 56.3901 43.7507C56.5433 44.3224 56.7348 44.8751 56.7731 45.466C56.7731 45.5994 56.7731 45.7137 56.7731 45.8471C56.4284 45.9043 56.2178 45.5231 55.8732 45.5613C55.586 45.485 55.2414 45.5422 55.0308 45.2563C56.0455 45.0086 56.1221 44.3987 55.8349 43.5029C55.4903 42.3975 55.2989 41.254 54.9925 39.939C55.9307 40.3392 56.4284 41.0444 57.0794 41.5399C57.9409 42.1879 58.7642 42.893 59.53 43.6173C59.9129 43.9794 60.2958 44.1319 60.7745 43.9603C61.0616 44.2843 61.4063 44.0747 61.6934 43.9794C61.9232 43.9222 61.5786 43.8841 61.5786 43.7507Z" fill="#7C5D1B"/>
<path d="M56.0838 45.485C56.5625 45.161 56.5625 45.7519 56.8113 45.8662C56.9071 46.781 56.1221 46.6476 55.6435 46.762C54.399 47.0669 53.863 46.6286 53.7481 45.2754C53.9587 45.3897 53.863 45.9234 54.3224 45.6756C54.9159 45.6947 55.4712 45.3897 56.0838 45.485Z" fill="#6A4B14"/>
<path d="M56.8114 45.4853C56.6008 44.9326 56.4093 44.3799 56.4284 43.77C56.8305 44.2655 56.7922 44.9135 57.0028 45.4853C56.9262 45.4853 56.8688 45.4853 56.8114 45.4853Z" fill="#A58333"/>
<path d="M67.9157 21.0899C67.5328 20.9755 67.1499 20.8421 66.7479 20.7278C62.5741 20.3276 58.5919 20.7468 55.0883 23.3007C54.4565 23.4722 53.8438 23.6628 53.1929 23.4532C53.0205 22.8052 53.5566 22.5574 53.9395 22.2906C57.0985 20.0798 60.6404 19.1078 64.4695 19.165C66.0586 19.184 67.6477 19.4509 69.1602 19.9464C69.6963 20.1941 70.3855 20.1751 70.7684 20.7278C71.2853 21.0518 71.7831 21.3567 72.3 21.6807C71.1705 21.4711 70.0217 21.2805 68.8921 21.0137C68.5475 20.9184 68.2221 20.8993 67.9157 21.0899Z" fill="#C1A241"/>
<path d="M69.0645 32.3345C68.1072 32.3155 67.1691 32.3726 66.2118 32.5442C65.9055 32.2011 65.5034 32.3536 65.1396 32.3345C63.3783 32.2392 61.4829 30.9051 61.0425 29.4567C62.4593 31.0195 64.3547 30.7908 66.1926 30.8098C66.1735 31.2863 65.7906 31.1338 65.5417 31.191C65.1779 31.191 64.795 31.2101 64.4313 31.1338C64.6419 31.191 64.8716 31.191 65.0822 31.191C67.418 31.0766 69.2751 30.1999 70.4047 28.0654C70.3281 27.7414 70.3664 27.4364 70.5195 27.1506C71.113 26.1214 71.113 25.0541 70.7493 23.9678C71.9746 25.1113 71.8789 26.5597 71.6108 27.9891C71.2279 29.9903 69.8303 31.1719 68.0689 32.0486C68.3944 32.2392 68.7964 32.0105 69.0645 32.3345Z" fill="#785818"/>
<path d="M66.767 34.2405C67.6094 33.7641 68.4327 34.1262 69.2559 34.2786C69.4857 34.7361 69.7154 34.4502 69.8877 34.2596C70.0792 34.069 70.1557 33.7831 70.2323 33.5163C70.3281 33.3067 70.5387 33.3067 70.7301 33.2876C71.2087 33.5163 71.5917 33.8784 71.247 34.393C70.845 34.9838 70.7493 36.0511 69.6005 35.7271C68.4518 35.4222 67.3988 35.5175 66.499 36.356C65.446 37.328 65.4842 38.5287 65.8289 39.7675C64.8716 38.7384 64.5844 37.5186 64.8524 36.1464C65.7331 35.06 66.767 34.2215 68.2986 34.3168C67.7626 34.2977 67.2648 34.6408 66.767 34.2405Z" fill="#795918"/>
<path d="M76.5312 32.4492C76.5121 34.8124 75.7845 36.9851 74.6933 39.0435C74.5975 39.234 74.5209 39.5199 74.2529 39.4818C73.9466 39.4437 74.0615 39.1388 74.0423 38.9291C73.9849 37.8046 74.0997 36.7564 74.6167 35.7082C75.2676 34.4122 75.6122 32.9828 75.9186 31.5534C75.976 31.3247 75.9186 30.9435 76.244 30.9626C76.5504 30.9817 76.5121 31.3438 76.5121 31.5915C76.5312 31.8774 76.5312 32.1633 76.5312 32.4492Z" fill="#C2A342"/>
<path d="M69.6197 38.0329C70.1366 37.7661 70.6153 38.2426 70.6727 38.4331C70.7876 38.8905 70.577 39.3861 70.1749 39.7291C69.926 39.4242 69.658 39.672 69.4091 39.7291C68.5093 39.9388 68.1264 39.6529 67.8966 38.6047C68.2604 39.043 68.3944 38.4331 68.6816 38.4331C69.0645 38.4522 69.4665 38.5284 69.6197 38.0329Z" fill="#745517"/>
<path d="M69.4282 18.6123C70.0792 18.6314 70.5769 19.0316 71.1322 19.2984C71.4002 19.4318 71.63 19.6986 71.9554 19.4128C72.2809 19.6796 72.8936 19.9083 72.1086 20.3466C72.0512 20.3466 71.9937 20.3466 71.9363 20.3276C71.113 20.1942 70.6535 19.4318 69.8877 19.1841C69.6963 19.0316 69.3516 18.9744 69.4282 18.6123Z" fill="#D5BE3B"/>
<path d="M70.0026 18.9937C70.7301 19.3176 71.3428 19.8132 71.9363 20.3278C71.6874 20.8423 71.1896 20.6708 70.7876 20.7089C70.2706 20.5183 69.7728 20.3278 69.2559 20.1372C69.3708 19.9275 69.524 19.7179 69.6005 19.4892C69.7154 19.3176 69.8303 19.1461 70.0026 18.9937Z" fill="#D1BA69"/>
<path d="M70.0026 18.9939C70.0217 19.2798 70.0026 19.5466 69.6388 19.5657C69.1793 19.8516 68.8539 19.4704 68.471 19.337C67.9732 18.9558 67.3031 18.8224 66.9585 18.2316C66.8245 17.9838 66.7096 17.7361 66.5756 17.4692C67.5903 17.6789 68.5284 18.1363 69.4282 18.5937C69.6197 18.7271 69.8111 18.8605 70.0026 18.9939Z" fill="#DFCD81"/>
<path d="M61.7892 17.0879C62.4401 17.4691 63.2825 17.1642 63.8952 17.6597C63.4549 18.0409 62.9188 17.9265 62.4401 17.9075C60.4107 17.8312 58.4196 18.0409 56.505 18.6507C51.9867 20.0801 48.8469 23.0723 46.8174 27.2652C46.6451 27.6083 46.6451 28.1038 46.0899 28.1419C46.0899 27.8179 46.0899 27.513 46.0899 27.189C47.1429 24.5017 48.866 22.3291 51.1443 20.5757C54.2842 18.1933 57.8261 17.0117 61.7892 17.0879Z" fill="#FAED8B"/>
<path d="M46.0899 28.1419C46.7217 26.9412 47.2577 25.7024 48.0619 24.597C50.7805 20.8234 54.3799 18.4982 59.0514 17.8312C60.6787 17.6025 62.2869 17.7359 63.8952 17.6597C64.1441 17.7168 64.4121 17.7931 64.661 17.8503C64.8907 18.4411 64.7759 18.5935 63.9718 18.6507C62.5741 18.746 61.1765 18.8985 59.8363 19.2415C55.9881 20.1945 52.7525 22.1194 50.3402 25.3212C49.8041 25.9502 49.7084 26.884 49.0191 27.4177C48.8085 27.4558 48.8085 27.6083 48.7702 27.7607C47.7364 28.9805 47.3343 30.4671 46.8748 31.9346C46.7791 32.2586 46.76 32.6207 46.6642 32.9447C46.5685 33.2877 46.5302 33.8214 46.0516 33.7451C45.6495 33.688 45.5729 33.2115 45.5347 32.8303C45.5155 32.5826 45.5921 32.3157 45.3432 32.1252C45.5729 30.8101 45.6687 29.4379 46.0899 28.1419Z" fill="#FCEB6F"/>
<path d="M50.0913 25.2448C50.7997 24.0632 51.8144 23.1484 52.8865 22.3098C56.1413 19.756 59.9129 18.5743 64.0101 18.4219C64.3547 18.4028 64.8908 18.5553 64.6419 17.8501C65.4077 17.9835 66.1735 18.0979 66.9393 18.2313C67.4754 18.4981 68.0306 18.7459 68.471 19.1842C67.954 19.5844 67.3797 19.451 66.8245 19.3748C63.742 18.9364 60.7553 19.2033 57.8261 20.2705C55.7009 21.0329 53.8247 22.1764 52.2547 23.7964C51.757 24.2347 51.2017 24.5968 50.7231 25.0733C50.5699 25.2067 50.3785 25.4545 50.0913 25.2448Z" fill="#F4E26E"/>
<path d="M48.732 28.3325C48.598 29.2855 47.9087 30.0478 47.813 31.0007C47.679 31.1341 47.5641 31.2485 47.4301 31.3819C47.6598 30.2765 47.9662 29.2092 48.732 28.3325Z" fill="#E1C95B"/>
<path d="M47.2386 32.144C47.2578 32.8683 47.1046 33.5544 46.8557 34.2405C46.8366 33.5163 46.8174 32.792 47.2386 32.144Z" fill="#E1C95B"/>
<path d="M58.8982 30.5814C59.1663 29.5141 60.0087 28.5803 59.5109 27.3605C59.7789 27.1699 59.5683 26.7506 59.8938 26.5791C60.1235 27.5892 60.5064 28.5421 61.0425 29.457C60.3724 28.9614 60.2384 29.3235 60.2767 29.9334C60.3724 32.0108 58.5153 34.2788 56.3902 34.7743C53.7864 35.3651 51.1634 34.3169 50.0147 32.2586C49.9381 32.1252 49.9381 31.9536 49.8998 31.8012C51.0677 33.364 52.8674 33.2496 54.533 33.4783C54.4948 34.012 53.997 33.5736 53.8438 33.7642C54.9542 33.707 56.103 33.5927 57.0985 32.9447C57.9601 32.392 58.7259 31.7059 58.8982 30.5814Z" fill="#795918"/>
<path d="M62.3827 38.0522C62.6124 39.0623 62.8996 40.0533 63.4931 40.93C63.6271 41.0444 63.6271 41.1587 63.5123 41.2922C63.2634 41.3112 63.0145 40.5107 62.7464 41.2922C62.287 39.6531 61.7509 38.0331 61.5977 36.3369C62.0572 36.8134 61.6934 37.671 62.3827 38.0522Z" fill="#A38330"/>
<path d="M63.4931 41.2923C63.4931 41.1779 63.4931 41.0636 63.474 40.9302C64.8525 42.5883 66.767 42.4358 68.6433 42.4358C68.7199 42.7789 68.471 42.7598 68.2412 42.7979C68.9113 42.7979 69.4857 42.2262 70.1558 42.6073C70.5578 42.9313 70.1941 43.1029 70.0026 43.2553C69.7729 43.465 69.4857 43.5984 69.2368 43.7699C67.5711 44.4751 64.5844 43.2744 63.4931 41.2923Z" fill="#795B1A"/>
<path d="M64.2398 46.705C65.9246 45.5806 67.3222 43.9606 69.5814 43.9987C69.7729 43.9987 69.9643 43.9797 70.0792 44.1702C70.1558 44.3036 70.06 44.418 69.9643 44.4942C68.2412 45.733 66.4224 46.6669 64.2398 46.705Z" fill="#BE9F3F"/>
<path d="M70.1749 42.607C69.2559 42.7214 68.3944 43.2169 67.3414 42.8738C67.7434 42.4164 68.3369 42.7976 68.6624 42.4355C70.1366 42.0924 71.3428 41.3873 72.1469 40.0532C72.2617 39.8435 72.5106 39.7101 72.6829 39.5386C72.5298 41.1204 71.3045 41.8447 70.1749 42.607Z" fill="#D0BE56"/>
<path d="M61.5786 43.7507C61.8658 43.846 62.1913 43.5792 62.5167 43.9223C62.0189 44.2463 61.502 44.3606 60.9659 44.3606C60.6213 44.3606 60.7745 44.1319 60.8319 43.9604C61.0808 43.9032 61.3297 43.827 61.5786 43.7507Z" fill="#CAB854"/>
<path d="M56.0838 45.485C55.5095 45.6565 54.9734 46.0949 54.3224 45.6756C54.533 45.485 54.7819 45.3135 55.0691 45.2563C55.3946 45.3516 55.8158 45.0848 56.0838 45.485Z" fill="#CBB954"/>
<path d="M68.4518 25.1116C68.873 26.6362 68.3178 28.0656 67.0351 28.7708C65.6757 29.495 64.2207 29.2091 63.0911 27.9894C62.0381 25.1687 64.4504 23.4725 66.3458 23.7012C67.3222 23.7965 68.0115 24.2539 68.4518 25.1116Z" fill="#B6953A"/>
<path d="M59.8938 26.5983C59.664 26.8079 60.2192 27.3987 59.5108 27.3797C59.4534 26.7698 59.0322 26.7889 58.5919 26.846C57.7495 26.8841 57.5772 26.6745 57.9409 25.7978C58.2664 24.9973 58.3238 24.3493 57.4048 23.9682C57.3283 23.911 57.2517 23.8538 57.1751 23.8157C56.5242 23.4917 55.7966 23.3774 55.1074 23.2058C55.1074 22.9581 55.2223 22.7865 55.4329 22.6722C57.3474 21.6049 59.3768 20.8807 61.5594 20.4995C63.1676 20.2327 64.6993 20.6139 66.2692 20.5376C66.4607 20.5376 66.6521 20.5567 66.767 20.7473C65.5225 20.652 64.2781 20.671 63.1293 21.2428C60.8893 22.3291 59.798 24.1206 59.8938 26.5983Z" fill="#B6953A"/>
<path d="M68.4518 25.1114C67.552 24.1204 66.4415 23.682 65.1205 24.0251C63.9143 24.3491 63.1102 25.4926 63.0911 26.7505C63.0911 27.1507 63.0719 27.57 63.0719 27.9702C62.2295 26.8648 61.9615 25.6451 62.3061 24.311C62.421 24.3872 62.4401 24.5015 62.4784 24.635C62.4976 24.6731 62.4976 24.5968 62.5167 24.5778C63.1294 23.3771 64.0866 22.7482 65.4651 22.8053C65.6566 22.8053 65.848 22.7863 65.982 22.6147C67.2073 23.0531 68.0497 23.8726 68.4518 25.1114Z" fill="#785919"/>
<path d="M65.4077 31.0386C65.6566 30.9623 65.9629 31.0576 66.1735 30.8289C67.7434 30.4668 69.0453 29.7045 69.9452 28.3513C70.06 28.1607 70.2132 28.1035 70.4047 28.0845C70.5004 28.6181 70.1941 28.9993 69.8686 29.3423C68.5858 30.7908 66.9776 31.4388 65.0631 31.3625C64.9482 31.0004 65.3119 31.172 65.4077 31.0386Z" fill="#CDBB55"/>
<path d="M66.5181 22.4624C66.5564 22.6149 67.1882 22.8436 66.901 22.8245C65.1396 22.6911 63.1677 23.6059 62.2487 25.0925C62.1721 24.7304 62.3635 24.4254 62.3253 24.273C63.1677 22.5386 64.7376 22.2909 66.5181 22.4624Z" fill="#B5A44A"/>
<path d="M66.767 34.2402C67.2839 34.2593 67.8008 34.1259 68.3561 34.3737C66.8436 34.3355 65.982 35.5172 64.8524 36.1461C65.0056 35.0407 65.8863 34.6405 66.767 34.2402Z" fill="#BAA94D"/>
<path d="M70.2323 33.4971C70.5578 34.0498 70.1175 34.3738 69.8303 34.6978C69.6388 34.9265 69.3708 34.7931 69.141 34.6597C68.7964 34.4309 69.2559 34.4119 69.2368 34.2785C69.5814 34.0117 69.9069 33.7639 70.2323 33.4971Z" fill="#BFAD4E"/>
<path d="M69.6197 38.0332C69.7537 38.1666 70.1366 38.2619 69.7154 38.4906C69.3899 38.6621 69.007 38.7765 68.6624 38.4525C68.9496 38.2047 69.2942 38.1094 69.6197 38.0332Z" fill="#D2BE55"/>
<path d="M53.1546 23.358C52.7525 23.4342 52.4462 23.7582 52.0059 23.7201C54.2076 21.3759 56.9837 20.118 60.0661 19.3747C62.8613 18.6886 65.6757 19.127 68.471 19.1841C68.8539 19.3175 69.2368 19.4319 69.6197 19.5653C69.8303 19.9846 69.6006 20.0989 69.2368 20.1371C67.4371 19.7749 65.6566 19.3366 63.8186 19.3747C60.2193 19.47 56.9071 20.4801 53.9587 22.5384C53.6524 22.7481 53.4226 23.0721 53.1546 23.358Z" fill="#E5CE5D"/>
<path d="M65.4077 31.0386C65.2928 31.1529 65.1588 31.2482 65.0439 31.3626C64.6802 31.4197 64.393 31.3054 63.9526 31.0386C64.5461 31.0386 64.9865 31.0386 65.4077 31.0386Z" fill="#BDAA4C"/>
<path d="M57.3474 23.7583C58.5727 24.1204 58.7068 24.4635 58.1515 25.7976C57.9409 26.2931 57.6729 26.7886 58.5727 26.8267C57.9601 26.9983 57.3666 27.2841 56.7348 27.3032C55.1074 27.3794 54.6288 28.5039 54.2076 29.7618C54.6479 29.9905 54.7628 29.514 55.05 29.4568C55.1074 29.5331 55.1457 29.6093 55.1648 29.7046C54.9925 30.2573 55.0117 30.6194 55.7775 30.4479C56.0647 30.3907 56.4667 30.2573 56.5625 30.7719C55.2223 32.0869 53.5183 32.0297 52.1781 30.6194C51.5081 29.5521 51.7187 28.5039 52.427 27.5319C53.212 26.4646 54.3033 26.0453 55.6052 26.274C56.9837 26.5027 57.6729 25.7785 57.3091 24.4063C57.2517 24.1776 57.2517 23.9679 57.3474 23.7583Z" fill="#B49339"/>
<path d="M57.3474 23.7583C57.3666 23.8917 57.3666 24.0061 57.3857 24.1395C57.4431 24.5016 58.0749 24.635 57.8261 25.0924C57.558 25.5879 57.2517 26.0835 56.9454 26.5409C56.7539 26.8077 56.4667 26.8077 56.1795 26.6743C53.9395 25.6642 51.2783 27.7797 52.1973 30.6194C51.2592 29.6093 50.8954 27.7606 51.4123 26.7696C51.5846 26.903 51.6804 26.7886 51.7761 26.6552C52.5993 25.5879 53.6715 25.1305 55.0117 25.283C55.2414 25.3021 55.4329 25.3973 55.6435 25.4736C56.4093 25.5689 56.4476 24.9781 56.6007 24.4825C56.7731 24.2348 57.2517 24.2348 57.156 23.7774C57.2134 23.7774 57.29 23.7774 57.3474 23.7583Z" fill="#775817"/>
<path d="M58.8982 30.5814C59.1663 30.5433 59.3003 30.5623 59.1663 30.9054C58.477 32.6016 57.1751 33.4974 55.452 33.8404C54.8394 33.9548 54.2076 33.9548 53.5375 33.8023C53.8438 33.4974 54.265 33.7832 54.533 33.4974C56.505 33.3258 57.8835 32.2395 58.8982 30.5814Z" fill="#D3BF57"/>
<path d="M56.5816 30.7718C56.3519 30.5049 56.0647 30.6002 55.7967 30.6574C55.4521 30.7336 55.0309 31.0005 54.7628 30.6193C54.4948 30.2381 54.916 29.9522 55.0691 29.6282C55.1457 29.3233 55.8733 29.6664 55.6435 29.0565C56.2179 28.58 56.7539 28.9421 57.022 29.3233C57.4049 29.876 57.0028 30.3715 56.5816 30.7718Z" fill="#745718"/>
<path d="M55.0691 25.4545C53.5375 25.3592 52.3696 26.0072 51.5081 27.3985C51.4506 27.0936 51.4315 26.9411 51.4124 26.7886C52.1207 25.4736 53.212 24.9018 54.7054 25.0924C54.7628 25.2639 55.184 25.0924 55.0691 25.4545Z" fill="#BEAC4D"/>
<path d="M56.6008 24.4824C56.8305 25.3019 56.4476 25.7784 55.6818 25.645C55.5095 25.2638 55.9115 25.2638 56.0455 25.0732C56.1987 24.8636 56.3136 24.5968 56.6008 24.4824Z" fill="#D4C258"/>
<path d="M55.6435 29.0757C55.8732 29.1519 56.1413 28.9994 56.3902 29.2472C56.0264 29.6474 55.5669 29.6856 55.0691 29.6474C55.0691 29.5903 55.0691 29.5331 55.0691 29.4759C55.2606 29.3425 55.452 29.2091 55.6435 29.0757Z" fill="#C5B350"/>
<path d="M56.0264 25.0923C55.9115 25.2829 55.7967 25.4735 55.6626 25.664C55.452 25.6069 55.2606 25.5306 55.05 25.4735C54.9351 25.3591 54.8011 25.2257 54.6862 25.1113C55.1457 25.0923 55.5861 25.0923 56.0264 25.0923Z" fill="#8B7E38"/>
<path d="M48.732 29.533C48.0619 26.5217 49.9764 23.5486 53.0014 22.9006C53.0206 22.9006 53.0588 22.8815 53.078 22.8815C54.4756 22.5575 55.9498 22.7291 57.2326 23.3961L56.0838 25.4735C55.3372 25.0161 54.4373 24.8636 53.5949 25.0733C51.8527 25.4735 50.7614 27.2269 51.1634 28.9612C51.5655 30.6956 53.3269 31.7819 55.0883 31.3817C56.2753 31.0958 57.1368 30.0666 57.1943 28.8469L53.9204 29.6283L55.05 27.3031L59.3003 26.3121L59.4534 26.9791C60.2384 29.8189 58.5536 32.7539 55.7009 33.5353C55.6626 33.5544 55.6243 33.5544 55.586 33.5734C52.5802 34.3548 49.5169 32.5824 48.732 29.5902C48.732 29.5711 48.732 29.5521 48.732 29.533Z" fill="black"/>
<path d="M62.3061 38.7576C61.636 35.7463 63.5506 32.7732 66.5755 32.1252C66.5947 32.1252 66.633 32.1061 66.6521 32.1061C68.0497 31.7822 69.5239 31.9537 70.8067 32.6207L69.658 34.6981C68.9113 34.2407 68.0114 34.0882 67.169 34.2979C65.4268 34.6981 64.3355 36.4515 64.7376 38.2049C65.1396 39.9392 66.901 41.0256 68.6624 40.6254C69.8494 40.3395 70.711 39.3103 70.7684 38.0906L67.4945 38.872L68.6241 36.5468L72.8744 35.5558L73.0276 36.2228C73.8125 39.0625 72.1277 41.9976 69.2751 42.779C69.2368 42.798 69.1985 42.798 69.1602 42.8171C66.1543 43.5985 63.0911 41.826 62.3061 38.8338C62.3252 38.7957 62.3252 38.7767 62.3061 38.7576Z" fill="black"/>
<path d="M65.3502 19.8706C62.2104 19.8706 59.6832 22.4054 59.6832 25.512C59.6832 28.6185 62.2104 31.1533 65.3502 31.1533C68.4901 31.1533 71.0173 28.6185 71.0173 25.512C71.0173 22.4054 68.4901 19.8706 65.3502 19.8706ZM65.5608 28.8853C63.6846 28.8853 62.1529 27.3797 62.1529 25.4929C62.1529 23.6061 63.6654 22.1005 65.5608 22.1005C67.4562 22.1005 68.9687 23.6061 68.9687 25.4929C68.9687 27.3797 67.4371 28.8853 65.5608 28.8853Z" fill="black"/>
<path d="M60.6979 44.3988L54.916 39.4626L56.3327 45.4089L53.9395 45.9806L51.5847 36.013L53.8821 35.4603L59.6449 40.4155L58.2281 34.4502L60.6213 33.8975L62.9762 43.8651L60.6979 44.3988Z" fill="black"/>
</g>
<defs>
<clipPath id="clip0">
<rect width="38.5016" height="38.3459" fill="white" transform="translate(41.9545 14)"/>
</clipPath>
</defs>
</svg>
