<svg width="160" height="80" viewBox="0 0 160 80" fill="none" xmlns="http://www.w3.org/2000/svg">
<g clip-path="url(#clip0)">
<path d="M44.5155 32.0849C42.8087 33.202 41.2416 34.2726 39.6124 35.2811C39.4107 35.4053 38.9297 35.2811 38.697 35.1105C34.5542 32.209 30.427 29.2765 26.2998 26.3285C25.8809 26.0337 25.6016 25.9716 25.1516 26.2819C20.6985 29.2455 16.23 32.178 11.7769 35.126C11.6993 35.188 11.6217 35.2501 11.4821 35.3742C13.1578 36.5534 14.787 37.7171 16.4317 38.8808C19.3797 40.9755 22.3277 43.0546 25.2757 45.1648C25.6792 45.4596 25.9584 45.4596 26.3618 45.1803C27.9134 44.1097 29.4961 43.0856 31.1718 41.953C29.9305 41.0686 28.7358 40.2307 27.5411 39.4084C27.4324 39.3308 27.1532 39.4549 26.998 39.548C26.4239 39.9049 25.8809 40.3083 25.3068 40.6341C25.1206 40.7427 24.7792 40.7893 24.6396 40.6962C23.057 39.6101 21.4899 38.4774 19.8297 37.2982V30.9832C21.1485 30.1143 25.7722 33.4037 27.0756 32.5193C27.4169 32.2866 27.6652 32.2245 28.0376 32.4883C32.7699 35.8707 37.7195 33.1399 42.4518 36.4914V42.8064C41.3812 43.5046 40.3417 44.2028 39.2866 44.901C34.4456 48.1128 29.6047 51.3246 24.7482 54.5053C22.7622 55.8087 20.652 55.8552 18.6039 54.6915C17.4868 54.0709 16.4937 53.233 15.3456 52.4262V46.1112C15.9972 45.6923 19.8917 49.4316 20.5589 48.9972C18.8677 47.787 17.2385 46.6233 15.6093 45.4596C11.5286 42.5581 7.43245 39.6566 3.36728 36.7396C2.43633 36.0725 1.97085 35.3122 1.95533 34.5519V28.2369C3.80173 27.0112 7.12213 29.8351 8.96852 28.6093C13.1733 25.8164 17.3781 23.0391 21.5985 20.2928C23.7552 18.8808 26.0205 18.9119 28.1307 20.3859C32.3355 23.3184 40.3417 22.7598 44.5155 25.7233V32.0849Z" fill="#257C6E"/>
<path d="M13.2661 48.671C11.668 49.7261 10.1629 50.7347 8.5803 51.7897C9.06129 52.1311 9.48022 52.4414 9.91466 52.7517C12.9868 54.9395 16.059 57.1117 19.1311 59.2994C21.2102 60.7734 23.0256 60.8045 25.1823 59.3925C28.301 57.3289 31.4352 55.2653 34.5539 53.2017C39.5345 49.9123 44.4996 46.6074 49.4802 43.3181C49.5888 43.256 49.6819 43.1629 49.8836 43.0077C47.5252 41.3165 45.2289 39.6718 42.8704 37.9806V31.6656C44.2514 30.7502 48.1614 34.505 48.5958 34.8153C51.5904 36.9721 58.2622 35.3894 61.2723 37.5306V43.8456C60.6982 44.218 60.2483 44.5283 59.7828 44.8386C53.8247 48.7797 47.8511 52.7362 41.8929 56.6772C36.6796 60.1218 31.4818 63.5818 26.2684 67.0264C24.2203 68.3762 21.6602 68.3142 19.6587 66.8867C13.5764 62.5888 7.5097 58.2754 1.4585 53.962C0.527541 53.2948 0.0310318 52.5345 0 51.7897C0 51.7897 0 45.8316 0 45.2575C2.03258 43.8921 5.61676 46.716 7.66486 45.3817C7.86656 45.2575 13.1109 42.263 13.2661 42.3561V48.671Z" fill="#257C6E"/>
<path d="M44.5153 25.7851C42.8085 26.9023 41.2414 27.9729 39.6123 28.9814C39.4106 29.1055 38.9296 28.9814 38.6968 28.8107C34.5541 25.9093 30.4268 22.9768 26.2996 20.0287C25.8807 19.7339 25.6014 19.6719 25.1514 19.9822C20.6984 22.9457 16.2298 25.8782 11.7767 28.8263C11.6991 28.8883 11.6216 28.9504 11.4819 29.0745C13.1576 30.2537 14.7868 31.4174 16.4315 32.5811C19.3795 34.6757 22.3275 36.7549 25.2756 38.865C25.679 39.1598 25.9583 39.1598 26.3617 38.8806C27.9133 37.81 29.4959 36.7859 31.1716 35.6533C29.9303 34.7688 28.7356 33.931 27.5409 33.1086C27.4323 33.0311 27.153 33.1552 26.9978 33.2483C26.4237 33.6052 25.8807 34.0086 25.3066 34.3344C25.1204 34.443 24.7791 34.4896 24.6394 34.3965C23.0568 33.3103 21.4897 32.1777 19.8295 30.9985C20.9777 30.2382 22.0483 29.5245 23.1189 28.8107C24.4377 27.9418 25.7721 27.104 27.0754 26.2196C27.4168 25.9868 27.665 25.9248 28.0374 26.1886C32.7697 29.571 37.5021 32.9225 42.25 36.2894C42.312 36.336 42.3586 36.398 42.4672 36.5066C41.3966 37.2048 40.357 37.9031 39.3019 38.6013C34.461 41.8131 29.62 45.0249 24.7635 48.2056C22.7775 49.5089 20.6673 49.5555 18.6192 48.3918C17.5021 47.7712 16.5091 46.9333 15.3609 46.1265C17.1452 44.9473 18.8209 43.8612 20.5742 42.6975C18.883 41.4872 17.2538 40.3235 15.6247 39.1598C11.544 36.2584 7.44779 33.3569 3.38262 30.4399C1.45865 29.1211 1.47416 27.3367 3.42917 26.0334C9.46486 22.0148 15.5161 18.0117 21.5983 14.0396C23.755 12.6277 26.0203 12.6587 28.1305 14.1327C33.3749 17.7945 38.5882 21.5338 43.8171 25.2421C44.0343 25.3817 44.2205 25.5524 44.5153 25.7851Z" fill="#58D9B5"/>
<path d="M13.266 42.3562C11.6678 43.4113 10.1628 44.4198 8.58017 45.4749C9.06116 45.8163 9.48009 46.1266 9.91454 46.4369C12.9867 48.6246 16.0588 50.7969 19.131 52.9846C21.2101 54.4586 23.0255 54.4896 25.1822 53.0777C28.3009 51.0141 31.4351 48.9505 34.5538 46.8869C39.5344 43.5975 44.4995 40.2926 49.4801 37.0032C49.5887 36.9412 49.6818 36.8481 49.8835 36.6929C47.5251 35.0017 45.2287 33.357 42.8703 31.6657C43.041 31.5106 43.1651 31.3709 43.3203 31.2623C44.7012 30.3469 46.0821 29.447 47.4475 28.516C47.8664 28.2212 48.1612 28.1902 48.5957 28.5005C51.5903 30.6572 54.6003 32.7984 57.6104 34.9241C58.7896 35.7619 59.9533 36.5998 61.2567 37.5152C60.6826 37.8876 60.2326 38.1979 59.7671 38.5083C53.809 42.4493 47.8354 46.4059 41.8773 50.3469C36.664 53.7914 31.4661 57.2515 26.2528 60.696C24.2047 62.0459 21.6446 61.9838 19.643 60.5564C13.5763 56.2895 7.50957 51.9761 1.45837 47.6626C-0.496633 46.2662 -0.481117 44.4819 1.53595 43.1165C3.56853 41.7511 5.61663 40.4012 7.68025 39.0668C7.88196 38.9427 8.25434 38.8341 8.4095 38.9427C10.0232 40.0443 11.6058 41.177 13.266 42.3562Z" fill="#58D9B5"/>
<path d="M77.9053 27.5075H79.5655V31.2779C79.0845 31.6658 78.5104 31.9606 77.8587 32.1778C77.2071 32.3795 76.5399 32.4881 75.8572 32.4881C74.8952 32.4881 74.0263 32.2709 73.2505 31.852C72.4747 31.4331 71.8696 30.859 71.4196 30.1142C70.9697 29.3694 70.7524 28.5316 70.7524 27.6161C70.7524 26.6852 70.9697 25.8473 71.4196 25.1181C71.8696 24.3733 72.4747 23.7992 73.2505 23.3803C74.0263 22.9614 74.9107 22.7441 75.8882 22.7441C76.6795 22.7441 77.4088 22.8683 78.0604 23.132C78.7121 23.3958 79.2552 23.7837 79.7051 24.2802L78.588 25.3663C77.8587 24.6371 76.9898 24.2802 75.9813 24.2802C75.3141 24.2802 74.7245 24.4199 74.197 24.6991C73.685 24.9784 73.266 25.3663 72.9712 25.8784C72.6764 26.3904 72.5368 26.9645 72.5368 27.6161C72.5368 28.2523 72.6764 28.8109 72.9712 29.3229C73.266 29.8349 73.6694 30.2228 74.197 30.5176C74.709 30.8124 75.2986 30.9521 75.9658 30.9521C76.7106 30.9521 77.3622 30.7969 77.9208 30.4711V27.5075H77.9053Z" fill="#007E6E"/>
<path d="M88.0836 32.364L86.1441 29.5867C86.0665 29.6022 85.9424 29.6022 85.7717 29.6022H83.6305V32.364H81.8772V22.8838H85.7717C86.594 22.8838 87.3078 23.0234 87.9129 23.2872C88.518 23.551 88.9835 23.9389 89.3093 24.4509C89.6351 24.9629 89.7903 25.5525 89.7903 26.2507C89.7903 26.9645 89.6196 27.5851 89.2628 28.0971C88.9214 28.6092 88.4094 28.9971 87.7732 29.2453L89.961 32.364H88.0836ZM87.4474 24.8543C87.044 24.5285 86.4699 24.3733 85.6941 24.3733H83.6305V28.1437H85.6941C86.4544 28.1437 87.044 27.973 87.4474 27.6472C87.8508 27.3213 88.037 26.8559 88.037 26.2507C88.0525 25.6456 87.8508 25.1801 87.4474 24.8543Z" fill="#007E6E"/>
<path d="M98.8982 30.8745V32.3485H91.7919V22.8838H98.712V24.3578H93.5607V26.8248H98.1379V28.2678H93.5607V30.8745H98.8982Z" fill="#007E6E"/>
<path d="M107.96 30.8745V32.3485H100.853V22.8838H107.773V24.3578H102.622V26.8248H107.199V28.2678H102.622V30.8745H107.96Z" fill="#007E6E"/>
<path d="M118.355 22.8838V32.364H116.912L111.683 25.9404V32.364H109.93V22.8838H111.373L116.602 29.3074V22.8838H118.355Z" fill="#007E6E"/>
<path d="M124.438 32.1313C123.926 31.8985 123.507 31.5572 123.181 31.1227L124.189 29.9125C124.717 30.6417 125.337 30.9986 126.067 30.9986C127.044 30.9986 127.541 30.409 127.541 29.2453V24.3578H124.174V22.8838H129.31V29.1677C129.31 30.2849 129.046 31.1072 128.503 31.6658C127.96 32.2244 127.168 32.5037 126.113 32.5037C125.508 32.4881 124.95 32.3795 124.438 32.1313Z" fill="#007E6E"/>
<path d="M137.719 30.1609H132.971L132.04 32.3486H130.225L134.492 22.8684H136.23L140.512 32.3486H138.666L137.719 30.1609ZM137.13 28.78L135.345 24.6372L133.576 28.78H137.13Z" fill="#007E6E"/>
<path d="M141.707 22.8838H145.85C146.858 22.8838 147.758 23.0855 148.549 23.4734C149.341 23.8613 149.946 24.4199 150.38 25.1336C150.815 25.8473 151.032 26.6852 151.032 27.6161C151.032 28.5626 150.815 29.385 150.38 30.0987C149.946 30.8124 149.341 31.371 148.549 31.7589C147.758 32.1468 146.858 32.3485 145.85 32.3485H141.707V22.8838ZM145.772 30.8745C146.47 30.8745 147.075 30.7348 147.603 30.4711C148.13 30.2073 148.534 29.8194 148.829 29.3384C149.108 28.8419 149.248 28.2833 149.248 27.6317C149.248 26.98 149.108 26.4059 148.829 25.9249C148.549 25.4284 148.13 25.056 147.603 24.7922C147.075 24.5285 146.47 24.3888 145.772 24.3888H143.476V30.89H145.772V30.8745Z" fill="#007E6E"/>
<path d="M160 30.8745V32.3485H152.894V22.8838H159.814V24.3578H154.663V26.8248H159.24V28.2678H154.663V30.8745H160Z" fill="#007E6E"/>
<path d="M83.5064 49.3849H86.4699V56.1188C85.6011 56.817 84.5925 57.3446 83.4288 57.7169C82.2651 58.0893 81.0859 58.2755 79.8602 58.2755C78.1379 58.2755 76.5863 57.9031 75.2054 57.1584C73.8245 56.4136 72.7384 55.374 71.9471 54.0552C71.1558 52.7363 70.7679 51.2468 70.7679 49.5866C70.7679 47.9264 71.1558 46.4369 71.9471 45.118C72.7384 43.7992 73.8245 42.7596 75.2209 42.0148C76.6174 41.2701 78.1845 40.8977 79.9222 40.8977C81.3342 40.8977 82.622 41.1304 83.7857 41.5959C84.9494 42.0614 85.9114 42.7441 86.7027 43.644L84.7167 45.568C83.4288 44.2802 81.8772 43.644 80.0619 43.644C78.8672 43.644 77.8121 43.8923 76.8811 44.3888C75.9502 44.8853 75.2365 45.5835 74.7089 46.4834C74.1814 47.3833 73.9176 48.4074 73.9176 49.5711C73.9176 50.7037 74.1814 51.7123 74.7089 52.6122C75.2365 53.5121 75.9502 54.2259 76.8811 54.7379C77.8121 55.2499 78.8517 55.5137 80.0309 55.5137C81.3497 55.5137 82.5134 55.2189 83.5064 54.6448V49.3849Z" fill="#007E6E"/>
<path d="M101.567 54.1172H93.1109L91.4507 58.0272H88.2078L95.8106 41.1304H98.8983L106.532 58.0272H103.243L101.567 54.1172ZM100.527 51.6501L97.3467 44.2646L94.1815 51.6501H100.527Z" fill="#007E6E"/>
<path d="M124.22 58.0272L124.189 46.8247L118.635 56.1032H117.238L111.683 46.9799V58.0427H108.689V41.1304H111.28L117.998 52.3329L124.593 41.1304H127.184L127.215 58.0272H124.22Z" fill="#007E6E"/>
<path d="M144.422 55.3895V58.0272H131.745V41.1304H144.081V43.7681H134.88V48.1591H143.041V50.7502H134.88V55.405H144.422V55.3895Z" fill="#007E6E"/>
<path d="M149.387 57.7171C148.177 57.3447 147.215 56.8637 146.501 56.2431L147.587 53.8071C148.285 54.3501 149.123 54.8001 150.132 55.1414C151.14 55.4828 152.149 55.6534 153.157 55.6534C154.414 55.6534 155.345 55.4517 155.966 55.0483C156.586 54.6449 156.897 54.1174 156.897 53.4502C156.897 52.9692 156.726 52.5658 156.385 52.2555C156.043 51.9452 155.593 51.6969 155.066 51.5262C154.538 51.3555 153.809 51.1538 152.893 50.9211C151.606 50.6108 150.566 50.316 149.759 50.0057C148.968 49.6953 148.285 49.2144 147.711 48.5627C147.137 47.911 146.858 47.0266 146.858 45.925C146.858 44.994 147.106 44.1407 147.618 43.3804C148.13 42.6201 148.89 42.015 149.914 41.565C150.938 41.1151 152.195 40.8823 153.669 40.8823C154.693 40.8823 155.717 41.0065 156.71 41.2702C157.703 41.534 158.572 41.8909 159.302 42.3874L158.309 44.8234C157.564 44.3889 156.788 44.0631 155.997 43.8303C155.19 43.5976 154.414 43.489 153.654 43.489C152.412 43.489 151.497 43.6907 150.892 44.1096C150.287 44.5286 149.992 45.0871 149.992 45.7698C149.992 46.2508 150.163 46.6542 150.504 46.949C150.845 47.2594 151.295 47.4921 151.823 47.6783C152.35 47.849 153.08 48.0507 153.995 48.2834C155.252 48.5782 156.276 48.873 157.083 49.1833C157.89 49.4936 158.572 49.9746 159.146 50.6263C159.721 51.278 160 52.1469 160 53.233C160 54.1639 159.752 55.0173 159.24 55.7621C158.728 56.5223 157.967 57.1275 156.928 57.5774C155.904 58.0274 154.647 58.2601 153.157 58.2601C151.854 58.2756 150.597 58.0894 149.387 57.7171Z" fill="#007E6E"/>
<path d="M160 36.0723H70.7524V37.3135H160V36.0723Z" fill="#007E6E"/>
</g>
<defs>
<clipPath id="clip0">
<rect width="160" height="80" fill="white"/>
</clipPath>
</defs>
</svg>
