<svg xmlns="http://www.w3.org/2000/svg" height="40px" width="40px	" viewBox="0 0 185.5 185.5"><defs><style>.cls-1{fill:#ff5f00;}.cls-2{fill:#ff8300;}</style></defs><title>Ресурс 1</title><g id="Слой_2" data-name="Слой 2"><g id="Layer_3" data-name="Layer 3"><circle class="cls-1" cx="92.8" cy="92.7" r="40.9"/><polygon class="cls-1" points="92.8 40.9 111.4 22.3 111.4 0 74.2 0 74.2 22.3 92.8 40.9"/><polygon class="cls-2" points="66.9 47.9 73.7 22.4 62.5 3 30.3 21.7 41.5 41 66.9 47.9"/><polygon class="cls-1" points="47.9 66.8 41.1 41.4 21.7 30.2 3.1 62.4 22.6 73.6 47.9 66.8"/><polygon class="cls-2" points="41 92.7 22.4 74.1 0 74.1 0 111.3 22.4 111.3 41 92.7"/><polygon class="cls-1" points="47.9 118.6 22.6 111.8 3.1 123 21.7 155.2 41.1 144 47.9 118.6"/><polygon class="cls-2" points="66.8 137.6 41.5 144.4 30.3 163.8 62.5 182.3 73.7 162.9 66.8 137.6"/><polygon class="cls-1" points="92.8 144.5 74.2 163.1 74.2 185.5 111.4 185.5 111.4 163.1 92.8 144.5"/><polygon class="cls-2" points="118.7 137.6 111.9 162.9 123.1 182.3 155.3 163.8 144.1 144.4 118.7 137.6"/><polygon class="cls-1" points="137.6 118.6 144.4 144 163.8 155.2 182.5 123 163.1 111.8 137.6 118.6"/><polygon class="cls-2" points="144.6 92.7 163.2 111.3 185.5 111.3 185.5 74.1 163.2 74.1 144.6 92.7"/><polygon class="cls-1" points="137.6 66.8 163.1 73.6 182.5 62.4 163.8 30.2 144.5 41.4 137.6 66.8"/><polygon class="cls-2" points="118.7 47.9 144.1 41.1 155.3 21.7 123.1 3 111.9 22.4 118.7 47.9"/></g></g></svg>