<svg width="160" height="80" viewBox="0 0 160 80" fill="none" xmlns="http://www.w3.org/2000/svg">
<path d="M156 39.4255H155.158L155.218 37.1846H155.166C154.909 37.8941 154.654 38.6673 154.413 39.4188H153.661L152.825 37.1358H152.781C152.781 37.8439 152.825 38.6239 152.847 39.3835H151.998V36.3558H153.367L153.984 38.2346H154.022L154.609 36.3409H156V39.4255Z" fill="white"/>
<path d="M96.3293 39.1502C96.3741 42.4817 96.442 45.8146 96.4868 49.1691H92.8598V36.1293H99.1059L99.1956 36.3491C100.445 39.507 101.699 42.6662 102.958 45.8295C102.976 45.8864 103.001 45.9407 103.033 45.9923C103.033 45.9923 103.101 46.0343 103.177 46.0696C103.177 44.3889 103.131 42.7381 103.116 41.1062C103.101 39.4758 103.063 37.8168 103.041 36.1429C103.222 36.1009 106.292 36.0792 106.705 36.1429V49.1895H100.392C100.392 49.1189 100.324 49.0416 100.295 48.9561C99.0556 45.7603 97.8086 42.5672 96.5548 39.3767C96.5398 39.3198 96.5167 39.2642 96.4868 39.214C96.4868 39.1706 96.404 39.157 96.3591 39.1217L96.3293 39.1502Z" fill="white"/>
<path d="M65.5605 36.1212H73.1528C73.9204 36.1144 74.6838 36.2297 75.4106 36.4617C75.867 36.5878 76.2759 36.8347 76.5856 37.1752C76.8953 37.5143 77.0937 37.9321 77.1562 38.377C77.3423 39.3415 77.2866 40.3358 76.9904 41.2772C76.9306 41.482 76.8233 41.6719 76.6739 41.8333C76.5258 41.9947 76.3411 42.1209 76.1332 42.205C75.8602 42.3094 75.5804 42.399 75.2978 42.4749C75.2244 42.4885 75.1565 42.5197 75.1022 42.5671L75.215 42.6092C75.5084 42.6811 75.8099 42.7231 76.0952 42.8154C76.3574 42.8927 76.5965 43.027 76.7921 43.2088C76.9891 43.3892 77.1371 43.6116 77.2241 43.8572C77.3776 44.26 77.4618 44.6846 77.4727 45.1132C77.5229 45.8267 77.4536 46.5457 77.2689 47.2402C77.2159 47.4165 77.148 47.5902 77.0665 47.757C76.8627 48.2006 76.4892 48.5546 76.0205 48.75C75.4921 48.9711 74.927 49.104 74.3496 49.1406C73.8837 49.1406 73.4164 49.1895 72.9504 49.1895H65.6054C65.5307 49.0131 65.5076 36.4834 65.5605 36.1212ZM69.2854 43.7934V46.2961H69.4362C70.3164 46.2961 71.1967 46.2961 72.077 46.2961C72.4139 46.2812 72.748 46.2418 73.0781 46.1767C73.214 46.1577 73.3417 46.1008 73.4436 46.0139C73.5454 45.9271 73.6174 45.8132 73.65 45.687C73.7967 45.2408 73.7967 44.7646 73.65 44.3184C73.6229 44.218 73.5658 44.1271 73.4856 44.0552C73.4055 43.9833 73.3063 43.9345 73.199 43.9141C72.9518 43.8531 72.7005 43.8151 72.4464 43.8002C71.4371 43.8002 70.4292 43.8002 69.4362 43.8002L69.2854 43.7934ZM69.2854 39.0213V41.3897C69.3913 41.3897 69.481 41.3897 69.572 41.3897C70.2784 41.3897 70.978 41.3897 71.6789 41.3897C72.115 41.4019 72.5497 41.3572 72.9722 41.2554C73.0999 41.231 73.2167 41.1727 73.3091 41.0845C73.4001 40.9977 73.4612 40.8865 73.4843 40.7658C73.5821 40.3941 73.5821 40.0034 73.4843 39.6317C73.4558 39.5015 73.3865 39.3808 73.2832 39.2886C73.1814 39.1963 73.0523 39.1353 72.9124 39.1136C72.7059 39.0769 72.4981 39.058 72.2875 39.0566H69.2786L69.2854 39.0213Z" fill="white"/>
<path d="M129.73 44.1271C129.73 44.2546 129.851 44.2261 129.911 44.241C130.196 44.2845 130.477 44.3441 130.755 44.4174C131.117 44.5272 131.442 44.7294 131.691 45.0034C131.939 45.276 132.102 45.6084 132.162 45.9638C132.222 46.2296 132.252 46.4996 132.252 46.7722C132.252 47.5237 132.252 48.2752 132.252 49.0199C132.252 49.0687 132.252 49.1121 132.252 49.1678H128.49V47.3528C128.491 47.0367 128.428 46.7247 128.301 46.4317C128.237 46.269 128.129 46.1238 127.987 46.0126C127.846 45.9 127.678 45.8254 127.496 45.7928C127.342 45.763 127.186 45.7467 127.03 45.744H124.336H124.185V49.1325C123.998 49.1827 120.89 49.2044 120.46 49.1325V36.1293H127.625C128.49 36.1185 129.353 36.2324 130.183 36.4685H130.228C130.706 36.5892 131.139 36.8334 131.477 37.1752C131.814 37.5157 132.044 37.9402 132.139 38.3974C132.239 38.7989 132.31 39.2072 132.349 39.6168C132.424 40.5202 132.373 41.4277 132.199 42.3189C132.138 42.6418 131.985 42.9429 131.76 43.1925C131.533 43.4407 131.241 43.6293 130.912 43.7364C130.619 43.8436 130.31 43.929 130.009 44.0199L129.73 44.1271ZM124.162 42.7082H127.444C127.598 42.6987 127.748 42.6702 127.895 42.6241C128.011 42.597 128.117 42.5427 128.202 42.4641C128.286 42.3854 128.347 42.2864 128.376 42.1765C128.448 41.9228 128.5 41.6651 128.535 41.4047C128.587 40.8743 128.549 40.3412 128.422 39.823C128.395 39.6724 128.319 39.5341 128.202 39.4269C128.085 39.3211 127.936 39.2533 127.774 39.2343C127.527 39.1828 127.276 39.1516 127.022 39.1421H124.893H124.14L124.162 42.7082Z" fill="white"/>
<path d="M133.787 43.1775C133.787 42.2551 133.787 41.5389 133.855 40.8308C133.875 40.1607 133.984 39.4961 134.178 38.8517C134.349 38.3227 134.648 37.8371 135.051 37.4342C135.357 37.1399 135.727 36.9133 136.134 36.7682C137.315 36.3314 138.57 36.1035 139.837 36.094C140.631 36.0737 141.425 36.1076 142.214 36.193C142.993 36.2717 143.754 36.4603 144.472 36.7533C145.211 37.0707 145.795 37.6418 146.105 38.3485C146.381 38.982 146.551 39.6521 146.609 40.3344C146.768 41.9743 146.72 43.6265 146.466 45.2557C146.364 45.9475 146.184 46.6284 145.924 47.2836C145.723 47.7895 145.343 48.2155 144.848 48.4881C144.325 48.773 143.756 48.971 143.163 49.0768C142.346 49.2369 141.513 49.3129 140.679 49.3034C139.965 49.3034 139.242 49.3034 138.528 49.2478C137.608 49.1894 136.706 48.9778 135.864 48.6238C135.27 48.3674 134.784 47.9333 134.479 47.3894C134.141 46.8305 133.939 46.2079 133.884 45.5676C133.832 44.6873 133.817 43.8232 133.787 43.1775ZM142.892 42.5115C142.892 42.1629 142.892 41.8021 142.892 41.4548C142.89 41.0438 142.842 40.6355 142.748 40.2353C142.697 39.9491 142.549 39.686 142.324 39.4866C142.1 39.2872 141.814 39.161 141.507 39.1285H141.417C140.86 39.0647 140.296 39.0647 139.739 39.1285C139.388 39.1474 139.037 39.1922 138.693 39.2641C138.491 39.2953 138.305 39.3875 138.162 39.5273C138.02 39.6656 137.93 39.8447 137.903 40.0359C137.813 40.4103 137.752 40.7888 137.722 41.1713C137.669 41.9933 137.654 42.8303 137.647 43.6591C137.635 44.2261 137.706 44.7917 137.858 45.3398C137.903 45.5337 138.006 45.7128 138.153 45.8539C138.301 45.9963 138.488 46.0953 138.693 46.1414C138.972 46.2133 139.256 46.2608 139.544 46.2839C140.234 46.3395 140.931 46.2906 141.604 46.1414C141.88 46.0912 142.132 45.9664 142.33 45.7806C142.528 45.5948 142.664 45.3574 142.718 45.0997C142.843 44.6357 142.903 44.1596 142.899 43.6808C142.892 43.2915 142.892 42.9008 142.892 42.5115Z" fill="white"/>
<path d="M45.0264 41.0425V36.1361H48.7431V49.1895H45.0332V44.0986C44.8525 44.0498 40.5191 44.0416 40.2175 44.0986V49.1542C40.0369 49.2044 36.8174 49.2179 36.5076 49.1542V36.1578C36.6666 36.1076 39.8874 36.1008 40.2026 36.1578V41.0574L45.0264 41.0425Z" fill="white"/>
<path d="M87.3607 46.935H82.401L81.7395 49.1894H77.9087C77.9087 49.0266 81.8522 36.5471 82.0329 36.1429H87.6609C89.0764 40.4727 90.481 44.8216 91.8748 49.1894H88.1133L87.3607 46.935ZM86.6081 44.3956C86.0281 42.5101 85.4562 40.6599 84.8924 38.8083C84.6669 39.4255 84.4781 40.0427 84.2906 40.6599C84.1018 41.2758 83.9144 41.8997 83.7337 42.5237C83.553 43.1477 83.3424 43.7513 83.1917 44.3956H86.6081Z" fill="white"/>
<path d="M87.3607 46.935H82.401L81.7395 49.1894H77.9087C77.9087 49.0266 81.8522 36.5471 82.0329 36.1429H87.6609C89.0764 40.4727 90.481 44.8216 91.8748 49.1894H88.1133L87.3607 46.935ZM86.6081 44.3956C86.0281 42.5101 85.4562 40.6599 84.8924 38.8083C84.6669 39.4255 84.4781 40.0427 84.2906 40.6599C84.1018 41.2758 83.9144 41.8997 83.7337 42.5237C83.553 43.1477 83.3424 43.7513 83.1917 44.3956H86.6081Z" fill="white"/>
<path d="M59.3538 46.935H54.3941L53.7325 49.1894H49.9017C49.9017 49.0266 53.8453 36.5471 54.026 36.1429H59.654C61.0681 40.4727 62.4727 44.8216 63.8679 49.1894H60.105L59.3538 46.935ZM58.6012 44.3956C58.0211 42.5101 57.4492 40.6599 56.8855 38.8083C56.6586 39.4255 56.4712 40.0427 56.2837 40.6599C56.0949 41.2758 55.9074 41.8997 55.7267 42.5237C55.546 43.1477 55.3355 43.7513 55.1847 44.3956H58.6012Z" fill="white"/>
<path d="M112.251 43.7866V46.2961C112.966 46.2961 113.674 46.2961 114.382 46.2961H118.67V49.1325C118.513 49.1827 109.054 49.2044 108.557 49.1325C108.512 48.9765 108.497 36.4128 108.557 36.1008H118.527C118.572 36.2487 118.587 38.6171 118.527 38.9359H112.281C112.224 39.7199 112.224 40.5066 112.281 41.2907C112.764 41.2907 113.253 41.2907 113.742 41.2907H118.151V43.7079C117.873 43.7079 117.594 43.7079 117.316 43.7079H112.266L112.251 43.7866Z" fill="white"/>
<path d="M151.486 36.3559V37.0653C151.199 37.1141 150.914 37.0653 150.612 37.0653V39.4052C150.311 39.4052 150.041 39.4052 149.724 39.4052C149.724 38.6185 149.724 37.8453 149.724 37.0436H148.927V36.3342L151.486 36.3559Z" fill="white"/>
<path d="M14.4452 54.8622H14.3704C14.3406 54.8378 14.308 54.8161 14.2727 54.7984L4.13732 49.2464C4.0925 49.2288 4.05446 49.1976 4.03 49.1582C4.00555 49.1189 3.99605 49.0728 4.00148 49.0267V37.7883C4.00148 37.4614 4.00148 37.1358 4.00148 36.817C4.01235 36.7099 4.04495 36.6068 4.09929 36.5118C4.17264 36.3924 4.28675 36.2975 4.4226 36.2446C4.55844 36.1903 4.70923 36.1795 4.85186 36.2134C4.99586 36.2446 5.12491 36.3206 5.21864 36.4291C5.31237 36.5362 5.36671 36.6705 5.37078 36.8102C5.37078 37.1494 5.37078 37.5183 5.37078 37.8303C5.36127 37.9212 5.37079 38.0134 5.40067 38.1003C5.43056 38.1871 5.47947 38.2671 5.54467 38.3349C5.60988 38.4027 5.68866 38.457 5.77832 38.495C5.86662 38.5316 5.96171 38.5506 6.05952 38.5506C6.15597 38.5506 6.25242 38.5316 6.34072 38.495C6.42901 38.457 6.50916 38.4027 6.57301 38.3349C6.63821 38.2671 6.68712 38.1871 6.717 38.1003C6.74689 38.0134 6.75775 37.9212 6.74824 37.8303V35.6328C6.74824 35.3412 6.74824 35.0577 6.74824 34.7674C6.75367 34.5951 6.83111 34.4324 6.96288 34.313C7.09601 34.1936 7.2726 34.1271 7.45464 34.1299C7.63667 34.1299 7.81055 34.1977 7.9396 34.3184C8.06729 34.4391 8.13929 34.6033 8.13929 34.7742C8.13929 34.8949 8.13929 35.0088 8.13929 35.1296C8.13929 35.4131 8.13929 35.6966 8.13929 35.9801C8.15015 36.0696 8.1814 36.1564 8.23166 36.2337C8.28056 36.3111 8.34712 36.3775 8.42727 36.4291C8.50606 36.4806 8.59572 36.5145 8.69081 36.5308C8.78454 36.5457 8.88235 36.5417 8.97472 36.5186C9.14045 36.4833 9.28718 36.3911 9.38634 36.2609C9.48415 36.1293 9.52896 35.9692 9.50995 35.8092V31.718C9.50723 31.6217 9.52898 31.5254 9.57109 31.4373C9.6132 31.3491 9.67704 31.2718 9.75448 31.2094C9.83326 31.1456 9.92565 31.1008 10.0248 31.0764C10.124 31.052 10.2286 31.0479 10.3291 31.0656C10.5003 31.0968 10.6538 31.1863 10.7597 31.3179C10.8657 31.4481 10.9159 31.6109 10.901 31.775V34.4418C10.8983 34.5341 10.9173 34.6263 10.9581 34.7118C10.9988 34.7959 11.0586 34.8718 11.1346 34.9302C11.2338 35.0183 11.3588 35.0753 11.4933 35.0943C11.6278 35.1133 11.765 35.0929 11.8872 35.0373C12.0122 34.9885 12.1168 34.9058 12.1902 34.7999C12.2622 34.6928 12.2988 34.568 12.2934 34.4418V32.498C12.2853 32.4071 12.2975 32.3162 12.3287 32.2294C12.36 32.144 12.4102 32.0639 12.4768 31.9975C12.542 31.931 12.6221 31.8781 12.7118 31.8415C12.8001 31.8062 12.8965 31.7886 12.993 31.7899C13.0894 31.7899 13.1832 31.8089 13.2715 31.8456C13.3584 31.8822 13.4372 31.9364 13.5024 32.0029C13.5676 32.0694 13.6179 32.1467 13.6491 32.2321C13.6804 32.3176 13.6926 32.4085 13.6858 32.498C13.6858 32.7897 13.6858 33.0867 13.6858 33.3784C13.6749 33.4692 13.6858 33.5601 13.7157 33.6469C13.7456 33.7338 13.7945 33.8138 13.8597 33.8816C13.9249 33.9508 14.0037 34.0051 14.092 34.0417C14.1816 34.0783 14.2767 34.0987 14.3745 34.0987C14.471 34.0987 14.5674 34.0783 14.6557 34.0417C14.744 34.0051 14.8228 33.9508 14.888 33.8816C14.9532 33.8138 15.0021 33.7338 15.032 33.6469C15.0619 33.5601 15.0728 33.4692 15.0619 33.3784V30.8743C15.0551 30.7834 15.0673 30.6925 15.0999 30.6071C15.1312 30.5216 15.1828 30.443 15.248 30.3765C15.3132 30.31 15.3934 30.2558 15.4817 30.2205C15.57 30.1839 15.6664 30.1649 15.7629 30.1662C15.8593 30.1649 15.9544 30.1825 16.0441 30.2178C16.1324 30.2544 16.2111 30.3073 16.2777 30.3738C16.3429 30.4402 16.3918 30.5203 16.423 30.6071C16.4529 30.6925 16.4638 30.7848 16.4543 30.8743V33.1152C16.4543 33.3567 16.4543 33.6049 16.4543 33.8246C16.4597 33.944 16.5018 34.0593 16.5779 34.1543C16.6526 34.2506 16.7559 34.3238 16.8754 34.3632C16.9841 34.4039 17.1009 34.4174 17.2164 34.4039C17.3318 34.3916 17.4419 34.351 17.537 34.2872C17.6321 34.2248 17.7081 34.1393 17.7598 34.0417C17.8114 33.944 17.8358 33.8341 17.8318 33.7256C17.8318 33.3919 17.8318 33.0162 17.8318 32.711C17.8345 32.6052 17.863 32.5007 17.9146 32.4058C17.9853 32.2755 18.1007 32.1725 18.242 32.1114C18.3846 32.0517 18.5436 32.0382 18.6944 32.0748C18.8438 32.1114 18.9769 32.1942 19.0707 32.3108C19.1644 32.4288 19.2133 32.5713 19.2092 32.7178C19.2092 33.6252 19.2092 34.5259 19.2092 35.4334C19.1983 35.5243 19.2092 35.6165 19.2391 35.7034C19.269 35.7902 19.3179 35.8702 19.3831 35.938C19.4483 36.0059 19.5271 36.0601 19.6154 36.0981C19.7037 36.1347 19.8001 36.1537 19.8966 36.1537C19.9944 36.1537 20.0895 36.1347 20.1791 36.0981C20.2674 36.0601 20.3462 36.0059 20.4114 35.938C20.4766 35.8702 20.5255 35.7902 20.5554 35.7034C20.5853 35.6165 20.5962 35.5243 20.5853 35.4334C20.5785 35.3846 20.5785 35.3344 20.5853 35.2856C20.607 35.1011 20.7049 34.9315 20.857 34.8162C21.0105 34.6996 21.2061 34.6453 21.4017 34.6643C21.5974 34.6846 21.7767 34.7769 21.9003 34.9207C22.0239 35.0645 22.081 35.2503 22.0606 35.4334V37.0151C22.0538 37.106 22.066 37.1968 22.0973 37.2823C22.1299 37.3691 22.1801 37.4478 22.2453 37.5143C22.3119 37.5807 22.3907 37.6336 22.4803 37.6703C22.5686 37.7055 22.6637 37.7245 22.7602 37.7245C22.8553 37.7232 22.9504 37.7042 23.0373 37.6675C23.1242 37.6309 23.203 37.578 23.2669 37.5115C23.3321 37.4451 23.381 37.3664 23.4109 37.2809C23.4421 37.1955 23.453 37.1046 23.4448 37.0151C23.4448 36.9296 23.4448 36.8523 23.4448 36.7668C23.4394 36.676 23.4557 36.5837 23.4896 36.4983C23.525 36.4114 23.578 36.3341 23.6472 36.269C23.7152 36.2039 23.798 36.1524 23.889 36.1198C23.9801 36.0859 24.0765 36.071 24.1743 36.075C24.2721 36.0791 24.3672 36.1022 24.4541 36.1429C24.5411 36.1836 24.6185 36.2405 24.681 36.3111C24.7435 36.3816 24.7897 36.463 24.8168 36.5525C24.844 36.6407 24.8508 36.7329 24.8372 36.8238C24.8372 38.6578 24.8372 40.4944 24.8372 42.3338C24.8372 44.5733 24.8372 46.8102 24.8372 49.0416C24.8413 49.0823 24.8318 49.123 24.8101 49.1582C24.7883 49.1935 24.7557 49.222 24.7163 49.2396L14.5362 54.7564L14.4452 54.8622ZM19.2921 39.922H16.0413V42.3826H12.7675V39.8867H9.51674V47.2049H12.7675V44.8786H16.0413V47.2049H19.2921V39.922Z" fill="url(#paint0_linear)"/>
<path d="M16.4924 27.4492V28.3784C16.5033 28.4707 16.4924 28.5629 16.4625 28.6511C16.4313 28.7392 16.3824 28.8193 16.3158 28.8885C16.2506 28.9563 16.1705 29.0119 16.0808 29.0485C15.9912 29.0865 15.8947 29.1055 15.7969 29.1055C15.6991 29.1055 15.6013 29.0865 15.5116 29.0485C15.422 29.0119 15.3418 28.9563 15.2766 28.8885C15.2114 28.8193 15.1611 28.7392 15.1313 28.6511C15.1014 28.5629 15.0905 28.4707 15.1 28.3784V26.4997C15.0905 26.4075 15.1014 26.3152 15.1313 26.2271C15.1611 26.1389 15.2114 26.0575 15.2766 25.9897C15.3418 25.9205 15.422 25.8662 15.5116 25.8283C15.6013 25.7916 15.6991 25.7713 15.7969 25.7713C15.8947 25.7713 15.9912 25.7916 16.0808 25.8283C16.1705 25.8662 16.2506 25.9205 16.3158 25.9897C16.3824 26.0575 16.4313 26.1389 16.4625 26.2271C16.4924 26.3152 16.5033 26.4075 16.4924 26.4997V27.4492Z" fill="#F3733E"/>
<path d="M13.7238 29.1869V30.1147C13.7333 30.207 13.7225 30.3005 13.6926 30.3874C13.6627 30.4755 13.6124 30.5569 13.5472 30.6247C13.482 30.6939 13.4019 30.7482 13.3122 30.7862C13.2226 30.8241 13.1248 30.8431 13.027 30.8431C12.9292 30.8431 12.8327 30.8241 12.743 30.7862C12.6534 30.7482 12.5732 30.6939 12.508 30.6247C12.4415 30.5569 12.3926 30.4755 12.3613 30.3874C12.3314 30.3005 12.3206 30.207 12.3315 30.1147V28.2509C12.3287 28.1627 12.3437 28.0759 12.3776 27.9932C12.4116 27.9118 12.4632 27.8372 12.5284 27.7748C12.595 27.7124 12.6724 27.6636 12.7594 27.631C12.8449 27.5985 12.9373 27.5822 13.031 27.5835C13.1234 27.5835 13.2144 27.6012 13.3 27.6351C13.3842 27.669 13.4617 27.7178 13.5255 27.7802C13.5907 27.8426 13.641 27.9159 13.6749 27.9959C13.7089 28.0773 13.7252 28.1641 13.7238 28.2509V29.1869Z" fill="#F26345"/>
<path d="M13.7225 25.7903C13.7252 25.9218 13.6845 26.0507 13.6084 26.1592C13.5323 26.2691 13.4223 26.3546 13.2946 26.4061C13.1669 26.4563 13.0256 26.4699 12.8884 26.4454C12.7526 26.4197 12.6262 26.3573 12.5284 26.2637C12.4306 26.1714 12.3641 26.0534 12.3369 25.9246C12.3097 25.7957 12.3247 25.6628 12.3776 25.542C12.432 25.4213 12.523 25.3182 12.6398 25.2463C12.7553 25.1744 12.8911 25.1365 13.0311 25.1378C13.2144 25.1378 13.391 25.207 13.5201 25.3291C13.6505 25.4525 13.7225 25.618 13.7225 25.7903Z" fill="#F26744"/>
<path d="M18.5844 29.9886C18.6808 29.9791 18.7786 29.9886 18.871 30.0171C18.962 30.0455 19.0476 30.0917 19.1196 30.1527C19.1916 30.2137 19.2487 30.2883 19.2894 30.3724C19.3288 30.4565 19.3492 30.5461 19.3492 30.6383C19.3492 30.7292 19.3288 30.8201 19.2894 30.9028C19.2487 30.9869 19.1916 31.0615 19.1196 31.1226C19.0476 31.1836 18.962 31.2297 18.871 31.2582C18.7786 31.2867 18.6808 31.2962 18.5844 31.2867C18.4024 31.2826 18.2285 31.2135 18.0994 31.0914C17.9704 30.9693 17.8957 30.8065 17.8916 30.6342C17.8957 30.4633 17.9704 30.3005 18.0994 30.1798C18.2285 30.0591 18.4024 29.9913 18.5844 29.9886Z" fill="#F47F39"/>
<defs>
<linearGradient id="paint0_linear" x1="4.00148" y1="42.5034" x2="24.8073" y2="42.5034" gradientUnits="userSpaceOnUse">
<stop stop-color="#EE324D"/>
<stop offset="1" stop-color="#F89827"/>
</linearGradient>
</defs>
</svg>
