<svg width="160" height="80" viewBox="0 0 160 80" fill="none" xmlns="http://www.w3.org/2000/svg">
<path d="M10.5926 36.343H15.165V40.0695L22.4047 40.2562V19.326C22.4047 19.0822 22.2789 18.9221 22.0846 18.9221H15.4775C15.2869 18.9221 15.1574 19.0822 15.1574 19.326V29.2329H10.585V19.326C10.585 19.0822 10.4554 18.9221 10.2649 18.9221H3.74923C3.55491 18.9221 3.42535 19.0822 3.42535 19.326V39.7685L10.5926 39.9514V36.343Z" fill="white"/>
<path d="M39.1705 19.246C39.1095 19.0021 38.9914 18.9221 38.839 18.9221H31.6832C31.5346 18.9221 31.4127 19.0021 31.3517 19.246L25.2971 40.3324L45.2328 40.8621L39.1705 19.246ZM33.3445 36.9869L35.2306 25.072L37.0596 36.9869H33.3445Z" fill="white"/>
<path d="M73.2426 40.561L76.3975 35.9429L78.7866 41.7155L86.232 41.906L80.7299 29.6825L87.7638 19.3946C87.9467 19.1126 87.8248 18.9106 87.5847 18.9106H80.1279C80.051 18.9125 79.9763 18.936 79.9122 18.9785C79.8482 19.0209 79.7975 19.0806 79.7659 19.1507L73.2426 29.6291V19.326C73.2426 19.0821 73.1206 18.9221 72.9416 18.9221H66.845C66.6621 18.9221 66.544 19.0821 66.544 19.326V41.3993L73.2502 41.5707L73.2426 40.561Z" fill="white"/>
<path d="M108.427 37.989C108.427 27.0305 96.0662 30.9247 96.0662 26.5885C96.0662 25.3463 97.1179 24.7824 98.562 24.7824C100.246 24.7824 101.9 25.5445 103.554 27.2744C103.579 27.3131 103.615 27.3441 103.657 27.3642C103.7 27.3842 103.746 27.3926 103.793 27.3883C103.839 27.384 103.884 27.3672 103.921 27.3398C103.959 27.3124 103.989 27.2753 104.007 27.2325L107.371 22.5724C107.433 22.4898 107.464 22.3885 107.459 22.2857C107.454 22.1829 107.414 22.085 107.345 22.0085C104.967 19.246 102.201 18 98.8325 18C94.2601 18 89.36 20.2481 89.36 27.4344C89.36 38.9531 101.869 34.3768 101.869 39.1131C101.869 40.561 100.7 41.2812 99.0154 41.2812C96.9083 41.2812 94.824 40.199 92.7283 37.3489C92.6102 37.1889 92.4273 37.147 92.3092 37.3489L89.0475 41.9785L107.592 42.4586C108.165 41.039 108.449 39.5195 108.427 37.989Z" fill="white"/>
<path d="M123.665 19.246C123.604 19.0021 123.482 18.9221 123.333 18.9221H116.177C116.025 18.9221 115.907 19.0021 115.846 19.246L109.166 42.4891L130.344 43.0378L123.665 19.246ZM117.835 36.9869L119.74 25.072L121.55 36.9869H117.835Z" fill="white"/>
<path d="M143.581 31.5191L145.463 43.4379L153.191 43.6398L159.981 19.3641C160.042 19.0822 159.95 18.9221 159.741 18.9221H153.358C153.179 18.9221 153.057 19.0441 153.027 19.3032L149.655 33.4014L146.896 19.3032C146.866 19.1012 146.744 18.9221 146.565 18.9221H140.601C140.422 18.9221 140.3 19.0822 140.27 19.3032L137.511 33.4014L134.124 19.2841C134.093 19.0441 133.971 18.9031 133.792 18.9031H127.421C127.212 18.9031 127.12 19.0631 127.181 19.3451L133.83 43.1483L141.714 43.354L143.581 31.5191Z" fill="white"/>
<path d="M63.4309 39.0789C63.4326 39.0559 63.4265 39.033 63.4136 39.0138C63.4006 38.9947 63.3816 38.9805 63.3597 38.9734C63.3377 38.9664 63.3139 38.9669 63.2923 38.975C63.2707 38.9831 63.2524 38.9982 63.2404 39.018C62.7981 39.6787 62.1976 40.2183 61.4935 40.5877C60.7894 40.957 60.0041 41.1444 59.209 41.1327C55.6921 41.1327 54.0346 37.6424 54.0346 32.9862C54.0346 28.772 55.4139 25.0378 59.2776 25.0378C60.058 25.0082 60.833 25.1789 61.5287 25.5338C62.2244 25.8886 62.8176 26.4158 63.2518 27.0649C63.2646 27.0834 63.2828 27.0973 63.304 27.1048C63.3251 27.1122 63.3481 27.1128 63.3696 27.1065C63.3911 27.1002 63.4101 27.0872 63.4238 27.0695C63.4376 27.0518 63.4454 27.0302 63.4461 27.0078V19.1928C63.4478 19.1043 63.4214 19.0176 63.3708 18.945C63.3201 18.8725 63.2478 18.8178 63.1642 18.7889C61.8156 18.3247 60.399 18.0891 58.9728 18.0916C51.2111 18.0916 46.2082 24.9159 46.2082 33.5082C46.175 36.0514 46.6747 38.5733 47.6751 40.9117L63.4347 41.3194L63.4309 39.0789Z" fill="white"/>
<path d="M11.7322 47.9835C11.7322 48.2236 11.8579 48.3646 12.0523 48.3646H18.6403C18.8309 48.3646 18.9604 48.2045 18.9604 47.9835V41.3802L11.7208 41.1897L11.7322 47.9835Z" fill="white"/>
<path d="M0.320069 48.3839H6.85861C7.05294 48.3839 7.18249 48.2238 7.18249 48.0028V41.0718L0 40.8889V47.9838C0 48.2238 0.129552 48.3839 0.320069 48.3839Z" fill="white"/>
<path d="M20.2559 48.3839H26.844C26.9303 48.3765 27.0119 48.3413 27.0764 48.2836C27.141 48.2259 27.1851 48.1488 27.2021 48.0638L28.0442 44.4097H35.4363L36.2784 48.0638C36.2954 48.1488 36.3395 48.2259 36.4041 48.2836C36.4687 48.3413 36.5502 48.3765 36.6366 48.3839H43.2246C43.4342 48.3839 43.5256 48.1858 43.4647 47.9038L41.7996 41.9711L21.8677 41.4529L20.0158 47.9038C19.9282 48.1858 20.0463 48.3839 20.2559 48.3839Z" fill="white"/>
<path d="M77.5403 48.1017C77.5625 48.181 77.6097 48.2509 77.675 48.301C77.7402 48.3512 77.82 48.3788 77.9022 48.3799H84.7875C85.0276 48.3799 85.119 48.1817 84.9971 47.8998L82.8062 43.0264L75.3607 42.832L77.5403 48.1017Z" fill="white"/>
<path d="M63.4081 48.3836H69.5047C69.6876 48.3836 69.8057 48.2236 69.8057 48.0026V42.6948L63.0995 42.5195V47.9836C63.1071 48.2236 63.229 48.3836 63.4081 48.3836Z" fill="white"/>
<path d="M85.0926 44.4095C86.2563 45.9327 87.7555 47.1671 89.4736 48.0169C91.1918 48.8668 93.0827 49.3091 94.9995 49.3096C98.9204 49.3096 102.586 47.4044 104.179 43.5941L85.6185 43.1025L85.0926 43.8646C85.0318 43.9424 84.9987 44.0383 84.9987 44.137C84.9987 44.2358 85.0318 44.3317 85.0926 44.4095Z" fill="white"/>
<path d="M104.75 48.3835H111.334C111.421 48.3763 111.503 48.3413 111.569 48.2836C111.634 48.2259 111.679 48.1487 111.696 48.0635L112.538 44.4093H119.934L120.788 48.0635C120.806 48.1484 120.851 48.2253 120.916 48.2829C120.981 48.3405 121.063 48.3757 121.15 48.3835H127.723C127.936 48.3835 128.024 48.1854 127.967 47.9034L126.919 44.1693L105.741 43.6206L104.51 47.9034C104.403 48.1854 104.541 48.3835 104.75 48.3835Z" fill="white"/>
<path d="M142.583 48.0218C142.614 48.2237 142.732 48.3838 142.911 48.3838H148.523C148.703 48.3838 148.821 48.2657 148.851 48.0218L149.766 44.7602L142.034 44.562L142.583 48.0218Z" fill="white"/>
<path d="M131.788 48.3838H137.397C137.576 48.3838 137.698 48.2237 137.728 48.0218L138.289 44.4629L130.405 44.261L131.457 48.0218C131.487 48.2657 131.605 48.3838 131.788 48.3838Z" fill="white"/>
<path d="M55.6803 49.4812C57.0493 49.4868 58.4107 49.2785 59.7154 48.8639C59.8001 48.8346 59.8736 48.7795 59.9255 48.7064C59.9774 48.6333 60.0052 48.5459 60.005 48.4562V42.4397L44.2416 42.032C46.2573 46.5777 50.2544 49.4812 55.6803 49.4812Z" fill="white"/>
<path d="M9.90663 57.5361H7.41467V56.393C7.41467 56.1911 7.29655 56.0882 7.0565 56.0882H6.5421C6.30205 56.0882 6.18393 56.1911 6.18393 56.393V61.4722C6.18393 61.6741 6.30205 61.777 6.5421 61.777H7.0565C7.29655 61.777 7.41467 61.6741 7.41467 61.4722V59.99H6.69833V58.4658H9.90663V61.6551C9.90663 62.7982 9.20553 63.3659 7.79952 63.3659H5.78385C4.37783 63.3659 3.67673 62.7982 3.67673 61.6551V56.2101C3.67673 55.0721 4.3791 54.5018 5.78385 54.4993H7.81476C9.2195 54.4993 9.92188 55.0695 9.92188 56.2101L9.90663 57.5361Z" fill="#808184"/>
<path d="M36.5222 63.3429L36.2365 62.0207H34.0303L33.7293 63.3429H31.264L33.6302 54.4839H36.6785L39.0447 63.3429H36.5222ZM34.4189 60.2947H35.8516L35.1467 57.1092L34.4189 60.2947Z" fill="#808184"/>
<path d="M62.7637 63.3431H60.5309V54.4993H63.2514L64.7756 59.2317L66.2654 54.4993H68.9669V63.3431H66.7455V57.7266L65.6024 61.4417H63.884L62.7409 57.7571L62.7637 63.3431Z" fill="#808184"/>
<path d="M91.0406 54.4993H93.5479V63.3431H91.0406V54.4993Z" fill="#808184"/>
<path d="M119.805 54.4993H122.091V63.3431H119.95L117.9 58.6945V63.3431H115.613V54.4993H117.74L119.79 59.2317L119.805 54.4993Z" fill="#808184"/>
<path d="M150.329 57.5361H147.841V56.393C147.841 56.1911 147.723 56.0882 147.483 56.0882H146.969C146.729 56.0882 146.611 56.1911 146.611 56.393V61.4722C146.611 61.6741 146.729 61.777 146.969 61.777H147.46C147.7 61.777 147.818 61.6741 147.818 61.4722V59.99H147.102V58.4658H150.326V61.6551C150.326 62.7982 149.625 63.3659 148.222 63.3659H146.188C144.782 63.3659 144.08 62.7982 144.08 61.6551V56.2101C144.08 55.0721 144.783 54.5018 146.188 54.4993H148.222C149.625 54.4993 150.326 55.0695 150.326 56.2101L150.329 57.5361Z" fill="#808184"/>
</svg>
