<svg width="160" height="80" viewBox="0 0 160 80" fill="none" xmlns="http://www.w3.org/2000/svg">
<path d="M26.3423 9L0 24.1825V54.5474L26.3423 69.7299L52.6845 54.5474V24.1825L26.3423 9ZM49.0511 52.4712L26.3423 65.7072L3.50365 52.4712V26.2587L26.3423 13.1525L49.0511 26.2587V52.4712Z" fill="white"/>
<path d="M26.3422 15.3584L5.57988 27.2968V51.3032L26.3422 63.2416L47.1046 51.3032V27.4265L26.3422 15.3584ZM31.9221 56.4938V48.708L38.4104 41.1816L26.3422 47.5401L14.2741 41.0518L20.7624 48.5782V56.3641L8.824 49.4865H12.7169V28.7242H9.60259L20.7624 22.2359V38.7161L26.3422 42.0899L31.9221 38.7161V22.3657L43.0819 28.8539H39.8378V49.6163H43.7307L31.9221 56.4938Z" fill="white"/>
<path d="M138.719 23.6633H135.215V31.0599L133.917 32.6171L132.749 31.0599V23.6633H129.246V31.0599L132.23 34.8231L129.246 38.5863V45.8531H132.749V38.5863L133.917 36.8993L135.215 38.5863V45.8531H138.719V38.5863L135.734 34.8231L138.719 31.0599V23.6633Z" fill="white"/>
<path d="M155.588 42.3495V23.6633H152.084V42.3495V45.8531H155.588H160V42.3495H155.588Z" fill="white"/>
<path d="M126.131 23.6633H122.628V45.8531H126.131V23.6633Z" fill="white"/>
<path d="M103.552 27.167V23.6633H99.1403H95.6367V27.167V33.5255V37.0291V45.8531H99.1403V37.0291H103.552V33.5255H99.1403V27.167H103.552Z" fill="white"/>
<path d="M149.619 27.167V23.6633H145.207H141.703V27.167V33.5255V37.0291V42.3495V45.8531H145.207H149.619V42.3495H145.207V37.0291H149.619V33.5255H145.207V27.167H149.619Z" fill="white"/>
<path d="M116.918 23.6633H110.041V26.3884V27.167V34.304V37.8077V45.8531H113.544V37.8077H116.918C118.345 37.8077 119.513 36.6398 119.513 35.2124V34.4338V34.304V27.167V26.3884V26.2586C119.513 24.8312 118.345 23.6633 116.918 23.6633ZM116.01 34.304H113.544V27.167H116.01V34.304Z" fill="white"/>
<path d="M66.0503 33.0064H63.5847V23.6633H60.0811V33.0064V36.51V45.8531H63.5847V36.51H66.0503V45.8531H69.5539V23.6633H66.0503V33.0064Z" fill="white"/>
<path d="M88.7591 42.3495V23.6633H85.2555V42.3495V45.8531H88.7591H93.1711V42.3495H88.7591Z" fill="white"/>
<path d="M75.3933 23.6633C73.9659 23.6633 72.798 24.8312 72.798 26.2586V26.3884V27.167V36.8993V37.8077V45.8531H76.3017V37.8077H78.7672V45.8531H82.2709V37.8077V34.304V27.167V23.6633H78.7672H75.3933ZM78.6375 34.304H76.1719V27.167H78.6375V34.304Z" fill="white"/>
<path d="M60.9894 53.7687C61.1192 54.2877 61.5085 54.5473 62.4169 54.5473C63.3252 54.5473 63.5847 54.2877 63.5847 53.8984C63.5847 53.5091 63.3252 53.2496 62.1573 53.1199C60.2109 52.7306 59.8216 52.0817 59.8216 51.3032C59.8216 50.1353 60.9894 49.6162 62.2871 49.6162C64.2336 49.6162 64.7526 50.6543 64.8824 51.3032H63.455C63.3252 51.0436 63.1954 50.6543 62.2871 50.6543C61.6383 50.6543 61.3787 50.9139 61.3787 51.1734C61.3787 51.4329 61.6383 51.6924 62.6764 51.8222C64.8824 52.2115 65.1419 52.8603 65.1419 53.6389C65.1419 54.677 64.3633 55.4556 62.4169 55.4556C60.6001 55.4556 59.8216 54.677 59.6918 53.6389H60.9894V53.7687Z" fill="white"/>
<path d="M67.4777 50.914H65.5312V49.7461H70.9813V50.914H69.0349V55.4557H67.4777V50.914Z" fill="white"/>
<path d="M73.1873 49.8757V53.1199C73.1873 54.2877 73.8361 54.5473 74.485 54.5473C75.2636 54.5473 75.6528 54.2877 75.6528 53.1199V49.8757H77.0803V53.1199C77.0803 54.8068 76.1719 55.7152 74.3552 55.7152C72.6683 55.7152 71.6301 54.9366 71.6301 53.2496V50.0055H73.1873V49.8757Z" fill="white"/>
<path d="M78.6374 49.8757H81.2327C83.1792 49.8757 84.2173 51.1734 84.2173 52.6008C84.2173 54.4175 82.9197 55.5854 81.2327 55.5854H78.6374V49.8757ZM79.9351 54.4175H80.8434C81.8816 54.4175 82.5304 53.7687 82.5304 52.6008C82.5304 51.5627 82.0113 50.9139 80.8434 50.9139H79.9351V54.4175Z" fill="white"/>
<path d="M86.6829 49.8757V55.5854H85.2555V49.8757H86.6829Z" fill="white"/>
<path d="M94.0795 52.7307C94.0795 54.2879 93.0413 55.7153 90.9651 55.7153C89.0186 55.7153 87.9805 54.4176 87.9805 52.7307C87.9805 51.1735 89.1484 49.7461 91.0949 49.7461C93.0413 49.7461 94.0795 51.1735 94.0795 52.7307ZM89.4079 52.6009C89.4079 53.639 89.927 54.5474 90.9651 54.5474C92.133 54.5474 92.5223 53.639 92.5223 52.7307C92.5223 51.6926 92.0032 50.914 90.9651 50.914C89.7972 50.7842 89.4079 51.6926 89.4079 52.6009Z" fill="white"/>
<path d="M96.1557 53.7687C96.2855 54.2877 96.6748 54.5473 97.5831 54.5473C98.4915 54.5473 98.751 54.2877 98.751 53.8984C98.751 53.5091 98.4915 53.2496 97.3236 53.1199C95.3771 52.7306 94.9878 52.0817 94.9878 51.3032C94.9878 50.1353 96.1557 49.6162 97.4534 49.6162C99.3998 49.6162 99.9189 50.6543 100.049 51.3032H98.6212C98.4915 51.0436 98.3617 50.6543 97.4534 50.6543C96.8045 50.6543 96.545 50.9139 96.545 51.1734C96.545 51.4329 96.8045 51.6924 97.8426 51.8222C100.049 52.2115 100.308 52.8603 100.308 53.6389C100.308 54.677 99.5296 55.4556 97.5831 55.4556C95.7664 55.4556 94.9878 54.677 94.8581 53.6389H96.1557V53.7687Z" fill="white"/>
</svg>
