<svg width="0" height="0" class="hidden">
	<symbol xmlns="http://www.w3.org/2000/svg" viewBox="0 0 766.4 593.2" id="horse">
		<defs>
		</defs>
		<path d="M752.43,355.74c-.7,21.79-27.4,23.89-27.4,23.89-3.1,7.23-8.69,9.78-15,9.78-15.24,0-34.84-14.7-34.84-14.7,14.22-19.62-43.92-78.37-83.39-78.36a35.86,35.86,0,0,0-4.43.26,34.78,34.78,0,0,1-4.38.27c-25,0-39.73-26.3-56.51-26.3-7.51,0-15.42,5.27-24.82,20.53-31.62,51.29-78.69,139.1-78.69,139.1,11.25,125.76-39.72,163-39.72,163C495.91,428.81,0,291.1,0,291.1c7.7.63,15,.9,21.85.9,47.1,0,74.4-12.85,74.4-12.85a64.19,64.19,0,0,1-20.1,3.28,66.44,66.44,0,0,1-42.43-15.92s18.16,4.87,36.81,4.87c22,0,44.77-6.8,39.07-36.48-5.34-27.76-33.39-34.61-59.77-34.61C24.14,200.3,0,206.8,0,206.8s35.18-19.06,87.29-19.06a214.81,214.81,0,0,1,66.58,10.63c23.71,7.71,42.12,10.76,55.89,10.76,36.42,0,40.33-21.4,23.5-34.65A32.55,32.55,0,0,0,212.72,167c-14.9,0-26.53,10.25-26.53,10.25s15.56-28.73,67.14-28.73c4.29,0,8.84.2,13.65.63,5.33.48,10.41.7,15.26.7,52.19,0,77.48-25.29,77.48-25.29a85.58,85.58,0,0,1-44.85,12.79c-58.09,0-106.2-58.45-106.2-58.45,20.53,20.86,50.41,28.67,75.89,28.67,27.72,0,50.23-9.23,49.86-20.94-.32-10.28-6.66-13.07-13.45-13.07-8.06,0-16.76,3.93-16.76,3.93C317.75,61.48,341.56,58,363.45,58c17.14,0,33.08,2.16,42,2.16,11.59,0,11.2-3.67-14.1-20.53-20.14-13.43-40-18.19-58-18.19-44.25,0-77.59,28.73-77.59,28.73S285.08,0,350.28,0c20.41,0,44.34,4.91,72,17.81,53.53,25,82.05,32.74,96.4,32.74,16.72,0,14.22-10.53,9.68-16.58-8.44-11.24-45-13.35-45-13.35A143.21,143.21,0,0,1,498,19.84c53.89,0,67.46,34.35,80.47,34.35,3.27,0,6.49-2.16,10.32-7.57,14.44-20.42,27.13-34.13,30.52-34.13,1.41,0,1.24,2.32-1,7.43-7.73,17.56-4.92,40.74-4.92,40.74C623,55.85,647.53,23.2,649.1,23.2c.26,0-.13.92-1.33,3C639.33,41,629.5,91.57,629.5,91.57c-7,16.86,20.38,35.83,38.65,56.91s14.05,23.88,14.05,23.88c14.06.71,6.33,17.57,57.61,100.47S752.43,355.74,752.43,355.74Z">
		</path>
		<path d="M195.54,191.24a18.57,18.57,0,0,0,1.75-1.35c1.9-1.61,8.66-6.06,15.42-6.06a15.82,15.82,0,0,1,10.14,3.85,13.9,13.9,0,0,1,2.28,2.19c-2.1,1-6.65,2.46-15.38,2.46A105.55,105.55,0,0,1,195.54,191.24Z">
		</path>
	</symbol>
	<symbol xmlns="http://www.w3.org/2000/svg" viewBox="0 0 698.93 618.55" id="diamond">
		<path d="M2,202,337,617.7,202.65,202Zm237,0L357.67,618.55,459.75,202ZM375.73,617.7,698.18,202H499.1L375.73,617.7Zm323.2-442.93L602.25,9.47l-96.72,165.3ZM571.85,0H378.45l96.68,171ZM445.4,174.77,348.72,9.47,252,174.77ZM320.42,0H127.05l96.7,171L320.43,0ZM96.68,9.48,0,174.78H193.38L96.68,9.48Z">
		</path>
	</symbol>
	<symbol xmlns="http://www.w3.org/2000/svg" viewBox="0 0 800 800" id="football">
		<path d="M400,0C179.45,0,0,179.44,0,400S179.45,800,400,800,800,620.56,800,400,620.56,0,400,0Zm18.75,114L549.81,70a364,364,0,0,1,118,85.89l-.24,139.45L551.25,323.5l-132.5-96.27ZM249.31,70.39l131.94,43.66V227.23L248.75,323.5,133.27,295.35,133,163.76a12.3,12.3,0,0,0-1.94-6.59A364.32,364.32,0,0,1,249.31,70.39ZM84.16,577.63A359.53,359.53,0,0,1,39.71,439.85l82.06-108.74,115.57,28.17,50.53,155.5L215.51,620.92ZM469.63,755.94a361.24,361.24,0,0,1-146.51-1.7L245.71,643.55l72.54-106H481.63l65.74,105.82Zm108.1-135.13-65.62-106,50.55-155.55L679,331.1,760.5,438.22a359.68,359.68,0,0,1-43.21,136.92Z">
		</path>
	</symbol>
	<symbol xmlns="http://www.w3.org/2000/svg" viewBox="0 0 466.67 733.33" id="mobile">
		<path d="M350,0H116.67A116.66,116.66,0,0,0,0,116.67v500A116.66,116.66,0,0,0,116.67,733.33H350A116.67,116.67,0,0,0,466.67,616.67v-500A116.67,116.67,0,0,0,350,0ZM283.33,666.67h-100A16.67,16.67,0,0,1,166.67,650h0a16.67,16.67,0,0,1,16.66-16.67h100A16.67,16.67,0,0,1,300,650h0A16.67,16.67,0,0,1,283.33,666.67Zm108.34-100H75A16.68,16.68,0,0,1,58.33,550V116.67A16.67,16.67,0,0,1,75,100H391.67a16.66,16.66,0,0,1,16.66,16.67V550A16.67,16.67,0,0,1,391.67,566.67Z">
		</path>
	</symbol>
	<symbol xmlns="http://www.w3.org/2000/svg" viewBox="0 0 755.6 782.5" id="games">
		<path d="M136.4,412.79v.46h84V228.63h-84Z">
		</path>
		<path d="M262.31,229.13V413.25h84V228.63h-84Z">
		</path>
		<path d="M388.23,229.13V413.25h84V228.63h-84Z">
		</path>
		<path d="M692.59,126.09c-34.77,0-63,27.55-63,61.54,0,26.79,17.52,49.58,42,58v126.6h-63V229.67a167.18,167.18,0,0,0-41.06-109.75C428.47-40,180.17-40,41.06,119.92A167.14,167.14,0,0,0,0,229.66V700.45c0,45.31,37.59,82,84,82H524.69c46.37,0,83.95-36.74,83.95-82V413.25h84.45a20.52,20.52,0,0,0,20.51-20.52V245.66c24.45-8.45,42-31.25,42-58C755.56,153.64,727.37,126.09,692.59,126.09ZM194.7,143.57c.17-1.46.37-2.91.59-4.35h0c0-.22.06-.44.1-.66h0c.22-1.42.48-2.83.76-4.23l.09-.48h0a109.82,109.82,0,0,1,26.89-52.57h0l0,0h0c1-1.09,2-2.16,3.07-3.21h0l.16-.16q3.14-3.12,6.51-6l.31-.27h0c1-.82,2-1.62,3-2.4h0l.8-.63h0c1.12-.86,2.25-1.69,3.39-2.51l.37-.26h0c.93-.65,1.86-1.29,2.81-1.92h0l.6-.4h0q3.61-2.35,7.43-4.43h0l.16-.09q2.1-1.14,4.26-2.2h0a109.71,109.71,0,0,1,48-11.12h.28c2.25,0,4.51.07,6.78.21h.16l2.63.2c.94.08,1.88.18,2.82.28,1.59.19,3.18.4,4.75.65.8.12,1.59.28,2.39.42s1.54.26,2.3.42c1.34.27,2.66.57,4,.89l.62.14c1.5.37,3,.77,4.47,1.2l.06,0a110.23,110.23,0,0,1,17.26,6.66l0,0h0c1.08.52,2.14,1.08,3.2,1.64l.58.29h0l1.22.68c.94.52,1.88,1.05,2.81,1.59h0l.81.49h0c1.1.66,2.18,1.34,3.25,2h0c.19.13.38.27.58.39h0c.95.62,1.89,1.27,2.83,1.93h0c2.18,1.54,4.29,3.16,6.35,4.85.39.32.78.62,1.16,1h0c2.34,2,4.61,4,6.78,6.22h0c1.11,1.12,2.21,2.26,3.28,3.42h0c.94,1,1.85,2.06,2.75,3.11l.88,1c.6.73,1.2,1.47,1.79,2.21l1,1.23c.55.73,1.1,1.46,1.64,2.2l.88,1.22c.63.88,1.23,1.78,1.83,2.68.18.27.37.53.54.8.75,1.14,1.47,2.3,2.17,3.47.25.42.49.85.74,1.28.46.78.91,1.57,1.34,2.36.28.51.56,1,.83,1.54q.59,1.11,1.14,2.22l.79,1.6c.38.8.75,1.61,1.12,2.41.21.49.44,1,.65,1.45.53,1.22,1,2.45,1.52,3.7.21.53.4,1.08.61,1.62.29.78.58,1.56.85,2.35.22.62.42,1.25.62,1.87s.47,1.46.7,2.19.39,1.29.57,1.94.42,1.52.62,2.29.33,1.24.48,1.86c.31,1.28.6,2.56.86,3.85.66,3.21,1.19,6.48,1.56,9.79a11.11,11.11,0,0,1-9.85,12.23c-.39,0-.77.06-1.16.07h0c-.35,0-.7,0-1.05-.05a3.85,3.85,0,0,1-.49-.07,5,5,0,0,1-.56-.08c-.17,0-.34-.08-.5-.12l-.53-.13a4.5,4.5,0,0,1-.48-.16c-.17-.06-.34-.11-.51-.18l-.46-.2-.48-.22-.45-.25-.45-.27-.42-.28-.43-.31-.38-.31-.41-.36-.35-.34-.37-.41-.32-.36-.34-.45c-.09-.13-.19-.25-.28-.39l-.3-.48-.24-.41c-.09-.17-.18-.35-.26-.53s-.13-.28-.19-.42a6,6,0,0,1-.23-.59c-.05-.14-.1-.27-.14-.41s-.13-.46-.19-.69l-.09-.35c-.07-.36-.13-.72-.17-1.09-.15-1.33-.34-2.64-.55-3.94l-.06-.34q-.3-1.86-.69-3.69c0-.16-.07-.33-.1-.5-.26-1.19-.54-2.36-.84-3.53l-.15-.56c-.31-1.16-.64-2.3-1-3.43,0-.18-.11-.37-.17-.55-.36-1.14-.74-2.27-1.15-3.38-.05-.16-.11-.31-.17-.47-.42-1.14-.86-2.28-1.33-3.39l-.12-.29q-1.5-3.56-3.28-6.91a2.26,2.26,0,0,0-.11-.22c-.57-1.08-1.17-2.14-1.79-3.19-.07-.12-.13-.24-.2-.35q-.92-1.55-1.89-3c-.08-.13-.16-.26-.25-.39-.65-1-1.32-2-2-2.92l-.26-.36c-.7-1-1.42-1.92-2.15-2.86l-.22-.27c-.77-1-1.55-1.91-2.35-2.84l-.1-.12a89.06,89.06,0,0,0-8.15-8.22l-.13-.12c-.94-.82-1.89-1.62-2.85-2.41l-.19-.15c-1-.77-1.95-1.53-2.94-2.27l-.18-.13c-1-.74-2-1.46-3.08-2.16l-.1-.07a88,88,0,0,0-17.39-9h0c-1.22-.47-2.46-.91-3.71-1.33h0A87.59,87.59,0,0,0,304.32,68c-1.26,0-2.51,0-3.75.09l-1.08.05c-.75,0-1.48.1-2.22.16-.9.07-1.79.15-2.69.25l-.64.08c-1.19.14-2.38.3-3.55.49h0A88.09,88.09,0,0,0,216.84,146a11.1,11.1,0,0,1-9.06,9.83h-.07a8.91,8.91,0,0,1-1.17.14h-.19c-.21,0-.43,0-.64,0h0c-.19,0-.37,0-.56,0l-.45,0c-.39,0-.77-.1-1.14-.17h0a9.34,9.34,0,0,1-1-.27l-.38-.13a6.56,6.56,0,0,1-.62-.23l-.41-.19-.54-.26c-.14-.07-.27-.16-.41-.24s-.33-.19-.49-.3-.26-.18-.39-.27l-.45-.34-.36-.31-.42-.38-.33-.34-.37-.41c-.11-.12-.21-.25-.31-.37l-.33-.45-.27-.4c-.1-.15-.19-.31-.29-.48s-.15-.27-.23-.41l-.24-.52c-.07-.14-.13-.28-.19-.42s-.14-.37-.2-.55-.11-.29-.15-.44-.1-.39-.15-.59a3.13,3.13,0,0,1-.1-.44,6.37,6.37,0,0,1-.1-.63c0-.14,0-.28-.06-.42s0-.48,0-.72,0-.24,0-.36a10.14,10.14,0,0,1,.06-1.1,1.5,1.5,0,0,1,0-.22ZM324.23,136v0a19.92,19.92,0,1,1-19.92-19.92A19.92,19.92,0,0,1,324.23,136ZM445.51,577.37c-.6,0-1.21,0-1.81,0H164.92a20.52,20.52,0,0,1,0-41H443.7a20.52,20.52,0,1,1,1.81,41ZM514.2,392.75c0,34-28.19,61.54-63,61.54H157.41c-34.78,0-63-27.55-63-61.54V249.16c0-34,28.19-61.53,63-61.53H451.23c34.78,0,63,27.55,63,61.53Z">
		</path>
	</symbol>
	<symbol xmlns="http://www.w3.org/2000/svg" viewBox="0 0 649.91 504.87" id="camera">
		<defs>
		</defs>
		<path d="M456.21,218.9h-9.38a127,127,0,0,1-189.07,0h-27a127,127,0,0,1-188.36.77C18.24,223.27,0,239.26,0,258.46V465.31c0,21.85,23.64,39.56,52.79,39.56H456.21c29.15,0,52.79-17.71,52.79-39.56V258.46C509,236.61,485.36,218.9,456.21,218.9Z">
		</path>
		<path d="M537.77,301.34l70.79-62.85a28,28,0,0,1,16-7.13c1-.09,2-.13,3-.13h0c12.37,0,22.39,6.85,22.39,15.31V477.22c0,8.46-10,15.32-22.39,15.32h0a32.57,32.57,0,0,1-4.44-.3A27.88,27.88,0,0,1,609,485.77L535.78,424c-.54-.47-1.12-.89-1.69-1.33-3.65-2.8-5.69-6.43-5.69-10.2V314.67c0-3.64,1.9-7.14,5.3-9.9Z">
		</path>
		<circle cx="133.98" cy="112.53" r="112.53">
		</circle>
		<circle cx="352.29" cy="134" r="91.07">
		</circle>
	</symbol>
	<symbol xmlns="http://www.w3.org/2000/svg" viewBox="0 0 799.96 529.3" id="cyber">
		<defs>
		</defs>
		<path d="M367.59,47.85h-51.5a110.09,110.09,0,0,0-33.2-30.4C263.48,5.79,240.83,0,218.24,0a126.23,126.23,0,0,0-64.65,17.45,112.52,112.52,0,0,0-33.4,30.47h-1.82V48a16.14,16.14,0,0,0-11.59,4.88c-74.87,76-114.26,242.91-105.6,354.5,2.41,30.79,8.46,57.81,18.42,78.32,11.27,23.3,27.67,38.6,49.55,42.64,27.86,5.14,62.69-9.57,104.56-52.21,5.33-5.41,10.93-10.88,16.6-16.47,19.59-19.21,40.17-39.46,57.61-64.07H552c17.38,24.42,38,44.66,57.48,63.87,5.73,5.66,11.33,11.2,16.73,16.67,41.87,42.64,76.7,57.35,104.56,52.21,21.88-4,38.22-19.34,49.55-42.64,10-20.45,16-47.53,18.42-78.32,8.66-111.07-30.34-277-104.62-353.45A16.38,16.38,0,0,0,681.58,48h-1.75a110.86,110.86,0,0,0-33.34-30.47,128.29,128.29,0,0,0-129.16,0A111.64,111.64,0,0,0,484,48H400.2Zm-85.36,197.4H228v54.23H174.81V245.25H120.58V192.06h54.23V137.83H228v54.23h54.23Zm241.22-15a30.62,30.62,0,1,1,0-43.3A30.58,30.58,0,0,1,523.45,230.21Zm68.16,61.07a30.61,30.61,0,1,1,0-43.3A30.56,30.56,0,0,1,591.61,291.28Zm0-115.63a30.61,30.61,0,1,1,0-43.29A30.56,30.56,0,0,1,591.61,175.65Zm68.1,54.56a30.62,30.62,0,1,1,0-43.3A30.58,30.58,0,0,1,659.71,230.21Z">
		</path>
		<path d="M674.62,80.6H671.1v-.07a16,16,0,0,1-13.93-7.94,78.85,78.85,0,0,0-27.41-27.21,93.47,93.47,0,0,0-47.92-12.76c-16.86,0-33.66,4.23-47.91,12.76a79,79,0,0,0-26.76,26.17,16.27,16.27,0,0,1-14.58,9H307.43v-.06a16,16,0,0,1-13.93-7.94,78.32,78.32,0,0,0-27.28-27.15,95.74,95.74,0,0,0-96,0,79.74,79.74,0,0,0-26.83,26.17,16.27,16.27,0,0,1-14.58,9h-3.52C59.84,152.28,25.72,302.86,33.67,405c2.08,26.82,7.09,49.93,15.23,66.6,6.77,13.87,15.43,22.85,26.11,24.8,17.38,3.19,42.12-9.05,75.52-43,5.53-5.6,11.2-11.2,17-16.86,20-19.66,41.21-40.5,57.49-64.85A16.22,16.22,0,0,1,239.4,363H560.62v.07a16.13,16.13,0,0,1,13.54,7.29c16.54,25,38,46.09,58.2,66,5.86,5.73,11.59,11.4,17.13,17.06,33.33,34,58.14,46.22,75.52,43,10.67-2,19.4-10.93,26.1-24.8,8.14-16.73,13.16-39.78,15.24-66.6C774.29,302.86,740.18,152.28,674.62,80.6ZM282.23,245.25H228v54.23H174.81V245.25H120.58V192.06h54.23V137.83H228v54.23h54.23Zm241.22-15a30.62,30.62,0,1,1,0-43.3A30.58,30.58,0,0,1,523.45,230.21Zm68.16,61.07a30.61,30.61,0,1,1,0-43.3A30.56,30.56,0,0,1,591.61,291.28Zm0-115.63a30.61,30.61,0,1,1,0-43.29A30.56,30.56,0,0,1,591.61,175.65Zm68.1,54.56a30.62,30.62,0,1,1,0-43.3A30.58,30.58,0,0,1,659.71,230.21Z">
		</path>
	</symbol>
	<symbol xmlns="http://www.w3.org/2000/svg" viewBox="0 0 236.43 237.8" id="dealer">
		<defs>
		</defs>
		<path d="M200.05,27.78a3.56,3.56,0,0,0,3.56-4A27.41,27.41,0,0,0,176.84,0H27.42A27.62,27.62,0,0,0,0,27.78V178.22a27.61,27.61,0,0,0,23.36,27.45,3.56,3.56,0,0,0,4.06-3.55V57.65A29.88,29.88,0,0,1,57.29,27.78Z">
		</path>
		<path d="M209.43,31.8H60A27.62,27.62,0,0,0,32.59,59.58V210A27.62,27.62,0,0,0,60,237.8H209A27.62,27.62,0,0,0,236.43,210V59.58A27.4,27.4,0,0,0,209.43,31.8Zm-127,24.76A27.23,27.23,0,0,1,110.2,83.24v.55A27.24,27.24,0,1,1,82.44,56.56ZM83.5,213.94a27.24,27.24,0,1,1,26.7-27.77v.53a27,27,0,0,1-26.69,27.24Zm51.57-51.46H135a27.32,27.32,0,1,1,26.7-27.95v.53a27,27,0,0,1-26.57,27.42h0Zm51.34,51.46a27.24,27.24,0,1,1,26.7-27.77v.53a27,27,0,0,1-26.69,27.24Zm0-102.91a27.24,27.24,0,1,1,26.7-27.77v.53A27,27,0,0,1,186.42,111Z">
		</path>
	</symbol>
</svg>
