<svg width="160" height="80" viewBox="0 0 160 80" fill="none" xmlns="http://www.w3.org/2000/svg">
<path d="M53.2759 57.2868C52.6921 57.1946 52.1206 57.0655 51.5613 56.8811C50.5104 56.5307 49.5763 55.9959 48.7221 55.289C47.9969 54.6927 47.3701 54.0042 46.7924 53.2666C46.7739 53.242 46.7555 53.2174 46.7371 53.199C46.5281 52.9469 46.6264 52.9777 46.27 52.9777C43.2832 52.9777 40.2904 52.9777 37.3036 52.9715C36.8796 52.9715 36.9226 53.0207 36.9226 52.5965C36.9287 50.2729 36.9287 47.9555 36.9349 45.6319C36.9349 45.2754 36.9164 45.3061 37.279 45.3061C37.869 45.3061 38.459 45.3061 39.049 45.3061C39.1288 45.3061 39.2087 45.2999 39.2825 45.2999C39.3255 45.2999 39.3562 45.2692 39.3562 45.2262C39.3624 45.1401 39.3685 45.0479 39.3685 44.9619C39.3685 43.505 39.3685 42.0481 39.3685 40.5974C39.3685 40.0995 39.4054 40.1733 39.7803 40.1733C42.5458 40.1733 45.3051 40.1733 48.0706 40.1733C48.4763 40.1733 48.4394 40.1302 48.4394 40.5298C48.4394 42.0051 48.4394 43.4804 48.4455 44.9557C48.4455 45.343 48.4087 45.3122 48.7897 45.3122C49.564 45.3122 50.3445 45.3122 51.1189 45.3122C51.3831 45.3122 51.3831 45.3122 51.3831 45.0541C51.3831 44.9373 51.3831 44.8205 51.3831 44.6975C51.3831 40.4868 51.3831 36.2822 51.3831 32.0714C51.3831 31.6227 51.4323 31.6719 50.9959 31.6719C50.2585 31.6719 49.521 31.6719 48.7835 31.6719C48.7036 31.6719 48.6237 31.6719 48.55 31.678C48.4947 31.678 48.4578 31.7087 48.4517 31.7702C48.4455 31.8563 48.4455 31.9485 48.4455 32.0345C48.4455 33.6574 48.4455 35.2802 48.4394 36.903C48.4394 36.9706 48.4394 37.0383 48.4394 37.112C48.4332 37.2657 48.4209 37.2719 48.2673 37.278C48.1874 37.278 48.1075 37.278 48.0338 37.278C45.7046 37.278 43.3754 37.278 41.0463 37.278C40.5915 37.278 40.1429 37.278 39.6881 37.2719C39.6266 37.2719 39.5713 37.2719 39.5099 37.2657C39.4546 37.2596 39.4238 37.2227 39.4177 37.1735C39.4115 37.0874 39.4115 36.9952 39.4115 36.9092C39.4115 35.2863 39.4115 33.6635 39.4115 32.0407C39.4115 31.6411 39.4484 31.678 39.049 31.678C38.459 31.678 37.869 31.678 37.279 31.678C37.1991 31.678 37.1192 31.678 37.0455 31.6719C36.9902 31.6657 36.9533 31.6411 36.9472 31.5796C36.941 31.4813 36.941 31.3829 36.941 31.2846C36.941 28.9733 36.941 26.662 36.941 24.3507C36.941 24.2339 36.941 24.1171 36.9349 23.9941C40.7451 24.0003 44.5615 24.0003 48.3779 24.0003C48.4885 24.0618 48.6115 24.031 48.7282 24.031C52.3971 24.031 56.0599 24.031 59.7288 24.031C59.8394 24.0679 59.9869 23.9511 60.0668 24.1171C59.6428 25.0822 59.2187 26.0411 58.7947 27.0062C58.008 28.7889 57.2276 30.5654 56.4409 32.348C55.894 33.5897 55.347 34.8315 54.8001 36.0732C54.7632 36.1592 54.6956 36.2391 54.7079 36.3498C55.261 36.3068 55.8018 36.3682 56.3487 36.4358C57.1968 36.5465 58.0265 36.7493 58.8377 37.0321C60.1283 37.487 61.3144 38.1324 62.3591 39.0238C63.5391 40.0319 64.4179 41.2613 64.9771 42.712C65.2905 43.5234 65.4872 44.3594 65.5978 45.22C65.7023 46.0499 65.7146 46.892 65.6593 47.7219C65.5487 49.2402 65.1553 50.6848 64.4302 52.0249C63.5268 53.6907 62.2485 54.9939 60.5953 55.9221C59.4584 56.5614 58.2477 56.9671 56.9633 57.1638C56.699 57.2069 56.4409 57.2376 56.1767 57.2745C56.0783 57.3175 55.98 57.2868 55.8817 57.2991C55.7649 57.2991 55.6481 57.2991 55.5314 57.2991C55.3347 57.3175 55.1319 57.2622 54.9414 57.3298C54.8799 57.3298 54.8246 57.3298 54.7632 57.3298C54.4559 57.2622 54.1486 57.3175 53.8413 57.2991C53.7369 57.2991 53.6385 57.2991 53.5341 57.2991C53.4357 57.3052 53.3497 57.3298 53.2759 57.2868Z" fill="#EFB433"/>
<path d="M88.3793 24C88.3793 24.0984 88.3732 24.1967 88.3732 24.2951C88.3732 26.6555 88.3732 29.016 88.3732 31.3765C88.3732 31.7761 88.4101 31.7392 88.0106 31.7392C86.2284 31.7392 84.4523 31.7392 82.6701 31.7392C81.6192 31.7392 80.5683 31.7269 79.5113 31.7392C78.5772 31.7453 77.6738 31.9174 76.8011 32.2248C76.4385 32.3539 76.1128 32.5567 75.7871 32.7596C74.9759 33.276 74.2814 33.9214 73.7037 34.6959C73.292 35.2492 73.0154 35.8639 72.8802 36.5401C72.7204 37.3146 72.6344 38.0953 72.6959 38.8821C72.7635 39.6997 72.8864 40.4988 73.2182 41.261C73.4702 41.8327 73.8143 42.3429 74.2015 42.8285C74.8591 43.6522 75.6949 44.2485 76.6413 44.685C77.0653 44.8817 77.514 44.9862 77.9687 45.0661C78.6693 45.1829 79.3761 45.2259 80.0828 45.2259C82.7561 45.232 85.4295 45.2443 88.1089 45.2505C88.3978 45.2505 88.4039 45.2505 88.4039 45.5394C88.4039 47.0762 88.4039 48.6068 88.4039 50.1436C88.4039 50.9427 88.4162 51.7357 88.4285 52.5348C88.4285 52.6024 88.4285 52.67 88.4285 52.7438C88.4224 52.9221 88.4101 52.9405 88.2196 52.9466C88.152 52.9466 88.0844 52.9466 88.0106 52.9466C81.2259 52.9466 74.4412 52.9466 67.6565 52.9466C67.5397 52.9466 67.423 52.9651 67.3123 52.9282C67.2878 52.8667 67.3308 52.8298 67.3554 52.793C68.5046 51.3914 69.1683 49.7686 69.5678 48.0228C69.7275 47.3221 69.832 46.6151 69.8996 45.9021C69.9672 45.146 69.9979 44.3899 69.9611 43.6338C69.9058 42.4413 69.7398 41.2672 69.3895 40.1238C68.9839 38.7899 68.3571 37.5789 67.4721 36.497C66.6978 35.5504 65.7821 34.7697 64.7373 34.1427C63.3853 33.3313 61.9288 32.7842 60.3801 32.4953C60.1097 32.4461 59.8393 32.3969 59.5628 32.3785C59.3784 32.3662 59.3661 32.3416 59.4399 32.1572C59.7164 31.4749 59.993 30.7925 60.2695 30.1041C60.5522 29.4094 60.8288 28.721 61.1115 28.0263C61.136 27.971 61.1545 27.9157 61.1791 27.8604C61.2036 27.7989 61.2528 27.7682 61.3143 27.7682C61.3819 27.7682 61.4495 27.7682 61.5232 27.7682C63.4529 27.7682 65.3765 27.7805 67.3062 27.7559C68.5722 27.7374 69.8443 27.7436 71.1103 27.7374C71.1472 27.7374 71.1902 27.7374 71.2271 27.7374C71.307 27.7374 71.3561 27.7005 71.393 27.6329C71.4483 27.5284 71.5036 27.4239 71.5589 27.3194C72.0997 26.2806 72.6405 25.2479 73.1814 24.209C73.2059 24.1598 73.2428 24.1106 73.2735 24.0615C73.378 24.0123 73.4886 24.0369 73.5931 24.0369C77.2497 24.0369 80.9002 24.0369 84.5568 24.0369C84.6736 24.0369 84.7903 24.0676 84.901 24.0061C86.0563 24 87.2178 24 88.3793 24Z" fill="#EFB433"/>
<path d="M2.35365 45.1768C2.33522 45.1952 2.31678 45.2321 2.29834 45.2383C2.24303 45.2506 2.18158 45.2506 2.12627 45.2506C1.41952 45.2506 0.712783 45.2444 0.00604248 45.2444C0.00604248 40.9353 0.00604248 36.6262 0.00604248 32.3232C0.0490615 32.3232 0.0920805 32.3294 0.128954 32.3294C0.258011 32.4954 0.214992 32.6859 0.214992 32.8703C0.214992 36.743 0.214992 40.6218 0.214992 44.4945C0.214992 45.0907 0.214992 45.0907 0.811113 45.0907C1.20443 45.0907 1.59775 45.0907 1.99106 45.0907C2.11397 45.0907 2.24918 45.0846 2.35365 45.1768Z" fill="#EFB433"/>
<path d="M159.711 33.0307C159.613 33.2888 159.521 33.547 159.422 33.8052C159.404 33.8605 159.379 33.9158 159.355 33.9712C159.336 34.0142 159.299 34.0265 159.263 34.0265C159.219 34.0265 159.183 34.008 159.17 33.9712C159.133 33.8789 159.097 33.7867 159.066 33.6945C158.98 33.4364 158.894 33.1782 158.808 32.9261C158.789 32.9261 158.771 32.92 158.771 32.92C158.765 32.9262 158.765 32.9384 158.765 32.9507C158.746 33.1843 158.728 33.4179 158.709 33.6577C158.703 33.7437 158.703 33.8359 158.697 33.922C158.691 34.0019 158.654 34.0388 158.593 34.0326C158.513 34.0203 158.513 33.9589 158.513 33.9035C158.513 33.7867 158.519 33.6699 158.525 33.5532C158.543 33.2519 158.568 32.9446 158.587 32.6434C158.593 32.5819 158.605 32.5266 158.679 32.5143C158.783 32.502 158.851 32.5204 158.881 32.5881C158.906 32.6434 158.925 32.6987 158.943 32.754C159.047 33.0491 159.146 33.3442 159.25 33.6454C159.33 33.6392 159.324 33.5716 159.342 33.5224C159.441 33.2458 159.545 32.9692 159.637 32.6926C159.687 32.5389 159.779 32.4959 159.926 32.5204C159.994 32.5635 159.957 32.6311 159.963 32.6864C159.963 32.7602 159.963 32.8339 159.963 32.9077C159.975 32.9938 159.932 33.0798 159.994 33.1597C159.994 33.4548 159.994 33.7499 159.994 34.0449C159.932 34.0449 159.877 34.0449 159.865 33.965C159.846 33.8421 159.834 33.7191 159.828 33.5962C159.822 33.4917 159.816 33.3872 159.809 33.2827C159.766 33.2028 159.803 33.1167 159.773 33.0368C159.766 33.0245 159.797 32.9569 159.736 33.0061C159.73 32.9999 159.723 33.0184 159.711 33.0307Z" fill="#EFB433"/>
<path d="M84.8948 24C84.8702 24.0307 84.8395 24.0553 84.7965 24.0553C84.7289 24.0553 84.6613 24.0615 84.5875 24.0615C80.8817 24.0615 77.176 24.0615 73.4702 24.0615C73.4026 24.0615 73.335 24.0615 73.2613 24.0553C73.2613 24.0369 73.2613 24.0184 73.2674 24C77.1514 24 81.0231 24 84.8948 24Z" fill="#EFB433"/>
<path d="M59.7718 24.0553C59.655 24.0553 59.5382 24.0615 59.4153 24.0615C55.857 24.0615 52.2987 24.0615 48.7405 24.0615C48.6544 24.0615 48.5622 24.0615 48.4762 24.0553C48.4332 24.0553 48.4025 24.0307 48.3779 24C52.1758 24 55.9677 24 59.7656 24C59.7841 24.0123 59.7902 24.0184 59.7841 24.0307C59.7779 24.0492 59.7718 24.0553 59.7718 24.0553Z" fill="#EFB433"/>
<path d="M53.7982 57.2871C54.0502 57.2871 54.3083 57.2871 54.5603 57.2809C54.6279 57.2809 54.7016 57.2748 54.7446 57.3424C54.4312 57.3424 54.1178 57.3424 53.7982 57.3424C53.7798 57.3301 53.7737 57.3178 53.7798 57.3055C53.7921 57.2932 53.7982 57.2871 53.7982 57.2871Z" fill="#EFB433"/>
<path d="M54.929 57.3418C54.9659 57.2864 55.0273 57.2803 55.0827 57.2803C55.2301 57.2803 55.3715 57.2803 55.519 57.2803C55.5374 57.2926 55.5436 57.3049 55.5313 57.3172C55.5251 57.3295 55.519 57.3356 55.5128 57.3356C55.3223 57.3418 55.1257 57.3418 54.929 57.3418Z" fill="#EFB433"/>
<path d="M59.7718 24.0553C59.7718 24.0369 59.7656 24.0184 59.7656 24C59.8824 24 59.9992 24 60.1221 24C60.1098 24.043 60.1098 24.0922 60.0668 24.1168C60.036 24.0738 59.993 24.0615 59.9438 24.0553C59.8824 24.0615 59.8271 24.0553 59.7718 24.0553Z" fill="#EFB433"/>
<path d="M55.519 57.3424C55.519 57.324 55.519 57.3056 55.5252 57.2871C55.642 57.2871 55.7587 57.2871 55.8816 57.2871C55.9001 57.2994 55.9001 57.3117 55.8939 57.324C55.8878 57.3363 55.8816 57.3424 55.8755 57.3424C55.7526 57.3424 55.6358 57.3424 55.519 57.3424Z" fill="#EFB433"/>
<path d="M53.7982 57.2871C53.7982 57.3056 53.8043 57.324 53.8043 57.3424C53.706 57.3424 53.6077 57.3424 53.5094 57.3424C53.4909 57.3301 53.4848 57.3178 53.4909 57.3055C53.4971 57.2933 53.5032 57.2871 53.5094 57.2871C53.6015 57.2871 53.6999 57.2871 53.7982 57.2871Z" fill="#EFB433"/>
<path d="M55.8694 57.3424C55.8694 57.324 55.8694 57.3056 55.8755 57.2871C55.9739 57.2871 56.0722 57.2871 56.1705 57.2871C56.1705 57.3056 56.1705 57.324 56.1705 57.3424C56.066 57.3424 55.9677 57.3424 55.8694 57.3424Z" fill="#EFB433"/>
<path d="M159.945 32.9073C159.945 32.8274 159.945 32.7536 159.951 32.6737C159.969 32.6491 159.987 32.6491 160 32.6737C160 32.7536 160 32.8335 160 32.9073C159.981 32.938 159.963 32.938 159.945 32.9073Z" fill="#EFB433"/>
<path d="M159.945 32.9072C159.963 32.9134 159.981 32.9134 160 32.9134C160 32.9933 160 33.0732 160 33.147C159.914 33.0793 159.945 32.9933 159.945 32.9072Z" fill="#EFB433"/>
<path d="M53.5033 57.2871C53.5094 57.3056 53.5094 57.324 53.5094 57.3424C53.4295 57.3424 53.3497 57.3424 53.2759 57.3424C53.2759 57.324 53.2759 57.3056 53.2759 57.2871C53.3497 57.2871 53.4295 57.2871 53.5033 57.2871Z" fill="#EFB433"/>
<path d="M160 32.6741C159.981 32.6741 159.963 32.6741 159.951 32.6741C159.945 32.6187 159.938 32.5634 159.932 32.5081C159.957 32.5081 159.981 32.502 160 32.502C160 32.5573 160 32.6187 160 32.6741Z" fill="#EFB433"/>
<path d="M112.581 36.319C112.513 36.6386 112.452 36.8845 112.402 37.1365C112.071 38.7409 111.739 40.3453 111.407 41.9558C111.198 42.9578 111.001 43.9598 110.792 44.9556C110.731 45.263 110.755 45.2322 110.454 45.2384C109.797 45.2384 109.139 45.2384 108.475 45.2384C108.426 45.2384 108.377 45.2384 108.328 45.2384C108.217 45.2322 108.187 45.1954 108.211 45.0909C108.31 44.6729 108.414 44.2487 108.518 43.8307C109.004 41.8636 109.489 39.9027 109.975 37.9418C110.282 36.7001 110.583 35.4645 110.885 34.2228C110.964 33.897 111.038 33.5712 111.167 33.2639C111.29 32.9811 111.444 32.7229 111.683 32.5201C112.034 32.225 112.691 32.1082 113.171 32.5447C113.441 32.7905 113.65 33.0856 113.822 33.4114C114.228 34.1982 114.633 34.9851 115.033 35.7719C116.035 37.7205 117.036 39.6691 118.044 41.6178C118.075 41.6792 118.112 41.7346 118.142 41.796C118.241 41.7714 118.253 41.6792 118.29 41.6178C118.984 40.2838 119.673 38.9438 120.361 37.6099C121.086 36.2022 121.818 34.8006 122.543 33.393C122.659 33.1655 122.795 32.9504 122.961 32.7537C122.967 32.7475 122.973 32.7352 122.979 32.7291C123.557 31.9484 124.54 32.2373 124.933 32.7537C125.099 32.9688 125.21 33.2024 125.271 33.4667C125.517 34.4871 125.775 35.5076 126.021 36.528C126.402 38.0893 126.783 39.6568 127.164 41.2243C127.465 42.4661 127.773 43.7016 128.074 44.9433C128.147 45.2384 128.147 45.2445 127.852 45.2445C127.201 45.2445 126.556 45.2507 125.904 45.2507C125.843 45.2507 125.788 45.2507 125.726 45.2507C125.64 45.2507 125.597 45.2077 125.585 45.1339C125.536 44.9126 125.486 44.6913 125.443 44.47C125.112 42.8841 124.78 41.2981 124.448 39.7122C124.22 38.6241 123.999 37.5361 123.772 36.4542C123.766 36.4358 123.753 36.4235 123.747 36.405C123.655 36.405 123.649 36.4911 123.624 36.5464C123.2 37.3455 122.782 38.1508 122.364 38.9499C121.4 40.7879 120.441 42.6259 119.476 44.4639C119.359 44.6852 119.212 44.8757 119.034 45.0478C118.56 45.4966 117.798 45.515 117.288 45.054C117.128 44.9065 116.999 44.7343 116.895 44.5438C116.502 43.7877 116.102 43.0316 115.703 42.2694C114.701 40.3638 113.699 38.4582 112.697 36.5526C112.667 36.4849 112.642 36.4358 112.581 36.319Z" fill="#EFB433"/>
<path d="M151.101 32.4341C152.705 32.4341 154.303 32.4341 155.907 32.4341C155.993 32.4341 156.085 32.4341 156.171 32.4402C156.245 32.4402 156.276 32.4894 156.276 32.557C156.276 32.6246 156.276 32.6923 156.276 32.766C156.276 33.2947 156.276 33.8295 156.276 34.3581C156.276 34.438 156.276 34.5179 156.269 34.5917C156.263 34.6347 156.239 34.6655 156.196 34.6655C156.097 34.6716 155.999 34.6716 155.901 34.6716C153.707 34.6716 151.519 34.6716 149.325 34.6716C148.44 34.6716 147.555 34.6716 146.67 34.6716C146.455 34.6716 146.24 34.6716 146.025 34.7392C145.773 34.813 145.558 34.9359 145.361 35.1081C144.851 35.5568 144.851 36.5772 145.558 36.9952C145.865 37.1735 146.191 37.2473 146.541 37.2657C146.627 37.2718 146.719 37.2657 146.805 37.2657C148.735 37.2657 150.658 37.2718 152.588 37.2657C153.307 37.2657 153.996 37.3825 154.665 37.6345C155.151 37.8189 155.587 38.0771 155.962 38.4336C156.239 38.6918 156.466 38.9869 156.626 39.3311C157.148 40.4622 157.222 41.6301 156.767 42.7919C156.374 43.8062 155.636 44.5008 154.616 44.8881C154.137 45.0725 153.639 45.1647 153.123 45.1954C152.619 45.2262 152.121 45.2262 151.617 45.2262C148.803 45.2262 145.994 45.2262 143.179 45.2262C142.737 45.2262 142.78 45.2569 142.78 44.8328C142.78 44.3287 142.78 43.8308 142.78 43.3267C142.78 43.2468 142.78 43.1669 142.786 43.0931C142.786 43.0378 142.823 43.0009 142.878 42.9948C142.946 42.9886 143.013 42.9886 143.087 42.9886C145.662 42.9886 148.237 42.9886 150.812 42.9886C151.304 42.9886 151.795 42.9948 152.287 42.9948C152.68 42.9948 153.074 42.9579 153.461 42.878C153.989 42.7673 154.42 42.4969 154.745 42.0543C155.175 41.4703 155.016 40.7019 154.659 40.2716C154.524 40.1118 154.37 39.9766 154.186 39.8721C153.793 39.6569 153.375 39.5217 152.926 39.5032C152.809 39.4971 152.693 39.4971 152.57 39.4971C150.591 39.4971 148.618 39.5032 146.639 39.4971C146.191 39.4971 145.736 39.4602 145.293 39.3434C144.66 39.1836 144.095 38.9008 143.61 38.4705C143.063 37.9849 142.718 37.3825 142.589 36.6571C142.497 36.1346 142.503 35.6183 142.62 35.1081C142.792 34.3581 143.204 33.7619 143.806 33.2947C144.384 32.8459 145.041 32.5755 145.767 32.4833C146.068 32.4464 146.375 32.4341 146.676 32.4341C148.151 32.4341 149.626 32.4341 151.101 32.4341Z" fill="#EFB433"/>
<path d="M95.6742 41.6363C95.8402 41.3658 95.9754 41.1507 96.1044 40.9355C96.3748 40.4929 96.6514 40.0504 96.9218 39.6016C96.9894 39.491 97.0693 39.4234 97.2045 39.4356C97.2229 39.4356 97.2413 39.4356 97.2659 39.4356C98.2308 39.4295 99.1895 39.4172 100.154 39.4111C100.234 39.4111 100.308 39.4049 100.382 39.3988C100.425 39.325 100.376 39.2758 100.345 39.2266C99.8594 38.4275 99.3739 37.6284 98.8884 36.8354C98.704 36.5342 98.5196 36.233 98.3353 35.9318C98.3045 35.8826 98.2922 35.8212 98.2185 35.8089C98.1447 35.8396 98.1263 35.9072 98.0894 35.9625C96.381 38.741 94.6725 41.5257 92.9702 44.3041C92.8165 44.5562 92.6568 44.8021 92.5093 45.0602C92.4539 45.1586 92.3802 45.1955 92.2696 45.1955C91.4338 45.1955 90.598 45.1955 89.7622 45.1955C89.7499 45.1955 89.7437 45.1955 89.7315 45.1955C89.6639 45.1893 89.6393 45.1586 89.67 45.1033C89.6946 45.0479 89.7253 44.9988 89.756 44.9496C91.4584 42.1096 93.1607 39.2697 94.8692 36.4297C95.3977 35.5445 95.9323 34.6594 96.4547 33.7742C96.6514 33.4422 96.8726 33.1349 97.1676 32.8767C97.4134 32.6616 97.6961 32.5017 98.0218 32.4341C98.4459 32.3481 98.8208 32.4526 99.1649 32.6923C99.5152 32.9382 99.7979 33.2517 100.013 33.6205C100.431 34.3213 100.843 35.022 101.261 35.729C102.385 37.6346 103.51 39.534 104.634 41.4396C105.335 42.626 106.036 43.8124 106.73 44.9926C106.755 45.0356 106.779 45.0787 106.804 45.1217C106.841 45.1893 106.81 45.2262 106.73 45.2323C106.423 45.2323 106.122 45.2508 105.814 45.2323C105.31 45.1955 104.813 45.2262 104.309 45.2078C104.272 45.2078 104.229 45.2016 104.192 45.2078C104.02 45.2323 103.928 45.1524 103.842 45.0111C103.258 44.0398 102.668 43.0747 102.084 42.1096C102.01 41.9928 101.937 41.876 101.869 41.7592C101.826 41.6855 101.771 41.6425 101.678 41.6486C101.599 41.6547 101.519 41.6486 101.445 41.6486C99.6443 41.6486 97.8436 41.6486 96.0491 41.6547C95.9385 41.6425 95.834 41.6424 95.6742 41.6363Z" fill="#EFB433"/>
<path d="M129.856 38.8149C129.856 36.8294 129.856 32.5264 129.856 32.4526C129.856 32.4526 141.016 32.4526 140.998 32.4526C140.998 32.9813 140.998 34.6902 140.998 34.6902L132.105 34.6963V43.0072C132.191 43.0133 140.998 43.0072 140.998 43.0072C140.998 43.5174 140.998 45.2447 140.998 45.2447C140.949 45.2447 129.887 45.2447 129.856 45.2447C129.856 45.2386 129.856 40.702 129.856 38.8149Z" fill="#EFB433"/>
<path d="M83.8501 37.3455C82.4366 37.3455 81.017 37.3455 79.6035 37.3455C79.2716 37.3455 79.2839 37.3209 79.2839 37.6651C79.2839 38.372 79.2778 39.0789 79.2778 39.792C79.2778 39.8535 79.2778 39.9088 79.2778 39.9703C79.2839 40.21 79.2839 40.21 79.5298 40.21C79.5974 40.21 79.665 40.21 79.7387 40.21C81.8344 40.21 83.93 40.21 86.0195 40.21C86.462 40.21 86.4189 40.1731 86.4189 40.5973C86.4189 41.0706 86.4189 41.5439 86.4189 42.0111C86.4189 42.091 86.419 42.1709 86.4128 42.2447C86.4067 42.3 86.3759 42.3369 86.3206 42.3369C86.253 42.343 86.1854 42.343 86.1117 42.343C84.1635 42.343 82.2154 42.3492 80.2734 42.343C79.1549 42.3369 78.1163 42.048 77.1883 41.4148C76.5061 40.9538 76.0206 40.3391 75.7871 39.54C75.6396 39.0359 75.6027 38.5196 75.6642 37.9909C75.7072 37.6159 75.7748 37.2533 75.9162 36.9029C76.1804 36.2267 76.629 35.7103 77.2497 35.3415C77.8274 34.9973 78.4543 34.8252 79.1119 34.7329C79.5912 34.6653 80.0706 34.6715 80.5561 34.6715C82.2645 34.6653 83.9792 34.6653 85.6876 34.6653C86.4743 34.6653 87.2609 34.6592 88.0475 34.6592C88.1274 34.6592 88.2073 34.6592 88.2811 34.6592C88.3732 34.6653 88.404 34.6961 88.4101 34.7821C88.4163 34.8436 88.4101 34.8989 88.4101 34.9604C88.4101 35.6612 88.4101 36.3558 88.4101 37.0565C88.4101 37.0934 88.4101 37.1365 88.4101 37.1733C88.404 37.3209 88.3855 37.3393 88.2319 37.3393C88.152 37.3393 88.0721 37.3393 87.9984 37.3393C86.6218 37.3455 85.239 37.3455 83.8501 37.3455Z" fill="#EFB433"/>
<path d="M136.757 37.6348C137.87 37.6348 140.414 37.6348 140.414 37.6348C140.414 38.1573 140.414 39.8784 140.414 39.8784C138.159 39.8784 133.046 39.8784 133.046 39.8784C133.046 39.3375 133.046 37.6348 133.046 37.6348C134.152 37.6348 135.645 37.6348 136.757 37.6348Z" fill="#EFB433"/>
<path d="M157.695 33.3438C157.695 33.1656 157.695 32.9934 157.695 32.8152C157.695 32.7045 157.671 32.6861 157.554 32.6799C157.468 32.6738 157.376 32.6738 157.29 32.6676C157.265 32.6676 157.241 32.643 157.234 32.6062C157.228 32.5631 157.247 32.5324 157.284 32.514C157.29 32.5078 157.302 32.5078 157.314 32.5078C157.634 32.5078 157.96 32.5078 158.279 32.5078C158.322 32.5078 158.347 32.5447 158.347 32.5877C158.347 32.6308 158.322 32.6615 158.279 32.6676C158.242 32.6738 158.199 32.6738 158.162 32.6738C157.91 32.6676 157.91 32.6922 157.91 32.9443C157.91 33.227 157.91 33.5098 157.91 33.7926C157.91 33.8479 157.91 33.9093 157.898 33.9647C157.886 34.02 157.831 34.0261 157.781 34.0261C157.738 34.02 157.708 33.9954 157.702 33.9524C157.695 33.9032 157.695 33.854 157.695 33.8048C157.695 33.6573 157.695 33.4975 157.695 33.3438Z" fill="#EFB433"/>
<path d="M159.711 33.0303C159.705 32.9566 159.73 32.8951 159.785 32.8521C159.797 32.8521 159.809 32.8521 159.816 32.8582C159.822 32.8643 159.822 32.8766 159.822 32.8889C159.822 33.018 159.822 33.141 159.822 33.2701C159.785 33.2393 159.773 33.1963 159.773 33.1471C159.766 33.0979 159.754 33.0611 159.711 33.0303Z" fill="#EFB433"/>
<path d="M31.4406 45.2077C30.9858 45.2077 30.5372 45.1893 30.0824 45.2139C29.2282 45.2508 28.374 45.2385 27.5197 45.2323C26.6717 45.2262 25.8359 45.1032 25.0369 44.802C24.2319 44.4947 23.5313 44.0398 22.9167 43.4435C22.1301 42.6813 21.5708 41.7777 21.2574 40.7326C21.0177 39.9335 20.9624 39.116 20.987 38.28C21.0116 37.4255 21.1837 36.6018 21.5401 35.8273C22.0563 34.6901 22.843 33.8049 23.9369 33.1902C24.6313 32.7968 25.3749 32.5632 26.1554 32.4402C26.6594 32.3603 27.1694 32.3296 27.6795 32.3296C29.9595 32.3296 32.2395 32.3296 34.5196 32.3296C34.9006 32.3296 34.8698 32.2927 34.8698 32.6738C34.8698 33.1963 34.8698 33.7188 34.8698 34.2352C34.8698 34.3151 34.8698 34.395 34.8637 34.4688C34.8637 34.5241 34.833 34.561 34.7715 34.561C34.6732 34.5671 34.5749 34.5671 34.4765 34.5671C32.1781 34.5671 29.8735 34.5733 27.5751 34.5733C27.1326 34.5733 26.6962 34.6286 26.266 34.7392C24.8464 35.0896 23.6173 36.3313 23.3408 37.8251C23.2178 38.5013 23.2056 39.1713 23.3469 39.8413C23.562 40.831 24.0905 41.6055 24.9079 42.1895C25.4364 42.5645 26.0264 42.7919 26.6717 42.8964C26.9236 42.9395 27.1817 42.9517 27.4337 42.9517C29.3511 42.9517 31.2685 42.9517 33.186 42.9517C33.5301 42.9517 33.5055 42.9702 33.5055 42.6321C33.5055 41.9129 33.5055 41.1937 33.5055 40.4806C33.5055 40.413 33.5055 40.3454 33.5055 40.2716C33.5055 40.1979 33.4625 40.1671 33.3888 40.1671C33.3027 40.1671 33.2105 40.1671 33.1245 40.1671C31.3239 40.1671 29.5293 40.1671 27.7287 40.1671C27.6427 40.1671 27.5505 40.1671 27.4644 40.161C27.3907 40.161 27.36 40.1118 27.36 40.0442C27.36 40.0073 27.36 39.9643 27.36 39.9274C27.36 39.3987 27.36 38.8639 27.36 38.3353C27.36 38.2861 27.36 38.2369 27.3661 38.1878C27.3722 38.1324 27.4091 38.1017 27.4644 38.1017C27.5443 38.0955 27.6242 38.0955 27.698 38.0955C30.2853 38.0955 32.8664 38.0955 35.4537 38.0955C35.8224 38.0955 35.7917 38.071 35.7917 38.4275C35.7917 39.786 35.7917 41.1445 35.7917 42.4969C35.7917 43.3021 35.7978 44.1074 35.7978 44.9127C35.7978 45.2016 35.7978 45.2016 35.5028 45.2016C34.1508 45.2077 32.7988 45.2077 31.4406 45.2077Z" fill="#EFB433"/>
<path d="M2.35368 45.1768C2.25536 45.183 2.15703 45.1891 2.0587 45.1891C1.53018 45.1891 1.00166 45.1891 0.466993 45.1891C0.399392 45.1891 0.331791 45.1891 0.258044 45.1891C0.141278 45.183 0.116696 45.1584 0.11055 45.0539C0.104404 44.9924 0.11055 44.9371 0.11055 44.8756C0.11055 40.7816 0.11055 36.6877 0.11055 32.5937C0.11055 32.5077 0.122841 32.4154 0.122841 32.3294C0.798854 32.3294 1.48101 32.3232 2.15703 32.3232C2.34139 32.3232 2.34754 32.3294 2.35368 32.5322C2.35368 32.5999 2.35368 32.6675 2.35368 32.7412C2.35368 34.2534 2.35368 35.7718 2.35368 37.2839C2.35368 37.6405 2.32296 37.622 2.68555 37.622C5.55553 37.622 8.42551 37.622 11.2955 37.622C11.6581 37.622 11.6335 37.6466 11.6335 37.2901C11.6335 35.7533 11.6335 34.2227 11.6335 32.6859C11.6335 32.2864 11.6028 32.3294 12.0022 32.3294C12.5308 32.3294 13.0654 32.3294 13.5939 32.3294C13.6738 32.3294 13.7537 32.3294 13.8275 32.3355C13.8705 32.3355 13.9012 32.3663 13.9012 32.4093C13.9074 32.4954 13.9074 32.5876 13.9074 32.6736C13.9074 33.6756 13.9074 34.6776 13.9074 35.6796C13.9074 38.7347 13.9074 41.7959 13.9074 44.851C13.9074 45.2752 13.9504 45.2321 13.5325 45.2321C13.0101 45.2321 12.4877 45.2321 11.9715 45.2321C11.9039 45.2321 11.8363 45.2321 11.7626 45.2321C11.6704 45.226 11.6335 45.1952 11.6274 45.1092C11.6212 45.0231 11.6212 44.9309 11.6212 44.8449C11.6212 43.3204 11.6212 41.7959 11.6212 40.2714C11.6212 40.1854 11.6212 40.0932 11.6212 40.0071C11.6151 39.8965 11.5966 39.878 11.4737 39.8719C11.4061 39.8719 11.3385 39.8719 11.2648 39.8719C8.40707 39.8719 5.54324 39.8719 2.68555 39.8719C2.61794 39.8719 2.55034 39.8719 2.4766 39.8719C2.36598 39.878 2.34754 39.8965 2.34139 40.0194C2.33525 40.0993 2.34139 40.1792 2.34139 40.253C2.34139 41.7898 2.34139 43.3204 2.34139 44.8572C2.35368 44.9617 2.35368 45.0723 2.35368 45.1768Z" fill="#EFB433"/>
<path d="M16.4577 38.7162C16.4577 36.7 16.4577 34.6899 16.4577 32.6736C16.4577 32.2741 16.4147 32.311 16.8203 32.311C17.3426 32.311 17.8589 32.311 18.3812 32.311C18.4611 32.311 18.541 32.311 18.6148 32.3171C18.6701 32.3171 18.707 32.354 18.707 32.4093C18.7131 32.4769 18.7131 32.5445 18.7131 32.6183C18.7131 36.7184 18.7131 40.8124 18.7131 44.9125C18.7131 45.2137 18.7254 45.2014 18.4243 45.2014C17.865 45.2014 17.3058 45.2014 16.7465 45.2014C16.6789 45.2014 16.6113 45.2014 16.5437 45.1953C16.5007 45.1891 16.47 45.1645 16.47 45.1215C16.4638 45.0231 16.4638 44.9248 16.4638 44.8264C16.4577 42.7856 16.4577 40.7509 16.4577 38.7162Z" fill="#EFB433"/>
</svg>
