<svg width="160" height="80" viewBox="0 0 160 80" fill="none" xmlns="http://www.w3.org/2000/svg">
<path d="M91.6987 61.7946C89.3973 61.7946 87.4795 61.0549 85.9452 59.548C84.411 58.0412 83.6439 56.2056 83.6439 53.9864C83.6439 51.7398 84.411 49.8494 85.9726 48.2878C87.5343 46.7261 89.4247 45.959 91.6987 45.959C94.0274 45.959 95.9178 46.7261 97.3425 48.2878C98.0548 49.0823 98.5754 49.9864 98.9315 51.0001C99.2877 52.0138 99.4521 53.1919 99.4521 54.5343V61.5206H96.7398V54.6165C96.7398 52.8357 96.2466 51.3836 95.2877 50.2604C94.3288 49.1371 93.0685 48.5617 91.5617 48.5617C90.1644 48.5617 88.9589 49.0823 87.9452 50.1508C86.9315 51.1919 86.411 52.4521 86.411 53.9042C86.411 55.3836 86.9315 56.6439 88 57.6576C89.0685 58.6713 90.3836 59.1919 92 59.1919C92.6302 59.1919 93.1233 59.1371 93.4795 59.0275C93.8356 58.9179 94.411 58.6713 95.1507 58.233V60.9727L93.2329 61.5754C92.9315 61.6302 92.685 61.685 92.5206 61.7124C92.3562 61.7946 92.0822 61.7946 91.6987 61.7946Z" fill="black"/>
<path d="M101.589 51.8768C101.589 50.3152 102.164 48.9727 103.288 47.8768C104.411 46.7535 105.781 46.2056 107.37 46.2056C108.658 46.2056 109.589 46.4247 110.137 46.8631C110.63 47.2467 110.959 47.5206 111.123 47.7398L111.479 48.1508C112.767 46.8631 114.192 46.2056 115.781 46.2056C117.342 46.2056 118.658 46.7535 119.781 47.8494C120.877 48.9453 121.425 50.2878 121.425 51.8768V61.548H118.712V51.9042C118.712 50.9453 118.438 50.1782 117.918 49.6028C117.397 49.0275 116.658 48.7535 115.753 48.7535C114.904 48.7535 114.219 49.0275 113.671 49.6028C113.151 50.1782 112.877 50.9179 112.877 51.8494V61.5754H110.164V51.822C110.164 50.8631 109.918 50.096 109.397 49.548C108.877 49.0001 108.192 48.7261 107.288 48.7261C106.384 48.7261 105.671 49.0275 105.096 49.6028C104.575 50.1782 104.329 50.9453 104.329 51.8768V61.5206H101.616V51.8768H101.589Z" fill="black"/>
<path d="M124.986 40.6709C125.534 40.6709 126 40.8627 126.384 41.2736C126.767 41.6572 126.986 42.1503 126.986 42.6983C126.986 43.2736 126.795 43.7394 126.384 44.123C126 44.5065 125.507 44.7257 124.986 44.7257C124.411 44.7257 123.945 44.5339 123.562 44.123C123.178 43.7394 122.959 43.2462 122.959 42.6983C122.959 42.123 123.151 41.6572 123.562 41.2736C123.945 40.8627 124.411 40.6709 124.986 40.6709ZM123.616 46.4517H126.329V61.5476H123.616V46.4517Z" fill="black"/>
<path d="M129.425 52.9999C129.425 50.9177 130.027 49.2191 131.233 47.9588C132.438 46.6712 134.055 46.041 136.055 46.041C138.027 46.041 139.616 46.6712 140.822 47.9314C142.027 49.1917 142.658 50.8903 142.658 52.9999V61.5479H140.11V52.9725C140.11 51.6575 139.726 50.5616 138.986 49.7396C138.247 48.9177 137.233 48.5068 136 48.5068C134.822 48.5068 133.863 48.9177 133.096 49.7122C132.329 50.5342 131.945 51.6027 131.945 52.9451V61.5205H129.397V52.9999H129.425Z" fill="black"/>
<path d="M152.247 61.7944C149.89 61.7944 147.945 61.0821 146.411 59.6301C144.877 58.178 144.11 56.3424 144.11 54.1506C144.11 51.904 144.904 49.9862 146.438 48.4246C147.233 47.6301 148.082 47.0273 149.041 46.6438C149.973 46.2602 151.041 46.041 152.192 46.041C154.411 46.041 156.274 46.8081 157.753 48.315C159.233 49.8218 159.973 51.7944 159.973 54.2054V60.178C159.973 62.6438 159.151 64.6438 157.507 66.178C155.863 67.7396 153.699 68.5068 151.041 68.5068C150.164 68.5068 149.014 68.2876 147.534 67.8766V65.2465C148.877 65.7396 149.973 65.9862 150.74 65.9862C152.767 65.9862 154.329 65.4657 155.452 64.452C156.575 63.4383 157.151 62.041 157.151 60.2876V54.3698C157.151 52.7259 156.658 51.3835 155.671 50.3424C154.685 49.3013 153.452 48.7807 151.945 48.7807C150.521 48.7807 149.315 49.2739 148.329 50.2876C147.343 51.3013 146.849 52.5342 146.849 53.9862C146.849 55.5753 147.37 56.8355 148.411 57.8218C149.452 58.8081 150.822 59.2739 152.493 59.2739C153.069 59.2739 153.562 59.2191 154 59.0821C154.438 58.9451 155.069 58.6985 155.89 58.315V61.0821C154.466 61.5479 153.233 61.7944 152.247 61.7944Z" fill="black"/>
<path d="M82.6302 48.3971L71.2877 48.3697V51.1643H79.1507H79.5891C79.0411 55.4382 75.3973 58.7533 70.9863 58.7533C66.1918 58.7533 62.3014 54.8629 62.3014 50.0684C62.3014 45.2738 66.1918 41.3834 70.9863 41.3834C73.8356 41.3834 76.3562 42.7533 77.9178 44.8629L80.0548 42.6163C77.8904 39.9862 74.6302 38.3149 70.9589 38.3149C64.4658 38.3149 59.2055 43.5752 59.2055 50.0684C59.2055 56.5615 64.4658 61.8218 70.9589 61.8218C77.4521 61.8218 82.7124 56.5615 82.7124 50.0684C82.7397 49.493 82.7124 48.9451 82.6302 48.3971Z" fill="black"/>
<path d="M91.6987 60.9728C89.3973 60.9728 87.4795 60.2331 85.9452 58.7262C84.411 57.2194 83.6439 55.3838 83.6439 53.1646C83.6439 50.918 84.411 49.0276 85.9726 47.466C87.5343 45.9043 89.4247 45.1372 91.6987 45.1372C94.0274 45.1372 95.9178 45.9043 97.3425 47.466C98.0548 48.2605 98.5754 49.1646 98.9315 50.1783C99.2877 51.192 99.4521 52.3701 99.4521 53.7125V60.6988H96.7398V53.7947C96.7398 52.0139 96.2466 50.5619 95.2877 49.4386C94.3288 48.3153 93.0685 47.7399 91.5617 47.7399C90.1644 47.7399 88.9589 48.2605 87.9452 49.329C86.9315 50.3701 86.411 51.6304 86.411 53.0824C86.411 54.5619 86.9315 55.8221 88 56.8358C89.0685 57.8495 90.3836 58.3701 92 58.3701C92.6302 58.3701 93.1233 58.3153 93.4795 58.2057C93.8356 58.0961 94.411 57.8495 95.1507 57.4112V60.1509L93.2329 60.7536C92.9315 60.8084 92.685 60.8632 92.5206 60.8906C92.3562 60.9728 92.0822 60.9728 91.6987 60.9728Z" fill="#00A3EA"/>
<path d="M101.589 51.055C101.589 49.4934 102.164 48.1509 103.288 47.055C104.411 45.9317 105.781 45.3838 107.37 45.3838C108.658 45.3838 109.589 45.603 110.137 46.0413C110.63 46.4249 110.959 46.6989 111.123 46.918L111.479 47.329C112.767 46.0413 114.192 45.3838 115.781 45.3838C117.342 45.3838 118.658 45.9317 119.781 47.0276C120.877 48.1235 121.425 49.466 121.425 51.055V60.7263H118.712V51.0824C118.712 50.1235 118.438 49.3564 117.918 48.781C117.397 48.2057 116.658 47.9317 115.753 47.9317C114.904 47.9317 114.219 48.2057 113.671 48.781C113.151 49.3564 112.877 50.0961 112.877 51.0276V60.7537H110.164V51.0002C110.164 50.0413 109.918 49.2742 109.397 48.7263C108.877 48.1783 108.192 47.9043 107.288 47.9043C106.384 47.9043 105.671 48.2057 105.096 48.781C104.575 49.3564 104.329 50.1235 104.329 51.055V60.6989H101.616V51.055H101.589Z" fill="#00A3EA"/>
<path d="M124.986 39.8491C125.534 39.8491 126 40.0409 126.384 40.4519C126.767 40.8354 126.986 41.3286 126.986 41.8765C126.986 42.4519 126.795 42.9176 126.384 43.3012C126 43.6847 125.507 43.9039 124.986 43.9039C124.411 43.9039 123.945 43.7121 123.562 43.3012C123.178 42.9176 122.959 42.4245 122.959 41.8765C122.959 41.3012 123.151 40.8354 123.562 40.4519C123.945 40.0409 124.411 39.8491 124.986 39.8491ZM123.616 45.6299H126.329V60.7258H123.616V45.6299Z" fill="#00A3EA"/>
<path d="M129.425 52.1781C129.425 50.096 130.027 48.3973 131.233 47.137C132.438 45.8494 134.055 45.2192 136.055 45.2192C138.027 45.2192 139.616 45.8494 140.822 47.1096C142.027 48.3699 142.658 50.0686 142.658 52.1781V60.7261H140.11V52.1507C140.11 50.8357 139.726 49.7398 138.986 48.9179C138.247 48.0959 137.233 47.685 136 47.685C134.822 47.685 133.863 48.096 133.096 48.8905C132.329 49.7124 131.945 50.7809 131.945 52.1233V60.6987H129.397V52.1781H129.425Z" fill="#00A3EA"/>
<path d="M152.247 60.9727C149.89 60.9727 147.945 60.2603 146.411 58.8083C144.877 57.3562 144.11 55.5206 144.11 53.3288C144.11 51.0823 144.904 49.1644 146.438 47.6028C147.233 46.8083 148.082 46.2055 149.041 45.822C149.973 45.4384 151.041 45.2192 152.192 45.2192C154.411 45.2192 156.274 45.9864 157.753 47.4932C159.233 49.0001 159.973 50.9727 159.973 53.3836V59.3562C159.973 61.822 159.151 63.822 157.507 65.3562C155.863 66.9179 153.699 67.685 151.041 67.685C150.164 67.685 149.014 67.4658 147.534 67.0549V64.4247C148.877 64.9179 149.973 65.1644 150.74 65.1644C152.767 65.1644 154.329 64.6439 155.452 63.6302C156.575 62.6165 157.151 61.2192 157.151 59.4658V53.548C157.151 51.9042 156.658 50.5617 155.671 49.5206C154.685 48.4795 153.452 47.959 151.945 47.959C150.521 47.959 149.315 48.4521 148.329 49.4658C147.343 50.4795 146.849 51.7124 146.849 53.1644C146.849 54.7535 147.37 56.0138 148.411 57.0001C149.452 57.9864 150.822 58.4521 152.493 58.4521C153.069 58.4521 153.562 58.3973 154 58.2603C154.438 58.1233 155.069 57.8768 155.89 57.4932V60.2603C154.466 60.7261 153.233 60.9727 152.247 60.9727Z" fill="#00A3EA"/>
<path d="M82.6302 47.5754L71.2877 47.548V50.3425H79.1507H79.5891C79.0411 54.6165 75.3973 57.9315 70.9863 57.9315C66.1918 57.9315 62.3014 54.0411 62.3014 49.2466C62.3014 44.4521 66.1918 40.5617 70.9863 40.5617C73.8356 40.5617 76.3562 41.9315 77.9178 44.0411L80.0548 41.7945C77.8904 39.1644 74.6302 37.4932 70.9589 37.4932C64.4658 37.4932 59.2055 42.7534 59.2055 49.2466C59.2055 55.7397 64.4658 61 70.9589 61C77.4521 61 82.7124 55.7397 82.7124 49.2466C82.7397 48.6712 82.7124 48.1233 82.6302 47.5754Z" fill="#00A3EA"/>
<path d="M2.71233 38.3149V47.1095H12.9041V38.3149H15.6438V59.356H12.9041V49.493H2.71233V59.356H0V38.3149H2.71233Z" fill="black"/>
<path d="M2.71233 37.4932V46.2877H12.9041V37.4932H15.6438V58.5343H12.9041V48.6712H2.71233V58.5343H0V37.4932H2.71233Z" fill="#00A3EA"/>
<path d="M24.3288 11H50.6301C52.7671 11 54.4658 12.726 54.4658 14.8356V44.6986C54.4658 46.8356 52.7397 48.5342 50.6301 48.5342H24.3288C22.1918 48.5342 20.4932 46.8082 20.4932 44.6986V14.8356C20.4932 12.726 22.2192 11 24.3288 11Z" fill="url(#paint0_linear_6250_8)"/>
<path d="M37.452 68.6714C48.5734 68.6714 57.589 59.6558 57.589 48.5344C57.589 37.4131 48.5734 28.3975 37.452 28.3975C26.3307 28.3975 17.3151 37.4131 17.3151 48.5344C17.3151 59.6558 26.3307 68.6714 37.452 68.6714Z" fill="black"/>
<path d="M37.452 67.5752C48.5734 67.5752 57.589 58.5596 57.589 47.4383C57.589 36.3169 48.5734 27.3013 37.452 27.3013C26.3307 27.3013 17.3151 36.3169 17.3151 47.4383C17.3151 58.5596 26.3307 67.5752 37.452 67.5752Z" fill="#00A3EA"/>
<path d="M37.4521 62.3973C45.7136 62.3973 52.411 55.7 52.411 47.4384C52.411 39.1768 45.7136 32.4795 37.4521 32.4795C29.1905 32.4795 22.4932 39.1768 22.4932 47.4384C22.4932 55.7 29.1905 62.3973 37.4521 62.3973Z" fill="#EDEDED"/>
<path d="M35.6438 57.7127C35.3973 57.7127 35.1781 57.5757 35.0411 57.3566C34.9315 57.1374 34.9315 56.8908 35.0411 56.6716C35.3425 56.1785 36 55.0278 36.1644 54.2333C36.1918 54.1511 36.1918 54.0963 36.2192 54.0141C35.5342 54.699 34.7397 55.1648 33.8356 55.4662C33.2603 55.6579 32.6849 55.7401 32.1096 55.7401C30.4384 55.7401 28.8493 54.973 27.7808 53.6305C26.9041 52.562 26.3836 51.247 26.1644 49.6579C26.0548 48.6716 26.0548 47.8771 26.1918 47.11C26.4657 45.6853 27.2055 44.4525 28.4931 43.3566C29.3699 42.5894 30.3014 42.0141 31.2877 41.4114C32.3014 40.8086 33.1507 40.2881 33.9178 39.6305C34.9315 38.7538 36.1096 37.6853 36.8767 36.1785C36.9863 35.9593 37.2329 35.7949 37.4794 35.7949C37.726 35.7949 37.9726 35.9319 38.0822 36.1785C38.4384 36.9182 38.9589 37.5209 39.3699 37.9867C40.5479 39.3018 41.9452 40.4525 43.5616 41.4114C44.7123 42.0963 45.726 42.7538 46.6575 43.6031C47.8904 44.7264 48.5753 45.9319 48.7671 47.2744C49.1233 49.9319 48.4931 52.1511 46.9315 53.8497C45.863 55.0004 44.4658 55.6305 42.9041 55.6305C42.7397 55.6305 42.6027 55.6305 42.4384 55.6031C41.0959 55.4936 39.9178 55.0004 38.8767 54.0963C38.9041 54.1785 38.9041 54.2333 38.9315 54.3155C39.1781 55.1648 39.5616 55.9593 40 56.5894C40.137 56.8086 40.1644 57.0826 40.0548 57.3018C39.9452 57.5209 39.6986 57.6579 39.4521 57.6579H35.6438V57.7127Z" fill="url(#paint1_linear_6250_8)"/>
<path d="M37.452 36.5344C37.8082 37.2741 38.3014 37.9043 38.8219 38.4796C40.0822 39.8769 41.5342 41.055 43.1507 42.0413C44.1918 42.6714 45.2329 43.3289 46.137 44.1509C47.0959 45.0276 47.8356 46.0687 48.0274 47.3837C48.3288 49.6029 47.9452 51.7125 46.3836 53.4111C45.4247 54.4522 44.2192 54.9728 42.8493 54.9728C42.7123 54.9728 42.5753 54.9728 42.4383 54.9454C40.8219 54.8358 39.5068 54.0413 38.4931 52.781C38.274 52.507 38.0822 52.233 37.8356 51.9591C37.7808 52.8358 37.9726 53.6851 38.2192 54.5344C38.4657 55.3563 38.8493 56.233 39.3699 57.0002H35.589C36.0548 56.2056 36.6301 55.1646 36.7945 54.3426C36.9589 53.5207 37.0685 52.6988 37.0959 51.8495C37.0685 51.8495 37.0411 51.8221 37.0137 51.8221C36.9315 51.9591 36.8493 52.0687 36.7671 52.2056C35.9726 53.4111 34.9589 54.3426 33.5616 54.8084C33.0411 54.9728 32.5479 55.055 32.0548 55.055C30.5753 55.055 29.2055 54.37 28.2466 53.1919C27.3973 52.1509 26.9589 50.918 26.7945 49.5755C26.6849 48.781 26.6849 48.0139 26.8219 47.2193C27.0959 45.8221 27.863 44.7536 28.9041 43.8495C29.726 43.1372 30.6575 42.5618 31.589 41.9865C32.5205 41.4111 33.452 40.8632 34.3014 40.1509C35.5616 39.1646 36.6849 38.0413 37.452 36.5344ZM37.452 35.1646C36.9315 35.1646 36.4657 35.4385 36.2466 35.9043C35.5342 37.3015 34.4383 38.3152 33.4794 39.1372C32.7397 39.7399 31.9452 40.2604 30.9315 40.8358C29.9178 41.4385 28.9589 42.0413 28.0274 42.8358C26.6301 44.0413 25.8082 45.4111 25.5068 46.9728C25.3425 47.8221 25.3425 48.6988 25.452 49.7399C25.6712 51.4659 26.2466 52.8632 27.2055 54.0413C28.4384 55.5481 30.1918 56.3974 32.0822 56.3974C32.7397 56.3974 33.3973 56.2878 34.0274 56.0961C34.274 56.0139 34.4931 55.9317 34.7123 55.8221C34.6027 56.0139 34.4931 56.1782 34.4383 56.3152C34.1918 56.7262 34.1918 57.2741 34.4383 57.6851C34.6849 58.1235 35.1233 58.37 35.6164 58.37H39.3973C39.9178 58.37 40.3836 58.0961 40.6027 57.6303C40.8493 57.1919 40.7945 56.644 40.5205 56.2056C40.4383 56.0687 40.3562 55.9591 40.274 55.8221C40.9315 56.0961 41.6164 56.2604 42.3288 56.3152C42.4931 56.3152 42.6849 56.3426 42.8493 56.3426C44.6027 56.3426 46.1918 55.6577 47.3699 54.3426C49.0685 52.4796 49.7534 50.0687 49.3699 47.192C49.1781 45.6851 48.411 44.37 47.0411 43.1098C46.0822 42.233 45.0137 41.5755 43.8356 40.8358C42.3014 39.9043 40.9315 38.781 39.8082 37.5207C39.2603 36.8906 38.9041 36.3974 38.6301 35.8769C38.4657 35.4659 38 35.1646 37.452 35.1646C37.4794 35.1646 37.452 35.1646 37.452 35.1646Z" fill="white"/>
<defs>
<linearGradient id="paint0_linear_6250_8" x1="37.4849" y1="11" x2="37.4849" y2="48.543" gradientUnits="userSpaceOnUse">
<stop offset="1.06556e-08" stop-color="#BBE4F9"/>
<stop offset="0.1757" stop-color="#71CAF3"/>
<stop offset="0.4509" stop-color="#00A3EA"/>
</linearGradient>
<linearGradient id="paint1_linear_6250_8" x1="37.4429" y1="57.7211" x2="37.4429" y2="35.8562" gradientUnits="userSpaceOnUse">
<stop stop-color="#848283"/>
<stop offset="0.0746124" stop-color="#686768"/>
<stop offset="0.2114" stop-color="#3C3B3B"/>
<stop offset="0.3337" stop-color="#1B1B1B"/>
<stop offset="0.4356" stop-color="#070707"/>
<stop offset="0.5048"/>
<stop offset="1"/>
</linearGradient>
</defs>
</svg>
