<svg width="160" height="80" viewBox="0 0 160 80" fill="none" xmlns="http://www.w3.org/2000/svg">
<g clip-path="url(#clip0_7037_8)">
<path d="M12.7163 39.082C12.2099 39.4618 11.8048 39.8922 11.3996 40.3226C10.3362 41.4621 9.52594 42.7281 9.24742 44.2726C9.01954 45.488 9.0955 46.678 9.67786 47.7921C10.1083 48.6024 10.7413 49.2101 11.5262 49.6405C12.4125 50.1216 13.3746 50.3748 14.3874 50.5014C15.0711 50.5773 15.7547 50.6027 16.4131 50.5773C17.2739 50.5267 18.1348 50.4254 18.9704 50.2229C20.2617 49.919 21.5024 49.4633 22.6925 48.9062C24.2623 48.1466 25.7815 47.311 27.2754 46.3742C28.5668 45.5386 29.8328 44.6524 31.0482 43.7156C31.9597 43.0319 32.8459 42.3229 33.7321 41.5887C34.9728 40.5758 36.2135 39.563 37.5048 38.6009C38.5936 37.7906 39.7077 37.0563 40.8724 36.3727C41.6067 35.9422 42.341 35.5371 43.1006 35.1826C43.9868 34.7522 44.8983 34.3724 45.8352 34.0432C46.8986 33.6634 47.9874 33.3849 49.1015 33.1823C49.6586 33.0811 50.2409 33.0051 50.798 32.9798C51.279 32.9544 51.7601 32.9038 52.2159 32.9038C53.6085 32.9544 55.0011 33.1064 56.3431 33.5368C57.0774 33.7647 57.761 34.0685 58.3687 34.499C59.4322 35.2333 60.1665 36.2208 60.6222 37.4108C60.9007 38.1451 61.078 38.9047 61.1286 39.6896C61.1793 40.272 61.2046 40.8544 61.1539 41.4367C61.0273 43.1585 60.5969 44.779 59.7613 46.2982C59.3309 47.0578 58.7992 47.7668 58.2168 48.3998C57.8117 48.8556 57.3306 49.2354 56.8748 49.6152C56.8495 49.6405 56.8495 49.6658 56.7735 49.6152C56.9255 49.4633 57.0774 49.3113 57.2293 49.1847C57.9636 48.5517 58.6219 47.8428 59.1283 46.9819C59.6854 46.0703 60.0145 45.0829 60.2677 44.07C60.4956 43.1838 60.6475 42.2723 60.6475 41.3608C60.6475 40.2973 60.4703 39.2845 59.9892 38.3223C59.7867 37.8919 59.5081 37.4868 59.179 37.1323C58.7485 36.6259 58.2168 36.2461 57.6344 35.9422C57.0267 35.6131 56.3684 35.4358 55.7101 35.3092C54.9758 35.1826 54.2162 35.1573 53.4566 35.208C52.621 35.2586 51.7855 35.3852 50.9752 35.5624C49.4813 35.8916 48.0381 36.4233 46.6454 37.0563C45.3541 37.664 44.0881 38.3477 42.8727 39.1073C40.8471 40.3733 38.9228 41.7659 36.9984 43.2092C35.783 44.1207 34.593 45.0322 33.4029 45.9691C31.8331 47.1844 30.2126 48.3238 28.5161 49.3367C27.2248 50.0963 25.9081 50.7546 24.5409 51.337C23.047 51.9446 21.5024 52.4257 19.9072 52.7296C19.2489 52.8562 18.5653 52.9575 17.8816 53.0334C17.2486 53.0841 16.6156 53.1094 15.9573 53.16C15.4256 53.2107 14.9192 53.1853 14.3874 53.1347C12.8935 53.0334 11.4756 52.6789 10.2096 51.818C8.86761 50.9065 8.03205 49.6405 7.70288 48.0453C7.55096 47.3364 7.55096 46.6274 7.62692 45.8931C7.7282 44.8803 8.00673 43.9434 8.46249 43.0319C8.91825 42.1457 9.50062 41.3608 10.2349 40.7024C10.9692 40.0441 11.7794 39.5124 12.6657 39.1073C12.6403 39.082 12.6657 39.082 12.7163 39.082Z" fill="#FA7C0B"/>
<path d="M51.0512 37.2331C51.7348 37.1318 52.3931 37.1065 53.0768 37.1572C53.7604 37.2331 54.4188 37.385 55.0264 37.6889C55.9886 38.17 56.6469 38.9296 57.0267 39.9677C57.3053 40.7273 57.4319 41.5122 57.4572 42.3478C57.4825 43.4113 57.3306 44.4241 56.9255 45.4369C56.6723 46.0952 56.2925 46.6523 55.862 47.184C55.5582 47.5891 55.1784 47.9436 54.8239 48.2981C54.1909 48.9058 53.4819 49.4122 52.7223 49.8426C51.7348 50.3997 50.6714 50.7795 49.5573 51.058C49.0002 51.1846 48.4432 51.2605 47.8861 51.3365C47.1012 51.4378 46.3416 51.4378 45.5567 51.4125C44.5185 51.3871 43.4804 51.2099 42.4676 50.9061C41.3282 50.5769 40.2141 50.1211 39.176 49.5388C38.1378 48.9817 37.1757 48.3234 36.2641 47.5891C35.6058 47.0574 34.9475 46.475 34.3651 45.8673C34.2132 45.7154 34.2132 45.6648 34.3904 45.5635C34.517 45.4875 34.5677 45.3356 34.7196 45.3356C34.8462 45.3356 34.9222 45.4875 35.0234 45.5635C35.8337 46.1965 36.6946 46.7789 37.5808 47.3106C38.8974 48.0955 40.2647 48.7792 41.708 49.3362C42.6702 49.6907 43.6323 49.9692 44.6198 50.1464C45.1769 50.2477 45.7086 50.3237 46.2656 50.3237C46.4935 50.3237 46.7214 50.3237 46.9493 50.3237C47.7342 50.3237 48.4938 50.1971 49.2787 49.9945C50.089 49.792 50.8486 49.5134 51.5829 49.159C52.4691 48.7285 53.2793 48.1968 54.0136 47.5385C54.7986 46.8295 55.4316 46.0446 55.8873 45.1077C56.3178 44.2468 56.571 43.3606 56.5963 42.3731C56.6216 41.4869 56.495 40.626 56.0899 39.8411C55.7101 39.0815 55.1277 38.4991 54.3681 38.094C53.6338 37.6889 52.8236 37.461 51.988 37.3597C51.7095 37.2838 51.3803 37.2584 51.0512 37.2331Z" fill="#FA7C0B"/>
<path d="M47.0758 48.1721C47.7848 47.9695 48.4178 48.0961 49.0508 48.1974C50.2155 48.3746 51.355 48.3746 52.4691 47.8429C52.6969 47.7163 52.8995 47.5644 53.0767 47.3871C53.2793 47.1593 53.254 46.9567 52.9755 46.8048C52.6463 46.6275 52.2918 46.6782 51.9373 46.7541C51.8614 46.7795 51.7601 46.8048 51.6335 46.8554C51.8867 46.6022 52.1399 46.4503 52.3931 46.2984C53.0261 45.8932 53.7604 45.6907 54.4694 45.4881C54.8238 45.3868 55.1783 45.2602 55.4822 45.007C55.9126 44.6526 56.0645 44.1968 56.0392 43.6651C56.0392 43.4878 55.7607 43.3612 55.5581 43.3865C55.3302 43.4372 55.1277 43.5385 54.8492 43.6144C55.1277 43.3106 55.3556 43.0574 55.5328 42.7789C55.9886 42.0192 56.1911 41.209 55.9632 40.3481C55.9126 40.1202 55.8113 39.9177 55.6594 39.7657C55.6088 39.7151 55.5581 39.6645 55.4822 39.7151C55.4062 39.7404 55.4062 39.8164 55.4315 39.8923C55.4568 40.1709 55.5075 40.4241 55.4315 40.7026C55.4062 40.7786 55.4062 40.8545 55.3302 40.9558C55.1783 40.3734 54.9251 39.867 54.596 39.4113C53.9883 38.5757 53.2033 38.0186 52.1905 37.8667C51.5828 37.7654 50.9498 37.7148 50.3168 37.7148C50.2155 37.7148 50.1396 37.7148 50.013 37.7148C50.0889 37.6642 50.1649 37.6642 50.2156 37.6895C50.8739 37.6895 51.5575 37.6388 52.2159 37.7401C53.2033 37.8667 54.1655 38.0946 55.0011 38.7023C55.7354 39.234 56.1152 39.943 56.3177 40.8039C56.4443 41.3609 56.419 41.918 56.4443 42.4497C56.495 43.3865 56.2165 44.2474 55.786 45.0577C55.4568 45.6907 55.0517 46.273 54.5706 46.8048C53.7097 47.7923 52.6463 48.5519 51.4562 49.1089C50.5447 49.5394 49.5572 49.8179 48.5697 49.9698C47.9874 50.0458 47.405 50.0964 46.8226 50.0711C46.063 50.0458 45.3034 49.9698 44.5438 49.8179C43.8095 49.666 43.0752 49.514 42.3409 49.2608C41.6826 49.033 41.0496 48.8051 40.4166 48.5012C39.733 48.1974 39.0746 47.8935 38.4163 47.5391C37.4541 47.0073 36.492 46.4503 35.6311 45.7413C35.4285 45.5641 35.15 45.4122 35.074 45.1083C35.2006 45.2349 35.3019 45.3615 35.4538 45.4628C35.5804 45.5388 35.707 45.6654 35.859 45.716C36.0362 45.792 36.1375 45.7413 36.1881 45.5641C36.2388 45.3868 36.2134 45.2096 36.1881 45.007C36.1881 44.9311 36.1375 44.8551 36.1881 44.8298C36.2388 44.7792 36.3147 44.8551 36.3654 44.9058C36.8211 45.2602 37.2009 45.6907 37.5048 46.1971C37.6314 46.3997 37.758 46.6022 37.9859 46.7288C38.1884 46.8554 38.3657 46.8554 38.5429 46.7035C38.7708 46.5263 38.7961 46.3743 38.7202 46.1464C38.6442 45.9186 38.467 45.7666 38.315 45.6147C38.2897 45.5894 38.2391 45.5641 38.2391 45.5134C38.2644 45.4628 38.315 45.4628 38.3657 45.4628C38.4923 45.4628 38.5936 45.4628 38.7202 45.5134C39.4038 45.792 39.9608 46.2224 40.1887 46.9567C40.29 47.2605 40.3913 47.5391 40.5432 47.8176C40.7711 48.2733 41.1762 48.5012 41.6573 48.6025C41.9358 48.6532 42.2143 48.6785 42.5182 48.6025C42.8727 48.5266 43.0499 48.2227 42.974 47.8682C42.9486 47.7163 42.9233 47.5644 42.822 47.3871C43.1006 47.4631 43.3284 47.5897 43.5057 47.7669C43.8348 48.0455 44.0627 48.4 44.2906 48.7798C44.797 49.59 45.5566 49.9951 46.5188 49.9445C47.1265 49.9192 47.6582 49.7166 48.114 49.2862C48.3419 49.0836 48.3165 48.8557 48.0886 48.6785C47.9367 48.5519 47.7595 48.4759 47.5822 48.4C47.3797 48.2987 47.2531 48.248 47.0758 48.1721Z" fill="#FA7C0B"/>
<path d="M43.9615 32.9035C43.6576 33.0048 43.3791 33.0808 43.1512 33.258C42.9233 33.4099 42.6955 33.5619 42.7208 33.9163C42.7461 34.2202 43.0499 34.6 43.4804 34.4228C43.8855 34.2708 44.2147 34.0176 44.5185 33.7391C45.0756 33.2074 45.6326 32.6503 46.215 32.1439C46.8733 31.5616 47.6329 31.1818 48.5444 31.0805C48.9496 31.0298 49.3294 31.0552 49.7345 31.0552C49.7851 31.0552 49.8105 31.0552 49.8611 31.1058C49.5572 31.2071 49.2534 31.3084 48.9496 31.435C48.671 31.5616 48.3925 31.7135 48.1393 31.8907C47.7342 32.2199 47.8102 32.701 48.2912 32.9035C48.3672 32.9289 48.4432 32.9542 48.5191 33.0048C48.2153 33.0808 47.9114 33.1314 47.6076 33.2074C46.4175 33.4859 45.2528 33.9163 44.1387 34.3974C42.7208 35.0304 41.3788 35.7647 40.0368 36.5497C39.1759 37.0561 38.3404 37.5878 37.5048 38.1448C36.5426 38.7778 35.6311 39.4615 34.7702 40.1958C34.3145 40.5756 33.9093 40.9807 33.4536 41.3858C32.7193 42.0442 32.0103 42.7025 31.1747 43.2342C31.2507 43.1329 31.3267 43.057 31.4026 42.9557C31.5545 42.7531 31.6305 42.5506 31.6305 42.2974C31.6305 41.9935 31.5799 41.6897 31.6811 41.4111C31.8331 40.9301 32.1876 40.7275 32.694 40.6262C32.542 40.7275 32.4408 40.8288 32.3395 40.8794C32.1876 40.9807 32.1116 41.1073 32.0103 41.2592C31.8837 41.4871 31.909 41.6897 32.061 41.8922C32.2129 42.1201 32.4154 42.1201 32.618 41.9429C32.9218 41.6643 33.1244 41.3099 33.327 40.9554C33.7827 40.0945 34.1119 39.183 34.5423 38.3221C34.8209 37.7397 35.1753 37.1827 35.6817 36.7775C36.0616 36.4484 36.5173 36.1952 37.0237 36.0939C37.049 36.0939 37.0744 36.0939 37.0997 36.0939C37.1756 36.0939 37.2516 36.0939 37.2769 36.1699C37.3022 36.2458 37.2263 36.2711 37.1756 36.2965C36.9224 36.4737 36.7452 36.7016 36.5933 36.9295C36.5173 37.0307 36.4667 37.1573 36.4414 37.3093C36.3907 37.765 36.8465 38.1195 37.3022 37.9929C37.6821 37.8916 37.9353 37.6384 38.1631 37.3346C38.8215 36.499 39.3279 35.5622 39.8849 34.676C40.442 33.7644 41.2016 33.1821 42.2397 32.9795C42.6955 32.8782 43.1512 32.8023 43.607 32.8276C43.7083 32.8529 43.8349 32.8529 43.9615 32.9035Z" fill="#FA7C0B"/>
<path d="M10.1842 43.4377C9.98168 43.7922 9.95636 44.172 9.98168 44.5772C10.007 45.0836 10.1842 45.5647 10.5134 45.9698C10.9945 46.5268 11.6528 46.6028 12.3111 46.1723C12.539 46.0204 12.7416 45.8685 12.9695 45.6406C13.0707 46.0204 12.9695 46.3496 12.7922 46.6281C12.4377 47.2105 11.8807 47.5396 11.197 47.5903C10.8426 47.6156 10.4881 47.4637 10.2349 47.2105C10.1083 47.0839 9.95636 46.9826 9.85508 46.9066C9.93104 47.3877 10.2855 47.7169 10.7919 47.8941C11.0451 47.9701 11.2477 48.0967 11.4249 48.2992C11.6528 48.5524 12.0073 48.6284 12.3365 48.679C12.7163 48.755 13.1214 48.7803 13.5265 48.755C14.7925 48.7044 15.9319 48.3752 16.9954 47.6916C17.0967 47.6156 17.2233 47.565 17.3246 47.489C17.4765 47.413 17.5524 47.4637 17.5524 47.6409C17.5271 47.9701 17.4258 48.2992 17.2739 48.5778C16.7675 49.4893 15.9319 49.9704 14.9191 50.0717C13.5012 50.2236 12.1845 49.8944 11.0198 49.0588C10.2602 48.5018 9.82976 47.7169 9.60187 46.8053C9.50059 46.4002 9.44995 45.9698 9.44995 45.5393C9.47527 44.4506 9.60187 43.3871 10.1589 42.4249C10.4881 41.8173 10.8932 41.2602 11.3743 40.7791C11.8807 40.2474 12.3871 39.741 13.0201 39.3105C12.539 40.0195 12.1086 40.7285 11.7541 41.4628C11.5262 41.9185 11.3743 42.3996 11.3996 42.9313C11.4249 43.2352 11.5009 43.539 11.6781 43.8429C11.3996 43.7669 11.2477 43.5897 11.1211 43.3871C11.0704 43.1845 10.9945 42.9567 10.8932 42.7035C10.7666 43.0073 10.716 43.2858 10.6653 43.5897C10.5894 44.0708 10.5387 44.5518 10.6653 45.0329C10.8426 45.6913 11.4249 46.0204 12.0833 45.7166C12.2099 45.6659 12.3618 45.59 12.4884 45.514C12.4377 45.8179 12.1339 46.0964 11.7541 46.147C11.0198 46.2483 10.5894 45.9698 10.3362 45.2608C10.1842 44.8557 10.1336 44.4506 10.1589 44.0201C10.1842 43.8176 10.1842 43.615 10.1842 43.4377Z" fill="#FA7C0B"/>
<path d="M2.00581 38.2221C2.1071 37.741 2.28434 37.3359 2.58818 36.9814C3.29715 36.1205 4.234 35.6394 5.34809 35.4622C5.67725 35.4115 6.03174 35.3862 6.31026 35.1837C6.7407 34.8798 6.76602 34.4747 6.41154 34.1455C6.33558 34.0696 6.2343 34.0189 6.13302 33.943C5.87981 33.7657 5.60129 33.6898 5.34809 33.5632C5.85449 33.6391 6.3609 33.6138 6.8673 33.6138C7.24711 33.6138 7.62691 33.5632 8.00672 33.4366C8.08268 33.4112 8.15864 33.4112 8.2346 33.4619C8.56376 33.7151 8.91824 33.943 9.17145 34.2721C9.22209 34.3228 9.24741 34.3734 9.27273 34.424C9.34869 34.5253 9.29805 34.6013 9.19677 34.6519C8.46248 35.0317 7.75351 35.4622 7.12051 35.9686C5.90513 36.9054 4.89232 37.9942 4.15804 39.3615C3.42375 40.7541 2.91734 42.248 2.6135 43.7672C2.51222 44.2989 2.43626 44.856 2.38562 45.3877C2.33498 45.8941 2.33498 46.4005 2.3603 46.9069C2.41094 47.5906 2.4869 48.2742 2.71478 48.9072C2.71478 48.9326 2.71478 48.9579 2.7401 48.9832C2.71478 48.9832 2.71478 49.0085 2.68946 49.0085C2.58818 48.7806 2.46158 48.5781 2.3603 48.3502C2.1071 47.7425 1.98049 47.1348 1.98049 46.4765C1.98049 45.3624 2.18306 44.223 2.41094 43.0836C2.4869 42.6784 2.66414 42.324 2.66414 41.8935C2.66414 41.5644 2.51222 41.4631 2.2337 41.6403C1.90453 41.8176 1.75261 42.1214 1.70197 42.4759C1.65133 42.805 1.57537 43.1342 1.62601 43.514C1.47409 43.3368 1.44877 43.1342 1.42345 42.957C1.39813 42.3999 1.39813 41.8429 1.52473 41.3112C1.67665 40.7288 2.05645 40.2983 2.53754 39.9692C3.01862 39.64 3.47439 39.2855 3.80355 38.7791C3.95547 38.5512 4.05675 38.3234 4.08208 38.0702C4.1074 37.6397 3.82887 37.3865 3.32247 37.4625C2.8667 37.5384 2.4869 37.741 2.18306 38.0702C2.13242 38.1208 2.1071 38.1968 2.00581 38.2221Z" fill="#FA7C0B"/>
<path d="M21.0973 37.7659C21.3758 37.9431 21.5784 38.1204 21.8569 38.2216C22.5152 38.5002 23.1229 38.3482 23.7053 37.9937C24.2117 37.6646 24.6421 37.2595 25.1992 37.0316C25.9841 36.7277 26.7184 36.7277 27.4273 37.2341C27.6299 37.3861 27.7565 37.5886 27.8325 37.8671C27.6046 37.7405 27.3767 37.6139 27.1235 37.5633C26.7943 37.4873 26.2626 37.8165 26.212 38.1457C26.1613 38.3482 26.2879 38.5508 26.4905 38.6521C26.8196 38.804 27.1741 38.7787 27.5286 38.7534C28.4908 38.6521 29.3517 38.7787 30.0353 39.5383C30.1366 39.6649 30.2126 39.7915 30.2885 39.9181C30.3138 39.9687 30.3392 40.0447 30.2885 40.0953C30.2379 40.146 30.1872 40.07 30.1366 40.07C29.7821 39.9181 29.4276 39.7155 28.9972 39.7408C28.7693 39.7408 28.668 39.8421 28.5921 40.0447C28.4908 40.4498 28.5414 40.6524 28.9972 40.779C29.3264 40.8803 29.6808 40.9309 29.9847 41.1081C30.01 41.1335 30.0353 41.1335 30.0606 41.1588C30.2379 41.2854 30.2379 41.2854 30.1113 41.4373C29.9847 41.6145 29.8581 41.6145 29.6555 41.5386C29.1998 41.412 28.7187 41.4373 28.2376 41.5639C27.6805 41.7158 27.1235 41.7918 26.5411 41.6399C26.0347 41.4879 25.6296 41.2094 25.3004 40.779C25.2498 40.7283 25.1992 40.6524 25.2498 40.5764C25.3004 40.5005 25.3764 40.5511 25.427 40.5258C25.579 40.5005 25.7056 40.5511 25.8575 40.5005C26.1866 40.3485 26.3386 39.994 26.212 39.5636C26.136 39.2851 25.9588 39.1078 25.6802 39.0066C25.3511 38.88 25.0472 38.9053 24.7181 38.9812C24.161 39.1078 24.1863 39.5383 24.3636 39.9434C24.4395 40.1207 24.4395 40.146 24.237 40.146C23.8572 40.1713 23.4774 40.07 23.1482 39.9181C22.5658 39.6649 22.0088 39.361 21.5784 38.9053C21.3252 38.6521 21.1226 38.3736 21.072 37.9937C21.072 37.9684 21.0466 37.9178 21.0466 37.8925C21.072 37.8671 21.0973 37.8418 21.0973 37.7659Z" fill="#FA7C0B"/>
<path d="M62.2174 39.2341C62.0655 39.0569 61.9895 38.829 61.8629 38.6517C61.787 38.5505 61.711 38.3732 61.5591 38.4239C61.4071 38.4745 61.5084 38.6517 61.4831 38.753C61.4578 39.2341 61.6857 39.6139 61.9136 39.9937C62.2174 40.4748 62.268 40.9812 62.1921 41.5382C62.1414 41.9687 62.0655 42.4245 61.9389 42.8296C61.9389 42.8802 61.9136 42.9309 61.8629 42.9562C61.8376 42.8043 61.8882 42.6777 61.9136 42.5511C61.9389 42.3232 61.9642 42.0953 61.8882 41.8674C61.8629 41.8168 61.8882 41.7155 61.787 41.7155C61.711 41.7155 61.7363 41.8168 61.711 41.8674C61.635 42.6017 61.5591 43.3613 61.3312 44.0703C61.1793 44.5767 60.8501 44.9818 60.5463 45.3869C60.3943 45.5642 60.2424 45.7667 60.0905 45.944C60.2424 45.5895 60.4197 45.235 60.5463 44.8805C60.8248 44.1969 61.0273 43.4626 61.1539 42.7283C61.3059 41.918 61.3312 41.1078 61.3059 40.2976C61.2552 39.1835 61.1286 38.0694 60.7235 37.0059C60.369 36.0944 59.7866 35.3601 59.027 34.7271C58.5206 34.322 57.9889 33.9675 57.4065 33.6636C56.571 33.2585 55.6848 33.0306 54.7732 32.8534C53.5325 32.6255 52.2919 32.6002 51.0258 32.6255C50.5194 32.6255 50.013 32.7521 49.5066 32.8281C49.2281 32.8787 48.9243 32.9294 48.6457 32.8028C48.4938 32.7521 48.3672 32.6762 48.2659 32.5496C48.1646 32.4229 48.1647 32.271 48.2913 32.0938C48.3419 32.271 48.3672 32.4483 48.5191 32.5242C48.747 32.6508 48.9496 32.7015 49.2028 32.6508C49.6332 32.5749 50.0383 32.423 50.4182 32.2204C51.0258 31.9165 51.6335 31.5874 52.2919 31.3848C52.7983 31.2329 53.33 31.081 53.8617 31.1063C54.3175 31.1316 54.7732 31.2329 55.1277 31.5874C55.0264 31.6127 54.9252 31.638 54.8239 31.638C54.672 31.6633 54.52 31.714 54.4947 31.8659C54.4441 32.0431 54.4441 32.1951 54.596 32.3723C54.8239 32.6255 55.1277 32.7268 55.4569 32.7521C56.1152 32.8028 56.7229 32.5749 57.3559 32.4229C58.0902 32.2204 58.8245 32.2204 59.5334 32.6002C59.9892 32.8534 60.369 33.1826 60.5969 33.6636C60.6475 33.7649 60.6982 33.8662 60.6982 34.0181C60.5209 33.8915 60.3437 33.7649 60.1411 33.7143C59.9133 33.6383 59.7107 33.6636 59.5081 33.7649C59.2296 33.8915 59.1536 34.0941 59.2802 34.3473C59.5334 34.8537 59.9133 35.2588 60.3184 35.6386C60.7235 35.9931 61.2046 36.2716 61.5084 36.7527C61.8629 37.3351 62.1161 37.9681 62.1921 38.6517C62.2427 38.8796 62.2174 39.0569 62.2174 39.2341Z" fill="#FA7C0B"/>
<path d="M10.083 53.5147C9.42466 53.2615 8.79165 52.9577 8.18397 52.6285C7.55096 52.2993 6.96859 51.9195 6.41155 51.4891C5.29746 50.6282 4.36061 49.6154 3.80356 48.324C3.44908 47.5391 3.24652 46.7289 3.11991 45.8933C3.01863 45.2603 3.01863 44.6273 3.06927 43.9943C3.14523 42.8295 3.42376 41.7155 3.87952 40.6267C4.25933 39.6898 4.76573 38.8036 5.39874 38.044C5.9811 37.3351 6.61411 36.702 7.42436 36.2463C7.50032 36.1956 7.55096 36.1703 7.62692 36.221C8.00672 36.5248 8.46249 36.702 8.89293 36.9046L8.91825 36.9299C8.38653 37.1578 7.93076 37.487 7.50032 37.8415C7.01923 38.2466 6.58879 38.7023 6.18367 39.1834C5.67726 39.7911 5.27214 40.4494 4.94297 41.1584C4.51253 42.0446 4.20869 42.9308 4.05676 43.893C3.95548 44.6779 3.95548 45.4629 4.08208 46.2478C4.23401 47.3112 4.58849 48.2987 5.09489 49.2356C5.44938 49.8686 5.8545 50.4763 6.38623 50.9827C7.17116 51.717 8.05737 52.3246 8.96889 52.8817C9.29806 53.0843 9.67786 53.2868 10.083 53.5147Z" fill="#FA7C0B"/>
<path d="M9.39935 38.5C9.88043 38.4747 10.3362 38.4241 10.8173 38.3228C11.1464 38.2468 11.4503 38.1708 11.7035 37.9176C11.9061 37.7151 11.8807 37.5378 11.6022 37.4366C11.2224 37.2593 10.792 37.2087 10.3868 37.1074C9.50063 36.9048 8.63974 36.5757 7.88013 36.0946C7.82949 36.0693 7.75353 36.0186 7.72821 35.9173C8.2093 35.9173 8.69038 35.9173 9.17147 35.9173C9.37403 35.9173 9.55127 35.892 9.75383 35.8414C10.1083 35.7654 10.1843 35.5882 10.083 35.259C9.95639 34.9045 9.75383 34.6007 9.55127 34.2968C9.52595 34.2715 9.52595 34.2462 9.50063 34.2209C9.57659 34.1702 9.60191 34.2209 9.65255 34.2462C10.64 34.8792 11.7288 35.3097 12.8682 35.5122C12.9695 35.5375 12.9948 35.5375 12.9695 35.6641C12.9695 36.0439 13.1974 36.2718 13.5266 36.3731C14.0836 36.525 14.3368 36.8795 14.3874 37.4366C14.4381 37.8417 14.7419 38.0949 15.0711 38.2721C15.7801 38.6519 16.5397 38.8798 17.2993 39.133C17.3499 39.1583 17.4259 39.1837 17.5018 39.209C16.6156 39.2849 16.5143 39.3356 16.4131 39.842C16.2105 39.6901 15.9826 39.5381 15.7801 39.3862C15.4256 39.1583 15.0711 38.9305 14.6406 38.8545C14.4128 38.8039 14.2102 38.8292 14.0076 38.8292C13.3999 38.8798 12.7923 38.9305 12.2099 39.0064C11.6275 39.0824 11.0452 39.1837 10.4628 38.9811C10.0577 38.8545 9.72851 38.7026 9.39935 38.5Z" fill="#FA7C0B"/>
<path d="M15.6281 50.1216C16.1852 49.9696 16.6409 49.7164 17.0207 49.3619C17.0714 49.3113 17.1473 49.3113 17.2233 49.3113C18.0335 49.3619 18.6919 48.9821 19.2996 48.5264C19.9072 48.0706 20.439 47.4882 21.072 47.0831C21.3252 46.9059 21.5784 46.7793 21.8822 46.678C21.9329 46.6527 21.9835 46.6274 22.0595 46.602C21.3758 46.5767 20.8694 46.8552 20.3883 47.2857C19.7806 47.8174 19.1983 48.3745 18.464 48.7036C18.2361 48.8049 18.0082 48.8809 17.7803 48.9062C17.7044 48.9062 17.5778 48.9568 17.5271 48.8302C17.5018 48.7543 17.6537 48.5264 17.7297 48.5011C18.5399 48.4504 19.1476 47.9693 19.73 47.4629C20.2111 47.0325 20.6922 46.5767 21.2745 46.2729C21.705 46.045 22.1607 45.8931 22.6418 45.8931C22.8697 45.8931 23.0976 45.8931 23.3255 45.8931C23.3255 45.9184 23.3255 45.9184 23.3255 45.9437C23.1229 46.1209 22.895 46.2729 22.6925 46.4501C22.4393 46.678 22.1607 46.9059 21.9835 47.2097C21.8063 47.4882 21.8822 47.7414 22.1607 47.868C22.4646 48.02 22.7937 48.0453 23.1229 47.9946C23.5787 47.944 24.0091 47.8174 24.4142 47.6655C24.0344 47.9187 23.6293 48.1212 23.2242 48.2985C22.4646 48.653 21.705 48.9821 20.92 49.2607C20.0338 49.5645 19.1223 49.8177 18.1855 49.9696C17.5271 50.0962 16.8435 50.1469 16.1598 50.1216C15.9826 50.1975 15.8307 50.1975 15.6281 50.1216Z" fill="#FA7C0B"/>
<path d="M23.2748 47.6657C24.0091 47.2859 24.4143 46.6275 24.7941 45.9692C25.1992 45.2349 25.7309 44.6779 26.4399 44.2474C26.5665 44.1715 26.6678 44.0702 26.845 44.1208C26.7437 44.3487 26.6678 44.5513 26.6171 44.8045C26.5158 45.2096 26.6931 45.4375 27.0729 45.4122C27.9338 45.3615 28.6427 45.0324 29.0479 44.1968C29.2757 43.741 29.4277 43.2853 29.6302 42.8295C30.086 41.8926 30.719 41.133 31.7318 40.8039C31.8078 40.7786 31.8584 40.7532 31.9597 40.7786C31.8078 40.9811 31.6558 41.1584 31.5292 41.3609C31.3267 41.6394 31.2001 41.9433 31.3773 42.3231C31.4533 42.475 31.352 42.6269 31.276 42.7535C30.9722 43.2346 30.5671 43.6144 30.1366 43.9689C29.3264 44.6526 28.4908 45.2349 27.6046 45.792C26.5665 46.4503 25.4777 47.058 24.2877 47.4378C23.9838 47.5391 23.6546 47.615 23.2748 47.6657Z" fill="#FA7C0B"/>
<path d="M9.09549 37.1581C8.96889 37.2087 8.84229 37.2847 8.71568 37.3353C8.3612 37.4619 8.20928 37.7911 8.31056 38.1456C8.41184 38.4747 8.6144 38.6773 8.86761 38.8798C9.50061 39.3609 10.2096 39.5635 11.0198 39.5382C11.1211 39.5382 11.2224 39.5382 11.3743 39.5382C11.1464 39.6901 10.9692 39.8167 10.7919 39.9686C10.3868 40.2725 10.0323 40.6269 9.7285 41.0067C9.65253 41.0827 9.57657 41.1587 9.47529 41.1587C8.74101 41.1587 7.9814 41.2346 7.27243 40.9561C6.79135 40.7535 6.38622 40.4497 6.28494 39.918C6.20898 39.6141 6.33558 39.3609 6.51282 39.133C7.06987 38.3734 7.75352 37.7404 8.58908 37.2847C8.74101 37.2087 8.91825 37.1581 9.09549 37.1074C9.09549 37.1074 9.09549 37.1327 9.09549 37.1581Z" fill="#FA7C0B"/>
<path d="M9.09549 41.4368C8.58908 42.0192 8.2346 42.6522 7.95607 43.3359C7.90543 43.4371 7.85479 43.4878 7.77883 43.5384C6.94326 43.8169 6.1077 43.7916 5.32277 43.3105C4.81636 43.0067 4.6138 42.5256 4.867 41.8166C5.06956 41.2596 5.39873 40.7279 5.72789 40.2468C5.77853 40.1708 5.82917 40.0949 5.90513 39.9683C5.90513 40.1202 5.90513 40.2215 5.93045 40.3227C6.00641 40.8038 6.33558 41.057 6.7407 41.1836C7.14583 41.3356 7.55095 41.4115 7.98139 41.4368C8.3612 41.4622 8.69036 41.4875 9.09549 41.4368Z" fill="#FA7C0B"/>
<path d="M7.67755 44.0195C7.47498 44.5766 7.3737 45.1336 7.32306 45.716C7.32306 45.8426 7.2471 45.8932 7.14582 45.9185C6.48749 46.0958 5.85449 46.197 5.17084 45.9692C4.56315 45.7666 4.30995 45.3615 4.28463 44.7791C4.25931 44.374 4.41123 43.3865 4.58847 42.9561C4.76572 43.5637 5.22148 43.8676 5.77853 44.0195C6.38621 44.1967 6.96858 44.1714 7.57626 44.0195C7.60159 44.0448 7.62691 44.0448 7.67755 44.0195Z" fill="#FA7C0B"/>
<path d="M15.9826 31.1569C15.7547 31.1822 15.5268 31.1316 15.3243 31.0809C15.147 31.0303 14.9698 30.9543 14.8685 30.7517C14.8432 30.7011 14.7925 30.6505 14.7419 30.6251C14.0076 30.1694 13.4252 29.5617 12.9188 28.8527C12.539 28.321 12.0833 27.8146 11.6275 27.3335C10.9945 26.6499 10.3108 26.0422 9.52591 25.5611C9.24739 25.3839 8.94355 25.2319 8.61438 25.156C8.56374 25.1307 8.46246 25.156 8.46246 25.0547C8.46246 24.9787 8.56374 25.0041 8.63971 25.0041C8.99419 25.0041 9.29803 25.1053 9.6272 25.2319C10.6906 25.6371 11.5769 26.346 12.3365 27.1816C13.0454 27.9665 13.7797 28.7008 14.5393 29.4604C14.6912 29.6123 14.8938 29.7643 15.0711 29.8909C15.1217 29.9415 15.1723 29.9668 15.2736 29.9668C15.4509 29.9415 15.5775 30.0934 15.7041 30.22C15.9826 30.4732 16.2358 30.7264 16.5649 30.929C16.5903 30.9543 16.6662 30.9796 16.6409 31.0303C16.6409 31.1062 16.5649 31.1062 16.5143 31.1062C16.3371 31.1569 16.1598 31.1822 15.9826 31.1569Z" fill="#FA7C0B"/>
<path d="M19.0717 39.3105C18.2867 39.3105 17.5524 39.0826 16.7928 38.8294C16.2611 38.6522 15.7294 38.4496 15.223 38.2217C14.7672 38.0192 14.5393 37.6647 14.4634 37.1836C14.4634 37.0823 14.438 37.0064 14.4127 36.9051C14.3621 36.6012 14.1595 36.424 13.8557 36.348C13.6278 36.2974 13.3999 36.2468 13.248 36.0695C13.1974 36.0189 13.172 35.9682 13.1467 35.8923C13.0707 35.6391 13.1467 35.5884 13.3746 35.6138C13.7038 35.6644 14.0582 35.6391 14.3874 35.715C14.514 35.7404 14.6406 35.7657 14.7672 35.791C15.0457 35.867 15.2483 36.1202 15.223 36.424C15.1723 37.2089 15.6028 37.69 16.2358 38.0445C17.0207 38.5003 17.8563 38.7788 18.7931 38.7788C19.2236 38.7788 19.6287 38.6522 19.9579 38.2977C20.1098 38.1458 20.1098 38.1458 20.1857 38.3483C20.3123 38.8041 20.2111 39.1839 19.654 39.2599C19.4515 39.2852 19.2489 39.2852 19.0717 39.3105Z" fill="#FA7C0B"/>
<path d="M56.7988 39.056C57.4572 39.2839 58.0648 39.3092 58.6978 39.1066C59.0523 39.0053 59.3055 38.7775 59.5081 38.4989C59.5841 38.3976 59.6347 38.423 59.6853 38.4989C60.0145 39.0307 60.1664 39.613 60.2677 40.2207C60.293 40.3979 60.1158 40.4992 59.9892 40.5752C59.3815 40.955 58.6978 41.0563 58.0142 40.8284C57.761 40.7524 57.6091 40.5752 57.4572 40.3979C57.1533 39.9928 56.9507 39.5371 56.7988 39.056Z" fill="#FA7C0B"/>
<path d="M57.7357 38.9804C56.8495 38.9804 56.2671 38.55 55.8367 37.8157C55.7354 37.6638 55.8873 37.6638 55.9633 37.6384C56.1659 37.6131 56.3938 37.5625 56.5963 37.5118C57.1534 37.3599 57.6598 37.1067 58.0396 36.6509C58.0902 36.575 58.1408 36.575 58.2168 36.6256C58.7485 36.9801 59.179 37.4359 59.5081 38.0182C59.5588 38.1195 59.5335 38.1702 59.4575 38.2461C58.9511 38.7525 58.3941 38.9551 57.7357 38.9804Z" fill="#FA7C0B"/>
<path d="M57.7863 42.0193C57.7863 41.8168 57.7863 41.5382 57.837 41.2597C57.8623 41.1331 57.8876 41.0571 58.0648 41.1078C58.7991 41.361 59.5081 41.285 60.1664 40.9052C60.3183 40.8293 60.3437 40.8799 60.3437 40.9812C60.3943 41.5382 60.4449 42.0953 60.3183 42.627C60.2171 43.0574 59.8879 43.2094 59.5334 43.2347C58.951 43.2853 58.394 43.184 57.9129 42.8296C57.837 42.7536 57.8116 42.703 57.8116 42.6017C57.7863 42.4498 57.7863 42.2725 57.7863 42.0193Z" fill="#FA7C0B"/>
<path d="M6.10768 48.0714C5.8798 48.0968 5.65192 48.0714 5.39871 48.0208C4.84167 47.9195 4.5125 47.5904 4.33526 47.084C4.20866 46.7042 4.15802 46.299 4.15802 45.9192C4.15802 45.8686 4.15802 45.7926 4.20866 45.7673C4.2593 45.742 4.28462 45.8179 4.33526 45.8433C4.68975 46.1218 5.06955 46.375 5.49999 46.4763C5.98108 46.6029 6.46216 46.5522 6.91793 46.451C7.06985 46.4256 7.12049 46.4763 7.12049 46.6029C7.12049 47.008 7.17113 47.4131 7.24709 47.8182C7.27241 47.9195 7.19645 47.9702 7.12049 47.9955C6.79133 48.0208 6.46216 48.0968 6.10768 48.0714Z" fill="#FA7C0B"/>
<path d="M54.0136 37.006C54.3428 36.8794 54.6213 36.7781 54.8998 36.6008C55.2543 36.373 55.5835 36.1198 55.8367 35.7906C55.9126 35.6893 55.9886 35.664 56.0899 35.6893C56.6976 35.7906 57.2799 35.9932 57.837 36.3223C57.9636 36.3983 57.9636 36.4742 57.8876 36.5755C57.5078 37.0566 57.0014 37.2338 56.4444 37.3858C55.5581 37.6136 54.7732 37.4111 54.0136 37.006Z" fill="#FA7C0B"/>
<path d="M10.3868 32.778C10.5641 32.8033 10.7413 32.8033 10.9439 32.8033C11.6022 32.8286 12.2099 32.6767 12.8429 32.5501C13.248 32.4488 13.6532 32.4488 14.033 32.6007C14.1342 32.626 14.2102 32.6767 14.2355 32.702C14.1342 32.8286 14.0583 32.9552 13.957 33.0818C13.7544 33.3097 13.7544 33.6388 13.957 33.8667C14.2608 34.1959 14.6406 34.3225 15.0458 34.4238C15.5015 34.5504 15.9826 34.601 16.4637 34.6263C16.6916 34.6517 16.8941 34.6517 17.122 34.6517C17.0714 34.7529 16.9954 34.7276 16.9195 34.7276C16.4384 34.7276 15.9573 34.7529 15.4762 34.7276C14.6913 34.677 13.9064 34.601 13.1467 34.4491C13.0708 34.4238 13.0201 34.3985 12.9948 34.3225C12.9442 33.7908 12.5644 33.5122 12.1086 33.3097C11.7035 33.1324 11.2477 33.0565 10.8173 32.9552C10.6654 32.9299 10.5388 32.8539 10.3868 32.778Z" fill="#FA7C0B"/>
<path d="M51.4816 36.9051C51.8361 36.7279 52.14 36.5 52.4185 36.2215C52.5957 36.0189 52.773 35.8163 52.8742 35.5884C52.9249 35.4872 53.0008 35.4365 53.1021 35.4365C53.5832 35.4365 54.039 35.4365 54.5201 35.4365C54.8239 35.4618 55.1531 35.4872 55.4569 35.5378C55.6342 35.5631 55.6088 35.6391 55.5329 35.7404C55.3303 36.0189 55.0518 36.2215 54.7479 36.424C53.9377 36.9304 53.0262 37.057 52.064 37.0064C51.9121 37.0064 51.7095 37.0064 51.4816 36.9051Z" fill="#FA7C0B"/>
<path d="M4.79108 48.0205C5.3228 48.4003 5.87985 48.4763 6.46221 48.4256C6.71542 48.4003 6.99394 48.3497 7.24714 48.299C7.39906 48.2737 7.47502 48.2737 7.50034 48.451C7.60163 48.932 7.75355 49.3878 8.00675 49.7929C8.03207 49.8436 8.08271 49.8942 7.98143 49.9195C7.5763 49.9702 7.14586 49.9702 6.74074 49.9195C6.36093 49.8689 6.00645 49.8182 5.67729 49.5904C5.14556 49.2359 4.86704 48.7042 4.79108 48.0205Z" fill="#FA7C0B"/>
<path d="M56.4697 49.7678C56.0646 50.3249 55.5835 50.7047 54.9505 50.9073C54.2668 51.1098 53.6592 50.8819 53.1021 50.5275C52.9755 50.4515 52.7983 50.4009 52.7729 50.2742C52.7729 50.1223 52.9755 50.097 53.0768 50.021C53.406 49.7932 53.7351 49.5653 54.039 49.3121C54.1402 49.2361 54.2162 49.2361 54.2922 49.2868C54.6973 49.5146 55.1277 49.6666 55.5835 49.7425C55.8873 49.7932 56.1659 49.7425 56.4697 49.7678Z" fill="#FA7C0B"/>
<path d="M58.7991 45.1339C58.47 45.0832 58.0902 45.0832 57.8117 44.7794C57.6597 44.6021 57.5585 44.3996 57.6344 44.1464C57.7104 43.8679 57.761 43.564 57.7863 43.2602C57.7863 43.1589 57.8117 43.1589 57.9129 43.2095C58.47 43.4881 59.0523 43.5893 59.66 43.4627C59.7866 43.4374 59.9132 43.3868 60.0398 43.3108C60.1158 43.2602 60.1664 43.2602 60.1664 43.3615C60.1664 43.8932 60.0398 44.3996 59.812 44.8807C59.736 45.0326 59.5588 45.0326 59.4068 45.0579C59.2043 45.1086 59.027 45.1086 58.7991 45.1339Z" fill="#FA7C0B"/>
<path d="M9.14614 38.4236C10.0323 39.2085 11.0705 39.2845 12.1592 39.1579C12.0073 39.2845 11.6782 39.3858 11.3996 39.4111C10.6147 39.4617 9.88042 39.2845 9.17146 38.93C8.84229 38.7781 8.58909 38.5249 8.48781 38.1704C8.38653 37.8919 8.43717 37.6893 8.69037 37.5121C8.96889 37.3095 9.27274 37.2082 9.57658 37.107C9.6019 37.107 9.65254 37.0816 9.70318 37.107C10.1336 37.2589 10.6147 37.3095 11.0452 37.4108C11.1718 37.4361 11.2984 37.4614 11.3996 37.5627C11.5009 37.664 11.5262 37.74 11.3996 37.8666C11.2224 38.0438 10.9945 38.1198 10.7666 38.1957C10.3868 38.297 9.98171 38.3476 9.6019 38.3476C9.44998 38.3476 9.32338 38.4236 9.14614 38.4236Z" fill="#FA7C0B"/>
<path d="M52.5957 52.3501C51.988 52.6286 51.3803 52.8059 50.7473 52.8818C50.1396 52.9578 49.5572 52.8565 49.0002 52.6286C48.5951 52.4767 48.2912 52.1982 48.038 51.869C47.9874 51.7931 47.9621 51.7424 48.0887 51.7424C48.7217 51.6665 49.3547 51.6158 49.9624 51.4639C50.0383 51.4386 50.089 51.4386 50.1396 51.4892C50.6207 51.945 51.2284 52.1222 51.8361 52.2488C52.0893 52.2741 52.3171 52.2995 52.5957 52.3501Z" fill="#FA7C0B"/>
<path d="M49.5826 53.0839C49.3547 53.1598 49.1268 53.1851 48.899 53.2105C48.5192 53.2611 48.1394 53.2611 47.7342 53.2611C47.1012 53.2358 46.4935 53.1092 45.9871 52.7294C45.6326 52.4508 45.3288 52.1217 45.1769 51.6912C45.3288 51.6406 45.4807 51.7166 45.6073 51.7166C46.1897 51.7672 46.7721 51.8178 47.3544 51.7925C47.481 51.7925 47.5317 51.8938 47.5823 51.9698C48.2913 52.7547 48.5192 52.8813 49.5826 53.0839Z" fill="#FA7C0B"/>
<path d="M50.4941 51.261C51.1524 51.0584 51.7601 50.7799 52.3678 50.4761C52.4437 50.4254 52.4944 50.4761 52.545 50.5267C52.9755 50.9065 53.4565 51.1344 54.0389 51.185C54.2162 51.2103 54.3934 51.2103 54.5706 51.185C54.6213 51.185 54.6972 51.1597 54.7226 51.2103C54.7479 51.261 54.6719 51.3116 54.6466 51.3369C54.2921 51.6661 53.8617 51.8433 53.4059 51.9699C52.4184 52.1978 51.5575 51.9446 50.722 51.4129C50.6966 51.3876 50.646 51.3623 50.6207 51.3623C50.5447 51.3369 50.4941 51.3369 50.4941 51.261Z" fill="#FA7C0B"/>
<path d="M48.8736 37.4365C49.1268 37.1833 49.3547 36.9301 49.5066 36.6262C49.5572 36.5249 49.6079 36.4237 49.6332 36.3224C49.6838 36.0945 49.8104 36.0439 50.013 35.9932C50.8233 35.7653 51.6588 35.5881 52.5197 35.4868C52.621 35.4868 52.621 35.4868 52.5957 35.5881C52.545 35.7653 52.4438 35.8919 52.3171 36.0439C51.7854 36.7022 51.1018 37.082 50.2915 37.2846C49.8358 37.3605 49.3547 37.4365 48.8736 37.4365Z" fill="#FA7C0B"/>
<path d="M46.0124 53.11C45.0502 53.0847 44.1134 52.9834 43.3285 52.4011C42.9233 52.0972 42.5942 51.7427 42.3663 51.287C42.3157 51.211 42.265 51.1097 42.341 51.0338C42.4169 50.9578 42.5182 51.0085 42.5942 51.0338C43.2272 51.2617 43.8602 51.3883 44.4932 51.5402C44.6198 51.5655 44.6958 51.5908 44.7211 51.7427C44.8477 52.4011 45.3288 52.7809 45.9365 53.0088C45.9618 53.0088 45.9871 53.0341 46.0124 53.0341C45.9871 53.0594 45.9871 53.0594 46.0124 53.11Z" fill="#FA7C0B"/>
<path d="M43.2019 52.7548C42.3916 52.6029 41.6067 52.3497 40.9231 51.8939C40.2647 51.4635 39.7837 50.8811 39.5305 50.1215C39.5051 50.0708 39.4798 49.9949 39.5305 49.9696C39.5811 49.9189 39.6317 49.9949 39.6824 49.9949C40.3407 50.2734 40.999 50.5519 41.6574 50.8051C41.708 50.8304 41.7586 50.8558 41.7586 50.9317C41.8852 51.7673 42.417 52.3243 43.1513 52.7041C43.1513 52.7041 43.1766 52.7295 43.2019 52.7548Z" fill="#FA7C0B"/>
<path d="M59.0777 46.5776C58.8751 47.084 58.5713 47.4892 58.2421 47.869C58.0649 48.0462 57.8117 48.0715 57.5838 48.1222C57.0014 48.2488 56.419 48.1475 55.862 47.8943C55.6848 47.8183 55.6594 47.793 55.8114 47.6411C56.0646 47.3879 56.2671 47.084 56.495 46.8055C56.571 46.7296 56.5963 46.7296 56.6976 46.7549C57.4319 46.9574 58.1408 47.0081 58.8498 46.7042C58.9258 46.6536 58.9764 46.6283 59.0777 46.5776Z" fill="#FA7C0B"/>
<path d="M57.6597 46.7294C57.3812 46.6788 57.0774 46.6788 56.7989 46.5268C56.7229 46.4762 56.6722 46.4509 56.7482 46.3496C57.0014 45.9698 57.1787 45.5394 57.3559 45.1342C57.4065 45.0076 57.4572 44.957 57.5838 45.0836C57.8623 45.3115 58.1915 45.3874 58.5206 45.4127C58.8498 45.4381 59.179 45.3874 59.5081 45.3115C59.5334 45.3115 59.5841 45.2861 59.6094 45.3115C59.66 45.3621 59.6094 45.3874 59.6094 45.4381C59.5081 45.666 59.4068 45.8938 59.3056 46.1217C59.2549 46.223 59.179 46.3243 59.0524 46.3749C58.6472 46.5522 58.1661 46.6788 57.6597 46.7294Z" fill="#FA7C0B"/>
<path d="M54.3681 49.0587C54.7226 48.7042 55.0771 48.375 55.4062 48.0459C55.4569 47.9952 55.5075 47.9952 55.5582 48.0205C56.2924 48.3244 57.0521 48.4763 57.9129 48.2484C57.8117 48.4003 57.7104 48.5016 57.6091 48.6029C57.3559 48.8561 57.1027 49.084 56.8495 49.3372C56.7229 49.4385 56.571 49.4891 56.3937 49.4891C55.6594 49.5398 54.8492 49.3372 54.3681 49.0587Z" fill="#FA7C0B"/>
<path d="M2.66414 44.6279C2.71478 45.4382 2.76542 46.2231 2.94266 47.008C3.17054 47.9702 3.55035 48.8817 4.18335 49.6667C4.23399 49.7426 4.30995 49.8186 4.38592 49.8692C4.46188 49.9452 4.58848 49.9958 4.46188 50.1477C4.38592 50.249 4.4872 50.4263 4.56316 50.5782C4.68976 50.8567 4.867 51.1099 5.09488 51.3378C4.94296 51.3125 4.91764 51.3378 4.66444 51.1352C3.67695 50.325 2.89202 49.3628 2.66414 48.0715C2.56286 47.4385 2.53754 46.8055 2.53754 46.1725C2.56286 45.6407 2.58818 45.1343 2.66414 44.6279Z" fill="#FA7C0B"/>
<path d="M15.6534 40.3487C16.1345 40.526 16.5143 40.3234 16.8435 40.0955C17.198 39.8423 17.5525 39.6145 18.0082 39.6904C17.3499 39.4879 16.9195 39.9183 16.4384 40.1968C16.5143 40.0702 16.5397 39.9689 16.565 39.8423C16.6156 39.4879 16.7675 39.3359 17.1473 39.3359C17.4512 39.3359 17.755 39.3866 18.0589 39.4372C18.1095 39.4372 18.1601 39.4625 18.1855 39.4372C18.3374 39.2853 18.5146 39.3866 18.6666 39.3866C18.7932 39.3866 19.021 39.6398 19.0464 39.7664C19.1223 40.2728 18.8438 40.5766 18.3121 40.6526C18.0082 40.6779 17.7044 40.6273 17.4005 40.6526C17.0714 40.6526 16.7422 40.7032 16.4384 40.7286C16.1345 40.7286 15.856 40.6526 15.6534 40.3487Z" fill="#FA7C0B"/>
<path d="M7.37372 51.6153C7.7282 51.7165 8.05737 51.7672 8.38653 51.7925C8.76633 51.8178 9.12082 51.7419 9.4753 51.6153C9.57658 51.5899 9.62722 51.5899 9.70318 51.6406C10.2855 52.071 10.9186 52.4255 11.6022 52.6534L11.6275 52.6787C10.4881 53.3117 8.31057 52.7547 7.37372 51.6153Z" fill="#FA7C0B"/>
<path d="M11.1211 53.9202C11.8807 53.9455 12.6403 53.9962 13.3493 53.667C13.5772 53.5657 13.7544 53.4391 13.957 53.3125C14.0076 53.2619 14.0582 53.2366 14.1342 53.2619C14.514 53.3125 14.8685 53.3378 15.2483 53.3378C15.3749 53.3378 15.4762 53.3378 15.6028 53.2872C15.6028 53.3885 15.5521 53.4644 15.5015 53.5151C15.0204 54.0721 14.438 54.4013 13.7038 54.4773C12.8176 54.5532 11.982 54.3253 11.1717 53.9962L11.1464 53.9709C11.1211 53.9455 11.1211 53.9202 11.1211 53.9202Z" fill="#FA7C0B"/>
<path d="M9.29807 51.3877C7.88014 51.8941 6.63944 51.3623 5.75323 49.9697C5.90516 50.0204 6.05708 50.071 6.18368 50.1216C6.81669 50.3242 7.44969 50.3749 8.10802 50.3495C8.23462 50.3495 8.31058 50.3749 8.38654 50.4761C8.61442 50.8306 8.96891 51.0838 9.29807 51.3877Z" fill="#FA7C0B"/>
<path d="M46.4682 38.1703C46.5695 38.0183 46.6454 37.8664 46.7214 37.7398C46.7974 37.5879 46.848 37.436 46.848 37.2841C46.848 37.1828 46.8986 37.1321 46.9999 37.0815C47.4557 36.8536 47.9115 36.7017 48.3925 36.5244C48.7217 36.3978 49.0762 36.2966 49.4053 36.17C49.5066 36.1193 49.5573 36.1446 49.5319 36.2712C49.4813 36.5244 49.3547 36.727 49.2028 36.9042C48.747 37.436 48.19 37.8158 47.5063 37.993C47.1265 38.0437 46.8227 38.1196 46.4682 38.1703Z" fill="#FA7C0B"/>
<path d="M39.7077 51.2359C39.2772 51.008 38.8468 50.8055 38.4417 50.5776C37.7327 50.1724 37.3529 49.5394 37.125 48.8052C37.0997 48.7545 37.0744 48.6786 37.125 48.6279C37.1756 48.5773 37.2516 48.6279 37.3022 48.6785C37.7833 49.0077 38.2644 49.2862 38.7708 49.5648C38.8215 49.5901 38.8721 49.6154 38.8974 49.6914C39.0493 50.2484 39.4038 50.7295 39.733 51.1853C39.7077 51.1599 39.7077 51.1599 39.7077 51.2359Z" fill="#FA7C0B"/>
<path d="M37.0744 49.5648C36.8465 49.3622 36.6439 49.2103 36.4667 49.0584C36.0109 48.6533 35.6058 48.1975 35.1754 47.7671C34.7449 47.286 34.2892 46.8302 33.9347 46.2985C33.8081 46.0959 33.8081 45.944 33.9347 45.8427C34.0106 45.7668 34.0866 45.7668 34.1626 45.868C34.7702 46.6276 35.4792 47.286 36.1882 47.9443C36.3148 48.0709 36.4414 48.1975 36.492 48.3747C36.568 48.7039 36.7452 49.0078 36.9225 49.2863C36.9731 49.3369 37.0491 49.4129 37.0744 49.5648Z" fill="#FA7C0B"/>
<path d="M14.59 54.3755C15.0204 54.173 15.3749 53.9198 15.6787 53.5906C15.7294 53.54 15.78 53.464 15.8307 53.4134C15.8813 53.3374 15.9319 53.2868 16.0332 53.2868C16.5396 53.2868 17.0207 53.2361 17.5018 53.1602C17.5271 53.1602 17.5524 53.1602 17.6031 53.1855C17.198 53.8185 16.7928 54.3755 15.9826 54.4768C15.5268 54.5528 15.0711 54.4515 14.59 54.3755Z" fill="#FA7C0B"/>
<path d="M9.80444 53.1101C10.007 53.1101 10.1589 53.1607 10.3108 53.1607C10.64 53.1607 10.9945 53.1101 11.3237 53.0341C11.7541 52.9582 12.1592 52.9835 12.5897 53.0595C12.8429 53.0848 13.0961 53.1607 13.3493 53.1607C13.3999 53.1607 13.4759 53.1607 13.5012 53.2114C12.5897 53.9963 10.9439 54.0216 9.80444 53.1101Z" fill="#FA7C0B"/>
<path d="M16.8942 54.2995C17.274 53.9956 17.5778 53.6411 17.8057 53.2613C17.8817 53.1347 18.0336 53.1854 18.1349 53.1601C18.5906 53.1094 19.0464 53.0335 19.5022 52.9322C19.5528 52.9322 19.6034 52.8815 19.6541 52.9322C19.6794 52.9828 19.6288 53.0335 19.6034 53.0841C19.1983 53.7677 18.6159 54.1475 17.831 54.2995C17.5272 54.3501 17.2233 54.3248 16.8942 54.2995Z" fill="#FA7C0B"/>
<path d="M16.0332 41.3616C16.1345 41.0324 16.3624 40.8805 16.5902 40.8045C16.8688 40.7032 17.1726 40.7286 17.4511 40.7286C17.8563 40.7539 18.2614 40.8045 18.6665 40.6273C18.8691 40.5513 19.021 40.3994 19.1223 40.2475C19.2995 39.9689 19.2236 39.6904 18.8944 39.4119C19.2236 39.4119 19.5021 39.3613 19.8059 39.3359C19.8312 39.4119 19.7553 39.4119 19.73 39.4372C19.5021 39.6145 19.4768 39.6904 19.6034 39.9436C19.7046 40.1715 19.6287 40.3487 19.4768 40.5007C19.1223 40.8552 18.7172 41.0577 18.2107 41.1084C17.9069 41.1337 17.6284 41.1337 17.3245 41.1084C16.9194 41.083 16.4636 41.0577 16.0332 41.3616Z" fill="#FA7C0B"/>
<path d="M7.70288 52.704C7.24712 52.8559 6.89263 52.7546 6.53815 52.552C6.15835 52.3495 5.93046 52.0203 5.7279 51.6405C5.62662 51.4379 5.50002 51.2354 5.39874 51.0328C5.32278 50.8809 5.17086 50.8049 4.99361 50.8049C4.84169 50.8049 4.61381 50.5011 4.68977 50.3492C4.71509 50.2479 4.81637 50.2732 4.89233 50.2985C5.04425 50.3492 5.17086 50.4758 5.29746 50.577C5.6013 50.8556 5.8545 51.2101 6.18367 51.4886C6.38623 51.6405 6.56347 51.7924 6.76603 51.919C6.96859 52.0456 7.17116 52.1722 7.27244 52.4001C7.3484 52.5774 7.50032 52.628 7.70288 52.704Z" fill="#FA7C0B"/>
<path d="M19.097 53.8946C19.4515 53.6161 19.7047 53.3375 19.8566 52.983C19.8819 52.9071 19.9326 52.8564 20.0338 52.8311C20.4896 52.7805 20.92 52.6539 21.3505 52.5273C21.4011 52.502 21.4518 52.4766 21.5024 52.5273C21.5277 52.5779 21.5024 52.6286 21.5024 52.6792C21.2998 53.135 20.92 53.4135 20.4896 53.6161C20.0592 53.8186 19.6287 53.8946 19.097 53.8946Z" fill="#FA7C0B"/>
<path d="M44.2653 38.7273C44.2653 38.702 44.2653 38.702 44.2653 38.702C44.1134 38.4488 44.3413 38.3982 44.4932 38.3222C45.1515 37.9931 45.8098 37.6892 46.4429 37.3854C46.4682 37.36 46.5188 37.3094 46.5695 37.36C46.5948 37.3854 46.5948 37.436 46.5695 37.4866C46.3669 38.0943 46.0124 38.4741 45.3794 38.6007C45.0502 38.6514 44.7464 38.7527 44.4172 38.8286C44.3413 38.8793 44.24 38.8793 44.2653 38.7273Z" fill="#FA7C0B"/>
<path d="M21.2745 53.3122C21.5024 53.0843 21.6543 52.8311 21.705 52.5273C21.7303 52.4513 21.7809 52.426 21.8316 52.4007C22.262 52.2994 22.6925 52.1728 23.1229 51.9955C23.2242 51.9449 23.2495 51.9702 23.2242 52.0715C23.1482 52.426 22.9457 52.6792 22.6165 52.8564C22.2114 53.1349 21.7303 53.2362 21.2745 53.3122Z" fill="#FA7C0B"/>
<path d="M24.7434 52.0214C24.9207 51.7935 25.0219 51.5656 25.0726 51.3124C25.0979 51.2365 25.1485 51.1858 25.2245 51.1605C25.579 50.9833 25.9588 50.806 26.3133 50.6288C26.4145 50.5781 26.4399 50.6288 26.4652 50.7047C26.5411 50.9326 26.4399 51.1858 26.1613 51.3631C25.7056 51.6416 25.2245 51.8188 24.7434 52.0214Z" fill="#FA7C0B"/>
<path d="M23.1483 52.6791C23.3255 52.4513 23.4268 52.2487 23.4521 51.9955C23.4521 51.8942 23.5281 51.8689 23.604 51.8689C23.9838 51.717 24.3636 51.5397 24.7434 51.3878C24.7941 51.3625 24.8194 51.3118 24.87 51.3625C24.8954 51.3878 24.8954 51.4384 24.87 51.4891C24.7688 51.7676 24.6422 52.0208 24.3889 52.1981C24.0091 52.4259 23.604 52.5525 23.1483 52.6791Z" fill="#FA7C0B"/>
<path d="M7.95605 35.7394C8.48778 35.4355 8.96887 35.1823 9.47527 35.0051C9.55123 34.9798 9.60187 35.0051 9.65251 35.0811C9.82975 35.5115 9.67783 35.7647 9.22207 35.79C8.81694 35.8153 8.41182 35.79 7.95605 35.7394Z" fill="#FA7C0B"/>
<path d="M41.632 40.0187C41.9612 39.7909 42.2903 39.563 42.6448 39.3604C43.0246 39.1325 43.3791 38.8793 43.7842 38.7021C43.8855 38.6515 43.9868 38.5755 44.0881 38.7021C44.164 38.8287 44.0628 38.9047 43.9868 38.9806C43.7842 39.1832 43.5057 39.2845 43.2525 39.3857C42.7461 39.6136 42.2397 39.8162 41.7333 40.0441C41.708 40.0441 41.708 40.0441 41.6827 40.0441C41.6573 40.0187 41.632 40.0187 41.632 40.0187Z" fill="#FA7C0B"/>
<path d="M26.6171 51.0328C26.693 50.8303 26.693 50.6783 26.6171 50.5517C26.5918 50.4758 26.6424 50.4505 26.693 50.4251C27.0729 50.2732 27.4527 50.0707 27.8071 49.8681C27.9337 49.8175 27.9084 49.8428 27.9337 49.9441C27.9591 50.1213 27.9084 50.2479 27.7312 50.3492C27.3767 50.5517 27.0222 50.7796 26.6171 51.0328Z" fill="#FA7C0B"/>
<path d="M29.8834 48.6779C29.301 49.1337 28.744 49.5894 28.1616 50.0452C28.0603 49.6654 28.035 49.7413 28.3136 49.5641C28.744 49.2856 29.1998 49.0324 29.6302 48.7539C29.7062 48.7032 29.7821 48.6779 29.8581 48.6526C29.8581 48.6273 29.8834 48.6526 29.8834 48.6779Z" fill="#FA7C0B"/>
<path d="M17.982 38.398C17.982 38.4992 17.982 38.5498 17.8808 38.5498C17.6785 38.5245 17.4762 38.4739 17.2738 38.398C17.1727 38.3475 17.1727 38.2969 17.2485 38.221C17.375 38.1198 17.5015 38.0187 17.6279 37.9428C17.7544 37.8669 17.8555 37.8922 17.8808 38.044C17.9567 38.1704 17.9314 38.2969 17.982 38.398Z" fill="#FA7C0B"/>
<path d="M15.552 37.1823C15.4002 36.9799 15.4002 36.7776 15.3749 36.6006C15.3749 36.5247 15.4002 36.4741 15.4761 36.4488C15.5014 36.4488 15.5014 36.4488 15.5267 36.4235C15.6531 36.3982 15.8302 36.2718 15.9313 36.4235C16.0072 36.55 15.8808 36.6764 15.8302 36.8029C15.729 36.9293 15.6531 37.0305 15.552 37.1823Z" fill="#FA7C0B"/>
<path d="M16.3363 37.2845C16.3363 37.4615 16.2604 37.6133 16.2099 37.765C16.1846 37.8409 16.134 37.7903 16.1087 37.765C15.9569 37.6639 15.8305 37.5374 15.704 37.4109C15.6534 37.3604 15.6787 37.3351 15.7293 37.2845C15.8811 37.2086 16.0328 37.1327 16.1846 37.1074C16.2857 37.0822 16.3363 37.1833 16.3363 37.2845Z" fill="#FA7C0B"/>
<path d="M18.6154 38.7016C18.5648 38.7016 18.5395 38.7016 18.5142 38.7016C18.3878 38.6763 18.2107 38.6763 18.1602 38.5499C18.1349 38.474 18.3119 38.3981 18.4131 38.3475C18.4637 38.3222 18.4889 38.2969 18.5395 38.2716C18.6407 38.2211 18.7419 38.1452 18.843 38.2211C18.9442 38.2969 18.9442 38.4234 18.9189 38.5246C18.8936 38.7522 18.7166 38.6763 18.6154 38.7016Z" fill="#FA7C0B"/>
<path d="M17.02 37.9422C17.02 37.9928 17.02 38.018 17.02 38.0686C16.9947 38.271 16.9694 38.2962 16.7924 38.2204C16.7671 38.2204 16.7671 38.1951 16.7418 38.1951C16.6154 38.1445 16.4636 38.1192 16.3877 37.9675C16.3624 37.9169 16.7924 37.6387 16.8683 37.6387C16.9441 37.6387 16.9694 37.664 16.9947 37.7398C17.02 37.7904 17.0453 37.8663 17.02 37.9422Z" fill="#FA7C0B"/>
<path d="M23.5027 34.6007C23.2242 34.3728 23.0216 34.0943 22.8444 33.7651C22.7431 33.5879 22.6165 33.5372 22.4393 33.6132C22.3127 33.6638 22.1861 33.7145 22.0595 33.7904C21.7303 33.9424 21.4264 33.993 21.1226 33.7904C20.9454 33.6638 20.7428 33.5879 20.5149 33.6132C20.3124 33.6385 20.1351 33.6132 20.0338 33.4359C19.9832 33.3853 19.9072 33.36 19.8566 33.3347C19.5781 33.2587 19.2742 33.2081 18.9957 33.3093C18.9197 33.3347 18.8438 33.36 18.7931 33.3347C18.5399 33.2587 18.3121 33.3093 18.0842 33.36C17.9576 33.3853 17.831 33.3853 17.7297 33.3093C17.6031 33.2334 17.4765 33.2334 17.3246 33.284C17.0714 33.36 16.7928 33.3347 16.5396 33.3347C16.489 33.3347 16.4384 33.3093 16.413 33.2587C16.2105 33.0561 16.0079 32.8536 15.7547 32.6763C15.6534 32.6004 15.6534 32.5244 15.7294 32.3978C15.8054 32.3219 15.9066 32.2965 16.0079 32.2206C15.6534 32.0433 15.2736 31.9421 14.8938 31.9674C14.6406 31.9674 14.4381 31.8661 14.2608 31.7142C14.4887 31.8155 14.7419 31.8914 14.9951 31.9167C15.147 31.9421 15.2736 31.9167 15.4255 31.9421C16.0839 32.094 16.6662 32.3978 17.198 32.8029C17.5524 33.0815 17.8816 33.3853 18.388 33.1827C18.5146 33.1321 18.6665 33.1321 18.7172 32.9802C18.7678 32.8283 18.6919 32.7017 18.5906 32.6004C18.3627 32.3725 18.1348 32.1193 18.0082 31.8155C17.9323 31.6635 17.831 31.5369 17.755 31.4103C17.6284 31.2331 17.4765 31.1571 17.2486 31.1571C16.9954 31.1571 16.7422 31.2331 16.4637 31.2331C15.7547 31.2837 15.0711 31.1065 14.4381 30.828C13.2986 30.3216 12.4884 29.5113 12.0073 28.3719C11.906 28.1693 11.8301 27.9415 11.7288 27.7389C11.7035 27.6629 11.6528 27.587 11.5515 27.587C11.4503 27.587 11.4249 27.6629 11.3996 27.7389C11.2983 27.9668 11.273 28.1947 11.3237 28.4225C11.349 28.5745 11.3996 28.7517 11.4249 28.9289C11.3743 28.9036 11.349 28.9036 11.3237 28.9036C10.7413 28.5745 10.1589 28.2453 9.57657 27.9161C8.76632 27.4604 8.10799 26.8274 7.50031 26.1184C7.29775 25.8905 7.1205 25.6626 6.91794 25.4347C6.89262 25.3841 6.84198 25.3335 6.76602 25.3588C6.69006 25.3841 6.71538 25.4601 6.71538 25.5107C6.71538 25.8399 6.8673 26.1184 7.01922 26.3969C7.34839 26.9793 7.72819 27.5363 8.03203 28.1187C8.18395 28.3972 8.38652 28.5998 8.69036 28.7264C9.01952 28.8277 9.34869 28.9036 9.67785 29.0302C9.75381 29.0555 9.85509 29.0809 9.82977 29.1821C9.82977 29.2581 9.72849 29.2834 9.65253 29.2834C9.39933 29.3341 9.14612 29.3594 8.89292 29.4607C8.84228 29.486 8.79164 29.5113 8.76632 29.5619C8.76632 29.6379 8.81696 29.6632 8.8676 29.6885C8.91824 29.7139 8.96888 29.7139 9.01952 29.7392C9.44997 29.8405 9.88041 29.9164 10.3109 30.0177C11.0705 30.2709 11.8301 30.5494 12.4884 31.0558C12.691 31.2078 12.8682 31.309 13.1467 31.3344C13.4506 31.3597 13.7291 31.4356 14.0076 31.6129C13.957 31.6382 13.9317 31.6129 13.881 31.5876C13.4506 31.4356 12.9948 31.2837 12.539 31.4863C12.4884 31.5116 12.3871 31.5116 12.3365 31.4863C11.273 31.3344 10.2855 31.0305 9.32337 30.5241C8.05735 29.8658 6.81666 29.2075 5.55065 28.5745C5.47469 28.5491 5.39873 28.4732 5.34809 28.5238C5.27212 28.5998 5.37341 28.6757 5.42405 28.7517L5.44937 28.777C5.60129 29.0049 5.82917 29.1315 6.03173 29.3087C6.4875 29.6886 6.94326 30.0684 7.37371 30.4482C7.80415 30.8026 8.2346 31.1571 8.63972 31.5369C8.69036 31.5876 8.76632 31.6129 8.71568 31.6889C8.63972 31.7901 8.71568 31.8661 8.76632 31.9674C8.8676 32.1446 8.96888 32.2965 8.9942 32.4991C8.9942 32.6004 9.04484 32.6763 9.1208 32.727C9.57657 32.9802 10.007 33.2587 10.4628 33.4866C11.1464 33.8664 11.8807 34.1449 12.6403 34.3222C12.7416 34.3475 12.8429 34.4234 12.9188 34.3728C12.9948 34.2968 12.9188 34.1702 12.8682 34.069C12.8682 34.0436 12.8429 34.0183 12.8176 33.993C12.6403 33.6892 12.3365 33.5372 12.0326 33.4106C11.5262 33.2081 10.9945 33.1321 10.4881 32.9549C10.2855 32.8789 10.1336 32.8029 9.98169 32.6004C10.0323 32.6004 10.0577 32.6004 10.083 32.6004C10.6147 32.727 11.1464 32.727 11.7035 32.6763C12.1846 32.6257 12.6403 32.4485 13.1214 32.4231C13.5518 32.3978 13.957 32.4231 14.3115 32.651C14.4634 32.7523 14.6406 32.6763 14.7166 32.6004C14.7925 32.5497 14.6153 32.4485 14.5647 32.3725C14.5647 32.3725 14.5647 32.3725 14.5647 32.3472C14.8685 32.3978 15.0964 32.6763 15.0457 32.9549C14.9445 32.8789 14.8685 32.7776 14.7166 32.7776C14.4127 32.8029 14.1595 33.2081 14.2608 33.4866C14.3874 33.8917 14.7166 34.0943 15.0964 34.2209C15.7041 34.4234 16.3371 34.4488 16.9701 34.4994C17.7803 34.55 18.6159 34.4994 19.4261 34.55C19.8819 34.5754 20.3377 34.626 20.7934 34.8032C21.072 34.9045 21.3505 35.0564 21.5531 35.2843C21.5024 35.2843 21.4518 35.259 21.4264 35.2337C20.5909 34.8032 19.6794 34.6513 18.7425 34.7273C18.1601 34.7526 17.5778 34.8539 16.9954 34.8539C16.1598 34.8792 15.2989 34.9045 14.4381 34.8032C13.6785 34.702 12.9188 34.5754 12.1846 34.3475C10.6907 33.8917 9.34869 33.1321 8.05735 32.2965C7.62691 32.018 7.17114 31.7142 6.69006 31.5369C5.90513 31.2331 5.09488 31.0052 4.25931 30.9039C3.72759 30.828 3.19586 30.828 2.68946 30.8786C1.85389 30.9799 1.14492 31.3344 0.587876 31.9927C0.182752 32.4738 -0.0957705 33.0055 0.0308308 33.6638C0.106792 33.9677 0.233393 34.2715 0.511916 34.5247C0.435955 34.3222 0.385314 34.1956 0.359994 34.0436C0.208073 33.5372 0.258713 33.0561 0.562556 32.6004C0.841079 32.2206 1.22088 31.9674 1.62601 31.7901C2.30965 31.4863 3.01862 31.385 3.75291 31.4103C4.6138 31.4356 5.42405 31.6635 6.18365 32.018C7.17114 32.4738 8.10799 33.0308 9.04484 33.5879C10.007 34.1702 10.9945 34.702 12.058 35.0818C13.1467 35.4616 14.2608 35.5629 15.4002 35.5882C15.932 35.6135 16.4637 35.5375 16.9954 35.5122C17.7803 35.4869 18.5399 35.3603 19.3249 35.4109C19.8313 35.4616 20.3377 35.4869 20.8188 35.6135C20.996 35.6641 21.2239 35.6895 21.3758 35.8667C21.2745 35.9173 21.1986 35.8667 21.1479 35.8414C20.7934 35.7401 20.439 35.6895 20.0845 35.8161C19.7553 35.9427 19.4768 36.1452 19.097 36.1199C19.097 36.1452 19.097 36.1452 19.097 36.1452C19.1223 36.1705 19.1476 36.1705 19.1476 36.1959C19.5274 36.4237 19.9326 36.3984 20.3377 36.3731C20.5402 36.3478 20.7428 36.2971 20.9454 36.2718C21.1479 36.2718 21.1986 36.3984 21.0973 36.5503C21.0466 36.6263 20.996 36.7023 20.9707 36.7782C20.9454 36.8795 20.9454 36.9555 21.0213 37.0061C21.0973 37.0567 21.1479 36.9555 21.1732 36.9048C21.4771 36.5757 21.8316 36.3225 22.2873 36.1959C22.7431 36.0693 22.7431 36.0693 22.7684 35.6135C22.7684 35.4616 22.8191 35.4362 22.971 35.4362C23.1482 35.4362 23.3255 35.3856 23.4774 35.2843C23.7559 35.0564 23.7812 34.8286 23.5027 34.6007ZM22.4899 35.183C22.338 34.9298 22.0848 34.8032 21.7809 34.7273C21.629 34.6766 21.5784 34.5754 21.629 34.4234C21.705 34.2715 21.8569 34.2968 21.9582 34.3475C22.1101 34.3981 22.2114 34.55 22.2873 34.702C22.3633 34.8792 22.3886 35.0564 22.5152 35.2084C22.5152 35.183 22.5152 35.183 22.4899 35.183Z" fill="#FA7C0B"/>
<path d="M69.1977 34.3741H66.2924V33.9404L66.4659 33.8971C66.7694 33.8103 66.8995 33.6369 66.8995 33.2032V28.3466C66.8995 27.913 66.7694 27.6961 66.4659 27.6528L66.2924 27.6094V27.1758H69.1977V27.6094L69.0243 27.6528C68.7208 27.7395 68.5907 27.913 68.5907 28.3466V33.2032C68.5907 33.6369 68.7208 33.8537 69.0243 33.8971L69.1977 33.9404V34.3741Z" fill="white"/>
<path d="M76.873 27.6094C76.3526 27.7395 76.2659 28.043 76.2659 28.4767L76.1792 34.3741H75.2686L71.6261 28.52L71.6694 33.2032C71.6694 33.6369 71.7995 33.8537 72.103 33.8971L72.2765 33.9404V34.3741H70.2818V33.9404L70.4553 33.8971C70.7588 33.8103 70.8889 33.6369 70.8889 33.2032L70.9322 28.2599C70.9322 27.8696 70.8455 27.7395 70.4119 27.6094V27.1758H72.58L75.4854 31.9024L75.442 28.4767C75.442 28.043 75.3553 27.6961 74.8349 27.6094V27.1758H76.7863V27.6094H76.873Z" fill="white"/>
<path d="M82.9872 28.9974L82.597 29.0841L82.4235 28.6505C82.2067 28.1302 81.6863 27.8266 81.1226 27.8266C80.8191 27.8266 80.6022 27.87 80.4288 27.9133V30.4718L82.25 30.3417L82.2067 31.1222L80.4288 31.0355V33.1603C80.4288 33.5939 80.6456 33.7674 80.9492 33.8541L81.1226 33.8975V34.3311H78.1306V33.8975L78.304 33.8541C78.6075 33.7674 78.7376 33.5939 78.7376 33.1603V28.3036C78.7376 27.87 78.6075 27.6532 78.304 27.6098L78.1306 27.5664V27.1328H82.8571L82.9872 28.9974Z" fill="white"/>
<path d="M86.8032 34.3741H83.8978V33.9404L84.0713 33.8971C84.3748 33.8103 84.5049 33.6369 84.5049 33.2032V28.3466C84.5049 27.913 84.3748 27.6961 84.0713 27.6528L83.8978 27.6094V27.1758H86.8032V27.6094L86.6297 27.6528C86.3262 27.7395 86.1961 27.913 86.1961 28.3466V33.2032C86.1961 33.6369 86.3262 33.8537 86.6297 33.8971L86.8032 33.9404V34.3741Z" fill="white"/>
<path d="M94.5218 27.6094C94.0014 27.7395 93.9147 28.043 93.9147 28.4767L93.828 34.3741H92.9174L89.2749 28.52L89.3182 33.2032C89.3182 33.6369 89.4483 33.8537 89.7519 33.8971L89.9253 33.9404V34.3741H87.9306V33.9404L88.1041 33.8971C88.4076 33.8103 88.5377 33.6369 88.5377 33.2032L88.6678 28.2599C88.6678 27.8696 88.581 27.7395 88.1474 27.6094V27.1758H90.3156L93.2209 31.9024L93.1775 28.4767C93.1775 28.043 93.0908 27.6961 92.5705 27.6094V27.1758H94.5218V27.6094Z" fill="white"/>
<path d="M98.6413 34.3741H95.736V33.9404L95.9094 33.8971C96.213 33.8103 96.343 33.6369 96.343 33.2032V28.3466C96.343 27.913 96.213 27.6961 95.9094 27.6528L95.736 27.6094V27.1758H98.6413V27.6094L98.4678 27.6528C98.1643 27.7395 98.0342 27.913 98.0342 28.3466V33.2032C98.0342 33.6369 98.1643 33.8537 98.4678 33.8971L98.6413 33.9404V34.3741Z" fill="white"/>
<path d="M105.449 27.1758L105.579 29.0838L105.189 29.1271L104.929 28.5634C104.755 28.1731 104.539 27.8696 103.888 27.8696H103.455V33.2032C103.455 33.6369 103.585 33.8537 103.888 33.8971L104.105 33.9404V34.3741H101.113V33.9404L101.33 33.8971C101.633 33.8103 101.763 33.6369 101.763 33.2032V27.8696H101.33C100.679 27.8696 100.463 28.1298 100.289 28.5634L100.029 29.1271L99.6386 29.0838L99.7687 27.1758H105.449Z" fill="white"/>
<path d="M112.474 27.6094L112.344 27.6528C112.084 27.7395 111.867 28.043 111.694 28.52L110.263 31.6855V33.2032C110.263 33.6369 110.393 33.8537 110.696 33.8971L110.913 33.9404V34.3741H107.921V33.9404L108.138 33.8971C108.441 33.8103 108.571 33.6369 108.571 33.2032V31.7723L107.097 28.4333C106.837 27.8262 106.707 27.6961 106.533 27.6528L106.317 27.6094V27.1758H109.222V27.6094L109.048 27.6528C108.875 27.6961 108.788 27.7829 108.788 28.0864C108.788 28.2599 108.918 28.5634 109.092 29.0838L109.872 30.9484L110.696 28.9537C110.913 28.4333 110.956 28.2165 110.956 28.0864C110.956 27.913 110.913 27.7395 110.653 27.6961L110.479 27.6528V27.2191H112.474V27.6094Z" fill="white"/>
<path d="M119.282 34.3741H116.377V33.9404L116.55 33.8971C116.854 33.8103 116.984 33.6369 116.984 33.2032V28.3466C116.984 27.913 116.854 27.6961 116.55 27.6528L116.377 27.6094V27.1758H119.109C120.496 27.1758 122.881 27.2625 122.881 30.5147C122.838 32.4661 121.841 34.3741 119.282 34.3741ZM119.282 27.8262C118.979 27.8262 118.848 27.8696 118.632 27.913V33.0732C118.632 33.4634 118.805 33.6802 119.239 33.6802H119.369C120.626 33.6802 121.103 32.5094 121.103 30.5581C121.103 28.1298 119.976 27.8262 119.282 27.8262Z" fill="white"/>
<path d="M130.383 34.3744H128.909C128.518 34.3744 128.388 34.1143 128.172 33.8107L126.914 31.7727C126.61 31.2957 126.524 31.2523 126.35 31.2523H126.22V33.1603C126.22 33.5939 126.35 33.8107 126.654 33.8541L126.827 33.8975V34.3311H123.922V33.8975L124.095 33.8541C124.399 33.7674 124.529 33.5939 124.529 33.1603V28.3036C124.529 27.87 124.399 27.6532 124.095 27.6098L123.922 27.5664V27.1328H126.871C128.041 27.1328 129.516 27.2629 129.516 28.9541C129.516 30.2116 128.779 30.732 128.085 30.9054L129.256 32.77C129.863 33.6806 129.949 33.8107 130.34 33.8541V34.3744H130.383ZM126.914 27.8266C126.697 27.8266 126.394 27.8266 126.264 27.9133V30.6886H126.827C127.651 30.6886 127.955 29.9081 127.955 29.1709C127.955 28.1302 127.478 27.8266 126.914 27.8266Z" fill="white"/>
<path d="M137.798 34.3741H135.066V33.9404C135.413 33.8537 135.5 33.8103 135.5 33.5935C135.5 33.4634 135.457 33.2466 135.37 32.9864L135.153 32.1625H132.941L132.768 32.6829C132.638 33.0732 132.595 33.3333 132.595 33.5068C132.595 33.767 132.725 33.8537 132.985 33.9404V34.3741H131.034V33.9404C131.38 33.8537 131.554 33.767 131.814 33.0732L134.069 27.1758H135.196L137.148 33.29C137.278 33.7236 137.451 33.8537 137.755 33.9404V34.3741H137.798ZM134.98 31.5121L134.156 28.8236L133.158 31.5121H134.98Z" fill="white"/>
<path d="M143.869 27.3932L144.042 29.0844L143.652 29.1711L143.392 28.7375C143.088 28.2171 142.698 27.7401 141.918 27.7401C140.617 27.7401 140.357 29.1711 140.357 30.5153C140.357 33.1171 140.79 33.8977 141.788 33.8977C142.221 33.8977 142.525 33.5941 142.611 33.4207V32.1198C142.611 31.6861 142.481 31.5127 142.178 31.426L141.961 31.3826V30.949H144.78V31.3826L144.65 31.426C144.433 31.5127 144.259 31.6861 144.259 32.1198V33.1171C143.522 34.1145 142.698 34.5047 141.571 34.5047C140.053 34.5047 138.579 33.5941 138.579 30.9056C138.579 28.6507 139.749 27.0029 141.961 27.0029C142.525 27.0463 143.349 27.133 143.869 27.3932Z" fill="white"/>
<path d="M148.899 34.5477C147.034 34.5477 145.734 33.1601 145.734 30.8185C145.734 28.4335 146.991 27.0459 149.116 27.0459C150.85 27.0459 152.281 28.2601 152.281 30.6884C152.281 32.6397 151.241 34.5477 148.899 34.5477ZM148.942 27.6963C148.075 27.6963 147.468 28.3034 147.468 30.5149C147.468 31.9893 147.728 33.8539 149.029 33.8539C149.896 33.8539 150.504 33.3335 150.504 31.0353C150.504 29.7778 150.287 27.6963 148.942 27.6963Z" fill="white"/>
<path d="M159.957 27.6094C159.436 27.7395 159.35 28.043 159.35 28.4767L159.263 34.3741H158.352L154.71 28.52L154.753 33.2032C154.753 33.6369 154.883 33.8537 155.187 33.8971L155.36 33.9404V34.3741H153.365V33.9404L153.539 33.8971C153.842 33.8103 153.973 33.6369 153.973 33.2032L154.146 28.2599C154.146 27.8696 154.059 27.7395 153.626 27.6094V27.1758H155.794L158.699 31.9024L158.656 28.4767C158.656 28.043 158.569 27.6961 158.049 27.6094V27.1758H160V27.6094H159.957Z" fill="white"/>
<path d="M70.5854 52.847C68.6774 52.847 67.3765 52.37 66.3792 51.9364L66.0756 48.1638L66.9429 47.9904L67.3765 48.9877C68.1137 50.4187 69.0677 51.5895 70.8022 51.5895C72.4934 51.5895 73.0571 50.2019 73.0571 49.2913C73.0571 47.6001 72.0164 47.0797 70.2818 46.1258C68.027 44.9116 66.0756 44.3045 66.0756 41.2257C66.0756 38.4071 68.2871 37.2363 71.1925 37.2363C72.5801 37.2363 73.9677 37.4965 75.0951 38.0169L75.2252 41.4425L74.4013 41.5726L74.0544 40.9222C73.4907 39.8381 72.6668 38.5372 70.9757 38.5372C69.5447 38.5372 68.9809 39.5346 68.9809 40.3151C68.9809 41.8328 69.9783 42.1364 72.4066 43.3505C75.5721 44.955 76.0925 46.1691 76.0925 48.3806C76.1359 49.5514 75.1385 52.847 70.5854 52.847Z" fill="white"/>
<path d="M90.1855 37.4536L90.4891 41.3997L89.6652 41.4864L89.1448 40.3156C88.7545 39.4483 88.3643 38.8846 86.9767 38.8846H86.066V50.0289C86.066 50.9829 86.3262 51.3298 86.9767 51.5033L87.4537 51.59V52.5006H81.2094V51.59L81.6864 51.5033C82.3368 51.3732 82.597 50.9829 82.597 50.0289V38.8846H81.6864C80.2987 38.8846 79.9085 39.4483 79.5182 40.3156L78.9978 41.4864L78.174 41.3997L78.4775 37.4536H90.1855Z" fill="white"/>
<path d="M105.883 38.4072L105.493 38.4939C104.842 38.624 104.582 39.0143 104.582 39.9683V47.9037C104.582 51.4595 101.547 52.717 99.2484 52.717C96.4731 52.717 93.828 51.763 93.828 48.0772V39.9683C93.828 39.0143 93.5678 38.6674 92.9174 38.4939L92.5271 38.4072V37.4966H98.5979V38.4072L98.2077 38.4939C97.5572 38.624 97.297 39.0143 97.297 39.9683V47.9037C97.297 49.5082 97.8174 51.1126 99.8988 51.1126C101.46 51.1126 102.978 50.3321 102.978 47.9037V39.9683C102.978 39.0143 102.717 38.6674 102.067 38.4939L101.677 38.4072V37.4966H105.84V38.4072H105.883Z" fill="white"/>
<path d="M114.512 52.5006H108.441V51.59L108.832 51.5033C109.482 51.3732 109.742 50.9829 109.742 50.0289V39.9253C109.742 38.9713 109.482 38.6244 108.832 38.451L108.441 38.3642V37.4536H114.122C117.027 37.4536 121.971 37.5837 121.971 44.3917C121.971 48.5546 119.889 52.5006 114.512 52.5006ZM114.512 38.8846C113.862 38.8846 113.558 38.928 113.211 39.058V49.8121C113.211 50.636 113.558 51.0696 114.469 51.0696H114.729C117.374 51.0696 118.371 48.6847 118.371 44.6085C118.371 39.4917 115.987 38.8846 114.512 38.8846Z" fill="white"/>
<path d="M130.643 52.5006H124.572V51.59L124.963 51.5033C125.613 51.3732 125.873 50.9829 125.873 50.0289V39.9253C125.873 38.9713 125.613 38.6244 124.963 38.451L124.572 38.3642V37.4536H130.643V38.3642L130.253 38.451C129.603 38.5811 129.342 38.9713 129.342 39.9253V50.0289C129.342 50.9829 129.603 51.3298 130.253 51.5033L130.643 51.59V52.5006Z" fill="white"/>
<path d="M140.053 52.8474C136.15 52.8474 133.418 49.9855 133.418 45.0854C133.418 40.0987 136.02 37.1934 140.443 37.1934C144.042 37.1934 147.078 39.7084 147.078 44.7385C147.078 48.9014 144.996 52.8474 140.053 52.8474ZM140.183 38.581C138.405 38.581 137.104 39.8819 137.104 44.4784C137.104 47.5571 137.625 51.4598 140.357 51.4598C142.134 51.4598 143.435 50.3757 143.435 45.5624C143.435 42.9173 142.915 38.581 140.183 38.581Z" fill="white"/>
<path d="M154.363 52.847C152.455 52.847 151.154 52.37 150.157 51.9364L149.853 48.1638L150.72 47.9904L151.154 48.9877C151.891 50.4187 152.845 51.5895 154.58 51.5895C156.271 51.5895 156.835 50.2019 156.835 49.2913C156.835 47.6001 155.794 47.0797 154.059 46.1258C151.804 44.9116 149.853 44.3045 149.853 41.2257C149.853 38.4071 152.065 37.2363 154.97 37.2363C156.358 37.2363 157.745 37.4965 158.873 38.0169L159.003 41.4425L158.179 41.5726L157.832 40.9222C157.268 39.8381 156.444 38.5372 154.753 38.5372C153.322 38.5372 152.758 39.5346 152.758 40.3151C152.758 41.8328 153.756 42.1364 156.184 43.3505C159.35 44.955 159.87 46.1691 159.87 48.3806C159.913 49.5514 158.916 52.847 154.363 52.847Z" fill="white"/>
</g>
<defs>
<clipPath id="clip0_7037_8">
<rect width="160" height="80" fill="white"/>
</clipPath>
</defs>
</svg>
