<svg width="160" height="80" viewBox="0 0 160 80" fill="none" xmlns="http://www.w3.org/2000/svg">
<g clip-path="url(#clip0_6958_9)">
<path d="M39.5983 48.9428C39.5983 48.5329 39.5983 48.1394 39.5983 47.7295C39.5983 42.3021 39.5983 36.8748 39.5983 31.4474C39.5983 30.2997 39.9262 29.2503 40.6477 28.3648C41.7954 26.9875 43.3039 26.6924 44.9272 27.1679C46.5341 27.6434 47.3703 28.8731 47.6983 30.48C47.7639 30.7588 47.7639 31.0539 47.7639 31.3327C47.7639 40.8264 47.7803 50.3038 47.7639 59.7975C47.7639 60.5354 47.6819 61.2732 47.5015 61.9783C46.7473 64.7494 42.9924 65.7659 41.0248 63.6836C38.8604 61.388 36.8272 58.9777 34.7448 56.6001C31.5474 52.9764 28.3664 49.3364 25.1855 45.6963C24.3328 44.7125 23.4638 43.7286 22.4964 42.6301C22.4636 42.9744 22.4308 43.1712 22.4308 43.3843C22.4308 48.9428 22.4144 54.4849 22.4144 60.0435C22.4144 61.2404 22.234 62.3882 21.3978 63.3064C20.2336 64.569 18.8399 65.1265 17.1346 64.569C15.4294 64.0115 14.4948 62.7653 14.2488 61.0109C14.1504 60.3714 14.1504 59.6991 14.1504 59.0433C14.1504 50.0414 14.1668 41.056 14.1668 32.0541C14.1668 30.7752 14.3472 29.5782 15.1506 28.5288C16.6263 26.594 19.3974 26.3316 21.0535 28.1025C23.1687 30.3653 25.1691 32.71 27.2187 35.0383C31.1375 39.4983 35.0399 43.9746 38.9424 48.4509C39.1064 48.6313 39.2375 48.8281 39.3851 49.0248C39.4671 49.0084 39.5327 48.9756 39.5983 48.9428Z" fill="white"/>
<path d="M88.4279 45.5978C88.3788 51.3531 86.6079 56.2886 82.5743 60.273C77.6552 65.11 71.7852 66.7825 65.1281 64.8641C60.2582 63.4704 56.6837 60.273 54.257 55.8458C52.2074 52.1402 51.4532 48.123 51.7975 43.9254C51.9942 41.6462 52.5681 39.449 53.5192 37.3667C54.4046 35.4318 56.2246 34.3824 57.9791 34.7924C59.9795 35.2515 61.5044 37.2355 61.3568 39.3507C61.3076 40.0229 61.1273 40.728 60.8649 41.3511C58.7661 46.3685 60.3074 52.5665 65.3904 55.4851C68.0467 57.01 70.8178 57.1412 73.7036 55.9606C78.1144 54.1734 80.7706 49.1887 80.0492 44.4009C79.3441 39.7606 76.8026 36.6124 72.2443 35.2515C70.4571 34.7268 68.5714 34.8251 66.8661 35.5466C64.8985 36.3664 62.1111 34.366 61.7831 32.3984C61.324 29.5946 62.5046 27.5122 65.2757 26.8071C72.4575 24.9543 78.5079 26.9219 83.4269 32.382C86.8375 36.1533 88.3296 40.6952 88.4279 45.5978Z" fill="white"/>
<path d="M0.36072 45.7779C0.36072 40.9409 0.36072 36.1038 0.36072 31.2667C0.36072 29.9386 0.885418 28.84 1.85283 27.9546C3.59089 26.3641 6.37835 26.692 7.70649 28.6597C8.29677 29.5287 8.62471 30.4797 8.62471 31.5455C8.62471 40.9901 8.62471 50.4346 8.62471 59.8792C8.62471 61.1745 8.36236 62.3879 7.44414 63.4045C6.39474 64.5687 5.11579 65.0442 3.57449 64.667C1.88562 64.2571 0.901815 63.1585 0.491895 61.5025C0.377117 61.0106 0.344324 60.4859 0.344324 59.9776C0.327927 55.2389 0.344324 50.5166 0.344324 45.7779H0.36072Z" fill="white"/>
<path d="M133.929 51.9597C133.273 51.9597 132.732 51.9597 132.109 51.9597C132.109 51.4842 132.109 51.0415 132.109 50.5988C132.109 48.8607 132.109 47.1227 132.109 45.3682C132.109 44.614 131.961 43.9089 131.371 43.3514C130.404 42.4496 129.01 42.6136 128.436 43.8105C128.174 44.3516 128.059 45.0239 128.043 45.647C127.977 47.549 127.977 49.451 127.993 51.3694C127.993 51.8941 127.829 52.0745 127.321 52.0253C126.96 51.9925 126.583 52.0253 126.173 52.0253C126.173 48.4672 126.173 44.9419 126.173 41.3674C126.78 41.3674 127.321 41.3674 127.911 41.3674C127.911 41.7445 127.911 42.0889 127.911 42.5808C128.846 41.7281 129.666 40.9739 130.961 41.0559C132.273 41.1378 132.994 41.9741 133.618 42.9087C134.109 42.4332 134.519 41.9085 135.06 41.5806C137.323 40.1704 139.635 41.7609 139.816 44.0565C139.996 46.3356 139.898 48.6312 139.914 50.9267C139.914 51.2547 139.914 51.5826 139.914 51.9761C139.324 51.9761 138.75 51.9761 138.077 51.9761C138.077 51.7302 138.077 51.4842 138.077 51.2547C138.077 49.3362 138.094 47.4014 138.077 45.483C138.077 45.0403 137.995 44.5812 137.864 44.1549C137.602 43.3514 136.684 42.7447 135.929 42.8103C135.126 42.8923 134.191 43.8105 134.044 44.6959C133.978 45.1223 133.945 45.5486 133.945 45.9749C133.913 47.9261 133.929 49.9101 133.929 51.9597Z" fill="white"/>
<path d="M70.0963 50.7298C68.0467 50.6315 66.489 49.2869 65.8168 47.2373C65.1609 45.2205 66.3415 42.3511 68.2763 41.4492C69.916 40.6786 71.9164 41.0229 73.2773 42.5314C75.4253 44.8926 74.7858 49.2705 71.3917 50.4511C70.9817 50.5823 70.539 50.6315 70.0963 50.7298Z" fill="white"/>
<path d="M4.60749 23.6097C1.78724 23.5933 -0.311547 21.0354 0.0491829 18.2315C0.327929 15.8868 2.19716 14.0503 4.34515 14.0011C7.00143 13.9356 9.34617 16.6902 8.91985 19.3957C8.60831 21.3961 7.55892 22.8226 5.5913 23.4785C5.46013 23.5277 5.31256 23.5605 5.18138 23.5769C4.93543 23.6097 4.68948 23.6097 4.60749 23.6097Z" fill="white"/>
<path d="M159.016 43.1711C158.18 43.0235 157.442 42.8595 156.688 42.7611C156.114 42.6956 155.704 42.9907 155.474 43.5154C155.245 44.0237 155.606 44.3516 155.917 44.614C156.721 45.2699 157.573 45.8929 158.409 46.516C159.754 47.5162 160.312 48.9755 159.836 50.3037C159.426 51.435 158.557 52.1237 157.409 52.1729C156.409 52.2221 155.392 51.9925 154.392 51.845C153.835 51.763 153.622 51.3859 153.687 50.8284C153.72 50.5004 153.687 50.1725 153.687 49.8118C154.343 50.0413 154.901 50.3365 155.491 50.4348C156.065 50.5332 156.688 50.5168 157.245 50.3693C158.147 50.1233 158.377 49.1723 157.704 48.5492C156.967 47.8605 156.114 47.2703 155.311 46.6308C154.523 46.0077 153.736 45.3846 153.523 44.3024C153.212 42.7447 154.409 41.1215 155.999 41.0559C156.753 41.0231 157.508 41.1215 158.262 41.1706C158.672 41.2034 158.901 41.433 158.934 41.8265C158.951 42.302 158.983 42.7611 159.016 43.1711Z" fill="white"/>
<path d="M111.056 41.7939C111.056 41.4332 110.941 41.302 110.564 41.2856C109.399 41.2856 109.399 41.2692 109.317 42.4334C109.317 42.4498 109.301 42.4662 109.219 42.5482C108.858 42.2858 108.481 42.0071 108.12 41.7283C106.661 40.6297 104.562 40.5641 103.054 41.5643C101.119 42.8597 100.266 45.2864 100.906 47.7623C101.791 51.2057 105.382 52.583 108.284 50.5662C108.596 50.353 108.875 50.1071 109.268 49.7955C109.268 50.0579 109.285 50.2055 109.268 50.3366C109.17 50.9269 109.121 51.5172 108.957 52.0911C108.58 53.5012 107.76 54.2555 106.3 54.3047C105.054 54.3539 103.792 54.2227 102.414 54.1571C102.414 54.5342 102.382 55.0589 102.431 55.5836C102.447 55.6984 102.693 55.8788 102.841 55.8952C104.038 55.9771 105.251 56.0919 106.464 56.0755C108.875 56.0427 110.662 54.4522 110.859 52.0583C111.023 49.9595 111.006 47.8443 111.039 45.7455C111.088 44.4174 111.056 43.1056 111.056 41.7939ZM105.858 49.7791C104.021 49.73 102.628 48.1887 102.644 46.2046C102.66 44.2206 104.087 42.6629 105.874 42.6629C107.76 42.6629 109.252 44.2862 109.219 46.303C109.186 48.2214 107.629 49.8283 105.858 49.7791Z" fill="white"/>
<path d="M122.32 41.3345C122.222 41.3345 122.074 41.5641 122.058 41.6952C122.025 42.056 122.041 42.4167 122.041 42.9086C121.73 42.6463 121.5 42.4659 121.287 42.2691C119.336 40.5147 116.778 40.4655 114.81 42.1052C112.826 43.7612 112.22 47.1554 113.466 49.5493C115.056 52.5827 118.647 53.3042 121.271 51.1234C121.517 50.9266 121.746 50.7135 122.123 50.4183C122.123 51.025 122.123 51.4841 122.123 51.976C122.73 51.976 123.238 51.976 123.812 51.976C123.812 48.4343 123.812 44.9254 123.812 41.3345C123.304 41.3181 122.812 41.3017 122.32 41.3345ZM118.237 50.6151C116.286 50.5823 114.728 48.7951 114.761 46.5979C114.778 44.8106 116.221 42.5971 118.401 42.7446C120.467 42.761 122.123 44.5483 122.091 46.6963C122.058 48.8606 120.303 50.6315 118.237 50.6151Z" fill="white"/>
<path d="M143.964 47.0407C146.505 47.0243 149.047 46.9915 151.572 46.9915C152.113 46.9915 152.343 46.8275 152.211 46.2864C152.08 45.6961 152.015 45.0566 151.802 44.4992C150.998 42.4168 149.654 41.0066 147.276 40.8427C145.079 40.6951 143.324 41.7117 142.275 43.7941C141.144 46.0241 141.521 49.0083 143.078 50.7627C145.194 53.1239 149.26 53.0747 151.638 50.9431C151.769 50.8283 151.769 50.484 151.736 50.2544C151.703 50.0741 151.506 49.9265 151.392 49.7625C151.113 49.3526 150.883 49.3362 150.441 49.6314C149.768 50.0741 149.031 50.484 148.26 50.6971C145.833 51.3366 143.603 49.5822 143.603 47.0407C143.767 47.0407 143.866 47.0407 143.964 47.0407ZM146.62 42.5315C148.26 42.384 149.637 43.4662 150.178 45.3846C148.03 45.3846 145.915 45.3846 143.8 45.3846C143.898 44.04 145.259 42.6463 146.62 42.5315Z" fill="white"/>
</g>
<defs>
<clipPath id="clip0_6958_9">
<rect width="160" height="80" fill="white"/>
</clipPath>
</defs>
</svg>
