<svg width="160" height="80" viewBox="0 0 160 80" fill="none" xmlns="http://www.w3.org/2000/svg">
<path d="M53.6875 64.3002C53.5401 63.997 53.2821 63.6574 53.0242 63.4634C52.8031 63.2935 52.3977 63.0752 51.7466 63.0752C50.6288 63.0752 49.8426 63.7666 49.8426 64.8097C49.8426 65.2463 49.9655 65.501 50.2726 65.78C50.6165 66.1196 51.0342 66.3015 51.4641 66.4834L52.5574 66.9565C53.2207 67.2476 53.8349 67.5508 54.314 68.0117C54.8914 68.5817 55.137 69.2367 55.137 70.0493C55.137 72.1112 53.5893 73.4939 51.5501 73.4939C50.8008 73.4939 49.8672 73.3484 49.081 72.5843C48.4914 72.0506 48.1474 71.2744 48 70.5951L49.2284 70.2555C49.3144 70.8377 49.5846 71.3471 49.904 71.6867C50.3954 72.1719 50.9605 72.3053 51.5378 72.3053C53.0856 72.3053 53.8226 71.2137 53.8226 70.0857C53.8226 69.5763 53.6752 69.1397 53.2576 68.7758C52.9382 68.4726 52.496 68.2664 51.894 67.9996L50.8745 67.5265C50.4322 67.3203 49.8672 67.0899 49.3635 66.6047C48.8722 66.1317 48.5774 65.6102 48.5774 64.7733C48.5774 63.0388 49.9163 61.8866 51.7589 61.8866C52.4591 61.8866 53.0242 62.02 53.577 62.396C54.0315 62.6992 54.4246 63.148 54.6825 63.6453L53.6875 64.3002ZM61.3896 63.2572V73.2999H60.1244V63.2572H57.3605V62.0807H64.1413V63.2572H61.3896ZM68.9812 68.9577C68.9812 69.9038 68.9812 70.9226 69.8902 71.6867C70.3447 72.0749 71.1309 72.3296 71.7574 72.3296C72.3839 72.3296 73.1701 72.0749 73.6246 71.6867C74.5336 70.9347 74.5336 69.9038 74.5336 68.9577V62.0807H75.7988V69.2973C75.7988 70.2434 75.7006 71.1409 75.0864 71.99C74.4107 72.9118 73.2192 73.5061 71.7697 73.5061C70.3202 73.5061 69.1286 72.9239 68.453 71.99C67.8388 71.1531 67.7405 70.2434 67.7405 69.2973V62.0807H69.0058L68.9812 68.9577ZM80.5896 62.0807H82.9113C84.0537 62.0807 85.6752 62.2019 87.1002 63.3906C88.1443 64.2517 89.0411 65.6829 89.0411 67.6963C89.0411 70.0493 87.8618 71.3107 87.0511 72.0021C86.0069 72.8754 84.9259 73.2999 82.899 73.2999H80.6019V62.0807H80.5896ZM81.8549 72.1112H82.9605C83.8695 72.1112 85.1102 72.0142 86.2157 71.1046C87.0633 70.4011 87.7512 69.2852 87.7512 67.6963C87.7512 65.0037 85.8472 63.2572 82.9605 63.2572H81.8549V72.1112ZM94.4952 62.0807V73.2999H93.2299V62.0807H94.4952ZM98.6718 67.6963C98.6718 64.3488 101.313 61.8987 104.58 61.8987C107.848 61.8987 110.489 64.3488 110.489 67.6963C110.489 71.0318 107.86 73.4939 104.58 73.4939C101.301 73.4939 98.6718 71.0197 98.6718 67.6963ZM99.9739 67.6963C99.9739 70.2677 102.038 72.3174 104.593 72.3174C107.148 72.3174 109.212 70.2677 109.212 67.6963C109.212 65.125 107.148 63.0752 104.593 63.0752C102.038 63.0752 99.9739 65.125 99.9739 67.6963Z" fill="white"/>
<path d="M60.8 7.00337V30.2666H55.3704V7.00337H60.8ZM53.7244 6.96698V30.2666H48.2948V6.96698H53.7244ZM105.084 6.95486V21.0122C105.084 21.0122 96.0676 11.0059 94.8269 9.87792C92.4069 7.67046 89.3727 6.49396 85.7121 6.49396C81.0196 6.49396 78.0837 8.33755 76.4867 9.91431C74.3739 12.0005 72.8507 15.3844 72.8507 18.732C72.8507 22.1524 74.2633 25.2816 76.5236 27.3799C78.2925 29.0537 81.2898 30.8003 85.6998 30.8003C89.6553 30.8003 92.6157 29.4782 94.8023 27.3799C96.5343 25.7183 97.6153 23.7049 98.119 21.6187L105.772 30.2666H110.391V6.95486H105.084ZM90.8468 23.8504C89.7167 24.9663 88.0215 25.8395 85.6261 25.8395C83.7958 25.8395 82.1006 25.3544 80.5773 23.9232C79.1278 22.5284 78.4276 20.8182 78.4276 18.6956C78.4276 16.1122 79.4841 14.4141 80.5159 13.4317C81.7812 12.1824 83.6238 11.4425 85.6752 11.4425C87.8249 11.4425 89.7044 12.3158 90.8591 13.4317C91.9155 14.4748 92.9105 16.2577 92.9105 18.6592C92.8983 21.3397 91.7681 22.9771 90.8468 23.8504Z" fill="white"/>
<path d="M67.4088 20.7332C68.711 20.4179 69.8779 19.7265 70.6887 18.9624C72.2119 17.4948 72.519 15.6876 72.519 14.2322C72.519 11.6487 71.4626 9.95065 70.4676 9.0046C69.3374 7.96151 67.4703 6.94269 64.4607 6.94269H55.3705V11.0665H62.9252C63.6376 11.0665 65.038 11.0786 65.9225 11.7457C66.377 12.0975 67.0158 12.8858 67.0158 14.2079C67.0158 15.3601 66.5244 16.0394 66.1313 16.4154C65.21 17.325 63.871 17.3735 62.8883 17.3735H61.6353V21.1335L68.0108 30.2302H74.6442L67.4088 20.7332ZM99.5931 44.9061V49.5151H105.723C105.231 51.3344 104.114 52.2805 103.929 52.426C103.364 52.9112 102.062 53.7481 99.5808 53.7481C97.6768 53.7481 96.0184 53.2629 94.5321 51.8196C92.6649 50.0245 92.0138 47.7928 91.7067 46.0341C92.0015 44.2754 92.6649 42.0437 94.5321 40.2486C96.0307 38.8053 97.6768 38.3323 99.5808 38.3323C102.05 38.3323 103.364 39.1934 103.929 39.6664C104.101 39.7999 105.023 40.6004 105.563 42.0801L110.428 39.7513C109.863 38.5627 109.138 37.4469 108.229 36.5251C105.453 33.6748 102.283 33.1654 99.3351 33.1654C96.3378 33.1654 93.1194 33.6505 90.1958 36.61C89.8027 36.9981 89.3605 37.5075 88.9305 38.1261C88.9305 38.1261 88.9305 38.1261 88.9182 38.1139V38.1382L88.8937 38.1746C88.5374 37.6409 88.1443 37.1679 87.7267 36.7676C85.2207 34.3661 81.9655 33.1775 78.0714 33.1775C73.0964 33.1775 69.9885 35.1424 68.2933 36.804C67.8879 37.2043 67.4948 37.7379 67.1386 38.3565L67.0895 38.2716C66.7701 37.8714 66.4261 37.5196 66.0576 37.1679C62.9866 34.2448 59.5102 33.7839 56.2058 33.7839H48.2457V58.4056H56.3777C58.4783 58.4056 62.7777 58.1509 66.2296 54.7063C66.4998 54.4394 66.7578 54.1605 67.0035 53.8572C67.3966 54.3909 67.8265 54.8761 68.281 55.3248C69.9639 56.9865 73.0718 58.9514 78.0591 58.9514C81.9532 58.9514 85.2085 57.7627 87.7144 55.3612C88.1321 54.961 88.5252 54.4758 88.8814 53.9543C88.8937 53.9664 88.8937 53.9785 88.906 53.9907V54.0149C88.906 54.0149 88.906 54.0149 88.9182 54.0028C89.3605 54.6214 89.8027 55.1186 90.1835 55.5189C93.1071 58.4784 96.3255 58.9635 99.3228 58.9635C102.283 58.9635 105.416 58.442 108.192 55.6038C110.968 52.7656 112 48.2052 112 45.2093V44.9425L99.5931 44.9061ZM63.6991 47.6958C63.4657 48.3386 62.7777 50.631 61.2914 51.8802C59.4242 53.4327 56.7954 53.5176 55.6039 53.5176H54.0192V38.4778H55.5916C57.3482 38.4778 59.7804 38.7568 61.6599 40.6004C62.6303 41.5585 63.5271 43.3172 63.8956 45.9007C63.9325 46.1554 63.9693 46.4101 64.0184 46.6527C63.8956 47.1015 63.785 47.4532 63.6991 47.6958ZM84.7171 49.976C84.3609 50.6188 83.9555 51.1525 83.5255 51.5649C82.2849 52.7535 80.3071 53.6753 78.0223 53.6753C75.848 53.6753 73.9071 52.8991 72.5559 51.5649C72.2856 51.3102 72.0154 51.007 71.7697 50.6552H71.782C71.782 50.6552 70.6273 49.0178 69.8779 46.0341C70.6273 43.0625 71.782 41.413 71.782 41.413H71.7697C72.0277 41.0613 72.2856 40.758 72.5559 40.5033C73.9071 39.1692 75.848 38.3929 78.0223 38.3929C80.3071 38.3929 82.2971 39.3147 83.5255 40.5033C83.9555 40.9278 84.3731 41.4615 84.7171 42.0922C85.0365 42.6259 85.663 43.7175 86.0192 45.2336C86.0806 45.5004 86.142 45.7673 86.2035 46.0341C86.142 46.3009 86.0929 46.5678 86.0192 46.8346C85.6507 48.3507 85.0365 49.4423 84.7171 49.976Z" fill="white"/>
<path d="M98.119 21.6794L91.3505 13.9654C91.3505 13.9654 94.5935 18.2105 91.633 22.9044L94.2618 27.8166C94.2495 27.8166 97.2345 25.6213 98.119 21.6794Z" fill="url(#paint0_linear)"/>
<path d="M61.7458 21.2669C61.7458 21.2669 64.2272 21.7157 67.4457 20.8182L74.6564 30.3515H68.023L61.7458 21.2669Z" fill="url(#paint1_linear)"/>
<path d="M91.5839 45.1852C91.6207 45.452 91.6576 45.7431 91.7067 46.0463C92.0015 44.2876 92.6649 42.0559 94.532 40.2608C96.0307 38.8175 97.6768 38.3445 99.5808 38.3445C102.05 38.3445 103.364 39.2056 103.929 39.6786C104.101 39.8121 105.023 40.6126 105.563 42.0923L110.428 39.7635C109.863 38.5749 109.138 37.4591 108.229 36.5373C105.453 33.687 102.283 33.1776 99.3351 33.1776C96.3378 33.1776 93.1194 33.6627 90.1958 36.6222C89.8027 37.0103 89.3604 37.5197 88.9305 38.1383C88.9305 38.1383 88.9305 38.1383 88.9182 38.1261V38.1504L88.8936 38.1868C90.38 40.37 91.3259 43.4507 91.5839 45.1852Z" fill="url(#paint2_linear)"/>
<path d="M86.7194 48.5812C86.5351 47.7321 86.3877 46.8953 86.2034 46.0462C86.142 46.3131 86.0929 46.5799 86.0192 46.8467C85.6507 48.3628 85.0364 49.4544 84.7171 49.9881C84.3608 50.6309 83.9555 51.1646 83.5255 51.577C82.2848 52.7656 80.3071 53.6874 78.0222 53.6874C75.848 53.6874 73.9071 52.9112 72.5558 51.577C72.2856 51.3223 72.0153 51.0191 71.7697 50.6673H71.7819C71.7819 50.6673 70.6272 49.0299 69.8779 46.0462C69.6322 45.0638 69.5339 43.4264 69.1654 42.1286L64.3009 47.72C65.1608 50.6309 66.5735 53.6147 68.3055 55.3127C69.9885 56.9744 73.0963 58.9392 78.0837 58.9392C81.9777 58.9392 85.233 57.7506 87.7389 55.3491C88.1566 54.9488 88.5497 54.4637 88.9059 53.9421C87.9846 52.6443 87.2107 50.8493 86.7194 48.5812Z" fill="url(#paint3_linear)"/>
<path d="M99.5931 44.9062V49.5152H105.723C105.231 51.3345 104.114 52.2806 103.929 52.4261C103.364 52.9113 102.062 53.7482 99.5808 53.7482C97.6767 53.7482 96.0184 53.263 94.532 51.8197C92.3455 49.7092 91.8172 47.0045 91.5838 45.173C91.2767 43.0141 89.8886 38.8054 87.7144 36.7313C85.2084 34.3298 81.9531 33.1412 78.0591 33.1412C73.084 33.1412 69.9762 35.1061 68.281 36.7677C67.8633 37.1801 67.4948 37.738 67.114 38.2838C67.114 38.2838 67.8019 39.3148 68.4161 40.8915C69.1286 42.723 69.7182 45.4641 69.8533 46.0221C70.6027 43.0505 71.7574 41.401 71.7574 41.401H71.7451C72.003 41.0492 72.261 40.746 72.5313 40.4913C73.8825 39.1571 75.8234 38.3809 77.9977 38.3809C80.2825 38.3809 82.2725 39.3027 83.5009 40.4913C83.9309 40.9158 84.3485 41.4495 84.6925 42.0802C85.0119 42.6138 85.6384 43.7054 85.9946 45.2216C86.2648 46.3374 86.4491 47.4533 86.6948 48.557C87.0756 50.8857 87.9723 52.6566 88.8813 53.9422V53.9665C88.8813 53.9665 88.8813 53.9665 88.8936 53.9544C89.3359 54.5729 89.7781 55.0702 90.1589 55.4705C93.0825 58.4299 96.3009 58.9151 99.2982 58.9151C102.259 58.9151 105.391 58.3935 108.167 55.5554C110.944 52.7172 111.975 48.1567 111.975 45.1609V44.8941L99.5931 44.9062Z" fill="url(#paint4_linear)"/>
<path d="M63.699 47.6958C63.4656 48.3386 62.7777 50.631 61.2913 51.8803C59.4242 53.4328 56.7954 53.5177 55.6038 53.5177H55.4564C54.9282 55.1187 54.6457 56.7076 54.572 58.3692H56.39C58.4906 58.3692 62.79 58.1145 66.2418 54.6699C66.5121 54.4031 66.77 54.1241 67.0157 53.8209C65.5294 51.8196 64.5098 49.3332 64.0307 46.6649C63.8956 47.1015 63.785 47.4532 63.699 47.6958Z" fill="url(#paint5_linear)"/>
<path d="M99.5931 44.9061V49.5151H105.723C105.231 51.3344 104.114 52.2805 103.929 52.426C103.364 52.9112 102.062 53.7481 99.5808 53.7481C97.6767 53.7481 96.0184 53.2629 94.532 51.8196C92.6648 50.0245 92.0138 47.7928 91.7067 46.0341C91.6575 46.3373 91.6084 46.6163 91.5838 46.8831C91.3382 48.6176 90.3923 51.6983 88.8813 53.9179C88.8936 53.93 88.8936 53.9421 88.9059 53.9543V53.9785C88.9059 53.9785 88.9059 53.9785 88.9182 53.9664C89.3604 54.585 89.8027 55.0823 90.1835 55.4825C93.1071 58.442 96.3255 58.9271 99.3228 58.9271C102.283 58.9271 105.416 58.4056 108.192 55.5674C110.968 52.7171 112 48.1688 112 45.173V44.9061H99.5931Z" fill="white"/>
<path d="M55.3704 11.0787H60.8V15.251H55.3704V11.0787Z" fill="url(#paint6_linear)"/>
<defs>
<linearGradient id="paint0_linear" x1="91.7657" y1="21.9541" x2="98.1387" y2="15.4996" gradientUnits="userSpaceOnUse">
<stop stop-opacity="0"/>
<stop offset="1" stop-opacity="0.5"/>
</linearGradient>
<linearGradient id="paint1_linear" x1="68.0919" y1="25.7927" x2="62.7222" y2="18.049" gradientUnits="userSpaceOnUse">
<stop stop-opacity="0"/>
<stop offset="1" stop-opacity="0.5"/>
</linearGradient>
<linearGradient id="paint2_linear" x1="99.6667" y1="38.6761" x2="84.3558" y2="51.9676" gradientUnits="userSpaceOnUse">
<stop stop-opacity="0"/>
<stop offset="1" stop-opacity="0.5"/>
</linearGradient>
<linearGradient id="paint3_linear" x1="77.3421" y1="49.8039" x2="86.6201" y2="40.4071" gradientUnits="userSpaceOnUse">
<stop stop-opacity="0"/>
<stop offset="1" stop-opacity="0.5"/>
</linearGradient>
<linearGradient id="paint4_linear" x1="78.1705" y1="46.0396" x2="57.6997" y2="46.0396" gradientUnits="userSpaceOnUse">
<stop stop-opacity="0"/>
<stop offset="1" stop-opacity="0.5"/>
</linearGradient>
<linearGradient id="paint5_linear" x1="59.1252" y1="55.3205" x2="68.818" y2="47.7217" gradientUnits="userSpaceOnUse">
<stop stop-opacity="0"/>
<stop offset="1" stop-opacity="0.5"/>
</linearGradient>
<linearGradient id="paint6_linear" x1="58.0877" y1="15.0715" x2="58.0877" y2="9.24964" gradientUnits="userSpaceOnUse">
<stop stop-opacity="0"/>
<stop offset="1" stop-opacity="0.5"/>
</linearGradient>
</defs>
</svg>
