<svg width="160" height="80" viewBox="0 0 160 80" fill="none" xmlns="http://www.w3.org/2000/svg">
<path d="M40.2638 60.0004V19H42.3355V60.0004H40.2638ZM61.9537 24.3255V24.1231H70.2247V44.6311C70.2247 47.3506 69.1358 49.9588 67.1977 51.8818C65.2595 53.8048 62.6308 54.8851 59.8898 54.8851C57.1488 54.8851 54.5201 53.8048 52.582 51.8818C50.6438 49.9588 49.555 47.3506 49.555 44.6311H57.826C57.801 44.915 57.8358 45.201 57.9282 45.4708C58.0206 45.7407 58.1685 45.9886 58.3626 46.1987C58.5566 46.4088 58.7926 46.5765 59.0556 46.6913C59.3185 46.8061 59.6026 46.8653 59.8898 46.8653C60.1771 46.8653 60.4612 46.8061 60.7241 46.6913C60.987 46.5765 61.223 46.4088 61.4171 46.1987C61.6112 45.9886 61.7591 45.7407 61.8515 45.4708C61.9438 45.201 61.9786 44.915 61.9537 44.6311V24.3255ZM91.7732 35.1323C92.7158 36.1576 93.4321 37.3669 93.8763 38.6827C94.3786 40.1467 94.6331 41.6831 94.6297 43.2297C94.6297 43.6345 94.6297 43.9927 94.6297 44.3041C94.621 44.577 94.5625 44.8461 94.457 45.0983L94.2216 45.5498H79.8768C79.9445 45.8673 80.0499 46.1757 80.1907 46.4686C80.4399 46.9946 80.7859 47.4699 81.2108 47.87C81.6361 48.263 82.1309 48.5745 82.6704 48.7888C83.2348 49.0102 83.837 49.1212 84.4439 49.1158C85.4527 49.1877 86.4542 48.9006 87.2689 48.306L87.5985 48.0258L93.6566 49.7075L93.0131 50.6574C92.4304 51.507 91.709 52.2543 90.8787 52.8686C90.0076 53.5115 89.0378 54.011 88.0066 54.3479C86.8553 54.7128 85.6524 54.8915 84.4439 54.8773C83.0001 54.8804 81.5683 54.6164 80.2221 54.0987C78.8948 53.591 77.6873 52.817 76.6751 51.8253C75.6267 50.7931 74.7946 49.5653 74.2268 48.2126C73.6015 46.6746 73.292 45.0281 73.3165 43.3698C73.2878 41.7711 73.5813 40.1829 74.1797 38.6983C74.7202 37.3712 75.5143 36.1603 76.5182 35.1323C77.4993 34.1616 78.6614 33.3895 79.9396 32.8589C81.2028 32.3153 82.5648 32.0345 83.9417 32.0336C85.4503 32.0225 86.9471 32.2973 88.3518 32.8433C89.6601 33.3419 90.8397 34.1239 91.8046 35.1323H91.7732ZM80.0337 40.4423H87.9595C87.9136 40.2572 87.856 40.0752 87.7868 39.8973C87.6247 39.4709 87.3733 39.0835 87.0492 38.7606C86.6892 38.4103 86.2624 38.135 85.7936 37.9508C85.2074 37.731 84.5839 37.6253 83.9574 37.6394C83.386 37.6325 82.8194 37.7439 82.2938 37.9664C81.8243 38.1635 81.3979 38.449 81.0382 38.8073C80.6937 39.1626 80.4125 39.5733 80.2064 40.0219C80.1516 40.1594 80.1044 40.2997 80.0651 40.4423H80.0337ZM131.245 35.2881C132.269 36.3237 133.075 37.552 133.615 38.9007C134.188 40.343 134.476 41.8816 134.462 43.4321C134.474 44.9875 134.187 46.5308 133.615 47.979C133.084 49.3292 132.283 50.559 131.261 51.5946C130.239 52.6301 129.016 53.4501 127.667 54.0053C124.792 55.1561 121.58 55.1561 118.705 54.0053C117.361 53.4547 116.143 52.6388 115.127 51.6073C114.115 50.5616 113.32 49.3288 112.788 47.979C112.2 46.534 111.896 44.9905 111.894 43.4321C111.879 41.8816 112.167 40.3429 112.741 38.9007C113.276 37.557 114.071 36.3298 115.08 35.2881C116.096 34.2565 117.314 33.4406 118.658 32.89C121.533 31.7408 124.745 31.7408 127.62 32.89C128.99 33.4421 130.234 34.2631 131.276 35.3036L131.245 35.2881ZM127.588 45.8924C127.873 45.1035 128.011 44.2699 127.996 43.4321C128.011 42.6044 127.873 41.7811 127.588 41.0029C127.364 40.3503 127.006 39.7511 126.537 39.2433C126.094 38.7997 125.558 38.4592 124.967 38.2467C123.789 37.8027 122.488 37.8027 121.31 38.2467C120.75 38.4654 120.246 38.806 119.835 39.2433C119.374 39.7426 119.012 40.3237 118.768 40.9562C118.478 41.7277 118.34 42.5468 118.36 43.3698C118.345 44.2039 118.489 45.0333 118.784 45.8146C119.024 46.4532 119.387 47.04 119.851 47.543C120.256 47.9904 120.754 48.3462 121.31 48.5863C122.474 49.0498 123.772 49.0498 124.936 48.5863C125.526 48.358 126.061 48.0076 126.505 47.5586C126.976 47.0819 127.345 46.515 127.588 45.8924ZM156.513 37.4837C156.844 38.5584 157.008 39.6768 157 40.8005V54.2545H150.565V41.6258C150.598 40.6799 150.329 39.7478 149.796 38.963C149.112 38.3361 148.209 37.9972 147.278 38.0175C146.347 38.0378 145.461 38.4159 144.805 39.072C144.196 39.8958 143.886 40.9004 143.926 41.9216V54.27H137.46V32.6564H143.738V33.8555C144.174 33.4796 144.659 33.1652 145.182 32.9211C146.313 32.3959 147.543 32.112 148.792 32.0879C150.041 32.0638 151.281 32.2999 152.433 32.781C153.426 33.2175 154.302 33.8788 154.991 34.7119C155.66 35.5395 156.166 36.4852 156.482 37.4992L156.513 37.4837ZM107.97 48.5863L108.535 48.5085L109.571 48.2438V53.7873L109.053 53.9897C108.014 54.3707 106.911 54.5453 105.804 54.5036C104.892 54.5494 103.979 54.4146 103.12 54.1072C102.26 53.7998 101.471 53.3258 100.798 52.7128C100.16 52.0562 99.6645 51.2764 99.3432 50.4218C99.0219 49.5673 98.8812 48.6563 98.93 47.7455V38.5114H96.4659V32.6564H98.9456V26.5367H105.349V32.6564H109.524V38.527H105.349V47.0292C105.294 47.4999 105.424 47.9736 105.71 48.3528C106.106 48.6322 106.592 48.7594 107.075 48.7109C107.376 48.6879 107.675 48.6463 107.97 48.5863ZM4.15071 32.4384C4.11146 32.4502 4.06953 32.4501 4.03039 32.4379C3.99125 32.4257 3.95671 32.4021 3.9313 32.3702C3.90588 32.3382 3.89076 32.2994 3.8879 32.2588C3.88505 32.2182 3.89459 32.1777 3.9153 32.1426C4.91962 30.3167 6.28704 28.7121 7.93474 27.426C9.58243 26.1399 11.4761 25.199 13.5011 24.6603C15.526 24.1216 17.6401 23.9964 19.7153 24.2922C21.7904 24.5879 23.7835 25.2986 25.5737 26.381C25.6279 26.381 25.6797 26.4023 25.718 26.4403C25.7563 26.4783 25.7778 26.5298 25.7778 26.5834C25.7778 26.6371 25.7563 26.6886 25.718 26.7266C25.6797 26.7646 25.6279 26.7859 25.5737 26.7859L4.15071 32.4384ZM30.3763 30.8812C32.2966 33.7134 33.2132 37.0989 32.9816 40.5046C32.9793 40.5484 32.9628 40.5903 32.9345 40.624C32.9062 40.6577 32.8676 40.6814 32.8246 40.6915L4.90405 48.1659C4.8638 48.1768 4.82115 48.1751 4.78186 48.1612C4.74258 48.1473 4.70854 48.1217 4.68433 48.088C2.74398 45.2573 1.81061 41.8654 2.03195 38.4491C2.03417 38.4053 2.05068 38.3634 2.07898 38.3297C2.10729 38.296 2.14586 38.2723 2.1889 38.2623L30.1565 30.8345C30.2007 30.8215 30.2479 30.8236 30.2907 30.8406C30.3334 30.8575 30.3691 30.8883 30.392 30.928L30.3763 30.8812ZM30.8942 46.453C30.9334 46.4412 30.9754 46.4414 31.0145 46.4535C31.0537 46.4657 31.0882 46.4893 31.1136 46.5213C31.139 46.5532 31.1541 46.592 31.157 46.6326C31.1599 46.6732 31.1503 46.7137 31.1296 46.7489C30.1254 48.5769 28.7573 50.1834 27.1084 51.4709C25.4594 52.7585 23.564 53.7002 21.5372 54.239C19.5104 54.7778 17.3943 54.9024 15.3175 54.6052C13.2407 54.3081 11.2463 53.5954 9.45546 52.5104C9.41828 52.495 9.38652 52.4691 9.36417 52.4358C9.34183 52.4026 9.32991 52.3635 9.32991 52.3236C9.32991 52.2836 9.34183 52.2445 9.36417 52.2113C9.38652 52.178 9.41828 52.1521 9.45546 52.1367L30.8942 46.453Z" fill="#FF6400"/>
</svg>
