<svg width="500" height="250" viewBox="0 0 500 250" fill="none" xmlns="http://www.w3.org/2000/svg">
<g clip-path="url(#clip0_6098_68)">
<path d="M290.144 125.951C290.008 130.284 290.008 134.481 291.633 138.543C294.205 145.041 298.944 148.832 305.849 149.509C312.889 150.186 318.711 147.885 322.231 141.25C323.856 138.272 325.481 135.158 329.407 134.887C334.958 134.616 337.801 141.115 334.823 147.072C329.407 157.362 314.379 163.59 301.652 161.288C279.312 157.227 273.355 137.324 275.928 119.182C277.688 106.59 283.916 94.6758 297.049 91.5618C315.056 87.2293 328.866 95.3527 334.958 106.455C336.854 110.11 337.531 114.308 333.198 116.474C329.272 118.505 325.481 117.422 322.773 113.224C316.68 103.476 311.265 101.039 302.329 103.612C295.153 105.642 290.279 113.224 290.008 122.702C290.008 123.65 290.144 124.733 290.144 125.951Z" fill="#B9B9B9"/>
<path d="M466.017 115.661C471.162 112.277 474.953 108.892 480.504 108.892C492.147 108.756 499.323 114.984 499.865 126.493C500.271 135.429 499.865 144.5 500 153.571C500 158.58 497.157 161.288 492.554 161.424C487.95 161.559 486.055 158.31 486.326 153.706C486.596 146.666 486.461 139.761 486.326 132.721C486.19 124.462 482.535 119.994 476.307 119.994C469.808 119.994 466.152 124.733 466.152 133.127C466.152 139.626 466.152 146.26 466.152 152.759C466.152 157.633 463.986 161.424 458.706 161.424C453.561 161.424 452.478 157.633 452.478 152.894C452.613 135.293 452.613 117.692 452.478 100.091C452.478 95.3528 453.155 91.4264 459.112 91.291C465.205 91.291 465.881 95.4881 465.881 100.091C466.017 104.966 466.017 109.84 466.017 115.661Z" fill="#B9B9B9"/>
<path d="M49.2825 115.255C49.2825 122.837 49.5532 130.554 49.2825 138.136C48.8763 150.186 39.8051 159.934 28.026 161.559C16.3824 163.184 5.28028 156.414 1.35393 145.448C0.135408 142.063 -0.270766 140.032 0.406191 138.813H15.4346C15.4346 140.167 15.7054 140.844 16.6531 142.198C18.8194 145.448 23.1519 147.343 27.3491 146.124C32.0878 144.771 34.254 141.25 34.254 136.512C34.254 126.087 34.254 115.661 34.254 105.236C34.254 102.528 34.254 99.8207 34.3894 96.9774C34.3894 96.5713 34.3894 96.3005 34.3894 95.8943C34.3894 95.7589 34.3894 95.6235 34.3894 95.4881V89.1248H49.6886C49.6886 89.9371 49.5532 90.8848 49.5532 91.5618C49.4178 99.4145 49.4178 107.267 49.2825 115.255Z" fill="#FE6300"/>
<path d="M420.796 108.621C428.243 108.892 434.741 110.652 439.074 115.12C441.24 117.692 443.542 121.077 440.157 124.056C437.314 126.357 433.658 125.816 430.95 123.108C427.972 119.994 424.722 118.098 420.255 118.369C416.734 118.64 413.891 119.588 413.35 123.379C412.808 127.034 415.922 127.847 418.494 128.524C423.233 129.742 428.243 130.554 432.846 132.044C438.126 133.804 442.73 136.512 443.136 143.01C443.677 150.051 441.24 155.331 434.741 158.445C425.129 162.913 415.516 162.507 406.038 158.039C404.278 157.227 402.654 155.873 401.3 154.383C398.998 151.811 396.696 148.697 400.217 145.583C403.331 142.875 406.986 143.01 409.965 145.854C412.808 148.562 415.516 150.999 419.713 151.405C423.775 151.811 427.972 151.946 429.19 147.478C430.544 142.604 426.076 141.657 422.556 140.709C419.307 139.896 415.922 139.355 412.673 138.543C403.601 136.241 399.133 130.825 399.675 123.108C400.217 115.526 406.309 109.84 415.11 108.892C417.005 108.756 419.036 108.621 420.796 108.621Z" fill="#B9B9B9"/>
<path d="M175.738 107.673C160.168 107.402 148.66 118.64 148.524 134.075C148.389 149.78 159.491 161.153 175.061 161.153C190.495 161.153 201.868 149.915 202.004 134.345C202.139 119.452 190.766 107.809 175.738 107.673ZM175.332 147.207C168.697 147.207 164.23 142.198 164.23 134.616C164.23 126.899 168.427 122.025 175.332 122.025C182.237 122.025 186.434 126.763 186.434 134.616C186.298 142.333 182.101 147.072 175.332 147.207Z" fill="#FE6300"/>
<path d="M390.333 151.946C390.062 144.229 390.333 136.647 390.333 128.93C390.333 118.775 386.948 113.224 378.96 110.246C368.806 106.59 354.996 108.756 349.851 114.984C347.414 117.963 345.383 121.348 348.768 124.597C352.153 127.982 355.673 126.763 358.787 123.514C360.547 121.754 362.172 119.859 364.744 119.046C369.618 117.421 373.68 118.369 375.982 123.379C377.471 126.628 377.2 128.794 372.732 129.336C368.535 129.877 364.203 130.148 360.005 130.419C351.747 131.096 345.519 136.105 344.571 142.333C343.352 149.645 346.737 156.414 353.236 158.987C361.089 162.101 369.212 161.694 376.659 153.029C376.794 158.987 379.502 161.694 383.97 161.153C388.844 160.611 390.468 156.956 390.333 151.946ZM365.421 150.863C362.442 150.592 358.245 150.186 358.245 145.583C358.245 140.438 363.796 138.813 368.941 138.407C371.649 138.136 376.252 137.459 376.523 141.521C376.929 146.26 371.92 150.863 365.421 150.863Z" fill="#B9B9B9"/>
<path d="M141.755 163.184C141.755 163.184 127.809 163.996 121.852 155.196C115.895 146.395 117.655 136.782 117.655 136.782V122.431H112.375V109.569H117.655V87.5H131.194V109.569H141.755V122.025H131.871V141.657C131.871 141.657 131.871 149.509 141.755 149.509V163.184Z" fill="#FE6300"/>
<path d="M34.1187 105.236C34.1187 102.528 34.1187 99.8206 34.254 96.9774L34.1187 105.236Z" fill="#FE6300"/>
<path d="M239.101 109.569C238.153 109.433 237.206 109.433 236.258 109.433C231.248 109.433 227.593 110.923 224.885 112.954V109.433H209.857H209.18V110.246V159.122V161.965H224.75V129.2C224.75 126.357 226.645 123.649 229.353 122.972C230.165 122.837 230.978 122.702 231.925 122.702C232.602 122.702 233.144 122.702 233.685 122.837C236.799 123.243 238.966 126.086 238.966 129.2V161.965H254.671V160.611V125.41C254.806 125.41 254.671 111.193 239.101 109.569Z" fill="#FE6300"/>
<path d="M102.22 140.032H107.365C107.772 138.272 107.907 136.376 107.907 134.345C108.042 119.317 97.0756 107.809 82.4533 107.538C67.2895 107.403 56.1874 118.64 56.052 134.075C55.9166 149.78 66.7479 161.153 81.7764 161.153C90.5768 161.153 97.8879 157.362 102.491 151.134L88.0044 145.447C86.3797 146.531 84.3488 147.072 82.0472 147.208C77.3085 147.208 73.7883 144.5 72.1636 140.167L102.22 140.032ZM82.0472 122.025C86.2443 122.025 89.4937 123.92 91.2538 127.44H72.8406C74.6006 123.92 77.85 122.025 82.0472 122.025Z" fill="#FE6300"/>
</g>
<defs>
<clipPath id="clip0_6098_68">
<rect width="500" height="250" fill="white"/>
</clipPath>
</defs>
</svg>
