<svg width="160" height="80" viewBox="0 0 160 80" fill="none" xmlns="http://www.w3.org/2000/svg">
<path d="M156.181 41.6746C157.163 41.6746 157.977 42.4645 158.025 43.4459C158.048 44.4752 157.211 45.3609 156.181 45.3609C155.176 45.3609 154.338 44.4752 154.362 43.4699C154.338 42.4884 155.176 41.6746 156.181 41.6746ZM156.205 41.9618C155.344 41.9618 154.625 42.656 154.625 43.5178C154.625 44.3795 155.32 45.1216 156.181 45.1216C157.067 45.1216 157.809 44.3556 157.761 43.4699C157.713 42.6321 157.043 41.9618 156.205 41.9618ZM156.229 42.5124C156.373 42.5124 156.899 42.5363 156.899 43.0869C156.899 43.3981 156.756 43.5417 156.54 43.6374L156.899 44.4513H156.564L156.253 43.6614H155.774V44.4513H155.487V42.5124H156.229ZM155.798 43.3741H156.229C156.325 43.3741 156.636 43.3981 156.636 43.0629C156.636 42.8475 156.445 42.7757 156.253 42.7757H155.798V43.3741Z" fill="white"/>
<path d="M2 67.2639V63.1706C3.57987 63.0748 3.84319 62.7397 3.84319 61.3274V42.3928H7.43381V62.5242C7.43381 65.2052 6.35662 67.3596 2.9575 67.3596C2.64631 67.3835 2.28725 67.3117 2 67.2639Z" fill="white"/>
<path d="M14.3996 67.3833C10.9287 67.3833 9.61212 64.3911 9.61212 61.8059V42.4165H13.0831V61.2553C13.0831 61.9256 13.0831 63.3139 14.3996 63.3139C15.405 63.3139 15.7162 62.4761 15.7162 61.2553V42.4165H19.1632V61.8059C19.1392 64.4151 17.8706 67.3833 14.3996 67.3833Z" fill="white"/>
<path d="M25.9136 67.3834C21.7963 67.3834 20.7191 62.4284 20.8867 59.6516L24.1661 59.2207V60.25C24.1661 62.3087 24.6688 63.4337 25.7221 63.4337C26.7753 63.4337 27.3259 62.548 27.3259 61.0879C27.3259 56.2525 21.1021 54.0024 21.1021 47.3717C21.1021 42.7996 24.3576 41.6985 25.9136 41.6985C28.5706 41.6985 30.6771 44.188 30.6292 48.4967L27.2062 48.9037C27.2062 48.7122 27.2301 48.1377 27.2301 47.9462C27.2301 46.4381 26.8471 45.4567 25.9375 45.4567C25.1476 45.4567 24.5731 46.1509 24.5731 47.635C24.5731 51.6086 30.6053 54.8402 30.6053 61.1597C30.6532 64.6785 28.6185 67.3834 25.9136 67.3834Z" fill="white"/>
<path d="M34.6747 66.6415V45.9595H31.3234V42.3928H41.3772V45.9595H38.1935V66.6415H34.6747Z" fill="white"/>
<path d="M47.5052 66.6415V42.3928H55.7157V46.0313H51.024V52.1833H54.1837V55.7739H51.0479V66.6415H47.5052Z" fill="white"/>
<path d="M56.769 60.7527V48.4728C56.769 46.0072 56.9844 41.6746 61.5804 41.6746C65.6977 41.6746 66.3918 44.9301 66.3918 48.4728V60.7527C66.3918 64.0561 65.6737 67.3834 61.5804 67.3834C57.2477 67.3834 56.769 63.6731 56.769 60.7527ZM60.2878 47.0366V61.2794C60.2878 62.6677 60.2878 63.721 61.5565 63.721C62.8252 63.721 62.8252 62.7156 62.8252 61.2794V47.0366C62.8252 46.1509 62.6097 45.2891 61.5565 45.2891C60.3596 45.2891 60.2878 46.4381 60.2878 47.0366Z" fill="white"/>
<path d="M68.3308 66.6415V42.3928H72.1369C75.9429 42.3928 77.8819 43.1588 77.8819 49.1432C77.8819 53.7153 76.7807 54.8882 75.919 55.6302L78.0494 66.6176H74.6982L72.7353 56.6117H71.8496V66.6176H68.3308V66.6415ZM71.8736 45.768V53.0689H72.472C74.0758 53.0689 74.3631 52.0157 74.3631 49.5741C74.3631 46.7255 74.0279 45.768 72.4002 45.768H71.8736Z" fill="white"/>
<path d="M86.7866 66.6415V45.9595H83.5071V42.3928H93.4651V45.9595H90.3293V66.6415H86.7866Z" fill="white"/>
<path d="M94.9732 66.6415V42.3928H98.5159V52.279H101.077V42.3928H104.62V66.6176H101.077V55.8217H98.5159V66.6415H94.9732Z" fill="white"/>
<path d="M106.894 66.6415V42.3928H114.817V46.0313H110.389V52.1833H113.692V55.7739H110.389V63.003H115.081V66.6415H106.894Z" fill="white"/>
<path d="M123.65 66.6413L120.945 42.4165H124.081L125.398 55.2949L127.169 42.4165H130.113L131.885 55.2949L133.201 42.4165H136.337L133.656 66.6413H130.544L128.653 53.2602L126.786 66.6413H123.65Z" fill="white"/>
<path d="M137.917 66.6415V42.3928H141.364V66.6176H137.917V66.6415Z" fill="white"/>
<path d="M143.231 66.6415V42.3928H146.582L149.838 53.2604V42.3928H153.261V66.6176H150.173L146.535 53.7871V66.6176H143.231V66.6415Z" fill="white"/>
<path d="M69.0011 30.2565C68.7377 28.0782 68.4266 25.9238 68.3069 23.7216C68.0196 18.192 67.9717 12.6624 68.5223 7.13288C68.6659 5.57694 69.2404 4.06888 68.7856 2.39326C68.6181 1.79482 68.4744 1.55545 68.0675 1.22032C67.8521 1.02882 67.1339 1.00488 66.8467 1.00488C63.4715 1.00488 60.0963 1.00488 56.7211 1.00488C56.4339 1.00488 56.1466 1.10063 55.8594 1.19638C55.2849 1.43576 54.9019 1.72301 54.4471 2.10601C53.7529 2.72838 53.5135 3.42257 53.2023 4.30826C53.1305 4.52369 53.0347 4.81094 52.9629 5.02638C52.0772 7.851 51.3112 10.6996 51.1197 13.6918C50.7367 19.4607 51.5027 25.0142 53.7529 30.3762C54.3752 31.8842 55.4285 32.6024 57.0562 32.5784C60.2399 32.5545 63.4236 32.5545 66.6073 32.5784C67.1339 32.5784 67.8281 32.5066 68.2351 32.3151C69.2883 31.8603 69.0968 31.0704 69.0011 30.2565ZM63.3279 11.9204L61.6044 14.3381L59.8809 11.9204H63.3279ZM61.1974 14.5056H57.7504L59.4739 12.0879L61.1974 14.5056ZM59.067 11.9204L57.3435 14.3381L55.62 11.9204H59.067ZM55.237 12.0879L56.9605 14.5056H53.5135L55.237 12.0879ZM53.5614 14.9126H56.9366H57.1759L58.9952 21.1363L53.5614 14.9126ZM57.6307 14.9126H57.7504H61.1974H61.3171L59.4739 21.2321L57.6307 14.9126ZM59.9527 21.1363L61.7719 14.9126H62.0113H65.3865L59.9527 21.1363ZM62.0113 14.5056L63.7348 12.0879L65.4583 14.5056H62.0113Z" fill="#FEFEFE"/>
<path d="M103.591 10.5082C103.256 8.66501 102.897 6.6782 102.035 4.97864C101.341 3.59026 100.91 2.41732 99.4495 1.36407C98.9469 1.00501 98.2766 1.02895 97.7739 1.02895C94.7578 1.00501 91.7417 1.02895 88.7016 1.02895C88.2229 1.02895 87.792 1.05289 87.2893 1.17257C86.619 1.34014 86.2839 1.67526 86.1164 2.2737C85.9009 3.11151 85.877 3.97326 85.9967 4.83501C86.4275 8.28201 86.7387 11.729 86.8105 15.176C86.9063 20.2508 86.5472 25.2776 85.8291 30.3045C85.6137 31.7886 85.8291 32.5067 87.2414 32.6982C87.4329 32.7222 87.792 32.7461 87.9835 32.7461C91.239 32.7222 94.4945 32.8179 97.726 32.6982C97.9894 32.6982 98.6357 32.6504 98.899 32.5786C99.4974 32.4349 99.8804 32.1956 100.359 31.8126C101.317 31.0705 101.436 30.6396 101.771 29.8018C104.285 23.5302 104.835 17.091 103.591 10.5082ZM98.875 11.9205L97.1515 14.3382L95.428 11.9205H98.875ZM96.7446 14.5058H93.2976L95.0211 12.0881L96.7446 14.5058ZM94.6142 11.9205L92.8907 14.3382L91.1672 11.9205H94.6142ZM90.7842 12.0881L92.5077 14.5058H89.0607L90.7842 12.0881ZM89.1085 14.9127H92.4837H92.7231L94.5424 21.1364L89.1085 14.9127ZM93.1779 14.9127H93.2976H96.7446H96.8643L95.0211 21.2322L93.1779 14.9127ZM95.4999 21.1364L97.3191 14.9127H97.5585H100.934L95.4999 21.1364ZM97.5585 14.5058L99.282 12.0881L101.005 14.5058H97.5585Z" fill="#FEFEFE"/>
<path d="M85.7812 5.16992C85.6855 4.54755 85.5658 4.02092 85.3264 3.35068C84.6322 1.31599 84.1056 1.17236 81.9512 1.17236C78.5521 1.17236 75.129 1.17236 71.7299 1.17236C70.7963 1.29205 70.2458 1.86655 69.8628 2.68043C68.7377 5.48111 68.618 8.49724 68.4744 11.4415C68.1872 17.6414 68.259 23.8172 69.3601 29.9692C69.6473 31.5251 70.2697 32.5305 71.8257 32.9135C75.4881 32.8177 79.1505 32.8656 82.813 32.8417C83.0523 32.8417 83.6268 32.6741 83.8183 32.5065C84.1774 32.2432 84.6083 31.9081 84.9913 31.3815C85.2546 30.9267 85.5179 30.2804 85.6136 29.658C86.9541 21.5192 86.9302 13.3565 85.7812 5.16992ZM81.3049 11.9203L79.5814 14.338L77.8818 11.9203H81.3049ZM79.1984 14.5055H75.7514L77.4749 12.0879L79.1984 14.5055ZM77.068 11.9203L75.3445 14.338L73.621 11.9203H77.068ZM73.214 12.0879L74.9375 14.5055H71.4905L73.214 12.0879ZM71.5623 14.9125H74.9375H75.1769L76.9961 21.1362L71.5623 14.9125ZM75.6317 14.9125H75.7514H79.1984H79.3181L77.4749 21.232L75.6317 14.9125ZM77.9297 21.1362L79.749 14.9125H79.9883H83.3875L77.9297 21.1362ZM80.0123 14.5055L81.7358 12.0879L83.4593 14.5055H80.0123Z" fill="#FEFEFE"/>
<path d="M65.3865 78.2272C65.4822 78.6342 65.7934 78.8257 66.3201 78.8257C66.8467 78.8257 67.0621 78.6341 67.0621 78.323C67.0621 77.9878 66.8467 77.8442 66.1046 77.6766C65.0035 77.4373 64.6923 77.0543 64.6923 76.5277C64.6923 75.8813 65.2189 75.4026 66.2004 75.4026C67.3015 75.4026 67.7324 75.9532 67.7802 76.5037H66.9424C66.8945 76.2404 66.727 75.9771 66.1764 75.9771C65.7695 75.9771 65.5301 76.1447 65.5301 76.4319C65.5301 76.7192 65.7216 76.8388 66.4158 76.9825C67.6366 77.2458 67.8999 77.6767 67.8999 78.2033C67.8999 78.8975 67.3254 79.3762 66.2482 79.3762C65.195 79.3762 64.6444 78.8735 64.5487 78.2033H65.3865V78.2272Z" fill="white"/>
<path d="M69.4798 76.0967H68.1872V75.4744H71.6102V76.0967H70.3176V79.3522H69.4798V76.0967Z" fill="white"/>
<path d="M73.0944 75.4744V77.7963C73.0944 78.5862 73.5492 78.8017 74.004 78.8017C74.5545 78.8017 74.8897 78.5384 74.8897 77.7963V75.4744H75.7275V77.7484C75.7275 79.065 74.9136 79.4001 73.98 79.4001C73.0465 79.4001 72.2326 79.0411 72.2326 77.7724V75.4744H73.0944Z" fill="white"/>
<path d="M76.7089 75.4744H78.3367C79.5575 75.4744 80.3474 76.2164 80.3474 77.3654C80.3474 78.4905 79.5814 79.3522 78.2888 79.3522H76.685V75.4744H76.7089ZM77.5467 78.7299H78.2648C79.1027 78.7299 79.4857 78.1554 79.4857 77.3654C79.4857 76.6952 79.1266 76.0967 78.2648 76.0967H77.5467V78.7299Z" fill="white"/>
<path d="M81.9991 75.4744V79.3522H81.1613V75.4744H81.9991Z" fill="white"/>
<path d="M86.8584 77.3892C86.8584 78.4664 86.1642 79.3999 84.8237 79.3999C83.5311 79.3999 82.8369 78.5142 82.8369 77.4131C82.8369 76.288 83.579 75.4263 84.8955 75.4263C86.0924 75.4024 86.8584 76.2162 86.8584 77.3892ZM83.6747 77.3892C83.6747 78.1552 84.0577 78.7775 84.8477 78.7775C85.6855 78.7775 85.9967 78.1312 85.9967 77.4131C85.9967 76.6471 85.6376 76.0487 84.8237 76.0487C84.0338 76.0487 83.6747 76.6232 83.6747 77.3892Z" fill="white"/>
<path d="M88.1989 78.2272C88.2947 78.6342 88.6059 78.8257 89.1325 78.8257C89.6591 78.8257 89.8746 78.6341 89.8746 78.323C89.8746 77.9878 89.6591 77.8442 88.9171 77.6766C87.8159 77.4373 87.5047 77.0543 87.5047 76.5277C87.5047 75.8813 88.0314 75.4026 89.0128 75.4026C90.1139 75.4026 90.5448 75.9532 90.5927 76.5037H89.7549C89.707 76.2404 89.5394 75.9771 88.9889 75.9771C88.5819 75.9771 88.3426 76.1447 88.3426 76.4319C88.3426 76.7192 88.534 76.8388 89.2282 76.9825C90.449 77.2458 90.7124 77.6767 90.7124 78.2033C90.7124 78.8975 90.1379 79.3762 89.0607 79.3762C88.0074 79.3762 87.4569 78.8735 87.3611 78.2033H88.1989V78.2272Z" fill="white"/>
</svg>
