<svg width="160" height="80" viewBox="0 0 160 80" fill="none" xmlns="http://www.w3.org/2000/svg">
<g clip-path="url(#clip0)">
<path d="M2.96119 26.1887C2.96119 26.1887 -0.168301 27.5483 0.00996089 31.1184C0.188223 34.6885 18.876 58.8089 18.876 58.8089C18.876 58.8089 23.2632 60.951 26.779 58.1634C30.2947 55.3757 38.0491 28.2232 38.0491 28.2232C38.0491 28.2232 38.158 26.1398 35.5435 25.4551C32.929 24.7606 2.96119 26.1887 2.96119 26.1887Z" fill="url(#paint0_linear)"/>
<path d="M19.4805 59.0341L3.84293 53.4099C2.15935 52.8035 1.00065 51.258 0.921418 49.4877L0.0103009 30.9817C-0.0590232 29.4851 1.40669 28.3701 2.85259 28.8298L19.9756 34.2486C21.8177 34.8355 23.0754 36.5276 23.0754 38.4447V56.5692C23.0754 58.3885 21.2334 59.6699 19.4805 59.0341Z" fill="url(#paint1_linear)"/>
<path d="M37.1678 27.5382L26.7395 33.27C25.2539 34.0916 24.323 35.6273 24.2933 37.3096L24.0061 57.0774C23.9863 58.4076 25.5411 59.151 26.581 58.3196L35.8011 50.9739C36.8905 50.1034 37.5342 48.8123 37.5639 47.4331C37.5639 47.4331 37.8214 41.0265 37.8907 38.8942C37.9799 36.1848 38.1581 28.0664 38.1581 28.0664C38.0591 27.6067 37.5639 27.3133 37.1678 27.5382Z" fill="url(#paint2_linear)"/>
<path d="M18.9845 32.9182L2.30713 27.9885C0.682969 27.6363 2.40617 26.4333 3.0697 26.13L13.3198 21.4644C15.0033 20.7015 16.8949 20.5352 18.6874 21.0047L35.6223 25.4747C36.3156 25.6605 36.4245 26.5898 35.7907 26.9223L25.7486 32.2335C23.6788 33.3388 21.2425 33.5833 18.9845 32.9182Z" fill="url(#paint3_linear)"/>
<path d="M9.44835 25.1322C11.2409 25.1322 12.7066 25.768 12.8452 26.5603C12.8551 26.5211 12.8551 26.482 12.8551 26.4429C12.8551 25.5919 11.33 24.8975 9.44835 24.8975C7.5667 24.8975 6.04156 25.5919 6.04156 26.4429C6.04156 26.482 6.04156 26.5211 6.05147 26.5603C6.19012 25.7582 7.65583 25.1322 9.44835 25.1322Z" fill="#E02836"/>
<path d="M9.4487 25.6409C11.0432 25.6409 12.39 26.1398 12.7565 26.8147C12.806 26.7364 12.8357 26.6484 12.8456 26.5604C12.7168 25.7583 11.2412 25.1323 9.4487 25.1323C7.65618 25.1323 6.19047 25.7681 6.05182 26.5604C6.06172 26.6484 6.09143 26.7364 6.14095 26.8147C6.51728 26.1398 7.85425 25.6409 9.4487 25.6409Z" fill="url(#paint4_linear)"/>
<path d="M9.44834 27.9881C11.2752 27.9881 12.7561 27.4626 12.7561 26.8144C12.7561 26.1661 11.2752 25.6406 9.44834 25.6406C7.62152 25.6406 6.14059 26.1661 6.14059 26.8144C6.14059 27.4626 7.62152 27.9881 9.44834 27.9881Z" fill="#FAFAFA"/>
<path d="M19.0248 25.1322C20.8173 25.1322 22.283 25.768 22.4217 26.5603C22.4316 26.5211 22.4316 26.482 22.4316 26.4429C22.4316 25.5919 20.9065 24.8975 19.0248 24.8975C17.1431 24.8975 15.618 25.5919 15.618 26.4429C15.618 26.482 15.618 26.5211 15.6279 26.5603C15.7666 25.7582 17.2323 25.1322 19.0248 25.1322Z" fill="#E02836"/>
<path d="M19.0251 25.6409C20.6196 25.6409 21.9665 26.1398 22.3329 26.8147C22.3824 26.7364 22.4121 26.6484 22.422 26.5604C22.2933 25.7583 20.8177 25.1323 19.0251 25.1323C17.2326 25.1323 15.7669 25.7681 15.6283 26.5604C15.6382 26.6484 15.6679 26.7364 15.7174 26.8147C16.0838 26.1398 17.4307 25.6409 19.0251 25.6409Z" fill="url(#paint5_linear)"/>
<path d="M19.0248 27.9881C20.8516 27.9881 22.3326 27.4626 22.3326 26.8144C22.3326 26.1661 20.8516 25.6406 19.0248 25.6406C17.198 25.6406 15.717 26.1661 15.717 26.8144C15.717 27.4626 17.198 27.9881 19.0248 27.9881Z" fill="#FAFAFA"/>
<path d="M28.6311 25.1322C30.4236 25.1322 31.8893 25.768 32.028 26.5603C32.0379 26.5211 32.0379 26.482 32.0379 26.4429C32.0379 25.5919 30.5128 24.8975 28.6311 24.8975C26.7495 24.8975 25.2243 25.5919 25.2243 26.4429C25.2243 26.482 25.2243 26.5211 25.2342 26.5603C25.3729 25.7582 26.8386 25.1322 28.6311 25.1322Z" fill="#E02836"/>
<path d="M28.6315 25.6409C30.2259 25.6409 31.5728 26.1398 31.9392 26.8147C31.9888 26.7364 32.0185 26.6484 32.0284 26.5604C31.8996 25.7583 30.424 25.1323 28.6315 25.1323C26.839 25.1323 25.3732 25.7681 25.2346 26.5604C25.2445 26.6484 25.2742 26.7364 25.3237 26.8147C25.6901 26.1398 27.037 25.6409 28.6315 25.6409Z" fill="url(#paint6_linear)"/>
<path d="M28.6311 27.9881C30.4579 27.9881 31.9388 27.4626 31.9388 26.8144C31.9388 26.1661 30.4579 25.6406 28.6311 25.6406C26.8043 25.6406 25.3234 26.1661 25.3234 26.8144C25.3234 27.4626 26.8043 27.9881 28.6311 27.9881Z" fill="#FAFAFA"/>
<path d="M7.71469 51.3946L4.89221 50.436C4.35742 50.2502 3.98109 49.7611 3.96128 49.2036L3.25814 33.9645C3.22843 33.4168 3.76322 33.0158 4.298 33.182L7.30865 34.1504C7.85333 34.3264 8.23957 34.8155 8.26928 35.3828L9.04175 50.4262C9.06155 51.1109 8.37822 51.6195 7.71469 51.3946Z" fill="#E50012"/>
<path d="M8.14072 51.8155L5.31823 50.8569C4.78345 50.6711 4.40712 50.182 4.38731 49.6245L3.68417 34.3854C3.65446 33.8377 4.18924 33.4367 4.72403 33.6029L7.73467 34.5713C8.27936 34.7473 8.6656 35.2364 8.69531 35.8037L9.46778 50.8472C9.48758 51.5318 8.80425 52.0405 8.14072 51.8155Z" fill="white"/>
<path d="M9.68525 42.2398L13.6763 36.6743C13.8744 36.4005 14.2309 36.2733 14.5577 36.3809L18.8261 37.7014C19.1628 37.8089 19.2817 38.21 19.0638 38.4838L14.8945 43.4722C14.5973 43.8341 14.5379 44.333 14.7459 44.7438L19.7372 54.5543C19.9353 54.9553 19.5392 55.3857 19.1232 55.2292L15.3302 53.8305C14.8548 53.6544 14.4686 53.3023 14.2408 52.8524L9.58621 43.4331C9.39805 43.0419 9.42776 42.5919 9.68525 42.2398Z" fill="#E50012"/>
<path d="M9.68561 42.7676L13.6767 37.2022C13.8748 36.9283 14.2313 36.8011 14.5581 36.9087L18.8265 38.2292C19.1632 38.3368 19.282 38.7378 19.0642 39.0117L14.8948 44.0001C14.5977 44.362 14.5383 44.8608 14.7463 45.2716L19.7376 55.0821C19.9357 55.4832 19.5395 55.9135 19.1236 55.7571L15.3306 54.3583C14.8552 54.1823 14.469 53.8302 14.2412 53.3802L9.57668 43.961C9.39841 43.5795 9.42812 43.1198 9.68561 42.7676Z" fill="white"/>
<path d="M35.7814 47.3064L33.3551 34.3464C33.2561 33.8377 32.7015 33.5639 32.236 33.7791L31.3051 34.2192C30.7406 34.4833 30.3445 35.0017 30.2256 35.6081C30.2256 35.6081 31.4833 35.2658 31.7507 36.3222C32.6024 39.7749 33.3353 48.2552 33.4838 49.1257C33.5235 49.3507 33.7908 49.4485 33.9691 49.3018L35.514 48.04C35.722 47.8737 35.8309 47.5901 35.7814 47.3064Z" fill="#C8031A"/>
<path d="M35.6131 47.7757L33.1867 34.8156C33.0877 34.307 32.5331 34.0331 32.0677 34.2483L31.1367 34.6885C30.5722 34.9525 30.1761 35.4709 30.0573 36.0774L26.4128 54.779C26.3633 55.0431 26.6703 55.2289 26.8882 55.0626L28.4232 53.8987C28.7005 53.6933 28.8886 53.3803 28.9481 53.0379L29.8592 47.7854L32.6817 45.7901C32.6817 45.7901 33.1372 48.4603 33.3155 49.595C33.3551 49.8199 33.6225 49.9177 33.8008 49.771L35.3457 48.5093C35.5636 48.343 35.6725 48.0593 35.6131 47.7757ZM32.0776 42.6112L30.7703 43.4817C30.701 43.5306 30.6019 43.4719 30.6218 43.3839L31.4933 38.3173C31.5032 38.2586 31.5824 38.2586 31.5923 38.3173L32.2558 42.22C32.2756 42.3667 32.2063 42.5232 32.0776 42.6112Z" fill="white"/>
<path d="M56.5981 46.5536C56.5981 46.6906 56.4793 46.7688 56.2416 46.7688H53.0725C52.8249 46.7688 52.6368 46.6808 52.5278 46.5145L47.1206 38.5428V46.2993C47.1206 46.4265 47.071 46.5341 46.9819 46.6221C46.8829 46.7199 46.7739 46.759 46.6551 46.759H44.3179C44.1891 46.759 44.0802 46.7101 43.9911 46.6221C43.892 46.5243 43.8524 46.4167 43.8524 46.2993V29.8669C43.8524 29.7398 43.9019 29.642 43.9911 29.5539C44.0901 29.4659 44.199 29.4268 44.3179 29.4268H46.6452C46.7739 29.4268 46.8829 29.4659 46.972 29.5539C47.071 29.642 47.1107 29.7496 47.1107 29.8669V37.3006L52.9042 29.6126C52.9636 29.5344 53.0428 29.4855 53.1319 29.4561C53.2211 29.4366 53.3201 29.417 53.4489 29.417H56.1525C56.4496 29.417 56.5981 29.5148 56.5981 29.7006C56.5981 29.8082 56.5387 29.9354 56.4298 30.0723L50.3788 37.8092L56.4793 46.27C56.5585 46.3971 56.5981 46.4852 56.5981 46.5536Z" fill="white"/>
<path d="M72.0967 46.3676C72.0967 46.4948 72.0571 46.5926 71.9779 46.661C71.8986 46.7295 71.7996 46.7686 71.6709 46.7686H69.1653C69.0564 46.7686 68.9573 46.7295 68.8781 46.6513C68.7989 46.573 68.7394 46.4752 68.7097 46.3676L67.6204 41.927H62.1834L61.094 46.3676C61.0643 46.4752 61.0048 46.573 60.9256 46.6513C60.8464 46.7295 60.7474 46.7686 60.6384 46.7686H58.1328C58.0041 46.7686 57.9051 46.7295 57.8258 46.661C57.7466 46.5926 57.707 46.4948 57.707 46.3676C57.707 46.348 57.707 46.3383 57.7169 46.3187C57.7268 46.2991 57.7268 46.2796 57.7268 46.2502L61.6189 31.598C61.7575 31.0503 61.9655 30.6297 62.2329 30.3167C62.5003 30.0037 62.7875 29.7689 63.0945 29.6027C63.4015 29.4364 63.7184 29.3386 64.0452 29.2897C64.372 29.2408 64.6592 29.2212 64.9068 29.2212C65.1544 29.2212 65.4515 29.2408 65.7684 29.2897C66.0952 29.3386 66.4022 29.4462 66.7191 29.6027C67.0261 29.7689 67.3133 30.0037 67.5807 30.3167C67.8481 30.6297 68.0561 31.0601 68.1947 31.598L72.0769 46.2502C72.0769 46.2796 72.0769 46.3089 72.0868 46.3187C72.0967 46.3383 72.0967 46.348 72.0967 46.3676ZM65.2831 32.3218C65.2534 32.1849 65.2138 32.0871 65.1643 32.0284C65.1148 31.9697 65.0257 31.9501 64.9068 31.9501C64.7781 31.9501 64.6988 31.9795 64.6493 32.0284C64.5998 32.0871 64.5602 32.1849 64.5305 32.3218L62.8271 39.2567H66.9865L65.2831 32.3218Z" fill="#B11219"/>
<path d="M91.2799 46.553C90.6758 46.6801 89.9726 46.7779 89.1705 46.8464C88.3683 46.9149 87.3482 46.954 86.1103 46.954C85.4665 46.954 84.7733 46.8366 84.0404 46.6019C83.3076 46.3671 82.6143 45.9759 81.9805 45.4379C81.3368 44.8902 80.8119 44.1566 80.396 43.2372C79.98 42.3177 79.772 41.1636 79.772 39.7746V36.4099C79.772 35.021 79.9701 33.8668 80.3761 32.9474C80.7822 32.0279 81.2972 31.2943 81.931 30.7368C82.5648 30.1891 83.2581 29.788 84.0008 29.5533C84.7535 29.3185 85.4863 29.2012 86.1895 29.2012C86.754 29.2012 87.3086 29.2207 87.8335 29.2501C88.3584 29.2794 88.8436 29.3185 89.2893 29.3675C89.7349 29.4164 90.1311 29.4653 90.4777 29.5044C90.8243 29.5533 91.0917 29.5924 91.2799 29.6218C91.577 29.6804 91.7256 29.8467 91.7256 30.1108V31.6758C91.7256 31.8519 91.6958 31.9692 91.6265 32.0475C91.5671 32.1257 91.4384 32.1649 91.2502 32.1649H91.1809C90.6263 32.116 89.933 32.0768 89.111 32.0377C88.289 31.9986 87.2987 31.979 86.1598 31.979C85.7636 31.979 85.3774 32.0573 85.011 32.204C84.6347 32.3507 84.3078 32.5952 84.0107 32.9376C83.7136 33.2799 83.4858 33.7396 83.3076 34.3069C83.1293 34.8743 83.0501 35.5687 83.0501 36.4001V39.7648C83.0501 40.5865 83.1392 41.2809 83.3274 41.8482C83.5057 42.4058 83.7433 42.8655 84.0404 43.2078C84.3375 43.5502 84.6644 43.7947 85.0308 43.9414C85.3972 44.0881 85.7537 44.1664 86.1004 44.1664C86.546 44.1664 86.9521 44.1664 87.3383 44.1566C87.7146 44.1468 88.091 44.1272 88.4574 44.0979V38.1412C88.4574 38.014 88.497 37.9064 88.5861 37.8184C88.6753 37.7206 88.7842 37.6815 88.913 37.6815H91.27C91.3987 37.6815 91.5077 37.7304 91.6067 37.8184C91.7057 37.9162 91.7454 38.0238 91.7454 38.1412V45.9955C91.7256 46.2987 91.577 46.4845 91.2799 46.553Z" fill="white"/>
<path d="M104.907 46.2988C104.907 46.426 104.857 46.5336 104.768 46.6216C104.669 46.7194 104.56 46.7585 104.442 46.7585H102.431C102.302 46.7585 102.193 46.7096 102.104 46.6216C102.005 46.5238 101.966 46.4162 101.966 46.2988V45.9271C101.411 46.2499 100.866 46.5042 100.312 46.6901C99.7572 46.8661 99.2026 46.9541 98.6282 46.9541C98.1429 46.9541 97.6477 46.8955 97.1625 46.7879C96.6772 46.6803 96.2316 46.4749 95.8453 46.1814C95.4591 45.888 95.1422 45.487 94.8946 44.9881C94.647 44.4893 94.5282 43.8437 94.5282 43.0514V42.9536C94.5282 42.2885 94.6371 41.7016 94.8451 41.2028C95.063 40.704 95.3997 40.2834 95.8651 39.941C96.3306 39.5987 96.9248 39.3444 97.6676 39.1683C98.4004 38.9923 99.2818 38.914 100.302 38.914H101.787V37.8772C101.787 37.1045 101.619 36.5959 101.282 36.3513C100.946 36.097 100.421 35.9699 99.7077 35.9699C98.955 35.9699 98.2221 35.9894 97.5091 36.0286C96.7961 36.0677 96.2514 36.1068 95.8552 36.1557H95.7364C95.6076 36.1557 95.5086 36.1361 95.4294 36.0872C95.3502 36.0383 95.3105 35.9307 95.3105 35.7645V34.2875C95.3105 34.0234 95.4591 33.8669 95.7562 33.7984C96.2316 33.7104 96.7961 33.6224 97.4695 33.5441C98.1429 33.4659 98.8857 33.4268 99.7077 33.4268C101.391 33.4268 102.689 33.7887 103.58 34.5223C104.471 35.2558 104.917 36.3807 104.917 37.887V46.2988H104.907ZM101.787 40.9681H100.292C99.7572 40.9681 99.3115 41.0072 98.9748 41.0952C98.6381 41.1832 98.3608 41.3104 98.1627 41.4669C97.9647 41.6332 97.826 41.8386 97.7567 42.0831C97.6874 42.3276 97.6477 42.6211 97.6477 42.9439V43.0417C97.6477 43.6188 97.7864 44.0002 98.0538 44.1958C98.3212 44.3915 98.7569 44.4893 99.361 44.4893C99.7869 44.4893 100.213 44.4306 100.639 44.3034C101.055 44.1763 101.441 44.0198 101.797 43.8339V40.9681H101.787Z" fill="white"/>
<path d="M124.823 46.6118C124.724 46.7096 124.615 46.7683 124.496 46.7683H122.317C122.188 46.7683 122.079 46.7194 121.99 46.6216C121.891 46.5238 121.852 46.4064 121.852 46.2792V38.3565C121.852 37.9065 121.822 37.5349 121.772 37.2512C121.713 36.9675 121.624 36.7328 121.505 36.5665C121.376 36.4002 121.208 36.2731 120.98 36.2046C120.762 36.1361 120.485 36.097 120.148 36.097C119.93 36.097 119.613 36.1361 119.198 36.2242C118.791 36.3122 118.366 36.4589 117.94 36.6839C117.969 36.948 117.999 37.2219 118.009 37.4957C118.029 37.7794 118.029 38.063 118.029 38.3565V46.2792C118.029 46.4064 117.979 46.514 117.89 46.6216C117.791 46.7194 117.682 46.7683 117.563 46.7683H115.385C115.256 46.7683 115.147 46.7194 115.058 46.6216C114.959 46.5238 114.919 46.4064 114.919 46.2792V38.3565C114.919 37.9065 114.899 37.5349 114.85 37.2512C114.8 36.9675 114.721 36.7328 114.602 36.5665C114.483 36.4002 114.315 36.2731 114.107 36.2046C113.899 36.1361 113.622 36.097 113.295 36.097C112.81 36.097 112.077 36.3513 111.116 36.8697V46.2695C111.116 46.3966 111.067 46.5042 110.978 46.6118C110.879 46.7096 110.77 46.7585 110.651 46.7585H108.472C108.343 46.7585 108.234 46.7096 108.145 46.602C108.046 46.5042 108.007 46.3868 108.007 46.2597V34.0528C108.007 33.9256 108.056 33.818 108.145 33.73C108.244 33.6322 108.353 33.593 108.472 33.593H110.532C110.661 33.593 110.77 33.6419 110.859 33.73C110.958 33.8278 110.997 33.9354 110.997 34.0625V34.5614C111.503 34.2484 112.018 33.9843 112.533 33.7593C113.057 33.5441 113.671 33.4268 114.375 33.4268C115.048 33.4268 115.612 33.5246 116.068 33.7104C116.524 33.8963 116.88 34.1506 117.148 34.4831C117.752 34.1603 118.346 33.8963 118.93 33.7104C119.524 33.5246 120.227 33.4268 121.049 33.4268C121.852 33.4268 122.515 33.5539 123.02 33.8082C123.535 34.0625 123.931 34.4147 124.219 34.8548C124.506 35.295 124.704 35.8134 124.813 36.41C124.922 37.0067 124.981 37.6424 124.981 38.3271V46.2695C124.961 46.3966 124.922 46.5042 124.823 46.6118Z" fill="white"/>
<path d="M131.31 31.3629C131.31 31.49 131.26 31.5976 131.171 31.6857C131.072 31.7835 130.963 31.8226 130.844 31.8226H128.547C128.418 31.8226 128.309 31.7737 128.2 31.6857C128.101 31.5879 128.042 31.4803 128.042 31.3629V29.3088C128.042 29.1817 128.091 29.0741 128.2 28.9861C128.299 28.8882 128.418 28.8491 128.547 28.8491H130.844C130.973 28.8491 131.082 28.898 131.171 28.9861C131.27 29.0839 131.31 29.1915 131.31 29.3088V31.3629ZM131.23 46.2694C131.23 46.3966 131.181 46.5041 131.092 46.6117C130.993 46.7096 130.884 46.7682 130.765 46.7682H128.586C128.457 46.7682 128.349 46.7193 128.259 46.6117C128.16 46.5139 128.121 46.3966 128.121 46.2694V34.0527C128.121 33.9256 128.17 33.818 128.259 33.7299C128.358 33.6321 128.467 33.593 128.586 33.593H130.765C130.894 33.593 131.003 33.6419 131.092 33.7299C131.191 33.8277 131.23 33.9353 131.23 34.0527V46.2694Z" fill="white"/>
<path d="M145.164 46.6118C145.065 46.7096 144.956 46.7683 144.838 46.7683H142.659C142.53 46.7683 142.421 46.7194 142.332 46.6118C142.233 46.514 142.193 46.3966 142.193 46.2695V38.6499C142.193 38.1315 142.173 37.7109 142.134 37.3784C142.094 37.0458 142.005 36.7817 141.876 36.5861C141.738 36.3905 141.54 36.2535 141.272 36.1655C141.005 36.0775 140.638 36.0383 140.183 36.0383C139.777 36.0383 139.351 36.1166 138.915 36.2633C138.48 36.41 138.014 36.6154 137.509 36.8795V46.2695C137.509 46.3966 137.459 46.5042 137.37 46.6118C137.271 46.7096 137.162 46.7683 137.044 46.7683H134.865C134.736 46.7683 134.627 46.7194 134.538 46.6118C134.439 46.514 134.399 46.3966 134.399 46.2695V34.0528C134.399 33.9256 134.449 33.818 134.538 33.73C134.637 33.6322 134.746 33.5931 134.865 33.5931H136.925C137.053 33.5931 137.162 33.642 137.251 33.73C137.351 33.8278 137.39 33.9354 137.39 34.0528V34.5418C137.737 34.3266 138.054 34.1408 138.351 34.0039C138.638 33.8669 138.935 33.7496 139.242 33.6615C139.539 33.5735 139.846 33.5148 140.163 33.4757C140.48 33.4366 140.837 33.417 141.223 33.417C142.074 33.417 142.768 33.5539 143.302 33.818C143.837 34.0821 144.253 34.444 144.54 34.9135C144.828 35.383 145.036 35.9308 145.145 36.5763C145.253 37.2121 145.313 37.9066 145.313 38.6597V46.2695C145.313 46.3966 145.263 46.5042 145.164 46.6118Z" fill="white"/>
<path d="M160 35.1974C160 35.3735 159.97 35.481 159.921 35.5397C159.861 35.5984 159.762 35.6571 159.623 35.7158L158.841 36.019C159.029 36.2831 159.178 36.557 159.277 36.8504C159.376 37.1341 159.435 37.4862 159.435 37.8872V38.0535C159.435 39.5207 158.95 40.5966 157.979 41.2813C157.009 41.966 155.622 42.3083 153.83 42.3083C153.196 42.3083 152.671 42.2692 152.245 42.1812C151.819 42.0931 151.493 42.0051 151.255 41.9171C150.988 42.0931 150.849 42.2887 150.849 42.5235C150.849 42.7582 150.918 42.9245 151.047 43.0419C151.186 43.1495 151.384 43.2375 151.651 43.2962L154.444 43.9515C155.246 44.1374 155.979 44.3232 156.633 44.4993C157.286 44.6754 157.841 44.9003 158.296 45.1644C158.752 45.4285 159.108 45.7611 159.356 46.1621C159.604 46.5631 159.732 47.0717 159.732 47.688V47.8542C159.732 49.0573 159.267 49.967 158.346 50.5832C157.425 51.2092 155.949 51.5222 153.939 51.5222C152.017 51.5222 150.552 51.1798 149.561 50.5049C148.571 49.83 148.076 48.8715 148.076 47.6391V47.4239C148.076 46.9446 148.185 46.4751 148.393 46.0349C148.611 45.5948 148.898 45.1938 149.284 44.8514C148.957 44.6069 148.69 44.2841 148.502 43.9026C148.314 43.5212 148.215 43.1201 148.215 42.6996V42.68C148.215 42.3181 148.294 41.9758 148.452 41.6334C148.611 41.2911 148.848 41.0074 149.165 40.7922C148.799 40.4303 148.551 40.0391 148.413 39.5989C148.274 39.1588 148.205 38.6501 148.205 38.0535V37.8872C148.205 37.3101 148.304 36.7624 148.512 36.244C148.72 35.7256 149.046 35.2659 149.492 34.8648C149.938 34.4638 150.522 34.1606 151.235 33.9258C151.948 33.7009 152.81 33.5835 153.84 33.5835H159.376C159.544 33.5835 159.703 33.6422 159.821 33.7693C159.95 33.8965 160.01 34.0432 160.01 34.2095V35.1974H160ZM156.613 47.6684C156.613 47.5412 156.583 47.4239 156.533 47.3163C156.474 47.2087 156.355 47.1011 156.157 46.9935C155.959 46.8859 155.672 46.7685 155.305 46.6512C154.939 46.5338 154.444 46.4066 153.83 46.2697L151.72 45.7806C151.542 46.0252 151.403 46.2599 151.295 46.4653C151.186 46.6805 151.126 46.9935 151.126 47.4141V47.6293C151.126 47.864 151.166 48.0792 151.255 48.2748C151.344 48.4705 151.493 48.6367 151.701 48.7639C151.918 48.9008 152.206 48.9986 152.562 49.0671C152.929 49.1356 153.384 49.1747 153.939 49.1747C154.503 49.1747 154.959 49.1454 155.315 49.0769C155.662 49.0182 155.929 48.9302 156.127 48.8226C156.326 48.715 156.454 48.578 156.514 48.4118C156.573 48.2455 156.613 48.0596 156.613 47.8347V47.6684ZM156.355 37.9263C156.355 37.6427 156.316 37.3884 156.246 37.1438C156.177 36.8993 156.048 36.6939 155.86 36.5179C155.672 36.3418 155.414 36.1951 155.078 36.0973C154.751 35.9994 154.325 35.9408 153.82 35.9408C153.315 35.9408 152.899 35.9897 152.562 36.0973C152.235 36.1951 151.968 36.3418 151.78 36.5179C151.592 36.6939 151.453 36.9091 151.374 37.1438C151.295 37.3884 151.255 37.6427 151.255 37.9263V38.1122C151.255 38.3274 151.285 38.5523 151.354 38.7675C151.413 38.9827 151.542 39.1881 151.72 39.3642C151.899 39.5402 152.156 39.687 152.493 39.7945C152.82 39.9021 153.265 39.9608 153.82 39.9608C154.8 39.9608 155.464 39.8043 155.82 39.4815C156.177 39.1588 156.355 38.7088 156.355 38.1122V37.9263Z" fill="white"/>
</g>
<defs>
<linearGradient id="paint0_linear" x1="34.265" y1="45.9593" x2="0.893054" y2="27.0214" gradientUnits="userSpaceOnUse">
<stop stop-color="#990005"/>
<stop offset="1" stop-color="#ED9567"/>
</linearGradient>
<linearGradient id="paint1_linear" x1="22.9695" y1="59.1772" x2="2.22289" y2="29.4928" gradientUnits="userSpaceOnUse">
<stop stop-color="#B30008"/>
<stop offset="1" stop-color="#EFA26F"/>
</linearGradient>
<linearGradient id="paint2_linear" x1="37.9066" y1="50.2091" x2="24.523" y2="35.3229" gradientUnits="userSpaceOnUse">
<stop stop-color="#7D0000"/>
<stop offset="1" stop-color="#AB0008"/>
</linearGradient>
<linearGradient id="paint3_linear" x1="1.63019" y1="27.0114" x2="36.2118" y2="27.0114" gradientUnits="userSpaceOnUse">
<stop stop-color="#ED996A"/>
<stop offset="1" stop-color="#C5000B"/>
</linearGradient>
<linearGradient id="paint4_linear" x1="6.0556" y1="25.9732" x2="12.8431" y2="25.9732" gradientUnits="userSpaceOnUse">
<stop stop-color="#CCCCCC"/>
<stop offset="0.5243" stop-color="#F5F5F5"/>
<stop offset="1" stop-color="#CCCCCC"/>
</linearGradient>
<linearGradient id="paint5_linear" x1="15.6316" y1="25.9732" x2="22.4191" y2="25.9732" gradientUnits="userSpaceOnUse">
<stop stop-color="#CCCCCC"/>
<stop offset="0.5243" stop-color="#F5F5F5"/>
<stop offset="1" stop-color="#CCCCCC"/>
</linearGradient>
<linearGradient id="paint6_linear" x1="25.2379" y1="25.9732" x2="32.0254" y2="25.9732" gradientUnits="userSpaceOnUse">
<stop stop-color="#CCCCCC"/>
<stop offset="0.5243" stop-color="#F5F5F5"/>
<stop offset="1" stop-color="#CCCCCC"/>
</linearGradient>
<clipPath id="clip0">
<rect width="160" height="80" fill="white"/>
</clipPath>
</defs>
</svg>
