<svg width="160" height="80" viewBox="0 0 160 80" fill="none" xmlns="http://www.w3.org/2000/svg">
<g clip-path="url(#clip0)">
<path d="M3.89745 45.6141C5.58192 45.5873 7.26712 45.6014 8.9516 45.6056C9.28301 45.6085 9.63463 45.5746 9.93933 45.7291C10.4325 45.9506 10.7906 46.4973 10.6664 47.0341C10.0469 49.7872 9.41297 52.5383 8.78409 55.29C8.57109 56.2254 7.60575 56.8891 6.64257 56.8736C4.86207 56.8694 3.08084 56.8757 1.30033 56.8701C0.653402 56.8715 -0.0455157 56.3883 -2.82871e-05 55.7027V55.5538C0.0310187 55.0868 0.158095 54.6354 0.260622 54.1804C0.787698 51.8956 1.31261 49.6109 1.83463 47.3254C1.98409 46.3689 2.91622 45.619 3.89745 45.6141ZM146.179 23.1953C146.881 23.0803 147.595 23.1219 148.303 23.117C151.913 23.1163 155.523 23.1198 159.134 23.1142C159.482 23.1099 159.827 23.3237 159.961 23.6404C160.014 23.8435 159.986 24.0573 159.955 24.2618C158.409 31.0068 156.831 37.7461 155.264 44.4862C155.12 45.0597 154.558 45.5471 153.936 45.5104C153.238 45.5111 152.539 45.5161 151.84 45.5083C151.377 45.509 151.018 45.0223 151.103 44.5913C151.603 42.4539 152.074 40.3095 152.599 38.1771C152.675 37.8259 152.736 37.4111 152.502 37.1028C152.323 36.8503 151.994 36.7656 151.696 36.7692C150.179 36.7621 148.662 36.7889 147.145 36.7607C146.556 36.7515 146.206 36.0553 146.428 35.5573C146.978 34.2742 147.996 33.1808 149.269 32.5523C150.459 31.9457 151.827 31.8596 153.144 31.8476C153.669 31.8596 154.16 31.4646 154.269 30.9659C154.565 29.6278 154.928 28.3023 155.161 26.9508C155.274 26.457 154.781 26.0034 154.292 26.0218C152.344 26.0126 150.394 26.0211 148.446 26.0183C147.937 25.9999 147.438 26.2778 147.187 26.7074C147.06 26.912 147.026 27.1532 146.973 27.3825C145.695 32.9826 144.371 38.5736 143.079 44.1709C143.018 44.6195 142.802 45.0625 142.401 45.3108C142.123 45.5069 141.773 45.528 141.444 45.5125C140.265 45.5083 139.087 45.5118 137.908 45.5097C137.478 45.533 137.1 45.1366 137.107 44.726C137.118 44.5624 137.165 44.4044 137.202 44.2456C138.279 39.5294 139.401 34.823 140.487 30.1088C140.823 28.7785 140.99 27.3698 141.721 26.1713C142.612 24.5616 144.326 23.4365 146.179 23.1953ZM126.535 26.0782C126.049 26.1868 125.629 26.5621 125.497 27.0347C124.516 31.3708 123.498 35.6991 122.497 40.0309C122.341 40.6707 122.138 41.3105 122.139 41.9736C122.17 42.37 122.58 42.6458 122.965 42.6585C124.84 42.6684 126.715 42.6557 128.59 42.6649C128.829 42.6634 129.077 42.6881 129.309 42.6098C129.763 42.4709 130.139 42.0878 130.23 41.6272C130.51 40.3568 130.827 39.0949 131.092 37.8216C131.175 37.3878 130.897 36.8298 130.4 36.8136C128.786 36.7769 127.17 36.8129 125.557 36.8023C125.08 36.8136 124.601 36.3967 124.66 35.9135C124.776 35.1637 125.245 34.5274 125.734 33.9617C126.846 32.6447 128.601 31.9654 130.321 31.9139C130.931 31.9005 131.586 31.9774 132.147 31.6882C132.413 31.5521 132.612 31.3003 132.669 31.0103C132.95 29.8485 133.225 28.6839 133.492 27.5186C133.557 27.1631 133.698 26.7483 133.462 26.4239C133.22 26.0705 132.743 26.019 132.344 26.0317C130.409 26.0712 128.468 25.9781 126.535 26.0782ZM124.618 23.2475C125.577 23.1149 126.548 23.1614 127.513 23.1283C130.88 23.1247 134.246 23.1311 137.612 23.1247C138.032 23.1374 138.43 23.4986 138.427 23.9183C138.411 24.1095 138.347 24.2922 138.305 24.4784C137.905 26.0959 137.566 27.726 137.183 29.347C136.983 30.1787 136.74 31.0075 136.351 31.775C135.824 32.8944 134.779 33.7085 133.643 34.1938C134.557 34.8258 135.079 35.8931 135.168 36.9688C135.243 37.6594 135.086 38.3443 134.957 39.0194C134.684 40.3512 134.323 41.6872 133.633 42.8758C132.681 44.5073 130.781 45.4991 128.882 45.5556C124.718 45.5563 120.554 45.5556 116.39 45.5563C115.995 45.5541 115.63 45.2445 115.572 44.8643C115.547 44.5976 115.653 44.3437 115.708 44.0876C116.794 39.3142 117.936 34.5535 119.022 29.7801C119.248 28.9174 119.369 28.0272 119.677 27.1857C120.096 26.1078 120.796 25.1217 121.736 24.4156C122.565 23.7793 123.577 23.3907 124.618 23.2475ZM103.065 23.1917C103.771 23.0866 104.487 23.1163 105.199 23.1099C108.783 23.1029 112.368 23.1085 115.952 23.1099C116.31 23.1064 116.688 23.2968 116.838 23.6263C116.925 23.8076 116.886 24.0135 116.86 24.204C115.367 30.7458 113.844 37.282 112.326 43.8189C112.219 44.3472 112.123 44.9644 111.622 45.2826C111.28 45.564 110.81 45.5231 110.394 45.5196C109.794 45.4977 109.192 45.5549 108.594 45.4921C108.196 45.4053 107.952 44.9609 108.027 44.5828C109.302 38.9629 110.65 33.3586 111.926 27.7387C112.003 27.3881 112.108 27.0333 112.079 26.6715C112.059 26.4725 111.97 26.2602 111.785 26.1593C111.186 25.8123 110.277 26.1473 110.121 26.8266C109.411 29.8013 108.747 32.7858 108.041 35.7612C107.875 36.4137 107.152 36.791 106.498 36.7656C105.871 36.7268 105.243 36.784 104.617 36.7261C104.16 36.6817 103.804 36.1943 103.931 35.7569C104.587 32.8373 105.254 29.9198 105.949 27.0086C106.03 26.7018 105.937 26.3251 105.648 26.1523C105.108 25.8751 104.34 26.0514 104.035 26.5826C103.847 26.8929 103.783 27.2527 103.703 27.599C102.42 33.2246 101.095 38.8409 99.8029 44.4643C99.6773 45.0533 99.1025 45.5295 98.4816 45.5224C97.2051 45.5076 95.9278 45.5231 94.6513 45.5168C94.1971 45.4984 93.8159 45.0237 93.93 44.5885C95.1986 38.9968 96.5372 33.42 97.8108 27.8297C98.169 26.4239 99.0087 25.1203 100.218 24.2689C101.049 23.6721 102.048 23.3293 103.065 23.1917ZM81.457 23.1558C82.3415 23.081 83.2318 23.1353 84.1184 23.1198C87.4607 23.1212 90.8029 23.1205 94.1444 23.1184C94.4809 23.1297 94.8079 23.3441 94.9307 23.6524C95.0137 24.053 94.8722 24.453 94.7848 24.8402C93.3054 31.3221 91.782 37.7941 90.2838 44.2717C90.2108 44.8643 89.7336 45.4349 89.1069 45.4956C88.3581 45.5323 87.6079 45.5041 86.8592 45.509C86.3495 45.5443 85.9495 44.9927 86.0838 44.5285C86.5191 42.6663 86.9408 40.8019 87.3755 38.9397C87.496 38.4572 87.6679 37.9719 87.6224 37.4682C87.5841 37.0739 87.1913 36.7699 86.7949 36.7713C85.2274 36.7544 83.6592 36.7924 82.0917 36.7565C81.548 36.7304 81.1892 36.104 81.382 35.6236C82.0303 33.992 83.4751 32.6772 85.1964 32.182C86.1531 31.8843 87.1675 31.8737 88.1625 31.8483C88.6679 31.8371 89.1307 31.4519 89.2368 30.9715C89.5357 29.6285 89.8975 28.2981 90.1336 26.943C90.2347 26.4711 89.7834 26.0288 89.3148 26.0225C87.3415 26.007 85.369 26.0183 83.3964 26.0168C82.7769 25.9964 82.1704 26.4302 82.0231 27.0206C80.6924 32.8324 79.3235 38.6356 77.9834 44.4453C77.8549 45.0251 77.3011 45.5259 76.6773 45.5111C75.4245 45.509 74.1726 45.5132 72.9206 45.5097C72.3993 45.564 71.9458 45.0103 72.1032 44.5257C73.3018 39.2994 74.5437 34.0823 75.7473 28.8575C75.9112 28.1027 76.0888 27.3437 76.4375 26.6468C76.8996 25.6853 77.5942 24.8184 78.491 24.2103C79.361 23.6079 80.4029 23.275 81.457 23.1558ZM63.6289 23.1628C63.8592 23.112 64.0989 23.1283 64.3336 23.1156C65.4628 23.1057 66.5928 23.1212 67.722 23.1113C68.2144 23.0909 68.6946 23.5825 68.5516 24.0685C67.4267 29.0768 66.2361 34.071 65.091 39.0751C64.9957 39.42 64.9133 39.7953 65.0578 40.1402C65.1473 40.4048 65.4087 40.61 65.7011 40.5966C67.265 40.615 68.8303 40.5896 70.3942 40.6086C70.9509 40.5952 71.4606 41.1687 71.2773 41.7048C70.8549 42.7834 70.0924 43.7314 69.1314 44.4029C68.078 45.1401 66.774 45.4794 65.4895 45.5154C63.2513 45.5323 61.013 45.5337 58.7747 45.528C58.2751 45.5584 57.8173 45.0561 57.9365 44.5744C59.5105 37.761 61.1307 30.9567 62.6751 24.1363C62.7964 23.6813 63.1798 23.3152 63.6289 23.1628ZM45.2361 23.1924C45.8202 23.0944 46.4151 23.1226 47.005 23.1191C50.7357 23.1219 54.4664 23.1198 58.1964 23.1191C58.5689 23.129 58.9632 23.3956 59.0065 23.7751C59.0448 24.0728 58.9531 24.3648 58.8859 24.6512C57.4188 31.0604 55.9206 37.4619 54.4339 43.8661C54.3393 44.2929 54.2765 44.7655 53.9545 45.0956C53.691 45.3722 53.309 45.5266 52.9227 45.5168C52.2253 45.5083 51.5263 45.5302 50.8296 45.5062C50.3437 45.4716 50.0159 44.9553 50.1437 44.5073C50.6592 42.327 51.1408 40.1381 51.6715 37.9613C51.8115 37.4732 51.5256 36.8101 50.9516 36.7833C49.3466 36.7388 47.7408 36.8016 46.1357 36.7558C45.6007 36.7212 45.252 36.1047 45.4368 35.6293C45.8469 34.5881 46.5855 33.6774 47.509 33.0242C48.3155 32.4486 49.278 32.0981 50.265 31.964C50.9076 31.8759 51.5574 31.8674 52.205 31.849C52.7191 31.8441 53.192 31.4526 53.2967 30.9638C53.579 29.7477 53.87 28.5337 54.1328 27.3134C54.1834 27.0256 54.2592 26.7004 54.0975 26.4323C53.9061 26.1114 53.5011 25.995 53.1415 26.014C51.192 26.0218 49.2433 26.0042 47.2946 26.0239C46.7068 26.069 46.174 26.5219 46.0635 27.0905C44.7422 32.8754 43.3769 38.6512 42.044 44.434C41.9191 45.0237 41.3545 45.5316 40.722 45.5111C39.4447 45.5083 38.1668 45.5154 36.8888 45.5083C36.4303 45.509 36.0476 45.03 36.1473 44.5955C37.3466 39.3227 38.6137 34.0654 39.8151 28.7933C39.9819 28.0639 40.1639 27.3303 40.4881 26.6496C40.8707 25.8737 41.3827 25.1478 42.0592 24.5877C42.9494 23.8329 44.0686 23.3462 45.2361 23.1924ZM29.9162 23.1755C30.0967 23.1304 30.283 23.1142 30.4686 23.1163C32.2975 23.1297 34.1256 23.1078 35.9538 23.1276C36.6339 23.1205 37.2397 23.7455 37.1942 24.4085C37.1711 24.6138 37.1126 24.8134 37.0693 25.0152C36.548 27.3268 36.0101 29.6355 35.4816 31.9457C35.174 33.3007 34.374 34.5281 33.3025 35.4317C31.7393 36.7085 29.8671 37.5768 27.9278 38.1567C26.3581 38.6342 24.7451 38.9559 23.1343 39.2663C22.9812 39.3022 22.8159 39.3446 22.7061 39.4624C22.6325 39.6006 22.7487 39.7615 22.896 39.784C23.3408 39.8969 23.8029 39.9159 24.2549 39.9851C25.6946 40.2094 27.1133 40.6312 28.3913 41.3253C29.1083 41.7224 29.8043 42.181 30.3473 42.7939C31.3747 43.931 31.9444 45.4977 31.7177 47.0143C31.2787 49.7879 30.5227 52.5009 29.9401 55.247C29.7949 55.9277 29.2585 56.499 28.6 56.7459C28.1863 56.9159 27.7307 56.8673 27.2938 56.8722C25.6332 56.8701 23.9718 56.8771 22.3104 56.868C21.5754 56.8912 20.9206 56.1548 21.0845 55.4459C21.4736 53.6528 21.9119 51.8695 22.3061 50.0778C22.5155 49.0825 22.6873 48.0604 22.579 47.0425C22.4137 46.1382 22.1429 45.1761 21.4216 44.5384C20.5466 43.8224 19.5372 43.2383 18.4274 42.9498C17.4072 42.6627 16.3234 42.5858 15.3494 42.1506C14.9444 41.9609 14.535 41.7344 14.265 41.3726C13.6787 40.5995 13.6419 39.48 14.1437 38.6568C14.3985 38.2209 14.8469 37.9394 15.2996 37.7299C16.1386 37.3525 17.0664 37.2467 17.9689 37.0993C19.7465 36.8291 21.5769 36.6006 23.205 35.8028C24.2996 35.3012 25.3697 34.6318 26.0419 33.6252C26.2664 33.2852 26.439 32.9107 26.5372 32.5171C27.1545 29.9099 27.7343 27.295 28.3444 24.6865C28.517 23.943 29.1697 23.3575 29.9162 23.1755ZM8.7646 23.1805C9.08662 23.1015 9.42091 23.1205 9.74943 23.1184C11.4556 23.1304 13.1617 23.1064 14.8686 23.1297C15.5891 23.1261 16.2007 23.8598 16.044 24.5489C15.4209 27.3042 14.7812 30.0559 14.1567 32.8105C13.9307 33.7205 12.9956 34.3694 12.052 34.3715C10.2974 34.3765 8.54366 34.3694 6.78914 34.3751C6.30395 34.3779 5.78048 34.1839 5.522 33.7621C5.31694 33.4566 5.32416 33.0687 5.40286 32.7244C5.9942 30.1547 6.5812 27.5842 7.16893 25.0138C7.22597 24.7683 7.26857 24.5165 7.38409 24.2886C7.6534 23.7483 8.17687 23.3448 8.7646 23.1805Z" fill="#97237F"/>
<path d="M121.802 49.0228C123.648 49.0059 125.495 49.0207 127.342 49.0136C127.266 49.4369 127.167 49.8559 127.084 50.2777C125.736 50.2699 124.388 50.2784 123.04 50.2728C122.903 50.9358 122.767 51.5996 122.631 52.2627C123.916 52.262 125.2 52.2627 126.484 52.2627C126.394 52.6944 126.309 53.1275 126.226 53.5606C124.934 53.5585 123.64 53.5535 122.348 53.5641C122.212 54.2589 122.064 54.9516 121.926 55.6457C123.305 55.6464 124.686 55.6443 126.066 55.6472C125.977 56.0669 125.892 56.4873 125.809 56.9077C123.939 56.9225 122.069 56.914 120.2 56.9119C120.729 54.2808 121.285 51.656 121.802 49.0228ZM90.4108 56.9126C90.9451 54.2787 91.4852 51.6455 92.0238 49.0122C92.5422 49.0207 93.0606 49.0115 93.579 49.0157C94.083 51.0148 94.5935 53.0132 95.0917 55.0137C96.3863 53.0111 97.7018 51.0219 98.9928 49.0172C99.4967 49.0157 100.001 49.0136 100.505 49.0164C99.9552 51.6469 99.4253 54.2815 98.8859 56.914C98.4231 56.9147 97.961 56.9147 97.4996 56.914C97.8744 55.08 98.2527 53.246 98.6231 51.4106C97.5126 53.2453 96.4202 55.0899 95.2989 56.9176C94.8758 56.9147 94.4534 56.9147 94.031 56.9133C93.6599 55.0807 93.2859 53.2488 92.9184 51.4155C92.5408 53.2467 92.1682 55.08 91.7935 56.9119C91.3328 56.9176 90.8715 56.9126 90.4108 56.9126ZM61.1726 56.919C62.8469 54.2815 64.5343 51.6518 66.2116 49.0157C66.7509 49.0157 67.2903 49.0172 67.8303 49.0122C68.4578 51.6469 69.0881 54.2801 69.7155 56.9147C69.1971 56.914 68.6794 56.9147 68.1617 56.914C68.0036 56.1974 67.8404 55.4814 67.6845 54.7647C66.7899 54.7562 65.8946 54.7654 65 54.7598C65.2498 54.3394 65.5134 53.9267 65.7531 53.5006C66.3018 53.4823 66.8513 53.5006 67.4007 53.4879C67.1747 52.5159 66.9776 51.5368 66.73 50.5697C66.3162 51.1496 65.9675 51.7738 65.582 52.3727C64.6448 53.8844 63.7061 55.3953 62.774 56.9098C62.2404 56.9232 61.7061 56.9084 61.1726 56.919ZM149.084 49.4397C150.669 48.7449 152.5 48.8493 154.133 49.3233C154.051 49.7684 153.96 50.2121 153.87 50.6558C152.664 50.2382 151.323 50.064 150.073 50.3941C149.557 50.5613 149.097 51.0106 149.094 51.5672C149.042 51.8465 149.211 52.1738 149.516 52.2196C150.375 52.3389 151.257 52.1689 152.11 52.3593C152.528 52.451 152.96 52.633 153.195 53.0033C153.438 53.3462 153.468 53.7821 153.414 54.1842C153.343 54.8606 153.069 55.535 152.565 56.014C152.009 56.5508 151.238 56.8174 150.475 56.9098C149.261 57.0855 148.018 56.9282 146.845 56.6008C146.925 56.1557 147.01 55.7121 147.108 55.2705C147.996 55.5808 148.945 55.7219 149.888 55.686C150.321 55.6648 150.781 55.65 151.164 55.4228C151.599 55.1908 151.905 54.7316 151.904 54.242C151.895 53.9824 151.716 53.7172 151.445 53.6671C150.555 53.4731 149.628 53.72 148.741 53.502C148.236 53.3984 147.755 53.0569 147.619 52.5533C147.339 51.3576 147.941 49.985 149.084 49.4397ZM38.7365 49.0517C39.93 48.8549 41.1805 48.9247 42.322 49.3325C42.2238 49.7705 42.1357 50.2114 42.0491 50.653C41.0231 50.2438 39.8686 50.0844 38.7819 50.3412C38.2007 50.4794 37.6238 50.732 37.2245 51.182C36.5588 51.9184 36.3206 52.9356 36.3329 53.8978C36.3444 54.4656 36.5812 55.0793 37.1105 55.3692C37.8419 55.7854 38.735 55.7212 39.5379 55.5893C39.7018 54.812 39.857 54.0332 40.0195 53.2559C40.5177 53.2545 41.0159 53.2559 41.5141 53.2573C41.2845 54.3619 41.0722 55.4694 40.8267 56.5698C39.4202 57.0311 37.8578 57.1595 36.4347 56.6911C35.3531 56.3751 34.6773 55.2528 34.7451 54.1785C34.7386 52.8912 35.0888 51.5643 35.9155 50.5422C36.6036 49.7007 37.6643 49.221 38.7365 49.0517ZM7.40939 36.8124C8.44405 36.629 9.53863 37.0001 10.2903 37.7054C10.8982 38.2599 11.2477 39.0535 11.3011 39.859C11.356 40.8522 10.9119 41.8518 10.1545 42.5127C9.66643 42.9451 9.03394 43.204 8.38556 43.2978C7.09892 43.4636 5.74152 42.8174 5.09459 41.7163C4.64982 41.0236 4.56318 40.1623 4.70036 39.3688C4.95379 38.08 6.08953 37.0297 7.40939 36.8124Z" fill="#FE7A1C"/>
</g>
<defs>
<clipPath id="clip0">
<rect width="160" height="80" fill="white"/>
</clipPath>
</defs>
</svg>
