<svg width="160" height="80" viewBox="0 0 160 80" fill="none" xmlns="http://www.w3.org/2000/svg">
<path d="M155 54.6335C153.099 54.6335 150.986 54.6335 148.873 54.6335C148.873 52.5208 148.873 50.4082 148.873 48.0842C150.986 48.0842 152.887 48.0842 155 48.0842C155 50.1969 155 52.3096 155 54.6335Z" fill="#3CB64D"/>
<path d="M100.493 32.0278C103.662 32.2391 106.831 32.0278 110 32.4504C113.169 32.8729 114.648 34.7743 114.859 37.9433C114.859 41.7461 114.859 45.549 114.859 49.3518C114.859 51.887 113.592 53.3659 111.056 54.2109C110.211 54.4222 109.366 54.8447 108.521 54.8447C102.606 54.8447 96.6902 54.8447 90.5634 54.6335C87.6056 54.4222 85.9155 52.5208 85.7042 49.5631C85.493 45.7602 85.2817 41.9574 85.493 38.3659C85.7042 34.563 88.4507 32.6616 92.4648 32.4504C95.2113 32.2391 97.7465 32.2391 100.493 32.0278C100.282 32.2391 100.493 32.2391 100.493 32.0278ZM99.6479 48.9292C101.549 48.9292 103.662 49.1405 105.563 48.9292C107.465 48.9292 108.099 48.0842 108.099 46.1828C108.099 44.7039 108.099 43.225 108.099 41.7461C108.099 38.3659 107.042 37.5208 103.873 37.7321C101.338 37.7321 98.5916 37.9433 96.0563 37.7321C93.5211 37.7321 92.2535 38.7884 92.2535 41.3236C92.2535 43.225 92.2535 45.1264 92.2535 46.8166C92.2535 48.2954 92.8873 48.9292 94.1549 48.9292C96.0563 48.9292 97.7465 48.9292 99.6479 48.9292Z" fill="white"/>
<path d="M146.549 54.8449C143.169 54.8449 139.789 54.8449 136.408 54.8449C135.986 54.8449 135.352 54.2111 135.141 53.7886C131.761 49.1407 128.169 44.4928 124.789 39.8449C124.577 39.4224 124.366 39.2111 123.732 38.5773C123.732 44.2815 123.732 49.5632 123.732 54.8449C121.62 54.8449 119.93 54.8449 118.028 54.8449C118.028 47.2393 118.028 39.8449 118.028 32.2393C121.408 32.2393 124.577 32.2393 127.746 32.2393C128.169 32.2393 128.592 32.6618 128.803 33.0843C132.183 37.7322 135.352 42.3801 138.732 47.028C139.155 47.4505 139.366 47.8731 140 48.7181C140 43.0139 140 37.7322 140 32.2393C142.324 32.2393 144.437 32.2393 146.549 32.2393C146.549 39.6336 146.549 47.2393 146.549 54.8449Z" fill="white"/>
<path d="M56.9719 32.2393C63.9437 32.2393 70.9155 32.2393 77.8874 32.2393C81.6902 32.2393 83.1691 33.9294 83.1691 37.7322C83.1691 38.5773 83.1691 39.4224 83.1691 40.2674C83.1691 43.2252 82.324 44.0702 79.5775 44.7041C79.155 44.7041 78.7324 44.9153 78.3099 45.1266C78.7324 45.1266 79.155 45.1266 79.5775 45.3379C81.9014 45.7604 83.169 47.2393 83.3803 49.7745C83.3803 51.4646 83.3803 53.1548 83.3803 54.8449C81.0564 54.8449 78.9437 54.8449 76.6198 54.8449C76.6198 53.7886 76.6198 52.7322 76.6198 51.8872C76.6198 49.5632 75.986 48.7181 73.4507 48.7181C70.0705 48.5069 66.6902 48.7181 63.3099 48.7181C63.3099 50.8308 63.3099 52.9435 63.3099 55.0562C60.9859 55.0562 59.0845 55.0562 56.9719 55.0562C56.9719 47.2393 56.9719 39.8449 56.9719 32.2393ZM62.8874 37.3097C62.8874 39.4224 62.8874 41.535 62.8874 43.4364C66.9014 43.4364 70.7043 43.4364 74.5071 43.4364C76.1972 43.4364 76.6198 42.5914 76.831 41.1125C76.831 40.69 76.831 40.0562 76.831 39.6336C76.831 37.9435 76.1972 37.3097 74.5071 37.3097C70.9155 37.3097 66.9014 37.3097 62.8874 37.3097Z" fill="white"/>
<path d="M27.1831 24C26.9718 24.6338 26.7606 25.0563 26.5493 25.4789C21.9014 34.9859 17.0423 44.2817 12.3944 53.7887C11.9718 54.6338 11.338 55.0563 10.493 55.0563C8.80281 55.0563 6.90141 55.0563 5 55.0563C5.21127 54.4225 5.42253 54 5.63379 53.7887C10.2817 44.2817 15.1408 34.9859 19.7887 25.4789C20.2113 24.6338 20.8451 24.2113 21.6901 24.2113C23.3803 24 25.0704 24 27.1831 24Z" fill="#3CB64D"/>
<path d="M35.6338 24.2113C33.3099 28.6479 31.1972 32.8733 29.0845 37.0986C26.338 42.5916 23.3803 48.2958 20.6338 53.7887C20.2113 54.6338 19.7887 54.8451 18.9437 54.8451C17.2535 54.8451 15.3521 54.8451 13.4507 54.8451C13.662 54.4226 13.8732 54 13.8732 53.5775C18.5211 44.0704 23.3803 34.7747 28.0282 25.2676C28.4507 24.4225 29.0845 24 29.9296 24C32.0422 24.2113 33.7324 24.2113 35.6338 24.2113Z" fill="white"/>
<path d="M26.7605 45.3377C27.6056 43.6476 28.4507 41.9574 29.2958 40.4785C29.507 40.2673 29.7183 40.056 30.1408 39.8447C35 37.3095 39.8591 34.7743 44.7183 32.2391C44.9296 32.2391 44.9296 32.2391 45.1408 32.0278C45.1408 34.1405 45.1408 36.4644 45.1408 38.5771C42.1831 39.8447 39.2253 40.9011 36.2676 42.1687C35.8451 42.38 35.4225 42.8025 35 43.225C35.4225 43.6476 35.8451 44.0701 36.4789 44.2814C39.0141 45.3377 41.5493 46.1828 44.2958 47.2391C44.7183 47.4504 45.3521 48.0842 45.3521 48.5067C45.5634 50.4081 45.3521 52.3095 45.3521 54.6335C39.0141 51.6757 32.8873 48.5067 26.7605 45.3377Z" fill="white"/>
<path d="M54.2253 54.8449C51.6901 54.8449 49.5775 54.8449 47.0422 54.8449C47.0422 50.197 47.0422 45.3378 47.0422 40.6899C49.3662 40.6899 51.6901 40.6899 54.2253 40.6899C54.2253 45.3378 54.2253 49.9857 54.2253 54.8449Z" fill="white"/>
<path d="M47.0422 32.0278C49.3662 32.0278 51.6901 32.0278 54.2253 32.0278C54.2253 34.1405 54.2253 36.2532 54.2253 38.3659C51.9014 38.3659 49.5775 38.3659 47.0422 38.3659C47.0422 36.4645 47.0422 34.3518 47.0422 32.0278Z" fill="white"/>
</svg>
