<svg width="160" height="80" viewBox="0 0 160 80" fill="none" xmlns="http://www.w3.org/2000/svg">
<g clip-path="url(#clip0)">
<path d="M69.206 40.6166C68.1874 42.5405 66.8011 43.644 64.7073 43.7289C62.1043 43.842 60.1521 42.8235 58.9355 40.4751C58.0867 38.8058 57.7188 37.0233 57.7188 35.1559C57.7188 32.468 58.0018 29.8084 58.2847 27.1206C58.3979 26.0737 58.8506 25.7625 59.8409 25.7908C60.9726 25.8474 62.1043 25.8756 63.2361 25.7908C64.6508 25.6776 65.1883 26.1586 65.1317 27.6016C65.0469 30.0065 65.1035 32.4115 65.1317 34.8164C65.1317 35.7218 65.2449 36.5989 65.6976 37.4194C66.0371 38.0419 66.5747 38.4097 67.3103 38.4097C68.046 38.3814 68.4987 37.9287 68.7816 37.2779C69.1211 36.4857 69.206 35.6369 69.1777 34.7881C69.1211 32.468 69.0363 30.1763 68.9514 27.8562C68.8665 25.9039 68.9231 25.8474 70.8187 25.8191C72.3183 25.8191 73.8461 25.8474 75.3457 25.8191C76.1662 25.8191 76.5623 26.1303 76.534 26.9791C76.2794 32.3266 76.336 37.7306 75.6286 43.0498C75.5155 43.842 75.2891 44.606 75.0628 45.3699C73.3369 51.0569 66.7445 53.2072 61.8497 49.7271C60.2936 48.6237 61.5385 47.69 61.7931 46.6714C62.076 45.568 62.7834 45.8792 63.5473 46.1055C66.9991 47.209 69.687 44.6909 69.206 40.6166Z" fill="#F8F8F8"/>
<path d="M147.211 30.4872C148.456 29.214 149.079 27.9974 149.814 26.8656C150.295 26.13 150.861 25.7622 151.795 25.7905C153.266 25.8471 154.709 25.8188 156.18 25.7905C157.114 25.7905 157.256 26.1017 156.775 26.8656C155.643 28.6481 154.568 30.4872 153.379 32.2414C152.813 33.0902 152.757 33.7976 153.238 34.703C154.653 37.306 155.982 39.9656 157.312 42.6252C158.019 44.0115 157.906 44.0115 156.463 44.1813C153.691 44.5491 151.54 43.7569 149.984 41.3519C149.475 40.5597 148.768 39.9373 148.117 39.2582C147.834 38.9753 147.636 38.4094 147.126 38.6075C146.73 38.7489 146.872 39.2582 146.844 39.626C146.759 40.7012 146.674 41.7763 146.674 42.8798C146.674 43.8701 146.249 44.2096 145.316 44.1813C144.127 44.1247 142.967 44.1247 141.779 44.1813C140.732 44.2379 140.364 43.7852 140.336 42.7949C140.251 39.7958 140.081 36.7684 139.968 33.7693C139.798 29.3838 139.714 25.0266 139.516 20.6411C139.459 19.4244 139.855 18.9435 141.128 19C142.826 19.0849 144.523 19.0566 146.221 19C147.211 18.9718 147.551 19.3962 147.523 20.3581C147.409 23.046 147.325 25.7339 147.24 28.3935C147.183 28.9877 147.211 29.5252 147.211 30.4872Z" fill="#F8F8F8"/>
<path d="M113.655 41.5218C113.231 41.6067 113.118 42.0028 112.891 42.2857C109.977 45.9356 104.545 45.1434 102.791 40.8427C101.546 37.8153 101.8 34.6465 101.97 31.4776C102.055 30.0346 102.338 28.5633 102.423 27.1204C102.479 26.0735 102.989 25.7623 103.979 25.7906C105.195 25.8472 106.44 25.8472 107.657 25.7906C108.817 25.734 109.27 26.1584 109.241 27.3467C109.185 29.8366 109.241 32.3547 109.241 34.8445C109.241 35.7499 109.355 36.627 109.722 37.4758C110.034 38.1832 110.571 38.6076 111.363 38.6076C112.184 38.6076 112.637 38.0983 112.92 37.3626C113.203 36.6553 113.287 35.8914 113.259 35.1275C113.203 32.7791 113.174 30.4024 113.061 28.0541C112.948 25.8189 112.92 25.8189 115.098 25.7906C116.456 25.7906 117.843 25.8189 119.201 25.7906C120.219 25.7623 120.644 26.1301 120.615 27.177C120.389 32.4396 120.191 37.7305 120.021 42.9931C119.993 43.8136 119.625 44.2097 118.805 44.1531C118.578 44.1531 118.324 44.1531 118.097 44.1531C117.022 44.1531 115.89 44.2946 114.844 44.0682C113.457 43.8419 114.504 42.2291 113.655 41.5218Z" fill="#F8F8F8"/>
<path d="M7.55441 44.2096C6.08315 44.2096 4.64017 44.1813 3.16891 44.2096C2.3201 44.2379 1.86741 43.8984 1.78253 43.0213C1.21666 36.0328 0.650784 29.0443 3.2899e-05 22.0558C-0.0848477 20.9523 0.339556 20.6694 1.35812 20.6977C3.90454 20.7543 6.45096 20.7543 8.99738 20.6977C10.2989 20.6694 10.6101 21.1504 10.4969 22.367C10.0442 27.0637 9.64813 31.7322 9.22373 36.4289C9.08226 38.0699 9.13885 38.1548 10.7233 38.0699C11.7984 38.0133 12.9019 37.985 13.977 37.9002C14.939 37.8153 15.1371 38.2114 14.8541 39.0602C14.4014 40.39 14.0053 41.7481 13.6375 43.1062C13.4112 43.9267 12.9302 44.2379 12.1097 44.2096C10.5818 44.1813 9.05397 44.2096 7.55441 44.2096Z" fill="#F8F8F8"/>
<path d="M92.8312 44.2096C90.9921 44.2096 89.5208 44.1813 88.0779 44.2096C87.2291 44.2379 86.7764 43.9267 86.6915 43.0213C86.0973 36.0328 85.5315 29.0443 84.909 22.0558C84.8241 20.9523 85.2202 20.6694 86.2388 20.6977C88.7852 20.7543 91.3316 20.7543 93.878 20.6977C95.1513 20.6694 95.5191 21.1504 95.3776 22.367C94.9249 27.0071 94.5288 31.6473 94.1044 36.2874C93.9346 38.0982 93.9629 38.1548 95.7454 38.0699C96.7923 38.0133 97.8109 38.0133 98.8577 37.9285C99.7914 37.8436 100.074 38.2397 99.7348 39.0885C99.7065 39.1451 99.7065 39.1734 99.7065 39.23C99.1407 40.8144 99.2538 43.0213 97.9806 43.8984C96.5093 44.8887 94.3025 44.0399 92.8312 44.2096Z" fill="#F8F8F8"/>
<path d="M131.65 44.5492C126.614 44.4926 123.671 42.0027 122.822 37.3343C122.511 35.6933 122.483 34.0523 122.737 32.4112C123.388 28.3652 125.708 26.0452 129.754 25.3944C131.905 25.0549 133.97 25.3944 136.007 26.0735C136.969 26.413 137.394 26.9506 137.054 27.9974C136.941 28.3087 136.913 28.6482 136.884 28.9594C136.799 30.176 136.347 30.657 134.989 30.3741C133.121 29.978 131.395 30.3741 130.348 32.2132C129.471 33.741 129.754 37.1928 130.829 38.4378C132.046 39.8524 133.602 39.5978 135.13 39.1451C136.658 38.6924 136.771 38.749 137.903 40.7295C138.554 41.8896 137.648 42.2574 137.026 42.7667C135.385 44.1248 133.432 44.634 131.65 44.5492Z" fill="#F8F8F8"/>
<path d="M125.652 56.206C125.652 54.9894 125.652 53.7445 125.652 52.5279C125.652 51.7074 126.529 51.6508 126.642 51.962C127.066 53.0372 127.463 52.3864 127.944 52.1318C129.132 51.4527 130.575 51.6508 131.537 52.6977C131.989 53.2069 132.216 53.4616 132.753 52.7542C133.517 51.7357 134.649 51.5659 135.809 51.8771C136.969 52.1884 137.62 53.0655 137.818 54.1972C138.129 56.1212 137.931 58.0451 137.931 59.9691C137.931 60.3369 137.79 60.5915 137.337 60.5915C136.828 60.6198 136.686 60.3369 136.686 59.8842C136.686 58.5544 136.686 57.2529 136.686 55.9231C136.686 53.9709 135.979 52.9806 134.621 52.9523C133.234 52.9523 132.47 54.0274 132.442 55.9797C132.442 56.9134 132.527 57.8754 132.414 58.8091C132.329 59.4032 132.951 60.5067 131.876 60.5067C130.66 60.5067 131.282 59.3466 131.226 58.7242C131.084 57.451 131.141 56.1778 131.084 54.9328C131.027 54.1972 130.716 53.5748 130.037 53.2069C128.792 52.5279 127.406 53.2352 127.038 54.7348C126.67 56.2626 126.953 57.8471 126.84 59.3749C126.812 59.8276 127.123 60.5067 126.246 60.5633C125.369 60.5915 125.623 59.8842 125.623 59.4315C125.623 58.3564 125.652 57.2812 125.652 56.206Z" fill="#F8F8F8"/>
<path d="M108.336 52.5562C107.572 52.8391 107.063 52.6411 106.553 51.962C105.365 50.4059 103.243 50.2644 101.828 51.5093C99.961 53.1503 100.018 57.0549 101.942 58.6393C103.894 60.252 106.893 59.1486 107.346 56.687C107.459 56.0929 107.346 55.7816 106.695 55.8099C105.931 55.8382 105.195 55.8099 104.431 55.8099C104.064 55.8099 103.667 55.8382 103.639 55.2724C103.611 54.7348 103.95 54.6499 104.347 54.6499C105.563 54.6499 106.808 54.6499 108.025 54.6499C108.619 54.6499 108.817 54.9328 108.845 55.4987C108.958 57.5641 107.374 59.9125 105.393 60.5067C103.3 61.1574 101.093 60.2237 99.961 58.2432C97.9522 54.7348 99.6781 50.1795 103.243 49.4439C105.535 48.9912 107.685 50.2927 108.336 52.5562Z" fill="#F8F8F8"/>
<path d="M156.86 60.733C156.011 60.733 155.077 60.3086 154.455 59.3183C154.228 58.9788 153.945 58.4695 154.37 58.1866C154.851 57.8753 155.303 58.0451 155.615 58.6393C156.039 59.4881 156.831 59.6013 157.68 59.4598C158.246 59.3749 158.614 59.0071 158.727 58.4412C158.84 57.8188 158.472 57.4509 157.963 57.2246C157.369 56.97 156.718 56.7719 156.096 56.5455C154.879 56.0928 154.058 55.3006 154.256 53.9142C154.426 52.5844 155.303 51.962 156.548 51.7922C158.02 51.5942 159.236 52.2166 159.689 53.3767C159.802 53.6879 160.113 54.1406 159.632 54.3386C159.236 54.5084 158.783 54.4801 158.557 53.9708C158.218 53.2352 157.652 52.924 156.86 52.9523C156.237 52.9806 155.756 53.2069 155.586 53.8577C155.417 54.5084 155.728 54.9611 156.322 55.2157C156.916 55.4987 157.539 55.6967 158.161 55.9231C159.661 56.5173 160.198 57.3661 159.944 58.7241C159.717 59.9691 158.67 60.7047 156.86 60.733Z" fill="#F8F8F8"/>
<path d="M54.0691 18.9999C52.5978 19.0564 51.1548 18.9999 49.6836 19.0281C47.8728 19.0281 47.8445 19.0564 47.8728 20.8106C47.8728 22.7912 47.8728 24.7434 47.8728 26.8372C47.6747 26.7523 47.5333 26.724 47.4484 26.6391C44.3927 23.7532 39.2715 25.7337 37.9983 29.4402C36.7534 33.09 36.7251 36.7965 38.1681 40.3615C39.9789 44.8319 44.5341 45.8221 48.1274 42.6533C48.6933 42.144 49.0894 41.9742 49.2309 42.8796C49.4006 43.9831 50.0514 44.2377 51.0134 44.1811C51.7207 44.1245 52.428 44.1245 53.1354 44.1811C54.2954 44.2943 54.6632 43.785 54.7198 42.6533C54.833 38.6639 55.031 34.6462 55.1725 30.6568C55.2857 27.2616 55.3706 23.8663 55.512 20.4994C55.5686 19.396 55.2008 18.9716 54.0691 18.9999ZM47.7596 38.0697C47.505 38.6639 47.0806 39.0883 46.3732 39.1166C45.6376 39.1449 45.1283 38.777 44.7888 38.1546C44.1946 37.136 44.1663 36.0043 44.1946 34.8725C44.1663 33.8823 44.2512 32.892 44.5624 31.9583C44.8171 31.2227 45.2132 30.6002 46.1186 30.5436C46.9957 30.5153 47.5616 30.968 47.8445 31.7319C48.6084 33.8823 48.665 36.0043 47.7596 38.0697Z" fill="#F8F8F8"/>
<path d="M35.1406 32.3544C34.8011 28.5914 32.5942 26.243 28.8877 25.5357C26.4262 25.0547 24.0212 25.3093 21.6446 26.0449C20.343 26.4411 19.9752 27.0069 20.3148 28.3933C20.6543 29.808 21.1919 30.289 22.6348 29.808C23.427 29.5533 24.3041 29.4685 25.153 29.6665C26.1149 29.8646 26.9354 30.3173 27.3881 31.2227C27.5579 31.5622 27.8408 31.93 27.6145 32.2695C27.3598 32.6656 26.9072 32.3544 26.5676 32.2695C24.87 31.8168 23.1441 31.6188 21.3899 32.0432C18.7303 32.6656 17.1742 34.1369 16.8629 36.655C16.5234 39.4561 16.9195 42.0591 19.5225 43.7567C20.2299 44.2377 21.0504 44.4923 21.8992 44.5489C23.9929 44.7187 25.9452 44.3509 27.6428 43.0494C28.1521 42.6532 28.6331 42.2854 28.7745 43.304C28.8877 44.0962 29.397 44.266 30.076 44.2377C31.1512 44.2094 32.2546 44.2094 33.3298 44.2377C34.1503 44.266 34.5181 43.9265 34.603 43.1059C34.8576 40.5595 35.1972 38.0414 35.1406 35.495C35.1406 34.4198 35.2255 33.373 35.1406 32.3544ZM26.0583 39.6824C24.8417 39.6824 24.0495 38.9185 24.0495 37.6736C24.0495 36.457 24.8983 35.6647 26.2564 35.6647C27.7277 35.6365 28.2935 36.2306 28.3218 37.8433C28.3501 39.0034 27.5296 39.6824 26.0583 39.6824Z" fill="#F8F8F8"/>
<path d="M120.813 52.5278C120.813 52.1883 120.757 51.877 120.304 51.8487C119.908 51.8487 119.54 51.8204 119.512 52.3863C119.512 52.5844 119.569 52.8673 119.229 52.8956C117.418 51.4243 115.494 51.396 114.164 52.8107C112.637 54.4517 112.608 57.8753 114.136 59.6012C115.466 61.1007 117.277 61.0724 119.342 59.488C119.597 59.969 119.342 60.7046 120.191 60.6197C120.7 60.5632 120.813 60.3085 120.813 59.8841C120.813 57.4226 120.813 54.961 120.813 52.5278ZM117.192 59.4314C115.919 59.6012 114.702 58.6392 114.391 57.1679C113.995 55.3288 114.73 53.6029 116.117 53.0936C117.843 52.4712 119.455 53.9142 119.484 56.1494C119.512 57.9319 118.578 59.2616 117.192 59.4314Z" fill="#F8F8F8"/>
<path d="M148.117 52.245C146.928 51.5094 145.089 51.5942 143.986 52.443C142.769 53.405 142.43 54.7631 142.402 56.2061C142.373 56.97 142.515 57.7339 142.826 58.413C143.42 59.7711 144.439 60.5916 145.967 60.6765C147.409 60.7613 148.541 60.1955 149.305 58.9506C149.475 58.6676 149.843 58.2715 149.362 57.9886C149.051 57.8188 148.626 57.8188 148.315 58.13C148.202 58.2715 148.117 58.4413 147.975 58.5827C146.674 60.0257 144.552 59.573 143.901 57.7622C143.646 57.0266 143.816 56.6871 144.608 56.7154C146.023 56.7437 147.438 56.7154 148.852 56.7154C149.362 56.7154 149.758 56.6305 149.843 55.9797C150.069 54.7348 149.277 52.9806 148.117 52.245ZM148.456 55.3573C148.258 55.6968 147.777 55.527 147.409 55.5553C146.985 55.5836 146.561 55.5553 146.136 55.5553C145.797 55.5553 145.486 55.5836 145.146 55.5553C144.722 55.4987 144.099 55.7817 143.873 55.2724C143.646 54.7914 144.014 54.2821 144.325 53.8577C145.316 52.5562 147.268 52.6411 148.145 54.0275C148.428 54.4519 148.711 54.9329 148.456 55.3573Z" fill="#F8F8F8"/>
</g>
<defs>
<clipPath id="clip0">
<rect width="160" height="80" fill="white"/>
</clipPath>
</defs>
</svg>
