<svg width="160" height="80" viewBox="0 0 160 80" fill="none" xmlns="http://www.w3.org/2000/svg">
<path d="M157.883 48.9527C157.415 49.889 156.635 50.5131 155.386 50.5131C154.138 50.5131 153.046 49.5769 152.89 48.4846C152.578 47.2363 153.358 45.988 154.45 45.5199C155.698 45.0517 156.947 45.5199 157.571 46.6121C157.571 46.7682 157.727 46.7682 157.727 46.9242C157.883 47.3923 157.883 47.7044 157.883 48.0165C158.039 48.3286 158.039 48.4846 157.883 48.9527ZM153.358 48.0165C153.358 49.1088 154.294 50.045 155.386 50.045C156.479 50.045 157.415 49.1088 157.415 47.8604C157.415 46.7682 156.479 45.8319 155.386 45.8319C154.294 45.8319 153.358 46.7682 153.358 48.0165Z" fill="white"/>
<path d="M122.93 37.7179C122.93 35.3773 122.93 33.1927 122.93 31.0082C124.179 31.0082 125.583 31.0082 126.831 31.0082C126.831 37.4058 126.831 43.6473 126.831 50.0449C125.583 50.0449 124.335 50.0449 122.93 50.0449C122.93 49.5768 122.93 48.9527 122.93 48.3285C122.774 48.4845 122.774 48.4845 122.618 48.4845C120.59 50.8251 117.157 50.6691 114.972 48.6406C112.164 46.144 112.008 42.0869 113.256 39.5903C114.66 36.7816 117.469 35.2212 120.746 36.3135C121.526 36.4695 121.994 36.9377 122.618 37.4058C122.774 37.5618 122.774 37.5618 122.93 37.7179ZM116.533 43.1792C116.533 43.8034 116.689 44.5836 117.001 45.2077C118.093 47.3923 120.746 47.7044 122.15 45.9879C123.554 44.4275 123.398 41.6188 121.838 40.2145C120.59 38.9662 118.717 39.1222 117.625 40.2145C116.845 40.9947 116.533 42.0869 116.533 43.1792Z" fill="white"/>
<path d="M139.47 45.6758C140.251 46.456 140.875 47.2362 141.655 48.0164C141.031 48.6406 140.251 49.1087 139.47 49.5768C137.13 50.6691 133.229 50.6691 130.732 48.1725C129.64 47.0802 129.016 45.6758 128.86 44.1154C128.704 42.243 128.86 40.3705 130.108 38.8101C131.824 36.6256 134.009 35.8454 136.662 36.0014C138.222 36.1575 139.47 36.6256 140.719 37.5618C141.811 38.498 142.591 39.7464 142.747 41.1507C142.903 42.243 142.903 43.3352 142.903 44.4275C139.47 44.4275 136.194 44.4275 132.761 44.4275C132.917 45.2077 133.385 45.8319 133.853 46.3C135.413 47.3923 137.754 47.0802 139.158 45.9879C139.314 45.9879 139.47 45.8319 139.47 45.6758ZM132.917 41.7749C134.945 41.7749 136.818 41.7749 138.846 41.7749C138.69 40.2145 137.442 39.2782 135.882 39.2782C134.633 39.2782 132.917 40.3705 132.917 41.7749Z" fill="white"/>
<path d="M77.0547 45.6758C77.8349 46.456 78.4591 47.2362 79.2393 48.0164C78.147 49.1087 76.8987 49.7328 75.3383 50.0449C73.6219 50.357 71.9054 50.2009 70.3451 49.4208C67.8484 48.1724 66.7562 46.3 66.6001 43.4913C66.4441 41.6188 66.7562 39.9024 68.0045 38.342C69.7209 36.3135 71.7494 35.5333 74.4021 35.8454C75.6504 36.0014 76.8987 36.3135 77.991 37.0937C79.7074 38.342 80.4876 40.0584 80.4876 42.0869C80.4876 42.8671 80.4876 43.4913 80.4876 44.2715C77.0547 44.2715 73.7779 44.2715 70.5011 44.2715C70.6571 45.0517 71.1253 45.6758 71.5934 46.1439C73.1538 47.2362 75.4943 46.9241 76.8987 45.8319C76.8987 45.9879 77.0547 45.8319 77.0547 45.6758ZM76.4306 41.7748C76.4306 40.3705 75.1823 39.2782 73.6219 39.2782C72.0615 39.2782 70.5011 40.5265 70.5011 41.7748C72.5296 41.7748 74.4021 41.7748 76.4306 41.7748Z" fill="white"/>
<path d="M91.2543 50.045C91.2543 49.5768 91.2543 48.9527 91.2543 48.4846C91.0982 48.4846 91.0982 48.4846 91.0982 48.6406C89.5378 50.357 87.8214 50.6691 85.6369 50.045C83.2963 49.4208 81.8919 47.0802 82.5161 44.5836C82.8282 43.1792 83.9204 42.243 85.1687 41.9309C85.9489 41.6188 86.8852 41.6189 87.8214 41.4628C88.7576 41.4628 89.6939 41.4628 90.7862 41.4628C90.9422 41.4628 90.9422 41.4628 91.0982 41.4628C91.2543 40.2145 90.4741 39.2783 89.2258 39.2783C87.6654 39.1222 86.261 39.5903 85.0127 40.3705C84.8567 40.3705 84.8567 40.5266 84.7006 40.5266C84.0765 39.7464 83.6084 38.8101 82.9842 38.03C83.1402 38.03 83.1402 37.8739 83.1402 37.8739C85.4808 36.3135 88.1335 35.6894 91.0982 36.3135C93.5949 36.7816 94.8432 38.4981 94.9992 40.9947C94.9992 43.9594 94.9992 46.7681 94.9992 49.7329C94.9992 49.8889 94.9992 50.045 94.8432 50.045C93.5949 50.045 92.5026 50.045 91.2543 50.045ZM89.3818 44.1155C88.7576 44.1155 87.9774 44.1155 87.3533 44.2715C86.7291 44.4276 86.261 44.8957 86.261 45.5198C86.261 46.144 86.5731 46.7681 87.1973 46.9242C87.6654 47.0802 88.2895 47.0802 88.7576 47.0802C90.162 46.9242 90.9422 45.9879 90.9422 44.5836C90.9422 44.2715 90.7862 44.1155 90.4741 44.2715C90.318 44.1155 89.8499 44.1155 89.3818 44.1155Z" fill="white"/>
<path d="M101.397 50.045C100.149 50.045 98.9003 50.045 97.4959 50.045C97.4959 45.5199 97.4959 40.8387 97.4959 36.3136C98.7442 36.3136 99.9925 36.3136 101.397 36.3136C101.397 36.7817 101.397 37.2498 101.397 37.718C101.709 37.4059 102.021 37.2498 102.333 37.0938C105.454 34.7532 109.979 36.6257 110.447 40.5267C110.447 40.9948 110.603 41.4629 110.603 41.775C110.603 44.4276 110.603 46.9243 110.603 49.5769C110.603 49.733 110.603 49.889 110.603 50.045C109.355 50.045 108.107 50.045 106.702 50.045C106.702 49.889 106.702 49.733 106.702 49.5769C106.702 47.0803 106.702 44.5837 106.702 42.087C106.702 41.6189 106.702 41.3069 106.546 40.8387C106.078 39.1223 104.518 38.8102 103.269 39.2783C102.021 39.7465 101.553 40.6827 101.397 41.931C101.397 44.4276 101.397 46.9243 101.397 49.5769C101.397 49.733 101.397 49.889 101.397 50.045Z" fill="white"/>
<path d="M53.4929 50.045C53.4929 49.8889 53.4929 49.7329 53.4929 49.5768C53.4929 43.9594 53.4929 38.186 53.4929 32.5686C53.4929 32.1005 53.4929 32.1005 53.961 32.1005C54.8973 32.1005 55.9895 32.1005 56.9258 32.1005C57.3939 32.1005 57.3939 32.1005 57.3939 32.5686C57.3939 37.0937 57.3939 41.4628 57.3939 45.9879C57.3939 46.144 57.3939 46.3 57.3939 46.456C59.8905 46.456 62.3871 46.456 65.0398 46.456C65.0398 47.7044 65.0398 48.7966 65.0398 50.045C61.2949 50.045 57.3939 50.045 53.4929 50.045Z" fill="white"/>
<path d="M148.989 50.045C147.74 50.045 146.492 50.045 145.088 50.045C145.088 45.5198 145.088 40.8387 145.088 36.3135C146.336 36.3135 147.584 36.3135 148.989 36.3135C148.989 36.9377 148.989 37.4058 148.989 38.03C150.237 36.9377 151.485 36.1575 153.046 36.0015C153.046 36.1575 153.046 36.3135 153.046 36.4696C153.046 37.4058 153.046 38.342 153.046 39.4343C153.046 39.7464 153.046 39.7464 152.734 39.7464C152.266 39.7464 151.797 39.7464 151.329 39.9024C150.081 40.2145 149.457 40.9947 149.145 42.087C148.989 42.7111 148.833 43.4913 148.833 44.1155C148.833 45.988 148.833 47.8604 148.833 49.5769C148.989 49.7329 148.989 49.8889 148.989 50.045Z" fill="white"/>
<path d="M154.294 46.6122C154.762 46.6122 155.074 46.6122 155.542 46.6122C156.167 46.6122 156.323 46.7682 156.479 47.2363C156.635 47.7045 156.479 48.0165 156.01 48.1726C156.167 48.4847 156.479 48.9528 156.635 49.2648C156.167 49.4209 156.01 49.4209 155.698 48.9528C155.542 48.6407 155.386 48.4846 155.23 48.3286C155.23 48.1726 154.918 48.3286 154.762 48.1726C154.762 48.4847 154.762 48.6407 154.762 48.7967C154.762 49.2648 154.762 49.2648 154.138 49.2648C154.294 48.3286 154.294 47.5484 154.294 46.6122ZM154.918 47.0803C154.918 47.2363 154.918 47.5484 154.918 47.7045C155.23 47.7045 155.386 47.7045 155.698 47.7045C155.854 47.7045 156.01 47.5484 156.01 47.3924C156.01 47.2363 155.854 47.0803 155.698 47.0803C155.386 47.0803 155.074 47.0803 154.918 47.0803Z" fill="white"/>
<path d="M40.3856 40.0586C40.3856 43.4914 40.3856 46.7683 40.3856 50.2011C40.3856 50.8253 40.0735 51.2934 39.6054 51.6055C33.6759 55.0383 27.9025 58.3151 21.973 61.748C21.5049 62.0601 20.8807 62.0601 20.4126 61.748C16.3556 59.4074 12.4546 57.0668 8.3976 54.7262C6.52513 53.634 4.8087 52.5417 2.93623 51.6055C2.31208 51.2934 2 50.8253 2 50.0451C2 46.9243 2 43.9596 2 40.8388C2 37.2499 2 33.817 2 30.2281C2 29.2919 2.31208 28.6677 3.09227 28.1996C8.70968 25.0788 14.3271 21.802 19.7884 18.5252C19.9445 18.5252 19.9445 18.3692 20.1005 18.3692C20.7247 17.901 21.3488 17.901 21.973 18.3692C26.03 20.7097 30.087 23.0503 34.144 25.3909C35.8605 26.3271 37.5769 27.4194 39.2933 28.3557C39.9175 28.6677 40.0735 29.1359 40.0735 29.76C40.3856 33.3489 40.3856 36.6257 40.3856 40.0586ZM28.6827 35.5334C28.5266 35.5334 28.5266 35.6895 28.3706 35.6895C26.03 36.9378 23.8455 38.3422 21.5049 39.5905C21.1928 39.7465 21.0368 39.7465 20.8807 39.5905C19.4764 38.8103 18.072 37.874 16.5116 37.0938C15.5754 36.6257 14.6392 36.0016 13.7029 35.5334C13.5469 35.6895 13.5469 35.6895 13.5469 35.8455C12.4546 37.4059 11.5184 39.1223 10.4261 40.6827C10.2701 40.8388 10.2701 40.9948 10.4261 41.3069C11.5184 43.0233 12.6107 44.7397 13.7029 46.3001C13.859 46.6122 13.859 46.7683 13.7029 46.9243C13.2348 48.0166 12.7667 49.1088 12.2986 50.2011C12.2986 50.3572 12.1425 50.5132 12.1425 50.6692C13.2348 51.2934 14.3271 51.9175 15.5754 52.5417C15.8875 52.6977 16.0435 52.6977 16.1996 52.5417C17.2918 51.9175 18.5401 51.1374 19.6324 50.5132L19.7884 50.3572C19.6324 50.2011 19.4764 50.2011 19.4764 50.0451C18.5401 49.577 17.6039 48.9528 16.6677 48.4847C16.3556 48.3286 16.3556 48.1726 16.3556 47.8605C16.3556 47.5485 16.6677 47.5485 16.9797 47.5485C17.2918 47.5485 17.6039 47.5485 17.916 47.5485C20.4126 47.5485 22.7532 47.5485 25.2498 47.5485C25.5619 47.5485 25.7179 47.5485 25.874 47.8605C25.874 48.1726 25.7179 48.3286 25.5619 48.4847C25.4059 48.4847 25.4059 48.6407 25.2498 48.6407C24.4696 49.1088 23.5334 49.577 22.7532 50.0451C22.5971 50.0451 22.5972 50.2011 22.4411 50.2011C23.6894 50.9813 25.0938 51.7615 26.3421 52.3857C26.4981 52.3857 26.6542 52.3857 26.8102 52.3857C27.4344 52.0736 27.9025 51.7615 28.5266 51.4494C29.1508 51.1373 29.6189 50.8253 30.2431 50.5132C29.7749 49.2649 29.1508 48.0166 28.6827 46.7683C28.5266 46.4562 28.5266 46.3001 28.6827 45.9881C29.7749 44.2716 30.8672 42.7112 31.9595 40.9948C32.1155 40.8388 32.1155 40.6827 31.9595 40.3707C31.1793 39.2784 30.5551 38.1861 29.931 37.0938C29.4629 36.7818 28.9947 36.3136 28.6827 35.5334ZM17.1358 53.634C18.2281 54.2581 19.4764 54.8823 20.5686 55.6625C21.0368 55.9746 21.5049 55.9746 21.973 55.6625C23.0653 55.0383 24.1575 54.4142 25.2498 53.79C25.2498 53.79 25.2498 53.79 25.2498 53.634C24.0015 52.8538 22.7532 52.2296 21.5049 51.4494C21.3488 51.4494 21.1928 51.4494 21.1928 51.4494C20.7247 51.7615 20.2566 52.0736 19.6324 52.3857C18.6962 52.6977 17.916 53.1659 17.1358 53.634Z" fill="#FE0000"/>
<path d="M30.8672 40.6828C29.3068 41.619 27.7464 42.5552 26.03 43.6475C26.03 43.0234 26.03 42.5552 26.03 42.0871C25.874 41.463 26.186 41.1509 26.8102 40.8388C27.1223 40.6828 27.5904 40.5267 27.9025 40.5267C28.9947 40.6828 29.931 40.6828 30.8672 40.6828Z" fill="#FE0000"/>
<path d="M16.1995 43.6475C14.4831 42.5552 12.9227 41.619 11.3623 40.6827C11.5183 40.6827 11.6744 40.6827 11.8304 40.6827C12.7667 40.6827 13.7029 40.6827 14.6391 40.6827C15.2633 40.6827 15.7314 41.1509 16.1995 41.3069V41.4629C16.1995 42.2431 16.1995 42.8673 16.1995 43.6475Z" fill="#FE0000"/>
</svg>
