<svg width="160" height="80" viewBox="0 0 160 80" fill="none" xmlns="http://www.w3.org/2000/svg">
<path d="M129.942 23.8826L129.998 26.026C129.998 26.0851 129.991 26.144 129.977 26.2015C129.87 26.6481 129.75 27.0935 129.664 27.5449C129.297 29.3763 128.804 31.1798 128.189 32.9422C127.34 35.4499 125.647 37.0261 123.101 37.7258C121.57 38.1473 120.039 38.4494 118.444 38.4339C117.585 38.4256 116.725 38.4769 115.84 38.5175C115.679 38.525 115.525 38.586 115.402 38.6909C115.278 38.7959 115.193 38.9389 115.159 39.0978L112.853 49.7254C112.818 49.8891 112.728 50.0357 112.599 50.1412C112.47 50.2467 112.309 50.3047 112.143 50.3057H103.267C103.158 50.3051 103.049 50.2796 102.95 50.2311C102.852 50.1826 102.765 50.1122 102.697 50.0253C102.629 49.9384 102.581 49.8371 102.557 49.729C102.532 49.6208 102.533 49.5086 102.557 49.4006L109.091 20.8424C109.127 20.6842 109.213 20.5423 109.337 20.4389C109.46 20.3354 109.614 20.2762 109.775 20.2704C111.905 20.2155 113.754 20.1701 115.883 20.1116C115.979 20.1116 116.271 20.1259 116.367 20.1116C116.62 20.0944 116.874 20.0944 117.127 20.1116C117.747 20.1116 118.341 20.0829 118.96 20.0817C118.987 20.0803 119.013 20.0803 119.04 20.0817C119.235 20.1032 119.42 20.0901 119.619 20.102C121.189 20.1976 122.763 20.2585 124.331 20.3898C125.608 20.4879 126.861 20.789 128.045 21.2818C128.477 21.4534 128.863 21.7246 129.173 22.0738C129.482 22.423 129.706 22.8404 129.827 23.2927L129.942 23.8826ZM118.296 25.8576L116.852 32.2771C116.826 32.3894 116.827 32.5062 116.854 32.6182C116.881 32.7301 116.934 32.8341 117.008 32.9218C117.082 33.0095 117.175 33.0784 117.281 33.123C117.386 33.1676 117.5 33.1867 117.614 33.1787C118.311 33.1302 118.983 32.8925 119.557 32.4909C119.691 32.3759 119.79 32.2259 119.844 32.0574C120.175 31.1869 120.54 30.3248 120.798 29.4304C121.005 28.6885 121.146 27.9291 121.218 27.1616C121.267 26.6503 121.124 26.1389 120.818 25.7287C120.758 25.6445 120.68 25.574 120.592 25.5217C120.503 25.4695 120.404 25.4367 120.302 25.4254L119.089 25.2916C118.911 25.272 118.732 25.3187 118.586 25.423C118.44 25.5272 118.337 25.6818 118.296 25.8576Z" fill="white"/>
<path d="M102.305 59.9075V54.8648H103.725L104.936 58.7456L106.217 54.8505H107.609C107.64 54.9659 107.66 55.0838 107.671 55.2027C107.671 56.6739 107.671 58.1466 107.671 59.6209C107.663 59.7191 107.648 59.8166 107.625 59.9123H106.678V56.2953C106.56 56.4519 106.471 56.6292 106.417 56.8183C106.069 57.8477 105.722 58.8774 105.376 59.9075H104.43L103.246 56.2058V59.9075H102.305Z" fill="white"/>
<path d="M117.282 59.9122C117.264 59.7355 117.282 59.554 117.282 59.3832C117.277 58.0705 117.277 56.757 117.282 55.4427C117.282 55.2672 117.298 55.0904 117.309 54.8707H118.65L119.705 56.6977L120.826 58.6333V54.8767H121.75C121.76 55.063 121.777 55.254 121.777 55.4451C121.777 56.718 121.777 57.9909 121.777 59.2662C121.777 59.4824 121.811 59.6985 121.828 59.9146C121.316 59.9146 120.891 59.9146 120.379 59.9146C120.319 59.7832 120.246 59.6576 120.163 59.5397C119.588 58.5215 119.008 57.5057 118.424 56.4923C118.368 56.3944 118.299 56.3048 118.244 56.2225C118.244 56.9676 118.244 57.6996 118.244 58.4315C118.244 58.9283 118.265 59.4238 118.276 59.9194L117.282 59.9122Z" fill="white"/>
<path d="M127.157 59.9074C125.994 59.1157 125.562 58.0219 125.884 56.6164C126.076 55.7806 126.575 55.1835 127.392 54.9232C128.227 54.6533 129.058 54.7095 129.936 55.0808L129.628 55.8916C129.385 55.8307 129.164 55.7639 128.941 55.7209C127.725 55.4892 126.929 56.146 126.92 57.3926C126.92 57.4125 126.92 57.4324 126.92 57.4523C126.92 58.7658 127.56 59.2817 128.886 59.0118V58.0123L128.018 57.9634C128.011 57.8266 128.011 57.6894 128.018 57.5526C128.002 57.3983 127.996 57.2432 127.999 57.0881L130 57.0451V59.911L127.157 59.9074Z" fill="white"/>
<path d="M87.3941 59.9073C86.2106 59.1204 85.768 57.9705 86.1266 56.5638C86.3787 55.5763 87.039 55.0008 88.0201 54.8204C88.7458 54.6795 89.497 54.7718 90.168 55.0843L89.8627 55.8868C89.587 55.8235 89.3278 55.7483 89.0639 55.7077C87.9337 55.5309 87.1858 56.1674 87.1562 57.3233C87.1562 57.3627 87.1562 57.4033 87.1562 57.4427C87.1562 58.7562 87.7751 59.2697 89.1242 59.0165C89.1349 58.8565 89.155 58.6846 89.1574 58.5126C89.1597 58.3407 89.1444 58.2021 89.1361 58.0194L88.2497 57.9585V57.1083H90.1941C90.2319 57.9442 90.2047 58.7801 90.2083 59.6554L89.7609 59.9073H87.3941Z" fill="white"/>
<path d="M43.4887 59.9075V54.8374C44.3171 54.8195 45.1349 54.7693 45.9408 54.9759C46.4639 55.1096 46.8094 55.4416 46.9065 55.9849C47.0035 56.5282 46.8982 57.0596 46.4449 57.4417C46.3266 57.542 46.2 57.6292 46.0378 57.7534C46.3929 58.2955 46.7479 58.8161 47.0887 59.3451C47.2071 59.523 47.2923 59.7201 47.3929 59.9075H46.2106L45.1159 57.9755L44.5538 58.034V59.9087L43.4887 59.9075ZM44.5609 57.0859C45.0343 57.0656 45.5159 57.1945 45.7644 56.7169C45.8102 56.6127 45.8325 56.4995 45.8298 56.3856C45.8272 56.2716 45.7996 56.1597 45.7491 56.0578C45.4721 55.6279 45.0118 55.733 44.5656 55.7377L44.5609 57.0859Z" fill="white"/>
<path d="M65.9739 59.9075C66.3842 58.6911 66.7945 57.4747 67.2047 56.2583C67.3633 55.7914 67.5325 55.3293 67.7089 54.8337H69.0248L70.826 59.9075H69.6426L69.2994 58.7528H67.4213L67.1574 59.9075H65.9739ZM69.0213 57.7724L68.4177 55.7962L68.3242 55.7831L67.7325 57.7724H69.0213Z" fill="white"/>
<path d="M93.7846 59.9075L95.5254 54.8158H96.8497L98.6366 59.9075H97.4532L97.1278 58.7539H95.2508L94.968 59.9075H93.7846ZM96.8437 57.7748L96.1952 55.6338L95.5597 57.7748H96.8437Z" fill="white"/>
<path d="M59.2284 59.9074C58.3917 59.4095 58.1183 58.6524 58.1633 57.7019C58.2047 56.7717 58.1727 55.8379 58.1727 54.8635H59.2378C59.2378 55.1776 59.2378 55.4713 59.2378 55.7639C59.2378 56.5389 59.2165 57.3162 59.2509 58.0888C59.2875 58.9115 59.8603 59.2889 60.6426 59.0548C61.0201 58.9414 61.2343 58.6524 61.2414 58.1306C61.2615 57.2768 61.2509 56.4218 61.2532 55.5669C61.2532 55.3495 61.2532 55.1322 61.2532 54.8683H62.3183C62.3183 55.0761 62.3183 55.2695 62.3183 55.4654C62.3183 56.2212 62.2804 56.9783 62.3278 57.7342C62.3869 58.6966 62.0911 59.4393 61.2319 59.9134L59.2284 59.9074Z" fill="white"/>
<path d="M33.3953 54.8564L32.1834 58.7707L30.9787 54.8647C30.6237 54.8313 30.329 54.8922 30.032 54.8707L30 54.8874V54.934C30.0734 55.2293 30.1464 55.5247 30.2189 55.82C30.232 55.8654 30.2438 55.9108 30.2556 55.9562C30.6746 57.1956 31.0923 58.4347 31.5089 59.6734C31.5457 59.7498 31.5747 59.8298 31.5953 59.9122H32.7882C32.8225 59.7594 32.8947 59.6029 32.9432 59.4549C33.3921 58.1016 33.8434 56.7482 34.297 55.3949C34.3515 55.2313 34.3965 55.0654 34.458 54.8552L33.3953 54.8564Z" fill="white"/>
<path d="M52.0094 59.9077V55.745H50.6485V54.8614C51.8876 54.7945 53.1337 54.8423 54.4189 54.8315V55.6985H53.0745V59.9077H52.0094Z" fill="white"/>
<path d="M74.4946 59.9077C74.4792 59.5124 74.4532 59.1172 74.4508 58.7231C74.4449 57.6484 74.4508 56.5737 74.4508 55.5062V54.8745H75.5159V59.0407H77.5716V59.9065L74.4946 59.9077Z" fill="white"/>
<path d="M111.93 59.9074C111.946 59.5324 111.93 59.1587 111.93 58.7837C111.93 57.4977 111.93 56.2116 111.93 54.8778H112.987C112.998 55.0736 113.018 55.2647 113.018 55.4558C113.018 56.7239 113.018 57.9932 113.018 59.2614C113.018 59.4775 112.989 59.6924 113.005 59.9086L111.93 59.9074Z" fill="white"/>
<path d="M38.1633 59.9074C38.1502 58.8148 38.1337 57.7222 38.1242 56.6296C38.1242 56.0553 38.1242 55.4821 38.1242 54.8695H39.2283V59.9074H38.1633Z" fill="white"/>
<path d="M100.183 50.2924H89.7006L90.3444 45.3727H86.5846L84.9893 50.3008H74.3384L86.3089 20.3204H101.24C100.951 30.3139 100.561 40.2823 100.183 50.2924ZM91.5751 37.2277L92.4698 27.6916L92.3668 27.6594L88.658 37.2277H91.5751Z" fill="white"/>
<path d="M37.3692 20.3085H47.6165L42.5065 42.7219H49.5076L48.0331 50.2996H30.5147L37.3692 20.3085Z" fill="white"/>
<path d="M75.9443 31.372L74.3443 39.3068C67.1727 39.3629 60.0248 39.345 52.8852 39.3331C52.8248 38.8279 53.9893 32.8371 54.4153 31.3672L75.9443 31.372Z" fill="white"/>
<path d="M76.7739 28.001H55.1846L56.8201 20.3074H78.3775L76.7739 28.001Z" fill="white"/>
<path d="M51.9455 42.8582C52.7183 42.691 72.5077 42.6611 73.5112 42.8271L72.0603 50.3022H50.4497C50.8982 47.7779 51.4532 45.3132 51.9455 42.8582Z" fill="white"/>
</svg>
