<svg width="160" height="80" viewBox="0 0 160 80" fill="none" xmlns="http://www.w3.org/2000/svg">
<path d="M146.104 8.85425H13.4269V71.0974H146.104V8.85425Z" fill="url(#paint0_linear)"/>
<path d="M13.6204 8H145.959C147.435 8.31719 147.991 9.39078 147.991 11.1963C147.967 30.3987 147.967 49.5768 147.991 68.7792C148.015 69.1696 147.991 69.5356 147.918 69.926C147.677 71.1704 147.144 71.7072 145.935 71.9267C145.524 72 145.113 72 144.702 72C101.58 72 58.4831 72 15.3617 72C14.878 72 14.3943 71.9512 13.9106 71.878C12.7739 71.634 12.1693 70.902 12.0484 69.7552C12.0242 69.3648 12.0484 68.9988 12.0484 68.6084C12.0242 49.4792 12.0242 30.3499 12 11.2207C12 9.78117 12.4111 8.732 13.6204 8ZM80.0317 8.6588H15.1198C13.1851 8.6588 12.7014 9.14679 12.7014 11.0743C12.7255 30.3499 12.7255 49.6256 12.7497 68.9012C12.7497 70.78 13.2334 71.268 15.0957 71.268H144.919C146.83 71.268 147.29 70.78 147.29 68.8281C147.314 49.6256 147.314 30.4232 147.338 11.2207C147.338 10.928 147.338 10.6108 147.338 10.318C147.241 9.34198 146.733 8.80519 145.766 8.6832C145.379 8.6588 145.016 8.6588 144.629 8.6588H80.0317Z" fill="#040406"/>
<path d="M13.8381 9.75659H146.153C146.201 10.2934 146.274 10.7326 146.274 11.1962C146.298 30.3498 146.322 49.5278 146.346 68.6815C146.346 70.2918 146.298 70.3406 144.702 70.3406H15.3133C13.7171 70.3406 13.6688 70.2918 13.6688 68.6815C13.6929 49.5522 13.7171 30.3742 13.7413 11.2206C13.7413 10.757 13.7897 10.3178 13.8381 9.75659ZM112.415 27.4219L112.391 26.9827C112.488 26.4459 112.536 25.9334 112.56 25.3967C112.584 22.3223 112.584 19.2236 112.56 16.1493C112.536 15.9785 112.488 15.8077 112.415 15.6369C111.569 16.2469 110.771 16.1249 109.924 15.6369C109.924 19.492 109.924 23.2495 109.924 27.0071L109.9 27.4219V33.4241L112.512 33.2778L112.609 30.7402L112.415 27.4219ZM126.515 27.4219L126.442 27.0071C126.539 26.3727 126.612 25.7383 126.66 25.1039C126.684 22.7128 126.66 20.3216 126.66 17.9304C126.66 17.2228 126.66 16.5153 126.66 15.6125C125.717 16.2713 124.87 16.1737 123.975 15.6613V27.0071L123.951 27.495V33.4729C124.653 33.4241 125.257 33.2289 125.813 33.3266C126.563 33.4729 126.708 33.0581 126.684 32.5458C126.66 30.8133 126.587 29.1054 126.515 27.4219ZM108.812 17.8328L109.029 16.7837C108.908 16.1981 109.392 15.2953 108.207 15.3197C105.909 15.3197 103.612 15.2953 101.314 15.2953C101.193 15.3197 101.073 15.3685 100.952 15.4173V17.8084H108.812V17.8328ZM142.235 24.6403C141.945 24.4939 141.654 24.2499 141.34 24.2499C140.687 24.2255 140.01 24.3475 139.357 24.3475C138.849 24.3231 138.341 24.2743 137.857 24.2011V26.2019C138.438 26.5434 139.236 26.7387 139.26 27.0559C139.405 28.0562 139.357 29.1054 139.139 30.0814C139.018 30.5693 138.293 30.911 137.761 31.4233C137.761 31.6673 137.785 32.0333 137.761 32.4238C137.712 33.0826 137.93 33.4486 138.656 33.3509C139.575 33.2533 140.542 33.2289 141.461 33.0826C141.993 33.0093 142.283 32.6433 142.187 32.0333C142.114 31.5941 142.066 31.155 142.041 30.6913C142.041 28.837 142.09 26.9827 142.114 25.1039L142.235 24.6403ZM72.994 16.5885C72.8972 15.3929 72.4377 15.2465 70.4546 15.8321V30.3254H73.1391C72.6312 28.3734 73.0907 26.4459 72.8005 24.5183C72.5103 22.5908 72.873 20.59 72.9698 18.6136L72.994 16.5885ZM94.2766 15.5149H91.713V33.2778L94.204 33.0826L94.3491 32.5213C94.4217 32.3993 94.47 32.253 94.4942 32.1066C94.4942 26.8607 94.4942 21.6148 94.4942 16.3445C94.47 16.0517 94.3975 15.7833 94.2766 15.5149ZM136.261 26.3239C136.237 24.4939 136.14 22.664 136.237 20.8584C136.285 20.0288 136.406 18.9796 136.914 18.4184C137.833 17.4181 137.446 16.4177 137.519 15.3929C135.463 15.3197 133.867 16.8325 133.867 18.8576C133.843 22.3468 133.819 25.8603 133.891 29.3494C133.915 30.2522 134.254 31.2038 134.617 32.0578C134.907 32.7898 135.56 33.2778 136.334 33.3753C137.325 33.5217 137.519 33.3266 137.567 32.3261C137.616 31.6918 137.398 31.0818 136.987 30.5938C136.6 30.1302 136.6 29.3494 136.431 28.6907L136.261 26.3239ZM84.9896 26.6411C84.9896 24.6647 84.9896 22.664 84.9896 20.6875C85.1589 19.9312 85.0622 18.9309 85.5217 18.4428C86.4165 17.4424 86.0296 16.4177 86.1021 15.3929C84.1673 15.3685 82.5711 16.8568 82.5228 18.6868C82.4986 19.9068 82.5228 21.1268 82.5228 22.3223C82.5228 24.7135 82.4744 27.1047 82.547 29.4958C82.5953 31.0086 82.9581 32.4481 84.4817 33.2046C85.4733 33.6926 85.9812 33.4729 86.2472 32.5458L86.2714 31.521C84.8929 30.1302 84.8445 28.3979 84.9896 26.6411ZM122.911 32.6678V30.9353C122.887 29.1542 122.839 27.3731 122.839 25.6163C122.839 24.2255 122.911 22.8591 122.936 21.4684C122.936 21.078 122.936 20.712 122.936 20.3216C122.911 19.1016 122.839 17.9061 122.839 16.6861C122.815 15.3441 122.839 15.3685 121.533 15.5637C121.122 15.5881 120.711 15.5881 120.299 15.5637V33.5949C120.807 33.5706 121.339 33.5706 121.847 33.5949C122.573 33.6926 122.863 33.3509 122.911 32.6678ZM94.7361 24.3475L94.857 25.4211H97.0578V33.1801C97.5657 33.2778 98.0736 33.3753 98.6056 33.3997C99.9358 33.4486 99.9358 33.3997 99.9358 32.0821C99.9358 26.7874 99.9358 21.4928 99.9358 16.1981C99.9358 15.9053 99.8874 15.6125 99.8632 15.3197C99.2586 15.3197 98.7507 15.3441 98.2429 15.3197C97.4448 15.2709 97.2513 15.4173 97.2271 16.2469C97.2029 16.8568 97.2271 17.4668 97.2271 18.0768C97.2271 19.5409 97.2271 21.0292 97.2271 22.5175L94.8812 22.7615L94.7361 24.3475ZM127.603 16.6129L127.24 16.2469C127.119 16.4421 126.926 16.6373 126.926 16.8325C126.902 18.1012 126.902 19.3944 126.926 20.6632C126.95 21.7123 127.023 22.7615 127.071 23.7863C127.942 26.3239 128.716 28.8858 129.683 31.399C130.505 33.5461 129.925 33.1069 132.295 33.0826C132.416 33.0338 132.513 32.9849 132.609 32.9361C132.924 30.179 132.755 27.2754 132.73 24.3719C132.706 21.444 132.73 18.4916 132.73 15.4661H130.288V25.2259L130.07 25.2503L127.603 16.6129ZM14.3218 65.3631L14.3459 65.8755H14.4669L14.5878 65.4851L25.5193 49.6254C24.2133 49.6254 23.1734 49.6498 22.1334 49.6254C21.0451 49.6011 20.7549 48.9911 21.3595 48.0638C21.5046 47.8443 21.6497 47.6246 21.819 47.4051L28.6391 37.7428L31.1543 34.3513C30.6948 34.3269 30.4772 34.3026 30.2837 34.3026C29.0744 34.3026 27.8652 34.3269 26.656 34.3026C25.7128 34.2781 25.4467 33.8389 25.8579 32.9606C25.9546 32.7653 26.0755 32.5458 26.1965 32.375C30.0176 26.1774 33.8388 19.9556 37.66 13.7581C38.3372 12.6845 38.966 11.5866 39.6674 10.4154H14.3943C14.3701 10.7814 14.3459 11.0986 14.3459 11.3914C14.3218 19.7848 14.2976 28.1539 14.2976 36.5229C14.2976 36.8645 14.3459 37.206 14.3701 37.5477L14.3218 65.3631ZM145.621 37.5477C145.669 37.2549 145.693 36.9377 145.718 36.6449C145.718 28.1782 145.693 19.736 145.669 11.2694C145.645 10.9766 145.621 10.6838 145.572 10.391H70.382V14.5877H72.2201C73.2842 14.5877 74.2516 15.4417 74.0339 16.4177C73.6953 17.9061 74.0581 19.3456 73.9372 20.8095C73.8163 22.054 73.4777 23.3715 73.7679 24.5428C74.1548 26.1531 73.7437 27.6902 73.9372 29.2518C73.9614 29.3738 74.0097 29.4958 74.0581 29.6422L77.976 29.8374C77.976 29.447 77.976 29.0322 77.976 28.6174C77.976 24.6891 77.976 20.7608 77.9519 16.8568C77.9519 14.9049 77.9518 14.9049 79.8141 14.5877C79.8866 14.5633 79.9592 14.5389 80.0317 14.5389C80.588 14.5389 81.241 14.3681 81.6521 14.6121C82.0633 14.8561 82.2567 15.5149 82.5953 16.0517C83.5869 14.6365 85.1105 14.2949 86.8277 14.3925C87.0211 14.4169 87.1904 14.4169 87.3839 14.3925C88.569 14.1241 89.4154 14.7585 90.1893 15.4661C90.407 15.6857 90.6005 15.9297 90.794 16.1737C91.0116 14.8073 91.1567 14.6609 92.3901 14.6365C92.7771 14.6365 93.1399 14.6365 93.5268 14.6365C95.1714 14.6365 95.4132 14.8805 95.4374 16.5397C95.4374 18.0281 95.4132 19.5164 95.4374 21.0048C95.4374 21.2488 95.7276 21.4928 95.8727 21.7368C96.0179 21.4928 96.3081 21.2488 96.3081 20.9804C96.3323 19.4189 96.3081 17.8572 96.3081 16.2957C96.3081 14.8561 96.7434 14.4169 98.2187 14.4169C101.459 14.4169 104.724 14.4169 107.965 14.4169C108.449 14.4413 108.933 14.5145 109.416 14.6121C110.166 14.7097 110.964 15.0025 111.69 14.8805C112.415 14.7585 112.923 14.7829 113.528 15.2709C114.036 15.6613 114.422 16.1981 114.568 16.8325C114.761 17.6376 115.027 18.4184 115.269 19.2236C115.39 18.1501 115.414 17.0764 115.366 16.0029C115.341 15.1489 115.728 14.6365 116.478 14.5633C117.373 14.4901 118.268 14.6121 119.163 14.6609C119.525 14.6853 119.888 14.7341 120.227 14.7341C121.315 14.7829 122.355 14.1485 123.516 14.7585C124.193 15.1245 125.209 14.9049 126.08 14.8561C127.095 14.7829 128.232 15.4417 128.522 16.4421C128.788 17.2961 129.006 18.1744 129.248 19.0284C129.369 17.9792 129.417 16.9056 129.393 15.8565C129.393 15.1245 129.756 14.6365 130.409 14.5633C131.255 14.4413 132.126 14.4657 132.972 14.6121C133.408 14.7097 133.746 15.2953 134.181 15.7101C135.246 14.6609 136.576 14.2949 138.075 14.4169C138.365 14.4413 138.68 14.3437 138.97 14.3681C139.43 14.4169 139.962 14.4169 140.324 14.6609C142.428 16.1005 143.275 18.1012 143.009 20.6632C142.864 21.9563 142.114 22.7128 140.784 22.7128C139.309 22.7128 138.535 22.0295 138.462 20.6875C138.438 20.0044 138.365 19.3456 137.64 18.9309C137.035 20.4924 137.035 22.0052 137.156 23.396C138.075 23.4448 138.897 23.518 139.696 23.5423C140.107 23.5423 140.566 23.5668 140.905 23.396C141.582 23.0543 142.017 23.2983 142.525 23.7375C143.251 24.3475 143.154 25.1039 143.106 25.9091C143.009 27.8854 143.009 29.8618 143.106 31.8138C143.178 33.0581 142.694 34.0097 141.461 34.1073C140.228 34.2049 138.897 34.1806 137.64 34.3269C136.068 34.5221 134.834 34.0341 133.843 32.8141C133.819 32.7898 133.698 32.8141 133.794 32.8141C133.335 33.3021 133.021 33.8633 132.585 34.0341C130.82 34.6685 129.635 34.0586 128.982 32.253C128.546 31.0573 128.159 29.8374 127.748 28.6418C127.603 30.0326 127.627 31.399 127.579 32.7653C127.531 33.8877 127.071 34.2781 125.934 34.3513C124.701 34.4245 123.468 34.5709 122.234 34.5709C121.194 34.5709 120.009 34.9613 119.284 33.7657C117.204 34.4489 115.341 34.6441 114.785 31.9846C114.568 30.911 114.06 29.8862 113.673 28.8614C113.528 30.1302 113.552 31.3502 113.528 32.5458C113.503 33.8877 113.044 34.3026 111.738 34.3513C111.448 34.3513 111.133 34.3757 110.843 34.3757C109.054 34.4001 109.029 34.3757 109.029 32.5213C109.029 28.3979 109.029 24.2988 109.005 20.1752C109.005 19.7604 109.005 19.37 109.005 18.9552H106.998C106.998 19.4432 106.998 19.858 106.998 20.2728C106.998 24.3231 106.998 28.349 106.974 32.3993C106.974 32.6678 106.974 32.9361 106.974 33.2046C106.925 34.1073 106.683 34.3513 105.837 34.4001C105.377 34.4245 104.918 34.3757 104.483 34.4001C102.765 34.4733 102.475 34.2293 102.475 32.5213C102.475 28.3979 102.451 24.2988 102.451 20.1752C102.451 19.7604 102.427 19.37 102.403 18.9552H100.879C100.879 19.4432 100.879 19.858 100.879 20.2728C100.879 24.2255 100.879 28.2027 100.855 32.1553C100.879 32.4481 100.879 32.7653 100.831 33.0581C100.71 33.6926 100.468 34.2781 99.7423 34.3269C98.9926 34.4001 98.2429 34.4001 97.4931 34.3026C96.3806 34.1317 96.1388 33.7657 96.1388 32.5946C96.1388 30.7158 96.1388 28.8614 96.1146 26.9827C96.1146 26.7874 95.8244 26.5679 95.6793 26.3727C95.5342 26.5434 95.3891 26.7387 95.2923 26.9339C95.2439 27.1534 95.2439 27.3974 95.2681 27.617C95.2681 29.1787 95.3407 30.7402 95.2439 32.3018C95.2198 32.8873 94.9296 33.8633 94.591 33.9609C93.5268 34.2537 92.3901 34.2049 91.2776 34.2537C90.794 34.2781 90.3103 34.1317 89.8507 34.1561C88.2787 34.2049 86.6825 34.3757 85.1105 34.3026C84.4575 34.2781 83.8046 33.7901 83.1758 33.4729C82.9339 33.3021 82.6921 33.1313 82.4744 32.9118C82.0874 33.6926 81.7005 34.4245 80.8056 34.3513C79.9108 34.2781 78.9918 34.6685 78.1695 34.0341C78.0728 33.9609 77.9035 34.0097 77.7584 34.0341C77.1537 34.1317 76.5249 34.3513 75.9203 34.3513C74.4209 34.4001 72.8972 34.3269 71.3978 34.3513C69.85 34.3757 69.4388 34.0586 69.463 32.4481C69.4872 30.545 69.5839 28.6418 69.6323 26.7631C69.6565 25.6651 69.6081 24.5671 69.6081 23.4448C69.6081 21.3708 69.6081 19.2724 69.6081 16.9544L51.4695 31.4478L53.1383 35.9861C53.2108 36.6937 52.6788 36.9865 52.2434 37.328C49.3896 39.646 46.5358 41.9396 43.682 44.2332C43.2225 44.5992 42.7872 44.9895 42.3277 45.3799C43.5853 45.2335 44.1657 45.9167 44.6494 46.8927C44.9155 47.4051 45.2299 47.8686 45.5685 48.3323C46.2698 49.3814 46.2456 49.6011 45.2057 50.333C41.8924 52.651 38.5549 54.9445 35.2416 57.2624C30.1628 60.8248 25.084 64.3871 20.0052 67.9495C19.5457 68.2667 19.1345 68.5839 18.5541 68.3399L14.4427 66.6807V69.7306H145.693C145.718 69.2915 145.742 68.9255 145.742 68.5595C145.742 66.0951 145.742 63.6063 145.742 61.142C145.669 53.2365 145.645 45.3799 145.621 37.5477ZM32.6296 33.5706L21.8432 48.7471H27.0913L15.5794 65.5339L15.797 65.7047L42.9807 46.5511L42.9081 46.3315H33.863L50.6956 32.1798L50.6231 31.9846H42.8839L69.4872 10.5374H40.6106L26.3657 33.5706H32.6296ZM116.285 25.3723L116.043 25.4211C115.172 22.4688 114.302 19.5164 113.455 16.5641C113.407 16.4665 113.334 16.3689 113.262 16.2957C113.237 16.2713 113.189 16.2469 113.165 16.2469C113.141 16.2469 113.092 16.2713 112.996 16.3201C112.996 18.7356 112.996 21.2 112.996 23.6399C113.02 23.8351 113.068 24.0059 113.141 24.1768C113.963 26.5679 114.761 28.959 115.583 31.3502C116.212 33.1313 116.236 33.1313 118.099 33.0826C118.244 33.0338 118.389 32.9849 118.534 32.9361C118.921 27.2022 118.365 21.3464 118.8 15.4417H116.309V25.3723H116.285ZM78.9192 15.6613V33.3997C79.4029 33.3997 79.7899 33.3997 80.201 33.3997C81.1442 33.3997 81.4103 33.2046 81.5554 32.2773C81.5796 31.9358 81.5796 31.5941 81.5554 31.2526C81.507 30.3498 81.3861 29.447 81.3861 28.5198C81.4103 26.5922 81.5312 24.6647 81.5312 22.7371C81.5312 20.59 81.4344 18.4429 81.3619 16.2957C81.3619 16.0029 81.3135 15.7101 81.2893 15.3441L78.9192 15.6613ZM106.006 33.3753V18.3696H103.443V33.3753H106.006ZM86.61 26.4459C88.0127 26.6167 88.0611 26.6899 87.9885 28.0807C87.9643 28.349 87.9643 28.6174 87.9643 28.8858C88.1094 30.0326 87.8192 30.911 86.6342 31.155V33.4729C87.8434 33.3509 88.9559 33.2778 90.0684 33.1313C90.6488 33.0581 90.9632 32.6678 90.8423 32.009C90.7698 31.5941 90.7214 31.1793 90.7214 30.7646C90.7456 28.959 90.794 27.1291 90.794 25.3235C90.7698 24.9575 90.673 24.6159 90.5279 24.2988H86.61V26.4459ZM87.529 15.1245C87.0937 15.3197 86.4891 15.4173 86.4165 15.6857C86.2714 16.2713 86.2714 16.8813 86.3923 17.4913C86.4407 17.7352 86.9244 17.8572 87.0695 18.1256C87.4081 18.6869 87.6983 19.2724 87.9402 19.9068C88.0611 20.1996 87.9643 20.59 88.0611 20.9072C88.2546 21.5415 88.7624 21.6635 89.3671 21.7368C89.8991 21.81 90.407 21.5172 90.6005 21.0048C91.326 19.3212 90.5279 16.7593 88.9801 15.7345C88.569 15.4417 88.0611 15.3441 87.529 15.1245ZM137.785 15.4417C137.785 16.0517 137.761 16.6861 137.785 17.3204C137.809 17.5156 137.906 17.7108 138.075 17.8328C139.091 18.4672 139.333 19.492 139.357 20.5656C139.381 21.2975 139.792 21.566 140.373 21.688C141.364 21.9075 141.969 21.3708 142.041 20.3216C142.066 19.858 142.09 19.4189 142.066 18.9552C141.921 16.6617 140.01 15.0513 137.785 15.4417ZM77.3956 30.7158C75.1222 30.5206 72.8247 30.667 70.4788 30.6182V33.3997H75.3641C77.3472 33.3997 77.5165 33.2289 77.4923 31.2282C77.4681 31.0818 77.4198 30.8866 77.3956 30.7158ZM85.957 23.274C86.7551 23.3471 87.529 23.4935 88.3029 23.4448C89.1252 23.3471 89.9475 23.1763 90.7698 22.9568C90.8181 22.9568 90.8181 22.7128 90.8423 22.5175C90.7214 22.5175 90.6005 22.5175 90.4796 22.5175C88.0853 22.9323 87.3113 22.3468 87.0211 20.0044C86.9728 19.5896 86.7309 19.2236 86.5374 18.7356C85.8361 19.858 85.6668 21.4928 85.957 23.274ZM137.277 27.2999C137.301 28.0807 137.301 28.7882 137.398 29.4714C137.422 29.7154 137.737 29.9106 137.906 30.1302C138.099 29.8862 138.414 29.6666 138.438 29.3982C138.486 28.7638 138.486 28.1294 138.462 27.495L137.277 27.2999ZM87.0211 27.495L85.7635 27.3242C85.8844 28.2027 85.9812 28.959 86.1263 29.691C86.1505 29.8618 86.4165 29.9838 86.5616 30.1302C86.7067 29.935 86.9728 29.7642 86.9969 29.569C87.0695 28.9102 87.0211 28.2759 87.0211 27.495Z" fill="#040406"/>
<path d="M94.3491 32.5214C94.3491 27.2998 94.3491 22.1028 94.3491 16.8812C94.3491 16.4421 94.3008 15.9785 94.2524 15.5149C94.3733 15.7833 94.4459 16.0517 94.4943 16.3445C94.4943 21.5904 94.4943 26.8363 94.4943 32.1066C94.4943 32.253 94.4217 32.3994 94.3491 32.5214Z" fill="#040406"/>
<path d="M127.603 16.6128L127.047 16.1736V23.8106C126.999 22.7615 126.926 21.7367 126.902 20.6875C126.878 19.4187 126.878 18.1255 126.902 16.8568C126.902 16.6616 127.119 16.4664 127.216 16.2712L127.603 16.6128Z" fill="#040406"/>
<path d="M112.415 27.422H109.924L109.948 27.0072L112.391 26.9585L112.415 27.422Z" fill="black"/>
<path d="M126.515 27.4217L123.975 27.4705L124 26.9825L126.467 27.0069L126.515 27.4217Z" fill="black"/>
<path d="M89.2703 50.3577C91.06 51.5045 92.1967 53.0905 92.5837 55.1888C93.1883 58.5072 91.6163 63.9726 86.6826 65.2171C83.5385 65.9979 80.3945 66.3639 77.1538 65.8514C76.9361 65.827 76.6943 65.8026 76.4766 65.8026C74.7837 65.8026 73.0907 65.827 71.3736 65.827C69.8742 65.827 69.5839 65.5342 69.5839 64.0214C69.5839 57.9947 69.5839 51.9925 69.5839 45.9658C69.5839 43.4039 69.5598 40.8663 69.5598 38.3043C69.5598 36.8892 69.8742 36.5232 71.2769 36.5476C73.2358 36.5964 75.1706 36.7428 77.1296 36.7428C78.8709 36.7428 80.588 36.5476 82.3293 36.6208C83.6837 36.6452 85.038 36.8648 86.3198 37.2796C87.529 37.6943 88.6657 38.3288 89.6573 39.1339C92.5111 41.4763 92.6562 44.9898 90.7698 48.3082C90.3828 49.0157 89.8266 49.6014 89.2703 50.3577ZM77.2747 48.9426L76.9603 52.6025H79.1611C80.3945 52.4805 81.6521 52.7488 82.7646 53.3345C84.5301 54.2373 85.2073 56.4088 84.3125 58.19C84.0464 58.7024 83.6595 59.1415 83.2 59.4832C82.2326 60.1663 81.0959 60.5323 79.935 60.5811C79.0402 60.63 78.1453 60.5811 77.2505 60.5811V64.9242C77.6858 64.9974 78.097 65.0706 78.5081 65.1194C80.8057 65.2902 83.1274 65.1194 85.3766 64.6071C89.1252 63.8019 91.1084 61.6547 91.713 57.8484C92.1725 54.8716 90.9633 52.4073 88.3513 51.0165L87.263 50.4309C87.4807 50.2845 87.6016 50.2114 87.7225 50.1382C90.0443 48.7229 91.06 46.5514 91.0358 43.9163C91.0116 41.3787 89.3913 39.8659 87.3114 38.768C86.7793 38.4996 86.2231 38.1823 85.6426 38.1336C83.2 37.9383 80.7815 37.8408 78.3388 37.7188C78.0002 37.7432 77.6375 37.7676 77.2989 37.8652V41.5007C78.0244 41.5007 78.6532 41.4763 79.282 41.5007C79.9108 41.5251 80.5638 41.5984 81.1926 41.6959C82.9581 41.9643 84.0706 43.2819 84.0706 45.0875C84.0706 46.7954 83.1032 48.0398 81.1926 48.5278C79.935 48.7474 78.5807 48.7717 77.2747 48.9426ZM70.5997 37.5236V64.8266H76.3073V37.5236H70.5997ZM77.3714 59.776C78.6532 59.654 79.8867 59.6295 81.0959 59.41C81.7247 59.288 82.3051 58.9952 82.813 58.6047C84.2883 57.458 84.0464 55.0913 82.4261 54.1885C80.8299 53.3101 79.1127 53.4321 77.3956 53.5297V59.776H77.3714ZM77.3956 42.2815V47.9666C79.016 47.9666 80.5396 47.8934 81.9182 47.0638C82.9823 46.4294 83.3451 45.551 83.1274 44.3555C82.9581 43.477 82.0875 42.6475 81.0475 42.5255C79.8625 42.4279 78.6774 42.3791 77.3956 42.2815Z" fill="#040406"/>
<path d="M95.8969 36.1569C98.1219 36.1569 100.347 36.1569 102.548 36.1569C103.975 36.1569 105.377 36.1324 106.804 36.1324C109.319 36.1324 111.811 36.1812 114.326 36.108C115.68 36.0592 116.527 36.6204 117.131 37.7428C117.18 44.4039 117.252 51.0649 117.3 57.726C117.3 59.8244 117.276 61.8983 117.131 63.9966C117.059 65.1679 116.357 65.8022 115.196 65.8022C112.077 65.8266 108.932 65.7534 105.813 65.7534C102.959 65.7534 100.081 65.8022 97.2271 65.8022C96.695 65.8022 96.1872 65.7046 95.6793 65.5339C95.0505 65.3386 94.6393 64.7286 94.6877 64.0455C94.7119 56.872 94.6877 49.6741 94.6635 42.5007C94.6635 41.0855 94.7119 39.6703 94.6393 38.2795C94.6393 37.2304 94.9779 36.5472 95.8969 36.1569ZM105.377 64.5579V60.0684H101.75C101.75 57.7992 101.75 55.652 101.75 53.4805C101.75 50.5526 101.75 47.6246 101.75 44.6967L101.846 41.1831L105.232 40.8415V37.084H102.451C100.516 37.084 98.6056 37.0596 96.6709 37.084C96.0421 37.084 95.6551 37.328 95.6551 38.1088C95.6551 44.7942 95.6309 51.5041 95.6067 58.1896C95.6067 58.9947 95.5825 59.7756 95.5584 60.5807L95.5342 63.1671C95.6309 63.4355 95.8486 63.7771 95.776 63.9479C95.4858 64.5579 96.0421 64.5335 96.2597 64.7774C96.3806 64.8506 96.5258 64.8994 96.6709 64.9239C99.3312 64.9483 101.991 64.9483 104.652 64.9239C104.894 64.8994 105.135 64.6799 105.377 64.5579ZM109.852 50.9429V60.1172H106.248V64.8019C109.126 64.8019 111.859 64.8019 114.616 64.8019C116.091 64.8019 116.261 64.6066 116.381 63.1183C116.406 62.8498 116.381 62.5815 116.381 62.3131C116.381 58.0188 116.381 53.7 116.357 49.4058C116.333 45.819 116.309 42.2567 116.236 38.67C116.212 37.572 115.583 37.0352 114.543 36.9864C112.004 36.8644 109.465 37.3524 106.949 37.0108C106.756 37.0108 106.538 37.0352 106.345 37.084V41.0611L109.658 41.2563C109.658 43.1839 109.658 45.1359 109.706 47.0635C109.731 48.381 109.803 49.6741 109.852 50.9429ZM108.812 42.0859C106.683 42.2567 104.7 41.5003 102.741 42.1836V59.1412H109.053L108.812 42.0859Z" fill="#040406"/>
<path d="M134.834 37.0112L142.332 36.5719C142.985 36.5232 143.323 36.9867 143.638 37.4747C143.444 38.1579 143.372 38.9143 142.985 39.4998C142.041 40.9395 141.268 42.5011 140.131 43.8186C139.26 44.7946 138.68 46.0145 138.003 47.1613C137.325 48.3081 136.672 49.5281 135.947 50.8701C137.398 53.2369 138.897 55.7743 140.469 58.2631C141.34 59.6295 142.38 60.8982 143.347 62.2158C144.46 63.7042 144.146 64.9974 142.356 65.3878C140.566 65.7781 138.631 65.8758 136.769 65.9978C136.406 66.0221 135.923 65.5586 135.657 65.1926C134.061 63.1186 132.537 60.9959 130.892 58.7756C130.312 59.7027 129.756 60.5811 129.199 61.4595C128.522 62.5087 127.869 63.5822 127.144 64.5826C126.66 65.2414 126.055 65.7538 125.112 65.4121C124.894 65.339 124.677 65.3634 124.459 65.461C123.443 65.9489 122.403 65.8026 121.364 65.6318C120.88 65.583 120.396 65.5586 119.912 65.5586C118.582 65.4854 118.171 64.729 118.824 63.5822C119.743 61.9718 120.735 60.3859 121.654 58.7756C123.008 56.4331 124.29 54.0908 125.668 51.7729C126.128 50.9921 126.055 50.4064 125.62 49.6745C123.637 46.4293 121.702 43.1842 119.767 39.9391C119.405 39.3291 119.235 38.6215 118.969 37.9627C119.042 37.0112 119.695 36.6939 120.493 36.6452C121.944 36.5719 123.395 36.6695 124.822 36.4744C125.886 36.3279 126.805 36.3524 127.676 36.9867L131.013 42.8182C131.956 41.2811 132.827 39.8415 133.746 38.4263C134.036 37.9383 134.423 37.4747 134.834 37.0112ZM141.509 37.4747L137.737 37.6455C137.18 37.6455 136.6 37.6699 136.044 37.7432C135.657 37.8163 135.149 37.9383 134.98 38.2312C133.891 39.9391 132.851 41.7203 131.836 43.4771C131.715 43.7454 131.715 44.0382 131.836 44.3066C132.924 46.161 134.061 47.9665 135.294 49.9917C135.778 49.1865 136.213 48.6009 136.552 47.9421C137.495 45.9657 138.535 44.0382 140.034 42.4278C140.203 42.2571 140.179 41.9154 140.252 41.5494C141.437 40.5978 142.235 39.2559 142.743 37.5967L141.509 37.4747ZM130.771 57.1651C131.062 57.5311 131.279 57.7996 131.473 58.0679C133.045 60.2151 134.617 62.3378 136.213 64.4606C136.431 64.729 136.769 65.1438 137.011 65.1194C138.728 65.0218 140.445 64.8266 142.162 64.5094C143.227 64.2898 143.275 63.8018 142.646 62.8502C140.687 59.9223 138.728 57.0188 136.818 54.0664C134.98 51.1873 133.166 48.3081 131.424 45.3802C130.118 43.2086 128.958 40.9883 127.7 38.7679C126.95 37.4259 126.612 37.2795 125.112 37.4992C124.967 37.5235 124.822 37.5235 124.653 37.4992C123.032 36.9379 121.484 37.6699 119.671 37.7187C119.985 38.4019 120.178 38.9143 120.469 39.3779C122.403 42.6718 124.362 45.9414 126.346 49.2109C126.999 50.2845 127.119 51.1873 126.418 52.334C124.121 56.116 121.944 59.9711 119.719 63.8018C119.598 64.0702 119.477 64.3142 119.38 64.607C119.985 64.607 120.614 64.6558 121.218 64.7046C122.307 64.8998 123.371 65.0461 124.411 64.485C124.58 64.3874 124.774 64.3874 124.943 64.4362C125.789 64.8754 126.225 64.3386 126.612 63.753C127.41 62.5575 128.159 61.3375 128.933 60.1175C129.514 59.1659 130.118 58.2143 130.771 57.1651Z" fill="#040406"/>
<path d="M77.2989 52.4561L79.1853 52.6024H76.9845L77.2989 48.9425" fill="#040406"/>
<path d="M109.682 41.2811C109.755 41.4031 109.803 41.5495 109.827 41.6715C109.852 44.7702 109.852 47.8445 109.852 50.9433C109.803 49.6501 109.731 48.3813 109.707 47.0882C109.682 45.1606 109.682 43.2086 109.682 41.2811Z" fill="#040406"/>
<path d="M96.2597 64.7778C98.92 64.8022 101.58 64.8266 104.241 64.8266C104.628 64.8266 105.015 64.6558 105.402 64.5582C105.16 64.6802 104.918 64.8998 104.676 64.8998C102.016 64.9242 99.3554 64.8998 96.695 64.8998C96.5257 64.8754 96.3806 64.8509 96.2597 64.7778Z" fill="#040406"/>
<path d="M80.0318 8.65891H144.605C144.992 8.63451 145.355 8.65891 145.742 8.68331C146.709 8.80531 147.217 9.3421 147.314 10.3181C147.338 10.6109 147.338 10.9281 147.314 11.2209C147.29 30.4233 147.29 49.6258 147.265 68.8282C147.265 70.8045 146.806 71.2681 144.895 71.2681H15.0715C13.2334 71.2681 12.7497 70.7801 12.7256 68.9014C12.7014 49.6258 12.7014 30.35 12.6772 11.0745C12.6772 9.1469 13.1609 8.65891 15.0957 8.65891H80.0318ZM13.8381 9.75689C13.7897 10.2937 13.7413 10.7573 13.7413 11.1965C13.7171 30.3745 13.6929 49.5525 13.6688 68.7062C13.6688 70.3165 13.7171 70.3653 15.3133 70.3653H144.702C146.298 70.3653 146.346 70.3165 146.346 68.7062C146.322 49.5525 146.298 30.3745 146.274 11.2209C146.274 10.7817 146.201 10.3181 146.153 9.78129L13.8381 9.75689Z" fill="#FEFE02"/>
<path d="M32.6296 33.5708H26.3899L40.6348 10.5376H69.5114L42.9081 31.9848H50.6473L50.7198 32.18L33.8872 46.3317H42.9081L43.0049 46.5513L15.797 65.6805L15.5793 65.5098L27.0913 48.7473H21.8432L32.6296 33.5708Z" fill="#FEFE02"/>
<path d="M116.285 25.3727V15.4908H118.8C118.389 21.3956 118.945 27.2514 118.534 32.9853C118.389 33.0585 118.244 33.1073 118.099 33.1317C116.236 33.1805 116.212 33.1805 115.583 31.3994C114.737 29.0082 113.939 26.617 113.141 24.2259C113.068 24.055 113.02 23.8599 112.996 23.6891C112.996 21.2247 112.996 18.7848 112.996 16.3692C113.116 16.3204 113.141 16.296 113.165 16.296C113.213 16.296 113.237 16.3204 113.262 16.3448C113.358 16.418 113.407 16.5156 113.455 16.6132C114.326 19.5656 115.196 22.5179 116.043 25.4702L116.285 25.3727Z" fill="#FEFE02"/>
<path d="M127.603 16.6132L130.07 25.275L130.288 25.2507V15.4908H132.73C132.73 18.5163 132.706 21.4687 132.73 24.3967C132.755 27.3002 132.924 30.2037 132.609 32.9609C132.513 33.0097 132.392 33.0585 132.295 33.1073C129.901 33.1073 130.505 33.5465 129.683 31.4237C128.716 28.935 127.942 26.3486 127.071 23.8111V16.174L127.603 16.6132Z" fill="#FEFE02"/>
<path d="M94.8812 22.7863L97.2271 22.5423C97.2271 21.0539 97.2271 19.5655 97.2271 18.1016C97.2271 17.4916 97.2271 16.8816 97.2271 16.2716C97.2513 15.442 97.4448 15.2956 98.2429 15.3444C98.7508 15.3688 99.2586 15.3444 99.8633 15.3444C99.8874 15.6372 99.9358 15.93 99.9358 16.2228C99.9358 21.5175 99.9358 26.8122 99.9358 32.1069C99.9358 33.4244 99.9116 33.4489 98.6057 33.4244C98.0978 33.3757 97.5657 33.3024 97.0578 33.2049V25.4214H94.857L94.7603 24.3479L94.8812 22.7863Z" fill="#FEFE02"/>
<path d="M122.936 21.4686C122.911 22.8594 122.839 24.2257 122.839 25.6165C122.839 27.3976 122.887 29.1789 122.911 30.9356V32.668C122.863 33.3512 122.573 33.6928 121.847 33.5952C121.339 33.5708 120.807 33.5708 120.299 33.5952V15.5639C120.711 15.5883 121.122 15.5883 121.533 15.5639C122.815 15.3687 122.815 15.3443 122.839 16.6863C122.863 17.9063 122.911 19.1018 122.936 20.3218C122.936 20.7122 122.936 21.0782 122.936 21.4686Z" fill="#FEFE02"/>
<path d="M86.223 32.5219C85.957 33.449 85.4733 33.6687 84.4576 33.1807C82.9339 32.4243 82.5711 30.9604 82.5228 29.4719C82.4502 27.0808 82.4986 24.6897 82.4986 22.2985C82.4986 21.0786 82.4744 19.8585 82.4986 18.663C82.547 16.8574 84.1673 15.369 86.0779 15.369C86.0296 16.4182 86.3923 17.4185 85.4975 18.419C85.038 18.9313 85.1347 19.9073 84.9654 20.6637C84.9654 22.6401 84.9654 24.6408 84.9654 26.6172C84.8203 28.3739 84.8687 30.1064 86.223 31.4727V32.5219Z" fill="#FEFE02"/>
<path d="M78.9193 15.6616L81.2893 15.3444C81.3135 15.7104 81.3619 16.0031 81.3619 16.2959C81.4344 18.4431 81.5312 20.5903 81.5312 22.7374C81.5312 24.665 81.4103 26.5925 81.3861 28.5201C81.3861 29.4229 81.507 30.3256 81.5554 31.2529C81.5796 31.5944 81.5796 31.9361 81.5554 32.2776C81.4103 33.2048 81.1442 33.4 80.201 33.4C79.7899 33.4 79.3788 33.4 78.9193 33.4V15.6616Z" fill="#FEFE02"/>
<path d="M136.431 28.6909C136.6 29.3253 136.6 30.1061 136.987 30.594C137.398 31.0577 137.616 31.692 137.567 32.3265C137.543 33.3268 137.326 33.522 136.334 33.3756C135.56 33.278 134.907 32.79 134.617 32.058C134.278 31.204 133.915 30.2525 133.891 29.3497C133.819 25.8606 133.843 22.347 133.867 18.8579C133.891 16.8327 135.463 15.32 137.519 15.3932C137.446 16.418 137.833 17.4183 136.914 18.4188C136.407 18.9799 136.261 20.0291 136.237 20.8587C136.165 22.6887 136.237 24.4942 136.261 26.3241L136.431 28.6909Z" fill="#FEFE02"/>
<path d="M94.3491 32.5214L94.204 33.0825L91.713 33.2777V15.5149H94.2766C94.3008 15.9785 94.3733 16.4177 94.3733 16.8812C94.3733 22.1028 94.3733 27.2998 94.3491 32.5214Z" fill="#FEFE02"/>
<path d="M105.982 33.3757H103.418V18.37H105.982V33.3757Z" fill="#FEFE02"/>
<path d="M72.994 18.6142C72.9214 20.5905 72.5587 22.5913 72.8247 24.5189C73.0907 26.4464 72.6554 28.374 73.1633 30.3259H70.4788V15.8326C72.4377 15.247 72.9214 15.3934 73.0182 16.589L72.994 18.6142Z" fill="#FEFE02"/>
<path d="M86.61 26.4461V24.299H90.528C90.6731 24.6405 90.7456 24.9821 90.794 25.3236C90.794 27.1293 90.7456 28.9592 90.7214 30.7648C90.7214 31.1796 90.7698 31.5943 90.8424 32.0092C90.9633 32.668 90.6489 33.034 90.0684 33.1316C88.9559 33.2779 87.8434 33.3511 86.6342 33.4731V31.1552C87.8193 30.8868 88.1095 30.0084 87.9644 28.886C87.9402 28.6176 87.9402 28.3492 87.9886 28.0809C88.0611 26.6656 88.0127 26.5924 86.61 26.4461Z" fill="#FEFE02"/>
<path d="M142.162 25.153C142.138 27.0075 142.09 28.8618 142.09 30.7406C142.09 31.1797 142.138 31.6434 142.235 32.0825C142.332 32.6925 142.017 33.0585 141.509 33.1317C140.59 33.2781 139.647 33.3025 138.704 33.4001C137.978 33.4733 137.761 33.1073 137.809 32.4729C137.833 32.0825 137.809 31.7166 137.809 31.4726C138.341 30.9846 139.067 30.6429 139.188 30.1306C139.405 29.1301 139.454 28.1054 139.309 27.105C139.26 26.7878 138.462 26.5682 137.906 26.251V24.2502C138.414 24.3234 138.898 24.3722 139.405 24.3967C140.058 24.3967 140.736 24.2747 141.389 24.2991C141.679 24.2991 141.969 24.5431 142.283 24.6894L142.162 25.153Z" fill="#FEFE02"/>
<path d="M123.975 26.9586V15.6129C124.87 16.1253 125.717 16.2229 126.66 15.5641C126.66 16.4669 126.66 17.1745 126.66 17.882C126.66 20.2732 126.684 22.6644 126.66 25.0555C126.612 25.6898 126.563 26.3487 126.442 26.9586H123.975Z" fill="#FEFE02"/>
<path d="M109.973 27.0075V15.6373C110.819 16.1253 111.617 16.2473 112.464 15.6373C112.536 15.8081 112.56 15.9789 112.609 16.1497C112.609 19.2241 112.609 22.3228 112.609 25.3971C112.584 25.934 112.512 26.4463 112.439 26.9831L109.973 27.0075Z" fill="#FEFE02"/>
<path d="M108.812 17.8328H100.927V15.4173C101.048 15.3441 101.169 15.3197 101.29 15.2953C103.588 15.2953 105.885 15.3197 108.183 15.3197C109.368 15.3197 108.884 16.2225 109.005 16.7837L108.812 17.8328Z" fill="#FEFE02"/>
<path d="M87.529 15.1248C88.0611 15.32 88.5931 15.4175 88.9801 15.7103C90.5279 16.7351 91.3018 19.3215 90.6005 21.0051C90.407 21.5174 89.8991 21.8102 89.3671 21.7371C88.7624 21.6883 88.2545 21.5418 88.0611 20.9074C87.9643 20.5903 88.0611 20.1998 87.9401 19.9071C87.6983 19.2971 87.4081 18.6871 87.0695 18.1259C86.9244 17.8575 86.4407 17.7355 86.3923 17.4915C86.2714 16.9059 86.2714 16.2959 86.4165 15.6859C86.4891 15.4419 87.0937 15.3444 87.529 15.1248Z" fill="#FEFE02"/>
<path d="M137.785 15.4416C140.01 15.0512 141.921 16.6616 142.066 18.9551C142.09 19.4187 142.066 19.8579 142.041 20.3215C141.993 21.3707 141.364 21.9075 140.373 21.6878C139.816 21.5659 139.357 21.3219 139.357 20.5655C139.333 19.4919 139.091 18.4671 138.075 17.8327C137.906 17.7107 137.809 17.5156 137.785 17.3204C137.761 16.686 137.785 16.0516 137.785 15.4416Z" fill="#FEFE02"/>
<path d="M77.3956 30.7164C77.444 30.8872 77.4682 31.058 77.4923 31.2287C77.5165 33.2295 77.3472 33.4003 75.3641 33.4003H70.503V30.6432C72.8005 30.6676 75.1222 30.5456 77.3956 30.7164Z" fill="#FEFE02"/>
<path d="M126.515 27.4219C126.587 29.1298 126.66 30.8134 126.684 32.5214C126.684 33.0338 126.563 33.4486 125.814 33.3022C125.257 33.2046 124.653 33.3754 123.951 33.4486V27.4707L126.515 27.4219Z" fill="#FEFE02"/>
<path d="M112.633 30.7402L112.536 33.2778L109.924 33.4242V27.4219H112.415L112.633 30.7402Z" fill="#FEFE02"/>
<path d="M77.2988 48.9424C78.6048 48.796 79.935 48.7473 81.1926 48.4544C83.1032 47.9665 84.0706 46.722 84.0706 45.0141C84.0706 43.2086 82.9823 41.8909 81.1926 41.6226C80.5638 41.5249 79.9108 41.4518 79.282 41.4273C78.6532 41.4029 78.0002 41.4273 77.2988 41.4273V37.7674C77.6374 37.6942 78.0002 37.6454 78.363 37.6454C80.8056 37.7674 83.2483 37.865 85.6668 38.0602C86.2472 38.109 86.8034 38.4262 87.3355 38.6946C89.4154 39.7926 91.0358 41.3053 91.06 43.8429C91.0841 46.478 90.0684 48.6496 87.7467 50.0648C87.6257 50.1379 87.5048 50.2356 87.2871 50.3576L88.3755 50.9432C90.9874 52.3584 92.2208 54.8227 91.7371 57.7751C91.1325 61.6057 89.1494 63.7285 85.4007 64.5337C83.1516 65.0461 80.8298 65.2169 78.5323 65.0705C78.1211 65.0461 77.7342 64.9485 77.2747 64.8753V60.5322C78.1695 60.5322 79.0643 60.5566 79.9592 60.5322C81.1442 60.5077 82.2809 60.1174 83.2241 59.4342C84.8445 58.2874 85.2073 56.0426 84.0706 54.4079C83.732 53.9443 83.2967 53.5539 82.7888 53.2855C81.6763 52.6999 80.4429 52.4315 79.1853 52.5535L77.2988 52.4072V48.9424Z" fill="#FEFE02"/>
<path d="M70.5997 37.5237H76.3073V64.8267H70.5997V37.5237Z" fill="#FEFE02"/>
<path d="M109.682 41.281L106.369 41.0857V37.1086C106.562 37.0598 106.756 37.0354 106.974 37.0354C109.513 37.4014 112.052 36.8889 114.568 37.0109C115.608 37.0598 116.236 37.5966 116.261 38.6945C116.333 42.2813 116.357 45.8436 116.381 49.4303C116.406 53.7247 116.381 58.0433 116.406 62.3377C116.406 62.6061 116.43 62.8745 116.406 63.1429C116.285 64.6312 116.091 64.802 114.64 64.8265C111.883 64.8265 109.126 64.8265 106.272 64.8265V60.1661H109.876V50.9431C109.876 47.8444 109.876 44.7701 109.852 41.6713C109.803 41.5249 109.755 41.403 109.682 41.281Z" fill="#FEFE02"/>
<path d="M101.75 44.6968C101.75 47.6247 101.75 50.5527 101.75 53.4807C101.75 55.6522 101.75 57.7994 101.75 60.0686H105.377V64.558C104.99 64.6557 104.604 64.8265 104.217 64.8265C101.556 64.8265 98.8959 64.802 96.2356 64.7777C96.0179 64.558 95.4616 64.558 95.7519 63.9481C95.8486 63.7772 95.6067 63.4357 95.51 63.1672L95.5342 60.5809C95.5584 59.7758 95.5584 58.995 95.5826 58.1898C95.6068 51.5043 95.6309 44.7944 95.6309 38.1089C95.6309 37.3282 96.0179 37.0842 96.6467 37.0842C98.5815 37.0598 100.492 37.0842 102.427 37.0842H105.232V40.8417L101.846 41.1833L101.75 44.6968Z" fill="#FEFE02"/>
<path d="M130.771 57.1653C130.118 58.2145 129.538 59.1661 128.933 60.1177C128.159 61.3377 127.41 62.5576 126.612 63.7531C126.225 64.3388 125.789 64.8756 124.943 64.4364C124.774 64.3631 124.58 64.3876 124.411 64.4851C123.371 65.0464 122.307 64.8999 121.218 64.7048C120.614 64.6316 120.009 64.6071 119.38 64.6071C119.477 64.3388 119.598 64.0704 119.719 63.802C121.944 59.9712 124.121 56.1161 126.418 52.3342C127.119 51.1874 126.999 50.2846 126.346 49.2111C124.362 45.9415 122.403 42.672 120.469 39.3781C120.203 38.9145 119.985 38.4021 119.671 37.7189C121.484 37.67 123.032 36.938 124.653 37.4993C124.798 37.5237 124.943 37.5237 125.112 37.4993C126.612 37.2797 126.95 37.4505 127.7 38.768C128.933 40.9641 130.118 43.2087 131.424 45.3803C133.166 48.3083 134.98 51.2119 136.818 54.0665C138.728 57.0189 140.687 59.9469 142.646 62.8504C143.275 63.7776 143.227 64.29 142.162 64.5096C140.469 64.8024 138.752 65.0219 137.011 65.1196C136.745 65.1439 136.406 64.7536 136.213 64.4608C134.617 62.338 133.045 60.1909 131.473 58.0681C131.255 57.7753 131.062 57.5313 130.771 57.1653Z" fill="#FEFE02"/>
<path d="M141.509 37.4749L142.767 37.5725C142.235 39.2316 141.461 40.598 140.276 41.5252C140.203 41.8912 140.228 42.2328 140.058 42.4036C138.559 44.0139 137.519 45.9415 136.576 47.9178C136.261 48.5766 135.826 49.1866 135.318 49.9674C134.085 47.9666 132.948 46.1367 131.86 44.2824C131.739 44.0139 131.739 43.7212 131.86 43.4527C132.875 41.6716 133.891 39.9148 135.004 38.2068C135.173 37.914 135.705 37.792 136.068 37.7188C136.624 37.6457 137.205 37.6213 137.761 37.6213L141.509 37.4749Z" fill="#FEFE02"/>
<defs>
<linearGradient id="paint0_linear" x1="79.7609" y1="71.0974" x2="79.7609" y2="8.85425" gradientUnits="userSpaceOnUse">
<stop stop-color="#0040F9"/>
<stop offset="1" stop-color="#0A0C67"/>
</linearGradient>
</defs>
</svg>
