<svg width="160" height="80" viewBox="0 0 160 80" fill="none" xmlns="http://www.w3.org/2000/svg">
<path d="M131.826 28.8857H118.925C117.807 28.8857 116.893 29.8 116.893 30.9175V44.0223H119.907V31.9334H123.835V43.9884H127.052V31.9334H130.98V43.9884H133.858V30.8836C133.824 29.7662 132.944 28.8857 131.826 28.8857Z" fill="white"/>
<path d="M112.897 28.8857H104.838C103.721 28.8857 102.806 29.8 102.806 30.9175V44.0223H105.854V40.0265H111.78V43.9884H114.895V30.8836C114.929 29.7662 114.015 28.8857 112.897 28.8857ZM111.814 36.945H105.888V32.0688H111.814V36.945Z" fill="white"/>
<path d="M57.9301 28.8695V43.9722H60.9777V28.8695H57.9301Z" fill="white"/>
<path d="M49.0328 40.9408V28.8857H47.983H45.9513V30.9175V40.9408V41.9905C45.9513 42.1937 45.9852 42.3969 46.0529 42.6C46.1206 42.8709 46.2561 43.0741 46.4254 43.2773C46.4592 43.3111 46.527 43.3789 46.5608 43.4127C46.9333 43.7852 47.4412 44.0223 47.983 44.0223H49.0328H54.0444H55.9069V42.7355V40.9408H49.0328Z" fill="white"/>
<path d="M91.8687 31.8995H100.978V28.8857H90.8867C89.7693 28.8857 88.855 29.8 88.855 30.9175V37.1482V41.9905C88.855 42.1937 88.8888 42.3969 88.9566 42.6C89.0243 42.8709 89.1597 43.0741 89.3291 43.2773C89.3629 43.3111 89.4306 43.3789 89.4645 43.4127C89.837 43.7852 90.3449 44.0223 90.8867 44.0223H98.946C100.063 44.0223 100.978 43.108 100.978 41.9905V37.1482C100.978 36.945 100.944 36.7418 100.876 36.5387C100.808 36.2678 100.673 36.0646 100.504 35.8614C100.47 35.7937 100.402 35.7598 100.368 35.726C100.097 35.4551 99.7587 35.2519 99.3523 35.1842H94.9164L93.9343 37.9609H97.964V41.2455H91.9026V35.1503V31.8995H91.8687Z" fill="white"/>
<path d="M143.881 28.8859H137.854C136.838 28.8859 135.992 29.6309 135.856 30.6129H135.822V30.8838V31.9335V34.9134V37.961V40.9409V41.9907V42.16C135.822 42.2954 135.856 42.4309 135.89 42.5663C135.958 42.8372 136.093 43.0404 136.262 43.2436L136.398 43.379C136.736 43.7177 137.211 43.9547 137.752 43.9547C137.786 43.9547 137.786 43.9547 137.82 43.9547H143.848C143.881 43.9547 143.881 43.9547 143.915 43.9547H145.879V41.9229V40.8732H138.802V37.8933H141.816L142.832 34.8457H138.802V31.8658H145.879V30.8838V28.8521H143.881V28.8859Z" fill="white"/>
<path d="M84.9269 28.8859H78.8994C77.8835 28.8859 77.037 29.6309 76.9015 30.6129H76.8677V30.8838V31.9335V34.9134V37.961V40.9409V41.9907V42.16C76.8677 42.2954 76.9015 42.4309 76.9354 42.5663C77.0031 42.8372 77.1386 43.0404 77.3079 43.2436L77.4433 43.379C77.782 43.7177 78.256 43.9547 78.7978 43.9547C78.8317 43.9547 78.8317 43.9547 78.8656 43.9547H84.8931C84.9269 43.9547 84.9269 43.9547 84.9608 43.9547H86.9248V41.9229V40.8732H79.8476V37.8933H82.8613L83.8772 34.8457H79.8476V31.8658H86.9248V30.8838V28.8521H84.9269V28.8859Z" fill="white"/>
<path d="M159.898 36.5387C159.831 36.3016 159.695 36.0646 159.526 35.8614C159.492 35.7937 159.424 35.7598 159.39 35.726C159.357 35.6921 159.289 35.6244 159.255 35.5905C158.916 35.3196 158.442 35.1842 158.002 35.1842H150.891V31.8995H158.984L160 28.8857H149.909C148.791 28.8857 147.877 29.8 147.877 30.9175V35.9291C147.877 36.1323 147.911 36.3355 147.979 36.5387C148.047 36.8096 148.182 37.0127 148.351 37.2159L148.487 37.3514C148.859 37.7238 149.367 37.9609 149.909 37.9609H156.986V41.2455H156.275H147.911V41.9905V44.0223H149.909H157.968C159.086 44.0223 160 43.108 160 41.9905V37.1482C160 36.9111 159.966 36.7418 159.898 36.5387Z" fill="white"/>
<path d="M72.9058 28.8857L69.3841 40.873L65.8624 28.8857H62.7809L67.2508 43.9884H69.3841H71.5175L76.0212 28.8857H72.9058Z" fill="white"/>
<path d="M5.28254 32.3395L0 29.1226V51.5395L17.8794 61.8337V55.6368L5.28254 48.4919V32.3395Z" fill="white"/>
<path d="M29.9006 42.7014V48.5257L34.2011 46.0876V48.5257L25.5323 53.5712V43.1077L39.8561 34.8114V29.1226L19.9111 40.6358V63.0189H19.945L39.8561 51.5395V36.9109L29.9006 42.7014Z" fill="white"/>
<path d="M38.6709 27.836L38.6371 27.8021L19.945 17L1.15134 27.836L1.08362 27.8698L1.15134 27.9037L19.8773 38.7058L38.6709 27.8698V27.836ZM21.7397 20.5217C23.0942 20.5217 24.1778 21.1651 24.1778 21.9778C24.1778 22.7905 23.0942 23.4339 21.7397 23.4339C20.3852 23.4339 19.3016 22.7905 19.3016 21.9778C19.3016 21.1651 20.3852 20.5217 21.7397 20.5217ZM10.6328 29.9016C9.27833 29.9016 8.19473 29.2582 8.19473 28.4455C8.19473 27.6328 9.27833 26.9894 10.6328 26.9894C11.9873 26.9894 13.0709 27.6328 13.0709 28.4455C13.0709 29.2582 11.9873 29.9016 10.6328 29.9016ZM13.7143 25.1608C13.7143 24.3481 14.7979 23.7048 16.1524 23.7048C17.5069 23.7048 18.5905 24.3481 18.5905 25.1608C18.5905 25.9735 17.5069 26.6169 16.1524 26.6169C14.8318 26.6169 13.7143 25.9397 13.7143 25.1608ZM18.455 34.4392C17.1005 34.4392 16.017 33.7958 16.017 32.9831C16.017 32.1704 17.1005 31.527 18.455 31.527C19.8095 31.527 20.8931 32.1704 20.8931 32.9831C20.8931 33.7958 19.8095 34.4392 18.455 34.4392ZM24.1101 31.2222C22.7556 31.2222 21.672 30.5788 21.672 29.7661C21.672 28.9534 22.7556 28.3101 24.1101 28.3101C25.4646 28.3101 26.5482 28.9534 26.5482 29.7661C26.5482 30.5788 25.4307 31.2222 24.1101 31.2222ZM29.6297 27.9037C28.2752 27.9037 27.1916 27.2603 27.1916 26.4476C27.1916 25.6349 28.2752 24.9915 29.6297 24.9915C30.9841 24.9915 32.0677 25.6349 32.0677 26.4476C32.0677 27.2603 30.9841 27.9037 29.6297 27.9037Z" fill="white"/>
<path d="M47.8137 46.5956V47.7469H50.0486V48.5257H47.8137V50.5913H46.9672V45.8506H50.2518V46.6294H47.8137V46.5956Z" fill="white"/>
<path d="M56.1439 50.5573C54.891 50.5573 54.2137 50.1171 54.1121 49.2367C54.1121 49.1351 54.1121 49.0335 54.1121 48.8642V48.8303V45.7827H54.9587V48.7965C54.9587 48.9658 54.9587 49.1012 54.9925 49.2028C55.0264 49.3044 55.0941 49.406 55.1957 49.5076C55.3989 49.7108 55.7375 49.8123 56.1777 49.8123C56.4825 49.8123 56.7534 49.7446 56.9566 49.643C57.1597 49.5414 57.2952 49.3721 57.3629 49.169C57.3968 49.0674 57.3968 48.9319 57.3968 48.7626V45.7827H58.2433C58.2433 46.46 58.2433 47.0356 58.2433 47.4758C58.2433 47.916 58.2433 48.1869 58.2433 48.3224C58.2433 48.4578 58.2433 48.5594 58.2433 48.6272C58.2433 48.6949 58.2433 48.7626 58.2433 48.7965C58.2433 48.8981 58.2433 48.9996 58.2433 49.0674C58.2433 49.1351 58.2095 49.2705 58.1756 49.3721C58.1418 49.5076 58.1079 49.6092 58.0402 49.7108C57.9724 49.8123 57.9047 49.9139 57.8031 50.0155C57.7015 50.1171 57.5661 50.2187 57.4306 50.2864C57.2952 50.3541 57.1259 50.4219 56.8888 50.4557C56.6857 50.5573 56.4148 50.5573 56.1439 50.5573Z" fill="white"/>
<path d="M61.6634 45.8506H65.9301V46.6294H64.2031V50.5913H63.3566V46.5956H61.6296V45.8506H61.6634Z" fill="white"/>
<path d="M71.4836 50.5573C70.2307 50.5573 69.5534 50.1171 69.4518 49.2367C69.4518 49.1351 69.4518 49.0335 69.4518 48.8642V48.8303V45.7827H70.2984V48.7965C70.2984 48.9658 70.2984 49.1012 70.3323 49.2028C70.3661 49.3044 70.4339 49.406 70.5354 49.5076C70.7386 49.7108 71.0772 49.8123 71.5174 49.8123C71.8222 49.8123 72.0931 49.7446 72.2963 49.643C72.4995 49.5414 72.6349 49.3721 72.7026 49.169C72.7365 49.0674 72.7365 48.9319 72.7365 48.7626V45.7827H73.5831C73.5831 46.46 73.5831 47.0356 73.5831 47.4758C73.5831 47.916 73.5831 48.1869 73.5831 48.3224C73.5831 48.4578 73.5831 48.5594 73.5831 48.6272C73.5831 48.6949 73.5831 48.7626 73.5831 48.7965C73.5831 48.8981 73.5831 48.9996 73.5831 49.0674C73.5831 49.1351 73.5492 49.2705 73.5153 49.3721C73.4815 49.5076 73.4476 49.6092 73.3799 49.7108C73.3122 49.8123 73.2444 49.9139 73.1428 50.0155C73.0413 50.1171 72.9058 50.2187 72.7704 50.2864C72.6349 50.3541 72.4656 50.4219 72.2286 50.4557C71.9915 50.5573 71.7545 50.5573 71.4836 50.5573Z" fill="white"/>
<path d="M81.5069 47.2051C81.5069 47.3405 81.473 47.5098 81.4391 47.6453C81.4053 47.7807 81.3375 47.9162 81.2698 48.0516C81.2021 48.1871 81.0666 48.2887 80.9312 48.3903C80.7958 48.4919 80.6264 48.5596 80.4571 48.6273L81.8793 50.5913H80.7958L79.4751 48.7628H78.6624V50.5913H77.8159V45.8506H79.8137C79.9153 45.8506 80.0169 45.8506 80.0846 45.8506C80.1524 45.8506 80.2539 45.8845 80.3894 45.8845C80.5248 45.8845 80.6264 45.9183 80.6942 45.986C80.7958 46.0199 80.8973 46.0876 80.9651 46.1553C81.0667 46.2231 81.1344 46.2908 81.2021 46.3924C81.2698 46.494 81.3376 46.5956 81.3714 46.731C81.5069 46.8665 81.5069 47.0019 81.5069 47.2051ZM78.6963 46.5956V47.9501H79.4751C79.6106 47.9501 79.7122 47.9501 79.8137 47.9501C79.9153 47.9501 80.0169 47.9162 80.1185 47.8823C80.2201 47.8485 80.3217 47.8146 80.3894 47.7807C80.4571 47.7469 80.5248 47.6792 80.5587 47.5776C80.5926 47.476 80.6264 47.3744 80.6264 47.2728C80.6264 46.8326 80.2878 46.5956 79.6106 46.5956H78.6963Z" fill="white"/>
<path d="M85.2994 50.5576V45.8169H88.618V46.5957H86.146V47.7471H88.4487V48.5259H86.146V49.8127H88.618V50.5915H85.2994V50.5576Z" fill="white"/>
<path d="M96.9481 45.749C97.4222 45.749 97.8624 45.8506 98.2349 46.0199C98.6074 46.2231 98.9121 46.494 99.1153 46.8326C99.3185 47.2051 99.4539 47.6115 99.4539 48.0855C99.4539 48.5596 99.3523 48.9998 99.1492 49.3723C98.946 49.7448 98.6412 50.0496 98.2687 50.2527C97.8963 50.4559 97.456 50.5575 96.9481 50.5575C96.6095 50.5575 96.3047 50.5236 96.0338 50.422C95.7291 50.3205 95.492 50.185 95.255 49.9818C95.0179 49.7787 94.8486 49.5416 94.7132 49.2369C94.5777 48.9321 94.51 48.5596 94.51 48.1871C94.51 47.713 94.6116 47.2728 94.8148 46.9003C95.0179 46.5279 95.3227 46.257 95.6952 46.0538C96.0677 45.8506 96.474 45.749 96.9481 45.749ZM97.3883 46.5617C97.219 46.5279 97.0836 46.494 96.9142 46.494C96.7449 46.494 96.6095 46.5279 96.4402 46.5617C96.3047 46.5956 96.1354 46.6633 96 46.731C95.8645 46.7988 95.7291 46.9003 95.6275 47.0358C95.5259 47.1712 95.4243 47.3067 95.3904 47.476C95.3227 47.6453 95.2888 47.8485 95.2888 48.0517C95.2888 48.5596 95.4582 48.966 95.7629 49.2707C96.0677 49.5755 96.474 49.7448 96.9481 49.7448C97.1513 49.7448 97.3206 49.7109 97.5238 49.6432C97.6931 49.5755 97.8963 49.4739 98.0317 49.3723C98.201 49.2369 98.3026 49.0675 98.4042 48.8644C98.5058 48.6612 98.5396 48.3903 98.5396 48.1194C98.5396 47.8824 98.5058 47.6792 98.4381 47.5099C98.3703 47.3067 98.2687 47.1712 98.1671 47.0358C98.0656 46.9003 97.9301 46.7988 97.7947 46.731C97.6931 46.6633 97.5576 46.5956 97.3883 46.5617Z" fill="white"/>
<path d="M103.145 46.5956V47.7469H105.38V48.5257H103.145V50.5913H102.298V45.8506H105.583V46.6294H103.145V46.5956Z" fill="white"/>
<path d="M111.407 45.8506H112.254V50.5913H111.407V45.8506Z" fill="white"/>
<path d="M120.923 49.8125C120.449 50.3205 119.805 50.5575 118.959 50.5575C118.586 50.5575 118.248 50.5236 117.977 50.422C117.672 50.3205 117.435 50.2189 117.232 50.0496C117.029 49.8802 116.859 49.7109 116.724 49.5078C116.588 49.3046 116.487 49.0675 116.419 48.8644C116.351 48.6273 116.317 48.3903 116.317 48.1533C116.317 47.9162 116.351 47.6453 116.419 47.4421C116.487 47.2051 116.588 47.0019 116.724 46.7988C116.859 46.5956 117.029 46.4263 117.266 46.257C117.503 46.0876 117.706 45.9861 118.011 45.8845C118.315 45.7829 118.62 45.749 118.959 45.749C119.602 45.749 120.144 45.8845 120.652 46.1554L120.753 46.2231L120.415 46.8665L120.279 46.7988C120.11 46.731 119.941 46.6633 119.67 46.5956C119.433 46.5279 119.196 46.494 118.959 46.494C118.722 46.494 118.485 46.5279 118.281 46.5956C118.078 46.6633 117.875 46.7649 117.706 46.9003C117.536 47.0358 117.401 47.2051 117.299 47.4083C117.198 47.6115 117.13 47.8485 117.13 48.0855C117.13 48.4242 117.198 48.6951 117.367 48.966C117.536 49.2369 117.774 49.44 118.078 49.5755C118.383 49.7109 118.722 49.7787 119.094 49.7787C119.501 49.7787 119.839 49.6771 120.11 49.5078V48.5935H118.62V47.8485H120.923V49.8125Z" fill="white"/>
<path d="M126.578 45.8506H127.492L129.354 50.5913H128.508L127.966 49.3384H126.036L125.494 50.5913H124.681L126.578 45.8506ZM127.661 48.5596L126.984 46.7987L126.307 48.5596H127.661Z" fill="white"/>
<path d="M132.944 45.8506H133.96L135.517 48.5596L137.109 45.8506H138.091V50.5913H137.244V47.0358L135.89 49.2368H135.111L133.757 47.0358V50.5913H132.91V45.8506H132.944Z" fill="white"/>
<path d="M141.884 45.8506H142.73V50.5913H141.884V45.8506Z" fill="white"/>
<path d="M146.861 45.8506H147.776L150.417 49.4739V45.8506H151.263V50.5913H150.315L147.674 46.9342V50.5913H146.828V45.8506H146.861Z" fill="white"/>
<path d="M159.526 49.8125C159.052 50.3205 158.408 50.5575 157.562 50.5575C157.189 50.5575 156.851 50.5236 156.58 50.422C156.275 50.3205 156.038 50.2189 155.835 50.0496C155.632 49.8802 155.462 49.7109 155.327 49.5078C155.191 49.3046 155.09 49.0675 155.022 48.8644C154.954 48.6273 154.921 48.3903 154.921 48.1533C154.921 47.9162 154.954 47.6453 155.022 47.4421C155.09 47.2051 155.191 47.0019 155.327 46.7988C155.462 46.5956 155.632 46.4263 155.869 46.257C156.106 46.0876 156.309 45.9861 156.614 45.8845C156.918 45.7829 157.223 45.749 157.562 45.749C158.205 45.749 158.747 45.8845 159.255 46.1554L159.357 46.2231L159.018 46.8665L158.883 46.7988C158.713 46.731 158.544 46.6633 158.273 46.5956C158.036 46.5279 157.799 46.494 157.562 46.494C157.325 46.494 157.088 46.5279 156.885 46.5956C156.681 46.6633 156.478 46.7649 156.309 46.9003C156.14 47.0358 156.004 47.2051 155.903 47.4083C155.801 47.6115 155.733 47.8485 155.733 48.0855C155.733 48.4242 155.801 48.6951 155.97 48.966C156.14 49.2369 156.377 49.44 156.681 49.5755C156.986 49.7109 157.325 49.7787 157.697 49.7787C158.104 49.7787 158.442 49.6771 158.713 49.5078V48.5935H157.223V47.8485H159.526V49.8125Z" fill="white"/>
</svg>
