<svg width="160" height="80" viewBox="0 0 160 80" fill="none" xmlns="http://www.w3.org/2000/svg">
<g clip-path="url(#clip0_6966_194)">
<path d="M128.983 5.82275L99.1796 23.0205V57.4378L128.983 74.6355L158.787 57.4378V23.0205L128.983 5.82275Z" fill="url(#paint0_linear_6966_194)"/>
<path d="M159.978 40.2618C159.978 45.2435 159.935 50.2252 160 55.207C160.022 57.2646 159.177 58.7591 157.466 59.7555C148.802 64.7589 140.116 69.7623 131.431 74.7656C129.503 75.8703 127.662 75.632 125.821 74.549C118.24 70.1521 110.659 65.7769 103.078 61.4016C102.082 60.8168 101.086 60.2537 100.089 59.6688C98.4432 58.6725 97.5768 57.1996 97.5768 55.2936C97.5552 45.2002 97.5552 35.0851 97.5768 24.9917C97.5768 23.129 98.4432 21.6778 100.089 20.7248C108.58 15.8297 117.092 10.9779 125.539 6.01784C127.814 4.6966 129.85 4.65328 132.102 5.99618C140.485 10.9129 148.932 15.7647 157.358 20.6165C159.112 21.6128 160 23.0423 160 25.1C159.957 30.1467 159.978 35.1934 159.978 40.2618ZM157.574 56.3333C157.856 56.1383 157.769 55.8351 157.791 55.5535C157.834 55.3153 157.942 55.077 157.942 54.8387C157.942 45.1352 157.921 35.4317 157.899 25.7065C157.899 23.9304 157.228 22.4359 155.625 21.5478C154.823 21.093 154.044 20.5948 153.242 20.1399C149.149 17.779 145.055 15.4398 140.961 13.0789C137.712 11.2162 134.463 9.33177 131.214 7.46904C129.655 6.58099 128.052 6.51602 126.471 7.40406C124.435 8.55202 122.42 9.74331 120.384 10.9129C114.363 14.3785 108.342 17.8657 102.299 21.3312C100.609 22.2843 99.7211 23.6272 99.7211 25.6198C99.7428 34.1104 99.6995 42.5794 99.6995 51.07C99.6995 52.6511 99.7211 54.2323 99.7428 55.8351C100.046 57.3729 100.977 58.3693 102.299 59.1057C104.66 60.4486 106.977 61.8132 109.316 63.1561C114.861 66.3617 120.428 69.5673 125.973 72.7946C127.705 73.8126 129.417 74.0076 131.193 73.0112C139.25 68.376 147.307 63.7409 155.343 59.084C156.448 58.4559 157.422 57.6978 157.574 56.3333Z" fill="#FCF7F8"/>
<path d="M157.574 56.3335C157.596 56.0519 157.574 55.7703 157.791 55.5537C157.769 55.8353 157.856 56.1385 157.574 56.3335Z" fill="#A3001C"/>
<path d="M137.279 57.0049C135.763 58.0662 133.9 58.6294 131.972 58.6294C127.142 58.6511 122.29 58.6077 117.46 58.6511C116.594 58.6511 116.464 58.3262 116.464 57.5897C116.507 55.4238 116.529 53.2578 116.464 51.0918C116.442 50.2904 116.702 50.1388 117.439 50.1605C121.554 50.1821 125.669 50.1388 129.785 50.2038C131.821 50.2254 134.073 48.0378 133.619 45.8285C133.25 44.0524 131.821 42.8178 129.828 42.7745C125.756 42.7095 121.662 42.6662 117.59 42.6662C116.789 42.6662 116.464 42.5146 116.464 41.6049C116.464 38.5076 116.421 35.3886 116.659 32.2912C116.832 29.8004 118.392 28.1759 120.558 27.0929C121.966 26.3781 123.503 26.1399 125.063 26.1399C128.247 26.1399 131.409 26.1182 134.593 26.1399C135.091 26.1399 135.568 26.1399 136.066 26.1399C136.586 26.1399 137.106 26.1399 137.647 26.1615C137.777 26.1615 137.907 26.1616 138.015 26.1399H138.795V22.0246H138.102C138.037 22.0246 137.95 22.0246 137.864 22.0246C133.055 22.0462 128.269 22.0246 123.46 22.0462C121.944 22.0679 120.449 22.3061 119.107 23.1075C118.782 23.3025 116.616 22.826 116.659 22.4577C116.702 22.0462 117.569 21.1798 117.959 20.9849C119.301 20.2485 120.514 20.0102 122.031 20.0102C124.998 19.9885 127.944 20.0102 130.911 20.0102C133.878 20.0102 136.824 20.0319 139.792 19.9885C140.571 19.9669 140.745 20.2268 140.723 20.9632C140.68 23.0859 140.658 25.2302 140.723 27.3528C140.745 28.2192 140.441 28.3275 139.683 28.3275C135.135 28.3059 130.586 28.3275 126.038 28.3275C125.02 28.3275 124.023 28.4358 123.049 28.6524C120.233 29.2805 118.977 30.6668 118.673 33.5042C118.435 35.6268 118.543 37.7495 118.5 39.8938C118.478 40.5652 118.782 40.6519 119.345 40.6302C122.875 40.6086 126.427 40.6086 129.958 40.6302C133.077 40.6519 135.655 43.0994 135.698 46.0668C135.763 49.489 133.489 52.0015 130.196 52.1748C127.489 52.3264 124.803 52.2615 122.096 52.2181C121.836 52.2181 121.576 52.2181 121.294 52.1965C120.709 52.1748 120.146 52.1748 119.583 52.1748C119.431 52.1748 119.301 52.1748 119.172 52.1965H118.392V55.3371C118.392 55.3804 118.392 55.4454 118.392 55.4887V56.68H119.085C120.666 56.68 120.709 56.7234 121.576 56.68C121.684 56.68 121.792 56.68 121.901 56.68C121.966 56.68 122.052 56.68 122.117 56.68C125.258 56.6584 128.399 56.5284 131.539 56.6151C135.503 56.7233 139.727 53.3878 140.766 48.7526C142.152 42.5363 137.561 37.0347 131.777 36.6448C129.243 36.4716 126.731 36.5149 124.197 36.5149C123.547 36.5149 123.222 36.4066 123.244 35.6485C123.265 34.9337 123.395 34.6088 124.197 34.6521C127.402 34.7604 130.608 34.4355 133.813 35.0204C138.449 35.8651 142.261 39.8505 142.911 44.5073C143.582 49.8139 141.611 53.9942 137.279 57.0049Z" fill="#FCF7F8"/>
<path d="M70.6105 31.1431C70.7188 27.8509 72.4949 26.1831 75.8305 26.1831C78.0831 26.1831 80.3357 26.2047 82.5883 26.1831H83.8013H86.2055H86.7687V22.0244H85.8589C85.8589 22.0244 85.8589 22.0244 85.8373 22.0244H85.8156C84.8626 22.0244 83.8879 22.0244 82.9349 22.0244C81.9819 22.0244 81.0288 22.0244 80.0758 22.0244C80.0542 22.0244 80.0542 22.0244 80.0325 22.0244C77.52 22.0244 74.9858 22.0244 72.4733 22.0461C69.9174 22.0677 67.8381 23.0208 66.6035 25.4033C65.8237 26.8978 65.4989 28.5223 65.4989 30.1901C65.4772 33.2225 65.4989 36.2548 65.4989 39.2872C65.4989 39.5038 65.4989 39.7204 65.4989 39.937C65.5855 43.4025 65.2389 46.8681 65.6938 50.3119C66.1053 53.5609 69.0077 56.5716 71.8668 56.6366C76.5669 56.7232 81.2454 56.6582 85.9456 56.6799C86.0106 56.6799 86.0539 56.6799 86.0972 56.6799H86.7037V52.348H86.1189C85.9889 52.3263 85.8373 52.3046 85.6423 52.3046C82.2201 52.348 78.7762 52.348 75.354 52.3263C72.6899 52.3046 70.9354 50.9401 70.6322 48.5142C70.329 46.045 70.5456 43.5325 70.5022 41.0633C70.5022 40.5434 70.8488 40.6084 71.1737 40.6084C71.8235 40.6084 72.4516 40.6084 73.1014 40.6084H74.2277C74.8775 40.6084 75.5273 40.6084 76.1554 40.5868C76.307 40.5868 76.4803 40.5868 76.6536 40.6084H79.361V36.5364H73.1014C72.5382 36.5364 71.9751 36.5364 71.4336 36.5581C70.7622 36.5581 70.4806 36.4281 70.5022 35.67C70.6105 34.1755 70.5456 32.6377 70.6105 31.1431Z" fill="#A4001C"/>
<path d="M87.7433 20.0098C82.545 20.0531 77.3467 20.0314 72.1484 20.0314C71.6935 20.0314 71.217 20.0314 70.7621 20.1397C66.2786 21.2444 63.6145 24.5583 63.6145 29.1935C63.6145 32.594 63.6145 35.9729 63.6145 39.3735C63.6145 42.8824 63.5928 46.3696 63.6145 49.8785C63.6578 54.9035 67.2966 58.7156 72.2783 58.8022C77.52 58.9105 82.7399 58.8239 87.9816 58.8456C88.5881 58.8456 88.6964 58.629 88.6964 58.0875C88.6747 55.7699 88.653 53.474 88.6964 51.1564C88.718 50.4633 88.5014 50.3333 87.8516 50.3333C84.4511 50.3766 81.0721 50.355 77.6716 50.355C76.4803 50.355 75.3107 50.1817 74.1844 49.7268C73.188 49.337 72.6249 48.6222 72.6249 47.4959C72.6249 46.1963 72.6465 44.8967 72.6032 43.5971C72.5816 42.9474 72.7332 42.7308 73.4263 42.7524C75.7655 42.7957 78.1264 42.7524 80.4657 42.7741C81.1155 42.7741 81.3321 42.6225 81.3321 41.9294C81.2887 39.8067 81.2887 37.6624 81.3321 35.5397C81.3537 34.8466 81.1804 34.5867 80.444 34.6084C78.5596 34.6517 76.6969 34.63 74.8125 34.63C72.6249 34.63 72.6249 34.63 72.6249 32.4424C72.6032 29.4967 73.253 28.7386 76.1121 28.3271C76.3937 28.2838 76.6969 28.3054 76.9785 28.3054C80.5956 28.3054 84.1911 28.2838 87.8083 28.3271C88.5014 28.3271 88.7397 28.1755 88.718 27.439C88.6747 25.2731 88.653 23.1071 88.718 20.9411C88.718 20.183 88.5014 20.0098 87.7433 20.0098ZM86.7686 26.1611H86.2055H83.8229H82.61C82.0685 26.1611 81.527 26.1611 81.0072 26.1611C80.8556 26.1611 80.6823 26.1611 80.5307 26.1611C80.1408 26.1611 79.7509 26.1611 79.361 26.1611C78.1914 26.1611 77.0434 26.1611 75.8738 26.1611C72.5382 26.1611 70.7621 27.8289 70.6538 31.1212C70.6105 32.6374 70.6755 34.1535 70.6105 35.6697C70.5889 36.4278 70.8704 36.5578 71.5419 36.5578C71.8451 36.5578 72.1484 36.5578 72.4516 36.5578C72.6899 36.5578 72.9281 36.5578 73.188 36.5578H79.4477V40.6298H76.7402C76.5669 40.6081 76.4153 40.6081 76.242 40.6081C75.5923 40.6298 74.9425 40.6298 74.3143 40.6298H73.188H73.1664C72.5382 40.6298 71.9101 40.6298 71.2603 40.6298C71.1953 40.6298 71.1304 40.6298 71.0654 40.6298C70.8271 40.6298 70.6322 40.6731 70.6322 41.0846C70.6755 43.5755 70.4589 46.0663 70.7621 48.5356C71.0437 50.9398 72.8198 52.326 75.4623 52.3477C76.2637 52.3477 77.0651 52.3477 77.8665 52.3693C80.4873 52.391 83.0865 52.3693 85.7073 52.3477H85.729C85.9023 52.3477 86.0755 52.3477 86.1838 52.391H86.7253V56.7229H86.1622C86.1188 56.7229 86.0539 56.7229 86.0106 56.7229H85.9889C83.9312 56.7012 81.8519 56.7229 79.7942 56.7229C78.343 56.7229 76.8918 56.7229 75.4406 56.7229C74.271 56.7229 73.1014 56.7012 71.9101 56.6796C69.0294 56.6146 66.1486 53.6039 65.7371 50.355C65.3039 46.9111 65.6505 43.4455 65.5422 39.98C65.5422 39.7634 65.5422 39.5468 65.5422 39.3302C65.5422 36.2978 65.5205 33.2655 65.5422 30.2331C65.5638 28.5653 65.8671 26.9409 66.6468 25.4463C67.8814 23.0638 69.9607 22.1108 72.5166 22.0891C72.6249 22.0891 72.7548 22.0891 72.8631 22.0891C74.0111 22.0891 75.1374 22.0674 76.2854 22.0674C76.3287 22.0674 76.3937 22.0674 76.437 22.0674C79.491 22.0674 82.5667 22.0674 85.6207 22.0674C85.6857 22.0674 85.7723 22.0674 85.8373 22.0674H85.8589C85.8589 22.0674 85.8589 22.0674 85.8806 22.0674H86.7903V26.1611H86.7686Z" fill="#FCF7F8"/>
<path d="M21.9412 52.326H20.5767C17.6526 52.3693 14.7286 52.3476 11.8262 52.3476C8.77216 52.326 7.01773 50.6798 6.93109 47.6692C6.86611 45.3949 6.86611 43.1206 6.84445 40.8464C6.84445 35.6697 6.82279 30.5147 6.84445 25.338V25.2731C6.84445 24.6233 6.84445 23.9518 6.86611 23.302C6.86611 23.1504 6.86611 23.0204 6.84445 22.8905V22.0024H5.9564H5.82644H1.84106V25.338C1.86272 28.9552 1.84106 32.5724 1.84106 36.1895C1.84106 40.3482 1.84106 44.4852 1.84106 48.6438C1.84106 49.3586 1.90604 50.0734 2.05766 50.7881C2.68579 53.8422 5.50155 56.6146 8.20901 56.6579C12.3243 56.7446 16.4397 56.6796 20.555 56.7012H21.0749C21.1182 56.7012 21.1615 56.7012 21.2048 56.7012C21.2048 56.7012 21.2048 56.7012 21.2265 56.7012H21.9412V52.326Z" fill="#A4001C"/>
<path d="M23.9123 51.2215C23.9339 50.4851 23.674 50.3335 23.0026 50.3335C19.8619 50.3768 16.7213 50.5067 13.5806 50.3118C9.05374 50.0519 8.7505 49.0772 8.77216 45.525C8.79382 37.3593 8.77216 29.2153 8.79382 21.0496C8.79382 20.1832 8.5339 19.9666 7.71083 19.9883C5.47989 20.0532 3.22728 20.0532 0.996337 19.9883C0.17327 19.9666 -0.0216675 20.2049 -0.0216675 21.0063C0.0216519 26.0313 -7.80789e-06 31.0347 -7.80789e-06 36.0597C-7.80789e-06 40.8682 -7.80789e-06 45.655 -7.80789e-06 50.4634C-7.80789e-06 51.1132 -7.80304e-06 51.7413 0.194929 52.3911C1.25625 56.1599 4.54852 58.7591 8.59888 58.8024C13.429 58.8674 18.2808 58.8024 23.1109 58.824C23.739 58.824 23.9123 58.6291 23.8906 58.0226C23.8906 55.77 23.869 53.4958 23.9123 51.2215ZM21.9412 56.7014H21.2265C21.2265 56.7014 21.2265 56.7014 21.2048 56.7014C21.1615 56.7014 21.1182 56.7014 21.0749 56.7014H20.5767C18.4107 56.7014 16.2447 56.7014 14.0788 56.7014C13.1907 56.7014 12.3243 56.7014 11.4363 56.7014C11.328 56.7014 11.198 56.7014 11.0897 56.7014C10.2017 56.7014 9.31365 56.6797 8.4256 56.6797C8.36063 56.6797 8.29565 56.6797 8.23067 56.6797C7.86245 56.6797 7.5159 56.6148 7.14768 56.5281C6.34628 56.3115 5.54487 55.8783 4.8301 55.2935C3.4872 54.1889 2.42588 52.5427 2.05766 50.81C1.90604 50.0952 1.84106 49.4021 1.84106 48.6657C1.86272 44.507 1.84106 40.37 1.84106 36.2114C1.84106 34.8468 1.84106 33.4606 1.84106 32.096C1.84106 31.5762 1.84106 31.078 1.84106 30.5582C1.84106 30.0383 1.84106 29.4969 1.84106 28.977C1.84106 28.4788 1.84106 27.9807 1.84106 27.4825C1.84106 26.941 1.84106 26.4212 1.84106 25.8797C1.84106 24.9916 1.8194 24.1253 1.8194 23.2372C1.8194 23.0639 1.8194 22.9123 1.84106 22.7824V22.0459H5.80478H5.8481C5.86976 22.0459 5.89142 22.0459 5.89142 22.0459H5.93474H6.82279V22.934C6.82279 22.9773 6.82279 23.0423 6.84445 23.0856C6.84445 23.1072 6.84445 23.1289 6.84445 23.1289C6.84445 23.1506 6.84445 23.1722 6.84445 23.2155C6.84445 23.2589 6.84445 23.3022 6.84445 23.3455C6.84445 23.4321 6.84445 23.5188 6.84445 23.5838C6.84445 24.6667 6.82279 25.7497 6.82279 26.8111C6.82279 27.3309 6.82279 27.8507 6.82279 28.3706C6.82279 29.5185 6.82279 30.6665 6.82279 31.7928C6.82279 31.9444 6.82279 32.0744 6.82279 32.226C6.82279 35.1067 6.82279 37.9658 6.84445 40.8465C6.84445 43.1208 6.84445 45.3951 6.93109 47.6693C7.03939 50.68 8.77216 52.3261 11.8262 52.3478C12.3243 52.3478 12.8009 52.3478 13.299 52.3478C15.53 52.3478 17.7609 52.3695 19.9919 52.3261C20.2951 52.3261 20.5983 52.3261 20.9232 52.3261C20.9882 52.3261 21.0532 52.3261 21.1182 52.3261H21.9629V56.7014H21.9412Z" fill="#FCF7F8"/>
<path d="M33.2259 22.0024H28.1792V56.7229H33.2259V22.0024Z" fill="#A4001C"/>
<path d="M35.197 20.9414C35.197 20.14 34.9154 20.01 34.2006 20.01C31.883 20.0533 29.5871 20.075 27.2695 20.01C26.4031 19.9884 26.2082 20.2483 26.2082 21.0713C26.2515 27.1577 26.2299 33.2657 26.2299 39.3521C26.2299 45.4818 26.2515 51.6115 26.2082 57.7412C26.2082 58.5209 26.2948 58.8891 27.2262 58.8458C29.5654 58.7592 31.9047 58.8025 34.2656 58.8458C34.9804 58.8675 35.1753 58.6509 35.1753 57.9361C35.1753 45.6118 35.1753 33.2657 35.197 20.9414ZM33.2259 56.7232H28.1792V22.0027H33.2259V56.7232Z" fill="#FCF7F8"/>
<path d="M59.4991 22.6959V21.9595H54.5824V22.6742C54.5607 22.8259 54.5391 22.9775 54.5607 23.1941C54.5824 23.7139 54.5824 24.2337 54.5824 24.7319V30.4501C54.5824 30.8399 54.5824 31.2298 54.5824 31.6413C54.5824 33.1359 54.5824 34.652 54.5824 36.1466C54.5824 38.854 54.5824 41.5615 54.5824 44.2689C54.5824 45.4819 54.5824 46.6732 54.5824 47.8861C54.5824 50.6369 52.8496 52.348 50.1205 52.348C48.496 52.348 46.8715 52.3263 45.2471 52.3696C44.7705 52.3913 44.5539 52.2614 44.489 51.9365V49.4673C44.489 49.4239 44.489 49.359 44.489 49.3156V27.0712C44.489 25.7499 44.489 24.4287 44.5106 23.0858C44.5106 22.9775 44.5106 22.8692 44.489 22.7825V21.9811H39.4206V22.6742C39.3989 22.7825 39.3989 22.9125 39.3989 23.0641C39.4206 24.6236 39.4206 26.1831 39.4206 27.7426V48.6875C39.4206 51.0484 39.4206 53.4093 39.3989 55.7486C39.3989 55.8569 39.3989 55.9652 39.4206 56.0735V56.7016H44.4673V56.6583C46.7849 56.6583 49.1025 56.6799 51.4201 56.6366C52.5247 56.6149 53.586 56.355 54.5607 55.9002C57.3115 54.6223 59.3475 51.8498 59.4125 48.7525C59.4558 46.8464 59.4775 44.9404 59.4775 43.0343V39.9587V24.1254C59.4775 23.7572 59.4775 23.389 59.4991 23.0208C59.4991 22.9125 59.4991 22.8042 59.4991 22.6959Z" fill="#A4001C"/>
<path d="M60.6037 20.0099C58.3728 20.0532 56.1202 20.0749 53.8893 20.0099C52.8496 19.9666 52.503 20.1832 52.503 21.3312C52.568 29.995 52.5464 38.6589 52.5247 47.3228C52.5247 49.1638 51.4417 50.2901 49.6223 50.3551C48.9292 50.3768 48.2361 50.2901 47.5646 50.3768C46.6116 50.4851 46.3733 50.1818 46.3733 49.2072C46.4167 39.8285 46.395 30.4499 46.4167 21.0496C46.4167 20.1832 46.1784 19.9666 45.3337 19.9883C43.0161 20.0532 40.7202 20.0532 38.4026 19.9883C37.6012 19.9666 37.3846 20.1832 37.3846 21.0063C37.4279 27.1143 37.4062 33.2007 37.4062 39.3087C37.4062 45.4817 37.4279 51.6547 37.3846 57.8277C37.3846 58.6291 37.5795 58.889 38.4026 58.8457C39.6588 58.7807 40.9368 58.8457 42.193 58.8241C45.8968 58.7374 49.6223 59.0623 53.3261 58.6291C57.5931 58.1309 61.3402 54.0156 61.3618 49.7487C61.4052 40.1101 61.3835 30.4715 61.4052 20.833C61.4485 20.2049 61.2969 19.9883 60.6037 20.0099ZM59.4991 41.7779V43.0775C59.4991 43.4673 59.4991 43.8572 59.4991 44.2471C59.4991 44.5936 59.4991 44.9185 59.4991 45.2651C59.4991 45.6333 59.4991 46.0232 59.4774 46.3914C59.4774 47.0412 59.4558 47.691 59.4558 48.3408C59.4558 48.4924 59.4558 48.644 59.4558 48.7956C59.4558 48.8173 59.4558 48.8389 59.4558 48.8389C59.4558 48.9906 59.4341 49.1422 59.4341 49.2721C59.4341 49.3371 59.4341 49.3804 59.4125 49.4454C59.3908 49.5754 59.3691 49.7053 59.3475 49.8569C59.3475 49.8786 59.3475 49.9219 59.3258 49.9436C59.3042 50.0952 59.2608 50.2468 59.2175 50.3984C59.1959 50.4418 59.1959 50.5067 59.1742 50.5501C59.1309 50.68 59.1092 50.7883 59.0659 50.9183C59.0443 50.9616 59.0443 51.0049 59.0226 51.0266C58.9793 51.1782 58.9143 51.3298 58.8493 51.4598C58.8277 51.5031 58.806 51.5681 58.7843 51.6114C58.741 51.7197 58.676 51.828 58.6327 51.9579C58.6111 52.0013 58.5894 52.0446 58.5677 52.0662C58.5028 52.1962 58.4161 52.3478 58.3295 52.4778C58.3078 52.5211 58.2862 52.5644 58.2428 52.6077C58.1779 52.716 58.1129 52.8243 58.0479 52.9326C58.0262 52.9759 58.0046 52.9976 57.9829 53.0409C57.8963 53.1709 57.788 53.3008 57.7014 53.4308C57.6797 53.4741 57.6364 53.4958 57.6147 53.5391C57.5281 53.6474 57.4414 53.734 57.3548 53.8423C57.3331 53.864 57.2898 53.9073 57.2682 53.929C57.1599 54.0589 57.0516 54.1672 56.9216 54.2755C56.8999 54.2972 56.8783 54.3188 56.8566 54.3405C56.7483 54.4488 56.64 54.5354 56.5317 54.6221C56.5101 54.6437 56.4884 54.6654 56.4451 54.6871C56.3151 54.7954 56.1852 54.9036 56.0336 55.0119C56.0119 55.0119 56.0119 55.0336 55.9902 55.0336C55.8603 55.1202 55.7303 55.2285 55.6004 55.3152C55.5787 55.3368 55.557 55.3368 55.5354 55.3585C55.2321 55.5534 54.9289 55.7267 54.604 55.8783C54.604 55.8783 54.5824 55.8783 54.5824 55.9C54.5824 55.9 54.5607 55.9 54.5607 55.9217C54.4524 55.965 54.3658 56.0083 54.2575 56.0516C54.2358 56.0516 54.2141 56.0733 54.1708 56.0733C54.0842 56.1166 53.9759 56.1383 53.8893 56.1816C53.8676 56.1816 53.8243 56.2032 53.8026 56.2032C53.716 56.2465 53.6077 56.2682 53.521 56.2899C53.4994 56.2899 53.4561 56.3115 53.4344 56.3115C53.3478 56.3332 53.2395 56.3548 53.1312 56.3982C53.1095 56.3982 53.0662 56.4198 53.0445 56.4198C52.9362 56.4415 52.8496 56.4631 52.7413 56.4848C52.7196 56.4848 52.6763 56.5065 52.6547 56.5065C52.5464 56.5281 52.4381 56.5498 52.3298 56.5498C52.3081 56.5498 52.2864 56.5498 52.2648 56.5498C52.1348 56.5714 52.0049 56.5714 51.8749 56.5931C51.7449 56.5931 51.5933 56.6148 51.4634 56.6148C51.4201 56.6148 51.3551 56.6148 51.3117 56.6148C50.5103 56.6364 49.7089 56.6364 48.9075 56.6364C48.7559 56.6364 48.5826 56.6364 48.431 56.6364C47.2181 56.6364 46.0051 56.6364 44.7922 56.6364C44.7056 56.6364 44.6189 56.6364 44.5106 56.6364V56.6797H39.4206V56.0516V56.03C39.4206 56.0083 39.4206 55.9866 39.4206 55.9433C39.4206 55.9217 39.4206 55.9 39.4206 55.8567V55.835C39.4206 55.7917 39.4206 55.77 39.4206 55.7267C39.4206 53.3658 39.4423 51.0049 39.4423 48.6657V27.7208C39.4423 26.1613 39.4423 24.6018 39.4206 23.0423C39.4206 23.0206 39.4206 22.9773 39.4206 22.9556C39.4206 22.934 39.4206 22.9123 39.4206 22.869C39.4206 22.8473 39.4206 22.8257 39.4206 22.804C39.4206 22.7607 39.4206 22.739 39.4206 22.6957V22.6741V21.981H44.4673V22.7824C44.4673 22.869 44.4673 22.9556 44.4673 23.0639C44.4673 24.3852 44.4673 25.7064 44.4456 27.0493V49.2288C44.4456 49.3155 44.4456 49.4021 44.4456 49.4887V51.8713C44.4456 51.893 44.4673 51.9363 44.4673 51.9579C44.4673 51.9796 44.4673 51.9796 44.489 52.0013C44.489 52.0229 44.5106 52.0446 44.5323 52.0662L44.5539 52.0879C44.5973 52.1529 44.6622 52.1962 44.7489 52.2395C44.7705 52.2395 44.7922 52.2612 44.8138 52.2612C44.8355 52.2612 44.8572 52.2828 44.8788 52.2828C44.9005 52.2828 44.9221 52.2828 44.9655 52.3045C44.9871 52.3045 45.0088 52.3045 45.0304 52.3045C45.0738 52.3045 45.1387 52.3045 45.1821 52.3045H45.2037C46.0051 52.2828 46.8282 52.2828 47.6296 52.2828C48.431 52.2828 49.2541 52.2828 50.0555 52.2828C52.0915 52.2612 53.586 51.3081 54.1925 49.6837C54.4091 49.1422 54.5174 48.514 54.5174 47.8209C54.5174 47.561 54.5174 47.3228 54.5174 47.0628C54.5174 44.8536 54.5174 42.6659 54.5174 40.4566C54.5174 39.6119 54.5174 38.7455 54.5174 37.9008C54.5174 35.7998 54.5174 33.6772 54.5174 31.5762C54.5174 31.3812 54.5174 31.1863 54.5174 31.013C54.5174 30.8181 54.5174 30.6015 54.5174 30.4066V24.905C54.5174 24.3635 54.4957 23.822 54.4957 23.2805C54.4957 23.2372 54.4957 23.2156 54.4957 23.1722C54.4957 23.1722 54.4957 23.1722 54.4957 23.1506C54.4957 23.0639 54.4957 22.9773 54.4957 22.9123C54.4957 22.8907 54.4957 22.8907 54.4957 22.869C54.4957 22.804 54.5174 22.7174 54.5174 22.6741V22.6524V21.9376H59.4341V22.6741C59.4341 22.7824 59.4558 22.8907 59.4558 22.999C59.4558 23.4971 59.4558 23.9736 59.4341 24.4718V39.9585V40.0451C59.4991 40.6299 59.4991 41.1931 59.4991 41.7779Z" fill="#FCF7F8"/>
<path d="M121.814 56.6582C121.879 56.6582 121.966 56.6582 122.031 56.6582V56.6799H121.511C121.619 56.6582 121.727 56.6582 121.814 56.6582Z" fill="#FCF7F8"/>
</g>
<defs>
<linearGradient id="paint0_linear_6966_194" x1="113.344" y1="10.4937" x2="141.085" y2="63.2391" gradientUnits="userSpaceOnUse">
<stop offset="0.0753769" stop-color="#F48060"/>
<stop offset="0.5151" stop-color="#E65844"/>
<stop offset="1" stop-color="#D52722"/>
</linearGradient>
<clipPath id="clip0_6966_194">
<rect width="160" height="80" fill="white"/>
</clipPath>
</defs>
</svg>
