<svg xmlns="http://www.w3.org/2000/svg" xmlns:xlink="http://www.w3.org/1999/xlink" viewBox="0 0 116 24.01"><defs><style>.a{fill:none;}.b{clip-path:url(#a);}.c{fill:#0038ff;}</style><clipPath id="a"><rect class="a" width="116" height="24"/></clipPath></defs><g class="b"><path class="c" d="M7.23,23.93A10.86,10.86,0,0,1,0,21.5l2.09-3.67a8.56,8.56,0,0,0,4.73,1.8A2,2,0,0,0,8,19.35a.77.77,0,0,0,.28-.26.78.78,0,0,0,.13-.36.61.61,0,0,0-.06-.35.63.63,0,0,0-.28-.28c-.14-.07-.21-.14-.35-.21a4.19,4.19,0,0,0-.49-.2,5.2,5.2,0,0,1-.55-.21,3.88,3.88,0,0,0-.63-.21c-.28-.07-.49-.13-.7-.2A11.11,11.11,0,0,1,2,15.19a3.93,3.93,0,0,1-.9-1.37,3.86,3.86,0,0,1-.28-1.61,4.7,4.7,0,0,1,1.94-4A8.56,8.56,0,0,1,7.86,6.73a11.41,11.41,0,0,1,6.74,2l-2,3.54a9.08,9.08,0,0,0-4.31-1.39,2.06,2.06,0,0,0-1.19.28.67.67,0,0,0-.3.25.56.56,0,0,0-.11.37.78.78,0,0,0,.48.7,10,10,0,0,0,1.74.69,26.53,26.53,0,0,1,3.83,1.66,4.31,4.31,0,0,1,1.4,1.6,4.44,4.44,0,0,1,.48,2.08,4.49,4.49,0,0,1-.54,2.3,4.54,4.54,0,0,1-1.62,1.72A9.23,9.23,0,0,1,7.23,23.93Z"/><path class="c" d="M17.25,23.58V0h6V23.58Z"/><path class="c" d="M34.29,24A8.38,8.38,0,0,1,28,21.64a8.68,8.68,0,0,1-2.3-6.31,8.14,8.14,0,0,1,8.7-8.67A8.56,8.56,0,0,1,40.75,9a8.63,8.63,0,0,1,2.3,6.38,8.68,8.68,0,0,1-2.3,6.31A9.1,9.1,0,0,1,34.29,24Zm-3-8.67c0,2.7,1,4,3,4s3-1.32,3-4-1-4-3-4S31.3,12.62,31.3,15.33Z"/><path class="c" d="M56.54,18l1.67,4.09a9.25,9.25,0,0,1-5.84,1.87,5.93,5.93,0,0,1-2.4-.37,6.09,6.09,0,0,1-2-1.29,6.32,6.32,0,0,1-1.67-4.72V10.89H44.16V7h2.09V1.94h5.91V7.08H57.1V11H52.16v5.9a1.8,1.8,0,0,0,2,2A4.91,4.91,0,0,0,56.54,18Z"/><path d="M71.56,18l1.67,4.09a9.23,9.23,0,0,1-5.84,1.87,6,6,0,0,1-2.4-.37,6.19,6.19,0,0,1-2-1.29,6.32,6.32,0,0,1-1.67-4.72V10.89H59.18V7h2.09V1.94h5.91V7.08h4.94V11H67.18v5.9a1.8,1.8,0,0,0,2,2A4.63,4.63,0,0,0,71.56,18Z"/><path d="M74.76,23.58V7.08h5.91v16.5Z"/><path d="M91.38,23.93a8.32,8.32,0,0,1-5.84-2.15,8.08,8.08,0,0,1-2.43-6.31A8.7,8.7,0,0,1,85.54,9a8.78,8.78,0,0,1,6.4-2.36,9,9,0,0,1,4.24,1,6.74,6.74,0,0,1,3,3.05L94.79,13a2.9,2.9,0,0,0-.92-1.13,3,3,0,0,0-2.8-.43,2.92,2.92,0,0,0-1.22.8,4.23,4.23,0,0,0-.9,3.05,4.3,4.3,0,0,0,.83,2.91,2.65,2.65,0,0,0,2.09.91,3.79,3.79,0,0,0,3.2-2.22l4.24,2.22C97.92,22.33,95.21,23.93,91.38,23.93Z"/><path d="M108.42,6.66a8.15,8.15,0,0,1,5.49,1.8A6.32,6.32,0,0,1,116,13.53v10h-5.08V21.85a6.22,6.22,0,0,1-2.24,1.58,6.37,6.37,0,0,1-2.69.5,5.86,5.86,0,0,1-4.11-1.39,4.6,4.6,0,0,1-1.19-1.7,4.77,4.77,0,0,1-.34-2,4.85,4.85,0,0,1,1.19-3.27,7,7,0,0,1,3-1.8,13.91,13.91,0,0,1,4-.48,20.51,20.51,0,0,1,2.22.13,1.81,1.81,0,0,0-.18-1,1.92,1.92,0,0,0-.65-.76,3.15,3.15,0,0,0-2-.55A8.47,8.47,0,0,0,103,12.83l-2.23-3.54a9.57,9.57,0,0,1,3.41-1.94A12.73,12.73,0,0,1,108.42,6.66Zm-.77,13a3,3,0,0,0,1.1-.21,2.77,2.77,0,0,0,.92-.62,3.34,3.34,0,0,0,1-2.22h-1.88c-1.81,0-2.71.55-2.71,1.59a1.37,1.37,0,0,0,.09.57,1.4,1.4,0,0,0,.32.47,1.36,1.36,0,0,0,.54.35A1.28,1.28,0,0,0,107.65,19.63Z"/></g></svg>