<svg width="132" height="40" viewBox="0 0 132 40" fill="none" xmlns="http://www.w3.org/2000/svg">
<g clip-path="url(#clip0)">
<path d="M15.2316 31.931C12.6055 32.0239 10.0352 31.1609 8 29.503L10.0863 25.8267C11.8248 27.0058 13.3548 27.63 14.8154 27.63C15.2288 27.6623 15.642 27.5652 15.9975 27.3522C16.1109 27.2876 16.2077 27.1975 16.2801 27.089C16.3526 26.9806 16.3987 26.8568 16.4148 26.7275C16.4257 26.6076 16.4016 26.4871 16.3454 26.3805C16.2907 26.2564 16.1913 26.1574 16.0669 26.1028C15.928 26.0335 15.8585 25.9642 15.719 25.8949C15.5621 25.814 15.3992 25.7455 15.2316 25.6899C15.042 25.6321 14.8562 25.5627 14.6753 25.482C14.4742 25.3916 14.2643 25.3219 14.0489 25.2741C13.7705 25.2049 13.5621 25.1356 13.3537 25.0663C12.1155 24.648 10.9621 24.013 9.94741 23.1909C9.55577 22.8012 9.24872 22.3353 9.04536 21.8221C8.84199 21.309 8.74666 20.7596 8.7653 20.2081C8.73407 19.4296 8.89537 18.6554 9.23499 17.9538C9.5746 17.2521 10.0821 16.6446 10.7127 16.1848C12.2263 15.1604 14.0305 14.6498 15.858 14.7286C18.2632 14.6716 20.6247 15.3758 22.6038 16.7403L20.587 20.278C19.2895 19.4615 17.8066 18.9843 16.2753 18.8905C15.8619 18.8582 15.4487 18.9552 15.0932 19.1682C14.9688 19.2185 14.8625 19.305 14.788 19.4164C14.7136 19.5279 14.6745 19.6591 14.6758 19.793C14.6758 20.0707 14.8148 20.2785 15.1627 20.4864C15.7184 20.7729 16.3006 21.0051 16.9011 21.1799C18.2198 21.6294 19.4992 22.1861 20.7265 22.8445C21.3219 23.2527 21.8056 23.8028 22.1337 24.4448C22.4619 25.0868 22.6241 25.8004 22.6056 26.5208C22.6355 27.3217 22.4517 28.1162 22.073 28.8231C21.6942 29.53 21.134 30.1239 20.4497 30.5441C18.8879 31.5149 17.0707 31.9978 15.2316 31.931Z" fill="#0038FF"/>
<path d="M25.248 31.5837V8H31.2269V31.5837H25.248Z" fill="#0038FF"/>
<path d="M42.2854 32.0001C39.6427 32.0001 37.4869 31.2373 35.9569 29.6414C34.4268 28.0455 33.6621 25.9657 33.6621 23.3299C33.6621 20.6941 34.4268 18.5439 36.0269 17.0178C37.5564 15.4219 39.641 14.6592 42.3554 14.6592C45.137 14.6592 47.2233 15.4219 48.7534 16.948C50.2834 18.474 51.0481 20.6243 51.0481 23.3293C51.0481 25.9652 50.2834 28.0461 48.7534 29.6414C46.9892 31.2404 44.6675 32.087 42.2854 32.0001ZM39.2954 23.3299C39.2954 26.035 40.2691 27.3532 42.2859 27.3532C44.3028 27.3532 45.2782 26.035 45.2782 23.3299C45.2782 20.6248 44.3045 19.3066 42.2876 19.3066C40.3385 19.3066 39.2954 20.6225 39.2954 23.3299Z" fill="#0038FF"/>
<path d="M64.5393 25.9657L66.2083 30.0582C64.5339 31.3321 62.4716 31.9938 60.3666 31.9324C59.5503 31.9727 58.7344 31.8456 57.9694 31.559C57.2043 31.2724 56.5062 30.8323 55.9183 30.2661C54.8057 29.1564 54.2493 27.6303 54.2493 25.5494V18.8903H52.1602V15.0061H54.2465V9.94238H60.1576V15.0754H65.095V18.9596H60.1576V24.8559C60.1576 26.1741 60.8529 26.8676 62.1745 26.8676C63.0298 26.7848 63.8468 26.4732 64.5393 25.9657Z" fill="#0038FF"/>
<path d="M79.5608 25.9657L81.2297 30.0582C79.5553 31.3321 77.4931 31.9938 75.3881 31.9324C74.5718 31.9727 73.7559 31.8456 72.9908 31.559C72.2257 31.2724 71.5277 30.8323 70.9398 30.2661C69.8272 29.1564 69.2708 27.6303 69.2708 25.5494V18.8903H67.1816V15.0061H69.268V9.94238H75.1791V15.0754H80.1165V18.9596H75.1791V24.8559C75.1791 26.1741 75.8744 26.8676 77.196 26.8676C78.054 26.7967 78.8742 26.4839 79.5608 25.9657Z" fill="black"/>
<path d="M82.7598 31.5841V15.0752H88.6709V31.5841H82.7598Z" fill="black"/>
<path d="M99.3814 31.931C97.2286 31.9951 95.1347 31.2244 93.5397 29.7808C91.9402 28.324 91.1055 26.2453 91.1055 23.4687C91.1055 20.7636 91.9402 18.6134 93.5397 17.018C95.2087 15.4227 97.2979 14.6594 99.9377 14.6594C101.416 14.6497 102.874 15.0072 104.18 15.6998C105.484 16.3644 106.534 17.4363 107.17 18.7519L102.789 21.0407C102.581 20.5937 102.266 20.2047 101.871 19.9084C101.476 19.6121 101.014 19.4176 100.525 19.3422C100.037 19.2667 99.5373 19.3126 99.0709 19.4759C98.6046 19.6391 98.1859 19.9147 97.8519 20.278C97.2256 20.9027 96.9477 21.9426 96.9477 23.3301C96.9477 24.6481 97.2259 25.6193 97.7825 26.2436C98.0411 26.5393 98.3626 26.7736 98.7235 26.9296C99.0844 27.0856 99.4757 27.1594 99.8688 27.1455C101.122 27.1455 102.233 26.3828 103.068 24.926L107.31 27.1455C105.918 30.3345 103.206 31.931 99.3814 31.931Z" fill="black"/>
<path d="M116.42 14.6593C118.411 14.5718 120.364 15.2132 121.914 16.4625C123.305 17.6415 124 19.376 124 21.5262V31.5839H118.923V29.8499C118.302 30.5344 117.538 31.0752 116.685 31.4346C115.832 31.794 114.911 31.9634 113.986 31.9309C112.491 32.0087 111.022 31.5122 109.883 30.5434C109.362 30.073 108.954 29.4919 108.689 28.843C108.425 28.1942 108.309 27.4942 108.353 26.795C108.328 25.5997 108.749 24.4379 109.535 23.535C110.361 22.6892 111.39 22.0684 112.525 21.7318C113.817 21.3828 115.152 21.2193 116.49 21.2462C117.233 21.2512 117.976 21.2974 118.715 21.3848C118.739 21.0483 118.675 20.7113 118.529 20.4071C118.382 20.103 118.159 19.8423 117.88 19.6509C117.291 19.2417 116.579 19.0459 115.863 19.096C114.099 19.1562 112.398 19.7622 110.995 20.8299L108.77 17.2922C109.758 16.416 110.919 15.7545 112.177 15.3499C113.542 14.8794 114.977 14.6458 116.42 14.6593ZM115.655 27.6304C116.03 27.6343 116.402 27.5625 116.749 27.4194C117.096 27.2764 117.41 27.0649 117.672 26.7978C118.267 26.2077 118.615 25.4144 118.646 24.5783H116.767C114.959 24.5783 114.055 25.1332 114.055 26.1737C114.049 26.3663 114.084 26.558 114.155 26.737C114.227 26.9159 114.335 27.0783 114.472 27.2141C114.623 27.3712 114.808 27.4906 115.014 27.563C115.22 27.6353 115.439 27.6584 115.655 27.6304Z" fill="black"/>
</g>
<defs>
<clipPath id="clip0">
<rect x="8" y="8" width="116" height="24" fill="white"/>
</clipPath>
</defs>
</svg>
