<svg width="160" height="80" viewBox="0 0 160 80" fill="none" xmlns="http://www.w3.org/2000/svg">
<path d="M78.5144 43.3023C78.5017 43.2634 78.4821 43.2273 78.4567 43.1956L73.7197 28.8689C73.6976 28.8018 73.6556 28.7435 73.5996 28.7023C73.5435 28.661 73.4762 28.6387 73.4072 28.6387H68.3671C68.298 28.6386 68.2307 28.6608 68.1746 28.7021C68.1184 28.7434 68.0763 28.8017 68.0542 28.8689L63.588 42.3771L59.1216 28.8689C59.0976 28.8013 59.054 28.743 58.9965 28.7018C58.9391 28.6606 58.8706 28.6385 58.8005 28.6387H53.7605C53.6914 28.6386 53.624 28.6608 53.5678 28.7021C53.5117 28.7434 53.4696 28.8017 53.4475 28.8689L46.1498 50.9432C46.1217 51.0283 46.1278 51.1214 46.1666 51.2019C46.2055 51.2824 46.2739 51.3439 46.3569 51.3727C46.391 51.3844 46.4268 51.3904 46.4628 51.3905H51.5028C51.5718 51.3905 51.639 51.3683 51.6951 51.3271C51.7512 51.2859 51.7933 51.2278 51.8156 51.1608L56.2852 37.6419L60.7544 51.1603C60.777 51.2274 60.8194 51.2855 60.8757 51.3267C60.932 51.3679 60.9994 51.39 61.0686 51.39H66.1088C66.1778 51.39 66.2451 51.3678 66.3012 51.3266C66.3572 51.2854 66.3993 51.2273 66.4216 51.1603L70.8873 37.654L75.353 51.1603C75.3774 51.2279 75.4214 51.2861 75.479 51.3272C75.5367 51.3683 75.6053 51.3902 75.6755 51.39H80.7306C80.7817 51.3876 80.8316 51.3731 80.8763 51.3475C80.921 51.322 80.9593 51.2862 80.9882 51.2429C81.0171 51.1996 81.0358 51.15 81.0428 51.0981C81.0499 51.0461 81.0451 50.9932 81.0288 50.9435L78.5144 43.3023Z" fill="white"/>
<path d="M95.8548 49.0074C95.8519 48.9847 95.8468 48.9625 95.8397 48.9408L89.188 28.8694C89.1657 28.8024 89.1236 28.7442 89.0675 28.703C89.0113 28.6618 88.944 28.6397 88.875 28.6396H83.8345C83.7655 28.6397 83.6982 28.6619 83.6421 28.7032C83.586 28.7445 83.544 28.8027 83.522 28.8698L80.1178 39.1612C80.0946 39.2314 80.0946 39.3075 80.1178 39.3778L82.6316 47.0192C82.6537 47.0864 82.6959 47.1447 82.752 47.186C82.8081 47.2274 82.8755 47.2496 82.9446 47.2496C83.0137 47.2496 83.0809 47.2274 83.1371 47.1862C83.1932 47.145 83.2354 47.0869 83.2577 47.0199L86.3586 37.6417L90.8298 51.1601C90.852 51.2271 90.8942 51.2853 90.9504 51.3265C91.0065 51.3677 91.0738 51.3898 91.1428 51.3898H96.1829C96.2353 51.3897 96.287 51.3768 96.3336 51.3522C96.3803 51.3276 96.4205 51.292 96.4511 51.2484C96.4816 51.2047 96.5016 51.1541 96.5093 51.101C96.5171 51.0478 96.5124 50.9935 96.4956 50.9425L95.8548 49.0074Z" fill="white"/>
<path d="M121.235 28.8688C121.213 28.8018 121.171 28.7435 121.115 28.7022C121.059 28.6609 120.991 28.6387 120.922 28.6387H115.932C115.863 28.6387 115.795 28.6607 115.739 28.7019C115.683 28.743 115.641 28.801 115.619 28.8679L108.262 50.9423C108.246 50.9932 108.241 51.0476 108.248 51.1009C108.256 51.1542 108.276 51.2048 108.306 51.2487C108.337 51.2925 108.377 51.3282 108.424 51.3529C108.471 51.3775 108.523 51.3904 108.575 51.3905H113.615C113.684 51.3905 113.752 51.3684 113.808 51.3272C113.864 51.286 113.906 51.2278 113.928 51.1608L118.398 37.6419L122.867 51.1603C122.89 51.2274 122.932 51.2856 122.989 51.3267C123.045 51.3679 123.112 51.39 123.182 51.39H128.22C128.308 51.3899 128.392 51.3543 128.454 51.2908C128.516 51.2272 128.551 51.1411 128.551 51.0513C128.551 51.0144 128.545 50.9777 128.533 50.9427L121.235 28.8688Z" fill="white"/>
<path d="M107.531 43.6878L107.451 43.6403C107.386 43.6002 107.309 43.5847 107.233 43.5965C107.157 43.6082 107.088 43.6465 107.037 43.7047C106.313 44.5282 105.365 45.1102 104.316 45.3756C103.266 45.641 102.163 45.5775 101.149 45.1934C100.134 44.8093 99.2558 44.1222 98.6264 43.221C97.997 42.3197 97.6458 41.2456 97.6179 40.1375C97.59 39.0294 97.8868 37.9382 98.4701 37.0048C99.0533 36.0715 99.8962 35.3389 100.89 34.9017C101.883 34.4646 102.982 34.3429 104.043 34.5525C105.105 34.762 106.081 35.2932 106.845 36.0773C106.907 36.1408 106.991 36.1764 107.079 36.1764C107.166 36.1764 107.25 36.1408 107.312 36.0773L107.381 36.0061C107.417 35.9693 107.444 35.9246 107.46 35.8754L109.244 30.4981C109.268 30.4261 109.268 30.3479 109.243 30.2761C109.218 30.2044 109.171 30.1433 109.108 30.1027C106.619 28.4923 103.62 27.9303 100.737 28.5338C97.8539 29.1374 95.3097 30.86 93.6361 33.3416C93.6066 33.3852 93.5876 33.4351 93.5805 33.4876C93.5733 33.54 93.5782 33.5934 93.5948 33.6435L99.3246 50.9304C99.3411 50.9806 99.369 51.0261 99.4058 51.0632C99.4426 51.1003 99.4874 51.1281 99.5365 51.1442C100.662 51.5145 101.837 51.7029 103.019 51.7027C103.68 51.7022 104.34 51.6435 104.991 51.5271C105.049 51.5167 105.104 51.4906 105.148 51.4513C105.193 51.4121 105.227 51.3612 105.246 51.3041L107.674 44.0895C107.698 44.0159 107.698 43.9358 107.672 43.8627C107.646 43.7895 107.596 43.7278 107.531 43.6878Z" fill="white"/>
<path d="M158.939 28.7798C158.909 28.7358 158.868 28.7 158.822 28.6752C158.775 28.6504 158.723 28.6374 158.671 28.6372H153.63C153.561 28.6371 153.494 28.6593 153.438 28.7006C153.381 28.7419 153.339 28.8002 153.318 28.8674L148.848 42.3863L144.376 28.8674C144.354 28.8002 144.312 28.7418 144.255 28.7006C144.199 28.6593 144.131 28.6371 144.062 28.6372H139.022C138.953 28.6372 138.886 28.6594 138.83 28.7007C138.774 28.742 138.732 28.8003 138.709 28.8674L134.244 42.3735L129.778 28.8674C129.756 28.8002 129.713 28.7419 129.657 28.7006C129.601 28.6593 129.533 28.6371 129.464 28.6372H124.425C124.373 28.6374 124.321 28.6505 124.274 28.6752C124.228 28.6999 124.188 28.7356 124.157 28.7794C124.126 28.8232 124.106 28.8738 124.099 28.927C124.091 28.9803 124.096 29.0347 124.112 29.0857L131.41 51.1603C131.432 51.2273 131.474 51.2855 131.53 51.3267C131.587 51.3679 131.654 51.39 131.723 51.39H136.765C136.834 51.39 136.901 51.3678 136.957 51.3266C137.013 51.2854 137.055 51.2272 137.077 51.1603L141.543 37.6516L146.009 51.1601C146.033 51.2276 146.077 51.2858 146.135 51.3269C146.192 51.368 146.26 51.39 146.331 51.3897H151.371C151.44 51.3897 151.507 51.3675 151.563 51.3263C151.619 51.2852 151.661 51.227 151.684 51.1601L158.981 29.0855C158.998 29.0347 159.003 28.9805 158.996 28.9274C158.989 28.8743 158.969 28.8237 158.939 28.7798Z" fill="white"/>
<path d="M71.8761 56.6771V56.6617C71.8733 56.2949 71.941 55.9312 72.0753 55.5912C72.2096 55.2513 72.4078 54.9418 72.6588 54.6804C72.9098 54.419 73.2085 54.2109 73.5379 54.0679C73.8674 53.9249 74.221 53.8498 74.5788 53.8469C74.6052 53.8469 74.6318 53.8469 74.6585 53.8469C75.422 53.8056 76.1709 54.0737 76.7435 54.5932L76.0082 55.5028C75.6348 55.1384 75.1361 54.9401 74.6207 54.951C73.7716 54.951 73.0968 55.7206 73.0968 56.6455V56.661C73.0968 57.656 73.764 58.3867 74.7041 58.3867C75.0949 58.3987 75.4796 58.2846 75.8036 58.0603V57.2831H74.6284V56.2489H76.9333V58.6121C76.304 59.1711 75.4987 59.4776 74.6661 59.475C73.0134 59.4757 71.8761 58.2867 71.8761 56.6771Z" fill="white"/>
<path d="M85.9395 53.9023H87.0161L89.2907 59.3827H88.0698L87.5847 58.1622H85.3405L84.8553 59.3827H83.6647L85.9395 53.9023ZM87.1674 57.105L86.4625 55.3401L85.7575 57.105H87.1674Z" fill="white"/>
<path d="M96.1741 53.9409H97.4325L98.8277 56.2421L100.223 53.9409H101.481V59.3823H100.321V55.8302L98.8274 58.1545H98.7971L97.3186 55.8538V59.3823H96.1739L96.1741 53.9409Z" fill="white"/>
<path d="M108.873 53.9409H110.04V59.3823H108.873V53.9409Z" fill="white"/>
<path d="M117.432 53.9409H118.509L120.996 57.2916V53.9409H122.148V59.3823H121.155L118.585 55.9231V59.3823H117.432V53.9409Z" fill="white"/>
<path d="M129.251 56.6772V56.6617C129.248 56.2949 129.316 55.9312 129.45 55.5912C129.584 55.2513 129.782 54.9418 130.033 54.6804C130.284 54.419 130.583 54.2109 130.913 54.0679C131.242 53.9249 131.596 53.8498 131.953 53.8469C131.98 53.8469 132.006 53.8469 132.033 53.8469C132.797 53.8056 133.546 54.0736 134.118 54.5933L133.382 55.5028C133.009 55.1385 132.51 54.9401 131.995 54.951C131.146 54.951 130.471 55.7206 130.471 56.6455V56.661C130.471 57.656 131.138 58.3867 132.078 58.3867C132.469 58.3987 132.854 58.2845 133.178 58.0603V57.2831H132.003V56.2489H134.308V58.6121C133.678 59.171 132.873 59.4775 132.041 59.475C130.388 59.4757 129.251 58.2867 129.251 56.6772Z" fill="white"/>
<path d="M28.2493 31.6206C28.2494 31.3188 28.1914 31.0198 28.0788 30.7409C27.9662 30.4621 27.801 30.2086 27.5929 29.9952C27.3847 29.7817 27.1376 29.6124 26.8656 29.4968C26.5936 29.3813 26.3021 29.3218 26.0077 29.3218C25.7133 29.3217 25.4217 29.3811 25.1496 29.4966C24.8776 29.6121 24.6304 29.7814 24.4222 29.9949C24.2139 30.2083 24.0487 30.4617 23.936 30.7406C23.8233 31.0195 23.7653 31.3185 23.7653 31.6204C23.7653 32.2301 24.0016 32.8149 24.4221 33.2461C24.8426 33.6772 25.413 33.9194 26.0077 33.9194C26.6024 33.9194 27.1726 33.6773 27.5931 33.2461C28.0136 32.815 28.2498 32.2303 28.2498 31.6206H28.2493Z" fill="white"/>
<path d="M38.2759 30.4381C38.2746 30.4357 38.2735 30.4331 38.2726 30.4305C38.263 30.2916 38.2401 30.1539 38.2043 30.0196C37.7424 27.7103 32.1002 20 19.0304 20C16.8535 19.9986 14.6824 20.2284 12.5517 20.6858C9.29261 22.6129 6.53865 25.3226 4.5265 28.5819C2.51436 31.8413 1.30419 35.5528 1 39.3976C7.06982 23.3483 26.625 19.4166 37.1036 29.6543C33.9788 27.8015 25.0217 23.5521 18.701 31.2251C9.69468 42.1594 19.9316 55.365 25.0105 58.657C15.2603 58.4133 8.84768 48.4419 8.84768 48.4419L8.80803 48.4459C9.22203 49.5039 14.4822 62.0767 29.7496 59.7021C29.7496 59.7021 24.8613 57.6722 21.8876 52.6892C23.4957 53.5734 25.2644 54.1083 27.0831 54.2605C28.9019 54.4127 30.7317 54.1789 32.4584 53.5738C32.4584 53.6149 32.4604 53.6557 32.4604 53.6971C32.4629 55.6959 32.0134 57.668 31.1471 59.4586C33.7515 58.3277 36.0648 56.593 37.9051 54.3908C39.7454 52.1887 41.0628 49.579 41.7536 46.7669C42.4444 43.9547 42.4898 41.0167 41.8864 38.1835C41.283 35.3502 40.0471 32.6991 38.2759 30.4381ZM20.862 50.8258C19.9364 48.6599 24.8431 41.7392 26.3339 42.5782C32.1139 45.8302 32.412 52.5999 32.412 52.5999C27.2357 53.9735 22.8733 52.3935 20.862 50.8258ZM32.8812 57.7679C32.8812 57.7679 35.9869 47.4352 26.6925 42.1886C25.8249 41.5594 27.6254 38.8587 30.0851 36.2598C26.8945 38.5112 23.6569 39.6976 20.3924 39.3392C18.1915 39.0971 16.8346 39.8171 16.3701 41.2767C16.2747 40.3731 16.2972 39.4605 16.4371 38.5629C17.2631 38.0563 18.135 37.6327 19.0406 37.2981C20.8988 36.6601 20.9459 38.6584 24.5824 38.2532C27.7447 37.9009 29.4357 36.1612 29.4357 36.1612C24.3125 39.0382 22.1892 37.4676 20.9146 36.6346C19.9031 35.9726 18.5117 36.366 16.69 37.3425C16.8181 36.854 16.9749 36.374 17.1596 35.9049C17.9893 35.5412 18.8502 35.2577 19.7312 35.0579C21.6541 34.6657 21.4532 36.6541 25.1106 36.7232C28.2913 36.7833 30.1829 35.2767 30.1829 35.2767C24.7462 37.467 22.8333 35.633 21.6717 34.6424C20.8011 33.8997 19.4787 34.0446 17.7101 34.6807C17.88 34.3493 18.0623 34.0246 18.2571 33.7068C19.0994 33.44 19.9638 33.2532 20.8395 33.1486C22.7907 32.9569 22.3961 34.9149 26.029 35.3617C29.1878 35.7503 31.2185 34.4467 31.2185 34.4467C25.5941 36.0641 23.8714 34.0429 22.8131 32.9358C22.0505 32.1386 20.79 32.117 19.0746 32.516C20.814 30.23 23.2144 28.4835 25.8036 27.8661C31.5287 26.5008 35.7052 29.2426 35.7052 29.2426C35.7052 29.2426 31.7798 27.5889 27.9579 28.698C27.9579 28.698 33.36 29.774 31.7805 31.9125C30.201 34.051 26.9605 34.4762 26.9605 34.4762C31.0931 34.3166 33.0116 32.1009 33.0116 32.1009C33.0116 32.1009 32.9996 32.6802 32.2823 33.7698C33.3017 32.9586 34.9117 31.851 36.16 31.3647C36.63 31.1115 37.1469 30.9628 37.6768 30.9284C37.6768 30.9284 42.6346 37.5346 41.1074 45.8692C39.5802 54.2037 32.8812 57.7679 32.8812 57.7679Z" fill="white"/>
</svg>
