<svg width="160" height="80" viewBox="0 0 160 80" fill="none" xmlns="http://www.w3.org/2000/svg">
<path d="M56.9458 20.6841H61.8608L67.244 30.3751H67.4774L72.8606 20.6841H77.775V39.7108H74.4987V24.8201H74.3817L68.8821 34.392H65.8393L60.3397 24.8201H60.1056V39.7102H56.8287V20.6841H56.9458Z" fill="white"/>
<path d="M77.892 39.8284H74.3817V24.9376L68.8821 34.5102H65.7223L60.3391 25.056V39.8284H56.8287V20.5654H61.9778V20.6832L67.3604 30.2558L72.7436 20.5654H77.892V39.8284ZM74.7328 39.5915H77.775V20.8016H72.9777L67.5945 30.492H67.2433V30.3742L61.8601 20.8016H57.0635V39.5922H60.1056V24.7008H60.4574L65.84 34.2734H68.7657L74.2653 24.7008H74.6164V39.5922H74.7335L74.7328 39.5915Z" fill="white"/>
<path d="M84.4471 39.8284C83.1601 39.8284 82.2237 39.4739 81.5214 38.8831C80.8197 38.1739 80.5856 37.2286 80.5856 36.0464C80.5856 34.6287 81.0538 33.6833 81.8725 32.9742C82.6919 32.265 83.9789 31.7926 85.8511 31.6736L89.1279 31.438V30.965C89.1279 30.4927 89.1279 30.0197 89.0109 29.6651C88.8938 29.3105 88.7768 29.0743 88.5427 28.8382C88.3086 28.6013 87.9574 28.4836 87.6062 28.3652C87.2557 28.2467 86.6704 28.2467 86.0852 28.2467C85.4999 28.2467 84.7982 28.2467 84.0959 28.3652C83.3936 28.4836 82.5748 28.6013 81.8725 28.7197L81.6384 26.1199C83.3365 25.8024 85.0603 25.6443 86.7875 25.6475C88.8938 25.6475 90.4149 26.0014 91.3513 26.829C92.2871 27.5382 92.8724 28.7197 92.8724 30.3743V39.8278H89.9467L89.5955 38.0555H89.362C87.7233 39.2377 86.2022 39.8284 84.4471 39.8284ZM85.9681 37.3463C86.4363 37.3463 87.0216 37.2286 87.6062 36.9924C88.1915 36.7556 88.6597 36.5194 89.1279 36.1648V33.3287L86.9045 33.5649C85.8511 33.6833 85.1494 33.8011 84.7982 34.1557C84.4471 34.5103 84.213 34.9833 84.213 35.6924C84.213 36.7556 84.7982 37.3463 85.9681 37.3463Z" fill="white"/>
<path d="M84.4457 39.9455C83.1588 39.9455 82.1053 39.5915 81.5206 38.8824C80.8183 38.1732 80.4672 37.2278 80.4672 35.9279C80.4672 34.5095 80.9354 33.4458 81.7548 32.7373C82.5735 32.0281 83.9781 31.5551 85.7333 31.4367L88.8925 31.2005V30.8459C88.8925 30.3735 88.8925 29.9012 88.7754 29.546C88.7754 29.3098 88.6584 29.0736 88.4243 28.8374C88.1908 28.6006 87.9567 28.4828 87.4885 28.4828C86.7861 28.3644 85.4992 28.3644 83.9781 28.4828C83.2758 28.6006 82.4564 28.719 81.7548 28.8374H81.6377L81.4036 26.0007H81.5206C83.2186 25.6833 84.9421 25.5251 86.6691 25.5284C88.7754 25.5284 90.2971 25.883 91.35 26.7099C92.4034 27.5375 92.871 28.719 92.871 30.3735V39.9455H89.5948L89.2436 38.1725H89.1266C87.7226 39.3547 86.2009 39.9455 84.4457 39.9455ZM85.9674 28.1283C86.552 28.1283 87.1373 28.1283 87.4885 28.246C87.9567 28.3644 88.1908 28.4828 88.5413 28.719C88.7754 28.9552 89.0095 29.1914 89.0095 29.546C89.1266 29.9005 89.1266 30.3735 89.1266 30.8465V31.4373L85.7333 31.6735C83.9781 31.7913 82.6905 32.2643 81.8718 32.9734C81.0524 33.6826 80.7013 34.628 80.7013 36.0457C80.7013 37.2278 81.0524 38.1732 81.6377 38.764C82.2223 39.3547 83.1588 39.7093 84.4457 39.7093C86.0845 39.7093 87.6055 39.1185 89.0095 37.9364H89.3607L89.7119 39.7093H92.4035V30.2558C92.4035 28.719 91.9352 27.5375 90.9988 26.8283C90.063 26.1191 88.5413 25.7645 86.552 25.7645C85.031 25.7645 83.3929 25.883 81.5206 26.2369L81.7548 28.6006L83.8611 28.246C84.6798 28.1283 85.3821 28.1283 85.9674 28.1283ZM85.9674 37.464C84.6798 37.464 84.0945 36.8733 84.0945 35.5733C84.0945 34.8641 84.3287 34.2727 84.7969 34.0372C85.2651 33.6826 85.9674 33.5648 87.0203 33.4458L89.3607 33.2096V36.1641C88.8925 36.5187 88.4243 36.7548 87.8396 36.9917C87.0203 37.3456 86.435 37.464 85.9674 37.464ZM89.0095 33.4458L87.0203 33.6826C86.0845 33.8004 85.3821 33.9188 84.9139 34.2734C84.5628 34.5095 84.3287 34.9825 84.3287 35.6917C84.3287 36.7548 84.9139 37.3456 85.9674 37.3456C86.435 37.3456 87.0203 37.2278 87.4885 36.9917C88.0737 36.7548 88.5413 36.5187 88.8925 36.1641V33.4464H89.0095V33.4458Z" fill="white"/>
<path d="M95.9132 25.7661H98.8383L99.0724 27.4206H99.1894C100.477 26.7115 101.647 26.2391 102.583 26.0023C103.405 25.6846 104.278 25.5244 105.157 25.5299C106.328 25.5299 107.264 25.8845 107.966 26.4746C108.668 27.1845 109.019 28.1298 109.019 29.3113V39.7109H105.508V30.6113C105.508 29.7843 105.391 29.3113 105.04 28.9567C104.807 28.6022 104.339 28.4844 103.636 28.4844C103.051 28.4844 102.466 28.6022 101.764 28.8383C101.062 29.0752 100.36 29.3113 99.5406 29.6659V39.7109H96.0303V25.7661H95.9132Z" fill="white"/>
<path d="M109.019 39.8287H105.274V30.6107C105.274 29.9016 105.157 29.3108 104.924 28.9562C104.69 28.6016 104.221 28.4839 103.636 28.4839C103.051 28.4839 102.466 28.6016 101.764 28.8384C101.062 29.0746 100.36 29.3108 99.6576 29.6654V39.8287H95.9132V25.6472H98.9553L99.1894 27.3017C100.477 26.7109 101.647 26.2386 102.466 25.884C103.402 25.6472 104.221 25.4116 105.04 25.4116C106.211 25.4116 107.264 25.7656 107.849 26.4747C108.551 27.1839 108.902 28.1293 108.902 29.4292V39.8287H109.019ZM105.508 39.5926H108.785V29.4292C108.785 28.247 108.434 27.3017 107.849 26.7116C107.264 26.1202 106.328 25.7656 105.157 25.7656C104.278 25.7603 103.405 25.9205 102.583 26.2379C101.647 26.4747 100.594 26.9471 99.3065 27.6563H98.9553L98.7219 26.0017H96.0303V39.7103H99.3065V29.4286H99.4235C100.243 29.0746 100.945 28.8384 101.647 28.6016C102.349 28.3654 103.051 28.247 103.519 28.247C104.221 28.247 104.69 28.4839 105.04 28.8384C105.391 29.1924 105.508 29.7831 105.508 30.6114V39.5926Z" fill="white"/>
<path d="M118.381 39.9469C113.817 39.9469 111.477 37.5838 111.477 32.7387C111.477 27.8935 113.817 25.5298 118.381 25.5298C119.083 25.5298 119.668 25.5298 120.37 25.6475C121.072 25.766 121.657 25.766 122.243 26.0021V28.8382C121.657 28.7204 121.072 28.602 120.487 28.602C119.902 28.4843 119.317 28.4843 118.732 28.4843C117.445 28.4843 116.509 28.8382 115.924 29.5474C115.338 30.2566 115.104 31.3203 115.104 32.7387C115.104 34.2748 115.338 35.3386 115.924 36.0471C116.509 36.7563 117.445 36.9931 118.732 36.9931C119.434 36.9931 120.019 36.9931 120.604 36.8747C121.189 36.8747 121.657 36.7563 122.243 36.6385V39.4745C121.774 39.5923 121.189 39.7107 120.487 39.8291C119.785 39.9469 119.083 39.9469 118.381 39.9469Z" fill="white"/>
<path d="M118.38 40.0646C113.699 40.0646 111.359 37.5831 111.359 32.7379C111.359 27.8921 113.699 25.4106 118.38 25.4106C118.965 25.4106 119.667 25.4106 120.369 25.5291C121.071 25.6468 121.657 25.6468 122.241 25.8836H122.358V28.9559H122.241C121.657 28.8381 121.071 28.7197 120.486 28.7197C119.901 28.6013 119.316 28.6013 118.731 28.6013C117.444 28.6013 116.508 28.9559 116.039 29.5466C115.455 30.1381 115.221 31.2012 115.221 32.7379C115.221 34.1556 115.455 35.3378 116.039 35.9279C116.625 36.5194 117.444 36.8739 118.731 36.8739C119.433 36.8739 120.018 36.8739 120.603 36.7555C121.188 36.7555 121.657 36.6378 122.241 36.5194H122.358V39.5922H122.241C121.774 39.71 121.188 39.8284 120.486 39.9462C119.784 40.0646 119.082 40.0646 118.38 40.0646ZM118.38 25.6468C113.816 25.6468 111.593 28.0105 111.593 32.7379C111.593 37.4647 113.816 39.8284 118.38 39.8284C119.082 39.8284 119.784 39.8284 120.486 39.71C121.071 39.5922 121.657 39.5922 122.124 39.4738V36.8739C121.54 36.9924 121.071 37.1101 120.603 37.1101C120.018 37.1101 119.433 37.2285 118.731 37.2285C117.444 37.2285 116.391 36.8739 115.805 36.1648C115.221 35.4556 114.987 34.3918 114.987 32.8557C114.987 31.3196 115.338 30.2558 115.922 29.5466C116.508 28.8381 117.444 28.4835 118.848 28.4835C119.433 28.4835 120.018 28.4835 120.603 28.6013C121.188 28.6013 121.774 28.7197 122.241 28.8381V26.1198C121.774 26.0014 121.188 25.8836 120.486 25.8836C119.667 25.7652 119.082 25.6468 118.38 25.6468Z" fill="white"/>
<path d="M128.093 39.8285C126.806 39.8285 125.87 39.4739 125.168 38.8831C124.466 38.1739 124.232 37.2286 124.232 36.0464C124.232 34.6287 124.7 33.6833 125.519 32.9742C126.338 32.265 127.625 31.7926 129.498 31.6736L132.774 31.438V30.965C132.774 30.4927 132.774 30.0197 132.657 29.6651C132.54 29.3105 132.423 29.0743 132.189 28.8382C131.955 28.6013 131.604 28.4836 131.253 28.3652C130.902 28.2467 130.317 28.2467 129.732 28.2467C129.147 28.2467 128.445 28.2467 127.742 28.3652C127.041 28.4836 126.221 28.6013 125.519 28.7197L125.285 26.1199C126.983 25.8024 128.707 25.6443 130.434 25.6475C132.54 25.6475 134.061 26.0015 134.998 26.829C135.934 27.5382 136.519 28.7197 136.519 30.3743V39.8278H133.594L133.243 38.0555H133.008C131.253 39.2377 129.732 39.8285 128.093 39.8285ZM129.498 37.3463C129.966 37.3463 130.551 37.2286 131.136 36.9924C131.721 36.7556 132.189 36.5194 132.657 36.1648V33.3287L130.434 33.5649C129.381 33.6833 128.679 33.8011 128.328 34.1557C127.976 34.5103 127.742 34.9833 127.742 35.6925C127.742 36.7556 128.328 37.3463 129.498 37.3463Z" fill="white"/>
<path d="M128.093 39.9459C126.805 39.9459 125.752 39.592 125.167 38.8828C124.465 38.1736 124.114 37.2283 124.114 35.9283C124.114 34.51 124.582 33.4462 125.401 32.7377C126.22 32.0285 127.625 31.5555 129.38 31.4371L132.539 31.2009V30.8463C132.539 30.374 132.539 29.9016 132.422 29.5464C132.305 29.1925 132.188 28.9556 131.954 28.8379C131.72 28.601 131.486 28.4833 131.018 28.4833C130.199 28.3649 129.029 28.3649 127.507 28.4833C126.805 28.601 125.986 28.7195 125.284 28.8379H125.167L124.933 26.0012H125.05C126.922 25.6466 128.677 25.5288 130.199 25.5288C132.305 25.5288 133.826 25.8834 134.879 26.7103C135.933 27.5379 136.401 28.7195 136.401 30.374V39.9459H133.241L132.89 38.173H132.773C131.252 39.3552 129.731 39.9459 128.093 39.9459ZM129.614 28.1287C130.199 28.1287 130.784 28.1287 131.135 28.2465C131.603 28.3649 131.837 28.4833 132.188 28.7195C132.422 28.9556 132.656 29.1918 132.656 29.5464C132.773 29.901 132.773 30.374 132.773 30.847V31.4377L129.38 31.6739C127.625 31.7917 126.337 32.2647 125.518 32.9739C124.699 33.683 124.348 34.6284 124.348 36.0461C124.348 37.2283 124.699 38.1736 125.284 38.7644C125.869 39.3552 126.805 39.7097 128.093 39.7097C129.731 39.7097 131.252 39.119 132.656 37.9368H133.007L133.358 39.7097H136.05V30.2562C136.05 28.7195 135.582 27.5379 134.645 26.8287C133.709 26.1196 132.188 25.765 130.199 25.765C128.677 25.765 127.039 25.8834 125.167 26.2373L125.401 28.601L127.507 28.2465C128.326 28.1287 128.911 28.1287 129.614 28.1287ZM129.497 37.4645C128.21 37.4645 127.625 36.8737 127.625 35.5737C127.625 34.8646 127.859 34.2732 128.326 34.0376C128.794 33.683 129.497 33.5653 130.55 33.4462L132.89 33.21V36.1645C132.422 36.5191 131.954 36.7553 131.369 36.9921C130.55 37.346 130.082 37.4645 129.497 37.4645ZM132.539 33.4462L130.55 33.683C129.614 33.8008 128.911 33.9192 128.443 34.2738C128.093 34.51 127.859 34.983 127.859 35.6922C127.859 36.7553 128.443 37.346 129.497 37.346C129.965 37.346 130.55 37.2283 131.018 36.9921C131.603 36.7553 132.071 36.5191 132.422 36.1645V33.4469H132.539V33.4462Z" fill="white"/>
<path d="M139.562 18.9111H143.072V39.7102H139.562V18.9111Z" fill="white"/>
<path d="M143.189 39.8279H139.444V18.792H143.189V39.8279ZM139.678 39.5917H142.955V19.0282H139.678V39.5917Z" fill="white"/>
<path d="M149.508 39.8284C148.222 39.8284 147.285 39.4739 146.583 38.8831C145.881 38.1739 145.647 37.2286 145.647 36.0464C145.647 34.6287 146.115 33.6833 146.934 32.9742C147.753 32.265 149.04 31.7926 150.912 31.6736L154.189 31.438V30.965C154.189 30.4927 154.189 30.0197 154.072 29.6651C153.955 29.3105 153.838 29.0743 153.604 28.8382C153.37 28.6013 153.019 28.4836 152.668 28.3652C152.317 28.2467 151.732 28.2467 151.147 28.2467C150.562 28.2467 149.86 28.2467 149.157 28.3652C148.456 28.4836 147.636 28.6013 146.934 28.7197L146.7 26.1199C148.398 25.8025 150.122 25.6443 151.849 25.6475C153.955 25.6475 155.476 26.0014 156.413 26.829C157.349 27.5382 157.934 28.7197 157.934 30.3743V39.8278H155.008L154.658 38.0555H154.423C152.668 39.2377 151.147 39.8284 149.508 39.8284ZM150.912 37.3463C151.381 37.3463 151.966 37.2286 152.551 36.9924C153.136 36.7556 153.604 36.5194 154.072 36.1648V33.3287L151.849 33.5649C150.795 33.6833 150.094 33.8011 149.743 34.1557C149.391 34.5103 149.157 34.9833 149.157 35.6924C149.157 36.7556 149.743 37.3463 150.912 37.3463Z" fill="white"/>
<path d="M149.507 39.9455C148.22 39.9455 147.167 39.5915 146.582 38.8824C145.88 38.1732 145.529 37.2278 145.529 35.9279C145.529 34.5095 145.997 33.4458 146.816 32.7373C147.635 32.0281 149.04 31.5551 150.795 31.4367L153.954 31.2005V30.8459C153.954 30.3735 153.954 29.9012 153.837 29.546C153.72 29.192 153.603 28.9552 153.369 28.8374C153.135 28.6006 152.901 28.4828 152.433 28.4828C151.613 28.3644 150.444 28.3644 148.922 28.4828C148.22 28.6006 147.401 28.719 146.699 28.8374H146.582L146.348 26.0007H146.465C148.163 25.6833 149.886 25.5251 151.613 25.5284C153.72 25.5284 155.241 25.883 156.294 26.7099C157.348 27.5375 157.816 28.719 157.816 30.3735V39.9455H154.656L154.305 38.1725H154.188C152.784 39.3547 151.146 39.9455 149.507 39.9455ZM151.029 28.1283C151.613 28.1283 152.199 28.1283 152.55 28.246C153.018 28.3644 153.252 28.4828 153.603 28.719C153.837 28.9552 154.071 29.1914 154.071 29.546C154.188 29.9005 154.188 30.3735 154.188 30.8465V31.4373L150.795 31.6735C149.04 31.7913 147.752 32.2643 146.933 32.9734C146.114 33.6826 145.763 34.628 145.763 36.0457C145.763 37.2278 146.114 38.1732 146.699 38.764C147.284 39.3547 148.22 39.7093 149.507 39.7093C151.146 39.7093 152.667 39.1185 154.071 37.9364H154.422L154.773 39.7093H157.465V30.2558C157.465 28.719 156.997 27.5375 156.06 26.8283C155.124 26.1191 153.603 25.7645 151.613 25.7645C150.092 25.7645 148.454 25.883 146.582 26.2369L146.816 28.6006L148.922 28.246C149.741 28.1283 150.444 28.1283 151.029 28.1283ZM150.912 37.464C149.624 37.464 149.04 36.8733 149.04 35.5733C149.04 34.8641 149.274 34.2727 149.741 34.0372C150.209 33.6826 150.912 33.5648 151.965 33.4458L154.305 33.2096V36.1641C153.837 36.5187 153.369 36.7548 152.784 36.9917C152.082 37.3456 151.497 37.464 150.912 37.464ZM153.954 33.4458L151.965 33.6826C151.029 33.8004 150.326 33.9188 149.858 34.2734C149.507 34.5095 149.274 34.9825 149.274 35.6917C149.274 36.7548 149.858 37.3456 150.912 37.3456C151.38 37.3456 151.965 37.2278 152.433 36.9917C153.018 36.7548 153.486 36.5187 153.837 36.1641V33.4464H153.954V33.4458Z" fill="white"/>
<path d="M38.8076 48.6915C33.4244 48.3369 30.2652 45.0278 30.1482 39.5919C30.2652 34.1559 33.4244 30.8469 38.8076 30.4923C42.3179 30.2555 44.8918 27.6556 44.7754 24.2288C44.6584 21.0381 42.0838 18.3198 38.807 18.3198C35.5307 18.3198 32.6057 20.8019 32.8391 24.2288C33.0732 28.4832 31.201 30.9646 27.4566 32.2652C23.7121 33.6823 20.2018 32.856 17.159 30.3739C15.638 29.1924 15.0527 27.4194 15.0527 25.5287C15.0527 24.3472 14.9357 23.165 14.5845 22.1019C13.6487 19.5014 10.606 17.9652 7.6809 18.556C4.8716 19.2652 2.88297 21.9835 3.00003 24.8202C3.23413 27.8931 5.69162 30.3745 8.85079 30.4929C12.4782 30.7291 15.4039 32.1475 17.042 35.5743C17.7443 36.8749 17.9784 38.2919 17.9784 39.5925C17.9784 40.8925 17.6273 42.3102 17.042 43.6108C15.4039 47.0376 12.4782 48.4553 8.85079 48.6921C5.69162 48.9276 3.23413 51.2914 3.11708 54.4814C2.88297 57.3174 4.98866 60.0357 7.6809 60.6265C10.606 61.3356 13.6487 59.7995 14.7016 56.8451C15.0527 55.7813 15.0527 54.5998 15.1698 53.4176C15.1698 51.5269 15.755 49.7539 17.2761 48.5724C20.3182 46.0909 23.8292 45.2634 27.5736 46.6817C31.201 48.1001 33.0732 50.5815 32.9568 54.7182C32.8391 58.145 35.6478 60.6265 38.9247 60.6265C42.2009 60.6265 44.7754 58.0266 44.8925 54.7175C44.8925 51.5275 42.3179 48.8086 38.8076 48.6908V48.6915Z" fill="url(#paint0_linear)"/>
<path d="M23.9462 48.6904C20.67 48.6904 17.9784 51.4087 17.9784 54.7178C17.9784 58.0268 20.7871 60.8629 24.1803 60.7451C27.4566 60.7451 30.1488 58.0268 30.0311 54.5994C29.914 51.2903 27.2231 48.5727 23.9469 48.6904H23.9462ZM9.08488 33.447C5.6916 33.447 3 36.1647 3 39.5921C3 43.0196 5.6916 45.7372 9.08488 45.7372C12.3617 45.7372 15.0533 43.0196 15.0533 39.7105C14.9356 36.1647 12.3617 33.447 9.08488 33.447ZM44.8918 39.3559C44.7748 36.0469 41.9661 33.447 38.6899 33.447C35.413 33.5654 32.8391 36.2831 32.8391 39.5921C32.8391 42.9012 35.413 45.6195 38.6899 45.7372C41.9661 45.8557 44.6577 43.1374 44.8918 39.8283V39.3559ZM23.9456 30.4925C27.2218 30.4925 29.9134 27.8927 29.9134 24.4652C29.9134 21.1561 27.3389 18.4385 24.0626 18.4385C20.6687 18.4385 17.8601 21.1561 17.8601 24.4652C17.8601 27.7742 20.6687 30.4925 23.9456 30.4925Z" fill="white"/>
<path d="M66.3062 56.4911C65.8386 57.0825 65.1356 57.5548 64.3169 57.9094C63.4982 58.264 62.5617 58.3818 61.5089 58.3818C60.4554 58.3818 59.4026 58.1456 58.5832 57.6732C57.7244 57.1791 57.0317 56.4383 56.5939 55.5457C56.1257 54.601 55.8916 53.5366 55.8916 52.2367V51.1735C55.8916 49.1644 56.3598 47.6277 57.2962 46.5645C58.232 45.5008 59.5196 44.91 61.2748 44.91C62.6788 44.91 63.8487 45.2646 64.7851 45.9738C65.6045 46.6823 66.1891 47.7467 66.3062 49.1638H64.0828C63.8487 47.6283 62.9123 46.8007 61.3919 46.8007C60.3384 46.8007 59.636 47.1553 59.0508 47.8645C58.4661 48.5737 58.232 49.6374 58.232 51.0551V52.1189C58.232 53.5366 58.5832 54.6004 59.1685 55.4279C59.7537 56.2549 60.5725 56.6095 61.6253 56.6095C62.7959 56.6095 63.6152 56.3733 64.0828 55.7825V53.1827H61.3919V51.4097H66.3062V56.4911ZM74.6138 58.1456C74.4967 57.9088 74.3797 57.6732 74.3797 57.2002C73.6774 57.9088 72.8586 58.2634 71.8051 58.2634C70.8694 58.2634 70.05 58.0272 69.4647 57.4364C68.763 56.9641 68.5289 56.2542 68.5289 55.4273C68.5289 54.3635 68.8801 53.5366 69.6988 53.0636C70.5182 52.4728 71.571 52.2367 72.9757 52.2367H74.2626V51.5275C74.2626 51.0551 74.1456 50.5821 73.7944 50.3459C73.5603 49.9914 73.0927 49.8736 72.5075 49.8736C72.0393 49.8736 71.571 49.9914 71.3369 50.2275C70.9864 50.4637 70.8694 50.8183 70.8694 51.1729H68.646C68.646 50.5821 68.8801 50.1091 69.2306 49.6368C69.5818 49.1644 70.05 48.8092 70.6353 48.573C71.2199 48.3368 71.9222 48.2184 72.6245 48.2184C73.7944 48.2184 74.6138 48.4546 75.3155 49.046C76.0178 49.6368 76.369 50.4637 76.369 51.5275V55.9003C76.369 56.7272 76.486 57.4364 76.7201 58.0272V58.1456H74.6138ZM72.1563 56.6088C72.6245 56.6088 72.9757 56.4911 73.3262 56.2549C73.6774 56.0181 74.0285 55.7819 74.1456 55.4273V53.5366H72.9757C72.1563 53.5366 71.571 53.6544 71.1028 54.0089C70.7523 54.2458 70.5182 54.7181 70.5182 55.1911C70.5182 55.6635 70.6353 55.9003 70.9864 56.2549C71.3369 56.4911 71.6881 56.6088 72.1563 56.6088ZM80.9328 48.3368L81.0498 49.4006C81.7522 48.573 82.6886 48.2184 83.8585 48.2184C85.1454 48.2184 86.0819 48.6908 86.5501 49.7545C87.2518 48.8098 88.1882 48.2184 89.4751 48.2184C90.5286 48.2184 91.3474 48.573 91.8156 49.1638C92.2838 49.7545 92.635 50.5821 92.635 51.7637V58.1456H90.4116V51.7637C90.4116 51.1729 90.2945 50.6999 90.0604 50.3459C89.8263 50.1091 89.3581 49.8736 88.7735 49.8736C88.3052 49.8736 87.837 49.9914 87.6029 50.2275C87.2518 50.4637 87.0183 50.8183 86.9012 51.2913V58.0272H84.6779V51.6459C84.6779 50.4637 84.0926 49.8729 82.9221 49.8729C82.1033 49.8729 81.401 50.2275 81.0498 50.9367V58.0272H78.8265V48.2184H80.9328V48.3368ZM94.976 45.8554C94.976 45.5008 95.0931 45.2646 95.3272 45.0284C95.5613 44.7916 95.7948 44.6738 96.263 44.6738C96.6142 44.6738 96.9653 44.7916 97.1994 45.0284C97.4335 45.2646 97.5506 45.5008 97.5506 45.8554C97.5506 46.2099 97.4335 46.4461 97.1994 46.6829C96.9653 46.9191 96.7312 47.0369 96.263 47.0369C95.9118 47.0369 95.5613 46.9191 95.3272 46.6829C95.0931 46.4461 94.976 46.2099 94.976 45.8554ZM97.3165 58.1456H95.0931V48.3368H97.3165V58.1462V58.1456ZM101.881 48.3368L101.998 49.5184C102.7 48.6914 103.636 48.2184 104.806 48.2184C106.795 48.2184 107.849 49.4006 107.849 51.7643V58.2634H105.625V51.8821C105.625 51.2913 105.508 50.8183 105.274 50.4637C105.04 50.1091 104.572 49.9914 103.987 49.9914C103.168 49.9914 102.466 50.3459 101.998 51.1729V58.1456H99.7746V48.3362H101.881V48.3368ZM109.836 53.1827C109.836 51.6465 110.187 50.465 110.89 49.519C111.591 48.5743 112.528 48.1013 113.698 48.1013C114.751 48.1013 115.687 48.4552 116.272 49.2828L116.389 48.3375H118.378V57.791C118.378 59.0916 118.027 60.0363 117.209 60.8645C116.389 61.5731 115.336 61.9277 114.049 61.9277C113.347 61.9277 112.645 61.8092 111.942 61.4553C111.241 61.1007 110.773 60.7461 110.421 60.2731L111.474 58.9732C112.177 59.8008 112.996 60.1547 113.932 60.1547C114.566 60.1586 115.183 59.9508 115.687 59.5639C116.155 59.2094 116.272 58.6192 116.272 57.791V57.0825C115.687 57.7917 114.868 58.1462 113.815 58.1462C112.645 58.1462 111.708 57.6739 111.007 56.7279C110.187 56.0187 109.836 54.8372 109.836 53.182V53.1827ZM112.059 53.4188C112.059 54.3642 112.294 55.1918 112.645 55.7825C112.996 56.3733 113.581 56.6095 114.283 56.6095C115.102 56.6095 115.804 56.2555 116.272 55.4279V51.1735C115.804 50.4644 115.219 50.1098 114.283 50.1098C113.581 50.1098 112.996 50.3466 112.645 50.9374C112.294 51.4097 112.059 52.2373 112.059 53.4188Z" fill="white"/>
<defs>
<linearGradient id="paint0_linear" x1="4.78027" y1="20.2584" x2="43.4359" y2="58.5361" gradientUnits="userSpaceOnUse">
<stop offset="0.018" stop-color="#FFCE00"/>
<stop offset="0.437" stop-color="#FF1C03"/>
<stop offset="1" stop-color="#DE0021"/>
</linearGradient>
</defs>
</svg>
