<svg width="160" height="80" viewBox="0 0 160 80" fill="none" xmlns="http://www.w3.org/2000/svg">
<g clip-path="url(#clip0_6853_8)">
<path d="M58.258 55.1409L59.978 44.8873C60.0441 44.5345 60.2426 44.2037 60.5733 43.9171C60.9041 43.6304 61.301 43.4761 61.7641 43.4761C62.2051 43.4761 62.602 43.6084 62.9328 43.873C63.2635 44.1376 63.484 44.4463 63.5943 44.7991L65.7553 52.0759H65.7994L67.9603 44.7991C68.0706 44.4463 68.2911 44.1376 68.6219 43.873C68.9526 43.6084 69.3495 43.4761 69.7905 43.4761C70.2536 43.4761 70.6505 43.6304 70.9813 43.9171C71.312 44.2037 71.5325 44.5345 71.5766 44.8873L73.2966 55.1409C73.3186 55.2071 73.3187 55.3173 73.3187 55.4496C73.3187 55.8465 73.1863 56.1773 72.9438 56.3978C72.6792 56.6404 72.3705 56.7506 71.9956 56.7506C71.5546 56.7506 71.2238 56.6404 71.0033 56.4419C70.7828 56.2434 70.6505 55.9127 70.5623 55.4717L69.4818 47.9965H69.4598L67.2547 55.6922C67.0342 56.3978 66.5491 56.7506 65.7773 56.7506C65.0055 56.7506 64.5204 56.3978 64.2999 55.6922L62.0948 47.9965H62.0507L60.9702 55.4717C60.9041 55.9127 60.7718 56.2434 60.5513 56.4419C60.3308 56.6404 60 56.7506 59.559 56.7506C59.1841 56.7506 58.8754 56.6404 58.6108 56.3978C58.3462 56.1552 58.236 55.8465 58.236 55.4496C58.236 55.3173 58.258 55.2291 58.258 55.1409Z" fill="white"/>
<path d="M84.2337 48.5255V55.0525C84.2337 55.5597 84.1676 55.9787 84.0132 56.3094C83.8589 56.6181 83.5061 56.7945 82.9548 56.7945C82.602 56.7945 82.3153 56.7063 82.1169 56.5079C81.9184 56.3094 81.7861 56.0448 81.6758 55.67C80.9702 56.4858 80.1323 56.9048 79.1621 56.9048C78.3462 56.9048 77.6185 56.6843 76.9349 56.2433C76.2734 55.8023 75.7442 55.2069 75.3693 54.4351C74.9945 53.6633 74.796 52.7813 74.796 51.8111C74.796 50.8629 74.9945 50.0029 75.3693 49.2311C75.7662 48.4373 76.2955 47.8199 76.957 47.3789C77.6185 46.9379 78.3682 46.6953 79.1621 46.6953C79.6692 46.6953 80.1323 46.8056 80.5733 47.004C81.0143 47.2025 81.3892 47.5112 81.6758 47.9081C81.7199 47.5773 81.8522 47.3127 82.0948 47.1143C82.3374 46.9158 82.624 46.8056 82.9327 46.8056C83.484 46.8056 83.8368 46.9599 83.9912 47.2907C84.1455 47.6214 84.2337 48.0184 84.2337 48.5255ZM77.4642 51.8111C77.4642 52.2521 77.5524 52.6931 77.7067 53.09C77.8611 53.509 78.1036 53.8397 78.4123 54.0823C78.721 54.3249 79.118 54.4572 79.559 54.4572C80.1984 54.4572 80.7056 54.1926 81.0584 53.6633C81.4112 53.1341 81.5876 52.5167 81.5876 51.789C81.5876 51.348 81.5215 50.907 81.3671 50.5101C81.2128 50.0911 80.9923 49.7604 80.6615 49.4958C80.3307 49.2311 79.9779 49.0988 79.5369 49.0988C79.0959 49.0988 78.721 49.2311 78.3903 49.4958C78.0595 49.7604 77.839 50.0911 77.6847 50.5101C77.5303 50.929 77.4642 51.3701 77.4642 51.8111Z" fill="white"/>
<path d="M86.4167 55.3171V48.2609C86.4167 47.8199 86.527 47.4671 86.7696 47.2025C87.0121 46.9379 87.3208 46.7835 87.7177 46.7835C88.0485 46.7835 88.3352 46.8717 88.5557 47.0481C88.7762 47.2245 88.9085 47.4671 88.9526 47.7758C89.4597 47.0481 90.3197 46.6953 91.4884 46.6953C92.172 46.6953 92.8115 46.8276 93.3627 47.1143C93.914 47.4009 94.333 47.7979 94.6637 48.3491C94.9724 48.8783 95.1268 49.5178 95.1268 50.2455V55.3171C95.1268 55.6038 95.0606 55.8684 94.9504 56.0889C94.8401 56.3094 94.6858 56.4858 94.4653 56.6181C94.2668 56.7504 94.0242 56.7945 93.7817 56.7945C93.3848 56.7945 93.0761 56.6622 92.8335 56.3756C92.591 56.111 92.4807 55.7582 92.4807 55.3171V50.7085C92.4807 50.1132 92.3263 49.6722 91.9956 49.3634C91.6648 49.0547 91.2679 48.9004 90.7387 48.9004C90.3859 48.9004 90.0992 48.9886 89.8346 49.1429C89.57 49.2973 89.3936 49.5178 89.2613 49.7824C89.129 50.047 89.0628 50.3557 89.0628 50.7085V55.3171C89.0628 55.6038 88.9967 55.8684 88.8864 56.0889C88.7762 56.3094 88.6218 56.4858 88.4013 56.6181C88.2029 56.7504 87.9603 56.7945 87.7177 56.7945C87.3208 56.7945 87.0121 56.6622 86.7696 56.3756C86.5491 56.111 86.4167 55.7582 86.4167 55.3171Z" fill="white"/>
<path d="M97.3098 55.3171V48.2609C97.3098 47.8199 97.4201 47.4671 97.6626 47.2025C97.9052 46.9379 98.2139 46.7835 98.6108 46.7835C98.9416 46.7835 99.2282 46.8717 99.4487 47.0481C99.6692 47.2245 99.8015 47.4671 99.8456 47.7758C100.353 47.0481 101.213 46.6953 102.381 46.6953C103.065 46.6953 103.705 46.8276 104.256 47.1143C104.807 47.4009 105.226 47.7979 105.557 48.3491C105.865 48.8783 106.02 49.5178 106.02 50.2455V55.3171C106.02 55.6038 105.954 55.8684 105.843 56.0889C105.733 56.3094 105.579 56.4858 105.358 56.6181C105.16 56.7504 104.917 56.7945 104.675 56.7945C104.278 56.7945 103.969 56.6622 103.727 56.3756C103.484 56.111 103.374 55.7582 103.374 55.3171V50.7085C103.374 50.1132 103.219 49.6722 102.889 49.3634C102.558 49.0547 102.161 48.9004 101.632 48.9004C101.279 48.9004 100.992 48.9886 100.728 49.1429C100.463 49.2973 100.287 49.5178 100.154 49.7824C100.022 50.047 99.9559 50.3557 99.9559 50.7085V55.3171C99.9559 55.6038 99.8898 55.8684 99.7795 56.0889C99.6692 56.3094 99.5149 56.4858 99.2944 56.6181C99.0959 56.7504 98.8534 56.7945 98.6108 56.7945C98.2139 56.7945 97.9052 56.6622 97.6626 56.3756C97.4421 56.111 97.3098 55.7582 97.3098 55.3171Z" fill="white"/>
<path d="M117.244 48.5255V55.0525C117.244 55.5597 117.178 55.9787 117.023 56.3094C116.869 56.6181 116.516 56.7945 115.965 56.7945C115.612 56.7945 115.325 56.7063 115.127 56.5079C114.928 56.3094 114.796 56.0448 114.686 55.67C113.98 56.4858 113.142 56.9048 112.172 56.9048C111.356 56.9048 110.628 56.6843 109.945 56.2433C109.283 55.8023 108.754 55.2069 108.379 54.4351C108.004 53.6633 107.806 52.7813 107.806 51.8111C107.806 50.8629 108.004 50.0029 108.379 49.2311C108.776 48.4373 109.305 47.8199 109.967 47.3789C110.628 46.9379 111.378 46.6953 112.172 46.6953C112.679 46.6953 113.142 46.8056 113.583 47.004C114.024 47.2025 114.399 47.5112 114.686 47.9081C114.73 47.5773 114.862 47.3127 115.105 47.1143C115.347 46.9158 115.634 46.8056 115.943 46.8056C116.494 46.8056 116.847 46.9599 117.001 47.2907C117.155 47.6214 117.244 48.0184 117.244 48.5255ZM110.452 51.8111C110.452 52.2521 110.54 52.6931 110.695 53.09C110.849 53.509 111.092 53.8397 111.4 54.0823C111.709 54.3249 112.106 54.4572 112.547 54.4572C113.186 54.4572 113.694 54.1926 114.046 53.6633C114.399 53.1341 114.576 52.5167 114.576 51.789C114.576 51.348 114.509 50.907 114.355 50.5101C114.201 50.0911 113.98 49.7604 113.649 49.4958C113.319 49.2311 112.966 49.0988 112.525 49.0988C112.084 49.0988 111.709 49.2311 111.378 49.4958C111.047 49.7604 110.827 50.0911 110.673 50.5101C110.54 50.929 110.452 51.3701 110.452 51.8111Z" fill="white"/>
<path d="M125.094 55.3614V45.0417C125.094 44.6007 125.226 44.2479 125.469 43.9833C125.711 43.7187 126.064 43.6084 126.527 43.6084H129.769C130.651 43.6084 131.444 43.7848 132.172 44.1597C132.9 44.5345 133.451 45.0417 133.87 45.7032C134.267 46.3647 134.465 47.1365 134.465 47.9744C134.465 48.636 134.355 49.2313 134.112 49.7826C133.87 50.3339 133.539 50.7749 133.12 51.1497C132.701 51.5246 132.216 51.8113 131.665 52.0097C131.114 52.2082 130.518 52.3184 129.901 52.3184H127.85V55.3394C127.85 55.8024 127.718 56.1553 127.475 56.3978C127.211 56.6404 126.902 56.7727 126.483 56.7727C126.086 56.7727 125.755 56.6404 125.491 56.3978C125.226 56.1553 125.094 55.8024 125.094 55.3614ZM127.85 46.034V49.9149H129.724C130.276 49.9149 130.739 49.7385 131.092 49.3636C131.444 48.9888 131.621 48.5257 131.621 47.9744C131.621 47.5996 131.533 47.2688 131.378 46.9822C131.224 46.6955 131.003 46.4529 130.717 46.2765C130.43 46.1001 130.099 46.0119 129.724 46.0119H127.85V46.034Z" fill="white"/>
<path d="M135.877 55.3172V44.0052C135.877 43.5641 135.987 43.2113 136.229 42.9467C136.472 42.6821 136.781 42.5498 137.178 42.5498C137.442 42.5498 137.663 42.616 137.861 42.7262C138.06 42.8585 138.214 43.0129 138.324 43.2554C138.434 43.498 138.501 43.7405 138.501 44.0272V55.3392C138.501 55.6259 138.434 55.8905 138.324 56.111C138.214 56.3315 138.06 56.5079 137.839 56.6402C137.641 56.7725 137.398 56.8166 137.155 56.8166C136.759 56.8166 136.45 56.6843 136.207 56.3977C136.009 56.111 135.877 55.7582 135.877 55.3172Z" fill="white"/>
<path d="M149.702 48.5255V55.0525C149.702 55.5597 149.636 55.9787 149.482 56.3094C149.328 56.6181 148.975 56.7945 148.423 56.7945C148.071 56.7945 147.784 56.7063 147.585 56.5079C147.387 56.3094 147.255 56.0448 147.144 55.67C146.439 56.4858 145.601 56.9048 144.631 56.9048C143.815 56.9048 143.087 56.6843 142.404 56.2433C141.742 55.8023 141.213 55.2069 140.838 54.4351C140.463 53.6633 140.265 52.7813 140.265 51.8111C140.265 50.8629 140.463 50.0029 140.838 49.2311C141.235 48.4373 141.764 47.8199 142.426 47.3789C143.087 46.9379 143.837 46.6953 144.631 46.6953C145.138 46.6953 145.601 46.8056 146.042 47.004C146.483 47.2025 146.858 47.5112 147.144 47.9081C147.189 47.5773 147.321 47.3127 147.563 47.1143C147.806 46.9158 148.093 46.8056 148.401 46.8056C148.953 46.8056 149.305 46.9599 149.46 47.2907C149.614 47.6214 149.702 48.0184 149.702 48.5255ZM142.933 51.8111C142.933 52.2521 143.021 52.6931 143.175 53.09C143.33 53.509 143.572 53.8397 143.881 54.0823C144.19 54.3249 144.587 54.4572 145.028 54.4572C145.667 54.4572 146.174 54.1926 146.527 53.6633C146.88 53.1341 147.056 52.5167 147.056 51.789C147.056 51.348 146.99 50.907 146.836 50.5101C146.681 50.0911 146.461 49.7604 146.13 49.4958C145.799 49.2311 145.447 49.0988 145.006 49.0988C144.565 49.0988 144.19 49.2311 143.859 49.4958C143.528 49.7604 143.308 50.0911 143.153 50.5101C142.999 50.929 142.933 51.3701 142.933 51.8111Z" fill="white"/>
<path d="M154.157 55.9127L151.224 48.6139C151.136 48.3713 151.092 48.1508 151.092 47.9303C151.092 47.6216 151.224 47.335 151.488 47.1145C151.753 46.8939 152.04 46.7837 152.326 46.7837C152.635 46.7837 152.922 46.8719 153.142 47.0262C153.363 47.1806 153.539 47.4232 153.649 47.7319L155.458 52.7153L157.398 47.7319C157.508 47.4232 157.685 47.2027 157.905 47.0262C158.126 46.8719 158.39 46.7837 158.721 46.7837C159.03 46.7837 159.294 46.8939 159.559 47.1145C159.824 47.335 159.956 47.5996 159.956 47.9303C159.956 48.1949 159.912 48.4154 159.824 48.6139L155.391 59.6393C155.127 60.3228 154.708 60.6756 154.135 60.6756C153.716 60.6756 153.385 60.5654 153.12 60.3449C152.878 60.1244 152.745 59.8598 152.745 59.5511C152.745 59.3526 152.812 59.088 152.922 58.7793L154.157 55.9127Z" fill="white"/>
<path d="M6.43774e-06 53.1782C0.396919 50.907 0.837934 48.2168 1.301 45.5487C2.62404 37.9632 3.92503 30.3557 5.24808 22.7482C5.53474 21.0503 6.50497 19.8816 8.13672 19.3083C9.81258 18.735 11.312 19.176 12.5689 20.4109C13.6935 21.4913 14.4212 22.8585 15.3032 24.1374C17.1555 26.7835 18.9416 29.4957 20.7497 32.1639C21.6759 33.531 22.2712 33.509 23.1753 32.1198C25.5127 28.5035 27.828 24.8871 30.1433 21.2708C31.0915 19.7934 32.8997 18.8673 34.4212 19.1319C36.4498 19.4847 37.7949 20.7857 38.1477 22.8144C39.4928 30.6644 40.8379 38.5145 42.183 46.3645C42.5579 48.5255 42.9548 50.7085 43.2856 52.8695C43.7045 55.4936 42.2051 57.5443 39.6472 57.9853C37.398 58.3601 35.3032 56.7725 34.8401 54.3028C34.2889 51.2598 33.7817 48.2168 33.2745 45.1959C32.7894 42.3734 32.3043 39.5509 31.7971 36.7284C31.731 36.3756 31.8633 35.8243 31.3341 35.7141C30.7828 35.6258 30.6285 36.1551 30.3859 36.5079C28.8203 38.9555 27.2767 41.4031 25.6891 43.8287C24.2337 46.0558 21.8964 46.563 19.6472 45.2179C19.0518 44.8651 18.6549 44.3579 18.3021 43.7846C16.7586 41.337 15.193 38.8894 13.6053 36.4638C13.3186 36.0007 13.032 35.4274 12.3705 35.5597C11.6428 35.692 11.6207 36.3535 11.5105 36.9489C10.5402 42.5939 9.59207 48.2389 8.62184 53.8838C7.98237 57.5884 4.4763 59.2201 1.69791 57.1474C0.507173 56.2433 -0.044095 55.0525 6.43774e-06 53.1782Z" fill="#FF8214"/>
<path d="M46.7695 19.0216C52.1499 18.757 56.2513 20.918 58.9415 25.5927C63.2194 33.0238 59.1179 42.7923 50.871 44.8871C49.8125 45.1517 48.71 45.3722 47.6075 45.1517C45.5788 44.7769 44.2337 43.1451 44.3219 41.2047C44.4101 39.176 45.8875 37.6765 47.9823 37.5001C50.3638 37.3017 52.0176 35.9345 52.635 33.6413C53.2524 31.4141 52.4145 28.8783 50.6946 27.6214C49.9228 27.0701 49.0849 26.7614 48.1367 26.7614C46.99 26.7835 45.8655 26.7835 44.7188 26.7614C42.4476 26.6953 40.7717 25.0194 40.7938 22.8585C40.8158 20.6975 42.4917 19.0657 44.785 19.0216C45.4465 19.0216 46.108 19.0216 46.7695 19.0216Z" fill="#FF8214"/>
</g>
<defs>
<clipPath id="clip0_6853_8">
<rect width="160" height="80" fill="white"/>
</clipPath>
</defs>
</svg>
