<svg width="160" height="80" viewBox="0 0 160 80" fill="none" xmlns="http://www.w3.org/2000/svg">
<path d="M47.5893 38.2158H49.5536L52.6786 45.5064H52.7232L55.8036 38.2158H57.7679V47.8341H56.4286V39.9287H56.3839L53.0804 47.8341H52.1875L48.8839 39.9287H48.8393V47.8341H47.5V38.2158H47.5893Z" fill="white"/>
<path d="M62.7232 38.2158H63.9286L68.125 47.8341H66.5625L65.5804 45.4624H60.9375L59.9554 47.8341H58.3929L62.7232 38.2158ZM65.0893 44.3205L63.2589 39.8847H63.2143L61.3393 44.3205H65.0893Z" fill="white"/>
<path d="M69.1071 45.8141C69.3304 46.1655 69.6429 46.429 70.0446 46.6047C70.4018 46.7804 70.8036 46.8682 71.2054 46.8682C71.4286 46.8682 71.6518 46.8243 71.875 46.7804C72.0982 46.6925 72.3214 46.6047 72.5 46.4729C72.6786 46.3412 72.8571 46.1655 72.9464 45.9898C73.0804 45.7702 73.125 45.5506 73.125 45.2871C73.125 44.9358 72.9911 44.6283 72.7679 44.4527C72.5446 44.277 72.2321 44.1013 71.875 43.9696C71.5179 43.8378 71.1161 43.706 70.7143 43.5743C70.3125 43.4425 69.9107 43.2669 69.5536 43.0473C69.1964 42.8277 68.8839 42.5202 68.6607 42.1689C68.4375 41.8175 68.3036 41.2905 68.3036 40.6756C68.3036 40.4121 68.3482 40.1047 68.4821 39.7973C68.6161 39.4898 68.7946 39.1824 69.0625 38.9189C69.3304 38.6554 69.6875 38.4358 70.0893 38.2601C70.4911 38.0844 71.0268 37.9966 71.6071 37.9966C72.1429 37.9966 72.6339 38.0844 73.125 38.2162C73.6161 38.3479 74.0625 38.6554 74.4196 39.0946L73.3482 40.0608C73.1696 39.7973 72.9464 39.6216 72.6339 39.4459C72.3214 39.2702 71.9643 39.2263 71.6071 39.2263C71.25 39.2263 70.9375 39.2702 70.6696 39.3581C70.4464 39.4459 70.2232 39.5777 70.0893 39.7094C69.9554 39.8412 69.8214 40.0169 69.7768 40.1925C69.7321 40.3682 69.6875 40.5439 69.6875 40.6756C69.6875 41.0709 69.8214 41.3783 70.0446 41.5979C70.2679 41.8175 70.5804 41.9932 70.9375 42.125C71.2946 42.2567 71.6964 42.3885 72.0982 42.4763C72.5 42.5641 72.9018 42.7398 73.2589 42.9155C73.6161 43.0912 73.9286 43.3547 74.1518 43.706C74.375 44.0574 74.5089 44.4966 74.5089 45.0675C74.5089 45.5506 74.4196 45.9459 74.2411 46.3412C74.0625 46.6925 73.8393 47.0439 73.5268 47.2635C73.2143 47.527 72.8571 47.7027 72.4554 47.8344C72.0536 47.9662 71.6071 48.054 71.1161 48.054C70.4911 48.054 69.9107 47.9662 69.3304 47.7466C68.75 47.527 68.3036 47.1756 67.9911 46.7364L69.1071 45.8141Z" fill="white"/>
<path d="M82.7232 40.2803C82.4554 39.929 82.0982 39.6655 81.6518 39.4459C81.2054 39.2702 80.8036 39.1384 80.3571 39.1384C79.8214 39.1384 79.2857 39.2263 78.8393 39.4459C78.3929 39.6655 77.9911 39.929 77.6786 40.2803C77.3661 40.6317 77.0982 41.0709 76.9197 41.5101C76.7411 41.9932 76.6518 42.4763 76.6518 43.0472C76.6518 43.5743 76.7411 44.0574 76.9197 44.4966C77.0982 44.9357 77.3214 45.331 77.6339 45.6824C77.9464 46.0337 78.3482 46.2972 78.7946 46.5168C79.2411 46.7364 79.7768 46.8243 80.3125 46.8243C80.8929 46.8243 81.3839 46.6925 81.7857 46.4729C82.2321 46.2533 82.5893 45.9459 82.8571 45.5067L83.9732 46.3412C83.8839 46.429 83.75 46.6047 83.5714 46.7803C83.3929 46.956 83.125 47.1317 82.8571 47.3513C82.5893 47.5709 82.1875 47.7026 81.7411 47.8344C81.2947 47.9661 80.8036 48.054 80.2679 48.054C79.5089 48.054 78.7947 47.9222 78.1697 47.6148C77.5447 47.3074 77.0089 46.956 76.5625 46.4729C76.1161 45.9898 75.8036 45.4628 75.5804 44.8918C75.3572 44.277 75.2232 43.706 75.2232 43.0912C75.2232 42.3445 75.3572 41.6418 75.5804 41.027C75.8482 40.4121 76.1607 39.8412 76.6072 39.402C77.0536 38.9628 77.5893 38.5675 78.2143 38.3479C78.8393 38.0844 79.5536 37.9526 80.3125 37.9526C80.9375 37.9526 81.6071 38.0844 82.2321 38.304C82.8571 38.5675 83.3482 38.9189 83.75 39.4459L82.7232 40.2803Z" fill="white"/>
<path d="M89.5982 48.0979C88.8393 48.0979 88.1696 47.9661 87.5446 47.7026C86.9196 47.4391 86.3839 47.0877 85.9375 46.6486C85.4911 46.2094 85.1339 45.6384 84.8661 45.0236C84.5982 44.4087 84.4643 43.7499 84.4643 43.0033C84.4643 42.2567 84.5982 41.5979 84.8661 40.983C85.1339 40.3682 85.4911 39.8411 85.9375 39.358C86.3839 38.9188 86.9196 38.5675 87.5446 38.304C88.1696 38.0404 88.8393 37.9087 89.5982 37.9087C90.3571 37.9087 91.0268 38.0404 91.6518 38.304C92.2768 38.5675 92.8125 38.9188 93.2589 39.358C93.7054 39.7972 94.0625 40.3682 94.3304 40.983C94.5982 41.5979 94.7321 42.2567 94.7321 43.0033C94.7321 43.7499 94.5982 44.4087 94.3304 45.0236C94.0625 45.6384 93.7054 46.1654 93.2589 46.6486C92.8125 47.0877 92.2768 47.4391 91.6518 47.7026C91.0268 47.9661 90.3125 48.0979 89.5982 48.0979ZM89.5982 46.8682C90.1786 46.8682 90.6696 46.7803 91.1161 46.5607C91.5625 46.3411 91.9643 46.0776 92.2768 45.7263C92.5893 45.3749 92.8571 44.9796 93.0357 44.4965C93.2143 44.0134 93.3036 43.5303 93.3036 43.0033C93.3036 42.4763 93.2143 41.9932 93.0357 41.51C92.8571 41.0269 92.5893 40.6317 92.2768 40.2803C91.9643 39.929 91.5625 39.6654 91.1161 39.4459C90.6696 39.2263 90.1786 39.1384 89.5982 39.1384C89.0179 39.1384 88.5268 39.2263 88.0804 39.4459C87.6339 39.6654 87.2321 39.929 86.9196 40.2803C86.6071 40.6317 86.3393 41.0269 86.1607 41.51C85.9821 41.9932 85.8928 42.4763 85.8928 43.0033C85.8928 43.5303 85.9821 44.0134 86.1607 44.4965C86.3393 44.9796 86.6071 45.3749 86.9196 45.7263C87.2321 46.0776 87.6339 46.3411 88.0804 46.5607C88.5268 46.7364 89.0179 46.8682 89.5982 46.8682Z" fill="white"/>
<path d="M98.0804 39.4021H94.9107V38.1724H102.545V39.4021H99.375V47.8345H98.0357V39.4021H98.0804Z" fill="white"/>
<path d="M115 42.4323V47.1756C114.777 47.3073 114.509 47.4391 114.196 47.5709C113.884 47.6587 113.571 47.7904 113.259 47.8344C112.946 47.8783 112.589 47.9661 112.277 48.01C111.92 48.054 111.607 48.054 111.339 48.054C110.491 48.054 109.777 47.9222 109.107 47.6587C108.438 47.3952 107.902 46.9999 107.455 46.5607C107.009 46.0776 106.652 45.5506 106.429 44.9357C106.205 44.3209 106.071 43.6621 106.071 43.0033C106.071 42.3006 106.205 41.5979 106.473 40.983C106.741 40.3682 107.098 39.8411 107.545 39.358C107.991 38.9188 108.527 38.5675 109.152 38.304C109.777 38.0404 110.446 37.9087 111.205 37.9087C112.098 37.9087 112.857 38.0404 113.438 38.26C114.018 38.4796 114.509 38.7871 114.866 39.1823L113.929 40.1925C113.527 39.7972 113.08 39.5337 112.634 39.4019C112.188 39.2702 111.696 39.1823 111.205 39.1823C110.625 39.1823 110.134 39.2702 109.688 39.4898C109.241 39.7094 108.839 39.9729 108.527 40.3242C108.214 40.6756 107.946 41.0709 107.768 41.554C107.589 42.0371 107.5 42.5202 107.5 43.0472C107.5 43.5742 107.589 44.1013 107.813 44.5844C107.991 45.0675 108.259 45.4627 108.616 45.8141C108.973 46.1654 109.375 46.429 109.821 46.6046C110.268 46.7803 110.804 46.9121 111.339 46.9121C111.83 46.9121 112.277 46.8682 112.679 46.7803C113.08 46.6925 113.438 46.5607 113.75 46.385V43.706H111.563V42.4763H115V42.4323Z" fill="white"/>
<path d="M119.911 38.2158H121.116L125.313 47.8341H123.75L122.768 45.4624H118.125L117.143 47.8341H115.58L119.911 38.2158ZM122.277 44.3205L120.446 39.8847H120.402L118.527 44.3205H122.277Z" fill="white"/>
<path d="M125.893 38.2158H127.857L130.982 45.5064H131.027L134.107 38.2158H136.071V47.8341H134.732V39.9287H134.688L131.384 47.8341H130.491L127.188 39.9287H127.232V47.8341H125.893V38.2158Z" fill="white"/>
<path d="M137.946 38.2158H139.286V47.8341H137.946V38.2158Z" fill="white"/>
<path d="M141.205 38.2158H142.946L148.348 46.1212H148.393V38.2158H149.732V47.8341H148.036L142.589 39.9287H142.545V47.8341H141.205V38.2158Z" fill="white"/>
<path d="M160 42.4323V47.1756C159.777 47.3073 159.509 47.4391 159.196 47.5709C158.884 47.6587 158.571 47.7904 158.259 47.8344C157.946 47.8783 157.589 47.9661 157.277 48.01C156.92 48.054 156.607 48.054 156.339 48.054C155.491 48.054 154.777 47.9222 154.107 47.6587C153.438 47.3952 152.902 46.9999 152.455 46.5607C152.009 46.0776 151.652 45.5506 151.429 44.9357C151.205 44.3209 151.071 43.6621 151.071 43.0033C151.071 42.3006 151.205 41.5979 151.473 40.983C151.741 40.3682 152.098 39.8411 152.545 39.358C152.991 38.9188 153.527 38.5675 154.152 38.304C154.777 38.0404 155.446 37.9087 156.205 37.9087C157.098 37.9087 157.857 38.0404 158.438 38.26C159.018 38.4796 159.509 38.7871 159.866 39.1823L158.929 40.1925C158.527 39.7972 158.08 39.5337 157.634 39.4019C157.188 39.2702 156.696 39.1823 156.205 39.1823C155.625 39.1823 155.134 39.2702 154.688 39.4898C154.241 39.7094 153.839 39.9729 153.527 40.3242C153.214 40.6756 152.946 41.0709 152.768 41.554C152.589 42.0371 152.5 42.5202 152.5 43.0472C152.5 43.5742 152.589 44.1013 152.813 44.5844C152.991 45.0675 153.259 45.4627 153.616 45.8141C153.973 46.1654 154.375 46.429 154.821 46.6046C155.268 46.7803 155.804 46.9121 156.339 46.9121C156.83 46.9121 157.277 46.8682 157.679 46.7803C158.08 46.6925 158.438 46.5607 158.75 46.385V43.706H156.563V42.4763H160V42.4323Z" fill="white"/>
<path d="M39.2411 21.0439C32.0536 21.0439 24.9107 21.0439 17.7232 21.0439C11.9643 21.0439 6.20536 21.0439 0.401786 21.0439C0.267857 21.0439 0.0892857 20.9122 0 21.1317C0 26.7094 0 32.2432 0 37.8209C0 39.2703 0 38.7871 0 39.2703C0.625 38.348 1.78571 37.4696 2.63393 36.8108C2.90179 36.5912 2.99107 36.4155 2.99107 36.0642C2.99107 32.1993 2.99107 28.3784 2.99107 24.5135C2.99107 24.1622 3.03571 24.0304 3.4375 24.0304C14.375 24.0304 25.3125 24.0304 36.25 24.0304C36.6518 24.0304 36.6964 24.1182 36.6964 24.4696C36.6964 28.4223 36.6964 32.4189 36.6964 36.3716C36.6964 37.3378 36.5179 38.348 36.0714 39.2263C34.2857 42.9594 29.5089 44.1013 26.1161 41.598C25.8482 41.3784 25.7143 41.4223 25.5357 41.6858C25.1339 42.3446 24.8214 43.0473 24.6875 43.7939C24.6429 44.0574 24.6875 44.2331 24.9554 44.3649C30.4464 47.8344 37.8571 44.9358 39.375 38.6115C39.4643 38.304 39.5089 38.1723 39.5982 37.777C39.6429 37.6453 39.6429 37.4696 39.6429 37.3378V37.1622C39.6429 31.804 39.6429 26.4459 39.6429 21.0439C39.5536 20.9122 39.375 21.0439 39.2411 21.0439Z" fill="white"/>
<path d="M19.0625 36.4153C19.0625 41.3781 15.3571 45.3747 10.4018 45.8139C8.21428 46.0335 6.25 45.5504 4.41964 44.4085C4.10714 44.2768 4.01786 44.0572 4.10714 43.7497C4.24107 43.0031 4.50893 42.3443 4.95536 41.6855C5.13393 41.422 5.26786 41.3781 5.53571 41.5977C8.61607 43.8815 12.9018 43.1788 15.0446 39.9727C17.2321 36.7227 15.9375 32.243 12.3214 30.5741C12.0089 30.4423 11.8304 30.3984 11.6071 30.7497C11.1161 31.4524 10.4018 31.7599 9.50893 31.672C8.57143 31.5842 7.90179 31.1011 7.54464 30.2227C7.45536 30.0031 7.36607 29.8714 7.09821 29.7396C6.02679 29.2565 5.53571 28.0707 5.89286 27.0166C6.25 25.9187 7.36607 25.2599 8.52679 25.4355C8.70536 25.4795 8.88393 25.4355 9.01786 25.3477C9.82143 24.8207 10.6696 24.7768 11.5625 25.216C12.4107 25.6551 12.7679 26.4018 12.7232 27.3241C12.7232 27.5876 12.8571 27.6315 13.0357 27.7193C16.2054 29.0369 18.1696 31.3646 18.8839 34.7024C19.0625 35.2734 19.1071 35.8882 19.0625 36.4153Z" fill="white"/>
<path d="M30.1339 35.3174C31.9196 35.3174 33.6161 35.8005 35.1786 36.7228C35.5357 36.9424 35.6696 37.1181 35.5804 37.5133C35.4018 38.1721 35.1786 38.787 34.8214 39.4018C34.6429 39.7532 34.5089 39.841 34.1071 39.5336C31.7857 37.8208 28.7054 37.7768 26.3839 39.4458C24.3304 40.939 23.3929 43.0032 23.7054 45.5066C24.0179 47.8343 25.3125 49.5471 27.5 50.5572C27.7679 50.689 27.9464 50.689 28.125 50.3816C28.6607 49.635 29.4196 49.3275 30.3571 49.4593C31.25 49.591 31.875 50.0741 32.1875 50.9086C32.2768 51.1282 32.3661 51.2599 32.5893 51.3478C33.6607 51.8748 34.1518 53.0167 33.7946 54.1147C33.4375 55.2127 32.3661 55.8714 31.1607 55.6518C30.9375 55.6079 30.8482 55.6518 30.6696 55.7836C29.9107 56.3106 29.0625 56.3545 28.2143 55.9154C27.4107 55.5201 26.9643 54.8174 26.9643 53.8951C26.9643 53.5437 26.8304 53.4559 26.5179 53.3241C22.9464 51.8309 20.5357 48.3174 20.625 44.3647C20.7143 40.7633 23.0357 37.3816 26.5625 35.9322C27.6786 35.537 28.8839 35.3174 30.1339 35.3174Z" fill="white"/>
<path d="M21.0714 39.3143C20.4464 37.2501 20.4464 35.2738 21.1607 33.3414C22.1429 30.7062 23.9732 28.8616 26.5625 27.8076C26.7857 27.7197 26.9643 27.6319 26.9196 27.3245C26.875 26.4022 27.3214 25.7434 28.125 25.3042C28.9286 24.865 29.7768 24.9089 30.5804 25.392C30.7589 25.5238 30.9375 25.5677 31.1607 25.5238C32.2768 25.3042 33.3929 26.0069 33.75 27.061C34.1071 28.115 33.6161 29.2569 32.5893 29.7839C32.3214 29.9157 32.1875 30.0474 32.0982 30.311C31.7411 31.1893 31.0714 31.6285 30.1339 31.7164C29.2857 31.8042 28.5714 31.4968 28.0804 30.7941C27.8571 30.4866 27.6786 30.4866 27.3661 30.6184C25.0893 31.7603 23.7946 33.6049 23.5714 36.1082C23.5714 36.3718 23.4821 36.5474 23.2589 36.7231C22.4107 37.4697 21.6964 38.3042 21.0714 39.3143Z" fill="white"/>
<path d="M18.6161 41.8613C19.0625 43.1789 19.1964 44.5404 19.0179 45.8579C18.4821 49.4593 16.4732 51.9627 13.0804 53.412C12.8571 53.4998 12.7679 53.6316 12.7679 53.8951C12.7679 54.8174 12.3661 55.5201 11.5179 55.9593C10.6696 56.3985 9.86607 56.3546 9.10714 55.8275C8.92857 55.6958 8.75 55.6958 8.57143 55.6958C7.41071 55.8715 6.33929 55.2127 5.98214 54.1586C5.625 53.0607 6.11607 51.9188 7.1875 51.3917C7.41071 51.3039 7.54464 51.1721 7.63393 50.9086C7.99107 50.0302 8.66071 49.5471 9.59821 49.4593C10.4464 49.3715 11.2054 49.7228 11.6964 50.4255C11.875 50.733 12.0536 50.733 12.3214 50.6012C14.5982 49.4593 15.8929 47.6586 16.1161 45.1552C16.1607 44.8478 16.2054 44.6721 16.4732 44.4525C17.2768 43.7059 17.9911 42.8715 18.6161 41.8613Z" fill="white"/>
<path d="M39.6875 41.9053C39.0625 42.8715 37.9018 43.7059 37.0089 44.4086C36.7857 44.6282 36.6964 44.8039 36.6964 45.1113C36.6964 48.9762 36.6964 52.8411 36.6964 56.7059C36.6964 56.7938 36.6964 56.8816 36.6964 56.9255H2.99107C2.99107 56.8816 2.99107 56.7938 2.99107 56.7059C2.99107 52.6654 2.99107 48.6249 2.99107 44.5404C2.99107 42.7836 3.66071 41.2465 4.95536 40.0167C7.27679 37.7769 10.9821 37.6451 13.6161 39.5336C13.8393 39.7093 13.9732 39.7093 14.1518 39.4458C14.5536 38.787 14.8661 38.0843 15 37.3377C15.0446 37.0303 15 36.8546 14.7321 36.7228C9.19643 33.3411 1.83036 36.2397 0.267857 42.4762C0.178571 42.7836 0.133929 43.0032 0.0892857 43.3107C0.0446429 43.4863 0 43.662 0 43.8377V59.9559H39.6875V43.662C39.6875 41.9053 39.6875 43.662 39.6875 41.9053Z" fill="white"/>
<path d="M2.99107 56.9697H36.6964H39.6875V60.0001H0V56.9697H2.99107Z" fill="white"/>
</svg>
