<?xml version="1.0" encoding="utf-8"?>
<!-- Generator: Adobe Illustrator 24.1.2, SVG Export Plug-In . SVG Version: 6.00 Build 0)  -->
<svg version="1.1" id="Layer_1" xmlns="http://www.w3.org/2000/svg" xmlns:xlink="http://www.w3.org/1999/xlink" x="0px" y="0px"
	 viewBox="0 0 160 80" style="enable-background:new 0 0 160 80;" xml:space="preserve">
<style type="text/css">
	.st0{fill:#FF5F00;}
	.st1{fill:#EB001B;}
	.st2{fill:#F79E1B;}
</style>
<path class="st0" d="M92.9,16.4H66.6v47.2h26.4V16.4z"/>
<path class="st1" d="M68.2,40c0-4.5,1-9,3-13.1c2-4.1,4.9-7.7,8.5-10.5c-4.4-3.5-9.8-5.6-15.4-6.2C58.7,9.6,53,10.6,48,13
	s-9.4,6.3-12.4,11.1C32.6,28.9,31,34.4,31,40c0,5.6,1.6,11.1,4.6,15.9c3,4.8,7.3,8.6,12.4,11.1c5.1,2.5,10.8,3.4,16.4,2.8
	c5.6-0.6,11-2.8,15.4-6.2c-3.6-2.8-6.5-6.4-8.5-10.5C69.3,49,68.2,44.5,68.2,40z"/>
<path class="st2" d="M128.5,40c0,5.6-1.6,11.1-4.6,15.9c-3,4.8-7.3,8.6-12.4,11.1c-5.1,2.5-10.8,3.4-16.4,2.8
	c-5.6-0.6-11-2.8-15.4-6.2c3.6-2.8,6.5-6.4,8.5-10.5c2-4.1,3-8.6,3-13.1s-1-9-3-13.1c-2-4.1-4.9-7.7-8.5-10.5
	c4.4-3.5,9.8-5.6,15.4-6.2c5.6-0.6,11.3,0.4,16.4,2.8c5.1,2.5,9.4,6.3,12.4,11.1C126.9,28.9,128.5,34.4,128.5,40z"/>
<path class="st2" d="M125.6,58.6v-1h0.4v-0.2h-1v0.2h0.4v1H125.6z M127.6,58.6v-1.2h-0.3l-0.4,0.8l-0.4-0.8h-0.3v1.2h0.2v-0.9
	l0.3,0.8h0.2l0.3-0.8v0.9H127.6z"/>
</svg>
