<svg width="160" height="80" viewBox="0 0 160 80" fill="none" xmlns="http://www.w3.org/2000/svg">
<g clip-path="url(#clip0)">
<path d="M63.1405 55.7537C61.9962 55.7537 60.8773 55.7537 59.6313 55.7537C59.021 51.4562 57.5715 41.7677 57.5715 41.7677C57.5715 46.0652 57.5715 51.4053 57.5715 55.7792C55.8423 55.7792 54.2912 55.7792 52.6383 55.7792C52.6383 46.8027 52.6383 37.8262 52.6383 28.7734C54.9778 28.7734 57.3681 28.7734 59.8856 28.7734C60.3433 31.6469 60.9027 34.5713 61.3605 37.4956C61.7673 34.5967 62.3013 31.7486 62.7082 28.7734C65.124 28.7734 67.5143 28.7734 69.9809 28.7734C69.9809 39.3265 69.9809 49.8287 69.9809 60.5598C68.6586 58.5255 67.6415 56.4657 65.2003 55.7537C65.2003 51.3291 65.2003 45.8364 65.2003 41.3863C65.2511 41.3863 63.7508 51.2528 63.1405 55.7537Z" fill="white"/>
<path d="M124.984 59.3649C123.84 57.2289 122.238 55.8811 119.72 55.6777C119.72 52.2193 119.72 48.8881 119.72 45.5569C119.72 44.5143 119.39 43.8277 118.067 43.726C118.067 47.693 118.067 51.6345 118.067 55.7031C116.084 55.7031 114.304 55.7031 112.422 55.7031C112.422 46.7775 112.422 37.8265 112.422 28.5957C115.499 28.7483 118.576 28.85 121.627 29.1043C123.128 29.2314 123.992 30.4012 124.425 31.7743C125.264 34.3681 125.238 37.0382 124.73 39.6828C124.501 40.878 123.611 41.5391 122.187 41.768C122.695 42.0986 123.051 42.3274 123.407 42.5563C124.425 43.2683 124.984 44.26 124.984 45.4552C124.984 50.0579 124.984 54.7114 124.984 59.3649ZM118.118 33.5035C118.118 35.5379 118.118 37.4959 118.118 39.4539C119.186 39.4794 119.669 39.0216 119.695 38.1062C119.72 37.0127 119.746 35.8939 119.695 34.8004C119.644 33.9104 119.212 33.3764 118.118 33.5035Z" fill="white"/>
<path d="M146.192 28.748C148.099 28.748 149.879 28.748 151.736 28.748C151.736 31.9013 151.736 35.5376 151.736 38.6145L154.355 28.748C156.084 28.748 157.788 28.748 159.619 28.748L156.262 41.4372L160.026 55.8809L154.202 55.8555L151.812 45.3024C151.812 50.4899 151.812 55.6775 151.812 60.8905C150.439 58.5764 149.167 56.2624 146.192 55.8555C146.192 55.8046 146.243 28.748 146.192 28.748Z" fill="white"/>
<path d="M83.3313 23.8911C85.1113 26.3832 86.6625 28.7226 89.9937 28.7481C90.426 34.1136 90.8329 39.4792 91.2652 44.8193C91.3669 44.8193 91.4432 44.8447 91.5449 44.8447C91.9518 39.53 92.3841 34.1899 92.7909 28.7989C94.7998 28.7989 96.707 28.7989 98.7922 28.7989C97.8259 37.8008 96.8596 46.7773 95.8933 55.8301C93.0198 55.8301 90.1972 55.8301 87.2474 55.8301C85.9759 45.277 84.679 34.7748 83.3313 23.8911Z" fill="white"/>
<path d="M74.5327 28.6973C75.0158 28.6973 75.3464 28.6973 75.677 28.6973C77.9656 28.6973 80.2542 28.6973 82.6954 28.6973C83.6617 37.7246 84.628 46.7011 85.5943 55.7793C83.6363 55.7793 81.7545 55.7793 79.7965 55.7793L79.4405 51.202H77.4062C77.279 52.6515 77.1773 54.1772 77.0502 55.7793C74.1258 55.5758 72.4729 57.3813 70.8455 59.5428C72.0661 49.3203 73.2867 39.0978 74.5327 28.6973ZM79.5422 46.1925C79.1862 42.7087 78.7539 39.3775 78.3979 36.0209C78.1436 39.3775 77.7876 42.7341 77.5333 46.1925C78.1945 46.1925 78.7539 46.1925 79.5422 46.1925Z" fill="white"/>
<path d="M145.378 38.4108C143.446 38.4108 141.691 38.4108 139.758 38.4108C139.758 37.3682 139.758 36.3765 139.758 35.3593C139.758 34.9016 139.809 34.2405 139.606 33.8336C139.428 33.4267 139.301 33.1724 138.69 33.1724C137.953 33.147 137.826 33.7573 137.75 34.215C137.724 34.6473 137.699 35.0033 137.699 35.4611C137.699 40.1654 137.699 44.8698 137.699 49.5742C137.699 49.7014 137.699 49.8285 137.699 49.9557C137.75 50.7185 137.724 51.6848 138.69 51.7357C139.886 51.812 139.758 50.8202 139.758 50.0065C139.758 48.8876 139.758 48.0739 139.758 47.2602C141.03 46.6753 143.141 45.6073 145.277 42.8355C145.277 45.3021 145.378 47.8196 145.251 50.3371C145.048 53.8209 142.378 56.2367 138.868 56.3129C135.181 56.3892 132.486 54.304 132.359 50.6677C132.155 45.1241 132.155 39.5806 132.384 34.037C132.537 30.299 135.105 28.3155 138.868 28.3918C142.225 28.4426 144.743 30.833 145.048 34.2659C145.226 35.6391 145.277 36.9868 145.378 38.4108Z" fill="white"/>
<path d="M107.006 44.1581H105.327C105.327 46.1415 105.327 48.1758 105.327 50.2356C107.387 50.2356 109.447 50.2356 111.583 50.2356C111.583 52.1682 111.583 53.9737 111.583 55.8046C107.591 55.8046 103.675 55.8046 99.6568 55.8046C99.6568 46.8027 99.6568 37.8262 99.6568 28.7734C103.598 28.7734 107.54 28.7734 111.583 28.7734C111.583 30.4518 111.583 32.1301 111.583 33.9355C109.523 33.9355 107.54 33.9355 105.302 33.9355V39.0214C105.302 39.0214 110.846 38.9959 110.846 39.0214C108.862 40.4963 107.158 41.7931 107.006 44.1581Z" fill="white"/>
<path d="M125.849 60.7887C125.849 50.1339 125.849 39.4791 125.849 28.748C127.705 28.748 129.485 28.748 131.469 28.748C131.469 29.2821 131.469 29.7906 131.469 30.2738C131.469 38.284 131.469 47.4639 131.494 55.4741C127.502 56.4404 126.51 59.7207 125.849 60.7887Z" fill="white"/>
<path d="M23.1913 17C36.1093 17 46.6878 27.6039 46.3826 40.7508C46.1029 53.3636 35.6515 63.6624 22.6318 63.3827C9.99355 63.103 -0.305237 52.6516 -8.78214e-05 39.6319C0.305062 27.0445 10.5784 17 23.1913 17Z" fill="#AC2216"/>
<path d="M23.1912 40.9545C23.8269 40.1408 24.4118 39.3016 25.0475 38.5133C27.031 36.0467 29.2179 33.809 31.7608 31.9272C33.6171 30.554 35.6006 29.4352 37.8638 28.8249C38.3724 28.6977 38.881 28.6214 39.3895 28.4943C39.5421 28.4688 39.6184 28.5197 39.6947 28.6214C40.3304 29.6386 40.839 30.732 41.2459 31.8509C41.9325 33.7581 42.3139 35.7161 42.3902 37.7505C42.5428 41.0563 41.9325 44.2603 40.7373 47.3372C39.4913 50.5667 37.6604 53.4657 35.4989 56.1866C35.2192 56.5172 34.9649 56.8477 34.6343 57.1783C34.7106 56.8477 34.7869 56.4917 34.8886 56.1611C35.3717 54.2285 35.7278 52.2451 35.9312 50.2616C36.1601 48.1764 36.2363 46.1166 35.982 44.0315C35.804 42.5311 35.5243 41.0817 34.8123 39.7339C34.6343 39.4288 34.6343 39.1745 34.7614 38.8439C35.0666 38.1065 35.3463 37.369 35.9566 36.8096C35.9566 36.7842 35.9566 36.835 35.9566 36.8096C35.5752 36.9876 35.1683 37.1402 34.7869 37.369C33.0577 38.3353 31.532 39.5559 30.1079 40.9037C27.9719 42.938 26.1918 45.2521 24.7932 47.8713C24.2084 48.9901 23.6998 50.1345 23.2929 51.3296C23.2675 51.3805 23.2421 51.4568 23.1912 51.5839C22.0978 48.3544 20.4194 45.4809 18.2325 42.938C16.0456 40.3951 13.5536 38.2082 10.4766 36.7842C10.7564 37.2165 11.0361 37.6233 11.2904 38.0556C11.4938 38.4116 11.5955 38.8185 11.7481 39.1999C11.7735 39.2762 11.7735 39.3779 11.7481 39.4542C11.1124 40.5731 10.8072 41.7937 10.6038 43.0652C10.3241 44.6163 10.2732 46.2184 10.3241 47.795C10.4004 50.109 10.7309 52.3976 11.2141 54.6608C11.3921 55.4746 11.5955 56.2883 11.7735 57.102C11.7735 57.1275 11.7735 57.1529 11.799 57.2292C11.7481 57.2037 11.7227 57.1783 11.6972 57.1529C9.28148 54.254 7.22172 51.1516 5.79769 47.6424C4.98396 45.6081 4.42452 43.5229 4.17023 41.336C3.7125 37.3182 4.29737 33.4784 6.07741 29.842C6.28084 29.4352 6.53513 29.0537 6.764 28.6468C6.84028 28.5451 6.89114 28.4943 7.04372 28.5197C9.10347 28.8249 10.9852 29.6132 12.7653 30.6557C15.003 31.9781 16.9611 33.6564 18.7665 35.5127C20.394 37.191 21.8435 38.9711 23.1658 40.8783C23.1403 40.9037 23.1658 40.9291 23.1912 40.9545Z" fill="white"/>
</g>
<defs>
<clipPath id="clip0">
<rect width="160" height="80" fill="white"/>
</clipPath>
</defs>
</svg>
