<svg width="160" height="80" viewBox="0 0 160 80" fill="none" xmlns="http://www.w3.org/2000/svg">
<path d="M0 63.2976V17.1707L23.1024 40.1951L45.8146 17.0927V63.2976C45.8146 64.8585 43.4732 64.8585 43.4732 63.2976V22.7902L23.1024 43.4732L2.34146 22.7122V63.2976C2.34146 64.8585 0 64.8585 0 63.2976ZM51.8244 54.322C55.8049 59.0829 61.8927 62.1268 68.6049 62.1268C80.3122 62.1268 89.9122 52.9171 90.4585 41.3659H68.6049C67.0439 41.3659 67.0439 39.0244 68.6049 39.0244H92.8V40.1951C92.8 53.5415 81.9512 64.3902 68.6049 64.3902C62.1268 64.3902 56.1951 61.8146 51.9024 57.6781L51.8244 54.322ZM51.8244 22.7122C56.1951 18.5756 62.1268 16 68.6049 16C77.5805 16 85.4634 20.9171 89.6 28.1756C90.3805 29.5024 88.3512 30.6732 87.5707 29.3463C83.8244 22.7122 76.7219 18.3415 68.6049 18.3415C61.8927 18.3415 55.8829 21.3854 51.8244 26.1463V22.7122ZM112.156 17.1707L112.234 17.3268L134.946 62.7512C135.649 64.1561 133.541 65.1707 132.839 63.7659L112.156 22.4L91.4732 63.7659C90.7707 65.1707 88.7415 64.0781 89.3659 62.7512L112.078 17.3268V17.1707H112.156Z" fill="white"/>
<path d="M135.337 17.1707C133.854 17.1707 132.761 18.0292 132.761 19.356C132.761 20.6828 133.854 21.5414 135.337 21.5414H157.424C158.907 21.5414 160 20.6828 160 19.356C160 18.0292 158.907 17.1707 157.424 17.1707H135.337Z" fill="#70C82F"/>
<path d="M135.337 25.9121C133.854 25.9121 132.761 26.7706 132.761 28.0975C132.761 29.4243 133.854 30.2828 135.337 30.2828H157.424C158.907 30.2828 160 29.4243 160 28.0975C160 26.7706 158.907 25.9121 157.424 25.9121H135.337Z" fill="#70C82F"/>
<path d="M135.337 34.6538C133.854 34.6538 132.761 35.5123 132.761 36.8392C132.761 38.166 133.854 39.0245 135.337 39.0245H157.424C158.907 39.0245 160 38.166 160 36.8392C160 35.5123 158.907 34.6538 157.424 34.6538H135.337Z" fill="#70C82F"/>
</svg>
