<svg width="160" height="80" viewBox="0 0 160 80" fill="none" xmlns="http://www.w3.org/2000/svg">
<path d="M20.4855 20.1464C9.72377 20.1464 1 28.8701 1 39.6676C1 41.5983 1.28603 43.4932 1.85808 45.3166C2.21561 44.816 2.57314 44.3155 2.89492 43.7792C4.25354 41.777 5.5764 39.7749 6.89927 37.7369L7.8646 36.1995C8.18638 35.699 8.50816 35.1627 8.79419 34.6622C9.43774 33.6253 10.0455 32.5885 10.6176 31.5516C10.9036 31.0153 11.1896 30.5148 11.5114 29.9785C11.8332 29.4422 12.0835 28.9417 12.3695 28.4054C12.6555 27.8691 12.9416 27.3328 13.1918 26.8322L13.9784 25.2233L14.0499 25.1161C14.4789 24.258 15.5158 23.9005 16.4096 24.2937C17.0532 24.6513 17.4464 25.3306 17.4107 26.0814C17.4107 27.011 17.2319 27.9763 17.1604 28.9059C17.0889 29.8355 17.0532 30.8008 16.9817 31.7661C16.9102 33.6611 16.8744 35.5917 16.8744 37.4867C16.8744 39.3816 16.9817 41.2765 17.1604 43.0999C17.2677 43.9937 17.4107 44.8876 17.5895 45.7814C17.7325 46.5679 17.9827 47.3545 18.3403 48.0696C18.4475 48.2841 18.5905 48.4986 18.7693 48.6774C18.8766 48.7489 18.8051 48.7131 18.8766 48.7131C18.9481 48.7131 18.9123 48.7131 18.9481 48.7131L19.0196 48.6774H19.0553L19.1626 48.6416C19.1984 48.6059 19.2699 48.5701 19.3056 48.5344C19.5916 48.3199 19.8419 48.0696 20.0922 47.7836C20.6642 47.1042 21.2005 46.4249 21.6653 45.6741C22.1659 44.9233 22.6307 44.101 23.0954 43.2787C24.025 41.634 24.8831 39.9536 25.7054 38.2375C26.0987 37.3794 26.5277 36.5213 26.921 35.6275C27.3143 34.7694 27.7076 33.8756 28.0651 33.0175C28.4227 32.1237 29.4595 31.6946 30.3533 32.0522C30.9254 32.2667 31.3187 32.7672 31.4259 33.375C31.4259 33.5896 31.4617 33.8756 31.4974 34.1616L31.6047 34.9839C31.6762 35.5202 31.7477 36.0565 31.855 36.5928C32.0337 37.6654 32.2483 38.738 32.5343 39.7749C32.8203 40.8117 33.1778 41.8485 33.6069 42.8496C34.0359 43.8507 34.5722 44.7803 35.2515 45.6384C35.3945 45.8529 35.3588 46.1389 35.18 46.2819C35.0012 46.4249 34.751 46.4249 34.608 46.2819C33.7141 45.4954 32.9276 44.6015 32.2483 43.6362C31.5689 42.6709 30.9969 41.634 30.4606 40.5972C30.1031 39.8821 29.817 39.167 29.4953 38.452C29.2807 38.881 29.102 39.3101 28.8875 39.7033C28.0294 41.4553 27.1713 43.2072 26.1702 44.9591C25.6697 45.8886 25.1691 46.7467 24.5971 47.6048C24.025 48.4986 23.3815 49.3567 22.7022 50.1433C22.3089 50.6081 21.8441 51.0013 21.3793 51.3946C21.2363 51.5019 21.0933 51.6091 20.9145 51.6806L20.5927 51.8594L20.414 51.9309H20.3782L20.2709 51.9667H20.1994L20.0564 52.0024C19.9492 52.0382 19.8777 52.0739 19.7704 52.0739C19.5559 52.1097 19.3414 52.1454 19.1268 52.1812C18.6621 52.2169 18.1615 52.1454 17.7325 52.0024C17.3034 51.8594 16.9102 51.6091 16.5526 51.3231C16.0163 50.8583 15.5515 50.2863 15.2298 49.6427C14.7292 48.6416 14.3717 47.569 14.1572 46.4607C13.9426 45.4596 13.7996 44.4228 13.6924 43.4217C13.4778 41.4195 13.4063 39.4531 13.3706 37.4509C13.3706 36.5213 13.3706 35.556 13.3706 34.6264C13.0131 35.3057 12.6555 35.985 12.298 36.6286C12.012 37.1649 11.7259 37.7012 11.4042 38.2375L10.5103 39.8464C9.29473 41.9915 8.04337 44.101 6.7205 46.2104C5.89818 47.569 5.04011 48.9277 4.18203 50.2505C10.0813 59.2603 22.1659 61.763 31.1757 55.8638C40.1855 49.9645 42.6882 37.8799 36.7889 28.8701C33.1778 23.4714 27.064 20.1464 20.4855 20.1464Z" fill="url(#paint0_linear)"/>
<path d="M56.8463 46.6753V33.7327H56.5246L52.3772 46.7111H51.3404L47.193 33.7327H46.8712V46.6753H45.1551V32.3741H48.1941L51.8767 43.7436L55.4877 32.3741H58.5625V46.7111H56.8463V46.6753Z" fill="url(#paint1_linear)"/>
<path d="M61.0651 34.2332V32.3741H62.9243V34.2332H61.0651ZM61.1009 46.6753V35.6276H62.9243V46.6753H61.1009Z" fill="url(#paint2_linear)"/>
<path d="M73.9721 43.0642C73.9721 45.2094 73.1498 46.854 69.5745 46.854C65.0696 46.854 64.8193 44.2798 64.8193 41.1335C64.8193 37.9873 65.0696 35.413 69.5745 35.413C73.1498 35.413 73.9721 37.0577 73.9721 39.2029H72.256C72.256 37.451 71.6482 36.5929 69.5745 36.5929C66.7858 36.5929 66.6427 38.0945 66.6427 41.0978C66.6427 44.101 66.7858 45.6027 69.5745 45.6027C71.6482 45.6027 72.256 44.7446 72.256 42.9927L73.9721 43.0642Z" fill="url(#paint3_linear)"/>
<path d="M77.5115 36.8073C78.3696 36.271 79.478 35.556 80.5148 35.5202C80.7293 35.4845 80.9438 35.4845 81.1584 35.4845C81.4444 35.4845 81.6947 35.4845 82.0164 35.5202L81.8734 36.8431C81.5874 36.8073 81.3371 36.8073 81.0869 36.8073C80.8723 36.8073 80.6578 36.8073 80.4075 36.8431C79.4422 36.8788 78.4054 37.5939 77.6546 38.0229V46.711H75.8311V35.6275H77.2613L77.5115 36.8073Z" fill="url(#paint4_linear)"/>
<path d="M92.242 41.1692C92.242 44.3155 91.9917 46.8898 87.4153 46.8898C82.8389 46.8898 82.5886 44.3155 82.5886 41.1692C82.5886 38.023 82.8389 35.4487 87.4153 35.4487C91.9917 35.4487 92.242 38.023 92.242 41.1692ZM84.412 41.1692C84.412 44.1725 84.555 45.6741 87.4153 45.6741C90.2755 45.6741 90.4186 44.2083 90.4186 41.1692C90.4186 38.1302 90.2755 36.6644 87.4153 36.6644C84.555 36.6644 84.412 38.1302 84.412 41.1692Z" fill="url(#paint5_linear)"/>
<path d="M95.5669 49.2495C96.2462 49.321 97.1401 49.3567 98.1412 49.3567C100.93 49.3567 101.287 48.6059 101.323 45.6741C100.501 46.1389 99.3568 46.6752 98.1769 46.711C94.1368 46.7825 93.8865 44.6016 93.8865 41.1692C93.8865 37.7369 94.1011 35.4487 97.9981 35.4487C99.321 35.4487 100.537 36.0565 101.502 36.6644L101.681 35.6633H103.111V45.4596C103.111 49.4282 102.217 50.6438 98.5702 50.6438C97.4976 50.6438 96.425 50.5366 95.3882 50.3936L95.5669 49.2495ZM101.323 37.6654C100.537 37.1649 99.5355 36.6644 98.5702 36.6644C95.8887 36.6644 95.7099 38.166 95.7099 41.1692C95.7099 44.101 95.8887 45.4954 98.5702 45.4954C99.5355 45.4954 100.572 44.9591 101.323 44.5658V37.6654Z" fill="url(#paint6_linear)"/>
<path d="M113.014 46.6752L112.836 45.6741C111.942 46.2462 110.762 46.8898 109.475 46.8898C105.435 46.9613 105.184 44.6731 105.184 41.1692C105.184 37.6654 105.399 35.4487 109.403 35.4487C110.726 35.4487 111.906 36.0565 112.8 36.5928L112.979 35.6275H114.409V46.6752H113.014ZM112.657 37.5939C111.906 37.1649 110.869 36.6644 109.904 36.6644C107.222 36.6644 107.044 38.166 107.044 41.1692C107.044 44.1725 107.222 45.6741 109.904 45.6741C110.869 45.6741 111.87 45.1378 112.657 44.6731V37.5939Z" fill="url(#paint7_linear)"/>
<path d="M118.27 36.5929C119.093 36.0924 120.201 35.4846 121.381 35.4488C123.24 35.3773 124.206 35.8779 124.67 36.6644C125.528 36.1281 126.672 35.4846 127.924 35.4488C131.714 35.3416 131.964 37.2722 131.964 39.9537V46.6753H130.141V40.061C130.141 37.7728 129.998 36.6644 127.531 36.6644C126.637 36.6644 125.707 37.2007 124.956 37.6655C125.135 38.4521 125.207 39.2744 125.171 40.0967V46.7111H123.598V40.061C123.598 37.7728 123.455 36.6644 120.988 36.6644C120.13 36.6644 119.2 37.2007 118.485 37.594V46.6753H116.662V35.6276H118.092L118.27 36.5929Z" fill="url(#paint8_linear)"/>
<path d="M134.216 34.2332V32.3741H136.075V34.2332H134.216ZM134.252 46.6753V35.6276H136.075V46.6753H134.252Z" fill="url(#paint9_linear)"/>
<path d="M139.937 36.5928C140.831 36.0923 142.01 35.4845 143.298 35.4487C147.338 35.3415 147.588 37.2722 147.588 39.9536V46.6752H145.765V40.0609C145.765 37.7727 145.586 36.6644 142.904 36.6644C141.939 36.6644 140.902 37.2007 140.151 37.6297V46.711H138.328V35.6275H139.758L139.937 36.5928Z" fill="url(#paint10_linear)"/>
<path d="M151.127 49.2495C151.807 49.321 152.7 49.3567 153.702 49.3567C156.49 49.3567 156.848 48.6059 156.884 45.6741C156.061 46.1389 154.917 46.6752 153.737 46.711C149.697 46.7825 149.447 44.6016 149.447 41.1692C149.447 37.7369 149.661 35.4487 153.559 35.4487C154.881 35.4487 156.097 36.0565 157.062 36.6644L157.241 35.6633H158.671V45.4596C158.671 49.4282 157.777 50.6438 154.131 50.6438C153.058 50.6438 151.985 50.5366 150.949 50.3936L151.127 49.2495ZM156.848 37.6654C156.061 37.1649 155.06 36.6644 154.095 36.6644C151.413 36.6644 151.235 38.166 151.235 41.1692C151.235 44.101 151.413 45.4954 154.095 45.4954C155.06 45.4954 156.097 44.9591 156.848 44.5658V37.6654Z" fill="url(#paint11_linear)"/>
<defs>
<linearGradient id="paint0_linear" x1="-2.0279" y1="45.0646" x2="155.286" y2="7.16623" gradientUnits="userSpaceOnUse">
<stop stop-color="#21E418"/>
<stop offset="0.3" stop-color="#31B6E9"/>
<stop offset="0.9757" stop-color="#21E418"/>
</linearGradient>
<linearGradient id="paint1_linear" x1="-0.333413" y1="52.0987" x2="156.98" y2="14.2003" gradientUnits="userSpaceOnUse">
<stop stop-color="#21E418"/>
<stop offset="0.3" stop-color="#31B6E9"/>
<stop offset="0.9757" stop-color="#21E418"/>
</linearGradient>
<linearGradient id="paint2_linear" x1="0.221963" y1="54.4042" x2="157.536" y2="16.5059" gradientUnits="userSpaceOnUse">
<stop stop-color="#21E418"/>
<stop offset="0.3" stop-color="#31B6E9"/>
<stop offset="0.9757" stop-color="#21E418"/>
</linearGradient>
<linearGradient id="paint3_linear" x1="1.00836" y1="57.6681" x2="158.322" y2="19.7698" gradientUnits="userSpaceOnUse">
<stop stop-color="#21E418"/>
<stop offset="0.3" stop-color="#31B6E9"/>
<stop offset="0.9757" stop-color="#21E418"/>
</linearGradient>
<linearGradient id="paint4_linear" x1="1.40624" y1="59.3204" x2="158.72" y2="21.422" gradientUnits="userSpaceOnUse">
<stop stop-color="#21E418"/>
<stop offset="0.3" stop-color="#31B6E9"/>
<stop offset="0.9757" stop-color="#21E418"/>
</linearGradient>
<linearGradient id="paint5_linear" x1="1.99024" y1="61.7439" x2="159.304" y2="23.8456" gradientUnits="userSpaceOnUse">
<stop stop-color="#21E418"/>
<stop offset="0.3" stop-color="#31B6E9"/>
<stop offset="0.9757" stop-color="#21E418"/>
</linearGradient>
<linearGradient id="paint6_linear" x1="3.02275" y1="66.0304" x2="160.337" y2="28.132" gradientUnits="userSpaceOnUse">
<stop stop-color="#21E418"/>
<stop offset="0.3" stop-color="#31B6E9"/>
<stop offset="0.9757" stop-color="#21E418"/>
</linearGradient>
<linearGradient id="paint7_linear" x1="3.2896" y1="67.1386" x2="160.604" y2="29.2402" gradientUnits="userSpaceOnUse">
<stop stop-color="#21E418"/>
<stop offset="0.3" stop-color="#31B6E9"/>
<stop offset="0.9757" stop-color="#21E418"/>
</linearGradient>
<linearGradient id="paint8_linear" x1="4.01347" y1="70.1412" x2="161.327" y2="32.2429" gradientUnits="userSpaceOnUse">
<stop stop-color="#21E418"/>
<stop offset="0.3" stop-color="#31B6E9"/>
<stop offset="0.9757" stop-color="#21E418"/>
</linearGradient>
<linearGradient id="paint9_linear" x1="4.23601" y1="71.0635" x2="161.549" y2="33.1654" gradientUnits="userSpaceOnUse">
<stop stop-color="#21E418"/>
<stop offset="0.3" stop-color="#31B6E9"/>
<stop offset="0.9757" stop-color="#21E418"/>
</linearGradient>
<linearGradient id="paint10_linear" x1="5.03518" y1="74.3825" x2="162.349" y2="36.4842" gradientUnits="userSpaceOnUse">
<stop stop-color="#21E418"/>
<stop offset="0.3" stop-color="#31B6E9"/>
<stop offset="0.9757" stop-color="#21E418"/>
</linearGradient>
<linearGradient id="paint11_linear" x1="6.06946" y1="78.6763" x2="163.383" y2="40.778" gradientUnits="userSpaceOnUse">
<stop stop-color="#21E418"/>
<stop offset="0.3" stop-color="#31B6E9"/>
<stop offset="0.9757" stop-color="#21E418"/>
</linearGradient>
</defs>
</svg>
