<svg width="160" height="80" viewBox="0 0 160 80" fill="none" xmlns="http://www.w3.org/2000/svg">
<g clip-path="url(#clip0_6139_40)">
<path d="M45.034 34.4493C45.1082 34.5495 45.1754 34.6548 45.2353 34.7644C45.0728 34.0726 44.824 33.4047 44.4949 32.7768C41.7822 27.7281 34.2345 29.2379 26.7073 34.9618C24.7246 36.4663 22.9433 38.2263 21.4082 40.1975C22.3197 40.7544 23.1898 41.3782 24.0117 42.0639C24.5125 42.4342 25.0433 42.7609 25.5983 43.0404C26.076 42.4794 26.5742 41.9277 27.0929 41.3852C33.7978 34.3766 42.3316 30.7996 45.034 34.4493Z" fill="url(#paint0_linear_6139_40)"/>
<path d="M45.5083 38.7327L45.6482 38.6912C45.8905 37.1121 45.7915 35.7444 45.2354 34.7644C45.5324 36.0642 45.6245 37.4036 45.5083 38.7327Z" fill="url(#paint1_linear_6139_40)"/>
<g style="mix-blend-mode:soft-light">
<g style="mix-blend-mode:soft-light">
<path d="M45.2184 34.7402C45.1585 34.6306 45.0912 34.5253 45.017 34.4251L44.9863 34.3904C45.0477 34.5809 45.1023 34.7748 45.1501 34.9756C45.2332 35.1174 45.3051 35.2656 45.3651 35.4189C45.3241 35.1869 45.2729 34.9618 45.2184 34.7402Z" fill="#E7E6E6"/>
</g>
<g style="mix-blend-mode:soft-light">
<path d="M26.6323 35.2699C34.139 29.5045 41.6731 27.9497 44.4096 32.9845C44.6481 33.4263 44.8446 33.8901 44.9965 34.3696C45.0049 34.3827 45.0153 34.3944 45.0272 34.4042C45.1002 34.5053 45.1674 34.6105 45.2285 34.7194C45.0623 34.0288 44.8112 33.3622 44.4813 32.7352C41.7516 27.7004 34.2039 29.2552 26.7005 35.0206C23.9481 37.1185 21.605 39.7183 19.7909 42.6871C19.8067 42.7047 19.8215 42.7232 19.8352 42.7425C21.6344 39.853 23.9378 37.3207 26.6323 35.2699Z" fill="#E7E6E6"/>
</g>
</g>
<path d="M24.4895 40.2632C23.807 39.6676 23.0905 39.1067 22.4422 38.4626C21.1361 40.029 19.6938 41.4731 18.1326 42.7772C11.4175 48.4076 4.18028 50.274 1.97262 46.9324C1.93849 46.8805 1.90779 46.8251 1.87708 46.7732C1.45389 46.1377 1.13686 45.4357 0.938731 44.6955C0.570714 43.29 0.594341 41.8083 1.00698 40.4156C-0.0166719 42.5209 -0.303294 44.602 0.348429 46.3819C2.05451 51.0843 9.67728 51.8772 17.3546 48.1513C20.9306 46.42 23.8855 43.996 25.8543 41.444C25.3971 41.0493 24.9501 40.6406 24.4895 40.2632Z" fill="url(#paint2_linear_6139_40)"/>
<path d="M8.21685 33.2131C7.85743 33.2442 7.50261 33.3162 7.15908 33.4278L7.17955 33.4798L7.11813 33.4486C5.63725 34.522 5.58607 34.529 7.17955 33.4798C6.24446 34.0698 5.36798 34.7506 4.56242 35.5124C3.25369 36.805 2.14373 38.2897 1.26969 39.917C1.1787 40.0901 1.08998 40.2633 1.00354 40.4364C0.590903 41.8292 0.567279 43.3108 0.935296 44.7164C1.13343 45.4565 1.45046 46.1585 1.87364 46.794C1.29333 45.7518 0.984469 44.5767 0.976241 43.3797C1.00354 40.4156 3.47735 36.4958 5.15272 35.0345C5.87706 34.3513 6.80014 33.9249 7.7835 33.8191C7.89292 33.5936 8.03947 33.3886 8.21685 33.2131Z" fill="url(#paint3_linear_6139_40)"/>
<path style="mix-blend-mode:multiply" opacity="0.71" d="M14.6215 45.3777C17.7675 43.397 20.5996 40.6649 21.4833 39.4911L21.9917 38.9232C22.391 38.5423 22.8857 37.7701 23.2781 37.3996C24.2813 36.8698 26.1443 35.547 28.0961 34.2312C28.9355 33.6667 29.7817 33.1092 30.2594 32.8461L32.5524 36.6966C31.1227 37.6385 27.4614 40.7723 26.1682 41.8907C25.7622 42.237 26.2467 41.4683 25.8645 41.8353L23.1348 44.325C21.2513 45.9425 19.1598 47.2927 16.9178 48.3384L14.6215 45.3777Z" fill="url(#paint4_linear_6139_40)"/>
<path d="M43.9832 32.0115C49.5689 42.746 36.8552 47.7739 30.1844 40.3706C27.3864 36.8005 27.0623 34.9999 25.3084 33.1715C17.8017 25.7786 7.00899 30.3736 1.39258 39.6399C2.13984 38.7327 6.88615 33.2373 13.789 34.0996C19.1256 34.7921 19.9957 41.7176 27.888 45.8002C36.8449 50.4541 52.9469 44.1692 43.9832 32.0115Z" fill="url(#paint5_linear_6139_40)"/>
<g style="mix-blend-mode:darken" opacity="0.57">
<path d="M28.1269 45.537C20.2345 41.444 19.361 34.5116 14.0278 33.8364C7.44236 32.9915 2.81888 37.964 1.76111 39.2244C3.16009 37.6593 7.60955 33.3378 13.789 34.1238C19.1256 34.7991 19.9957 41.7418 27.888 45.821C33.4362 48.695 41.7175 47.3792 45.0955 43.0715C41.581 47.1506 33.5454 48.3453 28.1269 45.537Z" fill="#1887B2"/>
</g>
<g style="mix-blend-mode:soft-light">
<path d="M44.2561 32.3613C44.1673 32.2332 44.0786 32.1051 43.9831 31.9769C49.4425 42.4829 37.3703 47.5315 30.604 40.7757C37.2816 47.7359 49.4937 42.8049 44.2561 32.3613Z" fill="white"/>
</g>
<path d="M72.6282 30.2802C72.5344 30.2412 72.4374 30.2111 72.3382 30.1901C71.5534 29.9858 69.6084 29.92 68.9806 30.4394L68.9465 30.4706C68.8427 30.5691 68.7582 30.6866 68.6974 30.8169C66.8738 33.2731 65.1878 35.8315 63.6474 38.4799L58.9489 30.8307L58.9318 30.7926C58.8695 30.6615 58.7825 30.5438 58.6759 30.4464L58.6418 30.4187C58.0958 29.9581 56.4614 29.972 55.5708 30.1278C55.3595 30.1504 55.1519 30.2004 54.9532 30.2767C54.7807 30.3515 54.6332 30.4753 54.5285 30.6332C54.4238 30.7911 54.3663 30.9763 54.3629 31.1666V47.3064C54.3629 47.6285 54.5096 48.1929 55.4923 48.3453C55.8192 48.39 56.1487 48.4108 56.4785 48.4076C57.1609 48.4076 58.5974 48.4076 58.5974 47.3064V37.9986C58.9045 38.4903 59.488 39.453 60.1329 40.6615C61.0291 42.3443 61.6308 43.4443 61.9379 43.9614L62.1188 44.3077C62.2802 44.5568 62.4862 44.7729 62.7261 44.9449C63.2395 45.2539 63.8504 45.3507 64.4322 45.215C64.5761 45.1757 64.7107 45.1074 64.828 45.0141C65.0906 44.8356 65.3214 44.6132 65.5104 44.3562L65.9199 43.629C66.1178 43.2758 66.5819 42.4021 67.3121 41.0077C68.0423 39.6134 68.5984 38.5965 68.9806 37.9571C68.9806 37.9571 68.9806 39.7057 68.9806 39.8062V47.3168C68.9806 48.418 70.4103 48.418 71.0962 48.418C71.782 48.418 73.2151 48.418 73.2151 47.3168V31.1701C73.212 30.9802 73.155 30.7952 73.0509 30.6373C72.9468 30.4795 72.8001 30.3554 72.6282 30.2802Z" fill="#2D9DD3"/>
<path d="M77.7703 48.6049C77.0879 48.6049 75.6514 48.6049 75.6514 47.5038V37.1987C75.6514 36.0975 77.0811 36.0975 77.7703 36.0975C78.4596 36.0975 79.8858 36.0975 79.8858 37.1987V47.5038C79.8858 48.6049 78.4562 48.6049 77.7703 48.6049Z" fill="#2D9DD3"/>
<path d="M84.523 48.605C83.8406 48.605 82.4143 48.605 82.4143 47.5038V31.3605C82.4143 30.3217 83.5983 30.2905 84.3797 30.2663H93.2513C93.8894 30.2663 94.6367 30.7961 94.6367 32.2885C94.6367 33.781 93.8894 34.3108 93.2513 34.3108H86.6283V37.3822H92.371C93.0091 37.3822 93.7563 37.912 93.7563 39.4045C93.7563 40.8969 93.0091 41.4267 92.371 41.4267H86.6283V47.5038C86.6283 48.605 85.2055 48.605 84.523 48.605Z" fill="#2D9DD3"/>
<path d="M116.321 48.605C114.994 48.605 114.615 48.2795 114.441 48.0371L108.255 38.7604V47.483C108.255 48.6015 106.832 48.6015 106.149 48.6015C105.467 48.6015 104.041 48.6015 104.041 47.483V31.3813C104.043 31.1799 104.107 30.9843 104.222 30.8203C104.337 30.6564 104.499 30.5319 104.685 30.4637C105.122 30.2801 107.347 30.0551 107.982 30.6957L108.087 30.8273L114.263 40.1005V31.3813C114.263 30.2663 115.741 30.2663 116.372 30.2663C117.003 30.2663 118.477 30.2663 118.477 31.3813V47.483C118.47 47.7086 118.39 47.9256 118.251 48.1011C118.111 48.2767 117.919 48.4013 117.703 48.4561C117.25 48.565 116.786 48.615 116.321 48.605Z" fill="#2D9DD3"/>
<path d="M123.459 48.605C122.777 48.605 121.344 48.605 121.344 47.5038V31.3606C121.344 30.2594 122.773 30.2594 123.459 30.2594C124.145 30.2594 125.578 30.2594 125.578 31.3606V47.5038C125.578 48.605 124.148 48.605 123.459 48.605Z" fill="#2D9DD3"/>
<path d="M98.9803 48.605C98.2979 48.605 96.8647 48.605 96.8647 47.5038V31.3606C96.8647 30.2594 98.2944 30.2594 98.9803 30.2594C99.6661 30.2594 101.096 30.2594 101.096 31.3606V47.5038C101.089 48.605 99.6661 48.605 98.9803 48.605Z" fill="#2D9DD3"/>
<path d="M135.153 48.605C134.47 48.605 133.047 48.605 133.047 47.5038V34.5428H128.953C127.864 34.5428 127.864 33.0954 127.864 32.4028C127.864 31.7103 127.864 30.2663 128.953 30.2663H141.353C142.438 30.2663 142.438 31.7103 142.438 32.4028C142.438 33.0954 142.438 34.5428 141.353 34.5428H137.258V47.5038C137.258 48.605 135.838 48.605 135.153 48.605Z" fill="#2D9DD3"/>
<path d="M152.074 48.6188C151.548 48.6188 149.958 48.6188 149.958 47.4449V40.8657L144.157 31.686V31.4298C144.162 31.1998 144.241 30.9778 144.383 30.7986C144.525 30.6194 144.722 30.493 144.942 30.4394C145.502 30.249 148.03 30.0481 148.672 30.9173L148.696 30.9519L152.077 36.2741L155.489 30.8965C156.172 30.0412 158.717 30.2594 159.243 30.4498C159.456 30.5081 159.645 30.6351 159.782 30.8118C159.919 30.9885 159.995 31.2053 160 31.4298V31.6895L154.199 40.8692V47.4484C154.189 48.6188 152.613 48.6188 152.074 48.6188Z" fill="#2D9DD3"/>
<path d="M78.2651 30.4152H77.1289C76.2111 30.4152 75.4672 31.1702 75.4672 32.1016V33.2858C75.4672 34.2172 76.2111 34.9722 77.1289 34.9722H78.2651C79.1829 34.9722 79.9269 34.2172 79.9269 33.2858V32.1016C79.9269 31.1702 79.1829 30.4152 78.2651 30.4152Z" fill="#2D9DD3"/>
</g>
<defs>
<linearGradient id="paint0_linear_6139_40" x1="19.8314" y1="36.2441" x2="45.7829" y2="36.5119" gradientUnits="userSpaceOnUse">
<stop offset="0.01" stop-color="#FFA220"/>
<stop offset="0.04" stop-color="#FFA61C"/>
<stop offset="0.34" stop-color="#FFC000"/>
<stop offset="0.61" stop-color="#FDC200"/>
<stop offset="0.74" stop-color="#F6C900"/>
<stop offset="0.75" stop-color="#F5CB00"/>
<stop offset="0.78" stop-color="#F3C200"/>
<stop offset="0.84" stop-color="#F0B100"/>
<stop offset="0.89" stop-color="#EFAB00"/>
<stop offset="1" stop-color="#B74600"/>
</linearGradient>
<linearGradient id="paint1_linear_6139_40" x1="19.829" y1="36.4761" x2="45.7806" y2="36.7439" gradientUnits="userSpaceOnUse">
<stop offset="0.01" stop-color="#FFA220"/>
<stop offset="0.04" stop-color="#FFA61C"/>
<stop offset="0.34" stop-color="#FFC000"/>
<stop offset="0.61" stop-color="#FDC200"/>
<stop offset="0.74" stop-color="#F6C900"/>
<stop offset="0.75" stop-color="#F5CB00"/>
<stop offset="0.78" stop-color="#F3C200"/>
<stop offset="0.84" stop-color="#F0B100"/>
<stop offset="0.89" stop-color="#EFAB00"/>
<stop offset="1" stop-color="#B74600"/>
</linearGradient>
<linearGradient id="paint2_linear_6139_40" x1="2.71405" y1="40.4217" x2="26.9776" y2="45.9208" gradientUnits="userSpaceOnUse">
<stop offset="0.01" stop-color="#C59252"/>
<stop offset="0.22" stop-color="#EBA31C"/>
<stop offset="0.34" stop-color="#FFAC00"/>
<stop offset="0.51" stop-color="#FDAC03"/>
<stop offset="0.63" stop-color="#F6AB0D"/>
<stop offset="0.75" stop-color="#E9AA1E"/>
<stop offset="0.78" stop-color="#E4A925"/>
<stop offset="0.8" stop-color="#E7AC21"/>
<stop offset="0.86" stop-color="#F4B70F"/>
<stop offset="0.93" stop-color="#FCBE04"/>
<stop offset="1" stop-color="#FFC000"/>
</linearGradient>
<linearGradient id="paint3_linear_6139_40" x1="7.7674" y1="33.7373" x2="2.23513" y2="45.9355" gradientUnits="userSpaceOnUse">
<stop offset="0.01" stop-color="#C59252"/>
<stop offset="0.22" stop-color="#EBA31C"/>
<stop offset="0.34" stop-color="#FFAC00"/>
<stop offset="0.51" stop-color="#FDAC03"/>
<stop offset="0.63" stop-color="#F6AB0D"/>
<stop offset="0.75" stop-color="#E9AA1E"/>
<stop offset="0.78" stop-color="#E4A925"/>
<stop offset="0.8" stop-color="#E7AC21"/>
<stop offset="0.86" stop-color="#F4B70F"/>
<stop offset="0.93" stop-color="#FCBE04"/>
<stop offset="1" stop-color="#FFC000"/>
</linearGradient>
<linearGradient id="paint4_linear_6139_40" x1="22.9187" y1="22.9748" x2="5.86316" y2="32.6775" gradientUnits="userSpaceOnUse">
<stop offset="0.11" stop-color="white"/>
<stop offset="0.61" stop-color="#878787"/>
<stop offset="0.95" stop-color="white"/>
</linearGradient>
<linearGradient id="paint5_linear_6139_40" x1="50.9235" y1="49.0655" x2="4.42076" y2="27.8926" gradientUnits="userSpaceOnUse">
<stop offset="0.01" stop-color="#001F2A"/>
<stop offset="0.16" stop-color="#004B5D"/>
<stop offset="0.2" stop-color="#00576E"/>
<stop offset="0.31" stop-color="#00799F"/>
<stop offset="0.42" stop-color="#0094C7"/>
<stop offset="0.52" stop-color="#00A8E3"/>
<stop offset="0.61" stop-color="#00B4F4"/>
<stop offset="0.67" stop-color="#00B8FA"/>
<stop offset="0.76" stop-color="#00B6F7"/>
<stop offset="0.83" stop-color="#01AEEC"/>
<stop offset="0.9" stop-color="#03A2DA"/>
<stop offset="0.97" stop-color="#0691C1"/>
<stop offset="1" stop-color="#0788B3"/>
</linearGradient>
<clipPath id="clip0_6139_40">
<rect width="160" height="80" fill="white"/>
</clipPath>
</defs>
</svg>
