<svg width="160" height="80" viewBox="0 0 160 80" fill="none" xmlns="http://www.w3.org/2000/svg">
<path d="M45.9677 31.5756C46.0079 31.6535 46.0637 31.7224 46.1316 31.7781C46.1995 31.8337 46.2782 31.8749 46.3627 31.899C46.4473 31.9232 46.5359 31.9298 46.6231 31.9185C46.7103 31.9072 46.7942 31.8782 46.8697 31.8333C50.1772 29.7805 53.4847 29.3939 56.9847 30.9912C62.1534 33.3527 64.3363 39.8227 61.6873 44.8393C58.885 50.1467 52.4594 52.0107 47.444 48.87C46.2954 48.1508 45.9406 48.3726 45.3934 49.5083C41.241 58.1031 33.0053 62.9609 23.6872 62.4125C14.7299 61.8851 7.00542 55.8735 3.93547 47.048C-0.667962 33.8112 8.74637 19.2198 22.6649 17.6794C32.858 16.5587 41.9085 22.6152 45.5618 30.7604C45.6941 31.0331 45.8234 31.2849 45.9677 31.5756ZM26.3573 32.4476C26.2424 32.5363 26.1012 32.5845 25.9559 32.5845C25.8105 32.5845 25.6693 32.5363 25.5544 32.4476C25.2748 32.2408 25.0313 32.058 24.7847 31.8842C22.4244 30.23 19.8505 29.7355 17.0963 30.6346C16.2123 30.9342 15.5568 30.9522 14.769 30.3349C13.7317 29.5377 12.562 29.6996 11.6028 30.5537C10.6437 31.4077 10.1776 32.5945 10.9173 33.6433C11.7412 34.8091 11.3022 35.816 11.218 36.9788C10.9894 40.3801 10.9474 43.7695 10.8872 47.1589C10.8541 49.0708 11.7472 50.1557 13.2416 50.2006C14.8592 50.2486 15.7462 49.2296 15.7643 47.2038C15.7913 44.5067 15.7192 41.8096 15.7973 39.1125C15.8695 36.6311 17.4691 35.0878 19.7423 35.1238C22.0154 35.1597 23.4828 36.808 23.4978 39.2833C23.5128 41.9804 23.4737 44.6775 23.4978 47.3746C23.4978 49.1487 24.4269 50.1736 25.9183 50.1886C27.4097 50.2036 28.3237 49.2207 28.3237 47.4226C28.3448 44.8274 28.1914 42.2202 28.3839 39.6309C28.4348 39.0001 28.5713 38.3791 28.7898 37.7849C29.6678 35.4384 32.5363 34.3985 34.5839 35.87C35.5882 36.5952 36.0873 37.707 36.0873 39.0585C36.1204 41.8545 36.0873 44.6506 36.0873 47.4496C36.0873 49.2147 37.0315 50.2156 38.5559 50.1916C40.0804 50.1676 40.9072 49.2237 40.9193 47.5125C40.9403 44.5157 40.9584 41.5189 40.8952 38.5221C40.811 34.4585 37.6899 31.0122 33.6548 30.3499C30.9006 29.8914 28.5312 30.6825 26.3573 32.4476ZM47.7898 40.2782C47.7837 40.9283 47.9082 41.5729 48.1559 42.1743C48.4036 42.7757 48.7695 43.3215 49.2321 43.7798C49.6947 44.2381 50.2446 44.5994 50.8495 44.8426C51.4543 45.0859 52.1019 45.206 52.7541 45.196C54.0426 45.1622 55.2694 44.6388 56.1834 43.7329C57.0973 42.827 57.6292 41.6072 57.6702 40.3232C57.7093 37.6051 55.3339 35.1957 52.6368 35.2286C51.323 35.2601 50.0753 35.8092 49.1668 36.7556C48.2583 37.702 47.7632 38.9687 47.7898 40.2782Z" fill="url(#paint0_linear)"/>
<path d="M70.4223 30.1101C70.4237 30.2122 70.4494 30.3126 70.4974 30.4029C70.5454 30.4932 70.6142 30.5708 70.6982 30.6293C70.7822 30.6879 70.879 30.7257 70.9805 30.7396C71.0821 30.7535 71.1855 30.7432 71.2822 30.7095C74.1207 29.7505 76.7727 29.7205 79.4006 30.9462C84.2717 33.2208 86.5749 39.0885 84.5122 43.9643C82.3353 49.1307 76.6735 51.66 71.5077 49.7121C70.5696 49.3585 69.9171 49.3525 69.1023 50.0657C67.8996 51.0936 66.4142 50.8749 65.3197 49.766C64.3275 48.7561 64.0899 47.1918 65.0702 46.098C65.882 45.1989 65.6084 44.5067 65.3167 43.5627C64.9201 42.3338 64.6964 41.0559 64.6522 39.7658C64.571 35.0788 64.6041 30.3888 64.6101 25.6988C64.6101 23.667 65.7076 22.4563 67.4906 22.4563C69.2737 22.4563 70.4012 23.712 70.4223 25.6988C70.4223 27.1373 70.4223 28.5398 70.4223 30.1101ZM79.99 40.3232C79.9915 39.0135 79.4869 37.7536 78.581 36.8049C77.6751 35.8563 76.4374 35.2918 75.1249 35.2286C72.4188 35.1417 70.1186 37.4492 70.1066 40.2902C70.1138 41.574 70.6212 42.8047 71.5216 43.7228C72.422 44.6408 73.6449 45.1744 74.9325 45.2109C76.2495 45.2176 77.5167 44.7096 78.4622 43.7958C79.4077 42.8821 79.9562 41.6353 79.99 40.3232Z" fill="url(#paint1_linear)"/>
<path d="M146.795 50.1378C145.292 50.1378 143.788 50.1648 142.285 50.1378C140.598 50.0989 139.6 49.2148 139.54 47.7883C139.477 46.263 140.409 45.289 142.207 45.2261C144.612 45.1422 147.018 45.1811 149.423 45.1631C149.874 45.1631 150.388 45.262 150.758 45.0822C150.936 44.9902 151.099 44.8731 151.242 44.7346C151.343 44.6418 151.423 44.5293 151.477 44.4043C151.532 44.2792 151.56 44.1443 151.56 44.0079C151.56 43.8715 151.532 43.7365 151.477 43.6115C151.423 43.4865 151.343 43.374 151.242 43.2812C151.11 43.1373 150.933 43.0405 150.74 43.0055C149.3 42.8706 147.839 42.9545 146.386 42.9395C142.36 42.8916 139.513 40.1645 139.519 36.3736C139.525 32.5826 142.336 29.8316 146.359 29.7806C148.512 29.7596 150.668 29.7537 152.824 29.7806C154.691 29.8016 155.93 30.9793 155.954 32.6905C155.978 34.4017 154.784 35.6154 152.896 35.6633C150.842 35.7143 148.786 35.6633 146.735 35.6963C145.938 35.7113 144.802 35.4625 144.79 36.7302C144.775 38.0967 145.956 37.815 146.81 37.86C148.657 37.9559 150.539 37.821 152.343 38.1357C153.793 38.3825 155.099 39.1611 156.002 40.3184C156.906 41.4757 157.342 42.9281 157.226 44.39C157.126 45.9062 156.466 47.3317 155.372 48.3903C154.278 49.4489 152.829 50.0652 151.306 50.1198C149.802 50.1947 148.299 50.1198 146.795 50.1198V50.1378Z" fill="url(#paint2_linear)"/>
<path d="M112.869 30.0323C118.399 30.0563 123.017 34.7253 122.936 40.2214C122.852 45.8554 118.348 50.4105 112.842 50.4105C110.132 50.3963 107.537 49.3154 105.622 47.4031C103.707 45.4908 102.628 42.902 102.619 40.2004C102.574 34.6084 107.223 30.0054 112.869 30.0323ZM117.68 40.2904C117.698 37.5333 115.509 35.2498 112.827 35.2228C110.145 35.1958 107.872 37.4494 107.8 40.1645C107.728 42.8346 109.962 45.1272 112.704 45.1991C113.357 45.2103 114.006 45.0913 114.613 44.8492C115.219 44.6071 115.771 44.2468 116.236 43.7893C116.701 43.3318 117.069 42.7864 117.32 42.185C117.571 41.5837 117.698 40.9385 117.695 40.2874L117.68 40.2904Z" fill="url(#paint3_linear)"/>
<path d="M134.81 50.1316C130.348 50.1166 127.38 47.2367 127.257 42.7865C127.212 41.1952 127.167 39.5979 127.215 38.0066C127.221 37.4249 127.014 36.8609 126.633 36.4198C126.253 35.9787 125.724 35.6906 125.146 35.6092C123.023 35.3425 121.875 33.4215 122.72 31.5455C123.21 30.4547 124.085 29.7085 125.288 29.8164C126.965 29.9662 127.23 29.217 127.284 27.7486C127.371 26.8303 127.81 25.981 128.511 25.3781C129.936 24.2424 131.882 25.3272 132.239 27.3111C132.672 29.7235 132.672 29.7535 135.156 29.7654C136.431 29.7654 137.387 30.2329 137.988 31.3597C138.56 32.4326 138.542 33.5474 137.736 34.4314C137.176 34.9707 136.496 35.3694 135.751 35.5942C135.213 35.783 134.549 35.7141 133.965 35.6691C132.763 35.5792 132.221 36.0018 132.275 37.2754C132.351 39.1184 132.275 40.9644 132.302 42.8105C132.321 44.2489 133.105 44.9981 134.525 45.118C135.024 45.16 135.526 45.16 136.028 45.2409C137.48 45.4806 138.373 46.4695 138.325 47.7402C138.277 49.0108 137.27 49.9848 135.875 50.1376C135.514 50.1616 135.162 50.1316 134.81 50.1316Z" fill="url(#paint4_linear)"/>
<path d="M100.857 36.4274C100.857 40.0236 100.875 43.6197 100.857 47.2158C100.857 49.1068 99.6545 50.3805 97.9977 50.3655C96.341 50.3505 95.1142 49.0589 95.1052 47.2009C95.0731 40.0086 95.0591 32.8163 95.0631 25.624C95.0631 23.6551 96.2899 22.4294 98.0699 22.4654C99.8169 22.5013 100.866 23.6641 100.878 25.639C100.899 29.2351 100.878 32.8313 100.878 36.4274H100.857Z" fill="url(#paint5_linear)"/>
<path d="M92.0292 40.2004C92.0292 42.6398 92.0503 45.0822 92.0292 47.5216C92.0112 49.2237 91.019 50.3475 89.6028 50.3715C88.1865 50.3955 87.1732 49.2777 87.1582 47.5605C87.1181 42.6797 87.1031 37.798 87.1131 32.9152C87.1131 31.0872 88.1234 30.0083 89.6328 30.0353C91.1422 30.0623 92.0383 31.1801 92.0653 33.0321C92.0864 35.4295 92.0653 37.8269 92.0653 40.2064L92.0292 40.2004Z" fill="url(#paint6_linear)"/>
<path d="M92.6907 26.0375C92.6933 26.4223 92.618 26.8036 92.4694 27.1587C92.3208 27.5139 92.1018 27.8355 91.8256 28.1043C91.5494 28.3731 91.2216 28.5837 90.8619 28.7234C90.5022 28.8631 90.1179 28.9291 89.732 28.9174C88.9774 28.8907 88.2617 28.5765 87.7326 28.0396C87.2034 27.5027 86.901 26.784 86.8876 26.0315C86.8831 25.6474 86.9559 25.2663 87.1016 24.9106C87.2473 24.555 87.463 24.232 87.736 23.9608C88.0089 23.6896 88.3336 23.4756 88.6909 23.3315C89.0482 23.1874 89.4308 23.116 89.8162 23.1216C90.2028 23.104 90.5887 23.1678 90.9489 23.3088C91.3091 23.4498 91.6354 23.6649 91.9066 23.94C92.1778 24.2151 92.3878 24.5441 92.5229 24.9055C92.658 25.2669 92.7152 25.6526 92.6907 26.0375Z" fill="#3BEAF3"/>
<defs>
<linearGradient id="paint0_linear" x1="32.8009" y1="17.5476" x2="32.8009" y2="62.4515" gradientUnits="userSpaceOnUse">
<stop offset="0.37" stop-color="#3BEAF3"/>
<stop offset="0.87" stop-color="#0081F0"/>
</linearGradient>
<linearGradient id="paint1_linear" x1="5056.11" y1="486.409" x2="5056.11" y2="3153.64" gradientUnits="userSpaceOnUse">
<stop offset="0.37" stop-color="#3BEAF3"/>
<stop offset="0.87" stop-color="#0081F0"/>
</linearGradient>
<linearGradient id="paint2_linear" x1="8722.09" y1="861.085" x2="8722.09" y2="2248.66" gradientUnits="userSpaceOnUse">
<stop offset="0.37" stop-color="#3BEAF3"/>
<stop offset="0.87" stop-color="#0081F0"/>
</linearGradient>
<linearGradient id="paint3_linear" x1="7536.31" y1="878.992" x2="7536.31" y2="2263.29" gradientUnits="userSpaceOnUse">
<stop offset="0.37" stop-color="#3BEAF3"/>
<stop offset="0.87" stop-color="#0081F0"/>
</linearGradient>
<linearGradient id="paint4_linear" x1="6890.36" y1="645.564" x2="6890.36" y2="2769.14" gradientUnits="userSpaceOnUse">
<stop offset="0.37" stop-color="#3BEAF3"/>
<stop offset="0.87" stop-color="#0081F0"/>
</linearGradient>
<linearGradient id="paint5_linear" x1="1939.55" y1="481.436" x2="1939.55" y2="3078.46" gradientUnits="userSpaceOnUse">
<stop offset="0.37" stop-color="#3BEAF3"/>
<stop offset="0.87" stop-color="#0081F0"/>
</linearGradient>
<linearGradient id="paint6_linear" x1="1520.58" y1="877.685" x2="1520.58" y2="2257.76" gradientUnits="userSpaceOnUse">
<stop offset="0.37" stop-color="#3BEAF3"/>
<stop offset="0.87" stop-color="#0081F0"/>
</linearGradient>
</defs>
</svg>
