<svg width="160" height="80" viewBox="0 0 160 80" fill="none" xmlns="http://www.w3.org/2000/svg">
<g clip-path="url(#clip0_6832_72)">
<path fill-rule="evenodd" clip-rule="evenodd" d="M10.9928 14.4619L50.4762 23.7646C50.4762 23.7646 54.9889 25.2082 56.6925 29.5161C56.6925 29.5161 59.6268 35.1774 53.5095 41.8225L27.7233 69.038C27.7233 69.038 23.916 72.4097 18.3953 71.0614C18.3953 71.0614 13.0283 70.0534 11.0799 63.2982L0.1714 26.6182C0.1714 26.6182 -0.890848 22.3651 2.28867 18.3041C2.28867 18.3041 5.11028 14.2597 10.9928 14.4619Z" fill="#FE346E"/>
<path fill-rule="evenodd" clip-rule="evenodd" d="M18.6183 9.60425L53.8115 29.7789C53.8115 29.7789 57.7254 32.4492 58.1304 37.0642C58.1304 37.0642 59.3293 43.3271 51.5719 47.9523L19.0983 66.6859C19.0983 66.6859 14.488 68.8318 9.58005 65.9653C9.58005 65.9653 4.72315 63.4689 4.78102 56.4383V18.171C4.78102 18.171 4.97511 13.7915 9.18011 10.8057C9.18011 10.8051 13.0374 7.73306 18.6183 9.60425Z" fill="#2C003E"/>
<path fill-rule="evenodd" clip-rule="evenodd" d="M47.4743 31.3164C45.7325 29.4538 43.3788 28.5225 40.4133 28.5225C36.8957 28.5225 34.0506 29.747 31.878 32.196C30.1531 29.7474 27.6184 28.5229 24.2739 28.5225C21.2388 28.5225 18.8248 29.471 17.0318 31.3682V29.0916H10.6173V54.7021H17.6007V39.8014C17.6007 38.2844 18.0318 37.0772 18.8939 36.1797C19.7561 35.2823 20.8942 34.8339 22.3081 34.8346C23.6869 34.8346 24.7905 35.283 25.6187 36.1797C26.4469 37.0765 26.8607 38.2837 26.8601 39.8014V54.7021H33.8435V39.6462C33.8435 38.2324 34.2832 37.077 35.1627 36.1802C36.0421 35.2834 37.1715 34.835 38.5509 34.8351C39.9298 34.8351 41.0333 35.2835 41.8615 36.1802C42.6897 37.0769 43.1036 38.2841 43.1031 39.8018V54.7026H50.0865V38.8193C50.0866 35.6805 49.2159 33.1795 47.4743 31.3164Z" fill="white"/>
<path fill-rule="evenodd" clip-rule="evenodd" d="M77.6466 28.4033C73.9221 28.4033 71.1805 29.6623 69.4218 32.1802V28.9717H63.0073V63.8952H69.9913V52.0988C71.8874 54.1683 74.4392 55.2031 77.6466 55.2031C81.1982 55.2031 84.1553 53.9183 86.518 51.3486C88.8807 48.7789 90.0617 45.5798 90.0609 41.7511C90.0609 37.9225 88.8799 34.7405 86.518 32.2053C84.1561 29.6701 81.199 28.4028 77.6466 28.4033ZM81.0867 46.8739C79.8274 48.1851 78.2496 48.8404 76.3535 48.8398C74.4912 48.8398 72.9479 48.2104 71.7237 46.9515C70.4994 45.6926 69.8873 43.9596 69.8873 41.7525C69.8873 39.5456 70.4994 37.821 71.7237 36.5787C72.9479 35.3363 74.4912 34.7155 76.3535 34.7161C78.2843 34.7161 79.8706 35.3714 81.1124 36.6822C82.3543 37.9929 82.975 39.7003 82.9747 41.8042C82.9747 43.8729 82.3454 45.5626 81.0867 46.8733V46.8739ZM101.465 54.5828V15.7788H94.4823V54.5828H101.465ZM126.207 31.274C124.242 29.3597 121.569 28.4026 118.188 28.4027C113.705 28.4027 109.981 30.1618 107.016 33.6799L110.637 37.9747C111.808 36.733 112.911 35.8362 113.948 35.2843C115.016 34.7243 116.207 34.4397 117.414 34.4564C118.964 34.4564 120.145 34.8445 120.956 35.6205C121.766 36.3966 122.171 37.509 122.173 38.9577V40.0959H115.757C112.792 40.0959 110.438 40.7599 108.696 42.0879C106.954 43.416 106.083 45.2354 106.084 47.5463C106.084 49.8228 106.886 51.6681 108.489 53.0822C110.093 54.4963 112.24 55.2034 114.93 55.2035C118.137 55.2035 120.74 54.1688 122.741 52.0992V54.5827H129.156V39.3712C129.156 35.8877 128.173 33.1887 126.207 31.274ZM120.646 48.6582C119.629 49.6073 118.344 50.0816 116.793 50.081C115.688 50.081 114.8 49.8309 114.128 49.3308C113.805 49.0998 113.543 48.7923 113.367 48.4357C113.191 48.0792 113.105 47.6846 113.119 47.2871C113.119 45.5628 114.309 44.7005 116.689 44.7002H122.173V45.0107C122.173 46.4941 121.664 47.71 120.646 48.6582ZM145.982 45.7867L139.724 28.9717H132.326L142.155 53.0301L141.379 54.7891C140.792 56.065 140.086 56.9618 139.258 57.4796C138.431 57.9974 137.362 58.2561 136.05 58.2557C135.464 58.2557 134.464 58.1867 133.05 58.0487V63.8956C134.517 64.2978 136.03 64.5066 137.551 64.5165C139.93 64.5165 141.931 63.8956 143.552 62.6539C145.173 61.4122 146.569 59.4632 147.741 56.8069L160.002 28.9717H152.655L145.982 45.7867Z" fill="white"/>
</g>
<defs>
<clipPath id="clip0_6832_72">
<rect width="160" height="80" fill="white"/>
</clipPath>
</defs>
</svg>
