<svg width="160" height="80" viewBox="0 0 160 80" fill="none" xmlns="http://www.w3.org/2000/svg">
<path d="M69.0522 49.3149C68.2866 48.7842 67.5156 48.259 66.7555 47.7228C62.4272 44.6575 58.2192 41.4292 54.0632 38.1289C54.0003 38.0792 53.9429 38.0239 53.8746 37.9631C54.6019 37.5955 55.3128 37.2417 56.0155 36.8796C57.7599 35.9813 59.4633 35.0111 61.1421 33.9912C61.3089 33.889 61.4429 33.8668 61.6151 33.9636C61.812 34.0741 62.0225 34.1626 62.2714 34.2787C60.4066 23.5958 58.5145 12.9599 56.524 2.31843C56.6662 2.30461 56.792 2.29079 56.915 2.28526C58.2438 2.22169 59.5727 2.16641 60.9015 2.09731C62.4846 2.01716 64.0677 1.92871 65.6508 1.84302C66.8156 1.78221 67.9804 1.72141 69.1452 1.65783C70.6189 1.57491 72.0927 1.48647 73.5664 1.40355C74.6574 1.33997 75.751 1.28193 76.842 1.21836C77.7798 1.16308 78.7149 1.1078 79.6528 1.05252C79.8906 1.03593 80.1285 1.01658 80.3637 1C80.5469 1 80.7273 1 80.9105 1C81.0582 1.01658 81.2031 1.03317 81.3507 1.04699C89.0776 1.47817 96.8045 1.91212 104.556 2.34331C104.365 3.39916 104.173 4.45501 103.982 5.51086C103.788 6.57777 103.591 7.64468 103.397 8.71159C103.205 9.7702 103.022 10.8316 102.831 11.8902C102.639 12.9571 102.448 14.0268 102.257 15.0937C102.068 16.1523 101.882 17.2137 101.696 18.2723C101.51 19.3309 101.327 20.3923 101.141 21.4509C100.955 22.5206 100.769 23.5903 100.586 24.6572C100.403 25.7185 100.22 26.7772 100.034 27.8385C99.8477 28.9082 99.6618 29.9779 99.4786 31.0476C99.2981 32.1006 99.104 33.1482 98.9372 34.2483C99.1696 34.1377 99.3555 34.0631 99.5278 33.9608C99.7083 33.8558 99.845 33.8779 100.023 33.9857C102.177 35.3097 104.378 36.5479 106.642 37.6701C106.825 37.7613 107.009 37.8553 107.208 37.9576C107.134 38.0239 107.082 38.0737 107.025 38.1179C104.668 39.9449 102.314 41.7719 99.9571 43.5962C99.5169 43.9361 99.0712 44.2706 98.6282 44.6078C97.633 45.3292 96.6405 46.0534 95.6452 46.7748C95.6534 46.7941 95.6616 46.8107 95.6671 46.83C95.9159 46.8024 96.1647 46.7775 96.4135 46.7444C96.7526 46.7001 97.0916 46.6476 97.4334 46.6006C97.7642 46.5564 98.0978 46.5177 98.4286 46.4707C98.9017 46.4044 99.3747 46.3353 99.8504 46.2662C100.198 46.2164 100.548 46.1667 100.895 46.1169C101.343 46.0561 101.789 45.9953 102.237 45.9345C102.587 45.8875 102.935 45.8405 103.285 45.7935C103.615 45.7493 103.946 45.7051 104.277 45.6581C104.616 45.6111 104.958 45.5641 105.297 45.5199C105.655 45.4729 106.013 45.4287 106.372 45.3817C106.341 45.4453 106.32 45.5171 106.281 45.5752C105.86 46.2247 105.436 46.8715 105.013 47.521C103.799 47.6565 102.587 47.7919 101.373 47.9301C100.135 48.0711 98.8935 48.2121 97.6549 48.3503C96.4135 48.4885 95.1749 48.6239 93.9336 48.7593C93.5809 48.798 93.2282 48.8422 92.8755 48.8754C92.6977 48.892 92.5473 48.9611 92.4024 49.0634C88.6675 51.6505 84.8423 54.0883 80.8777 56.3023C80.7683 56.3631 80.6562 56.4239 80.5305 56.4903C79.7375 56.037 78.9446 55.5864 78.1572 55.1276C76.1065 53.9336 74.0914 52.6759 72.1091 51.3686C71.9559 51.2663 71.8083 51.2248 71.6251 51.2469C70.3947 51.3907 69.1643 51.5316 67.9339 51.6671C66.8566 51.7887 65.7794 51.902 64.7021 52.0209C63.4717 52.1591 62.2413 52.3 61.0109 52.4382C59.9336 52.5598 58.8563 52.6732 57.779 52.792C56.71 52.9109 55.6436 53.0353 54.5745 53.1541C53.6695 53.2564 52.7645 53.3531 51.8594 53.4526C50.7822 53.5742 49.7049 53.6959 48.6276 53.8175C47.7308 53.917 46.834 54.0137 45.9399 54.1132C44.8626 54.2321 43.7853 54.3537 42.708 54.4753C41.9917 54.5555 41.278 54.6356 40.5617 54.713C40.4824 54.7213 40.4003 54.713 40.2937 54.713C40.2882 54.6024 40.28 54.4946 40.2746 54.3869C40.4195 54.373 40.5617 54.3592 40.7066 54.3426C41.0019 54.3039 41.2972 54.2597 41.5952 54.221C41.9452 54.1768 42.2952 54.1409 42.6451 54.0939C43.1291 54.0275 43.6103 53.9557 44.0943 53.8866C44.4333 53.8368 44.7751 53.7898 45.1141 53.7401C45.5625 53.6765 46.0082 53.6129 46.4566 53.5549C46.9324 53.4941 47.4081 53.4388 47.8839 53.3752C48.2503 53.3282 48.6167 53.2702 48.9858 53.2204C49.3002 53.1762 49.6147 53.1375 49.9264 53.0933C50.3912 53.027 50.856 52.9579 51.3208 52.8888C51.679 52.8362 52.0372 52.7893 52.3954 52.7395C52.718 52.6953 53.0406 52.6538 53.3633 52.6124C53.705 52.5681 54.0441 52.5211 54.3859 52.4742C54.8425 52.4106 55.2991 52.3415 55.7557 52.2807C56.2315 52.2171 56.7072 52.1646 57.183 52.101C57.5494 52.054 57.9157 51.9987 58.2821 51.9462C58.6212 51.8965 58.9602 51.8412 59.302 51.7942C59.6055 51.75 59.9117 51.7113 60.2152 51.6726C60.5734 51.6256 60.9316 51.5786 61.2898 51.5289C61.5933 51.4874 61.8968 51.4377 62.203 51.3962C62.553 51.352 62.9057 51.3188 63.2529 51.2718C63.7451 51.2055 64.2373 51.1308 64.7294 51.0617C65.0438 51.0175 65.3583 50.9816 65.67 50.9346C66.1348 50.8683 66.5996 50.7936 67.0644 50.7301C67.5402 50.6665 68.0159 50.614 68.4917 50.5532C68.8581 50.5062 69.2245 50.4509 69.5909 50.3956C69.8506 50.3569 70.1104 50.3155 70.3701 50.2768C70.258 50.1386 70.1377 50.0556 70.0201 49.9755C69.7139 49.7654 69.4077 49.5554 69.1014 49.3453L69.096 49.3398C69.085 49.3453 69.0686 49.3287 69.0522 49.3149ZM64.7786 39.3119L64.7759 39.3092C64.8689 39.381 64.9618 39.4501 65.0575 39.522C65.8368 40.0472 66.6133 40.5779 67.398 41.0975C71.5759 43.8698 75.8331 46.5067 80.2406 48.892C80.3336 48.9417 80.4293 48.986 80.525 49.033C80.6398 48.9832 80.7629 48.9473 80.8722 48.8865C81.9632 48.2784 83.0623 47.6841 84.1396 47.0484C85.9141 46.0008 87.6941 44.9588 89.4358 43.856C91.6642 42.4436 93.8543 40.9759 96.0608 39.5275C96.1592 39.464 96.244 39.3838 96.337 39.3092C96.3807 39.2871 96.4217 39.265 96.4655 39.2401C96.4573 39.2263 96.4463 39.2124 96.4381 39.1986C96.4053 39.2345 96.3725 39.2705 96.3397 39.3092C96.2549 39.3341 96.1647 39.3506 96.0854 39.3893C95.9378 39.4612 95.7983 39.5496 95.6534 39.6243C94.0894 40.4148 92.5282 41.2053 90.9615 41.993C90.7674 42.0898 90.5678 42.1699 90.3326 42.2777C89.0257 39.0936 87.7297 35.9343 86.4118 32.7225C86.3926 32.8138 86.3844 32.8359 86.3844 32.8607C86.3707 33.7259 86.3489 34.5882 86.3461 35.4534C86.3379 38.2533 86.3379 41.0505 86.3325 43.8504C86.3325 43.95 86.3325 44.0495 86.3325 44.1296C86.2778 44.1628 86.2559 44.1794 86.2313 44.1904C84.7029 44.8317 83.1744 45.4757 81.646 46.1114C81.2851 46.2607 80.9132 46.3823 80.5469 46.5177C80.5441 46.3712 80.5387 46.222 80.5387 46.0755C80.5387 34.9365 80.5387 23.7976 80.5387 12.6558C80.5387 12.5259 80.5359 12.3988 80.5359 12.2689C80.5605 12.2578 80.5851 12.2412 80.6097 12.2329C84.7247 10.6298 88.8397 9.02392 92.9575 7.42079C93.425 7.23837 93.8953 7.07253 94.3656 6.8984C94.4066 6.88458 94.4476 6.87352 94.4886 6.8597C94.5023 6.85694 94.516 6.85141 94.5297 6.84588C94.6117 6.84588 94.6937 6.85694 94.773 6.84588C95.5577 6.73256 96.3397 6.6524 97.1354 6.72979C97.7095 6.78507 98.2701 6.88458 98.8142 7.07253C99.454 7.29365 100.02 7.64192 100.471 8.15049C101.196 8.96864 101.496 9.95816 101.54 11.0361C101.557 11.4424 101.543 11.8515 101.543 12.2606C101.68 11.6884 101.781 11.1107 101.885 10.5358C102.041 9.67899 102.199 8.82215 102.355 7.96254C102.571 6.77125 102.784 5.57996 102.998 4.38868C103.044 4.1261 103.088 3.86351 103.126 3.60093C103.145 3.47379 103.099 3.40192 102.957 3.44338C102.101 3.40469 101.245 3.36599 100.392 3.3273C98.8552 3.25543 97.3158 3.18357 95.7792 3.10618C94.3519 3.03431 92.9247 2.95968 91.4947 2.88505C90.1576 2.81319 88.8206 2.73856 87.4836 2.6667C86.0016 2.58654 84.5197 2.50639 83.0377 2.42347C82.6112 2.39859 82.1847 2.36266 81.7554 2.34054C81.2906 2.31567 80.8285 2.2825 80.3637 2.28526C79.9453 2.28803 79.527 2.34054 79.1087 2.36542C77.4818 2.4594 75.8549 2.55337 74.2253 2.64459C72.9075 2.71921 71.5896 2.79108 70.2689 2.86294C68.8499 2.94033 67.4308 3.01496 66.0118 3.08406C64.6474 3.1504 63.283 3.20844 61.9186 3.27478C61.4374 3.29689 60.9562 3.33006 60.4722 3.34941C59.6711 3.38258 58.87 3.40745 58.0689 3.43786C57.9458 3.51525 57.9978 3.63963 58.0114 3.73637C58.0771 4.15097 58.1536 4.56557 58.2302 4.97741C58.386 5.81214 58.5528 6.64687 58.7032 7.4816C58.8782 8.45177 59.0422 9.42747 59.2145 10.3976C59.3922 11.4065 59.5754 12.4126 59.7586 13.4187C59.9008 14.2009 60.0484 14.9831 60.1879 15.7653C60.3765 16.8267 60.557 17.8909 60.7457 18.9522C60.8851 19.7455 61.0328 20.536 61.1749 21.3265C61.2898 21.9733 61.3964 22.6228 61.514 23.2724C61.6315 23.9302 61.7655 24.5825 61.8804 25.2404C62.0362 26.1304 62.1784 27.0259 62.3342 27.9159C62.4491 28.5738 62.5858 29.2261 62.7006 29.8839C62.8565 30.7739 62.9987 31.6695 63.1545 32.5595C63.2885 33.3251 63.4389 34.088 63.5756 34.8508C63.7424 35.7851 63.9037 36.7221 64.0677 37.6591C64.0951 37.8166 64.1142 37.9769 64.1388 38.1372C64.0595 38.1068 64.0158 38.0598 63.9857 38.0101C63.5892 37.3412 63.19 36.6723 62.7991 35.9979C62.7198 35.8625 62.6241 35.7685 62.4874 35.7077C62.2385 35.5971 61.987 35.4865 61.7464 35.3594C61.6097 35.2875 61.5003 35.282 61.3691 35.3622C60.8851 35.6524 60.3984 35.9398 59.9035 36.2135C58.8919 36.7773 57.8775 37.3329 56.8631 37.8912C56.6252 38.0211 56.3928 38.1566 56.1412 38.2976C56.1795 38.3445 56.1959 38.3777 56.2205 38.3971C56.7592 38.8172 57.2951 39.2401 57.8392 39.6547C58.7442 40.3429 59.652 41.0284 60.5652 41.7083C62.2303 42.9494 63.8927 44.1932 65.5716 45.4149C66.6625 46.2081 67.7753 46.971 68.8854 47.7366C69.8479 48.4 70.813 49.0551 71.7864 49.6963C72.8774 50.4094 73.9765 51.1087 75.0784 51.8053C75.7319 52.2199 76.3909 52.6262 77.0553 53.0242C77.8619 53.5051 78.6712 53.9778 79.4833 54.4477C79.7348 54.5914 80 54.713 80.2598 54.8429C80.2625 54.8484 80.2652 54.8567 80.268 54.8623C80.2707 54.865 80.2762 54.865 80.2816 54.865C80.2734 54.8567 80.268 54.8484 80.2598 54.8429C80.2133 54.7683 80.175 54.6798 80.1149 54.619C79.9262 54.4338 79.7239 54.2625 79.5352 54.0773C78.797 53.3531 78.0615 52.6262 77.326 51.8992C76.5303 51.1143 75.7374 50.3293 74.9417 49.5471C74.1871 48.8008 73.4297 48.0573 72.675 47.311C71.6224 46.2662 70.5724 45.2214 69.517 44.1766C69.0303 43.6929 68.5327 43.223 68.0433 42.7393C66.9633 41.6696 65.886 40.6 64.8114 39.5248C64.7513 39.464 64.7212 39.3755 64.6775 39.2981C64.7103 39.3064 64.7431 39.3092 64.7786 39.3119ZM96.9358 38.8697C97.0479 38.8835 97.16 38.9056 97.2721 38.9084C97.3432 38.9112 97.4142 38.8752 97.4853 38.8697C97.9447 38.831 98.404 38.7923 98.8661 38.7591C99.4704 38.7177 100.077 38.6817 100.684 38.6458C100.72 38.6431 100.758 38.6431 100.794 38.6403C101.1 38.6071 101.403 38.5629 101.71 38.5408C102.071 38.5131 102.434 38.5021 102.795 38.48C103.058 38.4634 103.32 38.4413 103.58 38.4192C103.968 38.386 104.354 38.3501 104.742 38.3141C104.788 38.3086 104.835 38.2976 104.903 38.2865C104.857 38.245 104.84 38.2229 104.816 38.2091C103.974 37.7558 103.129 37.3053 102.289 36.8464C101.778 36.5673 101.275 36.2715 100.772 35.9785C100.425 35.7768 100.083 35.5695 99.7383 35.3677C99.6536 35.3179 99.577 35.2627 99.4622 35.3207C99.1696 35.47 98.8689 35.5999 98.5763 35.7464C98.5079 35.7795 98.4423 35.8431 98.4013 35.9067C98.0732 36.4457 97.7533 36.9902 97.4279 37.5319C97.324 37.7033 97.2119 37.8664 97.1053 38.035C97.1381 37.836 97.1682 37.637 97.201 37.4379C97.4252 36.1085 97.6494 34.779 97.8763 33.4495C98.106 32.12 98.3411 30.7933 98.5708 29.4638C98.8607 27.7998 99.1505 26.1387 99.4376 24.4747C99.4649 24.3172 99.4813 24.1569 99.5032 23.9966C99.3309 24.273 99.1997 24.5577 99.0438 24.823C98.5271 25.7075 97.8134 26.4206 97.0287 27.0536C95.719 28.1094 94.259 28.9137 92.7169 29.5688C92.654 29.5964 92.5911 29.6296 92.5227 29.6628C92.5665 29.7651 92.5966 29.8507 92.6348 29.9337C93.5235 31.7883 94.4121 33.643 95.3034 35.4976C95.7847 36.4982 96.2686 37.4987 96.7526 38.4993C96.8073 38.6265 96.8729 38.7481 96.9358 38.8697ZM86.4746 24.7843C86.5922 24.7401 86.7125 24.7041 86.8274 24.6544C87.8254 24.2315 88.8206 23.7976 89.8213 23.3857C90.4693 23.1176 91.0627 22.7666 91.5576 22.2663C92.6759 21.1358 93.425 19.8146 93.6164 18.1977C93.6793 17.6615 93.6274 17.1473 93.4032 16.6636C93.0668 15.9367 92.4954 15.6686 91.8064 15.6686C91.4072 15.6686 91.0189 15.7847 90.6471 15.9478C89.6381 16.3928 88.6265 16.8295 87.6148 17.2717C87.2402 17.4348 86.8684 17.6034 86.5047 17.7665C86.4336 18.3552 86.4008 24.4941 86.4746 24.7843Z" fill="#8B8484"/>
<path d="M42.6861 79.0004C42.574 78.9037 42.5221 78.7848 42.5385 78.6328C42.5439 78.5886 42.5385 78.5416 42.5385 78.4946C42.5385 73.1877 42.5385 67.8808 42.5385 62.5739C42.5385 62.0626 42.5439 62.0571 43.0634 62.0571C43.9739 62.0571 44.8872 62.0626 45.7976 62.0515C46.0301 62.0488 46.1558 62.1317 46.2679 62.3362C47.0745 63.8205 47.8948 65.2992 48.7096 66.778C48.7533 66.8554 48.7998 66.93 48.8627 67.035C48.9283 66.9272 48.9803 66.8443 49.0295 66.7586C49.8416 65.2882 50.6564 63.8177 51.4602 62.3418C51.5778 62.1262 51.7145 62.046 51.9551 62.0515C52.8929 62.0654 53.8335 62.0571 54.7714 62.0571C54.826 62.0571 54.8807 62.0543 54.9354 62.0598C55.1186 62.0764 55.1705 62.1317 55.1842 62.3196C55.1897 62.3943 55.187 62.4661 55.187 62.5408C55.187 66.7503 55.187 70.9627 55.187 75.1723C55.187 75.6504 55.1788 75.6615 54.6921 75.6615C53.798 75.6615 52.9066 75.6615 52.0125 75.6615C51.9387 75.6615 51.8649 75.6643 51.7938 75.6587C51.6106 75.6394 51.5559 75.5841 51.545 75.3989C51.5422 75.3353 51.545 75.269 51.545 75.2054C51.545 73.243 51.545 71.2805 51.545 69.3181C51.545 69.2296 51.545 69.1412 51.545 69.0555C51.5313 69.0528 51.5176 69.0472 51.504 69.0445C51.4547 69.1274 51.4028 69.2075 51.3536 69.2932C50.6181 70.6282 49.8826 71.9632 49.1443 73.2983C49.0787 73.4171 49.035 73.5691 48.8654 73.5636C48.6987 73.5608 48.6549 73.4088 48.5893 73.29C47.8565 71.9632 47.1265 70.6365 46.3937 69.3098C46.3445 69.2214 46.2925 69.1384 46.1941 69.0528C46.1941 69.1467 46.1941 69.2407 46.1941 69.3347C46.1941 72.4221 46.1941 75.5067 46.1968 78.5941C46.1968 78.7461 46.1886 78.8871 46.082 79.0032C44.9473 79.0004 43.8153 79.0004 42.6861 79.0004Z" fill="#02599C"/>
<path d="M110.003 79.0005C109.899 78.8982 109.863 78.7739 109.863 78.6274C109.866 77.7982 109.863 76.969 109.866 76.1398C109.866 75.8634 109.932 75.8053 110.21 75.7998C110.429 75.797 110.648 75.797 110.867 75.797C111.165 75.797 111.37 75.6588 111.474 75.3741C111.569 75.106 111.67 74.8379 111.744 74.5643C111.769 74.4703 111.742 74.3459 111.706 74.2492C111.058 72.4719 110.407 70.6974 109.754 68.9202C109.368 67.8698 108.98 66.8167 108.594 65.7664C108.578 65.7222 108.562 65.6807 108.548 65.6365C108.466 65.3795 108.537 65.2772 108.813 65.2772C109.806 65.2744 110.798 65.2744 111.794 65.2772C112.04 65.2772 112.053 65.2938 112.135 65.5453C112.573 66.8914 113.007 68.2347 113.445 69.5808C113.472 69.6637 113.502 69.7466 113.552 69.8903C113.604 69.7438 113.639 69.6554 113.666 69.5642C114.079 68.2402 114.489 66.9135 114.9 65.5895C114.998 65.2744 114.998 65.2744 115.315 65.2744C116.264 65.2744 117.21 65.2744 118.159 65.2744C118.205 65.2744 118.249 65.2717 118.295 65.2744C118.498 65.291 118.574 65.3933 118.514 65.5868C118.457 65.7692 118.383 65.9488 118.315 66.1313C117.021 69.6388 115.728 73.1436 114.437 76.6511C114.287 77.0574 114.104 77.4471 113.847 77.7982C113.415 78.3869 112.838 78.7407 112.13 78.8872C112.001 78.9148 111.878 78.9591 111.75 78.995C111.17 79.0005 110.585 79.0005 110.003 79.0005Z" fill="white"/>
<path d="M69.1069 49.3674C69.4132 49.5775 69.7194 49.7876 70.0256 49.9976C70.1432 50.0778 70.2635 50.1607 70.3756 50.2989C70.1158 50.3376 69.8561 50.3791 69.5963 50.4178C69.23 50.4703 68.8636 50.5256 68.4972 50.5753C68.0214 50.6361 67.5457 50.6886 67.0699 50.7522C66.6051 50.8158 66.1403 50.8904 65.6755 50.9567C65.361 51.001 65.0466 51.0397 64.7349 51.0839C64.2428 51.153 63.7506 51.2276 63.2584 51.2939C62.9085 51.3409 62.5585 51.3741 62.2085 51.4183C61.905 51.457 61.6015 51.5068 61.2953 51.551C60.9371 51.6008 60.5789 51.6477 60.2207 51.6947C59.9145 51.7362 59.611 51.7749 59.3075 51.8163C58.9684 51.8661 58.6294 51.9186 58.2876 51.9684C57.9212 52.0209 57.5549 52.0762 57.1885 52.1232C56.7127 52.184 56.237 52.2392 55.7612 52.3028C55.3046 52.3636 54.848 52.4327 54.3914 52.4963C54.0523 52.5433 53.7105 52.5875 53.3688 52.6345C53.0461 52.6787 52.7235 52.7174 52.4009 52.7616C52.0427 52.8114 51.6845 52.8584 51.3263 52.9109C50.8615 52.9772 50.3967 53.0491 49.9319 53.1154C49.6174 53.1597 49.303 53.1984 48.9913 53.2426C48.6249 53.2923 48.2585 53.3504 47.8894 53.3974C47.4136 53.4582 46.9379 53.5135 46.4621 53.577C46.0137 53.6351 45.5653 53.6986 45.1196 53.7622C44.7806 53.8092 44.4388 53.859 44.0998 53.9087C43.6158 53.9778 43.1346 54.0497 42.6506 54.116C42.3007 54.163 41.9507 54.1989 41.6007 54.2432C41.3054 54.2819 41.0101 54.3261 40.7121 54.3648C40.5699 54.3841 40.425 54.3952 40.2801 54.409C40.2445 54.3537 40.2117 54.2984 40.1762 54.2432C40.1762 54.1879 40.1762 54.1326 40.1762 54.0773C40.7148 53.9944 41.2562 53.9142 41.7948 53.8286C43.1073 53.6185 44.4197 53.4057 45.7321 53.1928C47.0527 52.98 48.3734 52.7644 49.694 52.5516C50.9982 52.3415 52.2997 52.1314 53.6039 51.9214C55.023 51.692 56.4448 51.4626 57.8638 51.2331C59.1762 51.0203 60.4887 50.8075 61.8011 50.5947C63.1217 50.3818 64.4423 50.1662 65.763 49.9534C66.8321 49.7793 67.9011 49.6079 68.9702 49.4338C69.014 49.4172 69.0604 49.3868 69.1069 49.3674Z" fill="white"/>
<path d="M120.781 43.3944C120.798 43.3916 120.814 43.3944 120.831 43.3999C120.831 43.4193 120.831 43.4358 120.831 43.4552L120.809 43.4662L120.784 43.4635L120.775 43.4552C120.778 43.4331 120.778 43.4137 120.781 43.3944Z" fill="#01599C"/>
<path d="M70.5178 75.736C69.4897 75.7609 68.489 75.6089 67.5211 75.244C66.8047 74.9732 66.225 74.5033 65.6755 73.9892C65.5524 73.8731 65.5524 73.757 65.67 73.6271C65.7794 73.5055 65.9024 73.3949 66.02 73.2761C66.5504 72.7426 67.0781 72.2091 67.6086 71.6785C67.8109 71.4739 67.8738 71.4684 68.0898 71.6536C68.4589 71.9742 68.8936 72.1511 69.3557 72.27C70.0803 72.4524 70.8103 72.5021 71.5486 72.3695C71.6552 72.3501 71.7618 72.3169 71.8603 72.2755C72.4262 72.0461 72.4837 71.6591 72.4153 71.2141C72.3688 70.9211 72.172 70.7332 71.8985 70.6641C71.5814 70.5839 71.256 70.5397 70.9334 70.4872C70.2334 70.3766 69.5198 70.3324 68.8417 70.1002C68.5491 70.0007 68.2593 69.8846 67.9886 69.7381C67.1027 69.2599 66.5504 68.5109 66.3235 67.5242C66.1375 66.7032 66.1457 65.8768 66.3727 65.0642C66.7145 63.8425 67.4937 62.9995 68.6257 62.4798C69.2792 62.1786 69.9709 62.0265 70.6845 61.974C71.647 61.9022 72.593 61.9768 73.5254 62.2449C74.3593 62.4854 75.073 62.9248 75.7018 63.5191C75.8713 63.6794 75.8796 63.7706 75.7182 63.9337C75.0812 64.5805 74.4441 65.2245 73.8015 65.8658C73.6484 66.0205 73.5582 66.0261 73.4024 65.8879C72.5684 65.1416 71.5841 65.125 70.5697 65.3074C70.381 65.3406 70.1951 65.4539 70.0365 65.5672C69.6702 65.8326 69.5717 66.5485 70.1869 66.8387C70.5068 66.9879 70.8541 67.0073 71.1958 67.0598C71.9231 67.1731 72.6641 67.2201 73.3723 67.444C73.5637 67.5048 73.7523 67.5711 73.9355 67.6513C74.9773 68.1046 75.6362 68.8868 75.8905 70.0062C76.0737 70.8078 76.101 71.6121 75.9096 72.4137C75.6143 73.6492 74.8597 74.5116 73.7523 75.0782C72.9594 75.4817 72.1091 75.6642 71.2314 75.7305C70.9935 75.7526 70.7556 75.736 70.5178 75.736Z" fill="white"/>
<path d="M87.6477 75.7053C84.7549 75.7109 82.398 73.3504 82.3898 70.4399C82.3816 67.5543 84.7275 65.1967 87.5766 65.158C90.3737 65.1193 92.8782 67.3996 92.8837 70.4234C92.8919 73.3394 90.5487 75.6998 87.6477 75.7053ZM87.6312 68.3752C86.4966 68.378 85.5779 69.3095 85.5861 70.4455C85.5943 71.5842 86.5239 72.5074 87.6531 72.4991C88.7851 72.4908 89.7092 71.5511 89.701 70.4234C89.6901 69.2818 88.7687 68.3697 87.6312 68.3752Z" fill="white"/>
<path d="M102.648 65.6667C102.648 65.5506 102.648 65.4621 102.648 65.3737C102.648 64.6744 102.648 63.9751 102.648 63.2758C102.648 63.2122 102.645 63.1459 102.65 63.0823C102.667 62.8833 102.727 62.8253 102.924 62.8142C102.951 62.8115 102.978 62.8142 103.006 62.8142C103.916 62.8142 104.827 62.8142 105.737 62.8142C106.049 62.8142 106.104 62.8695 106.106 63.1818C106.109 63.9088 106.106 64.6357 106.106 65.3626C106.106 65.4539 106.106 65.5451 106.106 65.6667C106.216 65.6667 106.303 65.6667 106.391 65.6667C106.727 65.6667 107.066 65.6639 107.402 65.6694C107.596 65.6722 107.654 65.7247 107.657 65.9127C107.662 66.6673 107.662 67.4218 107.657 68.1764C107.657 68.3533 107.586 68.4224 107.402 68.4279C107.175 68.4362 106.946 68.4307 106.719 68.4307C106.527 68.4307 106.339 68.4307 106.125 68.4307C106.117 68.5081 106.106 68.5772 106.106 68.6463C106.106 69.8348 106.106 71.0206 106.106 72.2091C106.106 72.2174 106.106 72.2284 106.106 72.2367C106.112 72.5822 106.18 72.6513 106.527 72.6624C106.672 72.6679 106.82 72.6652 106.965 72.6652C107.093 72.6652 107.219 72.6624 107.348 72.6652C107.605 72.6707 107.657 72.7177 107.657 72.9692C107.659 73.7597 107.659 74.553 107.657 75.3435C107.657 75.595 107.607 75.6503 107.348 75.6503C106.746 75.6475 106.145 75.653 105.546 75.6254C105.01 75.6033 104.507 75.4402 104.05 75.1583C103.216 74.6387 102.771 73.8675 102.68 72.8946C102.642 72.4827 102.653 72.0681 102.65 71.6535C102.648 70.6861 102.65 69.7187 102.65 68.7541C102.65 68.6546 102.65 68.5578 102.65 68.4335C102.437 68.4335 102.246 68.439 102.057 68.4335C101.816 68.4252 101.753 68.3616 101.753 68.1156C101.751 67.408 101.751 66.6977 101.753 65.9901C101.753 65.7164 101.8 65.675 102.076 65.6722C102.254 65.6639 102.434 65.6667 102.648 65.6667Z" fill="white"/>
<path d="M98.6884 65.6666C99.1204 65.6666 99.5086 65.6666 99.8996 65.6666C100.22 65.6666 100.258 65.7081 100.261 66.0342C100.261 66.7059 100.261 67.3775 100.261 68.052C100.261 68.3781 100.206 68.4306 99.875 68.4306C99.4922 68.4334 99.1095 68.4306 98.7075 68.4306C98.6993 68.5108 98.6884 68.5799 98.6884 68.6517C98.6884 69.8209 98.6884 70.9901 98.6884 72.1593C98.6884 72.2063 98.6884 72.2505 98.6911 72.2975C98.7103 72.5545 98.7868 72.6457 99.0438 72.6568C99.3255 72.6706 99.6071 72.6623 99.8914 72.6651C100.214 72.6679 100.263 72.7121 100.263 73.0244C100.266 73.779 100.266 74.5336 100.263 75.2909C100.263 75.5977 100.214 75.6502 99.916 75.6502C99.3145 75.6475 98.7103 75.6696 98.1142 75.6226C97.1108 75.5424 96.2768 75.1195 95.7163 74.2378C95.3828 73.7126 95.2488 73.1239 95.246 72.5048C95.2433 71.2527 95.246 70.0006 95.246 68.7485C95.246 68.649 95.246 68.5522 95.246 68.4306C95.0382 68.4306 94.8605 68.4334 94.6801 68.4306C94.4121 68.4251 94.352 68.3698 94.352 68.11C94.3492 67.3997 94.3492 66.6921 94.352 65.9817C94.352 65.7081 94.3957 65.6694 94.6773 65.6666C94.8578 65.6639 95.0382 65.6666 95.2351 65.6666C95.2406 65.5533 95.246 65.4648 95.2488 65.3764C95.2488 64.6384 95.2488 63.9032 95.2488 63.1652C95.2488 62.8667 95.3035 62.8114 95.5988 62.8114C96.5174 62.8086 97.4389 62.8086 98.3576 62.8114C98.6419 62.8114 98.6911 62.8611 98.6911 63.1486C98.6939 63.8866 98.6911 64.6218 98.6911 65.3598C98.6884 65.4483 98.6884 65.5395 98.6884 65.6666Z" fill="white"/>
<path d="M80.9406 68.8119C80.9406 70.9209 80.9406 73.0298 80.9406 75.1387C80.9406 75.2023 80.9433 75.2686 80.9406 75.3322C80.9324 75.5976 80.8831 75.6528 80.6125 75.6528C79.6938 75.6556 78.7723 75.6556 77.8536 75.6528C77.5337 75.6528 77.4955 75.6114 77.4955 75.2825C77.4955 73.0353 77.4955 70.7882 77.4955 68.5411C77.4955 66.5068 77.4955 64.4697 77.4955 62.4354C77.4955 62.3801 77.4955 62.3248 77.4955 62.2696C77.5009 61.9987 77.5419 61.9545 77.8208 61.9545C78.7395 61.9517 79.661 61.9517 80.5797 61.9545C80.9023 61.9545 80.9406 61.9932 80.9406 62.3221C80.9406 64.4835 80.9406 66.6477 80.9406 68.8119Z" fill="white"/>
<path d="M60.0758 65.9514C60.4996 65.6778 60.8933 65.476 61.3363 65.3793C62.0061 65.23 62.6733 65.2411 63.335 65.4207C63.8435 65.5562 64.2509 65.863 64.6228 66.2223C64.7704 66.3633 64.7677 66.4655 64.62 66.6231C64.4205 66.8359 64.2127 67.0432 64.0048 67.2533C63.499 67.7701 62.9877 68.2815 62.4874 68.8039C62.3069 68.9946 62.162 69.0001 61.9815 68.8149C61.689 68.5192 61.339 68.3727 60.9152 68.475C60.4941 68.5772 60.2644 68.8619 60.1851 69.2765C60.1523 69.4479 60.1469 69.6248 60.1469 69.7989C60.1441 71.5955 60.1441 73.3893 60.1441 75.1859C60.1441 75.2495 60.1469 75.3158 60.1441 75.3794C60.1359 75.595 60.0812 75.6503 59.8625 75.6641C59.7723 75.6696 59.6793 75.6669 59.5891 75.6669C58.7798 75.6669 57.9677 75.6669 57.1584 75.6669C57.0763 75.6669 56.9943 75.6669 56.9123 75.6586C56.7865 75.6448 56.7154 75.5674 56.7018 75.443C56.6935 75.3711 56.6963 75.2965 56.6963 75.2219C56.6963 72.0903 56.6963 68.9614 56.6963 65.8298C56.6963 65.7745 56.6935 65.7193 56.6963 65.664C56.71 65.4622 56.7674 65.4014 56.9642 65.3986C57.3279 65.3931 57.6915 65.3959 58.0579 65.3959C58.613 65.3959 59.168 65.3959 59.7258 65.3959C60.0348 65.3959 60.0648 65.429 60.0703 65.7441C60.0758 65.7966 60.0758 65.8519 60.0758 65.9514Z" fill="#02599C"/>
<path d="M105.018 47.5292C105.442 46.8797 105.866 46.2329 106.287 45.5834C106.325 45.5253 106.347 45.4535 106.377 45.3899L106.393 45.3844H106.41C106.724 45.3429 107.039 45.3014 107.353 45.2572C107.947 45.1743 108.537 45.0858 109.13 45.0057C109.606 44.9393 110.085 44.8868 110.56 44.8233C111.197 44.7376 111.835 44.6491 112.474 44.5579C112.942 44.4916 113.407 44.4225 113.874 44.3561C114.323 44.2926 114.774 44.2345 115.222 44.1737C115.706 44.1101 116.193 44.0438 116.677 43.9802C117.144 43.9167 117.612 43.8503 118.077 43.7868C118.561 43.7204 119.047 43.6513 119.531 43.5905C119.944 43.538 120.36 43.4993 120.775 43.4551L120.784 43.4634C120.715 43.5491 120.655 43.6403 120.581 43.7177C119.879 44.4391 119.17 45.1577 118.473 45.8846C118.35 46.0118 118.216 46.0754 118.049 46.0947C117.325 46.1721 116.6 46.2523 115.878 46.3324C114.801 46.4513 113.724 46.5729 112.649 46.6945C111.744 46.7968 110.839 46.8963 109.934 46.9958C109.01 47.098 108.089 47.2058 107.165 47.3053C106.448 47.3827 105.732 47.4546 105.018 47.5292Z" fill="#01599C"/>
<path d="M69.0522 49.3149C69.0688 49.3315 69.0854 49.3453 69.1019 49.3619C69.0854 49.3453 69.0688 49.3288 69.0522 49.3149Z" fill="white"/>
<path d="M64.6747 39.3007C64.7185 39.3781 64.7485 39.4665 64.8087 39.5273C65.8832 40.5998 66.9605 41.6722 68.0405 42.7419C68.5272 43.2256 69.0249 43.6955 69.5143 44.1792C70.5697 45.2212 71.6196 46.2688 72.6723 47.3136C73.427 48.0598 74.1843 48.8034 74.939 49.5496C75.7346 50.3346 76.5276 51.1196 77.3232 51.9018C78.0587 52.6288 78.7942 53.3557 79.5325 54.0799C79.7211 54.265 79.9235 54.4364 80.1121 54.6216C80.175 54.6824 80.2105 54.7681 80.257 54.8455C79.9973 54.7128 79.7321 54.594 79.4805 54.4502C78.6684 53.9804 77.8564 53.5105 77.0525 53.0268C76.3881 52.6288 75.7292 52.2224 75.0757 51.8078C73.9738 51.1113 72.8746 50.4148 71.7837 49.6989C70.8076 49.0604 69.8424 48.4026 68.8827 47.7392C67.7726 46.9736 66.6598 46.2107 65.5688 45.4175C63.89 44.1958 62.2276 42.952 60.5625 41.7109C59.6492 41.031 58.7415 40.3455 57.8364 39.6573C57.2923 39.2454 56.7564 38.8198 56.2178 38.3996C56.1904 38.3803 56.174 38.3471 56.1385 38.3001C56.39 38.1592 56.6252 38.0237 56.8603 37.8938C57.8747 37.3355 58.8891 36.7799 59.9008 36.2161C60.3929 35.9424 60.8796 35.6522 61.3663 35.3647C61.5003 35.2846 61.6097 35.2901 61.7436 35.362C61.9842 35.4891 62.2358 35.5997 62.4846 35.7103C62.6241 35.7711 62.7198 35.865 62.7963 36.0005C63.1846 36.6749 63.5838 37.3438 63.983 38.0127C64.013 38.0652 64.0568 38.1094 64.1361 38.1398C64.1115 37.9795 64.0923 37.8192 64.065 37.6616C63.9037 36.7246 63.7424 35.7876 63.5728 34.8534C63.4361 34.0878 63.2857 33.3277 63.1518 32.562C62.9959 31.672 62.8537 30.7765 62.6979 29.8865C62.583 29.2286 62.4463 28.5763 62.3315 27.9185C62.1756 27.0285 62.0335 26.133 61.8776 25.2429C61.7628 24.5851 61.6288 23.9328 61.5112 23.275C61.3937 22.6282 61.287 21.9786 61.1722 21.3291C61.03 20.5386 60.8824 19.7481 60.7429 18.9548C60.5543 17.8934 60.3738 16.8293 60.1851 15.7679C60.0457 14.9857 59.898 14.2035 59.7559 13.4213C59.5727 12.4152 59.3922 11.4063 59.2118 10.4002C59.0395 9.42728 58.8754 8.45434 58.7005 7.48418C58.5501 6.64668 58.3833 5.81471 58.2274 4.97998C58.1509 4.56538 58.0716 4.15354 58.0087 3.73894C57.995 3.6422 57.9431 3.51782 58.0661 3.44043C58.1099 3.5731 58.2356 3.56481 58.3341 3.60351C61.0792 4.66212 63.8216 5.72074 66.5695 6.77383C66.7473 6.84293 66.8457 6.93967 66.9058 7.12486C67.316 8.42118 67.737 9.71473 68.1554 11.0083C68.8034 13.0094 69.4487 15.0106 70.0967 17.0145C70.2033 17.3434 70.3127 17.6723 70.4385 18.0482C72.0434 15.4058 73.6211 12.8077 75.2042 10.2067C75.3054 10.2427 75.3764 10.262 75.4421 10.2869C76.3498 10.6407 77.2576 10.9972 78.1654 11.351C78.9528 11.6578 79.743 11.9674 80.5305 12.2742C80.5305 12.4041 80.5332 12.5313 80.5332 12.6612C80.5332 23.8001 80.5332 34.9391 80.5332 46.0808C80.5332 46.2273 80.5387 46.3766 80.5414 46.5231C80.5387 46.5341 80.5359 46.5479 80.5332 46.559C80.4512 46.5203 80.3691 46.4816 80.2871 46.4457C78.6794 45.7795 77.0717 45.1134 75.4585 44.4556C75.2643 44.3754 75.2097 44.2676 75.2124 44.0658C75.2206 42.7861 75.2179 41.5036 75.2179 40.2239C75.2179 36.2824 75.2179 32.3382 75.2151 28.3967C75.2151 28.3055 75.2425 28.2032 75.1659 28.0899C74.466 29.295 73.7824 30.478 73.0961 31.661C72.4071 32.8467 71.7317 34.038 71.0072 35.257C69.6264 31.7522 68.2702 28.3055 66.9113 24.856C66.8867 24.8615 66.8648 24.867 66.8402 24.8726C66.9496 25.9561 67.0617 27.0396 67.1711 28.1203C67.2804 29.201 67.3871 30.2817 67.4937 31.3597C67.6031 32.4487 67.7097 33.5377 67.8163 34.6268C67.923 35.7075 68.0296 36.7882 68.139 37.8662C68.2483 38.9469 68.3741 40.0276 68.4616 41.1553C68.314 41.0863 68.2155 41.042 68.1198 40.9923C67.1191 40.4837 66.1211 39.9724 65.1231 39.461C65.011 39.4085 64.8962 39.3587 64.7841 39.3062L64.7868 39.309C64.7485 39.2896 64.713 39.2703 64.6747 39.2537C64.6556 39.2509 64.6392 39.2482 64.62 39.2482C64.6392 39.2675 64.661 39.2869 64.6802 39.309L64.6747 39.3007Z" fill="white"/>
<path d="M80.525 12.2717C79.7375 11.9649 78.9473 11.6553 78.1599 11.3485C77.2521 10.9947 76.3443 10.6382 75.4366 10.2844C75.371 10.2595 75.2999 10.2374 75.1987 10.2042C73.6183 12.8051 72.038 15.4033 70.433 18.0457C70.3099 17.6698 70.1978 17.3409 70.0912 17.012C69.4432 15.0108 68.7979 13.0097 68.1499 11.0058C67.7316 9.71221 67.3105 8.41866 66.9004 7.12234C66.8402 6.93715 66.7445 6.83764 66.5641 6.77131C63.8162 5.71822 61.0737 4.6596 58.3286 3.60099C58.2329 3.56505 58.1044 3.57058 58.0606 3.43791C58.8618 3.40751 59.6629 3.38263 60.464 3.34946C60.9452 3.33011 61.4292 3.29695 61.9104 3.27483C63.2748 3.21126 64.6392 3.15322 66.0035 3.08412C67.4226 3.01502 68.8417 2.93762 70.2607 2.863C71.5786 2.79113 72.8965 2.71927 74.2171 2.64464C75.844 2.55343 77.4708 2.45945 79.1004 2.36547C79.5188 2.3406 79.9371 2.29085 80.3554 2.28532C80.8203 2.28255 81.2823 2.31572 81.7472 2.3406C82.1737 2.36271 82.6002 2.40141 83.0295 2.42352C84.5115 2.50644 85.9934 2.5866 87.4753 2.66675C88.8124 2.73862 90.1494 2.81324 91.4864 2.88511C92.9137 2.95974 94.341 3.03713 95.771 3.10623C97.3076 3.18362 98.8442 3.25549 100.384 3.32735C101.239 3.36881 102.095 3.40474 102.948 3.44344C103.008 3.554 102.905 3.53741 102.858 3.554C102.095 3.85251 101.332 4.1455 100.572 4.44401C98.6173 5.20688 96.6596 5.97251 94.7046 6.73814C94.639 6.76301 94.5843 6.81 94.5242 6.84593C94.5105 6.85146 94.4968 6.85423 94.4831 6.85975C94.4421 6.87357 94.4011 6.88463 94.3601 6.89845C93.8898 7.07258 93.4195 7.23842 92.952 7.42085C88.8343 9.02397 84.7193 10.6271 80.6043 12.233C80.5742 12.244 80.5496 12.2579 80.525 12.2717Z" fill="#00ADED"/>
<path d="M65.1177 39.4639C66.1157 39.9752 67.1164 40.4866 68.1144 40.9952C68.2101 41.0449 68.3085 41.0864 68.4562 41.1582C68.3687 40.0305 68.2429 38.9498 68.1335 37.8691C68.0242 36.7883 67.9175 35.7076 67.8109 34.6296C67.7015 33.5406 67.5949 32.4516 67.4883 31.3626C67.3816 30.2819 67.275 29.2011 67.1656 28.1232C67.0563 27.0397 66.9469 25.9562 66.8348 24.8755C66.8594 24.8699 66.8813 24.8644 66.9059 24.8589C68.2648 28.3056 69.6209 31.7551 71.0017 35.2598C71.7236 34.0409 72.4016 32.8496 73.0907 31.6639C73.7769 30.4809 74.4605 29.3006 75.1605 28.0928C75.237 28.2061 75.2097 28.3056 75.2097 28.3996C75.2124 32.3411 75.2124 36.2853 75.2124 40.2268C75.2124 41.5065 75.2179 42.789 75.2069 44.0687C75.2042 44.2705 75.2589 44.3811 75.453 44.4585C77.0662 45.1163 78.6712 45.7824 80.2816 46.4485C80.3664 46.4845 80.4457 46.5232 80.5277 46.5619C80.525 47.3883 80.525 48.2147 80.5223 49.0412C80.4266 48.9942 80.3309 48.95 80.2379 48.9002C75.8303 46.5149 71.5732 43.878 67.3953 41.1057C66.6106 40.5861 65.8341 40.0554 65.0548 39.5302C65.0767 39.5026 65.0958 39.4832 65.1177 39.4639Z" fill="#00ACED"/>
<path d="M86.4747 24.7842C86.4009 24.494 86.4364 18.3552 86.5102 17.7637C86.8739 17.6006 87.2457 17.432 87.6203 17.2689C88.6293 16.8267 89.6436 16.3927 90.6526 15.9449C91.0244 15.7791 91.4127 15.6658 91.8119 15.6658C92.5009 15.6685 93.0724 15.9339 93.4087 16.6608C93.6329 17.1445 93.6848 17.6586 93.6219 18.1948C93.4305 19.8118 92.6814 21.133 91.5631 22.2635C91.0682 22.7637 90.4749 23.1148 89.8268 23.3829C88.8234 23.7975 87.8309 24.2287 86.8329 24.6516C86.7126 24.7013 86.5923 24.74 86.4747 24.7842Z" fill="#00589A"/>
<path d="M80.525 49.0328C80.5277 48.2064 80.5277 47.38 80.5304 46.5535C80.5332 46.5425 80.5359 46.5286 80.5386 46.5176C80.905 46.3822 81.2769 46.2605 81.6378 46.1113C83.169 45.4756 84.6947 44.8315 86.2231 44.1903C86.2477 44.1792 86.2696 44.1627 86.3243 44.1295C86.3243 44.0493 86.3243 43.9498 86.3243 43.8503C86.327 41.0504 86.3297 38.2532 86.3379 35.4533C86.3407 34.5881 86.3625 33.723 86.3762 32.8606C86.3762 32.8357 86.3844 32.8109 86.4036 32.7224C87.7215 35.937 89.0202 39.0962 90.3244 42.2776C90.5596 42.1726 90.7619 42.0924 90.9533 41.9929C92.5173 41.2052 94.0813 40.4147 95.6452 39.6241C95.7929 39.5495 95.9296 39.4611 96.0772 39.3892C96.1565 39.3505 96.2468 39.3367 96.3315 39.309C96.2413 39.3809 96.1538 39.4638 96.0554 39.5274C93.8489 40.973 91.6587 42.4434 89.4303 43.8558C87.6886 44.9587 85.9087 46.0007 84.1341 47.0483C83.0569 47.684 81.9577 48.2783 80.8667 48.8863C80.7601 48.9472 80.6398 48.9831 80.525 49.0328Z" fill="#00579A"/>
<path d="M96.9358 38.8696C96.8729 38.7479 96.81 38.6263 96.7498 38.5047C96.2659 37.5041 95.7819 36.5036 95.3007 35.503C94.4093 33.6483 93.5207 31.7937 92.6321 29.939C92.5938 29.8561 92.561 29.7704 92.52 29.6682C92.591 29.635 92.6512 29.6018 92.7141 29.5742C94.2562 28.9191 95.7163 28.1148 97.026 27.0589C97.8107 26.426 98.5244 25.7156 99.0411 24.8284C99.197 24.5603 99.3282 24.2784 99.5005 24.002C99.4786 24.1623 99.4649 24.3226 99.4349 24.4801C99.1478 26.1441 98.8579 27.8052 98.5681 29.4692C98.3357 30.7987 98.1005 32.1254 97.8736 33.4549C97.6439 34.7843 97.4224 36.1138 97.1982 37.4433C97.1654 37.6423 97.1326 37.8413 97.1025 38.0404C97.0479 38.314 96.9904 38.5904 96.9358 38.8696Z" fill="#00589A"/>
<path d="M94.5188 6.85127C94.5789 6.81533 94.6363 6.76835 94.6992 6.74347C96.6542 5.97784 98.6091 5.21497 100.567 4.44934C101.33 4.15083 102.093 3.85784 102.853 3.55933C102.899 3.53998 103.003 3.55933 102.943 3.44877C103.085 3.40731 103.132 3.47918 103.112 3.60632C103.071 3.8689 103.03 4.13148 102.984 4.39406C102.771 5.58535 102.557 6.77664 102.341 7.96793C102.186 8.82477 102.027 9.68161 101.871 10.5412C101.767 11.1161 101.669 11.6938 101.529 12.266C101.529 11.8569 101.543 11.4478 101.527 11.0415C101.483 9.96354 101.182 8.97403 100.457 8.15588C100.006 7.6473 99.4404 7.29904 98.8005 7.07792C98.2564 6.88996 97.6959 6.79322 97.1217 6.73518C96.3261 6.65779 95.5441 6.73518 94.7594 6.85127C94.6828 6.86232 94.6008 6.85127 94.5188 6.85127Z" fill="#00589A"/>
<path d="M98.6337 44.6135C99.0657 44.5499 99.4978 44.4918 99.9298 44.4227C101.242 44.2127 102.555 43.9971 103.867 43.787C104.108 43.7483 104.354 43.7207 104.594 43.6875C104.69 43.7842 104.783 43.8837 104.881 43.9777C105.39 44.4476 105.899 44.9175 106.407 45.3874H106.391L106.374 45.3929C106.016 45.4399 105.658 45.4841 105.3 45.5311C104.961 45.5754 104.619 45.6223 104.28 45.6693C103.949 45.7136 103.618 45.7578 103.287 45.8048C102.937 45.8518 102.59 45.8988 102.24 45.9457C101.792 46.0066 101.346 46.0674 100.898 46.1282C100.548 46.1752 100.2 46.2277 99.8532 46.2774C99.3802 46.3465 98.9072 46.4156 98.4314 46.482C98.1006 46.529 97.767 46.5649 97.4362 46.6119C97.0971 46.6589 96.7581 46.7114 96.4163 46.7556C96.1675 46.7888 95.9187 46.8137 95.6699 46.8413C95.6617 46.822 95.6534 46.8054 95.648 46.786C96.646 46.0591 97.6385 45.3377 98.6337 44.6135Z" fill="#626262"/>
<path d="M96.9358 38.8697C96.9905 38.5906 97.0479 38.3142 97.1053 38.035C97.2147 37.8692 97.3268 37.7033 97.4279 37.532C97.7533 36.9902 98.0732 36.4457 98.4013 35.9067C98.4423 35.8404 98.508 35.7796 98.5763 35.7464C98.8689 35.5999 99.1696 35.4672 99.4622 35.3208C99.577 35.2627 99.6563 35.318 99.7384 35.3677C100.086 35.5695 100.427 35.7796 100.772 35.9786C101.275 36.2716 101.778 36.5646 102.289 36.8465C103.129 37.3053 103.974 37.7558 104.816 38.2091C104.838 38.2202 104.857 38.2451 104.903 38.2865C104.832 38.3003 104.788 38.3114 104.742 38.3142C104.354 38.3501 103.968 38.386 103.58 38.4192C103.317 38.4413 103.058 38.4634 102.795 38.48C102.434 38.5021 102.071 38.5132 101.71 38.5408C101.403 38.5657 101.1 38.6072 100.794 38.6403C100.758 38.6431 100.72 38.6431 100.684 38.6458C100.077 38.6845 99.4731 38.7177 98.8661 38.7592C98.4068 38.7896 97.9447 38.831 97.4854 38.8697C97.4143 38.8753 97.3432 38.9084 97.2721 38.9084C97.16 38.9057 97.0479 38.8836 96.9358 38.8697Z" fill="white"/>
<path d="M65.1177 39.4641C65.0985 39.4835 65.0766 39.5028 65.0575 39.5222C64.9645 39.4503 64.8716 39.3812 64.7759 39.3093C64.8907 39.3618 65.0028 39.4116 65.1177 39.4641Z" fill="#1485B1"/>
<path d="M96.3315 39.309C96.3643 39.2731 96.3971 39.2372 96.43 39.1985C96.4382 39.2123 96.4491 39.2261 96.4573 39.2399C96.4163 39.2621 96.3725 39.2869 96.3315 39.309Z" fill="#00579A"/>
<path d="M94.3547 6.90124C94.3957 6.88742 94.4367 6.87637 94.4777 6.86255C94.4367 6.87637 94.3957 6.89019 94.3547 6.90124Z" fill="#00589A"/>
<path d="M64.6693 39.254C64.7075 39.2733 64.7431 39.2927 64.7813 39.3093C64.7458 39.3065 64.7103 39.3037 64.6775 39.301V39.3065C64.6775 39.2872 64.6747 39.2678 64.6747 39.2512L64.6693 39.254Z" fill="#1485B1"/>
<path d="M80.2543 54.843C80.2629 54.8516 80.2687 54.8601 80.2773 54.8658C80.2715 54.8658 80.2658 54.8658 80.2629 54.8629C80.2601 54.8572 80.2572 54.8487 80.2543 54.843Z" fill="white"/>
<path d="M106.407 45.3873C105.899 44.9175 105.39 44.4503 104.881 43.9777C104.783 43.8865 104.69 43.7842 104.594 43.6875C105.393 43.5548 106.191 43.4194 106.992 43.2895C108.313 43.0739 109.634 42.861 110.954 42.6482C112.258 42.4381 113.56 42.2281 114.864 42.018C115.728 41.8798 116.589 41.7388 117.451 41.5979C117.587 41.5758 117.71 41.5702 117.842 41.6476C118.785 42.2032 119.734 42.7532 120.68 43.306C120.718 43.3282 120.748 43.3641 120.781 43.3945C120.778 43.4138 120.778 43.436 120.775 43.4553C120.36 43.4995 119.947 43.541 119.531 43.5907C119.045 43.6515 118.561 43.7206 118.077 43.787C117.609 43.8506 117.142 43.9169 116.677 43.9805C116.193 44.0468 115.706 44.1104 115.222 44.1739C114.774 44.2348 114.323 44.2928 113.874 44.3564C113.407 44.4227 112.942 44.4918 112.474 44.5581C111.837 44.6466 111.2 44.7378 110.56 44.8235C110.085 44.8871 109.606 44.9423 109.13 45.0059C108.537 45.0861 107.947 45.1745 107.353 45.2574C107.036 45.3044 106.722 45.3431 106.407 45.3873Z" fill="#01ADEE"/>
<path d="M64.6146 39.2485C64.6337 39.2512 64.6501 39.2539 64.6693 39.2539L64.672 39.2512C64.6529 39.2512 64.6337 39.2485 64.6146 39.2485Z" fill="#1485B1"/>
<path d="M64.6146 39.2485C64.6339 39.2485 64.6533 39.2513 64.6726 39.2513C64.6726 39.2706 64.6754 39.29 64.6754 39.3066C64.656 39.2872 64.6339 39.2679 64.6146 39.2485Z" fill="#8B8484"/>
</svg>
