<svg width="160" height="80" viewBox="0 0 160 80" fill="none" xmlns="http://www.w3.org/2000/svg">
<path d="M6.40657 38.4736V50.1368H0V31.1909H4.65435L5.96851 34.093H6.13279C7.28268 31.9028 9.47296 30.8076 12.7584 30.8076C15.0582 30.8076 16.8104 31.3552 18.0151 32.5051C19.2197 33.655 19.822 35.2429 19.822 37.2142V50.0821H13.4702V38.9664C13.4702 37.1594 12.5394 36.2286 10.6229 36.2286C8.87064 36.2286 7.50171 36.9952 6.40657 38.4736Z" fill="white"/>
<path d="M33.2923 38.6379V38.0356C33.2923 37.2143 33.0733 36.6119 32.5804 36.2286C32.1424 35.8453 31.2663 35.6811 29.9521 35.6811C27.5976 35.6811 25.4073 36.0644 23.3813 36.8857L22.4504 32.2314C23.3265 31.8481 24.5312 31.4648 26.0644 31.191C27.5975 30.9172 29.0212 30.7529 30.4449 30.7529C36.6325 30.7529 39.6989 33.0527 39.6989 37.6523V42.8542C39.6989 43.5113 39.8084 43.9494 39.9726 44.2779C40.1369 44.6065 40.4654 44.8255 40.9035 45.0445L41.8344 45.373L40.1369 50.3012C39.5893 50.4107 39.0965 50.4655 38.6037 50.4655C36.3039 50.1917 34.716 49.1513 33.8399 47.3443H33.7851C32.909 49.4251 31.0472 50.4655 28.1451 50.4655C26.0644 50.4655 24.4216 49.9179 23.2717 48.8227C22.1218 47.7276 21.5743 46.3039 21.5743 44.6065C21.5743 42.3067 22.5051 40.7187 24.4216 39.7878C25.9001 39.076 28.857 38.6927 33.2923 38.6379ZM29.7878 46.0849C31.1568 46.0849 32.3067 45.4826 33.2923 44.2232V42.3067C30.7187 42.3614 29.076 42.5804 28.4189 42.909C27.9809 43.2375 27.7618 43.6756 27.7618 44.2232C27.7618 44.716 27.9261 45.154 28.2546 45.5373C28.5832 45.9206 29.076 46.0849 29.7878 46.0849Z" fill="white"/>
<path d="M43.039 27.4679C42.3819 26.9203 42.1082 26.1537 42.1082 25.1681C42.1082 24.2372 42.4367 23.4706 43.039 22.8683C43.6961 22.3207 44.5722 21.9922 45.7769 21.9922C46.9815 21.9922 47.9124 22.266 48.5695 22.8683C49.2266 23.4706 49.5551 24.1825 49.5551 25.1133C49.5551 26.0442 49.2266 26.8108 48.5695 27.3584C47.9124 27.9607 46.9815 28.2345 45.7769 28.2345C44.5722 28.344 43.6961 28.0702 43.039 27.4679ZM49.0075 50.0825H42.601V31.1914H49.0075V50.0825Z" fill="white"/>
<path d="M51.4716 50.0823V21.0063H57.8782V50.0823H51.4716Z" fill="white"/>
<path d="M69.4867 50.4654C66.3655 50.4654 63.9015 49.644 62.0945 48.0561C60.2875 46.4134 59.3566 44.1136 59.3566 41.0472C59.3566 37.8165 60.2327 35.2977 61.9302 33.4907C63.6277 31.6837 66.1465 30.8076 69.4319 30.8076C72.2245 30.8076 74.36 31.4099 75.7837 32.6694C77.2074 33.9288 77.974 35.6262 77.974 37.7618C77.974 39.295 77.8097 40.6091 77.536 41.759H65.7632C65.7632 43.0184 66.1465 44.0041 66.8583 44.6064C67.5702 45.2087 68.7201 45.5373 70.308 45.5373C72.8816 45.5373 75.0719 45.0992 76.8789 44.2778L77.5907 48.7132C75.5099 49.9178 72.8269 50.4654 69.4867 50.4654ZM69.1581 34.9144C68.1178 34.9144 67.3512 35.1882 66.8036 35.681C66.256 36.1738 65.9822 36.9952 65.818 38.1451H71.6222C71.6222 37.8713 71.677 37.5427 71.677 37.0499C71.7317 35.6262 70.8556 34.9144 69.1581 34.9144Z" fill="white"/>
<path d="M87.2827 50.4656C84.7091 50.4656 82.6283 49.5895 80.9856 47.7825C79.3976 46.0303 78.5763 43.621 78.5763 40.6094C78.5763 37.8168 79.5072 35.4622 81.3141 33.6005C83.1211 31.7387 85.4757 30.8079 88.3778 30.8079C90.0753 30.8079 91.4989 31.1364 92.6488 31.7387L92.7036 31.684V21.0063H99.1102V42.8544C99.1102 43.5115 99.2197 43.9495 99.384 44.2781C99.5482 44.6066 99.8768 44.8256 100.315 45.0447L101.3 45.3732L99.5482 50.3013C99.0007 50.4109 98.5079 50.4656 98.0698 50.4656C95.8248 50.1918 94.2368 49.261 93.4154 47.6183H93.3607C92.2108 49.5347 90.2395 50.4656 87.2827 50.4656ZM89.1444 45.2089C90.4038 45.2089 91.6085 44.7709 92.7036 43.8948V36.6669C91.6085 36.2288 90.5133 36.0098 89.4729 36.0098C88.104 36.0098 87.0089 36.3931 86.2423 37.2144C85.4757 38.0358 85.0376 39.1309 85.0376 40.6094C85.0376 41.9235 85.4209 43.0187 86.1328 43.8948C86.7898 44.7709 87.8302 45.2089 89.1444 45.2089Z" fill="white"/>
<path d="M119.535 27.4674C118.877 26.9198 118.604 26.1532 118.604 25.1676C118.604 24.2367 118.932 23.4701 119.535 22.8678C120.192 22.3202 121.068 21.9917 122.272 21.9917C123.477 21.9917 124.408 22.2655 125.065 22.8678C125.722 23.4701 126.051 24.182 126.051 25.1128C126.051 26.0437 125.722 26.8103 125.065 27.3579C124.408 27.9602 123.477 28.234 122.272 28.234C121.123 28.3435 120.192 28.0697 119.535 27.4674ZM125.503 50.082H119.097V31.1909H125.503V50.082Z" fill="white"/>
<path d="M140.89 36.4477H135.578V42.7448C135.578 43.6756 135.743 44.3327 136.126 44.716C136.509 45.0993 137.057 45.2636 137.823 45.2636C138.59 45.2636 139.357 45.1541 140.178 44.8803L140.616 49.6989C139.411 50.2465 137.823 50.5203 135.907 50.5203C133.662 50.5203 131.964 49.9727 130.815 48.8228C129.665 47.6729 129.117 46.0302 129.117 43.9494V36.4477H126.16V31.191H129.008L132.512 26.4819H135.524V31.191H140.835V36.4477H140.89Z" fill="white"/>
<path d="M147.844 41.3758H143.737L142.642 25.0034H148.939L147.844 41.3758Z" fill="white"/>
<path d="M145.763 50.7941C144.011 50.7941 142.587 49.3704 142.587 47.6729C142.587 45.9207 144.011 44.5518 145.763 44.5518C147.515 44.5518 148.939 45.9754 148.939 47.6729C148.939 49.3704 147.515 50.7941 145.763 50.7941Z" fill="white"/>
<path d="M68.063 57.2008C68.1725 57.2008 68.2272 57.2008 68.3367 57.2008C69.2676 57.2008 70.2532 57.2008 71.1841 57.2008C71.4031 57.2008 71.5126 57.2555 71.6222 57.4198C72.6625 59.0625 73.7029 60.6504 74.7433 62.2384C74.7981 62.3479 74.8528 62.4027 74.9623 62.5122C75.0171 62.4027 75.1266 62.2932 75.1814 62.2384C76.2217 60.5957 77.2621 59.0077 78.3025 57.365C78.412 57.2008 78.4668 57.146 78.6858 57.146C79.6714 57.146 80.6571 57.146 81.6427 57.146C81.8617 57.146 81.9165 57.2008 81.9165 57.4198C81.9165 61.2528 81.9165 65.0858 81.9165 68.9188C81.9165 69.1378 81.8617 69.1925 81.6427 69.1925C80.7118 69.1925 79.7809 69.1925 78.7953 69.1925C78.5763 69.1925 78.5215 69.1378 78.5215 68.9188C78.5215 67.0023 78.5763 65.0858 78.5763 63.1693C78.5763 62.786 78.6311 62.3479 78.5763 61.9099C78.5215 61.9646 78.4668 62.0741 78.412 62.1289C77.3716 63.8264 76.2765 65.5238 75.2361 67.2213C75.0718 67.4951 74.6886 67.4951 74.5243 67.2213C73.4291 65.5238 72.3888 63.7716 71.2936 62.0741C71.2389 62.0194 71.2389 61.9646 71.1293 61.9099C71.3484 64.3192 71.2389 66.7285 71.2389 69.1378C70.1437 69.1378 69.0486 69.1378 67.8987 69.1378C68.063 65.25 68.063 61.2528 68.063 57.2008Z" fill="white"/>
<path d="M50.5955 60.9789C50.1027 60.7599 49.6646 60.5409 49.1718 60.3218C48.1314 59.9385 47.0363 59.7743 45.8864 60.0481C44.3532 60.3766 43.4223 61.5265 43.3128 63.1144C43.258 64.1001 43.4223 65.0309 44.1342 65.7428C44.7912 66.4546 45.6674 66.6736 46.5982 66.5641C47.1458 66.5094 47.6386 66.3999 48.0767 66.1261C48.3504 66.0166 48.46 65.8523 48.46 65.5238C48.4052 64.9214 48.5147 65.0309 47.9124 65.0309C47.4196 65.0309 46.9268 65.0309 46.434 65.0309C46.434 64.2096 46.434 63.443 46.434 62.6764C48.1862 62.6764 49.9932 62.6764 51.7454 62.6764C51.7454 64.8667 51.7454 67.0569 51.7454 69.2472C51.5264 69.2472 51.3073 69.2472 51.1431 69.2472C50.705 69.2472 50.2669 69.2472 49.8836 69.2472C49.6646 69.2472 49.5551 69.1925 49.4456 68.9734C49.3361 68.6997 49.1718 68.3711 49.0623 68.0973C49.0075 68.1521 48.9528 68.1521 48.898 68.2068C48.2409 69.0282 47.3648 69.3567 46.3792 69.4663C44.846 69.5758 43.4223 69.302 42.1629 68.3711C41.013 67.5498 40.3559 66.3999 40.0821 65.0309C39.7536 63.662 39.8084 62.2931 40.3559 60.9242C41.013 59.2267 42.2177 58.022 43.9699 57.4197C46.2149 56.6531 48.4052 56.8174 50.5407 57.7483C50.8145 57.8578 51.0335 58.022 51.2526 58.1863C51.3073 58.2411 51.3621 58.3506 51.3621 58.4601C51.1431 59.2815 50.8693 60.1028 50.5955 60.9789C50.5955 60.9789 50.5955 60.9242 50.5955 60.9789Z" fill="white"/>
<path d="M92.7584 61.9097C92.7584 62.4025 92.7584 62.8953 92.7584 63.3334C92.7584 63.6072 92.7584 63.8262 92.7584 64.1C92.7584 64.319 92.7036 64.3738 92.4846 64.3738C91.0062 64.3738 89.5277 64.3738 88.0493 64.3738C87.9945 64.3738 87.885 64.3738 87.8303 64.3738C87.6112 64.3738 87.5565 64.4285 87.5565 64.6476C87.5565 65.1404 87.5565 65.6332 87.5565 66.126C87.5565 66.345 87.6112 66.3998 87.8303 66.3998C89.7468 66.3998 91.6085 66.3998 93.525 66.3998C93.6345 66.3998 93.744 66.3998 93.8535 66.3998C93.8535 67.3854 93.8535 68.3163 93.8535 69.2472C90.6776 69.2472 87.447 69.2472 84.2711 69.2472C84.2711 65.2499 84.2711 61.2526 84.2711 57.2554C87.3922 57.2554 90.4586 57.2554 93.5798 57.2554C93.5798 58.1862 93.5798 59.1171 93.5798 60.1027C93.4702 60.1027 93.3607 60.1027 93.306 60.1027C91.499 60.1027 89.692 60.1027 87.9398 60.1027C87.666 60.1027 87.6112 60.1575 87.6112 60.4313C87.6112 60.8146 87.6112 61.2526 87.6112 61.6359C87.6112 61.855 87.666 61.9097 87.885 61.9097C89.4182 61.9097 91.0062 61.9097 92.5394 61.9097C92.5394 61.9097 92.5941 61.9097 92.7584 61.9097Z" fill="white"/>
<path d="M95.551 66.0164C96.4271 66.2354 97.2485 66.5092 98.0698 66.6735C99.0007 66.8378 99.9316 66.8925 100.862 66.6187C101.355 66.4545 101.739 66.1807 101.793 65.5783C101.848 65.0855 101.629 64.757 101.136 64.6475C100.589 64.538 99.9863 64.4284 99.384 64.3189C98.5626 64.1547 97.7413 64.0452 96.9747 63.8261C95.551 63.3881 94.8392 62.2382 94.8939 60.7597C94.9487 59.2265 95.77 58.1861 97.139 57.5838C98.2341 57.091 99.3292 56.9815 100.534 57.0363C101.793 57.091 102.998 57.31 104.203 57.7481C104.367 57.8028 104.422 57.9124 104.367 58.0766C104.203 58.7337 104.038 59.4456 103.929 60.1026C103.874 60.3764 103.765 60.3764 103.6 60.2669C102.341 59.8289 101.081 59.6098 99.7673 59.7193C99.4388 59.7193 99.165 59.8289 98.8364 59.9384C98.5626 60.0479 98.3984 60.2669 98.2889 60.5407C98.1246 61.0335 98.3436 61.4716 98.8364 61.5811C99.384 61.6906 99.9863 61.8001 100.534 61.9096C101.355 62.0739 102.177 62.1834 102.998 62.4024C104.422 62.8405 105.188 63.9904 105.188 65.4688C105.133 67.3306 104.093 68.6995 102.231 69.1375C100.917 69.5208 99.5483 69.4661 98.2341 69.3018C97.2485 69.1923 96.3176 68.9733 95.3867 68.59C95.2225 68.5352 95.1677 68.4805 95.2225 68.3162C95.2225 67.6044 95.3867 66.8378 95.551 66.0164Z" fill="white"/>
<path d="M66.694 69.0281C65.1061 65.1951 63.5181 61.3074 61.9302 57.4744C61.8754 57.2554 61.7659 57.2554 61.5469 57.2554C60.4517 57.2554 59.3018 57.2554 58.2067 57.2554C57.9329 57.2554 57.8234 57.3101 57.7139 57.5839C56.2902 61.0336 54.8665 64.4833 53.4428 67.933C53.2786 68.371 53.0595 68.8091 52.8953 69.3019C54.1547 69.3019 55.3046 69.3019 56.5092 69.3019C56.564 69.3019 56.6735 69.1924 56.7283 69.1376C57.002 68.4806 57.2758 67.8235 57.4949 67.1664C57.5496 67.0021 57.6591 66.9474 57.8234 66.9474C59.1923 66.9474 60.5065 66.9474 61.8754 66.9474C62.0397 66.9474 62.1492 67.0021 62.204 67.1664C62.4777 67.8235 62.6968 68.4258 62.9706 69.0829C63.0253 69.2472 63.1348 69.3019 63.2991 69.3019C64.2847 69.3019 65.2703 69.3019 66.256 69.3019C66.4202 69.3019 66.5845 69.3019 66.7488 69.3019C66.7488 69.1376 66.694 69.0829 66.694 69.0281ZM58.371 64.3738C58.8638 63.0596 59.3018 61.6907 59.7946 60.3218C60.2875 61.6907 60.7803 63.0049 61.2183 64.3738C60.2875 64.3738 59.3566 64.3738 58.371 64.3738Z" fill="white"/>
<path d="M146.311 13.9973L143.244 18.4873C140.178 17.1732 135.797 16.1328 132.293 16.1328C118.385 16.1328 107.105 27.4127 107.105 41.321C107.105 46.0301 108.419 50.4654 110.664 54.2437C107.105 49.5893 104.969 43.7851 104.969 37.488C104.969 22.3203 117.29 10 132.512 10C137.495 10 142.259 11.6975 146.311 13.9973Z" fill="#FF4E08"/>
<path d="M118.658 61.0335L121.725 56.5434C124.791 57.8576 129.172 58.898 132.676 58.898C146.585 58.898 157.864 47.618 157.864 33.7098C157.864 29.0007 156.55 24.5653 154.305 20.7871C157.864 25.4415 160 31.2457 160 37.5428C160 52.7652 147.68 65.0855 132.457 65.0855C127.474 65.0308 122.656 63.3881 118.658 61.0335Z" fill="#FF4E08"/>
</svg>
