<svg width="160" height="80" viewBox="0 0 160 80" fill="none" xmlns="http://www.w3.org/2000/svg">
<g clip-path="url(#clip0_1784_294)">
<path d="M62.7392 41.6338C57.716 45.8479 52.8614 49.9271 48.0405 53.9726C48.2765 54.512 48.4787 56.4336 48.5462 57.8496C48.681 58.0518 48.7821 58.2204 48.8833 58.4227C52.9962 56.1302 57.1429 53.804 61.2895 51.5116C61.6941 51.2756 62.1998 51.1407 62.3009 50.5339C62.8403 47.6346 62.9751 44.7691 62.7392 41.6338Z" fill="#EE5828"/>
<path d="M49.6249 61.9625C49.4227 63.4458 49.153 64.9292 48.6136 66.3451C50.2992 66.1766 51.9848 66.008 53.6705 65.8731C54.0413 65.8394 54.4121 65.8057 54.6818 65.5023C56.5023 63.5133 58.0194 61.3557 59.4016 58.7261C55.9629 59.8723 52.7939 60.9174 49.6249 61.9625Z" fill="#EE5828"/>
<path d="M15.2044 39.0716C12.9794 37.0489 11.5297 34.5879 11.0914 31.5874C9.77666 29.295 8.46186 26.9688 7.07965 24.5415C4.75348 27.3396 3.10156 30.3401 1.88791 33.5765C1.71934 34.0485 1.82048 34.3519 2.1239 34.689C5.73114 38.7682 9.30468 42.8474 12.8782 46.9267C13.7547 44.8028 14.901 42.8474 16.3506 41.0607C16.5529 40.8247 16.7889 40.5213 16.7889 40.5213C16.7889 40.5213 15.8449 39.6785 15.2044 39.0716Z" fill="#EE5828"/>
<path d="M12.2377 51.7139C9.9115 50.1294 7.92246 48.174 5.73114 46.3873C3.87695 44.8702 2.09018 43.3194 0.101139 41.6338C-0.134849 44.5668 1.51247e-06 47.2301 0.438265 49.8597C0.573116 50.6688 0.910242 51.1745 1.61821 51.579C5.39402 53.6355 9.1024 55.7257 12.8108 57.8158C13.3839 57.2764 13.5188 56.6359 13.485 55.8268C13.485 54.3097 12.4399 53.1635 12.2377 51.7139Z" fill="#EE5828"/>
<path d="M60.9187 33.4079C59.9747 30.9132 58.7611 28.5533 57.2103 26.3957C56.772 25.7888 56.4012 25.0809 55.6932 24.5752C54.7493 26.2271 53.839 27.8116 52.9288 29.3961C54.4121 30.0366 56.2326 31.0143 56.4349 32.8348C56.5023 33.4079 56.5023 33.5765 56.4686 34.2507C56.4686 34.7227 56.1989 35.1272 55.8955 35.5318C55.5584 35.9701 55.0864 36.3072 55.019 36.9477C54.7493 38.7345 54.3784 40.8921 53.9402 42.6114L53.9739 42.5777C56.1989 40.083 58.5925 37.2511 60.8512 34.7901C61.2221 34.2844 61.0872 33.8799 60.9187 33.4079Z" fill="#EE5828"/>
<path d="M11.9343 61.5242C9.16983 60.6139 6.43911 59.7037 3.67468 58.7935C4.34893 60.3105 5.19174 61.5579 5.96713 62.8053C7.31564 65.0303 9.03498 66.5474 11.8668 66.2102C12.2377 66.1765 12.6085 66.2777 12.9794 66.3114C12.3388 64.7943 12.1028 63.1761 11.9343 61.5242Z" fill="#EE5828"/>
<path d="M56.4349 32.8351C56.2663 31.0146 54.4121 30.0706 52.9288 29.3964C52.6928 29.329 52.1197 29.1267 50.5689 28.7559C50.4678 28.3176 50.3666 27.5759 50.2992 26.868C49.7261 21.3391 48.3102 15.9788 46.2874 10.7533C46.0514 10.1465 45.8829 9.6071 45.1749 9.30369C44.4669 9.00028 43.8601 9.03399 43.2196 9.16884C42.7476 9.26998 41.9722 9.6071 41.5676 9.8768C40.3203 10.6859 39.0392 11.4276 37.893 12.3715C37.1176 13.0121 36.3759 13.1469 35.3982 12.9784C32.027 12.3715 28.6557 12.4052 25.3519 13.2818C23.4977 12.0344 21.6098 10.7533 19.6882 9.53968C18.1037 8.56201 16.7889 8.89914 15.7101 10.4162C15.137 11.2253 14.7324 12.1355 14.4627 13.1132C12.7771 19.1815 10.9903 25.216 11.1252 31.6214C11.5634 34.6218 13.0131 37.0829 15.2381 39.1056C15.8449 39.7124 16.8226 40.589 16.8226 40.589C16.8226 40.589 16.5529 40.8924 16.3843 41.1284C14.9347 42.9151 13.7885 44.8705 12.9119 46.9944C12.4737 48.5451 12.1365 50.1296 12.2714 51.7478C12.44 53.1975 13.5188 54.3774 13.5525 55.8945C13.5862 56.7036 13.4176 57.3441 12.8782 57.8835C12.2714 59.0298 12.204 60.3446 12.0017 61.5919C12.1703 63.2438 12.3725 64.862 13.0131 66.4128C13.4176 67.1208 13.8222 67.8288 14.2604 68.5704C13.6536 68.739 13.1479 68.8401 12.6085 69.0087C12.3051 69.1098 11.8668 69.1773 11.8668 69.5481C11.8331 70.0201 12.3388 70.0538 12.6759 70.1549C14.3953 70.6269 16.1821 70.8292 17.9351 70.964C26.7004 71.672 35.4994 71.672 44.2647 70.964C46.0851 70.8292 47.9056 70.6269 49.6587 70.0875C49.9284 69.9864 50.3666 69.9526 50.3329 69.5144C50.2992 69.1773 49.9284 69.1098 49.6924 69.0087C48.9507 68.8064 48.1753 68.6041 47.3999 68.4019C47.8382 67.6939 48.2764 67.0534 48.7147 66.3791C49.2541 64.9632 49.5238 63.4798 49.7261 61.9965C49.7261 60.9514 49.625 59.704 48.9507 58.4229C48.8496 58.2207 48.7484 58.0521 48.6136 57.8498C48.5461 56.4676 48.3102 54.5123 48.1079 53.9729C47.8382 53.366 47.6696 52.7255 47.2988 52.2198C46.8942 51.6467 46.8605 51.5119 47.5685 51.2084C49.2541 50.4331 50.5015 49.1183 51.5466 47.6012C52.6591 46.0504 53.3333 44.2974 54.0413 42.578L54.0076 42.6117C54.4796 40.9261 54.8167 38.7348 55.0864 36.948C55.1875 36.3075 55.6258 35.9703 55.9629 35.5321C56.2663 35.1275 56.536 34.723 56.536 34.251C56.5023 33.543 56.5023 33.4082 56.4349 32.8351ZM47.0291 29.0593C46.3548 29.2615 45.8154 29.5987 45.8154 29.5987C45.8154 29.5987 45.512 29.6998 45.1412 30.1381C44.7703 30.5763 44.3995 31.318 44.3995 31.318C44.3995 31.318 44.2984 31.4866 44.2309 31.8237C44.1972 31.8911 44.1972 32.0934 44.1972 32.0934C44.1972 32.0934 44.0624 32.8014 44.0287 33.2396C43.8938 34.5544 44.8715 35.4984 45.6469 36.3749C45.9166 36.6783 46.2537 36.8469 46.2537 36.8469C46.2537 36.8469 45.8154 37.4537 45.5794 37.6897C43.287 40.0496 40.3877 41.1958 37.2187 41.8026C31.4539 42.8477 25.7227 42.7129 20.2276 40.5215C16.2495 38.9371 13.3165 36.24 12.7434 31.79C12.3051 28.2502 12.6759 24.7441 14.3616 21.4739C14.5301 21.1705 14.9684 20.3951 15.7438 19.4849C14.4964 19.8557 13.8222 20.8334 13.8222 20.8334C13.8222 20.8334 13.9907 20.2266 14.0244 20.058C14.7324 17.125 15.4067 14.0909 16.5866 11.259C17.1597 9.94423 17.5643 9.80938 18.7442 10.5848C20.2613 11.5961 21.7783 12.6412 23.2617 13.6863C23.5988 13.9223 24.0708 14.3606 24.0708 14.3606C24.0708 14.3606 24.9473 14.192 25.5542 14.0572C27.6106 13.6526 29.7008 13.5178 31.791 13.5515C34.252 13.5515 36.2073 13.8886 37.0164 14.0572C38.6684 13.1806 39.9494 11.8996 41.5339 10.8882C42.5116 10.2476 42.9836 10.1802 43.3881 10.1465C44.2309 10.0454 44.6018 10.787 44.9052 11.5624C45.8491 14.1583 46.6582 16.8216 47.3325 19.5186C47.3999 19.7209 47.5348 20.6311 47.5348 20.6311C47.5348 20.6311 46.3548 19.5186 45.3097 19.0129C48.3102 22.0808 48.5461 25.7554 49.0181 28.5873C49.0181 28.6547 49.0181 28.6547 49.0518 28.7559C48.445 28.8233 47.737 28.857 47.0291 29.0593Z" fill="#568CE2"/>
<path d="M44.1972 32.0934C44.1972 32.0934 44.1972 31.8911 44.2309 31.8237C44.2984 31.4865 44.3995 31.318 44.3995 31.318C44.3995 31.318 44.7366 30.61 45.1412 30.138C45.512 29.7335 45.8154 29.5986 45.8154 29.5986C45.8154 29.5986 46.3548 29.2278 47.0291 29.0592C47.737 28.857 48.445 28.8232 49.0518 28.7221C49.0518 28.621 49.0518 28.621 49.0181 28.5535C48.5462 25.7217 48.3102 22.047 45.3097 18.9792C46.3548 19.4848 47.5348 20.5974 47.5348 20.5974C47.5348 20.5974 47.3999 19.6871 47.3325 19.4848C46.6582 16.7878 45.8491 14.1245 44.9052 11.5287C44.6355 10.7533 44.2309 10.0116 43.3881 10.1127C42.9836 10.1465 42.5116 10.2476 41.5339 10.8544C39.9494 11.8658 38.6684 13.1806 37.0164 14.0234C36.2073 13.8548 34.252 13.5177 31.791 13.5177C29.7008 13.484 27.6106 13.6189 25.5542 14.0234C24.9473 14.1583 24.0708 14.3268 24.0708 14.3268C24.0708 14.3268 23.5988 13.9223 23.2617 13.6526C21.7783 12.5738 20.295 11.5287 18.7442 10.551C17.5643 9.77562 17.126 9.91047 16.5866 11.2253C15.4067 14.0234 14.7324 17.0575 14.0245 20.0243C13.9907 20.1928 13.8222 20.7996 13.8222 20.7996C13.8222 20.7996 14.4964 19.822 15.7438 19.4511C14.9684 20.3614 14.5301 21.1368 14.3616 21.4402C12.6759 24.6766 12.2714 28.2164 12.7434 31.7562C13.3165 36.2063 16.2495 38.8696 20.2276 40.4878C25.7227 42.7128 31.4539 42.8477 37.2187 41.7689C40.3877 41.1958 43.287 40.0158 45.5794 37.6559C45.8154 37.42 46.2537 36.8131 46.2537 36.8131C46.2537 36.8131 45.9166 36.6446 45.6469 36.3411C44.8715 35.4983 43.8938 34.5207 44.0287 33.2059C44.0624 32.8013 44.1972 32.0934 44.1972 32.0934Z" fill="#FCFCFC"/>
<path d="M13.4513 61.5583C13.5188 60.1761 13.6536 58.8613 14.5638 57.7825C15.0695 57.1757 15.6089 56.906 16.3843 57.4791C17.5306 58.3219 18.8453 58.8276 20.2276 59.1985C21.003 59.4007 21.6435 59.7716 22.048 60.3784C23.3628 62.3337 24.0708 64.4913 23.6662 66.8512C23.3965 68.3009 22.3177 69.0762 20.9018 69.4134C18.6094 69.9528 16.3843 69.0425 15.0695 67.0872C13.957 65.4016 13.5188 63.5137 13.4513 61.5583Z" fill="#FCFCFC"/>
<path d="M42.1745 69.3459C41.3654 69.0762 40.4888 68.9076 39.8483 68.2671C39.5449 67.9637 39.2078 67.694 39.5112 67.222C40.8934 65.0644 40.8597 62.7382 40.354 60.3783C40.0169 58.8275 40.8934 57.951 41.8373 57.1082C42.815 56.2654 43.9949 56.1305 45.2086 56.6362C46.6582 57.243 47.5011 58.3556 47.8382 59.8726C48.3439 62.2662 47.9393 64.5587 46.8942 66.75C46.1526 68.2334 44.8378 68.9413 43.287 69.3122C43.051 69.4133 42.4779 69.447 42.1745 69.3459Z" fill="#FCFCFC"/>
<path d="M28.4197 46.2863C27.9815 44.9715 28.8917 44.2298 29.7682 43.6567C30.7122 43.0161 31.7573 43.151 32.6338 43.8927C33.5103 44.6343 33.8137 45.5783 33.4766 46.6908C33.3418 47.1291 33.1395 47.2976 32.6675 47.0617C32.027 46.792 31.3864 46.556 30.6785 46.4211C29.9031 46.2863 28.4871 46.4885 28.4197 46.2863Z" fill="#EB5729"/>
<path d="M25.925 68.1661C25.4193 68.1998 25.0147 68.2335 24.9473 67.7615C24.9136 67.6267 25.1496 67.2896 25.217 67.2896C25.6553 67.357 25.7901 67.6941 25.925 68.1661Z" fill="white"/>
<path d="M53.9739 31.5205C53.0299 30.5766 51.7826 30.2057 50.5689 29.8012C49.7598 29.4978 48.917 29.5989 48.0742 29.7675C46.3885 30.3069 45.4783 31.4531 45.512 33.2399C45.512 33.5096 45.512 34.1164 45.9166 33.8804C46.9954 33.2736 46.5571 34.1501 46.6245 34.4872C46.7931 35.9032 47.6696 36.4426 49.0518 35.9032C48.9844 35.3975 49.0518 34.9592 49.6249 34.3861C49.6249 34.9255 49.6249 35.2626 49.6249 35.6335C49.9958 36.5774 50.6363 36.8471 51.5803 36.6111C52.7939 36.3077 52.4905 35.2963 52.5242 34.4535C53.1985 34.7906 53.0973 35.5323 53.4345 36.0043C55.2549 35.1615 55.4909 33.0039 53.9739 31.5205Z" fill="#FBFBFB"/>
<path d="M28.3523 54.8495C28.622 54.1415 28.3523 53.4336 27.6106 53.2313C27.3409 53.1639 27.0375 53.1976 26.7678 53.1976C26.5992 53.1976 26.4307 53.1639 26.4307 52.9616C26.4644 52.7256 26.7004 52.7593 26.9026 52.6582C27.0038 52.6245 27.0375 52.5233 27.0712 52.4559C27.4758 51.9165 26.8352 51.8154 26.4644 51.6805C25.6553 51.4108 24.8462 51.6131 24.0371 51.6468C21.3401 51.8154 19.8904 50.804 18.9802 48.1744C18.8116 47.399 18.879 47.0282 18.9128 46.4551C18.9802 45.8819 19.351 45.41 19.8567 45.0054C19.9579 47.0619 20.6995 48.9835 21.6772 49.8937C22.284 50.4669 22.7223 50.6691 23.228 49.6578C23.8011 48.5452 24.6776 47.5676 25.8913 47.0956C26.7004 46.7922 26.7341 46.7248 27.1386 46.5899C27.3409 46.5225 27.914 46.3539 27.914 46.3539C27.914 46.3539 27.7792 45.9831 27.7792 45.6797C27.7792 45.2077 27.8803 44.8706 27.8803 44.8706C27.8803 44.8706 27.1049 44.7694 26.5655 44.702C23.6662 44.3312 21.0029 43.4209 18.6768 41.6342C18.0025 41.0948 17.6654 41.2296 17.2271 41.8701C16.1146 43.4209 15.1032 45.0391 14.429 46.8259C12.8108 51.1411 14.2267 55.0518 18.4071 57.0745C20.3961 58.0522 22.5874 58.659 24.7113 59.367C25.0485 59.4681 25.453 59.4344 25.8238 59.4344C25.9924 59.4344 26.2284 59.2996 26.161 59.1984C25.3519 58.1533 26.3632 58.5916 26.5655 58.6253C27.0375 58.659 27.0375 58.6927 27.7792 58.3219C28.2849 58.0522 28.3186 57.3105 28.2512 56.7711C28.15 56.1643 27.6443 56.5014 27.3409 56.434C26.8352 56.3329 26.8015 56.3329 26.1947 55.7597C27.0375 55.8272 27.9477 55.8609 28.3523 54.8495Z" fill="#FCFCFC"/>
<path d="M16.418 17.7989C16.7889 16.0795 17.0923 14.8996 17.4631 13.4499C17.7665 12.27 18.2385 12.0003 19.351 12.4386C20.4973 12.9105 21.5423 13.5511 22.52 14.5625C20.2276 15.4053 18.1711 16.4167 16.654 18.2708C16.4517 18.5068 16.2495 18.7765 16.2495 18.7765C16.2495 18.7765 16.3843 17.9674 16.418 17.7989Z" fill="#ED5929"/>
<path d="M45.3097 18.5748C43.7252 16.8217 41.6014 15.3721 39.2078 14.5967C40.354 13.4842 41.5002 12.6751 42.9161 12.3043C43.523 12.1357 43.995 12.338 44.1635 12.9785C44.5681 14.6978 45.4109 18.5074 45.3097 18.5748Z" fill="#ED5929"/>
<path d="M30.3751 28.6883C30.1054 28.3174 29.8019 27.9803 29.566 27.6095C29.1277 26.8004 29.4311 26.1935 30.3076 26.1261C30.8807 26.0924 31.5887 25.8901 31.9596 26.5981C32.2967 27.2723 31.791 27.6769 31.4539 28.1151C31.2853 28.3511 31.0493 28.5197 30.8807 28.7557C30.6785 28.8905 30.5099 28.9917 30.3751 28.6883Z" fill="#EB5D2F"/>
<path d="M30.9482 29.9358C30.9145 29.5313 30.9145 29.1267 30.8807 28.7222C30.7122 28.7222 30.5436 28.6885 30.4088 28.6885C30.3751 29.1267 30.3751 29.565 30.3413 30.0033C28.9254 31.7563 27.0712 31.4192 25.1496 31.0484C26.2621 32.7003 27.2398 34.3522 27.8803 36.139C28.2512 37.2178 28.5209 38.3303 29.0603 39.3754C29.3974 39.9822 29.8356 40.5216 30.5436 40.5216C31.2853 40.5216 31.791 39.9485 32.0944 39.2742C32.4989 38.3977 32.9035 37.4875 33.2406 36.5772C33.9823 34.6556 34.8925 32.8351 36.1399 31.0821C34.1846 31.3518 32.3304 31.7563 30.9482 29.9358Z" fill="#568CE2"/>
<path d="M26.161 20.968C25.3856 20.5971 24.1719 20.7994 23.9359 20.8668C23.7 20.9343 23.464 21.0691 23.1605 21.2377C22.6549 21.5411 22.1829 22.1816 22.1492 22.5862C22.6549 21.9793 22.6886 21.8782 23.228 21.6759C23.4303 21.5748 23.3965 21.6085 24.1719 21.4737C24.3068 21.4399 25.2844 21.4062 25.9924 21.9456C26.4981 22.3165 26.5992 23.1256 26.6329 24.1032C26.6329 24.4404 26.5318 24.8786 27.1049 24.946C27.6106 25.0135 27.7117 24.6089 27.8466 24.2718C28.3523 22.6873 27.7792 21.7096 26.161 20.968Z" fill="#1D355D"/>
<path d="M35.196 20.968C35.9714 20.5971 37.185 20.7994 37.421 20.8668C37.657 20.9343 37.893 21.0691 38.1964 21.2377C38.7021 21.5411 39.1741 22.1816 39.2078 22.5862C38.7021 21.9793 38.6684 21.8782 38.129 21.6759C37.9267 21.5748 37.9604 21.6085 37.185 21.4737C37.0502 21.4399 36.0725 21.4062 35.3645 21.9456C34.8588 22.3165 34.7577 23.1256 34.724 24.1032C34.724 24.4404 34.8251 24.8786 34.252 24.946C33.7463 25.0135 33.6452 24.6089 33.5103 24.2718C32.9709 22.6873 33.5778 21.7096 35.196 20.968Z" fill="#1D355D"/>
<path d="M39.174 62.8057C39.174 62.5023 39.1403 62.1989 39.1403 61.8955C39.1403 61.8281 39.0392 61.1201 39.0392 61.0527C38.2301 57.8837 37.2861 54.7821 35.6679 51.9166C34.3531 49.5904 32.6001 47.7362 29.9031 46.9945C28.9591 46.826 28.2174 46.7922 27.2735 47.0957C27.0038 47.1968 26.7678 47.2642 26.397 47.5002C25.2844 48.2419 24.4079 49.287 24.1719 50.7703C24.8125 50.7366 25.3519 50.7029 25.8576 50.7029C26.2958 50.7029 26.7004 50.6692 27.1386 50.7366C28.9591 51.0737 29.9031 51.3097 31.1504 50.3658C31.2179 50.3321 31.2853 50.2984 31.3864 50.2984C31.7236 50.1972 32.0944 50.1972 32.3978 50.5006C32.9035 51.0063 32.5327 51.276 32.1618 51.5794C31.7236 51.9166 31.319 52.22 30.8807 52.5571C30.611 52.7594 30.4762 53.0291 30.7122 53.2988C30.9144 53.5685 31.1504 53.2988 31.3527 53.1976C31.9595 52.8268 32.5664 52.456 33.1058 52.0514C33.5777 51.7143 34.016 51.6132 34.3531 52.1863C34.6903 52.7594 34.5891 53.2651 33.9823 53.5011C33.308 53.7708 32.6001 54.0067 31.8584 54.1753C31.4201 54.2764 31.0493 54.445 30.9819 54.917C30.8807 55.6924 30.3413 55.7935 29.7008 55.7598C29.3974 56.1306 29.4311 56.5352 29.6671 56.906C30.5773 57.0409 31.1841 56.4003 31.8921 55.9958C32.9372 55.4227 33.9149 54.681 35.1285 54.4787C36.1062 54.5799 36.2748 55.1193 35.8702 55.9284C35.1959 56.5015 34.252 56.1981 33.5777 56.67C33.0383 57.0409 31.8584 56.9397 32.027 57.7151C32.1281 58.2882 33.0383 57.8163 33.5777 57.5129C33.8474 57.3443 33.9149 57.3443 34.1509 57.2094C34.6903 56.9735 35.1285 56.5689 35.5331 57.1757C35.9039 57.7151 35.4319 58.1197 35.1285 58.5242C35.0274 58.6928 34.8251 58.7939 34.6903 58.9288C34.1509 59.367 33.0383 59.6367 32.8698 59.4345C32.4652 58.8951 34.1846 58.8951 33.8474 58.4231C33.6789 58.1871 32.1618 58.3557 31.8247 59.4682C31.3527 61.0864 28.4871 61.9966 27.0712 60.9852C27.0712 60.9852 26.6667 60.7493 27.0712 60.6481C28.1163 60.3784 29.1951 60.3447 30.1053 59.6705C30.375 59.4682 30.7122 59.2322 30.4762 58.8614C30.2739 58.5242 29.9705 58.7939 29.7008 58.8614C28.5883 59.1985 27.7118 59.9064 26.5992 60.2436C26.3632 60.311 26.1273 60.4121 25.8576 60.3784C25.3519 60.3447 24.8462 60.075 24.3742 60.4796C24.6102 61.4572 24.8125 62.4349 25.0822 63.3788C25.689 65.3005 26.5992 67.0872 28.2849 68.3009C30.7459 70.0539 33.4429 70.3574 36.1399 69.0089C38.7695 67.7615 39.2752 65.4016 39.174 62.8057ZM37.1176 65.1656C36.8816 65.2668 36.6119 65.5027 36.3759 65.1319C36.0388 64.8285 36.2748 64.4239 36.1736 64.0868C36.0388 63.6485 36.2748 62.9406 35.5331 62.9406C34.9262 62.9406 34.252 63.1766 34.016 63.8171C33.8137 64.3228 33.8137 64.8959 34.5217 65.0982C34.8588 64.7611 34.252 64.1542 34.8588 63.8845C35.9376 64.1542 35.1285 65.1656 35.5331 65.7724C35.6342 65.941 34.8588 66.0084 34.488 66.0759C33.6115 66.2444 32.9035 66.6827 32.1281 67.0872C31.8584 67.2221 31.7236 67.3906 31.3864 67.0872C31.1167 66.8512 31.1167 66.6153 31.0156 66.3456C30.9144 66.0421 30.9144 65.7724 31.1841 65.5702C31.5887 65.3005 31.791 65.6039 31.9933 65.8736C32.1281 66.0421 32.263 66.177 32.4989 66.1433C32.5664 64.7611 32.3978 64.5925 31.2179 64.9296C30.2402 65.2667 29.7345 65.7387 30.4762 66.7838C30.847 67.2895 30.3413 67.4918 29.9368 67.6603C29.4985 67.8626 29.2288 67.8289 28.9928 67.2895C28.0826 65.1656 28.0826 65.1993 30.5773 64.4239C30.8133 64.1542 31.555 64.1542 31.1841 63.5811C30.9482 63.1766 30.5099 63.5137 30.1728 63.6485C29.4311 63.952 28.7231 64.5251 27.8466 64.0531C27.6443 63.952 27.4083 63.716 27.3746 63.5137C27.3072 63.2103 27.678 63.1766 27.8803 63.1091C30.5436 62.2663 33.0046 61.019 35.3982 59.603C35.6005 59.4682 35.8365 59.367 36.0725 59.3333C36.5445 59.2659 36.9827 59.3333 37.0839 59.9402C37.1513 60.4459 37.1176 60.8504 36.5107 60.9515C35.4994 61.1538 34.488 61.3898 33.4766 62.0303C34.3194 62.3 34.96 61.9966 35.5668 61.7944C36.6456 61.3898 37.2187 61.8281 37.2524 62.8394C37.3536 63.6148 38.2301 64.4914 37.1176 65.1656Z" fill="white"/>
<path d="M32.2292 37.2855C31.9595 37.9597 31.791 38.3643 31.4538 39.0048C30.9819 39.9487 30.0379 39.9825 29.5997 39.0385C29.1277 37.9597 28.7906 36.8472 28.4197 35.701C28.2174 35.0604 28.4871 34.6559 29.1277 34.3525C30.2402 33.8131 31.2516 33.9479 32.2292 34.3862C32.4652 34.4873 32.7012 34.5885 32.8361 34.7907C33.0046 35.0604 32.8698 35.5661 32.7686 35.8021C32.6001 36.4089 32.4989 36.7461 32.2292 37.2855Z" fill="#EC5828"/>
<path d="M15.9798 33.3405C15.9461 33.3405 15.9123 33.3405 15.8786 33.3068C15.7438 33.2394 15.7101 33.1045 15.7775 32.9697C15.8112 32.9022 16.7889 31.048 19.2836 30.1041C19.4184 30.0367 19.5533 30.1041 19.6207 30.2389C19.6544 30.3738 19.6207 30.5086 19.4859 30.5761C17.1934 31.4526 16.2832 33.2057 16.2495 33.2057C16.182 33.2731 16.0809 33.3405 15.9798 33.3405Z" fill="#0C2956"/>
<path d="M14.8673 30.6775C14.8336 30.6775 14.7998 30.6438 14.7998 30.6101C14.6987 30.5089 14.6987 30.3404 14.7998 30.2392C14.8673 30.1718 16.418 28.7896 19.0813 28.7559C19.2162 28.7559 19.351 28.857 19.351 28.9918C19.351 29.1267 19.2499 29.2615 19.1151 29.2615C16.654 29.2953 15.2044 30.6101 15.1707 30.6101C15.0695 30.7112 14.9684 30.7112 14.8673 30.6775Z" fill="#0C2956"/>
<path d="M14.4964 27.9805C14.4627 27.9468 14.4627 27.9468 14.429 27.9131C14.3616 27.7782 14.429 27.6434 14.5301 27.5759C14.5976 27.5422 16.4855 26.632 19.0476 27.3737C19.1825 27.4074 19.2499 27.5422 19.2162 27.6771C19.1825 27.8119 19.0476 27.8793 18.9128 27.8456C16.5529 27.1714 14.7661 28.0142 14.7661 28.0142C14.665 28.0479 14.5638 28.0479 14.4964 27.9805Z" fill="#0C2956"/>
<path d="M45.2423 33.1724C45.276 33.1724 45.3097 33.1724 45.3435 33.1387C45.4783 33.0713 45.512 32.9365 45.4446 32.8016C45.4109 32.7342 44.6018 31.0486 42.1408 30.0709C42.0059 30.0035 41.8711 30.0709 41.8036 30.2057C41.7699 30.3406 41.8036 30.4754 41.9385 30.5429C44.2309 31.4194 44.9726 33.0039 44.9726 33.0376C45.04 33.1387 45.1412 33.1724 45.2423 33.1724Z" fill="#568CE2"/>
<path d="M46.3211 30.5089C46.3548 30.5089 46.3885 30.4752 46.3885 30.4415C46.4897 30.3404 46.4897 30.1718 46.3885 30.0707C46.3211 30.0032 44.9726 28.7559 42.3093 28.7222C42.1745 28.7222 42.0396 28.8233 42.0396 28.9582C42.0396 29.093 42.1407 29.2279 42.2756 29.2279C44.7366 29.2616 45.984 30.4078 46.0177 30.4415C46.1188 30.5426 46.22 30.5764 46.3211 30.5089Z" fill="#568CE2"/>
<path d="M46.9279 27.9805C46.9617 27.9468 46.9617 27.9468 46.9954 27.9131C47.0628 27.7782 46.9954 27.6434 46.8942 27.5759C46.8268 27.5422 44.9389 26.632 42.3768 27.3737C42.2419 27.4074 42.1745 27.5422 42.2082 27.6771C42.2419 27.8119 42.3768 27.8793 42.5116 27.8456C44.8715 27.1714 46.6582 28.0142 46.6582 28.0142C46.7257 28.0479 46.8605 28.0479 46.9279 27.9805Z" fill="#568CE2"/>
<path d="M51.85 37.9257C51.3106 37.9257 50.8049 37.8583 50.2992 37.7234C49.8609 37.6223 49.1192 37.2515 49.1192 37.2515C49.1192 37.2515 47.8719 37.4875 47.1976 37.2515C47.1976 37.2515 47.6359 40.7576 45.04 42.3421C45.3097 41.9375 46.22 40.6564 45.984 39.5102C45.2423 40.4204 44.3995 41.1621 44.2646 41.2633C41.9048 42.8815 39.3089 43.994 36.5107 44.5334C35.7353 44.6682 34.1509 44.9716 34.1509 44.9716C34.1509 44.9716 34.252 45.6796 34.1509 46.2527C34.0497 46.8596 33.78 47.5001 33.78 47.5001C33.78 47.5001 34.0834 47.8035 34.2857 47.9721C36.8479 50.096 38.0952 53.0627 39.174 56.0968C39.3426 56.5351 39.3426 57.0745 39.7809 57.4453C40.7248 56.4339 41.7699 55.5574 43.1858 55.254C44.7366 54.9506 46.0851 55.6585 47.1976 57.007C47.3325 56.3328 47.3325 55.8945 47.3325 55.5237C47.3325 54.782 47.0965 54.0741 46.8268 53.4335C46.5571 52.5907 45.9503 51.8827 45.8828 50.9388C46.8268 50.9725 47.4673 50.4331 48.1416 49.86C50.0295 48.2081 51.2094 46.0842 52.086 43.7917C52.7939 41.9038 53.0973 39.881 53.5356 37.9257C53.5693 37.6897 53.6367 37.4875 53.7042 37.2515C53.4682 37.3863 52.5916 37.9257 51.85 37.9257Z" fill="#FCFCFC"/>
<path d="M131.243 44.9374H138.255L129.793 31.6546L137.649 23.5636H130.636L123.456 31.0141V15.6074H117.387V44.9374H123.456V38.1949L125.579 36.0035L131.243 44.9374Z" fill="#568CE2"/>
<path d="M84.4838 22.9907C81.2474 22.9907 79.0898 25.7552 78.5166 26.5643V23.3616H72.4484V44.9376H78.5166V32.2617V32.228C78.5166 30.1715 80.1686 28.5196 82.225 28.5196C84.2815 28.5196 85.9334 30.1715 85.9334 32.228C85.9334 32.2617 85.9334 32.2954 85.9334 32.3291V44.9376H92.0017V30.3064C92.0017 25.5866 88.2596 22.9907 84.4838 22.9907Z" fill="#568CE2"/>
<path d="M148.369 23.0244C141.93 23.0244 136.738 27.9802 136.738 34.1159C136.738 40.2516 141.93 45.2073 148.369 45.2073C154.808 45.2073 160 40.2516 160 34.1159C160 27.9802 154.808 23.0244 148.369 23.0244ZM148.369 39.9481C145.335 39.9481 142.874 37.3186 142.874 34.1159C142.874 30.9132 145.335 28.2836 148.369 28.2836C151.403 28.2836 153.864 30.9132 153.864 34.1159C153.898 37.3523 151.403 39.9481 148.369 39.9481Z" fill="#568CE2"/>
<path d="M104.576 23.0244C98.7779 23.0244 94.0919 27.9802 94.0919 34.1159C94.0919 40.2516 98.7779 45.2073 104.576 45.2073C109.667 45.2073 111.117 44.0948 114.016 41.2292L110.409 38.1614C108.083 40.3527 106.667 40.3527 104.576 40.3527C102.486 40.3527 100.7 38.4648 99.9916 36.3072H109.195H114.859H115.061V34.7227C115.061 34.5204 115.061 34.3181 115.061 34.1159C115.061 27.9802 110.375 23.0244 104.576 23.0244ZM99.7893 32.5988C100.362 30.1378 102.284 28.3173 104.576 28.3173C106.869 28.3173 108.791 30.1378 109.364 32.5988H99.7893Z" fill="#568CE2"/>
<path d="M72.1787 57.209C72.1787 56.1639 72.381 55.1526 72.7855 54.2086C73.1901 53.2646 73.7295 52.4218 74.4374 51.7139C75.1454 51.0059 75.9882 50.4328 76.9996 50.0282C78.011 49.6237 79.0898 49.3877 80.236 49.3877C81.5508 49.3877 82.6633 49.5563 83.5735 49.8934C84.4838 50.2305 85.394 50.7362 86.2368 51.4442L84.4838 53.4669C83.8095 52.9275 83.169 52.4893 82.4947 52.2533C81.8542 51.9836 81.0451 51.8487 80.1011 51.8487C79.1572 51.8487 78.3144 52.0847 77.539 52.5904C76.7636 53.0624 76.1568 53.7366 75.7185 54.5457C75.2802 55.3885 75.0443 56.2651 75.0443 57.2427C75.0443 58.2878 75.2465 59.1981 75.6848 60.0409C76.1231 60.85 76.7299 61.4905 77.539 61.9625C78.3481 62.4345 79.292 62.6705 80.3371 62.6705C81.8205 62.6705 83.0678 62.2996 84.1129 61.5242V58.6924H80.1011V56.3662H86.7425V62.7379C84.8546 64.3224 82.6633 65.0978 80.236 65.0978C78.6515 65.0978 77.2356 64.7606 75.9882 64.0527C74.7408 63.3784 73.7969 62.4345 73.1563 61.2545C72.5158 60.0409 72.1787 58.6924 72.1787 57.209Z" fill="#EE5828"/>
<path d="M90.7543 64.7943L97.6317 49.5225H100.194L107.038 64.7943H104.138L102.554 61.1196H95.1707L93.5525 64.7943H90.7543ZM96.182 58.7597H101.576L98.8791 52.6914L96.182 58.7597Z" fill="#EE5828"/>
<path d="M111.252 64.7942V49.6235H114.185L118.938 56.8043L123.692 49.6235H126.625V64.7942H123.894V53.905L118.972 61.0521H118.871L113.982 53.9387V64.7605H111.252V64.7942Z" fill="#EE5828"/>
<path d="M132.12 64.7942V49.6235H143.683V51.9834H134.85V55.9952H142.672V58.3551H134.85V62.4343H143.784V64.7942H132.12Z" fill="#EE5828"/>
<path d="M147.83 62.5693L149.482 60.6814C150.257 61.3219 151.032 61.8276 151.808 62.1647C152.583 62.5018 153.46 62.6704 154.404 62.6704C155.247 62.6704 155.921 62.5019 156.426 62.131C156.932 61.7939 157.168 61.3219 157.168 60.7151C157.168 60.3442 157.067 60.0071 156.898 59.7711C156.73 59.5351 156.359 59.2654 155.853 59.0632C155.348 58.8272 154.606 58.6249 153.662 58.3889C152.752 58.1866 152.01 57.9844 151.437 57.7484C150.864 57.5124 150.324 57.2427 149.853 56.9056C149.381 56.5684 149.043 56.1302 148.807 55.6245C148.571 55.1188 148.47 54.5457 148.47 53.8377C148.47 52.5566 148.976 51.4778 149.954 50.6687C150.965 49.8596 152.246 49.4551 153.797 49.4551C155.954 49.4551 157.842 50.0956 159.461 51.343L157.977 53.3657C156.528 52.3207 155.112 51.815 153.729 51.815C152.954 51.815 152.314 51.9835 151.875 52.3206C151.403 52.6578 151.201 53.096 151.201 53.6354C151.201 54.04 151.302 54.3771 151.504 54.6468C151.707 54.9165 152.078 55.1525 152.583 55.3548C153.123 55.5571 153.864 55.793 154.876 56.029C156.595 56.4336 157.876 56.973 158.685 57.6472C159.494 58.3215 159.899 59.2654 159.899 60.5128C159.899 61.895 159.393 63.0075 158.348 63.8166C157.337 64.6257 155.988 65.0303 154.303 65.0303C151.842 64.9966 149.684 64.1875 147.83 62.5693Z" fill="#EE5828"/>
</g>
<defs>
<clipPath id="clip0_1784_294">
<rect width="160" height="80" fill="white"/>
</clipPath>
</defs>
</svg>
