<svg width="160" height="80" viewBox="0 0 160 80" fill="none" xmlns="http://www.w3.org/2000/svg">
<g clip-path="url(#clip0)">
<path d="M56.6131 9.79901C56.6131 9.79901 55.5075 6.18092 58.2462 6.18092C60.9849 6.18092 66.5377 6.18092 66.5377 6.18092C66.5377 6.18092 68.9497 6.05529 69.804 9.07037C70.6583 12.0854 75.0553 30.0503 78.5728 36.5578C82.0904 43.0653 83.9749 46.2312 86.8643 44.7236C89.7537 43.2161 93.5226 35.3266 94.1507 33.9447C94.7789 32.5628 93.0955 40.0503 93.0955 40.0503L88.9497 48.0402L84.4774 50.8794L81.6884 49.7236L78.196 47.8643C78.196 47.8643 59 11.7337 58.8744 11.7086C58.7487 11.6834 56.6131 9.79901 56.6131 9.79901Z" fill="url(#paint0_linear)"/>
<path d="M95.9598 0.0252329C90.1307 -0.47728 79.5779 6.05538 75.9096 8.89458C75.9096 8.89458 74.5528 10.0252 74.9799 11.0303C75.407 12.0353 81.2362 8.86945 82.4925 8.06543C83.7488 7.26141 92.8694 4.29659 92.8694 4.29659L95.8091 5.05036L98.0704 7.38704C98.0704 7.38704 98.5729 22.2112 93.4724 34.6483C92.6935 37.0604 91.7136 40.5026 90.5076 43.3418C91.0352 43.9448 91.5628 44.5478 92.0653 45.1509C94.6533 40.6534 97.995 33.3167 100.658 22.0855C105.181 3.04031 101.789 0.527745 95.9598 0.0252329Z" fill="url(#paint1_linear)"/>
<path d="M86.6131 48.3166C83.4221 49.0201 76.8644 40.1005 76.8644 40.1005C76.8644 40.1005 66.7136 9.62308 65.8593 8.64318C65.5578 8.29142 65.2061 7.88941 64.7538 7.88941C63.4724 7.88941 61.8141 7.88941 61.0855 7.88941H57.6181C57.6181 7.88941 56.2613 7.86429 56.6885 10.3266C57.1156 12.7889 58.799 20.2512 62.7186 28.5929C66.6633 36.9346 71.1608 45.9799 77.6181 50.7537C83.7739 55.3015 86.8392 51.7085 88.196 50.4774C88.8493 49.8995 90.2814 48.3166 92.0654 45.1758C91.5377 44.5728 91.0352 43.9698 90.5076 43.3668C89.402 45.9045 88.1458 47.9648 86.6131 48.3166Z" fill="#8F1515"/>
<path d="M75.3065 10.3769C75.3065 10.3769 81.5377 5.72871 86.4874 3.69353C91.4372 1.65836 97.1407 0.577954 100.357 4.19604C103.573 7.81413 100.256 21.1056 99.603 23.5428C98.9497 25.98 95.1055 41.4825 90.1809 48.1408C85.2563 54.7991 81.6131 53.4674 77.6935 48.8694C73.7739 44.2714 65.3316 35.1759 59 10.8292C58.5226 8.09052 60.3316 7.86439 61.5377 7.88951C61.5377 7.88951 65.5578 7.83926 66.0352 7.93976C66.5125 8.04026 68.1457 8.11564 69.2512 12.6885C70.3568 17.2614 73.2713 29.3719 76.8894 36.9096C80.5075 44.4473 83.6985 50.2262 88.0201 44.1709C92.3417 38.1156 96.3115 27.2614 96.3115 20.1508C96.3115 13.0403 94.402 5.60308 87.7186 7.99001C81.0352 10.3769 79.0754 11.8845 78.6734 12.1357C78.2713 12.387 76.7889 13.0151 75.8844 12.1357C75.3065 11.583 74.9548 11.1307 74.9799 10.8292C74.9548 10.6282 75.2311 10.4523 75.3065 10.3769Z" fill="#C13939"/>
<path d="M62.995 13.8442C63.1709 14.0452 68.9749 36.809 79.9548 48.1407C80.2563 48.4422 80.5578 48.7437 80.8342 49.0201C79.8291 50.603 78.7236 50 78.7236 50C78.7236 50 74.7035 46.3316 70.0301 38.5929C66.5126 32.7638 62.6432 24.5728 59.8794 14.0955C59.8794 14.0703 61.2362 11.9095 62.995 13.8442Z" fill="url(#paint2_linear)"/>
<path d="M61.3367 25.5027C60.5075 26.4072 56.6633 30.7037 56.7638 33.4424C56.8894 36.5328 58.397 38.7941 66.3869 35.578C74.3769 32.362 79.7035 27.5881 80.9095 26.5328C82.1156 25.4775 83.4221 31.7589 83.4221 31.7589L82.9196 32.1358C82.9196 32.1358 78.9497 34.2715 77.5176 35.1007C76.0854 35.9298 63.0703 42.2112 56.1608 40.9549C49.2512 39.6986 50.5578 35.98 52.2663 32.7137C53.6734 29.975 56.7387 25.5278 60.0553 22.2363C60.1306 22.4876 60.8593 24.372 61.3367 25.5027Z" fill="url(#paint3_linear)"/>
<path d="M85.5075 33.0656C88.6159 33.0656 91.1357 30.5458 91.1357 27.4375C91.1357 24.3291 88.6159 21.8093 85.5075 21.8093C82.3992 21.8093 79.8794 24.3291 79.8794 27.4375C79.8794 30.5458 82.3992 33.0656 85.5075 33.0656Z" fill="#A8001C"/>
<path d="M86.2864 31.6334C87.6463 31.6334 88.7487 30.5309 88.7487 29.1711C88.7487 27.8112 87.6463 26.7087 86.2864 26.7087C84.9265 26.7087 83.8241 27.8112 83.8241 29.1711C83.8241 30.5309 84.9265 31.6334 86.2864 31.6334Z" fill="white"/>
<path d="M60.0301 22.2112C58.4975 23.8192 57.0653 25.5026 55.7588 27.2866C55.1055 28.166 54.4523 29.0705 53.8995 30.0253C53.3467 30.98 52.8442 31.9599 52.3166 32.9398C51.8141 33.9197 51.3116 34.9248 51.0352 35.9549C50.9095 36.4825 50.8844 37.0353 51.0603 37.5378C51.211 38.0403 51.4874 38.5177 51.8392 38.9197C52.1909 39.3217 52.6432 39.6484 53.1206 39.8996C53.598 40.1509 54.1005 40.3519 54.6281 40.4775C55.6834 40.7539 56.7889 40.8795 57.8693 40.9046C58.9749 40.9549 60.0804 40.8795 61.1608 40.7539L61.9648 40.6031C62.2412 40.5529 62.5176 40.5026 62.7688 40.4524C63.2965 40.3268 63.8492 40.2263 64.3769 40.0755C66.5126 39.4976 68.598 38.769 70.6583 37.965C72.7186 37.1609 74.7286 36.2815 76.7387 35.3268C78.7236 34.372 80.7085 33.367 82.593 32.2363C78.8241 34.573 74.8291 36.4825 70.7337 38.166C68.6734 38.9951 66.5879 39.7489 64.4523 40.3268C63.9246 40.4775 63.3719 40.6031 62.8442 40.7288C62.5678 40.8041 62.2915 40.8293 62.0151 40.8795L61.1859 41.0303C60.0804 41.1559 58.9749 41.2313 57.8442 41.2062C56.7387 41.1559 55.608 41.0554 54.5276 40.7539C53.9749 40.6031 53.4724 40.4021 52.9698 40.1509C52.4673 39.8996 52.0151 39.5479 51.6382 39.1207C51.2613 38.6936 50.9598 38.1911 50.809 37.6383C50.6332 37.0856 50.6583 36.4825 50.7839 35.9549C51.0603 34.8494 51.5879 33.8695 52.0904 32.8896C52.6181 31.9097 53.1206 30.9298 53.6985 29.975C54.2764 29.0202 54.9296 28.1157 55.608 27.2363C57.0151 25.4524 58.4724 23.7941 60.0301 22.2112Z" fill="#7A1C29"/>
<g opacity="0.69">
<path opacity="0.69" d="M56.6633 10.3267C56.5628 9.87447 56.5377 9.42221 56.5879 8.96995C56.6131 8.74382 56.6884 8.51769 56.8141 8.31668C56.9397 8.11568 57.1407 7.9398 57.3668 7.86442C57.6181 7.78904 57.8442 7.78905 58.0703 7.78905L58.7487 7.76392C59.201 7.73879 59.6533 7.73879 60.1055 7.73879C61.9146 7.71367 63.7236 7.71367 65.5578 7.71367H65.5075C65.6834 7.68854 65.8342 7.68854 65.9849 7.71367C66.0603 7.71367 66.1357 7.73879 66.2111 7.73879C66.2864 7.76392 66.3618 7.76392 66.4372 7.78905C66.7136 7.86442 66.99 8.01518 67.2161 8.19105C67.6935 8.54281 68.0704 8.99508 68.3467 9.47246C68.4221 9.59809 68.4975 9.72372 68.5477 9.84935C68.598 9.97497 68.6734 10.1006 68.7236 10.2262C68.8241 10.4775 68.9246 10.7539 69 11.0051C69.1759 11.5328 69.3266 12.0353 69.5025 12.5629C69.804 13.6182 70.0804 14.6735 70.3317 15.7287C70.4573 16.2564 70.5578 16.784 70.6834 17.3117L71.0854 18.8946C71.6131 21.0051 72.1658 23.0906 72.7688 25.176C73.3719 27.2614 73.9246 29.3468 74.7286 31.382C74.2513 30.4021 73.8744 29.372 73.4975 28.3669C73.1206 27.3368 72.794 26.3066 72.4673 25.2765C71.8141 23.1911 71.2111 21.1056 70.6583 19.0202C70.5075 18.4926 70.3819 17.9649 70.2312 17.4373C70.1055 16.9096 69.9799 16.382 69.8543 15.8544C69.603 14.7991 69.3266 13.7438 69.0251 12.7137C68.8744 12.186 68.7236 11.6835 68.5477 11.1559C68.4724 10.9046 68.3719 10.6534 68.2714 10.4021C68.2211 10.2765 68.1709 10.176 68.1206 10.0504C68.0704 9.92472 67.995 9.82422 67.9447 9.69859C67.6935 9.24633 67.3668 8.84432 66.9648 8.54281C66.7638 8.39206 66.5377 8.26643 66.3116 8.19105C66.2613 8.16593 66.1859 8.16593 66.1357 8.1408C66.0854 8.11568 66.01 8.11568 65.9598 8.11568C65.8342 8.09055 65.7085 8.09055 65.608 8.11568H65.5829H65.5578L60.1306 7.99005L58.7739 7.96492H58.0955C57.8693 7.96492 57.6432 7.96492 57.4422 8.01518C57.2412 8.06543 57.0653 8.19106 56.9397 8.36693C56.8141 8.54281 56.7638 8.76894 56.7136 8.96995C56.5879 9.42221 56.6131 9.87447 56.6633 10.3267Z" fill="#C13939"/>
</g>
<path d="M74.9548 11.0305C74.9045 10.9048 74.9296 10.7792 74.9799 10.6536C75.0301 10.528 75.1558 10.4526 75.2563 10.4023C75.4824 10.2767 75.6834 10.126 75.9095 10.0003L77.1658 9.12093C77.995 8.54304 78.8492 7.96515 79.7035 7.38726C81.412 6.25661 83.1457 5.17621 85.005 4.32193C85.9347 3.8948 86.8643 3.49279 87.8191 3.1159C88.7739 2.76415 89.7537 2.43751 90.7336 2.16113C91.7135 1.90987 92.7437 1.70887 93.7738 1.63349C94.804 1.55812 95.8593 1.63349 96.8392 1.98525C97.7939 2.33701 98.7738 2.73902 99.5779 3.39229C99.7789 3.54304 99.9799 3.71892 100.181 3.8948C100.357 4.0958 100.533 4.27168 100.683 4.49781C100.834 4.69882 100.96 4.92495 101.111 5.15108C101.211 5.37721 101.337 5.62847 101.412 5.87972C101.588 6.35711 101.688 6.88475 101.764 7.38726C101.789 7.63852 101.814 7.88977 101.839 8.16615C101.839 8.41741 101.864 8.69379 101.864 8.94505C101.864 9.9752 101.814 10.9802 101.739 12.0104C101.588 14.0456 101.286 16.0807 100.91 18.0908C100.533 20.1008 100.03 22.0858 99.5025 24.0455C100.005 22.0606 100.457 20.0757 100.784 18.0657C101.136 16.0556 101.412 14.0456 101.538 12.0104C101.613 11.0054 101.638 9.9752 101.638 8.97018C101.638 8.71892 101.613 8.46766 101.613 8.21641C101.613 7.96515 101.563 7.71389 101.538 7.46264C101.462 6.96012 101.362 6.45761 101.186 6.00535C101.111 5.75409 100.985 5.55309 100.884 5.32696C100.759 5.10083 100.633 4.89982 100.482 4.69882C100.332 4.49781 100.156 4.32193 100.005 4.12093C99.8291 3.94505 99.6532 3.76917 99.4271 3.64354C98.6231 3.04053 97.6934 2.63852 96.7387 2.28676C95.809 1.935 94.7789 1.85962 93.7738 1.935C92.7688 2.01038 91.7638 2.18626 90.7839 2.43751C88.8241 2.94002 86.9146 3.69379 85.0553 4.54806C83.196 5.37721 81.4623 6.43249 79.7286 7.53801C78.8744 8.09078 78.0201 8.64354 77.1658 9.22143L75.8844 10.0757C75.6583 10.2013 75.4573 10.3521 75.2311 10.4777C75.1306 10.528 75.005 10.6033 74.9548 10.729C74.9296 10.7792 74.9296 10.9048 74.9548 11.0305Z" fill="#DD4747"/>
<path d="M89.3518 42.0352C88.9497 42.8141 88.4724 43.593 87.9698 44.3217C87.7186 44.6985 87.4422 45.0503 87.1658 45.4021C86.8643 45.7538 86.5377 46.0805 86.1608 46.3317C85.7839 46.583 85.3568 46.8091 84.8794 46.8845C84.402 46.985 83.8995 46.9347 83.4472 46.784C83.2211 46.7086 83.0201 46.6081 82.794 46.4825C82.6935 46.4322 82.593 46.382 82.4925 46.3066L82.3417 46.2061L82.2161 46.0805C81.8643 45.7789 81.5628 45.4272 81.2613 45.1006C80.1307 43.6935 79.201 42.1609 78.3719 40.5779C77.5678 38.995 76.8643 37.3367 76.2864 35.6533C77.0402 37.2614 77.8442 38.8443 78.7236 40.3769C79.1759 41.1307 79.603 41.9096 80.1055 42.6382C80.5829 43.3669 81.0854 44.0955 81.6633 44.7739C81.9397 45.1006 82.2412 45.4272 82.5427 45.7036C82.8442 45.98 83.2211 46.181 83.598 46.3317C83.9749 46.4825 84.3769 46.5327 84.7789 46.4573C85.1809 46.382 85.5578 46.2061 85.9347 45.98C86.3116 45.7789 86.6131 45.4774 86.9146 45.1508C87.2161 44.8493 87.4925 44.4975 87.7688 44.1458C88.3467 43.4925 88.8492 42.7639 89.3518 42.0352Z" fill="#DD4747"/>
<path d="M82.2412 32.0101C81.2613 31.3568 80.4824 30.3769 80.0804 29.2462C79.8794 28.6935 79.7789 28.0653 79.7789 27.4874C79.7789 26.8844 79.8542 26.2814 80.0301 25.7035C80.206 25.1256 80.5075 24.598 80.8593 24.0955C81.211 23.6181 81.6382 23.1658 82.1407 22.8392C82.6432 22.4874 83.1708 22.2111 83.7487 22.0603C84.3266 21.9095 84.9296 21.809 85.5075 21.8342C84.3266 21.8844 83.1708 22.2864 82.2663 22.9899C81.3367 23.6683 80.6331 24.6734 80.2814 25.7789C80.1055 26.3317 80.0301 26.9095 80.005 27.4874C80.005 28.0653 80.1055 28.6432 80.2563 29.196C80.4321 29.7487 80.6834 30.2764 81.0352 30.7538C81.3618 31.2312 81.7638 31.6583 82.2412 32.0101Z" fill="#DD1E35"/>
<path d="M47.2663 60.4523V58.2664H42.8693H40.6834V60.4523V62.8392V65.0251V68.3669V70.5528H42.8693H47.2663V68.3669H42.8693V65.0251H47.2663V62.8392H42.8693V60.4523H47.2663Z" fill="white"/>
<path d="M120.131 60.4523V58.2664H115.734H113.548V60.4523V62.8392V65.0251V68.3669V70.5528H115.734H120.131V68.3669H115.734V65.0251H120.131V62.8392H115.734V60.4523H120.131Z" fill="white"/>
<path d="M102.417 68.3669V58.2664H100.231V68.3669V70.5528H102.417H105.884V68.3669H102.417Z" fill="white"/>
<path d="M109.201 68.3669V58.2664H107.04V68.3669V70.5528H109.201H112.693V68.3669H109.201Z" fill="white"/>
<path d="M36.4623 58.2664V66.9598L31.1859 58.2664H29V70.5528H31.1859V61.8593L36.4623 70.5528H38.6231V58.2664H36.4623Z" fill="white"/>
<path d="M69.3769 58.2664V66.9598L64.1005 58.2664H61.9146V70.5528H64.1005V61.8593L69.3769 70.5528H71.5377V58.2664H69.3769Z" fill="white"/>
<path d="M85.4071 58.2664L82.191 67.4372L78.9498 58.2664H76.789L81.0855 70.5528H83.2714L87.593 58.2664H85.4071Z" fill="white"/>
<path d="M127.97 58.2664L125.432 62.9397L122.895 58.2664H120.734L124.352 64.9246V70.5528H126.538V64.9246L130.156 58.2664H127.97Z" fill="white"/>
<path d="M96.9648 70.5528H99.1507L94.5025 58.2915H92.3166L87.6683 70.5528H89.8543L90.8844 67.8644H95.9849L96.9648 70.5528ZM91.6131 65.8794L93.397 61.1558L95.1809 65.8794H91.6131Z" fill="white"/>
<path d="M54.3015 58.2664C50.8593 58.2664 48.0703 61.0302 48.0703 64.4724C48.0703 67.8895 50.8593 70.6784 54.3015 70.6784C57.7437 70.6784 60.5326 67.9146 60.5326 64.4724C60.5578 61.0553 57.7688 58.2664 54.3015 58.2664ZM54.3015 68.6181C52.0904 68.6181 50.3065 66.7588 50.3065 64.4724C50.3065 62.186 52.0904 60.3267 54.3015 60.3267C56.5125 60.3267 58.2964 62.186 58.2964 64.4724C58.3216 66.7588 56.5125 68.6181 54.3015 68.6181Z" fill="white"/>
<path d="M41.6885 78.3669L42.3417 77.9649C42.794 78.8192 43.3468 79.2463 43.9498 79.2463C44.201 79.2463 44.4523 79.1961 44.6784 79.0705C44.9046 78.9448 45.0804 78.7941 45.2061 78.5931C45.3317 78.3921 45.3819 78.1659 45.3819 77.9398C45.3819 77.6885 45.3066 77.4373 45.1307 77.186C44.8794 76.8343 44.4523 76.4323 43.799 75.9549C43.1458 75.4775 42.7438 75.1257 42.593 74.8996C42.3166 74.5227 42.191 74.1458 42.191 73.7187C42.191 73.3921 42.2664 73.0654 42.4422 72.789C42.593 72.5127 42.8191 72.2865 43.1206 72.1358C43.4221 71.985 43.7237 71.8845 44.0754 71.8845C44.4523 71.8845 44.7789 71.985 45.1056 72.1609C45.4322 72.3368 45.7588 72.6634 46.1106 73.1659L45.4824 73.6433C45.1809 73.2664 44.9548 73.0152 44.7287 72.8895C44.5277 72.7639 44.3015 72.7137 44.0503 72.7137C43.7488 72.7137 43.4724 72.8142 43.2965 72.99C43.0955 73.1911 42.995 73.4172 42.995 73.6936C42.995 73.8694 43.0201 74.0202 43.0955 74.171C43.1709 74.3217 43.2965 74.4976 43.4724 74.6986C43.5729 74.7991 43.8995 75.0503 44.4774 75.4775C45.1558 75.98 45.6081 76.4071 45.8593 76.8091C46.1106 77.186 46.2362 77.588 46.2362 77.9649C46.2362 78.5177 46.0352 79.0202 45.6081 79.4222C45.1809 79.8242 44.6533 80.0504 44.0503 80.0504C43.5729 80.0504 43.1458 79.9247 42.7689 79.6735C42.392 79.4222 42.0151 78.9448 41.6885 78.3669Z" fill="white"/>
<path d="M52.5176 72.8143V72.0605H56.7639V72.8143H55.0302V79.7992H54.2513V72.8143H52.5176Z" fill="white"/>
<path d="M63.2714 72.0605H64.0503V76.7339C64.0503 77.2867 64.0503 77.6384 64.0754 77.7641C64.1257 78.0656 64.201 78.3168 64.3518 78.5178C64.5026 78.7188 64.7036 78.8947 65.0051 79.0455C65.3066 79.1962 65.583 79.2465 65.8845 79.2465C66.1357 79.2465 66.387 79.1962 66.6131 79.0957C66.8392 78.9952 67.0402 78.8445 67.191 78.6435C67.3418 78.4425 67.4674 78.2163 67.5428 77.9399C67.593 77.7389 67.6181 77.3369 67.6181 76.7339V72.0605H68.397V76.7339C68.397 77.4374 68.3217 77.9902 68.196 78.4173C68.0704 78.8445 67.794 79.2214 67.392 79.5229C66.99 79.8495 66.4875 80.0002 65.9096 80.0002C65.2815 80.0002 64.7538 79.8495 64.3016 79.548C63.8493 79.2465 63.5478 78.8445 63.397 78.3671C63.2965 78.0656 63.2463 77.5128 63.2463 76.7339V72.0605H63.2714Z" fill="white"/>
<path d="M75.382 79.7992V72.0605H76.99C78.1458 72.0605 79 72.1611 79.5026 72.3369C80.2563 72.5882 80.8342 73.0656 81.2614 73.6937C81.6885 74.3219 81.8895 75.1259 81.8895 76.0053C81.8895 76.7842 81.7136 77.4626 81.387 78.0404C81.0603 78.6183 80.6081 79.0706 80.0805 79.347C79.5528 79.6234 78.799 79.7741 77.8191 79.7741H75.382V79.7992ZM76.1357 79.0706H77.0402C78.1207 79.0706 78.8493 78.9952 79.2764 78.8696C79.8543 78.6686 80.3066 78.342 80.6583 77.8394C80.985 77.3369 81.1609 76.7339 81.1609 76.0304C81.1609 75.2766 80.985 74.6485 80.6081 74.1209C80.2563 73.5932 79.7538 73.2163 79.1005 73.0405C78.6232 72.8897 77.8191 72.8143 76.7136 72.8143H76.1609V79.0706H76.1357Z" fill="white"/>
<path d="M88.9498 72.0605H89.7287V79.7992H88.9498V72.0605Z" fill="white"/>
<path d="M100.332 71.8594C101.513 71.8594 102.492 72.2614 103.271 73.0403C104.05 73.8192 104.452 74.774 104.452 75.9297C104.452 77.0604 104.05 78.0152 103.271 78.8192C102.492 79.6232 101.513 80.0001 100.382 80.0001C99.2261 80.0001 98.2714 79.5981 97.4673 78.8192C96.6885 78.0403 96.2864 77.0855 96.2864 75.9548C96.2864 75.2011 96.4623 74.5227 96.8141 73.8946C97.1658 73.2664 97.6683 72.7639 98.2965 72.4121C98.9498 72.0604 99.603 71.8594 100.332 71.8594ZM100.382 72.6131C99.804 72.6131 99.2764 72.7639 98.7488 73.0654C98.2462 73.3669 97.8442 73.7689 97.5427 74.2714C97.2663 74.7739 97.1156 75.3518 97.1156 75.9548C97.1156 76.8845 97.4422 77.6634 98.0704 78.2915C98.6985 78.9197 99.4774 79.2463 100.382 79.2463C100.985 79.2463 101.538 79.0956 102.04 78.8192C102.543 78.5428 102.945 78.1408 103.246 77.6131C103.523 77.1106 103.673 76.5579 103.673 75.9297C103.673 75.3267 103.523 74.7488 103.246 74.2714C102.97 73.7689 102.568 73.3669 102.04 73.0905C101.513 72.7639 100.96 72.6131 100.382 72.6131Z" fill="white"/>
<path d="M110.307 78.3669L110.96 77.9649C111.412 78.8192 111.965 79.2463 112.568 79.2463C112.819 79.2463 113.07 79.1961 113.297 79.0705C113.523 78.9448 113.699 78.7941 113.824 78.5931C113.95 78.3921 114 78.1659 114 77.9398C114 77.6885 113.925 77.4373 113.749 77.186C113.498 76.8343 113.07 76.4323 112.417 75.9549C111.764 75.4775 111.362 75.1257 111.211 74.8996C110.935 74.5227 110.809 74.1458 110.809 73.7187C110.809 73.3921 110.884 73.0654 111.06 72.789C111.211 72.5127 111.437 72.2865 111.739 72.1358C112.04 71.985 112.342 71.8845 112.694 71.8845C113.07 71.8845 113.397 71.985 113.724 72.1609C114.05 72.3368 114.377 72.6634 114.729 73.1659L114.101 73.6433C113.799 73.2664 113.573 73.0152 113.347 72.8895C113.146 72.7639 112.92 72.7137 112.668 72.7137C112.367 72.7137 112.09 72.8142 111.915 72.99C111.714 73.1911 111.613 73.4172 111.613 73.6936C111.613 73.8694 111.638 74.0202 111.714 74.171C111.789 74.3217 111.915 74.4976 112.09 74.6986C112.191 74.7991 112.518 75.0503 113.096 75.4775C113.774 75.98 114.226 76.4071 114.477 76.8091C114.729 77.186 114.854 77.588 114.854 77.9649C114.854 78.5177 114.653 79.0202 114.226 79.4222C113.799 79.8242 113.271 80.0504 112.668 80.0504C112.191 80.0504 111.764 79.9247 111.387 79.6735C110.985 79.372 110.633 78.9448 110.307 78.3669Z" fill="white"/>
</g>
<defs>
<linearGradient id="paint0_linear" x1="56.3883" y1="28.5132" x2="94.2777" y2="28.5132" gradientUnits="userSpaceOnUse">
<stop stop-color="#5E0110"/>
<stop offset="0.0281497" stop-color="#790111"/>
<stop offset="0.0660727" stop-color="#970013"/>
<stop offset="0.098566" stop-color="#A90014"/>
<stop offset="0.1216" stop-color="#B00014"/>
<stop offset="0.1566" stop-color="#A80014"/>
<stop offset="0.2096" stop-color="#930113"/>
<stop offset="0.2738" stop-color="#710212"/>
<stop offset="0.3162" stop-color="#570311"/>
<stop offset="0.5324" stop-color="#D30522"/>
<stop offset="0.7622"/>
</linearGradient>
<linearGradient id="paint1_linear" x1="74.8802" y1="22.5853" x2="102.74" y2="22.5853" gradientUnits="userSpaceOnUse">
<stop stop-color="#890017"/>
<stop offset="0.3319" stop-color="#8B0017"/>
<stop offset="0.4514" stop-color="#920118"/>
<stop offset="0.5366" stop-color="#9D011A"/>
<stop offset="0.6055" stop-color="#AE031D"/>
<stop offset="0.6638" stop-color="#C40420"/>
<stop offset="0.6946" stop-color="#D30522"/>
<stop offset="0.7278" stop-color="#CB0521"/>
<stop offset="0.7781" stop-color="#B6051E"/>
<stop offset="0.8393" stop-color="#940419"/>
<stop offset="0.9084" stop-color="#650313"/>
<stop offset="0.927" stop-color="#570311"/>
</linearGradient>
<linearGradient id="paint2_linear" x1="70.3657" y1="14.4742" x2="70.3657" y2="49.7767" gradientUnits="userSpaceOnUse">
<stop offset="0.0189189" stop-color="#C13939"/>
<stop offset="0.0696149" stop-color="#BA3637"/>
<stop offset="0.365" stop-color="#972830"/>
<stop offset="0.6073" stop-color="#821F2B"/>
<stop offset="0.7649" stop-color="#7A1C29"/>
<stop offset="0.7808" stop-color="#811F2B"/>
<stop offset="0.874" stop-color="#A42D32"/>
<stop offset="0.9503" stop-color="#B93637"/>
<stop offset="1" stop-color="#C13939"/>
</linearGradient>
<linearGradient id="paint3_linear" x1="48.1216" y1="31.6471" x2="80.6332" y2="31.6471" gradientUnits="userSpaceOnUse">
<stop stop-color="#7A1C29"/>
<stop offset="0.2626" stop-color="#9D1D2D"/>
<stop offset="0.5757" stop-color="#C01D31"/>
<stop offset="0.8328" stop-color="#D51E34"/>
<stop offset="1" stop-color="#DD1E35"/>
</linearGradient>
<clipPath id="clip0">
<rect width="160" height="80" fill="white"/>
</clipPath>
</defs>
</svg>
