<svg width="160" height="80" viewBox="0 0 160 80" fill="none" xmlns="http://www.w3.org/2000/svg">
<path d="M84.095 12.4893H82.5333V66.7147H84.095V56.2501H104.036V49.9476H88.72V42.6938H101.814V36.3318H88.72V29.2563H104.036V22.8944H84.095V12.4893Z" fill="white"/>
<path d="M22.6526 43.4117L17.0627 34.2924L9.94296 22.8934L9.88411 22.7734H4V56.4306H10.5314V35.7923L15.4152 43.8316L23.2999 56.4306H29.2429V22.7734H22.6526V43.4117Z" fill="white"/>
<path d="M32.9825 56.4306H55.4206V50.0711H39.769V42.7517H53.1585V36.3323H39.769V29.1929H55.4206V22.7734H32.9825V56.4306Z" fill="white"/>
<path d="M57.2905 29.2529H65.156V56.4306H71.985V29.2529H79.7286V22.7734H57.2905V29.2529Z" fill="white"/>
<path d="M126.185 43.4117L120.449 34.2924L113.065 22.8934L112.943 22.7734H106.841V56.4306H113.615V35.7323L118.679 43.8316L126.856 56.4306H133.019V22.7734H126.185V43.4117Z" fill="white"/>
<path d="M135.824 22.7734V29.2529H143.303V56.4306H149.848V29.2529H157.327V22.7734H135.824Z" fill="white"/>
</svg>
