<svg width="160" height="80" viewBox="0 0 160 80" fill="none" xmlns="http://www.w3.org/2000/svg">
<path d="M38.515 65.4476H37V51.144L47.5755 62.3525V51.715H49.0905V66.0486L38.515 54.8401V65.4476Z" fill="white"/>
<path d="M59.6066 51.7151V53.1575H54.0812V57.2442H59.458V58.6866H54.0812V64.0053H59.6066V65.4477H52.5662V51.7151H59.6066Z" fill="white"/>
<path d="M68.9938 53.1575H65.6964V65.4477H64.1813V53.1575H60.9136V51.7151H68.9938V53.1575Z" fill="white"/>
<path d="M77.371 59.9789V58.5365H83.0152V58.867C83.0152 60.5798 82.5696 62.0222 81.7081 63.1941C80.4902 64.8469 78.8266 65.6582 76.658 65.6582C74.638 65.6582 72.9744 64.9671 71.6376 63.6148C70.3009 62.2626 69.6176 60.5798 69.6176 58.5665C69.6176 56.5532 70.3009 54.8704 71.6376 53.5182C72.9744 52.166 74.6677 51.4749 76.6877 51.4749C78.2919 51.4749 79.6584 51.9256 80.8466 52.8271C81.4408 53.3079 81.9755 53.8488 82.4211 54.4497L81.2922 55.4714C80.906 54.9005 80.4605 54.4497 80.0149 54.0591C79.094 53.2778 77.9948 52.9172 76.7174 52.9172C75.1133 52.9172 73.7765 53.4581 72.7368 54.5399C71.6971 55.6217 71.1623 56.9739 71.1623 58.5966C71.1623 59.7685 71.4594 60.8202 72.0238 61.6917C72.5883 62.5631 73.3012 63.2242 74.1033 63.6148C74.9351 64.0055 75.7668 64.2158 76.6877 64.2158C77.6086 64.2158 78.4107 64.0055 79.1237 63.5848C79.8663 63.1641 80.4307 62.5932 80.8169 61.902C81.1437 61.301 81.3516 60.67 81.3516 59.9488H77.371V59.9789Z" fill="white"/>
<path d="M94.8383 65.4476L93.2639 61.5712H87.5008L85.867 65.4476H84.2034L90.4418 51.084L96.5316 65.4476H94.8383ZM88.0653 60.1289H92.6697L90.3824 54.6298L88.0653 60.1289Z" fill="white"/>
<path d="M99.5022 65.4477H97.9575L100.215 50.9639L105.414 62.5329L110.731 50.9338L112.84 65.4477H111.296L110.018 55.892L105.414 66.0187L100.839 55.892L99.5022 65.4477Z" fill="white"/>
<path d="M123 51.7151V53.1575H117.475V57.2442H122.851V58.6866H117.475V64.0053H123V65.4477H115.96V51.7151H123Z" fill="white"/>
<path d="M50.2193 72.4189V73.08H47.6943V74.9431H50.1599V75.6042H47.6943V78.0382H50.2193V78.6993H46.9813V72.4189H50.2193Z" fill="white"/>
<path d="M52.18 78.7295H51.4967V72.1787L56.3091 77.2871V72.4191H56.9924V78.9699L52.1502 73.8314V78.7295H52.18Z" fill="white"/>
<path d="M61.6563 73.08H60.1413V78.7293H59.458V73.1101H57.943V72.4189H61.6563V73.08Z" fill="white"/>
<path d="M65.8152 72.4189V73.08H63.2902V74.9431H65.7558V75.6042H63.2902V78.0382H65.8152V78.6993H62.5772V72.4189H65.8152Z" fill="white"/>
<path d="M67.0628 72.4189H68.0728C68.7561 72.4189 69.2314 72.5391 69.5879 72.7795C70.0334 73.08 70.2711 73.5608 70.2711 74.1618C70.2711 74.6426 70.1226 75.0332 69.8255 75.3638C69.5284 75.6943 69.172 75.8746 68.6967 75.9047L70.6573 78.6993H69.8255L67.9243 75.9347H67.7461V78.6993H67.0628V72.4189ZM67.7461 73.08V75.3337H68.1917C68.6075 75.3337 68.964 75.2436 69.2017 75.0332C69.4393 74.8229 69.5581 74.5525 69.5581 74.1919C69.5581 73.7712 69.3799 73.4707 69.0531 73.2603C68.8452 73.1401 68.5481 73.08 68.1619 73.08H67.7461Z" fill="white"/>
<path d="M74.7865 73.08H73.2715V78.7293H72.5882V73.1101H71.0732V72.4189H74.7865V73.08Z" fill="white"/>
<path d="M79.4504 78.7297L78.7374 76.9568H76.0936L75.3212 78.7297H74.5488L77.4006 72.1489L80.193 78.7297H79.4504ZM76.3312 76.2957H78.4404L77.4006 73.7716L76.3312 76.2957Z" fill="white"/>
<path d="M81.0843 72.4189H81.7675V78.7293H81.0843V72.4189Z" fill="white"/>
<path d="M84.0549 78.7295H83.3716V72.1787L88.2138 77.3172V72.4191H88.897V78.9699L84.0549 73.8314V78.7295Z" fill="white"/>
<path d="M91.0062 78.7296H90.2932L91.3329 72.0886L93.7094 77.3774L96.1454 72.0586L97.1257 78.6995H96.4127L95.8186 74.3424L93.7094 78.97L91.63 74.3424L91.0062 78.7296Z" fill="white"/>
<path d="M101.76 72.4189V73.08H99.2349V74.9431H101.701V75.6042H99.2349V78.0382H101.76V78.6993H98.5516V72.4189H101.76Z" fill="white"/>
<path d="M103.721 78.7295H103.037V72.1787L107.879 77.3172V72.4191H108.563V78.9699L103.721 73.8314V78.7295Z" fill="white"/>
<path d="M113.197 73.08H111.682V78.7293H110.999V73.1101H109.484V72.4189H113.197V73.08Z" fill="white"/>
<path d="M88.7485 45.8855H79.7475V36.8105L88.7485 45.8855Z" fill="#7EFF7B"/>
<path d="M70.7762 45.8855H79.7475V36.8105L70.7762 45.8855Z" fill="#4ABB7F"/>
<path d="M76.7769 33.5653H64.8052V21.4253L76.7769 33.5653Z" fill="#7EFF7B"/>
<path d="M52.8038 33.5653H64.8051V21.4253L52.8038 33.5653Z" fill="#4ABB7F"/>
<path d="M52.8038 33.5652H64.8051V45.7052L52.8038 33.5652Z" fill="#3A9368"/>
<path d="M76.7769 33.5652H64.8052V45.7052L76.7769 33.5652Z" fill="#4CBE72"/>
<path d="M64.8052 40.9875L57.4677 33.5653L64.8052 26.1431L72.1427 33.5653L64.8052 40.9875ZM59.5472 33.5653L64.8052 38.884L70.0632 33.5653L64.8052 28.2766L59.5472 33.5653Z" fill="black"/>
<path d="M62.2802 33.5653H64.8052V30.8909C64.8052 30.8909 64.4487 32.814 62.2802 33.5653Z" fill="white"/>
<path d="M67.3005 33.5653H64.7755V30.8909C64.8052 30.8909 65.1319 32.814 67.3005 33.5653Z" fill="white"/>
<path d="M67.3005 33.5652H64.7755V36.2396C64.8052 36.2396 65.1319 34.3465 67.3005 33.5652Z" fill="white"/>
<path d="M62.2802 33.5652H64.8052V36.2396C64.8052 36.2396 64.4487 34.3465 62.2802 33.5652Z" fill="white"/>
<path d="M107.226 33.5653H95.2542V21.4253L107.226 33.5653Z" fill="#7EFF7B"/>
<path d="M83.2529 33.5653H95.2542V21.4253L83.2529 33.5653Z" fill="#4ABB7F"/>
<path d="M83.2529 33.5652H95.2542V45.7052L83.2529 33.5652Z" fill="#3A9368"/>
<path d="M107.226 33.5652H95.2542V45.7052L107.226 33.5652Z" fill="#4CBE72"/>
<path d="M95.2542 40.9875L87.9167 33.5653L95.2542 26.1431L102.592 33.5653L95.2542 40.9875ZM89.9962 33.5653L95.2542 38.884L100.512 33.5653L95.2542 28.2465L89.9962 33.5653Z" fill="black"/>
<path d="M92.7292 33.5653H95.2542V30.8909C95.2542 30.8909 94.8977 32.814 92.7292 33.5653Z" fill="white"/>
<path d="M97.7496 33.5653H95.2245V30.8909C95.2543 30.8909 95.581 32.814 97.7496 33.5653Z" fill="white"/>
<path d="M97.7496 33.5652H95.2245V36.2396C95.2543 36.2396 95.581 34.3465 97.7496 33.5652Z" fill="white"/>
<path d="M92.7292 33.5652H95.2542V36.2396C95.2542 36.2396 94.8977 34.3465 92.7292 33.5652Z" fill="white"/>
<path d="M95.0463 15.4454H79.7475V0L95.0463 15.4454Z" fill="#7EFF7B"/>
<path d="M64.4784 15.4454H79.7475V0L64.4784 15.4454Z" fill="#4ABB7F"/>
<path d="M64.4784 15.4456H79.7475V30.891L64.4784 15.4456Z" fill="#3A9368"/>
<path d="M95.0463 15.4456H79.7475V30.891L95.0463 15.4456Z" fill="#4CBE72"/>
<path d="M79.7475 24.9111L70.39 15.4456L79.7475 5.97998L89.105 15.4456L79.7475 24.9111ZM73.0933 15.4456L79.7772 22.2067L86.4612 15.4456L79.7772 8.68443L73.0933 15.4456Z" fill="black"/>
<path d="M76.5689 15.4454H79.7772V12.0498C79.7475 12.0498 79.3316 14.4838 76.5689 15.4454Z" fill="white"/>
<path d="M82.9558 15.4454H79.7475V12.0498C79.7475 12.0498 80.1931 14.4838 82.9558 15.4454Z" fill="white"/>
<path d="M82.9558 15.4456H79.7475V18.8411C79.7475 18.8411 80.1931 16.4372 82.9558 15.4456Z" fill="white"/>
<path d="M76.5689 15.4456H79.7772V18.8411C79.7475 18.8411 79.3316 16.4372 76.5689 15.4456Z" fill="white"/>
</svg>
