<svg width="160" height="80" viewBox="0 0 160 80" fill="none" xmlns="http://www.w3.org/2000/svg">
<path d="M29.0908 68.8813C13.5989 68.8813 1 56.1431 1 40.4799C1 24.8167 13.5989 12.0785 29.0908 12.0785H133.22C147.428 12.0785 158.983 23.761 158.983 38.1261C158.983 52.4912 147.428 64.1737 133.22 64.1737H44.5656C39.9779 67.2544 34.6371 68.8813 29.0908 68.8813Z" fill="#6B037E"/>
<path d="M29.6044 62.7026C17.5361 62.7026 7.71033 52.7682 7.71033 40.5665C7.71033 28.3647 17.5361 18.4303 29.6044 18.4303C41.6726 18.4303 51.4984 28.3647 51.4984 40.5665C51.4984 52.7682 41.6897 62.7026 29.6044 62.7026Z" fill="url(#paint0_radial)"/>
<path d="M133.22 12.0785H29.0908C13.5989 12.0785 1 24.8167 1 40.4799C1 56.1431 13.5989 68.8813 29.0908 68.8813C34.6371 68.8813 39.9779 67.2544 44.5827 64.1737H133.237C147.445 64.1737 159 52.4912 159 38.1261C159 23.761 147.428 12.0785 133.22 12.0785ZM3.22535 40.4799C3.22535 26.0629 14.8314 14.3285 29.0908 14.3285H133.22C146.196 14.3285 156.758 25.0071 156.758 38.1261C156.758 43.3183 155.097 48.1471 152.29 52.0586H51.875C51.875 52.0586 49.4271 57.6835 43.8979 61.9238L43.6069 62.1141C39.3103 65.0564 34.2947 66.6141 29.0908 66.6141C14.8314 66.6314 3.22535 54.897 3.22535 40.4799Z" fill="#E09E00"/>
<path d="M55.795 41.103C56.1374 41.103 56.3086 40.9472 56.3086 40.6184V28.209C56.3086 27.8801 56.1374 27.7244 55.795 27.7244V27.2397H60.4169V27.7244C60.28 27.7244 60.1944 27.8109 60.1944 28.0013C60.1944 28.1397 60.3827 28.3993 60.7422 28.7628L68.4967 36.8973V28.209C68.4967 27.8801 68.257 27.7244 67.7948 27.7244V27.2397H71.8689V27.7244C71.5266 27.7244 71.3554 27.8801 71.3554 28.209V40.6011C71.3554 40.9299 71.5266 41.0857 71.8689 41.0857V41.5703H67.4867V41.0857C67.7263 41.0857 67.8462 40.9991 67.8462 40.8434C67.8462 40.7222 67.7092 40.5145 67.4182 40.2203L59.1844 31.532V40.6011C59.1844 40.9299 59.3898 41.0857 59.8007 41.0857V41.5703H55.8122V41.103H55.795Z" fill="#E09E00"/>
<path d="M83.6291 27.0668C84.6219 27.0668 85.6319 27.2225 86.659 27.5168C87.6861 27.811 88.6276 28.261 89.4663 28.8667C90.3051 29.4725 91.007 30.234 91.5376 31.1513C92.0854 32.0686 92.3422 33.159 92.3422 34.4224C92.3422 35.6858 92.0683 36.7589 91.5376 37.6935C90.9899 38.6108 90.3051 39.3723 89.4663 39.9781C88.6276 40.5838 87.6861 41.0165 86.659 41.2934C85.6319 41.5704 84.6219 41.7088 83.6291 41.7088C82.6362 41.7088 81.6263 41.5704 80.5992 41.2934C79.5721 41.0165 78.6306 40.5838 77.7918 39.9781C76.953 39.3723 76.2512 38.6108 75.7205 37.6935C75.1727 36.7762 74.916 35.6858 74.916 34.4224C74.916 33.159 75.1898 32.0859 75.7205 31.1513C76.2683 30.234 76.953 29.4725 77.7918 28.8667C78.6306 28.261 79.5721 27.811 80.5992 27.5168C81.6263 27.2052 82.6362 27.0668 83.6291 27.0668ZM83.6291 29.5763C82.9443 29.5763 82.2596 29.6802 81.5749 29.9052C80.8902 30.1302 80.2739 30.4417 79.7261 30.8398C79.1784 31.2552 78.7333 31.7571 78.3909 32.3628C78.0486 32.9686 77.8774 33.6436 77.8774 34.4051C77.8774 35.1666 78.0486 35.8589 78.3909 36.4474C78.7333 37.0531 79.1784 37.555 79.7261 37.9704C80.2739 38.3858 80.8902 38.6973 81.5749 38.905C82.2596 39.13 82.9443 39.2339 83.6291 39.2339C84.3138 39.2339 84.9985 39.13 85.6832 38.905C86.368 38.68 86.9842 38.3685 87.532 37.9704C88.0798 37.555 88.5248 37.0531 88.8672 36.4474C89.2096 35.8416 89.3808 35.1666 89.3808 34.4051C89.3808 33.6436 89.2096 32.9513 88.8672 32.3628C88.5248 31.7571 88.0798 31.2552 87.532 30.8398C86.9842 30.4244 86.368 30.1129 85.6832 29.9052C84.9985 29.6802 84.3138 29.5763 83.6291 29.5763Z" fill="#E09E00"/>
<path d="M103.623 27.2224C104.445 27.2224 105.249 27.2916 106.02 27.4301C106.79 27.5686 107.475 27.7936 108.074 28.0878C108.673 28.382 109.152 28.7801 109.512 29.2647C109.871 29.7493 110.059 30.3377 110.059 31.0473C110.059 31.8954 109.803 32.5704 109.272 33.0204C108.741 33.4877 108.125 33.8511 107.406 34.0934V34.1454C108.245 34.405 108.964 34.8031 109.546 35.3569C110.128 35.9107 110.419 36.7069 110.419 37.7453C110.419 38.2991 110.299 38.8011 110.059 39.2684C109.82 39.7357 109.477 40.1337 109.015 40.4799C108.553 40.826 107.988 41.0856 107.321 41.2933C106.653 41.4837 105.9 41.5875 105.044 41.5875H95.1324V41.1029C95.6289 41.1029 95.8856 40.9472 95.8856 40.6183V28.2089C95.8856 27.8801 95.6289 27.7243 95.1324 27.7243V27.2397H103.623V27.2224ZM104.154 32.8473C104.958 32.8473 105.626 32.7435 106.174 32.5358C106.704 32.3281 106.978 31.8781 106.978 31.2031C106.978 30.5281 106.704 30.0954 106.174 29.8704C105.643 29.6628 104.975 29.5589 104.154 29.5589H99.0011V32.8473H104.154ZM104.154 39.078C105.283 39.078 106.105 38.9049 106.602 38.5414C107.098 38.178 107.338 37.7107 107.338 37.1395C107.338 36.5511 107.098 36.0838 106.602 35.7376C106.105 35.3742 105.283 35.2011 104.154 35.2011H99.0011V39.078H104.154Z" fill="#E09E00"/>
<path d="M126.698 42.1068C126.698 41.8299 126.613 41.6741 126.441 41.6395C126.27 41.6049 126.048 41.5876 125.774 41.5876H112.918V41.103C113.466 41.103 113.723 40.9472 113.723 40.6184V28.209C113.723 27.8801 113.449 27.7244 112.918 27.7244V27.2397H117.574V27.7244C117.078 27.7244 116.821 27.8801 116.821 28.209V39.078H125.791C126.065 39.078 126.287 39.0088 126.459 38.8876C126.63 38.7665 126.715 38.5934 126.715 38.3684H127.195V42.1068H126.698Z" fill="#E09E00"/>
<path d="M142.156 30.182C142.156 29.9743 142.087 29.8358 141.933 29.732C141.779 29.6281 141.522 29.5762 141.129 29.5762H132.381V32.9685H137.671C138.03 32.9685 138.304 32.9165 138.51 32.8127C138.715 32.7088 138.801 32.4492 138.801 32.0339H139.28V36.2915H138.801C138.801 35.8761 138.698 35.5992 138.51 35.478C138.304 35.3569 138.03 35.305 137.671 35.305H132.381V39.078H141.403C141.677 39.078 141.899 39.0087 142.07 38.8876C142.241 38.7664 142.327 38.5934 142.327 38.3684H142.806V42.1068H142.327C142.327 41.8298 142.241 41.6741 142.07 41.6395C141.899 41.6049 141.677 41.5875 141.403 41.5875H128.821V41.1029C128.941 41.1029 129.061 41.0683 129.163 40.9818C129.266 40.8952 129.317 40.7741 129.317 40.6183V28.2089C129.317 28.0532 129.266 27.9147 129.163 27.8455C129.061 27.7589 128.958 27.7243 128.821 27.7243V27.2397H141.129C141.505 27.2397 141.779 27.1878 141.933 27.0666C142.087 26.9455 142.156 26.7897 142.156 26.582H142.635V30.182H142.156Z" fill="#E09E00"/>
<path d="M29.6044 62.616C17.5361 62.616 7.71033 52.6816 7.71033 40.4799C7.71033 28.2782 17.5361 18.3438 29.6044 18.3438C41.6726 18.3438 51.4984 28.2782 51.4984 40.4799C51.4984 52.6816 41.6897 62.616 29.6044 62.616ZM29.6044 20.5937C18.7515 20.5937 9.93568 29.5243 9.93568 40.4799C9.93568 51.4355 18.7686 60.3661 29.6044 60.3661C40.4401 60.3661 49.2731 51.4355 49.2731 40.4799C49.2731 29.5243 40.4572 20.5937 29.6044 20.5937Z" fill="#E09E00"/>
<path d="M45.2846 37.8664C42.4601 35.703 36.5543 35.5299 33.0451 40.4799C31.6414 42.4702 31.145 44.6163 31.2306 46.6067C30.7855 46.6067 30.4432 46.6067 30.1522 46.6067C30.1693 46.1913 30.2206 45.724 30.2891 45.2221C30.8198 41.3279 35.4417 36.5684 34.5002 33.4531C33.5587 30.3377 29.2791 23.2417 29.2791 23.2417C29.2791 23.2417 24.9996 30.3377 24.0581 33.4531C23.1166 36.5684 27.7385 41.3279 28.2692 45.2221C28.3377 45.724 28.389 46.1913 28.4061 46.6067C28.1322 46.6067 27.7728 46.6067 27.3277 46.6067C27.4133 44.6163 26.9169 42.4529 25.5132 40.4799C22.004 35.5299 16.0982 35.703 13.2737 37.8664C10.4493 40.0299 11.134 43.924 12.3322 45.8278C13.5305 47.7317 15.4991 48.2509 15.4991 48.2509C15.4991 48.2509 14.8315 44.5298 19.3164 43.4048C22.8599 42.5221 24.7771 44.5471 25.3078 46.6413C23.3221 46.8663 23.031 48.2509 23.031 48.2509C23.6131 47.9047 24.5032 47.697 25.4447 47.5759C25.4618 47.8009 25.4447 48.0432 25.4276 48.2509C25.1708 50.6739 24.0581 51.2797 24.0581 51.2797C24.0581 51.2797 23.2878 48.424 20.8913 49.9816C18.4948 51.5393 21.2336 55.52 24.0581 53.4431C25.5816 52.3181 26.9169 50.0508 27.2592 47.4374C27.7043 47.4201 28.098 47.4201 28.4404 47.4201C28.4404 49.6355 27.7899 50.5701 27.3448 51.7297C26.7799 53.2008 29.2791 56.8353 29.2791 56.8353C29.2791 56.8353 31.7955 53.2008 31.2135 51.7297C30.7684 50.5874 30.1351 49.6528 30.1179 47.4201C30.4432 47.4201 30.854 47.4201 31.2991 47.4374C31.6414 50.0682 32.9595 52.3181 34.5002 53.4431C37.3246 55.52 40.0635 51.5393 37.667 49.9816C35.2705 48.424 34.5002 51.2797 34.5002 51.2797C34.5002 51.2797 33.3875 50.6739 33.1307 48.2509C33.1136 48.0259 33.0965 47.8009 33.1136 47.5759C34.0551 47.697 34.9452 47.9047 35.5273 48.2509C35.5273 48.2509 35.2362 46.8663 33.2505 46.6413C33.7641 44.5471 35.6813 42.5221 39.2419 43.4048C43.7268 44.5298 43.0592 48.2509 43.0592 48.2509C43.0592 48.2509 45.0278 47.7317 46.2261 45.8278C47.4243 43.924 48.1091 40.0299 45.2846 37.8664Z" fill="#6B037E"/>
<path d="M62.1458 59.9508C61.9233 60.2104 61.6152 60.4181 61.2215 60.5739C60.8277 60.7296 60.3827 60.7989 59.8863 60.7989C59.3727 60.7989 58.9276 60.6777 58.5339 60.4527C58.1402 60.2277 57.8492 59.8989 57.6438 59.4662C57.4384 59.0335 57.3185 58.5316 57.3185 57.9431V57.5278C57.3185 56.922 57.4213 56.4201 57.6096 55.9701C57.815 55.5374 58.0889 55.1913 58.4655 54.9663C58.8421 54.7413 59.2871 54.6201 59.7835 54.6201C60.4854 54.6201 61.0332 54.7932 61.4269 55.122C61.8206 55.4682 62.0603 55.9528 62.1287 56.5932H60.9476C60.8962 56.247 60.7764 56.0047 60.5881 55.8316C60.3998 55.6759 60.143 55.5893 59.8178 55.5893C59.407 55.5893 59.0817 55.7451 58.8763 56.0566C58.6538 56.3682 58.551 56.8355 58.551 57.4585V57.8393C58.551 58.4624 58.6709 58.947 58.9105 59.2585C59.1502 59.5873 59.4925 59.7431 59.9547 59.7431C60.4169 59.7431 60.7422 59.6393 60.9305 59.4489V58.4104H59.8178V57.4931H62.1458V59.9508Z" fill="#6B037E"/>
<path d="M76.7647 59.4834H74.625L74.2141 60.7122H72.9131L75.1214 54.7239H76.2512L78.4765 60.7122H77.1756L76.7647 59.4834ZM74.9502 58.4796H76.4395L75.6863 56.2296L74.9502 58.4796Z" fill="#6B037E"/>
<path d="M90.9043 54.7239L92.4278 59.068L93.9342 54.7239H95.5433V60.7122H94.3108V59.068L94.4306 56.2469L92.8386 60.7122H91.9998L90.4079 56.2469L90.5277 59.068V60.7122H89.3123V54.7239H90.9043Z" fill="#6B037E"/>
<path d="M108.194 60.7122H106.978V54.7239H108.194V60.7122Z" fill="#6B037E"/>
<path d="M124.422 60.7122H123.206L120.827 56.7662V60.7122H119.611V54.7239H120.827L123.206 58.67V54.7239H124.422V60.7122Z" fill="#6B037E"/>
<path d="M140.478 59.9508C140.256 60.2104 139.948 60.4181 139.554 60.5739C139.16 60.7296 138.715 60.7989 138.219 60.7989C137.705 60.7989 137.26 60.6777 136.866 60.4527C136.473 60.2277 136.182 59.8989 135.976 59.4662C135.771 59.0335 135.651 58.5316 135.651 57.9431V57.5278C135.651 56.922 135.754 56.4201 135.942 55.9701C136.147 55.5374 136.421 55.1913 136.798 54.9663C137.174 54.7413 137.62 54.6201 138.116 54.6201C138.818 54.6201 139.366 54.7932 139.759 55.122C140.153 55.4682 140.393 55.9528 140.461 56.5932H139.28C139.229 56.247 139.109 56.0047 138.92 55.8316C138.732 55.6759 138.475 55.5893 138.15 55.5893C137.739 55.5893 137.414 55.7451 137.209 56.0566C136.986 56.3682 136.883 56.8355 136.883 57.4585V57.8393C136.883 58.4624 137.003 58.947 137.243 59.2585C137.483 59.5873 137.825 59.7431 138.287 59.7431C138.749 59.7431 139.075 59.6393 139.263 59.4489V58.4104H138.15V57.4931H140.478V59.9508Z" fill="#6B037E"/>
<defs>
<radialGradient id="paint0_radial" cx="0" cy="0" r="1" gradientUnits="userSpaceOnUse" gradientTransform="translate(18.8568 29.0541) scale(21.0135 21.2458)">
<stop stop-color="white"/>
<stop offset="0.9969" stop-color="#E9B000"/>
</radialGradient>
</defs>
</svg>
