<svg width="160" height="80" viewBox="0 0 160 80" fill="none" xmlns="http://www.w3.org/2000/svg">
<path d="M104.533 29.5483C103.952 25.9112 102.151 24.0489 99.1577 23.9326C95.9323 23.8162 94.0435 25.4747 93.1427 29.3737C91.6026 29.4319 90.0335 29.5192 88.29 29.6065C88.9003 25.3001 90.3532 21.663 94.4503 19.9753C99.4192 17.9385 103.691 19.0733 106.974 23.5543C107.323 23.1469 107.614 22.8269 107.904 22.5068C110.607 19.4807 113.948 18.4914 117.842 19.3352C121.619 20.179 123.799 22.7687 124.932 26.3185C125.949 29.5192 125.92 29.5483 122.607 29.5483C122.026 29.5483 121.445 29.5483 120.806 29.5483C120.719 29.0537 120.632 28.5881 120.515 28.1517C119.847 25.3292 117.9 23.8744 114.994 23.9326C112.088 24.0198 110.054 25.6493 109.56 28.4426C109.415 29.3155 109.037 29.5774 108.224 29.5483C107.003 29.4901 105.812 29.5483 104.533 29.5483Z" fill="#F1EA26"/>
<path d="M25.6411 31.0613C27.2684 31.0613 28.8084 31.0613 30.3485 31.0613C31.0168 36.7643 33.109 39.0048 37.7292 38.9466C42.3785 38.9175 44.616 36.5316 45.1971 31.0613C46.7372 31.0613 48.2773 31.0613 49.9336 31.0613C50.1079 35.3968 48.9456 39.2376 45.2552 41.7109C40.7512 44.7079 35.8405 44.6497 31.104 42.2346C27.3846 40.3142 25.2343 35.6877 25.6411 31.0613Z" fill="#F1EA26"/>
<path d="M49.9917 29.4902C48.2773 29.4902 46.7663 29.4902 45.1681 29.4902C44.7613 27.628 43.9767 25.9985 42.2332 25.0092C40.606 24.0781 38.8044 23.8453 36.9737 23.9908C33.2834 24.2527 31.3656 25.8239 30.3776 29.4029C28.8375 29.4029 27.2393 29.4029 25.6411 29.4029C25.9898 24.3691 29.8545 19.8881 34.8816 19.3643C37.7583 19.0734 40.7513 18.8115 43.5408 20.15C47.4346 22.0122 49.3234 25.2129 49.9917 29.4902Z" fill="#F1EA26"/>
<path d="M20.7885 29.4894C18.9869 29.4894 17.4758 29.4894 15.9067 29.4894C15.7905 28.9366 15.7324 28.4128 15.6161 27.8891C15.064 25.6777 13.6402 24.3101 11.4027 24.0773C9.94984 23.9319 8.49695 23.9901 7.04405 23.9319C6.69535 23.9319 6.34666 23.9319 5.82362 23.9319C5.82362 25.8232 5.82362 27.6272 5.82362 29.4603C4.13826 29.4603 2.59819 29.4603 1 29.4603C1 26.056 1 22.6807 1 19.2472C1.26152 19.2181 1.5521 19.1599 1.84268 19.1599C4.63224 19.1599 7.4218 19.1308 10.2404 19.1599C14.8897 19.2181 19.0159 22.0987 20.2073 26.2014C20.4979 27.2198 20.585 28.2964 20.7885 29.4894Z" fill="#F1EA26"/>
<path d="M55.5127 30.8579C57.1109 30.8579 58.6219 30.8579 60.2491 30.8579C60.2491 33.5058 60.2491 36.1536 60.2491 38.9469C63.707 38.9469 67.0487 38.9469 70.4484 38.9469C70.4484 40.6346 70.4484 42.1767 70.4484 43.8062C65.4795 43.8062 60.5397 43.8062 55.5417 43.8062C55.5127 39.4998 55.5127 35.2516 55.5127 30.8579Z" fill="#F1EA26"/>
<path d="M141.989 19.0735C147.365 19.0735 152.653 19.0735 158 19.0735C158 20.6447 158 22.1869 158 23.9036C156.227 23.9036 154.426 23.9036 152.508 23.9036C152.508 25.504 152.479 26.9297 152.508 28.3846C152.537 29.2866 152.159 29.6067 151.288 29.5485C150.096 29.4903 148.905 29.5485 147.597 29.5485C147.597 27.6572 147.597 25.8531 147.597 23.9618C145.65 23.9618 143.82 23.9618 141.931 23.9618C141.989 22.2742 141.989 20.732 141.989 19.0735Z" fill="#F1EA26"/>
<path d="M120.777 30.8579C122.404 30.8579 123.944 30.8579 125.542 30.8579C125.542 35.1934 125.542 39.4707 125.542 43.8062C123.944 43.8062 122.404 43.8062 120.777 43.8062C120.777 39.4998 120.777 35.2225 120.777 30.8579Z" fill="#F1EA26"/>
<path d="M76.8412 43.8353C76.8412 39.4416 76.8412 35.1643 76.8412 30.8579C78.4394 30.8579 79.9794 30.8579 81.6067 30.8579C81.6067 35.1934 81.6067 39.4998 81.6067 43.8353C80.0085 43.8353 78.4975 43.8353 76.8412 43.8353Z" fill="#F1EA26"/>
<path d="M109.299 43.8933C107.846 43.8933 106.48 43.9224 105.115 43.8642C104.882 43.8642 104.504 43.3114 104.504 43.0204C104.475 39.0923 104.475 35.1641 104.475 31.1196C106.103 31.1196 107.701 31.1196 109.299 31.1196C109.299 35.3096 109.299 39.5578 109.299 43.8933Z" fill="#F1EA26"/>
<path d="M15.7905 31.0325C17.4759 31.0325 19.0159 31.0325 20.6141 31.0325C20.6141 35.3098 20.6141 39.5289 20.6141 43.8644C19.1322 43.8644 17.7374 43.8935 16.3135 43.8353C16.1392 43.8353 15.7905 43.4279 15.7905 43.2242C15.7905 39.2088 15.7905 35.1934 15.7905 31.0325Z" fill="#F1EA26"/>
<path d="M147.655 31.0613C149.283 31.0613 150.852 31.0613 152.45 31.0613C152.45 35.3095 152.45 39.5577 152.45 43.8932C151.026 43.8932 149.631 43.9223 148.295 43.8641C148.062 43.8641 147.713 43.3694 147.713 43.1075C147.655 39.1212 147.655 35.1349 147.655 31.0613Z" fill="#F1EA26"/>
<path d="M93.1136 43.8061C91.5155 43.8061 89.9754 43.8061 88.4062 43.8061C88.4062 39.5288 88.4062 35.3388 88.4062 31.0906C89.9754 31.0906 91.5155 31.0906 93.1136 31.0906C93.1136 35.3388 93.1136 39.5579 93.1136 43.8061Z" fill="#F1EA26"/>
<path d="M1.02905 30.8579C2.56912 30.8579 4.08014 30.8579 5.70738 30.8579C5.70738 35.1061 5.70738 39.3543 5.70738 43.6607C4.16731 43.6607 2.6563 43.6607 1.02905 43.6607C1.02905 39.4125 1.02905 35.1934 1.02905 30.8579Z" fill="#F1EA26"/>
<path d="M131.557 31.0906C133.155 31.0906 134.696 31.0906 136.294 31.0906C136.294 35.3388 136.294 39.5579 136.294 43.8352C134.725 43.8352 133.185 43.8352 131.557 43.8352C131.557 39.587 131.557 35.3679 131.557 31.0906Z" fill="#F1EA26"/>
<path d="M76.8702 19.1023C78.4684 19.1023 80.0085 19.1023 81.6357 19.1023C81.6357 22.5649 81.6357 25.9983 81.6357 29.4609C80.0375 29.4609 78.4975 29.4609 76.8702 29.4609C76.8702 26.0274 76.8702 22.6231 76.8702 19.1023Z" fill="#F1EA26"/>
<path d="M60.1619 29.4902C58.6509 29.4902 57.1399 29.4902 55.5127 29.4902C55.5127 26.0567 55.5127 22.6233 55.5127 19.1316C57.0237 19.1316 58.5347 19.1316 60.1619 19.1316C60.1619 22.536 60.1619 25.9694 60.1619 29.4902Z" fill="#F1EA26"/>
<path d="M131.499 29.5483C131.499 26.0567 131.499 22.7396 131.499 19.3352C133.097 19.3352 134.666 19.3352 136.323 19.3352C136.323 22.5359 136.352 25.6784 136.294 28.8209C136.294 29.0537 135.829 29.4901 135.567 29.4901C134.26 29.5774 132.923 29.5483 131.499 29.5483Z" fill="#F1EA26"/>
<path d="M40.8675 52.8262C40.8094 53.0008 40.7803 53.1753 40.7222 53.3499C40.606 53.6118 40.4897 53.8737 40.3445 54.1937C39.124 53.8155 37.8164 53.1462 36.7994 54.5429C36.102 55.5031 36.0439 57.6563 36.7413 58.6165C37.8164 60.0714 39.2112 59.3149 40.5188 59.0821C40.7222 60.6824 40.6641 60.7406 39.124 60.9443C37.09 61.2062 35.579 60.5369 34.8816 59.053C33.9808 57.1617 34.3585 54.3683 35.6952 53.1462C36.9447 51.9533 39.1821 51.8369 40.8675 52.8262Z" fill="#F6F6F6"/>
<path d="M120.021 60.7989C119.266 60.7989 118.714 60.7989 117.929 60.7989C118.83 57.4236 116.505 55.1249 115.314 52.4189C116.999 52.0115 117.057 52.0406 117.813 53.4955C118.162 54.1938 118.539 54.8921 118.975 55.736C119.382 54.9503 119.789 54.3684 120.021 53.6992C120.457 52.4189 121.3 51.9533 122.666 52.3898C121.474 55.0376 119.091 57.3654 120.021 60.7989Z" fill="#F6F6F6"/>
<path d="M87.5636 53.7865C87.5636 53.2045 87.5636 52.7971 87.5636 52.3025C89.6848 52.3025 91.777 52.3025 93.9563 52.3025C93.9563 52.7389 93.9563 53.2045 93.9563 53.7283C93.2589 53.7283 92.5616 53.7283 91.7189 53.7283C91.7189 56.1142 91.7189 58.4129 91.7189 60.7698C91.0506 60.7698 90.5275 60.7698 89.9173 60.7698C89.9173 58.442 89.9173 56.1433 89.9173 53.7574C89.0746 53.7865 88.3772 53.7865 87.5636 53.7865Z" fill="#F6F6F6"/>
<path d="M63.5036 52.2732C64.0848 52.2732 64.5787 52.2732 65.1599 52.2732C65.1599 55.0956 65.1599 57.9181 65.1599 60.7987C64.6078 60.7987 64.0848 60.7987 63.5036 60.7987C63.5036 57.9763 63.5036 55.1829 63.5036 52.2732Z" fill="#F6F6F6"/>
</svg>
