<svg width="160" height="80" viewBox="0 0 160 80" fill="none" xmlns="http://www.w3.org/2000/svg">
<path fill-rule="evenodd" clip-rule="evenodd" d="M134.22 72.9573V70.2882H128.771V72.9573H127.062V66.2725H128.771V68.9759H134.22V66.2725H135.928V72.9573H134.22Z" fill="white"/>
<path fill-rule="evenodd" clip-rule="evenodd" d="M62.6755 72.9573V66.2725H70.2444V67.5875L64.3837 67.5845V68.9744L69.8031 68.9729V70.2879L64.3837 70.2871V71.6399L70.2444 71.6426V72.9573H62.6755Z" fill="white"/>
<path fill-rule="evenodd" clip-rule="evenodd" d="M57.2412 72.9573V70.2882H51.7927V72.9573H50.0837V66.2725H51.7927V68.9759H57.2412V66.2725H58.9497V72.9573H57.2412Z" fill="white"/>
<path fill-rule="evenodd" clip-rule="evenodd" d="M3.70847 66.8069V72.9575H2V66.2729H5.44107L9.69887 72.4911V71.9915V66.2729H11.4073V72.9575H9.69622C9.67769 72.9581 7.95303 72.9575 7.95303 72.9575L3.70847 66.8069Z" fill="white"/>
<path fill-rule="evenodd" clip-rule="evenodd" d="M87.6834 66.8069V72.9575H85.9753V66.2729H89.4163L93.6738 72.4911V71.9915V66.2729H95.3823V72.9575H93.6712C93.6527 72.9581 91.928 72.9575 91.928 72.9575L87.6834 66.8069Z" fill="white"/>
<path fill-rule="evenodd" clip-rule="evenodd" d="M42.2413 72.9588V67.6526L39.0064 67.6521V66.271H47.314V67.6491L44.0789 67.6526V72.9588H42.2413Z" fill="white"/>
<path fill-rule="evenodd" clip-rule="evenodd" d="M142.169 72.9588V67.6526L138.934 67.6521V66.271H147.242V67.6491L144.007 67.6526V72.9588H142.169Z" fill="white"/>
<path fill-rule="evenodd" clip-rule="evenodd" d="M99.1294 72.9612V66.269H100.967L100.976 71.616L106.17 71.6142L106.169 72.9612H99.1294Z" fill="white"/>
<path fill-rule="evenodd" clip-rule="evenodd" d="M108.79 66.2617H110.628V72.9721H108.79V66.2617Z" fill="white"/>
<path fill-rule="evenodd" clip-rule="evenodd" d="M29.703 67.5809V69.8256L33.488 69.8238C33.9946 69.8238 34.4077 69.4117 34.4077 68.9056V68.5082C34.4077 68.0016 33.9946 67.59 33.488 67.59L29.703 67.5809ZM34.1252 72.9622L32.8566 71.1875L29.6989 71.1852L29.6977 72.9646H27.8521V66.2612L34.3191 66.2639C35.3053 66.2639 36.1088 67.0655 36.1088 68.05V69.4023C36.1088 70.6451 34.7963 71.1793 34.7963 71.1793L36.0835 72.9631L34.1252 72.9622Z" fill="white"/>
<path fill-rule="evenodd" clip-rule="evenodd" d="M75.8394 67.5809V69.8256L79.6238 69.8238C80.1307 69.8238 80.5438 69.4117 80.5438 68.9056V68.5082C80.5438 68.0016 80.1307 67.59 79.6238 67.59L75.8394 67.5809ZM80.2616 72.9622L78.9927 71.1875L75.8353 71.1852L75.8341 72.9646H73.9883V66.2612L80.4549 66.2639C81.4417 66.2639 82.2446 67.0655 82.2446 68.05V69.4023C82.2446 70.6451 80.9327 71.1793 80.9327 71.1793L82.2196 72.9631L80.2616 72.9622Z" fill="white"/>
<path fill-rule="evenodd" clip-rule="evenodd" d="M17.8934 67.6179C17.2452 67.6179 16.7177 68.1442 16.7177 68.7915V70.4408C16.7177 71.0881 17.2452 71.6144 17.8934 71.6144H21.3809C22.03 71.6144 22.5575 71.0881 22.5575 70.4408V68.7915C22.5575 68.1442 22.03 67.6179 21.3809 67.6179H17.8934ZM17.0334 72.9937C15.9901 72.9937 15.1411 72.1459 15.1411 71.1045V68.1366C15.1411 67.0952 15.9901 66.248 17.0334 66.248H22.2644C23.3077 66.248 24.1574 67.0952 24.1574 68.1366V71.1045C24.1574 72.1459 23.3077 72.9937 22.2644 72.9937H17.0334Z" fill="white"/>
<path fill-rule="evenodd" clip-rule="evenodd" d="M116.23 72.992C115.187 72.992 114.338 72.1449 114.338 71.104V68.1352C114.338 67.0941 115.187 66.2476 116.23 66.2476H121.461C122.347 66.2476 123.118 66.8772 123.307 67.7319L121.636 68.2876C121.442 67.881 121.034 67.6169 120.578 67.6169H117.09C116.442 67.6169 115.915 68.1435 115.915 68.7904V70.4397C115.915 71.087 116.442 71.6136 117.09 71.6136H120.578C121.227 71.6136 121.754 71.087 121.754 70.4397V70.3986C121.754 70.3144 121.686 70.2457 121.601 70.2457H118.837L118.849 69.3138H123.348L123.354 71.104C123.354 72.1449 122.505 72.992 121.461 72.992H116.23Z" fill="white"/>
<path fill-rule="evenodd" clip-rule="evenodd" d="M157.948 68.3252V68.2101C157.948 67.1299 157.061 66.2461 155.979 66.2461H152.143C151.06 66.2461 150.174 67.1299 150.174 68.2101V68.3604C150.174 69.4409 151.06 70.3247 152.143 70.3247L155.764 70.3297C156.166 70.3297 156.495 70.6088 156.495 71.0098C156.495 71.4113 156.166 71.7392 155.764 71.7392H152.521C152.119 71.7392 151.79 71.4601 151.79 71.0585C151.79 71.0121 151.796 70.966 151.805 70.922L150.16 70.9261L150.161 71.0415C150.164 72.122 151.052 73.0034 152.135 73.0002L156.036 72.9896C157.119 72.9864 158.003 72.0999 158 71.0198L157.999 70.8698C157.996 69.789 157.294 69.0428 156.211 69.0452L152.402 69.0144C152.341 69.0144 152.283 69.005 152.226 68.9903C151.909 68.911 151.671 68.6254 151.671 68.2849C151.671 68.0809 151.757 67.8963 151.893 67.7636C152.027 67.6271 152.211 67.5414 152.416 67.5414H155.593C155.995 67.5414 156.324 67.8696 156.324 68.2712C156.324 68.2899 156.32 68.3073 156.319 68.3252H157.948Z" fill="white"/>
<path fill-rule="evenodd" clip-rule="evenodd" d="M38.6184 59.0569C37.2002 58.4241 36.5566 56.7439 37.1881 55.3228L59.2593 5.67684C59.8911 4.25544 61.5681 3.61049 62.986 4.24324C64.4044 4.8757 65.0481 6.55621 64.4169 7.97731L42.3453 57.6236C41.7139 59.0447 40.0368 59.6899 38.6184 59.0569Z" fill="#BBDC00"/>
<path fill-rule="evenodd" clip-rule="evenodd" d="M48.1174 59.0585C46.7017 58.4298 46.0592 56.7603 46.6895 55.3483L63.2282 18.306C63.8586 16.894 65.5324 16.2531 66.9484 16.8818C68.3641 17.5111 69.0066 19.1806 68.3762 20.5927L51.8378 57.6343C51.2075 59.0464 49.5334 59.6875 48.1174 59.0585Z" fill="#BBDC00"/>
<path fill-rule="evenodd" clip-rule="evenodd" d="M57.6414 59.0612C56.2069 58.4329 55.5559 56.7646 56.1946 55.3536L67.1157 30.9474C67.7544 29.5363 69.4507 28.896 70.8855 29.5242C72.3197 30.1528 72.9708 31.8214 72.332 33.2324L61.4113 57.6381C60.7726 59.0491 59.0762 59.6898 57.6414 59.0612Z" fill="#8FCF69"/>
<path fill-rule="evenodd" clip-rule="evenodd" d="M66.3798 59.054C64.9217 58.4144 64.2599 56.7161 64.9092 55.2797L70.1933 43.6145C70.8422 42.1781 72.5665 41.5262 74.025 42.1658C75.4832 42.806 76.1449 44.5042 75.4957 45.9406L70.2119 57.6053C69.5626 59.0417 67.8383 59.6939 66.3798 59.054Z" fill="#4DC0A1"/>
<path fill-rule="evenodd" clip-rule="evenodd" d="M94.8858 59.054C93.4276 58.4144 92.7655 56.7161 93.4151 55.2797L98.6986 43.6145C99.3482 42.1781 101.073 41.5262 102.531 42.1658C103.989 42.806 104.65 44.5042 104.002 45.9406L98.7173 57.6053C98.0686 59.0417 96.3443 59.6939 94.8858 59.054Z" fill="#66CCCC"/>
<path fill-rule="evenodd" clip-rule="evenodd" d="M103.596 59.054C102.138 58.4144 101.476 56.7161 102.126 55.2797L107.409 43.6145C108.059 42.1781 109.783 41.5262 111.241 42.1658C112.7 42.806 113.361 44.5042 112.712 45.9406L107.428 57.6053C106.779 59.0417 105.055 59.6939 103.596 59.054Z" fill="#EE88D0"/>
<path fill-rule="evenodd" clip-rule="evenodd" d="M113.098 59.054C111.64 58.4144 110.978 56.7161 111.627 55.2797L116.911 43.6145C117.56 42.1781 119.285 41.5262 120.743 42.1658C122.201 42.806 122.863 44.5042 122.214 45.9406L116.93 57.6053C116.281 59.0417 114.557 59.6939 113.098 59.054Z" fill="#EE88D0"/>
<path fill-rule="evenodd" clip-rule="evenodd" d="M75.8346 59.0569C74.4164 58.4241 73.7728 56.7439 74.4042 55.3228L96.4755 5.67684C97.1073 4.25544 98.7843 3.61049 100.202 4.24324C101.621 4.8757 102.264 6.55621 101.633 7.97731L79.5615 57.6236C78.9301 59.0447 77.253 59.6899 75.8346 59.0569Z" fill="#4DC0A1"/>
<path fill-rule="evenodd" clip-rule="evenodd" d="M85.3366 59.0569C83.9184 58.4241 83.2745 56.7439 83.9063 55.3228L105.978 5.67684C106.609 4.25544 108.286 3.61049 109.704 4.24324C111.123 4.8757 111.766 6.55621 111.135 7.97731L89.063 57.6236C88.4321 59.0447 86.7551 59.6899 85.3366 59.0569Z" fill="#66CCCC"/>
</svg>
