<svg width="160" height="80" viewBox="0 0 160 80" fill="none" xmlns="http://www.w3.org/2000/svg">
<path d="M70.8699 29.8471C71.2421 30.4324 71.3574 31.1571 71.2706 31.8232C70.7984 34.7158 70.2117 37.5798 69.7538 40.4724C69.6107 41.3459 69.5392 42.1908 69.8969 43.007C70.3977 43.4795 72.9176 43.6763 73.746 43.1788C74.8908 42.2337 75.0911 40.859 75.3487 39.5416C75.8352 36.9784 76.2788 34.4008 76.7224 31.8232C76.8225 31.2075 76.9513 30.606 77.3663 30.1192C77.5447 29.9406 77.6708 29.8308 77.8957 29.7182C78.9832 29.4318 80.085 29.3745 81.1868 29.7182C82.5344 30.3925 81.6663 32.5516 81.4873 33.6562C81.101 35.9473 80.7003 38.2528 80.271 40.544C80.0135 41.8614 79.5842 43.1215 79.0404 44.3387C77.6668 47.0309 75.2342 47.7182 72.4868 47.8041C71.2849 47.8328 70.0686 47.89 68.8666 47.6609C67.8507 47.4605 66.892 47.1454 66.062 46.4867C65.7186 46.2146 65.4038 45.9426 65.2321 45.5273C64.4451 44.1096 64.4594 42.5917 64.5882 41.0452C65.0461 37.9091 65.6757 34.7874 66.2194 31.6657C66.3282 31.0488 66.7475 30.0272 67.3069 29.7325C68.2599 29.5819 70.0171 29.2781 70.8699 29.8471Z" fill="#FEFEFE"/>
<path d="M94.6088 42.8925C95.3859 44.0033 95.0933 45.8875 94.294 46.8734C93.8075 47.3603 93.1636 47.4748 92.534 47.5751C90.3876 47.9044 88.2413 47.9617 86.0949 47.618C84.6497 47.3889 83.3619 46.8161 82.4747 45.5703C81.9023 44.4963 81.6734 43.3507 81.702 42.1335C81.7306 40.0285 82.1599 37.9808 82.675 35.9474C83.0715 34.228 84.1089 32.2014 85.3937 30.9927C86.4955 30.2051 87.7691 29.8615 89.0712 29.5751C91.4955 29.4133 93.8249 29.4547 96.1828 30.019C96.6893 30.1419 97.5081 30.7636 97.4134 31.3794C97.2846 32.2386 97.256 33.1264 96.7981 33.8997C96.2258 34.587 95.496 34.7445 94.6804 34.4581C93.5929 34.0715 92.4768 33.871 91.332 33.8281C89.386 33.7708 88.2985 34.2577 87.7691 36.0476C87.2826 37.723 86.9678 39.4128 86.839 41.1598C86.6148 44.1885 91.0745 43.4796 91.933 43.1216C92.7916 42.7636 93.9363 42.3913 94.6088 42.8925Z" fill="#FEFEFE"/>
<path d="M100.647 29.6894C101.492 29.7324 102.35 29.7038 103.194 29.7038C103.592 29.7038 103.938 30.0904 103.938 30.6345C103.867 32.0379 103.523 33.3983 103.28 34.7873C102.922 36.9209 102.522 39.0403 102.178 41.1739C102.093 41.7467 101.935 42.3625 102.45 42.8493C103.725 43.7656 106.468 43.2394 107.916 43.3076C108.374 43.3362 108.889 43.2503 109.204 43.7372C109.743 44.8149 109.486 46.4327 108.675 47.3314C108.317 47.6178 107.902 47.6751 107.473 47.6751C105.484 47.6751 103.481 47.7038 101.492 47.6608C99.9032 47.6178 98.5152 47.088 97.5708 45.7133C96.8411 44.4675 96.9412 43.1071 97.0271 41.761C97.4993 38.2527 98.2004 34.7873 98.8014 31.3076C99.0234 30.4191 99.6382 29.6435 100.647 29.6894Z" fill="#FEFEFE"/>
<path d="M55.831 30.1337C56.661 30.8067 56.8899 31.4511 57.0473 32.3103C57.1045 34.8163 57.3192 37.3079 57.2333 39.8139C57.1815 40.7481 57.2174 42.0988 57.5481 42.9499C57.8915 42.1194 57.9059 41.2459 58.0489 40.3867C58.4639 37.3938 58.8503 34.401 59.3081 31.4082C59.4228 30.9952 59.4558 30.4691 59.6659 30.0907C59.7719 29.9316 59.8805 29.7327 60.3241 29.7184C61.4688 29.7184 62.5992 29.7184 63.744 29.7327C64.2448 29.8759 64.3164 30.0907 64.3879 30.6635C64.5596 31.58 64.2162 32.4535 64.0588 33.327C63.4149 36.9786 62.7853 40.6444 62.1127 44.296C61.9983 44.8974 61.7836 45.4416 61.5118 45.9714C60.9823 47.0311 60.0236 47.4607 58.9504 47.6755C57.5052 47.9475 56.0743 47.9046 54.6863 47.4034C54.2713 47.2602 53.9136 47.0454 53.6847 46.6444C53.1409 45.8425 53.0264 44.9117 52.9978 43.9953C52.9263 41.9905 52.9835 39.9714 52.8118 37.9666C52.8118 36.7494 52.8118 35.6039 52.6115 34.2864C52.2394 35.2745 52.1965 36.3055 52.0248 37.3222C51.6528 39.9857 51.2664 42.6349 50.9373 45.2984C50.8514 45.9284 50.8228 46.5872 50.4079 47.1313C50.1074 47.4607 49.7353 47.6468 49.2774 47.6611C48.4904 47.6898 47.7034 47.6898 46.9307 47.6611C46.6159 47.6468 46.3154 47.5752 46.0865 47.3318C45.7717 46.9451 45.6429 46.5156 45.7431 46.0144C46.5301 41.6468 47.2742 37.265 48.0898 32.8974C48.2042 32.3246 48.2615 31.3222 48.7194 30.8783C49.5022 30.1194 49.9647 30.0136 50.7513 29.7184C52.1309 29.4259 54.3 29.2315 55.831 30.1337Z" fill="#FEFEFE"/>
<path d="M110.821 42.1767C111.064 40.8163 111.293 39.4416 111.522 38.0812C111.88 35.9332 112.238 33.7996 113.268 31.8378C115.161 29.5067 117.737 29.7267 120.508 29.7041C122.054 29.6898 123.585 29.7041 125.13 29.7041C127.112 29.7041 126.774 32.7 125.645 33.6993C125.23 33.9428 124.773 33.8998 124.329 33.9141C122.354 33.9714 120.38 33.7709 118.419 34.0573C117.833 34.1433 117.303 34.3294 117.003 34.8736C116.598 35.6122 116.534 36.4058 117.446 36.4058C119.521 36.4058 121.582 36.4058 123.656 36.4058C124.519 37.5348 124.54 38.8567 123.728 40.1146C123.327 40.5585 122.798 40.6301 122.24 40.6301C120.437 40.6301 118.648 40.6301 116.845 40.6301C115.126 40.6301 115.374 43.2936 117.131 43.2936C119.12 43.2936 121.095 43.2936 123.084 43.3079C124.578 43.8488 124.187 46.3172 123.399 47.2888C123.07 47.5752 122.683 47.6468 122.268 47.6468C119.879 47.6468 117.475 47.7184 115.085 47.6182C113.669 47.5609 112.309 47.2029 111.351 46.0001C110.649 44.8115 110.521 43.5227 110.821 42.1767Z" fill="#FEFEFE"/>
<path d="M149.985 29.6896C152.61 29.3144 156.146 29.0359 158.556 30.2624C159.401 31.4223 158.891 33.4141 158.113 34.2433C157.612 34.6013 157.068 34.6442 156.482 34.501C155.308 34.2003 154.149 33.871 152.919 33.8423C151.914 33.824 150.328 33.7051 149.656 34.6299C149.195 35.2795 150.079 35.765 150.586 36.0189C151.903 36.606 153.334 36.8352 154.664 37.4223C155.451 37.7659 156.181 38.1669 156.854 38.7111C157.426 39.2122 157.626 39.8996 157.741 40.6299C157.769 42.2767 157.469 43.8519 156.567 45.2695C155.737 46.4867 154.593 47.2313 153.133 47.4748C150.2 47.9617 147.281 47.976 144.362 47.3889C143.51 47.2266 142.878 46.4883 143.017 45.5846C143.357 44.5829 143.522 42.3604 145.206 42.7349C146.889 43.1177 148.29 43.3278 150 43.365C150.715 43.3793 151.473 43.4509 152.103 43.05C153.026 42.6303 152.467 41.447 151.674 41.1741C150.615 40.8017 149.556 40.4581 148.497 40.1144C147.452 39.7707 146.465 39.3268 145.578 38.6538C144.866 38.1196 144.39 37.2513 144.39 36.3483C144.304 35.26 144.533 34.229 144.848 33.1979C145.78 31.0998 147.639 29.889 149.985 29.6896Z" fill="#FEFEFE"/>
<path d="M142.859 29.704C143.3 30.1937 143.503 30.4476 143.503 31.1503C143.231 33.2123 142.802 35.2601 142.459 37.3078C142.258 38.4963 142.044 39.6849 141.8 40.8734C141.586 41.9761 141.199 43.0214 140.77 44.0524C139.611 46.4438 137.594 47.5321 135.046 47.7183C133.172 47.8615 131.283 47.9331 129.452 47.3603C128.307 47.0023 127.305 46.4438 126.719 45.3269C125.676 41.8982 126.915 38.1484 127.491 34.673C127.677 33.4844 127.935 32.3102 128.121 31.1216C128.164 30.8546 128.486 29.704 128.836 29.704C130.271 29.3092 131.869 29.2236 132.829 30.4057C133.1 30.692 133.015 31.0214 132.957 31.3508C132.457 34.229 131.898 37.1073 131.426 39.9856C131.283 40.8162 131.297 41.6467 131.398 42.4773C131.785 44.0266 134.781 43.6078 135.719 43.0214C137.221 40.5011 137.193 37.5942 137.794 34.8448C138.037 33.7135 138.223 32.5536 138.409 31.3937C138.51 30.6884 138.581 30.1193 139.454 29.704V29.6897C140.57 29.3746 141.715 29.4176 142.859 29.704Z" fill="#FEFEFE"/>
<path d="M35.3261 25.8945C29.5165 21.6844 21.1028 21.9995 21.1028 21.9995C21.1028 21.9995 12.7033 21.6844 6.87947 25.8945C1.05565 30.1045 2.00005 36.3193 2.14314 37.4649C2.28623 38.6105 3.74577 43.4792 5.97799 46.6295C8.82551 50.6391 12.6031 54.2477 16.3807 56.1236C20.1441 58.0138 20.3587 57.9422 20.3587 57.9422L21.1028 58.0138L21.8468 57.9422C21.8468 57.9422 22.0472 58.0138 25.8248 56.1236C29.5881 54.2334 33.38 50.6391 36.2275 46.6295C38.4598 43.4792 39.9193 38.6105 40.0624 37.4649C40.2055 36.3193 41.1499 30.1045 35.3261 25.8945ZM21.3889 46.7298C16.9245 46.7298 13.3043 43.1069 13.3043 38.6391C13.3043 34.1713 16.9245 30.5484 21.3889 30.5484C25.8534 30.5484 29.4736 34.1713 29.4736 38.6391C29.4736 43.1069 25.8534 46.7298 21.3889 46.7298Z" fill="#CB3333"/>
<path opacity="0.6" d="M6.93736 25.8521C1.11354 30.0621 2.05794 36.2626 2.20103 37.4081C2.34412 38.5537 4.44757 43.0931 7.10907 45.4272C7.10907 45.4272 11.8168 49.6086 16.6247 49.5943C21.4325 49.58 25.4534 47.3175 27.3994 44.5681C29.3455 41.8187 29.5315 39.9571 29.5315 39.9571C29.5315 39.9571 29.6889 39.3413 29.7032 38.5251C29.7175 37.9237 29.5887 37.2077 29.5315 36.5346C29.4743 35.8616 29.2453 35.2029 29.1165 34.7447C28.258 31.7089 25.9828 28 21.5899 25.7948C17.197 23.5895 12.7183 23.3747 10.3143 24.148C7.91038 24.9213 6.93736 25.8521 6.93736 25.8521ZM21.4468 46.6874C16.9824 46.6874 13.3622 43.0645 13.3622 38.5967C13.3622 34.1289 16.9824 30.506 21.4468 30.506C25.9113 30.506 29.5315 34.1289 29.5315 38.5967C29.5315 43.0645 25.9113 46.6874 21.4468 46.6874Z" fill="url(#paint0_linear)"/>
<g opacity="0.6">
<path opacity="0.6" d="M29.4736 39.9565C29.4736 39.9565 29.2876 41.8181 27.3415 44.5675C25.3955 47.3169 21.3746 49.5794 16.5667 49.5938C11.7588 49.6081 7.05113 45.4267 7.05113 45.4267C3.25921 41.5174 2.28618 38.5532 2.14309 37.4076C2.10016 37.0926 2 36.3766 2 35.4315C2 36.4052 2.10016 37.1355 2.14309 37.4649C2.28618 38.6105 3.74572 43.4792 5.97794 46.6295C8.82546 50.6391 12.6031 54.2477 16.3807 56.1236C20.144 58.0138 20.3586 57.9422 20.3586 57.9422L21.1027 58.0138L21.8468 57.9422C21.8468 57.9422 22.0471 58.0138 25.8247 56.1236C29.588 54.2334 33.38 50.6391 36.2275 46.6295C38.4597 43.4792 39.9193 38.6105 40.0623 37.4649C40.2054 36.3193 41.1498 30.1045 35.326 25.8945C29.5022 21.6844 21.1027 21.9995 21.1027 21.9995C21.1027 21.9995 14.5921 21.756 9.05441 24.577C9.41214 24.4338 9.8128 24.2763 10.2564 24.1331C12.6603 23.3599 17.1963 23.4315 21.532 25.7799C26.1968 28.3145 28.2144 31.694 29.0586 34.7298C29.2589 35.4458 29.4879 36.5484 29.5451 37.6081C29.5451 37.5938 29.6882 38.6248 29.4736 39.9565Z" fill="url(#paint1_linear)"/>
<path opacity="0.6" d="M29.4312 37.7513C29.4312 37.7226 29.3877 36.9637 29.3877 36.9351L29.4312 37.7513Z" fill="url(#paint2_linear)"/>
</g>
<g opacity="0.4">
<path opacity="0.4" d="M25.8248 56.1241C29.5881 54.2339 33.38 50.6396 36.2275 46.63C38.4597 43.4797 39.9193 38.6109 40.0624 37.4654C40.2055 36.3198 41.1499 30.105 35.326 25.895C29.5022 21.6849 21.1027 22 21.1027 22C21.1027 22 18.5557 22.1002 18.1121 22.1432C19.2569 22.1718 30.7614 21.4415 36.0129 27.7136C41.2643 33.9856 38.4884 41.0596 36.7569 44.0382C35.0255 47.0167 29.5308 53.7756 24.5942 56.6109C25.8248 56.1241 25.8248 56.1241 25.8248 56.1241Z" fill="#FF4545"/>
<path opacity="0.4" d="M29.4312 37.7518C29.4312 37.7231 29.3877 36.9642 29.3877 36.9355L29.4312 37.7518Z" fill="#FF4545"/>
</g>
<defs>
<linearGradient id="paint0_linear" x1="8.72058" y1="52.6768" x2="20.8624" y2="25.4262" gradientUnits="userSpaceOnUse">
<stop stop-color="#CB3232" stop-opacity="0.8"/>
<stop offset="0.4894" stop-color="#CB3232"/>
<stop offset="1" stop-color="#240000"/>
</linearGradient>
<linearGradient id="paint1_linear" x1="13.1373" y1="22.2169" x2="31.0171" y2="53.1625" gradientUnits="userSpaceOnUse">
<stop stop-color="#CB3333" stop-opacity="0.4"/>
<stop offset="0.5196" stop-color="#CB3333" stop-opacity="0.7"/>
<stop offset="0.5318" stop-color="#C43130" stop-opacity="0.71"/>
<stop offset="0.6055" stop-color="#9E2323" stop-opacity="0.7706"/>
<stop offset="0.6786" stop-color="#801918" stop-opacity="0.8307"/>
<stop offset="0.7502" stop-color="#6A1110" stop-opacity="0.8897"/>
<stop offset="0.8197" stop-color="#5D0D0C" stop-opacity="0.9468"/>
<stop offset="0.8844" stop-color="#590B0A"/>
</linearGradient>
<linearGradient id="paint2_linear" x1="29.2138" y1="37.0234" x2="29.5787" y2="37.6632" gradientUnits="userSpaceOnUse">
<stop stop-color="#CB3333" stop-opacity="0.4"/>
<stop offset="0.5196" stop-color="#CB3333" stop-opacity="0.7"/>
<stop offset="0.5318" stop-color="#C43130" stop-opacity="0.71"/>
<stop offset="0.6055" stop-color="#9E2323" stop-opacity="0.7706"/>
<stop offset="0.6786" stop-color="#801918" stop-opacity="0.8307"/>
<stop offset="0.7502" stop-color="#6A1110" stop-opacity="0.8897"/>
<stop offset="0.8197" stop-color="#5D0D0C" stop-opacity="0.9468"/>
<stop offset="0.8844" stop-color="#590B0A"/>
</linearGradient>
</defs>
</svg>
