<svg width="160" height="80" viewBox="0 0 160 80" fill="none" xmlns="http://www.w3.org/2000/svg">
<g clip-path="url(#clip0)">
<path d="M157.505 74.7022C157.585 73.8638 157.006 73.3647 156.507 72.8657C156.027 72.4664 155.528 72.0871 155.009 71.7278C154.43 71.2886 153.812 70.8894 153.273 70.4103C151.875 69.1526 151.676 68.0547 152.434 66.3579C153.193 65.4596 154.111 64.8806 155.349 64.9405C156.826 65.0204 157.944 66.298 157.864 67.7552V67.7752C157.804 67.7952 157.744 67.8551 157.684 67.8551C157.185 67.8551 156.686 67.8551 156.147 67.8551C155.868 67.5157 155.968 66.837 155.329 66.7771C154.87 66.7372 154.47 66.817 154.211 67.2562C153.872 67.8351 154.111 68.2743 154.57 68.6336C155.129 69.0528 155.728 69.4121 156.307 69.8114C156.886 70.2106 157.545 70.5899 158.104 71.069C159.74 72.4464 160.399 74.1832 159.78 76.2992C159.122 77.8962 157.984 78.9742 156.267 79.3734C153.113 80.0721 150.578 77.457 150.658 75.2013L152.813 74.6822C153.313 76.5188 154.251 77.2774 155.688 77.0778C156.906 76.8981 157.565 76.0397 157.505 74.7022Z" fill="white"/>
<path d="M17.6669 65.9183V66.9165C17.647 67.3756 17.627 67.8347 17.627 68.2939C17.627 70.8291 17.647 73.3644 17.6669 75.8996L17.607 77.0974C18.8647 77.1772 20.0624 77.0974 21.3201 77.1573V79.4529H15.4511L15.3113 78.6744C15.3113 78.335 15.3113 78.0156 15.3113 77.6763C15.3313 75.8397 15.3513 74.0032 15.3513 72.1466C15.3513 71.0687 15.3313 69.9707 15.3113 68.8927C15.3113 67.6351 15.3113 66.3575 15.3113 65.0999C15.471 65 15.6507 64.9402 15.8304 64.9002C16.3893 64.8803 16.9483 64.9002 17.5471 64.9002L17.6669 65.4991C17.6669 65.6388 17.6669 65.7786 17.6669 65.9183Z" fill="white"/>
<path d="M30.0836 67.3358C30.7623 68.3539 31.4211 69.372 31.6407 70.6297C31.7006 70.989 31.7405 71.3483 31.8004 71.7076C31.7804 72.0071 31.7604 72.3065 31.7604 72.606C31.7604 74.7819 30.7224 76.3988 29.0256 77.6166C27.728 78.5348 26.2108 79.1337 24.6338 79.3333C23.8353 79.4531 22.9969 79.3533 22.1584 79.3533C22.0786 79.0539 22.0187 78.7345 21.9987 78.435C21.9588 76.7182 21.9588 75.0214 21.9389 73.3046C21.9588 72.3065 21.9788 71.3084 21.9788 70.3103C21.9788 69.3121 21.9588 68.2741 21.9588 67.1961H20.0624L20.5814 66.178L21.4797 64.9403L23.1566 64.8206C24.0349 64.8804 24.9532 64.8405 25.8116 65.0002C27.4286 65.3396 28.9258 66.158 30.0836 67.3358ZM28.2271 68.8929C27.3088 67.5754 25.9713 67.1961 24.4142 67.2161V76.9977C25.5321 76.9179 26.6101 76.5585 27.5483 75.9397C28.4467 75.4007 29.0855 74.5224 29.2851 73.4843C29.5646 71.8075 29.325 70.2304 28.2271 68.8929Z" fill="white"/>
<path d="M37.4698 67.915C37.5097 66.4777 38.2683 65.4995 39.6058 65.0603C40.1447 64.8807 40.7636 64.9406 41.3425 64.9006C42.6401 65.3797 43.3388 66.2781 43.4985 67.7154H41.6619L41.2028 66.7771C40.9832 66.7372 40.8235 66.7172 40.6638 66.6973C40.2246 66.6573 39.8054 66.8969 39.6257 67.3161C39.4061 67.7952 39.6257 68.1545 39.9651 68.454C40.3244 68.7534 40.6837 69.0329 41.063 69.2924C41.9813 69.9112 42.9195 70.5301 43.8578 71.1489C43.9776 71.3086 44.0973 71.4683 44.2171 71.628C45.6145 73.225 45.874 74.9618 44.9158 76.8782C44.836 77.0778 44.7761 77.2974 44.7361 77.517L44.3169 77.8563C44.2171 77.9362 44.0973 77.9961 43.9975 78.0959C42.2807 79.7727 39.2664 79.8127 37.4698 78.0759C37.37 77.9961 37.2701 77.9162 37.1703 77.8364C36.6912 77.0179 36.0724 76.2593 36.1123 75.1814C36.7511 74.822 37.5097 74.7821 38.2683 74.6224L38.7074 75.7004C38.8073 75.9399 38.947 76.1595 39.1267 76.3591C39.985 77.1776 41.5821 77.2175 42.4005 76.439C43.219 75.6605 43.3388 74.4028 42.5602 73.3847C42.3007 73.0853 42.0212 72.8058 41.7418 72.5663C41.1828 72.167 40.6039 71.7678 40.0649 71.3485C39.466 70.8694 38.8871 70.3903 38.3481 69.8713C37.8291 69.3323 37.5097 68.6336 37.4698 67.915Z" fill="white"/>
<path d="M122.031 64.9801C123.828 64.8404 125.644 64.6408 127.401 65.3195C130.435 66.4973 132.112 69.5316 131.973 72.007C131.933 72.5659 131.953 73.1249 131.953 73.6838C131.354 76.0793 129.777 77.5765 127.561 78.5148C127.361 78.5946 127.162 78.7144 126.962 78.8142C125.465 79.2933 123.868 79.433 122.291 79.2534L122.211 73.9034C122.311 71.6876 122.231 69.4917 122.271 67.2758L120.913 67.1561L122.031 64.9801ZM124.626 76.9577C128.1 76.5185 129.877 74.642 129.557 71.7075C129.298 69.2521 127.8 67.0363 124.626 67.2359V76.9577Z" fill="white"/>
<path d="M132.671 73.704C132.691 71.6079 132.691 69.4919 132.711 67.3958C132.691 67.296 132.671 67.1962 132.631 67.1163L132.771 65.0203H134.987V69.5118C134.987 71.6478 134.987 73.7639 134.987 75.8999V79.3135H132.731L132.671 73.704Z" fill="white"/>
<path d="M86.4579 64.8804L87.0368 64.9403V77.0975H90.7099C90.9096 77.856 90.7698 78.5947 90.8097 79.4131L88.2545 79.493H84.9008C84.7012 78.6745 84.6413 66.8567 84.801 64.9403L86.4579 64.8804Z" fill="white"/>
<path d="M120.275 72.2866C120.255 73.5842 120.255 74.8817 120.215 76.1793C120.235 76.5386 120.195 76.9179 120.135 77.2773C119.955 78.1556 119.336 78.6746 118.578 79.0539C117.18 79.4731 115.683 79.4931 114.266 79.1338C112.769 78.7345 112.19 77.936 112.17 76.3989C112.15 74.5623 112.17 72.7458 112.17 70.9092C112.17 70.5698 112.15 70.2504 112.13 69.9111L112.21 64.9204L113.208 64.8406L114.366 64.9404L114.426 65.9186C114.426 66.5174 114.386 67.1163 114.386 67.7152C114.386 70.3902 114.386 73.0851 114.366 75.7601C114.366 76.2592 114.445 76.6983 114.925 76.9379C115.623 77.2972 116.342 77.4569 117.12 77.1575C117.699 76.9578 117.979 76.5786 117.979 75.9797C117.959 73.7638 117.959 71.548 117.939 69.3122L117.999 64.9604H120.195C120.195 65.3197 120.195 65.6391 120.195 65.9585C120.235 68.0545 120.255 70.1706 120.275 72.2866Z" fill="white"/>
<path d="M107.818 64.8406H111.431V67.0564L110.413 67.1762H108.956C108.936 67.4557 108.916 67.7351 108.916 68.0346C108.916 71.4482 108.916 74.8817 108.916 78.3153C108.896 78.6746 108.856 79.034 108.796 79.3733H106.7L106.62 75.6803C106.68 72.8456 106.66 70.0109 106.6 67.1762C105.702 67.0764 104.863 67.2361 104.125 67.0365V64.8406H107.818Z" fill="white"/>
<path d="M55.3163 77.6764L56.1148 79.3532L54.1185 79.4331L53.5396 79.3532L49.4273 71.8074C48.9682 72.007 48.8484 72.4462 48.549 72.8055V79.2734H46.3531L46.2732 76.6383C46.2732 74.1829 46.2732 71.7475 46.2732 69.2921L46.3531 64.8804H47.4909H48.529L48.6088 65.8985C48.6088 66.6371 48.6088 67.3557 48.6088 68.0943L48.5689 68.7531L48.9482 68.1143L51.2439 64.9203H53.9389C53.7392 65.2197 53.5995 65.4793 53.4398 65.7188C52.6812 66.8567 51.9226 67.9746 51.1441 69.0925C50.9644 69.372 50.7049 69.6315 51.1042 69.9309C51.5034 70.6895 51.8827 71.468 52.282 72.2066C53.3 74.0432 54.3181 75.8797 55.3163 77.6764Z" fill="white"/>
<path d="M81.4074 31.7826C81.2077 30.8842 81.048 29.9859 80.7686 29.1275C80.1497 27.291 79.7704 25.3945 79.4111 23.4981C79.0518 21.6615 78.8522 19.785 78.7923 17.9285C78.7324 16.5112 78.3731 15.1138 78.4529 13.7164C78.6126 10.9217 78.9919 8.16683 80.3893 5.65155C81.088 4.45379 81.9064 3.33589 82.8247 2.29784C83.1042 1.93851 83.3637 1.55922 83.6032 1.17993L82.8247 1.47937L79.6706 4.25417C79.1915 4.95286 78.7124 5.63159 78.2533 6.35024C77.4348 7.60788 76.796 8.9853 76.3768 10.4226C76.0375 11.9398 75.8378 13.4769 75.7979 15.014L75.9975 19.2061L76.4367 21.5817C75.8179 22.0209 75.199 22.4201 74.6401 22.8593C74.1809 23.1986 73.8815 23.6977 73.7817 24.2766C73.622 25.2348 73.2826 26.1731 73.5621 27.1712C73.7218 27.7102 73.7018 28.2691 73.8016 28.8281C74.161 31.0439 75.2988 32.8805 76.6962 34.5773C76.9358 34.8368 77.2152 35.0764 77.4947 35.296L77.5945 34.7769C76.4966 33.0202 75.5783 31.1637 75.0593 29.1675C74.7399 27.9497 74.4604 26.7121 74.7798 25.3945C75.0593 24.1768 75.5783 23.2186 76.5565 22.4001C76.6563 22.5399 76.7761 22.6397 76.796 22.7595C77.0955 24.596 77.894 26.233 78.6725 27.9098C78.8721 28.329 79.0518 28.7482 79.2315 29.1675C79.451 29.6266 79.7305 30.0857 79.9102 30.5648C80.1298 31.2236 80.7087 31.7027 81.4074 31.7826Z" fill="#56121D"/>
<path d="M79.2314 29.1675C79.0517 28.7482 78.8721 28.329 78.6724 27.9098C77.8939 26.2529 77.0954 24.596 76.796 22.7595C76.776 22.6397 76.6562 22.5399 76.5564 22.4001C75.5982 23.1986 75.0592 24.1768 74.7797 25.3945C74.4603 26.7121 74.7598 27.9497 75.0592 29.1675C75.5782 31.1637 76.5165 33.0202 77.5945 34.7769C77.9738 34.4575 77.7342 34.0982 77.6943 33.7189C77.5346 31.9822 77.8141 30.3652 79.2314 29.1675Z" fill="#56121D"/>
<path d="M104.684 73.085C105.602 75.6202 104.344 77.6963 102.947 78.6146C102.408 78.974 101.769 79.1736 101.17 79.4331C99.8927 79.5329 98.655 79.3932 97.577 78.6146C96.4391 77.7762 95.7205 76.6982 95.6007 75.1811L97.8365 74.6421C98.0761 76.0395 98.7149 76.9977 100.232 77.0376C101.11 77.1773 101.989 76.6982 102.348 75.8798C102.807 74.9615 102.648 74.0632 101.949 73.3245C101.51 72.8854 101.031 72.4662 100.531 72.0869C99.6531 71.3882 98.7348 70.7294 97.8565 70.0507C97.2177 69.2322 96.8783 68.3339 96.9981 67.2958C97.577 65.6789 98.7348 64.9203 100.432 64.8804C102.148 65.3595 102.887 66.2179 102.907 67.8149L102.448 67.8947L101.15 67.8149C101.11 67.6352 101.031 67.4356 100.971 67.2559C100.811 66.8167 100.312 66.5772 99.8727 66.7369C99.8527 66.7369 99.8527 66.7369 99.8328 66.7569C99.0542 67.0164 98.7947 67.8149 99.3736 68.3938C99.8527 68.8529 100.392 69.2522 100.971 69.5716C102.089 70.2104 103.127 70.9889 104.025 71.8872L104.444 72.4662L104.684 73.085Z" fill="white"/>
<path d="M84.0624 41.2248C83.9226 41.2647 83.703 41.3845 83.6432 41.3246C82.2857 40.3664 81.0879 39.2685 80.4691 37.6714C80.2296 36.9927 80.1697 36.2541 80.3094 35.5355C80.4891 34.4575 80.8085 33.3795 81.048 32.3215C81.068 32.1618 81.068 32.0021 81.048 31.8424L80.1697 31.2834L79.0717 29.3471C78.8921 28.7881 78.6924 28.2292 78.4329 27.7101C77.7542 26.3926 77.1952 25.0351 76.776 23.6178C76.5964 23.0788 76.4367 22.5398 76.257 21.9809L76.0574 20.5835C75.9975 20.0245 75.9176 19.4855 75.8577 18.9266C75.7779 17.9484 75.718 16.9703 75.6382 15.9721C75.5982 14.4749 75.738 12.9977 76.0574 11.5205C76.1173 11.261 76.1771 11.0214 76.237 10.7819C76.6163 9.38449 77.1553 8.047 77.834 6.78936C77.9937 6.46996 78.1135 6.13059 78.2533 5.79123C78.5327 5.47183 78.8122 5.17239 79.0717 4.85299C79.6706 4.17426 80.2495 3.47557 80.8284 2.79684C81.6669 2.23789 82.5053 1.6989 83.3238 1.13995C83.5433 1.00021 83.7829 0.860474 84.0025 1.11999C84.242 1.51924 84.5016 1.89853 84.781 2.25785C85.6993 3.29591 86.5178 4.41381 87.2165 5.61157C88.6138 8.12685 88.9931 10.8817 89.1528 13.6764C89.2327 15.0738 88.8734 16.4912 88.8135 17.8885C88.7536 19.765 88.534 21.6215 88.1946 23.4581C87.8353 25.3545 87.456 27.251 86.8372 29.0875C86.5377 29.9459 86.398 30.8642 86.1984 31.7426V31.7226L85.9987 31.9023C84.9807 31.9821 83.9626 32.0819 82.9445 32.1019C82.4055 32.1219 81.8465 31.9622 81.2077 31.8823C81.1279 34.3177 81.9064 36.294 83.6831 37.891C84.9008 36.7931 85.6993 35.3159 85.9788 33.7189C86.0187 33.5791 86.0986 33.4394 86.1784 33.2996C86.2782 33.5392 86.3381 33.7987 86.378 34.0582C86.5178 36.1743 86.2383 38.1705 84.781 39.8673C84.5415 40.2865 84.0424 40.6259 84.0624 41.2248ZM80.8684 12.0794C80.8684 13.5766 82.106 14.7943 83.6032 14.7943C83.6432 14.7943 83.6631 14.7943 83.703 14.7943C85.2002 14.7744 86.418 13.5567 86.4379 12.0595C86.4379 10.5224 85.1803 9.36453 83.5833 9.38449C82.0262 9.40445 80.8484 10.5623 80.8684 12.0794ZM83.6032 20.7632C84.6014 20.7831 85.4997 19.9447 85.5196 19.0064C85.5396 18.0083 84.6613 17.13 83.6032 17.13C82.6051 17.1499 81.7866 17.9484 81.7267 18.9466C81.7267 19.8848 82.6051 20.7432 83.6032 20.7632Z" fill="#7E0119"/>
<path d="M86.2583 31.7826C86.4579 30.8842 86.6176 29.9859 86.8971 29.1275C87.5159 27.291 87.8952 25.3945 88.2546 23.4981C88.6139 21.6615 88.8135 19.785 88.8734 17.9285C88.9333 16.5112 89.2926 15.1138 89.2128 13.7164C89.0531 10.9217 88.6738 8.16683 87.2764 5.65155C86.5777 4.45379 85.7592 3.33589 84.8409 2.29784C84.5615 1.93851 84.302 1.55922 84.0624 1.17993L84.8409 1.47937L87.995 4.25417C88.4741 4.95286 88.9532 5.63159 89.4124 6.35024C90.2309 7.60788 90.8697 8.9853 91.2889 10.4226C91.6282 11.9398 91.8279 13.4769 91.8678 15.014L91.6682 19.2061L91.229 21.5817C91.8478 22.0209 92.4667 22.4201 93.0256 22.8593C93.4848 23.1986 93.7842 23.6977 93.884 24.2766C94.0437 25.2348 94.3831 26.1731 94.1036 27.1712C93.9439 27.7102 93.9639 28.2691 93.864 28.8281C93.5047 31.0439 92.3669 32.8805 90.9695 34.5773C90.7299 34.8368 90.4504 35.0764 90.171 35.296L90.0712 34.7769C91.1691 33.0202 92.0874 31.1637 92.6064 29.1675C92.9258 27.9497 93.2053 26.7121 92.8859 25.3945C92.6064 24.1768 92.0874 23.2186 91.1092 22.4001C91.0094 22.5399 90.8896 22.6397 90.8697 22.7595C90.5702 24.596 89.7717 26.233 88.9932 27.9098C88.7935 28.329 88.6139 28.7482 88.4342 29.1675C88.2146 29.6266 87.9352 30.0857 87.7555 30.5648C87.5559 31.2236 86.957 31.7027 86.2583 31.7826Z" fill="#D90133"/>
<path d="M75.4984 43.181C75.5982 43.161 75.6781 43.1211 75.7779 43.0812C76.6962 42.622 77.1952 42.7019 77.8739 43.4605C78.0736 43.6801 78.2333 43.9196 78.4728 44.219C79.3911 43.161 80.4691 42.642 81.8864 42.8816C83.3038 43.1211 84.0623 44.0394 84.5215 45.3569C85.6993 41.9633 87.6157 41.3444 91.2089 43.1411C91.2089 42.4424 91.169 41.7636 91.2089 41.065C91.4685 37.5116 94.383 35.695 97.7167 36.9926C97.8365 37.0325 97.9563 37.0724 98.116 37.1323C98.136 36.7131 98.1959 36.3538 98.1959 35.9945C98.1759 34.9564 98.7548 34.2777 99.6132 33.8984C100.472 33.5191 101.29 33.7387 102.069 34.4574C100.751 40.9053 97.5171 46.0356 91.3088 48.6507C84.0623 51.705 77.1952 50.667 71.0268 45.7362C67.174 42.662 64.0598 36.4137 64.7585 33.3394C65.8365 33.2596 66.4953 33.9982 67.154 34.657C67.8128 35.3157 68.4117 36.1142 68.5115 37.1723C68.6712 37.0924 68.791 37.0325 68.8908 36.9726C71.6057 35.5154 74.6999 36.773 75.5184 39.7674C75.718 40.5459 75.5783 41.4043 75.5783 42.2228C75.5583 42.5222 75.4984 42.8217 75.4185 43.1011L75.3387 43.3008L75.4984 43.181Z" fill="white"/>
<path d="M88.4542 29.1675C88.6338 28.7482 88.8135 28.329 89.0131 27.9098C89.7917 26.2529 90.5902 24.596 90.8896 22.7595C90.9096 22.6397 91.0294 22.5399 91.1292 22.4001C92.0874 23.1986 92.6264 24.1768 92.9058 25.3945C93.2252 26.7121 92.9258 27.9497 92.6264 29.1675C92.1073 31.1637 91.1691 33.0202 90.0911 34.7769C89.7118 34.4575 89.9514 34.0982 89.9913 33.7189C90.131 31.9822 89.8516 30.3652 88.4542 29.1675Z" fill="#7E0119"/>
<path d="M84.0623 41.2248C84.0424 40.6259 84.5414 40.2866 84.8608 39.9073C86.3181 38.2105 86.5976 36.2142 86.4578 34.0982C86.4179 33.8387 86.358 33.5791 86.2582 33.3396V32.2616L86.4578 32.2217C86.6175 32.7806 86.7573 33.3196 86.9369 33.8586C87.1565 34.6571 87.2763 35.4756 87.2962 36.2941C87.3761 37.2523 87.0767 38.2304 86.4379 38.969C85.7392 39.8274 85.0405 40.6858 84.0623 41.2248Z" fill="#D90133"/>
<path d="M86.0786 31.9621L86.2783 31.7825L86.0786 31.9621Z" fill="#D90133"/>
<path d="M80.8684 12.0795C80.8684 10.5623 82.0262 9.40449 83.5833 9.38453C85.1803 9.36457 86.438 10.5224 86.438 12.0595C86.418 13.5567 85.2202 14.7744 83.7231 14.7944C82.2259 14.8543 80.9483 13.6964 80.8884 12.1993C80.8684 12.1593 80.8684 12.1194 80.8684 12.0795Z" fill="#FAFAFA"/>
<path d="M83.6033 20.7631C82.6051 20.7431 81.7268 19.8847 81.7467 18.9465C81.7867 17.9483 82.6051 17.1498 83.6232 17.1299C84.6812 17.1299 85.5596 18.0082 85.5396 19.0064C85.5197 19.9446 84.6014 20.783 83.6033 20.7631Z" fill="#FAFAFA"/>
<path d="M105.323 8.64595C106.081 8.68588 106.84 8.74576 107.618 8.74576C120.255 8.74576 132.911 8.74576 145.567 8.7258C147.164 8.7258 148.781 8.62599 150.378 8.64595C151.975 8.66591 153.392 9.2049 154.251 10.8818V13.0377C153.333 14.5349 151.975 15.0939 150.238 15.0939C135.366 15.0739 120.494 15.0739 105.622 15.0739C105.382 15.0739 105.123 15.0939 104.684 15.1138L106.9 18.7071C107.159 18.727 107.399 18.747 107.658 18.747C117.779 18.747 127.88 18.747 138.001 18.767C138.76 18.747 139.518 18.8668 140.237 19.1263C141.555 19.5854 142.373 20.883 142.233 22.2804C142.133 23.4582 141.036 24.6759 139.718 24.9953C139.159 25.1151 138.6 25.175 138.021 25.175C128.838 25.175 119.636 25.175 110.453 25.175H109.195L109.654 28.6484C110.593 28.9878 111.591 28.7882 112.569 28.8081C114.306 28.8081 116.042 28.8081 117.779 28.8081C118.578 28.8081 119.376 28.7483 120.175 28.7483C121.333 28.7682 122.51 28.8281 123.668 28.8281C124.886 28.8481 126.104 28.8081 127.321 28.8481C128.02 28.868 128.719 28.9678 129.437 29.0277L130.236 29.2673C130.296 29.3671 130.316 29.4869 130.396 29.5468C131.454 30.2654 131.913 31.3234 131.673 32.5012C131.414 33.8587 130.455 34.737 129.098 35.0764C128.659 35.1762 128.2 35.2361 127.74 35.2361C121.891 35.2561 116.062 35.2561 110.213 35.2561C109.934 35.2561 109.654 35.276 109.355 35.296L108.497 38.7096C108.716 38.7495 108.956 38.7695 109.195 38.7894C110.792 38.7894 112.389 38.7695 113.986 38.7894C115.464 38.8094 116.881 39.8474 117.28 41.1849C117.659 42.243 117.34 43.4207 116.482 44.1394C115.743 44.8381 114.765 45.1974 113.767 45.1974C111.251 45.1775 108.756 45.1974 106.241 45.1974H105.562C100.112 52.7832 92.9457 57.155 83.4435 57.175C73.9414 57.1949 66.7948 52.8032 61.1853 45.1775H59.728C57.592 45.1775 55.456 45.1974 53.32 45.1775C52.2421 45.1974 51.224 44.7383 50.5452 43.8998C48.9482 41.9236 50.2059 39.6478 52.282 38.9891C52.8409 38.8493 53.3999 38.7894 53.9588 38.8094C55.3562 38.7894 56.7336 38.8094 58.2508 38.8094L57.3924 35.3159C57.093 35.296 56.7736 35.2561 56.4342 35.2561C51.3038 35.2561 46.1734 35.276 41.0431 35.2361C40.2246 35.2161 39.4261 34.9965 38.7074 34.6173C37.5296 33.9984 36.9507 32.9204 37.1703 31.543C37.3699 30.2654 38.2283 29.4669 39.3862 29.0677C40.005 28.868 40.6638 28.7682 41.3026 28.7882C46.2533 28.7682 51.224 28.7682 56.1747 28.7682H57.093L57.5721 25.2149H56.5739C47.7904 25.2149 39.0069 25.2149 30.2433 25.2149C29.5646 25.2348 28.8858 25.175 28.2271 24.9953C26.5502 24.4763 25.612 23.0589 25.8515 21.6216C26.111 20.0246 27.5084 18.8468 29.2452 18.8468C32.1198 18.8269 34.9944 18.8269 37.889 18.8269H59.8478L62.0636 15.2536C61.6245 15.2136 61.325 15.1737 61.0056 15.1737C51.5434 15.1737 42.0811 15.1737 32.6188 15.1737C27.229 15.1737 21.8391 15.1537 16.4691 15.1937C15.0518 15.1937 13.9538 14.6148 13.2152 13.4969C12.4167 12.2991 12.7162 10.3028 14.3331 9.3646C15.0917 8.92543 15.9102 8.80565 16.7885 8.80565C27.5084 8.82561 38.2084 8.84558 48.9283 8.84558C55.2764 8.84558 61.6444 8.82561 67.9925 8.84558C68.7311 8.84558 69.4697 8.94539 70.1684 9.12505C71.486 9.46442 72.2845 10.3827 72.4042 11.7401C72.524 12.9379 71.9651 13.9161 70.947 14.5349C68.6513 15.9123 67.0942 17.9485 65.7367 20.1843C64.1797 22.7794 63.2215 25.694 62.922 28.6884C62.5228 32.3415 63.1416 35.815 64.5789 39.1887C65.9563 42.4027 68.1323 45.1974 70.9071 47.3134C73.3425 49.2099 76.1971 50.4875 79.2314 51.0864C84.9407 52.2043 90.2109 51.1463 95.0218 47.9123C98.0561 45.8961 100.472 43.0814 101.989 39.7876C105.522 32.3415 104.344 23.5181 98.9744 17.2498C98.0761 16.2317 97.078 15.2935 96 14.4551C95.0218 13.6566 94.6625 12.6984 94.8222 11.5206C94.9819 10.3428 95.7405 9.62412 96.7586 9.22487C97.4573 8.98531 98.1759 8.86554 98.9145 8.84558C100.472 8.78569 102.049 8.82561 103.626 8.82561C103.825 8.80565 104.005 8.76573 104.185 8.70584L105.323 8.64595Z" fill="#C9C0A5"/>
<path d="M7.34623 64.8008C3.29382 64.8008 0 68.0946 0 72.167C0 76.2393 3.29382 79.5132 7.34623 79.5132C11.3986 79.5132 14.6925 76.2194 14.6925 72.167C14.6925 68.1146 11.4186 64.8008 7.34623 64.8008C7.36619 64.8008 7.36619 64.8008 7.34623 64.8008ZM7.34623 77.1376C4.59139 77.1376 2.35558 74.9018 2.35558 72.147C2.35558 69.3922 4.59139 67.1564 7.34623 67.1564C10.1011 67.1564 12.3369 69.3922 12.3369 72.147C12.3568 74.9218 10.121 77.1376 7.34623 77.1376C7.36619 77.1376 7.36619 77.1376 7.34623 77.1376Z" fill="white"/>
<path d="M61.4848 64.8008C57.4124 64.8008 54.1385 68.0946 54.1385 72.167C54.1385 76.2393 57.4324 79.5132 61.4848 79.5132C65.5372 79.5132 68.851 76.2194 68.851 72.167C68.851 68.1146 65.5571 64.8008 61.4848 64.8008ZM61.4848 77.1376C58.7299 77.1376 56.4941 74.9018 56.4941 72.147C56.4941 69.3922 58.7299 67.1564 61.4848 67.1564C64.2396 67.1564 66.4754 69.3922 66.4754 72.147C66.4754 74.9218 64.2396 77.1376 61.4848 77.1376Z" fill="white"/>
<path d="M76.836 64.8008C72.7636 64.8008 69.4897 68.0946 69.4897 72.167C69.4897 76.2393 72.7836 79.5132 76.836 79.5132C80.8884 79.5132 84.2022 76.2194 84.2022 72.167C84.2022 68.1146 80.8884 64.8008 76.836 64.8008ZM76.836 77.1376C74.0811 77.1376 71.8453 74.9018 71.8453 72.147C71.8453 69.3922 74.0811 67.1564 76.836 67.1564C79.5908 67.1564 81.8266 69.3922 81.8266 72.147C81.8266 74.9218 79.5908 77.1376 76.836 77.1376Z" fill="white"/>
<path d="M142.792 64.8008C138.72 64.8008 135.426 68.0946 135.426 72.147C135.426 76.1994 138.72 79.5132 142.772 79.5132C146.845 79.5132 150.138 76.2194 150.138 72.167C150.158 68.0946 146.865 64.8008 142.792 64.8008ZM142.792 77.1376C140.037 77.1376 137.802 74.9018 137.802 72.147C137.802 69.3922 140.037 67.1564 142.792 67.1564C145.547 67.1564 147.783 69.3922 147.783 72.147C147.783 74.9018 145.567 77.1376 142.792 77.1376Z" fill="white"/>
</g>
<defs>
<clipPath id="clip0">
<rect width="160" height="80" fill="white"/>
</clipPath>
</defs>
</svg>
