<svg width="160" height="80" viewBox="0 0 160 80" fill="none" xmlns="http://www.w3.org/2000/svg">
<path d="M99.3444 53.9749C97.1444 53.9749 95.0444 53.9749 92.7444 53.9749C92.7444 47.7749 92.7444 41.4749 92.7444 35.2749C92.6444 35.2749 92.6444 35.2749 92.5444 35.2749C91.9444 36.9749 91.3444 38.6749 90.8444 40.3749C89.3444 44.6749 87.9444 48.9749 86.4444 53.1749C86.2444 53.8749 85.9444 54.075 85.2444 54.075C83.9444 53.975 82.6444 53.975 81.3444 54.075C80.6444 54.075 80.3444 53.8749 80.0444 53.1749C78.1444 47.5749 76.1444 41.9749 74.1444 36.3749C74.0444 35.9749 73.8444 35.5749 73.5444 35.2749C73.5444 41.4749 73.5444 47.6749 73.5444 53.9749C71.2444 53.9749 69.0444 53.9749 66.7444 53.9749C66.7444 44.5749 66.7444 35.175 66.7444 25.575C67.7444 25.575 68.6444 25.575 69.5444 25.575C71.6444 25.575 73.7444 25.575 75.8444 25.575C76.5444 25.575 76.8444 25.7749 77.0444 26.4749C78.9444 32.1749 80.9444 37.875 82.9444 43.575C83.0444 43.875 83.1444 44.1749 83.3444 44.7749C85.5444 38.2749 87.7444 31.9749 89.8444 25.6749C93.0444 25.6749 96.1444 25.6749 99.2444 25.6749C99.3444 35.1749 99.3444 44.5749 99.3444 53.9749Z" fill="white"/>
<path d="M64.1444 40.075C64.1444 42.075 64.1444 44.075 64.1444 45.975C64.1444 49.275 62.5444 51.575 59.5444 52.875C56.0444 54.375 52.3444 54.775 48.6444 54.375C46.5444 54.175 44.3444 53.775 42.3444 53.175C38.8444 52.075 37.1444 49.475 37.0444 45.775C36.9444 41.975 37.0444 38.075 37.0444 34.275C37.0444 30.775 38.9444 27.775 42.2444 26.575C47.8444 24.475 53.5444 24.475 59.1444 26.575C62.4444 27.775 64.1444 30.475 64.1444 33.975C64.1444 36.075 64.1444 38.075 64.1444 40.075ZM44.5444 39.975C44.5444 41.875 44.5444 43.875 44.5444 45.775C44.5444 47.475 45.1444 48.175 46.7444 48.575C49.3444 49.175 51.9444 49.175 54.6444 48.575C56.3444 48.175 56.8444 47.375 56.8444 45.775C56.8444 41.875 56.8444 37.975 56.8444 34.075C56.8444 32.275 56.2444 31.375 54.5444 30.975C51.9444 30.275 49.3444 30.275 46.8444 30.975C45.2444 31.375 44.6444 32.275 44.6444 33.975C44.5444 36.075 44.5444 38.075 44.5444 39.975Z" fill="white"/>
<path d="M102.644 25.675C105.044 25.675 107.444 25.675 109.844 25.675C109.844 35.075 109.844 44.4751 109.844 53.9751C107.444 53.9751 105.144 53.9751 102.644 53.9751C102.644 44.5751 102.644 35.175 102.644 25.675Z" fill="white"/>
<path d="M114.444 26.375H113.044V25.375H116.944V26.375H115.544C115.544 26.375 115.544 28.875 115.544 30.175C115.144 30.175 114.844 30.175 114.444 30.175C114.444 28.875 114.444 26.375 114.444 26.375Z" fill="white"/>
<path d="M122.844 30.175C122.444 30.175 122.144 30.175 121.744 30.175C121.744 29.175 121.744 28.075 121.744 27.075C121.644 27.375 121.544 27.675 121.444 27.975C121.244 28.675 120.944 29.375 120.744 30.175C120.744 30.275 120.644 30.275 120.544 30.275C120.344 30.275 120.144 30.275 119.844 30.275C119.744 30.275 119.644 30.275 119.644 30.075C119.344 29.175 118.944 28.175 118.644 27.275C118.644 27.175 118.644 27.175 118.544 27.075C118.544 28.075 118.544 29.175 118.544 30.175C118.144 30.175 117.744 30.175 117.444 30.175C117.444 28.575 117.444 26.975 117.444 25.375C117.644 25.375 117.744 25.375 117.944 25.375C118.344 25.375 118.644 25.375 119.044 25.375C119.144 25.375 119.244 25.375 119.244 25.475C119.544 26.475 119.944 27.375 120.244 28.375C120.244 28.475 120.244 28.475 120.344 28.575C120.744 27.475 121.044 26.475 121.444 25.375C121.944 25.375 122.544 25.375 123.044 25.375C122.844 26.975 122.844 28.575 122.844 30.175Z" fill="white"/>
</svg>
