<svg width="160" height="80" viewBox="0 0 160 80" fill="none" xmlns="http://www.w3.org/2000/svg">
<path d="M16.6379 48.0063C16.4057 48.0063 16.1478 47.9299 15.9672 47.7517C13.6969 45.7915 12.4069 42.9913 12.4069 40.0382C12.4069 34.3868 17.0765 29.7791 22.8039 29.7791C28.5312 29.7791 33.2008 34.3868 33.2008 40.0382C33.2008 42.7876 32.1173 45.3588 30.1566 47.2935C29.7438 47.7008 29.0988 47.7008 28.686 47.2935C28.2732 46.8862 28.2732 46.2498 28.686 45.8425C30.2598 44.2896 31.1369 42.2276 31.1369 40.0382C31.1369 35.5069 27.3961 31.8156 22.8039 31.8156C18.2117 31.8156 14.4708 35.4814 14.4708 40.0128C14.4708 42.3803 15.5028 44.646 17.3345 46.1989C17.7731 46.5807 17.7989 47.2171 17.4377 47.6244C17.2055 47.879 16.9217 48.0063 16.6379 48.0063Z" fill="#476AEC"/>
<path d="M31.2659 52.7158C30.9563 52.7158 30.6209 52.5631 30.4404 52.3085C30.105 51.8503 30.2082 51.2139 30.6725 50.8829C34.1296 48.3881 36.1935 44.3914 36.1935 40.1655C36.1935 39.6054 36.6579 39.1472 37.2255 39.1472C37.793 39.1472 38.2574 39.6054 38.2574 40.1655C38.2574 45.0278 35.8839 49.661 31.8851 52.5122C31.7045 52.6395 31.4723 52.7158 31.2659 52.7158Z" fill="#476AEC"/>
<path d="M22.778 55.4142C14.2386 55.4142 7.29871 48.5662 7.29871 40.14C7.29871 31.7137 14.2386 24.8657 22.778 24.8657C26.2609 24.8657 29.5373 25.9858 32.272 28.0733C32.7106 28.4297 32.8138 29.0661 32.4526 29.4989C32.0914 29.9317 31.4465 30.0335 31.0079 29.6771C28.6344 27.8697 25.7965 26.9023 22.778 26.9023C15.3996 26.9023 9.36262 32.8338 9.36262 40.14C9.36262 47.4207 15.3738 53.3776 22.778 53.3776C23.3456 53.3776 23.81 53.8359 23.81 54.3959C23.81 54.956 23.3714 55.4142 22.778 55.4142Z" fill="#476AEC"/>
<path d="M22.5459 60.5057C11.0912 60.5057 1.77777 51.3157 1.77777 39.9873C1.77777 39.4272 2.24215 38.969 2.80973 38.969C3.3773 38.969 3.84168 39.4272 3.84168 39.9873C3.84168 50.1701 12.2263 58.4436 22.5459 58.4436C26.9317 58.4436 31.1885 56.9162 34.5424 54.1414C34.9809 53.785 35.6259 53.8359 35.9871 54.2687C36.3483 54.7015 36.2967 55.3379 35.8581 55.6943C32.1431 58.8 27.4219 60.5057 22.5459 60.5057Z" fill="#476AEC"/>
<path d="M42.3079 41.0056C41.7403 41.0056 41.2759 40.5474 41.2759 39.9873C41.2759 29.8045 32.8913 21.5309 22.5717 21.5309C20.9722 21.5309 19.3726 21.7346 17.8505 22.1165C17.3087 22.2692 16.7412 21.9383 16.5864 21.3782C16.4316 20.8436 16.767 20.2836 17.3345 20.1308C19.0115 19.7235 20.7658 19.4944 22.5459 19.4944C34.0006 19.4944 43.314 28.6844 43.314 39.9873C43.3398 40.5728 42.8754 41.0056 42.3079 41.0056Z" fill="#476AEC"/>
<path d="M58.3805 48.159C56.0328 48.159 54.0721 47.4208 52.5499 45.9188C51.002 44.4168 50.2538 42.5076 50.2538 40.191C50.2538 37.8744 51.0278 35.9651 52.5499 34.4631C54.0979 32.9612 56.0328 32.2229 58.3805 32.2229C60.754 32.2229 62.7147 32.9612 64.2368 34.4631C65.7848 35.9651 66.5329 37.8744 66.5329 40.191C66.5329 42.5076 65.759 44.4168 64.2368 45.9188C62.7147 47.3953 60.754 48.159 58.3805 48.159ZM54.9492 43.8059C55.8264 44.7732 56.9616 45.2315 58.3805 45.2315C59.7994 45.2315 60.9346 44.7478 61.8117 43.8059C62.6889 42.864 63.1275 41.642 63.1275 40.191C63.1275 38.7399 62.6889 37.518 61.8117 36.5761C60.9346 35.6341 59.7994 35.1505 58.3805 35.1505C56.9616 35.1505 55.8264 35.6341 54.9492 36.5761C54.0721 37.5434 53.6593 38.7399 53.6593 40.191C53.6593 41.642 54.0979 42.864 54.9492 43.8059Z" fill="white"/>
<path d="M79.4324 47.8789H76.4655V41.1328C76.4655 39.7581 75.769 39.0454 74.3758 39.0454C73.2923 39.0454 72.4409 39.4781 71.7959 40.3691V47.8789H68.8291V36.7288H71.7959V38.1798C72.7763 37.0342 74.092 36.4487 75.7432 36.4487C76.9557 36.4487 77.8845 36.7542 78.5037 37.3906C79.1228 38.0271 79.4324 38.8926 79.4324 39.9873V47.8789Z" fill="white"/>
<path d="M87.6881 48.159C85.9337 48.159 84.489 47.6244 83.3539 46.5297C82.2187 45.4605 81.6511 44.0349 81.6511 42.2784C81.6511 40.6237 82.1929 39.249 83.3023 38.1289C84.4116 37.0088 85.8047 36.4487 87.5075 36.4487C89.1844 36.4487 90.5517 37.0088 91.6095 38.1544C92.6672 39.2745 93.1832 40.7764 93.1832 42.6093V43.2458H84.7728C84.876 43.984 85.2114 44.595 85.7789 45.1041C86.3465 45.5878 87.0947 45.8424 88.0234 45.8424C88.5136 45.8424 89.0554 45.7406 89.6488 45.5369C90.2422 45.3332 90.7065 45.0787 91.0419 44.7223L92.3577 46.6061C91.1967 47.6498 89.6488 48.159 87.6881 48.159ZM90.2937 41.2601C90.2422 40.6237 89.9842 40.0636 89.5456 39.5545C89.0812 39.0454 88.4104 38.7908 87.5333 38.7908C86.6819 38.7908 86.0369 39.0453 85.5725 39.529C85.1082 40.0382 84.8244 40.5982 84.747 41.2601H90.2937Z" fill="white"/>
<path d="M102.342 47.8791H98.988V35.3542H94.4216V32.4775H106.882V35.3542H102.342V47.8791Z" fill="white"/>
<path d="M118.544 46.4534C117.46 47.5735 115.989 48.159 114.184 48.159C112.378 48.159 110.933 47.5989 109.849 46.4534C108.766 45.3332 108.224 43.9331 108.224 42.2784C108.224 40.6237 108.766 39.249 109.849 38.1289C110.933 37.0088 112.378 36.4487 114.184 36.4487C115.989 36.4487 117.434 37.0088 118.544 38.1289C119.627 39.249 120.169 40.6491 120.169 42.2784C120.169 43.9331 119.627 45.3332 118.544 46.4534ZM112.068 44.6204C112.584 45.2314 113.281 45.5624 114.184 45.5624C115.086 45.5624 115.783 45.2569 116.299 44.6204C116.815 44.0095 117.073 43.2203 117.073 42.3039C117.073 41.3874 116.815 40.6237 116.299 40.0127C115.783 39.4017 115.061 39.0708 114.184 39.0708C113.306 39.0708 112.584 39.3763 112.068 40.0127C111.552 40.6237 111.294 41.4129 111.294 42.3039C111.294 43.2203 111.552 43.984 112.068 44.6204Z" fill="white"/>
<path d="M132.965 47.8791H129.998V46.4789C128.992 47.599 127.651 48.1591 126.025 48.1591C124.813 48.1591 123.884 47.8536 123.291 47.2427C122.671 46.6317 122.388 45.7661 122.388 44.646V36.7289H125.354V43.5005C125.354 44.8751 126.051 45.5625 127.444 45.5625C128.502 45.5625 129.353 45.1297 130.024 44.2896V36.7289H132.991V47.8791H132.965Z" fill="white"/>
<path d="M141.195 48.1592C139.441 48.1592 138.022 47.6246 136.887 46.5299C135.751 45.4352 135.21 44.0351 135.21 42.304C135.21 40.5984 135.777 39.1983 136.887 38.1036C138.022 37.009 139.441 36.4744 141.195 36.4744C143.181 36.4744 144.678 37.1362 145.658 38.4855L143.723 40.2929C143.181 39.5038 142.382 39.0964 141.324 39.0964C140.421 39.0964 139.673 39.4019 139.105 39.9874C138.538 40.573 138.254 41.3621 138.254 42.3295C138.254 43.2969 138.538 44.086 139.105 44.697C139.673 45.308 140.421 45.588 141.324 45.588C142.33 45.588 143.13 45.1807 143.723 44.3915L145.658 46.1735C144.678 47.4718 143.181 48.1592 141.195 48.1592Z" fill="white"/>
<path d="M158.222 47.8791H155.255V41.082C155.255 40.3438 155.075 39.8092 154.714 39.5037C154.352 39.1982 153.836 39.0455 153.14 39.0455C152.082 39.0455 151.231 39.4782 150.56 40.3692V47.8791H147.593V32.4775H150.56V38.1799C150.973 37.6962 151.514 37.2889 152.211 36.958C152.908 36.627 153.682 36.4488 154.533 36.4488C155.745 36.4488 156.674 36.7543 157.293 37.3653C157.913 37.9763 158.222 38.8418 158.222 39.9619V47.8791Z" fill="white"/>
<path d="M50.4603 55.7707H49.8153V52.2067H51.4148C51.776 52.2067 52.0598 52.3085 52.2662 52.5376C52.4726 52.7413 52.5758 53.0213 52.5758 53.3268C52.5758 53.6323 52.4726 53.9123 52.2662 54.1159C52.0598 54.3196 51.776 54.4469 51.4148 54.4469H50.4603V55.7707ZM51.3374 53.8868C51.518 53.8868 51.6728 53.8359 51.776 53.7341C51.8792 53.6323 51.9566 53.505 51.9566 53.3268C51.9566 53.1486 51.905 53.0213 51.776 52.9195C51.6728 52.8176 51.518 52.7667 51.3374 52.7667H50.4603V53.9123H51.3374V53.8868Z" fill="#ABABAB"/>
<path d="M56.7552 55.7707H56.0328L55.233 54.4469H54.6139V55.7707H53.9689V52.2067H55.5684C55.9296 52.2067 56.2134 52.3085 56.4198 52.5121C56.6262 52.7158 56.7552 52.9958 56.7552 53.3268C56.7552 53.6323 56.6778 53.8614 56.4972 54.0396C56.3424 54.2178 56.136 54.3196 55.878 54.3705L56.7552 55.7707ZM55.4652 53.8868C55.6458 53.8868 55.8006 53.8359 55.9038 53.7341C56.007 53.6323 56.0844 53.505 56.0844 53.3268C56.0844 53.1486 56.0328 53.0213 55.9038 52.9195C55.8006 52.8176 55.6458 52.7667 55.4652 52.7667H54.5881V53.9123H55.4652V53.8868Z" fill="#ABABAB"/>
<path d="M60.6508 55.7707H58.1741V52.2067H60.6508V52.7667H58.8191V53.6832H60.625V54.2432H58.8191V55.2361H60.6508V55.7707Z" fill="#ABABAB"/>
<path d="M65.888 55.7707H65.243V53.1231L64.1337 55.7707H63.8499L62.7405 53.1231V55.7707H62.1472V52.2067H63.0501L64.0305 54.5487L65.0108 52.2067H65.9138V55.7707H65.888Z" fill="#ABABAB"/>
<path d="M68.1325 55.7707H67.4875V52.2067H68.1325V55.7707Z" fill="#ABABAB"/>
<path d="M71.28 55.8216C70.764 55.8216 70.377 55.6944 70.119 55.4143C69.861 55.1598 69.732 54.8034 69.732 54.3451V52.1813H70.377V54.3197C70.377 54.5997 70.4544 54.8288 70.6092 55.007C70.764 55.1852 70.9962 55.2616 71.3058 55.2616C71.6153 55.2616 71.8217 55.1852 71.9765 55.007C72.1313 54.8288 72.2087 54.5997 72.2087 54.3197V52.1813H72.8537V54.3451C72.8537 54.8034 72.7247 55.1598 72.4667 55.4143C72.2087 55.6689 71.7959 55.8216 71.28 55.8216Z" fill="#ABABAB"/>
<path d="M78.1941 55.7707H77.5491V53.1231L76.4398 55.7707H76.156L75.0466 53.1231V55.7707H74.4016V52.2067H75.3046L76.285 54.5487L77.2653 52.2067H78.1683V55.7707H78.1941Z" fill="#ABABAB"/>
<path d="M85.779 55.7707H85.134V53.1231L84.0246 55.7707H83.7666L82.6573 53.1231V55.7707H82.0123V52.2067H82.9153L83.8956 54.5487L84.876 52.2067H85.779V55.7707Z" fill="#ABABAB"/>
<path d="M90.3969 55.3124C90.0615 55.6688 89.5972 55.8216 89.0812 55.8216C88.5394 55.8216 88.1008 55.6434 87.7654 55.3124C87.43 54.956 87.2495 54.5233 87.2495 53.9887C87.2495 53.4541 87.43 53.0213 87.7654 52.6649C88.1008 52.3085 88.5652 52.1558 89.0812 52.1558C89.6229 52.1558 90.0615 52.334 90.3969 52.6649C90.7323 52.9958 90.9129 53.4541 90.9129 53.9887C90.9129 54.5233 90.7323 54.956 90.3969 55.3124ZM89.0554 55.287C89.4166 55.287 89.7004 55.1597 89.9325 54.9306C90.1647 54.7015 90.2679 54.3705 90.2679 54.0141C90.2679 53.6323 90.1647 53.3268 89.9325 53.0977C89.7004 52.8686 89.4166 52.7413 89.0554 52.7413C88.6942 52.7413 88.4104 52.8686 88.1782 53.0977C87.946 53.3268 87.8428 53.6577 87.8428 54.0141C87.8428 54.3705 87.946 54.7015 88.1782 54.9306C88.4104 55.1597 88.6942 55.287 89.0554 55.287Z" fill="#ABABAB"/>
<path d="M94.1894 55.7707H92.3576V52.2067H94.1378C94.4473 52.2067 94.7053 52.283 94.8859 52.4612C95.0665 52.6394 95.1697 52.8431 95.1697 53.1231C95.1697 53.3268 95.1181 53.505 94.9891 53.6577C94.8601 53.8105 94.7311 53.8868 94.5505 53.9377C94.7569 53.9632 94.9117 54.065 95.0407 54.2432C95.1697 54.4214 95.2471 54.5996 95.2471 54.8287C95.2471 55.1088 95.1439 55.3379 94.9633 55.5161C94.7569 55.6688 94.4989 55.7707 94.1894 55.7707ZM94.0088 53.6832C94.1636 53.6832 94.2926 53.6323 94.3699 53.5559C94.4473 53.4795 94.4989 53.3522 94.4989 53.2249C94.4989 53.0977 94.4473 52.9704 94.3699 52.894C94.2668 52.8176 94.1636 52.7667 94.0088 52.7667H93.0026V53.6832H94.0088ZM94.0346 55.2106C94.2152 55.2106 94.3442 55.1597 94.4473 55.0833C94.5505 55.0069 94.6021 54.8797 94.6021 54.7269C94.6021 54.5996 94.5505 54.4723 94.4473 54.3705C94.3442 54.2687 94.2152 54.2178 94.0346 54.2178H93.0026V55.2106H94.0346Z" fill="#ABABAB"/>
<path d="M97.3368 55.7707H96.6919V52.2067H97.3368V55.7707Z" fill="#ABABAB"/>
<path d="M101.155 55.7707H98.9364V52.2067H99.5813V55.2106H101.181V55.7707H101.155Z" fill="#ABABAB"/>
<path d="M105.025 55.7707H102.548V52.2067H105.025V52.7667H103.193V53.6832H104.999V54.2432H103.193V55.2361H105.025V55.7707Z" fill="#ABABAB"/>
<path d="M110.468 55.8471C109.927 55.8471 109.488 55.6689 109.127 55.338C108.766 55.007 108.585 54.5488 108.585 54.0142C108.585 53.4541 108.766 53.0214 109.127 52.6904C109.488 52.3595 109.953 52.1813 110.468 52.1813C111.088 52.1813 111.578 52.4358 111.913 52.9195L111.397 53.1996C111.294 53.0723 111.165 52.945 111.01 52.8686C110.855 52.7922 110.675 52.7413 110.468 52.7413C110.107 52.7413 109.824 52.8686 109.566 53.0977C109.333 53.3523 109.204 53.6578 109.204 54.0142C109.204 54.3706 109.333 54.7015 109.566 54.9306C109.798 55.1852 110.107 55.287 110.468 55.287C110.649 55.287 110.804 55.2616 110.959 55.1852C111.113 55.1088 111.242 55.0579 111.32 54.9561V54.396H110.236V53.8614H111.939V55.1852C111.552 55.618 111.062 55.8471 110.468 55.8471Z" fill="#ABABAB"/>
<path d="M116.686 55.7707H115.964L115.706 55.0833H114.055L113.797 55.7707H113.074L114.493 52.2067H115.293L116.686 55.7707ZM115.525 54.5233L114.88 52.8176L114.235 54.5233H115.525Z" fill="#ABABAB"/>
<path d="M121.665 55.7707H121.02V53.1231L119.911 55.7707H119.653L118.544 53.1231V55.7707H117.899V52.2067H118.802L119.782 54.5487L120.762 52.2067H121.665V55.7707Z" fill="#ABABAB"/>
<path d="M125.741 55.7707H123.265V52.2067H125.741V52.7667H123.91V53.6832H125.716V54.2432H123.91V55.2361H125.741V55.7707Z" fill="#ABABAB"/>
<path d="M128.45 55.8216C127.831 55.8216 127.341 55.6434 126.98 55.2616L127.341 54.7779C127.651 55.1088 128.037 55.2616 128.476 55.2616C128.708 55.2616 128.889 55.2107 129.018 55.1088C129.147 55.007 129.198 54.9052 129.198 54.7779C129.198 54.6506 129.121 54.5233 128.992 54.447C128.837 54.3706 128.682 54.2942 128.476 54.2688C128.27 54.2178 128.063 54.1669 127.857 54.0906C127.651 54.0142 127.47 53.9124 127.341 53.7596C127.186 53.6069 127.135 53.4032 127.135 53.1741C127.135 52.8686 127.264 52.6141 127.496 52.4359C127.728 52.2322 128.063 52.1304 128.45 52.1304C129.018 52.1304 129.456 52.3086 129.792 52.6395L129.431 53.0977C129.147 52.8177 128.811 52.6904 128.373 52.6904C128.192 52.6904 128.037 52.7413 127.934 52.8177C127.831 52.8941 127.78 52.9959 127.78 53.1487C127.78 53.2505 127.831 53.3014 127.908 53.3778C127.986 53.4287 128.089 53.4796 128.218 53.5305C128.347 53.556 128.476 53.6069 128.631 53.6323C128.786 53.6578 128.94 53.7087 129.069 53.7596C129.224 53.8105 129.353 53.8869 129.482 53.9378C129.611 54.0142 129.714 54.116 129.792 54.2433C129.869 54.3706 129.921 54.5233 129.921 54.7015C129.921 55.0325 129.792 55.287 129.56 55.4907C129.327 55.6944 128.915 55.8216 128.45 55.8216Z" fill="#ABABAB"/>
</svg>
