<svg width="160" height="80" viewBox="0 0 160 80" fill="none" xmlns="http://www.w3.org/2000/svg">
<path d="M2.43266 34.0161C3.84389 28.0126 8.60676 23.668 14.7221 22.8386C20.4846 22.0684 26.4039 25.1294 29.2655 30.3626C33.7736 38.6174 28.6383 49.1037 19.2105 50.8811C11.586 52.3227 4.25549 47.5436 2.47186 39.9603C2.00138 38.0642 2.02401 35.9375 2.43266 34.0161ZM16.4469 44.7394C20.5434 44.7591 24.0714 41.1847 24.1106 36.9586C24.1498 32.8114 20.6414 29.1383 16.6233 29.1185C12.468 29.0988 8.90077 32.7127 8.92037 36.9388C8.92037 41.1254 12.4092 44.7394 16.4469 44.7394Z" fill="url(#paint0_linear)"/>
<path d="M85.1068 57.7737C85.1068 49.0647 85.1068 40.3557 85.1264 31.627C85.1264 30.0274 85.146 30.0274 86.7532 29.8891C87.8313 29.7904 88.8897 29.6719 89.9677 29.5337C90.7125 29.4349 91.0653 29.6917 91.0261 30.5013C90.9869 31.2518 91.0261 31.9825 91.0261 32.9896C91.6925 32.1009 92.2021 31.4295 92.8881 30.9358C95.4558 29.0597 98.1998 29.0992 100.963 30.3236C105.158 32.1602 107.706 37.1762 107.059 42.0936C106.491 46.3197 102.629 50.3681 98.3566 51C95.887 51.3752 93.4565 51.1777 91.4377 48.9659C91.4377 51.2962 91.4377 53.3896 91.4377 55.4829C91.4377 57.2997 91.4377 57.28 89.5953 57.4182C88.0745 57.5181 86.6313 57.7737 85.1068 57.7737ZM91.1829 40.3162C91.2025 43.1007 93.4761 45.5298 96.0438 45.4705C98.6506 45.4113 100.944 42.9625 100.924 40.2767C100.905 37.5515 98.5918 35.1224 96.0046 35.1224C93.4173 35.1224 91.1829 37.5317 91.1829 40.3162Z" fill="url(#paint1_linear)"/>
<path d="M67.8977 57.3784C66.6629 57.2796 66.5845 57.1414 67.1137 56.0355C68.2113 53.7842 69.2893 51.5329 70.4066 49.3211C70.7594 48.6496 70.7594 48.0572 70.4458 47.366C68.1721 42.271 65.9181 37.1562 63.6641 32.0414C63.2132 31.0145 63.2328 30.9552 64.3697 30.6787C65.7025 30.343 67.0353 30.0665 68.3681 29.6913C69.0933 29.4938 69.4265 29.7111 69.6813 30.4023C70.9554 33.641 72.2882 36.8599 73.6014 40.0789C73.7386 40.3949 73.7582 40.9281 74.1306 40.9478C74.5422 40.9676 74.5422 40.4344 74.6794 40.1184C75.9731 36.9192 77.2863 33.72 78.5407 30.5208C78.8543 29.7111 79.2463 29.4741 80.0695 29.7308C81.3435 30.1258 82.6568 30.4418 83.97 30.7182C84.8128 30.896 84.9108 31.2712 84.5776 32.0216C82.5196 36.5835 80.5007 41.1453 78.4819 45.7072C76.6983 49.7358 74.9342 53.7644 73.1506 57.7931C71.386 57.7338 69.6613 57.5264 67.8977 57.3784Z" fill="url(#paint2_linear)"/>
<path d="M141.987 57.3783C140.752 57.2795 140.674 57.1215 141.203 56.0354C142.32 53.7643 143.418 51.4933 144.555 49.242C144.868 48.6298 144.849 48.0768 144.574 47.4647C142.301 42.3301 140.027 37.1956 137.773 32.061C137.322 31.0144 137.342 30.9551 138.459 30.6786C139.792 30.3429 141.125 30.0665 142.457 29.6912C143.183 29.4938 143.516 29.6912 143.79 30.3824C144.312 31.6925 147.001 40.8856 148.22 40.9675C148.612 40.9872 148.631 40.5133 148.749 40.2368C150.062 37.0178 151.375 33.7791 152.63 30.5404C152.944 29.7505 153.296 29.4938 154.159 29.7307C155.746 30.2047 157.393 30.5404 159 30.9354C159 31.0736 159 31.1921 159 31.3303C157.099 35.5762 155.178 39.8418 153.277 44.0877C151.258 48.6495 149.239 53.2114 147.24 57.793C145.475 57.7337 143.751 57.5263 141.987 57.3783Z" fill="url(#paint3_linear)"/>
<path d="M61.9784 22.2266C61.9784 31.0738 61.9784 39.921 61.9588 48.7682C61.9588 50.3086 61.9 50.3481 60.3908 50.4863C59.2148 50.585 58.0584 50.7233 56.8823 50.8418C55.8239 50.9603 55.6475 50.8418 55.6475 49.7951C55.6475 41.2046 55.6671 32.6339 55.6279 24.0434C55.6279 23.135 55.9611 22.8585 56.8039 22.7795C58.5403 22.5882 60.2376 22.2266 61.9784 22.2266Z" fill="url(#paint4_linear)"/>
<path d="M116.467 22.2266C116.467 31.0738 116.467 39.9012 116.448 48.7485C116.448 50.3086 116.389 50.3481 114.899 50.4863C113.664 50.585 112.43 50.7233 111.214 50.8615C110.47 50.9603 110.156 50.7035 110.156 49.8939C110.176 41.2441 110.176 32.6141 110.156 23.9644C110.156 23.1547 110.489 22.8783 111.234 22.7795C112.981 22.5662 114.713 22.2266 116.467 22.2266Z" fill="url(#paint5_linear)"/>
<path d="M39.1637 32.0416C39.6145 31.9428 39.7713 31.5676 39.9869 31.3109C42.7505 28.1907 49.7282 28.9806 51.1591 33.9374C51.6099 35.537 51.7275 37.1761 51.7667 38.8152C51.8451 42.2317 51.7667 45.6481 51.8059 49.0843C51.8255 50.0125 51.4727 50.3877 50.5907 50.4667C49.297 50.5654 48.0034 50.7234 46.6902 50.8616C45.6318 50.9801 45.475 50.8617 45.475 49.7952C45.475 46.2998 45.475 42.8241 45.475 39.3287C45.475 38.7362 45.4358 38.1438 45.3182 37.5711C45.0046 36.0307 43.9265 35.1223 42.4369 35.142C40.9669 35.1618 39.9477 36.0505 39.6341 37.5316C39.5165 38.124 39.4577 38.6967 39.4773 39.2892C39.4773 42.5476 39.4381 45.8061 39.4969 49.0646C39.5165 50.0717 39.1441 50.4074 38.2228 50.4864C36.89 50.5852 35.5572 50.7432 34.2244 50.9011C33.4796 50.9999 33.1464 50.7234 33.1464 49.9335C33.166 43.6535 33.166 37.3736 33.1464 31.0937C33.1464 30.363 33.4404 30.0272 34.1656 29.968C35.4004 29.8693 36.6352 29.7508 37.87 29.5928C38.7129 29.4743 39.1049 29.731 39.0461 30.6394C39.0461 31.0542 38.9873 31.5479 39.1637 32.0416Z" fill="url(#paint6_linear)"/>
<path d="M131.226 49.2027C129.404 51.2565 127.091 51.3552 124.758 50.9603C121.622 50.4271 119.643 47.9388 119.368 44.7001C118.8 38.0646 125.327 35.7344 129.58 37.6104C129.913 37.7487 130.227 37.9264 130.54 38.0844C130.991 38.3214 131.109 38.1239 131.128 37.6894C131.207 36.2083 130.364 35.1419 128.933 34.8852C126.953 34.51 125.033 34.8457 123.151 35.4776C121.916 35.8923 121.897 35.8923 122.112 34.5495C122.289 33.3843 122.504 32.2192 122.661 31.054C122.739 30.5603 122.994 30.3036 123.445 30.1851C126.326 29.4149 129.227 29.1582 132.148 29.9876C135.166 30.8368 136.832 33.0683 136.852 36.2281C136.871 40.5332 136.832 44.8383 136.891 49.1434C136.91 50.1111 136.479 50.4073 135.636 50.4665C134.656 50.5455 133.696 50.664 132.716 50.8023C131.302 50.9922 131.529 50.2689 131.226 49.2027ZM128.149 41.0466C126.483 41.0269 125.15 42.2118 125.15 43.6534C125.15 45.1148 126.503 46.2799 128.149 46.2602C129.835 46.2404 131.089 45.095 131.089 43.5942C131.089 42.192 129.776 41.0466 128.149 41.0466Z" fill="url(#paint7_linear)"/>
<defs>
<linearGradient id="paint0_linear" x1="16.5057" y1="14.1296" x2="16.5057" y2="51.0588" gradientUnits="userSpaceOnUse">
<stop stop-color="#F9A820"/>
<stop offset="1" stop-color="#DE35B9"/>
</linearGradient>
<linearGradient id="paint1_linear" x1="96.083" y1="24.5966" x2="96.1337" y2="57.7737" gradientUnits="userSpaceOnUse">
<stop stop-color="#F9A820"/>
<stop offset="1" stop-color="#DE35B9"/>
</linearGradient>
<linearGradient id="paint2_linear" x1="74.1306" y1="21.5353" x2="74.0716" y2="57.7931" gradientUnits="userSpaceOnUse">
<stop stop-color="#F9A820"/>
<stop offset="1" stop-color="#DE35B9"/>
</linearGradient>
<linearGradient id="paint3_linear" x1="148.249" y1="29.6187" x2="148.249" y2="57.793" gradientUnits="userSpaceOnUse">
<stop stop-color="#F9A820"/>
<stop offset="1" stop-color="#DE35B9"/>
</linearGradient>
<linearGradient id="paint4_linear" x1="58.8424" y1="18.8694" x2="58.8026" y2="50.8789" gradientUnits="userSpaceOnUse">
<stop stop-color="#F9A820"/>
<stop offset="1" stop-color="#DE35B9"/>
</linearGradient>
<linearGradient id="paint5_linear" x1="113.312" y1="22.2266" x2="113.312" y2="50.8816" gradientUnits="userSpaceOnUse">
<stop stop-color="#F9A820"/>
<stop offset="1" stop-color="#DE35B9"/>
</linearGradient>
<linearGradient id="paint6_linear" x1="42.5741" y1="20.1531" x2="42.475" y2="50.9203" gradientUnits="userSpaceOnUse">
<stop stop-color="#F9A820"/>
<stop offset="1" stop-color="#DE35B9"/>
</linearGradient>
<linearGradient id="paint7_linear" x1="128.112" y1="29.4746" x2="128.112" y2="51.1438" gradientUnits="userSpaceOnUse">
<stop stop-color="#F9A820"/>
<stop offset="1" stop-color="#DE35B9"/>
</linearGradient>
</defs>
</svg>
