<svg width="160" height="80" viewBox="0 0 160 80" fill="none" xmlns="http://www.w3.org/2000/svg">
<g clip-path="url(#clip0_6267_98)">
<path d="M93.4162 30.2422C95.0062 30.2422 96.3478 30.7888 97.4907 31.9316C98.6335 33.0745 99.1801 34.4658 99.1801 36.1055C99.1801 37.7453 98.6335 39.0869 97.4907 40.2298C96.3478 41.3726 95.0062 41.9192 93.4162 41.9192C91.7267 41.9192 90.3354 41.3229 89.2422 40.1801C88.1491 39.0372 87.6025 37.6459 87.6025 36.0559C87.6025 35.0124 87.8509 34.0186 88.3975 33.1242C88.9441 32.2298 89.6398 31.5341 90.5342 30.9875C91.4286 30.4906 92.3727 30.2422 93.4162 30.2422ZM93.4162 32.3291C92.3727 32.3291 91.528 32.677 90.8323 33.4223C90.1367 34.118 89.7888 35.0621 89.7888 36.1552C89.7888 37.3975 90.236 38.3416 91.1304 39.0869C91.8261 39.6335 92.6211 39.9316 93.5155 39.9316C94.5093 39.9316 95.354 39.5838 96.0994 38.8385C96.795 38.0931 97.1429 37.1987 97.1429 36.1552C97.1429 35.1118 96.795 34.2173 96.0497 33.472C95.3044 32.677 94.4596 32.3291 93.4162 32.3291Z" fill="#DD2429"/>
<path d="M101.714 30.5405H103.95C105.193 30.5405 106.037 30.6399 106.584 30.8884C107.13 31.0871 107.528 31.4846 107.826 31.9815C108.124 32.4784 108.323 33.0747 108.323 33.7703C108.323 34.5157 108.124 35.112 107.776 35.6088C107.429 36.1057 106.882 36.4536 106.186 36.702L108.82 41.671H106.484L104 36.9505H103.851V41.671H101.714V30.5405ZM103.851 34.8635H104.497C105.193 34.8635 105.64 34.7641 105.888 34.6151C106.137 34.466 106.286 34.1679 106.286 33.7207C106.286 33.4722 106.236 33.2734 106.087 33.0747C105.938 32.8759 105.789 32.7766 105.59 32.6772C105.391 32.5778 104.994 32.5778 104.447 32.5778H103.851V34.8635Z" fill="#DD2429"/>
<path d="M110.807 30.5405H112.894V41.671H110.807V30.5405Z" fill="#DD2429"/>
<path d="M115.727 30.5405H121.789V32.6275H117.814V34.6648H121.789V36.702H117.814V39.6337H121.789V41.7207H115.727V30.5405Z" fill="#DD2429"/>
<path d="M124.174 30.5405H126.211L130.981 37.8946V30.5405H133.118V41.671H131.081L126.311 34.3666V41.671H124.174V30.5405Z" fill="#DD2429"/>
<path d="M134.907 30.5405H141.068V32.6275H139.031V41.671H136.894V32.6275H134.907V30.5405Z" fill="#DD2429"/>
<path d="M146.335 30.5405H148.472L152.745 41.671H150.559L149.665 39.3852H145.093L144.199 41.671H142.012L146.335 30.5405ZM147.429 33.4722L145.938 37.2983H148.919L147.429 33.4722Z" fill="#DD2429"/>
<path d="M154.783 30.5405H156.919V39.6834H160V41.7207H154.783V30.5405Z" fill="#DD2429"/>
<path d="M98.4845 47.236L96.9938 48.7267C96.0497 47.7329 94.9565 47.236 93.6646 47.236C92.5714 47.236 91.6273 47.5838 90.9317 48.3292C90.1863 49.0745 89.8385 49.9192 89.8385 50.9627C89.8385 52.0559 90.236 52.9503 90.9814 53.6956C91.7267 54.441 92.7205 54.8385 93.8137 54.8385C94.559 54.8385 95.1553 54.6894 95.6522 54.3913C96.1491 54.0931 96.5466 53.5962 96.8447 52.9503H93.6149V50.9627H99.2298V51.4099C99.2298 52.4037 98.9814 53.2981 98.4845 54.1925C97.9876 55.0869 97.3416 55.7329 96.5466 56.1801C95.7516 56.6273 94.8075 56.8757 93.7143 56.8757C92.5714 56.8757 91.528 56.6273 90.6335 56.1304C89.7391 55.6335 88.9938 54.8882 88.4969 53.9938C87.9503 53.0497 87.7019 52.0559 87.7019 50.9627C87.7019 49.472 88.1988 48.2298 89.1429 47.1366C90.2857 45.8447 91.8261 45.1987 93.6646 45.1987C94.6584 45.1987 95.5528 45.3975 96.3975 45.7453C97.0932 45.9938 97.7888 46.5403 98.4845 47.236Z" fill="#DD2429"/>
<path d="M104.994 45.4473H107.13L111.404 56.5777H109.217L108.323 54.292H103.752L102.857 56.5777H100.671L104.994 45.4473ZM106.087 48.3789L104.596 52.205H107.578L106.087 48.3789Z" fill="#DD2429"/>
<path d="M114.534 45.4473H116.621L119.205 53.1988L121.789 45.4473H123.876L125.764 56.5777H123.727L122.534 49.5218L120.149 56.5777H118.261L115.925 49.5218L114.683 56.5777H112.596L114.534 45.4473Z" fill="#DD2429"/>
<path d="M127.801 45.4473H133.863V47.5342H129.888V49.5715H133.863V51.6088H129.888V54.5404H133.863V56.6274H127.801V45.4473Z" fill="#DD2429"/>
<path d="M1.88821 39.1863C2.13665 38.1925 2.48448 37.2484 3.08075 36.4037C4.42237 34.3664 6.31057 33.323 8.69566 33.0745C9.14286 33.0248 9.59007 33.1242 9.93789 33.323C10.2857 33.5217 10.3354 33.3727 10.3354 33.0745C10.3851 31.9814 10.3354 30.9379 10.1863 29.8944C10.087 29.0994 9.93789 28.3043 9.68945 27.5093C9.24224 26.0683 8.14908 25.323 6.80746 24.8261C5.71429 24.4286 4.62112 24.5776 3.52796 24.7267C2.63355 24.8758 1.73914 25.0248 0.844727 25.2236C0.695659 25.2733 0.496901 25.2733 0.248454 25.2733C1.39131 24.2795 2.58386 23.5341 3.82609 22.9379C5.31678 22.2422 6.85715 21.795 8.54659 22.0435C10.7826 22.3913 12.0249 23.4845 12.5217 25.5217C12.7702 26.5652 12.8696 27.6087 12.8696 28.7019C12.9193 30.4907 13.118 32.2795 13.8634 33.9192C14.3603 35.1118 15.1553 36.0559 16.1491 36.8509C16.5466 37.1491 16.7453 37.3975 16.5963 37.9441C16.4472 38.6894 16.4969 39.4845 16.4969 40.2795C16.4969 40.8758 16.4969 40.8758 15.9503 40.6273C14.9565 40.2298 14.2112 39.5341 13.4658 38.8385C12.4224 37.8447 11.3789 36.9006 10.0373 36.2546C8.14908 35.3105 6.31057 35.6087 4.62112 36.7515C3.62734 37.4969 2.73293 38.2919 1.88821 39.1863Z" fill="#DD2429"/>
<path d="M0.0496963 53.348C0.397522 50.9132 1.09317 48.5778 2.93168 46.789C4.02485 45.6958 5.41616 45.0995 7.00622 45.348C8.14908 45.497 9.09317 46.143 10.0373 46.8386C11.2298 47.733 12.2733 48.7765 13.4658 49.6213C15.4037 50.9629 17.4907 51.6088 19.8261 51.2113C20.0745 51.1616 20.1739 51.261 20.2733 51.4101C20.8199 52.2051 21.5155 52.9504 22.2112 53.6461C22.6087 54.0933 22.0621 54.0933 21.913 54.143C21.0186 54.4908 20.0745 54.5405 19.1304 54.5902C17.8882 54.5902 16.646 54.6896 15.4534 54.9877C13.5652 55.4846 12.323 56.6275 11.677 58.466C11.2298 59.7579 11.2298 61.0995 11.2795 62.4411C11.2795 62.5902 11.2795 62.7393 11.2795 62.8883C10.5342 62.1927 9.54038 59.4101 9.88821 57.6709C10.2857 55.7331 10.9317 53.9442 13.0186 53.0995C12.5217 52.4535 11.9255 51.9567 11.2795 51.4598C10.3851 50.7144 9.441 50.0685 8.44721 49.5219C7.1056 48.7765 5.76398 48.8759 4.42237 49.4722C3.27951 49.9691 2.48448 50.9132 1.78883 51.907C1.24224 52.6523 0.695659 53.4473 0.198765 54.1927C6.82101e-06 54.2921 -0.0496826 54.1927 -0.0496826 54.0436C6.82473e-06 53.7952 -0.0496826 53.5467 0.0496963 53.348Z" fill="#DD2429"/>
<path d="M12.8199 15.9317C15.6025 14.3416 18.4348 14.0932 21.2671 15.8323C21.9627 16.2795 22.4596 16.8758 22.7578 17.6211C22.8571 17.8696 22.9565 17.9193 23.1553 17.7205C24.8447 16.1801 26.4845 14.5404 27.2795 12.3043C27.6273 11.3106 27.2795 10.4161 26.9317 9.52174C26.4348 8.2795 25.441 7.53416 24.4472 6.78882C23.6522 6.24224 22.8571 5.64596 22.0621 5C22.5093 5.04969 22.9565 5.09938 23.4037 5.19876C25.5404 5.59627 27.6273 6.29193 29.2671 7.78261C30.4596 8.92547 31.1553 10.3168 30.9565 11.9565C30.8075 13.0994 30.1615 13.9938 29.4658 14.8385C28.6211 15.9317 27.528 16.8261 26.6335 17.9193C25.1429 19.7081 24.1988 21.7453 24.3478 24.1304C24.3478 24.3292 24.2981 24.4783 24.0994 24.6273C23.3044 25.2733 22.5093 25.9193 21.8137 26.6646C21.5155 26.9627 21.4658 26.8137 21.3665 26.5155C21.0683 25.5217 21.118 24.528 21.0683 23.5342C21.0186 21.9938 21.0186 20.5031 20.4224 19.0621C19.7267 17.4224 18.4348 16.5776 16.8447 16.1304C15.5031 15.882 14.1615 15.7826 12.8199 15.9317Z" fill="#DD2429"/>
<path d="M36.3727 7.2362C39.2547 7.88216 41.2919 9.47223 42.3354 12.2051C42.6832 13.1989 42.7826 14.1927 42.3354 15.1865C42.1863 15.4846 42.2857 15.5343 42.5839 15.5343C44.7205 15.4846 46.8572 15.435 48.8944 14.5902C50.087 14.0933 50.6335 13.1492 51.0808 12.0064C51.4783 11.0126 51.3789 9.96912 51.2298 8.92564C51.0808 7.83247 50.8323 6.68962 50.6335 5.49707C51.9752 6.83869 52.8696 8.37906 53.5155 10.1182C54.0124 11.5592 54.1615 12.9505 53.764 14.4412C53.2174 16.3294 51.8758 17.2238 50.087 17.6213C48.7453 17.9194 47.354 17.9194 45.9627 18.0188C43.4286 18.2176 41.0932 18.8635 39.2547 20.8014C39.1056 21.0002 38.9068 21.0499 38.6584 21.0002C37.6646 20.7517 36.6708 20.8014 35.677 20.8014C35.528 20.8014 35.3292 20.8511 35.2795 20.702C35.2298 20.553 35.3789 20.4536 35.4286 20.3045C36.1739 19.1617 37.2671 18.3169 38.1118 17.2238C38.8075 16.3294 39.5031 15.435 39.8509 14.3418C40.3478 12.702 39.8509 11.3107 38.9565 9.91943C38.3603 8.97533 37.5652 8.27968 36.7205 7.53434C36.5714 7.48465 36.4224 7.43496 36.3727 7.2362Z" fill="#DD2429"/>
<path d="M34.4348 72.6272C33.6398 72.5278 33.0932 72.18 32.4969 71.9316C30.4596 71.0372 29.1677 69.4968 28.5217 67.4098C28.2236 66.4657 28.1242 65.5216 28.5714 64.5775C28.6708 64.3291 28.6211 64.2297 28.323 64.18C26.9317 64.1303 25.5404 64.2297 24.1988 64.4285C23.3044 64.5775 22.4596 64.7763 21.6646 65.2235C20.6211 65.8198 20.1242 66.8136 19.7764 67.857C19.4286 68.8508 19.528 69.8446 19.677 70.8384C19.8261 71.7825 19.9255 72.7763 20.1739 73.7204C20.1739 73.8198 20.1739 73.9191 20.1739 74.1179C19.3292 73.0744 18.6335 72.0806 18.087 70.9875C17.441 69.6459 16.8944 68.2049 16.9938 66.6645C17.1926 64.0309 18.5839 62.3415 21.2671 61.944C22.7081 61.6955 24.1988 61.8446 25.6894 61.6955C28.0248 61.4471 30.2112 60.8011 31.8012 58.9626C31.9006 58.8136 32.0497 58.7639 32.2485 58.8136C33.3416 59.062 34.4348 59.1614 35.528 59.1614C35.8261 59.1614 35.9255 59.2111 35.7267 59.5092C35.1801 60.3539 34.4348 61.0496 33.7391 61.7452C32.8447 62.6396 32 63.6334 31.5031 64.7763C30.7081 66.5154 30.9565 68.2049 32 69.7949C32.5466 70.8384 33.441 71.6831 34.4348 72.6272Z" fill="#DD2429"/>
<path d="M1.54038 45.7454C1.88821 43.7578 2.68324 41.9193 4.17392 40.528C4.67081 40.0808 5.2174 39.6832 5.86336 39.5342C7.70187 39.087 9.49069 39.1863 11.0808 40.4783C12.6211 41.7205 14.1615 43.0124 15.8509 44.0559C15.9503 44.1056 16.0497 44.2547 16.1988 44.2547C17.0435 44.4534 17.2919 45.0994 17.4907 45.8447C17.6894 46.6895 18.0373 47.5342 18.4845 48.3292C18.6832 48.7267 18.5839 48.7764 18.1863 48.7764C16.646 48.8261 15.354 48.2795 14.1118 47.4348C12.5714 46.3913 11.1801 45.0994 9.59007 44.0559C8.94411 43.6087 8.24845 43.2112 7.50311 42.9627C5.6646 42.3665 3.57765 43.1118 2.33541 44.7516C2.03727 45.0497 1.78883 45.3975 1.54038 45.7454Z" fill="#EC772A"/>
<path d="M7.70187 20.2049C9.29193 19.2608 11.0311 18.5651 12.8696 18.4658C15.6522 18.3167 17.9876 20.8508 18.1367 22.9875C18.2857 25.1738 18.3851 27.3602 18.9317 29.4968C19.0808 30.1925 18.9317 30.6397 18.6335 31.1862C18.1367 32.031 17.7888 32.9751 17.4907 33.9192C17.3913 34.2173 17.3416 34.3167 17.0435 34.0682C16.0497 33.1241 15.6025 31.9316 15.3044 30.6397C14.9068 28.8508 14.9068 27.0123 14.6087 25.2732C14.4596 24.2297 14.3106 23.1862 13.764 22.2918C12.969 20.9005 11.677 20.2049 10.087 20.0558C9.29193 20.0061 8.4969 19.9564 7.70187 20.2049Z" fill="#EC772A"/>
<path d="M15.0062 67.2606C14.1118 65.9687 13.5652 64.5774 13.3168 63.037C13.1677 62.1426 13.118 61.2482 13.5155 60.3538C14.3106 58.565 15.6025 57.2731 17.6398 56.9252C19.6273 56.6271 21.6646 56.6271 23.6522 56.1799C24.6957 55.9314 25.4907 56.0308 26.3851 56.6768C27.0311 57.1737 27.8261 57.4718 28.5714 57.7203C28.9689 57.8693 28.9193 57.9687 28.6211 58.2172C27.7764 58.9625 26.7826 59.2606 25.7391 59.5091C24.0994 59.9066 22.4099 60.006 20.7205 60.2047C19.7764 60.3041 18.882 60.5029 17.9876 60.801C15.7516 61.5463 14.559 63.4842 14.8075 65.8693C14.9068 66.3662 14.9068 66.8134 15.0062 67.2606Z" fill="#EC772A"/>
<path d="M30.7081 6.73926C32.7453 7.23615 34.6335 8.03118 36.0249 9.67093C37.4658 11.3604 37.4658 14.0933 36.0745 15.8324C35.2795 16.9256 34.3354 17.9194 33.441 18.9629C32.9441 19.5591 32.4472 20.1057 32.0497 20.702C31.8012 21.0995 31.5031 21.2486 31.0559 21.348C29.8137 21.6461 28.6211 22.0436 27.4783 22.6399C27.1304 22.8386 27.0311 22.6896 27.0808 22.3417C27.2298 21.0498 27.9255 20.056 28.6211 19.0125C29.7143 17.4722 31.0559 16.1803 32.1988 14.6399C32.8944 13.6958 33.5404 12.7517 33.5901 11.5094C33.6894 9.62125 32.795 8.27963 31.354 7.23615C31.1553 7.08708 30.9565 6.93802 30.7081 6.73926Z" fill="#EC772A"/>
<path d="M55.6025 13.0996C56.0994 13.7953 56.4969 14.5903 56.7453 15.3853C57.2422 16.8263 57.5404 18.2673 57.0435 19.8077C56.4472 21.6959 54.4099 23.2859 52.4224 23.435C50.4845 23.5841 48.5466 23.6338 46.6584 24.0313C46.5093 24.081 46.3106 24.0313 46.1615 23.9319C44.9193 23.1369 43.5776 22.4412 42.1863 21.9443C42.1367 21.9443 42.087 21.8946 41.9876 21.845C42.5342 21.3481 43.1304 21.0996 43.7764 20.8512C44.8696 20.4536 46.0124 20.3543 47.1553 20.2549C48.9441 20.0561 50.7826 20.0561 52.5714 19.4599C54.3603 18.8636 55.5528 17.3729 55.7516 15.4847C55.8509 14.6897 55.7516 13.8946 55.6025 13.0996Z" fill="#EC772A"/>
<path d="M81.441 42.6147C77.6646 42.6147 73.8385 42.6147 70.0621 42.6147C69.2174 42.6147 68.8199 43.0123 68.8199 43.857C68.8199 45.0495 68.8199 46.2421 68.8199 47.4843C68.8199 47.6334 68.7702 47.8321 68.8696 47.9812C70.3603 48.0309 71.8509 47.9812 73.3416 47.9812C73.4907 47.9812 73.6894 47.8321 73.7391 48.1303C73.5404 48.329 73.3416 48.5278 73.1926 48.7265C71.1553 50.5651 68.8199 51.7576 66.0373 52.0061C62.0124 52.3539 58.5839 51.062 55.8509 48.0806C55.1553 47.3352 54.6087 46.4408 54.0621 45.4967C53.9627 45.5961 53.913 45.6955 53.8634 45.7949C53.1677 47.1365 52.4721 48.4781 51.7764 49.77C51.3292 50.6147 51.3292 50.9129 51.9752 51.6085C56.4969 56.3787 62.0621 58.1675 68.4721 56.8756C72 56.18 74.9814 54.3911 77.4162 51.8073C78.3106 50.8632 79.1056 49.9191 79.6522 48.7265C80.0497 48.1303 80.3478 47.4843 80.646 46.8383C81.1926 45.6955 81.4907 44.4036 81.7888 43.1613C81.9876 42.7638 81.8882 42.6147 81.441 42.6147Z" fill="url(#paint0_linear_6267_98)"/>
<path d="M52.8199 38.4906C53.0186 37.5465 53.2174 36.5527 53.5652 35.6583C54.0621 34.3663 54.8075 33.2235 55.6522 32.0806C55.7516 31.9812 55.8509 31.9315 55.9503 31.8322C59.3292 28.3539 63.4037 27.211 68.1242 28.4036C69.764 28.8011 71.2547 29.6458 72.5466 30.6893C72.5963 30.6893 72.5963 30.6893 72.646 30.6893C72.5963 30.6893 72.5963 30.6893 72.5466 30.6893C73.9876 31.9315 75.0808 33.4222 75.9255 35.1117C76.1242 35.5589 76.5217 35.7079 76.969 35.7079C78.1615 35.7079 79.354 35.7079 80.5963 35.7079C81.6398 35.7079 81.6398 35.7079 81.3416 34.7142C80.8944 33.2732 80.2981 31.8819 79.354 30.6396C79.3044 30.4905 79.205 30.3912 79.1553 30.2421C76.4224 26.3663 72.7453 23.8819 68.0745 23.0371C62.4099 21.9937 57.3913 23.4843 53.118 27.3104C51.677 28.6024 50.4845 30.1427 49.5901 31.8819C48.1491 34.5154 47.4534 37.298 47.6025 40.3291C47.6025 40.4781 47.5528 40.5775 47.5528 40.7266C47.5528 43.2607 46.6087 45.4471 45.118 47.385C44.0745 48.7763 42.7329 49.8197 41.2919 50.6645C41.1926 50.7142 41.0435 50.7142 40.9441 50.7638C36.8696 52.652 32.8944 52.4533 29.0683 50.1179C28.5217 49.7701 28.0249 49.4222 27.528 49.0247C26.882 48.4781 26.3851 47.8322 25.8882 47.1862C24.2485 44.9502 23.4534 42.4657 23.5031 39.6831C23.5031 38.6396 23.7516 37.6458 23.9006 36.652C23.9503 36.5527 24 36.4533 24 36.3539C25.6398 31.5837 28.969 28.652 33.9876 27.9564C38.1118 27.3601 41.6398 28.8011 44.5217 31.8322C45.1677 32.5278 45.7143 33.3725 46.2112 34.2173C47.0062 32.7763 47.8012 31.3353 48.5466 29.944C48.9441 29.2483 48.8944 28.9005 48.3478 28.3042C45.4658 25.1738 41.9379 23.2856 37.764 22.739C31.9503 22.0433 26.9814 23.8322 22.9068 28.0558C20.8199 30.2421 19.3789 32.826 18.7329 35.8073C18.6335 35.9067 18.6335 36.0558 18.6335 36.2048C18.6335 36.2048 18.6832 36.2545 18.6832 36.3042C18.6832 36.3539 18.6335 36.3539 18.6335 36.3042C18.2857 37.5961 18.1863 38.8881 18.236 40.2297C18.2857 43.3601 19.0808 46.2421 20.7702 48.8756C20.8199 49.0247 20.9193 49.1241 20.969 49.2732C21.9627 50.8135 23.1553 52.2048 24.646 53.3477C28.9193 56.7266 33.7888 57.8694 39.1553 56.826C42.0373 56.2794 44.6211 54.9874 46.8075 53.0496C47.5528 52.4036 48.3478 51.7576 48.8447 50.8632C50.6832 48.7763 51.8261 46.3415 52.4224 43.6583C52.8696 42.0185 52.7702 40.2794 52.8199 38.4906Z" fill="url(#paint1_linear_6267_98)"/>
</g>
<defs>
<linearGradient id="paint0_linear_6267_98" x1="66.7219" y1="42.6184" x2="66.7219" y2="57.3021" gradientUnits="userSpaceOnUse">
<stop stop-color="#F98B1C"/>
<stop offset="1" stop-color="#E03628"/>
</linearGradient>
<linearGradient id="paint1_linear_6267_98" x1="49.911" y1="22.6886" x2="49.911" y2="57.2825" gradientUnits="userSpaceOnUse">
<stop stop-color="#F98B1C"/>
<stop offset="1" stop-color="#E03628"/>
</linearGradient>
<clipPath id="clip0_6267_98">
<rect width="160" height="80" fill="white"/>
</clipPath>
</defs>
</svg>
