<svg width="160" height="80" viewBox="0 0 160 80" fill="none" xmlns="http://www.w3.org/2000/svg">
<g clip-path="url(#clip0_6974_8)">
<path d="M59.6843 34.5265C59.3171 32.5524 58.7661 30.5782 58.0315 28.6958C56.5165 24.9311 54.2668 21.4419 51.4204 18.5036C48.5739 15.5653 45.1305 13.1779 41.3658 11.571C39.4835 10.7446 37.5093 10.1478 35.4892 9.68867C33.4691 9.27547 31.4031 9.04591 29.3371 9V11.9383V14.6011V14.8766V17.3099V20.0646C32.0459 20.0187 34.7087 20.4778 37.2338 21.4419C39.7589 22.406 42.1004 23.9211 44.0746 25.8034C46.0488 27.6858 47.6556 29.9813 48.7575 32.5065C49.8594 35.0316 50.4562 37.7862 50.5021 40.5409C50.548 43.2956 50.0889 46.0961 49.033 48.7131C48.0229 51.33 46.462 53.7174 44.5337 55.7374C42.5595 57.7575 40.2181 59.4103 37.6011 60.5581C34.9842 61.7059 32.1836 62.3027 29.2912 62.3945C26.4447 62.4405 23.5524 61.9354 20.8436 60.8795C18.1808 59.8235 15.6557 58.2166 13.5897 56.2425C11.4777 54.2224 9.77904 51.7891 8.63126 49.1263C7.43757 46.4634 6.84073 43.5251 6.74891 40.5868C6.703 37.6485 7.20802 34.6643 8.30989 31.9096C9.41175 29.155 11.0186 26.5839 13.1305 24.4261C15.1965 22.2683 17.7216 20.5237 20.4763 19.2841C23.231 18.0904 26.2611 17.4017 29.2912 17.3558C26.2611 17.3099 23.1851 17.8608 20.3386 18.9627C17.4921 20.0646 14.8293 21.7633 12.6255 23.9211C10.4218 26.0789 8.58535 28.6499 7.34575 31.4964C6.10615 34.3429 5.41749 37.4649 5.37158 40.5868C5.32567 43.7088 5.8766 46.8766 7.02438 49.8149C8.17215 52.7532 9.91677 55.462 12.1205 57.7575C14.3242 60.0531 16.9871 61.8895 19.9254 63.175C22.8637 64.4605 26.0775 65.1492 29.2912 65.1951C32.505 65.241 35.7647 64.6901 38.7489 63.4964C41.779 62.3027 44.5337 60.5122 46.9211 58.2626C49.2625 56.0129 51.1908 53.2583 52.4763 50.2281C53.8077 47.198 54.4964 43.9383 54.5423 40.6327C54.5882 37.3271 53.9914 33.9756 52.7977 30.8996C51.5581 27.7776 49.7216 24.9311 47.3802 22.5438C45.0387 20.1564 42.2381 18.1822 39.1162 16.8508C38.5653 16.6212 37.9684 16.3917 37.3716 16.1621C37.9684 16.3458 38.5653 16.5753 39.1162 16.8049C42.2841 18.0445 45.1765 19.9268 47.6557 22.2683C50.0889 24.6557 52.109 27.5022 53.4864 30.6241C54.8637 33.7461 55.5983 37.1894 55.6442 40.6786C55.6901 44.122 55.0932 47.6112 53.8077 50.8709C52.5222 54.1306 50.594 57.1148 48.1607 59.6399C45.7274 62.165 42.7891 64.231 39.5294 65.6083C36.3156 67.0316 32.7805 67.7661 29.1994 67.858C25.6643 67.9039 22.0832 67.2611 18.7317 65.9756C15.4261 64.6442 12.3501 62.67 9.73313 60.1908C7.16211 57.6657 5.0502 54.6815 3.58105 51.33C2.11189 48.0244 1.37732 44.3974 1.28549 40.7245C1.23958 37.0516 1.88234 33.4247 3.21376 29.9813C4.54518 26.5839 6.61118 23.4161 9.1822 20.7532C11.7532 18.0904 14.8752 15.9326 18.2726 14.4634C21.67 12.9943 25.3888 12.1679 29.1535 12.122C25.3888 12.076 21.6241 12.7188 18.1348 14.142C14.6456 15.5194 11.3859 17.6313 8.67717 20.2482C6.15207 22.7274 3.90242 25.8953 2.38736 29.3845C0.872295 32.9197 0.0458964 36.7303 -1.46679e-05 40.5409C-0.0459257 44.3974 0.64274 48.2539 2.06598 51.835C3.48922 55.4161 5.64704 58.7676 8.3558 61.5222C11.0645 64.3228 14.3242 66.5725 17.9053 68.1334C21.4864 69.6944 25.4347 70.5208 29.3371 70.6126C31.3113 70.6585 33.2855 70.4749 35.2138 70.1076C37.142 69.7403 39.0703 69.1894 40.9067 68.4548C44.5796 66.9857 47.977 64.7819 50.8694 62.0273C53.7159 59.2726 56.0574 55.9211 57.6643 52.2023C58.4447 50.3659 59.0875 48.4376 59.5007 46.4634C59.9139 44.4892 60.1435 42.4692 60.1894 40.4491C60.1894 38.5208 60.0516 36.5007 59.6843 34.5265Z" fill="white"/>
<path d="M155.868 27.4102C153.343 26.8593 150.726 26.6297 148.155 26.2165C146.869 25.987 145.584 25.8033 144.344 25.436C143.105 25.0687 142.232 24.1964 142.141 22.865C142.003 21.6254 142.003 20.3399 142.141 19.0544C142.278 17.8607 143.151 16.8507 144.298 16.5293C145.125 16.3456 145.951 16.2079 146.778 16.2079C149.027 16.162 151.277 16.2079 153.527 16.2079C153.986 16.2079 154.445 16.2538 154.95 16.2997C157.062 16.5752 158.118 17.5852 158.347 19.6512C158.393 20.1103 158.393 20.5694 158.393 21.0286C158.393 21.4877 158.76 21.855 159.174 21.855C159.633 21.855 160 21.4877 159.954 21.0286C159.908 20.294 159.908 19.6053 159.816 18.9166C159.541 16.8507 158.301 15.5651 156.281 15.0142C155.822 14.8765 155.317 14.7847 154.858 14.7847C151.966 14.7387 149.073 14.6928 146.181 14.7387C145.538 14.7387 144.849 14.8765 144.207 15.0142C142.141 15.5192 140.855 16.8047 140.58 18.9166C140.442 20.0644 140.396 21.2581 140.488 22.36C140.763 25.0228 141.957 26.4461 144.574 26.997C147.099 27.5479 149.716 27.7775 152.287 28.2366C153.572 28.4661 154.904 28.6957 156.143 29.063C157.475 29.4762 158.209 30.4862 158.301 31.9095C158.393 32.9654 158.393 34.0214 158.301 35.0314C158.118 36.6383 157.199 37.6484 155.593 37.9697C154.904 38.1075 154.215 38.1993 153.527 38.1993C151.277 38.2452 149.027 38.1993 146.778 38.1993C146.273 38.1993 145.768 38.1534 145.263 38.0616C143.197 37.7861 142.187 36.7301 141.957 34.6641C141.911 34.205 141.911 33.7 141.865 33.2409C141.865 32.8277 141.498 32.5063 141.085 32.5063C140.671 32.5063 140.35 32.8277 140.304 33.2409C140.304 33.7 140.304 34.1132 140.304 34.5264C140.488 37.1433 141.59 38.6584 143.885 39.3012C144.344 39.4389 144.849 39.5766 145.308 39.5766C148.201 39.6225 151.093 39.6684 153.986 39.6684C154.628 39.6684 155.317 39.5307 155.96 39.393C158.072 38.888 159.311 37.6024 159.633 35.4905C159.77 34.4346 159.816 33.3786 159.725 32.3686C159.816 29.6139 158.577 28.007 155.868 27.4102Z" fill="white"/>
<path d="M90.8121 39.5306C91.2253 39.5306 91.5466 39.2092 91.5466 38.796V28.9251C91.7762 28.9251 91.9598 28.9251 92.1435 28.9251C94.8981 28.9251 97.6987 28.9251 100.453 28.9251C100.867 28.9251 101.096 29.0629 101.326 29.3842C103.3 32.6439 105.32 35.9036 107.294 39.1633C107.386 39.301 107.524 39.5306 107.661 39.5765C107.799 39.5765 107.891 39.5765 108.029 39.6224C108.58 39.6224 108.947 39.0256 108.626 38.5664C106.651 35.3527 104.677 32.1848 102.749 28.971C103.438 28.8792 103.713 28.8333 104.31 28.7415C106.697 28.3742 108.166 26.9969 108.58 24.6095C108.901 22.7271 108.901 20.7989 108.534 18.9165C108.166 17.0801 107.065 15.8405 105.274 15.3355C104.264 15.06 103.529 14.9223 102.473 14.9223C98.5251 14.8763 94.5309 14.9223 90.5825 14.9223C90.307 14.9223 90.0775 15.1518 90.0775 15.4273V38.796C90.0775 39.2092 90.3989 39.5306 90.8121 39.5306ZM91.5926 16.4373C91.7762 16.4373 91.9598 16.3914 92.1435 16.3914C95.6327 16.3914 99.076 16.3914 102.565 16.3914C103.208 16.3914 103.575 16.4373 104.218 16.5751C105.963 16.9423 106.973 17.9524 107.11 19.697C107.248 21.1662 107.248 22.6812 107.11 24.1504C106.927 25.9409 105.733 26.9969 103.851 27.2264C103.392 27.2723 103.254 27.3182 102.795 27.3182C99.2138 27.3182 95.5868 27.3182 92.0057 27.3182C91.868 27.3182 91.7762 27.3182 91.5926 27.2723C91.5926 23.7372 91.5926 20.1102 91.5926 16.4373Z" fill="white"/>
<path d="M84.0631 34.1592C84.1091 31.8636 84.0631 29.5681 84.0631 27.2725C84.0631 24.9769 84.0631 22.7273 84.0631 20.4318C84.0631 19.4217 83.8336 18.4117 83.3745 17.4934C82.4563 15.7029 80.8494 14.9683 78.967 14.8306C76.9928 14.6929 75.0187 14.6929 73.0445 14.6929C71.6672 14.6929 70.2439 14.6929 68.8666 14.8306C66.9842 15.0142 65.3773 15.7029 64.4132 17.5394C63.9082 18.4576 63.7245 19.5135 63.7245 20.5236C63.7245 25.0229 63.7245 29.5221 63.7245 33.9755C63.7245 35.0315 63.9541 36.0874 64.4132 37.0056C65.3773 38.7962 66.9842 39.5307 68.8666 39.6685C70.4735 39.8062 72.1263 39.8062 73.7332 39.7603C75.4319 39.7603 77.1306 39.7603 78.8293 39.6685C80.1607 39.5767 81.4003 39.1635 82.4103 38.1993C83.604 37.0975 84.0172 35.6742 84.0631 34.1592ZM79.0129 38.1534C78.5079 38.2452 78.0029 38.2911 77.4979 38.2911C75.1105 38.2911 72.7231 38.3371 70.3357 38.2911C69.6012 38.2911 68.8207 38.1534 68.0861 37.9698C66.6169 37.6025 65.7446 36.6384 65.4692 35.1692C65.3314 34.5264 65.2855 33.8837 65.2855 33.2409C65.2855 32.7359 65.2855 32.2309 65.2855 31.7259C65.2855 30.2108 65.2855 28.7417 65.2855 27.2266C65.2855 25.2524 65.2855 23.3241 65.2855 21.35C65.2855 20.845 65.2855 20.3858 65.3773 19.8808C65.6528 17.7689 66.8006 16.5752 68.9125 16.2998C69.4175 16.2079 69.8766 16.2079 70.3817 16.162C72.769 16.162 75.2023 16.162 77.5897 16.162C78.0947 16.162 78.6456 16.2079 79.1507 16.2998C81.3544 16.713 82.4563 18.0444 82.5481 20.4777C82.594 21.3041 82.5481 22.1305 82.5481 22.9569C82.5481 26.3543 82.5481 29.7058 82.5481 33.1032C82.5481 33.6082 82.5022 34.1132 82.4563 34.6183C82.1808 36.7302 81.033 37.832 79.0129 38.1534Z" fill="white"/>
<path d="M133.05 37.0056C133.555 36.0415 133.739 35.0314 133.739 33.9755C133.739 29.5221 133.739 25.0228 133.739 20.5695C133.739 20.1563 133.693 19.6971 133.601 19.284C133.28 17.4475 132.362 15.9784 130.571 15.3356C129.928 15.106 129.24 14.8765 128.597 14.8765C125.75 14.7847 122.904 14.7847 120.057 14.7847C119.506 14.7847 118.956 14.8306 118.451 14.9224C116.614 15.1979 115.053 15.8406 114.135 17.5852C113.63 18.5035 113.446 19.5135 113.446 20.5695C113.446 22.8191 113.446 25.1147 113.446 27.3643C113.446 27.3643 113.446 27.3643 113.4 27.3643C113.4 29.2926 113.4 31.2208 113.4 33.195C113.4 33.7459 113.4 34.2969 113.492 34.8019C113.676 36.6383 114.364 38.1993 116.109 39.0257C116.89 39.393 117.808 39.7144 118.68 39.7603C121.343 39.898 124.052 39.8521 126.715 39.898C127.357 39.898 128 39.8521 128.643 39.8062C130.479 39.4389 132.086 38.7961 133.05 37.0056ZM126.806 38.2911C124.603 38.2911 122.399 38.2911 120.195 38.2911C119.598 38.2911 119.001 38.2452 118.405 38.1534C116.201 37.7861 115.053 36.4088 114.961 34.1132C114.961 33.9755 114.961 33.8378 114.961 33.7459C114.961 31.5881 114.961 29.4303 114.961 27.2725C114.961 25.2983 114.961 23.3241 114.961 21.3499C114.961 20.8449 114.961 20.294 115.053 19.789C115.374 17.7689 116.522 16.667 118.542 16.3916C119.047 16.2997 119.598 16.2997 120.103 16.2538C122.399 16.2538 124.74 16.2538 127.036 16.2538C127.679 16.2538 128.367 16.3456 129.01 16.4375C130.801 16.8048 131.811 17.9066 132.04 19.7431C132.086 20.2481 132.132 20.7531 132.132 21.2581C132.132 25.2983 132.132 29.2926 132.132 33.3327C132.132 33.8378 132.086 34.3887 132.04 34.8937C131.765 36.822 130.571 37.9238 128.551 38.1993C128 38.2452 127.403 38.2911 126.806 38.2911Z" fill="white"/>
<path d="M115.558 47.9325C113.813 50.8708 112.023 53.7632 110.278 56.7015C109.682 57.7115 109.039 58.6757 108.396 59.7775C108.212 59.5021 108.075 59.2725 107.937 59.0889C105.687 55.3701 103.438 51.6972 101.188 47.9784C100.683 47.152 100.637 47.152 99.6729 47.3357C99.6729 53.1204 99.6729 58.9052 99.6729 64.7359C100.04 64.7359 100.316 64.7359 100.683 64.7359C100.683 59.5939 100.683 54.4978 100.683 49.4016C100.729 49.4016 100.775 49.4017 100.821 49.3557C100.912 49.4935 101.05 49.6312 101.142 49.7689C103.346 53.35 105.504 56.977 107.707 60.558C108.075 61.2008 108.717 61.2008 109.085 60.558C111.059 57.2984 113.033 53.9928 115.053 50.7331C115.329 50.228 115.65 49.7689 115.971 49.2639C116.017 49.2639 116.063 49.3098 116.109 49.3098C116.109 54.4519 116.109 59.548 116.109 64.69C116.476 64.69 116.798 64.69 117.119 64.69C117.119 58.8593 117.119 53.0745 117.119 47.2438C116.339 47.0602 115.925 47.2897 115.558 47.9325Z" fill="white"/>
<path d="M78.0947 55.6452C75.6614 55.6452 73.274 55.6452 70.8408 55.6452C70.8408 56.0125 70.8408 56.3338 70.8408 56.7011C72.9068 56.7011 74.9727 56.7011 76.9928 56.7011C76.9928 58.2162 77.0387 59.6394 76.9928 61.0627C76.901 62.7155 76.0287 63.6796 74.3759 63.7714C72.2181 63.9092 70.0603 63.9092 67.9484 63.7714C66.1119 63.6796 65.2396 62.6696 65.1937 60.879C65.1478 57.6193 65.1478 54.3597 65.1937 51.1C65.2396 49.2176 66.2037 48.2076 68.0861 48.1158C70.0603 48.0239 72.0803 48.0239 74.1004 48.1158C75.9828 48.2076 76.901 49.1717 76.9928 51.1C77.0387 51.6509 76.9928 52.2018 76.9928 52.7528C77.406 52.7528 77.7274 52.7528 78.0947 52.7528C78.0947 52.0641 78.1406 51.4673 78.0947 50.8704C77.957 48.7126 76.8092 47.3353 74.6514 47.1516C72.6772 46.968 70.6571 47.0139 68.6829 47.0139C65.5151 47.0598 64.0918 48.483 64.0918 51.6509C64.0918 54.0842 64.0918 56.5175 64.0918 58.9967C64.0918 59.7772 64.0459 60.6036 64.1377 61.384C64.3214 63.4041 65.4232 64.6896 67.4433 64.8274C69.8307 65.011 72.2181 65.011 74.5595 64.8733C76.901 64.6896 78.0488 63.3123 78.1406 60.9249C78.1865 59.3181 78.1406 57.6653 78.1406 56.0584C78.1865 55.8747 78.1406 55.7829 78.0947 55.6452Z" fill="white"/>
<path d="M159.541 55.6456C157.154 55.6456 154.766 55.6456 152.379 55.6456C152.379 56.0129 152.379 56.2884 152.379 56.6557C154.445 56.6557 156.465 56.6557 158.485 56.6557C158.485 58.2626 158.577 59.7776 158.439 61.2927C158.347 62.7619 157.429 63.6801 155.96 63.7719C153.756 63.8637 151.552 63.9096 149.349 63.7719C147.696 63.6801 146.824 62.7159 146.732 61.0631C146.64 59.2267 146.686 57.3903 146.686 55.5538C146.686 53.9469 146.686 52.2941 146.778 50.6873C146.869 49.2181 147.696 48.2081 149.165 48.1162C151.461 47.9785 153.756 47.9785 156.052 48.1162C157.521 48.2081 158.347 49.2181 158.531 50.6873C158.577 51.1005 158.577 51.4677 158.577 51.8809C158.577 52.1564 158.577 52.386 158.577 52.6614C158.99 52.6614 159.311 52.6614 159.679 52.6614C159.679 51.9728 159.725 51.33 159.679 50.6873C159.541 48.5753 158.393 47.198 156.281 47.0603C154.032 46.8766 151.782 46.8307 149.532 47.0144C146.961 47.198 145.722 48.4835 145.676 50.9627C145.63 54.3601 145.63 57.8035 145.722 61.2009C145.768 63.221 147.007 64.5983 148.981 64.736C151.415 64.9197 153.894 64.9197 156.373 64.736C158.347 64.5983 159.495 63.3587 159.679 61.4304C159.816 59.5481 159.725 57.6198 159.725 55.6916C159.587 55.6916 159.541 55.6916 159.541 55.6456Z" fill="white"/>
<path d="M140.075 62.8539C140.029 62.8539 139.983 62.8998 139.937 62.8998C139.845 62.762 139.753 62.6243 139.661 62.5325C136.172 57.62 132.683 52.7534 129.24 47.8409C128.78 47.1982 128.275 47.1523 127.587 47.29C127.587 47.5655 127.587 47.795 127.587 48.0705C127.587 53.3503 127.587 58.5841 127.587 63.8639C127.587 64.8739 127.587 64.8739 128.689 64.6903C128.689 59.5024 128.689 54.3144 128.689 48.9428C129.331 49.861 129.882 50.6415 130.433 51.422C133.509 55.7836 136.631 60.0992 139.661 64.4607C140.029 64.9658 140.488 64.828 140.901 64.7821C140.993 64.7821 141.085 64.2771 141.085 64.0475C141.085 58.7219 141.085 53.3962 141.085 48.0705C141.085 47.8409 141.085 47.6114 141.085 47.3359C140.671 47.3359 140.35 47.3359 139.983 47.3359C140.075 52.478 140.075 57.6659 140.075 62.8539Z" fill="white"/>
<path d="M121.894 64.7362C122.215 64.7362 122.537 64.7362 122.858 64.7362C122.858 58.8596 122.858 53.0748 122.858 47.2441C122.491 47.2441 122.215 47.2441 121.894 47.2441C121.894 53.0748 121.894 58.9055 121.894 64.7362Z" fill="white"/>
<path d="M89.3888 47.6574C89.2052 47.1983 88.9297 47.1064 88.4706 47.1064C88.0115 47.1064 87.8738 47.336 87.736 47.7033C86.4046 50.963 85.0273 54.2227 83.6959 57.4823C82.6858 59.8697 81.7217 62.2571 80.7116 64.6904C81.8135 64.874 81.8135 64.874 82.1808 63.9558C82.7317 62.5785 83.3286 61.2011 83.8795 59.8238C84.0172 59.4565 84.2009 59.2729 84.66 59.2729C87.2769 59.3188 89.9398 59.2729 92.5567 59.2729C92.9699 59.2729 93.1535 59.4106 93.2913 59.7779C93.8422 61.2011 94.439 62.6244 95.0359 64.0476C95.3573 64.874 95.4491 64.9199 96.4591 64.6904C96.3673 64.4608 96.3214 64.2772 96.2296 64.0476C93.8881 58.5383 91.6385 53.1208 89.3888 47.6574ZM84.4763 58.2169C85.8078 54.9572 87.1392 51.7435 88.5165 48.392C89.8938 51.7435 91.2253 54.9572 92.5567 58.2169C89.8479 58.2169 87.231 58.2169 84.4763 58.2169Z" fill="white"/>
<path d="M159.954 42.9736H63.7245V43.8H159.954V42.9736Z" fill="white"/>
</g>
<defs>
<clipPath id="clip0_6974_8">
<rect width="160" height="80" fill="white"/>
</clipPath>
</defs>
</svg>
