<svg width="160" height="80" viewBox="0 0 160 80" fill="none" xmlns="http://www.w3.org/2000/svg">
<path d="M5.67161 50.5042C5.67161 50.8332 5.67161 51.2382 5.67161 51.6432C5.67161 55.1869 5.69758 58.7305 5.67161 62.2742C5.64564 64.046 4.60677 65.1091 3.0225 65.0585C1.49017 65.0079 0.503249 63.9701 0.503249 62.2742C0.503249 54.7566 0.451306 47.2643 0.503249 39.7466C0.581164 33.2162 6.19104 27.85 13.0735 27.5463C19.956 27.2679 25.7737 32.0771 26.5009 38.6582C27.0722 43.7712 25.0724 47.8211 20.7871 50.5801C16.4498 53.3644 11.7749 53.4404 7.15199 51.061C6.73644 50.8585 6.3209 50.6054 5.93132 50.3776C5.90535 50.3776 5.85341 50.4029 5.67161 50.5042ZM5.69758 40.0757C5.69758 44.3028 9.25569 47.7705 13.6449 47.7452C17.9302 47.6946 21.5143 44.2521 21.5143 40.1263C21.5403 35.9751 17.8263 32.4062 13.541 32.4315C9.25569 32.4568 5.69758 35.8992 5.69758 40.0757Z" fill="white"/>
<path d="M86.3915 50.2763C86.3915 51.8203 86.3915 53.1871 86.3915 54.5793C86.3915 57.1611 86.4175 59.7176 86.3655 62.2994C86.3136 64.375 84.5994 65.59 82.8074 64.8812C81.7945 64.4762 81.2231 63.7422 81.2231 62.6538C81.2231 54.8071 81.1192 46.9604 81.2751 39.1137C81.379 33.2161 86.9369 28.0777 92.9883 27.5462C100.001 26.9387 106.104 31.9251 107.143 38.0506C108.234 44.4798 103.689 51.1622 97.0658 52.4025C93.5077 53.0606 90.2093 52.5797 87.1447 50.6559C86.9629 50.5547 86.781 50.4788 86.3915 50.2763ZM102.13 40.0756C102.13 35.8991 98.6241 32.4567 94.2868 32.4314C89.9496 32.4061 86.3395 35.8738 86.3395 40.1009C86.3395 44.2773 89.8457 47.6691 94.183 47.7198C98.5722 47.7704 102.13 44.328 102.13 40.0756Z" fill="white"/>
<path d="M154.307 51.0611C150.879 52.7316 147.581 52.9088 144.308 51.2889C141.815 50.0486 140.023 48.1502 139.192 45.5178C139.036 45.0368 139.166 44.2775 139.452 43.8472C141.192 41.316 141.062 38.2279 139.088 35.8739C138.854 35.5955 138.672 35.1399 138.672 34.7602C138.62 33.1656 138.646 31.5456 138.646 29.9509C138.672 28.3816 139.711 27.2932 141.166 27.3185C142.568 27.3438 143.581 28.4069 143.581 29.9256C143.607 34.0262 143.555 38.1014 143.607 42.2019C143.633 44.9356 145.581 47.0365 148.308 47.3655C150.905 47.6946 153.346 46.1759 154.074 43.6953C154.255 43.0625 154.281 42.3538 154.281 41.6957C154.307 37.8229 154.255 33.9249 154.307 30.0522C154.333 27.926 156.411 26.5845 158.125 27.6982C158.775 28.1032 159.398 29.0903 159.424 29.8244C159.502 38.3292 159.606 46.8593 159.398 55.3641C159.294 59.4393 156.879 62.3755 153.035 64.0208C149.087 65.6913 145.321 65.1598 141.997 62.502C140.932 61.6414 140.049 60.4771 139.296 59.3127C138.465 58.0218 138.958 56.5284 140.231 55.845C141.425 55.2122 142.932 55.5919 143.659 56.9081C145.451 60.2746 150.204 61.1605 153.035 57.9965C154.048 56.8575 154.385 55.4906 154.333 54.0226C154.255 53.1366 154.307 52.2001 154.307 51.0611Z" fill="white"/>
<path d="M49.0443 50.1497C42.7072 54.9842 30.7083 52.3012 28.6305 42.7839C27.0723 35.646 32.1627 28.6852 39.5127 27.5462C46.3432 26.4831 54.3425 31.3176 54.2646 40.3033C54.2386 43.2395 54.2646 46.201 54.2646 49.1372C54.2646 51.1368 53.6672 52.1493 52.3686 52.4024C50.8883 52.6809 49.9013 52.0481 49.0443 50.1497ZM41.5644 32.3554C37.2012 32.3301 33.4872 35.7978 33.4872 39.9237C33.4613 44.2267 36.9155 47.5679 41.3826 47.5932C45.9017 47.6185 49.1741 44.3532 49.1741 39.8984C49.1482 35.7472 45.7459 32.3554 41.5644 32.3554Z" fill="white"/>
<path d="M114.259 33.7983C114.259 39.0632 114.259 44.3534 114.259 49.6183C114.259 51.4154 113.298 52.4785 111.714 52.4532C110.104 52.4532 109.117 51.4154 109.117 49.6183C109.091 38.9873 109.091 28.3563 109.117 17.7253C109.117 16.0041 110.182 14.9156 111.766 14.9156C113.298 14.941 114.259 15.9787 114.259 17.7C114.259 23.0914 114.259 28.4322 114.259 33.7983Z" fill="white"/>
<path d="M55.9528 44.657C56.1605 42.0246 56.1086 39.3162 56.654 36.7597C57.8487 31.3177 63.3547 27.2678 68.9386 27.3437C70.5488 27.369 71.6136 28.2296 71.6916 29.5965C71.7954 31.0646 70.8864 32.1023 69.2762 32.3301C69.0684 32.3555 68.8347 32.3555 68.6269 32.3555C65.3545 32.558 62.6794 34.5323 61.6925 37.5444C61.4328 38.3291 61.3029 39.1897 61.2769 40.025C61.225 43.189 61.251 46.3529 61.251 49.4916C61.251 51.39 60.316 52.4531 58.6538 52.4278C57.0436 52.4278 56.1086 51.3394 56.1086 49.441C56.1086 47.8463 56.1086 46.2517 56.1086 44.6317C56.0826 44.657 56.0047 44.657 55.9528 44.657Z" fill="white"/>
<path d="M78.4182 39.8984C78.4182 43.1383 78.4182 46.4036 78.4182 49.6435C78.4182 51.39 77.5092 52.4025 75.9768 52.4531C74.3406 52.5037 73.2758 51.4912 73.2758 49.7447C73.2498 43.1636 73.2498 36.5825 73.2758 30.0014C73.2758 28.4068 74.4705 27.2931 75.9509 27.3437C77.4313 27.3943 78.4182 28.4321 78.4182 30.0268C78.4182 33.3426 78.4182 36.6079 78.4182 39.8984Z" fill="white"/>
<path d="M75.9509 22.3068C74.4705 22.3321 73.3018 21.2943 73.2758 19.9528C73.2498 18.6618 74.4445 17.4722 75.821 17.4469C77.2754 17.4216 78.3922 18.434 78.4182 19.8262C78.4442 21.2437 77.4313 22.2814 75.9509 22.3068Z" fill="white"/>
<path d="M137.66 36.3802C136.231 35.393 134.855 34.3805 133.4 33.4187C130.413 31.4697 128.855 30.4825 125.842 28.5335L124.388 27.5969C122.388 25.9011 118.726 26.4832 117.168 28.4829C117.012 28.6854 116.882 28.8625 116.726 29.065C115.402 31.09 115.61 33.3427 116.051 35.4943C116.441 37.342 118.518 37.8483 120.233 36.7345C120.57 36.1524 121.09 35.5955 121.245 34.9627C121.583 33.6971 122.051 33.4187 123.193 34.1274C124.57 34.9627 125.92 35.8233 127.271 36.6839C128.154 37.342 129.063 37.9748 129.946 38.6329C130.647 40.177 130.439 40.8351 129.011 41.7969C127.271 42.9613 125.557 44.1003 123.817 45.2646C121.895 46.2518 121.869 46.2518 121.271 44.1509C120.908 42.9106 119.817 42.2525 118.181 42.3285C116.493 42.8094 115.843 43.6194 115.817 45.29C115.817 46.1759 115.791 47.0618 115.817 47.9224C115.999 51.5926 119.531 53.9213 123.063 52.7063C124.18 52.0482 125.323 51.3901 126.44 50.732C128.44 49.4411 130.413 48.1502 132.413 46.8593C132.517 46.7834 132.621 46.6821 132.725 46.6062C132.725 46.6315 132.725 46.6315 132.725 46.6568C133.53 46.1253 134.361 45.5937 135.166 45.0622C135.374 44.6572 135.374 44.6572 135.166 45.0622C136.699 44.3281 138.023 43.3916 138.62 41.7463C139.322 39.772 139.166 37.9495 137.66 36.3802Z" fill="#E85003"/>
</svg>
