<svg width="160" height="80" viewBox="0 0 160 80" fill="none" xmlns="http://www.w3.org/2000/svg">
<path d="M65.3052 32.4189C66.4436 32.4189 67.4785 32.6259 68.41 32.9364C69.2379 33.2469 70.0658 33.6608 70.5833 34.1783C71.2042 34.6958 71.6182 35.3167 71.9287 35.9377C72.2392 36.6621 72.3426 37.2831 72.3426 38.0075C72.3426 38.7319 72.2392 39.3529 71.9287 40.0773C71.6182 40.6983 71.3077 41.3192 70.6868 41.9402C70.1693 42.4576 69.4449 42.9751 68.7204 43.3891C67.8925 43.803 66.9611 44.1135 65.9262 44.217C65.9262 44.7344 65.9262 45.1484 65.8227 45.5624C65.8227 45.7694 65.8227 45.8729 65.8227 46.0798C65.8227 46.2868 65.8227 46.3903 65.8227 46.5973C65.8227 46.7008 65.8227 46.9078 65.8227 47.0113C65.8227 47.1147 65.8227 47.2182 65.8227 47.2182C65.8227 47.7357 65.7192 48.2532 65.6157 48.7706C65.5122 49.2881 65.4087 49.8055 65.2017 50.323C64.9947 50.8404 64.7878 51.2544 64.4773 51.7719C64.1668 52.2893 63.8563 52.5998 63.5459 53.0138C63.1319 53.3242 62.8214 53.6347 62.304 53.8417C61.89 53.9452 61.3725 54.0487 60.8551 54.0487C60.2341 54.0487 59.8202 53.9452 59.3027 53.6347C58.8887 53.3242 58.4748 52.9103 58.1643 52.3928C57.8538 51.8754 57.5434 51.3579 57.3364 50.6335C57.1294 50.0125 56.9224 49.2881 56.8189 48.5636C56.7154 47.8392 56.6119 47.1147 56.5084 46.3903C56.3015 45.7694 56.3015 45.1484 56.3015 44.424C56.3015 43.2856 56.4049 42.2506 56.6119 41.2157C56.8189 40.1808 57.1294 39.2494 57.4399 38.318C57.8538 37.3865 58.2678 36.6621 58.7853 35.8342C59.3027 35.1097 59.9237 34.4888 60.5446 33.9713C61.1656 33.4539 61.89 33.0399 62.7179 32.7294C63.6494 32.6259 64.4773 32.4189 65.3052 32.4189ZM59.0957 44.217C59.0957 44.5275 59.0957 44.8379 59.0957 45.3554C59.0957 45.8728 59.0957 46.3903 59.1992 46.9078C59.1992 47.4252 59.3027 48.0462 59.4062 48.5636C59.5097 49.0811 59.6132 49.5985 59.7167 50.116C59.8202 50.53 60.0271 50.9439 60.2341 51.2544C60.4411 51.5649 60.7516 51.6684 61.0621 51.6684C61.3725 51.6684 61.683 51.5649 61.9935 51.2544C62.2005 51.0474 62.4075 50.737 62.6144 50.323C62.8214 49.909 62.9249 49.4951 63.0284 48.9776C63.1319 48.4601 63.2354 47.9427 63.2354 47.5287C63.2354 47.0113 63.3389 46.5973 63.3389 46.0798C63.3389 45.6659 63.3389 45.2519 63.3389 44.9414V44.424C62.7179 44.217 62.304 44.01 61.9935 43.803C61.683 43.596 61.3725 43.4925 61.269 43.2856C61.0621 43.0786 60.9586 42.9751 60.9586 42.7681C60.9586 42.5611 60.8551 42.3541 60.8551 42.1472C60.8551 42.0437 60.8551 41.9402 60.8551 41.7332C60.8551 41.6297 60.8551 41.5262 60.9586 41.4227C60.9586 41.3192 61.0621 41.2157 61.0621 41.2157C61.1656 41.1122 61.1656 41.1122 61.269 41.1122C61.3725 41.1122 61.3725 41.1122 61.476 41.1122C61.5795 41.1122 61.5795 41.2157 61.683 41.2157C61.89 41.3192 62.097 41.4227 62.304 41.5262C62.5109 41.6297 62.6144 41.6297 62.8214 41.7332C62.9249 41.8367 63.1319 41.8367 63.2354 41.8367C63.2354 41.7332 63.2354 41.5262 63.2354 41.3192C63.2354 41.0087 63.2354 40.6983 63.3389 40.3878C63.3389 40.0773 63.4424 39.6634 63.5459 39.3529C63.6494 38.9389 63.7528 38.6284 63.9598 38.318C64.1668 38.0075 64.3738 37.8005 64.6843 37.5935C64.9947 37.3865 65.3052 37.283 65.7192 37.283C65.8227 37.283 65.9262 37.283 66.1332 37.283C66.2366 37.283 66.3401 37.3865 66.4436 37.3865C66.5471 37.49 66.6506 37.49 66.7541 37.697C66.8576 37.8005 66.8576 37.904 66.8576 38.111V38.2145C66.8576 38.2145 66.8576 38.2145 66.8576 38.318L66.2366 41.0087L66.1332 41.8367C66.8576 41.7332 67.3751 41.5262 67.8925 41.3192C68.41 41.1122 68.8239 40.8018 69.1344 40.4913C69.4449 40.1808 69.6519 39.8703 69.8588 39.4564C70.0658 39.0424 70.0658 38.7319 70.0658 38.318C70.0658 37.904 69.9623 37.49 69.8588 37.0761C69.7554 36.6621 69.4449 36.3516 69.1344 35.9377C68.7204 35.6272 68.3065 35.3167 67.6855 35.1097C67.0646 34.9027 66.3401 34.7993 65.3052 34.7993C64.5808 34.7993 63.9598 34.9027 63.4424 35.2132C62.8214 35.5237 62.4075 35.8342 61.89 36.3516C61.476 36.7656 61.0621 37.3865 60.7516 37.904C60.4411 38.525 60.1306 39.1459 59.9237 39.8703C59.7167 40.5948 59.5097 41.3192 59.4062 42.0437C59.0957 42.7681 59.0957 43.4925 59.0957 44.217Z" fill="#CB4F27"/>
<path d="M75.2404 51.3578C74.6195 51.3578 73.9985 51.2543 73.4811 51.0473C72.9636 50.8403 72.5496 50.5299 72.2392 50.1159C71.9287 49.7019 71.6182 49.288 71.5147 48.7705C71.3077 48.2531 71.3077 47.7356 71.3077 47.1146C71.3077 46.7007 71.3077 46.2867 71.4112 45.8727C71.5147 45.4588 71.6182 45.0448 71.7217 44.6308C71.8252 44.2169 72.0322 43.8029 72.3427 43.3889C72.5496 42.975 72.8601 42.6645 73.1706 42.354C73.4811 42.0436 73.7915 41.8366 74.2055 41.6296C74.6195 41.4226 75.0334 41.4226 75.5509 41.4226C75.9649 41.4226 76.2753 41.5261 76.5858 41.6296C76.8963 41.7331 77.2068 41.9401 77.4137 42.147C77.6207 42.354 77.8277 42.6645 78.0347 42.975C78.1382 43.2855 78.2417 43.6994 78.2417 44.0099C78.2417 44.4239 78.1382 44.8378 77.9312 45.2518C77.7242 45.6658 77.4137 46.0797 77.1033 46.4937C76.6893 46.9077 76.2753 47.2181 75.7579 47.5286C75.2404 47.8391 74.723 48.0461 74.102 48.2531C74.2055 48.46 74.309 48.5635 74.4125 48.7705C74.516 48.874 74.6195 48.9775 74.723 49.081C74.8265 49.1845 74.9299 49.1845 75.0334 49.1845C75.1369 49.1845 75.2404 49.1845 75.4474 49.1845C75.8614 49.1845 76.2753 49.081 76.7928 48.9775C77.2068 48.7705 77.7242 48.5635 78.1382 48.3565C78.5521 48.1496 78.9661 47.8391 79.3801 47.5286C79.794 47.2181 80.1045 46.9077 80.415 46.7007L81.7604 48.0461C81.1394 48.667 80.5185 49.1845 79.794 49.7019C79.4836 49.9089 79.1731 50.1159 78.8626 50.3229C78.5521 50.5299 78.1382 50.7368 77.8277 50.8403C77.4137 51.0473 77.1033 51.1508 76.6893 51.2543C76.0684 51.3578 75.6544 51.3578 75.2404 51.3578ZM73.7915 46.4937C73.9985 46.4937 74.309 46.3902 74.6195 46.2867C74.9299 46.1832 75.1369 45.9762 75.4474 45.7693C75.6544 45.5623 75.8614 45.3553 76.0684 45.1483C76.2753 44.9413 76.3788 44.7343 76.3788 44.4239C76.3788 44.1134 76.2753 43.9064 76.1718 43.6994C76.0684 43.4924 75.9649 43.3889 75.7579 43.3889C75.4474 43.3889 75.2404 43.4924 75.0334 43.5959C74.8265 43.6994 74.6195 43.8029 74.516 44.0099C74.4125 44.2169 74.309 44.4239 74.2055 44.6308C74.102 44.8378 74.102 45.0448 73.9985 45.3553C73.9985 45.5623 73.895 45.7693 73.895 45.9762C73.7915 46.1832 73.7915 46.3902 73.7915 46.4937Z" fill="#CB4F27"/>
<path d="M90.7642 48.8743C90.5572 49.0813 90.3502 49.3918 90.1432 49.7022C89.8327 50.0127 89.6257 50.3232 89.2118 50.5302C88.9013 50.8406 88.4873 51.0476 88.1769 51.2546C87.7629 51.4616 87.4524 51.5651 87.0385 51.5651C86.6245 51.5651 86.2105 51.4616 85.9 51.1511C85.5896 50.8406 85.3826 50.4267 85.0721 49.9092C84.8651 50.1162 84.6581 50.3232 84.4512 50.5302C84.2442 50.7371 83.9337 50.9441 83.6232 51.0476C83.3128 51.2546 83.0023 51.3581 82.6918 51.4616C82.3813 51.5651 82.0709 51.6686 81.7604 51.6686C81.4499 51.6686 81.1394 51.5651 80.829 51.4616C80.5185 51.3581 80.208 51.1511 80.001 50.8406C79.794 50.6336 79.5871 50.3232 79.3801 49.9092C79.2766 49.4952 79.1731 49.1848 79.1731 48.6673C79.1731 48.1499 79.2766 47.6324 79.3801 47.1149C79.4836 46.5975 79.6906 46.08 80.001 45.4591C80.208 44.9416 80.5185 44.4242 80.9325 44.0102C81.2429 43.5962 81.6569 43.1823 82.0709 42.7683C82.4848 42.4578 82.8988 42.1473 83.4163 41.9404C83.8302 41.7334 84.3477 41.6299 84.8651 41.6299C85.0721 41.6299 85.1756 41.6299 85.2791 41.7334C85.3826 41.8369 85.4861 41.8369 85.4861 41.9404C85.5896 42.0438 85.5896 42.1473 85.6931 42.1473C85.7966 42.2508 85.7966 42.2508 85.9 42.3543C86.0035 42.3543 86.107 42.4578 86.107 42.4578C86.2105 42.4578 86.314 42.4578 86.4175 42.4578C86.521 42.4578 86.521 42.4578 86.6245 42.4578C86.728 42.4578 86.8315 42.4578 86.8315 42.4578C86.935 42.4578 87.0385 42.4578 87.1419 42.4578C87.2454 42.4578 87.3489 42.5613 87.3489 42.5613C87.4524 42.6648 87.4524 42.7683 87.5559 42.8718C87.5559 42.9753 87.6594 43.1823 87.6594 43.3892C87.6594 43.6997 87.6594 44.1137 87.5559 44.5276C87.4524 44.9416 87.4524 45.3556 87.3489 45.7695C87.2454 46.1835 87.1419 46.5975 87.1419 47.0114C87.0385 47.4254 87.0385 47.8394 87.0385 48.2533C87.0385 48.5638 87.0385 48.8743 87.1419 48.9778C87.2454 49.1848 87.3489 49.2883 87.5559 49.2883C87.6594 49.2883 87.8664 49.2883 87.9699 49.1848C88.1769 49.0813 88.2804 48.9778 88.4873 48.8743C88.6943 48.7708 88.7978 48.6673 89.0048 48.4603C89.2118 48.3568 89.3153 48.1498 89.4188 48.0464C89.7292 47.6324 90.1432 47.2184 90.4537 46.8045L90.7642 48.8743ZM81.8639 48.0464C81.8639 48.2533 81.8639 48.3568 81.8639 48.5638C81.8639 48.7708 81.9674 48.8743 81.9674 48.9778C82.0709 49.0813 82.0709 49.1848 82.1744 49.2883C82.2778 49.3918 82.3813 49.3917 82.5883 49.3917C82.7953 49.3917 83.1058 49.2883 83.3128 49.0813C83.5197 48.8743 83.7267 48.5638 83.8302 48.2533C83.9337 47.9429 84.1407 47.6324 84.2442 47.3219C84.3477 47.0114 84.3477 46.701 84.4512 46.494L85.0721 43.3892C84.7616 43.3892 84.5547 43.4927 84.2442 43.5962C83.9337 43.6997 83.7267 43.9067 83.5197 44.2172C83.3128 44.4242 83.1058 44.7346 82.8988 45.0451C82.6918 45.3556 82.4848 45.6661 82.3813 45.9765C82.2778 46.287 82.1744 46.701 82.0709 47.0114C81.8639 47.4254 81.8639 47.7359 81.8639 48.0464Z" fill="#CB4F27"/>
<path d="M89.5222 49.2883C89.5222 48.9778 89.5222 48.6673 89.6257 48.2533C89.6257 47.8394 89.7292 47.4254 89.7292 47.0114C89.8327 46.5975 89.8327 46.08 89.9362 45.6661C90.0397 45.1486 90.1432 44.7346 90.1432 44.3207C90.2467 43.9067 90.3502 43.4927 90.4537 43.1823C90.5572 42.8718 90.6607 42.5613 90.7641 42.3543C90.8676 42.2508 90.8676 42.0438 90.9711 41.9404C91.0746 41.8369 91.0746 41.7334 91.1781 41.7334C91.2816 41.7334 91.3851 41.6299 91.4886 41.6299C91.5921 41.6299 91.6956 41.6299 91.9026 41.6299C92.1095 41.6299 92.213 41.6299 92.3165 41.6299C92.42 41.6299 92.5235 41.7334 92.5235 41.7334C92.5235 41.8369 92.627 41.9404 92.627 42.0439C92.627 42.1473 92.627 42.3543 92.627 42.5613C92.627 42.7683 92.627 43.0788 92.627 43.4927C92.627 43.9067 92.627 44.2172 92.627 44.5276H92.7305C92.834 44.2172 93.041 43.9067 93.2479 43.5962C93.4549 43.2857 93.6619 42.9753 93.8689 42.6648C94.0759 42.3543 94.3864 42.1473 94.6968 41.9404C95.0073 41.7334 95.3178 41.6299 95.7317 41.6299C95.8352 41.6299 96.0422 41.6299 96.1457 41.7334C96.2492 41.7334 96.3527 41.8369 96.4562 41.9404C96.5597 42.0438 96.6632 42.1473 96.6632 42.2508C96.7667 42.3543 96.7667 42.5613 96.7667 42.6648C96.7667 42.7683 96.7667 42.9753 96.7667 43.1823C96.7667 43.3892 96.6632 43.5962 96.6632 43.8032C96.6632 44.0102 96.5597 44.2172 96.5597 44.5276C96.5597 44.7346 96.5597 44.9416 96.5597 45.0451C96.5597 45.2521 96.5597 45.4591 96.6632 45.6661C96.6632 45.873 96.7667 45.9765 96.8702 46.08C96.9736 46.1835 97.0771 46.287 97.1806 46.287C97.2841 46.287 97.3876 46.3905 97.4911 46.3905C97.8016 46.3905 98.1121 46.287 98.4225 46.1835C98.733 46.08 99.0435 45.873 99.3539 45.6661C99.6644 45.4591 99.9749 45.2521 100.285 44.9416L100.078 47.4254C99.8714 47.5289 99.6644 47.6324 99.4574 47.8394C99.2505 47.9429 98.94 48.1499 98.733 48.2533C98.4225 48.3568 98.2155 48.4603 97.9051 48.5638C97.5946 48.6673 97.3876 48.6673 97.0771 48.6673C96.5597 48.6673 96.1457 48.5638 95.8352 48.3568C95.5248 48.1499 95.2143 47.8394 95.1108 47.5289C94.9038 47.2184 94.8003 46.8045 94.6968 46.3905C94.5933 45.9765 94.4898 45.5626 94.4898 45.1486H94.2829L92.42 50.3232C92.3165 50.6336 92.213 50.8406 92.1095 50.9441C92.006 51.1511 91.9026 51.2546 91.7991 51.3581C91.6956 51.4616 91.5921 51.5651 91.4886 51.5651C91.3851 51.5651 91.2816 51.6686 91.1781 51.6686C90.8676 51.6686 90.6607 51.5651 90.4537 51.4616C90.2467 51.3581 90.1432 51.1511 90.0397 50.9441C89.9362 50.7371 89.9362 50.5302 89.8327 50.2197C89.5223 49.8057 89.5222 49.4952 89.5222 49.2883Z" fill="#CB4F27"/>
<path d="M104.011 38.8355V38.939C104.011 39.0425 104.011 39.146 103.908 39.2495C103.804 39.353 103.701 39.4564 103.597 39.5599C103.39 39.5599 103.08 39.5599 102.873 39.5599C102.459 39.5599 102.148 39.5599 101.941 39.4564C101.734 39.4564 101.527 39.353 101.424 39.2495C101.32 39.146 101.217 39.0425 101.217 38.939C101.217 38.8355 101.217 38.732 101.217 38.6285C101.217 37.5936 101.527 36.6622 102.045 35.9377C102.562 35.2133 103.287 34.5923 104.218 34.0749C105.149 33.5574 106.288 33.2469 107.633 33.04C108.979 32.833 110.428 32.7295 111.98 32.7295C113.015 32.7295 114.153 32.7295 115.292 32.833C116.43 32.9365 117.672 33.04 118.914 33.247C119.224 33.3504 119.535 33.4539 119.638 33.6609C119.742 33.8679 119.845 34.0749 119.845 34.2819C119.845 34.3854 119.845 34.5923 119.742 34.6958C119.742 34.7993 119.638 35.0063 119.535 35.1098C119.431 35.2133 119.328 35.3168 119.224 35.4203C119.121 35.5238 118.914 35.5238 118.81 35.5238H118.707H118.603C118.189 35.4203 117.672 35.4203 117.154 35.3168C116.637 35.2133 116.12 35.2133 115.499 35.2133C114.878 35.2133 114.36 35.1098 113.739 35.1098C113.118 35.1098 112.497 35.1098 111.876 35.1098C111.669 35.1098 111.462 35.1098 111.255 35.1098C110.945 35.1098 110.738 35.1098 110.531 35.2133C110.221 35.2133 110.014 35.3168 109.703 35.3168C109.703 35.4203 109.703 35.5238 109.703 35.5238C109.703 35.6273 109.703 35.7307 109.6 35.9377C109.6 36.1447 109.496 36.3517 109.496 36.5587C109.496 36.8692 109.393 37.1796 109.393 37.5936C109.289 38.0076 109.289 38.525 109.186 39.146C109.082 39.7669 109.082 40.4914 108.979 41.3193H114.774C114.981 41.3193 115.085 41.3193 115.188 41.4228C115.292 41.5263 115.395 41.5263 115.395 41.6298C115.395 41.7333 115.499 41.8367 115.499 41.9402C115.499 42.0437 115.499 42.1472 115.499 42.2507C115.499 42.5612 115.395 42.8717 115.292 42.9752C115.188 43.1821 114.981 43.1821 114.878 43.1821C114.878 43.1821 114.671 43.1821 114.36 43.1821C114.05 43.1821 113.739 43.1821 113.325 43.1821C112.911 43.1821 112.497 43.1821 112.083 43.1821C111.669 43.1821 111.152 43.1821 110.738 43.1821C110.324 43.1821 109.91 43.1821 109.6 43.1821C109.289 43.1821 108.979 43.1821 108.772 43.1821C108.668 44.0101 108.461 44.838 108.358 45.5624C108.151 46.2869 108.047 47.1148 107.737 47.7358C107.53 48.4602 107.219 48.9777 106.909 49.5986C106.598 50.1161 106.184 50.6335 105.77 51.0475C105.356 51.4615 104.839 51.7719 104.218 51.9789C103.597 52.1859 102.976 52.2894 102.148 52.2894C101.941 52.2894 101.838 52.2894 101.527 52.2894C101.32 52.2894 101.113 52.1859 100.803 52.1859C100.596 52.1859 100.285 52.0824 100.078 51.9789C99.8714 51.8754 99.6644 51.7719 99.4574 51.6684C99.2505 51.565 99.147 51.4615 99.0435 51.2545C98.94 51.0475 98.8365 50.944 98.8365 50.737C98.8365 50.6335 98.8365 50.53 98.94 50.3231C98.94 50.1161 99.0435 50.0126 99.147 49.8056C99.2505 49.5986 99.3539 49.4951 99.4574 49.3916C99.5609 49.2881 99.7679 49.1847 99.9749 49.1847C100.182 49.1847 100.492 49.1847 100.699 49.2881C100.906 49.3916 101.217 49.4951 101.527 49.4951C101.838 49.5986 102.045 49.7021 102.355 49.7021C102.666 49.8056 102.976 49.8056 103.183 49.8056C103.39 49.8056 103.597 49.7021 103.804 49.4951C104.011 49.2881 104.218 49.0812 104.425 48.7707C104.632 48.4602 104.839 48.0462 104.942 47.6323C105.149 47.2183 105.253 46.7009 105.46 46.1834C105.563 45.6659 105.77 45.1485 105.874 44.631C105.977 44.1136 106.081 43.4926 106.288 42.9752H105.046C104.942 42.9752 104.736 42.9752 104.632 42.9752C104.425 42.9752 104.322 42.8717 104.115 42.8717C103.908 42.7682 103.804 42.7682 103.701 42.5612C103.597 42.4577 103.494 42.3542 103.494 42.1472C103.494 42.0437 103.494 41.9402 103.597 41.8367C103.701 41.7333 103.804 41.6298 103.908 41.6298C104.322 41.5263 104.632 41.4228 104.942 41.4228C105.253 41.3193 105.46 41.3193 105.667 41.2158C105.874 41.2158 106.081 41.1123 106.288 41.1123C106.495 41.1123 106.598 41.0088 106.805 41.0088C107.012 40.2844 107.116 39.6634 107.219 39.0425C107.323 38.525 107.426 38.0076 107.426 37.5936C107.53 37.1796 107.53 36.7657 107.633 36.3517C107.737 35.9377 107.737 35.5238 107.84 35.1098C107.219 35.3168 106.702 35.5238 106.288 35.7307C105.874 35.9377 105.46 36.2482 105.149 36.5587C104.839 36.8692 104.632 37.0761 104.529 37.3866C104.011 38.2145 104.011 38.525 104.011 38.8355Z" fill="#FAA919"/>
<path d="M119.121 49.1846C118.914 49.3916 118.603 49.7021 118.189 49.9091C117.775 50.2196 117.465 50.4265 116.948 50.6335C116.534 50.8405 116.12 51.0475 115.602 51.151C115.188 51.2545 114.774 51.358 114.36 51.358C114.05 51.358 113.739 51.358 113.429 51.2545C113.222 51.151 113.015 51.0475 112.808 50.8405C112.704 50.6335 112.497 50.4265 112.497 50.2196C112.394 49.9091 112.394 49.7021 112.394 49.3916C112.394 48.9777 112.394 48.4602 112.497 47.8392C112.601 47.2183 112.704 46.7008 112.911 46.0799C113.015 45.4589 113.222 44.838 113.325 44.217C113.532 43.5961 113.636 43.0786 113.739 42.5612C113.739 42.3542 113.843 42.2507 114.05 42.1472C114.153 42.0437 114.36 41.9402 114.567 41.8367C114.774 41.7332 114.981 41.7332 115.188 41.6298C115.395 41.6298 115.602 41.5263 115.706 41.5263C116.016 41.5263 116.223 41.6297 116.327 41.7332C116.43 41.8367 116.43 41.9402 116.43 42.1472C116.43 42.2507 116.43 42.5612 116.327 42.7682C116.327 42.9751 116.327 43.2856 116.223 43.6996C116.12 44.1135 116.016 44.424 115.913 44.838C115.809 45.252 115.706 45.6659 115.602 46.0799C115.499 46.4939 115.395 46.9078 115.292 47.3218C115.188 47.7358 115.188 48.0462 115.188 48.3567C115.188 48.6672 115.188 48.8742 115.292 49.0811C115.395 49.2881 115.499 49.3916 115.706 49.3916C115.913 49.3916 116.223 49.2881 116.534 49.0811C116.844 48.8742 117.154 48.6672 117.465 48.4602C117.775 48.2532 118.086 47.9427 118.396 47.7358C118.707 47.4253 118.914 47.2183 119.224 47.0113V49.1846H119.121ZM114.464 38.525C114.464 38.318 114.464 38.2145 114.567 38.0075C114.671 37.8006 114.774 37.5936 114.878 37.4901C115.085 37.2831 115.292 37.1796 115.499 37.0761C115.809 36.9726 116.12 36.8691 116.43 36.8691C116.637 36.8691 116.948 36.8691 117.155 36.9726C117.361 37.0761 117.568 37.0761 117.672 37.1796C117.879 37.2831 117.982 37.4901 118.086 37.5936C118.189 37.8006 118.189 38.0075 118.189 38.2145C118.189 38.4215 118.189 38.6285 118.086 38.939C117.982 39.146 117.879 39.3529 117.672 39.5599C117.465 39.7669 117.258 39.8704 117.051 39.9739C116.844 40.0774 116.534 40.1809 116.12 40.1809C115.499 40.1809 115.085 40.0774 114.774 39.7669C114.671 39.3529 114.464 38.939 114.464 38.525Z" fill="#FAA919"/>
<path d="M121.605 51.3578C120.984 51.3578 120.363 51.2543 119.949 51.0473C119.431 50.8403 119.017 50.5299 118.707 50.1159C118.396 49.7019 118.086 49.288 117.982 48.7705C117.775 48.2531 117.775 47.7356 117.775 47.1146C117.775 46.7007 117.775 46.2867 117.879 45.8727C117.982 45.4588 118.086 45.0448 118.293 44.6308C118.5 44.2169 118.707 43.8029 118.914 43.3889C119.121 42.975 119.431 42.6645 119.742 42.354C120.052 42.0436 120.363 41.8366 120.777 41.6296C121.191 41.4226 121.605 41.4226 122.019 41.4226C122.433 41.4226 122.743 41.5261 123.157 41.6296C123.467 41.7331 123.778 41.9401 123.985 42.147C124.192 42.354 124.399 42.6645 124.502 42.8715C124.606 43.182 124.709 43.4924 124.709 43.8029C124.709 44.0099 124.709 44.3204 124.606 44.5274C124.502 44.7343 124.502 44.9413 124.295 45.1483C124.192 45.3553 123.985 45.4588 123.881 45.5623C123.778 45.6658 123.571 45.7693 123.364 45.7693C123.054 45.7693 122.847 45.6658 122.743 45.5623C122.64 45.3553 122.536 45.0448 122.536 44.7343C122.536 44.6308 122.536 44.5274 122.536 44.3204C122.536 44.2169 122.536 44.0099 122.536 43.9064C122.536 43.6994 122.536 43.5959 122.433 43.4924C122.433 43.3889 122.329 43.2855 122.226 43.2855C121.915 43.2855 121.708 43.3889 121.501 43.4924C121.294 43.5959 121.087 43.8029 120.984 44.0099C120.88 44.2169 120.777 44.4239 120.673 44.7343C120.57 45.0448 120.57 45.2518 120.466 45.5623C120.466 45.8727 120.363 46.0797 120.363 46.3902C120.363 46.5972 120.363 46.8042 120.363 47.0111C120.363 47.2181 120.363 47.5286 120.466 47.8391C120.466 48.1496 120.57 48.3565 120.673 48.5635C120.777 48.7705 120.984 48.9775 121.191 49.081C121.398 49.1845 121.708 49.288 122.019 49.288C122.329 49.288 122.743 49.1845 123.157 48.9775C123.571 48.7705 123.985 48.5635 124.399 48.2531C124.813 47.9426 125.227 47.6321 125.537 47.2181C125.951 46.8042 126.262 46.4937 126.469 46.1832L127.193 47.4251C126.676 48.1496 126.158 48.874 125.537 49.3915C125.33 49.5984 125.02 49.9089 124.709 50.1159C124.399 50.3229 124.088 50.5299 123.778 50.7369C123.467 50.9438 123.157 51.0473 122.743 51.1508C122.329 51.3578 122.019 51.3578 121.605 51.3578Z" fill="#FAA919"/>
<path d="M134.748 49.0811C134.127 49.4951 133.506 49.8055 132.989 50.116C132.471 50.4265 131.954 50.6335 131.643 50.8405C131.229 51.0475 130.919 51.1509 130.608 51.2544C130.298 51.3579 129.987 51.3579 129.78 51.3579C129.263 51.3579 128.746 51.1509 128.435 50.8405C128.021 50.53 127.711 50.0125 127.4 49.4951C127.09 48.8741 126.883 48.1497 126.779 47.3218C126.676 46.4938 126.572 45.4589 126.572 44.424C126.572 44.01 126.572 43.5961 126.572 43.0786C126.572 42.5611 126.676 42.1472 126.676 41.6297C126.469 41.6297 126.262 41.5262 126.158 41.5262C126.055 41.5262 125.951 41.5262 125.744 41.4227C125.641 41.4227 125.434 41.4227 125.227 41.3192C125.02 41.3192 124.709 41.2157 124.399 41.2157C124.192 41.2157 124.088 41.1123 123.985 41.1123C123.881 41.0088 123.778 41.0088 123.778 40.9053C123.778 40.8018 123.674 40.6983 123.674 40.6983C123.674 40.5948 123.674 40.4913 123.674 40.4913C123.674 40.3878 123.778 40.2843 123.881 40.1808C123.985 40.0773 124.192 40.0773 124.399 39.9739C124.606 39.9739 124.813 39.8704 125.123 39.8704C125.33 39.8704 125.641 39.8704 125.848 39.8704C126.055 39.8704 126.262 39.8704 126.469 39.8704C126.676 39.8704 126.779 39.8704 126.883 39.8704C127.09 38.9389 127.297 38.0075 127.607 37.1796C127.918 36.3516 128.228 35.5237 128.539 34.7993C128.849 34.0748 129.263 33.5574 129.677 33.1434C130.091 32.7294 130.505 32.5225 131.022 32.5225C131.333 32.5225 131.643 32.626 131.85 32.7294C132.057 32.9364 132.264 33.1434 132.471 33.3504C132.678 33.6609 132.782 33.9713 132.885 34.2818C132.989 34.6958 132.989 35.0063 132.989 35.4202C132.989 35.7307 132.989 36.1447 132.885 36.4551C132.782 36.8691 132.678 37.1796 132.471 37.5935C132.264 38.0075 132.161 38.4215 131.85 38.732C131.643 39.1459 131.436 39.5599 131.126 39.9739C131.229 39.9739 131.333 39.9739 131.436 39.9739C131.54 39.9739 131.747 39.9739 131.954 39.9739C132.161 39.9739 132.368 39.9739 132.575 39.9739C132.782 39.9739 132.989 39.9739 133.196 39.9739C133.403 39.9739 133.61 39.9739 133.817 39.9739C134.024 39.9739 134.127 39.9739 134.231 39.9739C134.334 39.9739 134.438 40.0773 134.541 40.1808C134.645 40.2843 134.645 40.4913 134.645 40.6983C134.645 40.9053 134.541 41.1123 134.438 41.3192C134.334 41.4227 134.127 41.5262 134.024 41.5262H129.987C129.78 41.8367 129.573 42.0437 129.367 42.3542C129.16 42.6646 128.953 42.8716 128.849 43.0786C128.849 43.4926 128.746 43.9065 128.746 44.3205C128.746 44.5275 128.746 44.7345 128.746 44.838C128.746 45.0449 128.746 45.2519 128.746 45.3554C128.746 45.5624 128.746 45.7694 128.746 45.8729C128.746 46.0799 128.746 46.1833 128.746 46.3903C128.746 46.8043 128.746 47.1148 128.849 47.3218C128.953 47.5287 129.056 47.8392 129.16 47.9427C129.263 48.1497 129.47 48.2532 129.677 48.2532C129.884 48.3567 130.091 48.3567 130.298 48.3567C130.401 48.3567 130.608 48.3567 130.815 48.2532C131.022 48.1497 131.229 48.0462 131.54 47.9427C131.85 47.8392 132.057 47.6322 132.368 47.5287C132.678 47.3217 132.989 47.2183 133.196 47.0113C133.506 46.8043 133.713 46.5973 134.024 46.3903C134.231 46.1833 134.541 45.9764 134.748 45.7694V49.0811ZM131.333 35.9377C131.333 35.8342 131.333 35.7307 131.333 35.7307C131.333 35.6272 131.333 35.5237 131.229 35.4202C131.229 35.3167 131.126 35.3167 131.022 35.2132C130.919 35.1097 130.815 35.1097 130.712 35.1097C130.505 35.1097 130.401 35.3167 130.194 35.6272C129.987 35.9377 129.884 36.3516 129.677 36.8691C129.47 37.3866 129.367 37.904 129.16 38.525C129.056 39.1459 128.849 39.6634 128.746 40.2843C128.849 40.2843 128.953 40.2843 129.056 40.2843C129.16 40.2843 129.263 40.2843 129.367 40.2843C129.573 39.9739 129.78 39.5599 129.987 39.1459C130.194 38.732 130.401 38.318 130.608 37.904C130.815 37.4901 130.919 37.1796 131.022 36.7656C131.333 36.4551 131.333 36.1447 131.333 35.9377Z" fill="#FAA919"/>
<path d="M140.751 49.1846C140.544 49.3916 140.233 49.7021 139.819 49.9091C139.405 50.2196 139.095 50.4265 138.577 50.6335C138.163 50.8405 137.749 51.0475 137.232 51.151C136.818 51.2545 136.404 51.358 135.99 51.358C135.679 51.358 135.369 51.358 135.059 51.2545C134.852 51.151 134.645 51.0475 134.438 50.8405C134.334 50.6335 134.127 50.4265 134.127 50.2196C134.024 49.9091 134.024 49.7021 134.024 49.3916C134.024 48.9777 134.024 48.4602 134.127 47.8392C134.231 47.2183 134.334 46.7008 134.541 46.0799C134.645 45.4589 134.852 44.838 134.955 44.217C135.162 43.5961 135.266 43.0786 135.369 42.5612C135.369 42.3542 135.473 42.2507 135.679 42.1472C135.783 42.0437 135.99 41.9402 136.197 41.8367C136.404 41.7332 136.611 41.7332 136.818 41.6298C137.025 41.6298 137.232 41.5263 137.335 41.5263C137.646 41.5263 137.853 41.6297 137.956 41.7332C138.06 41.8367 138.163 41.9402 138.163 42.1472C138.163 42.2507 138.163 42.5612 138.06 42.7682C137.956 43.0786 137.853 43.3891 137.749 43.6996C137.646 44.1135 137.542 44.424 137.439 44.838C137.335 45.252 137.232 45.6659 137.128 46.0799C137.025 46.4939 136.921 46.9078 136.921 47.3218C136.818 47.7358 136.818 48.0462 136.818 48.3567C136.818 48.6672 136.818 48.8742 136.921 49.0811C137.025 49.2881 137.128 49.3916 137.335 49.3916C137.542 49.3916 137.853 49.2881 138.163 49.0811C138.474 48.8742 138.784 48.6672 139.095 48.4602C139.405 48.2532 139.716 47.9427 140.026 47.7358C140.337 47.4253 140.544 47.2183 140.854 47.0113V49.1846H140.751ZM136.093 38.525C136.093 38.318 136.093 38.2145 136.197 38.0075C136.3 37.8006 136.404 37.5936 136.507 37.4901C136.611 37.2831 136.921 37.1796 137.128 37.0761C137.439 36.9726 137.749 36.8691 138.06 36.8691C138.267 36.8691 138.577 36.8691 138.784 36.9726C138.991 37.0761 139.198 37.0761 139.302 37.1796C139.509 37.2831 139.612 37.4901 139.716 37.5936C139.819 37.8006 139.819 38.0075 139.819 38.2145C139.819 38.4215 139.819 38.6285 139.716 38.939C139.612 39.146 139.509 39.3529 139.302 39.5599C139.095 39.7669 138.888 39.8704 138.681 39.9739C138.474 40.0774 138.163 40.1809 137.749 40.1809C137.128 40.1809 136.714 40.0774 136.404 39.7669C136.197 39.3529 136.093 38.939 136.093 38.525Z" fill="#FAA919"/>
<path d="M146.339 43.5959C146.546 44.0099 146.65 44.4239 146.753 44.8378C146.857 45.2518 146.857 45.6658 146.857 46.0797C146.857 46.4937 146.857 46.9077 146.753 47.3216C146.65 47.7356 146.546 48.1496 146.339 48.5635C146.132 48.9775 145.925 49.288 145.718 49.7019C145.511 50.0124 145.201 50.3229 144.89 50.6334C144.58 50.8403 144.269 51.0473 143.855 51.2543C143.441 51.3578 143.131 51.4613 142.613 51.4613C141.992 51.4613 141.475 51.3578 141.061 51.0473C140.647 50.7368 140.233 50.4264 140.026 50.0124C139.716 49.5984 139.509 49.081 139.405 48.5635C139.302 48.0461 139.198 47.4251 139.198 46.9077C139.198 46.1832 139.302 45.4588 139.509 44.7343C139.716 44.1134 140.026 43.4924 140.44 42.975C140.854 42.4575 141.372 42.147 141.992 41.8366C142.613 41.5261 143.338 41.4226 144.062 41.4226C144.683 41.4226 145.304 41.5261 145.925 41.7331C146.546 41.9401 147.064 42.2505 147.581 42.561C148.098 42.8715 148.512 43.2855 149.03 43.6994C149.444 44.1134 149.858 44.6308 150.272 45.0448L150.065 46.4937C149.858 46.2867 149.651 45.9762 149.34 45.6658C149.03 45.3553 148.719 45.0448 148.305 44.8378C147.995 44.5274 147.581 44.3204 147.271 44.0099C146.96 43.8029 146.65 43.5959 146.339 43.3889V43.5959ZM143.131 49.3915C143.338 49.3915 143.545 49.288 143.855 49.081C144.062 48.874 144.269 48.5635 144.476 48.1496C144.683 47.7356 144.787 47.4251 144.89 46.9077C144.994 46.4937 144.994 46.0797 144.994 45.6658C144.994 45.3553 144.994 45.0448 144.89 44.7343C144.89 44.4239 144.787 44.2169 144.683 44.0099C144.58 43.8029 144.476 43.6994 144.269 43.4924C144.166 43.3889 143.959 43.2855 143.752 43.2855C143.441 43.2855 143.234 43.3889 142.924 43.6994C142.717 43.9064 142.406 44.2169 142.199 44.6308C141.992 45.0448 141.889 45.4588 141.785 45.8727C141.682 46.2867 141.578 46.8042 141.578 47.2181C141.578 47.5286 141.578 47.7356 141.682 48.0461C141.785 48.253 141.785 48.5635 141.889 48.667C141.992 48.874 142.199 48.9775 142.406 49.081C142.613 49.3915 142.924 49.3915 143.131 49.3915Z" fill="#FAA919"/>
<path d="M149.03 49.288C149.03 48.874 149.03 48.2531 149.133 47.7356C149.237 47.1146 149.237 46.4937 149.34 45.8727C149.444 45.2518 149.547 44.6308 149.651 44.1134C149.754 43.4924 149.858 43.0785 149.961 42.6645C150.065 42.354 150.168 42.0436 150.375 41.8366C150.582 41.6296 150.893 41.5261 151.307 41.5261C151.721 41.5261 151.928 41.6296 152.135 41.8366C152.238 42.0436 152.342 42.354 152.342 42.768C152.342 42.8715 152.342 42.975 152.342 43.182C152.342 43.3889 152.342 43.5959 152.238 43.8029C152.238 44.0099 152.135 44.2169 152.135 44.4239C152.135 44.6308 152.031 44.8378 152.031 45.0448C152.031 45.2518 151.928 45.3553 151.928 45.5623C151.928 45.6658 151.928 45.7693 151.928 45.8727H152.135C152.135 45.7693 152.238 45.6658 152.342 45.4588C152.445 45.2518 152.549 45.0448 152.652 44.8378C152.756 44.6308 152.859 44.4239 153.066 44.1134C153.17 43.9064 153.377 43.5959 153.48 43.3889C153.584 43.182 153.687 42.975 153.791 42.768C153.894 42.561 153.998 42.4575 153.998 42.354C154.204 41.9401 154.515 41.7331 154.722 41.6296C155.032 41.5261 155.343 41.4226 155.653 41.4226C155.964 41.4226 156.274 41.5261 156.481 41.8366C156.688 42.1471 156.792 42.561 156.792 43.0785C156.792 43.182 156.792 43.2855 156.792 43.4924C156.792 43.6994 156.688 43.9064 156.688 44.1134C156.688 44.3204 156.585 44.6308 156.481 44.9413C156.378 45.2518 156.378 45.5623 156.274 45.8727C156.274 46.1832 156.171 46.4937 156.171 46.8042C156.171 47.1146 156.171 47.4251 156.171 47.6321C156.171 48.0461 156.274 48.46 156.378 48.667C156.481 48.9775 156.688 49.081 156.895 49.081C156.999 49.081 157.102 49.081 157.206 48.9775C157.309 48.874 157.516 48.874 157.62 48.7705C157.827 48.667 157.93 48.5635 158.137 48.46C158.344 48.3565 158.448 48.1496 158.655 48.0461C159.069 47.7356 159.379 47.3216 159.793 46.9077L160 49.288L159.483 49.7019C159.172 49.9089 158.862 50.1159 158.655 50.3229C158.344 50.5299 158.034 50.7368 157.723 50.9438C157.413 51.1508 157.102 51.2543 156.688 51.3578C156.378 51.4613 155.964 51.5648 155.55 51.5648C155.136 51.5648 154.825 51.2543 154.618 50.7369C154.308 50.2194 154.204 49.3915 154.204 48.3565C154.204 47.9426 154.204 47.5286 154.308 47.0111C154.411 46.4937 154.411 45.9762 154.515 45.4588H154.308L151.617 50.8403C151.514 51.1508 151.307 51.3578 151.1 51.4613C150.893 51.5648 150.686 51.5648 150.479 51.5648C150.168 51.5648 149.961 51.4613 149.754 51.3578C149.547 51.2543 149.444 51.0473 149.34 50.8403C149.237 50.6334 149.133 50.4264 149.133 50.1159C149.03 49.8054 149.03 49.495 149.03 49.288Z" fill="#FAA919"/>
<path d="M77.8277 60.3618L77.7242 59.6373C77.9312 59.7408 78.1382 59.7408 78.2417 59.8443C78.3452 59.8443 78.5521 59.8443 78.6556 59.8443C78.7591 59.8443 78.8626 59.8443 78.9661 59.8443C79.0696 59.8443 79.0696 59.7408 79.1731 59.7408C79.1731 59.6373 79.2766 59.6373 79.2766 59.5338V59.4303C79.2766 59.4303 79.2766 59.4304 79.2766 59.3269C79.2766 59.3269 79.2766 59.3269 79.2766 59.2234C79.2766 59.2234 79.2766 59.2234 79.1731 59.1199L79.0696 59.0164L78.8626 58.9129C78.6556 58.8094 78.5521 58.7059 78.4487 58.6024C78.3452 58.4989 78.2417 58.4989 78.2417 58.3954C78.1382 58.2919 78.1382 58.1885 78.0347 58.1885C78.0347 58.085 78.0347 57.9815 78.0347 57.878C78.0347 57.671 78.0347 57.5675 78.1382 57.464C78.2417 57.3605 78.3452 57.257 78.5521 57.1535C78.7591 57.05 78.9661 57.05 79.1731 57.05C79.4836 57.05 79.794 57.05 80.208 57.1535V57.878C80.001 57.7745 79.6906 57.7745 79.4836 57.7745C79.3801 57.7745 79.2766 57.7745 79.1731 57.7745C79.0696 57.7745 78.9661 57.878 78.9661 57.878C78.9661 57.878 78.8626 57.9815 78.8626 58.085V58.1885C78.8626 58.1885 78.8626 58.2919 78.9661 58.2919L79.0696 58.3954C79.0696 58.3954 79.1731 58.4989 79.3801 58.6024C79.4836 58.7059 79.5871 58.8094 79.6906 58.9129C79.794 59.0164 79.8975 59.1199 79.8975 59.1199C80.001 59.2234 80.001 59.3269 80.001 59.4303C80.001 59.5338 80.1045 59.6373 80.1045 59.7408C80.1045 59.9478 80.1045 60.0513 80.001 60.1548C79.8975 60.2583 79.794 60.3618 79.5871 60.4653C79.3801 60.5688 79.1731 60.5688 78.8626 60.5688C78.7591 60.5688 78.5521 60.5688 78.3452 60.5688C78.2417 60.4653 78.0347 60.4653 77.8277 60.3618Z" fill="white"/>
<path d="M88.3838 59.7409C88.3838 59.8444 88.2803 60.0514 88.2803 60.4653C88.0734 60.4653 87.9699 60.5688 87.8664 60.5688C87.7629 60.5688 87.6594 60.5688 87.5559 60.5688C87.3489 60.5688 87.2454 60.5688 87.1419 60.5688C87.0384 60.5688 86.935 60.4653 86.8315 60.3619C86.728 60.2584 86.728 60.1549 86.6245 60.0514C86.6245 59.9479 86.6245 59.8444 86.6245 59.7409V59.6374C86.6245 59.6374 86.6245 59.4304 86.6245 59.12L86.728 57.7746H86.2105C86.2105 57.6711 86.2105 57.4641 86.2105 57.1536H86.728C86.728 57.0501 86.728 56.8431 86.728 56.5327L87.1419 56.4292C87.2454 56.4292 87.3489 56.4292 87.6594 56.3257C87.6594 56.6362 87.6594 56.9466 87.6594 57.1536H88.4873C88.4873 57.4641 88.4873 57.6711 88.4873 57.7746H87.6594C87.6594 58.706 87.5559 59.2234 87.5559 59.3269C87.5559 59.4304 87.5559 59.5339 87.5559 59.6374C87.5559 59.7409 87.6594 59.7409 87.6594 59.8444C87.7629 59.8444 87.7629 59.8444 87.8664 59.8444C87.9699 59.8444 87.9699 59.8444 88.0734 59.8444C88.1769 59.8444 88.2803 59.7409 88.3838 59.7409Z" fill="white"/>
<path d="M97.6981 60.4653C97.4911 60.4653 97.3876 60.4653 97.2841 60.4653C97.1806 60.4653 96.9736 60.4653 96.8702 60.4653V59.9478C96.7667 60.0513 96.7667 60.1548 96.6632 60.1548C96.6632 60.2583 96.5597 60.2583 96.4562 60.3618C96.3527 60.4653 96.2492 60.4653 96.2492 60.4653C96.1457 60.4653 96.0422 60.5688 95.9387 60.5688C95.8352 60.5688 95.7317 60.5688 95.6283 60.5688C95.4213 60.5688 95.2143 60.5688 95.0073 60.4653C94.8003 60.3618 94.6968 60.2583 94.5933 60.1548C94.4898 60.0513 94.3864 59.8443 94.3864 59.5339V59.4304L94.4898 58.6024V57.464C94.4898 57.3606 94.4898 57.2571 94.4898 57.1536C94.6968 57.1536 94.9038 57.1536 95.0073 57.1536C95.1108 57.1536 95.3178 57.1536 95.4213 57.1536L95.3178 58.7059C95.3178 58.8094 95.3178 58.9129 95.3178 59.0164C95.3178 59.1199 95.3178 59.1199 95.3178 59.2234C95.3178 59.4304 95.3178 59.5339 95.4213 59.6374C95.4213 59.7409 95.5248 59.8443 95.6283 59.8443C95.7317 59.9478 95.8352 59.9478 96.0422 59.9478C96.1457 59.9478 96.2492 59.9478 96.4562 59.8443C96.5597 59.8443 96.6632 59.7409 96.7667 59.6374C96.8701 59.5339 96.8702 59.4304 96.9736 59.3269C96.9736 59.2234 97.0771 59.1199 97.0771 58.9129C97.0771 58.8094 97.0771 58.6024 97.0771 58.292C97.0771 57.9815 97.0771 57.5675 97.0771 57.1536C97.2841 57.1536 97.4911 57.1536 97.5946 57.1536C97.6981 57.1536 97.9051 57.1536 98.0086 57.1536C98.0086 57.464 97.9051 57.878 97.9051 58.292C97.9051 58.8094 97.9051 59.1199 97.8016 59.4304C97.6981 59.7409 97.6981 60.0513 97.6981 60.4653Z" fill="white"/>
<path d="M107.323 60.4653C107.116 60.4653 107.012 60.4653 106.909 60.4653C106.805 60.4653 106.598 60.4653 106.495 60.4653V59.8443C106.391 59.9478 106.288 60.0513 106.288 60.1548C106.184 60.2583 106.081 60.2583 105.977 60.3618C105.874 60.4653 105.77 60.4653 105.667 60.4653C105.563 60.4653 105.46 60.4653 105.253 60.4653C105.046 60.4653 104.839 60.4653 104.632 60.3618C104.425 60.2583 104.322 60.1548 104.115 60.0513C104.011 59.9478 103.908 59.7408 103.804 59.5339C103.701 59.3269 103.701 59.1199 103.701 58.9129C103.701 58.6024 103.804 58.292 103.908 58.085C104.011 57.7745 104.218 57.5675 104.322 57.464C104.529 57.257 104.736 57.1535 104.942 57.1535C105.149 57.0501 105.46 57.0501 105.77 57.0501C105.977 57.0501 106.184 57.0501 106.495 57.1535C106.495 56.8431 106.495 56.5326 106.495 56.2221V56.0151C106.702 56.0151 106.909 56.0151 107.012 56.0151C107.116 56.0151 107.323 56.0151 107.53 56.0151C107.53 56.5326 107.426 57.3605 107.426 58.2919C107.323 59.2234 107.323 59.9478 107.323 60.4653ZM106.495 57.671C106.288 57.671 106.184 57.5675 105.977 57.5675C105.77 57.5675 105.667 57.5675 105.46 57.671C105.253 57.671 105.149 57.7745 105.046 57.878C104.942 57.9815 104.839 58.1885 104.736 58.2919C104.632 58.4989 104.632 58.6024 104.632 58.8094C104.632 59.0164 104.632 59.1199 104.736 59.3269C104.839 59.4304 104.839 59.5338 105.046 59.6373C105.149 59.7408 105.356 59.7408 105.46 59.7408C105.563 59.7408 105.667 59.7408 105.77 59.6373C105.874 59.6373 105.977 59.5338 106.081 59.4304C106.184 59.3269 106.184 59.2234 106.288 59.1199C106.391 59.0164 106.391 58.8094 106.391 58.6024C106.495 58.4989 106.495 58.1885 106.495 57.671Z" fill="white"/>
<path d="M113.636 60.4652C113.636 60.1548 113.739 59.8443 113.739 59.6373C113.739 59.3268 113.739 58.9129 113.843 58.3954C113.843 57.9814 113.843 57.464 113.843 57.05C114.05 57.05 114.257 57.05 114.36 57.05C114.464 57.05 114.671 57.05 114.878 57.05C114.878 57.464 114.774 57.7745 114.774 58.1884C114.774 58.4989 114.774 58.9129 114.774 59.4303C114.774 59.8443 114.774 60.2583 114.774 60.4652C114.567 60.4652 114.464 60.4652 114.257 60.4652C113.946 60.4652 113.843 60.4652 113.636 60.4652ZM113.739 56.5326C113.739 56.3256 113.739 56.1186 113.739 56.0151V55.9116C113.946 55.9116 114.153 55.9116 114.257 55.9116C114.464 55.9116 114.567 55.9116 114.774 55.9116C114.774 56.0151 114.774 56.0151 114.774 56.1186V56.5326C114.567 56.5326 114.464 56.5326 114.36 56.5326C114.153 56.5326 113.946 56.5326 113.739 56.5326Z" fill="white"/>
<path d="M122.64 56.9465C122.847 56.9465 123.157 56.9465 123.364 57.05C123.571 57.1535 123.778 57.257 123.985 57.3605C124.192 57.464 124.295 57.671 124.399 57.878C124.502 58.0849 124.502 58.2919 124.502 58.6024C124.502 58.8094 124.502 59.1199 124.399 59.3268C124.295 59.5338 124.192 59.7408 123.985 59.9478C123.778 60.1548 123.571 60.2583 123.364 60.3617C123.157 60.4652 122.847 60.4652 122.536 60.4652C122.329 60.4652 122.019 60.4652 121.812 60.3617C121.605 60.2583 121.398 60.1548 121.191 60.0513C120.984 59.9478 120.88 59.7408 120.777 59.5338C120.673 59.3268 120.673 59.1199 120.673 58.8094C120.673 58.6024 120.673 58.2919 120.777 58.0849C120.88 57.878 120.984 57.671 121.191 57.464C121.398 57.257 121.605 57.1535 121.812 57.05C122.122 57.05 122.329 56.9465 122.64 56.9465ZM122.64 57.671C122.433 57.671 122.329 57.671 122.122 57.7745C122.019 57.878 121.812 57.9814 121.812 58.1884C121.708 58.3954 121.708 58.6024 121.708 58.8094C121.708 59.0164 121.708 59.2233 121.812 59.3268C121.915 59.4303 122.019 59.6373 122.122 59.7408C122.226 59.8443 122.433 59.8443 122.64 59.8443C122.847 59.8443 123.054 59.8443 123.157 59.7408C123.261 59.6373 123.364 59.5338 123.467 59.3268C123.571 59.1199 123.571 58.9129 123.571 58.7059C123.571 58.4989 123.571 58.3954 123.467 58.1884C123.364 58.0849 123.364 57.878 123.157 57.878C122.95 57.671 122.847 57.671 122.64 57.671Z" fill="white"/>
<path d="M130.298 60.3618L130.194 59.6373C130.401 59.7408 130.608 59.7408 130.712 59.8443C130.815 59.8443 131.022 59.8443 131.126 59.8443C131.229 59.8443 131.333 59.8443 131.436 59.8443C131.54 59.8443 131.54 59.7408 131.643 59.7408C131.643 59.6373 131.747 59.6373 131.747 59.5338V59.4303C131.747 59.4303 131.747 59.4304 131.747 59.3269C131.747 59.3269 131.747 59.3269 131.747 59.2234C131.747 59.2234 131.747 59.2234 131.643 59.1199L131.54 59.0164L131.333 58.9129C131.126 58.8094 131.022 58.7059 130.919 58.6024C130.815 58.4989 130.712 58.4989 130.712 58.3954C130.608 58.2919 130.608 58.1885 130.608 58.1885C130.608 58.085 130.608 57.9815 130.608 57.878C130.608 57.671 130.608 57.5675 130.712 57.464C130.815 57.3605 130.919 57.257 131.126 57.1535C131.333 57.05 131.54 57.05 131.747 57.05C132.057 57.05 132.368 57.05 132.782 57.1535V57.878C132.575 57.7745 132.264 57.7745 132.057 57.7745C131.954 57.7745 131.85 57.7745 131.747 57.7745C131.643 57.7745 131.54 57.878 131.54 57.878C131.54 57.878 131.436 57.9815 131.436 58.085V58.1885C131.436 58.1885 131.436 58.2919 131.54 58.2919L131.643 58.3954C131.643 58.3954 131.747 58.4989 131.954 58.6024C132.057 58.7059 132.161 58.8094 132.264 58.9129C132.368 59.0164 132.471 59.1199 132.471 59.1199C132.575 59.2234 132.575 59.3269 132.575 59.4303C132.575 59.5338 132.678 59.6373 132.678 59.7408C132.678 59.9478 132.678 60.0513 132.575 60.1548C132.471 60.2583 132.368 60.3618 132.161 60.4653C131.954 60.5688 131.747 60.5688 131.436 60.5688C131.333 60.5688 131.126 60.5688 130.919 60.5688C130.712 60.4653 130.505 60.4653 130.298 60.3618Z" fill="white"/>
<path d="M49.264 35.7308C49.264 35.6273 49.0571 35.5238 48.7466 35.4203C47.9186 35.0064 44.7104 33.247 40.8812 33.661H40.7777C40.6742 33.661 40.6742 33.661 40.5707 33.661C38.3974 33.9715 36.3276 35.1099 34.3613 36.5587C33.9473 36.1448 33.5333 35.8343 33.2228 35.7308C32.8089 35.6273 32.1879 35.7308 30.6356 36.3518C29.0832 36.9727 27.7378 37.4902 27.2203 37.6972C27.0134 37.8006 26.7029 37.9041 26.9099 38.0076C27.1168 38.1111 27.3238 38.2146 27.7378 38.3181C27.9448 38.3181 28.2553 38.4216 28.5657 38.5251C27.4273 39.0425 26.4959 39.353 26.0819 39.56C25.8749 39.6635 25.7715 39.767 25.7715 39.767C25.7715 39.8705 25.7715 39.8705 25.8749 39.974C25.8749 39.974 26.0819 40.0775 26.3924 40.0775C27.9448 40.0775 28.7727 40.0775 29.6006 40.2844H29.7041C29.8076 40.2844 29.9111 40.2844 29.9111 40.3879C29.6006 40.8019 29.6006 41.6298 29.9111 42.5613C30.1181 43.1822 30.4286 43.6997 30.8425 44.0101C30.7391 44.3206 30.6356 44.5276 30.6356 44.7346C30.2216 45.666 29.8076 46.287 28.8762 47.3219C28.8762 47.3219 28.8762 47.3219 28.7727 47.4254C28.6692 47.5289 28.5657 47.7358 28.3587 47.8393C28.1518 48.1498 28.0483 48.2533 28.0483 48.3568L28.1518 48.4603C28.2553 48.5638 28.4622 48.5638 28.5657 48.5638C29.0832 48.4603 30.739 48.0463 32.2914 47.5289C33.8438 47.0114 34.2578 46.8044 34.5682 46.287C34.7752 45.9765 35.1892 45.252 35.4997 44.4241C38.5009 44.3206 41.3987 43.9066 43.779 42.5613C43.8825 42.5613 43.8825 42.4578 43.986 42.4578H44.0895C47.2977 40.4914 48.7466 37.1797 49.1605 36.3518C49.264 36.0413 49.264 35.8343 49.264 35.7308Z" fill="white"/>
<path d="M31.6705 41.4227C31.6705 41.5262 31.6705 41.7332 31.774 41.9402C31.8775 42.2507 31.981 42.4577 32.0845 42.4577C32.7054 42.9751 32.9124 43.9065 32.7054 44.631C32.6019 44.838 32.6019 45.045 32.4984 45.1484C32.6019 45.1484 32.6019 45.1484 32.7054 45.045C32.8089 44.838 33.1194 44.3205 33.4298 43.5961C33.7403 42.8716 34.5682 42.3542 35.3962 42.3542C38.3974 42.2507 40.8812 41.7332 42.6406 40.6983C42.6406 40.6983 42.7441 40.6983 42.7441 40.5948C42.7441 40.5948 42.7441 40.5948 42.8476 40.5948C44.6069 39.4564 45.7453 37.8005 46.4698 36.6621C45.4349 36.2482 43.8825 35.7307 42.2266 35.7307C41.9162 35.7307 41.5022 35.7307 41.1917 35.8342C41.1917 35.8342 41.1917 35.8342 41.0882 35.8342H40.9847C39.3289 36.1447 37.5695 36.9726 35.6032 38.318C34.7752 38.8355 33.7403 38.8355 33.0159 38.2145C32.9124 38.111 32.8089 38.0075 32.7054 37.904C32.4984 38.0075 32.0845 38.111 31.4635 38.318C31.2565 38.4215 31.153 38.4215 30.946 38.525C31.36 38.8355 31.774 39.2494 31.8775 39.6634C31.981 40.2843 31.981 40.9053 31.6705 41.4227Z" fill="white"/>
<path d="M31.36 41.1123C30.5321 39.3529 29.7041 37.4901 29.4971 34.4888C29.1867 30.1422 27.8413 27.7619 24.9435 26.8304C25.461 24.9676 27.2203 22.7943 28.9797 21.4489L29.1867 21.2419L29.0832 20.9314C28.8762 20.414 26.7029 20 26.5994 20H26.4959C26.1854 20 25.8749 20.3105 25.461 20.8279C24.633 21.9663 23.4946 24.5536 23.1842 26.4165C19.562 26.0025 17.0782 27.9689 15.5258 32.3155C14.9048 34.0749 13.7664 35.3168 12.628 36.6621C11.0756 38.525 9.2128 40.5948 8.38487 44.217C7.66043 47.2183 8.28137 50.2195 10.0407 52.9103C12.0071 55.8081 15.2153 57.8779 18.734 58.3954C19.355 58.4989 19.9759 58.4989 20.5969 58.4989C27.0133 58.4989 32.2914 53.8417 32.8089 47.9427C33.0159 44.9415 32.1879 43.0786 31.36 41.1123Z" fill="white"/>
<path d="M29.0832 34.5923C28.7727 29.8317 27.1168 27.5549 23.4946 27.0375C19.8724 26.52 17.3886 28.2794 15.9397 32.626C14.3874 36.8692 10.2477 38.318 8.79883 44.5275C7.34995 50.944 12.3175 57.1535 18.8375 58.0849C25.3575 59.1198 31.8774 54.6697 32.3949 48.0462C32.8089 42.3542 29.4971 41.0088 29.0832 34.5923Z" fill="#A56A0A"/>
<path d="M20.5969 58.6024C19.9759 58.6024 19.355 58.6024 18.734 58.4989C15.2153 57.9814 12.0071 56.0151 10.0407 53.0138C8.28137 50.4266 7.66043 47.3218 8.38487 44.3206C9.2128 40.6984 11.0756 38.525 12.628 36.7657C13.7664 35.4203 14.9048 34.1784 15.5258 32.419C17.0782 27.8654 19.7689 26.0026 23.5981 26.52C27.4273 27.141 29.1867 29.5213 29.4971 34.4889C29.7041 37.4901 30.5321 39.2495 31.36 41.1123C32.2914 43.0787 33.1193 44.9415 32.8089 48.1497C32.3949 54.0488 27.0133 58.6024 20.5969 58.6024ZM22.2527 27.3479C19.562 27.3479 17.5956 29.1073 16.2502 32.7295C15.6293 34.6958 14.3874 35.9377 13.1455 37.3866C11.4896 39.2495 9.83375 41.1123 9.10931 44.631C8.48836 47.3218 9.00582 50.2196 10.6617 52.5999C12.5245 55.2907 15.4223 57.1535 18.734 57.671C19.355 57.7745 19.8724 57.7745 20.4934 57.7745C26.3924 57.7745 31.36 53.5313 31.8775 48.0463C32.0844 45.1485 31.36 43.3891 30.4286 41.4228C29.6006 39.6634 28.7727 37.6971 28.5657 34.5924C28.2552 30.0387 26.7029 27.9689 23.3911 27.4514C23.0807 27.3479 22.6667 27.3479 22.2527 27.3479Z" fill="#A56A0A"/>
<path d="M28.5657 35.4203C28.2553 30.8666 27.1168 28.2793 23.5981 27.7619C20.0794 27.2444 17.8026 29.0038 16.3537 33.1434C14.9048 37.2831 10.8687 38.6285 9.41979 44.631C7.97091 50.737 12.835 56.636 19.0445 57.5674C25.3575 58.4989 31.2565 53.9452 31.774 47.6323C32.1879 42.1472 28.9797 41.6297 28.5657 35.4203Z" fill="url(#paint0_radial)"/>
<g opacity="0.5">
<path opacity="0.5" d="M20.2864 31.9015C20.2864 33.0399 20.1829 34.3853 18.1131 37.5935C16.0432 40.6983 16.1467 40.6983 15.2153 46.9078C15.1118 47.7357 14.6978 49.0811 12.421 49.0811C11.1791 49.0811 10.7652 46.9078 10.8687 46.2868C11.5931 40.9052 14.3874 39.7668 16.9747 36.1446C19.5619 32.6259 18.2166 30.8666 19.4584 30.7631C19.8724 30.6596 20.3899 31.2805 20.2864 31.9015Z" fill="#F9F3A6"/>
</g>
<path d="M26.5994 20.5175C26.9099 20.5175 28.7727 21.0349 28.6692 21.1384C26.4959 22.7943 24.3226 25.7955 24.3226 27.9688C24.3226 28.3828 23.5981 28.0723 23.4946 27.9688C23.1842 26.106 25.5645 20.6209 26.5994 20.5175Z" fill="#915C01"/>
<path d="M24.1156 28.5898C23.9086 28.5898 23.2877 28.4863 23.1842 28.0724C22.8737 26.313 24.4261 22.4838 25.5645 20.9314C25.9784 20.414 26.2889 20.1035 26.5994 20.1035H26.7029C26.8064 20.1035 28.9797 20.5175 29.1867 21.0349L29.2902 21.3454L29.0832 21.5524C27.0133 23.1048 24.84 26.0025 24.9435 28.0724C24.9435 28.2794 24.84 28.3828 24.7365 28.4863C24.5296 28.4863 24.3226 28.5898 24.1156 28.5898ZM26.5994 20.9314C25.9784 21.1384 24.0121 25.3816 23.9086 27.4514C24.1156 25.3816 25.9784 22.8978 27.8413 21.2419C27.3238 21.0349 26.8064 20.9314 26.5994 20.9314Z" fill="#462500"/>
<path d="M26.7029 20.7244L27.9448 21.0348C26.3924 21.9663 24.1156 25.692 24.0121 27.7618H23.7016C23.7016 26.1059 25.3575 21.9663 26.7029 20.7244Z" fill="#5C3600"/>
<path opacity="0.5" d="M33.6368 40.2843C33.3263 39.7668 33.1194 39.1459 32.9124 38.6284C30.1181 39.9738 26.5994 41.1122 22.7702 42.0437C15.9398 43.6995 9.83375 44.01 6.41853 43.1821C4.86616 42.7681 4.03822 42.1471 3.72775 41.3192C3.00331 39.3529 7.9709 36.3516 13.042 34.1783C13.249 33.9713 13.456 33.6608 13.6629 33.4539C5.79758 35.9377 -0.929373 40.4913 0.105543 44.6309C0.623001 46.3903 2.69283 47.6322 5.90107 48.2532C10.4547 49.0811 17.2851 48.7706 24.5296 47.0113C28.3587 46.0798 31.9809 44.8379 34.9822 43.4925C34.5682 42.2506 34.0508 41.2157 33.6368 40.2843Z" fill="#FAA919"/>
<g opacity="0.5">
<path opacity="0.5" d="M34.1543 42.1472C33.8438 41.4228 33.5333 40.6983 33.2228 40.0774L31.567 40.3879C28.5657 41.7333 24.9435 42.9752 21.1143 43.9066C13.8699 45.6659 2.79633 46.3904 1.76141 42.5612C1.76141 42.6647 1.76141 42.6647 1.76141 42.7682C2.27887 44.5275 4.3487 45.6659 7.55694 46.2869C9.52328 46.7009 12.0071 46.8043 14.6979 46.7009C17.8026 46.4939 21.3213 45.9764 24.9435 45.1485C28.2553 44.424 31.36 43.3891 34.1543 42.1472Z" fill="white"/>
</g>
<path d="M49.264 35.7308C49.264 35.6273 49.0571 35.5238 48.7466 35.4203C47.9186 35.0064 44.7104 33.247 40.8812 33.661H40.7777C40.6742 33.661 40.6742 33.661 40.5707 33.661C38.3974 33.9715 36.3276 35.1099 34.3613 36.5587C33.9473 36.1448 33.5333 35.8343 33.2228 35.7308C32.8089 35.6273 32.1879 35.7308 30.6356 36.3518C29.0832 36.9727 27.7378 37.4902 27.2203 37.6972C27.0134 37.8006 26.7029 37.9041 26.9099 38.0076C27.1168 38.1111 27.3238 38.2146 27.7378 38.3181C27.9448 38.3181 28.2553 38.4216 28.5657 38.5251C27.4273 39.0425 26.4959 39.353 26.0819 39.56C25.8749 39.6635 25.7715 39.767 25.7715 39.767C25.7715 39.8705 25.7715 39.8705 25.8749 39.974C25.8749 39.974 26.0819 40.0775 26.3924 40.0775C27.9448 40.0775 28.7727 40.0775 29.6006 40.2844H29.7041C29.8076 40.2844 29.9111 40.2844 29.9111 40.3879C29.6006 40.8019 29.6006 41.7333 29.9111 42.5613C30.1181 43.1822 30.4286 43.6997 30.8425 44.0101C30.7391 44.3206 30.6356 44.5276 30.6356 44.7346C30.3251 45.5625 29.9111 46.1835 29.1867 47.0114C29.0832 47.1149 29.0832 47.2184 28.9797 47.2184L28.8762 47.3219L28.7727 47.4254C28.6692 47.5289 28.5657 47.6323 28.4622 47.8393C28.2552 48.1498 28.1518 48.2533 28.1518 48.3568L28.2553 48.4603C28.3587 48.5638 28.5657 48.5638 28.6692 48.5638C29.1867 48.4603 30.8425 48.0463 32.3949 47.5289C33.9473 47.0114 34.3613 46.8044 34.6717 46.287C34.8787 45.9765 35.2927 45.252 35.6032 44.4241C38.6044 44.3206 41.5022 43.9066 43.8825 42.5613C43.986 42.5613 43.986 42.4578 44.0895 42.4578C44.0895 42.4578 44.193 42.4578 44.193 42.3543C47.4012 40.3879 48.8501 37.0762 49.264 36.2483C49.264 36.0413 49.264 35.8343 49.264 35.7308Z" fill="#231F20"/>
<path d="M28.3587 49.7021C28.0483 49.7021 27.6343 49.5986 27.4273 49.3916C27.2203 49.1846 27.0134 48.9776 27.0134 48.7706V48.5637V48.4602C27.0134 47.9427 27.3238 47.5287 27.6343 47.2183L28.1518 46.5973C28.2553 46.4938 28.2553 46.3903 28.3587 46.3903C29.0832 45.5624 29.3937 45.0449 29.6006 44.424C29.2902 44.01 29.0832 43.5961 28.8762 43.0786C28.6692 42.4577 28.5657 41.9402 28.5657 41.3192C27.9448 41.2158 27.3238 41.2158 26.2889 41.3192H26.1854C25.9784 41.3192 25.7715 41.3192 25.5645 41.2158H25.254L24.9435 40.9053C24.633 40.5948 24.5296 40.0773 24.633 39.5599C24.84 39.0424 25.254 38.8354 25.5645 38.732C25.668 38.732 25.7715 38.6285 25.8749 38.6285C25.7715 38.4215 25.7715 38.318 25.7715 38.111C25.7715 37.2831 26.4959 36.9726 26.8064 36.8691C27.3238 36.6621 28.6692 36.0412 30.2216 35.4202C32.0844 34.6958 32.8089 34.5923 33.5333 34.7993C33.7403 34.9028 34.0508 35.0063 34.3613 35.3167C36.1206 34.1783 37.7765 33.3504 39.4323 32.9364V32.8329L40.4673 32.626C40.5707 32.626 40.5707 32.626 40.6742 32.626H40.7777L41.2952 32.5225C41.6057 32.5225 41.9161 32.5225 42.2266 32.5225C45.4349 32.5225 48.0221 33.8679 49.0571 34.2818C49.1605 34.2818 49.264 34.3853 49.264 34.3853C49.5745 34.5923 50.092 34.7993 50.299 35.3167C50.5059 35.8342 50.299 36.4551 50.092 36.7656L49.9885 36.8691C49.471 37.904 47.9186 41.2158 44.6069 43.2856C44.6069 43.2856 44.5034 43.2856 44.5034 43.3891L44.3999 43.4926L43.779 43.9065C41.8126 44.9414 39.2254 45.4589 36.3276 45.5624C36.1206 46.0799 35.8101 46.5973 35.6032 46.9078C35.0857 47.7357 34.2578 48.1497 32.7054 48.5637C31.36 48.9776 29.9111 49.2881 29.2902 49.4951L28.9797 49.5986C28.6692 49.7021 28.4622 49.7021 28.3587 49.7021ZM29.7041 39.2494C29.8076 39.2494 29.8076 39.2494 29.8076 39.2494C29.9111 39.2494 30.0146 39.3529 30.1181 39.3529L31.4635 39.7669L30.6356 40.9053C30.6356 41.0088 30.5321 41.4227 30.739 42.1472C30.8425 42.5611 31.153 42.8716 31.36 43.0786L31.8775 43.4926L31.6705 44.1135C31.567 44.5275 31.4635 44.7345 31.36 44.9414C31.0495 45.6659 30.739 46.1833 30.3251 46.8043C30.8425 46.7008 31.36 46.4938 31.774 46.3903C33.2228 45.9764 33.3263 45.7694 33.4298 45.6659C33.5333 45.4589 33.8438 44.838 34.2578 44.01L34.5682 43.3891H35.2927C38.5009 43.2856 41.0882 42.7681 43.0545 41.6297L43.4685 41.4227C46.0558 39.7669 47.2977 37.1796 47.8152 36.1447C46.7802 35.6272 44.6069 34.5923 42.0196 34.5923C41.6057 34.5923 41.2952 34.5923 40.8812 34.6958L40.6742 34.7993C38.9149 35.1098 36.9485 35.9377 34.8787 37.4901L34.2578 37.904L33.6368 37.3866C33.1194 36.9726 32.9124 36.8691 32.8089 36.7656C32.6019 36.7656 32.1879 36.8691 30.946 37.3866C30.5321 37.5935 30.1181 37.697 29.8076 37.904L31.8775 38.4215L29.7041 39.2494Z" fill="#231F20"/>
<path d="M39.3289 34.6958C36.0171 35.2133 32.8089 37.5936 30.0146 40.1809L29.9111 40.2843C29.4972 40.5948 29.3937 41.6297 29.8076 42.6646C30.2216 43.6996 30.8425 44.424 31.36 44.424H31.4635C35.1892 44.631 39.2254 44.424 42.1231 42.6646L39.3289 34.6958Z" fill="url(#paint1_radial)"/>
<path d="M27.9448 37.9043C27.9448 37.9043 26.7029 37.9043 26.8064 38.1113C26.9099 38.3183 27.2204 38.3183 27.6343 38.4218C28.0483 38.5252 28.5657 38.6287 28.7727 38.7322C28.9797 38.8357 29.6007 38.8357 29.6007 38.8357V38.2148L27.9448 37.9043Z" fill="url(#paint2_linear)"/>
<path d="M34.8787 37.0762C34.2578 36.5587 33.5333 35.9378 33.2228 35.8343C32.8089 35.7308 32.1879 35.8343 30.6356 36.4552C29.0832 37.0762 27.7378 37.5936 27.2203 37.8006C26.9099 37.9041 26.4959 38.1111 27.2203 38.2146C28.5657 38.4216 29.1867 38.5251 29.8076 39.0425C30.0146 39.2495 30.5321 39.767 30.5321 39.767L34.8787 37.0762Z" fill="url(#paint3_linear)"/>
<path d="M40.7777 33.6609C37.052 34.1783 33.4298 36.8691 30.3251 39.7669L30.2216 39.8704C29.7041 40.2843 29.7041 41.3193 30.1181 42.4577C30.5321 43.5961 31.2565 44.424 31.8775 44.424H31.981C36.2241 44.7345 40.6742 44.424 43.8825 42.4577L40.7777 33.6609Z" fill="url(#paint4_radial)"/>
<path d="M32.9124 38.8356C32.9124 38.8356 30.8426 40.4914 30.6356 40.8019C30.5321 41.0089 30.1181 41.3194 29.9111 41.4229C29.9111 41.6298 29.9111 41.7333 30.0146 41.9403C30.3251 41.8368 30.6356 41.7333 30.946 41.5264C31.774 41.2159 33.0159 40.5949 33.7403 39.6635C34.4648 38.7321 34.5683 38.3181 34.5683 38.3181L32.9124 38.8356Z" fill="url(#paint5_linear)"/>
<path d="M48.9536 36.3518C49.0571 36.0413 49.1606 35.8343 49.1606 35.7308C49.1606 35.6273 48.9536 35.5238 48.6431 35.4203C47.7117 35.0064 44.5034 33.247 40.7777 33.661C40.6743 33.661 40.6743 33.661 40.5708 33.661H40.4673C39.4324 34.075 39.2254 36.3518 40.1568 38.8356C40.9847 41.3194 42.6406 42.9752 43.6755 42.6647C43.6755 42.6647 43.779 42.6647 43.779 42.5613C43.8825 42.5613 43.8825 42.4578 43.986 42.4578C47.0907 40.4914 48.5396 37.2832 48.9536 36.3518Z" fill="black"/>
<path d="M49.0571 36.3518C49.1606 36.0413 49.2641 35.8343 49.2641 35.7308C49.2641 35.6273 49.0571 35.5238 48.7466 35.4203C47.9187 35.0064 44.7104 33.247 40.8812 33.661C40.7777 33.661 40.7777 33.661 40.6743 33.661H40.5708C39.5358 34.075 39.3289 36.3518 40.2603 38.8356C41.0882 41.3194 42.7441 42.9752 43.779 42.5613C43.779 42.5613 43.8825 42.5613 43.8825 42.4578C43.986 42.4578 43.986 42.3543 44.0895 42.3543C47.1942 40.4914 48.6431 37.1797 49.0571 36.3518Z" fill="url(#paint6_radial)"/>
<path opacity="0.25" d="M48.7466 36.2483C48.9536 36.0413 49.0571 35.9378 49.0571 35.9378C49.0571 35.8343 48.8501 35.8343 48.5396 35.7308C45.4348 34.7994 40.7777 34.7994 38.1904 36.1448C36.5346 37.0762 32.3949 39.2495 31.4635 40.0775C30.4286 40.8019 30.2216 41.1124 30.3251 41.6298C30.4286 42.1473 30.739 42.2508 31.36 42.2508C31.9809 42.1473 37.5695 41.5263 39.2254 41.0089C42.7441 39.767 48.1256 36.7657 48.7466 36.2483Z" fill="white"/>
<g opacity="0.5">
<path opacity="0.5" d="M43.6755 42.6649C43.779 42.6649 43.779 42.5614 43.8825 42.5614C43.8825 42.5614 43.8825 42.5614 43.986 42.5614C42.9511 42.5614 41.6057 40.9056 40.8812 38.7322C40.0533 36.5589 40.1568 34.4891 40.9847 33.7646H40.8812C40.7777 33.7646 40.7777 33.7646 40.6743 33.7646H40.5708C39.5358 34.1786 39.3289 36.4554 40.2603 38.9392C41.0882 41.423 42.7441 43.0789 43.779 42.6649C43.6755 42.6649 43.6755 42.6649 43.6755 42.6649Z" fill="#F5DD04"/>
</g>
<path d="M35.6032 43.0788C35.6032 43.0788 35.0857 42.6649 34.3613 42.3544C33.6368 42.0439 32.2914 42.1474 31.36 42.1474C30.8425 42.1474 30.4286 42.2509 30.2216 42.3544C30.2216 42.3544 30.2216 42.3544 30.2216 42.4579C30.2216 42.5614 30.3251 42.6649 30.3251 42.7684C30.5321 42.8719 30.6356 42.8719 30.739 42.9754C30.946 43.0788 31.0495 43.4928 31.0495 43.4928L33.7403 43.8033L35.6032 43.0788Z" fill="black"/>
<path d="M35.8102 43.5963C35.3962 44.6312 34.7752 45.8731 34.4648 46.3906C34.1543 46.908 33.7403 47.115 32.1879 47.6325C30.6356 48.0465 28.9797 48.5639 28.4622 48.6674C28.3588 48.6674 28.1518 48.6674 28.0483 48.5639C27.9448 48.4604 27.8413 48.4604 28.1518 48.1499C29.2902 46.8046 30.1181 45.9766 30.5321 44.9417C30.7391 44.4242 35.6032 43.0789 35.6032 43.0789L35.8102 43.5963Z" fill="url(#paint7_linear)"/>
<path d="M35.6032 43.0789C35.1892 44.3208 34.6717 45.6661 34.3613 46.0801C34.0508 46.5976 33.4298 46.908 31.8775 47.4255C30.3251 47.943 28.8762 48.2534 28.3587 48.4604C28.0483 48.5639 27.6343 48.5639 28.2553 47.943C29.3937 46.5976 30.0146 45.8731 30.4286 44.8382C30.6356 44.4242 30.8425 43.2858 30.8425 43.2858L35.6032 43.0789Z" fill="url(#paint8_linear)"/>
<path d="M34.4648 38.0077C33.7403 37.9042 32.4984 37.6972 31.981 37.5938C31.4635 37.5938 30.8425 37.6972 29.2902 38.3182C27.7378 38.9391 26.4959 39.4566 25.9784 39.6636C25.7715 39.7671 25.668 39.8706 25.668 39.8706C25.668 39.9741 25.668 39.9741 25.7715 40.0775C27.4273 40.0775 28.6692 39.8706 29.4972 40.0775C29.8076 40.181 34.6717 38.4217 34.6717 38.4217C34.6717 38.4217 34.4648 38.1112 34.4648 38.0077Z" fill="url(#paint9_linear)"/>
<path d="M34.5682 38.4215C33.5333 38.111 32.4984 37.8005 32.0844 37.8005C31.567 37.8005 30.946 37.904 29.3937 38.525C27.8413 39.1459 26.4959 39.6634 26.0819 39.8704C25.7715 39.9739 25.461 40.1808 26.2889 40.1808C27.9448 40.1808 28.7727 40.1808 29.6007 40.3878C29.9111 40.4913 30.7391 40.8018 30.7391 40.8018L34.5682 38.4215Z" fill="url(#paint10_linear)"/>
<path d="M34.5683 38.4215C33.5333 38.111 32.4984 37.8005 32.0845 37.8005C31.567 37.8005 30.946 37.904 29.4972 38.4215C29.7041 38.732 29.9111 39.0424 30.1181 39.2494C30.0146 39.3529 30.0146 39.3529 29.9111 39.4564L29.8076 39.5599C29.6007 39.7669 29.4972 39.9739 29.4972 40.2843H29.6007C29.9111 40.3878 30.7391 40.6983 30.7391 40.6983L34.5683 38.4215Z" fill="url(#paint11_linear)"/>
<path d="M34.1543 45.9766C34.2578 45.8732 34.4648 45.6662 34.6717 45.6662C34.9822 45.0452 35.2927 44.1138 35.6032 43.1824L30.8426 43.2859C30.8426 43.2859 30.7391 43.5963 30.7391 43.9068C31.153 43.9068 31.567 44.0103 31.774 44.0103C31.6705 44.3208 31.36 45.5627 30.8426 45.9766C30.4286 46.3906 29.6007 46.7011 28.9797 47.1151C28.7727 47.322 28.6692 47.529 28.4622 47.736C28.7727 47.736 29.2902 47.6325 29.8076 47.529C31.8775 47.1151 33.0159 46.8046 34.1543 45.9766Z" fill="url(#paint12_linear)"/>
<path d="M31.0495 37.9042C30.946 37.9042 31.4635 37.6973 31.9809 37.6973C32.4984 37.8008 34.5682 38.3182 34.5682 38.3182V38.4217C34.5682 38.4217 32.2914 37.9042 31.9809 37.9042C31.774 37.9042 31.153 37.9042 31.0495 37.9042Z" fill="url(#paint13_linear)"/>
<path d="M34.5682 45.873C34.4648 46.1835 34.2578 46.5974 33.7403 46.8044C32.2914 47.5289 28.9797 48.3568 28.6692 48.3568C28.3587 48.4603 30.0146 47.9428 30.8425 47.6324C31.6705 47.4254 33.2229 46.8044 33.5333 46.7009C33.8438 46.5974 34.1543 46.3905 34.2578 46.287C34.3613 46.1835 34.7752 45.459 34.5682 45.873Z" fill="url(#paint14_linear)"/>
<path opacity="0.5" d="M39.9498 32.9365C39.4323 35.6273 36.7415 35.9378 36.7415 35.9378C36.7415 35.9378 39.3288 36.6622 39.4323 39.353C39.9498 36.6622 42.6406 36.3517 42.6406 36.3517C42.6406 36.3517 40.0533 35.6273 39.9498 32.9365Z" fill="white"/>
<path opacity="0.8" d="M39.8463 34.7996C39.6393 36.0415 38.3974 36.145 38.3974 36.145C38.3974 36.145 39.6393 36.4554 39.6393 37.6973C39.8463 36.4554 41.0882 36.3519 41.0882 36.3519C41.0882 36.3519 39.8463 36.0415 39.8463 34.7996Z" fill="white"/>
<defs>
<radialGradient id="paint0_radial" cx="0" cy="0" r="1" gradientUnits="userSpaceOnUse" gradientTransform="translate(16.6449 42.1703) scale(14.7135 17.5709)">
<stop stop-color="#FDDF1D"/>
<stop offset="1" stop-color="#FAA919"/>
</radialGradient>
<radialGradient id="paint1_radial" cx="0" cy="0" r="1" gradientUnits="userSpaceOnUse" gradientTransform="translate(29.94 42.225) rotate(25.4862) scale(2.02163)">
<stop stop-color="#FDEB86"/>
<stop offset="0.3202" stop-color="#EEBE53"/>
<stop offset="0.5831" stop-color="#E09726"/>
<stop offset="0.6436" stop-color="#D78827"/>
<stop offset="0.8011" stop-color="#C16428"/>
<stop offset="0.9002" stop-color="#DD6441"/>
<stop offset="0.9663" stop-color="#EA644D"/>
</radialGradient>
<linearGradient id="paint2_linear" x1="28.744" y1="38.1554" x2="27.4653" y2="38.8253" gradientUnits="userSpaceOnUse">
<stop stop-color="#343132"/>
<stop offset="0.2692" stop-color="#3E3638"/>
<stop offset="0.7191" stop-color="#574448"/>
<stop offset="1" stop-color="#6B4F54"/>
</linearGradient>
<linearGradient id="paint3_linear" x1="29.363" y1="34.5831" x2="31.8718" y2="39.8001" gradientUnits="userSpaceOnUse">
<stop stop-color="#B8AEAF"/>
<stop offset="0.1948" stop-color="#8D8687"/>
<stop offset="0.4444" stop-color="#5D595A"/>
<stop offset="0.6644" stop-color="#393839"/>
<stop offset="0.8439" stop-color="#242425"/>
<stop offset="0.9605" stop-color="#1C1D1E"/>
</linearGradient>
<radialGradient id="paint4_radial" cx="0" cy="0" r="1" gradientUnits="userSpaceOnUse" gradientTransform="translate(35.6106 30.7283) rotate(25.4862) scale(15.9401)">
<stop stop-color="#B8AEAF"/>
<stop offset="0.2038" stop-color="#857E7F"/>
<stop offset="0.5831" stop-color="#1C1D1E"/>
<stop offset="0.6133" stop-color="#171617"/>
<stop offset="0.6876" stop-color="#0F0B0C"/>
<stop offset="0.7667" stop-color="#0C0708"/>
<stop offset="0.7983" stop-color="#140F11"/>
<stop offset="0.8495" stop-color="#2B2429"/>
<stop offset="0.8888" stop-color="#413840"/>
<stop offset="0.9943" stop-color="#694B7D"/>
</radialGradient>
<linearGradient id="paint5_linear" x1="36.3776" y1="45.9792" x2="30.9254" y2="38.2638" gradientUnits="userSpaceOnUse">
<stop stop-color="#B8AEAF"/>
<stop offset="0.2519" stop-color="#7B7576"/>
<stop offset="0.4844" stop-color="#4A4748"/>
<stop offset="0.6874" stop-color="#262627"/>
<stop offset="0.853" stop-color="#111213"/>
<stop offset="0.9605" stop-color="#090B0C"/>
</linearGradient>
<radialGradient id="paint6_radial" cx="0" cy="0" r="1" gradientUnits="userSpaceOnUse" gradientTransform="translate(38.4941 28.9893) rotate(25.4862) scale(15.1005)">
<stop stop-color="#FDEB86"/>
<stop offset="0.3202" stop-color="#EEBE53"/>
<stop offset="0.5831" stop-color="#E09726"/>
<stop offset="0.6436" stop-color="#D78827"/>
<stop offset="0.8011" stop-color="#C16428"/>
<stop offset="0.9002" stop-color="#DD6441"/>
<stop offset="0.9663" stop-color="#EA644D"/>
</radialGradient>
<linearGradient id="paint7_linear" x1="35.6402" y1="43.392" x2="28.6123" y2="48.5712" gradientUnits="userSpaceOnUse">
<stop stop-color="#51494B"/>
<stop offset="0.275" stop-color="#343132"/>
<stop offset="0.293" stop-color="#3D3B3C"/>
<stop offset="0.312" stop-color="#4C4A4B"/>
<stop offset="0.3448" stop-color="#866566"/>
<stop offset="0.4023" stop-color="#5D343D"/>
<stop offset="0.5205" stop-color="#6C3F55"/>
<stop offset="0.9581" stop-color="#533850"/>
</linearGradient>
<linearGradient id="paint8_linear" x1="31.7092" y1="48.5197" x2="31.8718" y2="44.0887" gradientUnits="userSpaceOnUse">
<stop stop-color="#B8AEAF"/>
<stop offset="0.1948" stop-color="#8D8687"/>
<stop offset="0.4444" stop-color="#5D595A"/>
<stop offset="0.6644" stop-color="#393839"/>
<stop offset="0.8439" stop-color="#242425"/>
<stop offset="0.9605" stop-color="#1C1D1E"/>
</linearGradient>
<linearGradient id="paint9_linear" x1="34.5622" y1="37.6953" x2="25.4439" y2="40.2941" gradientUnits="userSpaceOnUse">
<stop stop-color="#757071"/>
<stop offset="0.051254" stop-color="#6E696A"/>
<stop offset="0.275" stop-color="#504E4E"/>
<stop offset="0.2833" stop-color="#595858"/>
<stop offset="0.2972" stop-color="#737272"/>
<stop offset="0.312" stop-color="#959494"/>
<stop offset="0.3259" stop-color="#959494"/>
<stop offset="0.3278" stop-color="#908F8F"/>
<stop offset="0.3437" stop-color="#686768"/>
<stop offset="0.3583" stop-color="#4C4B4B"/>
<stop offset="0.3709" stop-color="#3A393A"/>
<stop offset="0.3801" stop-color="#343334"/>
<stop offset="0.9605" stop-color="#1C1D1E"/>
</linearGradient>
<linearGradient id="paint10_linear" x1="30.9519" y1="40.3339" x2="27.9638" y2="36.4422" gradientUnits="userSpaceOnUse">
<stop stop-color="#151011"/>
<stop offset="0.4316" stop-color="#38283D"/>
<stop offset="0.9943" stop-color="#694B7D"/>
</linearGradient>
<linearGradient id="paint11_linear" x1="32.5088" y1="40.3234" x2="28.3643" y2="32.5291" gradientUnits="userSpaceOnUse">
<stop/>
<stop offset="0.3764" stop-color="#251B2C"/>
<stop offset="0.9943" stop-color="#694B7D"/>
</linearGradient>
<linearGradient id="paint12_linear" x1="32.1653" y1="51.1664" x2="32.0208" y2="42.6214" gradientUnits="userSpaceOnUse">
<stop stop-color="#B8AEAF"/>
<stop offset="0.2519" stop-color="#7B7576"/>
<stop offset="0.4844" stop-color="#4A4748"/>
<stop offset="0.6874" stop-color="#262627"/>
<stop offset="0.853" stop-color="#111213"/>
<stop offset="0.9605" stop-color="#090B0C"/>
</linearGradient>
<linearGradient id="paint13_linear" x1="32.8646" y1="37.8453" x2="32.7789" y2="38.5378" gradientUnits="userSpaceOnUse">
<stop stop-color="#D8D4D3"/>
<stop offset="0.3922" stop-color="#868484"/>
<stop offset="0.7819" stop-color="#3A3A3B"/>
<stop offset="0.9605" stop-color="#1C1D1E"/>
</linearGradient>
<linearGradient id="paint14_linear" x1="31.804" y1="47.6382" x2="31.5288" y2="46.7451" gradientUnits="userSpaceOnUse">
<stop stop-color="#D8D4D3"/>
<stop offset="0.283" stop-color="#B0A3AA"/>
<stop offset="0.7446" stop-color="#72586A"/>
<stop offset="0.9581" stop-color="#5A3A51"/>
</linearGradient>
</defs>
</svg>
