<svg width="160" height="80" viewBox="0 0 160 80" fill="none" xmlns="http://www.w3.org/2000/svg">
<path d="M3.77557 58.9786C3.77557 58.2938 3.75021 57.6343 3.77557 56.9494C3.85167 54.9962 5.14533 53.4235 6.97167 53.043C9.00093 52.6118 10.9034 53.4489 11.7912 55.2245C11.9687 55.605 12.4761 56.1884 11.9687 56.4167C11.4361 56.645 10.599 56.8733 10.1424 56.163C9.48288 55.123 8.59508 54.5396 7.37752 54.9201C6.10923 55.3006 5.70337 56.3406 5.62728 57.5835C5.55118 58.8518 5.50045 60.1201 5.75411 61.363C5.9824 62.4791 6.69264 63.1386 7.85947 63.2147C9.07703 63.2908 9.88874 62.7328 10.2946 61.5913C10.6751 60.5006 10.4214 60.1708 9.25459 60.1708C8.54435 60.1708 7.9102 60.2469 8.01167 59.1816C8.0624 58.5982 8.21459 58.3191 8.82337 58.3952C9.25459 58.4206 9.66045 58.3952 10.0917 58.3952C12.5522 58.3952 12.5522 58.3952 12.3492 60.9065C12.1463 63.443 10.2439 65.2694 7.88484 65.1679C5.39899 65.0411 3.77557 63.2655 3.77557 60.6528C3.77557 60.0694 3.77557 59.5367 3.77557 58.9786Z" fill="white"/>
<path d="M146.129 73.0307C139.863 73.0307 133.573 73.0561 127.307 73.0815C121.904 73.0815 116.476 73.0815 111.073 73.0815C105.746 73.0815 100.42 73.0815 95.0927 73.0815C89.4361 73.0815 83.7541 73.0815 78.0976 73.0815C72.5171 73.0815 66.9366 73.0815 61.3561 73.0815C56.6127 73.0815 51.8946 73.0815 47.1512 73.0815C46.6439 73.0561 46.1366 73.0307 45.6293 73.0307C31.0946 73.0307 16.5346 73.0054 2 73.0054C2 73.5634 2 74.1722 2 74.6034C13.2878 74.6034 24.601 74.6034 35.8888 74.5781C39.6429 74.5781 43.3971 74.5527 47.1512 74.5273C51.8946 74.5273 56.6127 74.5273 61.3561 74.5273C66.9366 74.5273 72.5171 74.5273 78.0976 74.5273C83.7541 74.5273 89.4361 74.5273 95.0927 74.5273C100.42 74.5273 105.746 74.5273 111.073 74.5273C116.476 74.5273 121.904 74.5273 127.307 74.5273C134.105 74.5527 140.903 74.5527 147.727 74.5527C151.151 74.5527 154.576 74.5273 158 74.502V73.0815C154.043 73.0561 150.086 73.0307 146.129 73.0307Z" fill="url(#paint0_linear)"/>
<path d="M148.843 63.6711C147.473 61.1092 147.93 58.395 148.234 55.7062C148.31 55.1482 148.843 54.6155 149.147 54.0828C149.782 53.4487 150.568 53.1443 151.43 52.9667C152.014 52.8653 152.597 52.8399 153.181 52.9667C153.612 53.1443 154.043 53.3219 154.449 53.474C155.793 54.514 156.123 55.0214 156.351 56.4165C155.387 56.594 154.525 56.6448 153.891 55.5794C153.434 54.8184 152.546 54.5901 151.633 54.8438C150.644 55.1228 149.984 55.8331 149.934 56.8223C149.832 58.2428 149.832 59.6887 149.934 61.1092C150.01 62.3267 150.974 63.0877 152.141 63.1384C153.358 63.1892 154.221 62.5297 154.576 61.3375C154.829 60.4243 154.652 60.0184 153.586 60.0438C153.104 60.0692 152.242 60.5511 152.191 59.3843C152.166 58.5979 152.343 58.1667 153.231 58.2936C153.51 58.3443 153.815 58.2936 154.119 58.2936C156.605 58.2936 156.605 58.2936 156.529 60.754C156.478 62.6565 155.438 64.1277 153.789 64.7872C152.369 65.4214 149.959 65.0155 148.843 63.6711Z" fill="white"/>
<path d="M73.2527 57.5833C73.1512 59.9931 73.1005 62.4028 73.278 64.7872C72.6185 65.2438 71.959 65.117 71.2741 64.8633C71.2741 64.0262 71.2487 63.2145 71.2487 62.3774C71.2487 61.0077 71.2487 59.6379 71.2487 58.2682C71.198 58.2428 71.1219 58.2428 71.0712 58.2175C70.5131 59.5111 69.9297 60.8048 69.3717 62.0731C69.118 62.6565 69.0165 63.316 68.0273 63.2906C67.0634 63.2653 66.9873 62.5804 66.7336 61.997C66.1502 60.754 65.6175 59.4857 64.8058 58.2682C64.8058 60.0945 64.8058 61.9209 64.8058 63.7472C64.8058 64.3814 64.958 64.9901 63.8926 64.9648C62.9541 64.9648 62.9034 64.5335 62.9034 63.8233C62.9287 60.5765 62.9034 57.3296 62.9287 54.0575C62.9287 53.677 62.599 53.0175 63.3853 52.9921C64.0195 52.9667 64.679 52.7892 65.0341 53.7023C65.8965 55.8584 66.8858 57.9638 67.8243 60.0692C67.9004 60.2214 68.0019 60.3482 68.1287 60.5765C69.118 58.2935 70.1073 56.1121 70.9951 53.8799C71.3248 52.9921 71.8829 52.8906 72.6439 52.9667C73.5824 53.0682 73.1258 53.8038 73.1766 54.235C73.2273 55.4018 73.2273 56.4926 73.2527 57.5833Z" fill="white"/>
<path d="M118.683 52.9672C119.393 52.8911 119.799 53.2463 120.179 53.855C121.448 55.935 122.792 57.9897 124.086 60.0443C124.289 60.3741 124.542 60.7038 124.974 61.3126C124.974 58.7506 124.974 56.5184 124.974 54.3116C124.974 53.7028 124.695 52.9926 125.861 52.9926C127.104 52.9672 126.825 53.7282 126.825 54.3877C126.825 57.3302 126.825 60.298 126.825 63.2404C126.825 65.0414 126.825 65.0414 124.999 64.9653C124.441 64.1028 123.883 63.2404 123.325 62.378C122.259 60.7038 121.194 59.0297 120.129 57.3555C119.495 57.5584 119.824 58.0658 119.824 58.4209C119.799 60.3233 119.774 62.2258 119.824 64.1028C119.85 64.8892 119.571 65.1175 118.81 65.0921C118.074 65.0921 117.77 64.9399 117.77 64.1282C117.82 60.6277 117.795 57.1272 117.795 53.6267C117.795 53.4238 117.795 53.1955 117.922 53.018C118.201 53.018 118.429 52.9926 118.683 52.9672Z" fill="white"/>
<path d="M42.3571 64.9907C42.3571 64.9907 40.0742 58.5985 38.9327 55.6815C38.5776 54.7683 38.5522 53.7029 37.7659 52.9927C36.6751 52.8151 36.2693 53.4239 35.9649 54.3624C35.3054 56.341 34.519 58.2688 33.7581 60.2473C33.2254 61.7439 32.5659 63.5195 32.0332 65.0161C32.7181 65.0161 33.479 65.0161 34.1639 65.0161C34.4429 63.8746 35.0264 62.4541 35.0264 62.4541H39.4907C39.4907 62.4541 39.6683 63.0629 39.8205 63.4688C39.9981 63.9507 40.3278 65.0161 40.3278 65.0161H42.3571V64.9907ZM38.3746 60.6785C37.6898 60.6785 37.0303 60.6532 36.3454 60.6785C35.7112 60.7039 35.6351 60.4249 35.8127 59.9176C36.2439 58.5985 36.7005 57.3049 37.2332 55.6307C37.8166 57.3556 38.2732 58.7254 38.7551 60.0951C38.8566 60.4502 38.7805 60.6785 38.3746 60.6785Z" fill="white"/>
<path d="M2.25368 5V13.6498H18.4878C19.3249 13.6498 20.1366 13.8273 20.8976 14.2078C21.5317 14.5376 22.0898 15.0449 22.4703 15.679C22.8 16.2624 23.0283 16.9473 23.0283 17.6068C23.0283 18.2917 22.8507 18.9512 22.4703 19.5346C22.0898 20.1688 21.5317 20.6254 20.8976 20.9805C20.1366 21.361 19.3249 21.5385 18.4878 21.5385H2.25368V44.1902H12.6283V30.239H18.9444C21.9883 30.239 24.5503 29.6556 26.7571 28.4634C28.7864 27.398 30.5112 25.8 31.7034 23.8215C33.9356 19.9912 33.9356 15.2732 31.7034 11.4176C30.5112 9.43902 28.8371 7.84098 26.7571 6.77561C24.601 5.58341 22.0137 5 18.9951 5H2.25368Z" fill="url(#paint1_linear)"/>
<path d="M83.3736 5H75.6117L68.9659 21.8683H75.6117H83.3736H90.0195L83.3736 5Z" fill="url(#paint2_linear)"/>
<path d="M98.162 43.1246L93.3171 30.6953H65.6683L63.639 35.6163H46.441V30.467H36.2693V44.1646H60.4429H63.639H71.2488L73.0244 38.3051H85.9356L87.762 44.1646H98.162H108.334V30.5685H98.162V43.1246Z" fill="url(#paint3_linear)"/>
<path d="M156.757 44.1654L143.161 30.5693H131.797H112.57L121.625 44.1654H131.797V30.5693L143.846 44.1654H156.757Z" fill="url(#paint4_linear)"/>
<path d="M46.441 5H36.2693V21.8683H46.441V5Z" fill="url(#paint5_linear)"/>
<path d="M131.797 5H121.625V21.8683H131.797V5Z" fill="url(#paint6_linear)"/>
<path d="M143.846 5H156.098L143.161 21.8683H131.797L143.846 5Z" fill="url(#paint7_linear)"/>
<path d="M118.632 21.8683H98.1619V5H107.268L118.632 21.8683Z" fill="url(#paint8_linear)"/>
<path d="M96.6146 52.9922H94.5346V64.9902H96.6146V52.9922Z" fill="white"/>
<defs>
<linearGradient id="paint0_linear" x1="2" y1="73.8013" x2="158" y2="73.8013" gradientUnits="userSpaceOnUse">
<stop offset="0.24" stop-color="#FFCC04"/>
<stop offset="0.38" stop-color="#F7C414"/>
<stop offset="1" stop-color="#D9AB28"/>
</linearGradient>
<linearGradient id="paint1_linear" x1="17.7997" y1="44.1747" x2="17.7997" y2="4.99703" gradientUnits="userSpaceOnUse">
<stop offset="0.24" stop-color="#FFCC04"/>
<stop offset="0.38" stop-color="#F7C414"/>
<stop offset="1" stop-color="#D9AB28"/>
</linearGradient>
<linearGradient id="paint2_linear" x1="79.4938" y1="21.8687" x2="79.4938" y2="5" gradientUnits="userSpaceOnUse">
<stop offset="0.24" stop-color="#FFCC04"/>
<stop offset="0.38" stop-color="#F7C414"/>
<stop offset="1" stop-color="#D9AB28"/>
</linearGradient>
<linearGradient id="paint3_linear" x1="72.3014" y1="30.5942" x2="72.3014" y2="44.0157" gradientUnits="userSpaceOnUse">
<stop offset="0.24" stop-color="#FFCC04"/>
<stop offset="0.38" stop-color="#F7C414"/>
<stop offset="1" stop-color="#D9AB28"/>
</linearGradient>
<linearGradient id="paint4_linear" x1="134.663" y1="30.693" x2="134.663" y2="44.0177" gradientUnits="userSpaceOnUse">
<stop offset="0.24" stop-color="#FFCC04"/>
<stop offset="0.38" stop-color="#F7C414"/>
<stop offset="1" stop-color="#D9AB28"/>
</linearGradient>
<linearGradient id="paint5_linear" x1="41.3612" y1="21.8703" x2="41.3612" y2="5.00154" gradientUnits="userSpaceOnUse">
<stop offset="0.24" stop-color="#FFCC04"/>
<stop offset="0.38" stop-color="#F7C414"/>
<stop offset="1" stop-color="#D9AB28"/>
</linearGradient>
<linearGradient id="paint6_linear" x1="126.712" y1="21.8703" x2="126.712" y2="5.00154" gradientUnits="userSpaceOnUse">
<stop offset="0.24" stop-color="#FFCC04"/>
<stop offset="0.38" stop-color="#F7C414"/>
<stop offset="1" stop-color="#D9AB28"/>
</linearGradient>
<linearGradient id="paint7_linear" x1="143.951" y1="21.8703" x2="143.951" y2="5.00154" gradientUnits="userSpaceOnUse">
<stop offset="0.24" stop-color="#FFCC04"/>
<stop offset="0.38" stop-color="#F7C414"/>
<stop offset="1" stop-color="#D9AB28"/>
</linearGradient>
<linearGradient id="paint8_linear" x1="108.391" y1="21.8673" x2="108.391" y2="4.99857" gradientUnits="userSpaceOnUse">
<stop offset="0.24" stop-color="#FFCC04"/>
<stop offset="0.38" stop-color="#F7C414"/>
<stop offset="1" stop-color="#D9AB28"/>
</linearGradient>
</defs>
</svg>
