<svg width="160" height="80" viewBox="0 0 160 80" fill="none" xmlns="http://www.w3.org/2000/svg">
<g clip-path="url(#clip0_6085_8)">
<path d="M160 12V63.7721C160 66.0451 158.163 67.8818 155.89 67.8818H4.13258C1.85965 67.8818 0.0229492 66.0451 0.0229492 63.7721V25.3391C0.0229492 23.0661 1.85965 21.2294 4.13258 21.2294H150.61L159.173 12H160Z" fill="#E94547"/>
<path d="M30.8796 39.3443C30.8796 44.1197 27.2751 47.6094 22.4307 47.6094H19.0328V53.9002H12.7421V31.1021H22.4307C27.2751 31.1021 30.8796 34.5688 30.8796 39.3443ZM24.4282 39.3443C24.4282 37.7142 23.3491 36.5892 21.6961 36.5892H19.0328V42.1223H21.6961C23.3491 42.1223 24.4282 40.9743 24.4282 39.3443Z" fill="white"/>
<path d="M33.428 29.9771H39.4892V53.9001H33.428V29.9771Z" fill="white"/>
<path d="M61.9888 36.2908V53.8543H57.3052L56.7771 52.6145C55.3307 53.7854 53.517 54.4512 51.4736 54.4512C46.1013 54.4512 42.2672 50.5252 42.2672 45.061C42.2672 39.6198 46.1013 35.7397 51.4736 35.7397C53.5399 35.7397 55.3996 36.4285 56.846 37.6224L57.4659 36.2678H61.9888V36.2908ZM56.2261 45.1069C56.2261 42.834 54.5501 41.1121 52.3002 41.1121C50.0272 41.1121 48.3742 42.834 48.3742 45.1069C48.3742 47.4028 50.0502 49.1247 52.3002 49.1247C54.5731 49.1018 56.2261 47.4028 56.2261 45.1069Z" fill="white"/>
<path d="M77.6467 48.5966V53.9001H73.4911C69.6111 53.9001 67.2463 51.5354 67.2463 47.6324V40.9973H64.0321V39.5738L71.907 31.1938H73.1468V36.3366H77.5548V40.9973H73.2845V46.5992C73.2845 47.8619 74.0421 48.6196 75.3278 48.6196H77.6467V48.5966Z" fill="white"/>
<path d="M80.4706 36.3136H86.5317V53.8771H80.4706V36.3136ZM80.5165 28.9897H86.4858V34.1325H80.5165V28.9897Z" fill="white"/>
<path d="M109.812 45.1069C109.812 50.5711 105.978 54.4971 100.606 54.4971C99.0213 54.4971 97.552 54.0838 96.3122 53.3262V60.2368H90.3199V36.3137H94.4296L95.1872 37.7142C96.6336 36.4744 98.4933 35.7397 100.583 35.7397C105.978 35.7397 109.812 39.6198 109.812 45.1069ZM103.728 45.1069C103.728 42.7881 102.052 41.0891 99.8019 41.0891C97.529 41.0891 95.876 42.8111 95.876 45.1069C95.876 47.4258 97.552 49.1247 99.8019 49.1247C102.029 49.1247 103.728 47.4028 103.728 45.1069Z" fill="white"/>
<path d="M112.36 46.3465V36.3135H118.422V46.071C118.422 47.9306 119.409 49.0097 121.039 49.0097C122.646 49.0097 123.633 47.9077 123.633 46.071V36.3135H129.694V46.3465C129.694 51.2597 126.228 54.4739 121.039 54.4739C115.827 54.4509 112.36 51.2597 112.36 46.3465Z" fill="white"/>
<path d="M140.026 54.4512C135.227 54.4512 132.335 51.9257 132.266 48.1145H138.097C138.097 49.4002 138.993 49.9972 140.141 49.9972C141.036 49.9972 141.863 49.538 141.863 48.6426C141.863 47.6324 140.531 47.3339 138.855 47.0584C136.123 46.6222 132.518 45.7957 132.518 41.5254C132.518 38.0127 135.526 35.7397 140.026 35.7397C144.503 35.7397 147.396 38.1275 147.464 41.6861H141.794C141.794 40.5611 141.036 40.033 139.934 40.033C138.97 40.033 138.304 40.5152 138.304 41.3187C138.304 42.3289 139.658 42.5585 141.312 42.857C144.09 43.3391 147.786 43.936 147.786 48.3901C147.786 52.0635 144.686 54.4512 140.026 54.4512Z" fill="white"/>
</g>
<defs>
<clipPath id="clip0_6085_8">
<rect width="160" height="80" fill="white"/>
</clipPath>
</defs>
</svg>
