<svg width="160" height="80" viewBox="0 0 160 80" fill="none" xmlns="http://www.w3.org/2000/svg">
<g clip-path="url(#clip0_6015_8)">
<path d="M4.48473 53.713V29.986L24.1464 40.0001L13.0108 45.6754V40.0001C13.0108 38.7389 12.0085 37.713 10.7661 37.713C9.52832 37.713 8.52145 38.7342 8.52145 40.0001V49.3695C8.52145 50.1648 8.92327 50.8942 9.58374 51.313C10.2488 51.7318 11.071 51.7695 11.7684 51.4118L30.1645 42.0424C30.9266 41.6565 31.4023 40.866 31.4023 40.0001C31.4023 39.1342 30.922 38.3436 30.1645 37.9577L3.24693 24.2401C2.54951 23.8871 1.72738 23.9248 1.06229 24.3436C0.401824 24.7577 0 25.4918 0 26.2871V53.713C0 54.9789 1.00225 56.0001 2.24467 56.0001C3.48248 56.0001 4.48473 54.9789 4.48473 53.713Z" fill="#FF002A"/>
<path d="M55.1608 35.012C54.9068 34.4002 54.4865 33.8873 53.9553 33.5202C53.6921 33.3367 53.3965 33.1908 53.0824 33.092C52.7683 32.9932 52.4358 32.9414 52.094 32.9414H42.9536C42.5888 32.9414 42.2331 33.092 41.9745 33.3555C41.7158 33.6191 41.568 33.9814 41.568 34.3532V45.6473C41.568 46.4285 42.1869 47.059 42.9536 47.059C43.7203 47.059 44.3392 46.4285 44.3392 45.6473V42.3532H52.0986C52.5559 42.3532 52.9946 42.259 53.3918 42.0849C53.9923 41.8261 54.4957 41.3979 54.856 40.8567C55.0361 40.5885 55.1793 40.2873 55.2763 39.9673C55.3733 39.6473 55.4241 39.3085 55.4241 38.9602V36.3249C55.4241 35.8638 55.3317 35.4167 55.1608 35.012ZM52.6529 38.9649C52.6529 39.0449 52.639 39.1155 52.6113 39.1861C52.5697 39.2849 52.5004 39.3743 52.4081 39.4355C52.3619 39.4685 52.3157 39.492 52.2649 39.5061C52.2141 39.5202 52.1587 39.5296 52.0986 39.5296H44.3392V35.7649H52.0986C52.1771 35.7649 52.2464 35.7791 52.3157 35.8073C52.4127 35.8496 52.5004 35.9202 52.5605 36.0143C52.5928 36.0614 52.6159 36.1085 52.6298 36.1602C52.6436 36.212 52.6529 36.2685 52.6529 36.3296V38.9649Z" fill="white"/>
<path d="M121.485 39.1673C121.222 38.9838 120.926 38.8379 120.612 38.7391C120.298 38.6402 119.965 38.5885 119.624 38.5885H111.495C111.416 38.5885 111.347 38.5743 111.278 38.5461C111.181 38.5038 111.093 38.4332 111.033 38.3391C111.001 38.292 110.977 38.2449 110.964 38.1932C110.95 38.1414 110.941 38.0849 110.941 38.0238V36.3296C110.941 36.2496 110.954 36.1791 110.982 36.1085C111.024 36.0096 111.093 35.9202 111.185 35.8591C111.232 35.8261 111.278 35.8026 111.329 35.7885C111.379 35.7743 111.435 35.7649 111.495 35.7649H121.102C121.868 35.7649 122.487 35.1343 122.487 34.3532C122.487 33.572 121.868 32.9414 121.102 32.9414H111.495C111.038 32.9414 110.599 33.0355 110.202 33.2096C109.601 33.4685 109.098 33.8967 108.737 34.4379C108.557 34.7061 108.414 35.0073 108.317 35.3273C108.22 35.6473 108.169 35.9861 108.169 36.3343V38.0285C108.169 38.4943 108.262 38.9414 108.433 39.3461C108.687 39.9579 109.107 40.4708 109.638 40.8379C109.901 41.0214 110.197 41.1673 110.511 41.2661C110.825 41.3649 111.158 41.4167 111.499 41.4167H119.628C119.707 41.4167 119.776 41.4308 119.845 41.4591C119.942 41.5014 120.03 41.572 120.09 41.6661C120.122 41.7132 120.146 41.7602 120.159 41.812C120.173 41.8638 120.182 41.9202 120.182 41.9814V43.6755C120.182 43.7555 120.169 43.8261 120.141 43.8967C120.099 43.9955 120.03 44.0849 119.938 44.1461C119.892 44.1791 119.845 44.2026 119.795 44.2167C119.744 44.2308 119.688 44.2402 119.628 44.2402H110.021C109.255 44.2402 108.636 44.8708 108.636 45.652C108.636 46.4332 109.255 47.0638 110.021 47.0638H119.628C120.085 47.0638 120.524 46.9696 120.921 46.7955C121.522 46.5367 122.025 46.1085 122.386 45.5673C122.566 45.2991 122.709 44.9979 122.806 44.6779C122.903 44.3579 122.954 44.0191 122.954 43.6708V41.9767C122.954 41.5108 122.861 41.0638 122.69 40.6591C122.432 40.0473 122.011 39.5343 121.485 39.1673Z" fill="white"/>
<path d="M104.83 33.2895C104.253 32.7766 103.38 32.8378 102.876 33.4213L97.454 39.7366L92.0316 33.4213C91.5282 32.8331 90.6507 32.7766 90.078 33.2895C89.5006 33.8025 89.4452 34.6966 89.9486 35.2801L96.0684 42.4142V45.6472C96.0684 46.4284 96.6873 47.0589 97.454 47.0589C98.2207 47.0589 98.8396 46.4284 98.8396 45.6472V42.4142L104.964 35.2848C105.467 34.6966 105.407 33.8025 104.83 33.2895Z" fill="white"/>
<path d="M141.119 35.012C140.865 34.4002 140.445 33.8873 139.913 33.5202C139.65 33.3367 139.355 33.1908 139.041 33.092C138.726 32.9932 138.394 32.9414 138.052 32.9414H129.923C129.466 32.9414 129.027 33.0355 128.63 33.2096C128.03 33.4685 127.526 33.8967 127.166 34.4379C126.986 34.7061 126.843 35.0073 126.746 35.3273C126.649 35.6473 126.598 35.9861 126.598 36.3343V43.6755C126.598 44.1414 126.69 44.5885 126.861 44.9932C127.115 45.6049 127.535 46.1179 128.067 46.4849C128.33 46.6685 128.625 46.8143 128.939 46.9132C129.254 47.012 129.586 47.0638 129.928 47.0638H138.057C138.514 47.0638 138.953 46.9696 139.35 46.7955C139.95 46.5367 140.454 46.1085 140.814 45.5673C140.994 45.2991 141.137 44.9979 141.234 44.6779C141.331 44.3579 141.382 44.0191 141.382 43.6708V36.3296C141.378 35.8638 141.285 35.4167 141.119 35.012ZM138.606 43.6708C138.606 43.7508 138.593 43.8214 138.565 43.892C138.523 43.9908 138.454 44.0802 138.362 44.1414C138.315 44.1743 138.269 44.1979 138.218 44.212C138.168 44.2261 138.112 44.2355 138.052 44.2355H129.923C129.845 44.2355 129.775 44.2214 129.706 44.1932C129.609 44.1508 129.521 44.0802 129.461 43.9861C129.429 43.9391 129.406 43.892 129.392 43.8402C129.378 43.7885 129.369 43.732 129.369 43.6708V36.3296C129.369 36.2496 129.383 36.1791 129.411 36.1085C129.452 36.0096 129.521 35.9202 129.614 35.8591C129.66 35.8261 129.706 35.8026 129.757 35.7885C129.808 35.7743 129.863 35.7649 129.923 35.7649H138.052C138.131 35.7649 138.2 35.7791 138.269 35.8073C138.366 35.8496 138.454 35.9202 138.514 36.0143C138.546 36.0614 138.569 36.1085 138.583 36.1602C138.597 36.212 138.606 36.2685 138.606 36.3296V43.6708Z" fill="white"/>
<path d="M158.614 32.9414C157.848 32.9414 157.229 33.572 157.229 34.3532V42.4238L147.548 33.3179C147.142 32.9367 146.56 32.8379 146.052 33.0638C145.548 33.2896 145.22 33.7932 145.22 34.3579V45.652C145.22 46.4332 145.839 47.0638 146.606 47.0638C147.373 47.0638 147.991 46.4332 147.991 45.652V37.5767L157.677 46.6826C158.083 47.0638 158.665 47.1626 159.173 46.9367C159.677 46.7108 160.005 46.2073 160.005 45.6426V34.3532C160 33.572 159.381 32.9414 158.614 32.9414Z" fill="white"/>
<path d="M70.1115 44.2355H61.7978V34.3532C61.7978 33.572 61.1789 32.9414 60.4122 32.9414C59.6455 32.9414 59.0266 33.572 59.0266 34.3532V45.6473C59.0266 46.019 59.1744 46.3814 59.4331 46.6449C59.6917 46.9085 60.0474 47.059 60.4122 47.059H70.1115C70.8782 47.059 71.4971 46.4285 71.4971 45.6473C71.4971 44.8661 70.8782 44.2355 70.1115 44.2355Z" fill="white"/>
<path d="M88.9556 47.059C88.4799 47.059 88.0134 46.8096 87.7594 46.3579L82.4895 37.1532L77.2196 46.3579C76.8363 47.0308 75.9864 47.2567 75.326 46.8661C74.6655 46.4755 74.4438 45.6096 74.8271 44.9367L81.2933 33.6426C81.5427 33.2096 81.9953 32.9414 82.4895 32.9414C82.9837 32.9414 83.4363 33.2096 83.6857 33.6426L90.1518 44.9367C90.5352 45.6096 90.3135 46.4755 89.653 46.8661C89.4313 46.9979 89.1912 47.059 88.9556 47.059Z" fill="white"/>
</g>
<defs>
<clipPath id="clip0_6015_8">
<rect width="160" height="80" fill="white"/>
</clipPath>
</defs>
</svg>
