<svg width="160" height="80" viewBox="0 0 160 80" fill="none" xmlns="http://www.w3.org/2000/svg">
<g clip-path="url(#clip0)">
<path d="M154.647 35.9832C156.179 35.9832 157.725 35.9981 159.256 35.9684C159.776 35.9535 160.014 36.0872 159.999 36.6668C159.94 38.4351 160.267 38.2419 158.423 38.2568C156.193 38.2717 153.963 38.2568 151.733 38.2568C151.481 38.2568 151.183 38.1825 151.005 38.3014C150.707 38.4946 150.306 38.8066 150.306 39.0741C150.306 39.3416 150.722 39.6388 151.005 39.8468C151.139 39.936 151.391 39.8765 151.585 39.8765C153.339 39.8765 155.093 39.8617 156.862 39.8765C158.825 39.9063 160.029 41.1545 159.97 43.0714C159.925 44.6466 158.736 45.8354 157.011 45.8651C153.874 45.9097 150.722 45.88 147.585 45.8948C147.154 45.8948 147.006 45.7165 147.02 45.3153C147.02 45.2856 147.02 45.2707 147.02 45.241C147.035 43.2349 146.827 43.6213 148.581 43.5915C150.841 43.5618 153.086 43.5915 155.346 43.5915C155.539 43.5915 155.792 43.6658 155.926 43.5767C156.238 43.3538 156.491 43.0566 156.773 42.7891C156.506 42.5216 156.253 42.061 155.956 42.0312C155.108 41.9272 154.231 41.9718 153.369 41.9718C152.283 41.9718 151.183 41.9867 150.098 41.9569C148.239 41.9124 147.035 40.7087 147.035 38.9404C147.035 37.2315 148.254 36.0427 150.068 35.9684C150.113 35.9684 150.172 35.9684 150.217 35.9684C151.674 35.9832 153.16 35.9832 154.647 35.9832Z" fill="white"/>
<path d="M133.729 43.0268C134.309 43.9481 134.859 44.8546 135.513 45.8948C134.175 45.8948 133.001 45.9097 131.826 45.8799C131.663 45.8799 131.469 45.6422 131.365 45.4639C131.098 44.9883 130.815 44.5128 130.637 44.0076C130.399 43.324 129.983 43.0268 129.239 43.1011C128.645 43.1606 128.05 43.1457 127.455 43.1011C126.757 43.0417 126.429 43.2646 126.519 44.0076C126.563 44.4534 126.504 44.8992 126.534 45.345C126.563 45.7759 126.37 45.9097 125.969 45.8948C125.329 45.8799 124.675 45.8799 124.036 45.8948C123.649 45.9097 123.441 45.7908 123.441 45.3598C123.456 42.4176 123.456 39.4753 123.441 36.5181C123.441 36.0872 123.649 35.9683 124.036 35.9683C126.935 35.9832 129.834 35.9386 132.733 35.998C134.413 36.0278 135.513 37.2611 135.543 38.9255C135.543 39.0443 135.543 39.1781 135.543 39.297C135.543 41.6003 135.513 41.6597 133.729 43.0268ZM129.135 40.8424C129.775 40.8424 130.414 40.8424 131.068 40.8424C131.96 40.8275 132.406 40.4115 132.436 39.6387C132.466 38.8214 132.005 38.3311 131.113 38.3013C130.221 38.2716 129.329 38.2716 128.437 38.2865C126.147 38.3311 126.608 37.8853 126.534 40.2629C126.519 40.7087 126.667 40.887 127.128 40.8573C127.797 40.8127 128.466 40.8424 129.135 40.8424Z" fill="white"/>
<path d="M107.281 43.6063C107.281 44.4088 107.281 45.1072 107.281 45.8502C103.609 45.8502 99.981 45.8502 96.3237 45.8502C96.3237 42.5661 96.3237 39.3415 96.3237 36.0426C99.981 36.0426 103.609 36.0426 107.281 36.0426C107.281 36.7707 107.281 37.4692 107.281 38.2567C106.522 38.2567 105.779 38.2567 105.051 38.2567C103.415 38.2567 101.78 38.2865 100.144 38.2419C99.4309 38.227 99.3565 38.5539 99.3565 39.1335C99.3417 39.7279 99.5498 39.8913 100.13 39.8765C102.479 39.8468 104.828 39.8616 107.251 39.8616C107.251 40.5452 107.251 41.1842 107.251 41.9123C106.954 41.9272 106.656 41.9569 106.374 41.9569C104.292 41.9569 102.211 41.9866 100.13 41.942C99.4903 41.9272 99.3417 42.1798 99.3417 42.7742C99.3417 43.3686 99.5052 43.5915 100.13 43.5915C102.493 43.5915 104.842 43.6063 107.281 43.6063Z" fill="white"/>
<path d="M83.4934 40.9315C83.4934 39.4901 83.5082 38.0636 83.4785 36.6221C83.4636 36.1318 83.642 35.9832 84.1178 35.9832C86.9723 35.998 89.8119 35.998 92.6664 35.9832C94.1679 35.9832 95.8033 37.3206 95.61 39.0443C95.5654 39.3861 95.61 39.7427 95.61 40.0845C95.61 41.8826 94.4058 43.1011 92.592 43.116C90.8526 43.1308 89.128 43.1457 87.3886 43.116C86.779 43.1011 86.556 43.3091 86.5709 43.9333C86.5857 44.5574 86.4965 45.1964 86.4519 45.8205C85.5599 45.8502 84.6827 45.8948 83.7907 45.8651C83.6866 45.8651 83.5826 45.4638 83.4934 45.2409C83.4785 45.2261 83.4934 45.1964 83.4934 45.1666C83.4934 43.7549 83.4934 42.3432 83.4934 40.9315ZM89.1577 40.8424C89.8268 40.8424 90.4958 40.8572 91.1648 40.8424C92.0568 40.8127 92.4731 40.4114 92.4731 39.5793C92.488 38.762 92.0717 38.331 91.1945 38.2865C90.2876 38.2567 89.3659 38.2567 88.459 38.2716C86.2587 38.331 86.6303 37.8109 86.6006 40.2926C86.6006 40.3223 86.5857 40.352 86.6006 40.3669C86.7641 40.5303 86.9128 40.8127 87.0912 40.8127C87.7751 40.8721 88.459 40.8424 89.1577 40.8424Z" fill="white"/>
<path d="M39.9924 35.9825C41.3007 35.9825 42.6238 35.9676 43.9321 35.9825C45.9541 36.0122 47.1137 37.1713 47.1286 39.1625C47.1286 39.5043 47.1286 39.8609 47.1286 40.2027C47.0988 41.867 45.8946 43.0707 44.1997 43.1004C42.4454 43.1301 40.6911 43.1301 38.9219 43.1004C38.2678 43.0855 38.0745 43.3233 38.0894 43.9623C38.1043 45.8941 38.0894 45.9089 36.1715 45.8941C34.9227 45.8941 35.0119 46.0427 35.0119 44.735C35.0119 42.0899 35.0268 39.4448 34.997 36.7849C34.9822 36.1162 35.2052 35.9379 35.8445 35.9527C37.2122 36.0122 38.5949 35.9825 39.9924 35.9825ZM38.1191 40.8268C39.7694 40.8268 41.3304 40.8417 42.8766 40.812C43.5456 40.7971 43.947 40.3216 43.9619 39.638C43.9767 38.9693 43.7091 38.3749 43.0253 38.3452C41.4047 38.2709 39.7842 38.3155 38.1191 38.3155C38.1191 39.1774 38.1191 39.9501 38.1191 40.8268Z" fill="white"/>
<path d="M122.668 45.8056C119.368 45.8056 116.127 45.8056 112.737 45.8056C113.138 45.0775 113.48 44.4088 113.882 43.7847C113.971 43.6361 114.313 43.6063 114.551 43.6063C115.725 43.5915 116.915 43.5915 118.282 43.5915C117.301 41.8974 116.409 40.352 115.428 38.658C115.086 39.2226 114.803 39.6536 114.536 40.1142C113.54 41.8231 112.529 43.532 111.562 45.2558C111.295 45.7313 110.968 45.9096 110.433 45.8799C109.704 45.8353 108.961 45.8651 108.098 45.8651C108.232 45.5679 108.307 45.3598 108.411 45.1815C110.016 42.3432 111.637 39.505 113.213 36.6519C113.48 36.1615 113.792 35.9237 114.372 35.9683C115.13 36.0129 115.904 35.9386 116.677 35.998C116.944 36.0129 117.316 36.1912 117.435 36.4141C119.159 39.4158 120.869 42.4324 122.564 45.449C122.609 45.5381 122.623 45.6422 122.668 45.8056Z" fill="white"/>
<path d="M73.2797 45.865C69.9198 45.865 66.6787 45.865 63.2444 45.865C63.7053 45.0774 64.077 44.379 64.523 43.7251C64.6122 43.6063 64.9244 43.6063 65.1474 43.6063C66.3071 43.5914 67.4667 43.6063 68.8196 43.6063C67.8532 41.9419 66.9612 40.3965 65.9949 38.7173C65.6975 39.1631 65.4745 39.4901 65.2664 39.8318C64.1959 41.6745 63.1106 43.5022 62.07 45.3597C61.8469 45.761 61.5942 45.9244 61.1333 45.9096C60.3454 45.8798 59.5574 45.8947 58.6059 45.8947C59.0519 45.0923 59.4088 44.4384 59.7804 43.7697C61.1185 41.3921 62.4565 39.0294 63.7797 36.6518C64.0473 36.1614 64.3446 35.9088 64.9393 35.9682C65.8759 36.0425 66.9761 35.7305 67.7046 36.1466C68.3884 36.5329 68.7007 37.6326 69.1467 38.4201C70.4252 40.6788 71.7038 42.9376 72.9824 45.1963C73.0567 45.3895 73.1459 45.5678 73.2797 45.865Z" fill="white"/>
<path d="M82.6906 35.9385C82.4825 36.2654 82.3933 36.4289 82.2743 36.5775C81.0701 38.0337 79.851 39.4603 78.6913 40.9314C78.4237 41.2732 78.2453 41.7487 78.2156 42.1797C78.1413 43.2199 78.1859 44.2601 78.2007 45.3003C78.2007 45.7312 78.0521 45.9392 77.5912 45.9095C77.0262 45.8798 76.4464 45.8798 75.8815 45.9095C75.4206 45.9244 75.2719 45.7461 75.2719 45.3003C75.2868 44.3344 75.2422 43.3685 75.2868 42.4026C75.3165 41.7933 75.1233 41.3326 74.7218 40.872C73.5473 39.5049 72.4026 38.108 71.243 36.7112C71.0943 36.5329 70.9456 36.3248 70.6929 35.9831C72.016 35.9831 73.1757 35.9682 74.3502 35.9979C74.5137 35.9979 74.6921 36.2505 74.8408 36.414C75.4355 37.0976 76.0302 37.796 76.6992 38.5984C77.2939 37.8851 77.8885 37.2462 78.4237 36.5477C78.7657 36.0871 79.1671 35.8939 79.7469 35.9088C80.6687 35.9682 81.6053 35.9385 82.6906 35.9385Z" fill="white"/>
<path d="M52.8375 45.9095C51.3805 45.9095 49.9087 45.8947 48.4517 45.9244C47.9314 45.9393 47.7679 45.7461 47.7679 45.2409C47.7827 42.3877 47.7827 39.5495 47.7679 36.6964C47.7679 36.1317 47.976 35.9534 48.5112 35.9979C49.2694 36.0574 50.2209 35.8345 50.7115 36.206C51.0683 36.4883 50.8453 37.5434 50.8602 38.2567C50.8751 39.817 50.8751 41.3773 50.8602 42.9376C50.8453 43.4577 51.0386 43.636 51.5441 43.636C53.4025 43.6211 55.2609 43.6508 57.1192 43.6211C57.6842 43.6063 57.9221 43.7549 57.8923 44.3641C57.8329 46.2662 58.1005 45.8947 56.3164 45.9244C55.1568 45.9244 53.9972 45.9095 52.8375 45.9095Z" fill="white"/>
<path d="M141.252 45.9095C139.795 45.9095 138.338 45.8947 136.881 45.9244C136.39 45.9393 136.242 45.7609 136.242 45.2854C136.257 42.3877 136.257 39.5049 136.242 36.6072C136.242 36.1614 136.405 36.0128 136.851 35.9979C139.334 35.879 139.334 35.8642 139.334 38.3458C139.334 39.8467 139.349 41.3624 139.319 42.8632C139.304 43.4279 139.468 43.636 140.063 43.6211C141.921 43.5914 143.779 43.6211 145.623 43.5914C146.158 43.5765 146.366 43.74 146.351 44.3047C146.307 46.2365 146.559 45.865 144.805 45.8947C143.631 45.9244 142.441 45.9095 141.252 45.9095Z" fill="white"/>
<path d="M23.7724 38.5094L12.1315 31.7927C10.2731 30.7079 7.939 32.0602 7.939 34.2V47.6334C7.939 49.7733 10.2583 51.1255 12.1166 50.0556L23.7576 43.3389C25.6308 42.2541 25.6308 39.5793 23.7724 38.5094Z" fill="white"/>
<path d="M15.0752 27.1414C22.4939 27.1414 28.515 33.1746 28.515 40.5749C28.515 47.9751 22.479 54.0083 15.0752 54.0083C7.67141 54.0083 1.63538 47.99 1.63538 40.5749C1.63538 33.1597 7.67141 27.1414 15.0752 27.1414ZM15.0752 25.5068C6.74965 25.5068 0 32.2533 0 40.5749C0 48.8965 6.74965 55.6429 15.0752 55.6429C23.4008 55.6429 30.1504 48.8965 30.1504 40.5749C30.1504 32.2533 23.4156 25.5068 15.0752 25.5068Z" fill="white"/>
</g>
<defs>
<clipPath id="clip0">
<rect width="160" height="80" fill="white"/>
</clipPath>
</defs>
</svg>
