<svg width="160" height="80" viewBox="0 0 160 80" fill="none" xmlns="http://www.w3.org/2000/svg">
<path d="M147.959 51.8792H6.32008C2.82416 51.8792 1.04889 50.0958 0.33878 48.0379C-0.0982094 46.7758 -0.0982094 45.4039 0.256845 44.1143L2.87878 34.6207C3.6162 32.069 5.80115 27.8161 11.1543 27.8161C11.1543 27.8161 117.971 27.8161 153.558 27.8161C158.474 27.8161 160.632 31.2184 159.84 35.0049C159.294 37.7487 157.054 45.0197 157.054 45.0197C156.18 49.0806 152.794 51.8792 147.959 51.8792Z" fill="#007CBA"/>
<path d="M127.776 61.8941C118.353 61.8941 99.5081 61.8941 90.0855 61.8941C84.4046 61.8941 78.9423 56.6535 79.707 51.0012C80.5264 44.9649 83.913 35.4987 85.7975 29.7093C88.0371 22.7949 94.8105 17.7189 100.464 17.7189H139.52C147.741 17.911 151.209 25.5387 149.543 30.9166C147.741 36.7609 144.846 45.9801 143.071 51.3305C141.404 56.3242 133.429 61.8941 127.776 61.8941Z" fill="white"/>
<path d="M140.148 21.0389C140.148 21.0389 133.921 21.0663 131.654 21.0389C125.482 20.9566 120.32 25.2095 118.79 30.0934L114.448 43.8948C109.614 55.8852 115.786 57.9156 120.047 57.8882C122.614 57.8882 125.154 57.8882 127.148 57.8882C132.392 57.8882 138.154 54.0743 139.684 49.1903L145.583 30.3129C147.167 25.9229 144.573 21.0389 140.148 21.0389ZM130.616 48.8885H122.368L128.104 30.5599H136.352L130.616 48.8885Z" fill="#DD2027"/>
<path d="M98.9619 44.224H103.523L102.048 48.861H93.1444L94.3735 44.9648L94.592 44.2789L97.5143 35.1695L98.9619 30.5873H116.004L116.086 30.3129L118.572 21.5876C118.572 21.5876 104.424 21.6151 102.157 21.5876C95.9849 21.5053 90.9322 26.2247 89.8397 30.0934L85.4971 43.8948C80.0621 56.7358 87.2178 57.8882 91.0961 57.8882C93.6634 57.8882 96.2034 57.8882 98.1971 57.8882C104.615 57.8882 109.204 53.7999 110.733 48.9159L114.693 35.142H101.857L98.9619 44.224Z" fill="#DD2027"/>
<path d="M72.2509 46.4191L74.1354 39.8065L70.6668 39.7791L68.755 46.3916L64.904 46.4191L67.007 39.5321C67.6352 37.7487 69.4924 36.0201 71.9778 36.0475C72.8791 36.0475 75.5556 36.0475 75.5556 36.0475C77.5494 36.0475 78.5599 37.7212 78.0956 39.6693L76.0199 46.3916L72.2509 46.4191Z" fill="white"/>
<path d="M67.6352 36.514H62.5825L64.1393 32.1239H69.11L67.6352 36.514Z" fill="white"/>
<path d="M55.9184 39.0931H52.559L54.8259 31.7672H50.9749L48.6261 39.34C48.1891 41.2881 49.1724 42.9619 51.1661 42.9619C51.1661 42.9619 51.1661 42.9619 51.1934 42.9619L50.1283 46.4191H53.8973L54.9898 42.9619C57.3659 42.8795 59.1412 41.2333 59.7421 39.5047L62.1728 31.7672H58.4038L55.9184 39.0931Z" fill="white"/>
<path d="M45.8676 31.7672C45.8676 31.7672 43.1911 31.7672 42.2898 31.7672C39.8044 31.7398 37.9199 33.4409 37.319 35.2518L33.6865 46.4465H37.5102L38.6846 42.8247L42.0713 42.8522L41.0607 46.4465H44.7478L48.4349 35.389C48.8719 33.4409 47.8887 31.7672 45.8676 31.7672ZM43.273 39.0932H39.6678L40.8969 35.4713H44.4474L43.273 39.0932Z" fill="white"/>
<path d="M25.6842 31.7672L21.0411 46.4191H32.1844L34.5605 39.0931H30.8188L29.6717 42.7149H26.2031L29.5897 31.7672H25.6842Z" fill="white"/>
<path d="M20.4949 31.7672H13.2846L8.58696 46.4465H12.4106L13.585 42.8247H16.9444C16.9444 42.8247 20.4403 42.9893 21.8332 39.3949C22.2702 38.27 23.1169 35.4713 23.1169 35.4713C23.7724 33.2488 22.516 31.7672 20.4949 31.7672ZM18.1734 39.0931H14.5956L15.8246 35.4713H19.3751L18.1734 39.0931Z" fill="white"/>
<path d="M154.026 23.1122C154.341 23.0067 154.553 22.7088 154.553 22.3707C154.553 22.1111 154.445 21.8785 154.258 21.7324C154.021 21.5376 153.79 21.5376 153.406 21.5376H152.553V24.3311H152.87V23.2039H153.576L154.186 24.3311H154.54L153.887 23.159L154.026 23.1122ZM153.603 22.9344H152.87V21.7581H153.26C153.502 21.7576 153.709 21.762 153.894 21.8415C154.092 21.941 154.211 22.1332 154.211 22.3462C154.211 22.67 153.949 22.9335 153.627 22.9343L153.603 22.9344Z" fill="white"/>
<path d="M153.455 20.1409C151.909 20.1409 150.65 21.405 150.65 22.9588C150.65 24.5127 151.909 25.7768 153.455 25.7768C155.002 25.7768 156.26 24.5127 156.26 22.9588C156.26 21.405 155.002 20.1409 153.455 20.1409ZM153.455 25.4338C152.097 25.4338 150.992 24.3236 150.992 22.9588C150.992 21.5941 152.097 20.4839 153.455 20.4839C154.814 20.4839 155.919 21.5941 155.919 22.9588C155.919 24.3236 154.814 25.4338 153.455 25.4338Z" fill="white"/>
</svg>
