<svg width="160" height="80" viewBox="0 0 160 80" fill="none" xmlns="http://www.w3.org/2000/svg">
<path d="M84.1383 68.1198C84.1545 67.7934 84.1707 67.5159 84.1869 67.1895C84.511 67.1569 84.8189 67.1406 85.1916 67.1079C85.224 66.7815 85.2726 66.4715 85.305 66.1451C85.5805 66.1287 85.856 66.0961 86.18 66.0798C86.2287 65.7534 86.2611 65.4596 86.3097 65.1006C86.6014 65.0843 86.8931 65.068 87.2334 65.0516C87.2334 67.8423 87.2334 70.6004 87.2334 73.3911C86.5852 73.3911 85.9532 73.3911 85.2402 73.3911C85.2402 72.3793 85.2402 71.3837 85.2402 70.3556C84.8837 70.3556 84.592 70.3556 84.2355 70.3556C84.2031 70.6494 84.1707 70.9594 84.1221 71.3185C83.8142 71.3185 83.5063 71.3185 83.1822 71.3185C83.1498 70.9921 83.1174 70.6983 83.085 70.3719C82.7771 70.3719 82.5016 70.3719 82.1289 70.3719C82.1289 71.3674 82.1289 72.3629 82.1289 73.3911C81.3835 73.3911 80.7353 73.3911 80.0547 73.3911C80.0547 70.6167 80.0547 67.875 80.0547 65.1006C80.3788 65.1006 80.6705 65.1006 81.027 65.1006C81.0594 65.3944 81.0756 65.7044 81.108 66.0798C81.4159 66.0961 81.7238 66.1287 82.0641 66.1614C82.0965 66.4878 82.1127 66.7815 82.1451 67.1079C82.4692 67.1406 82.7447 67.1732 83.1012 67.2222C83.1336 67.5159 83.1498 67.8097 83.1822 68.1524C83.5063 68.1198 83.8304 68.1198 84.1383 68.1198Z" fill="white"/>
<path d="M78.0291 66.0635C78.3694 66.0798 78.6287 66.1124 78.9528 66.1288C78.9528 68.5604 78.9528 70.9594 78.9528 73.3911C78.3046 73.3911 77.6564 73.3911 76.9434 73.3911C76.9434 72.7383 76.9434 72.1018 76.9434 71.4001C76.2466 71.4001 75.6146 71.4001 74.9016 71.4001C74.9016 72.0366 74.9016 72.673 74.9016 73.3585C74.1724 73.3585 73.508 73.3585 72.8274 73.3585C72.8274 70.9594 72.8274 68.5767 72.8274 66.1614C73.1515 66.1288 73.4432 66.0961 73.7673 66.0635C73.7997 65.7534 73.8159 65.4433 73.8483 65.0843C75.2095 65.0843 76.5383 65.0843 77.9319 65.0843C77.9643 65.3944 77.9967 65.7044 78.0291 66.0635ZM76.8786 67.1896C76.1656 67.1896 75.566 67.1896 74.934 67.1896C74.934 67.8913 74.934 68.5441 74.934 69.1969C75.6146 69.1969 76.2466 69.1969 76.8786 69.1969C76.8786 68.4951 76.8786 67.8587 76.8786 67.1896Z" fill="white"/>
<path d="M49.0389 65.0679C51.0807 65.0679 53.0901 65.0679 55.1318 65.0679C55.1318 65.737 55.1318 66.3735 55.1318 67.1079C53.8031 67.1079 52.4743 67.1079 51.0807 67.1079C51.0483 67.4832 51.0321 67.777 51.0158 68.136C52.0529 68.136 53.0414 68.136 54.0785 68.136C54.0785 68.8704 54.0785 69.5395 54.0785 70.2739C53.0738 70.2739 52.0854 70.2739 51.0645 70.2739C51.0645 70.6493 51.0645 70.9267 51.0645 71.3021C52.4257 71.3021 53.7544 71.3021 55.1318 71.3021C55.1318 72.0201 55.1318 72.6566 55.1318 73.342C53.1225 73.342 51.1131 73.342 49.0389 73.342C49.0389 70.6493 49.0389 67.9075 49.0389 65.0679Z" fill="white"/>
<path d="M90.4743 71.3347C91.8193 71.3347 93.1319 71.3347 94.4931 71.3347C94.4931 72.0365 94.4931 72.673 94.4931 73.3747C92.4999 73.3747 90.4905 73.3747 88.4163 73.3747C88.4163 70.6656 88.4163 67.9075 88.4163 65.1005C90.3933 65.1005 92.4027 65.1005 94.4769 65.1005C94.4769 65.7533 94.4769 66.4061 94.4769 67.1405C93.1481 67.1405 91.8355 67.1405 90.4581 67.1405C90.4419 67.4995 90.4257 67.777 90.3933 68.136C91.4142 68.136 92.4027 68.136 93.456 68.136C93.456 68.8704 93.456 69.5232 93.456 70.2739C92.4837 70.2739 91.5114 70.2739 90.4743 70.2739C90.4743 70.6493 90.4743 70.9594 90.4743 71.3347Z" fill="white"/>
<path d="M95.6436 73.3584C95.6436 72.6729 95.6436 72.0365 95.6436 71.3347C97.0048 71.3347 98.3174 71.3347 99.6786 71.3347C99.6786 70.992 99.6786 70.6982 99.6786 70.3229C98.6901 70.3229 97.6854 70.3229 96.6483 70.3229C96.6321 69.9312 96.6159 69.6375 96.5835 69.2947C96.2756 69.2621 96.0001 69.2295 95.6598 69.1968C95.6598 68.2176 95.6598 67.2221 95.6598 66.1613C95.9191 66.1287 96.2108 66.096 96.5511 66.0634C96.5835 65.7533 96.6159 65.4432 96.6645 65.1005C98.3336 65.1005 100.003 65.1005 101.72 65.1005C101.72 65.7533 101.72 66.4061 101.72 67.1568C100.392 67.1568 99.0952 67.1568 97.7016 67.1568C97.6854 67.5159 97.6692 67.7933 97.653 68.1523C98.6739 68.1523 99.6624 68.1523 100.699 68.1523C100.748 68.5277 100.781 68.8378 100.829 69.2131C101.105 69.2458 101.38 69.2784 101.72 69.3274C101.72 70.3066 101.72 71.3021 101.72 72.3465C101.445 72.3792 101.169 72.4118 100.829 72.4608C100.797 72.7545 100.764 73.0483 100.732 73.391C99.0628 73.3584 97.3775 73.3584 95.6436 73.3584Z" fill="#080808"/>
<path d="M118.33 72.3629C118.006 72.3792 117.747 72.3955 117.407 72.4118C117.374 72.7056 117.326 73.0157 117.277 73.3747C115.932 73.3747 114.571 73.3747 113.161 73.3747C113.161 73.0809 113.161 72.7872 113.161 72.4445C112.821 72.4118 112.513 72.3629 112.172 72.3302C112.172 70.2739 112.172 68.2503 112.172 66.1613C112.48 66.1287 112.756 66.096 113.096 66.0634C113.129 65.7696 113.145 65.4596 113.177 65.1005C114.538 65.1005 115.883 65.1005 117.293 65.1005C117.309 65.4106 117.326 65.7044 117.342 66.0471C117.666 66.0797 117.974 66.1124 118.314 66.1613C118.33 68.2013 118.33 70.225 118.33 72.3629ZM114.279 71.2858C114.96 71.2858 115.592 71.2858 116.207 71.2858C116.207 69.8822 116.207 68.5277 116.207 67.2058C115.527 67.2058 114.927 67.2058 114.279 67.2058C114.279 68.5603 114.279 69.8822 114.279 71.2858Z" fill="white"/>
<path d="M104.913 73.3747C104.913 72.6893 104.913 72.0691 104.913 71.351C106.258 71.351 107.603 71.351 108.98 71.351C108.98 70.9757 108.98 70.6819 108.98 70.3229C107.992 70.3229 107.003 70.3229 105.998 70.3229C105.95 69.9312 105.917 69.6211 105.885 69.2621C105.577 69.2458 105.285 69.2295 104.961 69.1968C104.961 68.1687 104.961 67.1895 104.961 66.1613C105.253 66.1287 105.545 66.096 105.885 66.0634C105.917 65.7533 105.95 65.4432 105.998 65.1005C107.7 65.1005 109.385 65.1005 111.103 65.1005C111.103 65.7696 111.103 66.4061 111.103 67.1405C109.758 67.1405 108.413 67.1405 107.052 67.1405C107.052 67.5159 107.052 67.8096 107.052 68.1523C108.024 68.1523 109.013 68.1523 110.05 68.1523C110.082 68.5277 110.098 68.8378 110.131 69.2131C110.439 69.2458 110.746 69.2784 111.087 69.3111C111.087 70.3229 111.087 71.3021 111.087 72.3465C110.779 72.3792 110.487 72.3955 110.147 72.4281C110.114 72.7219 110.098 73.032 110.066 73.391C108.364 73.3747 106.679 73.3747 104.913 73.3747Z" fill="white"/>
<path d="M70.7045 65.0842C70.7045 65.7859 70.7045 66.4061 70.7045 67.1079C69.716 67.1079 68.7275 67.1079 67.6904 67.1079C67.6904 68.5277 67.6904 69.8822 67.6904 71.2694C68.3224 71.2694 68.9544 71.2694 69.6512 71.2694C69.6674 70.9757 69.6836 70.6982 69.6998 70.3555C69.3433 70.3229 69.0354 70.2739 68.6951 70.2413C68.6951 69.5722 68.6951 68.9357 68.6951 68.2176C69.6836 68.2176 70.6721 68.2176 71.7092 68.2176C71.7092 69.5558 71.7092 70.9267 71.7092 72.3139C71.4013 72.3465 71.1096 72.3629 70.7693 72.3955C70.7369 72.7056 70.7045 73.032 70.6883 73.3584C69.3271 73.3584 67.9983 73.3584 66.6371 73.3584C66.6047 73.032 66.5885 72.7382 66.5561 72.4118C66.2482 72.3792 65.9565 72.3465 65.6 72.3139C65.6 70.2739 65.6 68.2176 65.6 66.145C65.8917 66.1123 66.1834 66.0797 66.5237 66.0471C66.5561 65.737 66.6047 65.4269 66.6371 65.0679C67.9659 65.0842 69.3109 65.0842 70.7045 65.0842Z" fill="white"/>
<path d="M33.3527 72.3465C33.0772 72.3791 32.818 72.3954 32.4777 72.4281C32.4452 72.7218 32.3966 73.0319 32.348 73.3746C31.003 73.3746 29.658 73.3746 28.2644 73.3746C28.2482 73.0809 28.232 72.8034 28.1996 72.4607C27.8917 72.4281 27.6 72.3791 27.2759 72.3465C27.2759 70.2902 27.2759 68.2502 27.2759 66.1612C27.5676 66.1286 27.8593 66.096 28.1834 66.0633C28.1996 65.7532 28.232 65.4595 28.2644 65.1168C29.6094 65.1168 30.9706 65.1168 32.3642 65.1168C32.3804 65.4268 32.3966 65.7206 32.429 66.0633C32.7207 66.096 32.9962 66.1286 33.3365 66.1776C33.3527 68.2175 33.3527 70.2575 33.3527 72.3465ZM29.3177 67.2057C29.3177 68.6092 29.3177 69.9474 29.3177 71.302C29.9983 71.302 30.6465 71.302 31.2947 71.302C31.2947 69.9148 31.2947 68.5766 31.2947 67.2057C30.6303 67.2057 30.0307 67.2057 29.3177 67.2057Z" fill="white"/>
<path d="M45.8628 65.0679C46.6082 65.0679 47.224 65.0679 47.8721 65.0679C47.8721 66.0797 47.8721 67.0752 47.8721 68.136C47.5967 68.1686 47.2888 68.2013 46.9323 68.2502C46.9323 68.9194 46.9323 69.5558 46.9323 70.2413C47.224 70.2739 47.5156 70.2902 47.8559 70.3229C47.8559 71.3021 47.8559 72.2976 47.8559 73.3584C47.2402 73.3584 46.6082 73.3584 45.9114 73.3584C45.9114 72.4118 45.9114 71.4163 45.9114 70.3555C45.1822 70.3555 44.534 70.3555 43.7886 70.3555C43.7886 71.351 43.7886 72.3465 43.7886 73.3747C43.0593 73.3747 42.4274 73.3747 41.7468 73.3747C41.7468 70.6329 41.7468 67.8749 41.7468 65.0842C42.395 65.0842 43.0431 65.0842 43.7562 65.0842C43.7562 66.0797 43.7562 67.0752 43.7562 68.136C44.4854 68.136 45.1498 68.136 45.8628 68.136C45.8628 67.1242 45.8628 66.1287 45.8628 65.0679Z" fill="white"/>
<path d="M38.5868 71.3021C38.603 70.9267 38.6192 70.633 38.6354 70.3229C39.2998 70.3229 39.9156 70.3229 40.5962 70.3229C40.5962 70.992 40.5962 71.6448 40.5962 72.3465C40.3045 72.3792 40.0128 72.4118 39.6887 72.4445C39.6563 72.7709 39.6401 73.0483 39.6077 73.391C38.2789 73.391 36.9339 73.391 35.5565 73.391C35.5241 73.0973 35.4917 72.7872 35.4431 72.4608C35.1352 72.4282 34.8435 72.4118 34.5032 72.3792C34.5032 70.3229 34.5032 68.2992 34.5032 66.2103C34.7949 66.1776 35.1028 66.1287 35.4431 66.096C35.4755 65.7533 35.5079 65.4432 35.5241 65.1005C36.8691 65.1005 38.1817 65.1005 39.5591 65.1005C39.5915 65.4269 39.6401 65.737 39.6725 66.0797C39.9804 66.1124 40.2559 66.145 40.5962 66.194C40.5962 66.8468 40.5962 67.4832 40.5962 68.185C39.9804 68.185 39.3322 68.185 38.6354 68.185C38.603 67.9075 38.5706 67.5975 38.5382 67.2548C37.89 67.2548 37.2418 67.2548 36.5612 67.2548C36.5612 68.6256 36.5612 69.9639 36.5612 71.3347C37.2418 71.3021 37.89 71.3021 38.5868 71.3021Z" fill="white"/>
<path d="M22.0418 70.274C22.0418 71.3674 22.0418 72.363 22.0418 73.3748C21.3288 73.3748 20.6968 73.3748 20.0162 73.3748C20.0162 70.6004 20.0162 67.8587 20.0162 65.0843C21.7177 65.0843 23.403 65.0843 25.1045 65.0843C25.1369 65.427 25.1693 65.7534 25.2017 66.0798C25.5258 66.1124 25.8175 66.1288 26.1254 66.1614C26.1254 67.1569 26.1254 68.1361 26.1254 69.1643C25.8337 69.1969 25.5258 69.2459 25.1855 69.2785C25.1693 69.5886 25.1369 69.8823 25.1045 70.274C24.1322 70.274 23.1275 70.274 22.0418 70.274ZM22.058 67.1896C22.058 67.5323 22.058 67.826 22.058 68.1198C22.7548 68.1198 23.403 68.1198 24.0511 68.1198C24.0511 67.7771 24.0511 67.4996 24.0511 67.1896C23.3868 67.1896 22.771 67.1896 22.058 67.1896Z" fill="white"/>
<path d="M125.606 65.1005C125.606 65.786 125.606 66.4061 125.606 67.1405C124.229 67.1405 122.868 67.1405 121.49 67.1405C121.49 67.5159 121.49 67.7933 121.49 68.136C122.479 68.136 123.451 68.136 124.488 68.136C124.488 68.8867 124.488 69.5722 124.488 70.3066C123.5 70.3066 122.543 70.3066 121.49 70.3066C121.49 71.3347 121.49 72.3302 121.49 73.3747C120.761 73.3747 120.097 73.3747 119.4 73.3747C119.4 70.633 119.4 67.8912 119.4 65.1005C121.474 65.1005 123.516 65.1005 125.606 65.1005Z" fill="white"/>
<path d="M128.734 67.1569C128.004 67.1569 127.389 67.1569 126.708 67.1569C126.708 66.4552 126.708 65.8024 126.708 65.0843C128.734 65.0843 130.759 65.0843 132.85 65.0843C132.85 65.7371 132.85 66.3736 132.85 67.1243C132.201 67.1243 131.553 67.1243 130.824 67.1243C130.824 69.2459 130.824 71.2858 130.824 73.3585C130.111 73.3585 129.447 73.3585 128.734 73.3585C128.734 71.3348 128.734 69.2948 128.734 67.1569Z" fill="white"/>
<path d="M60.3659 73.3911C59.6043 73.3911 58.9885 73.3911 58.2917 73.3911C58.2917 71.3348 58.2917 69.2948 58.2917 67.1569C57.5787 67.1569 56.9467 67.1569 56.2823 67.1569C56.2823 66.4225 56.2823 65.786 56.2823 65.0843C58.2917 65.0843 60.3173 65.0843 62.3753 65.0843C62.3753 65.7534 62.3753 66.3899 62.3753 67.1243C61.7109 67.1243 61.0789 67.1243 60.3659 67.1243C60.3659 69.2622 60.3659 71.3022 60.3659 73.3911Z" fill="white"/>
<path d="M51.1779 42.7259C51.1779 41.2081 51.1779 39.7394 51.1779 38.2216C52.6687 38.2216 54.1433 38.2216 55.6342 38.2216C55.6342 39.723 55.6342 41.2081 55.6342 42.7259C54.1433 42.7259 52.6849 42.7259 51.1779 42.7259Z" fill="white"/>
<path d="M66.7993 17.1854C68.2901 17.1854 69.7323 17.1854 71.2393 17.1854C71.2393 18.6542 71.2393 20.1393 71.2393 21.6571C69.7809 21.6571 68.3063 21.6571 66.7993 21.6571C66.7993 20.1556 66.7993 18.6869 66.7993 17.1854Z" fill="white"/>
<path d="M71.2556 26.912C69.7485 26.912 68.2901 26.912 66.7993 26.912C66.7993 25.4269 66.7993 23.9745 66.7993 22.4567C68.2739 22.4567 69.7323 22.4567 71.2556 22.4567C71.2556 23.9255 71.2556 25.378 71.2556 26.912Z" fill="white"/>
<path d="M94.1528 11.1959C93.6666 11.1959 93.1805 11.1633 92.6944 11.1959C92.0462 11.2449 91.8355 10.9348 91.8517 10.331C91.8679 9.30283 91.8841 8.25836 91.8517 7.2302C91.8355 6.75693 92.0138 6.59373 92.4675 6.61005C93.6342 6.62637 94.7848 6.59373 95.9515 6.64269C96.1621 6.65901 96.5348 6.98541 96.5348 7.18124C96.5997 8.291 96.5673 9.41707 96.5673 10.5268C96.5673 10.9838 96.3728 11.2286 95.8705 11.1959C95.2871 11.1633 94.7199 11.1959 94.1528 11.1959Z" fill="#F9BA24"/>
<path d="M53.3979 48.0626C51.1292 48.0626 51.1292 48.0626 51.1292 45.7778C51.1292 45.2066 51.1455 44.6354 51.1292 44.0642C51.113 43.6236 51.2589 43.4114 51.7288 43.4277C52.8307 43.444 53.9327 43.444 55.0346 43.4114C55.5369 43.3951 55.7638 43.5746 55.7476 44.1132C55.7152 45.1903 55.7152 46.2837 55.7476 47.3771C55.7638 47.9157 55.5531 48.0952 55.0346 48.0626C54.4836 48.0299 53.9489 48.0626 53.3979 48.0626Z" fill="#E122D7"/>
<path d="M112.804 27.6953C114.295 27.6953 115.754 27.6953 117.228 27.6953C117.228 29.2131 117.228 30.6982 117.228 32.1996C115.754 32.1996 114.311 32.1996 112.804 32.1996C112.804 30.7308 112.804 29.262 112.804 27.6953Z" fill="white"/>
<path d="M86.7797 38.2054C88.2867 38.2054 89.7289 38.2054 91.2198 38.2054C91.2198 39.7231 91.2198 41.2082 91.2198 42.726C89.7451 42.726 88.2705 42.726 86.7797 42.726C86.7797 41.2082 86.7797 39.7558 86.7797 38.2054Z" fill="white"/>
<path d="M86.018 17.1854C86.018 18.7032 86.018 20.1556 86.018 21.6571C84.5596 21.6571 83.1174 21.6571 81.6104 21.6571C81.6104 20.1883 81.6104 18.7195 81.6104 17.1854C83.0364 17.1854 84.4786 17.1854 86.018 17.1854Z" fill="#E41C75"/>
<path d="M45.9924 47.9972C45.9924 46.4958 45.9924 45.0433 45.9924 43.5256C47.4508 43.5256 48.9092 43.5256 50.4163 43.5256C50.4163 44.9944 50.4163 46.4632 50.4163 47.9972C48.974 47.9972 47.5318 47.9972 45.9924 47.9972Z" fill="white"/>
<path d="M45.2308 43.5094C45.2308 45.0272 45.2308 46.5123 45.2308 48.0137C43.7562 48.0137 42.314 48.0137 40.8231 48.0137C40.8231 46.4959 40.8231 45.0272 40.8231 43.5094C42.2815 43.5094 43.7238 43.5094 45.2308 43.5094Z" fill="white"/>
<path d="M86.0018 43.4929C86.0018 45.027 86.0018 46.4958 86.0018 47.9972C84.5272 47.9972 83.085 47.9972 81.5941 47.9972C81.5941 46.4958 81.5941 45.0107 81.5941 43.4929C83.0525 43.4929 84.4948 43.4929 86.0018 43.4929Z" fill="white"/>
<path d="M71.2717 27.7117C71.2717 29.2132 71.2717 30.6656 71.2717 32.1834C69.7971 32.1834 68.3387 32.1834 66.8154 32.1834C66.8154 30.7146 66.8154 29.2458 66.8154 27.7117C68.2739 27.7117 69.7161 27.7117 71.2717 27.7117Z" fill="white"/>
<path d="M132.866 38.2054C132.866 39.7068 132.866 41.1756 132.866 42.6934C131.391 42.6934 129.933 42.6934 128.426 42.6934C128.426 41.2082 128.426 39.7395 128.426 38.2054C129.884 38.2054 131.326 38.2054 132.866 38.2054Z" fill="white"/>
<path d="M71.2393 37.4708C69.7485 37.4708 68.3063 37.4708 66.8154 37.4708C66.8154 35.9694 66.8154 34.4843 66.8154 32.9666C68.2901 32.9666 69.7323 32.9666 71.2393 32.9666C71.2393 34.4353 71.2393 35.9041 71.2393 37.4708Z" fill="white"/>
<path d="M81.5941 38.2054C83.0687 38.2054 84.511 38.2054 86.0018 38.2054C86.0018 39.7231 86.0018 41.1919 86.0018 42.726C84.511 42.726 83.0687 42.726 81.5941 42.726C81.5941 41.2082 81.5941 39.7231 81.5941 38.2054Z" fill="white"/>
<path d="M35.5889 43.5094C37.0798 43.5094 38.5382 43.5094 40.0128 43.5094C40.0128 45.0108 40.0128 46.4633 40.0128 47.9811C38.5544 47.9811 37.096 47.9811 35.5889 47.9811C35.5889 46.5123 35.5889 45.0272 35.5889 43.5094Z" fill="white"/>
<path d="M117.228 32.983C117.228 34.4845 117.228 35.9696 117.228 37.471C115.737 37.471 114.295 37.471 112.788 37.471C112.788 35.9859 112.788 34.5008 112.788 32.983C114.279 32.983 115.737 32.983 117.228 32.983Z" fill="white"/>
<path d="M29.6256 43.5094C29.6256 45.0271 29.6256 46.4959 29.6256 47.9974C28.1509 47.9974 26.7087 47.9974 25.2179 47.9974C25.2179 46.5123 25.2179 45.0435 25.2179 43.5094C26.6601 43.5094 28.1185 43.5094 29.6256 43.5094Z" fill="white"/>
<path d="M45.2308 42.726C43.74 42.726 42.2977 42.726 40.8231 42.726C40.8231 41.2082 40.8231 39.7231 40.8231 38.2054C42.2977 38.2054 43.74 38.2054 45.2308 38.2054C45.2308 39.6905 45.2308 41.1756 45.2308 42.726Z" fill="white"/>
<path d="M55.6504 6.65912C55.6504 8.19319 55.6504 9.61302 55.6504 11.1144C54.1596 11.1144 52.7011 11.1144 51.1941 11.1144C51.1941 9.64566 51.1941 8.17687 51.1941 6.65912C52.6687 6.65912 54.1434 6.65912 55.6504 6.65912Z" fill="white"/>
<path d="M29.6256 21.657C28.1185 21.657 26.6763 21.657 25.1855 21.657C25.1855 20.1719 25.1855 18.7194 25.1855 17.2017C26.6601 17.2017 28.1185 17.2017 29.6256 17.2017C29.6256 18.6868 29.6256 20.1392 29.6256 21.657Z" fill="white"/>
<path d="M50.4325 38.2216C50.4325 39.723 50.4325 41.2081 50.4325 42.7259C48.9578 42.7259 47.5156 42.7259 46.0248 42.7259C46.0248 41.2245 46.0248 39.7557 46.0248 38.2216C47.467 38.2216 48.9254 38.2216 50.4325 38.2216Z" fill="white"/>
<path d="M117.228 6.65912C117.228 8.12791 117.228 9.5967 117.228 11.0981C115.737 11.0981 114.279 11.0981 112.772 11.0981C112.772 9.61302 112.772 8.16055 112.772 6.65912C114.263 6.65912 115.737 6.65912 117.228 6.65912Z" fill="white"/>
<path d="M117.245 48.7806C117.245 50.2657 117.245 51.7182 117.245 53.236C115.754 53.236 114.295 53.236 112.788 53.236C112.788 51.7509 112.788 50.2821 112.788 48.7806C114.263 48.7806 115.737 48.7806 117.245 48.7806Z" fill="white"/>
<path d="M117.228 54.0193C117.228 55.5697 117.228 57.0221 117.228 58.5073C115.737 58.5073 114.295 58.5073 112.788 58.5073C112.788 57.0058 112.788 55.537 112.788 54.0193C114.279 54.0193 115.721 54.0193 117.228 54.0193Z" fill="white"/>
<path d="M39.9966 42.726C38.522 42.726 37.0798 42.726 35.5889 42.726C35.5889 41.2246 35.5889 39.7395 35.5889 38.2054C37.0474 38.2054 38.4896 38.2054 39.9966 38.2054C39.9966 39.6742 39.9966 41.1593 39.9966 42.726Z" fill="white"/>
<path d="M117.228 11.9139C117.228 13.3827 117.228 14.8515 117.228 16.3693C115.754 16.3693 114.279 16.3693 112.772 16.3693C112.772 14.8842 112.772 13.4317 112.772 11.9139C114.263 11.9139 115.721 11.9139 117.228 11.9139Z" fill="white"/>
<path d="M34.8435 38.2054C34.8435 39.7231 34.8435 41.1756 34.8435 42.6934C33.3688 42.6934 31.9104 42.6934 30.4034 42.6934C30.4034 41.2082 30.4034 39.7231 30.4034 38.2054C31.8618 38.2054 33.304 38.2054 34.8435 38.2054Z" fill="white"/>
<path d="M25.2017 38.189C26.6926 38.189 28.1186 38.189 29.5932 38.189C29.5932 39.6577 29.5932 41.1429 29.5932 42.6932C28.1672 42.6932 26.7088 42.6932 25.2017 42.6932C25.2017 41.2245 25.2017 39.7557 25.2017 38.189Z" fill="white"/>
<path d="M30.371 47.9811C30.371 46.4796 30.371 45.0108 30.371 43.5094C31.8619 43.5094 33.3365 43.5094 34.8273 43.5094C34.8273 44.9945 34.8273 46.447 34.8273 47.9811C33.3851 47.9811 31.9267 47.9811 30.371 47.9811Z" fill="white"/>
<path d="M51.1617 16.3694C51.1617 14.868 51.1617 13.4318 51.1617 11.9304C52.6363 11.9304 54.1271 11.9304 55.6504 11.9304C55.6504 13.3992 55.6504 14.8517 55.6504 16.3694C54.1595 16.3694 52.7011 16.3694 51.1617 16.3694Z" fill="white"/>
<path d="M91.2197 43.5094C91.2197 45.0108 91.2197 46.4796 91.2197 47.9974C89.7451 47.9974 88.3029 47.9974 86.7958 47.9974C86.7958 46.4959 86.7958 45.0271 86.7958 43.5094C88.2543 43.5094 89.7289 43.5094 91.2197 43.5094Z" fill="white"/>
<path d="M96.4377 43.5094C96.4377 45.0272 96.4377 46.4796 96.4377 47.9811C94.9468 47.9811 93.4722 47.9811 91.9813 47.9811C91.9813 46.4796 91.9813 45.0108 91.9813 43.5094C93.456 43.5094 94.9144 43.5094 96.4377 43.5094Z" fill="white"/>
<path d="M20.0162 38.189C21.4746 38.189 22.9006 38.189 24.3752 38.189C24.3752 39.6741 24.3752 41.1592 24.3752 42.6932C22.9492 42.6932 21.507 42.6932 20.0162 42.6932C20.0162 41.2408 20.0162 39.7557 20.0162 38.189Z" fill="white"/>
<path d="M127.599 38.2054C127.599 39.6742 127.599 41.1593 127.599 42.6934C126.157 42.6934 124.682 42.6934 123.192 42.6934C123.192 41.2082 123.192 39.7231 123.192 38.2054C124.682 38.2054 126.125 38.2054 127.599 38.2054Z" fill="white"/>
<path d="M91.2198 26.8956C89.6965 26.8956 88.2543 26.8956 86.7797 26.8956C86.7797 25.3941 86.7797 23.9417 86.7797 22.4402C88.2543 22.4402 89.7289 22.4402 91.2198 22.4402C91.2198 23.9417 91.2198 25.3941 91.2198 26.8956Z" fill="white"/>
<path d="M81.5941 22.4241C83.0525 22.4241 84.4786 22.4241 85.9694 22.4241C85.9694 23.8929 85.9694 25.378 85.9694 26.8957C84.5272 26.8957 83.0849 26.8957 81.5941 26.8957C81.5941 25.4269 81.5941 23.9745 81.5941 22.4241Z" fill="white"/>
<path d="M29.6256 26.912C28.1348 26.912 26.6926 26.912 25.2017 26.912C25.2017 25.4269 25.2017 23.9745 25.2017 22.4567C26.6601 22.4567 28.1186 22.4567 29.6256 22.4567C29.6256 23.9255 29.6256 25.378 29.6256 26.912Z" fill="white"/>
<path d="M91.2035 21.6408C89.7289 21.6408 88.2705 21.6408 86.7797 21.6408C86.7797 20.1393 86.7797 18.6869 86.7797 17.1854C88.2543 17.1854 89.6965 17.1854 91.2035 17.1854C91.2035 18.6705 91.2035 20.1393 91.2035 21.6408Z" fill="white"/>
<path d="M61.6299 17.1854C63.1046 17.1854 64.5468 17.1854 66.0214 17.1854C66.0214 18.6869 66.0214 20.1393 66.0214 21.6408C64.563 21.6408 63.1208 21.6408 61.6299 21.6408C61.6299 20.172 61.6299 18.6869 61.6299 17.1854Z" fill="white"/>
<path d="M128.377 29.9149C128.377 29.3764 128.393 28.8215 128.377 28.283C128.345 27.777 128.588 27.5975 129.042 27.5975C130.143 27.5975 131.245 27.5649 132.347 27.6302C132.542 27.6465 132.882 27.9892 132.898 28.2014C132.947 29.3927 132.947 30.5841 132.898 31.7754C132.898 31.9386 132.607 32.2324 132.428 32.2324C131.245 32.265 130.062 32.2813 128.879 32.2324C128.701 32.2324 128.426 31.906 128.41 31.7101C128.329 31.1063 128.377 30.5025 128.377 29.9149Z" fill="#1FE295"/>
<path d="M66.0052 42.7259C64.5468 42.7259 63.1046 42.7259 61.6138 42.7259C61.6138 41.2245 61.6138 39.7394 61.6138 38.2216C63.0722 38.2216 64.5144 38.2216 66.0052 38.2216C66.0052 39.7067 66.0052 41.1918 66.0052 42.7259Z" fill="white"/>
<path d="M61.6461 6.65912C63.1045 6.65912 64.5468 6.65912 66.1024 6.65912C66.1024 8.04631 66.1186 9.38454 66.0862 10.7391C66.0862 10.886 65.8107 11.1471 65.6649 11.1634C64.3523 11.196 63.0397 11.1797 61.6623 11.1797C61.6461 9.62934 61.6461 8.16055 61.6461 6.65912Z" fill="#F64E0A"/>
<path d="M123.208 17.169C124.666 17.169 126.092 17.169 127.583 17.169C127.583 18.6378 127.583 20.1229 127.583 21.6407C126.141 21.6407 124.699 21.6407 123.208 21.6407C123.208 20.1555 123.208 18.6868 123.208 17.169Z" fill="white"/>
<path d="M91.9813 17.1854C93.4722 17.1854 94.9144 17.1854 96.4214 17.1854C96.4214 18.6705 96.4214 20.1393 96.4214 21.6408C94.9468 21.6408 93.4884 21.6408 91.9813 21.6408C91.9813 20.1393 91.9813 18.6869 91.9813 17.1854Z" fill="white"/>
<path d="M85.9857 32.2159C84.4948 32.2159 83.0688 32.2159 81.6104 32.2159C81.6104 30.7145 81.6104 29.2294 81.6104 27.6953C83.0526 27.6953 84.4948 27.6953 85.9857 27.6953C85.9857 29.1967 85.9857 30.6655 85.9857 32.2159Z" fill="white"/>
<path d="M128.442 43.5256C129.933 43.5256 131.375 43.5256 132.866 43.5256C132.866 45.027 132.866 46.4795 132.866 47.9972C131.391 47.9972 129.949 47.9972 128.442 47.9972C128.442 46.5121 128.442 45.0596 128.442 43.5256Z" fill="#F64E0A"/>
<path d="M29.6094 53.2686C28.1347 53.2686 26.7087 53.2686 25.2179 53.2686C25.2179 51.7672 25.2179 50.2984 25.2179 48.7806C26.6439 48.7806 28.1023 48.7806 29.6094 48.7806C29.6094 50.2331 29.6094 51.7019 29.6094 53.2686Z" fill="white"/>
<path d="M86.7472 48.748C88.3028 48.748 89.7127 48.748 91.2035 48.748C91.2035 50.2331 91.2035 51.7019 91.2035 53.2849C89.8423 53.2849 88.4811 53.3012 87.1199 53.2686C86.9903 53.2686 86.7634 53.0238 86.7472 52.8769C86.731 51.5387 86.7472 50.1841 86.7472 48.748Z" fill="#2187DF"/>
<path d="M91.9651 53.2359C91.9651 51.7345 91.9651 50.2983 91.9651 48.7969C93.4236 48.7969 94.8982 48.7969 96.4214 48.7969C96.4214 50.233 96.4214 51.7018 96.4214 53.2359C94.963 53.2359 93.5046 53.2359 91.9651 53.2359Z" fill="white"/>
<path d="M97.1507 53.2197C97.1507 51.7183 97.1507 50.2658 97.1507 48.7644C98.6415 48.7644 100.1 48.7644 101.607 48.7644C101.607 50.2495 101.607 51.702 101.607 53.2197C100.149 53.2197 98.6902 53.2197 97.1507 53.2197Z" fill="white"/>
<path d="M102.417 53.2523C102.417 51.7345 102.417 50.2657 102.417 48.748C103.892 48.748 105.35 48.748 106.825 48.748C106.825 50.2494 106.825 51.7345 106.825 53.2523C105.334 53.2523 103.908 53.2523 102.417 53.2523Z" fill="white"/>
<path d="M112.01 53.2523C110.503 53.2523 109.094 53.2523 107.619 53.2523C107.619 51.7508 107.619 50.2657 107.619 48.748C109.077 48.748 110.52 48.748 112.01 48.748C112.01 50.2331 112.01 51.7182 112.01 53.2523Z" fill="white"/>
<path d="M96.4376 54.0519C96.4376 55.5697 96.4376 57.0222 96.4376 58.5236C94.9468 58.5236 93.5046 58.5236 92.0137 58.5236C92.0137 57.0385 92.0137 55.586 92.0137 54.0519C93.4722 54.0519 94.963 54.0519 96.4376 54.0519Z" fill="white"/>
<path d="M101.575 58.5237C100.1 58.5237 98.6577 58.5237 97.1669 58.5237C97.1669 57.0386 97.1669 55.5535 97.1669 54.0357C98.6253 54.0357 100.068 54.0357 101.575 54.0357C101.575 55.4882 101.575 56.957 101.575 58.5237Z" fill="white"/>
<path d="M106.792 58.5073C105.334 58.5073 103.892 58.5073 102.401 58.5073C102.401 57.0059 102.401 55.5535 102.401 54.0357C103.859 54.0357 105.285 54.0357 106.792 54.0357C106.792 55.5045 106.792 57.0059 106.792 58.5073Z" fill="white"/>
<path d="M107.586 58.5073C107.586 56.9732 107.586 55.5207 107.586 54.0193C109.077 54.0193 110.503 54.0193 111.994 54.0193C111.994 55.5044 111.994 56.9895 111.994 58.5073C110.552 58.5073 109.094 58.5073 107.586 58.5073Z" fill="white"/>
<path d="M29.6256 6.65912C29.6256 8.14423 29.6256 9.5967 29.6256 11.1144C28.1509 11.1144 26.6763 11.1144 25.1855 11.1144C25.1855 9.62934 25.1855 8.17687 25.1855 6.65912C26.6763 6.65912 28.1347 6.65912 29.6256 6.65912Z" fill="white"/>
<path d="M112.01 11.8978C112.01 13.4482 112.01 14.9006 112.01 16.4021C110.52 16.4021 109.077 16.4021 107.586 16.4021C107.586 14.8843 107.586 13.4155 107.586 11.8978C109.094 11.8978 110.536 11.8978 112.01 11.8978Z" fill="white"/>
<path d="M106.825 11.9139C106.825 13.4154 106.825 14.8678 106.825 16.3856C105.366 16.3856 103.924 16.3856 102.417 16.3856C102.417 14.9168 102.417 13.448 102.417 11.9139C103.876 11.9139 105.302 11.9139 106.825 11.9139Z" fill="white"/>
<path d="M101.607 11.9139C101.607 13.4317 101.607 14.8842 101.607 16.3856C100.116 16.3856 98.6739 16.3856 97.183 16.3856C97.183 14.9331 97.183 13.448 97.183 11.9139C98.6253 11.9139 100.084 11.9139 101.607 11.9139Z" fill="white"/>
<path d="M96.4376 11.9304C96.4376 13.4155 96.4376 14.868 96.4376 16.3857C94.963 16.3857 93.5046 16.3857 91.9976 16.3857C91.9976 14.9006 91.9976 13.4482 91.9976 11.9304C93.456 11.9304 94.9306 11.9304 96.4376 11.9304Z" fill="white"/>
<path d="M86.8121 11.8815C88.3029 11.8815 89.7289 11.8815 91.2035 11.8815C91.2035 13.3666 91.2035 14.8517 91.2035 16.3694C89.7613 16.3694 88.3191 16.3694 86.8121 16.3694C86.8121 14.917 86.8121 13.4319 86.8121 11.8815Z" fill="white"/>
<path d="M46.0085 11.8978C47.4994 11.8978 48.9254 11.8978 50.4 11.8978C50.4 13.3992 50.4 14.868 50.4 16.3857C48.9578 16.3857 47.5156 16.3857 46.0085 16.3857C46.0085 14.9169 46.0085 13.4318 46.0085 11.8978Z" fill="white"/>
<path d="M45.247 11.9139C45.247 13.4154 45.247 14.8678 45.247 16.3856C43.7723 16.3856 42.3463 16.3856 40.8393 16.3856C40.8393 14.9168 40.8393 13.448 40.8393 11.9139C42.2815 11.9139 43.7237 11.9139 45.247 11.9139Z" fill="white"/>
<path d="M35.6052 11.8978C37.0798 11.8978 38.522 11.8978 40.0128 11.8978C40.0128 13.3829 40.0128 14.8517 40.0128 16.3531C38.5544 16.3531 37.1122 16.3531 35.6052 16.3531C35.6052 14.9333 35.6052 13.4645 35.6052 11.8978Z" fill="white"/>
<path d="M30.4034 16.3857C30.4034 14.8517 30.4034 13.3992 30.4034 11.8978C31.8942 11.8978 33.3364 11.8978 34.8273 11.8978C34.8273 13.3829 34.8273 14.868 34.8273 16.3857C33.3364 16.3857 31.9104 16.3857 30.4034 16.3857Z" fill="white"/>
<path d="M25.1855 16.3693C25.1855 14.8678 25.1855 13.4154 25.1855 11.9139C26.6601 11.9139 28.1023 11.9139 29.6094 11.9139C29.6094 13.3664 29.6094 14.8515 29.6094 16.3693C28.1672 16.3693 26.7249 16.3693 25.1855 16.3693Z" fill="white"/>
<path d="M107.619 6.6264C109.11 6.6264 110.536 6.6264 112.01 6.6264C112.01 8.11151 112.01 9.5803 112.01 11.1144C110.568 11.1144 109.126 11.1144 107.619 11.1144C107.619 9.64558 107.619 8.17679 107.619 6.6264Z" fill="white"/>
<path d="M106.825 6.65912C106.825 8.16055 106.825 9.61302 106.825 11.1144C105.366 11.1144 103.924 11.1144 102.417 11.1144C102.417 9.64566 102.417 8.17687 102.417 6.65912C103.876 6.65912 105.318 6.65912 106.825 6.65912Z" fill="white"/>
<path d="M97.1669 6.6427C98.6415 6.6427 100.1 6.6427 101.591 6.6427C101.591 8.12781 101.591 9.5966 101.591 11.1143C100.1 11.1143 98.6577 11.1143 97.1669 11.1143C97.1669 9.62924 97.1669 8.16045 97.1669 6.6427Z" fill="white"/>
<path d="M45.9762 11.1306C45.9762 9.61285 45.9762 8.1767 45.9762 6.69159C47.4508 6.69159 48.9092 6.69159 50.4163 6.69159C50.4163 8.14406 50.4163 9.62917 50.4163 11.1306C48.9416 11.1306 47.4994 11.1306 45.9762 11.1306Z" fill="white"/>
<path d="M45.2308 11.1307C43.7238 11.1307 42.2977 11.1307 40.8231 11.1307C40.8231 9.62924 40.8231 8.14413 40.8231 6.6427C42.2977 6.6427 43.74 6.6427 45.2308 6.6427C45.2308 8.12781 45.2308 9.5966 45.2308 11.1307Z" fill="white"/>
<path d="M39.9966 11.147C38.5058 11.147 37.0798 11.147 35.6052 11.147C35.6052 9.66188 35.6052 8.16045 35.6052 6.6427C37.0636 6.6427 38.5058 6.6427 39.9966 6.6427C39.9966 8.12781 39.9966 9.5966 39.9966 11.147Z" fill="white"/>
<path d="M30.371 11.098C30.371 9.61293 30.371 8.17678 30.371 6.67535C31.8457 6.67535 33.3041 6.67535 34.8111 6.67535C34.8111 8.1115 34.8111 9.56397 34.8111 11.098C33.3851 11.098 31.9267 11.098 30.371 11.098Z" fill="white"/>
<path d="M132.866 32.9666C132.866 34.468 132.866 35.9205 132.866 37.4382C131.391 37.4382 129.933 37.4382 128.426 37.4382C128.426 35.9694 128.426 34.4843 128.426 32.9666C129.884 32.9666 131.326 32.9666 132.866 32.9666Z" fill="white"/>
<path d="M111.994 37.4708C110.52 37.4708 109.093 37.4708 107.603 37.4708C107.603 35.9694 107.603 34.5006 107.603 32.9666C109.061 32.9666 110.487 32.9666 111.994 32.9666C111.994 34.4517 111.994 35.9205 111.994 37.4708Z" fill="white"/>
<path d="M86.7958 37.4545C86.7958 35.9205 86.7958 34.468 86.7958 32.9666C88.2705 32.9666 89.7289 32.9666 91.2197 32.9666C91.2197 34.468 91.2197 35.9368 91.2197 37.4545C89.7451 37.4545 88.3029 37.4545 86.7958 37.4545Z" fill="white"/>
<path d="M86.0018 32.9666C86.0018 34.5006 86.0018 35.9531 86.0018 37.4545C84.5272 37.4545 83.085 37.4545 81.5941 37.4545C81.5941 35.9857 81.5941 34.5006 81.5941 32.9666C83.0363 32.9666 84.4786 32.9666 86.0018 32.9666Z" fill="white"/>
<path d="M25.2179 32.9666C26.7087 32.9666 28.1509 32.9666 29.6256 32.9666C29.6256 34.4843 29.6256 35.9531 29.6256 37.4708C28.1509 37.4708 26.7087 37.4708 25.2179 37.4708C25.2179 35.9857 25.2179 34.5006 25.2179 32.9666Z" fill="white"/>
<path d="M112.027 27.6953C112.027 29.2131 112.027 30.6655 112.027 32.1833C110.568 32.1833 109.11 32.1833 107.603 32.1833C107.603 30.6819 107.603 29.1967 107.603 27.6953C109.077 27.6953 110.503 27.6953 112.027 27.6953Z" fill="white"/>
<path d="M86.7958 27.6791C88.3029 27.6791 89.7289 27.6791 91.2035 27.6791C91.2035 29.1805 91.2035 30.6493 91.2035 32.1834C89.7613 32.1834 88.3029 32.1834 86.7958 32.1834C86.7958 30.6983 86.7958 29.2295 86.7958 27.6791Z" fill="white"/>
<path d="M25.2179 27.6791C26.6925 27.6791 28.1185 27.6791 29.6094 27.6791C29.6094 29.1642 29.6094 30.6493 29.6094 32.1834C28.1834 32.1834 26.7249 32.1834 25.2179 32.1834C25.2179 30.7309 25.2179 29.2458 25.2179 27.6791Z" fill="white"/>
<path d="M56.4282 42.726C56.4282 41.2082 56.4282 39.7231 56.4282 38.2054C57.8704 38.2054 59.2965 38.2054 60.7873 38.2054C60.7873 39.6905 60.7873 41.1919 60.7873 42.726C59.3613 42.726 57.9029 42.726 56.4282 42.726Z" fill="white"/>
<path d="M25.2504 53.9867C26.5954 53.9867 27.8593 53.9704 29.1233 54.003C29.3177 54.003 29.658 54.2641 29.658 54.411C29.7067 55.7492 29.6905 57.1038 29.6905 58.491C28.1834 58.491 26.7574 58.491 25.2666 58.491C25.2504 57.0222 25.2504 55.5534 25.2504 53.9867Z" fill="#2187DF"/>
<path d="M24.3915 58.5237C22.9331 58.5237 21.5232 58.5237 20.0324 58.5237C20.0324 57.0549 20.0324 55.5698 20.0324 54.0357C21.4746 54.0357 22.9168 54.0357 24.3915 54.0357C24.3915 55.5208 24.3915 57.0059 24.3915 58.5237Z" fill="white"/>
<path d="M127.616 48.748C127.616 50.2331 127.616 51.7182 127.616 53.236C126.141 53.236 124.699 53.236 123.224 53.236C123.224 51.7345 123.224 50.2494 123.224 48.748C124.682 48.748 126.125 48.748 127.616 48.748Z" fill="white"/>
<path d="M20.0162 47.9809C20.0162 46.4632 20.0162 44.9781 20.0162 43.4766C21.4746 43.4766 22.9006 43.4766 24.3752 43.4766C24.3752 44.9617 24.3752 46.4469 24.3752 47.9809C22.9492 47.9809 21.5232 47.9809 20.0162 47.9809Z" fill="white"/>
<path d="M20.0324 17.169C21.507 17.169 22.9168 17.169 24.3915 17.169C24.3915 18.6541 24.3915 20.1066 24.3915 21.6243C22.9655 21.6243 21.5232 21.6243 20.0324 21.6243C20.0324 20.1882 20.0324 18.7194 20.0324 17.169Z" fill="white"/>
<path d="M56.4282 21.6407C56.4282 20.1719 56.4282 18.7194 56.4282 17.2017C57.8704 17.2017 59.2965 17.2017 60.7873 17.2017C60.7873 18.6704 60.7873 20.1392 60.7873 21.6407C59.3613 21.6407 57.9191 21.6407 56.4282 21.6407Z" fill="white"/>
<path d="M123.192 47.9972C123.192 46.4958 123.192 45.027 123.192 43.5256C124.65 43.5256 126.092 43.5256 127.583 43.5256C127.583 44.9944 127.583 46.4795 127.583 47.9972C126.157 47.9972 124.715 47.9972 123.192 47.9972Z" fill="white"/>
<path d="M20.0324 27.6953C21.4746 27.6953 22.9006 27.6953 24.3753 27.6953C24.3753 29.2131 24.3753 30.6982 24.3753 32.2322C22.9168 32.2322 21.507 32.2322 20.0324 32.2322C20.0324 30.7145 20.0324 29.2131 20.0324 27.6953Z" fill="white"/>
<path d="M20 53.2196C20 51.7019 20 50.2494 20 48.748C21.4746 48.748 22.9168 48.748 24.3915 48.748C24.3915 50.2494 24.3915 51.7019 24.3915 53.2196C22.9168 53.2196 21.4584 53.2196 20 53.2196Z" fill="white"/>
<path d="M24.3914 32.9666C24.3914 34.468 24.3914 35.9531 24.3914 37.4708C22.933 37.4708 21.4908 37.4708 20.0162 37.4708C20.0162 35.9694 20.0162 34.5006 20.0162 32.9666C21.4746 32.9666 22.9006 32.9666 24.3914 32.9666Z" fill="white"/>
<path d="M24.3753 16.4019C22.9006 16.4019 21.4746 16.4019 20 16.4019C20 14.9005 20 13.4154 20 11.9139C21.4584 11.9139 22.8682 11.9139 24.3753 11.9139C24.3753 13.3827 24.3753 14.8515 24.3753 16.4019Z" fill="#6417E1"/>
<path d="M122.479 58.5237C120.923 58.5237 119.513 58.5237 118.055 58.5237C118.055 57.0223 118.055 55.5535 118.055 53.9705C119.416 53.9705 120.745 53.9541 122.09 53.9868C122.219 53.9868 122.462 54.2479 122.462 54.3785C122.479 55.7493 122.479 57.1039 122.479 58.5237Z" fill="#F64E0A"/>
<path d="M66.0052 16.4019C64.5306 16.4019 63.1046 16.4019 61.6299 16.4019C61.6299 14.9168 61.6299 13.4317 61.6299 11.9139C63.0722 11.9139 64.5144 11.9139 66.0052 11.9139C66.0052 13.3827 66.0052 14.8515 66.0052 16.4019Z" fill="white"/>
<path d="M123.208 16.3694C123.208 14.8843 123.208 13.4318 123.208 11.9304C124.65 11.9304 126.092 11.9304 127.583 11.9304C127.583 13.3666 127.583 14.8354 127.583 16.3694C126.173 16.3694 124.731 16.3694 123.208 16.3694Z" fill="white"/>
<path d="M122.398 21.6408C120.923 21.6408 119.497 21.6408 118.022 21.6408C118.022 20.1556 118.022 18.6869 118.022 17.1854C119.481 17.1854 120.923 17.1854 122.398 17.1854C122.398 18.6542 122.398 20.1067 122.398 21.6408Z" fill="white"/>
<path d="M123.208 37.4382C123.208 35.9531 123.208 34.468 123.208 32.9666C124.683 32.9666 126.125 32.9666 127.616 32.9666C127.616 34.468 127.616 35.9205 127.616 37.4382C126.173 37.4382 124.715 37.4382 123.208 37.4382Z" fill="white"/>
<path d="M122.414 43.4929C122.414 44.9944 122.414 46.4795 122.414 47.9972C120.939 47.9972 119.513 47.9972 118.039 47.9972C118.039 46.4795 118.039 45.0107 118.039 43.4929C119.497 43.4929 120.939 43.4929 122.414 43.4929Z" fill="white"/>
<path d="M122.381 37.4708C120.955 37.4708 119.529 37.4708 118.055 37.4708C118.055 35.9857 118.055 34.4843 118.055 32.9666C119.481 32.9666 120.907 32.9666 122.381 32.9666C122.381 34.4353 122.381 35.9041 122.381 37.4708Z" fill="white"/>
<path d="M60.8035 11.1471C59.3127 11.1471 57.9191 11.1471 56.4606 11.1471C56.4606 9.66198 56.4606 8.17687 56.4606 6.65912C57.8704 6.65912 59.3127 6.65912 60.8035 6.65912C60.8035 8.12791 60.8035 9.5967 60.8035 11.1471Z" fill="white"/>
<path d="M66.0215 32.9666C66.0215 34.468 66.0215 35.9205 66.0215 37.4382C64.563 37.4382 63.1046 37.4382 61.6138 37.4382C61.6138 35.9531 61.6138 34.468 61.6138 32.9666C63.1046 32.9666 64.5468 32.9666 66.0215 32.9666Z" fill="white"/>
<path d="M60.8035 37.4708C59.3451 37.4708 57.9353 37.4708 56.4606 37.4708C56.4606 35.9857 56.4606 34.5169 56.4606 32.9666C57.8866 32.9666 59.3127 32.9666 60.8035 32.9666C60.8035 34.4517 60.8035 35.9205 60.8035 37.4708Z" fill="white"/>
<path d="M123.224 27.6953C124.682 27.6953 126.109 27.6953 127.583 27.6953C127.583 29.1804 127.583 30.6655 127.583 32.1996C126.173 32.1996 124.731 32.1996 123.224 32.1996C123.224 30.7308 123.224 29.2457 123.224 27.6953Z" fill="white"/>
<path d="M60.8197 11.9304C60.8197 13.4155 60.8197 14.8843 60.8197 16.3857C59.3613 16.3857 57.919 16.3857 56.4444 16.3857C56.4444 14.9006 56.4444 13.4482 56.4444 11.9304C57.8704 11.9304 59.2964 11.9304 60.8197 11.9304Z" fill="white"/>
<path d="M122.398 32.216C120.923 32.216 119.513 32.216 118.039 32.216C118.039 30.7146 118.039 29.2458 118.039 27.7117C119.465 27.7117 120.907 27.7117 122.398 27.7117C122.398 29.1968 122.398 30.6656 122.398 32.216Z" fill="white"/>
<path d="M66.0052 32.216C64.5306 32.216 63.1046 32.216 61.6299 32.216C61.6299 30.7146 61.6299 29.2458 61.6299 27.7117C63.0722 27.7117 64.5144 27.7117 66.0052 27.7117C66.0052 29.1968 66.0052 30.6656 66.0052 32.216Z" fill="white"/>
<path d="M122.414 11.9139C122.414 13.4154 122.414 14.8678 122.414 16.3856C120.972 16.3856 119.529 16.3856 118.039 16.3856C118.039 14.9168 118.039 13.4317 118.039 11.9139C119.497 11.9139 120.939 11.9139 122.414 11.9139Z" fill="white"/>
<path d="M118.022 53.2523C118.022 51.7509 118.022 50.2821 118.022 48.7806C119.465 48.7806 120.907 48.7806 122.398 48.7806C122.398 50.2657 122.398 51.7345 122.398 53.2523C120.955 53.2523 119.529 53.2523 118.022 53.2523Z" fill="white"/>
<path d="M66.0052 26.912C64.5306 26.912 63.1046 26.912 61.6299 26.912C61.6299 25.4269 61.6299 23.9745 61.6299 22.4567C63.056 22.4567 64.4982 22.4567 66.0052 22.4567C66.0052 23.8929 66.0052 25.378 66.0052 26.912Z" fill="white"/>
<path d="M20 26.8793C20 25.3941 20 23.9417 20 22.4402C21.4584 22.4402 22.9006 22.4402 24.3915 22.4402C24.3915 23.909 24.3915 25.3615 24.3915 26.8793C22.9655 26.8793 21.5232 26.8793 20 26.8793Z" fill="white"/>
<path d="M137.338 66.5204C136.933 67.2385 137.517 68.0708 136.69 68.6746C136.69 67.3854 136.69 66.2756 136.69 64.9863C137.841 65.2475 137.598 66.5857 138.343 67.0753C138.959 66.4878 138.862 65.3127 139.996 64.8884C139.996 66.0961 140.012 67.1079 139.98 68.1034C139.98 68.2503 139.818 68.3809 139.737 68.5278C139.639 68.3809 139.461 68.234 139.445 68.0708C139.413 67.5812 139.429 67.0753 139.283 66.5531C139.17 66.7815 139.088 67.0263 138.926 67.2385C138.748 67.467 138.538 67.7607 138.294 67.826C138.165 67.8586 137.906 67.4996 137.743 67.2874C137.614 67.0753 137.517 66.8305 137.338 66.5204Z" fill="white"/>
<path d="M134.794 65.7371C134.389 65.5739 134.114 65.4596 133.838 65.3454C133.871 65.2638 133.903 65.1659 133.919 65.0843C134.648 65.0843 135.394 65.0843 136.123 65.0843C136.155 65.1496 136.188 65.2312 136.22 65.2965C135.961 65.427 135.718 65.5576 135.297 65.786C135.297 66.4062 135.313 67.1732 135.28 67.9403C135.28 68.1361 135.118 68.3319 135.037 68.5278C134.94 68.3483 134.794 68.1524 134.778 67.9729C134.778 67.2222 134.794 66.4715 134.794 65.7371Z" fill="white"/>
</svg>
