<svg xmlns="http://www.w3.org/2000/svg" xmlns:xlink="http://www.w3.org/1999/xlink" viewBox="0 0 55 33.04"><defs><style>.a{fill:none;}.b{clip-path:url(#a);}.c{fill:#1245ff;}.d{fill:url(#b);}.e{fill:#fff;}</style><clipPath id="a"><rect class="a" width="55" height="33"/></clipPath><linearGradient id="b" x1="16.81" y1="43.24" x2="47.55" y2="-1.91" gradientTransform="matrix(1, 0, 0, -1, 0, 34)" gradientUnits="userSpaceOnUse"><stop offset="0" stop-color="#6c8dff"/><stop offset="1" stop-color="#1044ff"/></linearGradient></defs><g class="b"><path class="c" d="M51.72,0H3.28C.15,0,0,4.11,0,4.11H55S55,0,51.72,0Z"/><path class="d" d="M25,32.27,10.14,22.15a8.09,8.09,0,0,1-3.43-6.46V4.11S6.71,0,3.43,0h48c-3.28,0-3.28,4.11-3.28,4.11V15.55A7.89,7.89,0,0,1,44.72,22L29.81,32.27A4.1,4.1,0,0,1,25,32.27Z"/><path class="e" d="M15.91,10.87H13V9.16h7.93v1.71H18v7.39H15.91Z"/><path class="e" d="M26.34,18.41a5.32,5.32,0,0,1-2.56-.61A4.64,4.64,0,0,1,22,16.12a4.69,4.69,0,0,1-.64-2.41A4.64,4.64,0,0,1,22,11.3a4.59,4.59,0,0,1,1.78-1.69A5.32,5.32,0,0,1,26.34,9a5.23,5.23,0,0,1,2.55.61,4.53,4.53,0,0,1,1.78,1.69,4.47,4.47,0,0,1,.65,2.41,4.51,4.51,0,0,1-.65,2.41,4.57,4.57,0,0,1-1.78,1.68A5.23,5.23,0,0,1,26.34,18.41Zm0-1.79a2.86,2.86,0,0,0,1.46-.37,2.59,2.59,0,0,0,1-1,3.17,3.17,0,0,0,0-3,2.57,2.57,0,0,0-1-1,3,3,0,0,0-2.91,0,2.62,2.62,0,0,0-1,1,3.33,3.33,0,0,0,0,3,2.64,2.64,0,0,0,1,1A2.85,2.85,0,0,0,26.34,16.62Z"/><path class="e" d="M36.84,9.16a5,5,0,0,1,2.1.4,3.16,3.16,0,0,1,1.37,1.14,3.1,3.1,0,0,1,.49,1.76,3.05,3.05,0,0,1-1.86,2.9,5.18,5.18,0,0,1-2.1.39H35v2.51H32.9V9.16ZM36.73,14a2.23,2.23,0,0,0,1.44-.4,1.45,1.45,0,0,0,.49-1.17,1.42,1.42,0,0,0-.49-1.17,2.17,2.17,0,0,0-1.44-.42H35V14Z"/></g></svg>