<svg width="160" height="80" viewBox="0 0 160 80" fill="none" xmlns="http://www.w3.org/2000/svg">
<path d="M120.518 64.9251C116.353 64.9251 112.281 63.6855 108.818 61.363C105.355 59.0406 102.655 55.7396 101.061 51.8775C99.4676 48.0155 99.0507 43.7658 99.8635 39.6659C100.676 35.5661 102.682 31.8002 105.628 28.8446C108.573 25.8889 112.326 23.8762 116.411 23.061C120.497 22.2459 124.731 22.6648 128.579 24.2649C132.427 25.865 135.716 28.5743 138.03 32.0503C140.343 35.5263 141.578 39.6128 141.578 43.793C141.571 49.396 139.35 54.7676 135.402 58.7292C131.454 62.6909 126.101 64.9191 120.518 64.9251ZM120.518 25.2579C116.862 25.2579 113.288 26.3462 110.248 28.385C107.208 30.4239 104.839 33.3217 103.441 36.7119C102.042 40.1022 101.677 43.8325 102.391 47.4311C103.106 51.0297 104.867 54.3348 107.454 56.9284C110.04 59.522 113.335 61.2875 116.921 62.0017C120.507 62.7158 124.224 62.3464 127.601 60.9403C130.978 59.5342 133.864 57.1545 135.893 54.1023C137.922 51.05 139.004 47.4623 139.001 43.793C138.994 38.8758 137.045 34.1619 133.58 30.6852C130.115 27.2084 125.418 25.2526 120.518 25.2466V25.2579Z" fill="#F59238"/>
<path d="M115.145 17.9896C115.145 18.0001 115.141 18.0102 115.134 18.0176C115.127 18.025 115.117 18.0292 115.106 18.0292C115.096 18.0292 115.086 18.025 115.078 18.0176C115.071 18.0102 115.067 18.0001 115.067 17.9896C114.487 15.4661 109.244 4.87462 108.709 5.07809C108.092 5.29851 109.224 16.1754 110.049 19.3828C110.049 19.4337 109.998 19.4478 109.973 19.4082C106.312 13.5501 102.089 13.666 101.286 13.7819C101.235 13.796 101.235 13.861 101.272 13.8723C106.326 16.4863 108.762 23.9495 108.993 24.687C109 24.7001 109.012 24.7099 109.026 24.7146C109.04 24.7193 109.055 24.7186 109.069 24.7125C111.953 22.9634 115.198 21.9001 118.555 21.604C118.581 21.604 118.606 21.5785 118.595 21.5531C118.44 20.8947 116.984 14.039 119.78 9.2802C119.806 9.24064 119.766 9.18695 119.73 9.20108C118.998 9.45258 115.3 11.6653 115.145 17.9896ZM119.496 29.9036C120.377 27.5581 123.815 26.6849 127.172 27.9538C130.528 29.2226 132.522 32.1559 131.655 34.5014C130.787 36.8469 127.335 37.7201 123.981 36.4512C120.628 35.1824 118.617 32.2491 119.496 29.9036Z" fill="#F59238"/>
<path d="M19.3123 49.3911V38.7064H22.1872C23.2037 38.7064 24.1583 38.9522 24.6623 39.3394C25.5239 40.0006 25.7577 41.1366 25.7577 41.7979C25.7775 42.5386 25.5373 43.2628 25.079 43.8438C24.7975 44.2056 24.0738 44.5418 23.5839 44.7368C24.2399 45.692 26.2251 49.5409 26.2251 49.5409H23.888C23.888 49.5409 21.6832 45.0646 21.4635 45.0646H21.1172V49.3967L19.3123 49.3911ZM22.0323 40.5715H21.1172V43.0159H22.0323C22.4648 43.0466 22.8953 42.9334 23.2572 42.6937C23.4065 42.601 23.5299 42.4717 23.6156 42.318C23.7013 42.1642 23.7466 41.991 23.7472 41.8148C23.7519 41.637 23.7102 41.4611 23.6262 41.3044C23.5422 41.1478 23.4189 41.0159 23.2685 40.9219C22.907 40.6698 22.4718 40.5465 22.0323 40.5715ZM11 49.3911V38.7064H13.8749C14.8914 38.7064 15.846 38.9522 16.3472 39.3394C17.2117 40.0006 17.4426 41.1366 17.4426 41.7979C17.4426 43.3889 16.412 44.4995 15.4321 44.7594C14.5682 44.9428 13.6879 45.0374 12.8049 45.042V49.3741L11 49.3911ZM13.7313 40.5715H12.8162V43.0159H13.7313C14.1638 43.0466 14.5943 42.9334 14.9562 42.6937C15.1044 42.597 15.2261 42.4646 15.3104 42.3087C15.3947 42.1527 15.4388 41.9781 15.4388 41.8007C15.4388 41.6233 15.3947 41.4487 15.3104 41.2928C15.2261 41.1368 15.1044 41.0045 14.9562 40.9077C14.5961 40.6631 14.1654 40.5449 13.7313 40.5715ZM105.169 49.5352V38.8505H108.174C109.19 38.8505 110.131 39.0963 110.646 39.4863C111.51 40.1447 111.741 41.2836 111.741 41.942C111.764 42.6809 111.527 43.4042 111.071 43.9851C110.789 44.3469 110.066 44.6831 109.576 44.8781C108.934 45.124 107.244 45.0731 107.244 45.0731V49.5465H105.18L105.169 49.5352ZM108.03 40.7127H107.244V43.1572H108.03C108.463 43.1896 108.894 43.0762 109.255 42.835C109.406 42.7411 109.531 42.6095 109.617 42.4531C109.703 42.2966 109.747 42.1206 109.745 41.942C109.75 41.7645 109.708 41.5889 109.625 41.4323C109.541 41.2757 109.419 41.1436 109.269 41.049C108.907 40.7962 108.469 40.6773 108.03 40.7127ZM49.1345 40.1843L47.7266 41.5662C46.8819 40.7777 45.55 40.0939 44.4265 40.0939C43.9433 40.0951 43.465 40.1911 43.0186 40.3765C42.5807 40.5503 42.1816 40.8097 41.8444 41.1395C41.4946 41.4898 41.2264 41.9135 41.0588 42.38C40.8652 42.9102 40.7697 43.4714 40.7772 44.036C40.7772 45.2248 41.1123 46.1818 41.7824 46.9071C42.4141 47.5512 43.2602 47.939 44.1589 47.9963C45.0576 48.0537 45.9459 47.7766 46.6538 47.218C47.0142 46.9213 47.4535 46.6528 47.6449 45.805L44.4631 45.7909L44.4377 43.9569H49.9398C49.9398 45.935 49.5794 46.9184 48.5601 48.0827C47.5408 49.247 46.1779 49.8291 44.4237 49.8291C43.6252 49.8375 42.8329 49.6877 42.0922 49.3883C41.3995 49.1159 40.7684 48.7065 40.2365 48.1844C39.7146 47.665 39.3027 47.045 39.0257 46.3617C38.7262 45.6276 38.5768 44.8405 38.5865 44.0473C38.5691 43.0085 38.8318 41.9843 39.3468 41.0829C39.8434 40.2186 40.571 39.5109 41.4473 39.0398C42.3553 38.5549 43.3699 38.3062 44.3983 38.3164C45.2038 38.3033 46.0044 38.4432 46.758 38.729C47.6028 39.1217 48.4001 39.6099 49.1345 40.1843ZM62.1633 38.7064L63.8274 49.3883H61.7916L60.8229 42.6061L58.4661 49.3883H56.5964L54.1861 42.5213L53.2371 49.3911H51.2267L52.9161 38.7092H54.783L57.5425 46.6387L60.2964 38.7064H62.1633ZM148.499 39.1076L149 42.3405H148.381L148.085 40.2832L147.378 42.3405H146.815L146.094 40.2578L145.812 42.3405H145.207L145.711 39.1076H146.274L147.099 41.5125L147.924 39.1076H148.499ZM69.704 38.5764H71.5399L75.9748 49.5324H73.6658L72.7648 47.3084H68.5129L67.609 49.5324H65.393L69.6984 38.5764H69.704ZM72.1397 45.2624L71.4047 43.5104C71.171 42.9141 70.9007 42.137 70.605 41.1818H70.5544C70.2052 42.332 69.949 43.1091 69.8054 43.5104L69.0845 45.2427H72.1397V45.2624ZM123.523 38.5764H125.378L129.81 49.5324H127.504L126.603 47.3084H122.348L121.447 49.5324H119.231L123.523 38.5764ZM125.958 45.2624L125.223 43.5104C124.992 42.9141 124.719 42.137 124.424 41.1818H124.373C124.024 42.332 123.768 43.1091 123.624 43.5104L122.903 45.2427H125.958V45.2624ZM31.9693 38.5792H33.8081L38.2401 49.5352H35.9368L35.0357 47.3112H30.7811L29.88 49.5352H27.664L31.9693 38.5792ZM34.3909 45.2653L33.656 43.5104C33.4251 42.9141 33.1548 42.137 32.8563 41.1818H32.8056C32.4593 42.332 32.2002 43.1091 32.0594 43.5104L31.3358 45.2427H34.3909V45.2653ZM75.7214 40.6619V38.6046H82.0879V40.6619H79.962V49.5098H77.8361V40.6619H75.7214ZM143.084 39.7039V39.085H145.004V39.7039H144.362V42.38H143.718V39.7011L143.084 39.7039ZM83.5437 49.6115V38.7205H85.6584V49.6115H83.5437ZM112.941 49.6115V38.8505H115.067V47.6108H118.018V49.603L112.941 49.6115ZM131.525 49.5211V44.8131L128.278 38.7855H130.25L132.48 42.9904H132.516L134.746 38.7855H136.717L133.417 44.8131V49.5211H131.525ZM93.2864 48.0318C92.791 48.0578 92.2962 47.9711 91.8389 47.7783C91.3815 47.5855 90.9735 47.2916 90.6452 46.9184C89.9861 46.1105 89.626 45.0985 89.626 44.0544C89.626 43.0102 89.9861 41.9983 90.6452 41.1903C90.9801 40.8255 91.3893 40.5373 91.845 40.3452C92.3008 40.1531 92.7923 40.0616 93.2864 40.0769C95.6855 40.0769 96.6513 41.6679 96.6513 41.6679L97.9663 40.5036C97.5113 39.8965 96.9361 39.3904 96.2768 39.0172C95.3683 38.507 94.3413 38.2476 93.3005 38.2655C92.2553 38.2494 91.2243 38.5086 90.3101 39.0172C89.4382 39.501 88.7162 40.2167 88.2236 41.0858C87.7133 41.988 87.451 43.01 87.4633 44.0473L87.4351 44.0614C87.4253 45.1024 87.6885 46.1277 88.1982 47.0343C88.6895 47.908 89.4115 48.6287 90.2847 49.117C91.2011 49.6141 92.2264 49.8744 93.2681 49.8744C94.3098 49.8744 95.3351 49.6141 96.2514 49.117C96.9222 48.7378 97.5064 48.2219 97.9663 47.6023L96.6372 46.2826C96.6372 46.2826 95.3757 47.9697 93.2864 48.0318Z" fill="white"/>
<g clip-path="url(#clip0_5498:8)">
<path d="M70.453 59.6971C70.3072 59.8871 70.3586 60.0339 70.3586 60.1721C70.3586 61.6145 70.3415 63.0483 70.3672 64.4907C70.3672 64.8189 70.2729 64.914 69.9556 64.8967C69.5182 64.8708 69.0723 64.8708 68.6264 64.8967C68.3005 64.914 68.2234 64.8017 68.2234 64.4821C68.2405 62.0896 68.2319 59.7057 68.2319 57.3132C68.2319 57.0282 68.2405 56.7345 68.2234 56.4495C68.2148 56.2335 68.2834 56.1385 68.5149 56.1385C69.0466 56.1472 69.5697 56.1558 70.1014 56.1385C70.35 56.1299 70.4444 56.2854 70.5559 56.4581C71.5506 57.9869 72.5453 59.5157 73.5401 61.0445C73.6001 61.1395 73.6773 61.2259 73.7459 61.3295C73.9174 61.1999 73.8574 61.0358 73.8574 60.8976C73.8659 59.4466 73.8659 57.9869 73.8574 56.5358C73.8574 56.2335 73.9431 56.1299 74.2433 56.1472C74.7149 56.1644 75.1866 56.1644 75.6582 56.1472C75.8897 56.1385 75.9926 56.2076 75.9841 56.4667C75.9755 59.1702 75.9755 61.8823 75.9841 64.5857C75.9841 64.8362 75.8983 64.9053 75.6582 64.9053C75.1694 64.888 74.6892 64.888 74.2004 64.9053C73.9431 64.914 73.7888 64.8189 73.6516 64.603C72.6911 63.1174 71.7221 61.6491 70.7531 60.1721C70.6759 60.008 70.573 59.8698 70.453 59.6971Z" fill="white"/>
<path d="M77.0988 60.4827C77.0988 57.9347 79.0197 56.0259 81.5666 56.0259C84.0963 56.0259 86.0001 57.9347 86.0001 60.4654C86.0001 63.0566 84.0963 64.9827 81.5323 64.9654C78.9854 64.9568 77.0903 63.0393 77.0988 60.4827ZM79.2684 60.6986C79.2941 61.4501 79.56 62.3311 80.5204 62.7888C81.3522 63.1775 82.1926 63.1257 82.9472 62.5729C83.9677 61.8215 84.1392 59.8349 83.3074 58.7725C83.0416 58.4357 82.7071 58.2025 82.3041 58.0815C80.6576 57.5633 79.2684 58.6516 79.2684 60.6986Z" fill="white"/>
<path d="M55.0344 64.8879C53.9282 64.8879 53.911 64.8879 53.5851 63.8082C53.4737 63.4282 53.2936 63.3245 52.9163 63.3418C52.1188 63.3677 51.3127 63.3591 50.5152 63.3504C50.2751 63.3504 50.1378 63.4109 50.0864 63.6614C50.0435 63.8428 49.9663 64.0155 49.9063 64.1882C49.6662 64.8879 49.6662 64.8879 48.9116 64.8879C48.5428 64.8879 48.1655 64.8706 47.7968 64.8965C47.4881 64.9138 47.4795 64.8015 47.5652 64.5424C48.2255 62.7286 48.8687 60.9234 49.5204 59.1096C49.8291 58.2458 50.155 57.3821 50.4466 56.5097C50.5409 56.2247 50.6781 56.1297 50.9697 56.147C51.5442 56.1729 52.1102 56.1643 52.6847 56.147C52.9334 56.1383 53.062 56.2074 53.1564 56.4579C54.1168 59.1527 55.0858 61.8476 56.0634 64.5337C56.1663 64.8188 56.1234 64.9224 55.8062 64.8965C55.5489 64.8706 55.2916 64.8879 55.0344 64.8879ZM51.8615 58.7036C51.8272 58.7036 51.7843 58.695 51.75 58.695C51.4413 59.6191 51.1412 60.5347 50.8325 61.4589C50.781 61.6143 50.8067 61.7094 50.9954 61.7094C51.5356 61.7094 52.0759 61.7094 52.6161 61.7094C52.7876 61.7094 52.8562 61.6403 52.7962 61.4675C52.4875 60.5433 52.1788 59.6278 51.8615 58.7036Z" fill="white"/>
<path d="M45.5929 59.1183C45.4643 59.1183 45.3357 59.1096 45.2071 59.1183C44.7611 59.1615 44.4353 59.0578 44.1266 58.6432C43.6463 57.9954 42.9089 57.8918 42.1457 58.0559C41.3396 58.2286 40.8508 58.7555 40.6107 59.5242C40.4049 60.1807 40.4134 60.863 40.6278 61.5194C40.8937 62.3227 41.4339 62.8409 42.2743 62.9705C43.1147 63.1 43.835 62.8668 44.3152 62.1154C44.4267 61.9427 44.5468 61.8908 44.7354 61.8995C45.31 61.9081 45.8759 61.9167 46.4505 61.8995C46.7678 61.8908 46.7678 62.0118 46.6734 62.2536C46.0817 63.8428 44.9241 64.6807 43.2862 64.9139C41.2024 65.2075 39.2729 64.1106 38.5955 62.245C37.8408 60.1634 38.5097 57.8313 40.1819 56.743C42.4972 55.2402 45.6958 56.1816 46.6306 58.6432C46.8021 59.101 46.7935 59.1183 46.3047 59.1183C46.1761 59.1183 46.0474 59.1183 45.9188 59.1183C45.8245 59.1183 45.713 59.1183 45.5929 59.1183Z" fill="white"/>
<path d="M62.1176 58.6431C61.929 58.6431 61.7489 58.6345 61.5602 58.6431C61.2086 58.669 60.9771 58.6258 60.8227 58.2112C60.6427 57.7189 59.7937 57.5807 59.3735 57.9003C58.9962 58.194 59.0048 58.764 59.3992 59.1009C59.7251 59.3773 60.1281 59.4896 60.5226 59.6277C61.0028 59.8005 61.5002 59.9387 61.9633 60.1719C62.8551 60.6124 63.4125 61.2861 63.3696 62.3398C63.3267 63.4195 62.8208 64.2314 61.8346 64.6373C60.454 65.1988 59.0905 65.1297 57.83 64.2746C57.2554 63.8859 56.9724 63.2986 56.8438 62.6162C56.7923 62.3398 56.8781 62.2535 57.1525 62.2621C57.6928 62.2794 58.2416 62.2794 58.7818 62.2621C58.9876 62.2535 59.0905 62.3312 59.1334 62.5385C59.2963 63.2813 60.2396 63.4454 60.8227 63.074C61.2601 62.7976 61.2601 62.1671 60.8313 61.8216C60.4969 61.5625 60.0938 61.4416 59.708 61.312C59.1506 61.1306 58.5846 60.9752 58.0701 60.6815C57.2554 60.2324 56.8352 59.55 56.8524 58.6086C56.861 57.6757 57.2297 56.9157 58.0786 56.4838C59.3392 55.836 60.6512 55.8446 61.9375 56.4665C62.6836 56.8293 63.078 57.4857 63.2238 58.2976C63.2753 58.5654 63.1981 58.669 62.9237 58.6517C62.6579 58.6258 62.3834 58.6431 62.1176 58.6431Z" fill="white"/>
<path d="M24.2747 62.5647C24.489 61.9255 24.6863 61.3468 24.8749 60.7595C25.3466 59.3257 25.8182 57.8919 26.2727 56.4581C26.3413 56.2336 26.4528 56.1299 26.6929 56.1385C27.2331 56.1558 27.782 56.1558 28.3222 56.1385C28.5709 56.1299 28.6138 56.2076 28.528 56.4409C27.5676 59.1616 26.6071 61.8823 25.6553 64.6117C25.5867 64.8017 25.5009 64.8881 25.2865 64.8881C24.5834 64.8794 23.8888 64.8794 23.1856 64.8881C22.9626 64.8967 22.8683 64.8017 22.7911 64.5944C21.8478 61.8996 20.896 59.2048 19.9441 56.5099C19.8412 56.2249 19.8755 56.1213 20.2014 56.1385C20.6987 56.1558 21.2047 56.1645 21.702 56.1385C22.0022 56.1213 22.1222 56.2422 22.208 56.5186C22.7997 58.367 23.4 60.2067 24.0088 62.0551C24.0603 62.2019 24.0774 62.3746 24.2747 62.5647Z" fill="white"/>
<path d="M29.437 60.4998C29.437 59.1783 29.4456 57.8568 29.4284 56.5267C29.4284 56.233 29.5056 56.1294 29.8057 56.1294C31.3321 56.1467 32.8585 56.138 34.3935 56.1294C34.6679 56.1294 34.7794 56.2071 34.7623 56.4922C34.7365 56.8376 34.7451 57.1831 34.7623 57.5286C34.7708 57.6755 34.7451 57.7618 34.6765 57.805C34.6165 57.8482 34.5307 57.8655 34.4107 57.8568C33.5789 57.8482 32.7556 57.8655 31.9238 57.8482C31.6494 57.8396 31.5208 57.9173 31.5551 58.211C31.598 58.6601 31.3579 59.2388 31.658 59.5411C31.9153 59.8002 32.4726 59.6016 32.9014 59.6188C33.2873 59.6275 33.6732 59.6361 34.0591 59.6188C34.3335 59.6016 34.4107 59.7138 34.3935 59.973C34.3592 60.3876 34.5565 60.9058 34.3163 61.1822C34.0848 61.4499 33.5617 61.2513 33.1672 61.2599C32.7642 61.2772 32.3697 61.2858 31.9667 61.2599C31.6323 61.2426 31.5465 61.3722 31.5637 61.6831C31.5894 62.0718 31.5808 62.4605 31.5637 62.8492C31.5551 63.1169 31.658 63.1947 31.9153 63.1947C32.7299 63.186 33.5446 63.2033 34.3592 63.186C34.6594 63.1774 34.8137 63.2206 34.7708 63.5747C34.728 63.9979 34.9509 64.5507 34.6765 64.8185C34.4278 65.0689 33.8876 64.8876 33.476 64.8876C32.2926 64.8962 31.1092 64.8789 29.9172 64.8962C29.5485 64.9048 29.4284 64.8271 29.437 64.4298C29.4541 63.1169 29.437 61.8041 29.437 60.4998Z" fill="white"/>
<path d="M11.0086 60.5086C11.0086 59.1699 11.0172 57.8311 11 56.501C11 56.2159 11.0772 56.1209 11.3602 56.1382C11.8147 56.1555 12.2777 56.1641 12.7322 56.1382C13.0495 56.1209 13.1438 56.2246 13.1438 56.5528C13.1267 58.6257 13.1438 60.69 13.1267 62.763C13.1267 63.1344 13.2039 63.2725 13.5983 63.2553C14.2501 63.2207 14.9104 63.2553 15.5707 63.238C15.8279 63.2294 15.9394 63.3071 15.9137 63.5749C15.8708 63.9981 16.0938 64.5509 15.8193 64.81C15.605 65.0173 15.0647 64.8791 14.6617 64.8791C13.564 64.8791 12.4664 64.8704 11.3687 64.8877C11.0858 64.8877 11.0086 64.8013 11.0086 64.5163C11.0086 63.1862 11.0086 61.8474 11.0086 60.5086Z" fill="white"/>
<path d="M18.9837 60.5349C18.9837 61.8564 18.9751 63.1779 18.9923 64.4994C18.9923 64.8103 18.8979 64.8967 18.6064 64.8881C18.1261 64.8708 17.6374 64.8708 17.1486 64.8881C16.917 64.8967 16.857 64.8103 16.857 64.5944C16.8656 61.8737 16.8656 59.1616 16.857 56.4408C16.857 56.1731 16.9685 56.1299 17.1914 56.1385C17.6631 56.1472 18.1347 56.1558 18.6064 56.1385C18.9065 56.1213 18.9923 56.2249 18.9923 56.5272C18.9751 57.8574 18.9837 59.1961 18.9837 60.5349Z" fill="white"/>
<path d="M64.6045 60.5345C64.6045 59.1957 64.6131 57.8656 64.5959 56.5268C64.5959 56.2331 64.6731 56.1209 64.9818 56.1295C65.462 56.1554 65.9508 56.1468 66.4396 56.1295C66.6626 56.1209 66.7398 56.2072 66.7312 56.4318C66.7226 59.1439 66.7226 61.8646 66.7312 64.5767C66.7312 64.8013 66.654 64.879 66.431 64.8704C65.9337 64.8617 65.4277 64.8531 64.9304 64.8704C64.6731 64.879 64.5873 64.8013 64.5959 64.5335C64.6131 63.212 64.6045 61.8733 64.6045 60.5345Z" fill="white"/>
</g>
<defs>
<clipPath id="clip0_5498:8">
<rect width="75" height="9" fill="white" transform="translate(11 56)"/>
</clipPath>
</defs>
</svg>
