<svg width="160" height="80" viewBox="0 0 160 80" fill="none" xmlns="http://www.w3.org/2000/svg">
<path d="M126.39 74.2619C121.621 74.2619 116.959 72.8426 112.994 70.1835C109.029 67.5245 105.939 63.7451 104.114 59.3233C102.289 54.9015 101.812 50.036 102.742 45.3419C103.673 40.6479 105.97 36.3363 109.342 32.9522C112.714 29.5682 117.011 27.2639 121.688 26.3305C126.366 25.3972 131.214 25.8769 135.62 27.7089C140.025 29.5408 143.791 32.6429 146.44 36.6226C149.089 40.6024 150.502 45.2811 150.502 50.0672C150.494 56.4822 147.951 62.6322 143.431 67.168C138.911 71.7038 132.782 74.255 126.39 74.2619ZM126.39 28.8458C122.204 28.8458 118.112 30.0918 114.632 32.4261C111.151 34.7604 108.439 38.0782 106.838 41.9598C105.237 45.8414 104.819 50.1124 105.636 54.2325C106.454 58.3526 108.471 62.1368 111.432 65.1062C114.394 68.0757 118.166 70.0971 122.272 70.9147C126.378 71.7324 130.633 71.3095 134.5 69.6996C138.366 68.0897 141.67 65.3651 143.993 61.8705C146.317 58.3759 147.555 54.2682 147.552 50.0672C147.544 44.4373 145.312 39.0402 141.345 35.0596C137.378 31.079 132 28.8397 126.39 28.8329V28.8458Z" fill="#F59238"/>
<path d="M120.239 20.5243C120.239 20.5363 120.234 20.5478 120.226 20.5563C120.217 20.5648 120.206 20.5695 120.194 20.5695C120.182 20.5695 120.171 20.5648 120.162 20.5563C120.154 20.5478 120.149 20.5363 120.149 20.5243C119.485 17.635 113.482 5.50852 112.869 5.74147C112.163 5.99384 113.459 18.4471 114.404 22.1193C114.404 22.1776 114.346 22.1937 114.317 22.1485C110.126 15.4414 105.29 15.574 104.371 15.7067C104.313 15.7228 104.313 15.7973 104.355 15.8102C110.142 18.803 112.931 27.3478 113.195 28.1923C113.203 28.2072 113.217 28.2185 113.233 28.2239C113.249 28.2293 113.266 28.2284 113.282 28.2214C116.584 26.2188 120.3 25.0014 124.143 24.6624C124.172 24.6624 124.201 24.6333 124.188 24.6042C124.011 23.8503 122.344 16.0011 125.546 10.5526C125.575 10.5073 125.53 10.4458 125.488 10.462C124.649 10.75 120.416 13.2833 120.239 20.5243ZM125.22 34.1649C126.229 31.4795 130.165 30.4797 134.008 31.9325C137.851 33.3852 140.134 36.7436 139.141 39.429C138.148 42.1144 134.195 43.1142 130.356 41.6615C126.516 40.2087 124.214 36.8503 125.22 34.1649Z" fill="#F59238"/>
<path d="M10.5169 56.4766V44.2433H13.8085C14.9724 44.2433 16.0653 44.5248 16.6424 44.9681C17.6289 45.7252 17.8964 47.0258 17.8964 47.7829C17.9192 48.631 17.6442 49.4602 17.1195 50.1254C16.7971 50.5395 15.9686 50.9245 15.4076 51.1478C16.1588 52.2414 18.4316 56.6481 18.4316 56.6481H15.7558C15.7558 56.6481 13.2315 51.5231 12.98 51.5231H12.5835V56.4831L10.5169 56.4766ZM13.6312 46.3787H12.5835V49.1774H13.6312C14.1264 49.2126 14.6193 49.083 15.0336 48.8086C15.2046 48.7025 15.3458 48.5544 15.444 48.3784C15.5421 48.2023 15.594 48.0041 15.5946 47.8023C15.6 47.5988 15.5522 47.3973 15.4561 47.218C15.36 47.0386 15.2188 46.8876 15.0465 46.7799C14.6326 46.4913 14.1344 46.3501 13.6312 46.3787ZM1 56.4766V44.2433H4.2916C5.45543 44.2433 6.54833 44.5248 7.12218 44.9681C8.11192 45.7252 8.37628 47.0258 8.37628 47.7829C8.37628 49.6045 7.19633 50.876 6.07442 51.1737C5.0853 51.3836 4.07749 51.492 3.06652 51.4972V56.4572L1 56.4766ZM4.12718 46.3787H3.07941V49.1774H4.12718C4.62234 49.2126 5.11526 49.083 5.52958 48.8086C5.69922 48.6978 5.83861 48.5463 5.93511 48.3677C6.0316 48.1892 6.08214 47.9893 6.08214 47.7862C6.08214 47.583 6.0316 47.3831 5.93511 47.2046C5.83861 47.0261 5.69922 46.8745 5.52958 46.7638C5.11723 46.4837 4.62417 46.3483 4.12718 46.3787ZM108.817 56.6416V44.4083H112.257C113.421 44.4083 114.497 44.6898 115.087 45.1363C116.077 45.8902 116.341 47.1941 116.341 47.9479C116.367 48.7939 116.096 49.622 115.574 50.2872C115.252 50.7013 114.423 51.0863 113.862 51.3096C113.127 51.591 111.193 51.5328 111.193 51.5328V56.6545H108.83L108.817 56.6416ZM112.092 46.5405H111.193V49.3392H112.092C112.588 49.3763 113.081 49.2465 113.495 48.9703C113.668 48.8628 113.811 48.7122 113.909 48.5331C114.007 48.354 114.058 48.1524 114.056 47.9479C114.061 47.7447 114.014 47.5436 113.918 47.3643C113.823 47.1851 113.682 47.0338 113.511 46.9255C113.097 46.636 112.595 46.4999 112.092 46.5405ZM44.6612 45.9355L43.0493 47.5176C42.0821 46.6149 40.5572 45.8319 39.2709 45.8319C38.7177 45.8334 38.1701 45.9433 37.6589 46.1555C37.1577 46.3546 36.7007 46.6515 36.3146 47.0291C35.9141 47.4302 35.607 47.9152 35.4151 48.4494C35.1935 49.0564 35.0842 49.699 35.0927 50.3454C35.0927 51.7064 35.4764 52.8022 36.2437 53.6326C36.9669 54.37 37.9356 54.814 38.9646 54.8797C39.9935 54.9454 41.0105 54.6281 41.821 53.9885C42.2337 53.6488 42.7366 53.3414 42.9558 52.3708L39.3128 52.3546L39.2838 50.2548H45.5833C45.5833 52.5196 45.1706 53.6456 44.0036 54.9786C42.8365 56.3116 41.2762 56.9781 39.2677 56.9781C38.3535 56.9877 37.4463 56.8161 36.5983 56.4733C35.8052 56.1615 35.0827 55.6927 34.4737 55.095C33.8761 54.5004 33.4046 53.7905 33.0875 53.0082C32.7444 52.1677 32.5734 51.2665 32.5845 50.3583C32.5646 49.169 32.8654 47.9963 33.455 46.9644C34.0236 45.9748 34.8567 45.1645 35.86 44.6251C36.8995 44.07 38.0612 43.7852 39.2387 43.7968C40.1608 43.7818 41.0775 43.9421 41.9403 44.2692C42.9075 44.7188 43.8204 45.2779 44.6612 45.9355ZM59.5782 44.2433L61.4835 56.4733H59.1527L58.0436 48.7083L55.3452 56.4733H53.2046L50.4449 48.6112L49.3585 56.4766H47.0566L48.9909 44.2466H51.1284L54.2878 53.3253L57.4408 44.2433H59.5782ZM158.426 44.7028L159 48.4041H158.291L157.952 46.0487L157.143 48.4041H156.498L155.673 46.0196L155.351 48.4041H154.657L155.234 44.7028H155.879L156.824 47.4561L157.768 44.7028H158.426ZM68.2118 44.0945H70.3138L75.3914 56.6384H72.7478L71.7162 54.0921H66.8481L65.8132 56.6384H63.276L68.2054 44.0945H68.2118ZM71.0005 51.7496L70.1591 49.7436C69.8915 49.0609 69.582 48.1712 69.2435 47.0776H69.1854C68.7857 48.3944 68.4923 49.2842 68.3279 49.7436L67.5026 51.7269H71.0005V51.7496ZM129.83 44.0945H131.955L137.029 56.6384H134.389L133.357 54.0921H128.486L127.454 56.6384H124.917L129.83 44.0945ZM132.619 51.7496L131.777 49.7436C131.513 49.0609 131.2 48.1712 130.862 47.0776H130.804C130.404 48.3944 130.111 49.2842 129.946 49.7436L129.121 51.7269H132.619V51.7496ZM25.0084 44.0977H27.1136L32.188 56.6416H29.5508L28.5192 54.0953H23.6479L22.6162 56.6416H20.079L25.0084 44.0977ZM27.7809 51.7528L26.9395 49.7436C26.6751 49.0609 26.3656 48.1712 26.0239 47.0776H25.9659C25.5693 48.3944 25.2727 49.2842 25.1115 49.7436L24.283 51.7269H27.7809V51.7528ZM75.1013 46.4823V44.1269H82.3905V46.4823H79.9565V56.6125H77.5224V46.4823H75.1013ZM152.227 45.3854V44.6769H154.425V45.3854H153.69V48.4494H152.952V45.3822L152.227 45.3854ZM84.0573 56.7289V44.2595H86.4784V56.7289H84.0573ZM117.715 56.7289V44.4083H120.149V54.4382H123.527V56.7192L117.715 56.7289ZM138.992 56.6254V51.2351L135.275 44.3339H137.532L140.085 49.1483H140.127L142.681 44.3339H144.937L141.159 51.2351V56.6254H138.992ZM95.212 54.9203C94.6448 54.95 94.0783 54.8508 93.5547 54.6301C93.0311 54.4094 92.5639 54.0728 92.188 53.6456C91.4334 52.7205 91.0211 51.5619 91.0211 50.3664C91.0211 49.171 91.4334 48.0123 92.188 47.0873C92.5714 46.6696 93.04 46.3396 93.5617 46.1197C94.0835 45.8997 94.6463 45.795 95.212 45.8125C97.9587 45.8125 99.0645 47.6341 99.0645 47.6341L100.57 46.3011C100.049 45.606 99.3906 45.0266 98.6357 44.5992C97.5956 44.0151 96.4198 43.7181 95.2281 43.7386C94.0315 43.7201 92.851 44.0169 91.8043 44.5992C90.8061 45.1531 89.9794 45.9726 89.4154 46.9676C88.8312 48.0005 88.5308 49.1707 88.5449 50.3583L88.5127 50.3745C88.5014 51.5663 88.8027 52.7402 89.3864 53.7782C89.9489 54.7785 90.7755 55.6037 91.7753 56.1627C92.8245 56.7319 93.9984 57.03 95.191 57.03C96.3837 57.03 97.5576 56.7319 98.6067 56.1627C99.3747 55.7287 100.044 55.1379 100.57 54.4285L99.0484 52.9176C99.0484 52.9176 97.6041 54.8491 95.212 54.9203Z" fill="white"/>
</svg>
