<svg width="160" height="80" viewBox="0 0 160 80" fill="none" xmlns="http://www.w3.org/2000/svg">
<path d="M69.7558 79.2148C69.7558 79.1318 69.7223 79.0654 69.6722 78.999C69.622 78.9326 69.5385 78.8828 69.4382 78.8496C69.3546 78.8163 69.2543 78.7665 69.1373 78.7167C69.037 78.6669 68.9367 78.6171 68.8364 78.5507C68.7528 78.5009 68.6692 78.4179 68.6023 78.3017C68.5355 78.2021 68.5187 78.0859 68.5187 77.9365C68.5187 77.7207 68.6023 77.5547 68.7528 77.4053C68.9032 77.2559 69.1205 77.1895 69.3713 77.1895C69.7224 77.1895 69.9731 77.2891 70.1403 77.4717L69.8895 77.8203C69.7558 77.6875 69.5886 77.6211 69.4047 77.6211C69.2877 77.6211 69.2041 77.6543 69.1205 77.7041C69.037 77.7539 69.0202 77.8369 69.0202 77.9199C69.0202 77.9697 69.037 78.0029 69.0537 78.0527C69.0704 78.0859 69.0871 78.1191 69.1205 78.1523C69.1373 78.1855 69.1707 78.2021 69.2208 78.2353C69.271 78.2685 69.3044 78.2851 69.3379 78.3017C69.3713 78.3183 69.4214 78.3349 69.4883 78.3681C69.5552 78.4013 69.6053 78.4179 69.6388 78.4345C69.7558 78.4843 69.8561 78.5341 69.9397 78.6005C70.04 78.6503 70.1068 78.7333 70.1737 78.8496C70.2239 78.9492 70.2573 79.082 70.2573 79.2148C70.2573 79.4472 70.1737 79.6298 69.9898 79.7626C69.8227 79.912 69.6053 79.9784 69.3379 79.9784C69.154 79.9784 68.9701 79.9452 68.8029 79.8622C68.6358 79.7792 68.5187 79.6796 68.4519 79.5468L68.7193 79.2314C68.7862 79.331 68.8865 79.3974 69.0035 79.4472C69.1205 79.497 69.2376 79.5302 69.3546 79.5302C69.4716 79.5302 69.5719 79.497 69.6388 79.4472C69.7223 79.3974 69.7558 79.3144 69.7558 79.2148Z" fill="#7B7B7B"/>
<path d="M72.2968 77.6877H71.4108V77.2395H73.6508V77.6877H72.7815V79.9455H72.2968V77.6877Z" fill="#7B7B7B"/>
<path d="M76.6932 77.2395H77.1613V78.8166C77.1613 79.1984 77.061 79.4972 76.8604 79.6798C76.6598 79.879 76.3923 79.9621 76.0914 79.9621C75.7404 79.9621 75.4562 79.8624 75.2556 79.6632C75.0383 79.464 74.938 79.1652 74.938 78.7834V77.2395H75.4227V78.6838C75.4227 78.9494 75.4729 79.1652 75.5899 79.298C75.7069 79.4474 75.8741 79.5138 76.0914 79.5138C76.4926 79.5138 76.6932 79.2482 76.6932 78.7004V77.2395Z" fill="#7B7B7B"/>
<path d="M78.8497 79.9289H78.7996V77.2395H78.8497C78.9667 77.2395 79.0837 77.2395 79.2175 77.2395C79.4682 77.2395 79.602 77.2395 79.602 77.2395C80.1369 77.2395 80.5214 77.3723 80.7721 77.6379C81.0062 77.8869 81.1232 78.2024 81.1232 78.5676C81.1232 78.966 80.9895 79.298 80.722 79.5636C80.4545 79.8292 80.07 79.9455 79.5685 79.9455C79.4682 79.9455 79.3512 79.9455 79.2509 79.9455C79.1339 79.9289 79.0002 79.9289 78.8497 79.9289ZM79.5852 77.6711C79.4849 77.6711 79.3846 77.6711 79.2676 77.6877V79.4972C79.3846 79.4972 79.485 79.4972 79.5685 79.4972C79.8862 79.4972 80.1369 79.4142 80.3208 79.2482C80.5047 79.0822 80.5883 78.8498 80.5883 78.5676C80.5883 78.2854 80.5047 78.0695 80.3208 77.9201C80.1536 77.7541 79.9029 77.6711 79.5852 77.6711Z" fill="#7B7B7B"/>
<path d="M83.1459 79.9288H82.6611V77.2395H83.1459V79.9288Z" fill="#7B7B7B"/>
<path d="M84.6839 78.5839C84.6839 78.1855 84.8176 77.8535 85.0851 77.5879C85.3526 77.3223 85.6869 77.1895 86.1048 77.1895C86.5227 77.1895 86.8571 77.3223 87.1245 77.5713C87.392 77.8369 87.5257 78.1689 87.5257 78.5839C87.5257 78.9824 87.392 79.3144 87.1245 79.58C86.8571 79.8456 86.5227 79.9784 86.1048 79.9784C85.7036 79.9784 85.3526 79.8456 85.0851 79.5966C84.8176 79.331 84.6839 78.999 84.6839 78.5839ZM85.1854 78.5839C85.1854 78.8496 85.269 79.082 85.4529 79.2646C85.6368 79.4472 85.8374 79.5302 86.1048 79.5302C86.389 79.5302 86.6063 79.4472 86.7735 79.2646C86.9407 79.082 87.0242 78.8662 87.0242 78.5839C87.0242 78.3017 86.9407 78.0859 86.7568 77.9033C86.5729 77.7207 86.3723 77.6377 86.1048 77.6377C85.8374 77.6377 85.62 77.7207 85.4529 77.9033C85.269 78.0859 85.1854 78.3017 85.1854 78.5839Z" fill="#7B7B7B"/>
<path d="M90.1168 79.2148C90.1168 79.1318 90.0834 79.0654 90.0333 78.999C89.9831 78.9326 89.8995 78.8828 89.7992 78.8496C89.7156 78.8163 89.6153 78.7665 89.4983 78.7167C89.398 78.6669 89.2977 78.6171 89.1974 78.5507C89.1138 78.5009 89.0302 78.4179 88.9634 78.3017C88.8965 78.2021 88.8798 78.0859 88.8798 77.9365C88.8798 77.7207 88.9634 77.5547 89.1138 77.4053C89.2643 77.2559 89.4816 77.1895 89.7324 77.1895C90.0834 77.1895 90.3342 77.2891 90.5013 77.4717L90.2506 77.8203C90.1168 77.6875 89.9497 77.6211 89.7658 77.6211C89.6488 77.6211 89.5652 77.6543 89.4816 77.7041C89.4147 77.7539 89.3813 77.8369 89.3813 77.9199C89.3813 77.9697 89.398 78.0029 89.4147 78.0527C89.4315 78.0859 89.4482 78.1191 89.4816 78.1523C89.4983 78.1855 89.5318 78.2021 89.5819 78.2353C89.6321 78.2685 89.6655 78.2851 89.6989 78.3017C89.7324 78.3183 89.7825 78.3349 89.8494 78.3681C89.9162 78.4013 89.9664 78.4179 89.9998 78.4345C90.1168 78.4843 90.2171 78.5341 90.3007 78.6005C90.401 78.6503 90.4679 78.7333 90.5348 78.8496C90.5849 78.9492 90.6183 79.082 90.6183 79.2148C90.6183 79.4472 90.5348 79.6298 90.3509 79.7626C90.1837 79.912 89.9664 79.9784 89.6989 79.9784C89.515 79.9784 89.3311 79.9452 89.164 79.8622C88.9968 79.7792 88.8798 79.6796 88.8129 79.5468L89.0804 79.2314C89.1473 79.331 89.2476 79.3974 89.3646 79.4472C89.4816 79.497 89.5986 79.5302 89.7156 79.5302C89.8327 79.5302 89.933 79.497 89.9998 79.4472C90.0834 79.3974 90.1168 79.3144 90.1168 79.2148Z" fill="#7B7B7B"/>
<path d="M106.951 41.4809C106.8 37.6294 104.945 34.5085 101.585 32.4167C101.334 32.2507 101.083 31.9685 100.682 32.1179C103.708 38.2105 102.537 43.8216 98.7594 49.1505C100.114 48.171 101.317 47.0754 102.454 45.8801C102.036 47.1916 101.25 48.2706 100.264 49.2169C99.0102 50.4454 97.6227 51.4912 96.1182 52.4043C95.2489 52.9189 94.0787 53.5664 93.1259 54.0478C91.9557 54.5624 90.8357 55.1766 89.6153 55.5751C88.2947 56.0067 86.9072 56.1727 85.503 56.2391C82.6444 56.3719 79.9196 55.7411 77.2783 54.745C75.172 53.7324 73.1493 52.5869 71.3104 51.1426C71.0764 50.96 70.8089 50.9268 70.5247 50.9268C68.2345 50.877 65.9778 50.545 63.7544 50.047C63.487 49.9805 63.1526 49.7979 62.9687 50.0303C62.8016 50.2462 63.0189 50.5616 63.1192 50.794C65.5431 57.119 70.4913 60.2897 76.9106 61.6012C79.8527 62.2985 82.8116 62.1822 85.7872 61.8336C86.0714 61.8004 86.3389 61.7672 86.623 61.734C85.7705 62.6305 84.7675 63.2115 83.7143 63.7261C85.8541 63.6265 87.9437 63.5269 89.9831 62.8463C91.0864 62.4811 92.1396 61.9996 93.1593 61.4518C93.6775 61.1862 94.1958 60.738 94.9146 60.4059C94.1623 61.8834 93.1593 62.8961 92.2399 64.0084C93.7778 63.4771 95.1988 62.7633 96.486 61.7838C103.557 56.8201 107.285 50.13 106.951 41.4809Z" fill="url(#paint0_linear)"/>
<path d="M87.275 4.21189C79.4014 5.27435 72.7982 8.89336 67.0309 14.1725C66.9306 14.2555 66.73 14.3385 66.8637 14.5709C66.9808 14.4879 67.0978 14.4049 67.2148 14.3219C71.0262 11.2341 75.3225 9.05937 80.0199 7.68149C83.3632 6.70203 86.74 5.62297 90.3843 6.204C89.9497 5.73918 89.3479 5.68937 88.7628 5.44036C90.2171 5.14154 91.7551 6.07119 92.3067 7.49888C92.9754 9.20878 92.5073 10.7527 91.5879 12.2302C90.2004 14.4381 88.3281 16.2144 86.3221 17.8579C84.9179 19.0033 83.3632 19.8998 81.6581 20.763C81.9758 20.9291 82.1262 20.8626 82.2767 20.8128C84.5167 20.1156 86.6899 19.2856 88.7795 18.2231C91.8052 16.6626 94.5468 14.7535 96.6197 12.0143C97.4221 10.9519 97.9737 9.75661 97.7397 8.39533C97.3552 6.1542 95.7504 5.10834 93.7611 4.5107C91.6214 3.89647 89.4482 3.92967 87.275 4.21189Z" fill="url(#paint1_linear)"/>
<path d="M81.3238 22.871C82.1095 22.4228 82.9119 21.9912 83.7143 21.543C83.6809 21.4766 83.6641 21.4268 83.6307 21.3604C83.0791 21.543 82.5274 21.709 81.9925 21.8916C73.0824 24.9794 66.964 30.9059 63.6708 39.7044C63.3532 40.5677 63.1192 41.4475 62.9687 42.344C62.9186 42.593 62.8684 42.8254 63.1693 42.9914C64.8577 43.8713 66.5628 44.7179 68.3683 45.4483C68.3683 45.2657 68.385 45.1827 68.3683 45.1163C67.4154 41.7131 67.7665 38.3929 69.388 35.2886C72.1463 30.0261 76.0914 25.8094 81.3238 22.871Z" fill="url(#paint2_linear)"/>
<path d="M112.668 42.4934C112.534 40.2689 112.183 38.1108 111.046 36.1353C110.712 35.2554 110.06 34.5582 109.676 33.6949C110.578 34.1764 111.08 35.0728 111.815 35.7202C110.829 33.5455 109.508 31.6032 107.686 30.0427C106.449 28.698 104.911 27.8182 103.189 27.2372C102.604 27.0047 101.936 26.9383 101.434 26.4901C101.936 26.2079 102.437 26.1747 102.922 26.0751C105.847 25.5439 108.037 23.9668 109.659 21.4932C109.993 20.9786 110.043 20.547 110.077 20.0157C108.138 22.3897 105.714 23.834 102.604 24.0498C101.769 24.1162 100.983 24.2324 100.13 24.3652C99.4783 24.4814 99.2443 24.6308 98.0741 24.5146C99.261 23.917 100.297 23.4023 101.334 22.8711C104.126 21.6924 106.115 19.7501 107.151 16.9114C105.764 18.7707 103.808 19.8663 101.819 20.8956C99.8461 21.626 97.8735 22.3565 95.9009 23.1201C94.0788 23.8174 92.3235 24.664 91.0196 26.1913L90.819 26.4403C90.819 26.4403 90.8691 26.1747 90.8859 26.1249C91.0865 25.3945 91.5545 24.8632 92.1731 24.4648C93.3432 23.6846 94.5468 22.9043 95.717 22.1075C96.6364 21.4766 97.4723 20.7462 97.8568 19.6339C98.1242 18.8371 98.1744 18.0568 97.606 17.3098C97.3386 16.9612 97.0711 16.6956 96.4191 16.5627C96.9039 16.9778 97.0878 17.2268 97.2717 17.6086C97.723 18.5383 97.1212 19.4845 96.4358 20.1486C95.4997 21.045 94.3797 21.6426 93.2262 22.2237C91.6548 23.0205 90.2005 24 88.9801 25.2616C88.0607 26.2079 87.2917 27.2538 87.2917 28.6648C87.2917 29.0633 87.0076 29.0799 86.7401 29.1463C85.3359 29.4949 85.1353 29.7439 85.2523 31.2214C85.2857 31.6032 85.1854 31.7526 84.8344 31.8854C83.4803 32.3337 82.2265 32.9977 81.1065 33.8775C80.5716 34.2926 80.0032 34.525 79.3178 34.2926C78.9835 34.1764 78.9333 34.3424 78.9668 34.608C79.0671 35.7701 79.4683 36.7661 80.5047 37.3969C81.5077 38.0278 82.6445 38.2104 83.9149 38.4926C83.6475 38.1274 83.4636 37.9282 83.3299 37.6958C82.9287 36.9985 83.1125 36.7163 83.9149 36.7495C84.4499 36.7661 84.9012 36.6001 85.2523 36.1851C85.4696 35.9361 85.7036 35.7368 86.038 35.9195C86.8237 36.3677 87.1079 35.9361 87.3085 35.2554C87.4088 34.8902 87.5759 34.525 87.7264 34.1764C87.8434 33.8775 87.9939 33.5953 88.3449 33.5621C89.4649 33.4791 90.3844 32.8815 91.3706 32.4167C91.5378 32.3336 91.7217 32.1676 91.9056 32.3004C92.1731 32.4831 91.939 32.6989 91.8722 32.8815C91.2703 34.5416 90.6853 36.2183 90.05 37.8618C89.5652 39.1068 89.047 40.3851 87.2583 40.0033C87.7598 41.016 88.4452 41.68 89.281 41.9622C90.2339 42.2942 91.0029 42.0452 91.3205 41.1156C92.056 39.0072 93.2764 37.2309 94.7307 35.5708C95.3325 34.9898 95.9176 34.4088 96.5361 33.8443C97.8568 32.6657 98.2078 32.6989 99.3613 34.0103C99.3947 34.0435 99.4616 34.0269 99.5117 34.0435C99.6288 32.7819 99.2944 31.9186 98.0072 30.1921C99.4114 30.1423 100.632 30.6902 101.902 31.0222C103.206 31.7194 104.443 32.5329 105.563 33.5123C107.252 35.189 108.305 37.2143 108.957 39.4721C108.973 39.5883 108.973 39.6879 108.99 39.8041C109.726 43.7219 109.425 47.4903 107.569 51.0927C106.65 52.869 106.048 54.7781 105.814 56.7703C105.664 58.0983 105.664 59.443 106.382 60.8873C106.399 60.5387 106.416 60.4059 106.416 60.2897C106.098 56.7205 107.151 53.5331 109.141 50.5947C110.11 49.1504 110.896 47.5899 111.481 45.9298C111.615 45.5314 111.748 45.133 111.882 44.7346C111.932 44.7346 111.982 44.7512 112.049 44.7512C112.15 45.4982 112.25 46.2287 112.35 46.9757C112.685 45.4982 112.751 44.0041 112.668 42.4934ZM90.0166 31.1218C89.7826 31.4538 88.0273 31.3376 87.7932 30.989C87.6595 30.7898 87.5759 30.5075 87.8434 30.4245C89.3145 30.0095 90.4512 28.9969 91.7719 28.3162C91.8053 28.2996 91.8722 28.3494 92.0226 28.3992C91.2703 29.2625 90.6685 30.2087 90.0166 31.1218Z" fill="url(#paint3_linear)"/>
<path d="M76.6765 49.6983C77.4957 49.6319 78.3482 49.5987 79.1339 49.1837C73.6174 47.8556 67.8501 47.5568 62.6846 44.9671C63.1192 45.5481 63.7544 45.8303 64.2225 46.4778C63.5371 46.4612 63.0691 46.1457 62.5676 45.9631C62.3502 45.8469 62.1329 45.7141 61.9156 45.5979C56.1316 42.5433 52.9721 37.9781 53.5405 31.2547C53.8079 28.0009 54.9781 25.0459 56.5328 22.2072C57.7197 20.0656 59.2576 18.1731 60.7621 16.2806C63.6709 13.4585 66.0781 10.1549 69.4214 7.48211C69.271 8.17935 68.8531 8.46157 68.6023 9.0426C70.3242 7.83073 71.929 6.80148 73.6508 5.90502C75.4061 4.99197 77.2115 4.21173 79.1005 3.61409C81.0564 2.98326 83.0791 2.53503 85.1185 2.31922C88.1276 2.0204 91.1533 2.12001 94.1623 2.56823C93.1092 1.88759 91.9891 1.42277 90.8357 1.05754C87.9102 0.11129 84.9179 -0.187527 81.8588 0.11129C81.6916 0.127891 79.8527 0.2773 78.716 0.493112C75.941 0.991141 73.2329 1.65518 70.6251 2.68444C67.0309 4.09552 63.604 5.83862 60.5281 8.19596C55.4462 11.898 51.384 16.43 48.9099 22.2404C48.8598 22.34 48.8263 22.4396 48.9434 22.5392C49.5786 22.0412 50.147 21.4601 50.9494 21.1945C49.3947 23.1866 48.2914 25.4111 47.4723 27.7685C46.1851 31.4539 45.7504 33.7282 46.1349 34.9899C46.4693 34.0602 46.603 33.0974 47.0878 32.0681C47.2382 33.9606 47.5391 35.6041 48.1577 37.1978C50.6485 43.6224 55.7805 46.3118 61.949 48.6027C62.3168 48.7355 62.7849 48.8683 62.952 48.9015C67.5157 49.8478 72.0794 50.0802 76.6765 49.6983Z" fill="url(#paint4_linear)"/>
<path d="M88.7294 35.1394C87.9939 36.9489 86.7401 38.194 84.8678 38.8414C84.0487 39.1236 83.3132 39.5885 82.7114 40.2193C82.1931 40.7671 81.7752 41.3648 81.8588 42.1948C82.5609 40.8501 83.8648 40.4019 85.1353 39.9205C86.7735 39.3062 88.1443 38.3766 89.047 36.8659C89.3479 36.3845 89.6488 35.8864 89.6154 35.2556C89.3814 35.2722 89.2811 35.9196 88.8464 35.9528C88.8631 35.8034 88.8464 35.5876 88.8464 35.4714C88.8631 35.3552 88.813 35.2058 88.7294 35.1394Z" fill="url(#paint5_linear)"/>
<path d="M65.727 70.0512C65.727 69.5033 65.727 67.5942 65.727 67.5942H67.5826C67.5826 67.5942 67.5826 70.4994 67.5826 71.5619C67.5826 72.7073 67.9169 73.1555 68.7695 73.1555C69.6053 73.1389 69.9229 72.6907 69.9229 71.5121C69.9229 70.3998 69.9229 67.5942 69.9229 67.5942H71.7785C71.7785 67.5942 71.7952 70.6156 71.7618 71.8275C71.6949 73.6702 70.5749 74.6828 68.6859 74.6662C66.8805 74.6496 65.7939 73.5872 65.7437 71.7777C65.7103 71.2132 65.727 70.6322 65.727 70.0512Z" fill="white"/>
<path d="M83.8981 69.4867C83.2963 69.3207 82.7113 68.9721 82.0426 69.1049C81.725 69.1713 81.307 69.2211 81.307 69.6361C81.2903 70.0179 81.6915 70.0677 81.959 70.1673C82.3268 70.2835 82.7113 70.3665 83.079 70.5159C84.1656 70.9642 84.6504 71.761 84.5167 72.8567C84.3997 73.7697 83.6307 74.5002 82.5942 74.6496C82.1262 74.716 81.6414 74.6994 81.1733 74.6496C79.6688 74.4504 79.4849 74.1848 79.6186 72.5081C80.1703 72.6741 80.6384 73.0559 81.2067 73.1057C81.5411 73.1389 81.8587 73.1721 82.193 73.0725C82.4438 72.9895 82.6778 72.8733 82.6945 72.5911C82.7113 72.3088 82.4438 72.1594 82.2097 72.093C81.7417 71.9436 81.2402 71.844 80.7721 71.6614C79.8527 71.2962 79.4348 70.6321 79.4515 69.6693C79.4849 68.7396 79.9697 68.0756 80.8891 67.7602C81.3739 67.5942 81.8587 67.5444 82.3769 67.5776C83.9149 67.6772 84.0988 67.893 83.8981 69.4867Z" fill="white"/>
<path d="M73.517 67.5942C73.517 67.5942 75.1386 67.5942 75.3726 67.5942C75.3726 69.0053 75.3726 73.0394 75.3726 73.0394C75.3726 73.0394 78.064 73.0394 78.4652 73.0394C78.4652 73.2054 78.4485 74.218 78.4652 74.5666C78.3983 74.5666 73.7511 74.5666 73.5337 74.5666C73.517 74.4172 73.517 67.5942 73.517 67.5942Z" fill="white"/>
<path d="M62.066 67.6274C61.2302 67.561 59.5752 67.5942 59.5752 67.5942H58.8731C58.8731 67.5942 58.8731 70.1508 58.8731 71.097C58.8731 72.0599 58.8731 73.0228 58.8731 73.9856C58.8731 74.1848 58.8731 74.5667 58.8731 74.5667H60.6952C60.6952 74.5667 60.6785 73.9856 60.6952 73.6868C60.712 73.1224 60.6952 72.5745 60.6952 72.5745C60.6952 72.5745 61.2469 72.5413 61.8153 72.5247C61.8654 72.5247 61.9323 72.5247 61.9824 72.5247C63.5204 72.4417 64.4064 71.5785 64.4231 70.1674C64.4398 68.6235 63.6374 67.727 62.066 67.6274ZM61.3472 71.0472C61.1299 71.0638 60.6952 71.0638 60.6952 71.0638V69.0385C60.6952 69.0385 61.0964 69.0219 61.3305 69.0385C62.1663 69.0883 62.5842 69.3705 62.5842 70.0346C62.601 70.7318 62.1998 70.9808 61.3472 71.0472Z" fill="white"/>
<path d="M90.9527 69.0551V67.5942H87.8434H86.0212V69.0551V70.3666V71.8441V73.0892V74.5666H87.8434H90.9527V73.0892H87.8434V71.8441H90.5181V70.3666H87.8434V69.0551H90.9527Z" fill="white"/>
<path d="M98.6257 70.9144C99.3278 70.5824 99.7792 70.0014 99.7792 69.3373C99.7792 68.3081 98.6592 67.4614 97.2717 67.4614C95.8842 67.4614 94.7641 68.3081 94.7641 69.3373C94.7641 70.0014 95.2322 70.5824 95.9176 70.9144C95.0818 71.263 94.5134 71.9437 94.5134 72.7073C94.5134 73.8528 95.7504 74.7658 97.2717 74.7658C98.7929 74.7658 100.03 73.8362 100.03 72.7073C100.03 71.9437 99.4616 71.2796 98.6257 70.9144ZM97.2717 69.0551C97.606 69.0551 97.8735 69.3041 97.8735 69.6029C97.8735 69.9018 97.606 70.1508 97.2717 70.1508C96.9373 70.1508 96.6699 69.9018 96.6699 69.6029C96.6699 69.3041 96.9373 69.0551 97.2717 69.0551ZM97.2717 73.2718C96.7869 73.2718 96.4024 72.9065 96.4024 72.4749C96.4024 72.0433 96.7869 71.6781 97.2717 71.6781C97.7565 71.6781 98.1409 72.0433 98.1409 72.4749C98.1409 72.9065 97.7565 73.2718 97.2717 73.2718Z" fill="url(#paint6_linear)"/>
<defs>
<linearGradient id="paint0_linear" x1="100.846" y1="54.5149" x2="46.6554" y2="22.4224" gradientUnits="userSpaceOnUse">
<stop stop-color="#97234E"/>
<stop offset="1" stop-color="#DA0046"/>
</linearGradient>
<linearGradient id="paint1_linear" x1="115.417" y1="29.91" x2="61.2269" y2="-2.18249" gradientUnits="userSpaceOnUse">
<stop stop-color="#97234E"/>
<stop offset="1" stop-color="#DA0046"/>
</linearGradient>
<linearGradient id="paint2_linear" x1="103.62" y1="49.8304" x2="49.4295" y2="17.7378" gradientUnits="userSpaceOnUse">
<stop stop-color="#97234E"/>
<stop offset="1" stop-color="#DA0046"/>
</linearGradient>
<linearGradient id="paint3_linear" x1="109.229" y1="40.3594" x2="55.0385" y2="8.26687" gradientUnits="userSpaceOnUse">
<stop stop-color="#97234E"/>
<stop offset="1" stop-color="#DA0046"/>
</linearGradient>
<linearGradient id="paint4_linear" x1="107.56" y1="43.1776" x2="53.3696" y2="11.0851" gradientUnits="userSpaceOnUse">
<stop stop-color="#97234E"/>
<stop offset="1" stop-color="#DA0046"/>
</linearGradient>
<linearGradient id="paint5_linear" x1="103.909" y1="49.343" x2="49.7184" y2="17.2505" gradientUnits="userSpaceOnUse">
<stop stop-color="#97234E"/>
<stop offset="1" stop-color="#DA0046"/>
</linearGradient>
<linearGradient id="paint6_linear" x1="99.7996" y1="71.4184" x2="94.7855" y2="70.8294" gradientUnits="userSpaceOnUse">
<stop stop-color="#A0234E"/>
<stop offset="1" stop-color="#DA0046"/>
</linearGradient>
</defs>
</svg>
