<svg width="160" height="80" viewBox="0 0 160 80" fill="none" xmlns="http://www.w3.org/2000/svg">
<path d="M15.0337 33.3915C15.5735 33.3892 16.0908 33.1774 16.4732 32.8017C16.8556 32.4262 17.0726 31.9171 17.0779 31.3848C17.0779 29.6697 18.5994 28.9235 20.1131 28.9235H20.2255C21.7471 28.9235 23.2686 29.6697 23.2686 31.3848C23.2739 31.9156 23.4896 32.4234 23.8693 32.7988C24.2504 33.1741 24.7651 33.3869 25.3036 33.3915C25.8487 33.3938 26.3713 33.1845 26.7603 32.8089C27.1493 32.4332 27.3729 31.9216 27.3821 31.3848C27.3821 27.6371 24.3813 24.8929 20.252 24.8929H20.1475C15.9903 24.8929 13.0001 27.5943 13.0001 31.3675C12.9975 31.6325 13.0477 31.8954 13.1496 32.1408C13.2502 32.3863 13.3997 32.6095 13.5889 32.7976C13.7781 32.9858 14.003 33.1352 14.2517 33.2371C14.4991 33.339 14.7651 33.3915 15.0337 33.3915Z" fill="#F26822"/>
<path d="M27.3818 45.1125C27.3791 44.6088 27.1645 44.1263 26.783 43.7693C26.4015 43.4123 25.8849 43.2098 25.3445 43.2057C25.0756 43.2055 24.8106 43.255 24.5629 43.3509C24.3152 43.4469 24.09 43.5874 23.9006 43.7647C23.7112 43.9418 23.5615 44.152 23.4595 44.3834C23.3575 44.6147 23.3058 44.8624 23.3071 45.1125C23.3071 46.7354 21.7838 47.4413 20.2604 47.4413H20.1558C18.6324 47.4413 17.1091 46.7273 17.1091 45.1125C17.1091 44.6047 16.8918 44.1175 16.5064 43.7584C16.1222 43.3993 15.599 43.1975 15.0545 43.1975C14.5088 43.1975 13.9869 43.3993 13.6014 43.7584C13.2159 44.1175 13 44.6047 13 45.1125C13 48.6585 15.9937 51.2389 20.1214 51.2389H20.2339C20.7625 51.2367 21.2884 51.196 21.8103 51.1171L23.6039 54.363C23.9602 55.004 25.0742 55.1744 26.0491 54.6712C27.0599 54.1926 27.5725 53.2756 27.2162 52.6427L25.4756 49.3969C26.0863 48.8399 26.5711 48.1731 26.8996 47.4367C27.2268 46.7003 27.391 45.9096 27.3818 45.1125Z" fill="#F26822"/>
<path d="M16.9224 43.1637V32.7887C16.6644 33.053 16.3572 33.2618 16.0183 33.4028C15.6794 33.5436 15.3165 33.6138 14.9511 33.6091C14.5844 33.6043 14.224 33.5247 13.8889 33.3751C13.5538 33.2254 13.2516 33.0088 13 32.7378V43.1975C13.2542 42.9271 13.5602 42.7122 13.899 42.5665C14.2379 42.4208 14.6021 42.3471 14.9701 42.35C15.6997 42.3475 16.4027 42.6401 16.9224 43.1637Z" fill="#F26822"/>
<path d="M23.4597 32.7378V43.1975C23.7083 42.9205 24.0085 42.6982 24.3441 42.5442C24.6785 42.3904 25.0405 42.308 25.4089 42.3025C25.7761 42.297 26.1407 42.3682 26.4801 42.5119C26.8194 42.6557 27.126 42.8688 27.3821 43.1382V32.7887C27.1273 33.0531 26.8245 33.2622 26.4889 33.4034C26.1533 33.5445 25.7937 33.6148 25.4317 33.6101C25.0683 33.6054 24.71 33.5257 24.3794 33.3757C24.0476 33.2258 23.7487 33.0089 23.5014 32.7378H23.4597Z" fill="#F26822"/>
<path d="M58.7496 33.3915C59.2655 33.387 59.7585 33.1737 60.1223 32.7975C60.4874 32.4215 60.694 31.9126 60.699 31.3808C60.699 29.662 62.1566 28.9145 63.6143 28.9145H63.7144C65.1721 28.9145 66.6297 29.662 66.6297 31.3808C66.6297 31.914 66.835 32.4255 67.2001 32.8026C67.5664 33.1797 68.062 33.3915 68.5792 33.3915C69.0963 33.3915 69.5919 33.1797 69.9569 32.8026C70.3233 32.4255 70.5286 31.914 70.5286 31.3808C70.5286 27.6255 67.6716 24.8929 63.7144 24.8929H63.6143C59.6571 24.8929 56.8002 27.6255 56.8002 31.3808C56.8002 31.914 57.0055 32.4255 57.3705 32.8026C57.7368 33.1797 58.2325 33.3915 58.7496 33.3915Z" fill="#F26822"/>
<path d="M68.5726 43.1975C68.0558 43.202 67.5617 43.4163 67.1969 43.7939C66.832 44.1714 66.6268 44.682 66.6243 45.2148C66.6243 46.9317 65.1675 47.6786 63.7106 47.6786H63.6105C62.1537 47.6786 60.6969 46.9232 60.6969 45.2148C60.6969 44.682 60.4916 44.1712 60.1255 43.7944C59.7607 43.4177 59.2654 43.2061 58.7485 43.2061C58.2317 43.2061 57.7364 43.4177 57.3702 43.7944C57.0054 44.1712 56.8002 44.682 56.8002 45.2148C56.8002 48.9662 59.6556 51.696 63.6105 51.696H63.7106C67.6656 51.696 70.5286 48.9662 70.5286 45.2148C70.5286 44.6798 70.3234 44.1666 69.956 43.7883C69.5886 43.41 69.092 43.1975 68.5726 43.1975Z" fill="#F26822"/>
<path d="M60.7226 43.1637V32.7887C60.4646 33.053 60.1574 33.2618 59.8185 33.4028C59.4796 33.5436 59.1167 33.6138 58.7512 33.6091C58.3845 33.6043 58.0242 33.5247 57.6891 33.3751C57.354 33.2254 57.0518 33.0088 56.8002 32.7378V43.1975C57.0569 42.9272 57.3642 42.7126 57.7043 42.5669C58.0444 42.4212 58.4099 42.3475 58.7778 42.35C59.5036 42.3594 60.1991 42.6503 60.7226 43.1637Z" fill="#F26822"/>
<path d="M92.0558 33.3915C92.5714 33.387 93.0641 33.1737 93.4289 32.7975C93.7924 32.4215 93.9989 31.9126 94.004 31.3808C94.004 29.662 95.4607 28.9145 96.9174 28.9145H97.0504C98.5071 28.9145 99.965 29.662 99.965 31.3808C99.9967 31.8924 100.217 32.3722 100.579 32.7228C100.942 33.0733 101.42 33.2684 101.917 33.2684C102.414 33.2684 102.891 33.0733 103.255 32.7228C103.617 32.3722 103.836 31.8924 103.869 31.3808C103.869 27.6255 101.005 24.8929 97.0504 24.8929H96.9503C92.997 24.8929 90.1406 27.6255 90.1406 31.3808C90.1456 31.9068 90.347 32.4106 90.7043 32.7857C91.0615 33.1609 91.5466 33.3782 92.0558 33.3915Z" fill="#F26822"/>
<path d="M93.6472 33.8867C93.3203 34.0817 92.9537 34.2034 92.5744 34.2433C92.1939 34.283 91.8094 34.24 91.448 34.1171L99.2282 44.505C99.2729 44.1292 99.4019 43.7679 99.6062 43.4474C99.8118 43.127 100.086 42.8554 100.412 42.6529C100.733 42.4661 101.089 42.3468 101.459 42.3029C101.83 42.259 102.204 42.2912 102.561 42.3977L94.7966 32.084C94.7545 32.4494 94.6293 32.801 94.4301 33.1129C94.2309 33.4247 93.9639 33.6891 93.6472 33.8867Z" fill="#F26822"/>
<path d="M101.914 43.1975C101.396 43.202 100.901 43.416 100.536 43.7934C100.171 44.1706 99.9634 44.6813 99.9583 45.2148C99.9583 46.9317 98.5024 47.6786 97.0554 47.6786H96.9465C95.4906 47.6786 94.0348 46.9232 94.0348 45.2148C94.0348 44.6821 93.8297 44.1712 93.4651 43.7945C93.0992 43.4178 92.6042 43.2061 92.0877 43.2061C91.5712 43.2061 91.0762 43.4178 90.7115 43.7945C90.3457 44.1712 90.1406 44.6821 90.1406 45.2148C90.1406 48.9663 92.9941 51.696 96.9465 51.696H97.063C101.007 51.696 103.869 48.9663 103.869 45.2148C103.87 44.9496 103.821 44.6868 103.722 44.4415C103.625 44.1963 103.48 43.9734 103.299 43.7858C103.117 43.5983 102.902 43.4498 102.664 43.3488C102.426 43.2479 102.171 43.1964 101.914 43.1975Z" fill="#F26822"/>
<path d="M43.1423 43.1978C42.6255 43.2023 42.1315 43.4165 41.7667 43.7942C41.4019 44.1718 41.1968 44.6823 41.1942 45.215C41.1942 46.9319 39.7376 47.6787 38.281 47.6787H38.1733C36.7243 47.6787 35.2424 46.8975 35.2424 45.215C35.2386 44.6815 35.0309 44.171 34.6648 43.7936C34.2988 43.4163 33.8035 43.2023 33.2868 43.1978C33.0271 43.1933 32.77 43.2421 32.5293 43.3415C32.2874 43.441 32.0695 43.589 31.8846 43.7769C31.6997 43.9647 31.554 44.1888 31.454 44.4357C31.3552 44.6826 31.3045 44.9476 31.3045 45.215C31.3045 48.9663 34.1683 51.696 38.1151 51.696H38.2227C42.1682 51.696 45.0321 48.9663 45.0321 45.215C45.0397 44.9537 44.9966 44.6935 44.9054 44.4497C44.8142 44.2058 44.6761 43.9833 44.5001 43.7952C44.324 43.6072 44.1125 43.4575 43.8794 43.3549C43.6464 43.2522 43.3956 43.1988 43.1423 43.1978Z" fill="#F26822"/>
<path d="M43.0717 24.8929C42.5527 24.8973 42.0567 25.1034 41.6895 25.467C41.3235 25.8304 41.1156 26.3222 41.1105 26.8363V43.1975C41.3605 42.932 41.6626 42.7193 41.998 42.5724C42.3334 42.4255 42.6943 42.3474 43.0615 42.3428C43.4275 42.3381 43.7909 42.407 44.1301 42.5453C44.4693 42.6837 44.7753 42.8885 45.0328 43.1476V26.853C45.0354 26.5964 44.9857 26.3419 44.8888 26.1042C44.7906 25.8664 44.6465 25.6503 44.4642 25.468C44.2818 25.2858 44.065 25.1412 43.8266 25.0424C43.5869 24.9437 43.3305 24.8929 43.0717 24.8929Z" fill="#F26822"/>
<path d="M35.2269 43.1477V26.8512C35.2269 26.3319 35.0208 25.8337 34.6529 25.4665C34.2849 25.0993 33.7867 24.8929 33.2657 24.8929C32.746 24.8929 32.2466 25.0993 31.8799 25.4665C31.5119 25.8337 31.3045 26.3319 31.3045 26.8512V43.1975C31.5612 42.9341 31.8672 42.725 32.2048 42.5825C32.5437 42.44 32.9066 42.3669 33.2746 42.3678C34.0017 42.3645 34.7021 42.6442 35.2269 43.1477Z" fill="#F26822"/>
<path d="M53.5315 34.1258V26.7424C53.4997 26.2411 53.2782 25.771 52.9142 25.4276C52.5502 25.0841 52.0691 24.8929 51.5703 24.8929C51.0714 24.8929 50.5903 25.0841 50.2263 25.4276C49.8623 25.771 49.6409 26.2411 49.6091 26.7424V42.5447V49.7176C49.6116 50.2402 49.8178 50.7409 50.1843 51.1112C50.5508 51.4815 51.0472 51.6916 51.5664 51.696C52.0857 51.6938 52.5833 51.4859 52.9511 51.1171C53.3189 50.7484 53.5277 50.2486 53.5315 49.726V42.3005V34.1258Z" fill="#F26822"/>
<path d="M128.711 34.151V26.7424C128.678 26.2411 128.458 25.771 128.094 25.4276C127.728 25.0841 127.249 24.8929 126.75 24.8929C126.251 24.8929 125.77 25.0841 125.406 25.4276C125.042 25.771 124.82 26.2411 124.788 26.7424V42.5447V49.7176C124.79 50.2417 124.998 50.7436 125.366 51.1141C125.734 51.4847 126.233 51.6938 126.753 51.696C127.271 51.6916 127.767 51.4826 128.133 51.1142C128.498 50.7457 128.707 50.2471 128.711 49.726V42.3005V34.151Z" fill="#F26822"/>
<path d="M135.902 36.8903L135.117 35.2651L134.141 33.274L131.98 28.8154V42.4298V49.6794C131.978 49.9438 132.028 50.2058 132.127 50.4505C132.226 50.6951 132.371 50.9175 132.553 51.1048C132.736 51.2922 132.953 51.4409 133.193 51.5424C133.432 51.6438 133.69 51.696 133.949 51.696C134.466 51.6916 134.96 51.4804 135.325 51.1079C135.69 50.7355 135.897 50.2316 135.902 49.7048V42.2V36.8903Z" fill="#F26822"/>
<path d="M143.236 41.0534L139.331 33.238L138.405 31.3741L135.767 26.1666C135.674 25.9114 135.527 25.6787 135.337 25.4834C135.147 25.288 134.916 25.1346 134.662 25.0332C134.407 24.9316 134.134 24.8843 133.859 24.8943C133.585 24.9042 133.316 24.9713 133.07 25.091C132.824 25.2106 132.606 25.3803 132.43 25.5889C132.255 25.7975 132.126 26.0403 132.052 26.3014C131.978 26.5627 131.96 26.8364 132.001 27.1047C132.041 27.373 132.138 27.6301 132.285 27.8588L134.865 33.0336L135.792 34.9548L139.828 42.9663L143.26 49.8335C143.48 50.3216 143.884 50.7049 144.387 50.9006C144.891 51.0965 145.451 51.089 145.948 50.8799C146.422 50.6238 146.774 50.1936 146.929 49.6826C147.084 49.1714 147.029 48.6205 146.775 48.1494L143.236 41.0534Z" fill="#F26822"/>
<path d="M147.015 42.0071V26.8165C147.015 26.3063 146.809 25.8171 146.442 25.4564C146.073 25.0957 145.574 24.8929 145.054 24.8929C144.534 24.8929 144.035 25.0957 143.668 25.4564C143.3 25.8171 143.093 26.3063 143.093 26.8165V39.3191L143.822 40.7823L147.015 47.1199V42.0071Z" fill="#F26822"/>
<path d="M77.3388 35.5422L73.9548 40.3936C73.7759 40.8207 73.7476 41.296 73.8789 41.7405C74.0089 42.1849 74.2895 42.5714 74.6731 42.8356C75.0554 43.0999 75.5187 43.2258 75.9834 43.1922C76.4494 43.1586 76.8883 42.9678 77.2294 42.6516L80.7228 37.6154L84.5471 32.084L85.4777 30.7495L88.0147 27.0562C88.2001 26.6279 88.2297 26.1495 88.0997 25.702C87.9697 25.2544 87.6878 24.865 87.3016 24.5997C86.9155 24.3343 86.4495 24.2091 85.9823 24.2454C85.5137 24.2816 85.0722 24.4769 84.7324 24.7984L82.1954 28.4663L81.2647 29.801L77.3054 35.517L77.3388 35.5422Z" fill="#F26822"/>
<path d="M86.2986 44.929L83.7367 40.1096L83.1222 38.9393L82.2687 37.3139L81.5256 38.3541L79.6808 40.8898L80.2187 41.8812L82.8832 46.855L85.18 51.0974C85.5217 51.7314 86.6143 51.9101 87.5795 51.3981C88.5603 50.9186 89.0735 50.0002 88.7227 49.3663L86.2986 44.929Z" fill="#F26822"/>
<path d="M77.7196 33.7373V26.8149C77.7196 26.3052 77.5136 25.8164 77.1456 25.4559C76.7776 25.0955 76.2781 24.8929 75.7584 24.8929C75.2387 24.8929 74.7393 25.0955 74.3713 25.4559C74.0034 25.8164 73.7972 26.3052 73.7972 26.8149V39.2751L76.7308 35.1054L77.7196 33.7373Z" fill="#F26822"/>
<path d="M74.3252 43.6224C74.1377 43.4936 73.9617 43.3516 73.7972 43.1975V49.1932C73.7985 49.6816 74.0064 50.1496 74.3736 50.4956C74.7409 50.8418 75.2382 51.0382 75.7585 51.0423C76.2787 51.0382 76.776 50.8418 77.1433 50.4956C77.5092 50.1496 77.7171 49.6816 77.7196 49.1932V43.4729C77.4939 43.6877 77.2249 43.857 76.9291 43.9706C76.6319 44.0842 76.3131 44.1399 75.9931 44.1339C75.395 44.1199 74.8161 43.9421 74.3252 43.6224Z" fill="#F26822"/>
<path d="M115.599 24.8929H108.318C108.054 24.9016 107.797 24.9613 107.561 25.0685C107.324 25.1756 107.113 25.3278 106.942 25.5155C106.771 25.703 106.644 25.922 106.567 26.1586C106.49 26.3951 106.466 26.6439 106.497 26.8895C106.466 27.135 106.49 27.3839 106.567 27.6204C106.644 27.8569 106.771 28.0758 106.942 28.2634C107.113 28.4511 107.324 28.6032 107.561 28.7105C107.797 28.8176 108.054 28.8774 108.318 28.886H115.077C116.536 28.9942 117.172 30.891 117.172 32.5298V32.6795C117.172 34.3433 116.509 36.4729 115.077 36.5811H108.318C108.054 36.5898 107.797 36.6496 107.561 36.7568C107.324 36.8639 107.113 37.016 106.942 37.2037C106.771 37.3913 106.644 37.6102 106.567 37.8467C106.49 38.0833 106.466 38.3322 106.497 38.5778C106.466 38.8236 106.49 39.073 106.566 39.31C106.642 39.5468 106.77 39.7664 106.942 39.9546C107.113 40.1429 107.323 40.2959 107.559 40.4039C107.796 40.512 108.054 40.5728 108.318 40.5825H115.626C115.626 40.5825 115.626 40.5826 115.626 40.5244C118.692 40.1417 120.866 36.9472 120.866 32.6545V32.5464C120.866 28.2122 118.692 25.2839 115.599 24.8929Z" fill="#F26822"/>
<path d="M111.06 41.2955H108.854C108.534 41.2969 108.219 41.2346 107.925 41.1122C107.629 40.9899 107.362 40.8098 107.138 40.5826V42.5788V49.725C107.14 50.2456 107.346 50.7445 107.711 51.1133C108.076 51.4823 108.57 51.6916 109.087 51.6961C109.603 51.6916 110.096 51.4835 110.459 51.1163C110.824 50.7493 111.031 50.2526 111.036 49.7333V42.3356V41.2955H111.06Z" fill="#F26822"/>
<path d="M111.06 35.3513V29.4866H108.854C108.536 29.4894 108.22 29.4316 107.925 29.3163C107.631 29.2011 107.363 29.0309 107.138 28.8154V36.0064C107.361 35.7885 107.628 35.6165 107.923 35.5011C108.219 35.3856 108.534 35.3293 108.854 35.3353L111.06 35.3513Z" fill="#F26822"/>
</svg>
