<svg width="160" height="80" viewBox="0 0 160 80" fill="none" xmlns="http://www.w3.org/2000/svg">
<path d="M159.968 39.9457H159.936C159.936 39.9136 159.936 39.8492 159.936 39.8171C159.936 39.7849 159.936 39.7206 159.936 39.6884H159.968C159.968 38.0161 159.968 36.3759 159.968 34.7035C159.968 33.0312 160.032 31.391 159.968 29.7186C159.904 27.5317 159.325 25.8593 158.199 24.6693C156.913 23.1256 154.951 22.2894 152.185 22.1286C149.869 22.0643 147.522 22 145.206 22C145.077 22 144.949 22 144.788 22C142.633 22 140.478 22.0643 138.356 22.193C135.59 22.3538 133.596 23.1578 132.277 24.6693C131.184 25.795 130.605 27.3387 130.541 29.3005C130.541 29.3648 130.541 29.4613 130.541 29.5256C130.509 29.7829 130.509 30.008 130.509 30.2975C130.444 33.1276 130.412 35.9899 130.412 38.8201C130.412 39.1417 130.412 39.4955 130.412 39.8171C130.412 40.1387 130.412 40.4925 130.412 40.8141C130.412 43.6442 130.444 46.5065 130.509 49.3367C130.509 49.594 130.541 49.8513 130.541 50.1085C130.541 50.1729 130.541 50.2693 130.541 50.3337C130.573 52.2955 131.184 53.8392 132.277 54.9648C133.564 56.4764 135.558 57.2804 138.356 57.4412C140.511 57.5698 142.633 57.6342 144.788 57.6342C144.917 57.6342 145.045 57.6342 145.206 57.6342C147.522 57.6342 149.869 57.5699 152.185 57.4734C154.951 57.3447 156.945 56.4764 158.199 54.9327C159.325 53.7749 159.871 52.1025 159.968 49.8834C160.032 48.2111 159.968 46.5709 159.968 44.8985C159.968 43.2905 159.968 41.6181 159.968 39.9457ZM147.425 40.0744C147.393 40.0744 147.393 40.0744 147.361 40.0744C147.361 43.5156 147.361 46.9889 147.361 50.4302C147.361 50.6231 147.329 50.8161 147.329 51.009C147.2 52.199 146.46 53.003 145.174 52.9387C143.92 52.8744 143.276 52.1025 143.18 50.8482C143.18 50.591 143.148 50.3658 143.148 50.1085C143.148 47.3427 143.148 44.609 143.148 41.8432C143.148 41.1678 143.148 40.4925 143.148 39.8492C143.148 39.1739 143.148 38.4985 143.148 37.8553C143.148 35.0894 143.148 32.3558 143.148 29.5899C143.148 29.3327 143.18 29.1075 143.18 28.8503C143.244 27.596 143.92 26.8241 145.174 26.7598C146.46 26.6955 147.2 27.5317 147.329 28.6894C147.361 28.8824 147.361 29.0754 147.361 29.2683C147.361 32.7095 147.361 36.1829 147.361 39.6241C147.393 39.6241 147.393 39.6241 147.425 39.6241C147.425 39.6884 147.425 39.7849 147.425 39.8492C147.425 39.9136 147.425 39.9779 147.425 40.0744Z" fill="white"/>
<path d="M109.765 57.5377C105.455 57.5377 101.339 57.5377 97.0935 57.5377C96 45.7669 94.9387 34.0603 93.8452 22.2573C98.1548 22.2573 102.207 22.2573 106.517 22.2573C107.578 33.9639 108.671 45.6382 109.765 57.5377Z" fill="white"/>
<path d="M111.502 57.5377C115.811 57.5377 119.928 57.5377 124.173 57.5377C125.266 45.7669 126.328 34.0603 127.421 22.2573C123.112 22.2573 119.059 22.2573 114.75 22.2573C113.656 33.9639 112.595 45.6382 111.502 57.5377Z" fill="white"/>
<path d="M34.4121 57.6343C34.4121 54.9007 34.3799 52.3278 34.4764 49.7871C34.4764 49.4655 35.1518 48.8544 35.5377 48.8544C43.1276 48.8223 50.7498 48.8544 58.3397 48.8223C59.2724 48.8223 59.5618 49.2404 59.5618 50.0765C59.5297 52.2313 59.5297 54.3539 59.5618 56.5087C59.5618 57.3127 59.2724 57.6665 58.4362 57.6665C50.4603 57.6343 42.5488 57.6343 34.4121 57.6343Z" fill="white"/>
<path d="M28.1407 43.8373C26.7899 41.8754 24.8925 40.6855 22.4161 39.9458C22.995 39.785 23.3487 39.6885 23.7025 39.592C27.1759 38.788 29.0734 36.9227 29.4915 33.4172C29.7166 31.4875 29.5558 29.4614 29.2985 27.5317C28.9769 25.0553 27.401 23.4473 25.0211 22.8684C23.3166 22.4503 21.5477 22.193 19.7789 22.193C13.9899 22.1287 8.16884 22.1609 2.34774 22.1609H0V22.8041V53.5177V57.6021H0.0964824H2.41206H12.6392V55.6724C12.6392 47.2141 12.6714 38.7558 12.6714 30.2976C12.6714 29.8151 12.6392 29.3327 12.7357 28.8503C12.9608 27.6925 13.5719 26.8242 14.8583 26.8242C16.209 26.8242 16.8201 27.7569 16.9809 29.0111C17.0452 29.4292 16.9809 29.8795 16.9809 30.2976C16.9809 37.2121 16.9809 44.1267 16.9809 51.0413V57.6342H29.7166C29.7166 55.1257 29.6844 52.7458 29.7166 50.3337C29.7487 47.986 29.4915 45.7991 28.1407 43.8373Z" fill="white"/>
<path d="M59.4975 48.8223H34.3799V57.6343H59.4975V48.8223Z" fill="white"/>
<path d="M89.2462 22.2573H64.1286V31.0694H89.2462V22.2573Z" fill="white"/>
<path d="M58.5005 22.2573H57.5678C57.0854 22.2573 56.6352 22.2895 56.1528 22.2895C54.9628 22.2895 53.805 22.2895 52.6151 22.2895C51.8754 22.2895 51.1357 22.2895 50.4281 22.2895H43.5136H34.3799V31.3267V31.6483C34.3799 32.9347 34.3799 34.2211 34.3799 35.5076V44.5769H35.409C35.5055 44.5769 35.5698 44.5769 35.6663 44.5769C38.9146 44.5769 42.195 44.5769 45.4432 44.5769H58.6291H59.5296V43.8051V36.5046V35.5397H58.404C58.3397 35.5397 58.3075 35.5397 58.2432 35.5397C58.1146 35.5397 57.9859 35.5397 57.8251 35.5397C57.7286 35.5397 57.6643 35.5397 57.5678 35.5397C55.1879 35.6041 52.808 35.5397 50.4281 35.5397H43.5136V31.3267H45.4111H55.5095C56.3136 31.3267 57.1497 31.3267 57.9538 31.3588C58.1146 31.3588 58.2754 31.3588 58.404 31.3267H59.4975V30.4262V22.997V22.2573H58.5005Z" fill="white"/>
<path d="M88.2492 35.2826H87.3487C86.8663 35.2826 86.4161 35.3148 85.9337 35.3148C84.7437 35.3148 83.5859 35.3148 82.396 35.3148C81.6563 35.3148 80.9166 35.3148 80.209 35.3148H73.2945H64.1608V44.3842V44.7058C64.1608 45.9922 64.1608 47.2786 64.1608 48.5651V57.6344H65.1899C65.2864 57.6344 65.3507 57.6344 65.4472 57.6344C68.6955 57.6344 71.9759 57.6344 75.2241 57.6344H88.41H89.3106V56.8625V49.5299V48.5651H88.1849C88.1206 48.5651 88.0884 48.5651 88.0241 48.5651C87.8955 48.5651 87.7668 48.5651 87.606 48.5651C87.5095 48.5651 87.4452 48.5651 87.3487 48.5651C84.9688 48.6294 82.5889 48.5651 80.209 48.5651H73.2945V44.352H75.192H85.2905C86.0945 44.352 86.9306 44.352 87.7347 44.3842C87.8955 44.3842 88.0563 44.3842 88.1849 44.352H89.2784V43.4515V35.9902V35.2505H88.2492V35.2826Z" fill="white"/>
</svg>
