<svg width="160" height="80" viewBox="0 0 160 80" fill="none" xmlns="http://www.w3.org/2000/svg">
<g clip-path="url(#clip0)">
<path d="M44.7311 16.2715C44.7311 16.2087 44.7803 16.1782 44.8176 16.1375C44.8584 16.0933 44.9093 16.0594 44.9364 16.0017C44.9704 16.0017 45.0043 16.0017 45.0383 16.0017C45.0383 24.5916 45.0383 33.1814 45.0366 41.7713C45.0366 41.8476 45.0671 41.9308 45.0043 41.9987C44.9534 41.9511 44.9534 41.8884 44.95 41.8256C44.9466 41.7407 44.9483 41.6559 44.9483 41.571C44.9483 33.1933 44.9483 24.8139 44.9483 16.4361C44.9483 16.3632 44.9602 16.2885 44.9347 16.2155C44.855 16.2002 44.8108 16.3038 44.7311 16.2715Z" fill="#FFFFFB"/>
<path d="M0.0627864 16.0423C0.0678771 16.0508 0.0695741 16.0593 0.0695741 16.0695C0.0865434 16.1645 0.0899372 16.2595 0.0899372 16.3563C0.0899372 24.7476 0.0899372 33.1389 0.0899372 41.5302C0.0899372 41.6948 0.0899372 41.8577 0.113694 42.0206C0.125573 42.1089 0.139148 42.2022 0.0661802 42.2769C0.0322416 42.248 0.0458171 42.1903 0 42.1699C0 33.4596 0 24.7476 0 16.0372C0.023757 16.0186 0.0441201 16.0135 0.0627864 16.0423Z" fill="#FCD60F"/>
<path d="M0.0621653 16.043C0.0418022 16.0413 0.021439 16.0396 -0.000621053 16.0379C-0.00571184 15.9717 0.045196 16.0175 0.0672561 16.004C0.0655592 16.0175 0.0638622 16.0294 0.0621653 16.043Z" fill="#FEEFA3"/>
<path d="M0.103702 16.1052C0.0918233 16.0933 0.0816417 16.0815 0.0697632 16.0696C0.0884294 16.073 0.100308 16.0849 0.103702 16.1052Z" fill="#FCD60F"/>
<path d="M0.0661551 42.2515C0.0933059 42.0648 0.0322165 41.8833 0.0322165 41.6966C0.0339134 33.2204 0.0339134 24.746 0.0356103 16.2698C0.0356103 16.1951 0.00506562 16.1103 0.0695489 16.0441C0.0763366 16.0594 0.091609 16.0679 0.103487 16.0798C0.262999 16.2155 0.398753 16.375 0.542992 16.526C2.25859 18.3044 3.97249 20.0845 5.68808 21.8629C7.44949 23.6922 9.2109 25.5215 10.9723 27.3508C10.9961 27.3745 11.0215 27.3983 11.0419 27.4237C11.0911 27.4848 11.1403 27.495 11.2184 27.4628C12.8932 26.745 14.6428 26.2766 16.4262 25.9338C17.2306 25.7794 18.0417 25.6657 18.8562 25.5758C20.3207 25.4146 21.7885 25.3653 23.2598 25.3908C24.1693 25.4078 25.0789 25.457 25.985 25.5537C28.3641 25.8066 30.6923 26.2936 32.9441 27.1166C33.2191 27.2167 33.4906 27.3338 33.7621 27.4441C33.9029 27.5018 33.9029 27.5052 34.0064 27.3966C34.6428 26.7365 35.2774 26.0764 35.9138 25.418C37.7227 23.5395 39.5299 21.6627 41.3389 19.7842C42.4419 18.6387 43.5432 17.495 44.6462 16.3496C44.6767 16.3173 44.7039 16.2817 44.7327 16.2461C44.8125 16.1714 44.8939 16.0967 44.9991 16C44.9991 16.0933 44.9991 16.1527 44.9991 16.2121C44.9991 24.7375 44.9991 33.2629 44.9991 41.7882C44.9991 41.851 45.0025 41.9121 45.0042 41.9749C44.9296 42.7283 44.619 43.3986 44.261 44.0502C43.7298 45.0192 43.0935 45.9202 42.43 46.801C41.3439 48.2433 40.1765 49.6179 38.9988 50.9839C37.9009 52.2549 36.7775 53.5038 35.6983 54.7901C35.0432 55.5707 34.4273 56.3801 33.7994 57.1811C33.1495 58.0092 32.4843 58.822 31.7393 59.5669C30.2681 61.0365 28.5067 61.9562 26.4772 62.3737C25.5218 62.5705 24.5579 62.674 23.5856 62.7181C22.788 62.7538 21.9905 62.7504 21.1946 62.708C19.8065 62.6333 18.4405 62.4331 17.1203 61.9817C15.5286 61.437 14.1863 60.5172 13.029 59.3073C12.3248 58.5709 11.6833 57.7801 11.0639 56.9723C9.92701 55.4909 8.72558 54.0655 7.49191 52.6638C6.08346 51.0636 4.6801 49.4583 3.3565 47.7869C2.52161 46.7314 1.71218 45.6572 1.01983 44.4999C0.690625 43.9518 0.391965 43.3884 0.190031 42.7775C0.130638 42.6061 0.0712458 42.4348 0.0661551 42.2515Z" fill="#FAD205"/>
<path d="M26.8131 49.4429C27.8618 48.6182 28.9105 47.7918 29.9592 46.9671C32.586 44.9019 35.2146 42.8368 37.8414 40.7716C38.0586 40.6019 38.2741 40.4322 38.51 40.2761C38.4777 40.3321 38.4472 40.3898 38.4133 40.4458C37.0184 42.7536 35.6218 45.0597 34.2303 47.3692C34.1709 47.4677 34.0946 47.5084 33.9945 47.5372C31.875 48.1142 29.7555 48.6928 27.6344 49.2698C27.3731 49.3411 27.11 49.4089 26.8487 49.4802C26.8148 49.4904 26.8063 49.4751 26.8131 49.4429Z" fill="black"/>
<path d="M18.1556 49.4768C17.5939 49.3258 17.0322 49.1764 16.4705 49.0237C14.6565 48.5299 12.8408 48.0344 11.0268 47.5406C10.925 47.5134 10.8486 47.4744 10.7892 47.3743C9.38924 45.0495 7.98419 42.7281 6.58083 40.4067C6.56895 40.388 6.55877 40.3676 6.54689 40.3473C6.53671 40.3116 6.55198 40.3015 6.58422 40.3099C8.23364 41.6047 9.88305 42.8995 11.5308 44.1942C13.411 45.6706 15.2895 47.1486 17.1697 48.6266C17.5107 48.8947 17.8518 49.1662 18.1929 49.4361C18.2014 49.47 18.1929 49.487 18.1556 49.4768Z" fill="black"/>
<path d="M6.58582 40.3356C6.57395 40.3475 6.56037 40.3611 6.54849 40.373C6.51286 40.3526 6.50607 40.3187 6.49249 40.283C6.54849 40.2712 6.56716 40.3034 6.58582 40.3356Z" fill="#FDEC92"/>
<path d="M18.1556 49.5024C18.1692 49.4889 18.181 49.477 18.1946 49.4634C18.2252 49.4736 18.2523 49.4889 18.2676 49.5228C18.2235 49.5466 18.1878 49.5313 18.1556 49.5024Z" fill="#FEF4BE"/>
<path d="M26.8131 49.4685C26.825 49.4821 26.8385 49.494 26.8504 49.5075C26.847 49.5109 26.8436 49.516 26.8402 49.5194C26.8131 49.5347 26.7774 49.5551 26.7622 49.5177C26.752 49.4923 26.7876 49.477 26.8131 49.4685Z" fill="#FEEFA0"/>
<path d="M160.003 34.224C159.74 34.2799 159.472 34.248 159.209 34.248C158.079 34.252 156.95 34.248 155.816 34.252C155.449 34.252 155.445 34.256 155.445 34.6232C155.445 38.0954 155.445 41.5637 155.445 45.0359C155.445 46.8958 155.445 48.7596 155.445 50.6195C155.445 50.7113 155.441 50.807 155.445 50.8988C155.457 51.0625 155.401 51.1543 155.222 51.1383C155.154 51.1343 155.09 51.1383 155.022 51.1383C152.987 51.1383 150.951 51.1383 148.92 51.1383C148.852 51.1383 148.788 51.1343 148.72 51.1383C148.557 51.1503 148.469 51.0904 148.477 50.9148C148.481 50.807 148.477 50.7033 148.477 50.5955C148.477 45.3153 148.477 40.0351 148.477 34.7589C148.477 34.1961 148.517 34.252 147.954 34.252C146.689 34.252 145.428 34.252 144.162 34.252C144.055 34.252 143.951 34.252 143.843 34.248C143.747 34.244 143.699 34.1921 143.695 34.0963C143.691 34.0165 143.691 33.9367 143.691 33.8569C143.691 31.7975 143.691 29.7341 143.691 27.6747C143.691 27.2835 143.695 27.2795 144.079 27.2795C149.383 27.2795 154.691 27.2795 159.995 27.2795C160.003 29.5944 160.003 31.9092 160.003 34.224Z" fill="#FCD405"/>
<path d="M53.9997 27.3591C55.4604 27.3631 56.9212 27.3671 58.3859 27.3671C60.2856 27.3671 62.1854 27.3671 64.0851 27.3671C64.2687 27.3671 64.4603 27.3352 64.6319 27.431C64.4324 27.6225 64.1809 27.5627 63.9494 27.5627C61 27.5667 58.0466 27.5667 55.0972 27.5667C55.0054 27.5667 54.9097 27.5667 54.8179 27.5667C54.2192 27.5707 54.2072 27.5746 54.2072 28.1573C54.2072 35.5488 54.2072 42.9363 54.2072 50.3277C54.2072 50.9184 54.2232 50.9344 54.8059 50.9344C56.5859 50.9344 58.3659 50.9344 60.1499 50.9384C60.3694 50.9384 60.6089 50.8905 60.7965 51.0701C60.6807 51.2058 60.5211 51.1379 60.3854 51.1379C58.3899 51.1419 56.3943 51.1419 54.3988 51.1419C54.2671 51.1419 54.1314 51.1459 53.9997 51.1459C53.9997 43.2157 53.9997 35.2894 53.9997 27.3591Z" fill="#FCD60F"/>
<path d="M121.608 27.2759C123.005 27.2759 124.402 27.2759 125.799 27.2759C126.158 27.2759 126.162 27.2799 126.162 27.651C126.162 29.3792 126.162 31.1113 126.162 32.8394C126.162 33.2106 126.158 33.2106 125.791 33.2106C124.035 33.2106 122.279 33.2305 120.523 33.1986C120.044 33.1906 119.709 33.3583 119.405 33.6855C118.471 34.6993 117.797 35.8646 117.358 37.1657C117.039 38.1076 116.875 39.0655 116.947 40.0672C117.055 41.5759 117.633 42.8969 118.515 44.0982C118.831 44.5293 119.194 44.9164 119.589 45.2756C119.816 45.4831 120.06 45.5749 120.379 45.5749C122.107 45.559 123.839 45.5669 125.568 45.5669C125.635 45.5669 125.699 45.5669 125.767 45.5669C126.17 45.5669 126.158 45.539 126.158 45.9581C126.158 47.5665 126.158 49.1789 126.158 50.7873C126.158 51.1385 126.154 51.1425 125.811 51.1425C123.017 51.1425 120.224 51.1425 117.43 51.1425C117.019 51.1425 116.644 51.0307 116.284 50.8431C115.805 50.5957 115.386 50.2684 115.011 49.8933C113.574 48.4525 112.437 46.8201 111.758 44.8845C111.403 43.8667 111.06 42.849 110.896 41.7794C110.573 39.6442 110.713 37.5529 111.351 35.4735C112.01 33.3423 112.936 31.3587 114.269 29.5707C114.716 28.9721 115.199 28.4053 115.785 27.9384C116.332 27.4994 116.927 27.2519 117.653 27.2719C118.974 27.2998 120.291 27.2759 121.608 27.2759Z" fill="#FCD405"/>
<path d="M71.6478 50.7869C71.3126 50.0047 70.9733 49.2264 70.6421 48.4402C69.8199 46.4925 68.9898 44.5489 68.2634 42.5653C68.1716 42.3099 68.1876 42.1462 68.3751 41.9307C69.6363 40.486 70.5064 38.8297 71.0492 36.9898C71.5121 35.4253 71.3525 33.9526 70.5263 32.5357C69.768 31.2346 68.8341 30.0892 67.7046 29.0994C67.1219 28.5886 66.4993 28.1336 65.8009 27.7983C65.4297 27.6187 65.0546 27.4431 64.6315 27.4312C64.4719 27.4351 64.3122 27.4391 64.1526 27.4391C60.9597 27.4391 57.7669 27.4391 54.578 27.4391C54.0472 27.4391 54.0791 27.4072 54.0791 27.938C54.0791 35.4811 54.0791 43.0203 54.0791 50.5634C54.0791 51.0902 54.0392 51.0663 54.57 51.0663C56.6454 51.0663 58.7207 51.0703 60.7961 51.0703C60.8759 50.9346 60.836 50.7829 60.836 50.6432C60.84 48.4881 60.836 46.3329 60.84 44.1777C60.84 44.0699 60.84 43.9662 60.844 43.8584C60.848 43.8065 60.8639 43.7467 60.9238 43.7387C61.1513 43.7147 61.3748 43.7826 61.5943 43.8185C61.73 43.8425 61.734 44.0021 61.7819 44.1059C62.7637 46.3608 63.8054 48.5878 64.8351 50.8188C64.9468 51.0623 65.0745 51.1461 65.3419 51.1421C67.3774 51.1302 69.4128 51.1341 71.4483 51.1341C71.548 51.1341 71.6518 51.1581 71.7396 51.1062C71.7516 50.9745 71.6877 50.8827 71.6478 50.7869ZM63.989 37.4368C63.5619 38.1113 62.9672 38.6221 62.3247 39.0811C61.8737 39.4044 61.4027 39.6997 60.8919 39.9432C60.816 39.576 60.82 33.4457 60.8879 33.1144C60.9278 33.1104 60.9677 33.0985 61.0036 33.1105C62.0134 33.3659 62.9353 33.7889 63.6816 34.5353C64.5357 35.3814 64.6355 36.4191 63.989 37.4368Z" fill="#FCD405"/>
<path d="M110.142 44.3015C109.95 43.4355 109.507 42.7011 108.989 42.0027C108.506 41.3481 107.935 40.7694 107.388 40.1708C107.113 39.8674 107.105 39.6679 107.332 39.3246C107.576 38.9615 107.827 38.5983 108.055 38.2271C108.597 37.3411 109.064 36.4191 109.4 35.4333C109.719 34.4954 109.643 33.6214 109.192 32.7394C108.538 31.4662 107.755 30.2848 106.805 29.2152C106.291 28.6365 105.736 28.1017 105.073 27.6906C104.622 27.4113 104.143 27.2676 103.605 27.2676C100.627 27.2796 97.6459 27.2716 94.6686 27.2756C94.1777 27.2756 94.2176 27.2237 94.2176 27.7226C94.2176 31.554 94.2176 35.3815 94.2176 39.2129C94.2176 40.4621 94.2176 41.7113 94.2176 42.9645C94.2176 45.5707 94.2176 48.1769 94.2176 50.7831C94.2176 51.1343 94.2216 51.1343 94.5648 51.1383C94.6326 51.1383 94.6965 51.1383 94.7644 51.1383C97.622 51.1383 100.484 51.1223 103.341 51.1502C104.131 51.1582 104.834 50.9547 105.496 50.5556C106.67 49.8491 107.667 48.9352 108.577 47.9214C109.108 47.3268 109.587 46.6882 109.95 45.9698C110.226 45.431 110.27 44.8802 110.142 44.3015ZM100.511 33.3939C100.515 33.0906 100.551 33.0586 100.835 33.1784C101.673 33.5416 102.268 34.1642 102.663 34.9784C102.778 35.2178 102.762 35.4693 102.639 35.7087C102.24 36.483 101.637 37.0338 100.831 37.361C100.551 37.4768 100.511 37.4409 100.511 37.1335C100.507 36.5109 100.511 35.8883 100.511 35.2617C100.507 34.6391 100.504 34.0165 100.511 33.3939ZM102.667 44.1738C102.252 45.0239 101.601 45.6146 100.711 45.9339C100.667 45.9499 100.607 45.9379 100.563 45.9379C100.488 45.8341 100.511 45.7264 100.511 45.6226C100.511 44.4173 100.507 43.208 100.511 42.0027C100.511 41.6155 100.563 41.5716 100.919 41.7433C101.697 42.1184 102.272 42.7131 102.655 43.4834C102.762 43.7069 102.774 43.9503 102.667 44.1738Z" fill="#FCD405"/>
<path d="M92.9009 50.687C91.3404 46.0813 89.7799 41.4756 88.2194 36.8699C87.1817 33.8128 86.148 30.7556 85.1063 27.6985C84.9387 27.2036 85.0345 27.2754 84.4997 27.2754C83.5019 27.2714 82.5042 27.2754 81.5064 27.2754C80.8 27.2754 80.0976 27.2834 79.3911 27.2714C79.1956 27.2674 79.0918 27.3313 79.0639 27.5268C79.0519 27.6067 79.02 27.6785 79 27.7583C78.3335 30.1929 77.647 32.6194 76.9326 35.042C75.3801 40.3023 73.8156 45.5625 72.1114 50.7788C72.0755 50.8866 71.9957 50.9943 72.0715 51.1181C72.1114 51.1261 72.1474 51.138 72.1873 51.138C74.1549 51.138 76.1225 51.134 78.094 51.146C78.3255 51.146 78.3854 51.0382 78.4293 50.8507C78.6887 49.793 78.9601 48.7394 79.2235 47.6817C79.3073 47.3465 79.3113 47.3425 79.6386 47.3425C81.3428 47.3425 83.043 47.3425 84.7471 47.3425C85.0624 47.3425 85.0664 47.3465 85.1502 47.6458C85.4336 48.6835 85.717 49.7212 85.9963 50.7589C86.1001 51.138 86.1001 51.138 86.4992 51.138C88.5346 51.138 90.5701 51.138 92.6055 51.138C92.7332 51.138 92.8689 51.166 93.0006 51.1061C93.0246 50.9504 92.9448 50.8227 92.9009 50.687ZM80.8479 41.7071C81.3627 40.0508 81.8776 38.4065 82.3884 36.7622C82.4164 36.7662 82.4403 36.7702 82.4682 36.7702C82.9751 38.3985 83.486 40.0309 83.9968 41.6592C83.6855 41.751 81.7538 41.779 80.8479 41.7071Z" fill="#FCD405"/>
<path d="M147.411 50.7275C146.844 49.0552 146.277 47.3829 145.71 45.7067C143.667 39.6801 141.619 33.6576 139.576 27.631C139.444 27.2479 139.532 27.2758 139.085 27.2758C137.397 27.2758 135.709 27.2758 134.017 27.2758C133.625 27.2758 133.625 27.2758 133.518 27.667C131.438 35.1941 129.199 42.6774 126.821 50.1168C126.717 50.4441 126.577 50.7594 126.521 51.0986C126.637 51.1665 126.745 51.1385 126.849 51.1385C128.724 51.1385 130.6 51.1385 132.476 51.1385C132.851 51.1385 132.851 51.1385 132.947 50.7674C133.206 49.7377 133.47 48.708 133.729 47.6783C133.813 47.343 133.817 47.339 134.144 47.339C135.848 47.339 137.549 47.339 139.253 47.339C139.572 47.339 139.572 47.343 139.656 47.6463C139.935 48.672 140.207 49.6978 140.486 50.7235C140.602 51.1425 140.506 51.1385 141.005 51.1385C143.052 51.1385 145.1 51.1385 147.147 51.1385C147.267 51.1385 147.387 51.1585 147.526 51.0986C147.49 50.9789 147.454 50.8512 147.411 50.7275ZM135.342 41.7036C135.864 40.0353 136.375 38.399 136.886 36.7627C136.91 36.7587 136.934 36.7587 136.958 36.7547C137.469 38.391 137.984 40.0274 138.506 41.7036C137.445 41.7036 136.419 41.7036 135.342 41.7036Z" fill="#FCD405"/>
</g>
<defs>
<clipPath id="clip0">
<rect width="160" height="80" fill="white"/>
</clipPath>
</defs>
</svg>
