<svg width="160" height="80" viewBox="0 0 160 80" fill="none" xmlns="http://www.w3.org/2000/svg">
<path d="M0 39.4653C0.0195632 39.475 0.0293448 39.4653 0.0391264 39.4653C0.117379 39.5333 0.117379 39.6402 0.117379 39.7374C0.117379 40.2232 0.127161 40.7187 0.117379 41.2045C0.117379 41.3017 0.117379 41.3988 0.0293448 41.4669H0.00978161L0 41.4571C0 40.7867 0 40.126 0 39.4653Z" fill="white"/>
<path d="M84.2684 26.4455C84.2684 23.2295 84.2684 20.0135 84.2684 16.8071C84.2684 16.3116 84.3467 16.2339 84.8553 16.2339C87.2812 16.2339 89.7168 16.2436 92.1426 16.2436C92.9839 16.2436 93.8251 16.2339 94.6565 16.2339C95.0771 16.2339 95.1652 16.331 95.1652 16.7488C95.1652 17.5844 95.1456 18.42 95.1554 19.2459C95.1554 19.4402 95.0967 19.4888 94.9109 19.4888C92.5535 19.4791 90.1961 19.4888 87.8485 19.4791C87.6529 19.4791 87.5844 19.5277 87.5844 19.722C87.5942 20.4896 87.5746 21.2571 87.5746 22.0247C87.5648 22.87 87.5648 23.725 87.5551 24.5703C87.5551 24.9784 87.6724 25.095 88.0735 25.095C89.6875 25.0853 91.3014 25.0853 92.9154 25.0756C93.1502 25.0756 93.3849 25.0659 93.6197 25.0756C93.9033 25.0853 94.0012 25.1922 94.0012 25.4739C94.0012 26.1638 93.9914 26.8536 94.0012 27.5338C94.0012 27.7086 93.9523 27.7475 93.786 27.7475C91.9568 27.7378 90.1374 27.7475 88.3082 27.7475C87.604 27.7475 87.5453 27.8058 87.5453 28.5054C87.5453 30.0017 87.5551 31.4979 87.5648 32.9942C87.5648 33.3537 87.6822 33.4703 88.0539 33.4703C88.8854 33.4703 89.7168 33.4509 90.5482 33.4606C92.0155 33.4606 93.4827 33.4703 94.95 33.4703C95.1065 33.4703 95.175 33.4995 95.175 33.6744C95.1554 34.5585 95.1652 35.4427 95.1554 36.3171C95.1554 36.5989 95.0087 36.7349 94.7152 36.7349C93.9229 36.7349 93.1306 36.7349 92.3481 36.7349C89.8537 36.7349 87.3594 36.7349 84.8651 36.7349C84.4054 36.7349 84.288 36.6183 84.288 36.1034C84.288 34.335 84.2978 32.5764 84.2978 30.8081C84.2684 29.3604 84.2684 27.903 84.2684 26.4455Z" fill="white"/>
<path d="M130.536 55.7205C130.536 52.4171 130.536 49.1136 130.526 45.8101C130.526 45.5866 130.584 45.5283 130.809 45.5283C134.233 45.538 137.657 45.538 141.08 45.5283C141.286 45.5283 141.364 45.5672 141.354 45.7907C141.344 46.6845 141.344 47.5881 141.354 48.482C141.354 48.6861 141.295 48.7444 141.1 48.7444C138.772 48.7346 136.434 48.7444 134.106 48.7346C133.871 48.7346 133.812 48.7929 133.812 49.0261C133.822 50.6973 133.822 52.3588 133.812 54.0299C133.812 54.2923 133.891 54.3311 134.125 54.3311C136.033 54.3214 137.94 54.3311 139.848 54.3214C140.073 54.3214 140.141 54.3797 140.131 54.6032C140.122 55.3222 140.122 56.0412 140.131 56.7602C140.131 56.9545 140.073 57.0031 139.887 57.0031C137.96 56.9934 136.023 57.0031 134.096 56.9934C133.852 56.9934 133.773 57.0517 133.773 57.3043C133.783 58.9755 133.783 60.6563 133.783 62.3275C133.783 62.7162 133.783 62.7162 134.165 62.7162C136.473 62.7162 138.781 62.7162 141.08 62.7064C141.315 62.7064 141.364 62.7745 141.364 62.9979C141.354 63.8918 141.354 64.7954 141.364 65.6893C141.364 65.8836 141.315 65.9322 141.119 65.9322C137.676 65.9225 134.223 65.9225 130.78 65.9322C130.545 65.9322 130.545 65.8253 130.545 65.6504C130.536 62.3567 130.536 59.0337 130.536 55.7205Z" fill="#F0C97C"/>
<path d="M84.3174 55.7397C84.3174 52.4653 84.3174 49.1813 84.3174 45.907C84.3174 45.5766 84.3174 45.5766 84.6402 45.5766C88.0344 45.5766 91.4384 45.5766 94.8326 45.5669C95.0674 45.5669 95.1359 45.6155 95.1359 45.8584C95.1163 46.7523 95.1261 47.6559 95.1359 48.5497C95.1359 48.7246 95.087 48.7829 94.9011 48.7829C93.16 48.7732 91.4091 48.7926 89.6679 48.7732C89.0908 48.7635 88.5137 48.7149 87.9366 48.7732C87.6529 48.8024 87.5551 48.9287 87.5551 49.2299C87.5551 49.9974 87.5551 50.765 87.5551 51.5326C87.5551 52.2807 87.5551 53.0386 87.5551 53.7867C87.5551 54.2531 87.6529 54.36 88.1322 54.36C90.0005 54.36 91.8688 54.36 93.7273 54.3503C93.9621 54.3503 94.011 54.4183 94.011 54.6418C94.0012 55.3122 94.011 55.9826 94.011 56.653C94.011 56.925 93.9132 57.0416 93.6491 57.0222C92.6024 56.9445 91.5656 57.0222 90.5287 57.0222C89.6288 57.0319 88.7191 57.0319 87.8192 57.0222C87.6431 57.0222 87.5649 57.0514 87.5649 57.2554C87.5747 58.9849 87.5747 60.7241 87.5649 62.4535C87.5649 62.6381 87.6431 62.6964 87.7996 62.7061C87.8681 62.7061 87.9464 62.7061 88.0148 62.7061C90.294 62.7061 92.5829 62.7061 94.862 62.6964C95.087 62.6964 95.1457 62.7644 95.1457 62.9782C95.1359 63.8818 95.1359 64.7951 95.1457 65.6987C95.1457 65.8833 95.087 65.9319 94.9109 65.9319C91.4678 65.9222 88.0148 65.9222 84.5717 65.9319C84.3369 65.9319 84.3272 65.8347 84.3272 65.6599C84.3174 62.3661 84.3174 59.0529 84.3174 55.7397Z" fill="#F0C97C"/>
<path d="M117.213 26.4845C117.213 23.1616 117.213 19.8484 117.213 16.5255C117.213 16.3214 117.252 16.2534 117.477 16.2534C118.387 16.2631 119.306 16.2729 120.216 16.2534C120.46 16.2534 120.5 16.3311 120.5 16.5546C120.49 19.3917 120.49 22.2191 120.49 25.0562C120.49 27.7573 120.49 30.4681 120.48 33.1692C120.48 33.4121 120.549 33.451 120.773 33.451C122.886 33.4413 124.999 33.451 127.102 33.4413C127.288 33.4413 127.357 33.4704 127.347 33.6744C127.337 34.6169 127.337 35.5497 127.347 36.4921C127.347 36.6476 127.308 36.6962 127.151 36.6962C123.904 36.6865 120.646 36.6865 117.399 36.6962C117.193 36.6962 117.203 36.6087 117.203 36.463C117.213 33.1401 117.213 29.8074 117.213 26.4845Z" fill="white"/>
<path d="M117.223 55.7881C117.223 52.4846 117.223 49.1811 117.213 45.8776C117.213 45.6347 117.272 45.557 117.526 45.5667C118.406 45.5861 119.287 45.5861 120.167 45.5667C120.431 45.557 120.47 45.6444 120.47 45.8776C120.46 51.3867 120.47 56.9054 120.47 62.4145C120.47 62.7254 120.47 62.7254 120.783 62.7254C122.867 62.7254 124.96 62.7254 127.044 62.7254C127.357 62.7254 127.357 62.7254 127.357 63.046C127.357 63.9399 127.347 64.8435 127.357 65.7374C127.357 65.9317 127.298 65.9803 127.102 65.9803C123.894 65.9706 120.676 65.9706 117.467 65.9803C117.252 65.9803 117.213 65.9123 117.213 65.718C117.223 62.4145 117.223 59.1013 117.223 55.7881Z" fill="#F0C97C"/>
<path d="M127.591 17.73C127.826 17.8952 127.983 18.0603 128.071 18.3032C128.393 19.1097 128.736 19.9161 129.088 20.7517C129.303 20.2367 129.499 19.7704 129.694 19.2943C129.821 18.9931 129.949 18.6822 130.066 18.3712C130.164 18.0992 130.311 17.8854 130.594 17.7688C130.653 17.798 130.624 17.866 130.624 17.9146C130.624 18.9056 130.624 19.9064 130.624 20.8974C130.624 20.9169 130.624 20.9266 130.624 20.946C130.633 21.0432 130.633 21.1403 130.496 21.1306C130.389 21.1209 130.438 21.014 130.438 20.9557C130.428 20.2076 130.418 19.4692 130.408 18.721C130.408 18.6822 130.408 18.6433 130.408 18.6044C130.408 18.5461 130.428 18.4781 130.35 18.4587C130.262 18.4393 130.262 18.5267 130.232 18.5753C129.9 19.3623 129.567 20.1493 129.235 20.9363C129.205 21.014 129.205 21.1403 129.068 21.1403C128.941 21.1306 128.951 21.014 128.922 20.946C128.579 20.1299 128.237 19.3137 127.894 18.4878C127.865 18.4295 127.875 18.3129 127.777 18.3421C127.699 18.3615 127.738 18.4587 127.738 18.517C127.738 19.3137 127.738 20.1007 127.738 20.8974C127.738 20.9655 127.797 21.0918 127.67 21.082C127.542 21.082 127.601 20.9557 127.601 20.8877C127.591 19.8578 127.591 18.8085 127.591 17.73Z" fill="white"/>
<path d="M125.244 19.5765C125.244 19.149 125.234 18.7215 125.253 18.294C125.263 18.1094 125.195 18.0608 125.029 18.0511C124.784 18.0413 124.539 18.0122 124.295 17.9928C124.246 17.9928 124.158 18.0219 124.158 17.9442C124.158 17.847 124.246 17.8762 124.305 17.8762C124.98 17.8762 125.655 17.8762 126.329 17.8762C126.378 17.8762 126.457 17.8567 126.466 17.9442C126.466 18.0316 126.388 18.0025 126.339 18.0122C126.114 18.0316 125.889 18.0511 125.655 18.0511C125.478 18.0511 125.42 18.0996 125.42 18.2842C125.43 19.1393 125.42 20.004 125.42 20.859C125.42 20.9076 125.42 20.9562 125.42 21.0048C125.42 21.0728 125.42 21.1408 125.322 21.1408C125.214 21.1408 125.234 21.0728 125.234 21.0048C125.234 20.6161 125.234 20.2275 125.234 19.8388C125.244 19.7417 125.244 19.6639 125.244 19.5765Z" fill="white"/>
<path d="M158.902 65.796C157.768 63.6196 156.633 61.4432 155.498 59.2668C155.175 58.6547 155.175 58.6547 155.723 58.2466C156.584 57.6248 157.337 56.8961 157.885 55.973C158.491 54.9626 158.883 53.8938 158.941 52.7084C159.02 51.1344 158.589 49.7061 157.777 48.3653C156.692 46.5581 155.087 45.5476 152.955 45.5185C150.255 45.4796 147.556 45.5087 144.866 45.499C144.65 45.499 144.66 45.6059 144.66 45.7517C144.66 52.4072 144.66 59.0628 144.66 65.7183C144.66 65.9029 144.709 65.9709 144.905 65.9612C145.805 65.9515 146.714 65.9515 147.614 65.9612C147.839 65.9612 147.898 65.9126 147.898 65.6794C147.888 63.503 147.888 61.3266 147.888 59.1502C147.888 58.7227 147.986 58.6255 148.426 58.6255C149.277 58.6255 150.118 58.6352 150.969 58.6255C151.361 58.6255 151.625 58.781 151.811 59.1308C152.652 60.7242 153.513 62.3177 154.364 63.9111C154.677 64.4941 154.99 65.077 155.312 65.66C155.41 65.8349 155.537 65.9612 155.772 65.9612C156.848 65.9515 157.924 65.9612 159 65.9612C159 65.9418 159 65.9321 159 65.9126C158.971 65.8932 158.932 65.8446 158.902 65.796ZM154.403 55.1277C153.933 55.4484 153.434 55.6718 152.838 55.6524C152.114 55.6232 151.39 55.6427 150.666 55.6427C149.854 55.6427 149.033 55.633 148.221 55.6427C148.006 55.6427 147.937 55.5747 147.937 55.3609C147.947 54.8362 147.937 54.3116 147.937 53.7869C147.927 52.2906 147.917 50.7943 147.908 49.298C147.908 48.8608 147.986 48.7831 148.436 48.7831C149.796 48.7831 151.155 48.8025 152.515 48.7734C153.943 48.7442 154.902 49.4438 155.518 50.668C156.291 52.2129 155.674 54.2436 154.403 55.1277Z" fill="#F0C97C"/>
<path d="M50.6193 34.3645C49.2009 28.8166 46.2664 24.2306 41.7865 20.6453C37.5021 17.2155 32.5918 15.3597 27.0945 15.0488C24.7763 14.9225 22.4776 15.0974 20.1985 15.5929C15.425 16.6326 11.2776 18.8478 7.77582 22.2193C5.61409 24.2986 3.88275 26.6888 2.57201 29.3801C1.02652 32.5573 0.175517 35.9191 0.0385742 39.4558C0.0385742 40.1262 0.0385742 40.7869 0.0385742 41.4573C0.0483558 42.0014 0.0874822 42.5455 0.13639 43.0896C0.185298 43.6531 0.25377 44.2167 0.351586 44.7608C0.517873 45.6741 0.713505 46.5777 0.977608 47.4716C1.36887 48.8513 1.87752 50.1824 2.49376 51.4843C3.63821 53.9037 5.15435 56.0606 6.97373 58.0136C7.69757 58.7909 8.4801 59.5001 9.30175 60.1706C10.143 60.8507 11.0135 61.492 11.933 62.0652C12.9992 62.7259 14.0947 63.338 15.2392 63.8335C16.9021 64.5525 18.6138 65.1064 20.3843 65.4659C21.2451 65.6407 22.1157 65.7865 22.996 65.8739C23.5829 65.9322 24.1796 65.9711 24.7763 65.9808C26.8206 66.0294 28.8454 65.8836 30.8506 65.4756C35.9958 64.4068 40.4268 62.0361 44.0949 58.2953C48.3793 53.9231 50.7758 48.6667 51.2942 42.5941C51.5289 39.8153 51.304 37.0656 50.6193 34.3645ZM25.3729 63.0368C12.9796 62.8522 2.97306 52.6794 3.01218 40.4662C3.06109 27.8547 13.4785 17.8859 25.8327 17.9734C38.3238 18.0511 48.4086 28.2142 48.3695 40.4954C48.4086 53.0778 37.8738 63.2214 25.3729 63.0368Z" fill="white"/>
<path d="M81.1482 36.6476C79.9059 34.2671 78.6636 31.877 77.4116 29.4965C77.3236 29.3216 77.3627 29.273 77.5094 29.1856C78.1159 28.8552 78.6734 28.4763 79.1429 27.9711C81.4905 25.474 81.784 21.6264 79.7983 18.8379C78.6636 17.2445 77.1084 16.302 75.1031 16.234C74.4184 16.2048 73.7337 16.2437 73.049 16.2437C71.0535 16.2437 69.0581 16.2437 67.0626 16.234C66.9061 16.234 66.8376 16.2437 66.8376 16.4283C66.8474 23.113 66.8474 29.7977 66.8376 36.4921C66.8376 36.6476 66.8768 36.6962 67.0333 36.6962C67.9625 36.6865 68.8918 36.6865 69.821 36.6962C70.0265 36.6962 70.0754 36.6476 70.0754 36.4435C70.0656 34.17 70.0754 31.8964 70.0656 29.6228C70.0656 29.4479 70.1047 29.3896 70.2906 29.3896C71.2981 29.3993 72.3154 29.4091 73.3229 29.3993C73.6457 29.3896 73.8217 29.5159 73.9587 29.7783C74.3695 30.5653 74.7901 31.3426 75.2107 32.1296C75.9443 33.519 76.6682 34.8987 77.4018 36.2881C77.5388 36.5601 77.7344 36.7447 78.0572 36.7447C79.094 36.7447 80.1309 36.7447 81.1873 36.7447C81.1677 36.6962 81.158 36.667 81.1482 36.6476ZM75.5237 26.3096C75.289 26.3582 75.0347 26.3582 74.7999 26.3582C73.5381 26.3582 72.2762 26.3582 71.0144 26.3582C70.8383 26.3582 70.6525 26.3776 70.4764 26.3679C70.1634 26.3582 70.0558 26.2416 70.0558 25.9307C70.0558 24.9299 70.0558 23.9292 70.0558 22.9187C70.0558 22.9187 70.0558 22.9187 70.046 22.9187C70.046 21.9471 70.046 20.9755 70.046 20.0038C70.046 19.5569 70.1145 19.4792 70.5645 19.4792C72.0219 19.4792 73.4794 19.4695 74.9368 19.4889C76.453 19.5083 77.8322 20.8006 77.9594 22.3066C78.0376 23.2005 77.9789 24.0749 77.4898 24.8619C77.0301 25.6101 76.3845 26.1153 75.5237 26.3096Z" fill="white"/>
<path d="M81.3048 52.3195C80.669 50.3666 79.5245 48.7342 77.9595 47.3934C76.4727 46.1206 74.7218 45.5085 72.7654 45.4793C70.9558 45.4599 69.1462 45.4793 67.3366 45.4793C66.9258 45.4793 66.8573 45.5474 66.8573 45.9651C66.8378 49.6476 66.8867 53.33 66.8182 57.0124C66.7889 58.4504 66.8182 59.8981 66.8182 61.3361H66.8084C66.8084 62.7741 66.8084 64.2218 66.8084 65.6597C66.8084 65.9901 66.8084 65.9901 67.141 65.9901C69.381 66.0192 71.6112 65.9804 73.8316 65.6597C75.4554 65.4266 76.9617 64.9505 78.2138 63.8331C79.2898 62.8809 80.1408 61.7733 80.7374 60.481C81.3243 59.2179 81.6178 57.8868 81.7352 56.5071C81.8623 55.0886 81.745 53.6895 81.3048 52.3195ZM78.7909 56.0213C78.742 57.6537 78.1551 59.0916 77.1476 60.3645C76.1988 61.5595 74.937 62.2008 73.4306 62.434C72.5209 62.5797 71.6112 62.638 70.6917 62.6769C70.4472 62.6866 70.3787 62.6283 70.3787 62.3757C70.3885 60.1798 70.3885 57.984 70.3885 55.7979C70.3885 53.5923 70.3885 51.3965 70.3885 49.1909C70.3885 48.9869 70.4374 48.9091 70.6526 48.9188C71.2884 48.9286 71.9242 48.8994 72.56 48.8897C75.0445 48.88 77.1769 50.4346 78.1062 52.5527C78.5757 53.6603 78.8202 54.8165 78.7909 56.0213Z" fill="#F0C97C"/>
<path d="M105.7 15C102.912 22.2677 100.144 29.4868 97.3661 36.735C98.4127 36.735 99.43 36.735 100.447 36.735C100.819 36.735 100.897 36.6864 101.034 36.3464C101.357 35.5399 101.68 34.7238 101.993 33.9173C102.149 33.5287 102.218 33.4704 102.638 33.4704C104.712 33.4704 106.776 33.4704 108.85 33.4704C109.231 33.4704 109.3 33.5287 109.437 33.8882C109.74 34.7238 110.053 35.5496 110.366 36.3852C110.493 36.7253 110.542 36.7544 110.904 36.7544C111.872 36.7544 112.841 36.7544 113.809 36.7544C113.877 36.7544 113.946 36.7447 114.034 36.7447C111.256 29.4868 108.488 22.2677 105.7 15ZM103.196 30.7207C103.48 29.9629 103.753 29.2244 104.027 28.486C104.546 27.1063 105.064 25.7169 105.583 24.3372C105.602 24.2692 105.612 24.1817 105.7 24.172C105.798 24.172 105.798 24.2692 105.827 24.3275C106.619 26.4262 107.412 28.5249 108.204 30.6235C108.214 30.643 108.214 30.6721 108.233 30.711C106.531 30.7207 104.878 30.7207 103.196 30.7207Z" fill="white"/>
<path d="M113.926 65.6988C113.476 64.5329 113.026 63.3767 112.586 62.2107C111.52 59.4222 110.444 56.624 109.378 53.8354C108.341 51.1441 107.314 48.443 106.277 45.7516C106.091 45.2658 105.905 44.78 105.7 44.2456C102.912 51.5133 100.144 58.7226 97.3759 65.9612C97.5421 65.9515 97.6497 65.9417 97.7671 65.9417C98.6279 65.9417 99.4985 65.9223 100.359 65.9417C100.799 65.9515 100.936 65.8251 101.093 65.4462C101.406 64.6786 101.709 63.9111 102.012 63.1435C102.179 62.7257 102.247 62.6771 102.697 62.6771C104.712 62.6771 106.727 62.6771 108.732 62.6868C109.241 62.6868 109.3 62.7257 109.466 63.2115C109.74 63.9888 110.023 64.7661 110.346 65.5239C110.464 65.8057 110.64 65.9515 110.972 65.9515C111.902 65.932 112.831 65.9515 113.76 65.9515C114.024 65.9417 114.024 65.9417 113.926 65.6988ZM108.038 59.9663C106.463 59.9566 104.888 59.9663 103.323 59.9663C103.294 59.9663 103.255 59.9566 103.196 59.9469C104.027 57.7219 104.849 55.5358 105.69 53.2913C105.749 53.4079 105.778 53.4856 105.808 53.5537C106.59 55.6232 107.373 57.7025 108.155 59.772C108.204 59.8983 108.233 59.9663 108.038 59.9663Z" fill="#F0C97C"/>
<path d="M25.6473 49.8516C29.2078 49.8516 32.7683 49.8516 36.3288 49.8516C36.544 49.8516 36.6223 49.8904 36.6223 50.1236C36.6027 50.8037 36.6125 51.4839 36.6125 52.164C36.6125 52.5235 36.6125 52.5235 36.2701 52.5235C29.1883 52.5235 22.1064 52.5235 15.0245 52.5235C14.6821 52.5235 14.6821 52.5235 14.6821 52.164C14.6821 51.4742 14.6919 50.7843 14.6724 50.1042C14.6724 49.8904 14.7408 49.8516 14.9365 49.8516C18.5165 49.8613 22.0868 49.8516 25.6473 49.8516Z" fill="#F0C97C"/>
<path d="M39.4297 31.9159C38.7059 31.7507 37.9918 31.5564 37.2777 31.3815C33.6781 30.4682 30.0687 29.5549 26.4691 28.6416C26.1365 28.5541 25.7844 28.5153 25.4322 28.5541C24.8258 28.6124 24.2682 28.8262 23.6813 28.9719C19.7589 29.9533 15.8365 30.9443 11.914 31.9159C11.6988 31.9645 11.6597 32.0714 11.6988 32.256C11.7673 32.6252 11.826 32.9847 11.9043 33.3539C12.3542 35.6275 12.8042 37.8913 13.2443 40.1649C13.6747 42.3996 14.0953 44.6343 14.5159 46.869C14.604 47.3548 14.6529 47.384 15.142 47.384C18.6829 47.384 22.2141 47.384 25.755 47.384C29.3449 47.384 32.9249 47.384 36.5148 47.3937C36.7104 47.3937 36.7887 47.3451 36.818 47.1605C36.9452 46.4804 37.0821 45.8003 37.2093 45.1201C37.6201 42.9826 38.0309 40.845 38.4418 38.7075C38.8526 36.5699 39.2536 34.4324 39.6742 32.2948C39.7231 32.0325 39.6645 31.9645 39.4297 31.9159ZM24.3171 43.9542C24.3171 44.0514 24.3171 44.1485 24.3171 44.2457C24.3073 44.576 24.19 44.7023 23.8574 44.7023C23.3585 44.7023 22.8694 44.6829 22.3706 44.6732C21.1772 44.6538 19.9741 44.6538 18.7807 44.6732C18.3112 44.6829 17.8417 44.7023 17.3624 44.7023C16.9711 44.7023 16.8538 44.6149 16.7755 44.236C16.4331 42.4482 16.0908 40.6604 15.7484 38.8629C15.4648 37.3861 15.1811 35.919 14.8876 34.4421C14.7996 33.9757 14.829 33.9077 15.2887 33.8008C18.096 33.111 20.9033 32.4211 23.7107 31.7313C24.3269 31.5856 24.3269 31.5856 24.3269 32.2171C24.3269 34.1701 24.3269 36.123 24.3269 38.0662C24.3269 38.0662 24.3269 38.0662 24.3367 38.0662C24.3171 40.0386 24.3171 41.9915 24.3171 43.9542ZM36.5539 34.1798C36.1333 36.2979 35.7323 38.4257 35.3214 40.5438C35.0867 41.7778 34.8617 43.0117 34.6269 44.2554C34.5585 44.6343 34.4704 44.7121 34.0987 44.7023C31.8587 44.6926 29.6187 44.6732 27.3788 44.6732C27.1538 44.6732 27.0951 44.5955 27.0951 44.3817C27.1049 42.2927 27.0951 40.2038 27.0951 38.1148C27.0951 36.0258 27.0951 33.9369 27.0853 31.8479C27.0853 31.6341 27.1342 31.5953 27.3396 31.6439C30.3426 32.392 33.3455 33.1304 36.3485 33.8689C36.5343 33.9174 36.593 33.966 36.5539 34.1798Z" fill="#F0C97C"/>
</svg>
