<svg width="160" height="80" viewBox="0 0 160 80" fill="none" xmlns="http://www.w3.org/2000/svg">
<path d="M3.46012 50.0677C4.10089 49.8114 4.42128 49.491 4.42128 49.1065V42.6988C4.42128 42.1221 4.67759 41.6095 5.12612 41.2891C5.57466 40.9688 6.15135 40.7765 6.72805 40.7765C8.13774 40.8406 9.48335 40.5843 10.7649 40.0076C11.726 39.5591 12.559 38.8542 13.1357 37.8931C13.7124 36.9319 14.0969 35.8426 14.225 34.7533C14.2891 34.497 14.3532 34.3688 14.4813 34.3688C14.6095 34.3688 14.6736 34.497 14.6736 34.6892C14.7377 36.6115 13.9047 38.4057 12.4309 39.6231C10.829 40.9047 8.77851 41.5454 6.72805 41.4173C6.27951 41.4173 5.89505 41.5454 5.51058 41.8018C5.12612 41.9299 4.93389 42.3144 4.86982 42.6988V49.3628C4.86982 49.7473 4.48535 50.1958 3.71643 50.7084C3.46012 50.6444 3.33197 50.5162 3.33197 50.3881C3.33197 50.1318 3.39605 50.0677 3.46012 50.0677ZM6.40766 31.6135C7.04843 31.2291 7.75328 31.0368 8.45812 31.0368C9.80374 30.9728 11.0212 31.6135 11.7901 32.7028C11.8542 32.7669 11.8542 32.8951 11.8542 32.9591C11.8542 33.0873 11.7901 33.2155 11.5979 33.2795C11.5338 33.2795 11.4057 33.2155 11.4057 33.1514C11.0212 32.7028 10.5727 32.3184 10.06 32.0621C9.54743 31.7417 8.97074 31.6135 8.39404 31.5495C7.88143 31.5495 7.36881 31.6776 6.92028 31.9339C6.79212 32.0621 6.66397 32.1261 6.53581 32.1261C6.40766 32.0621 6.27951 31.998 6.27951 31.8698C6.27951 31.7417 6.34358 31.6776 6.40766 31.6135ZM25.1181 50.0677L34.0889 50.1318C34.2811 50.1318 34.4733 50.0677 34.6015 49.9395C34.7937 49.8114 34.9219 49.6191 34.9219 49.4269C34.9219 49.2987 34.986 49.2347 35.05 49.1706C35.1141 49.1065 35.2423 49.0424 35.3063 49.0424C35.4345 49.0424 35.4986 49.2347 35.4986 49.491C35.4345 49.8754 35.2423 50.1318 34.9219 50.3881C34.6656 50.5803 34.4093 50.7084 34.0889 50.7725H25.1181C24.8618 50.7725 24.7337 50.6444 24.7337 50.4521C24.7337 50.2599 24.8618 50.0677 25.1181 50.0677ZM27.2967 32.3184C27.4249 32.4465 27.489 32.5747 27.489 32.7669C27.489 32.8951 27.4249 33.0232 27.2967 33.0232C27.1686 32.9591 26.9763 32.8951 26.9123 32.7669L25.887 31.8698C25.823 31.8058 25.7589 31.6776 25.7589 31.5495C25.7589 31.2931 25.9511 31.165 26.3356 31.165H33.384C33.5763 31.165 33.8326 31.1009 33.9607 30.9728C34.153 30.8446 34.2811 30.6524 34.3452 30.4601C34.3452 30.2038 34.4733 30.0757 34.6015 30.0757C34.6656 30.0757 34.7296 30.1398 34.7937 30.1398C34.8578 30.2038 34.8578 30.2679 34.8578 30.332C34.8578 30.7165 34.6656 31.1009 34.3452 31.2931C34.0248 31.5495 33.5763 31.6776 33.1918 31.6776H26.5919L27.2967 32.3184ZM26.2715 46.6716C26.2715 47.1842 26.1433 47.4405 25.9511 47.4405C25.7589 47.4405 25.6307 47.1842 25.6307 46.6716V41.994C25.6307 41.4814 25.823 40.9688 26.2715 40.5843C26.656 40.1998 27.1045 40.0076 27.6171 40.0076L32.487 39.9435C32.7433 39.9435 32.9355 39.8154 33.1277 39.6231C33.32 39.4309 33.4481 39.2387 33.5122 38.9824C33.5763 38.7901 33.7044 38.662 33.8326 38.662C34.0248 38.662 34.153 38.8542 34.153 39.1746C34.153 39.5591 33.9607 39.9435 33.6403 40.1358C33.384 40.3921 32.9996 40.5202 32.6151 40.5202H27.9375C27.553 40.5202 27.1686 40.6484 26.8482 40.9047C26.4637 41.161 26.2715 41.6095 26.2715 42.0581V46.6716ZM29.5394 36.2911C29.6035 36.3552 29.6676 36.4193 29.6676 36.5474C29.6676 36.7397 29.6035 36.8038 29.4113 36.8038C29.2831 36.8038 29.155 36.7397 29.0268 36.6115L26.5919 34.6251C26.4637 34.5611 26.3996 34.4329 26.3356 34.2407C26.3356 34.0485 26.3996 33.9844 26.656 33.9844C26.7841 33.9844 26.8482 34.0485 26.9763 34.1125L29.5394 36.2911ZM57.2206 42.1221C57.2206 41.8658 57.2847 41.7377 57.4129 41.7377C57.541 41.7377 57.6692 41.8018 57.7332 41.994C57.7973 42.1221 57.7973 42.2503 57.7973 42.3784C57.7973 42.6348 57.6692 42.8911 57.4769 43.0833C57.3488 43.2755 57.0925 43.3396 56.8362 43.4037H50.1081C49.7236 43.4037 49.5314 43.2755 49.5314 43.0833C49.5314 42.8911 49.6596 42.827 49.9799 42.7629H56.708C57.0925 42.6988 57.2206 42.5066 57.2206 42.1221ZM66.7681 50.2599H73.3039C73.4962 50.2599 73.6884 50.1958 73.8806 50.0677C74.0088 49.9395 74.0729 49.7473 74.0729 49.5551C74.0729 49.4269 74.201 49.3628 74.3292 49.3628C74.5214 49.3628 74.6496 49.491 74.6496 49.6832C74.5855 50.0036 74.3932 50.2599 74.1369 50.4521C73.8806 50.6444 73.5602 50.7725 73.2399 50.7725H66.6399C66.3836 50.7725 66.2555 50.7084 66.2555 50.5162C66.2555 50.324 66.3836 50.2599 66.7681 50.2599ZM67.0885 31.1009C67.0885 30.7165 67.2166 30.5242 67.4729 30.5242C67.7292 30.5242 67.7933 30.7805 67.7933 31.2291V47.1201C67.7933 47.4405 67.6652 47.6328 67.4729 47.6328C67.2807 47.6328 67.0885 47.4405 67.0885 47.0561V31.1009ZM83.2999 30.9728C83.2999 30.5242 83.4281 30.332 83.6844 30.332C83.8766 30.332 84.0048 30.5242 84.0048 30.9087V48.8502C84.0689 49.3628 83.9407 49.8114 83.6203 50.1958C83.4281 50.4521 83.1718 50.6444 82.8514 50.6444C82.531 50.6444 82.3388 50.5162 82.3388 50.1958C82.3388 50.0677 82.4669 50.0036 82.6592 50.0036C82.9155 50.0036 83.1077 49.8754 83.1718 49.6832C83.2999 49.4269 83.2999 49.2347 83.2999 48.9784V30.9728ZM95.4105 47.4405C95.5386 47.5046 95.6027 47.6328 95.6027 47.825C95.6027 48.0172 95.5386 48.0813 95.3464 48.0813C95.2182 48.0813 95.0901 48.0172 94.9619 47.8891C94.4493 47.4405 94.0648 46.9279 93.7445 46.3512C93.4882 45.7104 93.4241 45.0056 93.4241 44.3648C93.4241 44.0444 93.5522 43.66 93.6804 43.4037C93.8726 42.9551 94.0648 42.5707 94.3212 42.1221C94.5775 41.6095 94.7697 41.2251 94.8979 40.9047C95.026 40.6484 95.0901 40.3921 95.0901 40.1358C95.0901 39.8154 95.1542 39.6231 95.2823 39.6231C95.5386 39.6231 95.6668 39.8154 95.7949 40.1358C95.7949 40.4561 95.7309 40.7765 95.5386 41.0328C95.3464 41.4173 95.0901 41.8658 94.8979 42.2503C94.6415 42.6348 94.4493 43.0192 94.2571 43.4678C94.1289 43.9163 94.0008 44.3648 94.0008 44.8134C94.0008 45.7745 94.5134 46.7998 95.4105 47.4405ZM95.6668 33.8562C95.6027 34.3048 95.5386 34.5611 95.4105 34.5611C95.3464 34.5611 95.2182 34.497 95.1542 34.3688C95.0901 34.2407 95.026 34.0485 95.026 33.8562C95.0901 32.9591 95.4745 32.1261 96.1794 31.5495C96.8202 31.0368 97.6532 30.7165 98.4862 30.7165C98.9347 30.7165 99.3192 30.7805 99.7677 30.9087C99.9599 30.9728 100.28 31.1009 100.729 31.2931C101.177 31.4854 101.562 31.6135 101.818 31.6776C102.01 31.7417 102.203 31.8058 102.395 31.8058C102.651 31.8058 102.843 31.6776 102.907 31.4213C102.907 31.3572 102.972 31.3572 103.036 31.3572C103.228 31.3572 103.292 31.4854 103.292 31.8058C103.1 32.1902 102.715 32.3825 102.267 32.3825C101.818 32.3184 101.306 32.1902 100.857 31.998C100.28 31.7417 99.8318 31.6135 99.5114 31.4854C99.0628 31.3572 98.6143 31.2931 98.1658 31.3572C97.4609 31.3572 96.8842 31.6776 96.4357 32.2543C96.0512 32.7028 95.7309 33.2795 95.6668 33.8562ZM96.4998 50.0036C97.0765 50.1318 97.6532 50.1958 98.2298 50.1958C99.3832 50.1958 100.473 49.9395 101.498 49.4269C102.459 48.9784 103.292 48.2735 103.869 47.3764C104.573 46.3512 104.894 45.1338 104.894 43.9163C104.958 42.3784 104.253 40.9047 103.036 40.0076C102.972 39.9435 102.907 39.8794 102.907 39.7513C102.907 39.6872 102.972 39.6231 103.1 39.5591C103.228 39.495 103.292 39.495 103.42 39.495C104.83 40.4561 105.663 42.0581 105.599 43.7881C105.599 45.1338 105.214 46.4153 104.509 47.5046C103.933 48.5298 103.036 49.3628 101.946 49.8754C100.793 50.4521 99.4473 50.7725 98.1658 50.7725C97.5891 50.7725 97.0124 50.7084 96.4357 50.6444C96.1153 50.5803 95.9231 50.4521 95.9231 50.1958C95.859 50.0677 96.0512 50.0036 96.4998 50.0036ZM115.018 35.5863L111.558 32.6388C111.43 32.5106 111.366 32.3825 111.366 32.3184C111.366 32.1261 111.494 32.0621 111.686 32.0621C111.75 32.0621 111.814 32.0621 111.878 32.1261L115.467 35.2018C115.659 35.33 115.723 35.4581 115.723 35.5863C115.723 35.7144 115.659 35.7144 115.531 35.7144C115.338 35.7785 115.146 35.7144 115.018 35.5863ZM115.018 31.165H122.323C122.964 31.165 123.284 30.9087 123.284 30.4601C123.284 30.332 123.412 30.2679 123.476 30.2679C123.668 30.2679 123.797 30.332 123.797 30.5242C123.797 30.8446 123.668 31.2291 123.412 31.4854C123.092 31.7417 122.643 31.8698 122.259 31.8058H114.954C114.698 31.8058 114.569 31.7417 114.569 31.5495C114.569 31.2931 114.762 31.165 115.018 31.165ZM117.773 36.163C117.773 35.7144 117.837 35.4581 118.03 35.4581C118.158 35.4581 118.286 35.6504 118.286 35.9708V49.2347C118.286 49.6191 118.158 50.0036 117.966 50.2599C117.773 50.5803 117.453 50.7725 117.133 50.7725C116.94 50.7725 116.876 50.6444 116.876 50.4521C116.876 50.324 116.94 50.1958 117.004 50.1958C117.517 50.1318 117.837 49.7473 117.837 49.2347L117.773 36.163ZM132.767 30.9728C132.767 30.5242 132.895 30.332 133.152 30.332C133.344 30.332 133.472 30.5242 133.472 30.9087V48.8502C133.536 49.3628 133.408 49.8114 133.088 50.1958C132.895 50.4521 132.639 50.6444 132.319 50.6444C131.998 50.6444 131.806 50.5162 131.806 50.1958C131.806 50.0677 131.934 50.0036 132.127 50.0036C132.383 50.0036 132.575 49.8754 132.639 49.6832C132.767 49.4269 132.767 49.2347 132.767 48.9784V30.9728ZM146.223 46.159C146.416 46.2871 146.544 46.4153 146.544 46.6075C146.544 46.7357 146.48 46.7998 146.352 46.7998C146.223 46.7998 146.095 46.7357 145.967 46.6716C143.789 44.7493 142.699 42.5066 142.699 40.0717C142.763 38.4057 143.212 36.7397 144.045 35.2659C144.557 34.4329 145.198 33.664 145.967 33.0873C146.864 32.3825 147.825 31.8698 148.851 31.4854C149.812 31.1009 150.837 30.9087 151.926 30.9087C152.503 30.9087 153.08 30.9728 153.656 31.165C153.977 31.2291 154.169 31.2931 154.169 31.4854C154.169 31.6135 154.041 31.6776 153.849 31.6776C153.72 31.6776 153.592 31.6135 153.464 31.6135C153.016 31.5495 152.439 31.4854 151.862 31.4854C150.388 31.4854 148.915 31.9339 147.633 32.7028C146.352 33.4077 145.262 34.3688 144.493 35.6504C143.724 36.996 143.276 38.4698 143.276 40.0076C143.276 42.3144 144.237 44.3648 146.223 46.159ZM147.569 50.0036C147.313 49.8754 147.185 49.7473 147.185 49.6191C147.185 49.491 147.313 49.4269 147.505 49.4269C147.697 49.4269 147.889 49.491 148.018 49.5551C149.107 50.0677 150.324 50.3881 151.606 50.324C152.439 50.324 153.272 50.1958 154.041 50.0036C154.746 49.8754 155.386 49.5551 156.027 49.1706C156.476 48.9143 156.796 48.5298 156.988 48.0172C157.117 47.5687 157.245 47.3764 157.437 47.3764C157.629 47.3764 157.757 47.5687 157.757 48.0172C157.693 48.5939 157.373 49.1065 156.86 49.4269C156.155 49.9395 155.386 50.2599 154.553 50.4521C153.592 50.7084 152.631 50.8366 151.606 50.8366C150.132 50.9007 148.787 50.5803 147.569 50.0036ZM156.54 32.2543C156.604 32.3184 156.732 32.3184 156.796 32.3184C157.117 32.3184 157.309 32.1261 157.309 31.7417C157.309 31.4854 157.245 31.2931 157.117 31.1009C157.052 31.0368 157.052 30.9728 157.052 30.9087C157.052 30.7165 157.181 30.6524 157.437 30.6524C157.565 30.6524 157.757 30.7165 157.821 30.9087C157.95 31.165 158.014 31.3572 158.014 31.6776C158.014 31.998 157.885 32.3184 157.693 32.5747C157.501 32.831 157.181 32.9591 156.86 32.9591C156.732 32.9591 156.54 32.8951 156.412 32.831C156.219 32.7028 156.155 32.5747 156.155 32.4465C156.091 32.3184 156.219 32.2543 156.54 32.2543Z" fill="#D30071"/>
<path d="M9.67563 43.0832C10.2523 43.9802 10.8931 45.1336 11.662 46.5433C12.4309 47.8889 13.0076 48.8501 13.328 49.4268C13.7125 49.9394 14.0329 50.1957 14.2892 50.1957C14.3532 50.1957 14.4173 50.1316 14.5455 50.1316C14.7377 50.1316 14.8018 50.1957 14.8018 50.3238C14.8018 50.452 14.7377 50.5161 14.6096 50.5802C14.4814 50.6442 14.2892 50.7083 14.161 50.7083C13.7125 50.7083 13.3921 50.452 13.1358 50.0675C12.8795 49.6831 12.3028 48.786 11.5979 47.3763C10.829 46.0307 10.1242 44.7492 9.35525 43.7239L9.67563 43.0832ZM5.63879 37.5725L2.62717 32.3182C2.62717 32.1901 2.5631 32.126 2.62717 31.9979C2.62717 31.8697 2.69125 31.8056 2.75533 31.8056C2.94756 31.8056 3.07571 31.9338 3.13979 32.0619L6.34363 37.5725H5.63879ZM56.5799 45.2618L57.7333 48.9142C57.7974 49.0423 57.7974 49.2345 57.7974 49.3627C57.7974 49.7472 57.6692 50.0675 57.4129 50.3238C57.1566 50.5802 56.8362 50.7724 56.4518 50.7724C56.1314 50.7724 55.8751 50.7083 55.6188 50.5161L45.7509 43.9162C45.4305 43.7239 45.3024 43.5317 45.3024 43.4035C45.3024 43.2754 45.3665 43.2113 45.5587 43.2113C45.7509 43.2113 45.8791 43.2754 46.0713 43.3395L55.8751 50.0035C56.0673 50.1316 56.2595 50.1316 56.5158 50.1316C56.9644 50.1316 57.2207 49.9394 57.2207 49.4908C57.2207 49.2986 57.1566 49.0423 57.0925 48.8501L55.8751 44.8132L56.5799 45.2618ZM54.3372 40.0715L51.3897 30.6522C51.3897 30.2037 51.4538 30.0115 51.646 30.0115C51.7741 30.0115 51.9023 30.1396 51.9664 30.3319L55.1061 40.0715H54.3372ZM46.0072 45.5181C45.9432 45.454 45.8791 45.454 45.815 45.3899L44.2131 49.8753C44.149 50.1316 43.9568 50.3238 43.7005 50.452C43.4442 50.5802 43.1878 50.7083 42.9315 50.7083C42.6112 50.6442 42.483 50.5802 42.483 50.452C42.483 50.1957 42.6752 50.0675 43.0597 50.0675C43.1878 50.0675 43.3801 50.0035 43.4442 49.8753C43.5723 49.8112 43.7005 49.6831 43.7645 49.4908L45.2383 45.0695L46.0072 45.5181ZM46.9684 40.0715L48.9548 34.1124C49.0188 33.9202 49.147 33.792 49.3392 33.792C49.5315 33.792 49.5955 33.9842 49.5955 34.3046L47.6092 40.1356L46.9684 40.0715ZM94.6416 38.1492C94.6416 38.0852 94.5775 37.957 94.5134 37.8929C94.4494 37.8289 94.3853 37.7007 94.3212 37.6366C94.2571 37.5725 94.193 37.5085 94.129 37.4444C94.129 37.124 94.1931 36.9959 94.3853 36.9959C94.5134 36.9959 94.5775 37.0599 94.6416 37.124C95.2824 37.8289 95.9872 38.4055 96.7561 38.8541C97.7173 39.3667 98.6784 39.7512 99.7037 40.1356C99.8959 40.1997 99.96 40.2638 99.96 40.3279C99.96 40.5201 99.8959 40.6482 99.7037 40.6482H99.6396C99.3192 40.5842 99.0629 40.5201 98.8066 40.3919C98.5503 40.3279 98.2299 40.1997 97.8454 40.0075C97.5891 39.8793 97.3328 39.8152 97.0124 39.6871L94.6416 38.1492Z" fill="#D30071"/>
<path d="M9.35523 43.8523C9.35523 44.2368 9.35523 44.6853 9.4193 45.0698L12.8154 50.7086C13.0717 51.1571 13.5843 51.4134 14.0969 51.3493C14.6095 51.3493 15.1221 51.1571 15.5066 50.8367C15.8911 50.5804 16.1474 50.0678 16.1474 49.6192C16.1474 49.2348 16.0192 48.9144 15.827 48.594L12.4309 42.8912C12.1105 42.4426 11.5979 42.2504 11.0853 42.3145C10.2523 42.3145 9.73969 42.6349 9.61153 43.2756L9.35523 43.8523ZM8.71446 33.7282C8.84261 33.9845 9.03484 34.2408 9.163 34.4971C9.29115 34.7534 9.4193 34.9456 9.54746 35.202C9.67561 35.4583 9.80377 35.7146 9.996 35.9709C10.1241 35.7786 10.1882 35.5223 10.1882 35.266C10.1882 34.8816 9.996 34.4971 9.73969 34.2408C9.48338 33.9204 9.163 33.7282 8.71446 33.7282ZM6.34361 37.701C7.30477 37.765 8.33 37.6369 9.29115 37.3806C9.03484 36.868 8.5863 36.099 7.94553 35.0738C7.497 34.4971 7.17661 33.7923 6.98438 33.0874C6.98438 32.767 7.17661 32.5107 7.497 32.5107C7.81738 32.3826 8.13777 32.3185 8.45815 32.3185C9.22707 32.3185 9.93192 32.5748 10.5086 33.0233C11.1494 33.536 11.4698 34.2408 11.4057 35.0738C11.4057 35.3942 11.3416 35.7786 11.2775 36.099C11.0853 36.932 10.5727 37.6369 9.80377 37.9573C8.97077 38.2776 8.00961 38.4058 7.11254 38.4058H4.03684C3.52423 38.4058 3.07569 38.4058 2.56308 38.534C2.30677 38.598 2.05046 38.7903 1.92231 39.0466C1.79415 39.431 1.73008 39.8155 1.73008 40.2V49.427C1.73008 49.8756 1.85823 50.3241 2.24269 50.7086C2.56308 51.0289 2.94754 51.1571 3.39608 51.1571C3.90869 51.1571 4.35723 51.0289 4.74169 50.7086C5.12615 50.4522 5.31838 50.0037 5.31838 49.5552L5.25431 43.7883C5.19023 43.2756 5.38246 42.8271 5.76692 42.5067C6.08731 42.2504 6.53584 42.1223 6.98438 42.0582C7.43292 42.0582 7.81738 41.9941 8.13777 41.9941C9.54746 41.93 10.9571 41.4174 12.1105 40.6485C13.0717 40.0077 13.9047 39.1106 14.4173 38.0213C14.8658 36.9961 15.1221 35.9709 15.1221 34.8175C15.1862 33.536 14.8018 32.2544 13.9688 31.1651C13.328 30.3962 12.5591 29.7554 11.7261 29.1787C10.8931 28.7302 9.93192 28.4739 8.97077 28.4739H4.54946C3.84461 28.538 3.07569 28.7943 2.499 29.3069C1.98638 29.7554 1.73008 30.3962 1.73008 31.037C1.73008 31.5496 1.85823 32.0622 2.11454 32.4466L5.12615 37.701H6.34361ZM2.94754 36.8039L0.512615 32.767C0.192231 32.1903 0 31.4855 0 30.7806C0 29.8195 0.384461 28.8583 1.08931 28.1535C1.92231 27.3205 3.07569 26.936 4.29315 27.0001H9.48338C10.8931 27.0001 12.2387 27.3846 13.3921 28.1535C14.4814 28.8583 15.3785 29.9476 15.9551 31.101C16.5318 32.3185 16.8522 33.6641 16.8522 35.0097C16.8522 36.2913 16.5959 37.5087 16.0192 38.6621C15.5066 39.8155 14.6736 40.8407 13.5843 41.6096L16.9804 47.1203C17.493 47.8892 17.7493 48.7222 17.7493 49.6192C17.7493 50.5163 17.3648 51.4134 16.66 51.9901C15.9551 52.5668 15.0581 52.8872 14.161 52.8872C13.0076 52.9513 11.9824 52.3746 11.4057 51.4134C8.84261 47.1203 7.36884 44.6213 6.98438 43.9805V49.3629C7.04846 50.3241 6.664 51.2852 5.89507 51.8619C5.19023 52.4386 4.29315 52.759 3.332 52.759C2.499 52.759 1.666 52.5027 1.02523 51.926C0.384461 51.3493 0 50.5163 0.0640769 49.6833V40.0077C0 39.1747 0.256308 38.4058 0.704846 37.765C1.28154 37.0602 2.11454 36.7398 2.94754 36.8039ZM24.8618 51.2852H34.153C34.6656 51.2852 35.1782 51.093 35.5627 50.7086C35.8831 50.3241 36.0753 49.8756 36.0753 49.3629C36.0753 48.8503 35.8831 48.4018 35.5627 48.0814C35.1782 47.6969 34.6015 47.5047 34.0889 47.5047H28.4501C27.2968 47.5047 26.7841 47.0562 26.7841 46.2232V42.763C26.7841 41.7378 27.2968 41.2252 28.2579 41.2252H32.5511C33.1278 41.2252 33.7044 40.9689 34.153 40.5844C34.6015 40.2 34.8578 39.6233 34.8578 39.0466C34.8578 38.2776 34.4734 37.5728 33.8326 37.1883L28.1298 32.3185H32.9996C33.6404 32.3826 34.3452 32.1263 34.8578 31.7418C35.3064 31.4214 35.4986 30.9088 35.4986 30.3962C35.4986 29.9476 35.3064 29.4991 34.9219 29.1787C34.4734 28.7943 33.8967 28.6661 33.32 28.6661H24.6055C23.9007 28.602 23.2599 28.7943 22.6832 29.1787C22.2988 29.4991 22.0425 30.0117 22.0425 30.5243C22.1065 31.4214 22.5551 32.2544 23.324 32.8311L29.0268 37.5728H24.7978C24.2851 37.5728 23.7725 37.765 23.4521 38.2136C23.1318 38.598 23.0036 39.0466 23.0036 39.4951V49.0426C23.0036 49.6193 23.0677 50.1959 23.324 50.7086C23.5162 51.093 24.0288 51.2852 24.8618 51.2852ZM24.4774 35.7786L21.658 33.2796C20.825 32.5748 20.3765 31.5496 20.4405 30.5243C20.4405 29.9476 20.5687 29.3069 20.825 28.7943C21.0813 28.2816 21.5298 27.8331 22.1065 27.5127C22.7473 27.1923 23.4521 27.0001 24.157 27.0001H33.6404C34.6015 26.936 35.4986 27.3205 36.1394 28.0253C36.7801 28.6661 37.1005 29.4991 37.1005 30.3962C37.1005 31.3573 36.7161 32.2544 36.0112 32.8952C35.1141 33.6641 33.8967 34.0486 32.7433 33.9204L35.6268 36.6116C36.3316 37.2524 36.652 38.1495 36.652 39.1106C36.652 40.0718 36.3316 40.9689 35.6908 41.6737C34.986 42.4426 34.0248 42.8271 32.9996 42.763H28.5142V45.9669L34.5374 46.0309C35.4345 45.9669 36.2675 46.3513 36.7801 47.0562C37.3568 47.6969 37.6131 48.594 37.6131 49.427C37.6772 51.2212 36.2675 52.759 34.4093 52.8231C34.2811 52.8231 34.153 52.8231 34.0248 52.8231H24.4774C22.3628 52.8231 21.2735 51.6697 21.2735 49.3629V39.3029C21.2735 38.4699 21.5298 37.701 22.0425 36.9961C22.6191 36.2913 23.5162 35.8427 24.4774 35.7786ZM49.7877 38.3417L49.3392 40.2H50.3644L49.7877 38.3417ZM55.875 44.9416C55.6828 44.8776 55.4265 44.8135 55.1702 44.8135C54.4013 44.7494 53.7605 45.1979 53.5042 45.9028C52.4149 45.262 51.4537 44.5572 50.5567 43.9805H56.708C57.1566 43.9805 57.6051 43.8523 57.9255 43.4679C58.1818 43.1475 58.3741 42.763 58.3741 42.3145C58.3741 41.93 58.2459 41.4815 57.9896 41.2252C57.6692 40.9048 57.2847 40.7126 56.8362 40.7766H45.815C45.3664 40.7766 44.9179 40.9689 44.5975 41.3533C44.2771 41.6737 44.0849 42.1863 44.0208 42.6349C44.0208 43.2116 44.3412 43.7242 44.8538 43.9805L55.1061 50.9649C55.4906 51.2212 55.8751 51.3493 56.3236 51.4134C56.8362 51.4134 57.3488 51.1571 57.6692 50.7086C57.9896 50.3882 58.1177 50.0037 58.1818 49.6192C58.0537 48.7222 57.7974 47.761 57.477 46.8639C57.1566 45.9028 56.8362 45.3902 56.5158 45.3261L55.875 44.9416ZM55.6187 40.2L52.479 30.268C52.2867 29.7554 51.9664 29.3069 51.5178 29.0506C51.0693 28.7302 50.4926 28.602 49.9159 28.602C49.4033 28.602 48.8266 28.7302 48.4421 29.0506C47.9936 29.371 47.6732 29.8836 47.481 30.3962L41.3296 48.4659C41.2014 48.7863 41.1374 49.1707 41.1374 49.5552C41.1374 50.0678 41.3296 50.5804 41.7141 50.9008C42.0344 51.2212 42.5471 51.4134 42.9956 51.4134C43.3801 51.4134 43.7645 51.2852 44.0849 51.093C44.4053 50.9008 44.6616 50.5804 44.7257 50.1959L46.2635 45.8387C46.1994 45.7746 46.1354 45.7106 46.0713 45.6465C46.0072 45.5824 45.9431 45.5824 45.8791 45.5183L45.3664 45.1979L44.4694 44.4931C43.8286 44.1086 43.5082 43.4038 43.5082 42.6349C43.5082 41.9941 43.7004 41.4174 44.149 40.9689C44.5975 40.5203 45.1742 40.2 45.815 40.264H48.1858L49.98 35.0738L51.5819 40.264L55.6187 40.2ZM39.7918 48.1455L46.1354 29.6273C46.3917 28.7943 46.9684 28.1535 47.7373 27.705C48.4421 27.2564 49.3392 27.0001 50.2363 27.0001C51.0693 27.0001 51.8382 27.2564 52.5431 27.705C53.1838 28.2176 53.6964 28.9224 53.8887 29.7554L56.9644 39.367C57.7333 39.367 58.5022 39.6873 59.0789 40.264C59.5915 40.8407 59.9119 41.6096 59.9119 42.3786C59.9119 43.4038 59.3993 44.3649 58.5022 44.9416L59.7197 48.6581C59.7837 48.9144 59.8478 49.2348 59.8478 49.5552C59.8478 50.1959 59.6556 50.7726 59.3352 51.2852C59.0148 51.7979 58.5022 52.2464 57.9896 52.5668C57.477 52.8872 56.9003 53.0153 56.2595 53.0153C55.6828 53.0153 55.1702 52.8872 54.7217 52.5668L47.4169 47.5688L46.2635 50.5804C46.0072 51.2212 45.5587 51.7979 44.982 52.1823C43.6364 53.0153 41.8422 52.8872 40.6248 51.8619C39.9199 51.2852 39.5354 50.4523 39.5995 49.5552C39.5354 49.0426 39.6636 48.594 39.7918 48.1455ZM64.5254 30.8447V49.0426C64.5254 49.6193 64.6536 50.1959 64.9099 50.7086C65.1662 51.093 65.7429 51.3493 66.704 51.3493H73.1117C73.6244 51.3493 74.137 51.1571 74.5214 50.7726C74.8418 50.3882 75.034 49.9396 75.034 49.427C75.0981 48.5299 74.3292 47.761 73.4321 47.6969C73.368 47.6969 73.304 47.6969 73.2399 47.6969H69.6516C69.0749 47.6969 68.6904 47.5047 68.4982 47.1843C68.37 46.928 68.2419 46.6076 68.2419 46.2873V30.8447C68.306 30.268 68.1137 29.6273 67.7293 29.1787C67.4089 28.7943 66.9604 28.602 66.4477 28.602C65.9351 28.602 65.4866 28.7943 65.1021 29.1787C64.6536 29.6913 64.4614 30.268 64.5254 30.8447ZM62.9235 31.101C62.9235 30.3321 63.0517 29.5632 63.4361 28.8583C63.7565 28.2816 64.205 27.8331 64.7177 27.4487C66.0633 26.6797 67.7293 26.872 68.8186 28.0253C69.5234 28.7943 69.9079 29.8195 69.8438 30.8447V45.3902C69.8438 45.9028 70.1001 46.1591 70.6768 46.1591H72.9836C74.0088 46.095 74.97 46.4795 75.6748 47.1843C76.3156 47.8251 76.636 48.7222 76.636 49.6192C76.636 50.4522 76.3156 51.2852 75.803 51.926C75.1622 52.5668 74.3292 52.9513 73.368 52.8872H66.3196C65.3584 52.9513 64.4614 52.5027 63.8206 51.7979C63.2439 51.093 62.9235 50.1959 62.9235 49.2989V31.101ZM80.6087 30.7806V48.7222C80.5447 49.427 80.7369 50.0678 81.1854 50.6445C81.5058 51.093 81.9544 51.3493 82.531 51.3493C83.0437 51.3493 83.5563 51.093 83.8766 50.7086C84.2611 50.26 84.5174 49.6192 84.4533 48.9785V30.7806C84.5174 30.1399 84.3252 29.5632 83.8766 29.1146C83.5563 28.7302 83.0437 28.538 82.531 28.538C82.0184 28.538 81.5058 28.7302 81.1854 29.1146C80.801 29.5632 80.5447 30.204 80.6087 30.7806ZM79.0709 30.6525C79.0068 29.6273 79.3913 28.6661 80.1602 27.9613C80.865 27.3205 81.7621 27.0001 82.6592 27.0001C83.5563 27.0001 84.3893 27.3205 85.03 27.9613C85.7349 28.6661 86.0553 29.6273 85.9912 30.5884V48.9785C85.9912 49.7474 85.863 50.4523 85.5427 51.1571C85.2863 51.7338 84.8378 52.1823 84.2611 52.5027C83.7485 52.8231 83.1718 52.9512 82.5951 52.9512C81.634 52.9512 80.7369 52.5668 80.0961 51.8619C79.3913 51.093 79.0068 50.0678 79.0068 48.9785L79.0709 30.6525ZM97.2687 42.1223C96.628 42.8271 96.3076 43.7242 96.2435 44.6213C96.2435 45.1979 96.4998 45.7106 97.0124 45.9669C97.9736 46.5436 99.191 46.4795 100.152 45.9028C100.601 45.5824 100.857 45.0698 100.793 44.4931C100.793 43.8523 100.408 43.2756 99.8318 42.9553C98.9988 42.6349 98.1658 42.3145 97.2687 42.1223ZM96.9483 40.0077C96.9483 40.1359 97.0124 40.264 97.1406 40.3281C97.9095 40.5844 98.4862 40.7766 98.8707 40.9048C99.3192 41.097 99.7677 41.2893 100.216 41.4815C100.729 41.7378 101.177 42.0582 101.562 42.4426C101.946 42.763 102.203 43.2116 102.267 43.7242C102.331 43.9805 102.331 44.2368 102.331 44.5572C102.331 45.5183 101.946 46.4154 101.177 46.9921C100.473 47.5688 99.5755 47.9533 98.6143 47.9533C97.6532 47.9533 96.628 47.6969 95.795 47.1843C94.962 46.7358 94.4493 45.8387 94.5134 44.8776C94.5134 44.2368 94.7057 43.596 95.026 43.0193C95.1542 42.6989 95.3464 42.3786 95.6027 42.0582C95.859 41.7378 96.0513 41.4174 96.1794 41.097C96.3076 40.8407 96.3076 40.5844 96.3076 40.3281C96.3076 39.9436 96.1794 39.6233 95.9872 39.3029C95.7309 39.0466 95.4105 38.8543 95.026 38.9184C94.3853 38.9825 93.8086 39.1747 93.296 39.5592C92.463 40.1359 91.8222 40.9048 91.4377 41.8019C90.9892 42.6989 90.797 43.7242 90.797 44.7494C90.797 45.8387 91.0533 46.8639 91.5018 47.8251C91.8863 48.7222 92.527 49.4911 93.36 50.0037C94.8338 50.9008 96.4998 51.4134 98.1658 51.3493C99.3833 51.3493 100.601 51.093 101.754 50.5804C102.843 50.0678 103.805 49.3629 104.573 48.4659C105.342 47.5688 105.791 46.5436 105.983 45.3902C106.047 44.9416 106.111 44.4931 106.111 44.0446C106.111 41.2252 104.702 39.3029 101.818 38.1495C101.434 37.9573 100.921 37.8291 100.344 37.6369C99.7677 37.4446 99.2551 37.2524 98.8707 37.0602C98.4221 36.868 98.0376 36.6757 97.6532 36.4194C96.7561 35.9709 96.2435 35.1379 96.2435 34.1126C96.2435 33.536 96.4998 32.9593 96.9483 32.5748C97.525 32.1263 98.2299 31.87 98.9988 31.934C99.8959 32.1263 100.793 32.4466 101.562 32.8952C101.754 32.9593 101.946 33.0233 102.139 33.0233C102.651 33.0233 103.1 32.8311 103.484 32.5107C103.869 32.2544 104.061 31.8059 104.125 31.2933C104.125 30.5884 103.612 29.9476 102.587 29.3069C101.498 28.6661 100.28 28.4098 99.0629 28.4098C97.8454 28.4098 96.692 28.6661 95.6027 29.2428C94.5775 29.7554 93.7445 30.5884 93.1678 31.6136C92.7193 32.4466 92.527 33.3437 92.527 34.3049C92.463 35.7786 93.1678 37.2524 94.3212 38.2136C94.3853 38.2776 94.4493 38.3417 94.5775 38.3417C95.2183 38.2136 95.859 38.4058 96.3716 38.7903C96.692 39.1106 96.8843 39.5592 96.9483 40.0077ZM92.2707 38.4058C91.3736 37.2524 90.861 35.7786 90.861 34.3049C90.861 32.8952 91.3096 31.5496 92.0785 30.3962C92.7833 29.2428 93.8727 28.3457 95.0901 27.8331C96.3716 27.2564 97.7813 26.936 99.191 26.936C99.7677 26.936 100.409 27.0001 100.985 27.1283C102.267 27.3846 103.484 27.9613 104.445 28.8583C105.15 29.4991 105.535 30.3321 105.599 31.2933C105.599 32.1263 105.214 32.8952 104.638 33.4719C103.933 34.1126 103.036 34.433 102.139 34.369C101.177 34.369 100.28 34.1126 99.4473 33.6C99.191 33.4719 98.8707 33.3437 98.5503 33.3437C97.9095 33.4078 97.6532 33.6 97.6532 34.1126C97.6532 34.4971 97.9095 34.8816 98.294 35.0097C98.8066 35.3301 99.3833 35.6505 99.96 35.8427C100.601 36.099 101.306 36.3553 102.074 36.6116C102.715 36.868 103.356 37.1243 103.997 37.5087C105.15 38.1495 106.111 39.1106 106.752 40.264C107.329 41.3533 107.649 42.6349 107.649 43.8523C107.649 45.0057 107.457 46.1591 107.008 47.1843C106.624 48.2096 105.983 49.1066 105.278 49.8756C104.381 50.8367 103.228 51.5416 102.01 51.9901C100.793 52.4386 99.4473 52.6949 98.1017 52.6949C96.2435 52.6949 94.4493 52.2464 92.8474 51.3493C91.3736 50.6445 90.2843 49.3629 89.7076 47.8251C89.3873 46.8639 89.195 45.8387 89.195 44.8135C89.0669 42.4426 90.2843 40.0077 92.2707 38.4058ZM115.018 37.765V49.3629C115.018 49.8756 115.21 50.4522 115.659 50.7726C116.043 51.093 116.556 51.2852 117.068 51.2852C117.517 51.2852 117.966 51.093 118.286 50.8367C118.67 50.4523 118.799 49.9396 118.799 49.427V36.2913C118.799 35.7786 118.67 35.3301 118.35 34.9456C117.901 34.4971 117.389 34.0486 116.876 33.6641C116.364 33.2796 115.851 32.8311 115.402 32.3185H122.323C122.899 32.3826 123.412 32.1903 123.797 31.8059C124.117 31.4855 124.309 31.037 124.309 30.5884C124.309 30.0758 124.053 29.5632 123.668 29.2428C123.156 28.7943 122.515 28.602 121.874 28.6661H111.173C110.725 28.6661 110.276 28.9224 110.02 29.2428C109.636 29.6273 109.443 30.0758 109.443 30.5884C109.443 31.3573 109.828 32.0622 110.469 32.5107C110.917 32.8952 111.43 33.3437 111.942 33.7282C112.455 34.1767 112.903 34.4971 113.224 34.7534C113.544 35.0738 113.929 35.3942 114.249 35.7146C114.826 36.2913 115.082 36.9961 115.018 37.765ZM113.48 49.2989V38.9825C113.544 38.3417 113.416 37.701 113.224 37.1243C112.903 36.5476 112.391 36.035 111.878 35.6505C111.494 35.3942 111.237 35.1379 111.045 35.0097C110.853 34.8175 110.533 34.6253 110.148 34.3049C109.764 33.9845 109.443 33.7282 109.251 33.536C109.059 33.3437 108.867 33.1515 108.738 32.8952C108.226 32.1903 107.97 31.3573 107.97 30.5243C107.97 29.6273 108.29 28.7302 108.867 28.0253C109.507 27.3205 110.469 26.936 111.43 27.0001H122.131C122.899 27.0001 123.604 27.1283 124.245 27.5127C124.822 27.8331 125.27 28.2816 125.591 28.8583C125.911 29.371 126.039 30.0117 126.039 30.6525C126.039 31.5496 125.719 32.3826 125.142 33.0233C124.501 33.7282 123.54 34.0486 122.579 34.0486H119.632C119.952 34.2408 120.208 34.4971 120.272 34.8816C120.4 35.4583 120.465 36.099 120.4 36.6757V49.5552C120.465 50.4523 120.144 51.4134 119.439 52.0542C118.799 52.6309 117.966 52.9513 117.133 52.8872C116.492 52.8872 115.915 52.759 115.338 52.4386C114.762 52.1823 114.313 51.7338 113.929 51.2212C113.672 50.6445 113.48 50.0037 113.48 49.2989ZM130.076 30.7806V48.7222C130.012 49.427 130.204 50.0678 130.653 50.6445C130.973 51.093 131.486 51.3493 131.998 51.3493C132.511 51.3493 133.024 51.093 133.344 50.7086C133.728 50.1959 133.985 49.6192 133.921 48.9785V30.7806C133.985 30.1399 133.793 29.5632 133.344 29.1146C133.024 28.7302 132.511 28.538 131.998 28.538C131.486 28.538 130.973 28.7302 130.653 29.1146C130.268 29.5632 130.012 30.204 130.076 30.7806ZM128.538 30.6525C128.474 29.6273 128.859 28.6661 129.628 27.9613C130.332 27.3205 131.229 27.0001 132.127 27.0001C133.024 27.0001 133.857 27.3205 134.497 27.9613C135.202 28.6661 135.523 29.6273 135.459 30.5884V48.9785C135.459 49.7474 135.33 50.4523 135.01 51.1571C134.754 51.7338 134.305 52.1823 133.728 52.5027C133.216 52.8231 132.639 52.9512 132.062 52.9512C131.101 52.9512 130.204 52.5668 129.563 51.8619C128.859 51.093 128.474 50.0678 128.538 48.9785V30.6525ZM155.515 46.6717C154.233 47.3766 152.823 47.6969 151.35 47.6969C150.004 47.6969 148.722 47.3766 147.569 46.6717C145.262 45.3261 143.853 42.8912 143.789 40.2C143.789 38.8543 144.173 37.5087 144.814 36.2913C145.455 35.0738 146.48 34.0486 147.633 33.2796C148.851 32.5107 150.26 32.1263 151.67 32.1263C153.208 32.1903 154.746 32.5748 156.091 33.3437C156.284 33.4719 156.54 33.536 156.796 33.536C157.245 33.536 157.629 33.3437 157.885 33.0233C158.206 32.703 158.334 32.2544 158.334 31.8059C158.334 30.7806 157.757 30.0758 156.54 29.5632C154.938 28.9224 153.272 28.602 151.606 28.602C150.004 28.602 148.466 28.9224 146.992 29.5632C145.583 30.204 144.301 31.101 143.276 32.1903C142.251 33.2796 141.418 34.6253 140.841 36.035C140.264 37.4446 139.944 38.9825 139.944 40.5203C139.944 41.9941 140.328 43.4679 140.969 44.8135C141.61 46.1591 142.507 47.3125 143.596 48.2736C144.686 49.2989 145.967 50.0678 147.313 50.5804C148.658 51.093 150.068 51.4134 151.478 51.4134C153.528 51.4134 155.515 50.8367 157.181 49.6833C157.757 49.3629 158.142 48.7222 158.206 48.0814C158.206 47.6329 158.014 47.2484 157.693 46.928C157.373 46.6076 156.924 46.4154 156.476 46.4154C156.155 46.4154 155.835 46.4795 155.515 46.6717ZM158.206 50.8367C156.219 52.1823 153.785 52.9512 151.414 52.9512C149.748 52.9512 148.146 52.6309 146.608 51.9901C145.07 51.3493 143.66 50.4522 142.443 49.2989C141.225 48.2096 140.264 46.8639 139.559 45.3902C138.855 43.9805 138.47 42.3786 138.47 40.7766C138.47 38.4058 139.047 36.035 140.2 33.9204C141.354 31.87 142.956 30.1399 145.006 28.8583C146.992 27.6409 149.299 27.0001 151.67 27.0001C153.592 27.0001 155.515 27.4487 157.245 28.2176C158.078 28.538 158.783 29.0506 159.295 29.7554C159.744 30.3321 160 31.101 160 31.8059C160 32.6389 159.744 33.4078 159.167 33.9845C158.654 34.6253 157.821 34.9456 157.052 34.8816C156.412 34.8816 155.771 34.6893 155.194 34.433C154.169 33.9204 152.952 33.6 151.798 33.536C150.645 33.536 149.491 33.8563 148.53 34.4971C147.569 35.1379 146.8 35.9709 146.288 36.932C145.775 37.8291 145.519 38.8543 145.455 39.9436C145.455 40.9689 145.775 42.0582 146.288 42.9553C146.864 43.9164 147.633 44.6853 148.594 45.1979C149.555 45.7746 150.645 46.095 151.734 46.0309C152.952 46.0309 154.169 45.7106 155.194 45.1339C155.707 44.8135 156.284 44.6853 156.86 44.6853C157.693 44.6853 158.462 45.0057 158.975 45.6465C159.551 46.2873 159.808 47.0562 159.808 47.8892C159.744 49.1707 159.167 50.1959 158.206 50.8367Z" fill="#D30071"/>
</svg>
