<svg width="160" height="80" viewBox="0 0 160 80" fill="none" xmlns="http://www.w3.org/2000/svg">
<path d="M145.106 21.5362H134.133C136.679 17.6445 142.648 8.45647 142.707 8.31017C143.233 6.87637 143.321 3.86247 140.161 1.63862C138.639 0.585223 136.737 0 134.836 0C133.724 0 131.646 0.204828 130.505 1.69715C130.417 1.81419 117.337 21.3314 117.337 21.3314C117.279 21.3899 117.25 21.4777 117.22 21.5362H23.5846C21.5656 21.5362 19.6636 23.1163 19.3125 25.0476L12.0557 64.8427C11.7046 66.774 13.0506 68.3541 15.0404 68.3541H92.9628L114.177 79.5026C114.558 79.7074 115.172 80 116.43 80C117.542 80 118.157 79.2977 118.654 78.5662L121.375 74.5574C121.961 73.7089 121.99 72.6262 121.463 71.7191C120.761 70.5487 119.093 69.2026 116.577 69.2026C115.933 69.2026 115.26 69.2904 114.558 69.466L113.094 68.3248H136.591C138.61 68.3248 140.512 66.7447 140.863 64.8135L148.12 25.0183C148.442 23.1163 147.125 21.5362 145.106 21.5362Z" fill="white"/>
<path d="M37.2788 33.7965C37.7763 30.8704 37.4251 28.6173 36.1962 27.1542C35.0257 25.7789 33.1237 25.0767 30.5195 25.0767C29.7002 25.0767 23.0579 25.1352 23.0579 25.1352L18.4932 51.3824H24.3747L25.8962 42.6041H26.7448L30.1976 51.3824H37.1618L32.7726 41.1703C35.172 39.678 36.6936 37.1908 37.2788 33.7965ZM28.3834 31.6897C28.7346 31.6897 28.9687 31.6604 29.1442 31.6604C29.2613 31.6604 29.3491 31.6312 29.3783 31.6312C30.1391 31.6312 30.6658 31.8067 30.9584 32.1286C31.2218 32.4505 31.2803 32.9479 31.1632 33.6794C30.8706 35.3181 29.8758 36.1081 28.0323 36.1081H27.0374L27.7982 31.7189C28.003 31.6897 28.1786 31.6897 28.3834 31.6897Z" fill="#F40023"/>
<path d="M49.1589 31.719L50.3001 25.1646H36.957L36.8107 26.0716C36.9277 26.1887 37.0155 26.2765 37.1033 26.3935C38.5663 28.1492 39.0345 30.6949 38.4493 33.9722C37.8641 37.3079 36.4303 39.8537 34.2064 41.5801L38.42 51.3825H46.0279L47.1691 44.828H39.4149L40.0001 41.463H46.5839L47.7251 34.9085H41.1413L41.6973 31.6605H49.1589V31.719Z" fill="#F40023"/>
<path d="M67.3885 28.8515C65.7792 26.335 62.9116 25.1646 58.8735 25.1646C58.7272 25.1646 51.8801 25.1646 51.8801 25.1646L47.3154 51.4118C47.3154 51.4118 53.4895 51.4703 54.2503 51.4703C58.142 51.4703 61.4192 50.1828 63.965 47.6956C66.5107 45.1792 68.1493 41.9897 68.7931 38.1858C69.4368 34.4403 68.9686 31.3094 67.3885 28.8515ZM55.3329 44.9451C54.9818 44.9451 54.6599 44.9451 54.338 44.9158L56.6497 31.6605C56.9716 31.6313 57.4105 31.602 57.8786 31.602C59.7221 31.602 61.0389 32.1287 61.8874 33.2406C62.7653 34.3526 62.9994 35.9327 62.6482 37.9809C62.2678 40.1755 61.4192 41.9019 60.1025 43.1309C58.8443 44.3306 57.2642 44.9451 55.3329 44.9451Z" fill="#F40023"/>
<path d="M87.3446 33.7967C87.8421 30.8706 87.4909 28.6175 86.262 27.1544C85.0915 25.7792 83.1895 25.0769 80.5853 25.0769C79.766 25.0769 73.1237 25.1354 73.1237 25.1354L68.559 51.3827H74.4404L75.962 42.6043H76.8106L80.2634 51.3827H87.1983L82.8091 41.1705C85.2086 39.6782 86.7594 37.191 87.3446 33.7967ZM78.42 31.6899C78.7711 31.6899 79.0052 31.6607 79.1808 31.6607C79.2978 31.6607 79.3856 31.6314 79.4148 31.6314C80.1756 31.6314 80.7023 31.807 80.995 32.1288C81.2583 32.4507 81.3168 32.9482 81.1998 33.6797C80.9072 35.3183 79.9123 36.1084 78.0688 36.1084H77.074L77.8347 31.7192C78.0396 31.6899 78.2151 31.6899 78.42 31.6899Z" fill="#474545"/>
<path d="M98.8442 25.1646H93.8113L88.4273 35.64L86.0279 40.3218L84.9452 42.4286L87.8713 49.2465H96.6789L97.0008 51.3825H103.204L98.8442 25.1646ZM90.3 43.5698L94.5429 35.0256L95.8303 43.5698H90.3Z" fill="#474545"/>
<path d="M127.93 25.1646H120.79L113.446 34.4989L115.055 25.1646H109.173L104.609 51.4118H110.49L112.304 40.9948L116.606 51.4118H123.833L117.659 37.425L127.93 25.1646Z" fill="#474545"/>
<path d="M141.975 31.719L143.116 25.1646H129.773L125.238 51.4118H138.844L139.985 44.8573H132.231L132.816 41.4923H139.4L140.541 34.9378H133.958L134.514 31.719H141.975Z" fill="#474545"/>
<path d="M21.0682 57.3809C20.8048 57.1468 20.3952 57.0005 19.81 57.0005C18.2006 57.0005 17.7617 57.8491 17.4691 59.5462L17.0594 61.9749C16.8838 62.999 16.8546 63.7598 17.3228 64.1987C17.5861 64.4621 17.9958 64.5791 18.581 64.5791C20.3074 64.5791 20.6585 63.4087 20.8634 62.209L21.156 60.4533H18.9321L18.7858 61.3311H20.0733L19.927 62.1504C19.7222 63.3209 19.4296 63.672 18.6102 63.672C18.3176 63.672 18.1128 63.6135 17.9958 63.5257C17.7324 63.2916 17.8495 62.6479 17.9372 62.0919L18.3469 59.634C18.5517 58.3758 18.7273 57.9368 19.6636 57.9368C19.9563 57.9368 20.1611 57.9954 20.2781 58.0832C20.4537 58.2295 20.483 58.5806 20.3952 59.2243L20.3659 59.4877L21.273 59.4584L21.3023 59.2536C21.5364 58.2587 21.4486 57.732 21.0682 57.3809Z" fill="#474545"/>
<path d="M29.3489 57.0884H28.4418L25.6035 64.5207H26.6277L27.2714 62.7943H28.5882L28.6467 64.5207H29.6123L29.3489 57.0884ZM27.6225 61.9165L28.5296 59.4878L28.5882 61.9165H27.6225Z" fill="#474545"/>
<path d="M39.0345 57.0884L37.4544 60.629L37.074 57.0884H36.1669L34.8795 64.5207H35.8451L36.5181 60.6582L36.7814 62.9406H37.3667L38.3908 60.6875L37.747 64.5207H38.7127L40.0002 57.0884H39.0345Z" fill="#474545"/>
<path d="M45.7354 57.0884L44.4479 64.5207H45.4428L46.701 57.0884H45.7354Z" fill="#474545"/>
<path d="M54.8063 57.0884L54.1626 60.7753L54.0748 61.419L53.3432 57.0884H52.4654L51.1779 64.5207H52.1435L52.8458 60.5705L52.8751 60.2486L53.5481 64.5207H54.4844L55.7719 57.0884H54.8063Z" fill="#474545"/>
<path d="M64.5796 57.3809C64.3162 57.1468 63.9066 57.0005 63.3214 57.0005C61.712 57.0005 61.2731 57.8491 60.9805 59.5462L60.5708 61.9749C60.3952 62.999 60.366 63.7598 60.8342 64.1987C61.0975 64.4621 61.5072 64.5791 62.0924 64.5791C63.8188 64.5791 64.1699 63.4087 64.3748 62.209L64.6674 60.4533H62.4435L62.2972 61.3311H63.5847L63.4384 62.1504C63.2336 63.3209 62.941 63.672 62.1217 63.672C61.829 63.672 61.6242 63.6135 61.5072 63.5257C61.2438 63.2916 61.3609 62.6479 61.4487 62.0919L61.8583 59.634C62.0631 58.3758 62.2387 57.9368 63.1751 57.9368C63.4677 57.9368 63.6725 57.9954 63.7895 58.0832C63.9651 58.2295 63.9944 58.5806 63.9066 59.2243L63.8773 59.4877L64.7844 59.4584L64.8137 59.2536C65.0478 58.2587 64.96 57.732 64.5796 57.3809Z" fill="#474545"/>
<path d="M83.6872 60.5121L115.377 77.191L113.621 72.1288L98.5226 60.4243L81.7267 55.6255L83.6872 60.5121Z" fill="#F40023"/>
<path d="M114.411 72.3041L116.46 77.0737L119.181 73.0649C119.181 73.0942 117.923 70.9581 114.411 72.3041Z" fill="#F40023"/>
<path d="M82.7215 55.1569L86.8181 56.5322C86.8181 56.5029 87.8715 53.9865 82.7215 55.1569Z" fill="#F40023"/>
<path d="M106.452 53.1965H102.268L97.9373 59.634L98.9907 59.9266L100.746 61.5945L106.452 53.1965Z" fill="#F40023"/>
<path d="M136.211 6.81732C134.28 5.64687 132.261 5.64687 130.739 5.99801C128.749 8.95338 125.589 13.6937 123.102 17.4099C124.741 17.1465 126.672 17.3221 128.457 18.4047C130.329 19.5459 130.768 20.8627 130.798 21.8283L138.171 10.5627C138.376 9.88974 138.581 8.22185 136.211 6.81732Z" fill="#F40023"/>
<path d="M128.164 18.9026C126.204 17.7322 124.185 17.7322 122.663 18.1126C120.878 20.8046 119.532 22.7943 119.532 22.7943H130.066C130.271 22.2969 130.739 20.4535 128.164 18.9026Z" fill="#F40023"/>
<path d="M138.64 3.80367C136.299 2.16504 133.226 2.48692 132.612 3.27697C132.495 3.42327 131.997 4.18406 131.237 5.29599C132.846 5.03264 134.777 5.23746 136.533 6.29087C138.289 7.34427 138.786 8.57324 138.874 9.50959L140.278 7.37353C140.249 7.40279 140.981 5.44229 138.64 3.80367Z" fill="#F40023"/>
</svg>
