<svg width="160" height="80" viewBox="0 0 160 80" fill="none" xmlns="http://www.w3.org/2000/svg">
<g clip-path="url(#clip0)">
<path d="M158.954 15.1259C158.496 14.7824 158.124 15.0543 157.695 15.0543C156.435 15.0686 155.176 15.0257 153.902 14.9684C153.573 14.9541 153.372 15.0114 153.301 15.3835C152.857 17.6019 151.912 19.7059 151.54 21.9529C151.44 22.597 151.268 23.2268 151.139 23.8708C150.309 20.9797 149.007 18.2889 148.019 15.5123C147.876 15.0972 147.647 14.9827 147.246 14.9827C145.815 14.9971 144.398 14.9971 142.967 15.0114C141.865 15.0257 141.722 15.2117 141.965 16.3138C142.008 16.4712 142.051 16.643 142.123 16.7861C142.967 18.1887 143.368 19.7631 143.897 21.2803C145.171 24.887 146.502 28.4795 147.433 32.215C147.533 32.6158 147.647 33.0165 147.475 33.403C147.375 33.6463 147.361 33.8324 147.461 34.0614C147.676 34.548 147.762 35.0346 146.932 34.9344C147.017 35.2636 147.304 35.1777 147.461 35.3209C147.604 35.464 147.805 35.6644 147.676 35.7932C147.246 36.2941 147.475 36.838 147.49 37.3676C147.576 40.0869 147.704 42.792 147.819 45.5114C147.833 45.7404 147.704 46.0696 148.191 46.0123C149.78 45.8263 151.383 45.9694 152.971 45.9121C153.973 45.8835 153.988 45.9121 153.973 44.8673C153.916 42.0334 153.959 39.1852 153.759 36.3657C153.587 33.7751 153.973 31.3277 154.889 28.9088C155.963 26.0893 157.151 23.3126 157.895 20.3786C158.21 19.1477 158.553 17.9168 159.384 16.872C159.913 16.2279 159.598 15.6125 158.954 15.1259Z" fill="#D9291C"/>
<path d="M121.87 40.1729C120.053 40.1729 118.249 40.1586 116.432 40.2015C115.859 40.2159 115.659 40.1014 115.659 39.4859C115.673 33.4317 115.644 27.3775 115.63 21.3233C115.63 19.4627 115.587 17.602 115.616 15.7414C115.63 15.2261 115.458 15.0973 114.972 15.126C114.185 15.1689 113.383 15.0544 112.61 15.1689C111.88 15.2691 111.193 15.0115 110.463 15.0401C109.805 15.0544 109.962 15.2977 109.962 15.5983C109.934 16.9723 109.905 18.3606 109.905 19.7489C109.891 23.327 109.905 26.9052 109.905 30.469C109.876 30.469 109.848 30.469 109.819 30.469C109.819 35.4212 109.819 40.3876 109.819 45.3397C109.819 45.6546 109.762 45.9266 110.263 45.9266C114.213 45.8836 118.178 45.855 122.128 45.8407C122.514 45.8407 122.6 45.6833 122.6 45.3254C122.572 43.9228 122.6 42.5202 122.729 41.1175C122.801 40.4305 122.557 40.1729 121.87 40.1729Z" fill="#D9291C"/>
<path d="M71.2181 51.5227C75.1969 51.5657 79.1615 51.6516 83.1261 51.7231C84.2854 51.7374 84.2854 51.7374 84.2854 50.5638C84.2854 43.8226 84.2854 37.0814 84.2854 30.3259C84.1852 30.3259 84.0993 30.3259 83.9991 30.3259C83.9991 26.7048 83.9991 23.0837 83.9991 19.4626C83.9991 16.228 84.0134 12.979 84.0564 9.74441C84.0707 9.15759 83.899 8.98584 83.2978 8.98584C77.673 9.02878 72.0625 9.02878 66.4377 9.0574C65.493 9.0574 65.536 9.07172 65.4787 10.0307C65.4501 10.4314 65.3929 10.8322 65.3929 11.2329C65.3929 15.7843 65.3785 20.3357 65.3929 24.8871C65.4072 29.9108 65.4358 34.9345 65.4358 39.9582C65.4358 43.6079 65.4215 47.2719 65.3785 50.9216C65.3785 51.4512 65.5932 51.5657 66.0226 51.5657C67.7687 51.5514 69.4862 51.5084 71.2181 51.5227ZM68.1552 45.125C68.1838 40.2445 68.1695 35.3496 68.1695 30.469C68.1981 30.469 68.2267 30.469 68.2554 30.469C68.2554 26.4185 68.2554 22.3681 68.2554 18.3033C68.2554 17.4159 68.284 16.5429 68.3126 15.6555C68.3269 15.3549 68.1265 15.04 68.8135 15.1116C70.2591 15.2547 71.7333 15.1832 73.1932 15.1402C73.7943 15.1259 73.8945 15.3406 73.8945 15.8702C73.9088 23.7135 73.9374 31.5567 73.9517 39.4C73.9517 40.0441 74.1092 40.2445 74.7676 40.2158C76.5709 40.1013 78.3886 40.316 80.192 40.2015C80.6357 40.1729 81.0221 40.3303 81.0078 40.9315C80.9506 42.4343 80.7931 43.9228 80.8504 45.4256C80.8647 45.8836 80.5498 45.7691 80.3208 45.7691C78.9898 45.7834 77.6587 45.7977 76.3133 45.812C73.8516 45.8264 71.4041 45.8264 68.9424 45.8836C68.3269 45.9122 68.1552 45.7548 68.1552 45.125Z" fill="#D9291C"/>
<path d="M42.2067 50.6927C42.178 43.9658 42.1923 37.2532 42.1923 30.5263C42.1923 24.2145 42.1923 17.8883 42.1923 11.5765C42.1923 9.55841 42.178 9.5441 40.1313 9.57272C38.4997 9.58704 36.8394 9.68723 35.2221 9.58704C31.644 9.38666 28.0802 9.47254 24.5163 9.38666C23.9438 9.37235 23.7578 9.71585 23.7291 10.1739C23.7005 10.6175 23.7291 11.0899 23.8007 11.5192C23.9725 12.4639 24.0011 13.4228 23.9295 14.3531C23.5717 18.5753 23.6576 22.8118 23.7291 27.034C23.8007 31.6284 23.6576 36.2084 23.2998 40.7741C23.2711 41.2178 23.1709 41.7044 23.2711 42.1195C23.6862 43.9085 23.1853 45.7548 23.7005 47.5439C23.9868 48.5744 23.815 49.6622 23.7291 50.7356C23.6862 51.3511 24.044 51.6802 24.6595 51.6946C25.1318 51.6946 25.6041 51.7375 26.0907 51.7375C31.1287 51.7089 36.1668 51.7089 41.2048 51.5801C41.9061 51.5657 42.2067 51.4942 42.2067 50.6927ZM39.5016 15.8559C39.4586 17.2586 39.4586 18.6755 39.473 20.0781C39.473 20.4932 39.3585 20.5934 38.9577 20.5934C37.3404 20.5791 35.7088 20.6077 34.0914 20.5791C33.6191 20.5648 33.4331 20.665 33.4331 21.1802C33.4331 23.0695 33.4044 24.9444 33.3758 26.8337C33.3615 27.2487 33.5189 27.3632 33.9054 27.3489C35.4511 27.3346 37.0112 27.3632 38.557 27.3203C39.1151 27.306 39.2296 27.4777 39.2153 28.0073C39.1867 29.367 39.2153 30.7267 39.2583 32.0864C39.2726 32.6302 39.1008 32.8449 38.514 32.8306C37.0541 32.7877 35.6086 32.8449 34.1487 32.802C33.5046 32.7877 33.2327 33.0167 33.2327 33.6607C33.2327 35.6645 33.2184 37.6683 33.1897 39.672C33.1754 40.1586 33.3758 40.2159 33.7766 40.2016C35.2508 40.173 36.7393 40.2159 38.2134 40.1586C38.8718 40.13 39.1867 40.2302 39.1438 41.0174C39.0579 42.3914 39.1151 43.7797 39.1295 45.168C39.1295 45.5974 39.0722 45.7978 38.557 45.7978C35.0504 45.7692 31.5438 45.7692 28.0372 45.7978C27.4504 45.7978 27.4647 45.5115 27.4647 45.1108C27.479 40.2302 27.4647 35.3353 27.4647 30.4547C27.5077 30.4547 27.5649 30.4547 27.6078 30.4547C27.6078 25.5885 27.6222 20.7222 27.5935 15.8702C27.5935 15.3264 27.708 15.0401 28.2805 15.1689C29.3826 15.4266 30.4847 15.1403 31.5867 15.1689C34.0199 15.2405 36.4387 15.2405 38.8718 15.2262C39.4014 15.1976 39.5159 15.3693 39.5016 15.8559Z" fill="#D9291C"/>
<path d="M62.9599 10.274C62.9456 9.8017 62.874 9.64426 62.3445 9.62995C60.4838 9.60132 58.6375 9.47251 56.7769 9.44388C53.1129 9.40095 49.4346 9.44388 45.7705 9.37232C44.511 9.3437 44.4252 9.81601 44.511 10.7606C44.5826 11.6623 44.7973 12.5497 44.74 13.4657C44.4967 17.4732 44.3965 21.4951 44.4681 25.5169C44.5253 28.2792 44.6685 31.0415 44.4538 33.7895C44.2534 36.2083 44.4538 38.6272 44.053 41.0317C43.9099 41.8475 44.282 42.6204 44.2534 43.4219C44.1675 45.8836 44.325 48.3454 44.4967 50.7928C44.5397 51.3797 44.8116 51.7232 45.4986 51.7088C47.5167 51.6945 49.5204 51.7804 51.5242 51.4942C52.1253 51.4083 52.6119 51.7804 53.1988 51.7232C54.4583 51.5943 55.7321 51.5228 57.0059 51.6659C57.7788 51.7518 58.5373 51.351 59.253 51.4798C60.2119 51.6516 61.1422 51.5228 62.0869 51.5943C62.8168 51.6516 63.0029 51.394 63.0029 50.6926C62.9885 47.959 63.0172 45.2109 63.0172 42.4772C63.0172 38.5127 63.0172 34.5624 63.0172 29.3526C62.9742 23.828 63.0744 17.0438 62.9599 10.274ZM60.3121 15.8273C60.2692 17.2585 60.2548 18.6898 60.2692 20.121C60.2692 20.5075 60.1403 20.5934 59.7682 20.5934C58.1223 20.579 56.4763 20.6077 54.8304 20.579C54.3724 20.5647 54.2293 20.6935 54.2293 21.1659C54.2436 23.0265 54.2293 24.8871 54.1863 26.7478C54.172 27.2058 54.2865 27.3632 54.7731 27.3489C56.3046 27.3203 57.8217 27.3632 59.3532 27.3203C59.9113 27.3059 60.0258 27.492 60.0258 28.0073C60.0115 29.4099 60.0688 30.8125 60.0831 32.2295C60.0831 32.6445 60.1976 32.9594 59.4104 32.8735C57.836 32.7018 56.2187 32.8163 54.63 32.8306C54.2293 32.8306 54.0861 33.0882 54.0718 33.4317C54.0432 35.55 54.0289 37.6682 54.0003 39.8008C53.9859 40.2588 54.2722 40.2016 54.5584 40.2016C56.1042 40.1872 57.6643 40.2016 59.21 40.1729C59.7396 40.1586 59.9686 40.2588 59.94 40.8599C59.897 42.2626 59.897 43.6795 59.94 45.0821C59.9543 45.6117 59.8541 45.8121 59.253 45.8121C55.8179 45.7834 52.3829 45.7834 48.9479 45.8121C48.4184 45.8121 48.2752 45.6833 48.2752 45.1394C48.3039 40.2302 48.2895 35.321 48.2895 30.4118C48.3325 30.4118 48.3897 30.4118 48.4327 30.4118C48.4327 25.5455 48.447 20.6792 48.4184 15.8273C48.4184 15.2834 48.5758 15.1546 49.091 15.1689C52.5976 15.1975 56.1042 15.2118 59.6108 15.1975C60.1117 15.1546 60.3264 15.2691 60.3121 15.8273Z" fill="#D9291C"/>
<path d="M19.6786 51.9092C21.5679 51.8663 21.5106 51.8949 21.4963 49.9914C21.482 48.6746 21.0669 47.3435 21.482 46.0268C21.5536 45.8121 21.3961 45.6117 21.253 45.44C20.5946 44.6814 20.7807 43.7654 20.9954 42.9782C21.1671 42.3485 21.3103 41.7616 21.2387 41.1033C21.1814 40.6739 21.1099 40.2302 21.1958 39.8295C21.5822 37.8973 21.4391 35.9508 21.3961 34.0186C21.3532 30.8698 21.4248 27.7353 21.4963 24.5866C21.5249 23.1983 21.7539 21.7956 21.3246 20.4073C21.253 20.1926 21.0813 20.0638 21.0956 19.7776C21.3246 16.729 21.5822 13.6661 21.5249 10.6032C21.5106 10.0307 21.2959 9.51547 20.6376 9.4296C19.3924 9.25785 18.1472 9.34372 16.902 9.30079C14.7265 9.2006 12.551 9.11472 10.3755 9.14335C8.40033 9.17197 6.4252 9.04316 4.45007 9.11472C3.119 9.11472 1.78794 9.11472 0.456868 9.11472C0.0990542 9.10041 -0.101321 9.22922 -0.0870089 9.60135C-0.0870089 9.7731 -0.0870089 9.93054 -0.0870089 10.1023C-0.187197 22.2393 0.0990542 34.3764 -0.25876 46.5134C-0.301697 47.916 -0.330322 49.3187 -0.330322 50.7213C-0.330322 51.6516 -0.0583838 51.9236 0.814682 51.9379C2.57513 51.9665 4.33557 51.9951 6.09601 51.9951C7.59883 51.9951 9.10165 51.9092 10.5902 51.9951C12.0643 52.081 13.4527 51.5228 14.9269 51.623C15.3276 51.6516 15.6139 51.9808 15.986 51.9236C17.2169 51.7232 18.4477 51.9379 19.6786 51.9092ZM18.8771 42.234C18.8342 41.9763 18.7912 41.7187 18.6052 41.5183C18.3332 41.547 18.4191 41.7616 18.4048 41.9048C18.2617 43.107 18.0613 44.3236 18.6338 45.4686C18.8199 45.855 18.6338 45.9123 18.3046 45.898C16.4869 45.8837 14.6835 45.898 12.8658 45.898C12.2218 45.898 11.9069 45.5545 11.7352 44.939C10.8478 41.8046 9.93178 38.6701 9.01577 35.55C8.95852 35.3496 8.95852 35.1063 8.74383 34.9918C8.34308 34.7771 7.98527 35.0204 7.98527 35.5071C7.98527 38.8419 7.97096 42.191 7.99958 45.5258C7.99958 46.0697 7.89939 46.2558 7.31258 46.2415C5.99583 46.1985 4.69338 46.2272 3.37663 46.2272C2.56081 46.2272 2.432 46.0984 2.432 45.2539C2.432 44.1089 2.432 42.9639 2.432 41.8189C2.432 39.5289 2.432 37.2532 2.432 34.9632C2.432 34.3477 2.41769 33.7323 2.28887 33.1169C2.21731 32.7734 2.03125 32.3869 2.38906 32.0577C2.44631 32.0148 2.44631 31.8717 2.41769 31.7858C2.14575 30.741 2.53219 29.6532 2.3175 28.6514C2.0885 27.5779 2.21731 26.5331 2.13144 25.474C2.10281 25.0732 2.07419 24.6582 2.30319 24.3003C2.53219 23.9425 2.0885 23.7421 2.10281 23.3986C2.14575 21.08 2.11712 18.7757 2.13144 16.4571C2.13144 15.813 2.17437 15.8416 2.86138 15.6842C5.52351 15.0831 8.19996 15.4695 10.8764 15.4552C12.7513 15.4409 14.3257 16.4427 15.7999 18.0314C17.0594 19.4054 17.6749 21.0371 17.7464 22.8977C17.8323 25.202 17.5747 27.4634 16.7446 29.6389C16.3152 30.7696 15.6711 31.7715 14.6263 32.4299C14.4259 32.5587 14.3114 32.6446 14.4116 32.9308C15.1845 35.1493 15.943 37.382 16.7016 39.6148C16.7159 39.6577 16.7732 39.672 16.8304 39.715C16.9449 39.2999 16.9736 38.8419 17.1882 38.4841C17.5604 37.8686 18.0899 37.3391 17.5604 36.5519C17.4888 36.4517 17.6462 36.237 17.8466 36.2084C18.0184 36.1941 18.1901 36.237 18.2617 36.4088C18.3189 36.5376 18.3619 36.6807 18.3905 36.8095C18.4191 37.0242 18.2187 37.3677 18.5193 37.4393C18.8485 37.5108 18.8914 37.1244 18.9916 36.9097C19.2922 36.2799 19.4926 35.6359 19.0775 34.9775C19.0059 34.8487 19.0346 34.7485 19.1634 34.6912C19.3924 34.5911 19.4353 34.7628 19.5069 34.9202C19.7931 35.6359 19.7216 36.3944 19.5355 37.0958C19.2063 38.3553 19.4353 39.6005 19.5069 40.86C19.5784 42.0908 19.7359 43.3217 19.8647 44.5526C19.9076 44.9677 19.8933 45.3827 20.2654 45.7692C19.5498 45.8837 19.4067 45.4543 19.3351 44.9963C19.1634 44.066 19.0346 43.1357 18.8771 42.234Z" fill="#D9291C"/>
<path d="M106.77 28.6511C107.243 26.3611 106.928 24.1284 106.67 21.8384C106.255 18.0455 104.008 16.099 100.487 15.226C98.3261 14.6821 96.1363 14.8109 93.9464 14.997C92.5867 14.997 91.227 15.0399 89.8817 14.9827C89.1517 14.9397 89.0372 15.2117 89.0515 15.8557C89.2519 22.096 89.0802 28.3506 89.3092 34.5909C89.3521 35.8504 89.166 37.1099 89.2376 38.398C89.3664 40.6737 89.2662 42.978 89.2376 45.268C89.2233 45.7833 89.4237 45.9121 89.896 45.8978C91.728 45.8835 93.5743 45.8978 95.4063 45.9407C95.9502 45.955 96.079 45.7976 96.079 45.268C96.0504 42.4055 96.079 39.543 96.0504 36.6805C96.0504 36.1366 96.1935 35.9076 96.7517 35.879C97.4244 35.8647 98.0828 35.7645 98.7411 35.7215C103.321 35.421 105.854 33.1453 106.77 28.6511ZM101.475 25.9747C99.9005 27.0338 98.3118 28.093 96.7231 29.1378C96.1219 29.5242 95.7355 29.3095 95.7212 28.5796C95.7069 27.5061 95.7212 26.4327 95.7212 25.3593C95.7212 24.3144 95.7069 23.2696 95.7212 22.2105C95.7355 21.5235 96.1076 21.3088 96.6801 21.6809C98.2975 22.7257 99.9005 23.7992 101.503 24.8726C102.062 25.2448 102.047 25.5883 101.475 25.9747Z" fill="#D9291C"/>
<path d="M139.403 45.8693C140.162 45.8693 140.934 45.8693 141.693 45.8693V45.8836C142.38 45.8836 143.081 45.855 143.768 45.898C144.326 45.9266 144.441 45.7835 144.312 45.2253C142.852 38.4984 141.407 31.7715 139.975 25.0446C139.317 21.9674 138.659 18.9045 138 15.8273C137.943 15.5697 137.986 15.2548 137.542 15.2548C135.252 15.2262 132.962 15.1689 130.687 15.1117C130.357 15.0973 130.257 15.2262 130.2 15.5554C129.885 17.6736 129.556 19.7919 129.227 21.9101C128.296 27.9786 127.366 34.0615 126.436 40.13C126.178 41.8046 125.935 43.4791 125.649 45.1394C125.548 45.7262 125.692 45.855 126.293 45.8121C127.724 45.7262 129.155 45.6976 130.572 45.7119C131.116 45.7119 131.259 45.5258 131.302 45.0392C131.431 43.6366 131.617 42.2483 131.731 40.8456C131.774 40.3876 131.932 40.3018 132.333 40.3161C133.764 40.3733 135.195 40.4449 136.612 40.4163C137.17 40.4163 137.328 40.6453 137.456 41.1176C137.814 42.4916 138.258 43.8656 138.601 45.2396C138.745 45.7262 138.974 45.8693 139.403 45.8693ZM135.166 35.321C134.479 35.2924 133.778 35.2208 133.105 35.2637C132.662 35.2924 132.647 35.1063 132.69 34.7771C133.034 32.0863 133.377 29.3956 133.735 26.7048C133.807 26.2039 133.764 25.6743 134.122 25.0446C134.737 27.4491 135.138 29.7105 135.524 31.9862C135.667 32.802 135.796 33.6321 135.925 34.4479C136.025 35.1635 135.868 35.3496 135.166 35.321Z" fill="#D9291C"/>
<path d="M12.9092 24.93C11.5066 23.9854 10.104 23.0407 8.68701 22.139C8.17176 21.8099 7.82826 22.0102 7.82826 22.64C7.81395 23.5703 7.82826 24.5006 7.82826 25.4166C7.82826 26.3613 7.81395 27.3202 7.82826 28.2648C7.84257 28.8516 8.17176 29.0377 8.6727 28.7085C10.0896 27.7925 11.4923 26.8622 12.8949 25.9176C13.3958 25.5884 13.3958 25.2592 12.9092 24.93Z" fill="#D9291C"/>
<path d="M17.5606 42.0765C17.5606 41.0889 17.5606 40.2016 17.5606 39.1567C16.8164 40.2159 17.0454 41.0889 17.5606 42.0765Z" fill="#D9291C"/>
<path d="M8.75817 68.254L7.55591 62.8296H5.78116L4.59322 68.254L3.60565 62.8296H1.53033L3.37665 71.4744H5.52353L6.66854 66.5365L7.82785 71.4744H9.98905L11.8211 62.8296H9.76005L8.75817 68.254Z" fill="#D9291C"/>
<path d="M17.8613 71.4744H23.8296V69.8714H19.9509V67.796H23.2285V66.2646H19.9509V64.4326H23.8296V62.8296H17.8613V71.4744Z" fill="#D9291C"/>
<path d="M42.8363 68.8409L40.9041 62.8296H38.1704V71.4744H40.2457V69.4563L40.0453 65.32L42.1493 71.4744H43.5233L45.6129 65.32L45.4125 69.4563V71.4744H47.5022V62.8296H44.7542L42.8363 68.8409Z" fill="#D9291C"/>
<path d="M56.5476 62.8296L53.3702 71.4744H55.603L56.1039 69.8571H58.9664L59.4674 71.4744H61.7001L58.5084 62.8296H56.5476ZM56.6049 68.254L57.5352 65.2484L58.4655 68.254H56.6049Z" fill="#D9291C"/>
<path d="M72.2344 62.8296L70.3738 65.5347L69.6438 66.6367V62.8296H67.5685V71.4744H69.6438V69.1987L70.5026 68.254L72.3489 71.4744H74.825L71.8909 66.651L74.825 62.8296H72.2344Z" fill="#D9291C"/>
<path d="M80.5787 71.4744H86.5327V69.8714H82.6683V67.796H85.9459V66.2646H82.6683V64.4326H86.547V62.8296H80.5787V71.4744Z" fill="#D9291C"/>
<path d="M103.264 64.533C103.478 64.3756 103.779 64.2897 104.151 64.2897C104.523 64.2897 104.81 64.3899 105.024 64.576C105.239 64.7763 105.353 65.0483 105.353 65.3918H107.429C107.429 64.8622 107.286 64.3899 107.014 63.9892C106.742 63.5741 106.355 63.2592 105.869 63.0445C105.382 62.8298 104.824 62.7153 104.194 62.7153C103.55 62.7153 102.978 62.8155 102.477 63.0159C101.961 63.2163 101.575 63.5025 101.289 63.8746C101.002 64.2468 100.874 64.6618 100.874 65.1485C100.874 66.1074 101.432 66.866 102.548 67.4242C102.892 67.5959 103.335 67.7677 103.879 67.9537C104.423 68.1398 104.795 68.3115 105.01 68.4833C105.225 68.655 105.339 68.884 105.339 69.1989C105.339 69.4709 105.239 69.6712 105.039 69.8287C104.838 69.9718 104.566 70.0577 104.223 70.0577C103.679 70.0577 103.292 69.9432 103.049 69.7285C102.806 69.5138 102.691 69.1703 102.691 68.698H100.602C100.602 69.2705 100.745 69.7714 101.031 70.2151C101.317 70.6588 101.747 71.0023 102.319 71.2456C102.892 71.5032 103.521 71.6177 104.223 71.6177C105.21 71.6177 105.997 71.4031 106.57 70.9737C107.142 70.5443 107.429 69.9432 107.429 69.1846C107.429 68.24 106.956 67.4957 106.026 66.9518C105.64 66.7372 105.153 66.5225 104.552 66.3364C103.951 66.1503 103.536 65.9643 103.292 65.7782C103.049 65.5922 102.935 65.3918 102.935 65.1771C102.935 64.9052 103.049 64.6905 103.264 64.533Z" fill="#D9291C"/>
<path d="M115.816 62.8296H113.726V71.4744H119.437V69.8714H115.816V62.8296Z" fill="#D9291C"/>
<path d="M130.63 63.2305C130.057 62.887 129.399 62.7009 128.669 62.7009C127.924 62.7009 127.266 62.8727 126.694 63.2305C126.107 63.5883 125.663 64.0892 125.363 64.7333C125.048 65.3774 124.89 66.1216 124.89 66.9804V67.467C124.905 68.2828 125.076 68.9985 125.391 69.6282C125.706 70.258 126.15 70.7446 126.722 71.0738C127.295 71.4173 127.939 71.5747 128.683 71.5747C129.427 71.5747 130.071 71.403 130.658 71.0451C131.231 70.7016 131.674 70.2007 131.989 69.5423C132.304 68.8983 132.462 68.1397 132.462 67.3096V66.9088C132.462 66.0787 132.29 65.3344 131.975 64.6904C131.646 64.0749 131.202 63.574 130.63 63.2305ZM130.329 67.3668C130.329 68.2113 130.186 68.8553 129.9 69.299C129.613 69.7427 129.213 69.9717 128.683 69.9717C128.125 69.9717 127.71 69.7427 127.424 69.2847C127.137 68.8267 127.008 68.1826 127.008 67.3239V66.6941C127.066 65.1197 127.624 64.3469 128.669 64.3469C129.198 64.3469 129.613 64.5759 129.9 65.0196C130.186 65.4632 130.329 66.1216 130.329 66.9804V67.3668Z" fill="#D9291C"/>
<path d="M138.044 64.4326H140.591V71.4744H142.667V64.4326H145.271V62.8296H138.044V64.4326Z" fill="#D9291C"/>
<path d="M153.644 64.533C153.859 64.3756 154.159 64.2897 154.531 64.2897C154.903 64.2897 155.19 64.3899 155.404 64.576C155.619 64.7763 155.734 65.0483 155.734 65.3918H157.809C157.809 64.8622 157.666 64.3899 157.394 63.9892C157.122 63.5741 156.735 63.2592 156.249 63.0445C155.762 62.8298 155.204 62.7153 154.574 62.7153C153.93 62.7153 153.358 62.8155 152.857 63.0159C152.341 63.2163 151.955 63.5025 151.669 63.8746C151.383 64.2468 151.254 64.6618 151.254 65.1485C151.254 66.1074 151.812 66.866 152.928 67.4242C153.272 67.5959 153.715 67.7677 154.259 67.9537C154.803 68.1398 155.175 68.3115 155.39 68.4833C155.605 68.655 155.719 68.884 155.719 69.1989C155.719 69.4709 155.619 69.6712 155.419 69.8287C155.218 69.9718 154.946 70.0577 154.603 70.0577C154.059 70.0577 153.673 69.9432 153.429 69.7285C153.186 69.5138 153.071 69.1703 153.071 68.698H150.982C150.982 69.2705 151.125 69.7714 151.411 70.2151C151.697 70.6588 152.127 71.0023 152.699 71.2456C153.272 71.5032 153.902 71.6177 154.603 71.6177C155.59 71.6177 156.378 71.4031 156.95 70.9737C157.523 70.5443 157.809 69.9432 157.809 69.1846C157.809 68.24 157.337 67.4957 156.406 66.9518C156.02 66.7372 155.533 66.5225 154.932 66.3364C154.331 66.1503 153.916 65.9643 153.673 65.7782C153.429 65.5922 153.315 65.3918 153.315 65.1771C153.315 64.9052 153.429 64.6905 153.644 64.533Z" fill="#D9291C"/>
</g>
<defs>
<clipPath id="clip0">
<rect width="160" height="80" fill="white"/>
</clipPath>
</defs>
</svg>
