<svg width="160" height="80" viewBox="0 0 160 80" fill="none" xmlns="http://www.w3.org/2000/svg">
<path d="M16.3977 57.4167C16.3977 59.0834 15.9778 60.1945 14.9981 61.0278C14.4382 61.5834 13.5985 61.7223 12.4788 61.7223C11.0792 61.7223 10.0994 61.1667 9.25967 60.1945C8.55986 59.2223 8.27994 58.25 8.27994 57.1389C8.27994 55.75 8.55986 54.6389 9.39963 53.6667C9.81951 53.25 10.2394 52.8334 10.6593 52.5556C11.2191 52.2778 11.779 52.1389 12.4788 52.1389C13.1786 52.1389 13.7384 52.2778 14.4382 52.4167C14.9981 52.5556 15.418 52.8334 15.6979 53.25C15.8379 53.3889 15.8379 53.5278 15.8379 53.6667C15.8379 53.8056 15.8379 53.9445 15.6979 54.0834C15.5579 54.2223 15.418 54.2222 15.278 54.2222C15.138 54.2222 14.9981 54.2223 14.8581 54.0834C14.4382 53.8056 14.1583 53.5278 13.8784 53.3889C13.4585 53.25 13.1786 53.1111 12.6187 53.1111C11.639 53.1111 10.7992 53.5278 10.2394 54.3611C9.81951 55.0556 9.53959 55.8889 9.53959 56.8611C9.53959 58.25 9.95947 59.2223 10.6593 60.0556C11.0792 60.4723 11.639 60.75 12.3388 60.75C12.7587 60.75 13.3185 60.6111 13.7384 60.4722C14.7182 60.0556 15.278 59.0834 15.278 57.8334V57.4167H13.5985C13.3185 57.4167 13.0386 57.2778 13.0386 56.8611C13.0386 56.4445 13.1786 56.3056 13.5985 56.3056H15.6979C16.1178 56.3056 16.3977 56.7223 16.3977 57.2778V57.4167Z" fill="white"/>
<path d="M152.86 57.4167C152.86 59.0834 152.44 60.1945 151.46 61.0278C150.901 61.5834 150.061 61.7223 148.941 61.7223C147.542 61.7223 146.562 61.1667 145.722 60.1945C145.022 59.2223 144.742 58.25 144.742 57.1389C144.742 55.75 145.022 54.6389 145.862 53.6667C146.282 53.25 146.702 52.8334 147.122 52.5556C147.682 52.2778 148.241 52.1389 148.941 52.1389C149.641 52.1389 150.201 52.2778 150.901 52.4167C151.46 52.5556 151.88 52.8334 152.16 53.25C152.3 53.3889 152.3 53.5278 152.3 53.6667C152.3 53.8056 152.3 53.9445 152.16 54.0834C152.02 54.2223 151.88 54.2222 151.74 54.2222C151.6 54.2222 151.46 54.2223 151.32 54.0834C150.901 53.8056 150.621 53.5278 150.341 53.3889C149.921 53.25 149.641 53.1111 149.081 53.1111C148.101 53.1111 147.262 53.5278 146.702 54.3611C146.282 55.0556 146.002 55.8889 146.002 56.8611C146.002 58.25 146.422 59.2223 147.122 60.0556C147.542 60.4723 148.101 60.75 148.801 60.75C149.221 60.75 149.781 60.6111 150.201 60.4722C151.181 60.0556 151.74 59.0834 151.74 57.8334V57.4167H150.061C149.781 57.4167 149.501 57.2778 149.501 56.8611C149.501 56.4445 149.641 56.3056 150.061 56.3056H152.16C152.72 56.3056 153 56.5834 153 57.1389V57.4167H152.86Z" fill="white"/>
<path d="M74.2017 61.0278C74.2017 61.5833 74.0618 61.8611 73.6419 61.8611C73.362 61.8611 73.082 61.7222 73.082 61.3056L71.9624 53.6667L69.723 61.3056C69.583 61.5833 69.4431 61.7222 69.1631 61.7222C68.8832 61.7222 68.6033 61.5833 68.6033 61.3056L66.3639 53.6667L65.2442 61.3056C65.2442 61.7222 64.9643 61.8611 64.5444 61.8611C64.2645 61.8611 63.9846 61.5833 63.9846 61.1667C63.9846 61.0278 63.9846 61.0278 63.9846 60.8889L65.3842 52.9722C65.3842 52.6944 65.5241 52.5556 65.6641 52.4167C65.8041 52.2778 66.084 52.1389 66.2239 52.1389C66.5039 52.1389 66.6438 52.1389 66.7838 52.2778C66.9237 52.4167 67.0637 52.5556 67.0637 52.6944L69.0232 59.5L70.9826 52.5556C70.9826 52.4167 71.1226 52.2778 71.2626 52.1389C71.4025 52 71.5425 52 71.8224 52C72.1023 52 72.2423 52 72.3822 52.1389C72.5222 52.2778 72.6622 52.4167 72.6622 52.6944L74.2017 61.0278Z" fill="white"/>
<path d="M96.0357 61.1665C96.0357 61.5832 95.8957 61.8609 95.4759 61.8609C95.056 61.8609 94.916 61.7221 94.916 61.3054V52.9721C94.916 52.5554 95.056 52.4165 95.4759 52.4165C95.8957 52.4165 96.0357 52.5554 96.0357 52.9721V61.1665Z" fill="white"/>
<path d="M124.168 61.1667C124.168 61.5834 124.028 61.7223 123.608 61.7223C123.328 61.7223 123.188 61.5834 122.908 61.3056L117.87 54.2222V61.0278C117.87 61.4445 117.73 61.5834 117.31 61.5834C116.89 61.5834 116.75 61.4445 116.75 61.0278V52.6945C116.75 52.2778 116.89 52.1389 117.17 52.1389C117.45 52.1389 117.59 52.2778 117.87 52.5556L122.768 59.6389V52.8334C122.768 52.6945 122.768 52.5556 122.908 52.4167C123.048 52.2778 123.188 52.2778 123.328 52.2778C123.748 52.2778 123.888 52.4167 123.888 52.8334V61.1667H124.168Z" fill="white"/>
<path d="M44.1101 61.3054C44.1101 61.5832 43.9701 61.7221 43.5502 61.7221C43.4103 61.7221 43.2703 61.7221 43.1303 61.5832C42.9904 61.5832 42.9904 61.5832 42.9904 61.4443L42.4305 59.7776H38.0917L37.252 61.4443C37.112 61.7221 36.972 61.8609 36.6921 61.8609C36.4122 61.8609 36.1323 61.7221 36.1323 61.4443V61.3054V61.1665L39.2114 53.1109C39.3514 52.8332 39.3514 52.6943 39.4913 52.5554C39.6313 52.4165 39.7713 52.4165 39.9112 52.4165C40.0512 52.4165 40.1911 52.4165 40.4711 52.5554C40.611 52.6943 40.751 52.8332 40.751 53.1109L43.8301 61.1665C44.1101 61.1665 44.1101 61.3054 44.1101 61.3054ZM42.0106 58.6665L40.1911 53.5276L38.2317 58.6665H42.0106Z" fill="white"/>
<path d="M129.486 24.5C131.574 24.5 133.265 22.8211 133.265 20.75C133.265 18.6789 131.574 17 129.486 17C127.399 17 125.708 18.6789 125.708 20.75C125.708 22.8211 127.399 24.5 129.486 24.5Z" fill="white"/>
<path d="M153 20.75C153 22.8333 151.32 24.5 149.221 24.5C147.122 24.5 145.442 22.8333 145.442 20.75C145.442 18.6667 147.122 17 149.221 17C151.32 17 153 18.6667 153 20.75Z" fill="white"/>
<path d="M129.486 42.8335C131.574 42.8335 133.265 41.1546 133.265 39.0835C133.265 37.0124 131.574 35.3335 129.486 35.3335C127.399 35.3335 125.708 37.0124 125.708 39.0835C125.708 41.1546 127.399 42.8335 129.486 42.8335Z" fill="white"/>
<path d="M153 39.0835C153 41.1668 151.32 42.8335 149.221 42.8335C147.122 42.8335 145.442 41.1668 145.442 39.0835C145.442 37.0002 147.122 35.3335 149.221 35.3335C151.32 35.3335 153 37.0002 153 39.0835Z" fill="white"/>
<path d="M143.203 29.9167C143.203 32.0001 141.523 33.6667 139.424 33.6667C137.324 33.6667 135.645 32.0001 135.645 29.9167C135.645 27.8334 137.324 26.1667 139.424 26.1667C141.523 26.1667 143.203 27.8334 143.203 29.9167Z" fill="white"/>
<path d="M119.409 42L108.912 17.4167C108.772 17.1389 108.632 17 108.352 17H106.253H105.973H103.874C103.594 17 103.454 17.1389 103.314 17.4167L92.6766 42V42.1389C92.6766 42.4167 92.8166 42.5556 93.0965 42.5556H97.8552C98.1351 42.5556 98.2751 42.4167 98.4151 42.1389L100.654 36.4444H111.851L114.091 42.1389C114.231 42.4167 114.371 42.5556 114.651 42.5556H119.409C119.689 42.5556 119.829 42.4167 119.829 42.1389C119.549 42.1389 119.549 42 119.409 42ZM102.194 32L106.113 22.1389L110.032 32H102.194Z" fill="white"/>
<path d="M44.8098 24.9167C45.0898 23.9444 45.5096 23.5278 45.5096 23.5278C45.5096 23.5278 46.0695 22.5556 47.3291 22C48.5888 21.4444 49.7085 21.4444 49.7085 21.4444H59.0859C59.3658 21.4444 59.6458 21.1667 59.6458 20.8889V17.5556C59.6458 17.2778 59.3658 17 59.0859 17H48.7288C42.9903 17 38.3716 22 38.3716 28.1111V29.6389V29.7778V30.0556V30.1944V31.7222C38.3716 37.8333 42.9903 42.8333 48.7288 42.8333H59.0859C59.3658 42.8333 59.6458 42.5556 59.6458 42.2778V38.8056C59.6458 38.5278 59.3658 38.25 59.0859 38.25H49.7085C49.7085 38.25 48.4488 38.25 47.3291 37.6944C46.0695 37.1389 45.5096 36.1667 45.5096 36.1667C45.5096 36.1667 45.0898 35.6111 44.8098 34.7778C44.5299 33.8056 44.5299 32.5556 44.5299 32.5556V32H59.0859C59.3658 32 59.6458 31.7222 59.6458 31.4444V27.9722C59.6458 27.6944 59.3658 27.4167 59.0859 27.4167H44.5299V27.1389C44.5299 27.1389 44.6699 25.8889 44.8098 24.9167Z" fill="white"/>
<path d="M77.001 42.5556H85.5386C85.8185 42.5556 85.9585 42.2778 85.9585 42V38.5278C85.9585 38.25 85.8185 37.9722 85.5386 37.9722H77.8407C77.8407 37.9722 76.861 37.9722 75.8813 37.4167C74.9016 36.8611 74.3417 35.8889 74.3417 35.8889C74.3417 35.8889 73.7819 35.3333 73.7819 34.3611C73.7819 33.5278 73.7819 32.4167 73.7819 32.4167V29.9167V17.4167C73.7819 17.1389 73.6419 17 73.362 17H68.8832C68.6033 17 68.3234 17.2778 68.3234 17.5556C68.3234 17.5556 68.3234 17.5556 68.3234 17.6944V30.0556V31.7222V34.3611V34.5C68.4633 38.9444 72.2423 42.5556 77.001 42.5556Z" fill="white"/>
<path d="M31.0936 42L25.0753 32C28.1544 31.3056 30.2539 29.2222 30.2539 24.6389C30.3938 18.5278 26.195 17.1389 21.0164 17H19.7568H8.55985C8.27992 17 8 17.2778 8 17.5556V42.1389C8 42.4167 8.27992 42.6944 8.55985 42.6944H13.0386C13.3185 42.6944 13.5985 42.4167 13.5985 42.1389V32.5556H19.8967L25.4952 42.2778C25.6351 42.5556 25.9151 42.6944 26.195 42.6944H30.9537C31.2336 42.6944 31.3736 42.5556 31.3736 42.2778C31.0936 42.1389 31.0936 42 31.0936 42ZM21.1564 27.9722L19.7568 28.1111H13.4585V21.5833H19.8967H21.1564C24.0956 21.5833 24.9353 22.9722 24.9353 24.7778C24.7954 26.5833 23.9556 27.9722 21.1564 27.9722Z" fill="white"/>
</svg>
