<svg width="160" height="80" viewBox="0 0 160 80" fill="none" xmlns="http://www.w3.org/2000/svg">
<path d="M52.0895 59.0438C53.0252 59.0438 53.6101 58.6518 54.039 58.3774L54.195 58.887H54.6239V56.6132C54.6239 56.1427 54.8188 55.9075 55.4427 55.9075V55.633H52.9083V55.9075C53.8051 55.9075 54 56.1427 54 56.6132V57.3972C54 57.9853 53.1422 58.8086 52.0505 58.8086C50.8028 58.8086 49.594 57.6717 49.594 55.2802C49.594 53.2808 50.6858 51.8302 52.1285 51.8302C53.4151 51.8302 54.195 52.7711 54.7408 53.4376L54.8968 53.3592L54.195 51.595L53.3762 51.791C53.1422 51.7126 52.6353 51.595 52.0505 51.595C50.1789 51.595 48.8922 53.1632 48.8922 55.3586C48.9702 57.7501 50.2179 59.0438 52.0895 59.0438Z" fill="white"/>
<path d="M64.4885 58.6124V58.8476H67.0229V58.6124C66.516 58.6124 66.2041 58.4163 66.0481 57.8675L63.5917 51.5164L63.0458 51.7516L60.9793 57.5931C60.6674 58.4948 60.4724 58.6124 59.9266 58.6124V58.8476H62.0711V58.6124C61.4082 58.6124 61.1353 58.4948 61.1353 58.1419C61.1353 58.0243 61.1743 57.8675 61.2523 57.6715L61.7981 56.2209H64.7614L65.4243 57.9067C65.4633 58.0243 65.5023 58.1419 65.5023 58.2203C65.4243 58.534 65.1124 58.6124 64.4885 58.6124ZM61.8371 55.9857L63.2018 52.222L64.6055 55.9857H61.8371Z" fill="white"/>
<path d="M79.6949 51.9476V51.7124H77.8624L75.5619 57.9459L73.2225 51.7124H71.4289V51.9476C72.1307 51.9476 72.3647 52.1044 72.3647 52.4965V57.9067C72.3647 58.3772 72.1697 58.6124 71.4289 58.6124V58.8476H73.6124V58.6124C72.8716 58.6124 72.6766 58.4164 72.6766 57.9067V52.1437H72.7936L75.328 58.8868H75.4839L78.0573 51.9868H78.1743V57.8675C78.1743 58.2988 77.9404 58.5732 77.2385 58.5732V58.8084H79.7339V58.5732C78.9931 58.5732 78.7982 58.338 78.7982 57.8675V52.4573C78.7592 52.1044 78.9151 51.9476 79.6949 51.9476Z" fill="white"/>
<path d="M84.6858 58.6124V58.8476H87.3762V58.6124C86.5963 58.6124 86.3624 58.4164 86.3624 58.0243V52.6141C86.3624 52.1044 86.6353 51.9476 87.3762 51.9476V51.7124H84.6858V51.9476C85.4656 51.9476 85.6996 52.1044 85.6996 52.6141V58.0243C85.7385 58.4164 85.4656 58.6124 84.6858 58.6124Z" fill="white"/>
<path d="M92.289 58.6125V58.8478H94.5505V58.6125C93.7317 58.6125 93.5367 58.4165 93.5367 57.9069V52.5358L98.2936 58.887H98.4496V52.4574C98.4496 52.0654 98.7615 51.9086 99.3853 51.9086V51.6733H97.1239V51.9086C97.9037 51.9086 98.1376 52.0654 98.1376 52.4574V57.6716L93.6147 51.6733H92.289V51.9086C92.9908 51.9086 93.2248 52.1046 93.2248 52.6142V57.9069C93.2248 58.4557 92.9908 58.6125 92.289 58.6125Z" fill="white"/>
<path d="M107.223 51.7906C108.509 51.7906 109.289 52.7316 109.835 53.398L109.991 53.3196L109.289 51.5554L108.47 51.7514C108.236 51.673 107.729 51.5554 107.145 51.5554C105.273 51.5554 103.986 53.1236 103.986 55.3191C103.986 57.7497 105.234 59.0435 107.106 59.0435C108.041 59.0435 108.626 58.6514 109.055 58.377L109.211 58.8867H109.64V56.6128C109.64 56.1424 109.835 55.9071 110.459 55.9071V55.6327H107.963V55.9071C108.86 55.9071 109.055 56.1424 109.055 56.6128V57.3969C109.055 57.985 108.197 58.8083 107.106 58.8083C105.858 58.8083 104.649 57.6713 104.649 55.2799C104.688 53.2412 105.819 51.7906 107.223 51.7906Z" fill="white"/>
<path d="M60.4724 32.3062L69.1674 48.4977L81.7224 48.2625L73.4174 33.1688L66.0481 38.5398L69.4403 28.0722L60.5894 21.5642H71.5458L74.938 11.0966L78.3302 21.5642H81.7224C81.9954 20.5449 82.1123 19.4864 82.1123 18.3886C82.1123 11.567 76.5756 6 69.7522 6C66.1651 6 49.8279 6 49.8279 6V48.0665H60.4724V32.3062Z" fill="white"/>
<path d="M75.4059 25.9552C76.7706 25.8767 78.1353 25.8375 79.5 25.7983C78.1353 25.7983 76.7706 25.8375 75.4059 25.9552Z" fill="white"/>
<path d="M120.323 43.2051C119.31 41.1665 117.906 39.3631 116.307 37.7949C113.11 34.6585 109.211 32.3847 105.195 30.6597C103.284 29.8364 101.335 29.1307 99.3463 28.5426V18.8983H107.846H109.796V16.9381V7.96023V6H107.846H75.328L78.4473 7.96023H107.885V16.8989H99.3853H97.4358V18.8591V27.9937C95.8372 27.5625 94.2385 27.2097 92.6009 26.9352C91.3922 26.7 90.1445 26.504 88.9358 26.3472V16.8989H86.9862V26.1511C86.6743 26.1119 86.4014 26.0727 86.0895 26.0727C83.906 25.8767 81.7225 25.7983 79.5 25.7983C81.6835 25.7983 83.906 25.9159 86.0895 26.1119C86.4014 26.1511 86.6743 26.1903 86.9862 26.1903V46.1063V48.0665H88.9358H97.4358H99.3853V46.1063V28.7778C101.335 29.4051 103.245 30.1108 105.078 30.9733C107.067 31.875 108.977 32.9335 110.81 34.1489C112.603 35.3642 114.319 36.7364 115.8 38.3438C117.282 39.9119 118.569 41.6761 119.466 43.6364C120.401 45.5574 120.83 47.7136 120.83 49.8307C120.752 51.9477 120.245 54.0256 119.271 55.9074C118.335 57.7892 117.009 59.5142 115.489 61.004C112.447 63.9835 108.665 66.2182 104.727 67.904C100.789 69.5898 96.617 70.8051 92.367 71.55C90.2615 71.942 88.117 72.2165 85.9725 72.4125C83.828 72.6085 81.6445 72.6869 79.5 72.6869C77.3555 72.6869 75.172 72.6085 73.0275 72.4125C70.883 72.2165 68.7385 71.942 66.633 71.55C62.383 70.7659 58.211 69.5898 54.2729 67.904C50.3349 66.2182 46.5528 63.9835 43.5115 61.004C41.9908 59.5142 40.7041 57.8284 39.7294 55.9074C38.7546 54.0256 38.2477 51.9477 38.1697 49.8307C38.1697 47.7136 38.5986 45.5966 39.5344 43.6756C40.4312 41.7153 41.6789 39.9511 43.1995 38.383C44.6032 36.9324 46.1239 35.6386 47.8005 34.5017V33.8744C45.9679 35.0506 44.2523 36.3443 42.6927 37.9125C41.094 39.4807 39.7294 41.2841 38.6766 43.3227C37.6239 45.3222 37.078 47.6352 37 49.9091C37 52.2222 37.4679 54.5352 38.4817 56.6131C39.4564 58.6909 40.7821 60.5727 42.3807 62.2193C43.9404 63.8659 45.695 65.3165 47.5665 66.571C49.4381 67.8256 51.4266 68.9233 53.4541 69.8642C55.4817 70.8051 57.5872 71.5892 59.7317 72.2557C61.8761 72.9222 64.0206 73.471 66.2431 73.9023C68.4266 74.3335 70.6491 74.6472 72.8716 74.8432C75.094 75.0392 77.3165 75.1568 79.539 75.1568C81.7615 75.1568 83.9839 75.0392 86.2064 74.8432C88.4289 74.6472 90.6514 74.3335 92.8349 73.9023C95.0183 73.5102 97.2018 72.9222 99.3463 72.2557C101.491 71.5892 103.596 70.8051 105.624 69.8642C107.651 68.9233 109.64 67.8256 111.511 66.571C113.383 65.3165 115.138 63.8659 116.697 62.2193C118.257 60.5727 119.622 58.6909 120.596 56.6131C121.571 54.5352 122.078 52.2222 122.078 49.9091C121.922 47.5176 121.376 45.2437 120.323 43.2051ZM88.9358 46.1063V26.4648C90.1445 26.6216 91.3922 26.8176 92.6009 27.0528C94.2385 27.3665 95.8372 27.7585 97.4358 28.1898V46.1063H88.9358Z" fill="white"/>
</svg>
