<svg width="160" height="80" viewBox="0 0 160 80" fill="none" xmlns="http://www.w3.org/2000/svg">
<path d="M31.3269 11.9923C33.6728 13.3894 34.321 15.2522 34.3828 18.0153C34.5062 22.9206 35.3396 27.7949 35.9261 32.6692C36.1113 34.2215 36.6052 35.4323 38.4881 35.4323C38.7659 35.4323 40.0006 35.3081 39.7228 36.0222C38.6116 36.2085 37.9016 36.3016 36.883 36.4568C37.4077 38.1954 37.9016 39.8409 38.4572 41.6416C40.9266 40.4929 43.149 39.4373 45.4023 38.3817C45.5567 38.6611 45.4949 38.5369 45.6493 38.8164C44.1985 39.8098 42.7478 40.7723 41.297 41.7658C38.6733 43.5354 38.8894 43.0697 39.8771 45.9881C41.7909 51.5764 43.7664 57.1337 45.711 62.691C46.8222 65.8577 45.0628 68.6519 42.1922 68.2483C41.3896 68.1552 40.5253 67.6895 39.9389 67.1617C36.9139 64.3675 33.8889 61.5733 31.0182 58.655C26.7586 54.2774 27.1598 49.3411 31.9751 45.4913C34.5062 43.4733 34.5062 43.4733 33.5802 40.4308C32.5307 36.9846 32.5616 37.0157 29.1971 38.4438C27.6846 39.0958 26.7277 40.0272 26.1721 41.6416C25.6473 43.1318 24.8139 44.5599 23.8262 45.7707C23.2088 46.5469 22.0668 46.8884 21.1716 47.4162L20.6777 46.8884C20.9864 46.2054 21.3259 45.5224 21.6346 44.8393C21.9124 44.1874 22.1902 43.5354 22.468 42.8524C22.1594 42.6351 22.2211 42.6661 21.8815 42.4488C19.7826 44.4668 17.6527 46.4538 15.6155 48.5339C13.2387 50.9865 10.615 53.0666 7.34311 54.1533C5.42935 54.8052 3.63905 54.681 2.12656 53.1287C1.60181 52.4767 1.72528 51.8869 2.12656 51.0486C4.9046 47.4783 9.96682 44.6531 12.0349 45.8328C12.5597 46.4538 7.06531 48.7822 7.92959 49.31C10.615 49.6205 12.9609 47.0126 13.4548 45.305C13.6091 44.8083 12.6523 44.4047 12.9918 44.0321C13.9487 43.0387 13.7944 42.0762 13.0535 41.1138C12.4053 40.3066 11.6954 39.5615 10.9854 38.8474C8.88647 36.6431 6.5097 34.5941 4.56506 32.2345C1.91049 29.0057 2.00309 25.3422 4.47246 21.9582C8.08392 17.0218 12.8683 13.6378 18.7331 11.7129C19.1652 11.8681 19.5048 11.9613 19.9369 12.1165C21.4803 14.476 21.2951 16.9597 19.1344 18.9156C17.3749 20.5301 15.4303 21.9582 13.5165 23.4174C13.0844 23.7589 12.4671 23.821 11.9115 24.0072L11.4793 23.5105C12.4671 21.9892 13.4548 20.4369 14.4117 18.9156C14.2574 18.7294 14.2574 18.6983 14.1339 18.512C12.0658 19.0088 10.9237 20.6853 9.71988 22.2376C8.36173 23.9762 8.26913 25.9011 9.28774 27.857C9.78162 28.8194 10.3372 29.7508 11.0163 30.6201C13.8252 34.1594 17.9614 36.6121 19.4122 41.8589C21.3568 40.1513 23.641 39.1268 24.2892 37.4193C26.0486 32.9796 27.345 28.2916 28.3945 23.6347C29.1971 20.0644 29.3823 16.4009 29.7835 12.7374C30.4626 12.3959 30.6478 12.3028 31.3269 11.9923ZM35.1236 45.274C33.9198 46.4227 33.0246 47.1989 32.2529 48.0682C30.0922 50.614 29.7527 52.9114 31.6973 55.1778C34.3828 58.2514 37.4077 60.9835 40.3093 63.8708C40.4636 63.7776 40.6179 63.6534 40.7723 63.5603C38.9511 57.6304 37.1299 51.7316 35.1236 45.274ZM30.8022 27.9191C30.7096 27.9191 30.617 27.9191 30.5244 27.888C29.6601 30.7133 28.7958 33.5695 27.8389 36.7362C29.2279 36.3326 30.3392 36.1153 31.3578 35.6496C31.7282 35.4944 32.1603 34.7493 32.0677 34.3767C31.7282 32.2035 31.2343 30.0613 30.8022 27.9191Z" fill="#C09A5E"/>
<path d="M47.1003 35.6496C45.4952 37.0467 44.0445 37.1709 43.1185 36.2705C42.8715 36.0222 42.5628 35.4944 42.6863 35.2771C42.8406 34.9356 43.3963 34.6251 43.6741 34.594C45.1557 34.3767 47.7794 35.1529 47.1003 35.6496Z" fill="#C09A5E"/>
<path d="M63.124 36.1397H68.9888V43.8392C68.0319 44.1496 67.1368 44.367 66.3034 44.4912C65.4699 44.6153 64.6057 44.6774 63.7414 44.6774C61.5189 44.6774 59.8212 44.0255 58.6483 42.6905C57.4753 41.3865 56.8889 39.4927 56.8889 37.009C56.8889 34.6184 57.5679 32.7556 58.9261 31.3896C60.2842 30.0546 62.1671 29.3716 64.6057 29.3716C66.1181 29.3716 67.5689 29.682 68.9888 30.2719L67.9393 32.7867C66.859 32.2589 65.7477 31.9795 64.5748 31.9795C63.2166 31.9795 62.1363 32.4452 61.3337 33.3455C60.5312 34.2459 60.099 35.4877 60.099 37.04C60.099 38.6544 60.4386 39.8963 61.0868 40.7345C61.735 41.5728 62.6919 42.0074 63.9574 42.0074C64.6057 42.0074 65.2847 41.9454 65.9329 41.7901V38.6855H63.124V36.1397Z" fill="white"/>
<path d="M85.4373 44.1874L84.357 40.6482H78.9552L77.8749 44.1874H74.5104L79.7269 29.2542H83.5544L88.8019 44.1874H85.4373ZM83.6162 38.0092C82.6284 34.8114 82.0728 32.9797 81.9494 32.5761C81.8259 32.1415 81.7333 31.831 81.6715 31.5826C81.4555 32.4519 80.8073 34.5941 79.7578 38.0092H83.6162Z" fill="white"/>
<path d="M100.13 44.1873L96.5805 32.5449H96.4878C96.6113 34.9045 96.6731 36.4878 96.6731 37.295V44.2184H93.8641V29.3472H98.1238L101.612 40.7101H101.674L105.378 29.3472H109.637V44.2184H106.705V37.1709C106.705 36.8293 106.705 36.4568 106.705 36.0221C106.705 35.5875 106.767 34.4388 106.828 32.576H106.736L102.939 44.2184H100.13V44.1873Z" fill="white"/>
<path d="M116.613 44.1873V29.3472H119.731V44.2184H116.613V44.1873Z" fill="white"/>
<path d="M139.794 44.1873H135.813L129.392 32.9485H129.3C129.423 34.9355 129.485 36.3636 129.485 37.2019V44.1873H126.676V29.3472H130.627L137.047 40.4618H137.109C137.016 38.5369 136.955 37.1709 136.955 36.3636V29.3472H139.764V44.1873H139.794Z" fill="white"/>
<path d="M152.357 35.867H158.222V43.5665C157.265 43.8769 156.37 44.0943 155.537 44.2184C154.703 44.3426 153.839 44.4047 152.975 44.4047C150.752 44.4047 149.055 43.7528 147.882 42.4178C146.709 41.1138 146.122 39.22 146.122 36.7363C146.122 34.3457 146.801 32.4829 148.159 31.1169C149.518 29.7819 151.401 29.0989 153.839 29.0989C155.352 29.0989 156.802 29.4093 158.222 29.9992L157.173 32.514C156.092 31.9862 154.981 31.7068 153.808 31.7068C152.45 31.7068 151.37 32.1725 150.567 33.0728C149.765 33.9732 149.332 35.215 149.332 36.7673C149.332 38.3817 149.672 39.6236 150.32 40.4618C150.968 41.3001 151.925 41.7347 153.191 41.7347C153.839 41.7347 154.518 41.6726 155.166 41.5174V38.4128H152.357V35.867Z" fill="white"/>
</svg>
