<svg width="160" height="80" viewBox="0 0 160 80" fill="none" xmlns="http://www.w3.org/2000/svg">
<g clip-path="url(#clip0_6251_8)">
<path d="M25.9573 16.8521C11.6213 16.8521 0 28.3606 0 42.557C0 56.7534 11.6213 68.2619 25.9573 68.2619C40.2934 68.2619 51.9147 56.7534 51.9147 42.557C51.9147 28.3606 40.2934 16.8521 25.9573 16.8521ZM25.9573 66.2857C12.7464 66.2857 1.99775 55.639 1.99775 42.557C1.99775 29.4749 12.7383 18.8283 25.9573 18.8283C39.1763 18.8283 49.9169 29.4723 49.9169 42.557C49.9169 55.6417 39.1683 66.2857 25.9573 66.2857Z" fill="url(#paint0_linear_6251_8)"/>
<path d="M25.9573 64.9406C38.441 64.9406 48.5609 54.9192 48.5609 42.5572C48.5609 30.1952 38.441 20.1738 25.9573 20.1738C13.4737 20.1738 3.35376 30.1952 3.35376 42.5572C3.35376 54.9192 13.4737 64.9406 25.9573 64.9406Z" fill="url(#paint1_linear_6251_8)"/>
<path d="M68.0847 45.2959C66.3087 45.2895 64.5456 44.9938 62.8647 44.4206C61.1212 43.8352 59.7786 43.0896 58.837 42.1839L61.2698 38.8113C61.8605 39.4826 62.7976 40.059 64.0811 40.5405C65.277 41.0036 66.5384 41.2755 67.8188 41.3461C69.0594 41.4052 70.0699 41.2083 70.8504 40.7554C71.6308 40.3025 72.022 39.6813 72.0238 38.8919C72.028 38.4984 71.9225 38.1116 71.719 37.7748C71.5155 37.438 71.2221 37.1646 70.8718 36.9854C69.7464 36.3859 68.56 35.9088 67.3328 35.5623L65.8291 35.0924C65.5624 35.0047 65.0898 34.8257 64.4114 34.5553C63.9054 34.3745 63.4173 34.1471 62.9533 33.876C62.658 33.6863 62.2668 33.4231 61.7799 33.0866C61.363 32.8221 61.0084 32.4703 60.7408 32.0555C60.5092 31.6548 60.3159 31.2331 60.1635 30.7961C59.9851 30.2898 59.8943 29.7568 59.895 29.22C59.895 27.292 60.7139 25.6926 62.3519 24.4216C63.9898 23.1506 65.9885 22.5151 68.3478 22.5151C69.8468 22.5213 71.3364 22.7512 72.7676 23.1972C74.0961 23.575 75.3573 24.1584 76.5053 24.9264L73.8416 28.3016C72.546 27.1966 70.9383 26.5227 69.242 26.3737C68.2224 26.2454 67.1874 26.4044 66.2534 26.8329C65.3583 27.2571 64.9108 27.8487 64.9108 28.6077C64.9065 28.8787 64.9586 29.1475 65.0639 29.3972C65.1982 29.6672 65.3964 29.9004 65.6412 30.0765C65.9097 30.2967 66.1567 30.4712 66.3474 30.6135C66.6718 30.8027 67.0169 30.9541 67.3758 31.0647C67.8779 31.2392 68.2458 31.3654 68.4821 31.4379C68.7184 31.5104 69.148 31.65 69.7656 31.8541C70.6586 32.0988 71.5379 32.391 72.3997 32.7294C73.1501 33.054 73.8745 33.4355 74.5666 33.8706C75.3285 34.3158 75.9557 34.9588 76.3818 35.7314C76.7964 36.552 77.0012 37.4626 76.9779 38.3817C76.9779 40.3991 76.1374 42.0577 74.4565 43.3573C72.7756 44.6569 70.6517 45.3031 68.0847 45.2959Z" fill="white"/>
<path d="M90.0331 22.5176C92.7737 22.5176 95.0373 23.2551 96.8238 24.7301C98.6103 26.2052 99.5054 28.33 99.509 31.1047V44.8661H95.1644L94.9442 42.1487C92.4076 44.2467 89.8702 45.2957 87.3318 45.2957C85.3627 45.2957 83.7328 44.6692 82.4422 43.4161C81.1515 42.163 80.5106 40.5519 80.5196 38.5828C80.4943 37.5799 80.7222 36.5867 81.1821 35.695C81.642 34.8033 82.3192 34.0419 83.151 33.481C84.9071 32.228 87.5252 31.8333 91.0051 32.2969L94.6784 32.7802V30.7959C94.6784 29.3942 94.221 28.3497 93.3063 27.6623C92.3906 26.9776 91.228 26.6339 89.8156 26.6339C87.6675 26.6339 85.8979 27.5102 84.507 29.2627L81.1372 26.2311C83.1725 23.7554 86.1378 22.5176 90.0331 22.5176ZM85.5193 38.3358C85.5023 38.7012 85.567 39.0658 85.7087 39.403C85.8503 39.7402 86.0654 40.0416 86.3383 40.2852C86.9377 40.7884 87.7047 41.0472 88.4864 41.0102C90.375 41.0102 92.4399 40.1044 94.6811 38.2928V36.3192L91.7596 35.8816C87.5994 35.2694 85.5193 36.0874 85.5193 38.3358Z" fill="white"/>
<path d="M113.394 45.2959C111.033 45.2959 109.159 44.6093 107.774 43.2363C106.388 41.8633 105.696 40.067 105.696 37.8472V12H110.607L110.652 37.8553C110.652 40.0464 111.611 41.1419 113.528 41.1419C113.986 41.1575 114.442 41.0712 114.863 40.8892C115.284 40.7071 115.659 40.434 115.961 40.0893L118.659 43.376C117.422 44.6559 115.667 45.2959 113.394 45.2959Z" fill="white"/>
<path d="M128.573 45.2959C126.796 45.2897 125.032 44.9941 123.35 44.4206C121.61 43.8352 120.268 43.0896 119.323 42.1839L121.758 38.8113C122.347 39.4826 123.283 40.059 124.567 40.5405C125.763 41.0039 127.026 41.2758 128.307 41.3461C129.546 41.4052 130.556 41.2083 131.336 40.7554C132.117 40.3025 132.508 39.6813 132.509 38.8919C132.514 38.4987 132.409 38.112 132.206 37.7753C132.003 37.4385 131.71 37.165 131.36 36.9854C130.232 36.3903 129.042 35.9177 127.813 35.5757L126.315 35.0924C126.048 35.0047 125.576 34.8257 124.9 34.5553C124.393 34.3744 123.904 34.147 123.439 33.876C123.144 33.6854 122.754 33.4222 122.266 33.0866C121.849 32.8214 121.495 32.4698 121.226 32.0555C120.996 31.6547 120.803 31.233 120.652 30.7961C120.472 30.2901 120.381 29.7569 120.383 29.22C120.383 27.292 121.201 25.6926 122.838 24.4216C124.474 23.1506 126.472 22.5151 128.833 22.5151C130.327 22.5221 131.811 22.751 133.237 23.1945C134.566 23.5717 135.827 24.1553 136.975 24.9237L134.322 28.2989C133.025 27.1943 131.417 26.5205 129.72 26.371C128.702 26.2446 127.67 26.4046 126.739 26.8329C125.837 27.2571 125.396 27.8478 125.396 28.6077C125.392 28.879 125.445 29.1481 125.552 29.3972C125.685 29.6677 125.882 29.9011 126.127 30.0765C126.395 30.2967 126.642 30.4712 126.836 30.6135C127.16 30.8037 127.505 30.9551 127.864 31.0647C128.364 31.2392 128.734 31.3654 128.97 31.4379C129.207 31.5104 129.634 31.65 130.254 31.8541C131.146 32.0987 132.024 32.3909 132.885 32.7294C133.639 33.0533 134.367 33.4339 135.063 33.8679C135.824 34.3132 136.45 34.9563 136.875 35.7288C137.294 36.5482 137.502 37.4591 137.48 38.379C137.48 40.3964 136.638 42.055 134.956 43.3546C133.273 44.6542 131.145 45.3013 128.573 45.2959Z" fill="white"/>
<path d="M150.519 22.5176C153.263 22.5176 155.527 23.2551 157.309 24.7301C159.092 26.2052 159.987 28.33 159.995 31.1047V44.8661H155.653L155.43 42.1487C152.892 44.2467 150.355 45.2957 147.82 45.2957C145.851 45.2957 144.221 44.6692 142.931 43.4161C141.64 42.163 140.998 40.5519 141.005 38.5828C140.981 37.58 141.209 36.5871 141.669 35.6955C142.129 34.804 142.805 34.0425 143.637 33.481C145.393 32.228 148.011 31.8333 151.491 32.2969L155.164 32.7802V30.7959C155.164 29.3942 154.707 28.3497 153.792 27.6623C152.877 26.9749 151.714 26.6321 150.301 26.6339C148.153 26.6339 146.383 27.5102 144.99 29.2627L141.626 26.2311C143.661 23.7554 146.625 22.5176 150.519 22.5176ZM146.005 38.3358C145.987 38.7001 146.05 39.0638 146.189 39.4009C146.328 39.738 146.541 40.04 146.811 40.2852C147.41 40.7879 148.177 41.0467 148.959 41.0102C150.847 41.0102 152.912 40.1044 155.153 38.2928V36.3192L152.248 35.8816C148.088 35.2694 146.007 36.0874 146.005 38.3358Z" fill="white"/>
<path d="M74.6847 51.6997H70.9255V63.8903H69.2527V51.6997H65.4935V50.2417H74.6982L74.6847 51.6997Z" fill="white"/>
<path d="M82.1817 59.871H75.2352C75.4017 61.5439 76.3764 62.6717 78.0842 62.6717C79.1877 62.6717 79.8859 62.2904 80.6216 61.1626L81.7601 61.944C81.0056 63.2866 79.757 64.0733 78.0305 64.0733C75.3104 64.0733 73.6563 62.0729 73.6563 59.3609C73.6563 56.6489 75.3292 54.6108 78.0305 54.6108C80.6565 54.6108 82.2005 56.5764 82.2005 59.3421C82.2033 59.5186 82.197 59.6952 82.1817 59.871ZM75.2728 58.6144H80.7317C80.5652 57.0033 79.6281 55.9937 78.0654 55.9937C76.5026 55.9937 75.5118 57.049 75.2728 58.6144Z" fill="white"/>
<path d="M83.6693 59.342C83.6693 56.63 85.3072 54.6108 88.0058 54.6108C88.8537 54.5923 89.6851 54.8475 90.3767 55.3385V56.9496C90.0962 56.6435 89.7557 56.3984 89.3765 56.2293C88.9973 56.0603 88.5874 55.9709 88.1722 55.9668C86.3544 55.9668 85.2696 57.4222 85.2696 59.334C85.2696 61.2458 86.3437 62.7012 88.1722 62.7012C88.588 62.701 88.9992 62.6134 89.3789 62.4441C89.7587 62.2748 90.0987 62.0275 90.3767 61.7184V63.3295C89.6885 63.8293 88.8562 64.0913 88.0058 64.076C85.3072 64.0733 83.6693 62.054 83.6693 59.342Z" fill="white"/>
<path d="M100.613 58.1414V63.8903H98.9773V58.3213C98.9773 57.0136 97.9489 56.0309 96.5875 56.0309C96.269 56.0223 95.952 56.0768 95.6546 56.1912C95.3573 56.3057 95.0855 56.4778 94.8549 56.6976C94.6243 56.9175 94.4395 57.1808 94.311 57.4723C94.1826 57.7639 94.1131 58.078 94.1065 58.3965V63.8903H92.4954V50.2417H94.1065V55.9396C94.4671 55.5178 94.9158 55.1802 95.421 54.9506C95.9263 54.7209 96.4757 54.6048 97.0306 54.6104C99.082 54.6104 100.613 56.0846 100.613 58.1414Z" fill="white"/>
<path d="M111.418 58.1414V63.8903H109.782V58.3213C109.782 57.0137 108.754 56.0309 107.393 56.0309C107.074 56.0223 106.757 56.0768 106.46 56.1913C106.162 56.3057 105.891 56.4778 105.66 56.6976C105.429 56.9175 105.245 57.1808 105.116 57.4723C104.988 57.7639 104.918 58.078 104.911 58.3965V63.8903H103.3V54.7931H104.788L104.863 55.9933C105.226 55.5568 105.681 55.2063 106.195 54.9671C106.71 54.7279 107.271 54.6061 107.838 54.6105C109.892 54.6105 111.418 56.0846 111.418 58.1414Z" fill="white"/>
<path d="M113.456 59.3421C113.456 56.7026 115.257 54.6108 117.94 54.6108C120.622 54.6108 122.424 56.7026 122.424 59.3421C122.424 61.9816 120.606 64.0733 117.94 64.0733C115.273 64.0733 113.456 61.9628 113.456 59.3421ZM120.826 59.3421C120.826 57.5027 119.704 56.0313 117.94 56.0313C116.176 56.0313 115.056 57.5027 115.056 59.3421C115.056 61.1814 116.13 62.6368 117.94 62.6368C119.75 62.6368 120.832 61.1814 120.832 59.3421H120.826Z" fill="white"/>
<path d="M124.591 61.3448V50.2417H126.202L126.218 61.3448C126.218 62.2363 126.677 62.6874 127.432 62.6874C127.618 62.6945 127.803 62.6607 127.975 62.5883C128.147 62.5159 128.3 62.4068 128.425 62.2685L129.325 63.3613C129.068 63.604 128.764 63.7919 128.432 63.9137C128.1 64.0356 127.747 64.0888 127.394 64.0702C125.665 64.0729 124.591 62.9639 124.591 61.3448Z" fill="white"/>
<path d="M129.83 59.3421C129.83 56.7026 131.629 54.6108 134.311 54.6108C136.994 54.6108 138.795 56.7026 138.795 59.3421C138.795 61.9816 136.978 64.0733 134.311 64.0733C131.645 64.0733 129.83 61.9628 129.83 59.3421ZM137.198 59.3421C137.198 57.5027 136.078 56.0313 134.311 56.0313C132.544 56.0313 131.427 57.5027 131.427 59.3421C131.427 61.1814 132.501 62.6368 134.311 62.6368C136.121 62.6368 137.211 61.1814 137.211 59.3421H137.198Z" fill="white"/>
<path d="M149.085 54.7932V63.7831C149.085 66.4387 147.415 68.4418 144.748 68.4418C143.738 68.4582 142.749 68.1577 141.918 67.5826V65.8372C142.308 66.2193 142.77 66.5204 143.277 66.7231C143.784 66.9259 144.326 67.0264 144.872 67.0187C146.432 67.0187 147.498 65.762 147.498 63.7804V62.6338C147.136 63.0846 146.677 63.4479 146.156 63.6966C145.634 63.9453 145.063 64.0731 144.485 64.0704C141.894 64.0704 140.259 61.9787 140.259 59.3392C140.259 56.6997 141.894 54.6079 144.485 54.6079C145.078 54.6064 145.664 54.7418 146.196 55.0036C146.729 55.2653 147.193 55.6463 147.554 56.117L147.627 54.7905L149.085 54.7932ZM147.474 60.3058V58.3779C147.119 57.0138 146.018 56.0364 144.73 56.0364C142.928 56.0364 141.843 57.5079 141.843 59.3472C141.843 61.1865 142.917 62.6419 144.73 62.6419C146.018 62.6365 147.119 61.6538 147.487 60.3058H147.474Z" fill="white"/>
<path d="M160 64.127C160 66.6215 158.531 68.5495 155.572 68.5495C154.443 68.5833 153.33 68.2794 152.374 67.6768V65.9288C153.3 66.7185 154.484 67.14 155.701 67.1129C157.519 67.1129 158.365 65.9664 158.365 64.127V62.7281C158.018 63.1519 157.581 63.4926 157.085 63.725C156.589 63.9573 156.047 64.0755 155.5 64.0707C155.023 64.0742 154.551 63.983 154.11 63.8022C153.669 63.6214 153.268 63.3546 152.931 63.0175C152.594 62.6804 152.328 62.2797 152.148 61.8386C151.967 61.3975 151.876 60.9249 151.88 60.4484V54.7935H153.491V60.2873C153.493 60.601 153.557 60.9113 153.68 61.2C153.803 61.4886 153.982 61.75 154.207 61.9687C154.432 62.1874 154.698 62.3591 154.99 62.4738C155.282 62.5885 155.594 62.6439 155.908 62.6368C156.224 62.6453 156.539 62.5912 156.834 62.4776C157.129 62.364 157.399 62.193 157.628 61.9746C157.857 61.7562 158.04 61.4947 158.168 61.2051C158.295 60.9155 158.364 60.6036 158.37 60.2873V54.7935H160.005L160 64.127Z" fill="white"/>
<path d="M21.457 37.8658C21.8654 37.7202 22.3126 37.7268 22.7164 37.8846C24.9343 38.7546 32.3426 41.6895 33.457 42.4789L33.4946 42.5058C33.74 42.6856 33.9348 42.9257 34.0602 43.2028C34.1856 43.48 34.2373 43.7849 34.2103 44.0879C34.1832 44.3909 34.0785 44.6818 33.906 44.9325C33.7336 45.1831 33.4994 45.385 33.2261 45.5185L30.0039 47.1027C29.7723 47.2167 29.519 47.2798 29.261 47.2876C29.003 47.2955 28.7463 47.248 28.5082 47.1484L19.2874 43.2576C19.1227 43.1916 18.9688 43.101 18.831 42.9891C18.2402 42.495 16.844 41.1095 18.0254 39.9871L19.1961 38.8513C19.3798 38.6733 19.5996 38.5369 19.8406 38.4512L21.457 37.8658Z" fill="url(#paint2_linear_6251_8)"/>
<path d="M33.4435 25.9629C33.4435 25.9629 34.1981 27.1148 29.5984 28.7716C24.9987 30.4283 14.7952 32.9711 15.4235 38.4247C15.4235 38.4247 15.7135 41.8375 19.8594 43.4969C19.8594 43.4969 13.2109 41.0158 25.2753 37.2701C37.3397 33.5243 36.2844 29.1018 36.2844 29.1018C36.2844 29.1018 36.2334 26.6664 33.4435 25.9629Z" fill="url(#paint3_linear_6251_8)"/>
<path d="M18.259 59.162C18.259 59.162 17.526 57.9966 22.1552 56.4231C26.7844 54.8496 37.0336 52.4813 36.5046 47.0251C36.5046 47.0251 36.3166 43.5344 32.2084 41.7944C32.2084 41.7944 38.7709 44.4796 26.6394 48.0025C14.5079 51.5254 15.4853 55.9693 15.4853 55.9693C15.4853 55.9693 15.4772 58.3967 18.259 59.162Z" fill="url(#paint4_linear_6251_8)"/>
</g>
<defs>
<linearGradient id="paint0_linear_6251_8" x1="0" y1="42.557" x2="51.9147" y2="42.557" gradientUnits="userSpaceOnUse">
<stop offset="0.09" stop-color="#57BDD0"/>
<stop offset="0.23" stop-color="#57B4CB"/>
<stop offset="0.45" stop-color="#579ABE"/>
<stop offset="0.73" stop-color="#5872A9"/>
<stop offset="1" stop-color="#584492"/>
</linearGradient>
<linearGradient id="paint1_linear_6251_8" x1="3.35376" y1="42.5572" x2="48.5609" y2="42.5572" gradientUnits="userSpaceOnUse">
<stop offset="0.09" stop-color="#57BDD0"/>
<stop offset="0.21" stop-color="#58B5CC"/>
<stop offset="0.27" stop-color="#58B0C9"/>
<stop offset="0.41" stop-color="#58A1C1"/>
<stop offset="0.66" stop-color="#5780B0"/>
<stop offset="0.9" stop-color="#59569B"/>
<stop offset="0.97" stop-color="#5A4A95"/>
<stop offset="1" stop-color="#584492"/>
</linearGradient>
<linearGradient id="paint2_linear_6251_8" x1="17.5609" y1="42.5246" x2="34.2142" y2="42.5246" gradientUnits="userSpaceOnUse">
<stop offset="0.02" stop-color="#D6D6D6"/>
<stop offset="0.24" stop-color="#E0E0E0"/>
<stop offset="1" stop-color="white"/>
</linearGradient>
<linearGradient id="paint3_linear_6251_8" x1="15.394" y1="34.7245" x2="36.3086" y2="34.7245" gradientUnits="userSpaceOnUse">
<stop offset="0.09" stop-color="white"/>
<stop offset="0.39" stop-color="#F6F6F6"/>
<stop offset="0.89" stop-color="#DDDDDD"/>
<stop offset="1" stop-color="#D6D6D6"/>
</linearGradient>
<linearGradient id="paint4_linear_6251_8" x1="36.4078" y1="50.6734" x2="15.4993" y2="50.2938" gradientUnits="userSpaceOnUse">
<stop offset="0.03" stop-color="#D6D6D6"/>
<stop offset="0.99" stop-color="white"/>
</linearGradient>
<clipPath id="clip0_6251_8">
<rect width="160" height="80" fill="white"/>
</clipPath>
</defs>
</svg>
