<svg width="160" height="80" viewBox="0 0 160 80" fill="none" xmlns="http://www.w3.org/2000/svg">
<g clip-path="url(#clip0_7251_8)">
<path d="M26.5507 15.7835C26.7449 15.5478 26.9668 15.4784 27.1748 15.3813C28.8669 14.563 29.7407 13.2038 29.6852 11.3314C29.6436 10.0554 29.9904 8.94581 30.6422 7.86398C31.3773 6.64346 32.0153 5.35358 32.7643 4.14692C33.8877 2.30226 35.4272 0.88756 37.5077 0.194079C38.6034 -0.166532 39.6852 0.0692521 40.7809 0.291166C42.792 0.707255 43.8739 2.03874 44.4702 3.89727C44.9002 5.21488 45.1637 6.57411 45.6908 7.86398C45.8711 8.30781 46.093 8.51585 46.6062 8.50198C48.3121 8.46038 50.0181 8.46038 51.7241 8.55746C53.3052 8.64068 54.8725 8.82099 56.412 9.22321C57.8822 9.61156 58.5479 10.4576 58.4508 11.8307C58.4092 12.3577 58.326 12.8709 58.1734 13.3841C57.8128 14.6878 57.2164 15.8945 56.62 17.1012C55.8849 18.5713 54.8447 19.8057 53.6658 20.9292C52.5562 21.9833 51.4328 23.0512 50.5313 24.2995C50.3648 24.5214 50.24 24.7711 50.1013 25.0068C49.7684 25.6448 49.8378 26.2551 50.1845 26.8654C50.5868 27.6005 51.1138 28.2385 51.6824 28.8487C52.7781 30.0138 53.8877 31.1927 54.7892 32.538C55.0944 32.9957 55.1082 33.0235 54.6922 33.3702C53.5687 34.3411 52.4453 35.2981 51.3218 36.2829C51.0444 36.5186 50.9474 36.3522 50.8225 36.1442C50.5174 35.6171 50.2123 35.0901 49.8933 34.5769C49.6575 34.1885 49.5743 34.1885 49.3801 34.5769C48.853 35.631 48.0625 36.4215 47.0084 36.9486C46.3288 37.2815 45.9127 37.7946 45.6908 38.5159C45.1637 40.2218 44.4009 41.8307 43.3468 43.2731C42.7227 44.1469 41.946 44.9098 41.2248 45.7142C40.3787 46.6712 39.7268 47.753 39.2691 48.9458C38.8253 50.097 38.2012 51.165 37.5632 52.2191C36.8142 53.4396 36.4952 54.7017 37.05 56.0887C37.9654 58.3494 38.0625 60.735 38.2289 63.1067C38.4231 65.8529 38.3815 68.5991 38.0902 71.3314C38.0763 71.4424 38.0763 71.5533 38.0763 71.6643C38.0902 72.1636 38.2705 72.2884 38.7421 72.1081C41.1554 71.1511 43.4855 70.0276 45.5521 68.4188C45.8295 68.2107 45.9543 68.2385 46.1485 68.5436C46.9668 69.7919 47.8128 71.0263 48.6866 72.2468C48.8669 72.5103 48.853 72.6351 48.6034 72.8154C47.2303 73.8279 45.8017 74.7572 44.2622 75.52C39.8378 77.7392 35.1499 78.821 30.1984 78.5575C23.541 78.1969 17.7296 75.7697 12.7643 71.3175C9.4217 68.3217 6.9113 64.7572 5.2192 60.5963C4.13737 57.9333 3.4855 55.1871 3.1665 52.33C2.90298 49.9167 2.95846 47.5172 3.3052 45.1178C3.9432 40.7211 5.45499 36.6435 7.89604 32.9264C10.8087 28.5159 14.6367 25.1317 19.4078 22.8293C21.1277 21.9971 22.903 21.3036 24.7892 20.8737C25.1637 20.7905 25.3579 20.6518 25.3302 20.2079C25.2747 19.5838 25.5937 19.0429 25.8295 18.4742C26.2317 17.545 26.8836 16.9208 27.7157 16.4215C27.8267 16.3522 27.9377 16.269 27.9099 16.1303C27.8822 15.9777 27.7296 15.9777 27.6048 15.9638C27.2719 15.8945 26.9113 15.9638 26.5507 15.7835ZM10.9612 45.6865C11.1554 45.6587 11.3496 45.6587 11.5021 45.5894C12.2927 45.2565 13.0278 44.8543 13.5687 44.1747C14.4564 43.0928 15.3579 42.011 16.2178 40.9153C17.4383 39.3758 18.7837 37.9749 20.1984 36.6157C21.1138 35.7419 21.8073 34.7295 22.1818 33.5089C22.3621 32.9403 22.6256 32.3994 22.9168 31.8723C23.4578 30.8876 23.9709 29.889 24.1374 28.7516C24.2483 28.0582 24.4286 27.3647 24.5673 26.6712C24.6506 26.269 24.5951 26.2135 24.2206 26.3383C24.1651 26.3522 24.1096 26.3661 24.068 26.3938C21.5715 27.3647 19.2137 28.5575 17.1332 30.2912C14.6783 32.33 12.6533 34.7156 11.0999 37.5172C9.82392 39.8335 9.01948 42.3161 8.50631 44.8959C8.43696 45.2149 8.52017 45.3397 8.83918 45.3258C9.283 45.312 9.71296 45.4091 10.1429 45.52C10.4342 45.5894 10.6977 45.631 10.9612 45.6865ZM40.6977 27.545C40.8225 28.0166 40.9751 28.4881 41.0444 28.9736C41.197 29.9583 41.0861 30.9153 40.4897 31.7475C40.4064 31.8723 40.351 32.0665 40.1845 32.0387C40.0042 32.011 39.9626 31.8168 39.8933 31.6643C39.2137 30.1663 38.3121 28.8349 37.161 27.6698C36.6062 27.115 36.2456 26.4632 36.0236 25.7281C35.6353 24.4243 35.5659 23.079 35.5105 21.7336C35.4966 21.4007 35.4689 21.0679 35.4411 20.735C35.4272 20.6102 35.4411 20.4437 35.2747 20.4437C35.0666 20.4437 35.1221 20.6379 35.1082 20.7627C35.0944 20.8598 35.1082 20.9569 35.1082 21.054C35.1221 21.9139 35.1082 22.7738 35.136 23.6337C35.1499 24.355 34.9418 24.993 34.5119 25.5755C34.179 26.0055 33.8739 26.4493 33.5132 26.8515C31.835 28.6823 31.1554 30.846 31.2386 33.3009C31.2525 33.7447 31.4051 34.0082 31.8489 34.1053C32.2511 34.2024 32.6533 34.3272 33.0555 34.4382C35.4411 35.1039 37.8544 34.9514 40.2677 34.5908C40.9751 34.4798 41.6408 34.6046 42.2927 34.8959C43.0555 35.2288 43.5965 35.8252 44.2067 36.3383C44.817 36.8515 45.5243 37.115 46.3288 36.8238C48.0209 36.2274 49.1443 34.6462 49.1859 32.8154C49.1859 32.6767 49.1166 32.5103 49.2691 32.4271C49.4356 32.3439 49.5465 32.5242 49.6436 32.6213C50.0458 33.0374 50.4342 33.4673 50.8225 33.8973C50.989 34.0776 51.1138 34.0914 51.308 33.925C51.946 33.398 52.5978 32.8709 53.2636 32.3855C53.5687 32.1636 53.6103 31.9833 53.3607 31.692C52.7088 30.9569 52.0985 30.1941 51.4328 29.459C50.7254 28.6823 49.9349 27.9749 49.1166 27.3092C48.8669 27.115 48.7005 27.0734 48.5063 27.4202C48.1873 27.9888 48.007 28.5852 47.9793 29.2371C47.9515 29.7919 47.7851 30.2912 47.4938 30.7627C46.5646 32.2329 45.2053 33.1899 43.6658 33.9111C43.3884 34.036 43.2358 33.9111 43.1249 33.6476C42.7643 32.7738 42.5146 31.8723 42.4453 30.9153C42.4314 30.735 42.4453 30.5408 42.2511 30.3328C42.0847 30.9569 41.9737 31.5394 42.1124 32.122C42.2372 32.6767 42.3621 33.2315 42.5285 33.7724C42.6395 34.1469 42.4869 34.244 42.154 34.244C41.7102 34.244 41.308 34.0914 40.9474 33.8418C40.5035 33.5228 40.5313 33.4257 40.7948 32.9125C41.5992 31.3175 41.8211 29.6809 41.1693 27.9749C41.0583 27.8085 40.9474 27.6421 40.6977 27.545ZM16.1762 46.1719C15.4411 46.6019 14.8031 47.1428 14.2345 47.7392C13.2913 48.7378 12.2095 49.4729 10.8364 49.7503C10.2955 49.8612 9.78231 50.097 9.44944 50.5824C9.26913 50.8598 9.01948 50.9985 8.68661 50.9985C8.35374 50.9985 8.21504 51.1788 8.27052 51.5117C8.36761 52.0804 8.43696 52.6629 8.53404 53.2315C9.2414 57.8085 11.2248 61.7891 14.2206 65.2842C14.2899 65.3675 14.3454 65.5061 14.4841 65.4507C14.6089 65.3952 14.5535 65.2565 14.5535 65.1594C14.5257 64.1053 14.5119 63.0512 14.4702 61.9971C14.3315 59.3619 14.1929 56.7406 14.2622 54.1053C14.3177 52.0526 14.6922 50.0554 15.4134 48.1275C15.6353 47.4756 15.9127 46.8376 16.1762 46.1719ZM27.0084 57.5727C27.2719 57.5589 27.5216 57.545 27.7712 57.5173C29.3662 57.3786 30.9058 56.9486 32.4453 56.5186C33.3607 56.269 34.3038 56.0887 35.2053 55.7281C35.5382 55.5894 35.8017 55.3813 35.9959 55.0901C36.2317 54.7295 36.1901 54.5908 35.8017 54.4243C35.4689 54.2856 35.1221 54.1747 34.8031 54.0221C32.6395 53.0374 30.6006 51.8307 28.7005 50.4021C26.0514 48.4049 23.4578 46.3522 21.4744 43.6476C21.0028 43.0096 20.559 42.33 20.5174 41.4701C20.5035 41.0817 20.2816 41.3037 20.1707 41.4007C19.3246 42.1497 18.3399 42.7461 17.7435 43.7447C17.688 43.8418 17.5354 43.9389 17.5909 44.0637C17.6741 44.2163 17.8406 44.1192 17.9654 44.1053C18.6034 44.0082 19.2553 43.9111 19.9071 44.036C21.0999 44.2579 21.9044 45.0068 22.584 45.95C24.0542 48.0027 25.0389 50.2773 25.7879 52.6767C26.0514 53.5228 26.2594 54.3827 26.093 55.2981C25.982 55.8806 25.9266 56.477 25.8017 57.0596C25.7324 57.4063 25.8572 57.5172 26.1623 57.5311C26.4397 57.5311 26.731 57.5589 27.0084 57.5727ZM25.3024 58.1414C24.9973 58.3217 25.0112 58.5713 24.9279 58.7655C24.3732 60.1663 23.7768 61.5394 23.3052 62.968C23.0694 63.6892 22.8059 64.4382 22.7643 65.2288C22.6811 66.9902 22.3205 68.7239 22.0431 70.4576C21.9737 70.9153 22.1124 71.1234 22.5285 71.3037C24.6644 72.2329 26.9113 72.7738 29.2137 73.0651C29.6991 73.1206 29.7546 73.079 29.6159 72.5797C29.3801 71.6781 29.0472 70.8182 28.6866 69.9583C27.369 66.8376 26.2178 63.6615 25.7185 60.2912C25.6214 59.5977 25.455 58.9042 25.3024 58.1414ZM34.7476 74.0637C34.8863 75.0485 35.0112 75.95 35.1221 76.8654C35.1637 77.1844 35.344 77.1844 35.5937 77.1428C39.6852 76.5048 43.4716 75.0485 46.8974 72.7045C47.1748 72.5103 47.1887 72.3716 46.9945 72.1081C46.5368 71.484 46.1069 70.8321 45.6908 70.1802C45.3302 69.6254 45.344 69.6254 44.7892 69.986C43.3191 70.943 41.7795 71.7614 40.1429 72.3716C38.534 72.968 36.8836 73.4673 35.1776 73.717C34.9557 73.7725 34.6644 73.7725 34.7476 74.0637ZM21.0722 71.6643C21.0306 71.4424 20.8087 71.4007 20.6422 71.3175C17.4245 69.6254 14.706 67.3647 12.5424 64.4243C12.4037 64.244 12.2927 64.1885 12.1124 64.355C11.3912 64.9514 10.6561 65.5339 9.92101 66.1025C9.71296 66.2551 9.71296 66.3938 9.8794 66.588C10.3232 67.1012 10.7254 67.6421 11.1831 68.1553C13.5132 70.7905 16.2317 72.9125 19.3662 74.5214C19.5881 74.6324 19.6852 74.6185 19.7962 74.3827C20.1845 73.5089 20.6006 72.649 21.0167 71.7891C21.0167 71.7475 21.0444 71.7059 21.0722 71.6643ZM4.09576 49.0152C4.09576 49.6948 4.10963 50.3744 4.09576 51.054C4.08189 51.4562 4.2622 51.5533 4.63668 51.4978C5.34403 51.3869 6.06525 51.3175 6.78647 51.3037C7.53543 51.2759 7.5493 51.2759 7.43834 50.4992C7.42447 50.3883 7.4106 50.2773 7.4106 50.1663C7.32739 46.6989 7.82669 43.3425 9.13044 40.1109C9.22753 39.8751 9.18592 39.7503 8.93626 39.6809C8.06248 39.4313 7.21643 39.0845 6.37038 38.7239C6.10686 38.6129 5.9959 38.6684 5.92656 38.9319C5.59368 40.0693 5.14986 41.165 4.88633 42.3161C4.37316 44.5491 4.08189 46.7683 4.09576 49.0152ZM25.3579 22.0249C25.3995 21.7336 25.3163 21.6365 25.0112 21.7197C21.7102 22.5935 18.6866 24.036 15.8711 25.9638C15.6769 26.1025 15.6353 26.2135 15.7879 26.4215C16.3426 27.1844 16.8836 27.9611 17.3967 28.7378C17.5632 28.9874 17.7019 28.9181 17.8683 28.7794C18.2844 28.4465 18.7143 28.1552 19.172 27.8917C20.9196 26.8376 22.7643 25.9916 24.7199 25.4091C24.9141 25.3536 25.0666 25.2842 25.0805 25.0346C25.1499 24.0221 25.1776 23.0096 25.3579 22.0249ZM46.3843 11.9C46.1485 11.8307 46.0653 12.011 46.0098 12.3577C45.9266 13.0512 45.7324 13.717 45.3024 14.2856C44.8863 14.8265 44.8725 14.9236 45.2608 15.4923C45.7601 16.2135 46.2872 16.907 46.7726 17.6282C46.9945 17.9611 47.2026 18.0304 47.5493 17.8224C48.1734 17.4479 48.8669 17.1705 49.602 17.1428C49.9904 17.1289 50.24 16.9625 50.4619 16.6573C51.1138 15.7281 51.7934 14.8127 52.7088 14.1192C52.9585 13.925 52.903 13.7586 52.6672 13.606C52.265 13.3286 51.835 13.1067 51.3773 12.9403C49.8239 12.3577 48.1734 12.1497 46.3843 11.9ZM29.172 31.8723C29.2137 31.4562 29.1027 31.054 29.075 30.6379C29.0611 30.5131 29.1166 30.3328 28.9779 30.305C28.7976 30.2634 28.7837 30.4715 28.7282 30.5824C28.0347 32.0803 27.4106 33.6338 26.5784 35.0623C25.9266 36.1858 25.2886 37.2953 24.5396 38.3494C24.4702 38.4604 24.2345 38.5297 24.3454 38.6962C24.4702 38.8903 24.6644 38.7655 24.8309 38.7239C25.6908 38.502 26.5091 38.1553 27.3413 37.8224C28.4647 37.3647 28.8253 36.3938 29.0056 35.3258C29.0472 35.0901 28.9779 34.9791 28.7005 35.1039C28.3537 35.2704 27.9931 35.4091 27.6325 35.5755C27.5216 35.6171 27.3829 35.7419 27.2858 35.631C27.161 35.4923 27.3413 35.4229 27.4245 35.3397C27.8267 34.8265 28.2428 34.3411 28.6173 33.7863C29.0195 33.2038 29.2414 32.5797 29.172 31.8723ZM26.0375 76.5186C26.0791 76.7267 25.8988 76.9763 26.1485 77.0734C26.3704 77.1705 26.5784 77.0179 26.6755 76.8376C26.9113 76.3938 27.2303 76.3661 27.6325 76.588C27.6741 76.6019 27.7157 76.6157 27.7573 76.6296C27.9099 76.6573 28.0763 76.7405 28.1873 76.6019C28.2844 76.477 28.1734 76.3245 28.1041 76.2274C27.7573 75.7697 27.7712 75.3536 28.1596 74.9375C28.2567 74.8265 28.4231 74.674 28.326 74.5075C28.215 74.3272 28.007 74.4382 27.8683 74.4798C27.3551 74.6601 26.9945 74.5075 26.731 74.0499C26.6478 73.9111 26.5784 73.7031 26.3843 73.7586C26.2039 73.8141 26.2594 74.0498 26.2456 74.2024C26.2039 74.6046 26.1207 74.9652 25.6353 75.0762C25.4411 75.1178 25.1499 75.1871 25.136 75.3813C25.1082 75.631 25.4272 75.6726 25.6214 75.7697C25.8988 75.9361 26.2178 76.0887 26.0375 76.5186ZM6.63391 60.0693C6.66165 60.2634 6.50908 60.5131 6.75873 60.5963C7.00839 60.6795 7.11934 60.4576 7.2303 60.2773C7.43834 59.9583 7.70187 59.8196 8.07635 59.9999C8.1873 60.0554 8.31213 60.0831 8.43696 60.097C8.54791 60.1109 8.67274 60.1525 8.75596 60.0554C8.83918 59.9583 8.75596 59.8335 8.68661 59.7503C8.27052 59.2232 8.33987 58.7516 8.7837 58.2939C8.81144 58.2662 8.83918 58.2246 8.85305 58.1969C8.964 58.0166 8.88078 57.9472 8.70048 57.9472C8.60339 57.9472 8.50631 57.9333 8.40922 57.9749C7.89604 58.1553 7.52156 57.9888 7.27191 57.5311C7.24417 57.4895 7.20256 57.434 7.16095 57.4063C7.0916 57.3508 7.03613 57.2399 6.92517 57.2676C6.80034 57.3092 6.7726 57.434 6.78647 57.545C6.84195 58.183 6.52295 58.5159 5.92656 58.6546C5.8156 58.6823 5.64916 58.6962 5.64916 58.8626C5.64916 59.0013 5.78786 59.0706 5.88495 59.1261C5.9959 59.1955 6.1346 59.251 6.24556 59.3203C6.55069 59.5006 6.7726 59.7086 6.63391 60.0693ZM10.4758 33.717C10.5035 33.925 10.3787 34.2024 10.6145 34.2856C10.8641 34.3827 11.0167 34.1331 11.1277 33.9528C11.3496 33.6199 11.6131 33.5783 11.946 33.7308C12.0569 33.7724 12.1818 33.8141 12.3066 33.8418C12.6117 33.9111 12.6533 33.7724 12.5701 33.5228C12.5424 33.4257 12.5008 33.3286 12.4453 33.2593C12.1263 32.8848 12.1401 32.5519 12.5146 32.219C12.5701 32.1774 12.5978 32.1081 12.6256 32.0526C12.6811 31.9417 12.8059 31.8307 12.7227 31.7197C12.6395 31.6227 12.4869 31.6365 12.3759 31.6781C11.8073 31.8862 11.3773 31.7613 11.1138 31.1927C11.0722 31.0956 10.989 30.9846 10.8641 30.9985C10.7116 31.0263 10.6977 31.1788 10.6977 31.2898C10.6838 31.8584 10.4203 32.219 9.83779 32.33C9.69909 32.3577 9.53266 32.4132 9.51879 32.5519C9.50492 32.7322 9.71296 32.7877 9.82392 32.8987C9.8794 32.9541 9.97649 32.968 10.0458 32.9957C10.3926 33.1206 10.5729 33.3564 10.4758 33.717Z" fill="url(#paint0_linear_7251_8)"/>
<path fill-rule="evenodd" clip-rule="evenodd" d="M114.318 16.3798C115.968 17.309 117.091 18.6405 117.397 20.5823C117.508 21.3035 117.3 21.9692 117.05 22.6211C116.828 23.2869 116.564 23.9387 116.176 24.5351C114.831 26.5878 113.111 28.2522 111.058 29.5975C109.741 30.4575 108.354 31.1509 106.911 31.7889C104.539 32.843 102.057 33.3839 99.5048 33.6752C99.061 33.7307 99.0194 33.6752 99.1581 33.273C100.739 28.9179 102.306 24.5629 103.874 20.2078C104.012 19.8194 104.179 19.972 104.345 20.1385C104.597 20.381 104.847 20.6235 105.097 20.8655C105.604 21.3571 106.109 21.8466 106.62 22.3299C107.154 22.843 107.691 23.3562 108.229 23.8694C108.766 24.3825 109.304 24.8957 109.838 25.4089C109.855 25.4246 109.872 25.4406 109.888 25.4564C110.02 25.5809 110.14 25.6953 110.337 25.5476C111.71 24.5629 112.903 23.4256 113.582 21.8444C113.735 21.4838 113.874 21.1093 113.985 20.721C114.262 19.7224 113.666 18.3909 112.695 17.7806C111.807 17.2258 110.822 16.9623 109.81 16.7681C106.675 16.1856 103.666 16.6572 100.753 17.8916C100.719 17.9044 100.685 17.9182 100.65 17.9323C100.459 18.0093 100.251 18.0932 99.9348 18.058C100.684 17.42 101.46 17.0455 102.237 16.7127C104.193 15.8943 106.245 15.4505 108.354 15.298C110.42 15.1454 112.459 15.3396 114.318 16.3798ZM106.531 27.9411C106.824 27.8168 107.117 27.6927 107.41 27.5726C107.646 27.4755 107.619 27.3368 107.452 27.1842C106.606 26.463 105.829 25.7002 105.094 24.868C104.928 24.6738 104.817 24.757 104.734 24.9651C104.637 25.1939 104.557 25.4297 104.477 25.6655C104.397 25.9013 104.318 26.1371 104.22 26.3659C104.045 26.7757 103.912 27.2047 103.778 27.6347C103.659 28.0198 103.539 28.4057 103.388 28.7792C103.319 28.9457 103.388 29.0427 103.582 29.015H103.582C103.624 29.015 103.666 29.015 103.707 29.0011C104.676 28.7273 105.605 28.3335 106.531 27.9411ZM115.547 28.8838C115.65 28.7332 115.753 28.5824 115.857 28.4325C115.913 28.3492 115.982 28.2799 116.093 28.1967C116.168 28.3714 116.108 28.5013 116.055 28.6165C116.049 28.6293 116.043 28.6419 116.037 28.6544C115.108 30.7348 114.109 32.7737 112.625 34.5351C111.128 36.2827 109.408 37.7529 107.313 38.7653C103.527 40.5961 99.8931 40.3049 96.3841 38.0996C94.8307 37.1149 94.054 35.5892 93.6379 33.8416C93.1247 31.6641 93.4854 29.5836 94.3453 27.5864C95.5935 24.6877 97.5214 22.3298 100.281 20.7071C100.312 20.6887 100.342 20.67 100.372 20.6514C100.545 20.5438 100.713 20.4395 100.961 20.4158C100.907 20.6201 100.799 20.704 100.677 20.7989L100.67 20.8042C98.7419 22.2466 97.2995 24.1051 96.3425 26.2827C95.4687 28.2799 95.0804 30.3881 95.7184 32.5517C96.3286 34.6599 97.7988 35.9221 99.8654 36.5323C102.098 37.1842 104.262 36.782 106.384 36.0469C109.63 34.9234 112.306 32.954 114.498 30.3187C114.88 29.8625 115.213 29.3739 115.547 28.8838Z" fill="url(#paint1_linear_7251_8)"/>
<path d="M138.701 20.8318C140.282 20.8318 141.863 20.8457 143.444 20.818C143.791 20.818 143.86 20.9289 143.763 21.2202C143.749 21.2757 143.735 21.3312 143.735 21.3866C143.569 22.3436 143.569 22.3436 142.57 22.3436C140.573 22.3436 138.576 22.3575 136.578 22.3436C136.301 22.3436 136.218 22.413 136.176 22.7042C135.982 23.9802 135.76 25.2424 135.511 26.5045C135.441 26.8235 135.552 26.8374 135.802 26.8374C137.203 26.8374 138.603 26.8513 140.004 26.8235C140.323 26.8235 140.393 26.9067 140.296 27.198C140.226 27.4338 140.198 27.6834 140.185 27.9331C140.171 28.2521 140.004 28.3492 139.699 28.3353C138.326 28.3214 136.953 28.3353 135.58 28.3214C135.316 28.3214 135.192 28.3631 135.136 28.6543C134.817 30.388 134.623 32.1356 134.248 33.8554C134.179 34.1883 134.401 34.1189 134.554 34.1189C135.552 34.1328 136.551 34.1189 137.549 34.1189C138.77 34.1189 139.99 34.1328 141.211 34.1189C141.502 34.1189 141.572 34.2022 141.488 34.4657C141.419 34.7015 141.377 34.9511 141.364 35.2008C141.35 35.5336 141.211 35.6446 140.878 35.6446C137.73 35.6446 134.581 35.6446 131.433 35.6585C131.058 35.6585 131.003 35.5475 131.058 35.2008C131.738 31.2757 132.404 27.3367 133.083 23.4116C133.208 22.6765 133.347 21.9414 133.458 21.2063C133.499 20.8735 133.638 20.7764 133.971 20.7764C135.538 20.8318 137.119 20.8318 138.701 20.8318Z" fill="#FCFAFC"/>
<path d="M128.728 35.7285C128.34 35.7285 127.952 35.7146 127.563 35.7285C127.3 35.7424 127.175 35.6592 127.092 35.3956C126.689 34.1196 126.398 32.802 126.051 31.4983C125.94 31.0822 125.788 30.9296 125.33 30.9435C123.832 30.9851 122.334 30.9712 120.836 30.9435C120.434 30.9296 120.212 31.0683 120.018 31.4012C119.2 32.7327 118.368 34.0642 117.535 35.3956C117.397 35.6176 117.244 35.7285 116.967 35.7008C116.592 35.673 116.218 35.7146 115.843 35.7146C115.732 35.7146 115.594 35.784 115.538 35.673C115.469 35.5621 115.594 35.465 115.649 35.3818C116.246 34.4525 116.842 33.5094 117.438 32.5801C119.741 28.9324 122.043 25.2986 124.332 21.6508C124.512 21.3735 124.692 21.0961 124.859 20.8048C124.983 20.5829 125.15 20.4858 125.386 20.4719C125.954 20.4303 126.024 20.4719 126.176 21.0128C127.508 25.784 128.825 30.569 130.157 35.3402C130.24 35.6314 130.171 35.7146 129.879 35.7008C129.491 35.6869 129.103 35.7008 128.714 35.7008C128.728 35.7146 128.728 35.7146 128.728 35.7285ZM124.207 24.8686C124.11 24.9934 124.04 25.0628 123.985 25.146C123.139 26.4775 122.293 27.809 121.447 29.1404C121.266 29.4178 121.405 29.4317 121.627 29.4178C121.946 29.404 122.265 29.404 122.584 29.404C123.527 29.404 124.47 29.404 125.413 29.404C125.011 27.906 124.623 26.4081 124.207 24.8686Z" fill="#FCFAFC"/>
<path d="M132.626 54.4934C132.015 54.8401 131.655 55.2839 131.28 55.6862C130.323 56.6986 129.2 57.4199 127.813 57.6695C126.259 57.9469 124.332 57.2118 123.721 55.3117C123.541 54.743 123.416 54.1605 123.361 53.5641C123.347 53.4254 123.43 53.2174 123.25 53.1619C123.097 53.1203 122.972 53.2728 122.875 53.3838C122.196 54.2437 121.433 55.0204 120.656 55.811C119.311 57.1979 117.854 58.4462 116.121 59.3616C115.219 59.8332 114.262 60.1799 113.25 60.1799C112.265 60.166 111.322 59.8748 110.462 59.3616C109.574 58.8346 108.825 58.1411 108.104 57.406C107.605 56.8789 107.452 56.9067 107.078 57.517C105.954 59.32 105.011 61.2201 104.165 63.1619C104.096 63.3145 104.04 63.467 103.971 63.6196C103.707 64.1744 103.333 64.2853 102.778 64.0079C102.071 63.6473 101.738 62.7458 102.001 61.9968C102.418 60.8873 103.111 59.9164 103.721 58.9178C104.415 57.7943 105.15 56.7125 105.927 55.6446C106.246 55.2146 106.259 54.7985 106.038 54.3269C105.677 53.5641 105.372 52.7735 105.025 51.9968C104.97 51.8581 104.97 51.664 104.775 51.6501C104.609 51.6362 104.512 51.7888 104.429 51.9136C103.763 52.8151 103.125 53.7444 102.431 54.6321C100.601 56.9483 98.7144 59.2229 96.3566 61.0398C95.1499 61.9691 93.86 62.8013 92.3482 63.1619C89.5743 63.8415 87.1471 62.2188 86.6478 59.3894C86.2872 57.3366 86.7588 55.4365 87.5771 53.578C88.1457 52.302 88.7976 51.0676 89.6437 49.9441C90.8503 48.3353 92.2512 46.9344 94.0265 45.9358C94.7061 45.5475 95.455 45.3256 96.2317 45.2285C97.7713 45.0343 98.9641 46.1022 98.9363 47.6418C98.9086 49.0842 98.4093 50.3741 97.48 51.4421C96.1624 52.9816 94.5813 54.2021 92.6534 54.9095C91.9599 55.1591 91.2525 55.3394 90.5174 55.3949C89.824 55.4365 89.5882 55.7 89.5743 56.3935C89.5743 56.9206 89.5327 57.4476 89.6991 57.9608C90.1984 59.5419 91.5854 60.3186 93.1804 59.9303C94.3177 59.6529 95.3025 59.0703 96.204 58.363C97.48 57.3783 98.5064 56.13 99.6021 54.9649C101.142 53.3145 102.445 51.4698 103.777 49.639C104.068 49.2368 104.11 48.8207 103.999 48.3353C103.791 47.3783 103.583 46.4074 103.624 45.4226C103.666 44.2853 104.235 43.4809 105.178 42.94C105.94 42.51 106.426 42.7735 106.537 43.6473C106.648 44.5489 106.773 45.4642 106.87 46.3658C107.064 48.0856 107.466 49.75 108.049 51.3727C108.132 51.6085 108.173 51.9275 108.423 51.983C108.701 52.0384 108.881 51.7611 109.033 51.553C111.017 49.0981 113.208 46.8512 115.594 44.7846C115.788 44.6182 115.996 44.4934 116.218 44.3685C116.87 44.0218 117.535 44.424 117.549 45.1591C117.549 45.7278 117.286 46.1716 116.884 46.5322C115.677 47.6279 114.415 48.6543 113.291 49.8332C112.237 50.9289 111.197 52.0384 110.143 53.148C110.115 53.1758 110.087 53.2035 110.06 53.2451C109.463 54.0495 109.477 54.2437 110.129 55.0065C110.725 55.7139 111.377 56.3796 112.168 56.8928C113.236 57.5724 114.345 57.6279 115.497 57.1286C116.745 56.5877 117.799 55.7555 118.798 54.8401C119.81 53.9108 120.684 52.8568 121.558 51.8027C122.445 50.7347 123.305 49.639 124.193 48.571C125.011 47.5863 125.677 46.5045 126.343 45.4088C126.759 44.7292 127.355 44.3269 128.132 44.1882C128.465 44.1328 128.784 44.0634 129.117 44.0218C129.408 43.9802 129.713 44.0079 129.893 44.2992C130.06 44.5766 129.977 44.8401 129.838 45.0898C129.574 45.5613 129.297 46.019 129.033 46.4906C128.16 48.0579 127.286 49.6529 126.731 51.3727C126.495 52.0939 126.343 52.8429 126.37 53.6196C126.426 55.0759 127.535 55.6723 128.811 55.0065C130.323 54.216 131.308 52.9677 132.126 51.5253C132.958 50.0551 133.638 48.5294 134.096 46.8928C134.484 45.492 134.609 44.0634 134.512 42.6071C134.456 41.6085 134.914 40.9427 135.691 40.4296C136.384 39.9719 136.787 40.1106 136.995 40.915C137.341 42.2326 137.314 43.578 137.203 44.9233C136.967 47.9746 136.301 50.9427 135.4 53.8692C135.358 53.9802 135.261 54.1328 135.386 54.216C135.524 54.2992 135.635 54.1605 135.746 54.0773C136.565 53.3699 137.216 52.51 137.965 51.7194C139.935 49.6529 141.682 47.4337 143.333 45.1175C143.832 44.424 144.276 44.3824 144.845 44.9095C145.233 45.2701 145.247 45.5613 144.859 46.1161C143.763 47.6973 142.626 49.2507 141.405 50.7486C139.963 52.5239 138.437 54.216 136.773 55.7832C136.162 56.3519 135.566 56.9206 134.914 57.4476C134.04 58.155 133.458 59.0565 133 60.069C131.641 63.0925 130.018 65.9635 128.035 68.6265C126.232 71.026 124.276 73.2867 121.988 75.2423C120.864 76.1993 119.588 76.8789 118.132 77.1841C117.23 77.3783 116.357 77.2534 115.608 76.6848C114.692 75.9774 114.526 74.9927 114.637 73.9109C114.803 72.302 115.552 70.9566 116.523 69.7222C117.633 68.3214 118.992 67.1841 120.351 66.0606C122.57 64.216 124.997 62.6487 127.314 60.9427C128.52 60.0551 129.727 59.1674 130.92 58.2798C131.294 58.0024 131.599 57.6556 131.738 57.2118C132.043 56.3658 132.32 55.492 132.626 54.4934ZM129.713 61.6501C129.616 61.7056 129.533 61.7611 129.436 61.8165C127.466 63.2451 125.511 64.7014 123.583 66.1993C121.932 67.4892 120.351 68.8623 118.992 70.4712C118.284 71.3034 117.841 72.2465 117.882 73.3838C117.91 73.9663 118.437 74.4102 119.006 74.3131C119.311 74.2576 119.588 74.1605 119.866 74.0218C120.975 73.467 121.863 72.6348 122.737 71.7888C125.178 69.4171 127.119 66.657 128.839 63.7305C129.241 63.0787 129.574 62.4268 129.713 61.6501ZM96.412 48.6404C96.412 47.8498 96.0653 47.5724 95.3718 47.7111C94.9419 47.7943 94.5535 47.9746 94.2068 48.2243C92.5701 49.4171 91.3774 50.9844 90.5313 52.8013C90.4481 52.9677 90.2678 53.1341 90.4204 53.3283C90.5868 53.5502 90.8226 53.4393 91.0306 53.3977C93.0833 52.8984 94.6506 51.7056 95.8573 50.0274C96.1624 49.5974 96.3982 49.1258 96.412 48.6404Z" fill="#FCFAFC"/>
<path d="M64.4703 68.6411C60.5452 68.5995 56.8281 67.7118 53.4578 65.6452C49.9904 63.5093 47.9516 60.3748 47.3136 56.3526C46.9946 54.3831 47.1471 52.4414 47.8961 50.5828C49.1721 47.4344 51.4606 45.5065 54.8586 44.9795C56.3288 44.7576 57.7297 45.0211 59.075 45.6314C59.8933 46.0059 60.3094 46.7132 60.2123 47.476C60.1152 48.2111 59.6991 48.4469 59.0195 48.1418C58.2567 47.795 57.5355 47.3096 56.7172 47.0738C54.5674 46.4497 52.2789 47.3096 50.8642 49.2236C49.5743 50.9712 49.2969 52.9129 49.6021 54.9934C50.0597 58.1556 51.8489 60.4441 54.3455 62.2749C56.204 63.6341 58.229 64.7021 60.4342 65.3401C64.6783 66.5884 68.9086 66.6577 73.0695 64.9795C75.6908 63.9254 77.8822 62.2611 79.5743 59.9726C80.1707 59.1681 80.67 58.3221 81.0306 57.3928C82.1263 54.5912 81.5438 52.0807 79.5882 49.8477C78.1735 48.2389 76.4536 47.0045 74.6783 45.8394C72.3344 44.3138 69.9627 42.8158 67.8684 40.9434C67.0084 40.1806 66.1346 39.4178 65.4828 38.4746C62.6811 34.3831 63.0972 29.5703 66.7588 26.2694C67.2997 25.7839 67.8822 25.3678 68.5064 24.9934C70.6007 23.7451 72.8753 23.0377 75.2609 22.6633C77.2997 22.3443 79.3524 22.3027 81.3912 22.6494C83.8184 23.0655 86.1069 23.8283 87.8822 25.6591C89.2831 27.1016 89.6575 29.3623 88.8254 31.0544C88.5064 31.7063 88.007 32.1778 87.369 32.4968C85.9821 33.1903 84.5396 33.2874 83.0695 32.7881C82.8614 32.7187 82.6534 32.6217 82.4731 32.4968C81.9876 32.1778 81.8905 31.6924 82.1957 31.1515C82.5563 30.5273 82.8892 30.3887 83.4855 30.666C84.1236 30.9712 84.7893 31.096 85.4966 31.0683C86.6478 31.0267 87.2026 30.0003 86.7449 29.0156C86.0237 27.4622 84.8309 26.5468 83.3469 25.8672C78.2151 23.5371 73.3607 24.078 68.7837 27.2541C67.1887 28.3637 66.315 29.9448 66.3982 31.9282C66.4675 33.329 67.0362 34.5634 67.8822 35.6591C69.075 37.1986 70.6145 38.3637 72.1679 39.4871C74.8586 41.4289 77.7158 43.1487 80.2401 45.3262C82.1125 46.949 83.4439 48.9185 83.9571 51.3873C84.4564 53.7312 84.179 56.0197 83.1804 58.1973C81.8212 61.1376 79.6437 63.3568 76.9668 65.1182C73.971 67.0877 70.6284 68.0447 67.0917 68.4608C66.2179 68.5856 65.3441 68.655 64.4703 68.6411Z" fill="#FCFAFC"/>
<path d="M155.025 40.7905C154.359 40.7905 153.763 40.8043 153.166 40.7766C152.945 40.7627 152.792 40.8182 152.667 40.9985C152.362 41.4285 152.057 41.8584 151.752 42.2745C151.696 42.3577 151.655 42.4687 151.544 42.4548C151.433 42.4409 151.419 42.3161 151.405 42.219C151.294 41.7891 151.183 41.3591 151.086 40.9292C150.989 40.5269 150.781 40.2912 150.337 40.2079C149.935 40.1247 149.546 39.9583 149.158 39.8335C149.075 39.8057 148.936 39.7919 148.922 39.6948C148.908 39.5699 149.047 39.5283 149.13 39.459C149.519 39.1955 149.907 38.9319 150.309 38.6823C150.573 38.5158 150.698 38.3217 150.684 38.0027C150.656 37.4201 150.684 36.8376 150.684 36.1719C151.155 36.5464 151.585 36.8515 151.974 37.2121C152.32 37.545 152.639 37.5588 153.056 37.3785C153.43 37.2121 153.846 37.1289 154.234 36.9902C154.318 36.9624 154.387 36.9347 154.456 37.0041C154.54 37.0873 154.456 37.1566 154.415 37.226C154.234 37.545 154.207 37.9195 154.04 38.2246C153.735 38.7932 153.846 39.2648 154.248 39.7225C154.512 40.0554 154.748 40.416 155.025 40.7905Z" fill="#FCFAFC"/>
<path fill-rule="evenodd" clip-rule="evenodd" d="M132.941 43.8355C132.936 43.9806 132.931 44.1261 132.931 44.2716C132.91 44.2716 132.889 44.2751 132.868 44.2785C132.848 44.282 132.827 44.2855 132.806 44.2855C132.778 44.2577 132.75 44.2161 132.737 44.1884C132.64 44.0082 132.543 43.8419 132.446 43.6756L132.445 43.6752C131.835 42.6627 130.947 42.0802 129.755 42.1357C128.603 42.1912 127.48 42.4686 126.468 43.065C125.954 43.3562 125.524 43.7446 125.247 44.2855C124.873 45.0206 124.429 45.7002 123.929 46.3521C122.376 48.377 120.809 50.3742 119.131 52.3021C118.035 53.5643 116.814 54.6738 115.275 55.3812C114.637 55.6724 114.068 55.5337 113.555 55.1454C112.931 54.6877 112.945 54.341 113.472 53.8C115.233 51.9831 117.036 50.1939 118.992 48.5712C120.282 47.5032 120.517 46.1579 120.143 44.6322C119.99 44.0358 119.741 43.481 119.241 43.0788C117.965 42.0663 116.384 42.1079 114.997 43.2036C113.305 44.549 111.821 46.1163 110.351 47.7113L110.338 47.7267L110.324 47.7421C110.236 47.846 110.14 47.9571 109.977 47.9193C109.816 47.8792 109.797 47.7098 109.784 47.5858L109.782 47.5726C109.685 46.9484 109.602 46.3243 109.519 45.6863C109.487 45.4274 109.462 45.1685 109.438 44.9103V44.9103C109.366 44.1587 109.295 43.4131 109.047 42.6905C108.631 41.5116 107.563 40.7903 106.315 40.8597C104.623 40.9429 102.861 42.3299 102.279 44.0774C101.849 45.3534 101.918 46.6711 102.196 47.9748C102.307 48.4602 102.376 48.9318 102.043 49.3618C102.025 49.3842 102.008 49.4085 101.99 49.433C101.898 49.5598 101.801 49.6928 101.627 49.6114C101.446 49.5268 101.496 49.3475 101.54 49.1926L101.54 49.1925C101.546 49.1697 101.552 49.1474 101.558 49.126C102.057 47.3923 101.572 45.8666 100.351 44.6322C98.8392 43.1066 96.953 43.0511 95.0112 43.6613C92.5979 44.4242 90.8365 46.0747 89.2553 47.9471C88.3677 48.9873 87.6187 50.1246 86.953 51.3035C86.9416 51.3235 86.9313 51.3452 86.9211 51.367L86.9211 51.367C86.8814 51.4512 86.8412 51.5364 86.7311 51.5254C86.6104 51.5145 86.5938 51.408 86.5785 51.3091L86.5784 51.309C86.5744 51.2829 86.5704 51.2573 86.5646 51.2342C85.9544 48.1274 84.1929 45.7418 81.8767 43.7168C80.5474 42.5552 79.0734 41.559 77.6063 40.5676L77.6061 40.5674L77.6034 40.5656C77.3723 40.4094 77.1415 40.2534 76.9114 40.0969C76.7522 39.9871 76.5927 39.8774 76.4332 39.7677C74.7587 38.6159 73.0761 37.4586 71.5438 36.1163C70.6423 35.3257 69.8517 34.438 69.3801 33.3146C69.0611 32.5795 69.0334 31.7751 69.3385 31.0816C69.7824 30.0552 70.5729 29.2924 71.5438 28.7238C73.8878 27.3368 76.4398 27.0594 79.0889 27.2397C80.2262 27.3091 81.3358 27.5171 82.3899 27.9887C82.4468 28.0131 82.5038 28.0363 82.5604 28.0594C82.6968 28.115 82.8311 28.1697 82.9585 28.2383C83.0695 28.2938 83.1804 28.3631 83.1804 28.5157C83.1804 28.6272 83.0908 28.6581 83.0052 28.6875C82.9843 28.6946 82.9637 28.7017 82.9446 28.7099C82.8614 28.7515 82.7782 28.7931 82.6811 28.8208C81.7519 29.0844 81.1277 29.7085 80.7116 30.5545C79.8517 32.2744 80.4065 34.0913 82.0986 34.9512C84.3039 36.0747 86.523 36.1301 88.756 34.9512C90.4758 34.0497 91.5854 32.6489 91.9183 30.7626C92.3899 28.0441 91.3635 25.7834 89.4356 23.911C88.0625 22.6073 86.3427 21.9138 84.5674 21.3867C82.0431 20.6239 79.4634 20.291 76.8143 20.6239C74.0403 20.9845 71.3358 21.6225 68.8392 22.9263C66.4953 24.1607 64.5674 25.8389 63.3191 28.2245C62.2789 30.2217 61.7519 32.3437 62.0292 34.6045C62.2789 36.574 62.9446 38.4048 64.1236 40.0136C65.247 41.567 66.6617 42.8569 68.1458 44.0358C69.6738 45.2467 71.2951 46.3245 72.9173 47.4028C73.6363 47.8807 74.3554 48.3588 75.0667 48.8486C76.3704 49.7501 77.6603 50.7071 78.6728 51.9554C79.7685 53.3146 80.2817 54.8264 79.6575 56.5324C78.7838 58.9457 77.1888 60.8042 75.0112 62.1634C73.1527 63.3285 71.0861 63.8555 68.9502 64.2161C66.6894 64.6045 64.4703 64.3687 62.2789 63.8C59.9904 63.2036 57.9238 62.1079 56.0098 60.721C53.5826 58.9595 52.1679 56.6711 52.265 53.5643C52.3066 52.316 52.7643 51.3035 53.6659 50.4852C54.609 49.6392 55.7047 49.2924 56.9668 49.7778C57.4111 49.9404 57.8299 50.1791 58.2431 50.4146C58.3589 50.4806 58.4742 50.5463 58.5896 50.61C60.0736 51.4283 61.8767 50.8874 62.5702 49.4311C63.5272 47.3923 62.7366 45.0067 60.7116 44.0497C57.0084 42.3021 53.4578 42.746 50.1846 45.0899C47.6048 46.9207 46.315 49.6392 45.7047 52.6766C45.358 54.4242 45.4689 56.1717 45.8434 57.9193C46.7172 62.0525 48.8254 65.3534 52.376 67.6558C56.0653 70.0552 60.1846 71.1371 64.5397 71.2758C68.2428 71.3867 71.8073 70.5962 75.2331 69.1815C77.8684 68.0996 80.2262 66.5878 82.2234 64.549C83.1943 63.5504 84.0265 62.4408 84.7893 61.2758C84.8028 61.2556 84.8159 61.2339 84.8292 61.212L84.8292 61.2119C84.8979 61.0983 84.9711 60.9774 85.1222 61.0122C85.2532 61.0341 85.2811 61.1504 85.3073 61.2599C85.3144 61.2895 85.3214 61.3185 85.3302 61.3451C86.1208 63.6613 87.7574 65.0622 90.0459 65.7695C91.5438 66.2272 92.9863 65.936 94.401 65.4228C96.4537 64.6877 98.1596 63.384 99.7685 61.9415C99.7985 61.9145 99.8292 61.8823 99.8607 61.8492L99.8607 61.8492L99.8608 61.849C99.9747 61.7294 100.099 61.5989 100.24 61.6641C100.386 61.7266 100.352 61.8905 100.32 62.0447C100.309 62.0959 100.299 62.1461 100.296 62.1912C100.171 63.7446 100.601 65.0622 101.877 66.0469C103.069 66.9623 104.429 67.0317 105.524 66.2272C106.124 65.7711 106.43 65.1312 106.74 64.4803L106.8 64.3548C107.286 63.3285 107.757 62.3021 108.229 61.2619C108.382 60.9013 108.617 60.8597 108.922 61.0539C109.158 61.2064 109.394 61.359 109.63 61.4977C111.738 62.7876 113.929 63.162 116.315 62.3299C117.993 61.7335 119.436 60.7903 120.767 59.6392C121.147 59.3146 121.509 58.9714 121.873 58.6262L121.873 58.6258C122.053 58.4549 122.234 58.2834 122.418 58.1135C122.667 57.8777 122.903 57.8222 123.125 58.169C123.264 58.3909 123.458 58.5712 123.652 58.7515C124.096 59.1815 124.595 59.5559 125.178 59.8056C125.635 59.9998 125.635 60.1662 125.233 60.4713C125.036 60.6245 124.839 60.7689 124.636 60.9184L124.635 60.919L124.47 61.04C123.871 61.4837 123.263 61.9164 122.655 62.3493C121.095 63.459 119.535 64.5695 118.118 65.8666C116.717 67.1565 115.386 68.5018 114.401 70.1523C113.486 71.7057 112.903 73.3423 113.028 75.1731C113.139 76.782 113.791 78.058 115.164 79.0011C116.273 79.7778 117.438 80.2217 118.77 79.9027C120.476 79.5143 122.071 78.8625 123.472 77.7806C125.136 76.4769 126.578 74.9374 127.965 73.3562C131.1 69.764 133.638 65.7695 135.594 61.4145C135.899 60.721 136.287 60.083 136.884 59.5975C137.231 59.3174 137.56 59.0192 137.893 58.7175C137.973 58.6457 138.052 58.5738 138.132 58.5018C140.06 56.782 141.793 54.8819 143.43 52.8846C144.803 51.2203 146.135 49.5282 147.3 47.6974C148.465 45.8527 147.813 43.6197 145.857 42.954C144.415 42.4547 142.945 42.8014 141.918 44.4103C141.447 45.1454 140.961 45.8944 140.365 46.5601C140.34 46.585 140.316 46.6149 140.291 46.6452C140.206 46.7499 140.116 46.8604 139.977 46.7959C139.854 46.7346 139.874 46.5979 139.894 46.4693C139.9 46.4233 139.907 46.3783 139.907 46.3382C139.907 46.3243 139.911 46.3104 139.914 46.2966L139.914 46.2965C139.918 46.2826 139.921 46.2688 139.921 46.255C140.198 44.3964 140.115 42.5518 139.727 40.721C139.38 39.0566 137.868 38.0025 136.329 38.377C135.316 38.6267 134.484 39.1953 133.818 39.9859C133.111 40.8181 132.737 41.7473 132.917 42.8708C132.965 43.1873 132.953 43.5104 132.941 43.8355ZM131.766 57.2397C132.043 56.3659 132.321 55.4921 132.626 54.4935C132.015 54.8403 131.655 55.2841 131.308 55.7141C130.351 56.7265 129.228 57.4478 127.841 57.6974C126.301 57.9748 124.359 57.2258 123.749 55.3396C123.569 54.7709 123.444 54.1884 123.388 53.592C123.388 53.5628 123.392 53.5305 123.395 53.4972C123.407 53.3724 123.42 53.2336 123.278 53.1898C123.117 53.1362 123.008 53.2767 122.913 53.3988L122.903 53.4117C122.21 54.2716 121.447 55.0622 120.684 55.8389C119.325 57.2258 117.882 58.488 116.149 59.3895C115.247 59.8611 114.29 60.2217 113.278 60.2078C112.293 60.1939 111.35 59.9027 110.49 59.3895C109.588 58.8625 108.839 58.169 108.132 57.4339C107.633 56.9207 107.48 56.9346 107.106 57.5448C105.968 59.3479 105.025 61.2342 104.193 63.1898C104.137 63.3423 104.068 63.4949 103.999 63.6475C103.721 64.2023 103.361 64.3132 102.806 64.0358C102.099 63.6752 101.752 62.7737 102.029 62.0247C102.353 61.1513 102.844 60.3784 103.333 59.6084L103.334 59.6081C103.474 59.3878 103.613 59.1678 103.749 58.9457C104.429 57.8222 105.178 56.7265 105.954 55.6724C106.273 55.2425 106.287 54.8264 106.065 54.3548C105.802 53.7982 105.561 53.2268 105.321 52.6567L105.321 52.6566L105.321 52.6562L105.32 52.6551C105.231 52.4445 105.143 52.2341 105.053 52.0247C105.04 51.9935 105.031 51.9595 105.021 51.9254C104.988 51.8078 104.954 51.6887 104.803 51.678C104.656 51.678 104.574 51.7867 104.489 51.8983C104.483 51.9063 104.477 51.9144 104.471 51.9225C104.466 51.9288 104.461 51.9352 104.456 51.9415C104.268 52.2009 104.081 52.4613 103.895 52.7213L103.895 52.7216L103.895 52.7219L103.895 52.7222L103.895 52.7223C103.424 53.3797 102.956 54.0341 102.459 54.66C100.628 56.9762 98.7421 59.2508 96.3843 61.0677C95.1777 61.997 93.8878 62.8153 92.376 63.1898C89.5882 63.8694 87.1749 62.2466 86.6756 59.4172C86.315 57.3645 86.7865 55.4644 87.6048 53.6059C88.1735 52.316 88.8254 51.0955 89.6714 49.972C90.8919 48.377 92.2928 46.9623 94.0542 45.9637C94.7338 45.5754 95.4828 45.3534 96.2595 45.2563C97.799 45.0622 98.9918 46.1301 98.9641 47.6697C98.9363 49.0982 98.437 50.3881 97.5078 51.4699C96.1763 53.0095 94.609 54.23 92.6811 54.9374C92.0015 55.2009 91.2803 55.3673 90.5452 55.4228C89.8378 55.4644 89.6021 55.7279 89.6021 56.4214C89.6021 56.5091 89.6009 56.5968 89.5998 56.6844L89.5998 56.6851C89.594 57.1239 89.5882 57.5611 89.7269 57.9887C90.2262 59.5698 91.6132 60.3465 93.2082 59.9582C94.3455 59.6808 95.3164 59.0982 96.2317 58.3909C97.216 57.6313 98.0517 56.715 98.8853 55.8009L98.8853 55.8009C99.1324 55.53 99.3793 55.2592 99.6298 54.9928C100.991 53.5208 102.169 51.9077 103.344 50.2974L103.344 50.2974C103.497 50.0871 103.651 49.8768 103.805 49.6669C104.096 49.2508 104.137 48.8347 104.026 48.3631C103.818 47.4061 103.61 46.4491 103.652 45.4505C103.694 44.3132 104.262 43.5088 105.205 42.9679C105.968 42.524 106.454 42.8014 106.565 43.6752C106.6 43.9634 106.637 44.2515 106.674 44.5401C106.753 45.1545 106.831 45.7709 106.897 46.3937C107.092 48.1135 107.494 49.7778 108.076 51.4006C108.092 51.445 108.106 51.4923 108.121 51.5403C108.183 51.7471 108.248 51.9658 108.451 52.0109C108.682 52.0571 108.836 51.8623 108.978 51.6837C109.006 51.6481 109.033 51.6132 109.061 51.5809C111.045 49.126 113.236 46.8791 115.621 44.8125C115.816 44.6461 116.024 44.5074 116.246 44.3964C116.911 44.0497 117.577 44.438 117.577 45.187C117.577 45.7418 117.314 46.1995 116.911 46.5601C116.548 46.8897 116.18 47.213 115.813 47.5361L115.812 47.5363C114.958 48.2872 114.105 49.0368 113.319 49.8611L111.743 51.5206L110.171 53.1759C110.157 53.1898 110.143 53.2071 110.129 53.2244C110.115 53.2418 110.101 53.2591 110.088 53.273C109.505 54.0774 109.505 54.2577 110.157 55.0344C110.753 55.7557 111.405 56.4214 112.196 56.9207C113.264 57.6003 114.373 57.6558 115.524 57.1565C116.773 56.6156 117.841 55.7834 118.825 54.868C119.838 53.9387 120.712 52.8846 121.585 51.8306C121.919 51.423 122.252 51.0114 122.587 50.5988L122.588 50.5973L122.588 50.5969L122.588 50.5968C123.129 49.929 123.672 49.2587 124.221 48.5989C125.009 47.6508 125.655 46.5998 126.296 45.5574L126.37 45.4367C126.787 44.757 127.383 44.3548 128.16 44.2161C128.277 44.1966 128.392 44.1754 128.507 44.1543L128.507 44.1543C128.719 44.1153 128.929 44.0767 129.144 44.0497C129.436 44.022 129.741 44.0358 129.921 44.3271C130.088 44.6045 130.004 44.868 129.866 45.1177C129.721 45.3916 129.562 45.6608 129.402 45.9308C129.287 46.1256 129.172 46.3208 129.061 46.5185C128.187 48.0996 127.327 49.6808 126.759 51.4006C126.523 52.1218 126.37 52.8708 126.398 53.6475C126.44 55.1038 127.549 55.7002 128.839 55.0344C130.351 54.2439 131.336 52.9817 132.154 51.5532C132.986 50.083 133.666 48.5573 134.124 46.9207C134.512 45.506 134.637 44.0774 134.54 42.635C134.47 41.6364 134.942 40.9706 135.719 40.4575C136.412 39.9859 136.8 40.1246 137.022 40.9429C137.369 42.2605 137.327 43.6059 137.23 44.9512C136.995 48.0025 136.329 50.9706 135.427 53.8971C135.421 53.9225 135.411 53.95 135.401 53.9784L135.401 53.9785C135.366 54.0743 135.328 54.1797 135.413 54.2439C135.536 54.3175 135.648 54.2175 135.739 54.1359L135.739 54.1358C135.751 54.1251 135.763 54.1148 135.774 54.1052C136.289 53.6517 136.737 53.1434 137.186 52.6354L137.186 52.6354C137.451 52.3355 137.715 52.0357 137.993 51.7473C139.949 49.6946 141.71 47.4616 143.361 45.1454C143.86 44.4519 144.304 44.4103 144.873 44.9373C145.261 45.298 145.275 45.5892 144.886 46.144C143.791 47.7251 142.653 49.2785 141.433 50.7765C139.99 52.5518 138.465 54.2439 136.8 55.8111L136.578 56.0188C136.044 56.5177 135.514 57.0126 134.942 57.4755C134.068 58.169 133.486 59.0844 133.028 60.0969C131.683 63.1204 130.046 65.9914 128.063 68.6544C126.259 71.0539 124.304 73.3146 122.015 75.2702C120.906 76.2272 119.616 76.9068 118.16 77.212C117.244 77.4061 116.384 77.2813 115.635 76.7127C114.72 76.0053 114.554 75.0206 114.664 73.9387C114.817 72.3299 115.566 70.9845 116.551 69.7501C117.66 68.3631 119.006 67.212 120.379 66.0885C121.882 64.8391 123.474 63.717 125.069 62.5928C125.829 62.0572 126.589 61.5211 127.341 60.9706C128.079 60.4363 128.812 59.8917 129.546 59.3461L129.546 59.3458L129.547 59.3455C130.012 58.9991 130.479 58.6523 130.947 58.3077C131.322 58.0303 131.627 57.6974 131.766 57.2397ZM67.0917 68.4741C66.2179 68.5851 65.3441 68.6544 64.4703 68.6405C60.5313 68.5989 56.8143 67.7113 53.4439 65.6863C49.9765 63.5643 47.9377 60.4159 47.2997 56.3937C46.9946 54.4103 47.1333 52.4686 47.8822 50.6239C49.1444 47.4755 51.4467 45.5337 54.8448 45.0206C56.315 44.7848 57.7158 45.0483 59.0611 45.6724C59.8795 46.0469 60.2955 46.7543 60.1985 47.5171C60.1014 48.2522 59.6853 48.488 59.0057 48.1828C58.7464 48.0625 58.4948 47.9297 58.2442 47.7975L58.2442 47.7974L58.2441 47.7974C57.7442 47.5336 57.2484 47.2719 56.7033 47.1149C54.5535 46.4907 52.265 47.3507 50.8503 49.2647C49.5605 51.0122 49.2969 52.954 49.5882 55.0344C50.0459 58.1967 51.8351 60.4852 54.3316 62.316C56.1901 63.6752 58.2151 64.7293 60.4204 65.3812C64.6645 66.6294 68.9086 66.6988 73.0556 65.0206C75.677 63.9665 77.8684 62.3021 79.5605 60.0136C80.1568 59.2092 80.6562 58.3493 81.0168 57.4339C82.1125 54.6322 81.5299 52.1218 79.5743 49.8888C78.1596 48.2799 76.4398 47.0455 74.6645 45.8805C74.4189 45.7192 74.1732 45.5585 73.9276 45.3979C71.8292 44.0257 69.7418 42.6607 67.8545 40.9845L67.773 40.9122C66.9396 40.1733 66.1002 39.4291 65.4689 38.5157C62.6534 34.4242 63.0695 29.6114 66.7449 26.3104C67.2858 25.825 67.8684 25.4089 68.4925 25.0344C70.5729 23.7862 72.8614 23.0788 75.247 22.7043C77.2858 22.3853 79.3385 22.3437 81.3774 22.6905C83.8184 23.1066 86.0931 23.8694 87.8684 25.7002C89.2692 27.1426 89.6437 29.4034 88.8115 31.0955C88.4925 31.7473 87.9932 32.2189 87.3552 32.5379C85.9682 33.2314 84.5258 33.3285 83.0556 32.8292C82.8476 32.7598 82.6395 32.6627 82.4592 32.5379C81.9738 32.205 81.8767 31.7196 82.1818 31.1926C82.5424 30.5684 82.8753 30.4297 83.4717 30.7071C84.1097 31.0122 84.7754 31.1371 85.4828 31.1093C86.634 31.0816 87.1888 30.0552 86.7311 29.0566C86.0237 27.5032 84.817 26.5878 83.333 25.9082C78.2151 23.5781 73.3469 24.119 68.7699 27.2952C67.1749 28.3909 66.2872 29.972 66.3843 31.9693C66.4537 33.3701 67.0223 34.6045 67.8684 35.7002C69.0473 37.2397 70.5868 38.3909 72.1541 39.5282C73.0708 40.1897 74.0084 40.8239 74.9462 41.4582L74.9463 41.4583C76.7609 42.6856 78.5759 43.9131 80.2401 45.3396C82.1125 46.9762 83.444 48.9457 83.9571 51.4006C84.4564 53.7584 84.179 56.0331 83.1804 58.2106C81.8351 61.1509 79.6437 63.3701 76.9668 65.1315C73.9571 67.101 70.6145 68.058 67.0917 68.4741ZM131.915 47.3755C132.012 47.2268 132.109 47.0775 132.293 47.0039C132.39 47.1565 132.348 47.2674 132.307 47.3645C131.752 48.9179 131.183 50.4713 130.115 51.7612C130.101 51.7797 130.089 51.7997 130.077 51.8198C130.052 51.8598 130.027 51.8999 129.99 51.9276C129.977 51.9387 129.964 51.9508 129.95 51.9631L129.95 51.9632C129.879 52.0279 129.804 52.0968 129.699 52.0386C129.576 51.9701 129.628 51.8475 129.67 51.751L129.671 51.7473C129.769 51.5292 129.862 51.3087 129.955 51.0878L129.955 51.0874L129.955 51.087C130.087 50.7744 130.219 50.461 130.365 50.1523C130.809 49.2092 131.322 48.3077 131.877 47.4339L131.894 47.4084L131.915 47.3755ZM154.748 42.4196C154.882 42.4165 155.016 42.4135 155.15 42.4135V42.4551C155.307 42.4551 155.464 42.4566 155.621 42.4582C155.936 42.4612 156.25 42.4643 156.565 42.4551C156.994 42.4412 157.036 42.358 156.814 41.9974C156.66 41.739 156.51 41.4806 156.36 41.2228C156.091 40.7611 155.823 40.3015 155.538 39.8476C155.233 39.3483 155.219 38.849 155.427 38.3081C155.612 37.8422 155.785 37.3708 155.958 36.9008L155.959 36.8984C156.059 36.6276 156.158 36.3574 156.259 36.0889C156.37 35.7977 156.329 35.659 155.968 35.6867C155.261 35.7283 154.567 35.8809 153.888 36.075C153.166 36.2692 152.598 36.1444 152.043 35.659C151.542 35.2077 150.995 34.8018 150.454 34.4002L150.282 34.272C150.018 34.0778 149.852 34.1056 149.81 34.4939C149.768 34.8823 149.72 35.2671 149.671 35.652C149.623 36.0369 149.574 36.4218 149.533 36.8101C149.463 37.4481 149.2 37.9336 148.631 38.2664C148.049 38.6132 147.508 38.9877 146.967 39.376C146.343 39.8337 146.343 39.8892 147.05 40.2498C147.577 40.4995 148.104 40.7352 148.645 40.9572C149.311 41.2345 149.768 41.6922 149.935 42.4135L149.959 42.5226L149.998 42.6932C150.142 43.3377 150.287 43.9888 150.517 44.6187C150.67 45.0348 150.822 45.0764 151.128 44.7436C151.384 44.4592 151.637 44.1749 151.89 43.8906C152.144 43.6063 152.397 43.3219 152.653 43.0376C153 42.6631 153.375 42.3719 153.943 42.4135C154.211 42.432 154.479 42.4258 154.748 42.4196ZM154.778 40.4499C154.858 40.5616 154.94 40.6755 155.025 40.7907C154.792 40.7907 154.569 40.7924 154.352 40.7939H154.352H154.352C153.936 40.797 153.544 40.7998 153.153 40.7907C152.931 40.7907 152.778 40.8323 152.653 41.0126C152.349 41.4281 152.044 41.8575 151.739 42.2868L151.738 42.2886C151.727 42.3048 151.717 42.3225 151.707 42.3403C151.664 42.4145 151.619 42.4913 151.53 42.4689C151.447 42.4452 151.425 42.3603 151.402 42.2753L151.399 42.2612C151.396 42.2518 151.394 42.2424 151.391 42.2332L151.391 42.2324C151.28 41.8027 151.169 41.373 151.072 40.9433C150.975 40.5549 150.753 40.3053 150.323 40.2221C150.05 40.1655 149.783 40.0706 149.518 39.9764C149.393 39.9319 149.269 39.8876 149.144 39.8476C149.138 39.8458 149.131 39.844 149.125 39.8423C149.116 39.8398 149.106 39.8375 149.097 39.8351C149.01 39.8134 148.92 39.7906 148.908 39.7089C148.897 39.5976 148.984 39.5488 149.062 39.5052C149.081 39.4945 149.1 39.4841 149.117 39.4731C149.505 39.2096 149.893 38.9461 150.295 38.6964C150.559 38.53 150.684 38.3358 150.67 38.0168C150.661 37.6358 150.664 37.2607 150.667 36.8565V36.8562V36.8559V36.8557C150.668 36.6423 150.67 36.4207 150.67 36.186C150.815 36.3013 150.958 36.41 151.096 36.5158C151.408 36.7536 151.701 36.9766 151.96 37.2262C152.307 37.5591 152.626 37.5868 153.042 37.3927C153.266 37.2928 153.506 37.2229 153.746 37.153C153.905 37.1064 154.065 37.0598 154.221 37.0043L154.232 37.0005C154.31 36.9742 154.376 36.952 154.442 37.0182C154.51 37.0855 154.468 37.1438 154.428 37.2003C154.418 37.2136 154.409 37.2269 154.401 37.2401C154.319 37.3973 154.267 37.5679 154.216 37.7371C154.163 37.9113 154.111 38.0839 154.026 38.2387C153.721 38.8074 153.832 39.2651 154.234 39.7366C154.426 39.9575 154.599 40.1983 154.778 40.4499ZM129.713 61.6503C129.574 62.427 129.241 63.0927 128.867 63.7307C127.147 66.6572 125.205 69.4172 122.764 71.7889C121.891 72.635 121.003 73.481 119.893 74.022C119.616 74.1607 119.325 74.2577 119.033 74.3132C118.451 74.4103 117.924 73.9665 117.91 73.384C117.868 72.2605 118.312 71.3174 119.02 70.4713C120.379 68.8625 121.946 67.4894 123.61 66.1995C125.538 64.7016 127.48 63.2453 129.463 61.8167C129.519 61.7612 129.616 61.7057 129.713 61.6503ZM95.8573 50.0272C96.1624 49.5973 96.3982 49.1257 96.4121 48.6403C96.4121 47.8497 96.0653 47.5723 95.3718 47.711C94.9419 47.7942 94.5535 47.9745 94.2068 48.2242C92.5702 49.417 91.3913 50.9842 90.5313 52.8011C90.5157 52.8299 90.4966 52.8596 90.4769 52.8902C90.392 53.0221 90.2965 53.1706 90.4204 53.3282C90.57 53.5276 90.7755 53.4694 90.9667 53.4153C90.9882 53.4092 91.0096 53.4032 91.0307 53.3975C93.0834 52.9121 94.6506 51.7193 95.8573 50.0272Z" fill="url(#paint2_linear_7251_8)"/>
</g>
<defs>
<linearGradient id="paint0_linear_7251_8" x1="30.7307" y1="0.0078125" x2="30.7307" y2="78.5964" gradientUnits="userSpaceOnUse">
<stop stop-color="#E63676"/>
<stop offset="1" stop-color="#F3B82E"/>
</linearGradient>
<linearGradient id="paint1_linear_7251_8" x1="105.414" y1="15.252" x2="93.4299" y2="41.4699" gradientUnits="userSpaceOnUse">
<stop stop-color="#D82725"/>
<stop offset="1" stop-color="#F68E2B"/>
</linearGradient>
<linearGradient id="paint2_linear_7251_8" x1="126.44" y1="20.5268" x2="101.221" y2="80.007" gradientUnits="userSpaceOnUse">
<stop stop-color="#B23471"/>
<stop offset="1" stop-color="#EB699E"/>
</linearGradient>
<clipPath id="clip0_7251_8">
<rect width="160" height="80" fill="white"/>
</clipPath>
</defs>
</svg>
