<svg width="160" height="80" viewBox="0 0 160 80" fill="none" xmlns="http://www.w3.org/2000/svg">
<path d="M19.9508 41.1975C19.918 41.2139 19.9016 41.2303 19.8688 41.2303C19.8524 41.2303 19.8196 41.1975 19.8032 41.1975C19.836 41.181 19.8524 41.1646 19.8852 41.1646C19.9016 41.1482 19.918 41.181 19.9508 41.1975Z" fill="#707173"/>
<path d="M54.2412 34.3529C55.8327 32.137 57.6046 30.0852 59.2617 27.9678C59.6883 27.4262 60.1313 26.8845 60.5579 26.3428C60.6891 26.1787 60.8204 26.0474 61.0665 26.0474C62.3954 26.0638 63.7408 26.0474 65.119 26.0474C64.8565 26.5562 64.4791 26.9337 64.1674 27.3441C62.4447 29.5436 60.7055 31.743 58.95 33.9425C58.7367 34.2051 58.7695 34.3857 58.9336 34.6483C60.886 37.7177 62.822 40.8035 64.758 43.873C64.8893 44.0863 65.0205 44.2997 65.201 44.5952C64.5119 44.5952 63.8885 44.5952 63.265 44.5952C62.5759 44.5952 61.8868 44.5788 61.1813 44.6116C60.8368 44.628 60.6399 44.5131 60.4594 44.2176C59.0156 41.8705 57.5554 39.5397 56.1116 37.1925C55.9311 36.897 55.8327 36.8642 55.5045 37.0447C54.4709 37.6028 54.0771 38.3579 54.1756 39.5561C54.3068 41.099 54.192 42.6419 54.2084 44.2012C54.2084 44.4967 54.1428 44.6116 53.8146 44.6116C52.7482 44.5952 51.6817 44.5952 50.6317 44.6116C50.3364 44.6116 50.2543 44.5295 50.2543 44.2341C50.2707 38.3086 50.2707 32.3832 50.2543 26.4413C50.2543 26.113 50.3528 26.031 50.6645 26.0474C51.6981 26.0638 52.7318 26.0638 53.749 26.0474C54.11 26.031 54.2084 26.1295 54.2084 26.4906C54.192 29.0019 54.192 31.5132 54.192 34.0246C54.2412 34.1395 54.2412 34.238 54.2412 34.3529Z" fill="#00ABEC"/>
<path d="M159.819 44.5951C158.441 44.5951 157.08 44.5787 155.701 44.6116C155.406 44.6116 155.308 44.4474 155.193 44.2504C153.733 41.9197 152.272 39.5889 150.845 37.2253C150.615 36.8478 150.484 36.897 150.139 37.0775C149.139 37.6028 148.81 38.3578 148.892 39.4904C149.007 41.0497 148.909 42.609 148.925 44.1848C148.925 44.4967 148.86 44.6116 148.532 44.5951C147.465 44.5787 146.399 44.5787 145.349 44.5951C145.07 44.5951 145.004 44.5131 145.004 44.234C145.004 38.2922 145.004 32.3503 145.004 26.3921C145.004 26.0802 145.102 26.0145 145.398 26.0145C146.431 26.031 147.465 26.031 148.482 26.0145C148.86 25.9981 148.942 26.1294 148.942 26.4905C148.925 29.1004 148.942 31.7102 148.942 34.3364C149.139 34.3364 149.171 34.1723 149.253 34.0738C151.14 31.3655 153.306 28.8706 155.324 26.2607C155.422 26.1294 155.537 26.0474 155.718 26.0474C157.063 26.0474 158.408 26.0474 159.885 26.0474C159.426 26.6383 159.016 27.1635 158.605 27.6888C156.981 29.7569 155.357 31.8251 153.732 33.8604C153.486 34.1559 153.47 34.3528 153.683 34.6811C155.669 37.7998 157.637 40.9348 159.606 44.0699C159.672 44.234 159.836 44.3653 159.819 44.5951Z" fill="#00ABEC"/>
<path d="M34.8964 40.065C36.1433 40.5903 37.3082 41.0827 38.5551 41.3617C39.4903 41.5587 40.4255 41.7064 41.3771 41.5095C42.1811 41.3453 42.8373 41.017 43.0506 40.1307C43.2639 39.2607 42.903 38.6206 42.2303 38.1118C41.4099 37.488 40.4583 37.0777 39.5232 36.6345C38.3419 36.06 37.1934 35.4199 36.2746 34.4186C34.2565 32.1699 34.4534 27.1144 39.1622 26.0475C41.7709 25.4566 44.2319 25.9654 46.6437 26.9995C46.8242 27.0816 46.8734 27.1637 46.7914 27.3606C46.4305 28.2142 46.0695 29.0841 45.725 29.9376C45.6101 30.2167 45.4624 30.1182 45.282 30.0525C43.8874 29.4944 42.4764 29.0184 40.9341 29.1005C39.7364 29.1662 38.9161 29.9376 38.9653 31.0209C38.9817 31.6118 39.2771 32.055 39.7364 32.3997C40.5732 33.0234 41.5248 33.4174 42.4436 33.8606C43.3952 34.3201 44.3304 34.829 45.1671 35.5019C47.9399 37.7342 47.5133 42.2317 44.3796 43.9059C43.0342 44.6281 41.5904 44.8087 40.081 44.8087C38.4075 44.8087 36.7832 44.546 35.241 43.8731C35.0441 43.791 34.88 43.7253 34.88 43.4463C34.8964 42.363 34.8964 41.2468 34.8964 40.065Z" fill="#00ABEC"/>
<path d="M156.03 53.393C156.44 53.5735 156.817 53.7213 157.227 53.8197C157.539 53.8854 157.834 53.9346 158.146 53.869C158.409 53.8197 158.622 53.7048 158.687 53.4094C158.753 53.1304 158.638 52.917 158.425 52.7528C158.162 52.5395 157.851 52.4081 157.539 52.2604C157.145 52.0634 156.768 51.8665 156.472 51.5382C155.816 50.7996 155.882 49.1418 157.408 48.7971C158.261 48.6001 159.065 48.7642 159.852 49.1089C159.918 49.1418 159.934 49.1582 159.902 49.2238C159.787 49.5029 159.655 49.7819 159.557 50.0774C159.524 50.1758 159.475 50.143 159.409 50.1102C158.95 49.9296 158.491 49.7655 157.982 49.7983C157.588 49.8147 157.326 50.0774 157.342 50.4221C157.342 50.619 157.441 50.7667 157.588 50.8816C157.867 51.0786 158.179 51.2099 158.474 51.3577C158.786 51.5054 159.098 51.6695 159.36 51.8993C160.263 52.6379 160.131 54.0988 159.098 54.6568C158.655 54.8866 158.179 54.9523 157.687 54.9523C157.145 54.9523 156.604 54.8702 156.095 54.6404C156.03 54.6076 155.98 54.5912 155.98 54.4927C156.03 54.148 156.03 53.7869 156.03 53.393Z" fill="#6D6E70"/>
<path d="M141.066 40.656C141.066 41.6573 141.066 42.6749 141.066 43.6926C141.066 43.8731 140.968 43.9552 140.82 44.0045C137.998 44.9893 135.127 45.2847 132.272 44.185C130.008 43.2987 128.696 41.4767 128.105 39.1788C127.399 36.3884 127.35 33.598 128.433 30.8733C129.696 27.689 132.157 26.0968 135.521 25.8342C137.572 25.6701 139.508 26.1132 141.394 26.9175C141.706 27.0488 141.755 27.1966 141.624 27.492C141.28 28.3127 140.951 29.1662 140.623 30.0033C140.525 30.266 140.426 30.2988 140.164 30.1839C139.508 29.8556 138.835 29.6094 138.146 29.3796C135.078 28.4112 132.617 29.8228 131.944 32.9743C131.567 34.7306 131.583 36.4869 132.026 38.2432C132.65 40.6068 134.372 41.7722 136.817 41.5588C138.08 41.4439 139.294 41.1648 140.492 40.7709C140.673 40.7217 140.837 40.6068 141.066 40.656Z" fill="#00ABEC"/>
<path d="M76.0951 35.3213C76.0951 32.3996 76.1115 29.4943 76.0787 26.5726C76.0787 26.113 76.2264 26.0146 76.6366 26.031C77.621 26.0638 78.6054 26.0638 79.5898 26.031C79.9836 26.0146 80.0656 26.1459 80.0656 26.5234C80.0492 31.2834 80.0656 36.0271 80.0492 40.7871C80.0492 41.2139 80.1312 41.3452 80.5906 41.3452C82.7399 41.3124 84.9056 41.3452 87.0713 41.3288C87.4487 41.3288 87.58 41.4273 87.5636 41.8048C87.5307 42.6091 87.5471 43.4134 87.5636 44.2176C87.5636 44.4967 87.4979 44.6116 87.1862 44.6116C83.6095 44.5952 80.0328 44.5952 76.4561 44.6116C76.0787 44.6116 76.0951 44.431 76.0951 44.1684C76.0951 41.2139 76.0951 38.2758 76.0951 35.3213Z" fill="#00ABEC"/>
<path d="M67.4979 35.3708C67.4979 32.4163 67.4979 29.4782 67.4979 26.5237C67.4979 26.1462 67.58 26.0313 67.9737 26.0313C68.9745 26.0641 69.9754 26.0641 70.9762 26.0313C71.3699 26.0149 71.4848 26.1298 71.4848 26.5401C71.4684 29.6588 71.4684 32.7938 71.4684 35.9125C71.4684 38.6536 71.4684 41.3947 71.4848 44.1359C71.4848 44.5134 71.4028 44.6283 71.009 44.6119C70.0246 44.5791 69.0402 44.5791 68.0558 44.6119C67.6292 44.6283 67.4815 44.5298 67.4979 44.0702C67.5143 41.165 67.4979 38.2597 67.4979 35.3708Z" fill="#00ABEC"/>
<path d="M80.1313 50.209C80.1641 51.5714 80.1313 52.9173 80.1313 54.2633C80.1313 54.9034 80.1313 54.887 79.4914 54.8706C79.2617 54.8542 79.1797 54.7885 79.1797 54.5587C79.1797 52.7532 79.1797 50.9477 79.1797 49.1421C79.1797 48.9123 79.2781 48.8631 79.4914 48.8302C80.0985 48.7646 80.5086 48.8959 80.8532 49.5032C81.5915 50.8328 82.4446 52.0966 83.3306 53.5082C83.3306 53.0651 83.3306 52.7368 83.3306 52.4085C83.3306 51.3252 83.347 50.2583 83.3142 49.1749C83.2978 48.781 83.5275 48.8302 83.7736 48.8302C84.0033 48.8302 84.2494 48.7482 84.2494 49.1585C84.233 50.9477 84.233 52.7368 84.2494 54.5259C84.2494 54.7885 84.1509 54.8214 83.9048 54.8542C83.2814 54.9363 82.8876 54.7557 82.5595 54.1648C81.8048 52.8189 80.9516 51.5221 80.1313 50.209Z" fill="#6D6E70"/>
<path d="M130.878 53.0978C130.878 53.4753 130.861 53.8364 130.878 54.2139C130.894 54.4929 130.812 54.6571 130.517 54.7227C129.795 54.8869 129.057 55.0018 128.318 54.9197C126.989 54.7884 126.202 54.0334 125.923 52.7202C125.808 52.195 125.808 51.6533 125.89 51.1281C126.103 49.7821 127.055 48.9122 128.433 48.7645C129.073 48.6988 129.729 48.7152 130.336 48.945C130.5 49.0107 130.894 48.9286 130.697 49.3225C130.566 49.5688 130.615 50.0448 130.057 49.815C129.483 49.5688 128.876 49.5359 128.269 49.7001C128.007 49.7821 127.76 49.897 127.564 50.094C126.727 50.8655 126.645 52.671 127.416 53.5081C127.892 54.0334 128.975 54.2632 129.664 53.9841C129.762 53.9513 129.828 53.902 129.828 53.7871C129.828 53.3768 129.828 52.9829 129.828 52.5725C129.828 52.4084 129.713 52.4084 129.598 52.4084C129.434 52.4084 129.27 52.392 129.122 52.4084C128.712 52.474 128.597 52.3099 128.614 51.8995C128.63 51.6369 128.712 51.5384 128.975 51.5384C129.483 51.5548 130.008 51.5548 130.517 51.5384C130.796 51.522 130.878 51.6369 130.861 51.8995C130.878 52.3263 130.878 52.7038 130.878 53.0978Z" fill="#6D6E70"/>
<path d="M72.0262 51.8505C72.0262 52.7204 72.0098 53.5904 72.0426 54.4603C72.059 54.8378 71.8949 54.9035 71.5996 54.8542C71.3371 54.8214 71.0089 54.9856 71.0254 54.4767C71.0582 53.8202 71.0254 53.1636 71.0418 52.4906C71.0418 52.2116 70.9433 52.1295 70.6808 52.1459C69.9917 52.1624 69.3026 52.1624 68.5971 52.1459C68.3182 52.1459 68.2362 52.228 68.2526 52.507C68.269 53.18 68.2362 53.8694 68.269 54.5424C68.2854 54.9527 68.0229 54.8707 67.7932 54.8707C67.5635 54.8542 67.2682 55.002 67.2682 54.5424C67.2846 52.7533 67.2846 50.9641 67.2682 49.175C67.2682 48.7154 67.5799 48.8796 67.8096 48.8632C68.0393 48.8467 68.3018 48.7975 68.269 49.2078C68.2362 49.7823 68.269 50.3732 68.2526 50.9477C68.2362 51.2268 68.3346 51.3088 68.6136 51.3088C69.3026 51.2924 69.9917 51.2924 70.6972 51.3088C70.9761 51.3088 71.0582 51.2268 71.0582 50.9477C71.0418 50.3732 71.0746 49.7823 71.0418 49.2078C71.0254 48.7154 71.3699 48.8796 71.5996 48.8632C71.8293 48.8467 72.0754 48.7975 72.059 49.2078C72.0098 50.0614 72.0262 50.9641 72.0262 51.8505Z" fill="#6D6E70"/>
<path d="M146.087 51.8502C146.087 50.9639 146.087 50.0775 146.087 49.1912C146.087 48.9286 146.153 48.8301 146.431 48.8301C147.35 48.8465 148.269 48.8465 149.188 48.8301C149.516 48.8301 149.549 48.9778 149.549 49.2404C149.549 49.5031 149.549 49.7164 149.171 49.7C148.597 49.6672 148.006 49.7 147.432 49.6836C147.186 49.6836 147.104 49.7657 147.088 50.0119C147.022 51.2922 147.006 51.2922 148.269 51.2922C148.482 51.2922 148.696 51.325 148.892 51.2922C149.335 51.2265 149.385 51.4399 149.385 51.8174C149.368 52.0965 149.27 52.1621 149.007 52.1621C148.482 52.1457 147.941 52.1621 147.416 52.1457C147.153 52.1457 147.071 52.2278 147.088 52.474C147.104 52.8679 147.104 53.2454 147.088 53.6394C147.071 53.9512 147.203 54.0169 147.481 54.0169C148.039 54.0005 148.614 54.0333 149.171 54.0005C149.549 53.9841 149.532 54.1974 149.532 54.4437C149.532 54.6899 149.549 54.8704 149.188 54.8704C148.253 54.854 147.317 54.854 146.382 54.8704C146.12 54.8704 146.054 54.7719 146.07 54.5257C146.103 53.623 146.087 52.7366 146.087 51.8502Z" fill="#6D6E70"/>
<path d="M45.9229 51.8178C45.9229 50.9479 45.9393 50.0779 45.9229 49.208C45.9229 48.9125 46.0049 48.8305 46.3002 48.8305C47.2026 48.8469 48.105 48.8469 49.0074 48.8305C49.3355 48.814 49.4011 48.9454 49.4011 49.2572C49.4011 49.5527 49.3355 49.7004 48.9909 49.684C48.4495 49.6512 47.8917 49.7004 47.3503 49.6676C47.0057 49.6512 46.9237 49.7825 46.9237 50.1108C46.9237 51.2926 46.9073 51.2926 48.105 51.2926C48.3183 51.2926 48.5316 51.309 48.7284 51.2926C49.1386 51.2269 49.2535 51.4075 49.2206 51.8014C49.2042 52.064 49.155 52.1625 48.8761 52.1625C48.3511 52.1461 47.8096 52.1789 47.2846 52.1461C47.0057 52.1297 46.9073 52.2446 46.9401 52.5072C46.9729 52.9832 46.7432 53.5905 47.0385 53.9024C47.301 54.1978 47.9245 53.968 48.3839 54.0009C48.5644 54.0173 48.7448 54.0173 48.9089 54.0009C49.3191 53.9352 49.4503 54.0993 49.4175 54.5097C49.4011 54.7723 49.3519 54.8708 49.073 54.8708C48.1378 54.8544 47.2026 54.8544 46.2674 54.8708C46.0213 54.8708 45.9393 54.8051 45.9393 54.5425C45.9393 53.6233 45.9229 52.7206 45.9229 51.8178Z" fill="#6D6E70"/>
<path d="M60.3117 53.8361C60.3937 54.7553 60.3937 54.7389 59.5734 54.8702C59.1632 54.9359 58.7366 54.9687 58.3265 54.9195C56.9483 54.7553 56.1115 53.869 55.9967 52.3917C55.9639 51.9814 55.9475 51.5546 56.0295 51.1442C56.3904 49.1089 58.4741 48.1077 60.3281 49.0104C60.5578 49.1253 60.5742 49.2566 60.4429 49.4208C60.3117 49.5849 60.4101 50.0281 59.9836 49.8804C59.639 49.7655 59.2945 49.6178 58.9171 49.6178C57.8671 49.6013 57.1616 50.2907 57.0467 51.4233C57.0467 51.4561 57.0467 51.4889 57.0467 51.5218C56.9319 53.6392 57.8999 54.427 59.9671 53.9182C60.0656 53.869 60.1804 53.8526 60.3117 53.8361Z" fill="#6D6E70"/>
<path d="M36.653 52.277C36.653 51.5548 36.6366 50.8326 36.653 50.094C36.6694 49.7657 36.5545 49.6836 36.2428 49.7C35.8818 49.7164 35.5373 49.6836 35.1763 49.7164C34.8154 49.7328 34.8482 49.5195 34.8482 49.2733C34.8482 49.0599 34.799 48.8301 35.1599 48.8301C36.4889 48.8465 37.8015 48.8465 39.1304 48.8301C39.5078 48.8301 39.4257 49.0599 39.4421 49.2733C39.4586 49.503 39.475 49.7328 39.114 49.7C38.7695 49.6672 38.4413 49.7164 38.0968 49.6836C37.7522 49.6508 37.6702 49.7985 37.6702 50.1268C37.6866 51.5384 37.6538 52.9664 37.6866 54.378C37.703 54.854 37.4733 54.8376 37.1288 54.8376C36.7842 54.8376 36.6038 54.8048 36.6366 54.378C36.6694 53.6886 36.653 52.9828 36.653 52.277Z" fill="#6D6E70"/>
<path d="M103.675 51.8504C103.675 50.964 103.692 50.0777 103.675 49.1913C103.659 48.7153 103.97 48.8466 104.217 48.8302C104.463 48.8302 104.725 48.7481 104.709 49.1913C104.676 50.6357 104.709 52.0966 104.692 53.541C104.692 53.9185 104.791 54.0006 105.152 53.9842C105.742 53.9514 106.349 54.0006 106.94 53.9678C107.35 53.9514 107.268 54.1976 107.285 54.4274C107.301 54.6736 107.285 54.8541 106.94 54.8377C105.972 54.8213 105.004 54.8213 104.052 54.8377C103.741 54.8377 103.675 54.7228 103.692 54.4438C103.692 53.5903 103.675 52.7203 103.675 51.8504Z" fill="#6D6E70"/>
<path d="M137.9 51.8011C137.9 50.9475 137.933 50.094 137.883 49.2405C137.867 48.7481 138.146 48.8465 138.441 48.8301C138.769 48.7973 138.933 48.863 138.917 49.2569C138.901 50.9804 138.884 52.7038 138.917 54.4109C138.933 54.8705 138.704 54.8376 138.392 54.8376C138.064 54.8541 137.867 54.8212 137.883 54.3945C137.933 53.5409 137.9 52.671 137.9 51.8011Z" fill="#6E6F71"/>
<path d="M124.315 32.0386C123.56 28.92 121.739 26.8354 118.556 26.0639C116.965 25.6864 115.357 25.67 113.765 25.949C110.664 26.4743 108.532 28.1978 107.596 31.2179C106.743 33.9426 106.76 36.7166 107.613 39.4413C108.417 42.0019 110.123 43.7254 112.732 44.4476C114.766 45.0057 116.85 45.0057 118.884 44.4476C121.345 43.7746 123.002 42.1989 123.905 39.8353C124.463 38.3744 124.643 36.8479 124.627 34.8618C124.66 34.1889 124.577 33.1055 124.315 32.0386ZM120.18 38.1774C119.573 40.4426 118.146 41.5259 115.8 41.5259C113.568 41.5259 112.125 40.4426 111.534 38.2759C110.976 36.2406 110.976 34.1889 111.583 32.1863C112.043 30.6106 113.043 29.4945 114.717 29.199C116.341 28.9036 117.916 29.0513 119.114 30.3644C119.918 31.2343 120.23 32.3341 120.377 33.4831C120.607 35.0588 120.591 36.6181 120.18 38.1774Z" fill="#00ABEC"/>
<path d="M105.217 44.1191C103.61 41.7227 102.002 39.3427 100.377 36.9626C100.148 36.6179 100.18 36.5031 100.541 36.3061C102.592 35.2392 103.626 33.565 103.527 31.2178C103.429 28.9362 102.313 27.3933 100.213 26.6547C99.3929 26.3592 98.5398 26.1951 97.6702 26.1458C95.4881 25.9817 93.2896 26.0966 91.1075 26.0474C90.8121 26.0474 90.7301 26.1458 90.7301 26.4413C90.7301 32.3667 90.7301 38.3086 90.7301 44.234C90.7301 44.5787 90.8614 44.628 91.1567 44.6115C92.1575 44.5951 93.1583 44.5787 94.1591 44.6115C94.6021 44.628 94.6842 44.4966 94.6842 44.0699C94.6678 42.0181 94.6842 39.9828 94.6678 37.9311C94.6678 37.57 94.7662 37.4386 95.1271 37.4715C95.5045 37.5043 95.8983 37.5043 96.292 37.4715C96.653 37.4386 96.8335 37.5864 97.0139 37.8818C98.3101 40.0156 99.639 42.1166 100.968 44.234C101.066 44.3818 101.099 44.5951 101.362 44.5951C102.724 44.5787 104.085 44.5951 105.546 44.5951C105.398 44.3818 105.316 44.2504 105.217 44.1191ZM97.6866 34.0902C96.7678 34.3528 95.8326 34.2543 94.9139 34.2708C94.6349 34.2708 94.6678 34.0738 94.6678 33.9096C94.6678 33.2038 94.6678 32.498 94.6678 31.7922C94.6678 31.0864 94.6678 30.3806 94.6678 29.6748C94.6678 29.4943 94.6349 29.3137 94.9139 29.3137C95.8326 29.3302 96.7514 29.2645 97.6538 29.4943C98.9828 29.8226 99.557 30.4791 99.5734 31.7102C99.5734 32.9576 98.9664 33.7291 97.6866 34.0902Z" fill="#00ABEC"/>
<path d="M116.423 48.7479C114.848 48.7479 113.929 49.5193 113.651 51.0622C113.568 51.4562 113.585 51.8665 113.618 52.2605C113.7 53.8034 114.619 54.7718 116.079 54.9195C117.687 55.0837 118.819 54.3286 119.163 52.8514C119.229 52.5887 119.262 52.3097 119.278 52.0471C119.344 50.061 118.392 48.6986 116.423 48.7479ZM118.097 52.7529C117.867 53.6556 117.293 54.0988 116.39 54.066C115.505 54.0496 114.947 53.5572 114.75 52.6544C114.635 52.0963 114.635 51.5382 114.75 50.9802C114.947 50.0446 115.537 49.585 116.505 49.6014C117.408 49.6178 117.982 50.1266 118.13 51.0622C118.162 51.3085 118.179 51.5711 118.179 51.686C118.179 52.1456 118.179 52.4574 118.097 52.7529Z" fill="#6D6E70"/>
<path d="M93.0435 48.8464C92.2067 49.027 91.6653 49.5686 91.3536 50.3565C91.0911 51.0459 91.0911 51.7845 91.1567 52.5067C91.3044 53.9019 92.1903 54.7883 93.6013 54.9196C95.078 55.0673 96.1936 54.3943 96.6038 53.1305C96.7351 52.7201 96.7843 52.2769 96.7679 51.883C96.8991 49.6671 95.4553 48.3212 93.0435 48.8464ZM95.6522 52.6709C95.4389 53.6065 94.8811 54.0825 93.9787 54.0825C93.0763 54.0825 92.5021 53.6065 92.3052 52.6709C92.1903 52.0964 92.1739 51.5219 92.3216 50.9474C92.5513 50.0446 93.0927 49.6179 94.0115 49.6179C94.9139 49.6179 95.4061 50.0446 95.6522 50.9474C95.7342 51.2429 95.7342 51.5547 95.7671 51.8666C95.7178 52.1292 95.7014 52.4083 95.6522 52.6709Z" fill="#6D6E70"/>
<path opacity="0.4" d="M22.5267 41.6244C20.8368 39.5398 19.3109 38.7684 18.3265 38.752V38.7684C18.3429 38.8833 18.2773 38.9817 18.2117 39.0638C18.1788 39.0966 18.1624 39.1295 18.1296 39.1623C18.1132 39.1787 18.0968 39.1951 18.0968 39.2115C14.9467 43.7418 11.7966 48.272 8.64644 52.8023C7.1042 55.0182 6.54636 57.431 7.26826 60.0901C7.67844 61.6002 8.23627 63.061 9.2699 64.2756C10.041 65.1784 10.9434 65.2933 11.9278 64.6367C12.6005 64.1936 13.1255 63.6027 13.6013 62.9789C15.0779 61.0585 16.292 58.9904 17.6702 57.0043C17.8179 56.7909 17.982 56.5611 18.1296 56.3477C18.2609 56.1672 18.3921 55.9702 18.5234 55.7732C18.6054 55.6419 18.6875 55.527 18.7695 55.3957C20.5414 52.8023 22.2642 50.1761 24.0525 47.5991C24.0525 47.5991 24.2002 43.709 22.5267 41.6244Z" fill="#FEFEFE"/>
<path d="M27.0222 42.6422C26.53 43.8733 25.8573 45.0058 25.1026 46.0727C24.7416 46.5816 24.3971 47.0904 24.0525 47.5992C24.0525 47.5992 24.2166 43.7255 22.5267 41.641C20.8368 39.5564 19.3109 38.7849 18.3265 38.7685C16.6202 38.4402 14.9139 38.0956 13.224 37.6852C11.895 37.4226 10.5496 37.1435 9.22069 36.8645C9.12225 36.8481 9.0238 36.766 8.94177 36.6839C8.02298 35.6827 7.21905 34.5994 6.94013 33.2206C6.66121 31.9075 6.98935 30.7749 7.97376 29.8393C8.13783 29.6916 8.28549 29.6424 8.48238 29.6588C10.0574 29.8229 11.6489 29.9871 13.224 30.1512C15.7506 30.4302 18.2609 30.66 20.7711 31.0376C21.4602 31.136 22.1657 31.1689 22.8384 31.3494C25.5127 32.0552 27.1862 33.7951 27.8097 36.487C28.3347 38.6372 27.8261 40.6561 27.0222 42.6422Z" fill="url(#paint0_linear_5701_125)"/>
<path d="M7.54669 36.502C6.87401 35.8454 6.39821 35.2217 6.07007 34.4995C5.20051 32.5298 5.69271 30.7571 6.92323 29.1321C8.02249 27.6877 9.12175 26.2433 10.221 24.7988C11.6976 22.8292 13.1578 20.8759 14.6017 18.9226C15.0775 18.2825 15.4384 17.5931 15.6025 16.8052C15.8158 15.7383 15.3564 14.8027 14.3556 14.2775C13.4696 13.8015 12.6492 13.9492 11.8289 14.7535C11.189 15.3772 10.6968 16.1159 10.1718 16.8217C7.48106 20.4163 4.74111 24.011 1.96835 27.5564C1.19722 28.5576 0.524541 29.5917 0.179996 30.8392C-0.410652 33.0222 0.491727 34.7129 2.65744 35.3202C4.2325 35.7469 5.84037 36.0916 7.54669 36.502Z" fill="url(#paint1_linear_5701_125)"/>
<path d="M22.5267 41.6244C20.8368 39.5398 19.3109 38.7684 18.3265 38.752V38.7684C18.3265 38.8833 18.2773 38.9817 18.2117 39.0638C18.1788 39.0966 18.1624 39.1295 18.1296 39.1623C18.1132 39.1787 18.0968 39.1951 18.0968 39.2115C14.9467 43.7418 11.7966 48.272 8.64644 52.8023C7.1042 55.0182 6.54636 57.431 7.26826 60.0901C7.67844 61.6002 8.23627 63.061 9.2699 64.2756C10.041 65.1784 10.9434 65.2933 11.9278 64.6367C12.6005 64.1936 13.1255 63.6027 13.6013 62.9789C15.0779 61.0585 16.292 58.9904 17.6702 57.0043C17.8179 56.7745 17.982 56.5611 18.1296 56.3477C18.2609 56.1672 18.3921 55.9702 18.5234 55.7732C18.6054 55.6419 18.6875 55.527 18.7695 55.3957C20.6235 52.6546 21.9196 50.6357 24.0525 47.5991C24.0525 47.5991 24.2002 43.709 22.5267 41.6244Z" fill="url(#paint2_linear_5701_125)"/>
<path opacity="0.3" d="M18.1297 39.7369C18.1297 39.7369 18.2281 39.6712 18.2609 39.7205C18.2937 39.7697 18.2773 41.6245 17.8671 42.3467C17.457 43.0689 12.8466 51.916 11.9443 55.7077C11.0419 59.4993 10.5825 64.2593 10.5825 64.4563C10.5825 64.6533 9.02383 64.5384 7.87535 60.8781C6.72687 57.2177 7.7605 54.7228 8.28552 53.9514C8.82695 53.1963 18.1297 39.7369 18.1297 39.7369Z" fill="#FEFEFE"/>
<path opacity="0.6" d="M18.2609 39.7205C18.2281 39.6712 18.1297 39.7369 18.1297 39.7369C18.1297 39.7369 8.81056 53.1963 8.30194 53.9514C7.77692 54.7228 6.74329 57.2013 7.89177 60.8781C9.04025 64.5384 10.5989 64.6533 10.5989 64.4563C10.5989 64.4563 10.238 64.3414 9.90982 63.9475C9.58168 63.5371 8.54805 62.3225 8.13787 60.4513C7.7277 58.5801 7.58004 56.791 8.08865 55.5271C8.59727 54.2468 9.54887 52.6875 10.5661 51.2759C11.5833 49.8643 18.2609 39.8846 18.2609 39.8846V39.7205Z" fill="url(#paint3_linear_5701_125)"/>
<path opacity="0.39" d="M5.46348 35.6331C5.46348 35.6331 4.03609 33.1546 3.92124 31.2341C3.80639 29.3137 4.0689 27.2291 5.10253 25.4893C6.13617 23.7494 8.25266 20.5158 9.95897 19.4817C10.3035 19.0878 10.402 18.6775 10.8614 18.1358C11.3207 17.5941 12.4856 15.9527 12.4856 15.9527C12.4856 15.9527 13.388 14.8202 13.3552 14.6889C13.3224 14.5576 13.0107 14.4919 12.7974 14.5904C12.5841 14.6889 11.8458 15.329 11.4192 16.002C10.9926 16.675 3.75717 25.8996 3.75717 25.8996C3.75717 25.8996 1.60787 28.296 1.18129 29.0511C0.754708 29.8061 -8.82149e-06 31.4147 0.196874 32.5473C0.393757 33.6798 0.738301 34.5826 2.59228 35.0586C4.44626 35.5346 5.41426 35.6987 5.46348 35.6331Z" fill="url(#paint4_linear_5701_125)"/>
<path opacity="0.17" d="M24.4791 46.532C24.4791 46.532 29.1714 40.902 27.137 35.6495C26.169 33.0561 23.7243 32.2518 23.1665 32.0877C22.6087 31.9235 13.8802 30.7746 13.4865 30.8238C13.4865 30.8238 19.6226 34.0409 21.9032 37.5207C24.1837 41.0169 24.397 41.8868 24.4791 46.532Z" fill="#FEFEFE"/>
<path opacity="0.6" d="M13.4865 30.8404C13.8802 30.7912 22.6087 31.9401 23.1665 32.1043C23.7243 32.2684 26.169 33.0727 27.137 35.6661C29.1714 40.9186 24.4791 46.5486 24.4791 46.5486L24.4627 46.1875C24.4627 46.1875 29.1878 39.3264 26.333 35.1737C24.7088 32.9086 23.954 32.5146 21.1157 32.0879C18.2773 31.6611 14.2248 31.2343 14.2248 31.2343L13.4865 30.8404Z" fill="url(#paint5_linear_5701_125)"/>
<defs>
<linearGradient id="paint0_linear_5701_125" x1="8.0343" y1="38.6248" x2="29.2213" y2="38.6248" gradientUnits="userSpaceOnUse">
<stop stop-color="#B3CB36"/>
<stop offset="0.2525" stop-color="#5CAB79"/>
<stop offset="0.505" stop-color="#088DBA"/>
<stop offset="0.6864" stop-color="#156FA7"/>
<stop offset="1" stop-color="#303382"/>
</linearGradient>
<linearGradient id="paint1_linear_5701_125" x1="3.63535" y1="33.7054" x2="15.2128" y2="15.7369" gradientUnits="userSpaceOnUse">
<stop stop-color="#FBD200"/>
<stop offset="0.5251" stop-color="#E95764"/>
<stop offset="1" stop-color="#E2087E"/>
</linearGradient>
<linearGradient id="paint2_linear_5701_125" x1="8.82236" y1="61.3965" x2="21.6216" y2="42.3592" gradientUnits="userSpaceOnUse">
<stop stop-color="#FBD200"/>
<stop offset="0.5427" stop-color="#E2087E"/>
<stop offset="0.6345" stop-color="#D40D7E"/>
<stop offset="0.8075" stop-color="#B0187F"/>
<stop offset="1" stop-color="#802880"/>
</linearGradient>
<linearGradient id="paint3_linear_5701_125" x1="7.36965" y1="52.1171" x2="18.263" y2="52.1171" gradientUnits="userSpaceOnUse">
<stop stop-color="white"/>
<stop offset="1" stop-color="white" stop-opacity="0.1"/>
</linearGradient>
<linearGradient id="paint4_linear_5701_125" x1="0.161287" y1="25.0982" x2="13.3247" y2="25.0982" gradientUnits="userSpaceOnUse">
<stop stop-color="white"/>
<stop offset="1" stop-color="white" stop-opacity="0.1"/>
</linearGradient>
<linearGradient id="paint5_linear_5701_125" x1="28.2133" y1="38.6831" x2="14.0554" y2="38.6831" gradientUnits="userSpaceOnUse">
<stop stop-color="white"/>
<stop offset="1" stop-color="white" stop-opacity="0.1"/>
</linearGradient>
</defs>
</svg>
