<svg width="160" height="80" viewBox="0 0 160 80" fill="none" xmlns="http://www.w3.org/2000/svg">
<g clip-path="url(#clip0)">
<path d="M118.81 38.2469C117.918 39.2864 117.026 40.1775 116.134 41.217C115.093 42.4051 114.201 42.4051 113.308 41.217C112.416 40.1775 111.524 39.2864 110.334 37.8014C110.334 39.8805 110.334 41.3655 110.334 42.9991C110.334 44.0387 110.186 44.6327 108.847 44.6327C107.658 44.6327 107.212 44.1872 107.212 42.9991C107.212 40.029 107.212 37.0588 107.212 34.0887C107.212 33.4947 106.914 32.6036 107.806 32.3066C108.699 32.1581 109.591 32.0096 110.334 32.9006C111.524 34.3857 112.714 35.7223 113.903 37.2073C114.498 37.9499 114.944 37.9499 115.39 37.2073C116.431 35.8708 117.621 34.6827 118.513 33.3461C119.256 32.3066 120.297 32.0096 121.338 32.3066C122.379 32.6036 121.933 33.6432 121.933 34.3857C121.933 37.3558 121.933 40.1775 121.933 43.1476C121.933 44.3357 121.487 44.6327 120.297 44.6327C119.256 44.6327 118.81 44.3357 118.81 43.2961C118.81 41.811 118.81 40.1775 118.81 38.6924C119.108 38.3954 118.959 38.3954 118.81 38.2469Z" fill="white"/>
<path d="M79.9998 36.6133C79.9998 36.9103 79.8511 37.3558 79.9998 37.9498C80.2972 40.0289 81.6355 41.217 83.4198 41.217C85.2042 41.217 86.3938 40.0289 86.5425 37.8013C86.5425 37.6528 86.5425 36.7618 86.5425 36.6133C88.0295 36.9103 89.2191 37.5043 89.2191 37.5043C89.2191 37.5043 89.3678 39.7319 88.1782 41.217C87.7321 41.9595 87.286 42.5536 88.0295 43.2961C90.5574 45.8207 89.5165 50.7215 84.7581 52.058C81.6355 52.8006 78.3641 51.167 77.3232 48.4938C77.0258 47.8998 76.5797 46.8603 77.4719 46.5633C78.3641 46.2662 79.5537 45.8207 80.1485 47.3058C80.892 49.2364 82.6763 49.8304 84.312 49.2364C85.5016 48.7909 86.3938 47.8998 86.2451 46.5633C86.2451 45.2267 85.3529 44.4842 84.1633 44.1871C83.5685 44.0386 82.825 44.0386 82.2302 43.8901C80.1485 43.5931 78.6615 42.4051 77.6206 40.4745C77.1745 39.5834 76.8771 38.5439 77.0258 37.6528C77.918 37.2073 79.1076 36.9103 79.9998 36.6133Z" fill="white"/>
<path d="M14.721 36.0194C16.0593 34.9798 16.9515 34.0888 17.9923 33.3463C18.4384 33.0492 18.7358 32.6037 19.1819 32.6037C20.2228 32.4552 21.5611 31.8612 22.0072 32.9007C22.4533 33.7918 21.115 34.0888 20.5202 34.6828C19.628 35.5739 18.7358 36.3164 17.8436 36.9104C16.8028 37.653 16.9515 38.0985 17.8436 38.841C19.3306 40.1776 20.8176 41.6626 22.3046 43.1477C22.602 43.4447 23.0481 43.7417 22.7507 44.1873C22.602 44.6328 22.1559 44.4843 21.7098 44.4843C20.3715 44.6328 19.1819 44.4843 18.141 43.2962C17.2489 42.2567 16.0593 41.2171 14.721 39.8806C14.721 41.2171 14.721 42.1082 14.721 42.9992C14.8697 44.1873 14.2749 44.4843 13.0853 44.4843C12.0444 44.4843 11.5983 44.1873 11.5983 43.1477C11.5983 38.544 11.5983 33.9403 11.5983 29.4851C11.5983 28.297 12.1931 28 13.234 28C14.2749 28 14.721 28.297 14.721 29.4851C14.5723 31.4157 14.721 33.4948 14.721 36.0194Z" fill="white"/>
<path d="M133.383 38.2467C133.383 36.7617 133.383 35.4251 133.383 33.94C133.383 32.3065 134.721 31.4154 136.059 32.455C136.803 33.049 136.952 32.752 137.546 32.455C140.967 30.8214 144.238 32.6035 144.535 36.3161C144.833 38.5437 144.684 40.7713 144.684 42.999C144.684 44.187 143.94 44.187 143.048 44.187C142.156 44.187 141.561 43.89 141.561 42.999C141.561 41.2169 141.561 39.4348 141.561 37.6527C141.561 35.5736 140.669 34.6826 139.033 34.6826C137.546 34.6826 136.357 35.7221 136.357 37.6527C136.208 39.4348 136.357 41.2169 136.357 42.999C136.357 44.0385 135.911 44.3355 134.87 44.3355C133.978 44.3355 133.383 44.0385 133.383 42.999C133.383 41.5139 133.383 39.8803 133.383 38.2467Z" fill="white"/>
<path d="M53.0852 41.8112C54.8696 41.8112 56.3566 41.8112 57.8435 41.8112C58.8844 41.8112 59.6279 41.8112 59.6279 43.2963C59.6279 44.6328 58.8844 44.6328 57.9922 44.6328C55.7618 44.6328 53.3826 44.6328 51.1521 44.6328C50.4086 44.6328 49.5164 45.0784 49.219 44.0388C48.9216 43.1478 48.9216 42.1082 49.6651 41.2172C51.4495 39.4351 53.0852 37.5045 55.167 35.2769C53.3826 35.2769 52.0443 35.2769 50.8547 35.2769C49.8138 35.2769 49.3677 34.9799 49.3677 33.9403C49.3677 32.9008 49.8138 32.4553 50.8547 32.4553C53.0852 32.4553 55.167 32.4553 57.3974 32.4553C58.1409 32.4553 59.0331 32.0097 59.3305 33.0493C59.4792 33.9403 59.6279 34.8314 58.8844 35.7224C57.3974 37.356 55.9105 38.9896 54.4235 40.6231C53.68 40.9202 53.5313 41.2172 53.0852 41.8112Z" fill="white"/>
<path d="M67.0632 41.8112C68.8476 41.8112 70.1859 41.8112 71.5241 41.8112C72.565 41.8112 73.4572 41.6627 73.4572 43.2963C73.4572 44.9299 72.2676 44.6328 71.3754 44.6328C69.145 44.6328 67.0632 44.6328 64.8327 44.6328C64.0892 44.6328 63.197 45.0784 62.8996 44.0388C62.6022 43.1478 62.6022 42.1082 63.3457 41.2172C65.1301 39.4351 66.7658 37.5045 68.8476 35.2769C67.3606 35.2769 66.3197 35.2769 65.1301 35.2769C64.2379 35.2769 62.8996 35.7224 62.8996 33.9403C62.8996 32.0097 64.2379 32.4553 65.2788 32.4553C67.0632 32.4553 68.8476 32.4553 70.6319 32.4553C71.3754 32.4553 72.4163 32.0097 72.7137 33.0493C73.0111 34.0888 72.8624 35.1284 72.1189 36.0194C70.7806 37.5045 69.4424 38.9896 68.1041 40.3261C67.9554 40.6231 67.658 41.0687 67.0632 41.8112Z" fill="white"/>
<path d="M4.46084 44.484C3.12255 44.484 1.93296 44.187 1.04077 43.4445C0.594669 43.1475 -0.446223 42.8505 0.297271 41.9594C0.743368 41.3654 1.18946 40.3258 2.37906 41.2169C3.12255 41.8109 3.86604 41.9594 4.75824 41.9594C5.35303 41.9594 5.79913 41.6624 5.94783 41.0684C6.09653 40.4743 5.65043 40.1773 5.20433 39.8803C4.31214 39.5833 3.41995 39.2863 2.52775 38.8408C1.18946 38.2467 0.44597 37.3557 0.44597 35.8706C0.44597 34.237 1.33816 33.346 2.67645 32.752C4.46084 32.0094 6.24523 32.0094 7.88092 33.049C8.32701 33.346 9.2192 33.643 8.62441 34.3856C8.02961 34.9796 7.73222 35.7221 6.69132 35.1281C6.54262 34.9796 6.24523 34.9796 5.94783 34.8311C5.05564 34.6826 4.01474 34.5341 3.56865 35.5736C3.27125 36.7617 4.46084 36.7617 5.20433 37.0587C5.35303 37.2072 5.65043 37.3557 5.94783 37.3557C8.32701 38.2467 9.5166 39.5833 9.07051 41.5139C8.62441 43.296 6.84002 44.6325 4.46084 44.484Z" fill="white"/>
<path d="M37.0258 36.4651C37.0258 38.6927 37.0258 40.9203 37.0258 43.1479C37.0258 44.3359 36.431 44.633 35.3901 44.633C34.3492 44.633 33.9031 44.3359 33.9031 43.2964C33.9031 38.6927 33.9031 34.089 33.9031 29.6338C33.9031 28.4457 34.3492 28.1487 35.5388 28.1487C36.7284 28.1487 37.0258 28.7427 37.0258 29.7823C36.8771 31.8614 37.0258 34.089 37.0258 36.4651Z" fill="white"/>
<path d="M41.7844 36.1679C41.7844 33.9403 41.7844 31.7127 41.7844 29.4851C41.7844 28.4455 42.0818 28 43.1227 28C44.1636 28 44.7584 28.1485 44.7584 29.4851C44.7584 34.0888 44.7584 38.6925 44.7584 43.1477C44.7584 44.3358 44.1636 44.6328 43.1227 44.6328C42.0818 44.6328 41.6357 44.3358 41.6357 43.2962C41.7844 40.7716 41.7844 38.544 41.7844 36.1679Z" fill="white"/>
<path d="M129.219 38.3952C129.219 40.0288 129.219 41.6623 129.219 43.1474C129.219 44.3355 128.624 44.484 127.732 44.484C126.84 44.484 126.245 44.187 126.245 43.1474C126.245 40.0288 126.245 36.9101 126.245 33.643C126.245 32.4549 126.84 32.3064 127.881 32.3064C128.922 32.3064 129.219 32.7519 129.219 33.7915C129.219 35.2765 129.219 36.7616 129.219 38.3952Z" fill="white"/>
<path d="M29.1449 38.3952C29.1449 40.0288 29.1449 41.6623 29.1449 43.1474C29.1449 44.187 28.6988 44.484 27.6579 44.484C26.7657 44.484 26.1709 44.3355 26.1709 43.1474C26.1709 40.0288 26.1709 36.9101 26.1709 33.643C26.1709 32.6034 26.7657 32.3064 27.6579 32.3064C28.5501 32.3064 29.2936 32.4549 29.1449 33.643C29.1449 35.2765 29.1449 36.9101 29.1449 38.3952Z" fill="white"/>
<path d="M89.2193 36.7618C89.2193 36.7618 89.0706 33.1976 85.0558 31.7125C84.461 31.564 83.5688 31.4155 83.5688 31.4155C83.5688 31.4155 83.5688 34.8312 83.5688 34.9797C84.9071 35.1282 89.2193 36.7618 89.2193 36.7618Z" fill="#F300FC"/>
<path d="M77.3234 36.7618C77.3234 36.7618 77.4721 33.1976 81.487 31.7125C82.0818 31.564 82.974 31.4155 82.974 31.4155C82.974 31.4155 82.974 34.8312 82.974 34.9797C81.6357 35.1282 77.3234 36.7618 77.3234 36.7618Z" fill="#F300FC"/>
<path d="M88.3269 33.6432C87.8808 33.0492 87.286 32.4552 86.6912 32.3067C86.6912 32.3067 87.1373 31.8611 87.286 31.7126C88.3269 30.6731 89.5165 29.6335 90.5573 28.594C90.706 30.6731 89.8139 32.9007 88.3269 33.6432Z" fill="#F300FC"/>
<path d="M78.2155 33.6432C78.6616 33.0492 79.2564 32.4552 79.8512 32.3067C79.8512 32.3067 79.4051 31.8611 79.2564 31.7126C78.2155 30.6731 77.0259 29.6335 75.985 28.594C75.8363 30.6731 76.7285 32.9007 78.2155 33.6432Z" fill="#F300FC"/>
<path d="M158.81 43.4443C158.216 42.5533 158.067 41.9593 158.81 41.2167C159.554 40.1772 159.851 38.9891 159.851 37.8011C159.851 34.5339 157.175 31.8608 154.052 31.7123C151.078 31.5638 148.253 34.0884 147.955 37.0585C147.658 40.4742 149.74 43.4443 153.011 43.8899C153.755 44.0384 154.498 44.0384 155.242 44.3354C156.283 44.6324 157.026 45.5234 157.026 46.7115C157.026 47.8996 156.431 48.6421 155.39 49.0876C153.606 49.9787 151.822 49.2361 150.929 47.157C150.335 45.969 149.442 46.266 148.55 46.4145C147.509 46.563 147.807 47.3055 147.955 48.0481C148.401 49.9787 150.335 51.7607 152.714 52.2063C155.39 52.6518 158.067 51.6122 159.405 49.5331C160.297 47.3055 160.297 45.3749 158.81 43.4443ZM153.755 41.0682C151.97 41.0682 150.483 39.4347 150.483 37.6526C150.483 35.8705 151.97 34.3854 153.755 34.3854C155.539 34.3854 157.026 35.722 157.026 37.6526C157.026 39.4347 155.539 41.0682 153.755 41.0682Z" fill="white"/>
<path d="M103.94 34.237C103.94 32.4549 103.048 31.7124 101.412 32.6034C100.669 32.9004 100.223 32.9004 99.6281 32.6034C96.9515 31.7124 94.275 32.6034 92.788 34.831C91.301 37.0586 91.301 39.8802 92.788 41.9593C94.4237 44.1869 96.9515 44.9295 99.7768 44.0384C100.372 43.8899 100.669 43.7414 101.412 44.1869C103.048 45.078 104.089 44.484 104.089 42.5534C104.089 41.2168 104.089 39.8802 104.089 38.5437C103.94 37.0586 103.94 35.722 103.94 34.237ZM97.5463 41.8108C95.7619 41.8108 94.275 40.1773 94.275 38.3952C94.275 36.6131 95.7619 35.128 97.695 35.128C99.4794 35.128 100.966 36.6131 100.966 38.5437C100.966 40.3258 99.4794 41.8108 97.5463 41.8108Z" fill="white"/>
</g>
<defs>
<clipPath id="clip0">
<rect width="160" height="80" fill="white"/>
</clipPath>
</defs>
</svg>
