<svg width="160" height="80" viewBox="0 0 160 80" fill="none" xmlns="http://www.w3.org/2000/svg">
<g clip-path="url(#clip0)">
<path d="M99.1939 5.91502V11.1438C99.1939 11.1438 95.4466 8.68191 93.8562 10.3159C92.2658 11.9499 93.4641 14.4553 93.8998 15.3921C94.3355 16.329 100 25.5229 100.327 27.8758C100.654 30.2287 100.937 34.4118 97.756 36.8518C94.5534 39.2919 89.7604 38.268 87.8432 36.8083V31.0348C87.8432 31.0348 90.2397 33.5839 92.2005 33.5839C94.1612 33.5839 96.0131 31.8845 94.7713 29.1612C93.5294 26.4379 87.756 17.4401 87.6907 13.976C87.6253 10.5338 87.5817 8.57298 90.6754 6.22004C93.7473 3.84531 98.8018 5.61001 99.1939 5.91502Z" fill="#E6DBC7"/>
<path d="M99.1939 42.0806V47.3093C99.1939 47.3093 95.4466 44.8474 93.8562 46.4814C92.2658 48.1154 93.4641 50.6209 93.8998 51.5577C94.3355 52.4945 100 61.6884 100.327 64.0414C100.654 66.3943 100.937 70.5773 97.756 73.0174C94.5534 75.4575 89.7604 74.4335 87.8432 72.9738V67.2004C87.8432 67.2004 90.2397 69.7494 92.2005 69.7494C94.1612 69.7494 96.0131 68.0501 94.7713 65.3268C93.5294 62.6034 87.756 53.6056 87.6907 50.1416C87.6253 46.6993 87.5817 44.7385 90.6754 42.3856C93.7473 40.0108 98.8018 41.7755 99.1939 42.0806Z" fill="#F96404"/>
<path d="M117.299 5H111.525V30.5773H117.299V5Z" fill="#E6DBC7"/>
<path d="M107.996 32.8867V5H102.571V32.8867V38.3115H107.996H117.299V32.8867H107.996Z" fill="#E6DBC7"/>
<path d="M111.895 41.1655V55.2396H107.996V41.1655H102.571V74.4771H107.996V60.1634H111.895V74.4771H117.299V41.1655H111.895Z" fill="#F96404"/>
<path d="M159.63 41.1655H152.07H146.667H139.107V46.0239H146.667V74.4771H152.07V46.0239H159.63V41.1655Z" fill="#F96404"/>
<path d="M133.726 5V17.2658C131.482 12.8431 126.318 8.46405 125.512 7.81046V5H120.109V38.3115H125.512V15.1743C131.59 21.1656 133.726 38.3115 133.726 38.3115H139.129V5H133.726Z" fill="#E6DBC7"/>
<path d="M149.216 10.9695C152.266 8.24619 155.861 10.2505 156.623 10.7516C157.386 11.2527 160 13.3224 160 13.3224V7.65795C160 7.65795 156.514 5 152.2 5C147.887 5 143.159 8.63834 141.678 14.1285C140.196 19.6187 140.959 28.2462 142.767 31.841C144.575 35.4357 148.322 38.3115 152.636 38.3115C153.312 38.3115 153.965 38.268 154.575 38.1808C157.821 37.7233 159.978 36.3072 159.978 36.3072V25.4139V20.0109H154.575H151.264V25.4139H154.575V33.2571C154.118 33.3878 153.66 33.4532 153.181 33.4532C150.458 33.4532 147.407 30.8388 146.906 27.0261C146.405 23.2135 146.166 13.6928 149.216 10.9695Z" fill="#E6DBC7"/>
<path d="M137.56 46.3507C135.686 42.9084 132.919 41.1655 129.847 41.1655C126.776 41.1655 124.03 42.8867 122.135 46.3071C120.523 49.2483 119.521 53.562 119.521 57.8104C119.521 67.0043 124.139 74.4553 129.826 74.4553C135.512 74.4553 140.131 67.0043 140.131 57.8104C140.152 53.5838 139.172 49.2701 137.56 46.3507ZM129.847 69.4226C127.516 69.4226 125.643 64.2156 125.643 57.8104C125.643 54.8474 126.035 51.8409 126.71 49.793C127.473 47.3965 128.606 46.1982 129.847 46.1982C131.111 46.1982 132.222 47.3965 133.007 49.8148C133.66 51.8627 134.074 54.8692 134.074 57.8104C134.052 64.2374 132.179 69.4226 129.847 69.4226Z" fill="#F96404"/>
<path d="M155.752 48.8345C155.599 49.0959 155.447 49.5099 155.447 49.9456C155.447 50.4903 155.708 50.7735 156.1 50.7735C156.449 50.7735 156.667 50.5339 156.885 49.9674C157.168 49.2049 157.582 48.7256 158.257 48.7256C159.02 48.7256 159.608 49.3574 159.608 50.3378C159.608 50.8389 159.499 51.2092 159.368 51.4489L158.671 51.2528C158.758 51.1003 158.889 50.7735 158.889 50.3378C158.889 49.8149 158.584 49.5752 158.322 49.5752C157.952 49.5752 157.8 49.8367 157.538 50.4467C157.233 51.2528 156.819 51.6232 156.144 51.6232C155.381 51.6232 154.728 51.0567 154.728 49.8803C154.728 49.401 154.858 48.8999 155.033 48.6384L155.752 48.8345Z" fill="#6D6F73"/>
<path d="M158.824 53.2569V51.9497H159.543V55.4138H158.824V54.0848H154.815V53.2569H158.824Z" fill="#6D6F73"/>
<path d="M159.543 56.765H156.776C155.839 56.765 155.425 57.1353 155.425 57.7018C155.425 58.3118 155.861 58.6604 156.776 58.6604H159.543V59.4883H156.841C155.381 59.4883 154.728 58.7693 154.728 57.6582C154.728 56.5907 155.338 55.9153 156.819 55.9153H159.521V56.765H159.543Z" fill="#6D6F73"/>
<path d="M159.477 60.4688C159.543 60.8391 159.586 61.2966 159.586 61.7977C159.586 62.6474 159.412 63.2356 159.041 63.6713C158.671 64.1071 158.105 64.3903 157.299 64.3903C156.449 64.3903 155.817 64.1071 155.425 63.6713C154.989 63.2138 154.771 62.4949 154.771 61.6016C154.771 61.1223 154.793 60.752 154.837 60.4688H159.477ZM155.468 61.3184C155.447 61.4274 155.447 61.6016 155.447 61.7759C155.447 62.8653 156.057 63.5188 157.255 63.5188C158.301 63.5188 158.889 62.9306 158.889 61.8849C158.889 61.6234 158.867 61.4274 158.845 61.3184H155.468Z" fill="#6D6F73"/>
<path d="M159.543 65.9585H154.815V65.1306H159.543V65.9585Z" fill="#6D6F73"/>
<path d="M157.233 70.9695C155.643 70.9695 154.75 70.0327 154.75 68.7691C154.75 67.4837 155.773 66.6558 157.146 66.6558C158.606 66.6558 159.63 67.549 159.63 68.8344C159.63 70.1852 158.584 70.9695 157.233 70.9695ZM157.168 67.549C156.209 67.549 155.447 68.0283 155.447 68.8126C155.447 69.6187 156.209 70.0762 157.211 70.0762C158.105 70.0762 158.954 69.6405 158.954 68.8126C158.933 68.0065 158.126 67.549 157.168 67.549Z" fill="#6D6F73"/>
<path d="M155.752 71.667C155.599 71.9285 155.447 72.3424 155.447 72.7781C155.447 73.3228 155.708 73.606 156.1 73.606C156.449 73.606 156.667 73.3664 156.885 72.7999C157.168 72.0374 157.582 71.5581 158.257 71.5581C159.02 71.5581 159.608 72.1899 159.608 73.1703C159.608 73.6714 159.499 74.0417 159.368 74.2814L158.671 74.0853C158.758 73.9328 158.889 73.606 158.889 73.1703C158.889 72.6474 158.584 72.4078 158.322 72.4078C157.952 72.4078 157.8 72.6692 157.538 73.2792C157.233 74.0853 156.819 74.4557 156.144 74.4557C155.381 74.4557 154.728 73.8892 154.728 72.7128C154.728 72.2335 154.858 71.7324 155.033 71.4709L155.752 71.667Z" fill="#6D6F73"/>
<path d="M23.1808 10.1634C28.2135 7.00436 34.1395 5.13072 40.4357 5C40.9368 5 41.4379 5 41.939 5C42.0697 5 42.3094 5 42.4401 5C42.8105 5 43.2026 5 43.4423 5C43.7037 5 43.8127 5 44.0741 5C44.4445 5 44.7059 5.13072 45.0763 5.13072C45.207 5.13072 45.4466 5.13072 45.5774 5.26144C45.9477 5.26144 46.4488 5.39216 46.841 5.39216C47.1024 5.39216 47.3421 5.52288 47.6035 5.52288C47.9739 5.52288 48.2353 5.65359 48.475 5.65359C48.7146 5.65359 48.9761 5.78431 49.2375 5.78431C49.4989 5.78431 49.7386 5.91503 49.8693 5.91503C50.1307 6.04575 50.3704 6.04575 50.6318 6.17647C50.7625 6.17647 51.0022 6.30719 51.1329 6.30719C51.3944 6.43791 51.7647 6.43791 52.0044 6.56863H52.1351C52.8976 6.83007 53.6384 7.06972 54.4009 7.44009C54.4009 7.44009 54.5316 7.44009 54.5316 7.57081C54.902 7.70152 55.1634 7.83224 55.5338 8.0719C55.6645 8.0719 55.6645 8.20261 55.7952 8.20261C56.1656 8.33333 56.427 8.57298 56.7974 8.7037C56.7974 8.7037 56.9281 8.7037 56.9281 8.83442C61.1983 11.1002 64.9891 14.1285 67.9957 17.7669L68.1264 17.8976C68.4968 18.268 68.7582 18.7691 69.1286 19.1612C69.1286 19.2919 69.2593 19.2919 69.2593 19.4227C69.5207 19.793 69.8911 20.2941 70.1307 20.6863C70.1307 20.817 70.2615 20.817 70.2615 20.817C73.2898 25.4793 75.1634 31.0131 75.5556 36.8083C75.1852 36.5468 74.7931 36.1765 74.4227 35.9368C74.1612 35.6754 73.9216 35.5664 73.5512 35.305C73.4205 35.1743 73.2898 35.0436 73.1808 34.9346C72.9194 34.6732 72.6798 34.5643 72.4183 34.3028C72.2876 34.1721 72.048 34.0414 71.9172 33.9325C71.6558 33.8017 71.4161 33.5621 71.1547 33.3006C70.8933 33.1699 70.7843 33.0392 70.5229 32.9303C70.2615 32.7996 70.0218 32.5599 69.7604 32.2985C69.4989 32.1678 69.39 32.037 69.1286 31.7974C68.8671 31.6667 68.6275 31.427 68.2571 31.2963C67.9957 31.1656 67.756 30.9259 67.4946 30.7952C67.2331 30.6645 66.9935 30.4248 66.6231 30.2941C66.3617 30.1634 66.122 29.9237 65.8606 29.793C65.5991 29.6623 65.2288 29.4227 64.9891 29.2919C64.7495 29.1612 64.488 28.9216 64.2266 28.7908C63.9652 28.6601 63.5948 28.4205 63.3551 28.2898C63.1155 28.159 62.7233 27.9194 62.4837 27.7887C62.244 27.6579 61.8519 27.4183 61.6122 27.2876C61.3726 27.1569 60.9804 26.9172 60.7408 26.7865C60.5011 26.6558 60.1089 26.4161 59.8693 26.2854C59.4989 26.1547 59.2375 25.915 58.8671 25.7843C58.6057 25.6536 58.2353 25.4139 57.9957 25.2832C57.6253 25.1525 57.3639 24.9129 56.9935 24.7821C56.732 24.6514 56.3617 24.4118 56.122 24.281C55.7517 24.0196 55.3595 23.9107 54.9891 23.6492C54.7277 23.5185 54.3573 23.3878 54.1177 23.1481C53.7473 22.8867 53.3551 22.7778 52.9848 22.5163C52.7233 22.3856 52.4837 22.2549 52.2222 22.146C51.7212 21.8845 51.3508 21.6449 50.8279 21.5142C50.5665 21.3834 50.3268 21.2527 50.1961 21.1438C49.5643 20.7734 48.8018 20.512 48.1917 20.1416C47.5599 19.7712 46.7974 19.5098 46.1874 19.1394C45.9259 19.0087 45.817 19.0087 45.5556 18.878C45.0545 18.6166 44.5534 18.3769 44.0523 18.1155C43.9216 17.9847 43.6819 17.9847 43.5512 17.854C42.1569 17.2222 40.7843 16.5904 39.39 15.9586C39.2593 15.9586 39.2593 15.8279 39.1286 15.8279C38.4967 15.5664 37.8649 15.3268 37.2331 15.0654C37.1024 15.0654 37.1024 15.0654 36.9717 14.9346C34.8366 14.0632 32.8105 13.3007 30.8061 12.5381C30.6754 12.5381 30.6754 12.5381 30.6754 12.4074C29.4118 11.9063 28.1482 11.5359 26.9063 11.1438C26.7756 11.1438 26.6449 11.0131 26.536 11.0131C26.0349 10.8824 25.6645 10.7516 25.1416 10.512C25.0109 10.512 24.8802 10.3813 24.7713 10.3813C24.183 10.5338 23.6819 10.2941 23.1808 10.1634ZM75.5338 50.5556C75.5338 50.5556 75.4031 50.5556 75.5338 50.5556C70 45.1525 57.9085 37.854 43.0719 31.427C39.0414 29.6623 35.0109 28.159 31.1111 26.7647C30.4793 26.5033 29.9782 26.3943 29.3464 26.1329C29.2157 26.1329 29.085 26.0022 28.9761 26.0022C28.2135 25.7407 27.4728 25.5011 26.7103 25.2396C26.5795 25.2396 26.5795 25.2397 26.4488 25.1089C22.549 23.8889 19.0196 22.8649 15.7516 22.1242C14.488 21.8627 13.2244 21.4924 12.0915 21.3617C8.5621 20.8606 6.16559 20.5991 4.16123 20.8606H4.03051C3.89979 20.8606 3.66014 20.8606 3.52942 20.9913C3.3987 20.9913 3.3987 20.9913 3.26798 20.9913C3.13727 20.9913 3.00655 20.9913 2.89761 21.122C2.76689 21.122 2.63618 21.122 2.63618 21.2527C2.50546 21.2527 2.37474 21.3834 2.26581 21.3834C2.15687 21.3834 2.00437 21.5142 2.00437 21.5142C1.87365 21.5142 1.87365 21.6449 1.74293 21.6449C1.61221 21.6449 1.61221 21.7756 1.48149 21.7756C1.35077 21.7756 1.35077 21.9063 1.22005 21.9063C1.08933 21.9063 1.08933 22.037 0.958616 22.037L0.827897 22.1678C0.697178 22.2985 0.697178 22.2985 0.566459 22.4292L0.43574 22.5599C0.305021 22.6906 0.305021 22.8214 0.174302 22.9303C-0.697158 24.9346 2.17866 28.464 7.6035 32.4946C7.23313 33.9978 7.10241 35.6318 6.97169 37.1569C6.97169 37.2876 6.97169 37.4183 6.97169 37.5272C6.97169 37.7887 6.97169 37.8976 6.97169 38.159C6.97169 38.4205 6.97169 38.5294 6.97169 38.7908C6.97169 38.9216 6.97169 39.0523 6.97169 39.2919C6.97169 39.6623 6.97169 40.0545 6.97169 40.4248C6.97169 40.5556 6.97169 40.5556 6.97169 40.6863C7.34206 40.6863 7.73422 40.817 8.23531 40.817C8.36602 40.817 8.36602 40.817 8.49674 40.817C8.86711 40.9477 9.3682 40.9477 9.76036 41.0784C9.89108 41.0784 9.89108 41.0784 10.0218 41.0784C10.3922 41.2091 10.8933 41.2091 11.2854 41.3399C11.4161 41.3399 11.4161 41.3399 11.5469 41.3399C12.0479 41.4706 12.549 41.4706 13.0501 41.6013C13.1808 41.6013 13.1808 41.6013 13.3116 41.6013C13.8126 41.732 14.3137 41.8627 14.8148 41.9717C15.3159 42.1024 15.9477 42.2331 16.4488 42.342C16.5795 42.342 16.7103 42.342 16.7103 42.4728C17.3421 42.6035 17.8432 42.7342 18.475 42.8431C18.475 42.8431 18.475 42.8431 18.6057 42.8431C19.1068 42.9739 19.7386 43.1046 20.2397 43.2135C20.61 43.3442 21.1111 43.4749 21.5033 43.5839H21.634C23.1373 43.9542 24.7713 44.4553 26.427 44.8475C26.9281 44.9782 27.4292 45.1089 27.9303 45.2179C28.061 45.2179 28.061 45.2179 28.1917 45.3486C28.6928 45.4793 29.0632 45.61 29.5861 45.7189C29.7168 45.7189 29.7168 45.7189 29.8475 45.8497C30.9804 46.22 31.9826 46.4815 33.1155 46.8518C33.2462 46.8518 33.2462 46.8518 33.2462 46.9826C33.7473 47.1133 34.1177 47.244 34.6405 47.4837C34.7713 47.4837 34.902 47.6144 35.0109 47.6144C35.3813 47.7451 35.7734 47.8758 36.2745 47.9847C36.4052 47.9847 36.536 48.1155 36.7756 48.1155C37.146 48.2462 37.6471 48.3769 38.0392 48.6166C38.17 48.6166 38.3007 48.7473 38.4096 48.7473C38.9107 48.878 39.4118 49.1176 40.0436 49.3791C40.1743 49.3791 40.1743 49.5098 40.305 49.5098C40.6754 49.6405 41.1765 49.8802 41.5686 50.0109C41.6994 50.1416 41.939 50.1416 42.0697 50.2723C42.4401 50.403 42.8323 50.5338 43.0719 50.6427C43.2026 50.7734 43.4423 50.7734 43.573 50.9041C43.9434 51.0349 44.3355 51.1656 44.7059 51.2745C44.8366 51.4052 45.0763 51.4052 45.207 51.5359C45.7081 51.7974 46.2092 51.9063 46.7103 52.1678C46.0784 52.037 45.5774 51.9063 44.9456 51.9063C44.8148 51.9063 44.5752 51.7756 44.4445 51.7756C44.0741 51.6449 43.6819 51.6449 43.3116 51.5142C43.0501 51.5142 42.9412 51.3834 42.6798 51.3834C42.3094 51.2527 41.9172 51.2527 41.6776 51.2527C41.4161 51.2527 41.3072 51.122 41.0458 51.122C40.6754 51.122 40.414 50.9913 40.0436 50.9913C39.7822 50.9913 39.6732 50.8606 39.4118 50.8606C39.0414 50.8606 38.78 50.7298 38.4096 50.7298C38.2789 50.7298 38.0392 50.5991 37.7778 50.5991C37.4074 50.5991 37.146 50.4684 36.7756 50.4684C36.6449 50.4684 36.4052 50.4684 36.2745 50.3377C35.9042 50.3377 35.512 50.207 35.2723 50.207C35.1416 50.207 35.0109 50.207 34.7713 50.0762C34.4009 50.0762 34.0087 49.9455 33.6384 49.9455C33.5076 49.9455 33.3769 49.9455 33.268 49.9455C32.8976 49.8148 32.3965 49.8148 32.0044 49.8148C31.8737 49.8148 31.8737 49.8148 31.8737 49.8148C28.2135 49.3137 24.9455 48.9433 21.939 48.5512C21.939 48.5512 21.939 48.5512 21.8083 48.5512C21.3072 48.5512 20.9368 48.4205 20.414 48.4205C19.5425 48.2898 18.5185 48.2898 17.6471 48.159H17.5164C17.146 48.159 16.7538 48.159 16.3835 48.0283C16.2527 48.0283 16.2527 48.0283 16.122 48.0283C15.7516 48.0283 15.4902 48.0283 15.2506 47.8976C15.1198 47.8976 14.9891 47.8976 14.9891 47.8976C14.6187 47.8976 14.3573 47.8976 13.9869 47.8976H13.8562C13.4859 47.8976 13.0937 47.8976 12.7233 47.8976C12.5926 47.8976 12.4619 47.8976 12.353 47.8976C12.0915 47.8976 11.8519 47.8976 11.7211 47.8976C11.5904 47.8976 11.4597 47.8976 11.2201 47.8976C11.0893 47.8976 10.8497 47.8976 10.719 47.8976C10.5882 47.8976 10.3486 47.8976 10.2179 47.8976C10.0872 47.8976 9.84751 47.8976 9.71679 47.8976C9.58607 47.8976 9.34642 47.8976 9.2157 47.8976C9.08498 47.8976 8.95426 47.8976 8.84533 47.8976C8.47496 47.8976 8.21352 47.8976 7.97387 47.8976C7.84315 47.8976 7.84315 47.8976 7.71243 47.8976C3.05012 47.8976 0.413953 48.5294 0.0435829 49.5316C-0.217855 50.403 1.43792 51.9281 4.44446 53.5621C5.44663 54.1939 6.57953 54.695 7.84315 55.3268C8.84533 55.8279 9.97822 56.329 11.2418 56.8301C11.3726 56.9608 11.3726 57.0915 11.5033 57.2004C11.634 57.3094 11.634 57.4619 11.7647 57.5708C11.8954 57.8322 12.1351 58.2026 12.3965 58.4423C12.3965 58.573 12.5272 58.573 12.5272 58.7037C12.7887 59.0741 13.0283 59.4662 13.2898 59.8366C13.2898 59.9673 13.4205 59.9673 13.4205 60.098C13.6819 60.3595 13.7909 60.5991 14.0523 60.8606C14.183 60.9913 14.183 61.122 14.3137 61.2309C14.4445 61.4924 14.6841 61.732 14.8148 61.8627C14.9455 61.9935 15.0763 62.1242 15.0763 62.2331C15.3377 62.4945 15.4466 62.7342 15.7081 62.9956C15.8388 63.1264 15.8388 63.1264 15.9695 63.2571C16.2309 63.6274 16.6013 63.8889 16.841 64.1285C16.9717 64.2593 16.9717 64.2593 17.1024 64.39C17.3638 64.6514 17.4728 64.7603 17.7342 65.0218C17.8649 65.1525 17.9957 65.2832 18.1046 65.3922C18.366 65.5229 18.475 65.7625 18.7364 65.8932C18.8671 66.024 18.9978 66.1547 19.1068 66.2636C19.3682 66.5251 19.6079 66.634 19.8693 66.8954C20 67.0261 20 67.0261 20.1307 67.1569C20.5011 67.4183 20.7625 67.6579 21.1329 67.9194C21.2636 68.0501 21.3943 68.0501 21.5033 68.1808C21.7647 68.3115 22.0044 68.5512 22.2658 68.6819C22.3965 68.8126 22.5272 68.8126 22.6362 68.9433C22.8976 69.0741 23.1373 69.2048 23.3987 69.4444C23.5294 69.5752 23.6601 69.5752 23.7691 69.7059C24.0305 69.8366 24.4009 70.0762 24.6405 70.207C24.7713 70.207 24.7713 70.3377 24.902 70.3377C25.2723 70.5991 25.6645 70.7081 26.0349 70.9695C26.1656 71.1002 26.2963 71.1002 26.4052 71.1002C26.6667 71.2309 26.9063 71.3616 27.1678 71.4706C27.2985 71.6013 27.4292 71.6013 27.6689 71.732C27.9085 71.8627 28.17 71.9935 28.4314 72.1024C28.5621 72.1024 28.6928 72.2331 28.8018 72.2331C29.1721 72.3638 29.5643 72.4945 29.8039 72.6035C29.9347 72.6035 29.9347 72.6035 30.0654 72.7342C30.4357 72.8649 30.9368 72.9956 31.329 73.1046C31.4597 73.1046 31.5904 73.2353 31.6994 73.2353C31.9608 73.366 32.3312 73.366 32.5708 73.4967C32.7015 73.4967 32.9412 73.6274 33.0719 73.6274C33.3334 73.7582 33.7037 73.7582 33.9434 73.8889C34.0741 73.8889 34.2048 74.0196 34.3137 74.0196C34.6841 74.1503 35.0763 74.1503 35.5774 74.281H35.7081C36.2092 74.4118 36.5795 74.4118 37.1024 74.4118C37.2331 74.4118 37.3639 74.4118 37.4728 74.4118C37.8432 74.4118 38.1046 74.4118 38.475 74.5425C38.6057 74.5425 38.8453 74.5425 38.9761 74.5425C39.3464 74.5425 39.6079 74.5425 39.9782 74.5425C40.109 74.5425 40.2397 74.5425 40.3486 74.5425C40.8497 74.5425 41.2201 74.5425 41.7429 74.5425C42.1133 74.5425 42.6144 74.5425 43.0066 74.5425C43.1373 74.5425 43.268 74.5425 43.3769 74.5425C43.6384 74.5425 44.0087 74.5425 44.2484 74.4118C44.3791 74.4118 44.6188 74.4118 44.7495 74.4118C45.0109 74.4118 45.2506 74.281 45.512 74.281C45.6427 74.281 45.8824 74.281 46.0131 74.1503C46.3835 74.1503 46.7756 74.0196 47.146 74.0196C47.4074 74.0196 47.6471 73.8889 47.9085 73.8889C48.0392 73.8889 48.17 73.8889 48.2789 73.7582C48.5403 73.6274 48.78 73.6274 49.1503 73.4967C49.2811 73.4967 49.2811 73.4967 49.4118 73.4967C57.9739 71.3616 65.1416 66.0675 69.8039 58.8998C74.3355 59.4009 77.3639 58.7691 78.1046 57.1351C78.2353 56.8736 78.2353 56.8736 78.2353 56.7647C78.9325 54.7168 77.7996 52.8213 75.5338 50.5556Z" fill="#B54B17"/>
<path d="M70.5011 49.8148C68.4967 53.0827 65.8388 55.9803 62.8322 58.1154C62.963 57.6143 63.0937 57.1132 63.0937 56.4814C63.0937 52.952 60.1961 50.0544 56.6667 50.0544C53.1373 50.0544 50.2397 53.0827 50.2397 56.5904C50.2397 59.1176 51.7429 61.3834 53.8998 62.3856C51.634 63.0174 49.2375 63.257 46.732 63.257C37.9303 63.257 30.1089 59.2265 25.0763 52.8213C35.2723 53.5838 45.5991 55.8496 45.5991 55.8496C39.6732 52.8213 31.5033 49.8148 30.2397 49.4226C30.8715 49.5533 31.3726 49.5533 32.0044 49.684C32.1351 49.684 32.1351 49.684 32.1351 49.684C32.5054 49.8148 33.0065 49.8148 33.3987 49.8148C33.5294 49.8148 33.6601 49.8148 33.7691 49.8148C34.1394 49.8148 34.5316 49.9455 34.902 49.9455C35.0327 49.9455 35.1634 49.9455 35.4031 50.0762C35.7734 50.0762 36.1656 50.2069 36.4052 50.2069C36.536 50.2069 36.7756 50.2069 36.9063 50.3376C37.2767 50.3376 37.5381 50.4684 37.9085 50.4684C38.0392 50.4684 38.2789 50.5991 38.5403 50.5991C38.9107 50.5991 39.1721 50.7298 39.5425 50.7298C39.8039 50.7298 39.9129 50.8605 40.1743 50.8605C40.5447 50.8605 40.8061 50.9912 41.1765 50.9912C41.4379 50.9912 41.5468 51.122 41.8083 51.122C42.1786 51.2527 42.5708 51.2527 42.8105 51.2527C43.0501 51.2527 43.1808 51.3834 43.4423 51.3834C43.8126 51.5141 44.2048 51.5141 44.5752 51.6448C44.7059 51.6448 44.9455 51.7756 45.0763 51.7756C45.7081 51.9063 46.2092 52.037 46.841 52.037C46.3399 51.7756 45.8388 51.6666 45.3377 51.4052C45.207 51.2745 44.9673 51.2745 44.8366 51.1437C44.4662 51.013 44.0741 50.8823 43.7037 50.7734C43.573 50.6427 43.3333 50.6427 43.2026 50.5119C42.8322 50.3812 42.4401 50.2505 42.2004 50.1416C42.0697 50.0108 41.8301 50.0108 41.6993 49.8801C41.329 49.7494 40.8279 49.5098 40.4357 49.379C40.305 49.379 40.305 49.2483 40.1743 49.2483C39.6732 48.9869 39.1721 48.8779 38.5403 48.6165C38.4096 48.6165 38.2789 48.4858 38.1699 48.4858C37.7996 48.3551 37.2985 48.2244 36.9063 47.9847C36.7756 47.9847 36.6449 47.854 36.4052 47.854C36.0349 47.7233 35.6427 47.5925 35.1416 47.4836C35.0109 47.4836 34.8802 47.3529 34.7712 47.3529C34.2702 47.2222 33.8998 47.0915 33.3769 46.8518C33.2462 46.8518 33.2462 46.8518 33.2462 46.7211C32.1133 46.3507 30.9804 45.9586 29.9782 45.7189C29.8475 45.7189 29.8475 45.7189 29.7168 45.5882C29.2157 45.4575 28.8453 45.3268 28.3224 45.2178C28.1917 45.2178 28.1917 45.2178 28.061 45.0871C27.5599 44.9564 27.0588 44.8257 26.5577 44.7167C24.9237 44.2156 23.2898 43.8453 21.7647 43.4531H21.634C21.1329 43.3224 20.7625 43.1917 20.3704 43.0827C20.2397 43.0827 20.2397 43.0827 20.2397 43.0827C19.8693 41.8191 19.6078 40.5555 19.4771 39.3137H19.6078C21.8736 39.3137 23.6383 37.549 23.6383 35.2832C23.6383 33.7799 22.7669 32.3856 21.5033 31.7538C23.1373 31.6231 41.2636 31.2527 61.3943 43.2135V43.3442C61.3943 45.9803 63.5294 48.1372 66.1874 48.1372C66.9499 48.1372 67.5817 48.0065 68.1917 47.7668C68.7364 48.4204 69.6296 49.183 70.5011 49.8148ZM30.8497 12.7995C35.3813 9.66227 40.7843 7.76685 46.841 7.76685C54.6405 7.76685 61.6993 11.0348 66.732 16.1982C67.2331 16.6993 67.7342 17.3311 68.1264 17.8322L68.2571 17.9629C68.6274 18.3333 68.8889 18.8344 69.2593 19.2265C69.2593 19.3573 69.39 19.3573 69.39 19.488C69.6514 19.8583 70.0218 20.3594 70.2614 20.7516C70.2614 20.8823 70.3922 20.8823 70.3922 20.8823C70.7625 21.3834 71.024 22.0152 71.3943 22.5163C73.3987 26.4161 74.5316 30.8169 74.5316 35.4793C74.5316 35.61 74.5316 35.8496 74.5316 35.9803C74.2702 35.7189 74.0305 35.61 73.6601 35.3485C73.5294 35.2178 73.3987 35.0871 73.2898 34.9782C73.0283 34.7167 72.7887 34.6078 72.5272 34.3464C72.3965 34.2156 72.1569 34.0849 72.0261 33.976C71.7647 33.8453 71.5251 33.6056 71.2636 33.3442C71.0022 33.2135 70.8932 33.0827 70.6318 32.9738C70.3704 32.8431 70.1307 32.6034 69.8693 32.342C69.6078 32.2113 69.4989 32.0806 69.2375 31.8409C68.976 31.7102 68.7364 31.4705 68.366 31.3398C68.1046 31.2091 67.8649 30.9695 67.6035 30.8387C67.342 30.708 67.1024 30.4684 66.732 30.3376C66.4706 30.2069 66.2309 29.9673 65.9695 29.8366C65.7081 29.7058 65.3377 29.4662 65.098 29.3355C64.8584 29.2047 64.597 28.9651 64.3355 28.8344C64.0741 28.7037 63.7037 28.464 63.4641 28.3333C63.2244 28.2026 62.8322 27.9629 62.5926 27.8322C62.3312 27.7015 61.9608 27.4618 61.7211 27.3311C61.4815 27.2004 61.0893 26.9607 60.8497 26.83C60.61 26.6993 60.2179 26.4597 59.9782 26.3289C59.6078 26.1982 59.3464 25.9586 58.976 25.8278C58.7146 25.6971 58.3442 25.4575 58.1046 25.3268C57.7342 25.196 57.4728 24.9564 57.1024 24.8257C56.841 24.6949 56.4706 24.4553 56.2309 24.3246C55.8606 24.0631 55.4684 23.9542 55.098 23.6928C54.8366 23.562 54.4662 23.4313 54.2266 23.1917C53.8562 22.9302 53.4641 22.8213 53.0937 22.5599C52.8322 22.4292 52.5926 22.2984 52.3312 22.1895C51.8301 21.9281 51.4597 21.6884 50.9368 21.5577C50.6754 21.427 50.4357 21.2963 50.305 21.1873C49.6732 20.817 48.9107 20.5555 48.3007 20.1851C47.6688 19.8148 46.9063 19.5533 46.2963 19.183C46.0349 19.0522 45.9259 19.0522 45.6645 18.9215C45.1634 18.6601 44.6623 18.4204 44.1612 18.159C44.0305 18.0283 43.7908 18.0283 43.6601 17.8976C42.7887 17.5272 42.0261 17.135 41.1329 16.7647C41.5033 16.2636 41.7647 15.6318 41.7647 14.8692C41.7647 13.1045 40.2614 11.6013 38.4967 11.6013C36.8627 11.6013 35.5991 12.7342 35.2288 14.2374C33.6383 13.8017 32.244 13.3006 30.8497 12.7995ZM48.8671 14.8257C48.8671 17.0915 50.6318 18.8562 52.8976 18.8562C55.1634 18.8562 56.9281 17.0915 56.9281 14.8257C56.9281 12.5599 55.1634 10.7952 52.8976 10.7952C50.7407 10.7952 48.8671 12.5599 48.8671 14.8257Z" fill="#EC6519"/>
</g>
<defs>
<clipPath id="clip0">
<rect width="160" height="80" fill="white"/>
</clipPath>
</defs>
</svg>
