<svg width="160" height="80" viewBox="0 0 160 80" fill="none" xmlns="http://www.w3.org/2000/svg">
<path d="M88.7456 43.2275C87.1555 43.2275 85.742 43.2275 84.1519 43.2275C84.5053 41.9907 84.8586 40.754 85.212 39.5172C86.0954 36.337 87.1555 33.1568 88.0388 30.1533C88.3922 28.9165 89.0989 28.2098 90.3357 28.0331C91.5724 27.8564 92.4558 28.3865 93.1625 29.6233C94.7526 32.4501 96.3427 35.277 97.9328 38.1038C97.9328 38.1038 97.9328 38.1038 98.1095 38.2805C98.2862 37.7505 98.4629 37.3971 98.8162 37.0437C100.23 34.5702 101.643 32.0968 102.88 29.6233C103.587 28.3865 104.647 27.8565 106.06 28.2098C107.12 28.3865 107.827 29.2699 108.18 30.33C108.887 32.9802 109.77 35.807 110.477 38.4572C110.83 40.0473 111.36 41.4607 111.714 43.0508C111.714 43.2275 111.714 43.2275 111.89 43.4042C110.3 43.4042 108.887 43.4042 107.297 43.4042C106.413 40.4006 105.707 37.2204 104.823 34.2169C103.587 36.6904 102.173 39.1639 100.936 41.6374C100.936 41.8141 100.76 41.9907 100.76 42.1674C99.8763 43.7575 98.6396 43.9342 96.8728 43.5809C96.1661 43.4042 95.8127 42.6975 95.4593 41.9908C94.2226 39.5173 92.8092 37.0437 91.5724 34.5702C91.5724 34.3936 91.3957 34.3935 91.3957 34.2169C90.3357 37.2204 89.629 40.2239 88.7456 43.2275Z" fill="white"/>
<path d="M5 43.4041C6.06007 42.1674 6.94346 40.9306 7.82685 39.6939C8.00353 39.5172 8.18021 39.5172 8.35689 39.5172C11.8905 39.5172 15.424 39.5172 19.1343 39.5172C19.4876 39.5172 19.841 39.5172 20.1943 39.3406C20.7244 39.1639 20.9011 38.8105 20.9011 38.4572C20.9011 37.9271 20.7244 37.5738 20.1943 37.5738C19.841 37.5738 19.6643 37.3971 19.3109 37.3971C16.4841 37.3971 13.4806 37.3971 10.6537 37.3971C9.41695 37.3971 8.18021 37.0437 7.12014 36.337C4.82332 34.5702 5.17668 30.6833 7.82685 29.2699C8.88692 28.7398 10.1237 28.3865 11.3604 28.3865C15.7774 28.3865 20.1943 28.3865 24.6113 28.3865C24.6113 28.3865 24.788 28.3865 24.9647 28.3865C24.2579 29.4465 23.3746 30.33 22.8445 31.39C22.3145 32.0967 21.7844 32.4501 20.9011 32.4501C17.8975 32.4501 14.894 32.4501 11.8905 32.4501C11.5371 32.4501 11.3604 32.4501 11.0071 32.4501C10.477 32.6267 10.3004 32.8034 10.3004 33.3334C10.3004 33.8635 10.477 34.2168 11.0071 34.2168C11.3604 34.2168 11.7138 34.3935 11.8905 34.3935C14.5406 34.3935 17.1908 34.3935 19.841 34.3935C21.0777 34.3935 22.1378 34.5702 23.1979 34.9236C24.788 35.6303 25.4947 37.0437 25.4947 38.6338C25.318 41.814 23.3746 42.8741 20.9011 43.2275C20.1943 43.4041 19.6643 43.4041 18.9576 43.4041C14.5406 43.4041 9.94699 43.4041 5.53003 43.4041C5.35336 43.4041 5.17668 43.4041 5 43.4041Z" fill="white"/>
<path d="M55 28.0327C56.7668 28.0327 58.7102 28.2094 60.6537 28.7395C64.3639 29.7995 66.1307 32.273 65.954 36.1599C65.954 37.9267 65.424 39.5168 64.1873 40.9303C63.1272 42.167 61.7138 42.697 60.1236 43.0504C56.4134 43.7571 52.5265 43.9338 48.8162 42.6971C45.106 41.4603 43.8692 38.8101 44.0459 35.4532C44.0459 34.7465 44.2226 34.0398 44.3993 33.5098C45.106 31.0363 46.8728 29.6228 49.3463 28.9161C51.1131 28.2094 53.0565 28.0327 55 28.0327ZM54.8233 31.9197C53.5865 32.0963 52.3498 32.0963 50.9364 32.4497C49.6996 32.6264 48.9929 33.5098 48.8162 34.7465C48.8162 35.2766 48.8162 35.8066 48.8162 36.3366C48.8162 37.9267 49.6996 38.8101 51.2897 39.3402C52.8798 39.6935 54.6466 39.6935 56.2367 39.6935C57.2968 39.6935 58.3569 39.5168 59.4169 39.1635C60.477 38.9868 61.1837 38.1034 61.3604 37.0433C61.5371 36.5133 61.5371 35.8066 61.3604 35.2765C61.1837 33.5098 60.477 32.6264 58.7102 32.4497C57.4735 32.0963 56.2367 32.0963 54.8233 31.9197Z" fill="white"/>
<path d="M66.8375 32.2734C67.7209 31.2134 68.4276 30.1533 69.1343 29.2699C69.6643 28.5632 70.0177 28.3865 70.9011 28.3865C76.0247 28.3865 81.1484 28.3865 86.0954 28.3865C86.2721 28.3865 86.4488 28.3865 86.6254 28.3865C86.6254 28.5632 86.4488 28.5632 86.4488 28.7399C85.5654 29.7999 84.682 31.0367 83.7986 32.0967C83.6219 32.2734 83.4452 32.4501 83.2685 32.4501C81.8551 32.4501 80.265 32.4501 78.8516 32.4501C78.6749 32.4501 78.4982 32.4501 78.3216 32.4501C78.3216 36.1603 78.3216 39.8706 78.3216 43.4041C76.7315 43.4041 75.1414 43.4041 73.7279 43.4041C73.7279 39.6939 73.7279 36.1603 73.7279 32.4501C71.6078 32.2734 69.311 32.2734 66.8375 32.2734Z" fill="white"/>
<path d="M32.0318 39.5176C35.9187 39.5176 39.629 39.5176 43.5159 39.5176C43.5159 39.6943 43.3392 39.6943 43.3392 39.871C42.4558 40.931 41.5724 41.9911 40.689 43.2278C40.5124 43.4045 40.3357 43.5812 40.159 43.5812C35.9187 43.5812 31.6784 43.5812 27.4382 43.5812C27.4382 43.5812 27.4382 43.5812 27.2615 43.5812C27.2615 38.6342 27.2615 33.6872 27.2615 28.7402C28.8516 28.7402 30.265 28.7402 31.8551 28.7402C32.0318 32.0971 32.0318 35.6306 32.0318 39.5176Z" fill="white"/>
<path d="M138.746 28.3865C140.336 28.3865 141.749 28.3865 143.339 28.3865C143.339 32.0967 143.339 35.8069 143.339 39.5172C147.226 39.5172 151.113 39.5172 155 39.5172C154.293 40.4006 153.587 41.284 152.88 42.1674C152.35 43.0508 151.643 43.4041 150.583 43.4041C146.873 43.4041 143.163 43.4041 139.452 43.4041C139.276 43.4041 139.099 43.4041 138.922 43.4041C138.746 38.2805 138.746 33.3335 138.746 28.3865Z" fill="white"/>
<path d="M125.671 39.5173C129.558 39.5173 133.445 39.5173 137.332 39.5173C137.155 39.6939 136.979 39.8706 136.979 40.0473C136.272 41.1074 135.389 41.9908 134.682 43.0508C134.505 43.2275 134.329 43.4042 134.152 43.4042C129.912 43.4042 125.671 43.4042 121.431 43.4042H121.254C121.254 38.4572 121.254 33.5102 121.254 28.5632C122.845 28.5632 124.258 28.5632 125.848 28.5632C125.671 32.0968 125.671 35.807 125.671 39.5173Z" fill="white"/>
<path d="M118.074 43.2274C116.484 43.2274 115.071 43.2274 113.481 43.2274C113.481 38.2805 113.481 33.3335 113.481 28.3865C115.071 28.3865 116.484 28.3865 118.074 28.3865C118.074 33.3335 118.074 38.2805 118.074 43.2274Z" fill="white"/>
<path d="M37.3321 50.1178C37.1554 50.8245 36.8021 51.5312 36.8021 52.2379C36.6254 52.7679 36.4487 52.768 35.9187 52.5913C36.2721 51.3545 36.6254 50.2945 36.9788 49.0577C36.9788 48.881 37.1554 48.7043 37.3321 48.7043C37.5088 48.7043 37.6855 48.881 37.6855 49.0577C38.0388 49.9411 38.3922 50.6478 38.9222 51.7079C39.2756 51.0012 39.6289 50.2945 39.8056 49.5877C39.8056 49.4111 39.9823 49.2344 40.159 49.0577C40.159 48.881 40.3357 48.7043 40.5123 48.7043C40.689 48.7043 40.8657 48.881 40.8657 49.0577C41.219 50.2945 41.5724 51.3545 41.9258 52.5913C41.3957 52.768 41.2191 52.7679 41.0424 52.2379C40.8657 51.5312 40.689 50.8245 40.3357 50.1178C40.159 50.6478 39.9823 51.1779 39.6289 51.5312C39.4523 51.7079 39.4523 52.0612 39.2756 52.2379C39.0989 52.4146 38.9222 52.5913 38.9222 52.5913C38.7456 52.5913 38.5689 52.4146 38.5689 52.2379C38.0388 51.7079 37.8622 51.0011 37.3321 50.1178Z" fill="white"/>
<path d="M97.0494 52.0616C97.0494 51.7082 97.0494 51.3549 97.0494 51.0015C96.5194 51.0015 95.9894 51.0015 95.2827 51.0015C95.2827 50.8248 95.2827 50.6482 95.2827 50.4715C96.166 50.4715 96.8728 50.4715 97.7562 50.4715C97.7562 51.1782 97.7562 51.8849 97.7562 52.7683C96.8728 52.7683 95.8127 52.7683 94.9293 52.7683C94.0459 52.5916 93.5159 51.7083 93.5159 50.8249C93.5159 49.7648 94.2226 49.0581 95.106 49.0581C95.8127 49.0581 96.6961 49.0581 97.5795 49.0581C97.5795 49.2348 97.5795 49.4115 97.5795 49.7648C96.8728 49.7648 96.166 49.7648 95.636 49.7648C94.7526 49.7648 94.2226 50.2948 94.3993 51.1782C94.3993 51.7082 94.9293 52.2383 95.4593 52.2383C95.8127 52.2383 96.166 52.2383 96.5194 52.2383C96.6961 52.0616 96.8728 52.0616 97.0494 52.0616Z" fill="white"/>
<path d="M120.548 52.7683C120.548 52.5916 120.548 52.415 120.548 52.0616C121.254 52.0616 121.961 52.0616 122.491 52.0616C122.844 52.0616 123.198 52.0616 123.551 52.0616C123.728 52.0616 123.905 51.885 124.081 51.7083C124.258 51.3549 123.905 51.1782 123.551 51.1782C122.844 51.1782 122.314 51.1782 121.608 51.1782C120.724 51.1782 120.371 50.4715 120.548 49.7648C120.724 49.2348 121.078 49.0581 121.608 49.0581C122.668 49.0581 123.551 49.0581 124.611 49.0581C124.611 49.2348 124.611 49.4115 124.611 49.7648C123.905 49.7648 123.021 49.7648 122.314 49.7648C122.138 49.7648 121.961 49.7648 121.784 49.7648C121.431 49.7648 121.254 49.9415 121.254 50.2948C121.254 50.6482 121.431 50.6482 121.784 50.6482C122.314 50.6482 123.021 50.6482 123.551 50.6482C124.435 50.6482 124.965 51.3549 124.611 52.2383C124.435 52.5917 124.258 52.945 123.728 52.945C122.844 52.7683 121.784 52.7683 120.548 52.7683Z" fill="white"/>
<path d="M139.629 52.7682C139.276 52.7682 139.099 52.7682 138.922 52.7682C138.922 51.5315 138.922 50.1181 138.922 48.8813C139.982 48.8813 141.042 48.8813 142.102 48.8813C142.632 48.8813 142.986 49.4114 143.163 49.9414C143.339 50.6481 143.163 51.1782 142.279 51.7082C142.632 52.0616 143.163 52.4149 143.516 52.5916C142.986 52.7683 142.456 52.7683 142.102 52.2382C141.749 51.7082 141.219 51.5315 140.689 51.5315C140.512 51.5315 140.336 51.5315 140.159 51.5315C140.159 51.3548 140.159 51.1782 140.159 50.8248C140.689 50.8248 141.219 50.8248 141.749 50.8248C142.279 50.8248 142.456 50.6481 142.456 50.1181C142.456 49.588 142.279 49.4114 141.749 49.4114C141.042 49.4114 140.336 49.4114 139.629 49.4114C139.629 50.6481 139.629 51.7082 139.629 52.7682Z" fill="white"/>
<path d="M79.3816 52.7683C78.6749 52.7683 78.1448 52.945 77.9682 52.415C77.6148 51.8849 77.0848 51.7082 76.5547 51.8849C76.3781 51.8849 76.2014 51.8849 76.0247 51.8849C76.0247 51.7082 76.0247 51.5316 76.0247 51.1782C76.5547 51.1782 77.0848 51.1782 77.6148 51.1782C78.1449 51.1782 78.4982 50.8249 78.4982 50.4715C78.4982 49.9415 78.1449 49.7648 77.6148 49.7648C76.9081 49.7648 76.2014 49.7648 75.4947 49.7648C75.4947 50.8249 75.4947 51.8849 75.4947 52.945C75.318 52.945 75.1413 52.945 74.788 52.945C74.788 51.7082 74.788 50.4715 74.788 49.0581C75.848 49.0581 76.9081 49.0581 77.9682 49.0581C78.4982 49.0581 78.8516 49.4115 78.8516 49.9415C79.0282 50.4715 79.0282 51.0016 78.4982 51.5316C78.3215 51.7083 78.3215 51.7082 78.1449 51.8849C78.4982 51.8849 78.8516 52.2383 79.3816 52.7683Z" fill="white"/>
<path d="M108.887 48.8813C109.947 48.8813 110.83 48.8813 111.89 48.8813C112.421 48.8813 112.951 49.2347 113.127 49.7647C113.304 50.4715 113.127 51.1782 112.421 51.7082C112.774 52.0616 113.127 52.4149 113.481 52.7682C113.481 52.7682 113.481 52.9449 113.304 52.9449C112.774 52.9449 112.421 53.1216 112.067 52.5916C111.714 52.0616 111.184 51.7082 110.477 51.8848C110.3 51.8848 110.124 51.8848 109.947 51.8848C109.947 51.7082 109.947 51.5315 109.947 51.1781C110.477 51.1781 111.007 51.1781 111.537 51.1781C112.067 51.1781 112.244 51.0015 112.244 50.4714C112.244 49.9414 112.067 49.7647 111.537 49.7647C110.83 49.7647 110.124 49.7647 109.417 49.7647C109.417 50.8248 109.417 51.8849 109.417 52.9449C109.24 52.9449 108.887 52.9449 108.71 52.9449C108.887 51.3548 108.887 50.1181 108.887 48.8813Z" fill="white"/>
<path d="M83.0919 52.7679C82.7385 52.7679 82.3852 52.768 82.0318 52.5913C81.1484 52.4146 80.6184 51.3545 80.7951 50.2944C80.9718 49.411 81.6785 48.7043 82.5619 48.7043C82.9152 48.7043 83.4453 48.7043 83.7986 48.7043C84.8587 48.7043 85.5654 49.5877 85.5654 50.6478C85.5654 51.7079 84.682 52.5913 83.7986 52.5913C83.6219 52.768 83.4453 52.7679 83.0919 52.7679ZM83.0919 52.0612C83.2686 52.0612 83.4453 52.0612 83.6219 52.0612C84.3286 52.0612 84.8587 51.5312 84.8587 50.8245C84.8587 50.1178 84.5053 49.5877 83.6219 49.5877C83.2686 49.5877 82.9152 49.5877 82.5619 49.5877C81.8552 49.5877 81.5018 50.1178 81.5018 50.8245C81.5018 51.5312 82.0318 52.0612 82.7385 52.0612C82.9152 52.0612 83.0919 52.0612 83.0919 52.0612Z" fill="white"/>
<path d="M52.5265 51.5312C52.5265 51.1779 52.5265 50.6478 52.5265 50.2944C52.5265 49.9411 52.5265 49.4111 52.5265 48.881C52.7032 48.881 52.8799 48.881 53.2332 48.881C53.2332 50.1178 53.2332 51.1779 53.2332 52.4146C53.2332 52.5913 53.0565 52.7679 53.0565 52.7679C52.8799 52.7679 52.7032 52.768 52.5265 52.5913C51.9965 52.0613 51.4664 51.5312 50.9364 51.0011C50.583 50.6478 50.2297 50.2945 49.8763 49.9411C49.8763 50.8245 49.8763 51.7079 49.8763 52.5913C49.6997 52.5913 49.3463 52.5913 49.1696 52.5913C49.1696 51.3545 49.1696 50.2945 49.1696 49.0577C49.1696 48.881 49.3463 48.7043 49.3463 48.7043C49.523 48.7043 49.6997 48.7044 49.8763 48.881C50.7597 49.7644 51.4664 50.6478 52.3498 51.5312C52.3498 51.5312 52.3498 51.5312 52.5265 51.5312Z" fill="white"/>
<path d="M87.5088 48.8813C87.6855 48.8813 88.0389 48.8813 88.2155 48.8813C88.2155 49.5881 88.2155 50.2947 88.2155 51.0015C88.2155 51.8848 88.3922 52.2382 89.2756 52.2382C89.4523 52.2382 89.629 52.2382 89.8057 52.2382C90.5124 52.2382 90.8657 51.8848 90.8657 51.0015C90.8657 50.2947 90.8657 49.5881 90.8657 48.8813C91.0424 48.8813 91.2191 48.8813 91.5724 48.8813C91.5724 49.7647 91.5724 50.8248 91.3958 51.7082C91.2191 52.5916 90.5124 52.5916 89.8057 52.7682C89.629 52.7682 89.4523 52.7682 89.2756 52.7682C87.8622 52.7682 87.3322 52.2382 87.3322 50.8248C87.5088 50.1181 87.5088 49.5881 87.5088 48.8813Z" fill="white"/>
<path d="M115.954 49.5881C115.954 50.4714 115.954 51.1781 115.954 52.0615C116.837 52.0615 117.721 52.0615 118.781 52.0615C118.781 52.2382 118.781 52.5916 118.781 52.7682C117.544 52.7682 116.484 52.7682 115.247 52.7682C115.247 51.5315 115.247 50.2948 115.247 48.8813C116.484 48.8813 117.544 48.8813 118.781 48.8813C118.781 49.058 118.781 49.2347 118.781 49.5881C117.721 49.5881 116.837 49.5881 115.954 49.5881Z" fill="white"/>
<path d="M8.53357 52.0615C8.53357 52.4149 8.53357 52.5916 8.53357 52.7682C7.29682 52.7682 6.23675 52.7682 5 52.7682C5 51.5315 5 50.2948 5 48.8813C6.23675 48.8813 7.29682 48.8813 8.53357 48.8813C8.53357 49.058 8.53357 49.2347 8.53357 49.5881C7.65018 49.5881 6.76678 49.5881 5.70671 49.5881C5.70671 50.4714 5.70671 51.1781 5.70671 52.0615C6.5901 52.0615 7.4735 52.0615 8.53357 52.0615Z" fill="white"/>
<path d="M133.975 51.708C134.152 50.8246 134.859 51.178 135.389 51.0013C135.212 50.6479 134.859 50.1179 134.682 49.5879C134.505 49.7646 134.505 49.9413 134.329 49.9413C133.975 50.648 133.445 51.3546 133.092 51.8847C132.738 52.4147 132.738 52.4147 132.032 52.4147C132.208 52.2381 132.208 52.0613 132.385 51.8847C132.915 50.8246 133.622 49.7646 134.152 48.8812C134.505 48.3511 134.682 48.3511 135.035 48.8812C135.742 50.1179 136.449 51.178 137.155 52.4147C136.625 52.5914 136.272 52.5914 136.095 51.8847C135.919 51.5313 135.742 51.3547 135.389 51.3547C134.859 51.8847 134.329 51.708 133.975 51.708Z" fill="white"/>
<path d="M10.3004 52.768C11.0071 52.0612 11.5371 51.3546 12.2438 50.8245C11.7138 50.2945 11.0071 49.5878 10.477 48.8811C11.0071 48.8811 11.5371 48.7044 11.8905 49.2344C12.2438 49.5877 12.5972 49.9411 12.7738 50.2945C12.9505 50.2945 12.9505 50.2945 13.1272 50.2945C13.4806 49.9411 13.8339 49.5877 14.0106 49.2344C14.364 48.7044 14.7173 48.7044 15.2473 48.8811C14.7173 49.5878 14.0106 50.1178 13.4806 50.6479C14.1873 51.3546 14.7173 52.0612 15.424 52.768C14.894 52.768 14.5406 52.768 14.1873 52.4146C13.8339 52.0613 13.4806 51.7079 12.7738 51.1779C12.4205 51.5312 12.0671 52.0613 11.7138 52.4146C11.1837 52.768 10.8304 52.768 10.3004 52.768Z" fill="white"/>
<path d="M130.265 48.8813C130.265 49.058 130.265 49.2347 130.265 49.5881C129.382 49.5881 128.498 49.5881 127.438 49.5881C127.438 50.4714 127.438 51.1781 127.438 52.0615C128.322 52.0615 129.205 52.0615 130.265 52.0615C130.265 52.2382 130.265 52.5916 130.265 52.7682C129.028 52.7682 127.968 52.7682 126.731 52.7682C126.731 51.5315 126.731 50.2948 126.731 48.8813C127.968 48.8813 129.028 48.8813 130.265 48.8813Z" fill="white"/>
<path d="M149.17 52.0612C149.17 52.2379 149.17 52.4146 149.17 52.5913C148.286 52.5913 147.403 52.5913 146.696 52.5913C145.813 52.4146 145.106 51.5312 145.283 50.6478C145.283 49.5877 145.989 48.881 146.873 48.7043C147.756 48.7043 148.463 48.7043 149.346 48.7043C149.346 48.881 149.346 49.0577 149.346 49.411C148.64 49.411 147.933 49.411 147.226 49.411C146.166 49.411 145.636 50.4711 146.166 51.3545C146.343 51.8846 146.696 52.0612 147.226 52.0612C147.756 52.0612 148.463 52.0612 149.17 52.0612Z" fill="white"/>
<path d="M20.7244 52.0615C20.7244 52.2382 20.7244 52.5916 20.7244 52.7682C19.841 52.7682 18.9576 52.7682 18.2509 52.7682C17.3675 52.5916 16.6608 51.7082 16.8374 50.8248C16.8374 49.7648 17.5442 49.058 18.4275 48.8813C19.1343 48.8813 19.841 48.8813 20.371 48.8813C20.5477 48.8813 20.7244 48.8813 20.901 48.8813C20.901 49.058 20.901 49.2347 20.901 49.5881C20.1943 49.5881 19.4876 49.5881 18.7809 49.5881C17.8975 49.5881 17.3675 50.4714 17.5442 51.1781C17.7208 51.7082 18.0742 52.0615 18.6042 52.0615C19.1343 52.0615 19.841 52.0615 20.7244 52.0615Z" fill="white"/>
<path d="M47.0494 52.0615C47.0494 52.2382 47.0494 52.5916 47.0494 52.7682C45.9894 52.7682 44.7526 52.7682 43.5159 52.7682C43.5159 51.5315 43.5159 50.2948 43.5159 48.8813C44.5759 48.8813 45.8127 48.8813 46.8728 48.8813C46.8728 49.058 46.8728 49.2347 46.8728 49.5881C45.9894 49.5881 45.106 49.5881 44.0459 49.5881C44.0459 50.4714 44.0459 51.1781 44.0459 52.0615C45.2827 52.0615 46.166 52.0615 47.0494 52.0615Z" fill="white"/>
<path d="M30.795 48.8813C32.0318 48.8813 33.0919 48.8813 34.3286 48.8813C34.3286 49.058 34.3286 49.2347 34.3286 49.5881C33.4452 49.5881 32.5618 49.5881 31.6784 49.5881C31.6784 50.4714 31.6784 51.1781 31.6784 52.0615C32.5618 52.0615 33.4452 52.0615 34.5053 52.0615C34.5053 52.2382 34.5053 52.5916 34.5053 52.7682C33.2685 52.7682 32.2085 52.7682 30.9717 52.7682C30.795 51.3548 30.795 50.1181 30.795 48.8813Z" fill="white"/>
<path d="M66.8375 48.8813C66.8375 49.058 66.8375 49.2347 66.8375 49.5881C66.3074 49.5881 65.9541 49.5881 65.424 49.5881C65.424 50.6481 65.424 51.7082 65.424 52.7682C65.2474 52.7682 65.0707 52.7682 64.7173 52.7682C64.7173 51.7082 64.7173 50.6481 64.7173 49.5881C64.1873 49.5881 63.6573 49.5881 63.3039 49.5881C63.3039 49.4114 63.3039 49.058 63.3039 48.8813C64.364 48.8813 65.6007 48.8813 66.8375 48.8813Z" fill="white"/>
<path d="M54.9999 49.5881C54.9999 49.2347 54.9999 49.058 54.9999 48.8813C56.2367 48.8813 57.4734 48.8813 58.7102 48.8813C58.7102 49.058 58.7102 49.2347 58.7102 49.5881C58.1802 49.5881 57.8268 49.5881 57.2968 49.5881C57.2968 50.6481 57.2968 51.7082 57.2968 52.7682C57.1201 52.7682 56.7667 52.7682 56.59 52.7682C56.59 51.7082 56.59 50.6481 56.59 49.5881C55.8833 49.5881 55.53 49.5881 54.9999 49.5881Z" fill="white"/>
<path d="M28.8516 49.5881C28.3215 49.5881 27.9682 49.5881 27.4381 49.5881C27.4381 50.6481 27.4381 51.7082 27.4381 52.7682C27.2615 52.7682 27.0848 52.7682 26.7314 52.7682C26.7314 51.7082 26.7314 50.6481 26.7314 49.5881C26.2014 49.5881 25.848 49.5881 25.318 49.5881C25.318 49.4114 25.318 49.058 25.318 48.8813C26.5547 48.8813 27.7915 48.8813 28.8516 48.8813C28.8516 49.058 28.8516 49.2347 28.8516 49.5881Z" fill="white"/>
<path d="M103.763 52.7682C103.056 52.9449 103.056 52.9449 103.056 52.2382C103.056 51.8849 103.056 51.5315 103.056 51.1781C102.35 51.1781 101.82 51.1781 101.113 51.1781C101.113 51.0015 101.113 50.8248 101.113 50.4714C101.643 50.4714 102.35 50.4714 103.056 50.4714C103.056 49.9414 103.056 49.4114 103.056 48.8813C103.41 48.8813 103.587 48.8813 103.763 48.8813C103.763 50.1181 103.763 51.3548 103.763 52.7682Z" fill="white"/>
<path d="M154.293 50.4714C154.293 49.9414 154.293 49.4114 154.293 48.8813C154.47 48.8813 154.823 48.8813 155 48.8813C155 50.1181 155 51.5315 155 52.7682C154.293 52.9449 154.293 52.9449 154.293 52.2382C154.293 51.8849 154.293 51.5315 154.293 51.1781C153.587 51.1781 153.057 51.1781 152.35 51.1781C152.35 51.0015 152.35 50.8248 152.35 50.4714C152.88 50.4714 153.587 50.4714 154.293 50.4714Z" fill="white"/>
<path d="M72.4911 52.7682C72.3144 52.7682 72.1378 52.7682 71.7844 52.7682C71.7844 52.2382 71.7844 51.7082 71.7844 51.1781C71.0777 51.1781 70.5477 51.1781 69.8409 51.1781C69.8409 51.0015 69.8409 50.8248 69.8409 50.4714C70.5477 50.4714 71.0777 50.4714 71.7844 50.4714C71.7844 49.9414 71.7844 49.4114 71.7844 48.8813C71.9611 48.8813 72.3144 48.8813 72.4911 48.8813C72.4911 50.1181 72.4911 51.3548 72.4911 52.7682Z" fill="white"/>
<path d="M68.7809 52.7682C68.7809 51.5315 68.7809 50.1181 68.7809 48.8813C68.9576 48.8813 69.1342 48.8813 69.4876 48.8813C69.4876 49.4114 69.4876 49.9414 69.4876 50.4714C69.4876 51.0015 69.4876 51.7082 69.4876 52.2382C69.4876 52.7683 69.4876 52.9449 68.7809 52.7682Z" fill="white"/>
<path d="M23.3746 52.7682C23.1979 52.7682 23.0212 52.7682 22.6678 52.7682C22.6678 51.5315 22.6678 50.2948 22.6678 48.8813C22.8445 48.8813 23.0212 48.8813 23.3746 48.8813C23.3746 50.1181 23.3746 51.3548 23.3746 52.7682Z" fill="white"/>
<path d="M151.113 48.8813C151.29 48.8813 151.643 48.8813 151.82 48.8813C151.82 50.1181 151.82 51.5315 151.82 52.7682C151.113 52.9449 151.113 52.9449 151.113 52.2382C151.113 51.1782 151.113 49.9414 151.113 48.8813Z" fill="white"/>
<path d="M100.583 52.7682C100.406 52.7682 100.23 52.7682 99.8763 52.7682C99.8763 51.5315 99.8763 50.1181 99.8763 48.8813C100.053 48.8813 100.23 48.8813 100.583 48.8813C100.583 50.1181 100.583 51.3548 100.583 52.7682Z" fill="white"/>
<path d="M6.23676 51.0014C6.23676 50.8248 6.23676 50.6481 6.23676 50.4714C6.94347 50.4714 7.65018 50.4714 8.3569 50.4714C8.3569 50.6481 8.3569 50.8248 8.3569 51.0014C7.65018 51.0014 6.94347 51.0014 6.23676 51.0014Z" fill="white"/>
<path d="M31.8551 51.0014C31.8551 50.8248 31.8551 50.6481 31.8551 50.4714C32.5618 50.4714 33.2685 50.4714 33.9752 50.4714C33.9752 50.6481 33.9752 50.8248 33.9752 51.0014C33.2685 51.0014 32.5618 51.0014 31.8551 51.0014Z" fill="white"/>
<path d="M46.8728 51.0014C46.166 51.0014 45.4593 51.0014 44.7526 51.0014C44.7526 50.8248 44.7526 50.6481 44.7526 50.4714C45.4593 50.4714 46.166 50.4714 46.8728 50.4714C46.8728 50.6481 46.8728 50.8248 46.8728 51.0014Z" fill="white"/>
<path d="M118.428 50.4714C118.428 50.6481 118.428 50.8248 118.428 51.0014C117.721 51.0014 117.014 51.0014 116.307 51.0014C116.307 50.8248 116.307 50.6481 116.307 50.4714C117.014 50.4714 117.721 50.4714 118.428 50.4714Z" fill="white"/>
<path d="M130.088 50.4714C130.088 50.6481 130.088 50.8248 130.088 51.0014C129.382 51.0014 128.675 51.0014 127.968 51.0014C127.968 50.8248 127.968 50.6481 127.968 50.4714C128.675 50.4714 129.382 50.4714 130.088 50.4714Z" fill="white"/>
</svg>
