<svg width="160" height="80" viewBox="0 0 160 80" fill="none" xmlns="http://www.w3.org/2000/svg">
<path d="M160 27.9101C159.288 27.9101 158.577 27.9384 157.865 27.8959C157.338 27.8676 157.139 27.9809 157.153 28.5758C157.196 31.083 157.153 33.5761 157.181 36.0833C157.196 36.6924 156.996 36.8482 156.427 36.8057C155.915 36.749 155.388 36.7632 154.861 36.8057C154.349 36.8482 154.235 36.6499 154.235 36.1683C154.263 33.6469 154.221 31.1114 154.263 28.59C154.278 28.0234 154.093 27.8251 153.552 27.9101C153.48 27.9243 153.409 27.9101 153.338 27.9101C152.712 27.8676 151.715 28.1792 151.516 27.7968C151.203 27.2018 151.402 26.3378 151.402 25.587C151.402 25.1054 151.786 25.2754 152.028 25.2754C154.52 25.2612 157.011 25.2754 159.502 25.2612C159.673 25.2612 159.829 25.2471 160 25.2329C160 26.1111 160 27.0177 160 27.9101Z" fill="white"/>
<path d="M79.2028 30.2049C80.6406 28.6467 82.0498 27.1452 83.4021 25.6012C83.7722 25.1763 84.1708 25.233 84.6121 25.2188C84.9253 25.2188 84.8541 25.4454 84.8541 25.6154C84.8541 29.1991 84.8541 32.7829 84.8683 36.3808C84.8683 36.6924 84.7544 36.7916 84.4555 36.7774C83.7722 36.7632 83.0747 36.7491 82.3915 36.7774C81.9502 36.8057 81.8221 36.6641 81.8363 36.225C81.8648 34.6951 81.8505 33.1795 81.8505 31.6355C81.1815 32.2729 80.5267 32.8679 79.9004 33.4911C79.1886 34.1994 79.2171 34.1852 78.5196 33.5053C77.8932 32.8962 77.21 32.3296 76.5979 31.7913C76.5125 32.2446 76.5836 32.8962 76.5836 33.5336C76.5694 34.4543 76.5694 35.3751 76.5836 36.2958C76.5979 36.6641 76.4697 36.7916 76.0996 36.7774C75.3879 36.7491 74.6762 36.7491 73.9644 36.7774C73.6085 36.7916 73.5231 36.6499 73.5231 36.3241C73.5374 32.7545 73.5231 29.1991 73.5374 25.6296C73.5374 25.4738 73.4662 25.233 73.7082 25.233C74.0925 25.233 74.4911 25.063 74.8327 25.4454C75.7153 26.437 76.6263 27.4002 77.5231 28.3634C78.0641 28.9725 78.605 29.5533 79.2028 30.2049Z" fill="white"/>
<path d="M126.52 28.76C126.235 28.76 125.95 28.7458 125.665 28.76C125.324 28.7883 125.153 28.7034 124.982 28.3492C124.584 27.4993 122.776 27.3718 122.178 28.0943C121.751 28.6184 121.964 29.3549 122.676 29.5391C123.331 29.7091 124.028 29.7516 124.698 29.8649C125.139 29.9357 125.58 30.0207 126.007 30.1482C127.231 30.5165 128.057 31.253 128.285 32.5846C128.512 34.001 128.114 35.1484 126.961 36.0125C125.196 37.3298 122.036 37.344 120.27 36.055C119.459 35.4742 119.018 34.6668 118.89 33.6894C118.847 33.3778 118.904 33.2078 119.288 33.222C119.972 33.2503 120.669 33.2361 121.352 33.222C121.58 33.222 121.722 33.2786 121.851 33.5053C122.42 34.511 124.242 34.7235 125.082 33.9161C125.552 33.4628 125.438 32.7687 124.84 32.4287C124.413 32.2021 123.943 32.1596 123.459 32.1313C122.534 32.0888 121.623 31.9471 120.783 31.5363C118.633 30.4881 118.377 27.5418 120.285 25.9978C121.979 24.6238 125.096 24.6663 126.776 26.0687C127.431 26.6211 127.801 27.3435 127.943 28.1934C128.014 28.6042 127.943 28.8167 127.459 28.76C127.146 28.7317 126.833 28.76 126.52 28.76Z" fill="white"/>
<path d="M69.8221 28.7599C69.5801 28.7599 69.3523 28.7457 69.1103 28.7599C68.7544 28.7741 68.4982 28.7599 68.2989 28.3208C67.9146 27.4709 66.0498 27.3859 65.4947 28.1366C65.0961 28.6749 65.3381 29.3973 66.0498 29.5673C66.7189 29.7231 67.4021 29.7656 68.0854 29.8789C68.4982 29.9498 68.9253 30.0348 69.3238 30.1622C70.5765 30.5305 71.4164 31.2813 71.6299 32.6411C71.8577 34.0859 71.4021 35.2475 70.2064 36.0974C68.484 37.3155 65.5089 37.3297 63.7438 36.1682C62.8612 35.5874 62.3772 34.7658 62.2206 33.7318C62.1637 33.3777 62.2491 33.2077 62.6477 33.236C63.089 33.2644 63.5445 33.2502 64 33.236C64.5552 33.236 65.0107 33.1794 65.395 33.8451C65.8505 34.6525 67.758 34.61 68.427 33.9159C68.8541 33.4768 68.7402 32.7969 68.1851 32.4711C67.758 32.2303 67.2883 32.1878 66.8185 32.1595C66.0356 32.1312 65.2669 32.0178 64.5267 31.7345C63.3594 31.2954 62.5338 30.5447 62.3772 29.2557C62.2064 27.8958 62.6192 26.7343 63.758 25.8986C65.4662 24.6521 68.3559 24.7087 70.0214 26.0119C70.7473 26.5785 71.1317 27.3434 71.274 28.2358C71.3452 28.6324 71.2598 28.8024 70.8185 28.7599C70.4911 28.7457 70.1495 28.7599 69.8221 28.7599Z" fill="white"/>
<path d="M143.317 31.0264C143.317 29.2983 143.331 27.5843 143.302 25.8562C143.302 25.4312 143.345 25.2329 143.872 25.2329C145.907 25.2612 147.957 25.2612 149.993 25.2329C150.448 25.2329 150.576 25.3746 150.548 25.7995C150.52 26.3378 150.52 26.8902 150.548 27.4285C150.562 27.8109 150.42 27.9101 150.05 27.8959C148.954 27.8818 147.872 27.8959 146.776 27.8818C146.448 27.8818 146.306 27.9526 146.335 28.3067C146.377 28.9866 146.121 29.8507 146.448 30.304C146.762 30.7289 147.687 30.4031 148.342 30.4314C148.883 30.4598 149.609 30.2615 149.922 30.5306C150.292 30.8564 149.964 31.6071 150.05 32.1596C150.149 32.882 149.922 33.1511 149.153 33.0803C148.384 33.0095 147.587 33.0803 146.804 33.052C146.42 33.0378 146.32 33.1653 146.32 33.5336C146.349 34.426 146.292 35.3325 146.335 36.2249C146.363 36.7207 146.178 36.8198 145.737 36.8057C145.096 36.7773 144.455 36.7773 143.815 36.8057C143.402 36.8198 143.288 36.6782 143.302 36.2816C143.317 34.5251 143.317 32.7687 143.317 31.0264Z" fill="white"/>
<path d="M115.075 32.3719C115.075 33.675 115.06 34.9641 115.089 36.2672C115.089 36.6639 114.975 36.8197 114.562 36.7913C113.964 36.763 113.367 36.7347 112.783 36.7913C112.199 36.848 112.142 36.593 112.142 36.1114C112.171 33.6042 112.128 31.1112 112.171 28.604C112.185 27.9807 112 27.8391 111.416 27.8957C110.847 27.9524 110.278 27.8957 109.708 27.9099C109.409 27.9241 109.253 27.8391 109.31 27.5133C109.31 27.4708 109.31 27.4141 109.31 27.3716C109.324 26.6917 109.082 25.7993 109.423 25.3885C109.779 24.9494 110.705 25.2611 111.388 25.2611C113.338 25.2469 115.274 25.2752 117.224 25.2327C117.808 25.2186 117.95 25.4169 117.907 25.9551C117.865 26.4509 117.879 26.9467 117.907 27.4425C117.936 27.8108 117.822 27.9382 117.438 27.9241C116.826 27.8957 116.199 27.9382 115.587 27.9099C115.189 27.8957 115.06 28.0091 115.06 28.4199C115.089 29.723 115.075 31.0545 115.075 32.3719Z" fill="white"/>
<path d="M92.6121 49.781C94.0925 47.7837 95.5303 45.8431 96.9537 43.9167C97.0392 43.8034 97.1246 43.69 97.21 43.5767C97.3381 43.3642 97.5516 43.3217 97.7651 43.3784C98.0356 43.4492 97.9075 43.69 97.9075 43.86C97.9217 46.5089 97.9075 49.1435 97.9075 51.7924C97.9075 52.6706 97.879 53.5347 97.9217 54.4129C97.9502 55.1637 97.4093 54.8379 97.0961 54.8945C96.7545 54.9512 96.4982 54.937 96.4982 54.4129C96.5267 51.8915 96.5125 49.3702 96.5125 46.6363C96.1281 47.1605 95.8434 47.5429 95.5587 47.9112C94.7189 49.0586 93.8648 50.1918 93.0534 51.3533C92.726 51.8207 92.5409 51.9199 92.1566 51.3674C91.0748 49.8235 89.936 48.3078 88.8114 46.778C88.5694 46.9196 88.6833 47.1321 88.6833 47.2879C88.6691 49.5968 88.6548 51.9199 88.6975 54.2288C88.7118 54.8379 88.4698 54.8804 87.9715 54.8945C87.4164 54.9087 87.2598 54.7529 87.2598 54.1863C87.2883 50.7867 87.274 47.3871 87.274 43.9875C87.274 43.775 87.1175 43.4776 87.4164 43.3642C87.7438 43.2368 87.9288 43.4634 88.0997 43.7184C89.6086 45.7156 91.089 47.7129 92.6121 49.781Z" fill="white"/>
<path d="M73.2669 46.6077C72.4271 46.7777 71.9288 46.6219 71.4733 45.8712C70.6619 44.5255 68.3986 44.0864 66.5623 44.7521C64.8399 45.3754 63.7722 47.0327 63.7722 49.1008C63.7722 51.1972 64.8114 52.8403 66.5196 53.4777C69.1957 54.4693 71.8719 53.0953 72.3701 50.5031C72.4555 50.064 72.3559 49.979 71.9431 49.9932C70.9039 50.0215 69.8505 49.9648 68.8114 50.0073C68.3132 50.0357 68.2847 49.7948 68.2989 49.4266C68.3132 49.0866 68.242 48.8033 68.7829 48.8175C70.2776 48.86 71.7723 48.8458 73.2669 48.8175C73.6655 48.8175 73.7224 48.9733 73.7224 49.3132C73.7936 52.5287 71.7723 54.7667 68.5125 55.0359C65.4804 55.2909 62.8612 53.2086 62.4484 50.1915C61.9929 46.8769 63.5872 44.1997 66.5196 43.4206C68.2989 42.9532 69.9929 43.1656 71.5445 44.1997C72.4271 44.7805 72.9822 45.5737 73.2669 46.6077Z" fill="white"/>
<path d="M130.036 46.6077C129.31 46.7635 128.769 46.7069 128.313 45.8995C127.573 44.5821 125.352 44.1005 123.544 44.6813C121.68 45.2762 120.512 47.1035 120.584 49.2849C120.655 51.5088 121.85 53.1094 123.786 53.6194C126.363 54.2851 128.641 52.9961 129.181 50.6022C129.281 50.1631 129.253 49.9648 128.712 49.9931C127.687 50.0356 126.676 49.979 125.651 50.0215C125.181 50.0356 125.096 49.8515 125.125 49.4549C125.153 49.1149 125.082 48.8174 125.609 48.8316C127.103 48.8741 128.598 48.8599 130.092 48.8316C130.42 48.8316 130.52 48.9166 130.534 49.2566C130.69 52.4437 128.598 54.7809 125.31 55.0358C122.278 55.2766 119.616 53.1236 119.26 50.1631C119.103 48.9166 119.189 47.7126 119.687 46.551C121.367 42.6274 126.306 42.4432 128.683 44.4263C129.423 45.0496 129.865 45.7578 130.036 46.6077Z" fill="white"/>
<path d="M115.63 52.0615C115.402 49.2569 115.473 46.6647 115.431 44.0584C115.416 43.4634 115.587 43.3218 116.171 43.3218C116.712 43.3359 116.883 43.4493 116.868 44.0159C116.84 47.4438 116.854 50.8575 116.84 54.2854C116.84 54.4837 117.011 54.7954 116.669 54.8804C116.384 54.9654 116.242 54.7246 116.1 54.5546C113.851 51.9624 111.601 49.3702 109.352 46.7922C109.238 46.6505 109.11 46.5089 108.982 46.3672C108.783 46.5655 108.883 46.7922 108.883 46.9763C108.897 49.4127 108.911 51.8349 108.968 54.2713C108.982 54.8804 108.697 54.8804 108.242 54.8945C107.744 54.9087 107.559 54.8237 107.559 54.2571C107.587 50.8575 107.573 47.4579 107.587 44.0584C107.587 43.8317 107.416 43.5059 107.73 43.3784C108.071 43.2368 108.228 43.5484 108.413 43.7609C110.69 46.3814 112.968 49.0161 115.246 51.6366C115.331 51.7216 115.402 51.8066 115.63 52.0615Z" fill="white"/>
<path d="M102.705 54.8804C101.993 54.8804 101.281 54.8379 100.569 54.8945C100.071 54.9229 100.043 54.7104 100.043 54.3138C100.043 53.9596 100.085 53.7755 100.527 53.7755C102.05 53.7613 102.05 53.733 102.05 52.2315C102.05 49.8518 102.036 47.4579 102.064 45.0782C102.064 44.5683 101.922 44.3983 101.438 44.4691C101.253 44.4975 101.053 44.4408 100.868 44.4833C100.214 44.6108 100.128 44.2566 100.185 43.7325C100.214 43.4634 100.271 43.3643 100.555 43.3643C102.021 43.3784 103.502 43.3784 104.968 43.3643C105.523 43.3643 105.281 43.775 105.324 44.0158C105.381 44.3133 105.295 44.4975 104.925 44.4833C104.456 44.4691 103.829 44.2566 103.559 44.5683C103.26 44.9224 103.473 45.5598 103.459 46.0698C103.445 48.407 103.473 50.7442 103.445 53.0814C103.445 53.6055 103.53 53.8888 104.128 53.7897C104.356 53.7472 104.598 53.8038 104.84 53.7755C105.238 53.7472 105.48 53.7897 105.48 54.3279C105.48 54.8662 105.238 54.8945 104.84 54.8804C104.128 54.8662 103.416 54.8804 102.705 54.8804Z" fill="white"/>
<path d="M135.544 25.0488C132.028 25.0488 129.566 27.5135 129.566 31.0264C129.566 34.5818 131.972 36.9757 135.544 36.9757C139.018 36.9757 141.466 34.4969 141.466 31.0123C141.452 27.5135 139.004 25.0488 135.544 25.0488ZM135.473 34.1427C133.794 34.1286 132.612 32.8396 132.612 31.0264C132.612 29.1708 133.794 27.9101 135.53 27.9101C137.21 27.9101 138.391 29.185 138.391 31.0123C138.391 32.8396 137.167 34.1569 135.473 34.1427Z" fill="white"/>
<path d="M108.555 36.0547C107.972 35.0915 107.374 34.1283 106.762 33.1792C106.548 32.8393 106.505 32.6551 106.861 32.3293C108.128 31.1678 108.456 29.6805 107.986 28.0657C107.53 26.5076 106.448 25.5443 104.797 25.3319C103.032 25.1052 101.253 25.2894 99.4733 25.2185C98.9751 25.2044 98.9039 25.3885 98.9039 25.8276C98.9182 27.5558 98.9182 29.2697 98.9182 30.9978C98.9182 32.7401 98.9324 34.4824 98.9182 36.2389C98.9182 36.6072 98.9751 36.7913 99.4022 36.763C100.085 36.7205 100.783 36.7346 101.466 36.763C101.836 36.7771 101.964 36.678 101.95 36.2955C101.922 35.6298 101.936 34.9782 101.936 34.3124C101.936 33.0943 101.936 33.1084 103.132 33.1509C103.445 33.1651 103.601 33.2784 103.73 33.5334C103.9 33.8733 104.085 34.1991 104.27 34.5249C104.683 35.2615 104.954 36.2814 105.58 36.6355C106.249 37.0038 107.288 36.7488 108.157 36.7488C108.826 36.7488 108.897 36.6355 108.555 36.0547ZM103.886 30.7145C103.715 30.7287 103.559 30.7145 103.388 30.7145C101.907 30.7145 101.908 30.7145 101.908 29.2697C101.908 27.8816 101.907 27.8816 103.288 27.8816C103.473 27.8816 103.673 27.8816 103.858 27.8816C104.769 27.9099 105.21 28.3348 105.224 29.2272C105.238 30.1338 104.769 30.672 103.886 30.7145Z" fill="white"/>
<path d="M97.6228 35.8708C96.0285 32.4571 94.4057 29.0575 92.8399 25.6437C92.6121 25.1621 92.3132 25.1479 91.9004 25.1479C91.4875 25.1479 91.1602 25.1621 90.9466 25.6437C90.3203 27.0885 89.6228 28.505 88.9395 29.9357C87.9715 31.9755 87.0036 34.0152 86.0356 36.055C85.8363 36.4657 85.7082 36.834 86.4199 36.7915C86.9609 36.7632 87.516 36.7349 88.0569 36.7915C88.7972 36.8765 89.2811 36.6641 89.452 35.8991C89.5658 35.4317 89.879 35.3042 90.3488 35.3325C91.3879 35.375 92.4413 35.3609 93.4804 35.3325C93.8932 35.3184 94.1637 35.4175 94.2634 35.8425C94.4626 36.6499 94.9893 36.919 95.7722 36.7774C95.9146 36.749 96.0569 36.7774 96.1993 36.7774C96.484 36.7774 96.7687 36.7774 97.0534 36.7774C97.9502 36.7774 98.0071 36.6924 97.6228 35.8708ZM92.5836 32.8395C92 32.8254 91.4021 32.8395 90.6904 32.8395C91.1032 31.8763 91.4733 31.0264 91.8719 30.0774C92.242 30.9273 92.5552 31.678 92.8968 32.4146C93.0676 32.7687 92.9395 32.8537 92.5836 32.8395Z" fill="white"/>
<path d="M85.2954 54.0446C83.7153 50.645 82.1353 47.2596 80.5409 43.8742C80.4271 43.6475 80.4128 43.3359 80 43.3218C79.5587 43.3076 79.516 43.6192 79.3879 43.8742C77.7652 47.3021 76.1424 50.7159 74.5196 54.1438C74.178 54.8662 74.178 54.8662 75.0321 54.8662C75.5587 55.022 75.8435 54.7245 76.0427 54.1721C76.2705 53.5772 76.5979 53.0247 76.8541 52.444C76.9965 52.104 77.1958 52.0049 77.5516 52.0049C79.1459 52.019 80.726 52.0332 82.3203 52.0049C82.7189 52.0049 82.9182 52.1182 83.0605 52.4723C83.3595 53.1664 83.7011 53.8321 84.0285 54.5121C84.1708 54.7954 85.2385 55.0503 85.4804 54.8237C85.7651 54.5545 85.4093 54.2854 85.2954 54.0446ZM77.5516 50.815C78.3345 49.0869 79.1032 47.3729 79.9431 45.5032C80.7687 47.3304 81.5374 49.0302 82.3488 50.815C80.726 50.815 79.1886 50.815 77.5516 50.815Z" fill="white"/>
<path d="M28.7544 9.05666C29.9359 9.15581 31.0036 9.53827 32.0142 10.1332C38.3915 13.9152 44.7829 17.669 51.1601 21.4368C52.6406 22.3151 52.8683 23.2641 51.9715 24.7656C51.4306 25.2472 50.9893 25.828 50.3772 26.2671C48.2989 27.7686 44.8399 27.7686 42.79 26.3237C41.3238 25.2897 39.8434 24.2557 38.2491 23.4058C35.1601 21.7768 31.9288 20.6719 28.427 20.2611C25.1103 19.8787 21.9786 20.3603 19.089 22.0318C14.4199 24.7373 11.5872 28.7743 10.548 34.0578C10.5338 34.157 10.5196 34.2419 10.4911 34.3411C10.4057 34.5394 10.3488 34.7519 10.121 34.8227C6.98932 34.7661 3.85765 34.8085 0.725979 34.7944C0.469751 34.7944 0.213523 34.7661 0 34.5677C0 31.8339 0 29.0859 0 26.3521C0.370107 24.2132 1.52313 22.6409 3.47331 21.6635C3.68683 21.5643 3.88612 21.4368 4.14235 21.451C4.41281 21.536 4.46975 21.791 4.49822 22.0176C4.62633 23.1225 5.48043 23.4766 6.61922 23.3491C7.33096 23.2641 8 23.0233 8.6548 22.7683C11.6584 21.5926 14.4199 19.9353 17.1957 18.3064C19.032 17.2298 20.8541 16.1391 22.5765 14.8926C23.331 14.3544 24.0285 13.7594 24.669 13.0937C25.4093 12.3288 25.7082 11.4789 25.1673 10.459C25.0676 10.2607 25.0249 10.0624 25.153 9.8499C25.9786 9.07082 27.0178 9.02833 28.0569 9C28.2989 9.02833 28.5267 8.95751 28.7544 9.05666Z" fill="#E80531"/>
<path d="M0 34.5677C2.7331 34.5677 5.46619 34.5677 8.19929 34.5677C8.88256 34.5677 9.56584 34.5252 10.2349 34.7094C10.4484 34.8935 10.4057 35.1343 10.3915 35.3751C10.3772 35.4601 10.363 35.5309 10.3345 35.6159C10.2633 36.1542 10.3203 36.6925 10.3061 37.2307C10.3061 37.5282 10.3345 37.854 10.0498 38.0665C9.73666 38.2223 9.40925 38.1939 9.08185 38.1939C6.41993 38.1939 3.75801 38.1939 1.09609 38.1939C0.725979 38.1939 0.327402 38.2364 0.0142349 37.9673C0 36.8341 0 35.7009 0 34.5677Z" fill="#E5052E"/>
<path d="M0 37.9674C3.37367 37.9674 6.74733 37.9674 10.1068 37.9674C10.2491 37.9391 10.3061 38.0241 10.363 38.1374C10.4199 38.3215 10.4342 38.5057 10.4484 38.6898C10.4769 39.1006 10.6192 39.4972 10.6762 39.908C10.6904 40.1205 10.6762 40.3329 10.4911 40.4746C9.99288 40.7579 9.43772 40.7296 8.8968 40.7437C6.26335 40.7721 3.62989 40.6729 1.01068 40.8004C0.441281 40.0921 0.398576 39.1714 0.0142349 38.3924C0 38.2507 0 38.1091 0 37.9674Z" fill="#E1052C"/>
<path d="M22.6192 29.0293C22.5623 28.7743 22.6762 28.576 22.79 28.3635C24.2705 25.4597 27.9573 24.114 30.9466 25.4739C37.637 28.5193 44.2278 31.7773 50.79 35.0777C53.2954 36.3384 54.7758 38.5481 54.9466 41.3528C55.1886 45.2765 55.1317 49.2285 54.9751 53.1664C54.8897 55.1778 53.879 56.8209 52.1423 57.8266C48.9964 59.6539 45.7794 61.3537 42.5907 63.096C42.548 63.0393 42.5196 62.9827 42.5196 62.9118C42.548 62.8127 42.5907 62.7277 42.6619 62.6569C42.9609 62.3594 43.3452 62.1611 43.6157 61.8353C43.8861 61.5803 44.1708 61.3395 44.3416 60.9996C44.5125 60.6596 44.7829 60.3905 45.0391 60.1214C45.2384 59.923 45.3523 59.6822 45.452 59.4273C45.6085 59.1156 45.8932 58.889 45.9786 58.5349C46.0783 58.2799 46.2349 58.0533 46.3488 57.8125C48.2562 52.8264 47.6868 48.237 44.1708 44.1149C42.7046 42.401 40.8541 41.2536 38.7616 40.4604C34.4626 38.8173 30.1495 37.2449 25.8505 35.5876C24.0142 34.8794 22.8897 33.5196 22.4342 31.6215C22.2776 30.9557 22.3488 30.3041 22.4484 29.6525C22.4484 29.44 22.5196 29.2276 22.6192 29.0293Z" fill="#EF013A"/>
<path d="M10.3915 34.2703C10.4484 32.8963 10.9039 31.6356 11.4448 30.4032C13.5943 25.573 17.0534 22.1309 22.2064 20.5303C24.2278 19.907 26.2918 19.8787 28.3843 20.077C31.4733 20.3603 34.3488 21.3093 37.1246 22.5983C39.089 23.5049 40.8541 24.7373 42.6335 25.9413C45.6085 27.981 48.9395 27.6269 51.4733 25.1055C51.6157 24.9639 51.6726 24.6381 52 24.7656C50.1495 28.5335 45.4947 29.7941 42.0356 27.4003C39.1459 25.4313 36.1566 23.7457 32.7972 22.7542C27.5445 21.2102 22.6619 21.9751 18.3061 25.318C16.3986 26.777 15.5587 28.9017 15.2171 31.2248C15.0605 32.2872 15.1601 33.3354 15.3879 34.3694C15.4591 34.6386 15.2456 34.7235 15.0747 34.7377C13.6228 34.8652 12.1708 34.851 10.7189 34.7519C10.4911 34.7235 10.2491 34.6102 10.3915 34.2703Z" fill="#930701"/>
<path d="M46.4199 57.9539C46.3203 58.1805 46.2206 58.4213 46.1067 58.6479C45.7793 58.8462 45.6085 58.5913 45.4804 58.393C44.8541 57.3589 43.8149 56.7923 42.8754 56.1407C41.4377 55.1492 39.9146 54.271 38.4626 53.3077C38.2206 53.1378 37.8078 53.0244 38.0071 52.5712C38.7758 51.1263 39.3025 49.6249 39.5018 47.9959C39.8292 45.1629 38.3772 42.4432 35.758 41.2534C34.4769 40.6726 33.1815 40.1202 31.8861 39.5536C32.242 39.1145 32.6548 39.2986 33.0534 39.4544C34.5338 40.0352 35.9573 40.7293 37.4662 41.2392C39.2313 41.8341 40.7829 42.7549 42.1637 43.9589C44.0427 45.5878 45.3665 47.5709 45.9359 50.0356C46.3914 52.0329 46.5053 54.016 45.8647 55.9708C45.5943 56.7923 46.0498 57.3306 46.4199 57.9539Z" fill="#930701"/>
<path d="M27.0463 71.0001C26.7616 71.0001 26.4769 71.0001 26.178 71.0001C25.8364 70.9576 25.4947 70.9859 25.1816 70.816C17.5517 65.9149 9.85059 61.113 2.20647 56.2261C1.73672 55.9286 1.19579 55.7161 0.825684 55.2487C1.12462 54.4413 1.76519 53.903 2.39152 53.3789C4.44134 54.6821 6.5054 55.9853 8.55522 57.2884C13.7652 60.603 18.9751 63.9035 24.1993 67.2039C25.8791 68.2663 27.5872 69.2862 29.1958 70.4194C28.541 70.816 27.8008 70.9293 27.0463 71.0001Z" fill="#EA042F"/>
<path d="M46.42 57.9543C45.7082 57.501 45.4235 56.9344 45.6513 56.0421C45.8648 55.2347 46.1068 54.4131 46.121 53.5632C46.178 50.4186 45.3239 47.5856 43.1887 45.2059C41.8079 43.6477 40.1424 42.5004 38.2207 41.7071C36.5125 41.013 34.8043 40.3473 33.0961 39.639C32.6976 39.4691 32.299 39.3416 31.8719 39.5257C29.694 38.69 27.5161 37.8543 25.452 36.7777C22.8897 35.432 21.694 32.769 22.2064 29.936C22.2207 29.8227 22.2919 29.7236 22.3346 29.6102C22.3773 29.5394 22.42 29.5394 22.4627 29.6102C22.3061 31.5508 22.8185 33.2365 24.3559 34.5538C25.1388 35.2054 26.0783 35.5029 27.0036 35.857C31.3025 37.5001 35.6869 38.9874 39.9004 40.8147C44.1139 42.642 46.5908 46.0133 47.3595 50.5319C47.7581 52.8408 47.5588 55.1213 46.6904 57.3311C46.6477 57.5435 46.605 57.7843 46.42 57.9543Z" fill="#8F0601"/>
<path d="M5.8363 51.5799C6.87544 51.2399 7.94306 51.1833 9.01067 51.4099C8.56939 51.6507 8.81139 51.7924 9.06761 51.9623C10.9893 53.223 12.9395 54.427 14.8754 55.6594C18.79 58.1383 22.7189 60.6171 26.6335 63.096C28.8256 64.4842 31.032 65.8723 33.2242 67.2888C33.4804 67.4446 33.7794 67.5721 33.9075 67.8837C33.4235 68.2379 32.911 68.5212 32.3559 68.7336C31.9288 68.8895 31.6299 68.592 31.3167 68.3937C29.0819 66.9772 26.847 65.5607 24.5979 64.1442C19.5303 60.9287 14.4484 57.7133 9.38078 54.512C8.2847 53.8179 7.17437 53.1239 6.09252 52.4156C5.8363 52.2315 5.28114 52.0473 5.8363 51.5799Z" fill="#DF0429"/>
<path d="M5.83633 51.5801C5.55164 52.005 5.93598 52.1042 6.17797 52.26C8.32744 53.634 10.4627 54.9938 12.6121 56.3537C15.1459 57.9543 17.6798 59.5408 20.1993 61.1414C24.0997 63.6061 28 66.0708 31.9004 68.5355C32.0427 68.6205 32.1709 68.7197 32.3559 68.7197C31.9289 68.9605 31.5018 69.1871 31.0605 69.4279C30.8185 69.5129 30.662 69.3429 30.4911 69.2296C23.3737 64.711 16.2563 60.2065 9.13882 55.7021C7.6584 54.7672 6.17797 53.8323 4.71178 52.8833C4.45555 52.7133 4.07121 52.5858 4.2705 52.1325C4.75448 51.8492 5.26694 51.6509 5.83633 51.5801Z" fill="#E3042B"/>
<path d="M33.9075 67.8693C31.9573 66.637 29.9929 65.4046 28.0427 64.1723C22.4484 60.6311 16.8541 57.0898 11.2456 53.5486C10.2492 52.9253 9.26695 52.2737 8.27051 51.6363C8.48403 51.2964 8.78296 51.4805 8.99649 51.3955C9.95022 51.4238 10.8613 51.7213 11.6726 52.1887C13.2954 53.1236 14.8755 54.1293 16.4698 55.1067C16.4271 55.3334 16.6264 55.3617 16.7545 55.4467C21.7367 58.5771 26.7047 61.7359 31.6869 64.8805C32.6121 65.4613 33.5374 66.0137 34.4342 66.6512C34.662 66.8211 35.0036 66.9345 34.8897 67.3452C34.5908 67.5577 34.2776 67.7702 33.9075 67.8693Z" fill="#DA0526"/>
<path d="M29.21 70.4191C28.9964 70.4191 28.8114 70.3483 28.6121 70.2208C22.5907 66.3821 16.5552 62.5576 10.5196 58.7331C8.01423 57.1466 5.49466 55.5601 2.97509 53.9736C2.7331 53.8178 2.51957 53.6337 2.39146 53.3787C2.70463 53.0104 3.1032 52.7413 3.54448 52.5288C3.70107 52.8829 3.98576 53.1237 4.31317 53.3362C10.2918 57.0899 16.242 60.872 22.1922 64.654C24.911 66.3821 27.6584 68.0394 30.3203 69.8525C29.9929 70.0933 29.637 70.32 29.21 70.4191Z" fill="#E8042D"/>
<path d="M0.839857 55.2485C1.95018 55.7443 2.90391 56.4667 3.91459 57.1041C8.9395 60.2771 13.9502 63.4784 18.9751 66.6655C20.8114 67.827 22.6477 68.9744 24.4982 70.1217C24.7829 70.2917 25.0676 70.4617 25.1957 70.8017C24.4413 70.7308 23.8007 70.3767 23.1744 70.0084C16.0285 65.8439 8.8968 61.6653 1.75089 57.5008C0.711743 56.8917 0.455516 56.2684 0.839857 55.2485Z" fill="#EB0330"/>
<path d="M30.3345 69.8385C30.1068 69.8527 29.9359 69.7535 29.7509 69.6402C23.8434 65.8865 17.9217 62.1328 12 58.3791C9.29537 56.6651 6.57651 54.937 3.87189 53.223C3.60142 53.053 3.31673 52.9114 3.55872 52.5148C3.75801 52.3165 4.01423 52.2031 4.2847 52.1323C4.29893 52.4298 4.52669 52.5714 4.75445 52.7131C8.29893 54.9512 11.8434 57.2034 15.4021 59.4414C20.2989 62.5436 25.21 65.6315 30.121 68.7337C30.4626 68.9461 30.7758 69.2011 31.1032 69.4277C30.8612 69.626 30.605 69.7677 30.3345 69.8385Z" fill="#E6042C"/>
<path d="M11.6584 47.4578C11.0463 47.2595 10.4911 46.962 9.93594 46.6645C9.96441 46.1829 10.3345 46.1404 10.6762 46.1263C11.5872 46.0979 12.4982 46.0271 13.395 46.1829C13.9359 46.5512 14.5338 46.3812 15.1174 46.3812C18.0071 46.3812 20.8968 46.3812 23.7865 46.3812C26.1495 46.3812 28.5267 46.3812 30.8897 46.3812C31.3452 46.3812 31.7865 46.3529 32.1993 46.1121C32.3843 46.3246 32.2847 46.5796 32.3274 46.8204C32.4982 48.2227 32.4555 48.2652 31.1032 48.1377C30.7189 48.0952 30.3488 48.1094 29.9644 48.1094C25.3096 48.1094 20.6406 48.1094 15.9858 48.1094C15.6014 48.1094 15.2313 48.1235 14.847 48.0669C13.9217 47.387 12.8399 47.472 11.7865 47.4861C11.758 47.4861 11.7011 47.472 11.6584 47.4578Z" fill="#CD051F"/>
<path d="M14.662 47.8827C19.9573 47.8827 25.267 47.8827 30.5623 47.8827C30.847 47.8827 31.1317 47.8827 31.4022 47.9393C32.2705 48.1093 32.299 48.0952 32.3132 47.2453C32.3132 47.1036 32.3275 46.962 32.3275 46.8203C32.6122 47.6702 32.3844 48.4918 32.1424 49.2992C31.8435 49.7666 31.3452 49.6533 30.9182 49.6533C26.605 49.6675 22.2919 49.6533 17.9929 49.6675C17.4947 49.6675 16.9965 49.625 16.5125 49.7383C16.2848 49.71 16.0855 49.6108 15.9146 49.455C15.6869 49.0867 15.3025 48.8884 15.0036 48.6051C14.7901 48.421 14.4627 48.2651 14.662 47.8827Z" fill="#D20521"/>
<path d="M25.3381 40.8145C26.2349 40.9561 27.032 41.3952 27.8292 41.7777C28.0854 41.9052 28.3559 41.9901 28.6121 42.1035C28.8683 42.2734 28.7402 42.4151 28.5552 42.5143C28.2562 42.6842 27.9288 42.7267 27.5872 42.7267C22.3203 42.7409 17.0676 42.7551 11.8007 42.7267C11.7011 42.7267 11.6157 42.7126 11.516 42.6842C11.2883 42.6276 11.1174 42.4859 11.0036 42.2876C10.8897 41.891 10.548 41.5085 10.9182 41.0836C11.3167 40.8145 11.7865 40.8711 12.2278 40.8711C16.3559 40.8569 20.4982 40.8853 24.6263 40.8569C24.8683 40.8569 25.0961 40.8428 25.3381 40.8145Z" fill="#B80614"/>
<path d="M34.9039 67.3455C34.8043 67.048 34.548 66.9205 34.3061 66.7647C29.5089 63.7334 24.726 60.6879 19.9288 57.6425C18.8185 56.9342 17.7082 56.2118 16.6121 55.4894C16.4982 55.4186 16.1423 55.3477 16.484 55.0928C18.2064 56.1126 20.0854 56.7217 21.9644 57.345C22.6335 57.9399 23.4164 58.3649 24.1566 58.8323C28.1708 61.3678 32.1708 63.9317 36.1993 66.4531C36.242 66.4814 36.2705 66.5239 36.2989 66.5522C35.8577 66.8922 35.3737 67.133 34.9039 67.3455Z" fill="#D70524"/>
<path d="M16.5125 49.7384C16.6121 49.271 16.9964 49.441 17.2669 49.441C21.9359 49.4268 26.5907 49.4268 31.2598 49.4268C31.5587 49.4268 31.8719 49.4835 32.1566 49.2852C32 49.9084 31.7153 50.475 31.3025 50.985C30.9466 51.2399 30.5338 51.2116 30.1352 51.2116C27.4306 51.1833 24.7402 51.0133 22.0356 51.0558C21.1957 51.0699 20.3559 51.3674 19.5018 51.1266C18.4484 50.7725 17.452 50.305 16.5125 49.7384Z" fill="#D70524"/>
<path d="M11.3879 42.5001C16.7117 42.5001 22.0356 42.5001 27.3452 42.5001C27.758 42.5001 28.1423 42.4293 28.5267 42.3443C28.7117 42.3018 28.6406 42.1885 28.6121 42.0752C29.3523 42.316 29.9502 42.7551 30.4626 43.35C30.4626 43.5342 30.3345 43.5908 30.1922 43.6333C29.9929 43.7042 29.7794 43.7042 29.5658 43.7042C23.9573 43.6475 18.3488 43.9591 12.726 43.8458C12.4698 43.8458 12.1993 43.8458 11.9431 43.7891C11.4021 43.52 11.1601 43.1092 11.3879 42.5001Z" fill="#BE0617"/>
<path d="M10.8327 41.2254C10.9466 41.5512 11.1174 41.8628 11.1174 42.2169C11.2597 42.5569 11.0035 42.6135 10.7757 42.6702C10.4768 42.741 10.1636 42.7127 9.86471 42.7269C7.43055 42.7694 5.01062 42.6419 2.57646 42.7977C1.92165 42.2453 1.36649 41.5937 1.01062 40.8004C1.09603 40.3755 1.4519 40.5313 1.70813 40.5313C3.99994 40.5171 6.29176 40.5171 8.58357 40.5313C9.25261 40.5313 9.89318 40.4605 10.548 40.3755C10.9893 40.5455 10.9608 40.8713 10.8327 41.2254Z" fill="#DC0529"/>
<path d="M10.8327 41.2252C10.7189 40.9419 10.7473 40.6161 10.548 40.3753C10.548 40.1912 10.5338 40.007 10.5338 39.8087C10.847 39.5113 11.2456 39.5821 11.6157 39.5821C14.6619 39.5679 17.7082 39.5821 20.7687 39.5821C21.21 39.5821 21.6655 39.6246 22.0925 39.3979C23.2456 39.7237 24.2562 40.3895 25.3665 40.8003C25.0961 41.0977 24.7402 41.0694 24.3843 41.0694C20.242 41.0694 16.1139 41.0694 11.9715 41.0694C11.5587 41.0836 11.1886 41.1119 10.8327 41.2252Z" fill="#B20611"/>
<path d="M39.3025 64.9234C39.032 65.2067 38.6334 65.2633 38.306 65.4616C37.9074 65.5324 37.637 65.2633 37.3523 65.0792C34.1637 63.0536 30.9608 61.028 27.7722 59.0024C27.4448 58.7899 26.8612 58.6908 27.0177 58.0533C27.2455 57.9542 27.516 58.0817 27.7437 57.9684C28.1281 57.9259 28.4982 57.77 28.8968 57.8267C30.1067 58.4641 31.2313 59.2574 32.3843 59.9939C34.3914 61.2546 36.3985 62.487 38.3629 63.8043C38.7758 64.0593 39.3167 64.2859 39.3025 64.9234Z" fill="#C9051D"/>
<path d="M27.0463 58.0958C27.1886 58.6482 27.7295 58.7757 28.1139 59.0307C31.5018 61.1979 34.9039 63.3226 38.306 65.4615C38.0071 65.7023 37.6655 65.9007 37.2954 66.014C36.8114 66.2548 36.4697 65.8865 36.1423 65.674C33.879 64.2434 31.6157 62.8127 29.3523 61.382C27.9858 60.518 26.6335 59.6539 25.2669 58.804C25.0391 58.6624 24.8114 58.549 24.6548 58.3366C24.5267 58.1666 24.5409 58.1524 24.7972 57.9258C24.9822 57.9399 25.1673 57.9541 25.3381 57.9683C25.9075 58.1241 26.4911 57.8975 27.0463 58.0958Z" fill="#CE0520"/>
<path d="M24.7972 57.926C24.484 58.4501 25.0534 58.4501 25.2385 58.5634C26.7331 59.5549 28.2563 60.4898 29.7794 61.4389C32.0997 62.8979 34.4057 64.3427 36.7118 65.8017C36.8968 65.915 37.0676 66.0142 37.2954 66C36.9822 66.2408 36.6548 66.4249 36.2847 66.5666C35.6726 66.5524 35.2598 66.085 34.8043 65.8017C31.3452 63.6486 27.9146 61.4389 24.4698 59.2433C23.7153 58.7617 22.9609 58.2801 22.2207 57.7843C22.0926 57.6993 21.7509 57.671 21.9645 57.3452C22.7331 57.4869 23.5018 57.6427 24.2705 57.7843C24.4413 57.841 24.6406 57.8127 24.7972 57.926Z" fill="#D20522"/>
<path d="M43.7011 61.9061C43.4733 62.3169 43.0747 62.501 42.7189 62.7702C42.121 62.671 41.879 62.1752 41.6797 61.7361C41.3381 60.9712 40.7544 60.4896 40.0996 60.0788C38.363 58.9881 36.6263 57.8691 34.8897 56.7784C34.605 56.5942 34.1352 56.4951 34.3203 55.971C34.7473 55.7018 35.1744 55.4327 35.6014 55.1636C37.7224 56.6226 40 57.8549 42.0783 59.3847C42.6904 59.838 43.1886 60.3338 43.3025 61.1129C43.331 61.3962 43.5587 61.637 43.7011 61.9061Z" fill="#AE060F"/>
<path d="M32.1993 46.1263C32.2135 46.6787 31.8292 46.6079 31.4591 46.6079C28.4698 46.6079 25.4804 46.6079 22.5053 46.6079C20.0854 46.6079 17.6655 46.6079 15.2456 46.6079C14.8897 46.6079 14.5338 46.537 14.1922 46.6929C13.7794 46.877 13.5943 46.5654 13.3808 46.3246C13.21 46.2112 13.1103 46.0696 13.2527 45.8713C13.5374 45.6446 13.879 45.673 14.2064 45.673C15.4591 45.6588 16.7117 45.6446 17.9644 45.673C22.2491 45.7721 26.5196 45.4747 30.8043 45.5172C31.1886 45.5172 31.5587 45.503 31.9004 45.2905C32.1139 45.5313 32.1708 45.8288 32.1993 46.1263Z" fill="#C9051C"/>
<path d="M19.4875 51.1548C20.2278 50.999 20.968 50.8857 21.7224 50.8716C23.3737 50.8432 25.0391 50.7866 26.6904 50.8857C28.2278 50.9849 29.7509 50.9849 31.2883 50.999C30.8897 51.5798 30.4199 52.1039 29.7936 52.4297C28.7402 52.5713 27.6868 52.4722 26.6335 52.4864C25.2954 52.5005 23.9573 52.4864 22.6192 52.5713C21.5231 52.1889 20.484 51.6931 19.4875 51.1548Z" fill="#DB0525"/>
<path d="M39.3025 64.9235C39.0606 64.541 38.7331 64.2435 38.3488 63.9886C35.3737 62.0905 32.3986 60.1782 29.4235 58.2801C29.2243 58.1526 29.025 58.0393 28.8969 57.8126C29.5659 57.671 30.2207 57.5152 30.8897 57.3735C30.9324 57.671 31.1033 57.8693 31.3595 58.0251C33.5659 59.3991 35.7581 60.8015 37.9502 62.1755C38.8755 62.7562 39.6584 63.4928 40.4129 64.286C40.0712 64.5693 39.7011 64.7676 39.3025 64.9235Z" fill="#C4051B"/>
<path d="M34.306 55.957C34.2918 56.2828 34.5765 56.382 34.79 56.5095C36.5409 57.6143 38.306 58.6909 40.0427 59.8099C40.7829 60.2915 41.5231 60.7731 41.8505 61.6938C42.0071 62.1046 42.4199 62.4162 42.7188 62.7704C42.6761 62.8129 42.6192 62.8554 42.5765 62.912C42.4341 63.2095 42.0783 63.2803 41.8647 63.4928C41.3807 63.5211 41.2099 63.1103 41.0676 62.7987C40.6263 61.8355 39.8149 61.283 38.975 60.7589C37.1957 59.6399 35.4163 58.5067 33.6512 57.3877C33.3665 57.2035 32.8967 57.0761 33.1672 56.552C33.5516 56.3395 33.9217 56.1412 34.306 55.957Z" fill="#B50613"/>
<path d="M40.4128 64.314C39.7437 64.2007 39.459 63.5774 39.0035 63.195C37.6227 62.076 36.0569 61.2686 34.6049 60.2912C33.4092 59.4979 32.1993 58.7472 30.9751 57.9964C30.6477 57.7981 30.5622 57.6423 30.9039 57.3874C31.3309 57.2457 31.758 57.1041 32.185 56.9624C32.3558 57.3165 32.6405 57.5432 32.9679 57.7415C34.7615 58.8463 36.5124 60.0079 38.3202 61.0986C39.4875 61.8068 40.4697 62.7134 41.1672 63.8891C40.9395 64.1015 40.6832 64.229 40.4128 64.314Z" fill="#BF0618"/>
<path d="M31.9003 45.3049C31.9003 45.5599 31.8434 45.7723 31.5017 45.7582C31.4021 45.7582 31.3167 45.7582 31.217 45.7582C25.4661 45.7582 19.7153 45.999 13.9786 45.8998C13.7366 45.8998 13.4519 45.8007 13.2384 46.0415C12.612 45.744 12.5124 45.4749 12.8683 45.0499C13.2099 44.9366 13.5658 44.9649 13.9217 44.9649C19.459 44.9649 25.0106 44.9649 30.548 44.9649C30.975 44.9649 31.4021 44.9083 31.7864 45.1774C31.8291 45.2199 31.8576 45.2624 31.9003 45.3049Z" fill="#C7051B"/>
<path d="M31.7865 45.1773C25.4093 45.1773 19.0463 45.1915 12.669 45.1915C12.5409 45.1632 12.4555 45.0923 12.3843 44.979C12.2847 44.7807 12.3701 44.6532 12.5267 44.5399C12.7687 44.3983 13.0249 44.3983 13.2811 44.3983C17.8221 44.4833 22.363 44.1858 26.9181 44.2566C28.3843 44.2849 29.8505 44.2141 31.3167 44.2849C31.6157 44.5257 31.6726 44.8657 31.7865 45.1773Z" fill="#C4051A"/>
<path d="M2.56228 42.7976C2.64769 42.3584 2.98932 42.5143 3.24555 42.5143C5.63701 42.5001 8.02847 42.5143 10.4199 42.5001C10.6762 42.5001 11.0178 42.6559 11.1032 42.2168C11.2028 42.316 11.2883 42.4151 11.3879 42.5001C11.4021 42.925 11.6299 43.2792 11.8149 43.6333C11.8577 43.7183 11.8577 43.8033 11.7865 43.8741C11.4591 44.1857 11.0463 44.1149 10.6477 44.1291C8.66904 44.1574 6.67616 44.0866 4.69751 44.1716C3.88612 43.8741 3.17438 43.4067 2.56228 42.7976Z" fill="#D80527"/>
<path d="M41.153 63.8892C41.0107 63.875 40.8541 63.8467 40.7829 63.7192C39.8149 61.9061 37.9644 61.1695 36.3701 60.1072C35.0605 59.2289 33.7224 58.3932 32.3843 57.5575C32.1139 57.3875 31.9715 57.2459 32.1708 56.9484C32.484 56.7501 32.8114 56.6084 33.1673 56.5234C33.0961 56.8917 33.395 57.0192 33.6228 57.1609C35.4591 58.3224 37.2954 59.4556 39.1174 60.6313C39.9288 61.1554 40.7402 61.6653 41.153 62.6144C41.2954 62.9402 41.4947 63.2943 41.8505 63.4784C41.6939 63.7192 41.3665 63.7192 41.153 63.8892Z" fill="#BA0616"/>
<path d="M11.8149 43.775C11.8149 43.7325 11.8149 43.6759 11.8149 43.6334C12.0285 43.6334 12.242 43.6334 12.4555 43.6334C18.2633 43.7467 24.0569 43.4351 29.8648 43.4917C30.0641 43.4917 30.2918 43.5484 30.4626 43.3643C30.7616 43.4351 30.8897 43.6759 31.0463 43.9025C30.9609 44.3416 30.5907 44.2425 30.3203 44.2566C29.2384 44.285 28.1423 44.2708 27.0463 44.285C22.4342 44.3416 17.8221 44.455 13.21 44.4125C12.8968 44.4125 12.5979 44.4408 12.2847 44.3558C12 44.2708 11.8149 44.0867 11.8149 43.775Z" fill="#C10518"/>
<path d="M43.701 61.9063C43.3594 61.9063 43.274 61.6513 43.2313 61.3822C43.032 60.1073 42.0498 59.4699 41.0961 58.8467C39.4875 57.7985 37.8363 56.7927 36.2135 55.7445C35.9715 55.5887 35.6156 55.5179 35.5872 55.1355C35.8292 54.9371 36.0711 54.753 36.2989 54.5547C37.2669 55.008 38.121 55.6312 39.0178 56.212C40.3274 57.0477 41.7082 57.7985 42.9181 58.7758C43.6726 59.3708 44.0711 60.2207 44.427 61.0847C44.3131 61.4672 44 61.6797 43.701 61.9063Z" fill="#A8060C"/>
<path d="M22.0641 39.4123C22.0783 39.9506 21.6513 39.809 21.3808 39.809C19.7296 39.8231 18.0641 39.8231 16.4128 39.8231C14.4484 39.8231 12.484 39.8231 10.5196 39.8231C10.3203 39.469 10.3203 39.0724 10.2491 38.6899C13.4947 38.8458 16.7545 38.6474 20 38.8033C20.1281 38.8033 20.2278 38.7608 20.3417 38.7183C20.9253 38.9307 21.4947 39.1715 22.0641 39.4123Z" fill="#AD060E"/>
<path d="M44.427 61.0844C43.7011 60.2204 43.3167 59.073 42.2776 58.4498C41.1246 57.7557 39.9858 57.0616 38.8612 56.3109C38.0071 55.7301 37.0249 55.3335 36.3132 54.5686C36.5267 54.3703 36.7402 54.1578 36.968 53.9595C37.5516 54.002 37.8932 54.4694 38.3345 54.7385C40.0285 55.8151 41.7936 56.8066 43.4021 58.0107C43.8577 58.3506 44.2135 58.7331 44.4128 59.2572C44.5694 59.6396 44.911 59.8804 45.1388 60.2204C44.8968 60.5037 44.6548 60.787 44.427 61.0844Z" fill="#A30609"/>
<path d="M38.0071 52.5571C38.306 53.2654 39.0462 53.4637 39.6156 53.832C41.4235 55.0077 43.3025 56.0984 44.9822 57.4582C45.2099 57.6424 45.3808 57.8548 45.5089 58.124C45.637 58.3931 45.7793 58.6197 46.121 58.6481C46.0356 59.0022 45.7366 59.2147 45.5658 59.498C45.0676 59.6113 44.8825 59.243 44.7402 58.9172C44.4697 58.3081 44.0142 57.8973 43.459 57.5432C41.6227 56.3817 39.7722 55.2485 37.9644 54.0444C37.7224 53.8886 37.3808 53.7895 37.4377 53.3929C37.6227 53.1096 37.8078 52.8404 38.0071 52.5571Z" fill="#9A0704"/>
<path d="M20.3559 38.7039C20.2278 38.9589 19.9858 38.9589 19.7438 38.9589C16.8114 38.9589 13.879 38.9589 10.9324 38.9589C10.6477 38.9589 10.4342 38.888 10.2491 38.6756C10.2491 38.4914 10.2349 38.2931 10.2349 38.109C10.548 37.8115 10.9466 37.8965 11.3167 37.8823C13.6085 37.854 15.9146 37.9248 18.2064 37.8398C18.9893 37.9815 19.6157 38.4914 20.3559 38.7039Z" fill="#AA060D"/>
<path d="M18.2206 37.8397C18.0356 38.1938 17.7082 38.1088 17.4093 38.1088C15.0178 38.1088 12.6406 38.1088 10.2491 38.1088C10.2064 38.0663 10.1637 38.0097 10.121 37.9672C10.1922 37.1173 9.95017 36.2532 10.2491 35.4175C10.5338 35.7008 10.4484 36.0691 10.4626 36.409C10.5196 36.9615 10.9466 36.9048 11.3167 36.9048C12.726 36.919 14.1352 36.919 15.5445 36.9048C16.0569 36.9048 16.5694 36.919 17.0818 37.004C17.5374 37.1739 17.8648 37.5281 18.2206 37.8397Z" fill="#A5060A"/>
<path d="M11.8149 43.7749C11.9146 43.9166 12 44.0582 12.0996 44.1999C12.2989 44.3415 12.484 44.4832 12.3843 44.7664C12.427 44.8656 12.484 44.9506 12.5267 45.0497C12.2278 45.333 11.8576 45.2622 11.516 45.2622C10.0498 45.2906 8.58363 45.2056 7.11744 45.3189C6.29181 44.9789 5.46619 44.6248 4.69751 44.1715C4.95374 43.9166 5.28114 43.9166 5.62278 43.9166C7.41637 43.9166 9.20996 43.9166 10.9893 43.9166C11.274 43.9166 11.5587 43.9307 11.8149 43.7749Z" fill="#D40525"/>
<path d="M37.4377 53.3931C38.5196 54.3846 39.8576 55.022 41.0534 55.8294C42.0641 56.5094 43.1174 57.1609 44.1566 57.7984C44.5125 58.0108 44.6406 58.365 44.7972 58.7049C44.968 59.059 45.153 59.3707 45.5516 59.484C45.5089 59.7815 45.3808 60.0223 45.1246 60.1922C44.7971 60.1781 44.5694 59.9514 44.4697 59.7106C43.9146 58.2375 42.5623 57.6284 41.3808 56.8352C39.9146 55.8436 38.3345 55.0362 36.9537 53.9313C37.1103 53.7614 37.2669 53.5772 37.4377 53.3931Z" fill="#9E0707"/>
<path d="M12.3843 44.7664C12.2847 44.5823 12.1993 44.3839 12.0996 44.1998C16.0712 44.1998 20.0427 44.2565 24.0142 44.1715C26.2064 44.129 28.3986 44.0582 30.5765 44.0582C30.7473 44.0582 30.9181 44.0582 31.0178 43.9023C31.1174 44.0298 31.2171 44.1715 31.3167 44.299C31.1317 44.5681 30.847 44.4689 30.605 44.4689C29.153 44.4831 27.7153 44.4831 26.2633 44.4689C21.8648 44.4123 17.4662 44.7239 13.0534 44.6106C12.8256 44.6248 12.5979 44.6389 12.3843 44.7664Z" fill="#C20519"/>
<path d="M22.605 52.5712C23.089 52.3729 23.5872 52.2737 24.1139 52.2737C25.7082 52.2879 27.2883 52.2737 28.8826 52.2737C29.1957 52.2737 29.4947 52.2596 29.7794 52.4295C27.9858 53.7469 26.0214 53.8319 23.9858 53.2228C23.5018 53.0811 23.0605 52.7978 22.605 52.5712Z" fill="#DF0528"/>
<path d="M7.11743 45.3188C7.27402 44.993 7.58718 45.0497 7.85765 45.0497C9.40925 45.0497 10.9608 45.0497 12.5267 45.0497C12.5694 45.0922 12.6263 45.1488 12.669 45.1913C12.8114 45.503 12.9964 45.8004 13.2384 46.0412C13.2811 46.1404 13.3381 46.2254 13.3808 46.3245C12.5124 46.3245 11.6584 46.3245 10.79 46.3245C10.4484 46.3245 10.1352 46.3387 9.93594 46.6645C8.99644 46.2254 8.05693 45.7721 7.11743 45.3188Z" fill="#D00622"/>
<path d="M17.0818 36.9901C16.9822 37.0326 16.8683 37.1034 16.7686 37.1034C14.7615 37.1176 12.7544 37.1034 10.7473 37.1176C10.1636 37.1176 10.2775 36.7351 10.2633 36.3952C10.7188 36.041 11.274 36.0552 11.8149 36.041C13.2953 35.9985 14.7758 36.1119 16.2419 35.9702C16.5124 36.3243 16.7971 36.6643 17.0818 36.9901Z" fill="#A10708"/>
<path d="M16.2278 35.9842C16.1566 36.3808 15.8434 36.2675 15.6157 36.2675C14.605 36.2817 13.5801 36.2958 12.5694 36.2675C11.7865 36.2392 11.0178 36.3667 10.2491 36.4233C10.2491 36.0834 10.2491 35.7576 10.2349 35.4176C10.5053 35.1768 10.847 35.2051 11.1744 35.2051C12.1851 35.2051 13.1957 35.191 14.1922 35.2051C14.6904 35.2051 15.1744 35.1768 15.6441 35.0068C15.8434 35.3326 16.0427 35.6584 16.2278 35.9842Z" fill="#9D0706"/>
<path d="M15.6584 35.0071C15.6015 35.5029 15.2314 35.4179 14.9039 35.4179C13.3523 35.4179 11.8007 35.4179 10.2491 35.4179C10.2491 35.1771 10.2491 34.9504 10.2491 34.7096C10.2776 34.5538 10.2491 34.3838 10.3915 34.2705C10.42 34.5113 10.5765 34.568 10.7901 34.568C12.2136 34.568 13.637 34.568 15.0463 34.568C15.2029 34.568 15.3168 34.5113 15.4022 34.3697C15.4876 34.5821 15.573 34.7946 15.6584 35.0071Z" fill="#980704"/>
<path d="M14.6619 47.8826C14.7046 48.2651 15.0178 48.4067 15.2597 48.6192C15.5302 48.8458 15.9573 48.9875 15.9003 49.4549C14.4484 48.86 13.0391 48.1942 11.6583 47.4577C12.6975 47.3302 13.7793 46.8911 14.6619 47.8826Z" fill="#C9071F"/>
<path d="M27.0463 58.0957C26.4769 58.0249 25.8932 58.2232 25.3381 57.9683C26.1352 57.9683 26.9466 57.9683 27.7438 57.9683C27.5445 58.1666 27.2883 58.0532 27.0463 58.0957Z" fill="#D20522"/>
<path d="M41.8647 63.4782C41.9929 63.1666 42.3345 63.0816 42.5765 62.8975C42.5765 62.9683 42.5765 63.0391 42.5765 63.0958C42.3345 63.2374 42.0925 63.3507 41.8647 63.4782Z" fill="#BA0616"/>
<path d="M22.4911 29.6101C22.4484 29.6101 22.4057 29.6101 22.363 29.6101C22.3345 29.3693 22.3488 29.1426 22.6335 29.0293C22.6619 29.2418 22.5908 29.4259 22.4911 29.6101Z" fill="#9C0707"/>
<path d="M4.11389 21.5362C4.93951 21.0121 5.79361 20.5304 6.67617 20.1197C7.11745 20.233 6.84699 20.5021 6.80428 20.7004C6.59076 21.522 6.86122 21.862 7.71531 21.7486C8.74023 21.6211 9.69396 21.2245 10.605 20.7854C14.5623 18.8873 18.363 16.7059 21.879 14.0712C22.2776 13.7738 22.605 13.4055 22.9182 13.0089C23.2883 12.5272 23.4591 12.0598 22.9466 11.564C22.847 11.4649 22.79 11.3232 22.9182 11.1957C23.6441 10.7141 24.4128 10.3175 25.1957 9.93506C25.1388 10.3742 25.5801 10.615 25.6228 11.0258C25.694 11.8757 25.4093 12.5697 24.8256 13.193C23.1886 14.9353 21.1388 16.1251 19.1459 17.3575C16.3701 19.0573 13.5658 20.7288 10.6192 22.1169C9.4662 22.6552 8.31318 23.1935 7.06051 23.4626C5.65126 23.7601 4.42706 23.5192 4.27048 21.8336C4.25624 21.7061 4.22777 21.607 4.11389 21.5362Z" fill="#E90537"/>
<path d="M22.9182 11.1958C23.7011 12.3432 23.5445 13.0656 22.2207 14.0713C19.815 15.8986 17.2385 17.485 14.605 18.944C13.0819 19.7939 11.5161 20.5872 9.90753 21.2812C9.25273 21.5645 8.58369 21.7629 7.88618 21.9045C7.43066 22.0037 6.97515 22.0178 6.61927 21.6495C6.2634 21.2812 6.53387 20.8988 6.67621 20.5447C6.73315 20.403 6.8755 20.2614 6.67621 20.1197C7.72959 19.4823 8.78298 18.8449 9.936 18.3916C10.1495 18.6749 9.89329 18.8165 9.73671 18.9724C9.50895 19.199 9.25273 19.4256 9.0392 19.6806C8.92532 19.8223 8.76874 19.9922 8.86838 20.1905C8.98226 20.4313 9.23849 20.3747 9.43778 20.3464C9.80789 20.2897 10.178 20.1905 10.5339 20.0489C13.2527 18.9724 15.7723 17.5559 18.178 15.9127C18.9182 15.4028 19.6584 14.8929 20.3417 14.3121C20.541 14.1421 20.7403 13.9721 20.8826 13.7597C21.1104 13.4339 21.1958 13.1647 20.6833 13.0514C20.484 13.0089 20.2563 12.9239 20.3275 12.6265C21.1815 12.074 22.0356 11.6066 22.9182 11.1958Z" fill="#EB053E"/>
<path d="M20.3559 12.6123C20.4555 12.8389 20.6406 12.8814 20.8683 12.9098C21.4092 12.9806 21.5089 13.2497 21.1815 13.703C20.6548 14.4396 19.8861 14.9212 19.1886 15.4595C17.6655 16.6352 15.9858 17.5842 14.2918 18.5049C12.8114 19.3123 11.3025 20.1056 9.62276 20.488C9.29536 20.5588 8.86831 20.7288 8.66902 20.318C8.4982 19.9639 8.79714 19.6806 9.02489 19.3973C9.32383 19.0432 9.80781 18.859 9.95016 18.3774C10.4769 17.8392 11.1601 17.5984 11.8149 17.2867C12.0427 17.5842 12.0569 17.5984 11.7295 17.8675C11.3167 18.2216 10.847 18.5191 10.4911 18.9157C10.3772 19.0574 10.1352 19.1848 10.2349 19.369C10.3487 19.5956 10.6192 19.4965 10.8185 19.454C11.5729 19.3265 12.2562 18.9724 12.9253 18.6324C14.9608 17.6125 16.9395 16.5077 18.7331 15.1053C18.9324 14.9495 19.1459 14.7795 19.331 14.6096C19.5302 14.4396 19.8292 14.2413 19.7295 13.9863C19.6014 13.6605 19.274 13.9438 19.0463 13.9438C18.7473 13.9438 18.3914 14.1988 18.2206 13.7313C18.9181 13.3489 19.6014 12.9239 20.3559 12.6123Z" fill="#EC0543"/>
<path d="M18.2206 13.7594C18.6192 14.0852 18.9893 13.7452 19.3594 13.7169C19.5872 13.7027 19.8149 13.5186 19.9858 13.8019C20.1566 14.071 19.9288 14.2551 19.7865 14.4251C19.0747 15.2042 18.1922 15.8133 17.3096 16.3799C15.516 17.5131 13.6655 18.6038 11.6726 19.4112C11.2598 19.5812 10.8327 19.7087 10.3772 19.6945C10.2064 19.6945 10.0214 19.7087 9.93594 19.5387C9.86477 19.3687 9.97865 19.2129 10.0925 19.0996C10.5623 18.5613 11.1032 18.108 11.6868 17.7114C11.8292 17.6122 12.0569 17.5272 11.8292 17.2864C13.9075 16.0399 16.0712 14.9067 18.2206 13.7594Z" fill="#EC0544"/>
<path d="M11.4875 19.1138C11.274 19.1138 11.1317 19.0855 11.0463 18.958C10.9324 18.7597 11.1032 18.6606 11.2028 18.5331C11.7722 17.8815 12.4982 17.4282 13.21 16.9891C14.7758 16.04 16.3416 15.091 18.0783 14.4536C18.1637 14.4252 18.2491 14.3686 18.3345 14.3403C18.5196 14.2978 18.7331 14.2411 18.8612 14.4111C19.0036 14.6094 18.8185 14.751 18.6904 14.8927C18.1068 15.5584 17.3238 15.9692 16.5979 16.4508C15.1744 17.3857 13.6797 18.1648 12.1424 18.873C11.9146 18.9864 11.6584 19.0572 11.4875 19.1138Z" fill="#ED0447"/>
</svg>
