<svg width="160" height="80" viewBox="0 0 160 80" fill="none" xmlns="http://www.w3.org/2000/svg">
<path d="M67.8994 63.6386C68.2118 64.1979 68.4982 64.6791 68.7585 65.1603C69.0709 65.7065 69.0579 65.7715 68.5372 66.0836C68.0165 66.3958 67.4828 66.6819 66.858 67.033L65.5433 64.9522L64.2416 67.033C63.5647 66.6429 62.9659 66.3047 62.3671 65.9666C62.0286 65.7715 62.1458 65.5114 62.289 65.2513L63.2392 63.5866H60.792V60.9205H63.2262L62.0547 58.7487C62.7576 58.2545 63.4996 57.8253 64.2676 57.4481L65.5433 59.542L66.832 57.4221L68.9668 58.6576C68.8496 59.49 68.1597 60.0362 67.9384 60.9205C68.5502 60.9205 69.11 60.9205 69.6567 60.9205C70.2945 60.9205 70.3596 60.9856 70.3596 61.6358C70.3726 62.091 70.3466 62.5462 70.3596 63.0014C70.3726 63.4175 70.1904 63.5866 69.7738 63.5736C69.3573 63.5606 68.9017 63.5606 68.4721 63.5736C68.3289 63.5736 68.1727 63.6126 67.8994 63.6386Z" fill="white"/>
<path d="M94.8578 57.4351L97.0837 58.7096L95.8731 60.8815H98.2552C98.4505 61.8048 98.4115 62.6242 98.2943 63.5475H95.8341C96.1595 64.1198 96.4068 64.5359 96.6411 64.9651C97.0967 65.7584 97.0967 65.7584 96.3287 66.2006C95.8601 66.4607 95.3915 66.7338 94.8448 67.046L93.543 64.9651L92.2544 67.046C91.4733 66.6038 90.7053 66.2787 90.0675 65.6804L91.226 63.5866H88.8048C88.7007 62.6762 88.7658 61.8699 88.7527 60.9465H91.239L90.0414 58.7226C90.7444 58.3194 91.3822 57.9293 92.0591 57.6041C92.1502 57.5521 92.4496 57.7342 92.5407 57.8772C92.8792 58.3714 93.1656 58.9047 93.543 59.5549L94.8578 57.4351Z" fill="white"/>
<path d="M79.5627 59.5679L80.8514 57.4351C81.5543 57.8512 82.1921 58.2024 82.8039 58.5925C82.9081 58.6576 82.9211 58.9957 82.856 59.1518C82.6738 59.5159 82.4785 59.8801 82.2572 60.2312C82.1531 60.4133 82.075 60.6083 81.9057 60.9335H84.3139V63.5345H82.0359L81.9448 63.7166C82.1921 64.1588 82.4394 64.601 82.6868 65.0431C83.0903 65.7714 83.0903 65.7714 82.3874 66.1876C81.9578 66.4347 81.5152 66.6818 81.0857 66.9159C80.9946 66.9419 80.8904 66.9679 80.7993 66.9809L79.5627 64.9521L78.261 67.072L76.048 65.7975L77.2326 63.5866H74.7984V60.9725H77.2456L76.035 58.7486L78.2479 57.4481C78.4822 57.8252 78.6905 58.1503 78.8858 58.4625C79.081 58.7746 79.2763 59.0997 79.5627 59.5679Z" fill="white"/>
<path d="M97.0577 46.7708C97.7346 46.1856 98.4895 45.8605 99.2576 45.4313L100.546 47.5121L101.848 45.4053L104.061 46.6798L102.863 48.8907H105.297V51.4787H103.033L102.928 51.6608L104.035 53.6376C103.384 54.2358 102.616 54.561 101.835 55.0031L100.559 52.9093L99.3096 54.9381C98.4765 54.652 97.7866 54.1968 97.0577 53.6766L98.2422 51.5177H95.795V48.8907H98.2422L97.0577 46.7708Z" fill="white"/>
<path d="M84.0666 51.5177H81.7886V48.9427C82.1791 48.9297 82.5566 48.9037 82.9341 48.9037C83.3116 48.9037 83.6891 48.9037 84.2358 48.9037L83.611 47.7592L83.0252 46.6928L85.2381 45.4053L86.5528 47.5251L87.8285 45.4183L90.0414 46.6798L88.8829 48.9037H91.278C91.4212 49.775 91.3301 50.5814 91.3561 51.5047H88.8699L90.0414 53.7676L87.8415 55.0422L86.5528 52.9223L85.2511 55.0292L83.0252 53.7546L84.1317 51.7128L84.0666 51.5177Z" fill="white"/>
<path d="M55.0515 70.7395L57.2513 69.465L58.5661 71.5718L59.8027 69.543C60.6358 69.7771 61.2606 70.3233 62.0807 70.7265L60.8831 72.9634H63.2783C63.4735 73.8607 63.3824 74.6801 63.3434 75.6035H60.8831L62.0807 77.8013L59.8418 79.0889L58.5791 76.969L57.2644 79.0889C56.5745 78.6857 55.9106 78.3216 55.2988 77.9054C55.2077 77.8404 55.2467 77.4632 55.3248 77.2811C55.5721 76.7609 55.8846 76.2667 56.262 75.6295H53.8148C53.6716 74.7191 53.7497 73.9128 53.7497 73.0154H56.236L55.0515 70.7395Z" fill="white"/>
<path d="M77.2977 75.5644H74.9546C75.1629 76.3968 75.7487 76.943 75.996 77.7233C75.3972 78.3215 74.6162 78.5947 73.8221 79.0758L72.5595 76.969L71.2448 79.0758L69.0188 77.7753L70.2294 75.6034H67.8473C67.626 74.6931 67.7431 73.8738 67.7562 72.9634H70.2294L69.0318 70.7395L71.2578 69.439L72.5334 71.5718L73.8482 69.439L76.0741 70.7395L74.8635 72.9114H77.2847V75.5644H77.2977Z" fill="white"/>
<path d="M104.23 16.1173C103.397 15.9093 102.538 15.7792 101.64 15.6101C101.757 12.0987 100.507 9.17252 97.5784 7.11769C94.6235 5.04985 91.4213 4.89379 88.1279 6.22033C85.0038 2.08465 80.9295 0.198887 75.8398 1.31734C70.711 2.4488 67.8212 5.9082 66.7408 10.9542C61.5991 8.45723 56.0017 12.9701 57.5898 18.6534C56.7046 18.7184 55.8585 18.7314 55.0254 18.8484C48.3867 19.7718 43.7786 26.4435 45.2496 32.9852C46.5122 38.5774 51.2114 42.375 56.9519 42.375C71.5051 42.388 86.0582 42.388 100.624 42.362C101.692 42.362 102.746 42.2449 103.788 42.0108C109.684 40.7233 114.058 35.4172 114.175 29.4477C114.279 23.1402 110.218 17.665 104.23 16.1173ZM57.759 35.1571C57.5117 35.2221 57.2513 35.2611 56.991 35.2871C55.3118 35.2611 54.1272 34.1947 54.1663 32.6991C54.1793 32.0748 54.3615 31.8927 54.9864 31.8797C55.0905 31.8797 55.2077 31.8797 55.3118 31.8797C55.9496 31.8927 56.0147 31.9708 56.21 32.582C56.2881 32.8031 56.4573 33.1022 56.6395 33.1542C56.8608 33.2193 57.2383 33.1282 57.3685 32.9592C57.4987 32.7901 57.4856 32.3999 57.3815 32.1919C57.2253 31.9057 56.9259 31.6846 56.6526 31.4766C56.1579 31.0864 55.6242 30.7613 55.1426 30.3581C55.0645 30.2931 54.9864 30.215 54.9083 30.137C53.8799 29.0576 53.919 27.3669 54.9864 26.3265C55.9887 25.3251 58.0584 25.4811 59.0217 26.6386C59.4642 27.1718 59.5814 27.7961 59.5293 28.4723C59.5033 28.8235 59.295 29.0186 58.9436 29.0446C58.7483 29.0576 58.553 29.0576 58.3578 29.0576C57.746 29.0316 57.6939 28.9665 57.5117 28.3813C57.4466 28.1732 57.3294 27.9131 57.1602 27.8091C56.8869 27.64 56.5224 27.705 56.3401 27.9651C56.3401 27.9651 56.3401 27.9651 56.3271 27.9781C56.1319 28.1992 56.1449 28.5374 56.3662 28.7324C56.6916 29.0446 57.0691 29.3047 57.4075 29.6038C58.0063 30.15 58.7093 30.6572 59.1649 31.3075C60.1021 32.621 59.295 34.7019 57.759 35.1571ZM65.5432 34.2597C65.5302 35.027 65.4001 35.1571 64.619 35.1701C63.7469 35.1831 63.7078 35.1571 63.3824 34.3377C63.0309 33.4274 62.6795 32.53 62.315 31.6326H62.1718C62.1718 32.517 62.1718 33.4013 62.1718 34.2857C62.1718 35.001 62.0026 35.1571 61.2866 35.1701C61.1565 35.1701 61.0263 35.1701 60.8961 35.1701C60.2973 35.1441 60.1281 34.975 60.1281 34.3767C60.1281 33.3363 60.1281 32.2959 60.1281 31.2555C60.1281 29.7469 60.1281 28.2252 60.1281 26.7166C60.1281 26.0534 60.2453 25.8583 60.6879 25.7672C61.4949 25.6112 61.9505 25.7542 62.1718 26.3135C62.5363 27.1978 62.8617 28.0822 63.2132 28.9665C63.2652 29.1226 63.3694 29.2527 63.4996 29.3437C63.4996 28.4984 63.4996 27.64 63.4996 26.7947C63.4996 26.4305 63.4084 25.9493 63.851 25.8453C64.3066 25.7542 64.7752 25.7672 65.2308 25.8843C65.387 25.9233 65.5172 26.3915 65.5172 26.6646C65.5432 27.9651 65.5302 29.2657 65.5302 30.5662C65.5432 31.7887 65.5563 33.0242 65.5432 34.2597ZM71.6092 32.543C71.5702 34.5198 70.0211 35.6773 68.1206 35.1961C67.0532 34.91 66.2982 33.9736 66.2592 32.8681C66.2071 31.2685 66.1941 29.6688 66.2592 28.0692C66.3243 26.5996 67.4437 25.6502 68.9537 25.6502C70.4247 25.6632 71.479 26.5996 71.5962 28.0562C71.6613 28.8495 71.6092 29.6558 71.6092 30.4622H71.6222C71.6092 31.1514 71.6222 31.8537 71.6092 32.543ZM80.9946 32.3219C80.9685 34.6498 79.0941 35.8203 76.9592 34.8449L76.6729 34.7019L76.6208 34.8319C75.996 34.949 75.3581 35.1441 74.7333 35.1441C73.3275 35.1441 72.2861 34.1166 72.2601 32.66C72.221 30.6052 72.2471 28.5504 72.2471 26.4955C72.2471 25.9753 72.4423 25.8063 72.95 25.7672C73.0411 25.7672 73.1192 25.7672 73.2103 25.7672C74.1215 25.7542 74.2777 25.9103 74.2777 26.8077C74.2777 28.6024 74.2777 30.3971 74.2777 32.2049C74.2777 32.4259 74.2517 32.6991 74.3688 32.8291C74.5381 33.0112 74.7724 33.1152 75.0197 33.1282C75.3191 33.1542 75.5534 32.9201 75.5794 32.608C75.6055 32.3089 75.6055 31.9968 75.6055 31.6977C75.6055 30.046 75.6055 28.4073 75.6055 26.7556C75.6055 26.4175 75.5274 25.9493 75.9439 25.8583C76.4255 25.7803 76.9202 25.7933 77.3888 25.9233C77.519 25.9493 77.6101 26.4045 77.6101 26.6646C77.6361 28.4593 77.6231 30.2541 77.6231 32.0618C77.6101 32.2309 77.6231 32.4129 77.6361 32.582C77.6882 32.8551 77.8965 33.0762 78.1698 33.1282C78.5343 33.1933 78.8858 32.9592 78.9509 32.595C78.9769 32.4259 78.9769 32.2439 78.9639 32.0748C78.9639 30.2931 78.9639 28.5244 78.9639 26.7426C78.9639 26.4045 78.8858 25.9493 79.3023 25.8583C79.7579 25.7672 80.2396 25.7803 80.6821 25.8973C80.8383 25.9363 80.9685 26.3655 80.9685 26.6126C80.9946 27.8741 80.9815 29.1226 80.9815 30.3841C80.9946 31.0214 81.0076 31.6716 80.9946 32.3219ZM86.8523 33.5834C86.5138 34.5198 85.8239 35.066 84.8216 35.1441C84.1577 35.1961 83.4808 35.1961 82.8039 35.1701C82.1531 35.1441 81.7756 34.7669 81.6975 34.1036C81.6714 33.7785 81.6584 33.4534 81.6714 33.1282C81.6714 31.2035 81.6714 29.2787 81.6714 27.3539C81.6714 26.1314 82.0359 25.7542 83.2595 25.7542C83.65 25.7542 84.0406 25.7542 84.4311 25.7542C85.9801 25.7803 86.9824 26.7556 87.0735 28.3033C87.1386 29.0056 86.9824 29.7208 86.618 30.3321C87.1777 31.3205 87.2558 32.517 86.8523 33.5834ZM93.0744 32.517C93.0354 34.5198 91.4733 35.6773 89.5208 35.1571C88.4534 34.8709 87.6984 33.9085 87.6723 32.621C87.6333 31.2035 87.6203 29.7729 87.6723 28.3423C87.7244 26.6906 88.7658 25.6762 90.3278 25.6632C91.9159 25.6372 93.0093 26.6516 93.0744 28.2382C93.1005 28.9926 93.0744 29.7469 93.0744 30.5142C93.0614 31.1774 93.0744 31.8537 93.0744 32.517ZM98.8931 33.5444C99.3747 34.3247 98.8931 35.2221 97.9559 35.2611C97.6044 35.2741 97.4091 35.053 97.2529 34.7669C96.8234 34.0386 96.3808 33.3233 95.9382 32.608L95.769 32.634C95.769 33.1412 95.769 33.6484 95.769 34.1687C95.769 35.053 95.6388 35.1701 94.7406 35.1701C94.6365 35.1701 94.5193 35.1831 94.4152 35.1701C93.9336 35.1441 93.7513 34.975 93.7383 34.4938C93.7253 33.8825 93.7383 33.2843 93.7383 32.673C93.7383 30.8783 93.7383 29.0836 93.7383 27.2889C93.7383 26.1574 94.1288 25.7672 95.2743 25.7672C95.795 25.7672 96.3157 25.7542 96.8364 25.7933C97.7736 25.8713 98.4765 26.3265 98.854 27.2108C99.2836 28.2122 99.3227 29.2657 98.815 30.2281C98.5677 30.6962 98.06 31.0214 97.6044 31.4896C97.9819 32.0878 98.4375 32.8161 98.8931 33.5444ZM105.258 34.2857C105.258 35.001 105.089 35.1571 104.373 35.1701C103.462 35.1831 103.423 35.1571 103.085 34.3117C102.733 33.4143 102.382 32.517 102.03 31.6066L101.9 31.6196C101.9 31.8147 101.9 32.0228 101.9 32.2179C101.9 32.9071 101.9 33.6094 101.887 34.2987C101.887 34.4678 101.861 34.6368 101.809 34.8059C101.653 35.1571 101.067 35.2871 100.39 35.1441C99.9995 35.066 99.8564 34.8189 99.8564 34.4418C99.8564 31.7757 99.8433 29.1096 99.8564 26.4435C99.8564 25.9363 100.065 25.7672 100.585 25.7282C101.562 25.6632 101.679 25.7412 102.03 26.6386C102.382 27.536 102.733 28.4333 103.098 29.3307L103.215 29.3047C103.215 28.4593 103.215 27.601 103.215 26.7296C103.215 26.3915 103.15 25.9103 103.527 25.8193C104.009 25.7152 104.503 25.7412 104.972 25.8583C105.128 25.8973 105.245 26.3655 105.245 26.6516C105.271 28.1212 105.258 29.6038 105.258 31.0734C105.258 32.1658 105.271 33.2323 105.258 34.2857Z" fill="white"/>
<path d="M83.7411 31.3724V33.0111C84.1447 33.2062 84.5222 33.2322 84.8606 32.9461C85.0559 32.79 85.121 31.9056 84.9517 31.6455C84.6393 31.1904 84.1837 31.3854 83.7411 31.3724Z" fill="white"/>
<path d="M84.9127 29.0186C85.0429 28.7064 85.0298 28.3553 84.8736 28.0562C84.6263 27.653 84.1707 27.7831 83.7411 27.9131V29.3177C84.1837 29.2657 84.6784 29.4998 84.9127 29.0186Z" fill="white"/>
<path d="M95.808 27.8741V29.4867C96.3027 29.4867 96.8234 29.6168 96.9926 29.1096C97.0967 28.7454 97.0707 28.3553 96.9015 28.0171C96.6932 27.64 96.2376 27.783 95.808 27.8741Z" fill="white"/>
<path d="M91.0177 28.4593C91.0047 27.9651 90.7704 27.705 90.3408 27.705C89.9503 27.705 89.703 27.9521 89.703 28.4463C89.69 29.7858 89.69 31.1253 89.703 32.4649C89.703 32.9851 89.9503 33.2192 90.3929 33.2062C90.7965 33.1932 91.0177 32.9591 91.0177 32.4779C91.0308 31.8146 91.0177 31.1383 91.0177 30.4751C91.0177 29.7988 91.0177 29.1355 91.0177 28.4593Z" fill="white"/>
<path d="M69.5785 28.4593C69.5655 27.9782 69.3442 27.731 68.9537 27.718C68.5241 27.692 68.2638 27.9391 68.2508 28.4593C68.2378 29.7989 68.2378 31.1384 68.2508 32.478C68.2508 32.9982 68.5241 33.2453 68.9537 33.2193C69.3572 33.2063 69.5785 32.9722 69.5785 32.478C69.5916 31.8147 69.5785 31.1384 69.5785 30.4752C69.5785 29.7989 69.5916 29.1226 69.5785 28.4593Z" fill="white"/>
</svg>
