<svg width="162" height="80" viewBox="0 0 162 80" fill="none" xmlns="http://www.w3.org/2000/svg">
<path d="M22.838 54.3586C21.2366 52.9028 20.5087 50.8646 20.3631 48.5352V47.6616L21.5278 47.8072C22.838 48.0984 26.3321 48.6808 28.6615 46.7881C29.9718 45.769 30.6997 44.022 30.8453 41.8382C31.5733 33.9765 21.9645 26.9883 17.7425 23.931L17.5969 23.7854L17.4513 23.931C13.2293 26.9883 3.47498 33.9765 4.05733 41.8382C4.20292 44.1676 4.93085 45.769 6.24113 46.7881C8.57052 48.5352 12.0646 47.9528 13.3749 47.8072L14.5396 47.6616V48.5352C14.5396 51.0101 13.6661 52.9028 12.0646 54.3586C9.15287 57.1248 4.63968 56.9792 3.91174 56.9792V58.5807C4.05733 58.5807 4.05733 58.5807 4.20292 58.5807C5.94996 58.5807 10.172 58.2895 13.0837 55.5233C14.9763 53.7763 15.9955 51.4469 15.9955 48.5352V45.769L13.2293 46.2058C12.647 46.3514 11.6278 46.497 10.6087 46.497C9.15287 46.497 7.98818 46.2058 7.26024 45.6234C6.24113 44.8955 5.80437 43.5852 5.65879 41.6926C5.22203 34.9956 13.3749 28.7354 17.5969 25.678C21.8189 28.7354 29.9718 34.9956 29.535 41.6926C29.3895 43.5852 28.8071 44.8955 27.9336 45.6234C27.2056 46.2058 26.041 46.497 24.5851 46.497C23.566 46.497 22.5469 46.3514 21.9645 46.2058L18.9072 45.769V48.5352C18.9072 51.4469 19.9263 53.7763 21.8189 55.5233C24.8763 58.2895 29.0983 58.5807 30.6997 58.5807C30.8453 58.5807 30.9909 58.5807 30.9909 58.5807V56.9792C30.8453 56.9792 30.8453 56.9792 30.6997 56.9792C29.3895 56.9792 25.4586 56.8336 22.838 54.3586Z" fill="url(#paint0_radial)"/>
<path d="M19.6351 21.4559L17.5969 20L15.5587 21.4559C11.0455 24.8044 0.272078 32.3749 1.00001 41.9836C1.29119 45.1865 2.45588 47.6615 4.34851 49.1174C5.94997 50.4277 7.98818 51.01 10.6087 51.01C10.7543 51.01 10.7543 51.01 10.8999 51.01C10.7543 51.3012 10.4632 51.7379 10.172 52.0291C8.27936 53.7762 4.93086 53.9217 4.34851 53.9217H4.05734V55.5232C4.4941 55.5232 8.71612 55.6688 11.1911 53.3394C12.2102 52.3203 12.9381 51.01 13.0837 49.5541C11.1911 49.8453 7.8426 50.1365 5.36762 48.2439C3.76616 46.9336 2.74706 44.8954 2.60147 42.1292C1.87353 33.1028 12.0646 25.8235 16.4322 22.7662L17.5969 21.8926L18.7616 22.7662C23.1292 25.9691 33.3203 33.2484 32.5924 41.9836C32.4468 44.7498 31.4277 46.788 29.8262 48.0983C27.3512 49.9909 24.0027 49.6997 22.1101 49.4086C22.2557 51.01 22.9836 52.3203 24.0027 53.1938C26.6233 55.5232 30.8453 55.5232 31.1365 55.3776V53.7762C31.1365 53.7762 30.9909 53.7762 30.8453 53.7762C28.9527 53.7762 26.4777 53.3394 25.0219 51.8835C24.7307 51.5924 24.4395 51.3012 24.2939 50.8644C24.4395 50.8644 24.4395 50.8644 24.5851 50.8644C27.0601 50.8644 29.0983 50.2821 30.8453 48.9718C32.8835 47.3703 34.0482 45.0409 34.1938 41.838C34.7762 32.3749 24.1483 24.8044 19.6351 21.4559Z" fill="url(#paint1_radial)"/>
<path d="M52.101 31.356V36.1603H51.8098C51.8098 35.4324 51.6642 34.85 51.2275 34.1221C50.9363 33.5398 50.354 33.103 49.7716 32.6662C49.1893 32.3751 48.6069 32.0839 47.879 32.0839C47.4422 32.0839 47.151 32.2295 46.7143 32.3751C46.2775 32.5207 46.1319 32.8118 45.9863 33.103C45.6952 33.3942 45.6952 33.8309 45.6952 34.1221C45.6952 34.5589 45.8408 34.9956 46.1319 35.4324C46.4231 35.8692 46.8599 36.1603 47.2966 36.4515C47.7334 36.7427 48.3157 37.1794 49.0437 37.6162C50.354 38.3441 51.3731 39.0721 52.101 39.9456C52.8289 40.6735 53.1201 41.6926 53.1201 42.8573C53.1201 43.5853 52.8289 44.3132 52.3922 44.8955C51.9554 45.4779 51.3731 45.9146 50.6451 46.2058C49.9172 46.497 49.1893 46.6426 48.3157 46.6426C47.879 46.6426 47.5878 46.6426 47.2966 46.497C47.0055 46.497 46.7143 46.3514 46.1319 46.2058C45.6952 46.0602 45.404 45.9146 45.1128 45.9146H44.6761C44.2393 46.0602 44.0937 46.2058 43.9481 46.6426H43.657V41.547H43.9481C44.0937 42.7117 44.5305 43.5853 45.2584 44.4588C45.9863 45.3323 46.8599 45.6235 48.0246 45.6235C48.4613 45.6235 49.0437 45.4779 49.4804 45.3323C49.9172 45.1867 50.2084 44.8955 50.4995 44.6044C50.7907 44.3132 50.9363 43.8764 50.9363 43.4397C50.9363 42.8573 50.7907 42.275 50.354 41.8382C50.0628 41.4015 49.626 40.9647 49.1893 40.6735C48.7525 40.3823 48.1701 39.9456 47.4422 39.6544C46.7143 39.2176 45.9863 38.7809 45.5496 38.4897C45.1128 38.053 44.6761 37.6162 44.2393 37.1794C43.9481 36.5971 43.657 36.0147 43.657 35.2868C43.657 34.7045 43.8025 34.1221 43.9481 33.6853C44.2393 33.2486 44.5305 32.8118 44.9672 32.5207C45.404 32.2295 45.8408 31.9383 46.4231 31.7927C47.0055 31.6471 47.4422 31.5015 48.0246 31.5015C48.6069 31.5015 49.4804 31.6471 50.354 31.9383C50.6451 32.0839 50.9363 32.0839 51.2275 32.0839C51.3731 32.0839 51.5186 32.0839 51.6642 31.9383C51.8098 31.7927 51.9554 31.6471 51.9554 31.5015H52.101V31.356Z" fill="#BE9A60"/>
<path d="M57.6333 36.0144V38.0526C58.2157 37.3247 58.6524 36.8879 59.2348 36.5968C59.6715 36.3056 60.2539 36.16 60.9818 36.16C62.0009 36.16 62.8744 36.5968 63.6024 37.4703C64.3303 38.3438 64.6215 39.6541 64.6215 41.2555C64.6215 42.2746 64.4759 43.1482 64.0391 44.0217C63.6024 44.8952 63.02 45.4776 62.2921 46.0599C61.5642 46.4967 60.8362 46.7878 59.9627 46.7878C59.0892 46.7878 58.3612 46.4967 57.6333 46.0599V48.3893C57.6333 48.9716 57.7789 49.2628 57.9245 49.6996C58.0701 49.9907 58.5068 50.1363 59.2348 50.1363H59.6715V50.4275H54.1392V50.1363H54.4304C55.1583 50.1363 55.4495 49.9907 55.7407 49.6996C55.8863 49.4084 56.0319 48.9716 56.0319 48.5349V38.9261C56.0319 38.4894 56.0319 38.0526 55.8863 37.7614C55.5951 37.4703 55.4495 37.4703 55.0127 37.4703C54.7216 37.4703 54.576 37.4703 54.2848 37.6159L54.1392 37.3247L57.6333 36.0144ZM57.6333 38.7806V43.7305C57.6333 44.4584 57.9245 45.0408 58.3612 45.332C58.798 45.6231 59.3804 45.9143 59.9627 45.9143C60.3995 45.9143 60.8362 45.7687 61.273 45.4776C61.7097 45.1864 62.0009 44.7496 62.2921 44.0217C62.5833 43.4393 62.7289 42.7114 62.7289 41.8379C62.7289 41.1099 62.5833 40.382 62.4377 39.9453C62.2921 39.3629 62.0009 38.9261 61.8553 38.635C61.7097 38.3438 61.273 38.0526 60.9818 37.907C60.545 37.4703 60.1083 37.4703 59.6715 37.4703C59.2348 37.4703 58.9436 37.6159 58.5068 37.7614C58.2157 38.0526 57.9245 38.3438 57.6333 38.7806Z" fill="#BE9A60"/>
<path d="M75.1037 44.7496L75.3949 45.0408C74.5214 46.0599 73.6479 46.6422 72.9199 46.6422C72.6288 46.6422 72.3376 46.4967 72.0464 46.2055C71.7552 45.9143 71.7552 45.4776 71.7552 44.8952C70.5905 46.0599 69.4258 46.6422 68.2612 46.6422C67.8244 46.6422 67.5332 46.4967 67.0965 46.3511C66.8053 46.0599 66.5141 45.7687 66.3685 45.4776C66.2229 45.0408 66.0773 44.7496 66.0773 44.3129C66.0773 43.5849 66.3685 43.0026 66.8053 42.4202C67.242 41.8379 67.97 41.5467 68.6979 41.1099C69.4258 40.8188 70.445 40.382 71.7552 39.9453V38.635C71.7552 38.0526 71.6097 37.4703 71.1729 37.1791C70.8817 36.8879 70.2994 36.5968 69.717 36.5968C69.2803 36.5968 68.8435 36.7423 68.5523 37.0335C68.2612 37.3247 68.1156 37.6159 68.1156 38.0526C68.1156 38.1982 68.1156 38.3438 68.1156 38.3438C68.1156 38.4894 68.1156 38.4894 68.1156 38.635C68.1156 38.9261 67.97 39.2173 67.8244 39.3629C67.6788 39.5085 67.3876 39.5085 67.242 39.5085C66.9509 39.5085 66.8053 39.3629 66.6597 39.2173C66.5141 39.0717 66.5141 38.7806 66.5141 38.4894C66.5141 38.0526 66.6597 37.6159 67.0965 37.1791C67.3876 36.7423 67.97 36.4512 68.5523 36.3056C69.1347 36.16 69.717 36.0144 70.2994 36.0144C72.4832 36.0144 73.6479 36.8879 73.6479 38.635V44.7496C73.6479 44.8952 73.6479 45.0408 73.7935 45.0408C73.939 45.1864 74.0846 45.1864 74.2302 45.1864C74.3758 45.332 74.667 45.0408 75.1037 44.7496ZM71.7552 44.3129V40.5276C70.8817 40.8188 70.1538 41.1099 69.717 41.2555C69.2803 41.4011 68.8435 41.8379 68.4067 42.1291C67.97 42.4202 67.8244 43.0026 67.8244 43.5849C67.8244 44.0217 67.97 44.4584 68.2612 44.8952C68.5523 45.332 68.9891 45.4776 69.5714 45.4776C69.717 45.4776 70.0082 45.332 70.445 45.1864C70.7361 45.0408 71.1729 44.7496 71.7552 44.3129Z" fill="#BE9A60"/>
<path d="M81.2184 32.6661L84.8581 31.2102V43.5851C84.8581 44.6042 85.1492 45.041 85.586 45.041C85.8772 45.041 86.1683 45.041 86.3139 44.8954L86.4595 45.1865L83.111 46.4968V45.041C82.5287 45.6233 82.0919 46.0601 81.5096 46.2057C80.9272 46.4968 80.3449 46.4968 79.9081 46.4968C79.1802 46.4968 78.5978 46.3512 78.0155 45.9145C77.4331 45.4777 76.9964 44.8954 76.5596 44.1674C76.2684 43.4395 75.9772 42.4204 75.9772 41.4013C75.9772 40.6734 76.1228 39.9454 76.414 39.2175C76.7052 38.4896 76.9964 37.9072 77.4331 37.4704C77.8699 37.0337 78.3066 36.5969 78.889 36.3057C79.4713 36.0146 80.0537 35.869 80.636 35.869C81.5096 35.869 82.2375 36.1602 82.9654 36.5969V34.1219C82.9654 33.2484 82.6743 32.8117 82.0919 32.8117C81.8007 32.8117 81.5096 32.8117 81.2184 32.9572V32.6661ZM83.111 44.1674V38.7807C83.111 38.1984 82.8198 37.616 82.3831 37.1793C81.9463 36.7425 81.364 36.5969 80.7816 36.5969C80.1993 36.5969 79.7625 36.7425 79.3257 37.1793C78.889 37.4704 78.5978 38.0528 78.3066 38.6351C78.0155 39.2175 77.8699 39.9454 77.8699 40.8189C77.8699 41.5469 78.0155 42.1292 78.1611 42.7116C78.3066 43.2939 78.7434 43.8763 79.1802 44.313C79.6169 44.7498 80.1993 44.8954 80.9272 44.8954C81.8007 45.041 82.5287 44.7498 83.111 44.1674Z" fill="#BE9A60"/>
<path d="M95.3403 40.091H88.7889C88.7889 40.9645 88.9345 41.838 89.2257 42.566C89.5168 43.2939 89.9536 43.8763 90.3904 44.313C90.8271 44.7498 91.4095 44.8954 92.1374 44.8954C92.5742 44.8954 93.0109 44.7498 93.4477 44.6042C93.8844 44.313 94.1756 44.0218 94.6124 43.7307C94.9036 43.2939 95.1947 42.8572 95.3403 42.4204L95.6315 42.566C95.3403 43.2939 95.0491 44.0218 94.6124 44.6042C94.1756 45.1865 93.7389 45.6233 93.1565 46.0601C92.5742 46.3512 91.9918 46.6424 91.2639 46.6424C90.5359 46.6424 89.9536 46.4968 89.5168 46.2057C88.9345 45.9145 88.6433 45.4777 88.2065 45.041C87.9154 44.4586 87.6242 43.8763 87.4786 43.2939C87.333 42.7116 87.1874 41.9836 87.1874 41.2557C87.1874 40.3822 87.333 39.5087 87.7698 38.7807C88.061 38.0528 88.6433 37.3249 89.2257 36.8881C89.808 36.4513 90.6815 36.1602 91.555 36.1602C92.4286 36.1602 93.1565 36.3057 93.5933 36.7425C94.1756 37.1793 94.6124 37.616 94.758 38.1984C95.1947 38.6351 95.3403 39.3631 95.3403 40.091ZM88.9345 39.3631H93.1565C93.1565 38.9263 93.0109 38.4895 92.8653 38.1984C92.7197 37.7616 92.4286 37.4704 92.1374 37.1793C91.8462 36.8881 91.4095 36.7425 90.9727 36.7425C90.2448 36.7425 89.808 37.0337 89.3712 37.4704C89.2257 38.0528 88.9345 38.6351 88.9345 39.3631Z" fill="#BE9A60"/>
<path d="M103.202 36.7424H105.677L105.531 37.616H103.784C104.221 38.1983 104.367 38.7807 104.367 39.363C104.367 40.2365 104.076 41.1101 103.493 41.6924C102.911 42.4203 102.037 42.7115 100.873 42.7115C100.29 42.7115 99.8535 42.7115 99.4167 42.5659C98.98 43.0027 98.6888 43.2939 98.6888 43.7306C98.6888 44.0218 99.4167 44.313 100.727 44.313H101.601C102.474 44.313 103.202 44.313 103.93 44.4585C104.512 44.6041 104.949 44.7497 105.386 45.1865C105.823 45.6232 105.968 46.06 105.968 46.7879C105.968 47.3703 105.823 47.807 105.531 48.2438C105.24 48.6806 104.803 49.1173 104.367 49.4085C103.93 49.6997 103.348 49.9909 102.765 50.1364C102.183 50.282 101.455 50.4276 100.873 50.4276C99.8535 50.4276 98.98 50.282 98.3976 50.1364C97.8153 49.8453 97.3785 49.5541 97.0874 49.2629C96.7962 48.9717 96.6506 48.6806 96.6506 48.2438C96.6506 48.0982 96.6506 47.807 96.7962 47.5159C96.9418 47.2247 97.0874 47.0791 97.2329 46.7879C97.3785 46.6424 97.6697 46.3512 97.9609 46.06C98.252 45.7688 98.3976 45.6232 98.5432 45.6232C98.2521 45.4777 97.9609 45.3321 97.8153 45.1865C97.6697 44.8953 97.5241 44.7497 97.5241 44.4585C97.5241 43.8762 98.1065 43.1483 99.1256 42.2747C98.5432 41.9836 98.1065 41.6924 97.8153 41.1101C97.5241 40.6733 97.3785 40.0909 97.3785 39.5086C97.3785 38.9262 97.5241 38.4895 97.6697 38.0527C97.9609 37.616 98.2521 37.3248 98.5432 37.0336C98.98 36.7424 99.2712 36.5969 99.7079 36.4513C100.145 36.3057 100.581 36.3057 100.873 36.3057C101.746 36.0145 102.474 36.3057 103.202 36.7424ZM98.98 45.6232C98.3976 46.2056 98.1065 46.7879 98.1065 47.3703C98.1065 47.807 98.3976 48.2438 98.98 48.3894C99.5623 48.6806 100.29 48.8262 101.164 48.8262C102.328 48.8262 103.056 48.6806 103.784 48.3894C104.367 48.0982 104.803 47.807 104.949 47.6615C105.095 47.3703 105.24 47.2247 105.24 46.9335C105.24 46.6424 105.095 46.3512 104.949 46.2056C104.803 46.06 104.512 45.9144 104.076 45.9144C103.639 45.9144 103.056 45.7688 102.183 45.7688C101.018 45.7688 99.9991 45.7688 98.98 45.6232ZM101.164 41.9836C102.183 41.9836 102.765 41.4012 102.765 40.0909C102.765 39.363 102.62 38.7807 102.474 38.3439C102.328 37.9071 102.037 37.4704 101.746 37.1792C101.455 36.888 101.018 36.7424 100.727 36.7424C100.29 36.7424 99.9991 36.888 99.7079 37.1792C99.4168 37.4704 99.2712 37.9071 99.2712 38.6351C99.2712 39.363 99.4167 40.2365 99.8535 40.9645C99.8535 41.6924 100.436 41.9836 101.164 41.9836Z" fill="#BE9A60"/>
<path d="M115.868 44.7496L116.159 45.0408C115.286 46.0599 114.412 46.6422 113.684 46.6422C113.393 46.6422 113.102 46.4967 112.811 46.2055C112.52 45.9143 112.52 45.4776 112.52 44.8952C111.355 46.0599 110.19 46.6422 109.025 46.6422C108.589 46.6422 108.298 46.4967 107.861 46.3511C107.57 46.0599 107.278 45.7687 107.133 45.4776C106.987 45.0408 106.842 44.7496 106.842 44.3129C106.842 43.5849 107.133 43.0026 107.57 42.4202C108.006 41.8379 108.734 41.5467 109.462 41.1099C110.19 40.8188 111.209 40.382 112.52 39.9453V38.635C112.52 38.0526 112.374 37.4703 111.937 37.1791C111.646 36.8879 111.064 36.5968 110.481 36.5968C110.045 36.5968 109.608 36.7423 109.317 37.0335C109.025 37.3247 108.88 37.6159 108.88 38.0526C108.88 38.1982 108.88 38.3438 108.88 38.3438C108.88 38.4894 108.88 38.4894 108.88 38.635C108.88 38.9261 108.734 39.2173 108.589 39.3629C108.443 39.5085 108.152 39.5085 108.006 39.5085C107.715 39.5085 107.57 39.3629 107.424 39.2173C107.278 39.0717 107.133 38.7806 107.133 38.4894C107.133 38.0526 107.278 37.6159 107.715 37.1791C108.006 36.7423 108.589 36.4512 109.171 36.3056C109.753 36.16 110.336 36.0144 110.918 36.0144C113.102 36.0144 114.267 36.8879 114.267 38.635V44.7496C114.267 44.8952 114.267 45.0408 114.412 45.0408C114.558 45.1864 114.703 45.1864 114.849 45.1864C115.286 45.332 115.577 45.0408 115.868 44.7496ZM112.52 44.3129V40.5276C111.646 40.8188 110.918 41.1099 110.481 41.2555C110.045 41.4011 109.608 41.8379 109.171 42.1291C108.734 42.4202 108.589 43.0026 108.589 43.5849C108.589 44.0217 108.734 44.4584 109.025 44.8952C109.317 45.332 109.753 45.4776 110.336 45.4776C110.481 45.4776 110.773 45.332 111.209 45.1864C111.5 45.0408 111.937 44.7496 112.52 44.3129Z" fill="#BE9A60"/>
<path d="M120.09 36.0144V38.0526C120.527 37.6159 120.964 37.1791 121.4 36.8879C121.837 36.5968 122.128 36.4512 122.419 36.3056C122.711 36.16 123.147 36.0144 123.439 36.0144C124.021 36.0144 124.603 36.16 125.04 36.5968C125.477 36.8879 125.768 37.4703 125.914 38.1982C126.641 37.4703 127.224 36.8879 127.806 36.5968C128.243 36.3056 128.825 36.16 129.262 36.16C130.136 36.16 130.718 36.3056 131.009 36.7423C131.446 37.1791 131.737 37.4703 131.737 38.0526C131.883 38.4894 131.883 38.9261 131.883 39.3629V44.604C131.883 45.1864 132.028 45.4776 132.174 45.7687C132.319 46.0599 132.756 46.2055 133.484 46.2055H133.775V46.4967H128.68V46.2055H128.825C129.408 46.2055 129.699 46.0599 129.844 45.7687C129.99 45.4776 130.136 45.0408 130.136 44.604V39.3629C130.136 38.635 129.99 38.1982 129.699 37.907C129.408 37.6159 128.971 37.4703 128.534 37.4703C128.097 37.4703 127.661 37.6159 127.224 37.907C126.787 38.1982 126.35 38.4894 125.914 38.9261V44.604C125.914 45.1864 126.059 45.4776 126.205 45.7687C126.35 46.0599 126.641 46.2055 127.224 46.2055H127.661V46.4967H122.856V46.2055H123.002C123.584 46.2055 123.875 46.0599 124.021 45.7687C124.167 45.4776 124.312 45.0408 124.312 44.604V39.3629C124.312 38.0526 123.73 37.4703 122.565 37.4703C122.128 37.4703 121.692 37.6159 121.255 37.907C120.818 38.1982 120.381 38.4894 119.944 38.9261V44.604C119.944 45.1864 120.09 45.6231 120.236 45.9143C120.381 46.2055 120.818 46.3511 121.4 46.3511H121.692V46.6422H116.45V46.3511H116.742C117.47 46.3511 117.761 46.2055 118.052 45.9143C118.197 45.6231 118.343 45.1864 118.343 44.7496V38.9261C118.343 38.4894 118.343 38.0526 118.197 37.7614C118.052 37.4703 117.761 37.4703 117.47 37.4703C117.178 37.4703 117.033 37.4703 116.742 37.6159L116.596 37.3247L120.09 36.0144Z" fill="#BE9A60"/>
<path d="M137.852 36.0146V44.4586C137.852 45.041 137.997 45.3321 138.143 45.6233C138.288 45.9145 138.725 46.0601 139.453 46.0601H139.744V46.3512H134.358V46.0601H134.649C135.377 46.0601 135.668 45.9145 135.959 45.6233C136.105 45.3321 136.25 44.8954 136.25 44.4586V38.9263C136.25 37.9072 135.959 37.4704 135.522 37.4704C135.231 37.4704 134.94 37.4704 134.794 37.616L134.649 37.3249L137.852 36.0146ZM135.813 32.6661C135.813 32.3749 135.959 32.0837 136.105 31.9381C136.396 31.647 136.541 31.647 136.833 31.647C137.124 31.647 137.415 31.7926 137.56 31.9381C137.852 32.2293 137.852 32.3749 137.852 32.6661C137.852 32.9573 137.706 33.2484 137.56 33.394C137.269 33.6852 137.124 33.6852 136.833 33.6852C136.541 33.6852 136.25 33.5396 136.105 33.394C135.813 33.2484 135.813 32.9573 135.813 32.6661Z" fill="#BE9A60"/>
<path d="M143.675 36.0144V38.3438C144.549 37.4703 145.131 36.7423 145.713 36.5968C146.296 36.3056 146.732 36.16 147.315 36.16C147.897 36.16 148.334 36.3056 148.625 36.5968C149.062 36.8879 149.353 37.1791 149.499 37.6159C149.644 38.0526 149.79 38.635 149.79 39.2173V44.604C149.79 44.8952 149.79 45.1864 149.935 45.4776C149.935 45.7687 150.081 45.9143 150.372 46.0599C150.663 46.2055 150.954 46.3511 151.391 46.3511H151.682V46.6422H146.587V46.3511H146.732C147.315 46.3511 147.606 46.2055 147.752 45.9143C147.897 45.6231 148.043 45.1864 148.043 44.7496V39.6541C148.043 38.7806 147.897 38.3438 147.606 38.0526C147.315 37.7614 146.878 37.7614 146.441 37.7614C145.568 37.7614 144.694 38.1982 143.821 39.2173V44.8952C143.821 45.4776 143.966 45.7687 144.112 46.0599C144.257 46.3511 144.694 46.4967 145.277 46.4967H145.568V46.7878H140.327V46.4967H140.618C141.346 46.4967 141.637 46.3511 141.928 46.0599C142.074 45.7687 142.219 45.332 142.219 44.8952V38.9261C142.219 37.907 141.928 37.4703 141.491 37.4703C141.2 37.4703 141.055 37.4703 140.763 37.6159L140.618 37.3247L143.675 36.0144Z" fill="#BE9A60"/>
<path d="M158.379 36.7424H160.854L160.709 37.616H158.962C159.399 38.1983 159.544 38.7807 159.544 39.363C159.544 40.2365 159.253 41.1101 158.671 41.6924C158.088 42.4203 157.215 42.7115 156.05 42.7115C155.468 42.7115 155.031 42.7115 154.594 42.5659C154.157 43.0027 153.866 43.2939 153.866 43.7306C153.866 44.0218 154.594 44.313 155.904 44.313H156.778C157.651 44.313 158.379 44.313 159.107 44.4585C159.69 44.6041 160.126 44.7497 160.563 45.1865C161 45.6232 161.146 46.06 161.146 46.7879C161.146 47.3703 161 47.807 160.709 48.2438C160.418 48.6806 159.981 49.1173 159.544 49.4085C159.107 49.6997 158.525 49.9909 157.943 50.1364C157.36 50.282 156.632 50.4276 156.05 50.4276C155.031 50.4276 154.157 50.282 153.575 50.1364C152.993 49.8453 152.556 49.5541 152.265 49.2629C151.974 48.9717 151.828 48.6806 151.828 48.2438C151.828 48.0982 151.828 47.807 151.974 47.5159C152.119 47.2247 152.265 47.0791 152.41 46.7879C152.556 46.6424 152.847 46.3512 153.138 46.06C153.429 45.7688 153.575 45.6232 153.721 45.6232C153.429 45.4777 153.138 45.3321 152.993 45.1865C152.847 44.8953 152.702 44.7497 152.702 44.4585C152.702 43.8762 153.284 43.1483 154.303 42.2747C153.721 41.9836 153.284 41.6924 152.993 41.1101C152.702 40.6733 152.556 40.0909 152.556 39.5086C152.556 38.9262 152.702 38.4895 152.847 38.0527C153.138 37.616 153.429 37.3248 153.721 37.0336C154.157 36.7424 154.449 36.5969 154.885 36.4513C155.322 36.3057 155.759 36.3057 156.05 36.3057C156.924 36.0145 157.651 36.3057 158.379 36.7424ZM154.157 45.6232C153.575 46.2056 153.284 46.7879 153.284 47.3703C153.284 47.807 153.575 48.2438 154.157 48.3894C154.74 48.6806 155.468 48.8262 156.341 48.8262C157.506 48.8262 158.234 48.6806 158.962 48.3894C159.544 48.0982 159.981 47.807 160.126 47.6615C160.272 47.3703 160.418 47.2247 160.418 46.9335C160.418 46.6424 160.272 46.3512 160.126 46.2056C159.981 46.06 159.69 45.9144 159.253 45.9144C158.816 45.9144 158.234 45.7688 157.36 45.7688C156.196 45.7688 155.177 45.7688 154.157 45.6232ZM156.341 41.9836C157.36 41.9836 157.943 41.4012 157.943 40.0909C157.943 39.363 157.797 38.7807 157.651 38.3439C157.506 37.9071 157.215 37.4704 156.924 37.1792C156.632 36.888 156.196 36.7424 155.904 36.7424C155.468 36.7424 155.177 36.888 154.885 37.1792C154.594 37.4704 154.449 37.9071 154.449 38.6351C154.449 39.363 154.594 40.2365 155.031 40.9645C155.031 41.6924 155.613 41.9836 156.341 41.9836Z" fill="#BE9A60"/>
<defs>
<radialGradient id="paint0_radial" cx="0" cy="0" r="1" gradientUnits="userSpaceOnUse" gradientTransform="translate(17.4547 42.0122) rotate(-90) scale(12.1104 12.8285)">
<stop stop-color="#F55C64"/>
<stop offset="1" stop-color="#9C0A0D"/>
</radialGradient>
<radialGradient id="paint1_radial" cx="0" cy="0" r="1" gradientUnits="userSpaceOnUse" gradientTransform="translate(17.4284 38.6029) rotate(-90) scale(13.4203 14.2162)">
<stop stop-color="#F55C64"/>
<stop offset="1" stop-color="#9C0A0D"/>
</radialGradient>
</defs>
</svg>
