<svg width="160" height="80" viewBox="0 0 160 80" fill="none" xmlns="http://www.w3.org/2000/svg">
<path d="M32.2162 50.2254C31.0958 50.2254 30.0541 50.0092 29.0909 49.5965C28.1278 49.1837 27.2629 48.4957 26.5553 47.6112L27.8526 46.5105C28.3636 47.1591 29.0123 47.7095 29.7592 48.1026C30.5258 48.4957 31.371 48.6923 32.2752 48.6923C32.8256 48.6923 33.317 48.594 33.7887 48.4171C34.2408 48.2402 34.6143 48.0043 34.9484 47.6898C35.2629 47.395 35.4988 47.0215 35.6757 46.5891C35.8526 46.1567 35.9312 45.7439 35.9312 45.2525C35.9312 44.82 35.8526 44.4466 35.6954 44.0928C35.5381 43.7586 35.3219 43.4834 35.0663 43.2475C34.8108 43.0117 34.4963 42.7758 34.1425 42.5989C33.7887 42.422 33.4152 42.2451 33.0024 42.0879L30.9779 41.3016C30.5062 41.1247 30.0541 40.9085 29.6019 40.6529C29.1695 40.3974 28.7961 40.1222 28.4423 39.7685C28.1081 39.4146 27.8526 39.0215 27.656 38.5301C27.4595 38.078 27.3612 37.5276 27.3612 36.879C27.3612 36.2696 27.4988 35.6603 27.7543 35.1296C28.0098 34.5989 28.3636 34.1468 28.8157 33.734C29.2678 33.3409 29.7789 33.0461 30.4078 32.8102C31.0172 32.5743 31.6855 32.4761 32.3931 32.4761C33.3956 32.4761 34.2604 32.6136 34.9484 32.9085C35.6167 33.2033 36.285 33.5965 36.8747 34.1468L35.7739 35.4048C35.3219 34.9723 34.8305 34.6382 34.2604 34.4023C33.7297 34.1665 33.0811 34.0486 32.3735 34.0486C31.9214 34.0486 31.4889 34.1272 31.0958 34.2451C30.7224 34.3827 30.3882 34.5793 30.0934 34.8348C29.7985 35.0903 29.5823 35.3852 29.4054 35.7389C29.2482 36.0731 29.1499 36.4466 29.1499 36.879C29.1499 37.2525 29.2285 37.5866 29.3661 37.8815C29.5037 38.1763 29.7003 38.4122 29.9165 38.648C30.1523 38.8642 30.4275 39.0608 30.742 39.2378C31.0565 39.4146 31.4103 39.5522 31.7641 39.7095L33.7297 40.4957C34.2408 40.6923 34.7125 40.9281 35.2039 41.1837C35.6757 41.4392 36.0884 41.7537 36.4816 42.1272C36.8747 42.5006 37.1302 42.933 37.3464 43.4441C37.5626 43.9355 37.6609 44.5448 37.6609 45.2328C37.6609 45.9208 37.5234 46.5891 37.2482 47.1788C36.973 47.7685 36.5798 48.3188 36.0688 48.7709C35.5774 49.223 35.0074 49.5572 34.3194 49.8127C33.6904 50.1075 32.9631 50.2254 32.2162 50.2254Z" fill="white"/>
<path d="M39.9803 32.7119H45.4447C46.0148 32.7119 46.5652 32.7513 47.0959 32.8495C47.6266 32.9478 48.0787 33.0854 48.4914 33.282C49.258 33.6947 49.9067 34.2844 50.4374 35.0707C50.9681 35.8569 51.2236 36.82 51.2236 37.9405C51.2236 38.5891 51.145 39.2181 50.9681 39.7685C50.7912 40.3188 50.5749 40.8102 50.2801 41.2623C49.9853 41.6947 49.6708 42.0682 49.2973 42.3827C48.9239 42.6775 48.5307 42.9134 48.0983 43.0707C47.7445 43.1886 47.3514 43.2672 46.8993 43.3262C46.4865 43.3655 45.9754 43.3852 45.3465 43.3852H41.7887V49.9109H40L39.9803 32.7119ZM45.3465 41.8716C45.7986 41.8716 46.172 41.8716 46.4668 41.852C46.742 41.8323 47.0369 41.7734 47.3514 41.6554C47.6266 41.5572 47.9018 41.3999 48.1376 41.1837C48.3735 40.9675 48.5897 40.6923 48.7862 40.3974C48.9828 40.0829 49.1204 39.7292 49.2383 39.336C49.3563 38.9429 49.3956 38.5105 49.3956 38.0387C49.3956 37.1935 49.2383 36.4859 48.9042 35.9552C48.57 35.4245 48.1769 35.0117 47.6659 34.7365C47.1155 34.422 46.3489 34.2648 45.4054 34.2648H41.7494V41.8913L45.3465 41.8716Z" fill="white"/>
<path d="M53.4644 48.3974H64.0784V49.9306H53.484L53.4644 48.3974ZM53.484 32.7119H64.0784V34.2451H53.484V32.7119ZM53.484 40.3188H63.6659V41.8716H53.484V40.3188Z" fill="white"/>
<path d="M73.0811 31.906L80.7665 49.9109H78.8011L73.0811 36.2303L67.3022 49.9109H65.3368L73.0811 31.906Z" fill="white"/>
<path d="M84.3438 49.911H82.5552V32.6924H88.6881C89.2384 32.6924 89.7887 32.7317 90.3 32.8103C90.8108 32.8889 91.2827 33.0462 91.7346 33.2624C92.5406 33.6751 93.2287 34.2649 93.7395 35.0904C94.2508 35.8963 94.506 36.8595 94.506 37.9405C94.506 38.7268 94.3881 39.4344 94.1325 40.0634C93.8773 40.6924 93.5822 41.2624 93.1892 41.7145C92.8157 42.1665 92.3833 42.5204 91.8725 42.7759C91.3811 43.0314 90.9092 43.1887 90.3979 43.228C91.1254 44.3484 91.8525 45.4491 92.56 46.5695C93.2676 47.6899 93.9757 48.771 94.6833 49.8914H92.5406C91.8525 48.7907 91.1449 47.7292 90.4768 46.6285C89.7887 45.5277 89.1006 44.4467 88.413 43.346V41.8128C88.9238 41.8128 89.3368 41.8128 89.6709 41.7931C89.9654 41.7735 90.3 41.7145 90.6536 41.5965C90.9487 41.4983 91.2238 41.341 91.479 41.1248C91.7346 40.8889 91.9314 40.6334 92.1276 40.3189C92.3049 40.0044 92.4422 39.6506 92.5406 39.2182C92.639 38.825 92.6979 38.4123 92.6979 37.9798C92.6979 37.174 92.5406 36.486 92.246 35.9356C91.9508 35.3852 91.5184 34.9724 90.9876 34.658C90.673 34.4811 90.3195 34.3631 89.946 34.3042C89.553 34.2255 89.1595 34.2059 88.7076 34.2059H84.3638L84.3438 49.911Z" fill="white"/>
<path d="M112.295 48.3972H122.909V49.9107H112.315L112.295 48.3972Z" fill="#BE0000"/>
<path d="M122.909 32.7119H112.315V34.2451H122.909V32.7119Z" fill="#BE0000"/>
<path d="M122.496 40.3188H112.315V41.8717H122.496V40.3188Z" fill="#BE0000"/>
<path d="M107.715 32.7119V40.3188H98.4568V32.7119H96.6881V49.9109H98.4568V41.8716H107.715V49.9109H109.504V32.7119H107.715Z" fill="#BE0000"/>
<path d="M131.99 31.906L139.676 49.9109H137.71L131.99 36.2303L126.231 49.9109H124.265L131.99 31.906Z" fill="#BE0000"/>
<path d="M141.464 32.7119H146.319C146.634 32.7119 147.008 32.7316 147.479 32.7512C147.931 32.7709 148.344 32.8299 148.776 32.9085C149.72 33.0854 150.604 33.3999 151.43 33.852C152.256 34.3041 152.983 34.8938 153.592 35.621C154.202 36.3286 154.693 37.1935 155.046 38.1173C155.401 39.0412 155.577 40.1222 155.577 41.2426C155.577 42.3041 155.42 43.3065 155.105 44.2107C154.791 45.1149 154.339 45.9404 153.769 46.6677C153.219 47.3949 152.531 48.024 151.744 48.5154C150.978 49.0068 150.113 49.3802 149.229 49.6161C148.816 49.734 148.403 49.8127 147.911 49.8323C147.459 49.8716 146.949 49.8716 146.378 49.8716H141.484L141.464 32.7119ZM146.28 48.3974C146.771 48.3974 147.224 48.3778 147.656 48.3581C148.069 48.3188 148.462 48.2598 148.835 48.1615C149.563 47.9846 150.231 47.6701 150.841 47.2574C151.45 46.8446 151.981 46.3335 152.393 45.7242C152.825 45.1345 153.159 44.4662 153.396 43.7389C153.631 43.0116 153.749 42.2058 153.749 41.3606C153.749 40.4367 153.631 39.5719 153.376 38.8053C153.121 38.0387 152.786 37.3507 152.334 36.761C151.882 36.1714 151.332 35.6603 150.683 35.2868C150.054 34.8938 149.327 34.6186 148.58 34.4416C148.246 34.363 147.872 34.3237 147.44 34.2844C147.027 34.2647 146.634 34.2451 146.28 34.2451H143.273V48.3974H146.28Z" fill="#BE0000"/>
<path d="M157.818 45.6455C156.619 45.6455 155.656 46.6087 155.656 47.8077C155.656 49.0067 156.619 49.9698 157.818 49.9698C159.017 49.9698 159.981 49.0067 159.981 47.8077C159.981 46.6087 159.017 45.6455 157.818 45.6455ZM157.818 49.5571C156.855 49.5571 156.069 48.7709 156.069 47.8077C156.069 46.8445 156.855 46.0583 157.818 46.0583C158.781 46.0583 159.568 46.8445 159.568 47.8077C159.568 48.7709 158.781 49.5571 157.818 49.5571Z" fill="#BE0000"/>
<path d="M158.703 48.9672L158.035 48.2203C158.388 48.1417 158.624 47.7878 158.624 47.4341C158.624 46.9427 158.211 46.6282 157.739 46.6282H156.933V48.9869H157.268V48.2596H157.7L158.329 48.9672H158.703ZM157.268 46.9033H157.681C158.093 46.9033 158.31 47.1392 158.31 47.4341C158.31 47.7289 158.073 47.9648 157.681 47.9648H157.268V46.9033Z" fill="#BE0000"/>
<path d="M11.0467 25.7929L20.9926 51.4441L16.4521 56.0042H5.6413L1.02211 51.4441L11.0467 25.7929ZM11.0467 23.3752L0 51.6799L5.28747 56.8888H16.8256L22.0148 51.6799L11.0467 23.3752Z" fill="#BE0000"/>
<path d="M10.3194 45.0951C8.82557 44.132 4.08845 46.3334 4.08845 46.3334L2.24078 51.0509L4.46192 53.2916C4.99263 52.7609 12.6585 46.6283 10.3194 45.0951Z" fill="#BE0000"/>
<path d="M11.4791 29.1541C11.4791 29.1541 10.2997 32.7511 9.21865 35.955C7.70513 40.3973 8.17692 41.6553 10.2015 41.0263C13.1105 40.1418 15.2138 38.6676 15.9017 41.9305C16.629 45.7044 13.1499 49.3211 10.1425 52.014C8.84519 53.1737 7.33167 54.2941 6.40784 54.9624H16.1179L19.9902 51.0116L11.4791 29.1541Z" fill="#BE0000"/>
</svg>
