<svg width="160" height="80" viewBox="0 0 160 80" fill="none" xmlns="http://www.w3.org/2000/svg">
<path d="M140.949 21.9217C140.883 22.1214 140.849 22.321 140.783 22.5207C140.284 23.7853 139.019 24.7503 137.422 24.6505C136.057 24.5507 134.793 23.519 134.46 22.1546C134.027 20.4575 134.992 18.6937 136.656 18.1613C138.32 17.6288 140.15 18.4608 140.783 20.0914C140.849 20.2911 140.916 20.524 140.982 20.7237C140.949 21.123 140.949 21.5224 140.949 21.9217ZM140.65 21.356C140.683 19.7254 139.352 18.361 137.721 18.3277C136.057 18.2944 134.66 19.6255 134.66 21.2894C134.66 22.92 135.957 24.2844 137.588 24.3177C139.252 24.351 140.616 23.0199 140.65 21.356Z" fill="white"/>
<path d="M111.598 65.3494C113.528 65.782 115.425 66.2146 117.289 66.6472C117.255 67.6788 115.325 70.9733 113.761 72.6705C110.799 75.8985 107.139 77.9284 102.813 78.5607C94.1936 79.8585 85.7078 75 82.6795 66.5141C81.0822 62.0216 81.2153 57.5623 83.0788 53.2029C84.9091 48.8435 88.004 45.6488 92.3634 43.6189C89.5015 41.722 87.7045 39.1264 87.172 35.7653C86.6728 32.371 87.6046 29.3759 89.801 26.7137C89.7011 26.6472 89.6346 26.5806 89.5347 26.5473C87.5381 25.5157 85.5414 24.4508 83.578 23.4192C83.3783 23.3194 83.2452 23.2861 83.0123 23.4192C80.6495 24.6505 78.3201 25.915 75.9574 27.1463C75.8908 27.1796 75.8575 27.2129 75.7577 27.2462C76.5896 30.9733 75.8908 34.3344 73.4282 37.2628C70.9657 40.1913 67.7044 41.3893 63.8775 41.2229C64.5763 44.7171 65.2751 48.178 65.974 51.6721C63.3783 52.2046 60.7826 52.7038 58.187 53.2362C57.4216 49.5091 56.6894 45.8152 55.9573 42.0881C55.4582 47.8785 52.9956 52.6372 48.2701 56.0648C44.7427 58.6605 40.716 59.8252 36.3234 59.559C27.6045 59.0266 20.7826 52.6372 19.3183 44.4176C18.4864 39.8585 19.2851 35.5656 21.7144 31.6056C24.1104 27.712 27.5713 25.0831 31.9972 23.6189C31.0322 20.4242 31.365 17.3626 33.0288 14.4674C34.1603 12.5373 35.7576 11.0731 37.7876 10.108C41.7477 8.14463 46.6395 8.71036 49.9673 11.6721C53.4615 14.7669 54.5264 18.6605 53.4948 23.2195C50.8991 22.5872 48.3367 21.955 45.741 21.3227C45.7743 21.123 45.8076 20.9566 45.8408 20.8235C46.0738 19.5257 45.6745 18.4275 44.6428 17.6288C43.6112 16.8302 42.4465 16.6971 41.2485 17.2628C40.0838 17.8285 39.4515 18.7936 39.4182 20.1247C39.3849 21.6887 40.4165 22.9533 41.9806 23.3526C43.4116 23.7187 44.776 24.2179 46.0738 24.9167C49.4349 26.7137 51.9973 29.3427 53.7943 32.7037C53.8608 32.8701 53.9607 33.0032 54.0272 33.1696C54.0272 33.2029 54.0605 33.2029 54.127 33.2362C53.2618 29.9749 53.6279 26.9134 55.3916 24.0848C56.7227 21.955 58.5863 20.4242 60.949 19.559C63.6445 18.5606 66.3733 18.5939 69.0688 19.6588C71.7311 20.7237 73.6945 22.6205 75.0588 25.2828C75.1254 24.95 75.192 24.717 75.2252 24.4508C75.558 22.4874 75.8908 20.4907 76.2569 18.5273C76.2901 18.2611 76.1903 18.0947 76.0239 17.9616C74.1271 16.1313 72.2302 14.2678 70.3334 12.4042C70.0006 12.1047 69.7011 11.7719 69.3683 11.4059C69.6678 11.3726 69.9008 11.306 70.167 11.2728C72.9956 10.8734 75.8242 10.4408 78.6529 10.0415C78.9191 10.0082 79.0189 9.87508 79.152 9.64214C80.4499 6.9799 81.781 4.31767 83.0788 1.65544C83.1454 1.52233 83.2119 1.42249 83.2785 1.2561C83.3451 1.38922 83.4116 1.48905 83.4782 1.58888C84.8093 4.28439 86.1404 6.94663 87.4382 9.64214C87.5714 9.90836 87.7377 10.0415 88.0372 10.0748C89.9674 10.341 91.8975 10.6405 93.8276 10.9067C94.8259 11.0398 95.8243 11.2062 96.8226 11.3393C96.9557 11.3726 97.0888 11.3726 97.2552 11.4059C96.989 11.6721 96.7561 11.905 96.4898 12.138C94.4932 14.1014 92.4965 16.0315 90.4665 17.9949C90.3001 18.1613 90.2336 18.2944 90.3001 18.5273C90.6662 20.6904 91.0322 22.8202 91.3983 24.9833C91.3983 25.0498 91.4316 25.0831 91.4649 25.1829C92.3634 24.5506 93.2619 24.0182 94.2602 23.6521C95.2918 23.2861 96.3234 23.0531 97.4216 22.9533C98.4865 22.8868 99.5514 22.9533 100.616 23.1863C101.448 22.0881 102.313 20.9566 103.179 19.8252C105.308 21.4225 107.372 23.0199 109.535 24.6505C108.803 25.6488 108.071 26.5806 107.305 27.5789C108.37 29.0432 109.002 30.6405 109.302 32.4708C111.299 27.4125 114.793 24.118 120.017 22.8535C123.944 21.9217 127.671 22.554 131.099 24.6505C138.021 28.8435 140.25 37.8285 136.157 44.7503C131.898 52.0049 122.28 54.4342 114.926 49.5091C115.192 49.9417 115.492 50.3743 115.758 50.8069C116.024 51.2728 116.29 51.7387 116.523 52.2046C116.756 52.6705 116.989 53.1697 117.155 53.6688C117.355 54.168 117.521 54.6672 117.721 55.2329C117.388 55.1996 117.122 55.1663 116.889 55.133C114.826 54.8668 112.763 54.6006 110.733 54.3344C110.4 54.3011 110.2 54.168 110.001 53.9018C108.47 51.539 106.307 50.0415 103.511 49.5424C101.415 49.143 99.385 49.4092 97.3883 50.1081C96.1903 50.5407 95.0589 51.1397 93.994 51.8718C93.8941 51.9384 93.8276 52.0049 93.7278 52.0382C93.6945 52.0382 93.6612 52.0382 93.5947 52.0715C92.4965 50.5407 91.3983 49.0099 90.2669 47.4458C90.0672 47.6122 89.8675 47.7454 89.7011 47.9117C87.5381 49.8086 86.0738 52.1048 85.2086 54.8335C83.345 60.7903 84.4432 66.1813 88.5697 70.9068C90.2336 72.8369 92.3301 74.1015 94.7927 74.7005C97.1221 75.2662 99.4183 75.1331 101.681 74.4342C106.041 73.0366 109.269 70.3078 111.232 66.1148C111.365 65.8485 111.465 65.6489 111.598 65.3494ZM33.0621 25.9816C32.929 26.0149 32.8625 26.0482 32.7626 26.0814C29.9007 27.1463 27.4714 28.8102 25.508 31.2062C23.3117 33.935 22.0804 37.0299 21.9473 40.5573C21.7809 44.2845 23.0455 47.5124 25.8408 50.0083C29.7676 53.5357 34.4265 54.7337 39.5846 53.7021C42.0139 53.2029 44.1104 52.0382 45.8408 50.2079C47.3384 48.6106 48.3034 46.747 48.9024 44.6838C49.335 43.2528 49.4681 41.7886 49.2352 40.2911C48.9024 38.1613 47.9706 36.3643 46.5064 34.8002C44.7094 32.8701 42.4798 31.7054 39.9507 31.0398C37.1553 30.341 34.959 28.7769 33.3616 26.3809C33.2618 26.2478 33.162 26.1147 33.0621 25.9816ZM130.234 37.2628C130.234 33.5024 127.172 30.4076 123.412 30.4076C119.685 30.4076 116.523 33.4026 116.523 37.2961C116.523 41.0565 119.618 44.1513 123.412 44.1513C127.172 44.1181 130.234 41.0232 130.234 37.2628ZM98.2536 37.3626C100.051 37.3626 101.482 35.8984 101.482 34.1014C101.482 32.3377 100.017 30.8734 98.2536 30.8734C96.4566 30.8734 94.9923 32.3377 94.9923 34.1347C95.0256 35.9317 96.4566 37.3626 98.2536 37.3626ZM68.137 30.0415C68.137 28.2445 66.6728 26.7803 64.9091 26.7803C63.1121 26.7803 61.6811 28.2112 61.6811 29.9084C61.6811 32.0049 63.1454 33.2362 64.9091 33.2695C66.6728 33.3027 68.137 31.8385 68.137 30.0415ZM111.099 45.6156C109.701 43.4525 108.869 41.0898 108.603 38.5274C107.838 40.158 106.806 41.5557 105.375 42.7537C107.472 43.4192 109.335 44.351 111.099 45.6156Z" fill="white"/>
<path d="M87.2719 59.5256C87.3051 58.3276 87.5048 57.1629 87.8708 55.9982C88.1704 55.9982 88.4699 55.9982 88.7694 55.9982C90.7993 56.0314 92.8293 56.0314 94.8259 56.0647C96.4233 56.098 98.0539 56.1646 99.6512 56.2644C101.415 56.3642 103.145 56.4973 104.909 56.6304C106.407 56.7636 107.937 56.8967 109.435 57.0631C110.999 57.2295 112.596 57.4291 114.16 57.6288C116.323 57.9283 118.487 58.2611 120.616 58.6271C123.911 59.1596 127.205 59.8584 130.467 60.5905C130.766 60.6571 131.066 60.7236 131.365 60.7902C133.262 61.3559 134.493 62.5539 134.959 64.484C135.092 65.0165 135.059 65.5489 134.893 66.0481C134.56 66.9799 133.828 67.4458 132.896 67.6454C131.798 67.8451 130.7 67.7453 129.668 67.3792C124.809 65.682 119.884 64.2844 114.893 63.1196C111.964 62.4541 109.002 61.8551 106.007 61.3892C103.844 61.0564 101.681 60.7569 99.4848 60.4574C97.8209 60.2577 96.1238 60.0914 94.4266 59.9582C92.1637 59.7918 89.9008 59.6587 87.6046 59.4924C87.5381 59.5589 87.4382 59.5589 87.2719 59.5256Z" fill="white"/>
<path d="M83.5447 50.9734C80.8825 50.7072 78.2868 50.4077 75.6246 50.1414C75.6911 49.5757 75.7244 49.0766 75.791 48.5441C75.9241 47.1464 76.0905 45.782 76.2236 44.3844C76.39 42.7537 76.5896 41.1231 76.756 39.4925C76.8891 38.1281 77.0555 36.797 77.1886 35.4326C77.355 33.7687 77.5547 32.1381 77.7211 30.4742C77.8209 29.6423 77.8875 28.8103 77.9873 27.9784C77.9873 27.812 78.0539 27.7121 78.187 27.6456C79.7843 26.8136 81.3817 25.9817 83.0123 25.1165C84.0439 25.6489 85.0755 26.2146 86.1404 26.7471C85.2752 34.8336 84.4099 42.8869 83.5447 50.9734Z" fill="white"/>
<path d="M19.2185 70.807C20.2501 70.3411 21.2817 69.8419 22.3466 69.376C28.2035 66.7804 34.2601 64.6839 40.4165 62.9201C46.0072 61.2895 51.6645 59.9917 57.3883 58.9268C60.4498 58.3611 63.5114 57.8952 66.6063 57.4958C69.5347 57.1298 72.4632 56.797 75.4249 56.5973C76.5231 56.5308 77.6545 56.4309 78.7527 56.3644C78.8525 56.3644 78.9856 56.3644 79.1188 56.3644C78.9856 57.396 78.8858 58.3943 78.7527 59.4592C78.6196 59.4592 78.4865 59.4925 78.3201 59.4925C75.1587 59.5258 72.0306 59.6589 68.8692 59.8918C66.6063 60.0582 64.3434 60.2579 62.0805 60.4908C59.0189 60.8236 55.9573 61.223 52.8958 61.7221C46.4066 62.7537 40.0172 64.1847 33.7277 65.9817C28.9357 67.3461 24.2435 68.9434 19.6178 70.807C19.4847 70.8403 19.3849 70.9068 19.2518 70.9401C19.2185 70.8403 19.2185 70.807 19.2185 70.807Z" fill="white"/>
<path d="M136.723 19.9249C137.122 19.9249 137.522 19.8917 137.921 19.9249C138.254 19.9582 138.487 20.1912 138.553 20.4907C138.653 20.89 138.52 21.2561 138.254 21.4557C138.154 21.5223 138.054 21.5556 137.921 21.6221C138.187 21.9216 138.353 22.3875 138.919 22.2544C139.019 22.4541 138.986 22.5539 138.753 22.6205C138.487 22.6537 138.287 22.6205 138.087 22.4208C137.921 22.2211 137.754 22.0215 137.588 21.8218C137.422 21.6221 137.422 21.6221 137.122 21.6554C137.122 21.9549 137.122 22.2544 137.122 22.5872C136.989 22.5872 136.889 22.6205 136.756 22.6205C136.723 21.722 136.723 20.8235 136.723 19.9249ZM137.122 21.2893C137.322 21.2893 137.522 21.2893 137.688 21.2893C137.987 21.2561 138.154 21.0897 138.154 20.8235C138.187 20.5239 138.021 20.291 137.721 20.2577C137.522 20.2244 137.322 20.2577 137.122 20.2577C137.122 20.5905 137.122 20.9233 137.122 21.2893Z" fill="white"/>
</svg>
