<svg width="160" height="80" viewBox="0 0 160 80" fill="none" xmlns="http://www.w3.org/2000/svg">
<path d="M1.96628 32.4774C2.07525 31.9028 2.37009 31.3799 2.80539 30.9894C3.23722 30.7024 3.73976 30.54 4.25784 30.52C5.16259 30.4479 6.07055 30.4241 6.97784 30.4489H20.4516C20.3436 31.5644 20.1444 32.6691 19.8561 33.752C19.7809 34.0499 19.6455 34.3292 19.4582 34.5728C19.271 34.8163 19.0358 35.0189 18.7672 35.168C18.3974 35.3222 18.0062 35.4187 17.6072 35.4542C16.7994 35.5499 15.9857 35.5877 15.1725 35.5671H8.03117C7.6915 35.5531 7.35125 35.565 7.01339 35.6027C6.94323 35.6025 6.87397 35.6185 6.81095 35.6493C6.74792 35.6801 6.6928 35.725 6.64984 35.7805C6.5757 35.8765 6.52681 35.9896 6.50761 36.1094C6.48873 36.365 6.4531 36.6192 6.40095 36.8702H14.3867C15.3317 36.8395 16.2777 36.8653 17.2196 36.9476C17.7954 36.9463 18.3512 37.1585 18.7796 37.5431C19.0641 37.9574 19.1921 38.4587 19.1423 38.9591V39.1796C19.1423 39.6142 19.0356 40.5538 18.8507 42.0125L18.6721 43.3511C18.5382 44.4159 18.3394 45.4715 18.0765 46.512C17.9728 46.9128 17.8018 47.293 17.5707 47.6365C17.2234 47.9601 16.7964 48.1859 16.3334 48.2907C15.1466 48.4073 13.9541 48.455 12.7618 48.4338H4.80006C3.60808 48.4559 2.41584 48.4084 1.22939 48.2916C0.855747 48.186 0.518187 47.98 0.253391 47.696C0.0570182 47.3145 -0.02771 46.8853 0.0089465 46.4578C0.0622798 45.4116 0.171613 44.3689 0.336947 43.3334H12.2809C12.7156 43.3334 13.0072 43.2978 13.1147 43.2978C13.2381 43.2699 13.3513 43.2084 13.4418 43.12C13.5333 42.9907 13.5849 42.8374 13.5903 42.6791C13.6401 42.4534 13.6756 42.2249 13.6969 41.9947H4.80006C4.08524 41.9974 3.3706 41.9716 2.65784 41.9174C2.13191 41.8995 1.62371 41.7228 1.20006 41.4107C0.936528 41.0541 0.807452 40.6159 0.835613 40.1734V39.7387C0.906724 39.2685 1.05606 38.3227 1.27028 36.8702L1.45428 35.5671C1.56984 34.5289 1.7405 33.4978 1.96628 32.4782V32.4774ZM24.2605 53.9022C24.0504 54.3441 23.7384 54.7297 23.3503 55.0276C23.0406 55.2469 22.6992 55.4175 22.3378 55.5334C21.8614 55.6658 21.3731 55.7515 20.8801 55.7894C20.4472 55.8338 20.0125 55.8587 19.5769 55.8605H17.8623C18.2978 55.4969 18.5885 55.2649 18.7316 55.1343C18.9023 54.9858 19.0498 54.8134 19.1716 54.6222C19.2961 54.4916 19.3832 54.3289 19.4223 54.152C19.4783 53.9583 19.5165 53.7582 19.5352 53.5565L20.1841 48.4329L21.7841 36.8871L21.9627 35.5485C22.1476 34.2391 22.2552 33.4062 22.3263 32.9707C22.4227 32.3891 22.6352 31.8328 22.9512 31.3351C23.1936 31.0916 23.4821 30.8987 23.7998 30.7677C24.1176 30.6368 24.4582 30.5704 24.8018 30.5725C25.767 30.4816 26.7366 30.446 27.7058 30.4658H35.8774C36.7133 30.4396 37.5501 30.4634 38.3832 30.5369C39.5076 30.608 40.1689 30.864 40.4187 31.3707C40.5618 31.7022 40.6232 32.064 40.5965 32.424C40.601 32.656 40.5885 32.8889 40.561 33.12C40.5116 33.9502 40.4023 34.7758 40.2338 35.5902C40.1272 36.4587 39.7636 39.0356 39.1449 43.3271C38.9672 44.7076 38.8178 45.6178 38.7103 46.1236C38.6384 46.7351 38.3713 47.3071 37.9485 47.7547C37.549 48.0942 37.0545 48.3022 36.5325 48.3502C35.6143 48.4391 34.6925 48.4756 33.7707 48.4569H25.3138L24.5876 52.7591C24.5281 53.1529 24.4187 53.5369 24.2605 53.9022ZM32.5032 43.3334H33.2649C33.3716 43.3067 33.4818 43.2942 33.5921 43.2969C33.6721 43.2436 33.7556 43.1956 33.8418 43.1547C33.9591 43.034 34.0361 42.88 34.0623 42.7138C34.1113 42.4939 34.1469 42.2713 34.1689 42.0471L35.0801 35.584H28.5752C28.3085 35.5707 28.0418 35.5831 27.7778 35.6196C27.5906 35.6105 27.4072 35.6742 27.2658 35.7974C27.1802 35.9174 27.1198 36.0534 27.0881 36.1974C27.0126 36.4354 26.9509 36.6776 26.9032 36.9227L25.9983 43.3502H32.5032V43.3325V43.3334ZM48.7263 30.448L46.9423 43.368C46.8336 44.299 46.6625 45.2217 46.4303 46.1298C46.3561 46.7311 46.108 47.2977 45.7165 47.76C45.2128 48.1381 44.6022 48.3466 43.9725 48.3556C43.5014 48.3911 42.5912 48.4267 41.2881 48.4267H39.5805C39.8721 48.1885 40.1494 47.9342 40.4134 47.6649C40.6246 47.4795 40.8235 47.2805 41.0089 47.0694C41.1352 46.9102 41.2205 46.7227 41.2578 46.5227C41.3512 46.2916 41.4018 46.0454 41.4072 45.7965L43.5849 30.4418L48.7272 30.448H48.7263ZM48.9112 29.1387H43.7512L43.8641 28.1565C44.0783 26.776 44.2276 25.872 44.3352 25.4365C44.4048 24.8748 44.6088 24.3382 44.9298 23.872C45.3284 23.4607 45.8595 23.2035 46.4294 23.1458C47.532 23.0536 48.6387 23.018 49.745 23.0391L48.9112 29.1387ZM51.3396 32.8756C51.4116 32.3165 51.6152 31.7822 51.9352 31.3165C52.1131 31.1009 52.3342 30.9249 52.5842 30.7999C52.8341 30.6748 53.1075 30.6034 53.3867 30.5902C54.145 30.5037 54.9082 30.468 55.6712 30.4836H65.8783C66.5272 30.4836 67.0694 30.4836 67.4018 30.5191C67.9604 30.5021 68.5127 30.6402 68.9974 30.9182C69.2075 31.1148 69.3669 31.3592 69.4622 31.6307C69.5576 31.9021 69.586 32.1926 69.5449 32.4774C69.5449 32.9476 69.4321 34.0009 69.2169 35.6018L69.0445 36.9049L68.3307 42.0471L68.1521 43.3858C68.0383 44.3868 67.8674 45.3804 67.6401 46.3618C67.5469 46.8166 67.3624 47.2478 67.0978 47.6294C66.7333 47.9948 66.2632 48.2364 65.7538 48.32C64.597 48.4352 63.4344 48.4827 62.2721 48.4622L62.9983 43.3805L63.1761 42.0409L63.9032 36.9174L64.0872 35.6134H57.4401C57.1756 35.576 56.9072 35.576 56.6427 35.6134C56.513 35.6047 56.3844 35.6425 56.2801 35.72C56.1636 35.8445 56.0756 35.9929 56.0241 36.1556C56.0052 36.4116 55.9696 36.666 55.9174 36.9174L55.1912 42.0471L55.0063 43.3858C54.8285 44.6951 54.6845 45.5636 54.5716 46.0409C54.4813 46.6442 54.2445 47.2162 53.8818 47.7067C53.4248 48.1257 52.8347 48.3703 52.2152 48.3974C51.7032 48.4329 50.7627 48.4685 49.3467 48.4685H47.6738C48.145 48.0702 48.4356 47.8196 48.5849 47.6711C48.8027 47.4934 49.0018 47.2934 49.1805 47.0756C49.3816 46.7187 49.4938 46.3187 49.5076 45.9094L49.8703 43.368L50.0365 42.0471L50.7627 36.9227L50.9414 35.6196C51.1263 34.2214 51.2685 33.3165 51.3405 32.8765L51.3396 32.8756ZM72.2525 32.6978C72.3454 32.1015 72.6101 31.5451 73.0143 31.0969C73.403 30.7705 73.8878 30.58 74.3947 30.5547C75.1172 30.4672 75.845 30.4316 76.5725 30.448C76.7876 30.448 77.1681 30.448 77.6978 30.4836H85.7085C86.2152 30.448 86.5778 30.448 86.7974 30.448C87.5263 30.4311 88.2534 30.4676 88.9761 30.5547C89.4009 30.5787 89.8009 30.7591 90.1005 31.0614C90.3849 31.4756 90.5138 31.9769 90.4641 32.4774C90.4089 33.512 90.2997 34.543 90.1369 35.5662L89.9583 36.9049L89.2081 42.0471L89.0232 43.3502C88.8454 44.6951 88.6961 45.6 88.5894 46.0765C88.5149 46.6354 88.311 47.1693 87.9938 47.6356C87.6314 48.0009 87.1629 48.2426 86.6552 48.3262C85.4961 48.4418 84.3316 48.4889 83.1672 48.4685L83.8934 43.3502L84.0721 42.0471L84.7983 36.9227L84.9823 35.584C84.6547 35.5696 84.3266 35.5815 84.0009 35.6196C83.8502 35.6261 83.7076 35.6897 83.6018 35.7974C83.5121 35.944 83.4507 36.1049 83.4241 36.2747C83.407 36.4941 83.3689 36.7114 83.3103 36.9236L82.5601 42.0471L82.3823 43.3502C82.2637 44.3643 82.0928 45.3716 81.8703 46.368C81.7704 46.8795 81.5339 47.3544 81.1858 47.7422C80.8705 48.0107 80.4947 48.1986 80.0907 48.2898C78.9071 48.4438 77.7131 48.5036 76.5201 48.4685L77.2454 43.3502L77.4241 42.0471L78.1503 36.9227L78.3352 35.584C78.0668 35.571 77.7978 35.5829 77.5316 35.6196C77.4534 35.6135 77.3747 35.6229 77.3001 35.6473C77.2255 35.6717 77.1565 35.7106 77.0969 35.7618C77.0125 35.9101 76.9525 36.0709 76.9192 36.2382C76.8996 36.4694 76.8614 36.6987 76.8054 36.9227L76.0614 42.0471L75.8836 43.3502C75.7554 44.4276 75.5564 45.4954 75.2881 46.5467C75.2029 47.08 74.9178 47.5609 74.4907 47.8916C74.0374 48.1938 73.5112 48.3689 72.9663 48.3974C72.4907 48.4329 71.5858 48.4685 70.2054 48.4685H68.5387C69.0098 48.0702 69.3005 47.8196 69.4436 47.6711C69.6658 47.5138 69.8525 47.3111 69.9912 47.0756C70.0889 46.9127 70.1725 46.7417 70.241 46.5645C70.2765 46.4222 70.3121 46.2009 70.3538 45.9094L70.7174 43.3325L70.8952 42.0294L71.6214 36.9049L71.8063 35.5662C72.0196 34.1138 72.1814 33.168 72.2525 32.6978ZM109.318 30.5556C109.707 30.5778 110.083 30.7031 110.407 30.9182C110.612 31.1112 110.768 31.3498 110.863 31.6145C110.958 31.8792 110.99 32.1627 110.955 32.4418C110.959 32.6114 110.945 32.781 110.913 32.9476C110.862 33.8249 110.766 34.6987 110.628 35.5662L110.032 39.6311L109.515 43.3325C109.414 44.4607 109.215 45.5778 108.919 46.6711C108.812 47.136 108.557 47.5538 108.193 47.8622C107.833 48.0996 107.428 48.2595 107.003 48.3316C105.844 48.4471 104.679 48.4942 103.516 48.4738H95.6294C94.5028 48.4932 93.3761 48.4457 92.2552 48.3316C91.8415 48.2749 91.4585 48.0823 91.1663 47.784C90.9318 47.4053 90.8293 46.9596 90.8747 46.5165V46.2729C90.9103 45.7662 91.0169 44.7849 91.2018 43.3325L91.4161 41.9938C91.601 40.6845 91.7432 39.816 91.8205 39.3751C91.9021 38.7393 92.1529 38.137 92.5467 37.6311C92.9403 37.2815 93.4385 37.0721 93.9636 37.0356C94.8909 36.9427 95.8229 36.905 96.7547 36.9227H104.342C104.634 36.9227 104.854 36.8871 104.938 36.8871C105.061 36.8578 105.174 36.7964 105.265 36.7094C105.343 36.6185 105.381 36.5006 105.373 36.3814C105.426 36.1182 105.461 35.8516 105.479 35.584H97.4809C96.1769 35.584 95.2667 35.5485 94.8321 35.5129C94.3176 35.4703 93.8378 35.2366 93.4872 34.8578C93.2162 34.3411 93.0675 33.7691 93.0525 33.1858C93.0525 32.7502 93.0169 32.0249 93.0169 31.0791V30.4836H107.069C107.819 30.4548 108.571 30.4786 109.318 30.5547V30.5556ZM96.8676 42.0471C96.8174 42.0517 96.7687 42.0668 96.7246 42.0913C96.6805 42.1157 96.6421 42.1492 96.6116 42.1894C96.5183 42.3549 96.4691 42.5416 96.4685 42.7316C96.4495 42.9332 96.4118 43.1326 96.3556 43.3271H103.498C103.789 43.3271 104.004 43.2916 104.093 43.2916C104.182 43.2916 104.307 43.2196 104.342 43.1485C104.419 43.0404 104.471 42.916 104.492 42.7849C104.544 42.5218 104.581 42.2551 104.598 41.9876H97.4569C97.2586 41.9745 97.0594 41.9946 96.8676 42.0471ZM119.555 23.0027H121.262C121.699 22.9894 122.136 23.0252 122.565 23.1094C123.021 23.1236 123.456 23.296 123.797 23.5982C124.053 24.0087 124.168 24.491 124.125 24.9725C124.089 26.007 123.992 27.0384 123.833 28.0614L123.506 30.4418H131.493C131.374 31.4909 131.193 32.5322 130.951 33.56C130.838 34.1589 130.5 34.6916 130.005 35.048C129.617 35.2734 129.184 35.4097 128.737 35.4471C128.226 35.4889 127.208 35.5245 125.613 35.5245H122.786L122.607 36.8694L121.881 41.9938L121.697 43.2969H129.684C129.469 44.8205 129.321 45.8382 129.178 46.3502C129.076 46.8622 128.837 47.3371 128.487 47.7245C128.088 48.0641 127.593 48.272 127.071 48.32C126.058 48.4125 125.041 48.4489 124.024 48.4267H120.75C119.71 48.4485 118.669 48.4129 117.632 48.32C117.381 48.3051 117.135 48.2393 116.91 48.1267C116.685 48.0141 116.485 47.857 116.323 47.6649C116.165 47.3371 116.091 46.975 116.109 46.6116V46.016C116.18 45.5405 116.323 44.6356 116.543 43.2907L116.722 41.9876L117.447 36.8631L117.632 35.5245H112.49C112.704 34.1076 112.847 33.144 112.925 32.7271C113.021 32.0408 113.353 31.4095 113.865 30.9422C114.312 30.6948 114.807 30.5463 115.317 30.5067C116.078 30.4367 116.843 30.413 117.608 30.4356H118.37L119.096 25.2045C119.12 24.9754 119.132 24.7451 119.132 24.5147C119.15 24.3657 119.125 24.2147 119.061 24.0791C118.971 23.8904 118.833 23.7285 118.661 23.6098C118.437 23.3903 118.194 23.1911 117.935 23.0142L119.555 23.0027ZM139.123 30.448L137.308 43.368C137.209 44.2976 137.052 45.22 136.837 46.1298C136.757 46.7316 136.505 47.2975 136.111 47.76C135.607 48.138 134.997 48.3465 134.367 48.3556C133.892 48.3911 132.987 48.4267 131.677 48.4267H129.975C130.267 48.1885 130.545 47.9342 130.808 47.6649C131.02 47.4809 131.219 47.2818 131.404 47.0694C131.534 46.9119 131.622 46.7238 131.66 46.5227C131.749 46.2906 131.799 46.0451 131.808 45.7965L133.987 30.4418L139.123 30.448ZM139.301 29.1387H134.147L134.254 28.1565C134.475 26.776 134.617 25.872 134.731 25.4365C134.803 24.8755 135.007 24.3395 135.325 23.872C135.717 23.468 136.237 23.2115 136.796 23.1458C137.908 23.053 139.024 23.0174 140.141 23.0391L139.301 29.1387ZM154.84 30.4836H160C159.78 31.936 159.631 32.912 159.488 33.4231C159.407 33.9829 159.154 34.5032 158.762 34.9111C158.208 35.2964 157.55 35.5042 156.876 35.5067C156.405 35.5067 155.495 35.5422 154.114 35.5778H147.604C147.265 35.5255 146.92 35.5375 146.586 35.6134C146.528 35.6086 146.469 35.6156 146.414 35.634C146.359 35.6523 146.308 35.6816 146.264 35.72C146.159 35.8471 146.085 35.9956 146.044 36.1556C146.029 36.3999 145.993 36.6426 145.937 36.8809L145.027 43.3449H158.173C158.054 44.3703 157.883 45.3891 157.661 46.3974C157.577 46.9531 157.309 47.4644 156.9 47.8498C156.422 48.1571 155.871 48.3317 155.304 48.3556C154.829 48.3911 153.853 48.4267 152.358 48.4267H144.241C143.114 48.4461 141.988 48.3986 140.867 48.2845C140.443 48.2262 140.055 48.0143 139.777 47.6889C139.599 47.3179 139.511 46.9101 139.521 46.4987V46.2134C139.557 45.7067 139.664 44.7609 139.885 43.3449C140.027 42.4756 140.212 41.2027 140.426 39.464C140.64 37.7262 140.867 36.4471 140.973 35.5778C141.188 34.1262 141.336 33.1974 141.408 32.7094C141.502 32.1152 141.767 31.5611 142.17 31.1147C142.584 30.7845 143.092 30.593 143.621 30.5671C144.527 30.4774 145.438 30.4418 146.348 30.4605H154.84V30.4836ZM33.4018 52.0934H31.6161L31.3672 53.5094H32.8427L32.7414 54.0631H31.2889L31.0329 55.5334H33.0445L32.9432 56.0925H30.2409L31.0392 51.5698H33.4969L33.4018 52.0934ZM43.9592 56.1938H43.7512L42.0196 53.8134C41.7636 53.4676 41.4241 52.9796 41.1929 52.6222C41.1388 53.0107 41.0751 53.3978 41.0018 53.7831L40.5974 56.0925H39.8827L40.6916 51.5698H41.1681L42.7574 53.7414C42.9778 54.0454 43.2996 54.5094 43.5192 54.8489C43.561 54.4978 43.6258 54.0934 43.6863 53.7654L44.0845 51.5698H44.7752L43.9592 56.1938ZM55.1361 52.0934H53.6721L52.9761 56.0925H52.2738L52.9761 52.0925H51.5183L51.6072 51.5698H55.2249L55.1361 52.0934ZM64.4205 52.0934H62.6347L62.3858 53.5094H63.8614L63.7601 54.0631H62.2845L62.0285 55.5334H64.0401L63.9387 56.0925H61.2365L62.0578 51.5698H64.5156L64.4205 52.0934ZM73.729 56.0925L72.6516 54.0925H71.9494L71.5983 56.0925H70.9138L71.7112 51.5698H73.1396C73.294 51.5616 73.4484 51.5852 73.5933 51.6391C73.7383 51.693 73.8706 51.7761 73.9821 51.8831C74.0937 51.9902 74.1821 52.119 74.2419 52.2615C74.3017 52.4041 74.3316 52.5574 74.3298 52.712C74.3289 53.0137 74.2278 53.3066 74.0425 53.5447C73.8572 53.7827 73.5981 53.9526 73.3058 54.0276L74.4969 56.1227L73.729 56.0925ZM72.9432 52.0871H72.3058L72.0205 53.5449H72.6632C72.9028 53.553 73.1361 53.4676 73.3138 53.3067C73.4915 53.1457 73.5996 52.9219 73.6152 52.6827C73.6115 52.599 73.591 52.5169 73.555 52.4413C73.5189 52.3657 73.468 52.2981 73.4053 52.2425C73.3427 52.187 73.2694 52.1446 73.19 52.1179C73.1106 52.0912 73.0267 52.0807 72.9432 52.0871ZM84.7023 52.0934H83.2392L82.5307 56.0925H81.8401L82.5485 52.0925H81.0845L81.1796 51.5396H84.7974L84.7032 52.0934H84.7023ZM93.4454 56.0925L93.1538 54.9014H91.4098L90.6898 56.0925H89.9814L92.737 51.4738H92.9876L94.1183 56.0925H93.4454ZM92.7672 53.248C92.7253 53.0656 92.6953 52.8806 92.6774 52.6942C92.594 52.8858 92.4966 53.0709 92.3858 53.248L91.7432 54.3662H93.0409L92.7672 53.248ZM101.843 56.0925H101.182L101.95 51.5698H102.646L101.843 56.0925ZM113.282 56.1938H113.085L111.348 53.8134C111.092 53.4676 110.752 52.9796 110.52 52.6222C110.461 53.0454 110.401 53.4445 110.335 53.7831L109.925 56.0925H109.235L110.008 51.5698H110.491L112.074 53.7414C112.293 54.0454 112.615 54.5094 112.836 54.8489C112.877 54.4978 112.942 54.0934 112.996 53.7654L113.382 51.5751H114.073L113.282 56.1938ZM125.696 56.0925H125.065L125.244 54.0329C125.244 53.7298 125.309 53.3369 125.351 52.9974C125.149 53.3191 124.851 53.7654 124.649 54.0569L123.203 56.128H122.941L122.238 54.0569C122.123 53.7121 122.016 53.3648 121.917 53.0151C121.84 53.3662 121.733 53.7654 121.667 54.0329L121.125 56.0925H120.483L121.673 51.5396H122.077L122.881 53.8782C123.006 54.2356 123.155 54.6996 123.25 55.0694C123.453 54.7174 123.75 54.2774 124.012 53.8782L125.619 51.5405H126.071L125.696 56.0925ZM135.974 52.0934H134.189L133.939 53.5094H135.415L135.319 54.0631H133.837L133.581 55.5334H135.593L135.498 56.0925H132.79L133.612 51.5698H136.069L135.974 52.0934ZM146.532 56.1938H146.33L144.592 53.8134C144.336 53.4676 143.997 52.9796 143.765 52.6222C143.705 53.0454 143.64 53.4445 143.574 53.7831L143.17 56.0925H142.479L143.265 51.5698H143.741L145.33 53.7414C145.55 54.0454 145.871 54.5094 146.092 54.8489C146.14 54.4978 146.199 54.0934 146.258 53.7654L146.645 51.5751H147.335L146.532 56.1938ZM157.721 52.0934H156.257L155.549 56.0925H154.858L155.56 52.0925H154.091L154.18 51.5396H157.798L157.721 52.0934Z" fill="white"/>
</svg>
