<svg width="160" height="80" viewBox="0 0 160 80" fill="none" xmlns="http://www.w3.org/2000/svg">
<path d="M1.15559 26.0001H14.2538C14.9946 25.9961 15.7322 26.0968 16.445 26.2992L16.4564 26.3027C21.438 27.7547 25.0045 30.8964 27.2891 35.5541C27.4069 35.7939 27.663 36.1086 27.3989 36.3391C27.1346 36.5697 26.8787 36.2545 26.6443 36.1187C25.1913 35.2776 23.6629 34.655 21.9766 34.5199C17.7248 34.1792 13.4652 34.4479 9.21003 34.3664C8.69975 34.3568 8.52298 34.6076 8.4906 35.1062C8.4355 35.9554 8.93528 36.0265 9.57804 36.0265C13.9225 36.0156 18.2668 36.0138 22.6113 36.0212C23.1537 36.0102 23.696 36.0511 24.2306 36.1434C26.1685 36.4948 27.5686 38.1993 27.5405 40.1729C27.5434 44.6364 27.5434 49.1005 27.5405 53.5651C27.5405 54.7486 27.5311 54.7562 26.333 54.7572C22.4457 54.7596 18.5585 54.7596 14.6711 54.7572C8.76792 54.7541 2.54307 50.5405 0.3147 45.0377C0.221497 44.8077 -0.013347 44.53 0.199918 44.3215C0.469425 44.058 0.723785 44.3751 0.948297 44.5104C2.62158 45.5193 4.40988 46.1794 6.37288 46.1962C10.3443 46.2302 14.318 46.2192 18.2909 46.2281C18.8123 46.2295 19.1715 46.1 19.1805 45.4611C19.1901 44.7754 18.8022 44.6616 18.2484 44.6399C14.6482 44.4985 11.0468 44.5974 7.44635 44.5826C6.21884 44.5776 4.99252 44.6977 3.76367 44.5644C1.7435 44.3464 0.0304993 42.6339 0.0148889 40.5988C-0.019546 36.1104 0.0148889 31.6214 0.027056 27.1326C0.0278053 26.508 0.532405 26.0016 1.15559 26.0001Z" fill="url(#paint0_linear)"/>
<path d="M52.04 51.9989C52.04 48.089 52.04 44.179 52.04 40.2691C52.04 40.1379 52.0382 40.0068 52.0425 39.8758C52.0521 39.5846 52.048 39.2735 52.4658 39.2882C52.8375 39.3011 52.8412 39.5851 52.8448 39.854C52.8497 40.1991 52.8448 40.5443 52.8448 40.8567C52.9139 40.9167 53.0184 40.9091 53.0783 40.8399C53.0909 40.8254 53.1008 40.8088 53.1077 40.7909C54.4869 39.1267 56.4026 38.5971 58.5654 39.2822C60.2503 39.8162 61.4119 41.4339 61.5446 43.4998C61.6442 45.0427 61.3968 46.4908 60.3807 47.7459C58.8899 49.5884 54.7681 49.7191 53.273 47.6652C53.1623 47.5091 53.0036 47.3937 52.8212 47.3368V51.9989H52.04ZM56.882 39.8013C54.7578 39.7917 53.3063 41.0378 52.9596 43.1409C52.8744 43.7445 52.8697 44.3569 52.9454 44.9617C53.2617 48.1753 56.2635 48.9041 58.2548 48.2003C60.1601 47.5273 61.0575 45.5544 60.645 43.045C60.3077 40.9998 58.9269 39.8103 56.8808 39.8006L56.882 39.8013ZM41.9511 35.4471C43.1908 35.3891 44.4151 35.5175 45.5404 36.1263C46.5695 36.6588 47.2529 37.6845 47.3493 38.8412C47.3803 39.1033 47.4701 39.453 47.0576 39.5255C46.6117 39.6037 46.5876 39.2611 46.5376 38.9502C46.3005 37.4729 45.4127 36.6527 43.9828 36.3518C42.6202 36.0544 41.208 36.0709 39.8527 36.3998C39.1457 36.5726 38.4826 36.8653 38.0752 37.5157C37.2697 38.8009 37.7882 40.2898 39.2637 40.882C40.2253 41.2257 41.2183 41.4737 42.2285 41.6222C43.5374 41.829 44.815 42.2011 46.0307 42.7295C47.1744 43.263 47.6427 44.2303 47.6981 45.4115C47.7522 46.5723 47.2664 47.5581 46.2394 48.0821C43.5425 49.4577 40.7969 49.4494 38.1399 47.9836C36.9081 47.3042 36.4951 46.0721 36.499 44.6935C36.499 44.4432 36.5598 44.265 36.8486 44.2489C37.1533 44.2319 37.2783 44.3941 37.3054 44.6766C37.3195 44.9817 37.3551 45.2852 37.412 45.5852C37.6444 46.659 38.4445 47.5192 39.4969 47.8269C41.4277 48.4596 43.3765 48.5385 45.2897 47.7501C46.5523 47.2292 47.0624 46.218 46.8149 44.9079C46.6855 44.1817 46.1692 43.5851 45.4701 43.3542C44.3336 42.9009 43.1302 42.7026 41.9459 42.4338C40.9229 42.2327 39.9174 41.9511 38.9386 41.5916C37.1987 40.8932 36.4834 39.2749 37.1211 37.5408C37.4328 36.6934 38.0814 36.2132 38.8688 35.8897C39.8512 35.5182 40.903 35.3669 41.95 35.4464L41.9511 35.4471ZM99.3988 40.6121C100.473 39.3807 101.773 39.0073 103.259 39.2178C104.163 39.3087 104.973 39.8178 105.449 40.5941C105.611 40.8604 105.735 40.8963 105.901 40.6082C106.841 38.9816 109.678 38.8198 111.086 39.6253C112.051 40.1775 112.454 41.087 112.473 42.1435C112.513 44.2414 112.49 46.3404 112.488 48.4389C112.488 48.7226 112.502 49.0549 112.09 49.0569C111.678 49.059 111.69 48.7297 111.689 48.444C111.685 46.8921 111.687 45.34 111.686 43.7879C111.686 43.46 111.69 43.1319 111.684 42.8043C111.653 41.0189 110.903 40.0567 109.462 39.9513C107.526 39.8084 106.17 40.7419 105.964 42.4773C105.736 44.3904 105.916 46.3196 105.874 48.2415C105.871 48.3507 105.874 48.4603 105.879 48.5693C105.889 48.8247 105.884 49.0684 105.539 49.082C105.199 49.0953 105.075 48.8898 105.071 48.5873C105.064 47.8878 105.063 47.1884 105.062 46.4887C105.061 45.2429 105.068 43.9967 105.059 42.7506C105.047 41.1747 104.516 40.3659 103.306 40.0516C101.848 39.6731 100.485 40.2357 99.7934 41.496C99.4715 42.0954 99.3106 42.7683 99.3261 43.4487C99.3338 45.0882 99.3325 46.7277 99.3222 48.3671C99.3209 48.6529 99.4162 49.0491 98.9566 49.0707C98.4506 49.0937 98.524 48.6795 98.5233 48.3655C98.5188 45.6331 98.5188 42.9006 98.5253 40.168C98.5253 39.8639 98.4184 39.4334 98.9244 39.4318C99.431 39.4301 99.2907 39.8652 99.3306 40.1666C99.3473 40.2879 99.3679 40.4071 99.3988 40.6121ZM122.178 44.5283C120.898 44.5283 119.619 44.537 118.339 44.523C117.925 44.5184 117.775 44.6366 117.809 45.0933C117.968 47.173 119.247 48.3883 121.317 48.4734C123.082 48.5459 124.531 48.0742 125.395 46.3942C125.501 46.1471 125.788 46.033 126.034 46.1395C126.043 46.1432 126.052 46.1473 126.06 46.1514C126.41 46.3017 126.181 46.5622 126.096 46.7577C125.414 48.3179 124.137 49.0426 122.53 49.2304C121.818 49.3181 121.097 49.2927 120.393 49.1554C118.856 48.8468 117.773 47.9788 117.305 46.477C116.632 44.3157 116.708 42.2321 118.373 40.4923C119.709 39.0945 122.116 38.7554 124.075 39.6127C125.719 40.3326 126.619 41.9148 126.6 43.9692C126.596 44.4222 126.409 44.5322 126.016 44.5292C124.736 44.5198 123.457 44.5258 122.178 44.5258V44.5283ZM121.632 43.7306C122.652 43.7306 123.671 43.7306 124.69 43.7306C125.659 43.729 125.798 43.5422 125.533 42.6083C125.017 40.7934 123.452 39.8013 121.343 39.9488C119.556 40.0604 118.094 41.4139 117.842 43.1895C117.785 43.5997 117.908 43.7417 118.314 43.7352C119.421 43.7193 120.526 43.7297 121.632 43.7306ZM152.724 41.1109C152.724 40.6103 152.717 40.2055 152.726 39.8011C152.732 39.5239 152.683 39.1833 153.109 39.1822C153.51 39.1808 153.526 39.493 153.527 39.7866C153.531 40.9439 153.53 42.1012 153.53 43.2585C153.53 44.9611 153.534 46.6648 153.524 48.3681C153.523 48.6503 153.627 49.0537 153.159 49.0631C152.667 49.0728 152.736 48.6647 152.726 48.346C152.717 48.0273 152.724 47.7031 152.724 47.3658C152.435 47.3985 152.363 47.6081 152.238 47.7411C150.749 49.3302 148.398 49.7556 146.449 48.7886C145.433 48.3025 144.667 47.4148 144.331 46.3385C143.759 44.6244 143.786 42.9078 144.707 41.3362C146.239 38.7229 150.106 38.3647 152.177 40.5822C152.321 40.7364 152.48 40.876 152.724 41.1109H152.724ZM148.675 39.9428C147.496 39.8396 146.355 40.3849 145.692 41.3675C144.544 43.0116 144.492 44.7871 145.332 46.5792C145.789 47.5959 146.741 48.3016 147.844 48.4428C150.456 48.8715 152.569 47.2195 152.702 44.5515C152.838 41.8317 151.322 39.9025 148.675 39.9428ZM89.0406 49.261C86.0602 49.2626 84.1226 47.2901 84.0955 44.226C84.0685 41.2303 86.1265 39.1467 89.1114 39.1467C92.0327 39.1467 93.996 41.2002 93.9986 44.2582C94.0012 47.3053 92.0642 49.2596 89.0406 49.261ZM89.0947 39.94C86.6222 39.9334 84.9098 41.6472 84.9073 44.1316C84.9047 46.7405 86.5526 48.5309 88.9692 48.5452C91.481 48.5599 93.1849 46.8532 93.192 44.3141C93.201 41.6116 91.64 39.9469 89.0947 39.9403V39.94ZM132.03 40.7196C133.31 39.1953 134.95 38.9215 136.759 39.3076C138.501 39.6794 139.445 40.8696 139.455 42.6621C139.464 44.5204 139.457 46.3788 139.455 48.2371C139.457 48.4118 139.446 48.5863 139.421 48.7592C139.399 48.9562 139.22 49.0973 139.024 49.0743C139.014 49.0732 139.005 49.0716 138.996 49.0697C138.815 49.0701 138.67 48.9242 138.669 48.744C138.669 48.7392 138.669 48.7344 138.67 48.7295C138.658 48.5551 138.654 48.38 138.654 48.2054C138.654 46.5218 138.654 44.8383 138.654 43.1549C138.652 40.6892 136.788 39.3326 134.428 40.0756C132.805 40.5868 131.95 41.8419 131.928 43.7927C131.912 45.2137 131.925 46.6348 131.924 48.0558C131.924 48.2307 131.922 48.4058 131.92 48.5806C131.918 48.8461 131.849 49.0638 131.532 49.0757C131.215 49.0877 131.127 48.8804 131.12 48.6094C131.116 48.4345 131.114 48.2597 131.114 48.0848C131.114 45.5268 131.114 42.9688 131.114 40.4108C131.114 40.2578 131.114 40.1048 131.118 39.9506C131.123 39.6656 131.177 39.4125 131.54 39.4214C131.863 39.4297 131.906 39.661 131.924 39.9207C131.943 40.1764 131.889 40.4423 132.03 40.7198V40.7196ZM72.3617 40.5953C73.7766 38.6203 77.6943 38.7238 78.9702 40.1881C79.4652 40.7564 79.7993 41.367 79.8058 42.1207C79.8231 44.2177 79.8218 46.3148 79.8283 48.412C79.8283 48.6759 79.8656 48.9601 79.4717 48.9768C79.0693 48.9938 79.012 48.7297 79.012 48.4191C79.0101 46.5403 78.9528 44.6594 79.0249 42.7822C79.1002 40.8265 77.6087 39.7075 75.7709 39.8565C73.55 40.0364 72.3797 41.3585 72.3714 43.6052C72.3656 45.1562 72.374 46.7073 72.3649 48.2583C72.363 48.5454 72.4486 48.9384 71.9916 48.9575C71.4792 48.9789 71.5661 48.5572 71.5654 48.2484C71.5571 45.452 71.5584 42.6559 71.5551 39.8595C71.5551 39.5924 71.5107 39.3023 71.9105 39.3048C72.2446 39.3071 72.3604 39.5174 72.3637 39.8197C72.3637 40.0795 72.3617 40.3377 72.3617 40.5956V40.5953ZM158.196 42.3669C158.196 40.4868 158.196 38.6069 158.196 36.727C158.196 36.5303 158.199 36.3333 158.208 36.1368C158.186 35.9366 158.33 35.7569 158.531 35.7354C158.558 35.7324 158.587 35.7326 158.615 35.7363C158.808 35.7259 158.972 35.8741 158.983 36.0672C158.984 36.0812 158.983 36.0953 158.983 36.1093C158.997 36.2832 158.998 36.4585 158.998 36.6331C158.998 40.4587 158.998 44.2843 158.998 48.1099C158.998 48.1755 159.003 48.2415 158.997 48.3064C158.968 48.6154 159.084 49.0426 158.598 49.0596C158.078 49.0785 158.202 48.6326 158.2 48.3347C158.191 46.345 158.197 44.3557 158.197 42.3664L158.196 42.3669ZM67.0304 44.0417C67.0304 45.4182 67.0343 46.7948 67.0278 48.1711C67.0259 48.4663 67.0825 48.8439 66.6165 48.8326C66.1504 48.8213 66.2296 48.4364 66.229 48.1481C66.2232 45.373 66.2232 42.5982 66.229 39.8234C66.229 39.5275 66.1742 39.1505 66.6397 39.1617C67.1051 39.173 67.0246 39.5577 67.0265 39.8467C67.0349 41.2448 67.0304 42.6432 67.0304 44.0417Z" fill="white"/>
<defs>
<linearGradient id="paint0_linear" x1="27.5699" y1="43.9878" x2="0.0140175" y2="36.6207" gradientUnits="userSpaceOnUse">
<stop stop-color="#34BCD5"/>
<stop offset="1" stop-color="#A1509E"/>
</linearGradient>
</defs>
</svg>
