<svg width="160" height="80" viewBox="0 0 160 80" fill="none" xmlns="http://www.w3.org/2000/svg">
<g clip-path="url(#clip0)">
<path d="M2.8234 30.4776C2.8234 31.0681 3.29576 31.0788 4.24047 31.0788H9.07139C10.2201 31.0788 11.2399 31.2613 12.1095 31.637C13.0864 32.0557 13.5802 32.8716 13.5802 33.4943V35.1046C13.5802 35.8024 13.2904 36.5538 12.4101 37.0047C11.5298 37.4556 10.3274 37.5093 9.08212 37.5093H0.0214707L0 35.4696H9.5008C9.89801 35.4696 10.2415 35.4159 10.5314 35.2978C10.832 35.1797 10.9823 35.0187 10.9823 34.7932V33.7304C10.9823 33.505 10.8212 33.3332 10.4885 33.2259C10.1664 33.1185 9.77992 33.0541 9.3505 33.0541H4.71283C3.45679 33.0541 2.47987 33.1078 1.5781 32.7213C0.590445 32.3026 0.214707 31.5082 0.214707 30.8104V29.5222C0.214707 28.9425 0.407944 28.1373 0.783682 27.7616C1.15942 27.3858 1.46001 27.096 2.37252 26.8598C2.69458 26.7847 3.1562 26.8169 3.49973 26.7954C3.84326 26.7739 4.27268 26.7632 4.78797 26.7632H13.1186L13.1401 28.8029H4.16532C3.71444 28.8029 3.38164 28.8566 3.16693 28.9532C2.94149 29.0498 2.83414 29.2216 2.83414 29.4792V30.4776H2.8234Z" fill="white"/>
<path d="M18.132 33.7843L18.1106 37.5094H14.8148L14.7933 26.978H23.1562C24.8524 26.978 26.1513 27.1605 27.0639 27.5363C28.1481 27.9764 28.6849 28.6527 28.6849 29.5867V31.0467C28.6849 31.927 28.2018 32.6034 27.2356 33.0757C26.2694 33.5481 25.0027 33.7843 23.4246 33.7843H18.132ZM25.3569 29.6726C25.3569 29.3291 25.1959 29.1036 24.8846 28.9855C24.5625 28.8675 24.0902 28.8138 23.4568 28.8138H18.1106V31.9592H23.4246C23.9399 31.9592 24.3156 31.9378 24.541 31.8841C24.906 31.8089 25.153 31.6479 25.2925 31.401C25.3569 31.2936 25.3891 31.2078 25.3677 31.1541V29.6726H25.3569Z" fill="white"/>
<path d="M32.3778 37.5094V26.9888H35.2979L35.3193 37.5202H32.3778V37.5094Z" fill="white"/>
<path d="M57.3806 41.8465V22.6516H59.3559L59.3666 41.8465H57.3806Z" fill="white"/>
<path d="M51.0681 37.5095V30.4993C51.0681 30.349 51.0681 29.8766 50.7782 29.6619C50.5635 29.5009 50.1234 29.4258 49.8121 29.4258H43.5856C43.0917 29.4258 42.7482 29.4687 42.5657 29.5438C42.3832 29.619 42.2866 29.7908 42.2866 30.0591V37.5095H39.3022L39.3236 27.0854C39.9141 27.0854 42.2544 27.0854 43.5426 27.0854H49.8335C51.1218 27.0854 52.1416 27.2572 52.8931 27.6007C53.6446 27.9443 54.0203 28.481 54.0203 29.2003V37.5095H51.0681Z" fill="white"/>
<path d="M66.3339 34.3532L66.3124 37.5094H63.0166L62.9951 26.978H71.358C73.0542 26.978 74.3532 27.1605 75.2657 27.5363C76.3499 27.9764 76.8867 28.6527 76.8867 29.5867V31.6157C76.8867 32.496 76.4036 33.1723 75.4374 33.6447C74.4713 34.117 73.2045 34.3532 71.6264 34.3532H66.3339ZM73.5588 29.9732C73.5588 29.6297 73.3977 29.4042 73.0864 29.2861C72.7643 29.168 72.292 29.1144 71.6586 29.1144H66.3124V32.2598H71.6264C72.1417 32.2598 72.5174 32.2384 72.7429 32.1847C73.1079 32.1095 73.3548 31.9485 73.4943 31.7016C73.5588 31.5942 73.591 31.5084 73.5695 31.4547V29.9732H73.5588Z" fill="white"/>
<path d="M82.8878 37.5094C81.2882 37.5094 80.0429 37.284 79.1304 36.8331C78.175 36.3607 77.6919 35.6737 77.6919 34.7719V26.9888H80.9877L81.0091 34.7612C81.0091 35.1154 81.1487 35.3516 81.4385 35.4804C81.7177 35.6093 82.19 35.6737 82.8449 35.6737H89.4471L89.4686 37.4987H82.8878V37.5094Z" fill="white"/>
<path d="M102.287 37.5094L100.966 35.3945H93.9023L92.5818 37.5094H89.2753L95.1154 28.0408C95.3193 27.708 95.5984 27.4396 95.9312 27.2356C96.3284 26.9887 96.8008 26.8706 97.3483 26.8706C97.971 26.8706 98.4862 26.978 98.8835 27.1927C99.2055 27.3644 99.4954 27.6543 99.7423 28.0408L105.593 37.5094H102.287ZM97.3912 29.6296L95.0187 33.5587H99.8389L97.3912 29.6296Z" fill="white"/>
<path d="M110.746 34.3103V37.5202H107.891L107.869 34.3318L102.05 26.9995H105.4L109.318 32.3457L113.333 26.9995H116.715L110.746 34.3103Z" fill="white"/>
<path d="M35.6307 54.3211L34.4391 52.2599H28.0623L26.8707 54.3211H23.8862L29.1573 45.1209C29.3398 44.7988 29.5867 44.5411 29.8873 44.3372C30.2523 44.101 30.671 43.9829 31.1648 43.9829C31.723 43.9829 32.1847 44.0903 32.5497 44.2942C32.8395 44.466 33.0972 44.7344 33.3226 45.1209L38.5937 54.3211H35.6307ZM31.2292 46.6668L29.0929 50.4885H33.4407L31.2292 46.6668Z" fill="#7F7F7F"/>
<path d="M63.4782 54.3211V46.8707L60.5153 53.1187C60.3006 53.5696 60.0429 53.8916 59.7531 54.0849C59.3773 54.3318 58.862 54.4499 58.1964 54.4499C57.5523 54.4499 57.0478 54.3425 56.7042 54.1171C56.3607 53.8916 56.0816 53.5588 55.8561 53.1187L52.9146 46.8707L52.8932 54.3211H50.1342L50.1127 45.7005C50.1127 45.3033 50.1986 44.9813 50.3596 44.7236C50.5206 44.466 50.8534 44.262 51.3365 44.1224C51.8196 43.9721 52.3027 43.9077 52.7751 43.9077C53.3763 43.9077 53.8808 44.0365 54.2888 44.3049C54.6323 44.5304 54.9007 44.8524 55.0939 45.2711L58.1428 51.9915L61.299 45.2711C61.4815 44.8632 61.7498 44.5518 62.1041 44.3157C62.5228 44.0365 63.0381 43.9077 63.6393 43.9077C64.1009 43.9077 64.5733 43.9829 65.0563 44.1224C65.5394 44.2727 65.8615 44.466 66.0225 44.7236C66.1836 44.9813 66.2587 45.3033 66.2587 45.7005V54.3211H63.4782Z" fill="#7F7F7F"/>
<path d="M81.2024 46.9565V48.4488H89.6833L89.7048 50.2201H81.2238L81.2024 51.9807C81.2024 52.131 81.299 52.2705 81.4922 52.3994C81.6855 52.5282 81.9216 52.6141 82.19 52.657C82.2652 52.6678 82.3833 52.6785 82.5228 52.6892C82.6731 52.7 82.8127 52.7 82.9522 52.7C83.2314 52.7 83.4353 52.7 83.5749 52.7H89.6404L89.6618 54.4713H83.5856C82.0934 54.4713 80.9447 54.2351 80.1288 53.752C79.3129 53.2689 78.905 52.5711 78.905 51.6479V46.8921C78.905 45.9474 79.3881 45.2496 80.3543 44.8202C81.2024 44.4445 82.4262 44.2512 84.0365 44.2512H89.7048L89.7263 46.0226H83.3924H82.3725C82.0183 46.0226 81.7284 46.1192 81.5137 46.3017C81.299 46.4842 81.2024 46.7204 81.2024 46.9565Z" fill="#7F7F7F"/>
<path d="M104.928 47.4932C104.928 48.0729 105.346 48.3628 106.194 48.3628H109.104C110.134 48.3628 111.047 48.5453 111.83 48.8995C112.711 49.3075 113.151 49.812 113.151 50.424V51.9806C113.151 52.6569 112.754 53.2259 111.97 53.666C111.186 54.1062 110.231 54.3209 109.114 54.3209H101.997L101.975 52.5496H108.846C109.2 52.5496 109.512 52.4959 109.769 52.3778C110.038 52.2597 110.166 52.0987 110.166 51.8947V50.6494C110.166 50.4347 110.08 50.3488 109.78 50.2415C109.49 50.1341 109.093 50.1234 108.706 50.1234H106.184C105.056 50.1234 104.391 50.1126 103.586 49.7476C102.695 49.3397 102.308 48.4916 102.308 47.8153V46.57C102.308 46.001 102.48 45.5394 102.813 45.1744C103.145 44.8094 103.371 44.5195 104.176 44.2833C104.466 44.2082 104.766 44.1545 105.078 44.133C105.389 44.1116 105.765 44.1008 106.226 44.1008H113.215L113.237 45.8722H106.098C105.7 45.8722 105.4 45.9151 105.196 46.0117C104.992 46.1083 104.895 46.2801 104.895 46.527V47.4932H104.928Z" fill="#7F7F7F"/>
<path d="M141.106 31.3794C136.457 31.3794 132.7 35.1475 132.7 39.7852C132.7 44.4229 136.468 48.191 141.106 48.191C145.754 48.191 149.512 44.4229 149.512 39.7852C149.512 35.1475 145.743 31.3794 141.106 31.3794ZM145.894 40.0965L139.979 44.702C139.517 45.067 138.722 44.8093 138.722 44.2833V34.8684C138.722 34.3424 139.517 34.0847 139.979 34.4497L145.894 39.2699C146.184 39.4953 146.184 39.8711 145.894 40.0965Z" fill="white"/>
<path d="M157.542 42.0503L159.968 49.1464C160.161 49.7046 159.656 50.3702 159.163 50.1984L150.252 47.1281C149.758 46.9563 149.769 46.1297 150.274 45.8077L156.758 41.7819C157.058 41.5887 157.413 41.7068 157.542 42.0503Z" fill="white"/>
<path d="M141.106 52.8502C133.892 52.8502 128.041 46.9995 128.041 39.7853C128.041 32.5711 133.892 26.7203 141.106 26.7203C145.561 26.7203 149.501 28.9533 151.852 32.3671L157.123 28.1696C153.527 23.2206 147.687 20 141.106 20C130.177 20 121.32 28.8567 121.32 39.7853C121.32 50.7139 130.177 59.5706 141.106 59.5706C148.449 59.5706 154.869 55.5663 158.282 49.6189L151.659 47.4826C149.275 50.7461 145.432 52.8502 141.106 52.8502Z" fill="white"/>
<path d="M10.0161 48.3628H5.39984V50.1556H10.0161V51.7015C10.0161 51.9913 9.88723 52.206 9.61884 52.3456C9.3612 52.4851 8.98546 52.5496 8.5131 52.5496H4.50881L4.25116 52.5066C3.97204 52.4422 3.7788 52.3349 3.66071 52.1953C3.54262 52.0557 3.48895 51.884 3.48895 51.68V47.0853C3.48895 46.7417 3.60704 46.5056 3.84321 46.3875C4.07939 46.2586 4.4766 46.1942 5.03484 46.1942H11.8947L11.8733 44.1008H5.26028C3.7466 44.1008 2.57644 44.337 1.76055 44.7986C0.944664 45.2602 0.547455 45.958 0.547455 46.8706V51.5941C0.547455 52.2168 0.729956 52.7213 1.08422 53.1078C1.44923 53.4943 2.07188 53.8056 2.96291 54.0632C3.32792 54.1706 3.68218 54.235 4.01498 54.2672C4.34778 54.2994 4.74499 54.3209 5.20661 54.3209H8.52384C9.52223 54.3209 10.3381 54.2135 10.9822 53.9988C11.6156 53.7841 12.1524 53.4084 12.5818 52.8931C12.7643 52.6784 12.8824 52.4851 12.9146 52.3134C12.9575 52.1416 12.9683 51.8947 12.9683 51.5726L12.9898 48.3628H10.0161Z" fill="#7F7F7F"/>
</g>
<defs>
<clipPath id="clip0">
<rect width="160" height="80" fill="white"/>
</clipPath>
</defs>
</svg>
