<svg width="160" height="80" viewBox="0 0 160 80" fill="none" xmlns="http://www.w3.org/2000/svg">
<path d="M22.2196 26.5417C25.8003 23.0516 30.5512 21.0572 35.5829 20.9213C40.8721 20.7626 46.0677 22.7116 49.8825 26.2697L48.0102 26.2924H33.3362C30.2938 26.2924 28.047 26.9722 26.6428 28.3547C25.2386 29.7145 24.5131 31.8901 24.5131 34.8363V36.0601C24.5131 39.0062 25.2152 41.1819 26.6428 42.5417C28.047 43.9014 30.2938 44.604 33.3362 44.604H40.8253C41.7381 44.604 42.487 45.3292 42.487 46.213V47.5955C42.487 48.0487 42.3466 48.4113 42.0657 48.6606C41.7849 48.9326 41.387 49.0459 40.8487 49.0459H26.8769C26.6662 48.3887 26.0577 47.9354 25.3322 47.9354C24.4429 47.9354 23.7174 48.638 23.7174 49.4992C23.7174 50.3604 24.4429 51.0629 25.3322 51.0629C26.0577 51.0629 26.6662 50.6096 26.8769 49.9524H40.8487C41.5976 49.9524 42.2295 49.7485 42.6976 49.3179C43.1657 48.8873 43.3997 48.3207 43.3997 47.5955V46.213C43.3997 44.8306 42.2529 43.7201 40.8253 43.7201H33.3362C30.5512 43.7201 28.5151 43.1082 27.2981 41.9298C26.0811 40.7513 25.4492 38.7796 25.4492 36.0827V34.8589C25.4492 32.162 26.0811 30.1904 27.2981 29.0119C28.5151 27.8334 30.5512 27.2215 33.3362 27.2215H48.0102L50.959 27.1762C51.1463 27.1762 51.3101 27.0629 51.3803 26.9043C51.4505 26.7456 51.4271 26.5643 51.2867 26.4283C47.2379 22.1677 41.504 19.8561 35.5595 20.0147C30.2938 20.1734 25.3322 22.2584 21.5643 25.9071C17.8197 29.5558 15.6666 34.3603 15.5262 39.4595C15.4794 41.4538 15.7134 43.4255 16.2517 45.3292C15.807 45.6238 15.5496 46.0997 15.5496 46.621C15.5496 47.4822 16.2751 48.1847 17.1644 48.1847C18.0537 48.1847 18.7792 47.4822 18.7792 46.621C18.7792 45.7598 18.0537 45.0572 17.141 45.0572C16.6261 43.2442 16.3921 41.3858 16.4623 39.4822C16.5793 34.6096 18.6388 30.0091 22.2196 26.5417Z" fill="white"/>
<path d="M55.7805 33.6813C56.2252 33.3867 56.506 32.9107 56.506 32.3895C56.506 31.5283 55.7805 30.8258 54.8912 30.8258C54.0019 30.8258 53.2763 31.5283 53.2763 32.3895C53.2763 33.2507 54.0019 33.9532 54.8912 33.9532C54.8912 33.9532 54.8912 33.9532 54.9146 33.9532C55.5933 35.9023 55.9209 37.9419 55.9209 40.0269C55.9209 50.5651 47.0744 59.1317 36.1918 59.1317C32.143 59.1317 28.1176 57.8853 24.7943 55.619H42.5341C45.366 55.619 47.5191 54.9617 48.8765 53.67C50.2339 52.3782 50.936 50.3385 50.936 47.619V45.6246C50.936 42.9051 50.2339 40.8881 48.8765 39.5736C47.5191 38.2819 45.3894 37.6246 42.5341 37.6246H34.9982C33.5706 37.6246 32.9387 37.0127 32.9387 35.6303V34.8144C32.9387 33.432 33.5706 32.8201 34.9982 32.8201H46.4659C46.6766 33.4773 47.2851 33.9306 48.0106 33.9306C48.8999 33.9306 49.6254 33.228 49.6254 32.3668C49.6254 31.5057 48.8999 30.8031 48.0106 30.8031C47.2851 30.8031 46.6766 31.2564 46.4659 31.9136H34.9982C33.0557 31.9136 32.026 32.9107 32.026 34.7918V35.6076C32.026 37.4887 33.0557 38.4858 34.9982 38.4858H42.5107C45.1085 38.4858 47.0276 39.0524 48.1978 40.1855C49.3914 41.3187 49.9765 43.1317 49.9765 45.602V47.5963C49.9765 50.0666 49.368 51.8796 48.1978 53.0127C47.0042 54.1459 45.0851 54.7125 42.5107 54.7125H23.4135C23.2263 54.7125 23.039 54.8258 22.9922 55.0071C22.922 55.1884 22.9922 55.3923 23.1327 55.5057C26.807 58.4065 31.4409 59.9929 36.1684 59.9929C47.5659 59.9929 56.8337 51.0184 56.8337 39.9816C56.8337 37.8513 56.4826 35.7209 55.7805 33.6813Z" fill="white"/>
<path d="M61.3271 36.8768C61.608 36.8768 61.8186 36.8768 62.0058 36.8768C62.193 36.8768 62.4037 36.8768 62.6845 36.8768C62.7781 37.4207 63.059 37.8513 63.5504 38.1685C64.0419 38.4858 64.6738 38.6445 65.4461 38.6445C66.1716 38.6445 66.7801 38.4858 67.2482 38.1459C67.7163 37.8059 67.9503 37.3753 67.9503 36.8768C67.9503 36.4235 67.7865 36.0609 67.4354 35.7663C67.0844 35.4717 66.5461 35.245 65.7972 35.0637L64.4164 34.7238C63.4334 34.4745 62.7313 34.1345 62.2867 33.704C61.842 33.2507 61.6314 32.6615 61.6314 31.9362C61.6314 31.0524 61.9824 30.3272 62.6845 29.7833C63.3866 29.2394 64.2994 28.9674 65.4461 28.9674C66.4759 28.9674 67.3418 29.2394 68.0439 29.7833C68.746 30.3272 69.1205 31.0071 69.1673 31.8456H67.8099C67.7163 31.3017 67.4588 30.8938 67.0142 30.5991C66.5929 30.3045 66.0312 30.1459 65.3759 30.1459C64.6504 30.1459 64.0887 30.3045 63.6441 30.6218C63.1994 30.9391 62.9888 31.3697 62.9888 31.8909C62.9888 32.2989 63.1526 32.6388 63.4802 32.8881C63.8079 33.1374 64.3228 33.364 65.0717 33.5453L66.195 33.8399C67.3184 34.1119 68.1141 34.4745 68.5822 34.9277C69.0737 35.381 69.3077 35.9929 69.3077 36.7408C69.3077 37.6926 68.9567 38.4632 68.2311 39.0297C67.5056 39.5963 66.5227 39.8683 65.3057 39.8683C64.1589 39.8683 63.2462 39.5963 62.5207 39.0524C61.7952 38.5085 61.3973 37.7833 61.3271 36.8768Z" fill="white"/>
<path d="M71.5544 29.194C72.3736 29.194 73.0523 29.194 73.5905 29.194C74.1288 29.194 74.8075 29.194 75.6266 29.194C76.633 29.194 77.4755 29.5113 78.1074 30.1458C78.7393 30.7804 79.067 31.5736 79.067 32.5707C79.067 33.5452 78.7393 34.3384 78.084 34.9503C77.4287 35.5622 76.6096 35.8795 75.6032 35.8795H72.9118V39.5962H71.5778V29.194H71.5544ZM72.8884 30.3498C72.8884 30.939 72.8884 31.4603 72.8884 31.8909C72.8884 32.3214 72.8884 32.752 72.8884 33.2053C72.8884 33.6586 72.8884 34.1571 72.8884 34.7464H75.2522C76.0245 34.7464 76.6096 34.5651 77.0309 34.1798C77.4521 33.7945 77.6627 33.2733 77.6627 32.5707C77.6627 31.8455 77.4521 31.3016 77.0309 30.9163C76.6096 30.5311 76.0245 30.3498 75.2288 30.3498H72.8884Z" fill="white"/>
<path d="M87.7496 38.4404C87.7496 38.6671 87.7496 38.871 87.7496 39.0297C87.7496 39.1883 87.7496 39.3696 87.7496 39.6189H81.2201V29.194H82.5541V38.4178H87.7496V38.4404Z" fill="white"/>
<path d="M91.2368 39.5962C90.9793 39.5962 90.7453 39.5962 90.5581 39.5962C90.3709 39.5962 90.1602 39.5962 89.8794 39.5962V29.194H91.2134V39.5962H91.2368Z" fill="white"/>
<path d="M98.1174 39.5962C97.86 39.5962 97.6259 39.5962 97.4387 39.5962C97.2515 39.5962 97.0408 39.5962 96.76 39.5962V30.3724H93.2963V29.194H101.558V30.3724H98.094V39.5962H98.1174Z" fill="white"/>
<path d="M104.975 35.4716C104.975 36.2875 104.975 36.99 104.975 37.5339C104.975 38.0778 104.975 38.7577 104.975 39.5962H103.641V29.194H107.736C108.766 29.194 109.608 29.4659 110.217 30.0325C110.849 30.5991 111.153 31.3469 111.153 32.2761C111.153 33.0013 110.966 33.6359 110.591 34.1571C110.217 34.6784 109.679 35.0637 109 35.2676L111.481 39.5962H109.913L107.619 35.4716H104.975ZM104.975 30.3498C104.975 30.8937 104.975 31.3469 104.975 31.7549C104.975 32.1401 104.975 32.5481 104.975 32.9333C104.975 33.3186 104.975 33.7945 104.975 34.3384H107.619C108.298 34.3384 108.836 34.1571 109.211 33.8172C109.585 33.4773 109.772 32.9787 109.772 32.3441C109.772 31.7096 109.585 31.2336 109.187 30.871C108.789 30.5311 108.251 30.3498 107.549 30.3498H104.975Z" fill="white"/>
<path d="M121.732 30.4178C122.621 31.3923 123.042 32.7294 123.042 34.3838C123.042 36.0382 122.597 37.3753 121.732 38.3498C120.866 39.3243 119.649 39.8229 118.127 39.8229C116.583 39.8229 115.389 39.3243 114.5 38.3498C113.634 37.3753 113.189 36.0382 113.189 34.3838C113.189 32.7067 113.634 31.3923 114.523 30.4178C115.413 29.4433 116.606 28.9447 118.127 28.9447C119.649 28.9447 120.842 29.4433 121.732 30.4178ZM115.506 31.3016C114.874 32.0722 114.547 33.092 114.547 34.4065C114.547 35.6982 114.851 36.7181 115.483 37.4886C116.115 38.2591 116.981 38.6444 118.104 38.6444C119.204 38.6444 120.07 38.2591 120.702 37.4886C121.334 36.7181 121.661 35.6756 121.661 34.4065C121.661 33.1147 121.334 32.0722 120.702 31.3016C120.07 30.5311 119.204 30.1458 118.104 30.1458C117.027 30.1458 116.161 30.5311 115.506 31.3016Z" fill="white"/>
<path d="M126.225 38.3724C125.382 37.3979 124.938 36.0608 124.938 34.3838C124.938 32.7067 125.359 31.3696 126.202 30.3951C127.044 29.4206 128.214 28.922 129.665 28.922C130.789 28.922 131.772 29.2393 132.567 29.8512C133.363 30.4857 133.855 31.3016 134.018 32.2988H132.661C132.474 31.6189 132.123 31.0976 131.584 30.7124C131.046 30.3271 130.414 30.1231 129.665 30.1231C128.636 30.1231 127.816 30.5084 127.208 31.2789C126.599 32.0495 126.295 33.0693 126.295 34.3838C126.295 35.6755 126.599 36.718 127.208 37.4886C127.816 38.2591 128.636 38.6444 129.665 38.6444C130.414 38.6444 131.046 38.4631 131.584 38.1231C132.123 37.7832 132.474 37.3073 132.638 36.6954H133.995C133.808 37.6472 133.34 38.4177 132.544 38.9843C131.748 39.5509 130.789 39.8455 129.642 39.8455C128.238 39.8455 127.068 39.3469 126.225 38.3724Z" fill="white"/>
<path d="M137.622 39.5962C137.365 39.5962 137.131 39.5962 136.944 39.5962C136.757 39.5962 136.546 39.5962 136.265 39.5962V29.194H137.599V34.2478H137.716L142.42 29.194H144.105L139.799 33.6812L144.48 39.5962H142.748L138.863 34.5877L137.576 35.9702V39.5962H137.622Z" fill="white"/>
<path d="M83.9115 52.1061C83.2094 52.7633 82.2732 53.1033 81.1031 53.1033C79.8393 53.1033 78.8563 52.6953 78.1074 51.8568C77.3585 51.0183 76.984 49.9078 76.984 48.5027C76.984 47.1203 77.3585 46.0098 78.1074 45.1713C78.8563 44.3327 79.8627 43.9248 81.1031 43.9248C82.1094 43.9248 82.9519 44.1741 83.6306 44.6727C84.3093 45.1713 84.7306 45.8738 84.8944 46.735H83.7476C83.5604 46.1458 83.2328 45.6925 82.7881 45.3752C82.3434 45.0579 81.7818 44.922 81.1031 44.922C80.2137 44.922 79.4882 45.2393 78.9499 45.8965C78.4116 46.5537 78.1542 47.4149 78.1542 48.5027C78.1542 49.6132 78.4116 50.497 78.9499 51.1316C79.4882 51.7662 80.1903 52.1061 81.1031 52.1061C81.9222 52.1061 82.5775 51.8795 83.0689 51.4262C83.5604 50.973 83.8179 50.3611 83.8179 49.6359V49.4319H81.2903V48.48H84.9646V49.5452C84.9646 50.5877 84.6136 51.4489 83.9115 52.1061Z" fill="white"/>
<path d="M92.8516 52.8993C92.6644 52.4007 92.524 51.9701 92.4069 51.6529C92.2899 51.3129 92.1261 50.905 91.9623 50.4064H88.3581L87.4454 52.922H86.2518L89.5985 44.1288H90.7219L94.0686 52.922H92.8516V52.8993ZM90.09 45.5339C89.9028 46.0551 89.7389 46.531 89.5985 46.9163C89.4581 47.3016 89.3177 47.6869 89.1773 48.0948C89.0368 48.4801 88.873 48.9333 88.6858 49.4772H91.6346L90.207 45.5565H90.09V45.5339Z" fill="white"/>
<path d="M104.577 52.8994C104.366 52.8994 104.179 52.8994 104.038 52.8994C103.898 52.8994 103.734 52.8994 103.5 52.8994V46.1912H103.43L100.575 52.8994H99.6152L96.76 46.1912H96.6898V52.8994H95.6366V44.1062H96.9472L100.06 51.4263H100.154L103.266 44.1062H104.577V52.8994Z" fill="white"/>
<path d="M108.017 52.8994C107.783 52.8994 107.596 52.8994 107.455 52.8994C107.315 52.8994 107.104 52.8994 106.894 52.8994V44.1062H108.017V52.8994Z" fill="white"/>
<path d="M111.434 52.8994C111.2 52.8994 111.013 52.8994 110.872 52.8994C110.732 52.8994 110.545 52.8994 110.311 52.8994V44.1062H111.411L116.325 50.9504H116.419V44.1062H117.542V52.8994H116.442L111.528 46.0779H111.434V52.8994Z" fill="white"/>
<path d="M126.436 52.1061C125.733 52.7633 124.797 53.1033 123.627 53.1033C122.363 53.1033 121.38 52.6953 120.632 51.8568C119.883 51.0183 119.508 49.9078 119.508 48.5027C119.508 47.1203 119.883 46.0098 120.632 45.1713C121.38 44.3327 122.387 43.9248 123.627 43.9248C124.634 43.9248 125.476 44.1741 126.155 44.6727C126.833 45.1713 127.255 45.8738 127.419 46.735H126.272C126.085 46.1458 125.757 45.6925 125.312 45.3752C124.868 45.0579 124.306 44.922 123.627 44.922C122.738 44.922 122.012 45.2393 121.474 45.8965C120.936 46.5537 120.678 47.4149 120.678 48.5027C120.678 49.6132 120.936 50.497 121.474 51.1316C122.012 51.7662 122.714 52.1061 123.627 52.1061C124.446 52.1061 125.102 51.8795 125.593 51.4262C126.085 50.973 126.342 50.3611 126.342 49.6359V49.4319H123.791V48.48H127.465V49.5452C127.489 50.5877 127.138 51.4489 126.436 52.1061Z" fill="white"/>
</svg>
