<svg width="160" height="80" viewBox="0 0 160 80" fill="none" xmlns="http://www.w3.org/2000/svg">
<path fill-rule="evenodd" clip-rule="evenodd" d="M0.227718 48.7217V45.445H8.87539V49.2583C8.87539 52.7485 10.2239 54.4945 12.9191 54.4945H12.9533C15.6237 54.4945 16.9609 52.7542 16.9609 49.2753C16.9609 47.2874 16.3854 45.4242 15.2306 43.6839C14.0777 41.9435 12.6988 40.3524 11.0938 38.9106L6.75953 34.4378C4.96846 32.8732 3.46988 30.9344 2.26381 28.6234C1.05583 26.3105 0.45184 23.75 0.45184 20.942C0.45184 16.6204 1.59144 13.3059 3.87064 10.9949C6.14795 8.68387 9.24386 7.5293 13.1546 7.5293C17.0653 7.5293 20.0682 8.68387 22.165 10.993C24.2619 13.3022 25.3103 16.6166 25.3103 20.9363V22.6502H17.335V20.4167C17.335 16.9152 15.9257 15.1635 13.1052 15.1635C10.2847 15.1635 8.87539 16.9171 8.87539 20.4205C8.87539 21.8868 9.18308 23.2852 9.79657 24.6155C10.4101 25.9458 11.2059 27.1438 12.184 28.2133C13.1622 29.281 14.241 30.3373 15.4186 31.3804C16.5962 32.4254 17.7605 33.5195 18.9077 34.6627C20.0549 35.8059 21.1166 37.0285 22.091 38.3343C23.0634 39.6381 23.8554 41.1801 24.467 42.9564C25.0786 44.7345 25.3844 46.6657 25.3844 48.7538C25.3844 53.0641 24.3113 56.3709 22.165 58.6744C20.0188 60.9779 16.9894 62.1306 13.0767 62.1306C9.16409 62.1306 6.04348 60.976 3.7168 58.6669C1.39011 56.3577 0.227718 53.0414 0.227718 48.7217Z" fill="white"/>
<path fill-rule="evenodd" clip-rule="evenodd" d="M38.5992 33.861H42.6049C43.9762 33.861 45.0057 33.4756 45.6932 32.7065C46.3789 31.9374 46.7227 30.6335 46.7227 28.7949V20.7885C46.7227 18.9499 46.3789 17.6536 45.6932 16.8958C45.0057 16.1381 43.9762 15.7601 42.6049 15.7601H38.5992V33.861ZM30.1757 61.533V8.12598H42.5859C50.9582 8.12598 55.1462 12.5383 55.1462 21.361V28.2979C55.1462 37.0961 50.962 41.4971 42.5954 41.4971H38.5992V61.533H30.1757Z" fill="white"/>
<path fill-rule="evenodd" clip-rule="evenodd" d="M67.4992 32.1849H70.7926C72.4906 32.1849 73.7575 31.7502 74.5932 30.881C75.4289 30.0118 75.8468 28.5605 75.8468 26.5235V21.2722C75.8715 17.5987 74.4489 15.7601 71.579 15.7601H67.4992V32.1849ZM59.0756 61.5329V8.12402H71.786C76.1203 8.12402 79.2865 9.1312 81.2789 11.1437C83.2732 13.1561 84.2703 16.2495 84.2703 20.4237V24.6338C84.2703 30.1252 82.4318 33.74 78.7546 35.4785C82.4811 37.045 84.3444 40.8338 84.3444 46.8466V55.0647V55.3992C84.3444 58.1259 84.6445 60.1705 85.2428 61.5329H76.7034C76.2076 60.0212 75.9474 57.8406 75.9227 54.9891V46.6236C75.9227 44.1954 75.4916 42.4532 74.6312 41.4007C73.7689 40.3462 72.3653 39.8209 70.4185 39.8209H67.4992V61.5329H59.0756Z" fill="white"/>
<path fill-rule="evenodd" clip-rule="evenodd" d="M89.886 61.5339H98.3096V8.125H89.886V61.5339Z" fill="white"/>
<path fill-rule="evenodd" clip-rule="evenodd" d="M112.871 53.8988H117.701C119.173 53.8988 120.271 53.5077 120.995 52.7254C121.718 51.9431 122.081 50.5844 122.081 48.6475V43.9914C122.081 41.5576 121.663 39.8701 120.826 38.9272C119.99 37.9824 118.6 37.5118 116.653 37.5118H112.871V53.8988ZM112.871 29.8758H116.18C117.884 29.8758 119.156 29.4412 119.996 28.5719C120.837 27.7027 121.257 26.2628 121.257 24.2522V21.2722C121.281 17.5988 119.853 15.7601 116.97 15.7601H112.871V29.8758ZM104.448 61.5349V8.12598H117.177C121.519 8.12598 124.689 9.13127 126.685 11.1418C128.681 13.1524 129.68 16.2439 129.68 20.4162V22.3153C129.68 27.8028 127.859 31.3913 124.214 33.0787C128.408 34.7171 130.503 38.5304 130.503 44.513V48.8705C130.503 52.9918 129.418 56.1343 127.247 58.2942C125.074 60.454 121.893 61.5349 117.701 61.5349H104.448Z" fill="white"/>
<path fill-rule="evenodd" clip-rule="evenodd" d="M135.558 61.5339V8.125H158.543V15.7611H143.981V30.6212H155.548V38.2554H143.981V53.8979H158.543V61.5339H135.558Z" fill="white"/>
<path fill-rule="evenodd" clip-rule="evenodd" d="M0 72.4086H158.661V64.9937H0V72.4086Z" fill="white"/>
</svg>
