<svg width="160" height="80" viewBox="0 0 160 80" fill="none" xmlns="http://www.w3.org/2000/svg">
<path d="M136.184 25.3201H127.872V30.2751H136.184V25.3201Z" fill="black"/>
<path d="M154.725 38.107V37.6274C154.725 36.6684 154.565 35.5495 154.246 34.5905C153.926 33.6314 153.447 32.8322 152.807 32.1929C152.008 31.5535 151.049 30.9142 150.09 30.5945C148.651 30.4346 147.213 30.2748 145.774 30.2748C144.495 30.2748 143.057 30.4346 141.778 30.5945C140.499 30.7543 139.381 31.2338 138.422 31.8732C137.462 32.5126 136.823 33.4716 136.344 34.5905V30.7543H120.519V32.033C120.2 31.5535 119.56 31.2338 119.081 30.9142C118.122 30.4346 117.003 30.2748 116.044 30.2748C115.085 30.2748 113.966 30.4346 113.007 30.7543C112.048 31.074 111.249 31.5535 110.609 32.1929C110.13 32.8322 109.65 33.4716 109.49 34.111C109.331 33.6314 109.011 33.3118 108.851 32.9921C108.052 32.033 106.933 31.3937 105.814 30.9142C104.535 30.4346 102.777 30.2748 100.539 30.2748C98.4615 30.2748 96.7032 30.5945 95.4245 31.074C94.3056 31.5535 93.1868 32.1929 92.3876 33.1519C92.0679 33.4716 91.908 33.9511 91.5884 34.2708V25.1599H83.2767V48.1769H91.5884V44.8203C91.7482 45.1399 91.908 45.4596 92.2277 45.7793C93.0269 46.7383 94.1458 47.3777 95.2647 47.8572C96.5434 48.3367 98.3017 48.4966 100.539 48.4966C102.617 48.4966 104.376 48.1769 105.654 47.6974C106.773 47.2179 107.892 46.5785 108.691 45.6195C109.011 45.1399 109.49 44.6604 109.65 44.0211C109.97 44.8203 110.45 45.4596 111.089 46.099C111.728 46.7383 112.527 47.2179 113.327 47.3777C115.085 47.8572 117.003 47.8572 118.761 47.2179C119.401 47.058 119.88 46.5785 120.36 46.099V47.8572C120.36 48.1769 120.36 48.4966 120.2 48.8163C120.04 49.1359 119.72 49.4556 119.241 49.4556C118.921 49.4556 118.761 49.4556 118.442 49.4556C118.122 49.4556 117.642 49.4556 117.323 49.1359C117.163 48.9761 117.003 48.8163 117.003 48.4966V48.0171H109.49V48.4966C109.49 49.4556 109.81 50.2548 110.29 51.054C110.769 51.6934 111.568 52.3327 112.368 52.6524C113.327 52.9721 114.286 53.2918 115.245 53.4516C116.364 53.6115 117.482 53.6115 118.601 53.6115C119.88 53.6115 121.159 53.4516 122.278 53.2918C123.397 53.1319 124.356 52.8123 125.315 52.3327C126.114 51.8532 126.913 51.2139 127.393 50.4147C127.872 49.7753 128.032 48.9761 128.192 48.1769H136.184V44.6604C136.663 45.6195 137.303 46.4187 138.102 46.8982C139.061 47.5375 140.18 48.0171 141.299 48.1769C142.577 48.3367 144.016 48.4966 145.295 48.4966C148.491 48.4966 150.889 47.8572 152.487 46.7383C153.287 46.099 153.766 45.1399 154.086 44.1809C154.406 43.062 154.565 41.7833 154.565 40.6644V40.1849H147.053V41.6234C147.053 42.7423 146.733 43.2219 146.573 43.5415C146.254 43.8612 145.774 44.0211 145.295 44.0211C144.975 44.0211 144.655 44.0211 144.495 43.8612C144.336 43.7014 144.016 43.5415 144.016 43.2218C143.856 42.7423 143.696 42.2628 143.696 41.7833C143.696 41.1439 143.536 40.3447 143.536 39.2258C143.536 38.107 143.536 37.3078 143.696 36.6684C143.696 36.1889 143.856 35.7094 144.016 35.2298C144.176 34.9102 144.336 34.7503 144.495 34.5905C144.815 34.4306 144.975 34.4306 145.295 34.4306C145.934 34.4306 146.414 34.5905 146.573 34.9102C146.733 35.2298 146.893 35.5495 146.893 35.8692C147.053 36.3487 147.053 36.9881 147.053 37.4676V37.9471L154.725 38.107ZM120.2 39.066C120.2 39.7054 120.2 40.5046 120.04 41.1439C120.04 41.4636 119.88 41.9431 119.72 42.2628C119.56 42.4227 119.401 42.5825 119.241 42.7423C118.761 42.9022 118.282 42.9022 117.802 42.7423C117.642 42.5825 117.482 42.4227 117.323 42.2628C117.163 41.9431 117.003 41.4636 117.003 41.1439C116.843 40.5046 116.843 39.7054 116.843 39.066C116.843 38.4266 116.843 37.6274 117.003 36.9881C117.003 36.5086 117.163 36.1889 117.323 35.8692C117.482 35.7094 117.642 35.5495 117.802 35.3897C118.122 35.2298 118.282 35.2298 118.601 35.2298C118.921 35.2298 119.081 35.2298 119.241 35.3897C119.401 35.5495 119.56 35.7094 119.72 35.8692C119.88 36.1889 120.04 36.6684 120.04 36.9881C120.2 37.6274 120.2 38.4266 120.2 39.066ZM98.6213 36.9881C98.6213 36.5086 98.7812 36.029 98.941 35.5495C99.1009 35.2298 99.2607 35.07 99.4205 34.9102C99.7402 34.7503 99.9001 34.7503 100.22 34.7503C100.539 34.7503 100.859 34.7503 101.019 34.9102C101.179 35.07 101.339 35.2298 101.498 35.5495C101.658 36.029 101.818 36.5086 101.818 36.9881C101.818 37.6274 101.978 38.5865 101.978 39.5455C101.978 40.5046 101.978 41.4636 101.818 42.103C101.818 42.5825 101.658 43.062 101.498 43.5415C101.498 43.8612 101.339 44.0211 101.019 44.1809C100.539 44.3407 99.9001 44.3407 99.4205 44.1809C99.2607 44.0211 99.1009 43.8612 98.941 43.5415C98.7812 43.062 98.6213 42.5825 98.6213 42.103C98.6213 41.4636 98.4615 40.6644 98.4615 39.5455C98.4615 38.4266 98.6213 37.6274 98.6213 36.9881Z" fill="black"/>
<path d="M90.7892 25.7991V47.857H83.2767V25.7991H90.7892Z" fill="white"/>
<path d="M109.49 42.7421C109.331 43.7011 108.851 44.6602 108.212 45.6192C107.413 46.5783 106.454 47.2176 105.335 47.5373C104.056 48.0168 102.458 48.1767 100.38 48.1767C98.1418 48.1767 96.5434 48.0168 95.2647 47.5373C94.1458 47.2176 93.1868 46.5783 92.3876 45.6192C91.7482 44.82 91.2687 43.861 91.1089 42.9019C90.949 41.7831 90.7892 40.6642 90.7892 39.5453C90.7892 38.4264 90.949 37.3075 91.1089 36.3485C91.2687 35.3894 91.7482 34.2706 92.3876 33.4714C93.1868 32.5123 94.1458 31.873 95.2647 31.3934C96.5434 30.9139 98.1418 30.5942 100.22 30.5942C102.458 30.5942 104.056 30.7541 105.335 31.2336C106.454 31.5533 107.413 32.1926 108.212 33.1517C108.851 33.9509 109.331 34.9099 109.49 36.0288C109.65 37.1477 109.81 38.2666 109.81 39.3854C109.81 40.5043 109.65 41.6232 109.49 42.7421ZM98.3017 42.1027C98.3017 42.5823 98.4615 43.2216 98.6214 43.7011C98.7812 44.0208 98.941 44.3405 99.2607 44.5003C99.5804 44.6602 99.9001 44.6602 100.22 44.6602C100.539 44.6602 100.859 44.6602 101.179 44.5003C101.498 44.3405 101.658 44.0208 101.818 43.7011C101.978 43.2216 102.138 42.5823 102.138 42.1027C102.138 41.4634 102.298 40.5043 102.298 39.5453C102.298 38.4264 102.298 37.6272 102.138 36.9878C102.138 36.5083 101.978 35.869 101.818 35.3894C101.658 35.0698 101.498 34.7501 101.179 34.5902C100.859 34.4304 100.539 34.4304 100.22 34.4304C99.9001 34.4304 99.5804 34.4304 99.2607 34.5902C98.941 34.7501 98.7812 35.0698 98.6214 35.3894C98.4615 35.869 98.3017 36.5083 98.3017 36.9878C98.3017 37.6272 98.1418 38.5862 98.1418 39.5453C98.1418 40.5043 98.1418 41.4634 98.3017 42.1027Z" fill="white"/>
<path d="M127.872 31.0738V47.5373C127.872 48.4964 127.712 49.4554 127.233 50.2546C126.753 51.0538 126.114 51.6932 125.315 52.0128C124.356 52.4924 123.397 52.812 122.278 52.9719C120.999 53.1317 119.88 53.2916 118.601 53.2916C117.483 53.2916 116.364 53.2916 115.245 53.1317C114.286 52.9719 113.327 52.812 112.527 52.4924C111.728 52.1727 111.089 51.6932 110.609 51.0538C110.13 50.4144 109.81 49.6152 109.97 48.6562H116.683C116.683 48.9759 116.843 49.4554 117.163 49.6152C117.642 49.9349 118.122 49.9349 118.601 49.9349C118.921 49.9349 119.081 49.9349 119.401 49.9349C119.88 49.9349 120.36 49.4554 120.679 48.9759C120.839 48.6562 120.839 48.1767 120.839 47.857V44.6602H120.679C120.2 45.6192 119.56 46.2586 118.601 46.5783C117.642 46.898 116.683 47.0578 115.724 47.0578C114.925 47.0578 114.126 46.898 113.487 46.7381C112.687 46.5783 111.888 46.0988 111.409 45.4594C110.769 44.82 110.13 43.861 109.81 42.902C109.331 41.4634 109.171 40.0248 109.171 38.5863C109.171 37.1477 109.331 35.869 109.65 34.5903C109.97 33.6312 110.29 32.6722 111.089 32.0328C111.728 31.3935 112.368 30.9139 113.327 30.5943C114.286 30.2746 115.245 30.1147 116.204 30.1147C117.163 30.1147 118.282 30.2746 119.081 30.7541C120.04 31.2336 120.679 32.0328 120.999 32.832H121.159V30.4344H127.872V31.0738ZM116.523 41.1437C116.523 41.6232 116.683 42.1028 117.003 42.4224C117.163 42.7421 117.323 42.902 117.642 43.0618C117.962 43.2216 118.282 43.2216 118.601 43.2216C118.921 43.2216 119.241 43.2216 119.56 43.0618C119.88 42.902 120.04 42.7421 120.2 42.4224C120.36 41.9429 120.519 41.6232 120.519 41.1437C120.679 40.5044 120.679 39.7052 120.679 39.0658C120.679 38.4264 120.679 37.6272 120.519 36.9879C120.519 36.5084 120.36 36.0288 120.2 35.7092C120.04 35.3895 119.88 35.2296 119.56 35.0698C119.241 34.9099 118.921 34.91 118.601 34.91C118.282 34.91 117.962 34.9099 117.642 35.0698C117.323 35.2296 117.163 35.3895 117.003 35.7092C116.843 36.1887 116.683 36.5084 116.523 36.9879C116.364 37.6272 116.364 38.4264 116.364 39.0658C116.364 39.7052 116.364 40.5044 116.523 41.1437Z" fill="white"/>
<path d="M135.864 25.7991V29.9549H128.352V25.7991H135.864ZM135.864 31.0738V47.857H128.352V31.0738H135.864Z" fill="white"/>
<path d="M147.373 36.0287C147.373 35.7091 147.213 35.3894 147.053 34.9099C146.733 34.4303 146.254 34.2705 145.455 34.2705C145.135 34.2705 144.655 34.2705 144.336 34.4303C144.016 34.5902 143.696 34.9099 143.696 35.2295C143.536 35.7091 143.377 36.3484 143.377 36.8279C143.377 37.4673 143.217 38.4263 143.217 39.3854C143.217 40.3444 143.217 41.3035 143.377 41.9428C143.377 42.4223 143.536 43.0617 143.696 43.5412C143.856 43.8609 144.016 44.1806 144.336 44.3404C144.655 44.6601 144.975 44.6601 145.455 44.6601C146.094 44.6601 146.573 44.5003 147.053 44.0207C147.373 43.7011 147.692 42.9019 147.692 41.783V40.6641H154.406C154.406 41.783 154.246 42.9019 153.926 44.0207C153.606 44.9798 153.127 45.779 152.328 46.2585C150.889 47.3774 148.651 47.8569 145.455 47.8569C144.176 47.8569 142.737 47.6971 141.459 47.5372C140.34 47.3774 139.381 46.8979 138.422 46.4183C137.622 45.779 136.823 44.8199 136.503 43.8609C136.024 42.742 135.864 41.3035 135.864 39.5452C135.864 37.6271 136.184 36.0287 136.663 34.75C137.143 33.6311 137.782 32.6721 138.741 32.0327C139.7 31.3934 140.819 30.9138 141.938 30.754C143.217 30.5942 144.496 30.4343 145.934 30.4343C147.373 30.4343 148.651 30.5942 150.09 30.9139C151.049 31.2335 152.008 31.713 152.647 32.3524C153.287 32.9918 153.766 33.791 154.086 34.5902C154.406 35.5492 154.565 36.5083 154.406 37.4673H147.692C147.532 37.1476 147.532 36.5083 147.373 36.0287Z" fill="white"/>
<path d="M90.7892 25.7991V47.857H83.2767V25.7991H90.7892Z" fill="#3CD52E"/>
<path d="M109.49 42.7421C109.331 43.7011 108.851 44.6602 108.212 45.6192C107.413 46.5783 106.454 47.2176 105.335 47.5373C104.056 48.0168 102.458 48.1767 100.38 48.1767C98.1418 48.1767 96.5434 48.0168 95.2647 47.5373C94.1458 47.2176 93.1868 46.5783 92.3876 45.6192C91.7482 44.82 91.2687 43.861 91.1089 42.9019C90.949 41.7831 90.7892 40.6642 90.7892 39.5453C90.7892 38.4264 90.949 37.3075 91.1089 36.3485C91.2687 35.3894 91.7482 34.2706 92.3876 33.4714C93.1868 32.5123 94.1458 31.873 95.2647 31.3934C96.5434 30.9139 98.1418 30.5942 100.22 30.5942C102.458 30.5942 104.056 30.7541 105.335 31.2336C106.454 31.5533 107.413 32.1926 108.212 33.1517C108.851 33.9509 109.331 34.9099 109.49 36.0288C109.65 37.1477 109.81 38.2666 109.81 39.3854C109.81 40.5043 109.65 41.6232 109.49 42.7421ZM98.3017 42.1027C98.3017 42.5823 98.4615 43.2216 98.6214 43.7011C98.7812 44.0208 98.941 44.3405 99.2607 44.5003C99.5804 44.6602 99.9001 44.6602 100.22 44.6602C100.539 44.6602 100.859 44.6602 101.179 44.5003C101.498 44.3405 101.658 44.0208 101.818 43.7011C101.978 43.2216 102.138 42.5823 102.138 42.1027C102.138 41.4634 102.298 40.5043 102.298 39.5453C102.298 38.4264 102.298 37.6272 102.138 36.9878C102.138 36.5083 101.978 35.869 101.818 35.3894C101.658 35.0698 101.498 34.7501 101.179 34.5902C100.859 34.4304 100.539 34.4304 100.22 34.4304C99.9001 34.4304 99.5804 34.4304 99.2607 34.5902C98.941 34.7501 98.7812 35.0698 98.6214 35.3894C98.4615 35.869 98.3017 36.5083 98.3017 36.9878C98.3017 37.6272 98.1418 38.5862 98.1418 39.5453C98.1418 40.5043 98.1418 41.4634 98.3017 42.1027Z" fill="#3CD52E"/>
<path d="M127.872 31.0738V47.5373C127.872 48.4964 127.712 49.4554 127.233 50.2546C126.753 51.0538 126.114 51.6932 125.315 52.0128C124.356 52.4924 123.397 52.812 122.278 52.9719C120.999 53.1317 119.88 53.2916 118.601 53.2916C117.483 53.2916 116.364 53.2916 115.245 53.1317C114.286 52.9719 113.327 52.812 112.527 52.4924C111.728 52.1727 111.089 51.6932 110.609 51.0538C110.13 50.4144 109.81 49.6152 109.97 48.6562H116.683C116.683 48.9759 116.843 49.4554 117.163 49.6152C117.642 49.9349 118.122 49.9349 118.601 49.9349C118.921 49.9349 119.081 49.9349 119.401 49.9349C119.88 49.9349 120.36 49.4554 120.679 48.9759C120.839 48.6562 120.839 48.1767 120.839 47.857V44.6602H120.679C120.2 45.6192 119.56 46.2586 118.601 46.5783C117.642 46.898 116.683 47.0578 115.724 47.0578C114.925 47.0578 114.126 46.898 113.487 46.7381C112.687 46.5783 111.888 46.0988 111.409 45.4594C110.769 44.82 110.13 43.861 109.81 42.902C109.331 41.4634 109.171 40.0248 109.171 38.5863C109.171 37.1477 109.331 35.869 109.65 34.5903C109.97 33.6312 110.29 32.6722 111.089 32.0328C111.728 31.3935 112.368 30.9139 113.327 30.5943C114.286 30.2746 115.245 30.1147 116.204 30.1147C117.163 30.1147 118.282 30.2746 119.081 30.7541C120.04 31.2336 120.679 32.0328 120.999 32.832H121.159V30.4344H127.872V31.0738ZM116.523 41.1437C116.523 41.6232 116.683 42.1028 117.003 42.4224C117.163 42.7421 117.323 42.902 117.642 43.0618C117.962 43.2216 118.282 43.2216 118.601 43.2216C118.921 43.2216 119.241 43.2216 119.56 43.0618C119.88 42.902 120.04 42.7421 120.2 42.4224C120.36 41.9429 120.519 41.6232 120.519 41.1437C120.679 40.5044 120.679 39.7052 120.679 39.0658C120.679 38.4264 120.679 37.6272 120.519 36.9879C120.519 36.5084 120.36 36.0288 120.2 35.7092C120.04 35.3895 119.88 35.2296 119.56 35.0698C119.241 34.9099 118.921 34.91 118.601 34.91C118.282 34.91 117.962 34.9099 117.642 35.0698C117.323 35.2296 117.163 35.3895 117.003 35.7092C116.843 36.1887 116.683 36.5084 116.523 36.9879C116.364 37.6272 116.364 38.4264 116.364 39.0658C116.364 39.7052 116.364 40.5044 116.523 41.1437Z" fill="#3CD52E"/>
<path d="M135.864 25.7991V29.9549H128.352V25.7991H135.864ZM135.864 31.0738V47.857H128.352V31.0738H135.864Z" fill="#3CD52E"/>
<path d="M147.373 36.0287C147.373 35.7091 147.213 35.3894 147.053 34.9099C146.733 34.4303 146.254 34.2705 145.455 34.2705C145.135 34.2705 144.655 34.2705 144.336 34.4303C144.016 34.5902 143.696 34.9099 143.696 35.2295C143.536 35.7091 143.377 36.3484 143.377 36.8279C143.377 37.4673 143.217 38.4263 143.217 39.3854C143.217 40.3444 143.217 41.3035 143.377 41.9428C143.377 42.4223 143.536 43.0617 143.696 43.5412C143.856 43.8609 144.016 44.1806 144.336 44.3404C144.655 44.6601 144.975 44.6601 145.455 44.6601C146.094 44.6601 146.573 44.5003 147.053 44.0207C147.373 43.7011 147.692 42.9019 147.692 41.783V40.6641H154.406C154.406 41.783 154.246 42.9019 153.926 44.0207C153.606 44.9798 153.127 45.779 152.328 46.2585C150.889 47.3774 148.651 47.8569 145.455 47.8569C144.176 47.8569 142.737 47.6971 141.459 47.5372C140.34 47.3774 139.381 46.8979 138.422 46.4183C137.622 45.779 136.823 44.8199 136.503 43.8609C136.024 42.742 135.864 41.3035 135.864 39.5452C135.864 37.6271 136.184 36.0287 136.663 34.75C137.143 33.6311 137.782 32.6721 138.741 32.0327C139.7 31.3934 140.819 30.9138 141.938 30.754C143.217 30.5942 144.496 30.4343 145.934 30.4343C147.373 30.4343 148.651 30.5942 150.09 30.9139C151.049 31.2335 152.008 31.713 152.647 32.3524C153.287 32.9918 153.766 33.791 154.086 34.5902C154.406 35.5492 154.565 36.5083 154.406 37.4673H147.692C147.532 37.1476 147.532 36.5083 147.373 36.0287Z" fill="#3CD52E"/>
<path d="M83.1169 40.8242V38.7463C83.1169 37.4675 82.957 36.029 82.4775 34.7502C82.1578 33.7912 81.5185 32.8322 80.7193 32.033C79.9201 31.3936 78.8012 30.9141 77.6823 30.5944C74.965 29.955 72.0879 30.1149 69.2108 30.5944C68.0919 30.9141 66.973 31.3936 66.014 32.1928C65.2148 32.992 64.5754 33.951 64.2557 35.0699C63.7762 36.5085 63.6164 37.9471 63.6164 39.2258C63.6164 40.1848 63.6164 41.1439 63.7762 42.1029L60.7393 37.7872L67.2927 30.4346H58.1818L54.6653 35.3896V25H46.3536V33.6314C46.3536 33.6314 46.3536 33.4715 46.1938 33.1518C45.7143 32.3526 45.0749 31.7133 44.2757 31.3936C43.3167 30.9141 42.3576 30.5944 41.3986 30.4346C39.3207 30.1149 37.0829 30.1149 35.005 30.4346C34.046 30.5944 33.0869 30.9141 32.1279 31.2338C31.3287 31.5534 30.6893 32.033 30.2098 32.6723V30.5944H27.3327V25.6394H19.021V30.5944H16.6234V31.8731C15.1848 30.7542 12.7872 30.2747 9.75025 30.2747C7.99201 30.2747 6.55345 30.2747 5.27472 30.5944C4.31568 30.9141 3.1968 31.2338 2.3976 31.8731C1.5984 32.3526 1.11888 32.992 0.639361 33.6314C0.15984 34.2707 0 35.0699 0 35.8691C0 36.8282 0.31968 37.9471 0.959041 38.7463C1.5984 39.3856 2.23776 40.025 3.03696 40.5045C3.83616 40.984 4.7952 41.3037 5.75425 41.4635C6.71329 41.6234 7.51249 41.9431 8.31169 42.1029C8.95105 42.2627 9.59041 42.4226 10.2298 42.7423C10.7093 43.0619 10.8691 43.2218 10.8691 43.5415C10.8691 43.8611 10.7093 44.1808 10.3896 44.1808C10.0699 44.3407 9.59041 44.5005 9.11089 44.5005C8.63137 44.5005 8.15185 44.3407 7.83217 44.021C7.67233 43.8611 7.51249 43.7013 7.51249 43.5415C7.51249 43.2218 7.35265 43.0619 7.35265 42.7423V42.2627H0V42.7423C0 44.6603 0.799201 46.2587 2.23776 47.2178C3.67632 48.1768 5.91409 48.6563 9.27073 48.6563C10.5495 48.6563 11.8282 48.4965 13.1069 48.3367C14.2258 48.1768 15.1848 47.6973 15.984 47.2178C16.7832 46.7383 17.4226 46.0989 17.9021 45.2997C18.3816 44.5005 18.5415 43.7013 18.5415 42.7423C18.5415 41.7832 18.2218 40.6643 17.5824 39.8651C16.9431 39.2258 16.3037 38.5864 15.5045 38.2667C14.7053 37.7872 13.7463 37.6274 12.7872 37.3077C11.8282 37.1479 11.029 36.8282 10.2298 36.6683C9.59041 36.5085 8.95105 36.3486 8.31169 36.029C7.83217 35.8691 7.83217 35.5495 7.83217 35.3896C7.83217 35.0699 7.99201 34.9101 8.15185 34.7502C8.47153 34.5904 8.95105 34.4306 9.27073 34.4306C9.75025 34.4306 10.0699 34.4306 10.5494 34.7502C10.8691 34.9101 10.8691 35.3896 10.8691 35.8691V36.3486H18.2218V35.8691C18.2218 35.7093 18.2218 35.3896 18.2218 35.2298H18.7013V43.7013C18.7013 44.5005 18.8611 45.2997 19.021 46.0989C19.3407 46.7383 19.6603 47.2178 20.2997 47.5375C20.9391 47.8571 21.7383 48.017 22.3776 48.1768C23.1768 48.1768 24.1359 48.3367 25.2547 48.3367C25.8941 48.3367 26.5335 48.3367 27.3327 48.3367C27.972 48.3367 28.7712 48.3367 29.4106 48.3367H29.8901V47.6973C30.3696 48.017 30.8491 48.1768 31.3287 48.3367C32.2877 48.6563 33.2468 48.6563 34.3656 48.6563C35.4845 48.6563 36.6034 48.4965 37.5624 48.017C38.2018 47.8571 38.6813 47.3776 39.1608 46.8981V47.0579C39.1608 47.3776 39.3207 47.6973 39.4805 48.017L39.6404 48.3367H54.8252V43.7013L55.6244 42.7423L59.1409 48.1768H68.0919L67.6124 47.5375C68.0919 47.6973 68.5714 47.8571 68.8911 48.017C70.3297 48.3367 71.9281 48.4965 73.5265 48.4965C76.7233 48.4965 78.961 48.017 80.3996 46.8981C81.8382 45.7792 82.6374 44.021 82.6374 41.9431V41.4635H75.1249V41.9431C75.1249 43.2218 74.8052 43.7013 74.6454 44.021C74.3257 44.3407 73.8462 44.5005 73.3666 44.5005C72.8871 44.5005 72.5674 44.3407 72.2477 44.1808C71.9281 43.8611 71.7682 43.2218 71.7682 42.7423V40.984L83.1169 40.8242ZM73.6863 34.4306C74.3257 34.4306 74.8052 34.5904 74.965 34.9101C75.2847 35.3896 75.4445 36.029 75.2847 36.6683V36.988H72.0879V36.6683C72.0879 36.029 72.0879 35.5495 72.4076 34.9101C72.7273 34.5904 73.047 34.4306 73.6863 34.4306ZM35.964 36.6683V36.1888C35.964 35.2298 36.2837 34.9101 36.2837 34.7502C36.6034 34.4306 37.0829 34.4306 37.5624 34.4306C38.8412 34.4306 39.001 35.0699 39.001 35.5494C39.001 35.8691 38.8412 36.1888 38.6813 36.3486C38.2018 36.6683 37.7223 36.8282 37.2428 36.8282L34.3656 37.3077C33.4066 37.4675 32.2877 37.7872 31.3287 38.1069C30.5295 38.4266 29.8901 38.7463 29.2507 39.2258C28.7712 39.7053 28.2917 40.1848 28.1319 40.984C27.972 41.6234 27.8122 42.4226 27.8122 43.2218C27.8122 43.3816 27.8122 43.3816 27.8122 43.5415C27.6523 43.5415 27.4925 43.3816 27.3327 43.3816C27.3327 43.3816 27.013 43.2218 27.013 42.7423V35.2298H28.7712C28.7712 35.5494 28.7712 35.8691 28.7712 36.1888V36.6683H35.964ZM36.1239 41.6234C36.4436 41.3037 36.7632 41.1439 37.0829 40.984C37.5624 40.8242 38.042 40.6643 38.5215 40.6643C38.6813 40.6643 39.001 40.6643 39.1608 40.5045V41.7832C39.1608 42.5824 39.001 43.2218 38.6813 43.5415C38.3616 43.8611 37.8821 44.021 37.2428 44.021C36.6034 44.021 35.964 43.5415 35.8042 42.9021V42.7423C35.8042 42.4226 35.8042 41.9431 36.1239 41.6234Z" fill="black"/>
<path d="M7.03299 43.5416C7.03299 43.8613 7.19283 44.0211 7.51251 44.181C7.99203 44.6605 8.47155 44.8203 9.11091 44.8203C9.59043 44.8203 10.2298 44.6605 10.5495 44.5007C11.029 44.3408 11.1888 44.0211 11.1888 43.5416C11.1888 43.0621 10.8692 42.5826 10.3896 42.4227C9.75027 42.103 9.11091 41.9432 8.31171 41.7834C7.51251 41.6235 6.71331 41.3038 5.75427 41.144C4.79523 40.9842 3.99603 40.6645 3.19683 40.185C2.39762 39.8653 1.75826 39.2259 1.1189 38.5866C0.479542 37.7874 0.319702 36.9882 0.319702 36.0291C0.319702 35.2299 0.479542 34.5906 0.799223 33.9512C1.27874 33.3118 1.75826 32.6725 2.39762 32.3528C3.19683 31.8733 4.15587 31.3938 5.11491 31.2339C6.39363 30.9142 7.67235 30.7544 9.11091 30.7544C14.7053 30.7544 17.5824 32.5126 17.5824 36.0291H11.1888C11.1888 35.3898 11.029 34.7504 10.7093 34.5906C10.2298 34.2709 9.75027 34.111 9.27075 34.2709C8.79123 34.2709 8.31171 34.4307 7.83219 34.5906C7.51251 34.7504 7.35267 35.2299 7.35267 35.5496C7.35267 36.0291 7.67235 36.5086 8.15187 36.6685C8.79123 36.6685 9.59043 36.9882 10.2298 37.148C11.029 37.3078 11.8282 37.4677 12.7872 37.7874C13.7463 37.9472 14.5455 38.2669 15.3447 38.7464C16.1439 39.0661 16.7832 39.7054 17.4226 40.3448C18.062 41.144 18.2218 41.9432 18.2218 42.9023C18.2218 43.7015 18.062 44.5006 17.5824 45.14C17.1029 45.7794 16.4636 46.4187 15.8242 46.8983C15.025 47.3778 14.066 47.8573 12.9471 48.0171C11.6684 48.3368 10.3896 48.3368 9.11091 48.3368C6.07395 48.3368 3.83619 47.8573 2.39762 46.8983C0.959063 45.9392 0.319702 44.6605 0.319702 42.7424H6.87315C7.03299 43.0621 7.03299 43.2219 7.03299 43.5416Z" fill="#3CD52E"/>
<path d="M19.1808 31.0737V26.1187H26.6933V31.0737H29.5704V34.9099H26.6933V42.9019C26.6933 43.2215 26.8531 43.7011 27.1728 43.8609C27.6523 44.0207 27.972 44.1806 28.4515 44.1806H29.5704V47.8569C28.9311 47.8569 28.1319 47.8569 27.4925 47.8569C26.8531 47.8569 26.2138 47.8569 25.5744 47.8569C24.4555 47.8569 23.4965 47.8569 22.6973 47.6971C22.0579 47.6971 21.4186 47.5372 20.7792 47.2176C20.2997 46.8979 19.8202 46.4184 19.6603 45.9388C19.3406 45.1396 19.3406 44.5003 19.3406 43.7011V34.75H16.7832V30.9139H19.1808V31.0737Z" fill="#3CD52E"/>
<path d="M39.6404 47.0581C39.6404 46.7384 39.4806 46.4187 39.4806 46.0991H39.3208C38.8412 46.8983 38.2019 47.5376 37.4027 47.6975C36.4436 48.0171 35.3248 48.3368 34.3657 48.3368C33.4067 48.3368 32.4476 48.177 31.4886 48.0171C30.8492 47.8573 30.05 47.5376 29.5705 47.0581C29.091 46.5786 28.7713 46.0991 28.4516 45.4597C28.2918 44.8203 28.132 44.181 28.132 43.5416C28.132 42.9022 28.2918 42.103 28.4516 41.4637C28.6115 40.8243 28.9312 40.3448 29.4107 40.0251C30.05 39.5456 30.6894 39.2259 31.3288 38.9062C32.2878 38.5866 33.2468 38.2669 34.3657 38.107L37.2428 37.6275C37.8822 37.6275 38.3617 37.3078 39.0011 36.9882C39.3208 36.6685 39.4806 36.189 39.4806 35.7094C39.4806 34.7504 38.8412 34.111 37.5625 34.111C36.9232 34.111 36.4436 34.2709 35.9641 34.5906C35.6444 34.9102 35.4846 35.5496 35.4846 36.3488H29.091C29.091 35.2299 29.4107 34.2709 29.8902 33.4717C30.5296 32.6725 31.1689 32.193 31.9681 31.7134C32.9272 31.2339 33.7264 31.0741 34.6854 30.9142C35.6444 30.7544 36.6035 30.7544 37.4027 30.7544C38.6814 30.7544 39.8003 30.7544 40.9192 30.9142C41.8782 31.0741 42.8373 31.3938 43.7963 31.7134C44.5955 32.0331 45.2349 32.6725 45.5545 33.3118C46.0341 34.111 46.1939 35.0701 46.1939 36.0291V44.181C46.1939 44.8203 46.1939 45.6195 46.3537 46.2589C46.3537 46.7384 46.6734 47.3778 46.9931 47.8573H39.9601C39.8003 47.5376 39.6404 47.2179 39.6404 47.0581ZM39.0011 43.8613C39.3208 43.3818 39.4806 42.7424 39.4806 41.7834V39.7054H39.3208C39.0011 40.0251 38.6814 40.185 38.3617 40.185C37.8822 40.185 37.4027 40.3448 36.9232 40.5046C36.4436 40.6645 35.9641 40.9842 35.6444 41.3038C35.4846 41.7834 35.3248 42.103 35.3248 42.5826C35.3248 43.5416 35.9641 44.3408 36.9232 44.3408C37.083 44.3408 37.083 44.3408 37.2428 44.3408C38.042 44.5006 38.5216 44.3408 39.0011 43.8613Z" fill="#3CD52E"/>
<path d="M54.3456 25.7991V36.9879H54.5055L58.6613 31.2336H66.6533L60.4195 38.1068L67.4525 48.0169H59.4605L55.7842 42.2626L54.3456 43.5413V47.857H46.8331V25.7991H54.3456Z" fill="#3CD52E"/>
<path d="M71.6084 42.5823C71.6084 43.5413 71.7682 44.0208 72.2478 44.3405C72.7273 44.6602 73.2068 44.82 73.6863 44.82C74.3257 44.82 74.8052 44.6602 75.2847 44.1807C75.6044 43.7011 75.9241 43.0618 75.9241 41.9429H82.6374C82.6374 44.0208 81.8382 45.6192 80.5594 46.5783C79.2807 47.6971 77.043 48.1767 73.8462 48.1767C72.4076 48.1767 70.8092 48.0168 69.3706 47.6971C68.2518 47.5373 67.2927 46.8979 66.4935 46.2586C65.6943 45.4594 65.2148 44.5003 64.8951 43.5413C64.5754 42.2626 64.4156 40.824 64.4156 39.5453C64.4156 38.1067 64.5754 36.828 64.8951 35.3894C65.2148 34.2706 65.8542 33.4714 66.6534 32.6722C67.4526 31.873 68.5714 31.3934 69.6903 31.0738C72.4076 30.4344 75.2847 30.4344 78.002 31.0738C78.961 31.2336 79.9201 31.7131 80.8791 32.3525C81.6783 32.9918 82.3177 33.9509 82.6374 34.9099C83.1169 36.1886 83.2767 37.4674 83.2767 38.7461V40.5043H72.2478V42.5823H71.6084ZM75.2847 34.7501C74.965 34.2706 74.4855 34.1107 73.6863 34.1107C72.8871 34.1107 72.4076 34.2706 72.0879 34.7501C71.7682 35.2296 71.6084 35.869 71.6084 36.6682V37.4674H75.7642V36.6682C75.7642 35.7091 75.6044 35.0698 75.2847 34.7501Z" fill="#3CD52E"/>
<g opacity="0.5">
<path opacity="0.5" d="M7.03299 43.5416C7.03299 43.8613 7.19283 44.0211 7.51251 44.181C7.99203 44.6605 8.47155 44.8203 9.11091 44.8203C9.59043 44.8203 10.2298 44.6605 10.5495 44.5007C11.029 44.3408 11.1888 44.0211 11.1888 43.5416C11.1888 43.0621 10.8692 42.5826 10.3896 42.4227C9.75027 42.103 9.11091 41.9432 8.31171 41.7834C7.51251 41.6235 6.71331 41.3038 5.75427 41.144C4.79523 40.9842 3.99603 40.6645 3.19683 40.185C2.39762 39.8653 1.75826 39.2259 1.1189 38.5866C0.479542 37.7874 0.319702 36.9882 0.319702 36.0291C0.319702 35.2299 0.479542 34.5906 0.799223 33.9512C1.27874 33.3118 1.75826 32.6725 2.39762 32.3528C3.19683 31.8733 4.15587 31.3938 5.11491 31.2339C6.39363 30.9142 7.67235 30.7544 9.11091 30.7544C14.7053 30.7544 17.5824 32.5126 17.5824 36.0291H11.1888C11.1888 35.3898 11.029 34.7504 10.7093 34.5906C10.2298 34.2709 9.75027 34.111 9.27075 34.2709C8.79123 34.2709 8.31171 34.4307 7.83219 34.5906C7.51251 34.7504 7.35267 35.2299 7.35267 35.5496C7.35267 36.0291 7.67235 36.5086 8.15187 36.6685C8.79123 36.6685 9.59043 36.9882 10.2298 37.148C11.029 37.3078 11.8282 37.4677 12.7872 37.7874C13.7463 37.9472 14.5455 38.2669 15.3447 38.7464C16.1439 39.0661 16.7832 39.7054 17.4226 40.3448C18.062 41.144 18.2218 41.9432 18.2218 42.9023C18.2218 43.7015 18.062 44.5006 17.5824 45.14C17.1029 45.7794 16.4636 46.4187 15.8242 46.8983C15.025 47.3778 14.066 47.8573 12.9471 48.0171C11.6684 48.3368 10.3896 48.3368 9.11091 48.3368C6.07395 48.3368 3.83619 47.8573 2.39762 46.8983C0.959063 45.9392 0.319702 44.6605 0.319702 42.7424H6.87315C7.03299 43.0621 7.03299 43.2219 7.03299 43.5416Z" fill="black"/>
<path opacity="0.5" d="M19.1808 31.0737V26.1187H26.6933V31.0737H29.5704V34.9099H26.6933V42.9019C26.6933 43.2215 26.8531 43.7011 27.1728 43.8609C27.6523 44.0207 27.972 44.1806 28.4515 44.1806H29.5704V47.8569C28.9311 47.8569 28.1319 47.8569 27.4925 47.8569C26.8531 47.8569 26.2138 47.8569 25.5744 47.8569C24.4555 47.8569 23.4965 47.8569 22.6973 47.6971C22.0579 47.6971 21.4186 47.5372 20.7792 47.2176C20.2997 46.8979 19.8202 46.4184 19.6603 45.9388C19.3406 45.1396 19.3406 44.5003 19.3406 43.7011V34.75H16.7832V30.9139H19.1808V31.0737Z" fill="black"/>
<path opacity="0.5" d="M39.6404 47.0581C39.6404 46.7384 39.4806 46.4187 39.4806 46.0991H39.3208C38.8412 46.8983 38.2019 47.5376 37.4027 47.6975C36.4436 48.0171 35.3248 48.3368 34.3657 48.3368C33.4067 48.3368 32.4476 48.177 31.4886 48.0171C30.8492 47.8573 30.05 47.5376 29.5705 47.0581C29.091 46.5786 28.7713 46.0991 28.4516 45.4597C28.2918 44.8203 28.132 44.181 28.132 43.5416C28.132 42.9022 28.2918 42.103 28.4516 41.4637C28.6115 40.8243 28.9312 40.3448 29.4107 40.0251C30.05 39.5456 30.6894 39.2259 31.3288 38.9062C32.2878 38.5866 33.2468 38.2669 34.3657 38.107L37.2428 37.6275C37.8822 37.6275 38.3617 37.3078 39.0011 36.9882C39.3208 36.6685 39.4806 36.189 39.4806 35.7094C39.4806 34.7504 38.8412 34.111 37.5625 34.111C36.9232 34.111 36.4436 34.2709 35.9641 34.5906C35.6444 34.9102 35.4846 35.5496 35.4846 36.3488H29.091C29.091 35.2299 29.4107 34.2709 29.8902 33.4717C30.5296 32.6725 31.1689 32.193 31.9681 31.7134C32.9272 31.2339 33.7264 31.0741 34.6854 30.9142C35.6444 30.7544 36.6035 30.7544 37.4027 30.7544C38.6814 30.7544 39.8003 30.7544 40.9192 30.9142C41.8782 31.0741 42.8373 31.3938 43.7963 31.7134C44.5955 32.0331 45.2349 32.6725 45.5545 33.3118C46.0341 34.111 46.1939 35.0701 46.1939 36.0291V44.181C46.1939 44.8203 46.1939 45.6195 46.3537 46.2589C46.3537 46.7384 46.6734 47.3778 46.9931 47.8573H39.9601C39.8003 47.5376 39.6404 47.2179 39.6404 47.0581ZM39.0011 43.8613C39.3208 43.3818 39.4806 42.7424 39.4806 41.7834V39.7054H39.3208C39.0011 40.0251 38.6814 40.185 38.3617 40.185C37.8822 40.185 37.4027 40.3448 36.9232 40.5046C36.4436 40.6645 35.9641 40.9842 35.6444 41.3038C35.4846 41.7834 35.3248 42.103 35.3248 42.5826C35.3248 43.5416 35.9641 44.3408 36.9232 44.3408C37.083 44.3408 37.083 44.3408 37.2428 44.3408C38.042 44.5006 38.5216 44.3408 39.0011 43.8613Z" fill="black"/>
<path opacity="0.5" d="M54.3456 25.7991V36.9879H54.5055L58.6613 31.2336H66.6533L60.4195 38.1068L67.4525 48.0169H59.4605L55.7842 42.2626L54.3456 43.5413V47.857H46.8331V25.7991H54.3456Z" fill="black"/>
<path opacity="0.5" d="M71.6084 42.5823C71.6084 43.5413 71.7682 44.0208 72.2478 44.3405C72.7273 44.6602 73.2068 44.82 73.6863 44.82C74.3257 44.82 74.8052 44.6602 75.2847 44.1807C75.6044 43.7011 75.9241 43.0618 75.9241 41.9429H82.6374C82.6374 44.0208 81.8382 45.6192 80.5594 46.5783C79.2807 47.6971 77.043 48.1767 73.8462 48.1767C72.4076 48.1767 70.8092 48.0168 69.3706 47.6971C68.2518 47.5373 67.2927 46.8979 66.4935 46.2586C65.6943 45.4594 65.2148 44.5003 64.8951 43.5413C64.5754 42.2626 64.4156 40.824 64.4156 39.5453C64.4156 38.1067 64.5754 36.828 64.8951 35.3894C65.2148 34.2706 65.8542 33.4714 66.6534 32.6722C67.4526 31.873 68.5714 31.3934 69.6903 31.0738C72.4076 30.4344 75.2847 30.4344 78.002 31.0738C78.961 31.2336 79.9201 31.7131 80.8791 32.3525C81.6783 32.9918 82.3177 33.9509 82.6374 34.9099C83.1169 36.1886 83.2767 37.4674 83.2767 38.7461V40.5043H72.2478V42.5823H71.6084ZM75.2847 34.7501C74.965 34.2706 74.4855 34.1107 73.6863 34.1107C72.8871 34.1107 72.4076 34.2706 72.0879 34.7501C71.7682 35.2296 71.6084 35.869 71.6084 36.6682V37.4674H75.7642V36.6682C75.7642 35.7091 75.6044 35.0698 75.2847 34.7501Z" fill="black"/>
</g>
<path d="M154.565 54.0908H128.192V54.5703H154.565V54.0908Z" fill="white"/>
<path d="M109.65 54.0908H0V54.5703H109.65V54.0908Z" fill="white"/>
<path d="M155.684 28.5164C156.643 27.5574 158.242 27.5574 159.201 28.5164C159.68 28.9959 160 29.6353 160 30.2746C160 30.914 159.68 31.5534 159.361 32.0329C158.402 32.9919 156.803 32.9919 155.844 32.0329C155.365 31.5534 155.045 30.914 155.205 30.2746C155 29.8 155.205 28.9959 155.684 28.5164ZM156.004 31.7132C156.803 32.5124 157.922 32.5124 158.721 31.7132C159.041 31.2337 159.361 30.7542 159.361 30.2746C159.361 29.7951 159.201 29.1558 158.721 28.8361C157.922 28.0369 156.643 28.0369 155.844 28.8361C155.524 29.3156 155.205 29.7951 155.205 30.2746C155.365 30.7542 155.524 31.3935 156.004 31.7132ZM156.484 28.8361H157.602C158.242 28.8361 158.561 29.1558 158.561 29.6353C158.561 29.7951 158.561 30.1148 158.402 30.2746C158.242 30.4345 158.082 30.5943 157.922 30.4345L158.721 31.7132H158.242L157.443 30.4345H156.963V31.7132H156.484V28.8361ZM156.963 30.1148H157.602C157.762 30.1148 157.922 30.1148 158.082 29.955C158.242 29.7951 158.242 29.7951 158.242 29.6353C158.242 29.4754 158.242 29.3156 158.082 29.3156C157.922 29.3156 157.762 29.1558 157.602 29.1558H156.963V30.1148Z" fill="white"/>
</svg>
