<svg width="160" height="80" viewBox="0 0 160 80" fill="none" xmlns="http://www.w3.org/2000/svg">
<g clip-path="url(#clip0)">
<path d="M16.0431 22.6743L14.7062 23.4468V37.2319L16.0431 38.7768V22.6743Z" fill="white"/>
<path d="M19.6825 38.8065V38.5688L19.2963 38.8065L17.1572 40.0395V50.7645L19.6825 52.2203V38.8065Z" fill="white"/>
<path d="M19.6825 37.3062V29.7303H25.8769H32.0713V37.3062L34.151 38.5095L34.5966 38.762V38.5095V22.0356L32.0713 20.5798V28.334H25.8769H19.6825V20.5798L17.1572 22.0356V38.5095V38.762L17.6028 38.5095L19.6825 37.3062Z" fill="white"/>
<path d="M23.3666 33.1914L20.8413 31.7356V35.1076L22.1634 35.8652L23.3666 35.1819V33.1914Z" fill="white"/>
<path d="M20.8413 48.299L23.3666 46.8433V39.1931L25.8771 37.7522L28.3875 39.1931V46.8433L30.9128 48.299V37.9156L27.3328 35.8359L25.8771 36.6827L24.4213 35.8359L20.8413 37.9156V48.299Z" fill="white"/>
<path d="M20.8413 52.8889L23.3666 54.3447V48.1057L20.8413 49.5763V52.8889Z" fill="white"/>
<path d="M18.5979 52.9036V54.2405L25.8767 58.4444L33.1555 54.2405V52.9036L30.9125 54.1811L30.5114 54.4187L25.8767 57.0926L21.2421 54.4187L20.841 54.1811L18.5979 52.9036Z" fill="white"/>
<path d="M1.44073 25.9723H13.5622V23.447H2.8965L1.44073 25.9723Z" fill="white"/>
<path d="M0 28.4677L0.72788 29.7304H11.037V30.9485H1.44091L2.89667 33.4738H13.5623V33.2361V30.9485V29.7304V28.5123V27.2051H0.72788L0 28.4677Z" fill="white"/>
<path d="M5.06528 37.2318H13.5622V34.7065H3.59467L5.06528 37.2318Z" fill="white"/>
<path d="M24.525 39.7725V55.0282L25.8768 55.8007L27.2286 55.0282V39.7725H25.8768H24.525Z" fill="white"/>
<path d="M24.5253 27.1755H25.8771H27.2288H28.3875H30.9128V24.2194V19.9115L28.3875 18.4558V23.7886V24.2194H27.2288V23.1201V17.7873L25.8771 17L24.5253 17.7873V23.1201V24.2194H23.3666V23.7886V18.4558L20.8413 19.9115V24.2194V27.1755H23.3666H24.5253Z" fill="white"/>
<path d="M35.7108 38.7768L37.0477 37.2319V23.4468L35.7108 22.6743V38.7768Z" fill="white"/>
<path d="M25.877 59.7517L16.7265 54.4634L15.2856 56.9738L25.877 63.0791L36.4684 56.9738L35.0275 54.4634L25.877 59.7517Z" fill="white"/>
<path d="M34.5967 40.0395L32.4576 38.8065L32.0714 38.5688V38.8065V52.2203L34.5967 50.7645V40.0395Z" fill="white"/>
<path d="M30.9126 31.7356L28.3873 33.1914V35.1819L29.5905 35.8652L30.9126 35.1076V31.7356Z" fill="white"/>
<path d="M28.3873 54.3447L30.9126 52.8889V49.5763L28.3873 48.1057V54.3447Z" fill="white"/>
<path d="M27.2286 34.6175V31.6911L25.8768 30.9038L24.525 31.6911V34.6175L25.8768 35.4048L27.2286 34.6175Z" fill="white"/>
<path d="M48.857 23.447H38.1914V25.9723H50.3128L48.857 23.447Z" fill="white"/>
<path d="M51.0258 29.7304L51.7537 28.4677L51.0258 27.2051H38.1914V28.5123V29.7304V30.9485V33.2361V33.4738H48.857L50.3128 30.9485H40.7167V29.7304H51.0258Z" fill="white"/>
<path d="M38.1914 37.2318H46.6882L48.1589 34.7065H38.1914V37.2318Z" fill="white"/>
<path d="M59.9981 30.1764H62.0926V32.3749L64.915 34.3654V28.4087H57.0866V34.7219L62.0183 38.1088V41.8671H59.9832V39.3715L57.1163 37.3215V43.8279H63.0285C64.098 43.8279 64.9596 42.9663 64.9596 41.8968V37.173L60.013 33.7118V30.1764H59.9981Z" fill="white"/>
<path d="M68.0048 43.8279H73.2485L72.0601 41.7928V30.2358H72.8029L75.1796 32.0481V28.4087H66.0737V32.0481L68.4653 30.1913H69.208V42.0007L68.0048 43.8279Z" fill="white"/>
<path d="M157.623 30.2358L160 32.0481V28.4087H150.894V32.0481L153.286 30.1913H154.028V42.0007L152.825 43.8279H158.069L156.881 41.7928V30.2358H157.623Z" fill="white"/>
<path d="M84.2854 30.3398C84.2854 29.2703 83.4239 28.4087 82.3543 28.4087H76.3085V41.8968C76.3085 42.9663 77.17 43.8279 78.2396 43.8279H84.2854V30.3398ZM81.3739 41.8819H79.2794V30.2358H81.3739V41.8819Z" fill="white"/>
<path d="M92.53 28.4087H91.5792H89.3659H86.5584H85.5631L86.5732 30.2655V43.8279H89.3808V36.7125L91.5941 38.1979V43.8279H94.4016V37.2027L92.1289 35.7321L94.4016 33.9495V30.2655C94.3868 29.2406 93.5549 28.4087 92.53 28.4087ZM91.5792 33.3999L89.3659 34.9151V30.2655H91.5792V33.3999Z" fill="white"/>
<path d="M129.488 43.8279V37.2027L127.215 35.7321L129.488 33.9495V30.2655C129.488 29.2406 128.656 28.4087 127.631 28.4087H126.681H124.467H121.66H120.65L121.66 30.2655V43.8279H124.467V36.7125L126.681 38.1979V43.8279H129.488ZM124.467 34.9151V30.2655H126.681V33.4147L124.467 34.9151Z" fill="white"/>
<path d="M137.688 28.4087H136.737H134.524H132.682H131.716V43.8279H134.524V38.094L136.737 36.2668V43.813H139.545V30.2655C139.545 29.2406 138.713 28.4087 137.688 28.4087ZM136.737 33.3999L134.524 35.227V30.2655H136.737V33.3999Z" fill="white"/>
<path d="M114.455 28.4087H111.648H110.653L111.648 30.2655V43.8279H114.455H117.189H119.268V41.7482V40.2925L117.204 41.7482H114.455V30.2655H116.461V32.1669L119.268 34.2912V30.2655V28.4087H116.461H114.455Z" fill="white"/>
<path d="M144.803 28.4087H142.011H141.001L142.011 30.2655V41.8968L141.105 43.8279H145.71L144.803 41.8968V38.0791L147.566 35.8212L144.803 33.4444V30.2655H146.824V32.1669L149.631 34.2912V30.2655V28.4087H146.824H144.803Z" fill="white"/>
<path d="M109.375 43.8279V30.2655C109.375 29.2406 108.543 28.4087 107.518 28.4087H106.567H102.661H101.71H100.551H99.5115H96.704H95.6938L96.704 30.2655V43.8279H99.5115V30.2655H101.561H101.725V43.8279H104.532V30.2655H106.582V43.8279H109.375Z" fill="white"/>
<path d="M74.9716 49.7402H73.9169C73.5455 49.7402 73.397 49.6659 73.3376 49.6065C73.2781 49.5471 73.2039 49.3837 73.2039 49.0271C73.2039 48.6706 73.2781 48.5221 73.3376 48.4478C73.397 48.3884 73.5455 48.3141 73.9169 48.3141H74.927C75.1647 48.3141 75.3281 48.3438 75.4321 48.3884C75.5212 48.4329 75.5806 48.5072 75.6103 48.6261C75.6252 48.7598 75.6846 48.8786 75.7589 48.9529C75.848 49.042 75.9669 49.0866 76.1154 49.0866C76.2788 49.0866 76.4125 49.042 76.5016 48.9529C76.5907 48.8489 76.6353 48.7152 76.6056 48.5518C76.5313 48.1359 76.3531 47.8239 76.056 47.6159C75.7737 47.408 75.3875 47.3188 74.9122 47.3188H73.902C73.3227 47.3188 72.8919 47.4674 72.6097 47.7496C72.3274 48.0319 72.1789 48.4627 72.1789 49.042C72.1789 49.6065 72.3274 50.0521 72.6097 50.3343C72.8919 50.6166 73.3375 50.7651 73.902 50.7651H74.9567C75.2687 50.7651 75.4915 50.8246 75.5955 50.9285C75.6698 51.0028 75.7589 51.1662 75.7589 51.5673C75.7589 51.9535 75.6698 52.1318 75.6103 52.1912C75.5361 52.2655 75.3727 52.3397 74.9716 52.3397H73.7535C73.4861 52.3397 73.293 52.31 73.1741 52.2506C73.0702 52.206 73.0107 52.1021 72.981 51.9535C72.9513 51.805 72.9068 51.6861 72.8325 51.6119C72.7434 51.5227 72.6245 51.4782 72.4611 51.4782C72.2977 51.4782 72.1789 51.5227 72.0897 51.6119C72.0006 51.701 71.9561 51.8347 71.9709 52.0278C72.0452 52.4734 72.2383 52.8151 72.5354 53.0231C72.8325 53.231 73.2336 53.3499 73.7535 53.3499H74.9716C75.5658 53.3499 76.0263 53.2013 76.3234 52.9042C76.6205 52.6071 76.769 52.1615 76.769 51.5524C76.769 50.9434 76.6205 50.4978 76.3234 50.2007C76.0263 49.8887 75.5658 49.7402 74.9716 49.7402Z" fill="white"/>
<path d="M88.014 47.3037H84.0181C83.8547 47.3037 83.7358 47.3483 83.6467 47.4374C83.5576 47.5265 83.513 47.6454 83.513 47.8088C83.513 47.9722 83.5576 48.091 83.6467 48.1801C83.7358 48.2693 83.8547 48.3138 84.0181 48.3138H85.5184V52.8297C85.5184 52.9931 85.5629 53.1119 85.6521 53.201C85.7412 53.2902 85.86 53.3347 86.0234 53.3347C86.1868 53.3347 86.3057 53.2902 86.3948 53.201C86.4839 53.1119 86.5285 52.9931 86.5285 52.8297V48.3138H88.0288C88.1922 48.3138 88.3111 48.2693 88.4002 48.1801C88.4893 48.091 88.5339 47.9722 88.5339 47.8088C88.5339 47.6454 88.4893 47.5265 88.4002 47.4374C88.2962 47.3483 88.1774 47.3037 88.014 47.3037Z" fill="white"/>
<path d="M99.4521 47.3037C99.2887 47.3037 99.1699 47.3483 99.0808 47.4374C98.9916 47.5265 98.9471 47.6454 98.9471 47.8088V51.2996C98.9471 51.5819 98.9174 51.8047 98.8431 51.9532C98.7837 52.0869 98.6945 52.1761 98.5609 52.2355C98.4123 52.2949 98.1895 52.3246 97.9072 52.3246H96.8971C96.6149 52.3246 96.3921 52.2949 96.2435 52.2355C96.1098 52.1761 96.0207 52.0869 95.9613 51.9532C95.9019 51.8047 95.8722 51.5819 95.8722 51.2996V47.8088C95.8722 47.6454 95.8276 47.5265 95.7385 47.4374C95.6493 47.3483 95.5305 47.3037 95.3671 47.3037C95.2037 47.3037 95.0849 47.3483 94.9957 47.4374C94.9066 47.5265 94.862 47.6454 94.862 47.8088V51.2996C94.862 51.983 95.0254 52.5029 95.3671 52.8445C95.7088 53.1862 96.2287 53.3496 96.912 53.3496H97.9221C98.6054 53.3496 99.1253 53.1862 99.467 52.8445C99.8086 52.5029 99.9721 51.9978 99.9721 51.2996V47.8088C99.9721 47.6454 99.9275 47.5265 99.8384 47.4374C99.7492 47.3483 99.6155 47.3037 99.4521 47.3037Z" fill="white"/>
<path d="M110.177 47.3037H108.142C107.815 47.3037 107.637 47.482 107.637 47.8088V52.8445C107.637 53.1713 107.815 53.3496 108.142 53.3496H110.177C110.965 53.3496 111.544 53.1565 111.915 52.7851C112.287 52.4137 112.48 51.8196 112.48 51.0471V49.6062C112.48 48.8337 112.287 48.2544 111.915 47.8682C111.544 47.4968 110.95 47.3037 110.177 47.3037ZM111.47 51.0471C111.47 51.3888 111.425 51.6562 111.351 51.8493C111.276 52.0275 111.158 52.1464 110.979 52.2206C110.786 52.2949 110.519 52.3395 110.177 52.3395H108.647V48.3138H110.177C110.519 48.3138 110.786 48.3584 110.979 48.4327C111.158 48.5069 111.276 48.6258 111.351 48.804C111.425 48.9972 111.47 49.2645 111.47 49.6062V51.0471Z" fill="white"/>
<path d="M120.665 47.3037C120.501 47.3037 120.382 47.3483 120.293 47.4374C120.204 47.5265 120.16 47.6454 120.16 47.8088V52.8297C120.16 52.9931 120.204 53.1119 120.293 53.201C120.382 53.2902 120.501 53.3347 120.665 53.3347C120.828 53.3347 120.962 53.2902 121.036 53.201C121.125 53.1119 121.17 52.9931 121.17 52.8297V47.8088C121.17 47.6454 121.125 47.5117 121.036 47.4374C120.962 47.3483 120.828 47.3037 120.665 47.3037Z" fill="white"/>
<path d="M131.628 47.3037H130.573C129.904 47.3037 129.399 47.4671 129.072 47.7939C128.731 48.1207 128.567 48.6406 128.567 49.3388V51.2996C128.567 51.983 128.731 52.5029 129.072 52.8445C129.414 53.1862 129.934 53.3496 130.617 53.3496H131.628C132.311 53.3496 132.831 53.1862 133.172 52.8445C133.514 52.5029 133.677 51.9978 133.677 51.2996V49.3537C133.677 48.6703 133.514 48.1504 133.172 47.8088C132.831 47.4671 132.326 47.3037 131.628 47.3037ZM132.667 51.2996C132.667 51.5819 132.638 51.8047 132.563 51.9532C132.504 52.0869 132.415 52.1761 132.281 52.2355C132.133 52.2949 131.91 52.3246 131.628 52.3246H130.617C130.335 52.3246 130.112 52.2949 129.964 52.2355C129.83 52.1761 129.741 52.0869 129.682 51.9532C129.622 51.8047 129.592 51.5819 129.592 51.2996V49.3388C129.592 49.0566 129.622 48.8337 129.696 48.6852C129.756 48.5515 129.845 48.4624 129.979 48.403C130.127 48.3435 130.335 48.3138 130.603 48.3138H131.657C131.939 48.3138 132.162 48.3435 132.311 48.4178C132.445 48.4772 132.549 48.5664 132.593 48.7001C132.652 48.8486 132.697 49.0714 132.697 49.3537V51.2996H132.667Z" fill="white"/>
<path d="M143.482 49.7402H142.427C142.055 49.7402 141.907 49.6659 141.848 49.6065C141.788 49.5471 141.714 49.3837 141.714 49.0271C141.714 48.6706 141.788 48.5221 141.848 48.4478C141.907 48.3884 142.055 48.3141 142.427 48.3141H143.437C143.675 48.3141 143.838 48.3438 143.942 48.3884C144.031 48.4329 144.091 48.5072 144.12 48.6261C144.15 48.7598 144.195 48.8786 144.269 48.9529C144.358 49.042 144.477 49.0866 144.625 49.0866C144.789 49.0866 144.922 49.042 145.012 48.9529C145.101 48.8489 145.145 48.7152 145.116 48.5518C145.041 48.1359 144.863 47.8239 144.566 47.6159C144.284 47.408 143.897 47.3188 143.422 47.3188H142.412C141.833 47.3188 141.402 47.4674 141.12 47.7496C140.837 48.0319 140.689 48.4627 140.689 49.042C140.689 49.6065 140.837 50.0521 141.12 50.3343C141.402 50.6166 141.848 50.7651 142.412 50.7651H143.467C143.779 50.7651 144.001 50.8246 144.105 50.9285C144.18 51.0028 144.269 51.1662 144.269 51.5673C144.269 51.9535 144.18 52.1318 144.12 52.1912C144.061 52.2506 143.883 52.3397 143.482 52.3397H142.263C141.996 52.3397 141.803 52.31 141.684 52.2506C141.58 52.206 141.521 52.1021 141.491 51.9535C141.461 51.805 141.417 51.6861 141.342 51.6119C141.253 51.5227 141.134 51.4782 140.971 51.4782C140.808 51.4782 140.689 51.5227 140.6 51.6119C140.511 51.701 140.466 51.8347 140.481 52.0278C140.555 52.4734 140.748 52.8151 141.045 53.0231C141.342 53.231 141.744 53.3499 142.263 53.3499H143.482C144.076 53.3499 144.536 53.2013 144.833 52.9042C145.13 52.6071 145.279 52.1615 145.279 51.5524C145.279 50.9434 145.13 50.4978 144.833 50.2007C144.536 49.8887 144.076 49.7402 143.482 49.7402Z" fill="white"/>
</g>
<defs>
<clipPath id="clip0">
<rect width="160" height="80" fill="white"/>
</clipPath>
</defs>
</svg>
