<svg width="160" height="80" viewBox="0 0 160 80" fill="none" xmlns="http://www.w3.org/2000/svg">
<path d="M34.9092 68.7882C34.7577 68.9397 34.4546 69.0912 34.1516 69.2427C33.8486 69.3943 33.394 69.5458 32.788 69.5458C32.0304 69.5458 31.5758 69.2427 31.1213 68.7882C30.6667 68.3337 30.5152 67.5761 30.5152 66.8185V65.7579C30.5152 65.0003 30.6667 64.3943 31.1213 63.9397C31.5758 63.4852 32.0304 63.1821 32.788 63.1821C33.394 63.1821 34.0001 63.3336 34.3031 63.6367C34.7577 63.9397 34.9092 64.3942 34.9092 65.0003H34.7577C34.7577 64.5458 34.6061 64.0912 34.3031 63.7882C34.0001 63.4852 33.5455 63.3336 32.9395 63.3336C32.3334 63.3336 31.8789 63.4852 31.4243 63.9397C30.9698 64.3943 30.8183 65.0003 30.8183 65.6064V66.667C30.8183 67.4246 30.9698 68.0306 31.4243 68.4852C31.8789 68.9397 32.3334 69.2427 32.9395 69.2427C33.394 69.2427 33.8486 69.2427 34.1516 69.0912C34.4546 68.9397 34.7577 68.7882 34.9092 68.6367V66.8185H32.788V66.5155H34.9092V68.7882Z" fill="white"/>
<path d="M32.788 69.6973C32.0304 69.6973 31.4243 69.3943 30.9698 68.9397C30.5152 68.4852 30.3637 67.7276 30.3637 66.97V65.9094C30.3637 65.1518 30.5152 64.5458 30.9698 63.9397C31.4243 63.4852 32.0304 63.1821 32.6364 63.1821C33.2425 63.1821 33.8486 63.3336 34.3031 63.6367C34.7577 63.9397 34.9092 64.3942 34.9092 65.0003V65.1518H34.6061C34.6061 64.6973 34.4546 64.3943 34.1516 64.0912C33.8486 63.7882 33.394 63.6367 32.788 63.6367C32.1819 63.6367 31.7273 63.7882 31.2728 64.2427C30.9698 64.6973 30.6667 65.3033 30.6667 65.9094V66.97C30.6667 67.7276 30.8183 68.3337 31.2728 68.7882C31.5758 69.2427 32.1819 69.3943 32.788 69.3943C33.2425 69.3943 33.697 69.3943 34.0001 69.2427C34.3031 69.0912 34.6061 68.9397 34.6061 68.7882V67.1215H32.788V66.8185H35.0607V69.0912C34.9092 69.2427 34.6061 69.3943 34.3031 69.6973C33.8486 69.5458 33.394 69.6973 32.788 69.6973ZM32.788 63.3336C32.1819 63.3336 31.5758 63.6367 31.1213 64.0912C30.6667 64.5458 30.5152 65.1518 30.5152 65.9094V66.97C30.5152 67.7276 30.6667 68.3336 31.1213 68.9397C31.5758 69.3943 32.1819 69.6973 32.788 69.6973C33.2425 69.6973 33.697 69.5458 34.1516 69.3943C34.4546 69.2427 34.7577 69.0912 34.9092 68.9397V66.8185H32.9395V66.97H34.7577V68.7882C34.6061 68.9397 34.4546 69.0912 34.0001 69.2427C33.697 69.3943 33.2425 69.3943 32.788 69.3943C32.1819 69.3943 31.5758 69.0912 31.1213 68.6367C30.6667 68.1821 30.5152 67.5761 30.5152 66.8185V65.7579C30.5152 65.0003 30.6667 64.3943 31.1213 63.9397C31.5758 63.6367 32.1819 63.4852 32.788 63.3336C33.394 63.4852 33.8486 63.6367 34.3031 63.9397C34.6061 64.2427 34.7577 64.5458 34.9092 65.1518C34.9092 64.6973 34.7577 64.2427 34.3031 63.9397C33.8486 63.4852 33.394 63.3336 32.788 63.3336Z" fill="white"/>
<path d="M42.0304 67.7277H39.0001L38.2425 69.5459H37.9395L40.2122 63.3337H40.5152L42.788 69.5459H42.4849L42.0304 67.7277ZM39.1516 67.4247H42.0304L40.6668 63.9398L40.5152 63.6368L40.3637 63.9398L39.1516 67.4247Z" fill="white"/>
<path d="M43.091 69.5458H42.6365L42.0304 67.7276H39.1516L38.3941 69.5458H37.9395L40.3638 63.1821H40.6668L43.091 69.5458ZM42.788 69.3943L40.6668 63.3336H40.5153L38.2425 69.3943H38.3941L39.1516 67.5761H42.182L42.788 69.3943ZM42.0304 67.5761H39.0001L40.3638 64.0912L40.5153 63.6367H40.6668L40.8183 64.0912L42.0304 67.5761ZM39.1516 67.4246H41.8789L40.5153 63.7882V63.9397L39.1516 67.4246Z" fill="white"/>
<path d="M46.5759 63.3337L49.1517 69.0913L51.7275 63.3337H52.0305V69.5459H51.7275V63.7883L49.1517 69.5459H49.0002L46.4244 63.7883V69.5459H46.1214V63.3337H46.5759Z" fill="white"/>
<path d="M52.0305 69.5458H51.7275V63.9397L49.3032 69.5458H49.0002L46.5759 63.9397V69.5458H46.2729V63.1821H46.7275L49.1517 68.9397L51.7275 63.1821H52.182V69.5458H52.0305ZM51.7275 69.3943L51.879 63.3336H51.576L49.0002 69.0912H48.8487L46.2729 63.3336H46.1214V69.3943H46.4244V63.6367H46.5759L49.1517 69.3943H49.3032L51.879 63.6367H52.0305V69.3943H51.7275Z" fill="white"/>
<path d="M56.2729 69.5459H55.9698V63.3337H56.2729V69.5459Z" fill="white"/>
<path d="M56.4244 69.5458H56.1213V63.1821H56.4244V69.5458ZM56.1213 69.3943L56.2729 63.3336H56.1213V69.3943Z" fill="white"/>
<path d="M64.9093 69.5459H64.6063L60.6669 63.7883V69.5459H60.3638V63.3337H60.6669L64.6063 69.0913V63.3337H64.9093V69.5459Z" fill="white"/>
<path d="M64.9093 69.5458H64.6062L60.8183 63.9397V69.5458H60.5153V63.1821H60.8183L64.6062 68.7882V63.1821H64.9093V69.5458ZM64.6062 69.3943L64.7577 63.3336H64.6062V69.0912H64.4547L60.5153 63.3336H60.3638V69.3943H60.5153V63.6367H60.6668L64.6062 69.3943Z" fill="white"/>
<path d="M73.0911 68.7882C72.9395 68.9397 72.6365 69.0912 72.3335 69.2427C72.0305 69.3943 71.5759 69.5458 70.9698 69.5458C70.2123 69.5458 69.7577 69.2427 69.3032 68.7882C68.8486 68.3337 68.6971 67.5761 68.6971 66.8185V65.7579C68.6971 65.0003 68.8486 64.3943 69.3032 63.9397C69.7577 63.4852 70.2123 63.1821 70.9698 63.1821C71.5759 63.1821 72.182 63.3336 72.485 63.6367C72.788 63.9397 73.0911 64.3942 73.0911 65.0003H72.9395C72.9395 64.5458 72.788 64.0912 72.485 63.7882C72.182 63.4852 71.7274 63.3336 71.1214 63.3336C70.5153 63.3336 70.0608 63.4852 69.6062 63.9397C69.1517 64.3943 69.0001 65.0003 69.0001 65.6064V66.667C69.0001 67.4246 69.1517 68.0306 69.6062 68.4852C70.0608 68.9397 70.5153 69.2427 71.1214 69.2427C71.5759 69.2427 72.0305 69.2427 72.3335 69.0912C72.6365 68.9397 72.9395 68.7882 73.0911 68.6367V66.8185H71.2729V66.5155H73.3941V68.7882H73.0911Z" fill="white"/>
<path d="M70.9699 69.6973C70.2123 69.6973 69.6063 69.3943 69.1517 68.9397C68.6972 68.4852 68.5457 67.7276 68.5457 66.97V65.9094C68.5457 65.1518 68.6972 64.5458 69.1517 63.9397C69.6063 63.4852 70.2123 63.1821 70.8184 63.1821C71.4244 63.1821 72.0305 63.3336 72.4851 63.6367C72.9396 63.9397 73.0911 64.3942 73.0911 65.0003V65.1518H72.7881C72.7881 64.6973 72.6366 64.3943 72.3335 64.0912C72.0305 63.7882 71.576 63.6367 70.9699 63.6367C70.3638 63.6367 69.9093 63.7882 69.4548 64.2427C69.1517 64.6973 68.8487 65.3033 68.8487 65.9094V66.97C68.8487 67.7276 69.0002 68.3337 69.4548 68.7882C69.7578 69.2427 70.3638 69.3943 70.9699 69.3943C71.4245 69.3943 71.879 69.3943 72.182 69.2427C72.4851 69.0912 72.7881 68.9397 72.7881 68.7882V67.1215H70.9699V66.8185H73.2426V69.0912C73.0911 69.2427 72.7881 69.3943 72.4851 69.6973C72.0305 69.5458 71.576 69.6973 70.9699 69.6973ZM70.9699 63.3336C70.3638 63.3336 69.7578 63.6367 69.3032 64.0912C68.8487 64.5458 68.6972 65.1518 68.6972 65.9094V66.97C68.6972 67.7276 68.8487 68.3336 69.3032 68.9397C69.7578 69.3943 70.3638 69.6973 70.9699 69.6973C71.4245 69.6973 71.879 69.5458 72.3335 69.3943C72.6366 69.2427 72.9396 69.0912 73.0911 68.9397V66.8185H71.1214V66.97H72.9396V68.7882C72.7881 68.9397 72.6366 69.0912 72.182 69.2427C71.879 69.3943 71.4245 69.3943 70.9699 69.3943C70.3638 69.3943 69.7578 69.0912 69.3032 68.6367C68.8487 68.1821 68.6972 67.5761 68.6972 66.8185V65.7579C68.6972 65.0003 68.8487 64.3943 69.3032 63.9397C69.7578 63.6367 70.3638 63.4852 70.9699 63.3336C71.576 63.4852 72.0305 63.6367 72.4851 63.9397C72.7881 64.2427 72.9396 64.5458 73.0911 65.1518C73.0911 64.6973 72.9396 64.2427 72.4851 63.9397C72.182 63.4852 71.576 63.3336 70.9699 63.3336Z" fill="white"/>
<path d="M85.3638 63.6368H83.0911V69.5459H82.7881V63.6368H80.5153V63.3337H85.2123V63.6368H85.3638Z" fill="white"/>
<path d="M83.2426 69.5459H82.9395V63.6368H80.6668V63.3337H85.5153V63.6368H83.2426V69.5459ZM83.0911 69.3944L83.2426 63.4853H85.5153V63.3337H80.9698V63.4853H83.2426V69.3944H83.0911Z" fill="white"/>
<path d="M92.0306 66.3641H89.0003V69.2428H92.4852V69.5459H88.6973V63.3337H92.4852V63.6368H89.0003V66.2125H92.0306V66.3641Z" fill="white"/>
<path d="M92.6366 69.5458H88.6972V63.1821H92.6366V63.4852H89.1518V65.9094H92.1821V66.2124H89.1518V68.9397H92.6366V69.5458ZM88.8487 69.3943H92.4851V69.2427L88.8487 69.3943L89.0003 66.364H92.0306V66.2124H89.0003V63.4852H92.4851V63.3336H88.8487V69.3943Z" fill="white"/>
<path d="M100.061 67.5761C100.061 68.1821 99.9093 68.7882 99.4548 69.0912C99.0002 69.3943 98.5457 69.5458 97.9396 69.5458C97.3335 69.5458 96.7275 69.2427 96.2729 68.7882C95.8184 68.3337 95.6669 67.5761 95.6669 66.8185V65.9094C95.6669 65.1518 95.8184 64.3943 96.2729 63.9397C96.7275 63.4852 97.182 63.1821 97.9396 63.1821C98.5457 63.1821 99.1517 63.3336 99.4548 63.6367C99.9093 63.9397 100.061 64.3942 100.061 65.1518H99.9093C99.9093 64.5458 99.7578 64.0912 99.4548 63.9397C99.1517 63.6367 98.6972 63.4852 98.0911 63.4852C97.4851 63.4852 97.0305 63.7882 96.576 64.2427C96.2729 64.6973 95.9699 65.3033 95.9699 66.0609V66.97C95.9699 67.7276 96.1214 68.3337 96.576 68.7882C96.879 69.2427 97.4851 69.3943 98.0911 69.3943C98.6972 69.3943 99.1517 69.2427 99.4548 68.9397C99.7578 68.6367 99.9093 68.1821 99.9093 67.5761H100.061Z" fill="white"/>
<path d="M97.9396 69.6974C97.182 69.6974 96.7275 69.3944 96.2729 68.9398C95.8184 68.4853 95.6669 67.7277 95.6669 66.9701V66.061C95.6669 65.3034 95.8184 64.5459 96.2729 64.0913C96.7275 63.6368 97.182 63.3337 97.9396 63.3337C98.5457 63.3337 99.1517 63.4852 99.6063 63.7883C100.061 64.0913 100.212 64.6974 100.212 65.3034H99.9093C99.9093 64.6974 99.7578 64.3943 99.4548 64.0913C99.1517 63.7883 98.6972 63.6368 98.0911 63.6368C97.4851 63.6368 97.0305 63.7883 96.7275 64.2428C96.4244 64.6974 96.1214 65.3034 96.1214 66.061V66.9701C96.1214 67.7277 96.2729 68.3337 96.7275 68.7883C97.0305 69.2428 97.4851 69.3944 98.0911 69.3944C98.6972 69.3944 99.1517 69.2428 99.4548 68.9398C99.7578 68.6368 99.9093 68.1822 99.9093 67.7277H100.212V67.8792C100.212 68.4853 100.061 69.0913 99.6063 69.3944C99.1517 69.5459 98.5457 69.6974 97.9396 69.6974ZM97.9396 63.3337C97.3335 63.3337 96.7275 63.6368 96.4244 64.0913C95.9699 64.5459 95.8184 65.1519 95.8184 66.061V66.9701C95.8184 67.7277 95.9699 68.3337 96.4244 68.9398C96.879 69.3944 97.3335 69.6974 97.9396 69.6974C98.5457 69.6974 99.0002 69.5459 99.4548 69.2428C99.7578 68.9398 100.061 68.4853 100.061 67.8792H99.9093C99.9093 68.4853 99.7578 68.9398 99.3032 69.2428C99.0002 69.5459 98.3942 69.6974 97.7881 69.6974C97.182 69.6974 96.7275 69.3944 96.2729 68.9398C95.9699 68.4853 95.6669 67.8792 95.6669 67.1216V66.2125C95.6669 65.455 95.8184 64.8489 96.2729 64.3943C96.879 63.6368 97.3335 63.4853 97.9396 63.3337C98.5457 63.4853 99.0002 63.6368 99.4548 63.9398C99.7578 64.2428 99.9093 64.6974 100.061 65.1519H100.212C100.212 64.5459 100.061 64.0913 99.6063 63.7883C99.0002 63.4852 98.5457 63.3337 97.9396 63.3337Z" fill="white"/>
<path d="M108.243 69.5459H107.94V66.6671H104V69.5459H103.697V63.3337H104V66.3641H107.94V63.3337H108.243V69.5459Z" fill="white"/>
<path d="M108.243 69.5458H107.94V66.667H104.152V69.5458H103.849V63.1821H104.152V66.2124H107.94V63.1821H108.243V69.5458ZM108.091 69.3943L108.243 63.3336H108.091V66.364H104V63.3336H103.849V69.3943H104V66.5155H108.091V69.3943Z" fill="white"/>
<path d="M116.576 69.5459H116.273L112.334 63.7883V69.5459H112.031V63.3337H112.334L116.273 69.0913V63.3337H116.576V69.5459Z" fill="white"/>
<path d="M116.728 69.5458H116.425L112.637 63.9397V69.5458H112.334V63.1821H112.637L116.425 68.7882V63.1821H116.728V69.5458ZM116.425 69.3943L116.576 63.3336H116.425V69.0912H116.273L112.334 63.3336H112.182V69.3943H112.334V63.6367H112.485L116.425 69.3943Z" fill="white"/>
<path d="M124.909 66.8185C124.909 67.5761 124.758 68.3337 124.303 68.7882C123.849 69.2427 123.394 69.5458 122.637 69.5458C121.879 69.5458 121.273 69.2427 120.97 68.7882C120.515 68.3337 120.364 67.5761 120.364 66.8185V65.9094C120.364 65.1518 120.515 64.3943 120.97 63.9397C121.425 63.4852 121.879 63.1821 122.637 63.1821C123.394 63.1821 124 63.4852 124.303 63.9397C124.758 64.3943 124.909 65.1518 124.909 65.9094V66.8185ZM124.606 65.9094C124.606 65.1518 124.455 64.5458 124 64.0912C123.697 63.6367 123.091 63.4852 122.485 63.4852C121.879 63.4852 121.273 63.6367 120.97 64.0912C120.667 64.5458 120.364 65.1518 120.364 65.9094V66.8185C120.364 67.5761 120.515 68.1821 120.97 68.6367C121.273 69.0912 121.879 69.2427 122.485 69.2427C123.091 69.2427 123.697 69.0912 124 68.6367C124.303 68.1821 124.606 67.5761 124.606 66.8185V65.9094Z" fill="white"/>
<path d="M122.637 69.6974C121.879 69.6974 121.273 69.3944 120.818 68.9398C120.364 68.4853 120.212 67.7277 120.212 66.9701V66.061C120.212 65.1519 120.364 64.5459 120.818 64.0913C121.273 63.6368 121.879 63.3337 122.637 63.3337C123.394 63.3337 124 63.6368 124.455 64.0913C124.909 64.5459 125.061 65.3034 125.061 66.061V66.9701C125.061 67.8792 124.909 68.4853 124.455 68.9398C123.849 69.3944 123.243 69.6974 122.637 69.6974ZM122.637 63.3337C121.879 63.3337 121.425 63.6368 120.97 64.0913C120.515 64.5459 120.364 65.1519 120.364 66.061V66.9701C120.364 67.7277 120.515 68.4853 120.97 68.9398C121.425 69.3944 121.879 69.6974 122.637 69.6974C123.394 69.6974 123.849 69.3944 124.303 68.9398C124.758 68.4853 124.909 67.8792 124.909 66.9701V66.061C124.909 65.3034 124.758 64.5459 124.303 64.0913C123.849 63.6368 123.243 63.3337 122.637 63.3337ZM122.637 69.3944C121.879 69.3944 121.425 69.0913 120.97 68.6368C120.667 68.1822 120.364 67.5762 120.364 66.8186V65.9095C120.364 65.1519 120.515 64.5459 120.97 64.0913C121.273 63.6368 121.879 63.3337 122.637 63.3337C123.394 63.3337 123.849 63.6368 124.303 64.0913C124.606 64.5459 124.909 65.1519 124.909 65.9095V66.8186C124.909 67.5762 124.758 68.1822 124.303 68.6368C123.849 69.2428 123.243 69.3944 122.637 69.3944ZM122.637 63.4853C122.031 63.4853 121.425 63.6368 121.122 64.0913C120.819 64.5459 120.667 65.1519 120.667 65.9095V66.8186C120.667 67.5762 120.819 68.1822 121.122 68.6368C121.425 69.0913 122.031 69.2428 122.637 69.2428C123.243 69.2428 123.849 69.0913 124.152 68.6368C124.455 68.1822 124.606 67.5762 124.606 66.8186V65.9095C124.606 65.1519 124.455 64.5459 124 64.0913C123.697 63.7883 123.243 63.4853 122.637 63.4853Z" fill="white"/>
<path d="M128.849 69.2428H132.031V69.5459H128.697V63.3337H129V69.2428H128.849Z" fill="white"/>
<path d="M132.031 69.5458H128.546V63.1821H128.849V69.0912H132.031V69.5458ZM128.546 69.3943H131.879V69.2427L128.546 69.3943L128.697 63.3336H128.546V69.3943Z" fill="white"/>
<path d="M139.303 66.8185C139.303 67.5761 139.152 68.3337 138.697 68.7882C138.243 69.2427 137.788 69.5458 137.031 69.5458C136.273 69.5458 135.667 69.2427 135.364 68.7882C134.909 68.3337 134.758 67.5761 134.758 66.8185V65.9094C134.758 65.1518 134.909 64.3943 135.364 63.9397C135.819 63.4852 136.273 63.1821 137.031 63.1821C137.788 63.1821 138.394 63.4852 138.697 63.9397C139.152 64.3943 139.303 65.1518 139.303 65.9094V66.8185ZM139.152 65.9094C139.152 65.1518 139 64.5458 138.546 64.0912C138.243 63.6367 137.637 63.4852 137.031 63.4852C136.425 63.4852 135.819 63.6367 135.516 64.0912C135.213 64.5458 134.909 65.1518 134.909 65.9094V66.8185C134.909 67.5761 135.061 68.1821 135.516 68.6367C135.819 69.0912 136.425 69.2427 137.031 69.2427C137.637 69.2427 138.243 69.0912 138.546 68.6367C138.849 68.1821 139.152 67.5761 139.152 66.8185V65.9094Z" fill="white"/>
<path d="M137.031 69.6974C136.273 69.6974 135.667 69.3944 135.212 68.9398C134.758 68.4853 134.606 67.7277 134.606 66.9701V66.061C134.606 65.1519 134.758 64.5459 135.212 64.0913C135.667 63.6368 136.273 63.3337 137.031 63.3337C137.788 63.3337 138.394 63.6368 138.849 64.0913C139.303 64.5459 139.455 65.3034 139.455 66.061V66.9701C139.455 67.8792 139.303 68.4853 138.849 68.9398C138.394 69.3944 137.788 69.6974 137.031 69.6974ZM137.031 63.3337C136.273 63.3337 135.819 63.6368 135.364 64.0913C134.909 64.5459 134.758 65.1519 134.758 66.061V66.9701C134.758 67.7277 134.909 68.4853 135.364 68.9398C135.819 69.3944 136.273 69.6974 137.031 69.6974C137.788 69.6974 138.243 69.3944 138.697 68.9398C139.152 68.4853 139.303 67.8792 139.303 66.9701V66.061C139.303 65.3034 139.152 64.5459 138.697 64.0913C138.243 63.6368 137.788 63.3337 137.031 63.3337ZM137.031 69.3944C136.273 69.3944 135.819 69.0913 135.364 68.6368C135.061 68.1822 134.758 67.5762 134.758 66.8186V65.9095C134.758 65.1519 134.909 64.5459 135.364 64.0913C135.667 63.6368 136.273 63.3337 137.031 63.3337C137.788 63.3337 138.243 63.6368 138.697 64.0913C139 64.5459 139.303 65.1519 139.303 65.9095V66.8186C139.303 67.5762 139.152 68.1822 138.697 68.6368C138.243 69.2428 137.788 69.3944 137.031 69.3944ZM137.031 63.4853C136.425 63.4853 135.819 63.6368 135.515 64.0913C135.212 64.5459 135.061 65.1519 135.061 65.9095V66.8186C135.061 67.5762 135.212 68.1822 135.515 68.6368C135.819 69.0913 136.425 69.2428 137.031 69.2428C137.637 69.2428 138.243 69.0913 138.546 68.6368C138.849 68.1822 139 67.5762 139 66.8186V65.9095C139 65.1519 138.849 64.5459 138.394 64.0913C138.243 63.7883 137.637 63.4853 137.031 63.4853Z" fill="white"/>
<path d="M147.334 68.7882C147.182 68.9397 146.879 69.0912 146.576 69.2427C146.273 69.3943 145.819 69.5458 145.212 69.5458C144.455 69.5458 144 69.2427 143.546 68.7882C143.091 68.3337 142.94 67.5761 142.94 66.8185V65.7579C142.94 65.0003 143.091 64.3943 143.546 63.9397C144 63.4852 144.455 63.1821 145.212 63.1821C145.819 63.1821 146.425 63.3336 146.728 63.6367C147.031 63.9397 147.334 64.3942 147.334 65.0003H147.182C147.182 64.5458 147.031 64.0912 146.728 63.7882C146.425 63.4852 145.97 63.3336 145.364 63.3336C144.758 63.3336 144.303 63.4852 143.849 63.9397C143.394 64.3943 143.243 65.0003 143.243 65.6064V66.667C143.243 67.4246 143.394 68.0306 143.849 68.4852C144.303 68.9397 144.758 69.2427 145.364 69.2427C145.819 69.2427 146.273 69.2427 146.576 69.0912C146.879 68.9397 147.182 68.7882 147.334 68.6367V66.8185H145.516V66.5155H147.637V68.7882H147.334Z" fill="white"/>
<path d="M145.213 69.6973C144.455 69.6973 143.849 69.3943 143.394 68.9397C142.94 68.4852 142.788 67.7276 142.788 66.97V65.9094C142.788 65.1518 142.94 64.5458 143.394 63.9397C143.849 63.4852 144.455 63.1821 145.061 63.1821C145.667 63.1821 146.273 63.3336 146.728 63.6367C147.182 63.9397 147.334 64.3942 147.334 65.0003H147.031C147.031 64.5458 146.879 64.2427 146.576 63.9397C146.273 63.6367 145.819 63.4852 145.213 63.4852C144.606 63.4852 144.152 63.6367 143.697 64.0912C143.394 64.5458 143.091 65.1518 143.091 65.7579V66.8185C143.091 67.5761 143.243 68.1821 143.697 68.6367C144 69.0912 144.606 69.2427 145.213 69.2427C145.667 69.2427 146.122 69.2427 146.425 69.0912C146.728 68.9397 147.031 68.7882 147.031 68.6367V66.97H145.213V66.667H147.485V68.9397C147.334 69.0912 147.031 69.2427 146.728 69.5458C146.273 69.5458 145.819 69.6973 145.213 69.6973ZM145.213 63.3336C144.606 63.3336 144 63.6367 143.546 64.0912C143.091 64.5458 142.94 65.1518 142.94 65.9094V66.97C142.94 67.7276 143.091 68.3336 143.546 68.9397C144 69.3943 144.606 69.6973 145.213 69.6973C145.667 69.6973 146.122 69.5458 146.576 69.3943C146.879 69.2427 147.182 69.0912 147.334 68.9397V66.8185H145.364V66.97H147.182V68.7882C147.031 68.9397 146.879 69.0912 146.425 69.2427C146.122 69.3943 145.667 69.3943 145.213 69.3943C144.606 69.3943 144 69.0912 143.546 68.6367C143.091 68.1821 142.94 67.5761 142.94 66.8185V65.7579C142.94 65.0003 143.091 64.3943 143.546 63.9397C144 63.6367 144.606 63.4852 145.213 63.3336C145.819 63.4852 146.273 63.6367 146.728 63.9397C147.031 64.2427 147.182 64.5458 147.334 65.1518C147.334 64.6973 147.182 64.2427 146.728 63.9397C146.273 63.4852 145.819 63.3336 145.213 63.3336Z" fill="white"/>
<path d="M152.788 66.8186L152.94 66.9701L153.091 66.8186L155.061 63.3337H155.364L153.091 67.1216V69.3944H152.788V67.1216L150.516 63.3337H150.819L152.788 66.8186Z" fill="white"/>
<path d="M153.091 69.5458H152.788V67.1215L150.364 63.1821H150.819L152.94 66.8185V66.667L155.061 63.1821H155.516L153.091 67.1215V69.5458ZM152.94 69.3943L153.091 67.1215L155.364 63.3336H155.213L153.243 66.667L153.091 66.97L152.94 66.667L150.97 63.3336H150.819L153.091 67.1215V69.3943H152.94Z" fill="white"/>
<path d="M22.7879 43.3334L18.8485 37.5758L12.0303 27.7273H27.7879L23.697 21.9697H4V27.7273L19.9091 50.7577H12.9394H12.0303H4.15152L5.51516 52.7274L8.24243 56.5153H27.9395V50.7577L22.7879 43.3334Z" fill="#C9D433"/>
<path d="M14.6061 59.0908H9.90915L17.3334 69.9999C16.2728 65.4545 15.5152 62.7272 14.6061 59.0908Z" fill="#C9D433"/>
<path d="M17.1818 19.5455H22.1818L15.5152 10C16.1212 13.1818 16.5758 16.3637 17.1818 19.5455Z" fill="#C9D433"/>
<path d="M60.9699 27.121C64.0002 23.9392 68.3941 21.9695 73.0911 21.9695C77.7881 21.9695 82.1821 23.9392 85.2124 27.121C88.2427 30.3028 90.2124 34.5453 90.2124 39.2423C90.2124 43.9392 88.2427 48.3332 85.2124 51.3635C82.0305 54.5453 77.7881 56.515 73.0911 56.515C68.3941 56.515 64.0002 54.5453 60.9699 51.3635C57.9396 48.1817 55.9699 43.9392 55.9699 39.2423C55.9699 34.5453 57.9396 30.1513 60.9699 27.121ZM81.7275 30.6059C79.4548 28.3331 76.273 26.9695 73.0911 26.9695C69.7578 26.9695 66.7275 28.3331 64.4548 30.6059C62.182 32.8786 60.8184 35.9089 60.8184 39.2423C60.8184 42.7271 62.182 45.7574 64.4548 47.8786C66.7275 50.1514 69.7578 51.515 73.0911 51.515C76.4245 51.515 79.4548 50.1514 81.7275 47.8786C83.8487 45.6059 85.2124 42.5756 85.2124 39.2423C85.2124 35.7574 83.8487 32.7271 81.7275 30.6059Z" fill="white"/>
<path d="M40.8183 56.515H45.8183V27.121H56.1213V21.9695H30.3637V22.2725L33.6971 27.121H40.8183V56.515Z" fill="white"/>
<path d="M129.758 56.5151V32.2726L138.697 45.7575H141.576L150.516 32.2726V56.5151H155.516V22.1211H151.576L140.212 38.7878L128.849 22.1211H124.758V56.5151H129.758Z" fill="white"/>
<path d="M111.273 22.424C110.212 22.121 109.152 21.9695 107.94 21.9695H106.273H100.212H95.3639V22.424V27.8786V28.3331V29.0907V29.3937V40.6059V40.9089V50.9089V51.3635V56.515H100.364V51.3635V50.9089V48.0302V47.5756V36.3635V36.0604V28.3331V27.8786V27.121H107.94C108.697 27.121 109.303 27.2725 109.758 27.424H109.909C112.637 28.1816 114.152 30.7574 114.152 33.0301C114.152 35.7574 112.334 38.6362 108.849 38.9392C108.546 38.9392 108.243 38.9392 107.94 38.9392H107.182H102.485H102.334L105.667 43.7877L114.455 56.3635H119.303V56.212L111.425 44.9998L110.212 43.3332C116.122 42.2726 119.152 37.7271 119.152 32.7271C119.152 28.1816 116.576 23.6362 111.425 22.121" fill="white"/>
</svg>
