<svg width="160" height="80" viewBox="0 0 160 80" fill="none" xmlns="http://www.w3.org/2000/svg">
<g clip-path="url(#clip0_6392_34)">
<path d="M24.6375 39.5359C25.76 38.4998 26.9113 37.55 27.9475 36.4275C28.4655 35.8518 28.9836 35.2762 29.4441 34.643C29.5593 34.499 29.6168 34.3839 29.7895 34.5854C31.4589 36.6289 33.2146 38.5861 34.0205 41.2053C35.2869 45.3211 33.2146 49.696 29.329 51.0776C26.4796 52.0849 23.8316 51.5381 21.3563 49.8399C21.2124 49.7536 21.0973 49.6385 20.9534 49.5521C20.9534 49.5521 20.9246 49.5521 20.8095 49.5233C21.8744 52.9484 23.4862 56.0281 26.3069 58.4458C21.2988 58.4458 16.4058 58.4458 11.3689 58.4458C14.1608 55.9993 15.7726 52.9484 16.8951 49.4082C14.4774 51.2503 11.9446 52.0562 9.06637 51.2215C7.19553 50.6746 5.72764 49.5521 4.54757 47.9115C5.52616 47.8827 6.44719 47.7388 7.36822 47.5661C10.9948 46.9329 14.4198 45.7529 17.6722 44.0547C17.7586 44.0259 17.8449 43.9972 17.9313 43.9684C18.0752 44.1986 17.9313 44.4001 17.8449 44.5728C17.4995 45.4938 16.9815 46.2997 16.1756 47.0481C17.9601 47.0481 19.6294 47.0481 21.4139 47.0481C20.7807 46.3285 20.2914 45.6377 19.9748 44.8606C19.8597 44.6016 19.7445 44.3713 19.687 44.1123C19.6294 43.9684 19.5431 43.7669 19.687 43.6518C19.8309 43.5366 20.0036 43.6518 20.1187 43.7381C20.5217 43.9972 20.9822 44.1699 21.4715 44.2274C23.774 44.5152 25.4434 42.5293 24.8102 40.313C24.7239 40.0828 24.5224 39.8525 24.6375 39.5359Z" fill="#FD0807"/>
<path d="M14.1608 44.0833C12.3475 44.918 10.4191 45.4936 8.46194 45.9254C6.9077 46.2708 5.35347 46.6449 3.77045 46.5874C2.99333 46.5586 2.21621 46.4147 1.49666 46.1268C0.259026 45.6088 -0.23027 44.6877 0.0575512 43.3925C0.17268 42.8745 0.345373 42.4139 0.690759 41.8671C0.690759 42.4715 0.546848 42.9608 0.661976 43.4501C0.892234 44.3999 2.27378 45.3209 3.22359 45.1195C3.54019 45.0619 3.3675 44.8316 3.3675 44.6877C3.16602 43.1335 3.42506 41.6368 3.97192 40.1977C4.54757 38.7586 5.55494 37.6073 6.47597 36.4273C10.5055 31.3616 14.535 26.3247 18.5933 21.2878C18.6508 21.2015 18.7372 21.1439 18.8235 21.0288C21.8169 24.7705 24.7814 28.4546 27.7748 32.1963C29.1851 30.2103 29.6168 27.9941 27.1991 26.1808C29.588 26.2959 31.0271 28.3683 30.3076 30.6133C29.9046 31.7933 29.2427 32.8295 28.4655 33.7793C27.084 35.4775 25.5298 37.0029 23.774 38.3269C23.515 38.2981 23.3711 38.0966 23.2272 37.9239C21.8744 36.2833 20.5504 34.614 19.2265 32.9446C18.8235 32.4553 18.7947 32.4553 18.3918 32.9446C16.8663 34.9018 15.2545 36.8302 13.7003 38.845C13.1822 39.5357 12.7793 40.2553 12.7505 41.1475C12.7217 42.1837 13.0671 43.0184 13.873 43.6516C14.0169 43.7667 14.1896 43.8531 14.1608 44.0833Z" fill="#FD0807"/>
<path d="M14.1608 44.0835C12.2612 42.558 12.0309 40.716 13.5564 38.8164C15.197 36.744 16.8663 34.6717 18.5069 32.5994C18.8235 32.1965 18.9674 32.3116 19.1977 32.6282C20.5792 34.3551 21.9608 36.0533 23.3423 37.7802C23.4862 37.9529 23.6589 38.1256 23.8028 38.3271C21.6154 40.1403 19.2265 41.6658 16.7224 42.961C15.8877 43.3639 15.0531 43.7957 14.1608 44.0835Z" fill="white"/>
<path d="M24.6375 39.5356C25.2132 40.6869 25.2995 41.8382 24.6375 42.9895C23.8028 44.4574 21.7881 44.9179 20.2338 44.0257C20.0899 43.9393 19.9172 43.8242 19.7158 43.7091C19.8885 44.4286 20.1763 45.033 20.5217 45.6087C20.8383 46.1843 21.2988 46.6736 21.8169 47.2205C19.8309 47.2205 17.9313 47.2205 15.9165 47.2205C16.8951 46.2994 17.5571 45.2345 17.9313 43.9969C19.5431 43.0471 21.1549 42.126 22.6515 41.0035C23.3135 40.5142 23.9755 40.0249 24.6375 39.5356Z" fill="white"/>
<path d="M47.3178 44.0257C47.3178 43.7379 47.2315 43.5077 47.0588 43.335C46.8861 43.1623 46.5983 42.9896 46.1953 42.7881C45.7924 42.6154 45.2455 42.4139 44.5835 42.2125C43.202 41.8095 42.2234 41.2339 41.5614 40.5431C40.9282 39.8523 40.6116 38.9313 40.6116 37.8376C40.6116 36.5712 41.1009 35.5638 42.1083 34.8442C43.0869 34.1247 44.4684 33.7793 46.2529 33.7793C47.7496 33.7793 49.016 33.9808 50.0234 34.3549V37.2044C48.8721 36.6863 47.692 36.4273 46.4832 36.4273C45.7636 36.4273 45.2167 36.5136 44.8714 36.6575C44.526 36.8014 44.3245 37.0605 44.3245 37.4058C44.3245 37.6649 44.4109 37.8664 44.5548 38.0391C44.7275 38.2117 44.9865 38.3557 45.3894 38.5284C45.7924 38.701 46.3968 38.9025 47.2603 39.1616C48.5555 39.5645 49.5053 40.1114 50.1097 40.8021C50.7141 41.4929 51.0307 42.3852 51.0307 43.4789C51.0307 44.8892 50.5127 45.9829 49.5053 46.7025C48.4979 47.422 46.9725 47.7962 44.9865 47.7962C43.202 47.7962 41.7629 47.5659 40.6692 47.1054V44.2272C41.2448 44.4863 41.9356 44.7165 42.6839 44.8892C43.4323 45.0619 44.1806 45.1482 44.9001 45.1482C45.7348 45.1482 46.3393 45.0619 46.7422 44.8604C47.1452 44.6877 47.3178 44.3999 47.3178 44.0257Z" fill="#FD0807"/>
<path d="M63.0617 47.6238H60.3849L59.579 46.0695H59.4927C59.0897 46.5588 58.7444 46.9042 58.4278 47.1345C58.1112 47.3647 57.7658 47.5374 57.3916 47.6525C57.0174 47.7677 56.5569 47.8252 56.0676 47.8252C54.9739 47.8252 54.1392 47.5374 53.5924 46.933C53.0455 46.3286 52.7577 45.4075 52.7577 44.1411V37.2334H56.3267V43.5367C56.3267 44.1411 56.413 44.5441 56.5857 44.8319C56.7584 45.0909 57.075 45.2348 57.5067 45.2348C58.1975 45.2348 58.8595 44.7455 59.4927 43.7957V37.2334H63.0617V47.6238Z" fill="#FD0807"/>
<path d="M69.1635 46.2995L69.2786 48.3143V52.5165H65.7096V37.2619H68.4439L69.1635 38.6435H69.2786C69.7391 38.0391 70.1997 37.6073 70.6602 37.3483C71.1207 37.0892 71.61 36.9741 72.1568 36.9741C73.4808 36.9741 74.4594 37.4059 75.1214 38.2981C75.7834 39.1903 76.1288 40.4855 76.1288 42.2125C76.1288 43.9106 75.7546 45.2634 75.0063 46.2995C74.2579 47.3357 73.2793 47.825 72.0129 47.825C71.3797 47.825 70.8616 47.7099 70.4587 47.5084C70.0845 47.3069 69.6816 46.904 69.2786 46.3283H69.1635V46.2995ZM72.531 42.2125C72.531 41.3202 72.3871 40.6582 72.0993 40.1977C71.8115 39.7372 71.3797 39.5357 70.8616 39.5357C70.5738 39.5357 70.286 39.6509 69.9982 39.8811C69.7104 40.1114 69.4801 40.3992 69.3074 40.7734V44.0257C69.7391 44.7165 70.2572 45.0619 70.8904 45.0619C71.9554 45.0619 72.531 44.1121 72.531 42.2125Z" fill="#FD0807"/>
<path d="M81.1657 43.3638C81.252 44.0833 81.5398 44.6014 81.9716 44.9468C82.4033 45.2634 83.0077 45.4361 83.7848 45.4361C84.2741 45.4361 84.7346 45.4073 85.1952 45.321C85.6269 45.2634 86.3177 45.0907 87.1811 44.8317V47.3357C85.8571 47.6811 84.418 47.8538 82.8638 47.8538C81.0793 47.8538 79.7266 47.3933 78.7767 46.501C77.8269 45.6088 77.3376 44.3136 77.3376 42.6154C77.3376 41.5217 77.5391 40.5431 77.9708 39.6797C78.4026 38.8162 79.007 38.183 79.8129 37.6937C80.6188 37.2332 81.5686 37.0029 82.6623 37.0029C84.3893 37.0029 85.6845 37.4347 86.5479 38.3269C87.4114 39.2192 87.8719 40.5431 87.8719 42.2701V43.3638H81.1657ZM82.9789 39.3918C81.914 39.3918 81.3096 40.1114 81.1369 41.5217H84.6195C84.6195 40.8885 84.4756 40.3704 84.159 39.9675C83.8712 39.5933 83.4682 39.3918 82.9789 39.3918Z" fill="#FD0807"/>
<path d="M95.4416 40.1114C94.9235 40.1114 94.4918 40.1977 94.1176 40.3704C93.7435 40.5431 93.4269 40.8021 93.139 41.1475V47.5947H89.5701V37.2332H92.4195L93.0239 38.9025H93.1103C93.542 38.1542 93.9737 37.6361 94.3479 37.3771C94.7221 37.118 95.125 36.9741 95.5567 36.9741C95.9597 36.9741 96.3051 37.0029 96.5929 37.0893V40.2265C96.2187 40.1402 95.8446 40.1114 95.4416 40.1114Z" fill="#FD0807"/>
<path d="M108.135 44.0257C108.135 43.7379 108.048 43.5077 107.875 43.335C107.703 43.1623 107.415 42.9896 107.012 42.7881C106.609 42.6154 106.062 42.4139 105.4 42.2125C104.019 41.8095 103.04 41.2339 102.378 40.5431C101.745 39.8523 101.428 38.9313 101.428 37.8376C101.428 36.5712 101.918 35.5638 102.925 34.8442C103.904 34.1247 105.285 33.7793 107.07 33.7793C108.566 33.7793 109.833 33.9808 110.84 34.3549V37.2044C109.689 36.6863 108.509 36.4273 107.3 36.4273C106.58 36.4273 106.033 36.5136 105.688 36.6575C105.343 36.8014 105.141 37.0605 105.141 37.4058C105.141 37.6649 105.228 37.8664 105.371 38.0391C105.544 38.2117 105.803 38.3557 106.206 38.5284C106.609 38.701 107.214 38.9025 108.077 39.1616C109.372 39.5645 110.322 40.1114 110.926 40.8021C111.531 41.4929 111.847 42.3852 111.847 43.4789C111.847 44.8892 111.329 45.9829 110.322 46.7025C109.315 47.422 107.789 47.7962 105.803 47.7962C104.019 47.7962 102.58 47.5659 101.486 47.1054V44.2272C102.062 44.4863 102.752 44.7165 103.501 44.8892C104.249 45.0619 104.997 45.1482 105.717 45.1482C106.552 45.1482 107.185 45.0619 107.559 44.8604C107.933 44.6877 108.135 44.3999 108.135 44.0257Z" fill="white"/>
<path d="M117.201 46.2995L117.316 48.3143V52.5165H113.747V37.2619H116.481L117.201 38.6435H117.316C117.777 38.0391 118.237 37.6073 118.698 37.3483C119.158 37.0892 119.647 36.9741 120.194 36.9741C121.518 36.9741 122.497 37.4059 123.159 38.2981C123.821 39.1903 124.166 40.4855 124.166 42.2125C124.166 43.9106 123.792 45.2634 123.044 46.2995C122.295 47.3357 121.317 47.825 120.05 47.825C119.417 47.825 118.899 47.7099 118.496 47.5084C118.122 47.3069 117.719 46.904 117.316 46.3283H117.201V46.2995ZM120.568 42.2125C120.568 41.3202 120.425 40.6582 120.137 40.1977C119.849 39.7372 119.417 39.5357 118.899 39.5357C118.611 39.5357 118.323 39.6509 118.036 39.8811C117.748 40.1114 117.518 40.3992 117.345 40.7734V44.0257C117.777 44.7165 118.295 45.0619 118.928 45.0619C120.022 45.0619 120.568 44.1121 120.568 42.2125Z" fill="white"/>
<path d="M132.743 47.6235L131.937 46.1844H131.851C131.362 46.7888 130.872 47.2206 130.383 47.4508C129.894 47.6811 129.289 47.7962 128.57 47.7962C127.505 47.7962 126.67 47.5084 126.095 46.904C125.519 46.2995 125.231 45.4936 125.231 44.4287C125.231 43.2774 125.605 42.3852 126.354 41.752C127.102 41.1475 128.196 40.8309 129.664 40.8309C130.182 40.8309 130.93 40.8597 131.851 40.9173V40.6295C131.851 40.1402 131.678 39.7948 131.362 39.5357C131.045 39.2767 130.498 39.1903 129.75 39.1903C128.714 39.1903 127.62 39.4494 126.44 39.9962V37.6937C127.965 37.2044 129.203 36.9741 130.182 36.9741C131.995 36.9741 133.319 37.3195 134.154 38.0103C134.988 38.701 135.42 39.766 135.42 41.2051V47.6235H132.743ZM131.822 42.9032C131.391 42.8457 131.045 42.8169 130.786 42.8169C130.124 42.8169 129.635 42.932 129.318 43.1911C129.002 43.4501 128.858 43.8531 128.858 44.3711C128.858 44.7741 128.944 45.0907 129.146 45.2922C129.347 45.4936 129.606 45.6088 129.923 45.6088C130.268 45.6088 130.613 45.5224 130.959 45.3209C131.304 45.1483 131.592 44.8316 131.851 44.3999V42.9032H131.822Z" fill="white"/>
<path d="M144.083 38.557L143.968 36.5998V33.0596H147.537V47.6233H144.832L144.083 46.1554H143.94C143.278 47.278 142.328 47.8248 141.09 47.8248C139.795 47.8248 138.816 47.3643 138.126 46.4721C137.435 45.5798 137.118 44.2558 137.118 42.5289C137.118 40.8308 137.492 39.478 138.212 38.4706C138.931 37.4632 139.91 36.9452 141.148 36.9452C141.723 36.9452 142.241 37.0603 142.673 37.3193C143.105 37.5784 143.537 37.9813 143.911 38.5282H144.083V38.557ZM140.716 42.385C140.716 43.3636 140.86 44.0831 141.176 44.5436C141.493 45.0042 141.925 45.2344 142.472 45.2344C142.731 45.2344 143.019 45.1193 143.306 44.8603C143.594 44.6012 143.796 44.3134 143.94 43.9968V40.7732C143.623 40.3702 143.364 40.1112 143.134 39.9673C142.903 39.8234 142.644 39.737 142.357 39.737C141.781 39.737 141.378 39.9673 141.09 40.4278C140.86 40.8883 140.716 41.5215 140.716 42.385Z" fill="white"/>
<path d="M153.323 43.3638C153.409 44.0833 153.697 44.6014 154.128 44.9468C154.56 45.2922 155.165 45.4361 155.942 45.4361C156.431 45.4361 156.892 45.4073 157.352 45.321C157.784 45.2634 158.475 45.0907 159.338 44.8317V47.3357C158.014 47.6811 156.575 47.8538 155.021 47.8538C153.236 47.8538 151.883 47.3933 150.934 46.501C149.984 45.6088 149.495 44.3136 149.495 42.6154C149.495 41.5217 149.696 40.5431 150.128 39.6797C150.559 38.8162 151.164 38.183 151.97 37.6937C152.776 37.2332 153.725 37.0029 154.819 37.0029C156.546 37.0029 157.841 37.4347 158.705 38.3269C159.568 39.2192 160.029 40.5431 160.029 42.2701V43.3638H153.323ZM155.136 39.3918C154.071 39.3918 153.466 40.1114 153.294 41.5217H156.776C156.776 40.8885 156.632 40.3704 156.316 39.9675C156.028 39.5933 155.625 39.3918 155.136 39.3918Z" fill="white"/>
<path d="M143.076 51.595C143.249 51.4223 143.393 51.2208 143.594 51.0769C143.911 50.8179 144.285 50.7315 144.688 50.7315C145.004 50.7315 145.292 50.7603 145.551 50.9042C145.868 51.0769 146.041 51.2784 146.213 51.6813C146.242 51.6525 146.271 51.6238 146.271 51.595C146.559 51.1345 146.962 50.8179 147.509 50.7315C148.055 50.6452 148.602 50.674 149.063 51.1057C149.351 51.3647 149.494 51.6813 149.523 52.0555C149.552 52.3145 149.581 52.6024 149.581 52.8614C149.581 53.84 149.581 54.8474 149.581 55.826C149.581 55.9699 149.581 55.9699 149.437 55.9699C149.149 55.9699 148.89 55.9699 148.602 55.9699C148.43 55.9699 148.43 55.9699 148.43 55.7972C148.43 54.9049 148.43 54.0127 148.43 53.0917C148.43 52.8038 148.401 52.516 148.372 52.2282C148.343 51.9116 148.055 51.6525 147.739 51.595C147.422 51.5374 147.106 51.5662 146.847 51.7389C146.587 51.9116 146.444 52.1418 146.415 52.4297C146.386 52.6311 146.357 52.8614 146.357 53.0629C146.357 53.9839 146.357 54.8761 146.357 55.7972C146.357 55.9411 146.357 55.9411 146.213 55.9411C145.926 55.9411 145.638 55.9411 145.35 55.9411C145.235 55.9411 145.206 55.9123 145.206 55.7972C145.206 54.9049 145.206 54.0127 145.206 53.0917C145.206 52.8038 145.177 52.4872 145.148 52.1994C145.12 51.854 144.832 51.6238 144.515 51.5662C143.882 51.4511 143.45 51.7677 143.278 52.1994C143.191 52.3721 143.162 52.5736 143.162 52.7751C143.134 53.4658 143.162 54.1278 143.162 54.8186C143.162 55.164 143.162 55.4806 143.162 55.826C143.162 55.9411 143.134 55.9699 143.019 55.9699C142.702 55.9699 142.414 55.9699 142.097 55.9699C142.011 55.9699 141.982 55.9411 141.982 55.8547C141.982 55.1352 141.982 54.3869 141.982 53.6673C141.982 52.7751 141.982 51.854 141.982 50.9618C141.982 50.8179 141.982 50.8179 142.126 50.8179C142.414 50.8179 142.731 50.8179 143.019 50.8179C143.105 50.8179 143.162 50.8466 143.162 50.9618C143.162 51.1345 143.162 51.3072 143.162 51.4799C143.076 51.5086 143.076 51.5662 143.076 51.595Z" fill="white"/>
<path d="M132.772 52.2284C132.83 52.2284 132.858 52.2284 132.916 52.2284C133.722 52.2284 134.499 52.2284 135.305 52.2284C135.42 52.2284 135.449 52.2571 135.449 52.3723C135.449 53.3796 135.449 54.387 135.449 55.3944C135.449 55.5095 135.391 55.5959 135.305 55.6247C134.96 55.7398 134.614 55.8549 134.24 55.97C133.808 56.0852 133.348 56.1427 132.887 56.1427C132.225 56.1427 131.563 56.0564 130.988 55.6822C130.556 55.4232 130.239 55.049 130.038 54.5885C129.807 54.0992 129.721 53.5523 129.692 53.0343C129.664 52.4874 129.692 51.9405 129.807 51.4225C129.98 50.5878 130.412 49.897 131.189 49.4941C131.534 49.3214 131.909 49.2062 132.283 49.1775C132.714 49.1199 133.146 49.1199 133.607 49.1775C134.096 49.235 134.585 49.3501 135.046 49.5516C135.075 49.5516 135.103 49.5804 135.132 49.5804C135.19 49.6092 135.219 49.638 135.219 49.6955C135.161 49.9546 135.132 50.1848 135.103 50.4439C135.075 50.5302 135.075 50.5878 134.96 50.5302C134.24 50.156 133.492 50.0409 132.714 50.0697C132.196 50.0985 131.736 50.2424 131.419 50.6741C131.218 50.9044 131.131 51.1922 131.074 51.5088C130.93 52.1996 130.93 52.8903 131.045 53.5811C131.103 53.9265 131.189 54.2719 131.391 54.5597C131.65 54.9627 132.053 55.1641 132.513 55.2217C133.117 55.308 133.693 55.1929 134.24 55.0202C134.326 54.9914 134.384 54.9339 134.384 54.8475C134.384 54.3007 134.384 53.725 134.384 53.1782C134.384 53.0343 134.384 53.0343 134.24 53.0343C133.866 53.0343 133.492 53.0343 133.117 53.0343C133.031 53.0343 133.002 53.0055 132.974 52.9479C132.83 52.6313 132.801 52.4298 132.772 52.2284Z" fill="white"/>
<path d="M156.114 54.9341C156.23 54.9917 156.345 55.0204 156.431 55.078C156.92 55.3083 157.41 55.3083 157.928 55.2507C158.244 55.2219 158.446 55.0204 158.475 54.7038C158.532 54.3872 158.388 54.1282 158.043 53.9843C157.697 53.8116 157.323 53.6965 156.978 53.5238C156.632 53.3799 156.316 53.1784 156.143 52.8042C155.855 52.2286 156.028 51.4802 156.546 51.1061C156.978 50.7895 157.438 50.7031 157.956 50.7031C158.388 50.7031 158.82 50.7895 159.223 50.9046C159.338 50.9334 159.367 50.9909 159.338 51.1061C159.28 51.3076 159.252 51.5378 159.223 51.7681C159.223 51.7968 159.223 51.7968 159.194 51.8256C158.993 51.7681 158.82 51.6817 158.647 51.6242C158.331 51.5378 158.014 51.509 157.697 51.5954C157.438 51.6529 157.266 51.8544 157.237 52.1422C157.208 52.4013 157.323 52.6027 157.582 52.7179C157.928 52.8618 158.302 53.0057 158.647 53.1784C158.935 53.3223 159.223 53.4662 159.424 53.7253C159.655 54.0131 159.741 54.3585 159.683 54.7038C159.597 55.3946 159.165 55.7688 158.532 55.9415C158.014 56.0854 157.467 56.0854 156.949 55.999C156.661 55.9415 156.373 55.8551 156.086 55.7976C156.057 55.7976 155.999 55.7112 155.999 55.6824C156.028 55.481 156.086 55.2219 156.114 54.9341Z" fill="white"/>
<path d="M155.222 51.9981C154.992 51.3937 154.56 50.9907 153.956 50.8468C153.323 50.6741 152.689 50.7029 152.085 50.9044C151.624 51.0483 151.25 51.3361 150.991 51.739C150.732 52.142 150.646 52.5737 150.588 53.0055C150.531 53.5523 150.588 54.0704 150.732 54.5885C151.02 55.4807 151.682 55.97 152.603 56.0851C153.438 56.2003 154.272 56.0564 155.049 55.7398C155.078 55.7398 155.136 55.6822 155.136 55.6534C155.107 55.3944 155.049 55.1066 155.021 54.8475C154.79 54.9339 154.589 55.0202 154.359 55.0778C153.841 55.2217 153.294 55.308 152.747 55.2217C152.401 55.1641 152.114 54.9626 151.97 54.6173C151.855 54.3294 151.826 54.0416 151.797 53.7538C151.797 53.5811 151.797 53.5811 151.941 53.5811C152.632 53.5811 153.323 53.5811 154.042 53.5811C154.445 53.5811 154.848 53.5811 155.28 53.5811C155.366 53.5811 155.424 53.5811 155.424 53.466C155.424 52.9479 155.395 52.4586 155.222 51.9981ZM154.128 52.8903C153.783 52.8903 153.409 52.8903 153.063 52.8903C152.689 52.8903 152.315 52.8903 151.941 52.8903C151.883 52.8903 151.826 52.8903 151.826 52.804C151.883 52.4874 151.941 52.1996 152.142 51.9693C152.286 51.7966 152.459 51.7103 152.661 51.6527C153.006 51.5951 153.323 51.5663 153.639 51.7103C153.985 51.8542 154.128 52.142 154.186 52.4874C154.215 52.5737 154.215 52.6601 154.215 52.7464C154.301 52.8615 154.272 52.8903 154.128 52.8903Z" fill="white"/>
<path d="M140.543 52.9765C140.543 52.6311 140.514 52.2857 140.486 51.9691C140.428 51.5373 140.198 51.192 139.795 50.9905C139.421 50.789 138.989 50.7314 138.586 50.7314C137.953 50.7602 137.348 50.9041 136.773 51.1344C136.744 51.1344 136.715 51.2207 136.715 51.2495C136.744 51.451 136.773 51.6525 136.802 51.8252C136.802 51.8827 136.83 51.9691 136.859 52.0266C137.089 51.9403 137.291 51.8539 137.492 51.7676C137.895 51.6237 138.327 51.5086 138.759 51.5949C139.075 51.6525 139.306 51.8252 139.334 52.1418C139.363 52.3432 139.363 52.5447 139.392 52.7462C139.392 52.8613 139.363 52.8901 139.248 52.8901C138.96 52.9189 138.672 52.9189 138.385 52.9477C137.982 53.0052 137.579 53.0916 137.205 53.2355C136.715 53.4657 136.341 53.7824 136.283 54.358C136.197 54.9336 136.37 55.4229 136.859 55.7683C137.118 55.9698 137.435 56.0274 137.78 56.0561C138.413 56.0849 138.96 55.8835 139.363 55.3942C139.392 55.3654 139.392 55.3654 139.45 55.3366C139.45 55.5093 139.45 55.682 139.45 55.8259C139.45 55.9122 139.478 55.941 139.565 55.941C139.852 55.941 140.112 55.941 140.399 55.941C140.543 55.941 140.543 55.941 140.543 55.7971C140.543 54.8761 140.543 53.9263 140.543 52.9765ZM139.277 54.6746C139.104 54.9624 138.816 55.1351 138.5 55.1927C138.269 55.2502 138.039 55.2502 137.838 55.1639C137.55 55.0488 137.406 54.8185 137.377 54.5019C137.377 54.1853 137.492 53.955 137.78 53.8111C137.953 53.7248 138.183 53.6672 138.385 53.6384C138.672 53.5809 138.989 53.5809 139.306 53.5521C139.363 53.5521 139.392 53.5809 139.392 53.6384C139.392 53.7536 139.392 53.8399 139.392 53.9838C139.392 54.2141 139.392 54.4731 139.277 54.6746Z" fill="white"/>
</g>
<defs>
<clipPath id="clip0_6392_34">
<rect width="160" height="80" fill="white"/>
</clipPath>
</defs>
</svg>
