<svg width="160" height="80" viewBox="0 0 160 80" fill="none" xmlns="http://www.w3.org/2000/svg">
<path fill-rule="evenodd" clip-rule="evenodd" d="M83.1354 41.1918C81.154 40.6053 79.3346 40.0454 79.3346 38.2583C79.3346 36.7383 80.7256 36.0187 82.2787 36.0187C83.6973 36.0187 85.2771 36.6576 86.2139 37.8581L88.3557 35.5653C86.856 33.7516 84.6342 32.8447 82.439 32.8447C79.0933 32.8447 75.988 34.898 75.988 38.6319C75.988 42.285 78.933 43.3524 81.5289 44.1253C83.6172 44.7659 85.5452 45.246 85.5452 46.9257C85.5452 48.2593 84.3403 49.1662 82.6002 49.1662C80.9403 49.1662 79.0666 48.3392 77.8626 46.7926L75.5597 49.1919C77.3532 51.3792 79.95 52.3659 82.3589 52.3659C85.8123 52.3659 88.9176 50.3126 88.9176 46.5521C88.9176 42.8182 85.8123 41.9646 83.1354 41.1927V41.1918ZM104.675 48.0685L101.662 39.056H98.4364L95.3971 48.0685L92.3835 39.056H88.9176L93.9036 52.3659H96.8896L100.036 43.5095L103.181 52.3659H106.195L111.181 39.056H107.555L104.675 48.0685Z" fill="white"/>
<mask id="mask0" mask-type="alpha" maskUnits="userSpaceOnUse" x="2" y="8" width="158" height="63">
<path d="M2.53656 71H159.269V8H2.53656V71Z" fill="white"/>
</mask>
<g mask="url(#mask0)">
<path fill-rule="evenodd" clip-rule="evenodd" d="M112.962 52.366H116.524V39.0561H112.962V52.366ZM115.188 31.9575C113.939 31.9575 112.962 32.9185 112.962 34.19C112.962 35.4332 113.939 36.3941 115.188 36.3941C116.437 36.3941 117.414 35.4332 117.414 34.19C117.414 32.9185 116.437 31.9575 115.188 31.9575ZM126.735 38.1688C124.85 38.1688 123.208 39.0428 122.373 40.4891V38.4971H119.195V52.366H122.454V44.9124C122.454 42.3463 124.123 41.1174 125.739 41.1174C127.22 41.1174 128.404 42.1005 128.404 44.0109V52.366H131.663V43.4652C131.663 39.9709 129.482 38.1688 126.735 38.1688ZM141.097 49.4192C139.84 49.4192 138.856 48.6889 138.856 47.1742V41.3889H143.616L141.91 38.4696H138.856V32.8448H135.522V38.4687H131.663L133.369 41.388H135.522V47.6614C135.522 50.7439 137.735 52.366 140.305 52.366C141.561 52.366 142.928 51.9605 144.13 51.1219L143.256 48.7164C142.573 49.1752 141.78 49.4192 141.097 49.4192ZM152.674 49.4192C151.416 49.4192 150.432 48.6889 150.432 47.1742V41.3889H155.193L153.487 38.4696H150.432V32.8448H147.099V38.4687H143.24L144.946 41.388H147.099V47.6614C147.099 50.7439 149.312 52.366 151.881 52.366C153.138 52.366 154.505 51.9605 155.707 51.1219L154.833 48.7164C154.15 49.1752 153.357 49.4192 152.674 49.4192Z" fill="white"/>
<path fill-rule="evenodd" clip-rule="evenodd" d="M51.6927 8H27.1115L14.898 28.8681L14.9754 29.0003L20.9713 39.2453L20.9705 39.248H20.9731V39.2489L27.1169 49.7459L27.116 49.7486L26.172 48.3936L20.437 40.1664L19.7985 39.2507V39.248H8.82902L2.53656 49.9997L14.8267 71H39.407L51.6981 49.9997L51.6954 49.9953L51.8397 49.7486H51.829L45.6843 39.2507L45.6861 39.248H45.6915L39.5477 28.7501L39.5486 28.7483L46.8661 39.2453V39.248H57.8391H57.9763L57.9807 39.2551L63.9829 29.0003L51.6927 8Z" fill="#E84E1C"/>
</g>
</svg>
