<svg width="160" height="80" viewBox="0 0 160 80" fill="none" xmlns="http://www.w3.org/2000/svg">
<g clip-path="url(#clip0)">
<path d="M16.9541 20C7.60276 20 0 27.2606 0 36.1939C0 45.1271 7.60276 52.3877 16.9541 52.3877C26.3435 52.3877 33.9083 45.1271 33.9083 36.1939C33.9083 27.2606 26.3435 20 16.9541 20ZM16.9541 49.2326C9.35139 49.2326 3.15514 43.3785 3.15514 36.1939C3.15514 29.0093 9.35139 23.1551 16.9541 23.1551C24.5569 23.1551 30.7531 29.0093 30.7531 36.1939C30.7531 43.3785 24.5949 49.2326 16.9541 49.2326Z" fill="url(#paint0_linear)"/>
<path d="M22.2381 33.1906C23.7077 33.1906 24.899 31.9992 24.899 30.5296C24.899 29.06 23.7077 27.8687 22.2381 27.8687C20.7685 27.8687 19.5771 29.06 19.5771 30.5296C19.5771 31.9992 20.7685 33.1906 22.2381 33.1906Z" fill="white"/>
<path d="M25.2792 34.6353C25.3933 35.1295 25.4313 35.6617 25.4313 36.1939C25.4313 40.5275 21.6299 44.0628 16.9542 44.0628C12.2785 44.0628 8.51515 40.5275 8.51515 36.1939C8.51515 31.8603 12.3165 28.3251 16.9922 28.3251C17.2583 28.3251 17.4864 28.3251 17.7525 28.3631L17.9426 26.2343C17.6385 26.1963 17.3343 26.1963 16.9922 26.1963C11.0621 26.1963 6.23432 30.6819 6.23432 36.1939C6.23432 41.7059 11.0621 46.1915 16.9922 46.1915C22.9224 46.1915 27.7501 41.7059 27.7501 36.1939C27.7501 35.5857 27.6741 34.9775 27.5601 34.4073L25.2792 34.6353Z" fill="white"/>
<path d="M42.3854 44.975L44.7042 42.5041C45.8066 43.3404 46.909 43.9867 48.0114 44.4048C49.1138 44.823 50.3303 45.0511 51.6227 45.0511C52.8011 45.0511 53.7515 44.823 54.4738 44.3668C55.158 43.9106 55.5381 43.3024 55.5381 42.5041C55.5381 42.01 55.4241 41.5918 55.158 41.2877C54.8919 40.9456 54.3977 40.6415 53.7135 40.3373C52.9912 40.0332 51.9648 39.7671 50.5963 39.463C49.3419 39.1969 48.2775 38.9308 47.4412 38.6267C46.6049 38.3226 45.8826 37.9805 45.1984 37.5243C44.5141 37.0682 44.058 36.536 43.7159 35.8897C43.3737 35.2435 43.2597 34.4832 43.2597 33.5709C43.2597 31.8983 43.9439 30.4918 45.3504 29.4274C46.757 28.363 48.5436 27.8308 50.7484 27.8308C53.7895 27.8308 56.4505 28.6671 58.6933 30.3017L56.6405 32.9247C54.6258 31.5562 52.6111 30.8719 50.6724 30.8719C49.57 30.8719 48.6957 31.1 48.0494 31.5562C47.4032 32.0123 47.0991 32.5825 47.0991 33.2668C47.0991 33.799 47.2511 34.2171 47.5172 34.5593C47.8213 34.9014 48.3155 35.2055 49.0378 35.5096C49.76 35.7757 50.8624 36.0798 52.269 36.3839C54.7018 36.9161 56.4885 37.6384 57.6289 38.5127C58.7693 39.387 59.3395 40.6415 59.3395 42.238C59.3395 44.0627 58.6172 45.5072 57.1727 46.5336C55.7282 47.598 53.8275 48.1302 51.5087 48.1302C48.0494 48.1302 45.0083 47.0658 42.3854 44.975Z" fill="#FEB527"/>
<path d="M62.3426 28.1347H66.258L71.1998 42.77L76.2556 28.0967H79.3348L84.4286 42.77L89.3704 28.1347H93.1718L85.9872 48.0159H82.87L77.8142 33.8368L72.7584 48.0159H69.6032L62.3426 28.1347Z" fill="#FEB527"/>
<path d="M96.1749 47.8642V28.135H100.052V47.8642H96.1749Z" fill="#FEB527"/>
<path d="M102.675 31.3279V28.0967H120.504V31.3279H113.509V47.8258H109.632V31.3279H102.675Z" fill="#FEB527"/>
<path d="M120.732 37.9805C120.732 36.574 120.998 35.2815 121.568 34.0271C122.138 32.7726 122.899 31.7082 123.887 30.7959C124.875 29.8836 126.054 29.1613 127.498 28.6291C128.905 28.0969 130.425 27.8308 132.06 27.8308C133.961 27.8308 135.557 28.0969 136.926 28.6291C138.256 29.1613 139.511 29.9216 140.689 30.9099L138.218 33.4569C137.268 32.6586 136.279 32.0503 135.291 31.6322C134.303 31.214 133.238 30.986 132.06 30.986C130.691 30.986 129.437 31.2901 128.334 31.9363C127.232 32.5445 126.358 33.4188 125.75 34.4832C125.141 35.5476 124.837 36.726 124.837 38.0185C124.837 39.9952 125.521 41.6298 126.89 42.9983C128.258 44.3668 130.007 45.0511 132.06 45.0511C133.314 45.0511 134.455 44.823 135.405 44.4048C136.355 43.9867 137.344 43.3404 138.37 42.4661L140.841 44.7469C140.043 45.5072 139.206 46.1154 138.408 46.6096C137.61 47.1038 136.659 47.4839 135.557 47.788C134.455 48.0922 133.238 48.2442 131.908 48.2442C129.817 48.2442 127.916 47.788 126.206 46.9137C124.495 46.0014 123.165 44.785 122.176 43.2264C121.226 41.5918 120.732 39.8812 120.732 37.9805Z" fill="#FEB527"/>
<path d="M141.791 47.8642V28.135H145.669V36.346H156.161V28.135H160.038V47.8642H156.161V39.5391H145.669V47.8642H141.791Z" fill="#FEB527"/>
<path d="M71.7699 58.9262L72.4162 58.1279C72.7203 58.394 73.0244 58.5841 73.3665 58.7361C73.7086 58.8882 74.0128 58.9262 74.3929 58.9262C74.735 58.9262 75.0011 58.8502 75.1912 58.6981C75.3813 58.5461 75.4953 58.356 75.4953 58.1279C75.4953 57.9759 75.4573 57.8238 75.3813 57.7478C75.3052 57.6337 75.1532 57.5577 74.9631 57.4437C74.773 57.3296 74.4689 57.2536 74.0888 57.1776C73.7086 57.1015 73.4425 56.9875 73.1765 56.9115C72.9484 56.8354 72.7203 56.7214 72.5302 56.5694C72.3402 56.4173 72.1881 56.2652 72.1121 56.0372C72.036 55.8471 71.96 55.581 71.96 55.3149C71.96 54.7827 72.1501 54.3265 72.5682 53.9844C72.9864 53.6423 73.4806 53.4902 74.1268 53.4902C75.0011 53.4902 75.7614 53.7563 76.4076 54.2885L75.7994 55.1248C75.2292 54.7067 74.659 54.4786 74.0888 54.4786C73.7847 54.4786 73.5186 54.5546 73.3285 54.7067C73.1384 54.8587 73.0624 55.0488 73.0624 55.2389C73.0624 55.3909 73.1004 55.543 73.1765 55.657C73.2525 55.7711 73.4045 55.8471 73.6326 55.9611C73.8607 56.0752 74.1648 56.1512 74.545 56.2272C75.2292 56.3793 75.7614 56.6074 76.0655 56.9115C76.4076 57.1776 76.5597 57.5957 76.5597 58.0899C76.5597 58.6601 76.3696 59.1163 75.9515 59.4584C75.5333 59.8005 75.0011 59.9526 74.3169 59.9526C73.4045 59.9526 72.5302 59.6105 71.7699 58.9262Z" fill="white"/>
<path d="M80.9312 54.6309V53.6045H86.025V54.6309H84.0483V59.8768H82.9459V54.6309H80.9312Z" fill="white"/>
<path d="M90.5868 57.2158V53.6045H91.6892V57.1778C91.6892 57.748 91.8412 58.2042 92.1073 58.5083C92.3734 58.8124 92.7916 58.9644 93.2857 58.9644C93.7799 58.9644 94.1601 58.8124 94.4642 58.5083C94.7303 58.2042 94.8823 57.786 94.8823 57.2158V53.6045H95.9847V57.1778C95.9847 58.0901 95.7567 58.7744 95.2625 59.2685C94.7683 59.7627 94.1221 59.9908 93.2857 59.9908C92.4494 59.9908 91.8032 59.7627 91.347 59.2685C90.8149 58.7744 90.5868 58.0901 90.5868 57.2158Z" fill="white"/>
<path d="M100.432 59.8768V53.6045H102.789C103.283 53.6045 103.74 53.6805 104.158 53.8326C104.576 53.9846 104.918 54.2127 105.222 54.4788C105.526 54.7449 105.754 55.087 105.906 55.4672C106.058 55.8473 106.134 56.2655 106.134 56.7216C106.134 57.1778 106.058 57.5579 105.906 57.9381C105.754 58.3182 105.526 58.6603 105.222 58.9264C104.918 59.1925 104.576 59.4206 104.158 59.5727C103.74 59.7247 103.283 59.8007 102.789 59.8007H100.432V59.8768ZM101.535 58.8504H102.789C103.435 58.8504 103.968 58.6603 104.386 58.2422C104.766 57.862 104.994 57.3298 104.994 56.7216C104.994 56.1134 104.804 55.5812 104.386 55.2011C103.968 54.8209 103.474 54.5928 102.827 54.5928H101.573V58.8504H101.535Z" fill="white"/>
<path d="M110.316 59.8768V53.6045H111.418V59.8768H110.316Z" fill="white"/>
<path d="M115.904 56.7214C115.904 56.2652 115.98 55.8851 116.132 55.467C116.284 55.0868 116.512 54.7447 116.816 54.4406C117.12 54.1365 117.462 53.9084 117.843 53.7563C118.223 53.6043 118.679 53.4902 119.173 53.4902C119.629 53.4902 120.085 53.5663 120.504 53.7563C120.922 53.9464 121.264 54.1745 121.53 54.4406C121.796 54.7447 122.024 55.0868 122.214 55.467C122.366 55.8471 122.442 56.2652 122.442 56.7214C122.442 57.1396 122.366 57.5577 122.214 57.9759C122.062 58.356 121.834 58.6981 121.53 59.0022C121.226 59.3063 120.884 59.5344 120.466 59.6865C120.047 59.8766 119.629 59.9526 119.135 59.9526C118.527 59.9526 117.957 59.8005 117.424 59.4964C116.93 59.1923 116.55 58.8122 116.246 58.318C115.942 57.8238 115.904 57.3296 115.904 56.7214ZM117.044 56.7214C117.044 57.1396 117.12 57.5197 117.31 57.8238C117.5 58.1279 117.729 58.432 118.071 58.6221C118.413 58.8122 118.755 58.9262 119.173 58.9262C119.591 58.9262 119.933 58.8122 120.275 58.6221C120.618 58.432 120.846 58.1659 121.036 57.8238C121.226 57.4817 121.302 57.1015 121.302 56.6834C121.302 56.2652 121.226 55.8851 121.036 55.581C120.846 55.2389 120.618 54.9728 120.275 54.7827C119.933 54.5926 119.591 54.4786 119.173 54.4786C118.755 54.4786 118.413 54.5926 118.071 54.7827C117.729 54.9728 117.5 55.2389 117.31 55.581C117.12 55.9231 117.044 56.3033 117.044 56.7214Z" fill="white"/>
<path d="M126.586 58.9262L127.232 58.1279C127.536 58.394 127.84 58.5841 128.182 58.7361C128.525 58.8882 128.829 58.9262 129.209 58.9262C129.551 58.9262 129.817 58.8502 130.007 58.6981C130.197 58.5461 130.311 58.356 130.311 58.1279C130.311 57.9759 130.273 57.8238 130.197 57.7478C130.121 57.6337 129.969 57.5577 129.779 57.4437C129.589 57.3676 129.285 57.2536 128.905 57.1776C128.525 57.1015 128.258 56.9875 127.992 56.9115C127.764 56.8354 127.536 56.7214 127.346 56.5694C127.156 56.4173 127.004 56.2652 126.928 56.0372C126.852 55.8471 126.776 55.581 126.776 55.3149C126.776 54.7827 126.966 54.3265 127.384 53.9844C127.802 53.6423 128.296 53.4902 128.943 53.4902C129.817 53.4902 130.577 53.7563 131.224 54.2885L130.615 55.1248C130.045 54.7067 129.475 54.4786 128.905 54.4786C128.601 54.4786 128.334 54.5546 128.144 54.7067C127.954 54.8587 127.878 55.0488 127.878 55.2389C127.878 55.3909 127.916 55.543 127.992 55.657C128.068 55.7711 128.22 55.8471 128.449 55.9611C128.677 56.0372 128.981 56.1512 129.361 56.2272C130.045 56.3793 130.577 56.6074 130.881 56.9115C131.224 57.1776 131.376 57.5957 131.376 58.0899C131.376 58.6601 131.186 59.1163 130.767 59.4584C130.349 59.8005 129.817 59.9526 129.133 59.9526C128.182 59.9526 127.346 59.6105 126.586 58.9262Z" fill="white"/>
</g>
<defs>
<linearGradient id="paint0_linear" x1="6.14934" y1="50.4691" x2="27.1836" y2="22.719" gradientUnits="userSpaceOnUse">
<stop stop-color="#F68E2B"/>
<stop offset="1" stop-color="#F7C04B"/>
</linearGradient>
<clipPath id="clip0">
<rect width="160" height="80" fill="white"/>
</clipPath>
</defs>
</svg>
