<svg width="160" height="80" viewBox="0 0 160 80" fill="none" xmlns="http://www.w3.org/2000/svg">
<path d="M52.2295 33.14L42.8049 33.4516C42.6549 33.4516 42.4934 33.5439 42.378 33.6362C42.2511 33.7631 42.2281 33.9131 42.2281 34.0978L42.4126 36.6826C42.4473 36.9942 42.7241 37.2711 43.024 37.2365L45.608 37.2019L46.1964 49.2721C46.1964 49.4221 46.2886 49.5837 46.4155 49.6991C46.5424 49.826 46.6924 49.8491 46.8424 49.8491L49.7263 49.6645C50.0608 49.6298 50.3146 49.3529 50.28 49.0529L49.9455 37.1673L52.4949 37.1326C52.6448 37.1326 52.8063 37.0749 52.9217 36.948C53.0486 36.8211 53.1063 36.6711 53.0717 36.4864L52.8871 33.7516C52.8409 33.3592 52.5641 33.1169 52.2295 33.14ZM63.2231 33.9131L60.3622 33.7631C60.0277 33.7631 59.7739 34.0055 59.7508 34.3516L59.7162 40.6522L58.4819 40.9291L58.1704 33.7747C58.1704 33.44 57.8936 33.1862 57.5821 33.1862L54.7559 33.2439C54.6059 33.2439 54.4444 33.3016 54.3291 33.4285C54.2022 33.5554 54.1445 33.7054 54.1445 33.8554L54.6636 49.7452C54.6636 50.0799 54.9404 50.3337 55.275 50.3337L58.1012 50.276C58.2512 50.276 58.4127 50.2184 58.5281 50.0914C58.655 49.9645 58.7126 49.8145 58.7126 49.6645L58.4012 44.3448L59.5086 44.4371L59.6932 49.2029C59.6932 49.3529 59.7508 49.5375 59.8431 49.6298C59.97 49.7568 60.12 49.8145 60.27 49.8145L63.2231 50.0337H63.2577C63.5692 49.9991 63.8114 49.7568 63.846 49.4452V34.5247C63.846 34.3747 63.7884 34.2132 63.6961 34.0978C63.5576 33.9708 63.3731 33.9131 63.2231 33.9131ZM73.8129 32.5861L71.2058 32.7707C70.8944 32.8054 70.6521 33.0477 70.6521 33.3823C70.6521 33.3823 70.6867 43.3409 70.6521 44.6333C70.6175 45.4064 70.7444 46.6873 69.8792 46.7565C69.2909 46.7911 69.0833 45.9257 69.0833 44.7256C69.0833 43.3755 69.1755 34.1208 69.1755 34.0285C69.1755 33.717 68.9564 33.44 68.6218 33.4169L65.6687 33.1054C65.4841 33.0708 65.3341 33.14 65.2072 33.2554C65.0804 33.3823 64.9881 33.5323 65.0227 33.717C65.0227 33.717 65.1496 45.3603 65.1496 45.7872C65.1842 47.2873 66.3493 49.9991 69.637 49.9068C73.3284 49.8145 73.9629 47.6335 74.2167 45.0487C74.3089 43.9755 74.4935 34.2593 74.4935 33.1862C74.4935 33.0015 74.4358 32.8515 74.3089 32.7246C74.159 32.6207 73.9744 32.563 73.8129 32.5861ZM85.2448 33.2092L82.5454 33.3362C82.3955 33.3362 82.234 33.4285 82.1186 33.5554C82.0263 33.6824 81.9687 33.8324 81.9687 33.9824L82.4301 41.4484L79.6384 33.74C79.5462 33.4977 79.2693 33.3131 78.9924 33.3362L76.2931 33.6477C75.9816 33.6824 75.7394 33.9593 75.7394 34.2593L76.2008 48.9721C76.2008 49.2837 76.4431 49.5606 76.7545 49.5837L79.4539 49.7683C79.6384 49.7683 79.7884 49.7106 79.9153 49.5837C80.0422 49.4567 80.0999 49.3067 80.0999 49.1221L79.673 42.6716L82.0033 49.3644C82.0956 49.5837 82.3147 49.7337 82.5224 49.7683H85.3832C85.4178 49.7683 85.4178 49.7683 85.4409 49.7683C85.5909 49.7683 85.7178 49.7106 85.8447 49.6183C85.9716 49.4914 86.0292 49.3414 86.0292 49.1567L85.8447 33.7977C85.8447 33.6477 85.787 33.4862 85.6601 33.3708C85.5447 33.2669 85.3948 33.2092 85.2448 33.2092ZM88.8324 32.8977C88.6478 32.8977 88.4633 32.8977 88.2441 32.8977C87.9326 32.8977 87.6558 33.1746 87.6558 33.4862L87.1597 48.7875C87.1597 49.1221 87.402 49.376 87.7135 49.3991C87.7135 49.3991 88.0826 49.4337 88.6017 49.4337C90.5051 49.4337 95.0156 49.099 96.0653 45.9026C96.9305 43.2601 96.8036 39.6367 96.5844 37.9173C96.2038 34.5247 93.6544 32.8977 88.8324 32.8977ZM92.893 42.9716C92.5585 45.5564 91.751 45.7064 90.8627 46.018L91.2895 36.4287C91.601 36.5211 91.9932 36.4864 92.4892 37.1673C93.1929 38.125 93.1929 40.456 92.893 42.9716ZM105.478 46.7219L101.949 46.9989L101.799 43.687L104.106 43.5601C104.417 43.5255 104.625 43.3178 104.659 43.0062L104.879 40.9753C104.913 40.7906 104.844 40.606 104.729 40.4791C104.602 40.3521 104.417 40.2944 104.267 40.2944L101.776 40.4214V36.8211H105.467C105.801 36.8211 106.078 36.5441 106.078 36.2095C106.078 36.1518 106.078 36.1172 106.044 36.0826L105.825 33.9362C105.79 33.6247 105.513 33.3823 105.213 33.3823L98.4878 33.5323C98.1533 33.5323 97.8995 33.8093 97.8995 34.1439L98.1187 49.2606C98.1187 49.5952 98.3955 49.8491 98.7301 49.8491H105.548C105.882 49.8491 106.136 49.5721 106.159 49.2606L106.217 47.2989C106.217 47.1142 106.159 46.9642 106.032 46.8373C105.825 46.7565 105.64 46.6873 105.478 46.7219ZM116.484 37.8481C116.334 35.7248 115.595 32.8977 110.981 32.8977C110 32.8977 108.835 33.0246 107.543 33.2669C107.267 33.3246 107.047 33.5785 107.047 33.8785L107.267 48.6605C107.267 48.9721 107.509 49.249 107.82 49.249L109.943 49.3991C110.093 49.4337 110.277 49.3644 110.404 49.249C110.531 49.1336 110.589 48.9721 110.589 48.8221V44.0563L111.662 43.9986L112.861 49.099C112.919 49.376 113.173 49.5952 113.45 49.5952C113.484 49.5952 113.484 49.5952 113.507 49.5952L115.63 49.4452C115.814 49.4452 115.964 49.3529 116.057 49.2029C116.149 49.0759 116.207 48.8913 116.184 48.7067L114.684 43.0177C115.711 42.2331 116.691 40.7906 116.484 37.8481ZM112.642 39.9367C112.088 40.5252 111.166 40.7099 110.554 40.7329V36.371C110.739 36.3364 110.958 36.3133 111.143 36.3133C111.938 36.3133 112.954 36.6826 113.081 38.402C113.127 39.0713 113.011 39.5675 112.642 39.9367ZM124.559 42.1754C125.447 41.0099 127.662 38.3327 127.419 33.6593C127.419 33.5093 127.327 33.3477 127.2 33.2323C127.073 33.14 126.923 33.0823 126.773 33.0823L124.259 33.2323C123.924 33.2669 123.67 33.5439 123.705 33.8785C123.797 35.194 122.909 38.0212 121.652 39.8098L121.836 34.0285C121.836 33.8785 121.778 33.6939 121.652 33.6016C121.525 33.4746 121.375 33.4169 121.225 33.4169L117.972 33.4746C117.822 33.4746 117.66 33.5323 117.545 33.6593C117.418 33.7862 117.36 33.9362 117.395 34.0862L117.729 49.3875C117.729 49.5721 117.822 49.7222 117.949 49.8491C118.076 49.976 118.26 49.9991 118.41 49.9991L120.925 49.6645C121.236 49.6298 121.444 49.3529 121.444 49.0759L121.479 44.5871C121.998 44.8987 123.509 47.0796 123.751 49.226C123.786 49.5375 124.063 49.7799 124.362 49.7452H127.039H127.073C127.223 49.7452 127.35 49.6875 127.477 49.5606C127.604 49.4337 127.662 49.2837 127.662 49.1336C127.604 48.6028 126.704 43.8947 124.559 42.1754ZM132.114 32.7707L129.231 33.14C128.919 33.1746 128.711 33.4516 128.711 33.7285L128.677 48.7182C128.677 48.8682 128.735 49.0529 128.861 49.1452C128.988 49.2721 129.138 49.2952 129.288 49.2952C129.288 49.2952 129.288 49.2952 129.323 49.2952L132.461 49.0529C132.772 49.0182 133.014 48.7759 133.014 48.4413L132.795 33.29C132.795 33.1054 132.703 32.9554 132.576 32.8284C132.449 32.8054 132.299 32.7477 132.114 32.7707ZM138.251 33.2092C137.386 33.2669 134.502 33.7977 134.26 37.9981C134.226 38.5174 134.202 39.0482 134.168 39.5328C133.983 42.4177 133.856 44.4833 134.226 46.2949C134.445 47.3681 135.368 49.8606 138.897 49.8606C139.117 49.8606 139.359 49.8606 139.578 49.826C141.055 49.6991 142.162 49.2375 142.866 48.4182C143.846 47.2527 143.696 45.7757 143.639 44.9795V44.8294C143.604 44.4948 143.327 44.2409 143.027 44.2755L140.789 44.3679C140.605 44.3679 140.455 44.4602 140.363 44.5871C140.236 44.714 140.213 44.8987 140.236 45.0833C140.293 45.3949 140.328 46.3411 139.924 46.8027C139.832 46.9296 139.647 47.0796 139.22 47.0796H139.186C138.851 47.0796 138.632 46.9873 138.413 46.7681C138.078 46.4334 137.709 45.568 137.825 43.5139C137.859 43.0177 137.882 42.4639 137.882 41.8869C137.94 40.3521 138.009 38.5981 138.159 37.4904V37.4557C138.286 36.6249 138.436 36.2556 139.117 36.221C139.613 36.1864 139.982 36.3133 140.166 36.5326C140.409 36.8095 140.386 37.3057 140.351 37.4557C140.316 37.6404 140.351 37.825 140.478 37.9519C140.605 38.102 140.755 38.1712 140.939 38.1712L143.639 38.2058C143.973 38.2058 144.25 37.9635 144.25 37.6173C144.25 37.5596 144.308 35.8979 143.05 34.6055C142.001 33.5439 140.374 33.0477 138.251 33.2092ZM156.259 48.5336C156.224 48.349 155.059 43.7678 152.66 41.5869C153.825 40.4791 156.19 38.3327 155.394 33.3823C155.336 33.0708 155.059 32.8284 154.713 32.8861L151.575 33.2208C151.425 33.2554 151.264 33.3131 151.148 33.4631C151.056 33.59 150.998 33.7747 151.022 33.9247C151.022 33.9824 151.668 37.5481 149.245 39.6713L149.303 33.59C149.303 33.4054 149.245 33.2554 149.084 33.1285C148.957 33.0015 148.772 32.9438 148.622 32.9784L145.554 33.3823C145.242 33.4169 145 33.6939 145 33.9939L145.369 49.2029C145.369 49.3875 145.461 49.5375 145.588 49.6298C145.715 49.7222 145.865 49.7799 146.015 49.7799H146.05L148.691 49.4683C149.003 49.4337 149.21 49.1913 149.21 48.8798L149.43 44.114C150.26 44.9795 151.668 47.1835 151.887 49.0644C151.921 49.3991 152.221 49.6183 152.567 49.5837L155.705 49.249C155.89 49.2144 156.04 49.1221 156.132 49.0067C156.259 48.8682 156.282 48.7182 156.259 48.5336Z" fill="white"/>
<path d="M39.8171 47.5527L41.0745 38.7712L35.8257 27.7395L32.2612 28.9742L27.5892 23.9545L19.3296 19.4426L17.5185 26.1124L16.2611 22.6044L9.93955 28.8126L6.37502 34.9862L6.22505 41.4022L3.73333 40.2367L5.41755 50.5298L9.28202 57.1419L18.3722 60.2807L25.8358 60.5576L38.7097 55.8611L42.4011 46.7103L39.8171 47.5527ZM34.2569 42.6715L26.9778 42.8561L26.701 51.0607L26.2972 55.9188L19.941 55.8611V51.2222L19.4219 43.0754L11.8083 43.41L11.5315 35.5401L22.7788 35.4478L34.3838 35.1132L34.5683 36.1633L34.2569 42.6715Z" fill="white"/>
</svg>
