<svg width="160" height="80" viewBox="0 0 160 80" fill="none" xmlns="http://www.w3.org/2000/svg">
<path d="M49.8767 36.7583L46.7918 53.9427H43.015L46.0999 36.7583H43.1592L43.8223 33.0312H53.5093L52.8462 36.7583H49.8767Z" fill="white"/>
<path d="M57.3149 53.9427L58.8718 45.3505H56.4212L54.8643 53.9427H51.0875L54.8355 33.0312H58.6123L57.0843 41.6235H59.5349L61.0629 33.0312H64.8397L61.0917 53.9427H57.3149Z" fill="white"/>
<path d="M73.806 49.0207C73.5465 50.5286 72.8546 51.7236 71.8167 52.6055C70.7211 53.516 69.4238 53.9427 67.9246 53.9427C66.3966 53.9427 65.2722 53.4875 64.5226 52.6055C63.773 51.6951 63.5135 50.5002 63.8018 49.0207L66.656 33.0312H70.4328L67.5786 49.0207C67.4921 49.5044 67.521 49.8173 67.6651 49.9596C67.7804 50.1303 68.0976 50.2157 68.5877 50.2157C69.0778 50.2157 69.3949 50.1303 69.5968 49.9596C69.7986 49.8173 69.9427 49.5044 70.0004 49.0207L72.8546 33.0312H76.6314L73.806 49.0207Z" fill="white"/>
<path d="M82.4551 53.9427L80.264 43.9849L78.4765 53.9427H74.6997L78.4477 33.0312H81.9362L84.1273 42.9891L85.8859 33.0312H89.6627L85.9148 53.9427H82.4551Z" fill="white"/>
<path d="M96.7838 33.0312C98.3119 33.0312 99.4362 33.4865 100.186 34.3684C100.935 35.2789 101.195 36.4738 100.907 37.9533L98.9173 49.0207C98.6578 50.5002 97.9947 51.6951 96.928 52.6055C95.8613 53.516 94.5927 53.9427 93.0647 53.9427H87.7599L91.5079 33.0312H96.7838ZM92.1998 50.2157H93.7278C94.1891 50.2157 94.5351 50.1303 94.7369 49.9596C94.9387 49.7889 95.0828 49.4759 95.1405 49.0207L97.1298 37.9533C97.2163 37.4981 97.1875 37.1851 97.0433 37.0144C96.8992 36.8437 96.6109 36.7583 96.1207 36.7583H94.5927L92.1998 50.2157Z" fill="white"/>
<path d="M106.384 36.7583L105.519 41.6235H110.19L109.527 45.3505H104.856L103.991 50.2157H108.662L107.999 53.9427H99.5515L103.299 33.0312H111.747L111.084 36.7583H106.384Z" fill="white"/>
<path d="M118.81 33.0312C120.338 33.0312 121.463 33.4865 122.212 34.3684C122.962 35.2789 123.221 36.4738 122.933 37.9533L122.27 41.6519C122.011 43.1314 121.347 44.3263 120.281 45.2367L120.165 45.3221L120.079 53.9427H116.244L116.331 46.5739H114.889L113.563 53.9427H109.786L113.534 33.0312H118.81ZM115.524 42.8468H117.052C117.513 42.8468 117.859 42.7615 118.061 42.6192C118.263 42.4485 118.407 42.1356 118.464 41.6519L119.127 37.9533C119.214 37.4981 119.185 37.1851 119.041 37.0144C118.897 36.8437 118.609 36.7583 118.118 36.7583H116.59L115.524 42.8468Z" fill="white"/>
<path d="M149.659 50.1879C150.207 47.1436 150.754 44.0709 151.36 40.799L153.407 52.4924C153.493 53.1468 153.465 53.6589 154.416 53.6873C155.367 53.7158 155.483 53.2606 155.627 52.5209C156.722 46.4323 157.818 40.3154 159 34.2269C159.231 33.0035 158.798 32.8897 157.789 32.9466C157.184 33.0035 156.924 33.2026 156.838 33.7716C156.694 34.7958 156.492 35.8199 156.29 36.844L156.29 36.8443C155.684 39.8317 155.454 42.9044 154.387 45.8349C153.782 42.0509 153.292 38.2384 152.744 34.4545C152.657 33.8285 152.888 33.0035 151.706 32.9466C150.553 32.8897 150.524 33.6009 150.38 34.3407C149.255 40.3438 148.217 46.347 147.035 52.3501C146.776 53.6873 147.295 53.7442 148.304 53.6873C148.823 53.6589 149.053 53.5166 149.14 52.9761C149.284 52.0372 149.486 51.1268 149.659 50.1879Z" fill="white"/>
<path d="M130.314 37.2142C130.343 36.2184 130.343 35.2511 129.189 34.995C128.007 34.7389 127.286 35.4787 126.854 36.446C126.335 37.5271 126.22 38.7221 126.249 39.917C126.277 40.8275 126.854 41.2827 127.575 41.6241C131.121 43.1889 131.64 44.1562 130.746 48.7084C130.573 49.5904 130.371 50.4724 129.997 51.2974C128.987 53.602 126.133 54.6547 123.827 53.6304C122.27 52.9476 121.347 50.1594 122.183 48.6515C122.529 48.0825 123.308 48.2532 123.884 48.3101C124.49 48.367 124.288 48.7937 124.288 49.1352C124.259 50.2732 124.057 51.5535 125.701 51.7527C126.854 51.8949 127.632 51.2405 128.065 50.2447C128.642 48.9645 128.786 47.5988 128.843 46.2332C128.872 45.3796 128.353 44.8106 127.661 44.4123C126.969 44.014 126.22 43.6441 125.528 43.2458C124.634 42.7337 124.115 41.9655 124.029 40.9413C123.884 38.8643 124.23 36.8728 125.211 35.0235C126.22 33.1172 128.296 32.3206 130.371 32.9181C132.159 33.4302 132.476 35.1942 132.389 38.0393C132.389 38.466 132.389 38.466 130.804 38.466C130.343 38.4945 130.343 38.4945 130.314 37.2142Z" fill="white"/>
<path d="M143.201 53.8578C142.249 53.8862 142.076 53.5733 142.249 52.6059C143.432 46.4605 144.527 40.3151 145.651 34.1697C145.767 33.4869 145.882 32.9463 146.834 32.9463C147.843 32.9463 148.073 33.2308 147.871 34.1981C146.718 40.372 145.565 46.5743 144.469 52.7766C144.325 53.6017 144.296 53.8578 143.201 53.8578Z" fill="white"/>
<path d="M143.028 36.3885C142.941 34.2832 141.846 33.1736 139.741 33.0029C139.222 32.9744 138.674 33.0029 138.156 33.0029C135.59 32.9744 135.59 32.9744 135.128 35.3928C134.09 41.083 133.024 46.7447 132.015 52.4349C131.957 52.8332 131.669 53.5445 132.303 53.6299C132.995 53.6868 133.975 54.1135 134.148 52.7763C134.408 50.8417 134.927 48.9639 135.157 47.0292C135.42 44.8242 135.377 44.8294 137.435 45.0377C139.684 45.2653 141.183 44.0988 141.961 42.0503C142.682 40.2579 143.114 38.3517 143.028 36.3885ZM140.087 40.9976C139.885 41.5666 139.597 42.1356 139.078 42.5055C138.213 43.103 137.146 43.1599 136.339 42.8185C135.926 42.6436 136.089 42.5055 136.339 41.0261C136.599 39.4897 136.945 37.9534 137.146 36.417C137.262 35.4212 137.665 35.0514 138.703 35.1367C139.741 35.2221 140.664 35.279 140.808 36.5593C140.837 36.8438 140.837 37.1283 140.837 37.2705C140.75 38.6362 140.491 39.8311 140.087 40.9976Z" fill="white"/>
<path d="M22.4877 46.0053H16.491C15.6549 46.0053 14.8476 45.6354 14.2999 45.0095C13.7521 44.3836 13.4926 43.53 13.6368 42.705L15.7126 29.4183C15.9432 28.0242 17.1253 27 18.5956 27H24.5923C25.4284 27 26.2357 27.3699 26.7835 27.9958C27.3312 28.6217 27.5907 29.4752 27.4466 30.3003L25.3708 43.5869C25.1401 44.981 23.9581 46.0053 22.4877 46.0053ZM18.5668 27.569C17.4136 27.569 16.4333 28.3941 16.2603 29.5037L14.1845 42.7903C14.0692 43.4447 14.271 44.1275 14.7035 44.6396C15.136 45.1517 15.7991 45.4362 16.4622 45.4362H22.4877C23.6409 45.4362 24.6212 44.6112 24.7942 43.5016L26.87 30.215C26.9853 29.5606 26.7835 28.8778 26.351 28.3656C25.8897 27.8535 25.2554 27.569 24.5635 27.569H18.5668Z" fill="#FFF324"/>
<path d="M36.0092 46.0051H30.0125C29.1764 46.0051 28.3691 45.6353 27.8214 45.0094C27.2736 44.3834 27.0141 43.5299 27.1583 42.7048L29.234 29.4467C29.4647 28.0526 30.6467 27.0283 32.0883 27.0283H38.085C38.9211 27.0283 39.7283 27.3982 40.2761 28.0241C40.8239 28.65 41.0834 29.5036 40.9392 30.3286L38.8634 43.5868C38.6616 44.9809 37.4507 46.0051 36.0092 46.0051ZM32.0883 27.5689C30.9639 27.5689 29.9548 28.394 29.7818 29.5036L27.706 42.7902C27.5907 43.4445 27.7925 44.1274 28.225 44.6395C28.6574 45.1516 29.3205 45.4361 29.9836 45.4361H35.9804C37.1336 45.4361 38.1138 44.611 38.2868 43.5015L40.3626 30.2148C40.4779 29.5605 40.2761 28.8776 39.8437 28.3655C39.4112 27.8534 38.7481 27.5689 38.085 27.5689H32.0883Z" fill="#FFF324"/>
<path d="M8.9088 46.0053H2.91207C2.07598 46.0053 1.26873 45.6354 0.720951 45.0095C0.173172 44.3836 -0.0863022 43.53 0.0578501 42.705L2.10481 29.4183C2.33546 28.0242 3.54634 27 4.98786 27H10.9846C11.8207 27 12.6279 27.3699 13.1757 27.9958C13.7235 28.6217 13.983 29.4752 13.8388 30.3003L11.763 43.5585C11.5612 44.981 10.3503 46.0053 8.9088 46.0053ZM4.98786 27.569C3.86347 27.569 2.85441 28.3941 2.68142 29.5037L0.605629 42.7903C0.490307 43.4447 0.69212 44.1275 1.12458 44.6396C1.55703 45.1517 2.22013 45.4362 2.88324 45.4362H8.87997C10.0332 45.4362 11.0134 44.6112 11.1864 43.5016L13.2622 30.215C13.3775 29.5606 13.1757 28.8778 12.7433 28.3656C12.3108 27.8535 11.6477 27.569 10.9846 27.569H4.98786Z" fill="#FFF324"/>
<path d="M23.8428 28.6787L16.1162 37.1571H19.6047L17.1253 43.7008L24.9095 35.2793H21.3634L23.8428 28.6787Z" fill="#FFF324"/>
<path d="M4.52634 37.271L7.00576 30.7272H3.51727L6.65979 27.2847H9.36986L8.76442 28.8495H12.3106L4.52634 37.271Z" fill="#FFF324"/>
<path d="M37.7679 42.1928L34.5101 45.7207H31.8288L32.4631 44.0706H28.9746L36.7012 35.6206L34.2218 42.1928H37.7679Z" fill="#FFF324"/>
</svg>
