<svg width="160" height="80" viewBox="0 0 160 80" fill="none" xmlns="http://www.w3.org/2000/svg">
<path d="M22.8499 65.219C21.7792 65.1606 20.7117 65.1022 19.6443 65.0438C18.3886 64.9789 17.133 64.914 15.8774 64.8394C15.7963 64.8362 15.7086 64.7713 15.634 64.7129C13.0351 62.5553 10.4395 60.3944 7.84387 58.2368C6.72775 57.3056 5.60838 56.3744 4.49226 55.44C4.41115 55.3718 4.33328 55.255 4.29434 55.135C3.5189 52.8022 2.73371 50.4726 1.98422 48.1203C1.70519 47.2443 1.51701 46.3163 1.29638 45.4046C0.868101 43.6331 0.4528 41.8583 0.0245201 40.0868C-0.0144144 39.9246 -0.00468296 39.798 0.0374961 39.6455C0.319772 38.6884 0.602048 37.7313 0.874589 36.7676C1.97773 32.8904 3.07764 29.0164 4.18078 25.1392C4.21323 25.0191 4.25865 24.9023 4.27812 24.7791C4.32679 24.4903 4.47928 24.3508 4.65449 24.2275C4.71613 24.1853 4.77453 24.1301 4.83293 24.0782C6.64339 22.4495 8.44087 20.7915 10.2675 19.1919C11.0203 18.5301 11.8249 17.9882 12.6069 17.3912C13.6192 16.6255 14.6347 15.8663 15.6502 15.1103C15.7216 15.0552 15.8092 15.026 15.8903 15.026C20.5008 15.013 25.1146 15.0032 29.7251 15C29.7932 15 29.8646 15.026 29.923 15.0746C31.8438 16.512 33.771 17.9363 35.6788 19.4061C36.3148 19.896 36.902 20.506 37.5055 21.0673C38.7319 22.2029 39.9616 23.3417 41.1848 24.4838C41.2594 24.5519 41.3276 24.6687 41.3633 24.7855C42.7519 29.6199 44.1374 34.4608 45.5228 39.2984C45.5293 39.3178 45.5293 39.3373 45.5357 39.3535C45.7564 39.7234 45.6558 40.09 45.5585 40.4859C44.9517 42.929 44.3774 45.3851 43.7545 47.825C43.5306 48.7043 43.2127 49.5479 42.9336 50.4012C42.4113 51.9878 41.8824 53.5711 41.3633 55.1577C41.3114 55.3134 41.2432 55.4173 41.1394 55.5049C37.5477 58.4931 33.9527 61.4781 30.3643 64.4825C30.056 64.7421 29.7543 64.8719 29.3974 64.8848C28.3462 64.9238 27.2982 64.9887 26.2469 65.0471C25.2314 65.1055 24.2158 65.1671 23.1971 65.2255C23.0835 65.232 22.9732 65.2255 22.8596 65.2255C22.8499 65.2255 22.8499 65.2223 22.8499 65.219ZM29.7381 50.3882C31.1267 52.5783 32.5057 54.7489 33.8878 56.926C33.9073 56.9 33.9203 56.8838 33.9333 56.8611C34.368 56.0208 34.7996 55.1804 35.2311 54.3401C35.257 54.2914 35.2765 54.2233 35.2797 54.1649C35.3025 53.7853 35.3187 53.4089 35.3381 53.0293C35.3998 51.8645 35.4614 50.6932 35.5231 49.5252C35.5555 48.9574 35.5815 48.3863 35.6107 47.7991C35.5523 47.8153 35.5069 47.8218 35.4614 47.8348C34.0598 48.2793 32.6614 48.7238 31.2598 49.1683C31.2208 49.1813 31.1754 49.191 31.143 49.2234C30.6757 49.6063 30.2183 49.9924 29.7381 50.3882ZM10.0664 47.7926C10.0988 48.3863 10.1215 48.9444 10.154 49.4992C10.2351 51.0242 10.313 52.5556 10.3973 54.0805C10.4038 54.1876 10.433 54.3076 10.4784 54.3985C10.8808 55.1902 11.2863 55.9786 11.6951 56.767C11.7243 56.8222 11.7535 56.8741 11.7892 56.9357C13.1779 54.7489 14.5568 52.5751 15.9423 50.3947C15.4621 49.9956 14.9981 49.6095 14.5341 49.2234C14.5017 49.1975 14.4563 49.1877 14.4141 49.1748C13.3758 48.8438 12.3343 48.5096 11.2961 48.1819C10.8873 48.0489 10.4849 47.9256 10.0664 47.7926ZM8.4798 42.199C8.53172 42.1309 8.56741 42.079 8.6031 42.0303C9.42397 40.8493 10.2448 39.6618 11.0722 38.4905C11.2701 38.2115 11.4194 37.9162 11.5102 37.5496C11.627 37.0889 11.7633 36.6411 11.8963 36.1674C9.64784 35.3303 7.41235 34.4997 5.16063 33.6626C5.2385 34.623 5.31313 35.5509 5.39749 36.4756C5.41046 36.6249 5.46237 36.7839 5.52727 36.9039C6.20862 38.1401 6.89646 39.3665 7.58106 40.5994C7.87956 41.1251 8.17806 41.6539 8.4798 42.199ZM37.1746 42.212C37.2103 42.1633 37.22 42.1503 37.2265 42.1341C38.2193 40.3496 39.2154 38.5684 40.2082 36.7839C40.2374 36.7287 40.2569 36.6606 40.2634 36.5957C40.2991 36.2226 40.3315 35.8429 40.3607 35.4666C40.4126 34.8761 40.458 34.2823 40.51 33.6561C38.255 34.4932 36.0195 35.3238 33.7743 36.1609C33.956 36.7936 34.1247 37.4068 34.2999 38.0135C34.3161 38.0752 34.3583 38.1304 34.394 38.179C35.2895 39.4703 36.1882 40.7584 37.0837 42.0498C37.1129 42.0984 37.1421 42.1503 37.1746 42.212ZM33.5212 57.205C32.1325 55.0149 30.7633 52.8541 29.3844 50.6835C28.888 51.0955 28.3981 51.5011 27.9114 51.9132C27.8789 51.9456 27.8497 51.991 27.8238 52.0365C27.0386 53.3959 26.2502 54.7586 25.465 56.1213C25.4455 56.1538 25.4326 56.1895 25.4131 56.2349C25.4553 56.2511 25.4877 56.2673 25.5202 56.2738C27.2819 56.7994 29.0437 57.3251 30.8088 57.8409C30.8769 57.8604 30.9483 57.8604 31.0164 57.8442C31.6102 57.6982 32.2039 57.5424 32.7977 57.3932C33.0345 57.3316 33.2681 57.2699 33.5212 57.205ZM20.2672 56.2349C20.2478 56.1927 20.238 56.1733 20.2283 56.1538C19.4301 54.7716 18.632 53.3894 17.8338 52.0105C17.8111 51.9716 17.7852 51.9294 17.756 51.9067C17.2725 51.5011 16.7891 51.0988 16.2959 50.6867C14.9202 52.8573 13.5478 55.0214 12.1656 57.2018C12.2143 57.2212 12.237 57.2342 12.2597 57.2407C12.9832 57.4256 13.7068 57.6106 14.4303 57.789C14.586 57.828 14.7515 57.8766 14.8975 57.8345C16.3932 57.4062 17.8857 56.9584 19.3782 56.5139C19.6637 56.4166 19.959 56.329 20.2672 56.2349ZM29.1281 24.99C29.0859 24.9283 29.0567 24.8829 29.0308 24.8439C27.8952 23.2639 26.7596 21.6805 25.6207 20.1004C25.5753 20.0388 25.5169 19.9869 25.4585 19.9577C24.7025 19.578 23.9433 19.2049 23.1873 18.8253C23.1516 18.8059 23.1127 18.7929 23.0673 18.7799C23.0673 21.4664 23.0673 24.1334 23.0673 26.8166C23.1257 26.8166 23.1776 26.8166 23.2263 26.8166C23.7259 26.8166 24.2321 26.8199 24.7317 26.8134C24.8193 26.8134 24.9102 26.7939 24.9945 26.7582C25.6532 26.4792 26.3086 26.1969 26.964 25.9179C27.6778 25.6097 28.3916 25.3047 29.1281 24.99ZM22.6098 26.8166C22.6098 24.1237 22.6098 21.4599 22.6098 18.7766C22.5546 18.7994 22.5092 18.8188 22.467 18.8383C21.7338 19.2017 21.007 19.5651 20.277 19.935C20.1829 19.9836 20.0823 20.0647 20.0109 20.1653C18.911 21.687 17.8144 23.2152 16.7177 24.7369C16.6625 24.8147 16.5879 24.8602 16.5198 24.9218C16.6009 25.0062 16.6431 25.0256 16.682 25.0419C17.9377 25.5837 19.1933 26.1191 20.4489 26.6609C20.5722 26.7161 20.6988 26.8036 20.8253 26.8069C21.4158 26.8231 22.0096 26.8166 22.6098 26.8166ZM40.3639 33.1143C40.2958 33.0397 40.2536 33.0007 40.2179 32.9553C39.7183 32.3096 39.2251 31.6607 38.7222 31.0248C38.6476 30.9275 38.5502 30.8463 38.4529 30.8009C37.1421 30.2072 35.8281 29.6167 34.5173 29.0229C34.1085 28.8412 33.6997 28.6563 33.2811 28.4713C33.2746 28.5654 33.2681 28.6401 33.2649 28.7179C33.2065 30.2591 33.1481 31.8002 33.0832 33.3414C33.0734 33.5847 33.0994 33.8086 33.1675 34.0325C33.3006 34.4738 33.4206 34.9183 33.5472 35.3595C33.5731 35.4471 33.5991 35.5347 33.625 35.6223C35.867 34.7917 38.0895 33.9611 40.3639 33.1143ZM12.052 35.6256C12.2337 34.9896 12.4089 34.3732 12.5809 33.7567C12.6004 33.6886 12.5939 33.6075 12.5906 33.5296C12.5387 32.1831 12.4901 30.8334 12.4381 29.4836C12.4284 29.1527 12.4089 28.8185 12.396 28.4811C12.3505 28.4973 12.3246 28.507 12.2986 28.52C10.5823 29.2922 8.86266 30.0644 7.14954 30.8399C7.09114 30.8658 7.03273 30.921 6.98731 30.9826C6.47143 31.6477 5.95555 32.3161 5.44291 32.9845C5.41046 33.0267 5.38127 33.0721 5.33909 33.1337C7.58756 33.9644 9.81331 34.7917 12.052 35.6256ZM23.0705 40.7422C23.0705 43.6266 23.0705 46.4656 23.0705 49.3046C24.8777 49.3046 26.6785 49.3046 28.5019 49.3046C26.6882 46.4429 24.8875 43.6071 23.0705 40.7422ZM17.1719 49.3078C19.0019 49.3078 20.8026 49.3078 22.6001 49.3078C22.6001 46.4591 22.6001 43.6201 22.6001 40.7487C20.7831 43.6104 18.9856 46.4461 17.1719 49.3078ZM23.064 28.5103C23.064 32.0501 23.064 35.5607 23.064 39.1167C24.5435 36.7871 26.0003 34.49 27.4669 32.1766C25.9939 30.9534 24.5371 29.7367 23.064 28.5103ZM22.6163 39.1232C22.6163 35.5574 22.6163 32.0468 22.6163 28.507C21.14 29.7367 19.68 30.9469 18.2069 32.1766C19.6735 34.49 21.1335 36.7871 22.6163 39.1232ZM28.8977 49.0515C29.4623 47.0593 30.0171 45.0964 30.5784 43.1269C28.2066 42.2477 25.8543 41.3684 23.4599 40.4762C25.2833 43.3573 27.0808 46.1865 28.8977 49.0515ZM16.7761 49.0515C18.5931 46.1898 20.3873 43.3605 22.1848 40.5248C22.1783 40.5118 22.175 40.5053 22.1718 40.4924C19.8195 41.3684 17.4607 42.2444 15.0954 43.1269C15.6567 45.1029 16.2116 47.0593 16.7761 49.0515ZM13.4407 36.1414C16.3673 37.2316 19.2582 38.3056 22.1491 39.3827C22.1556 39.3665 22.1621 39.3568 22.1685 39.3406C20.7215 37.0596 19.2744 34.7755 17.8241 32.4946C16.3673 33.708 14.917 34.915 13.4407 36.1414ZM27.8497 32.4913C26.3994 34.7787 24.9524 37.0564 23.5085 39.3373C23.515 39.3535 23.5215 39.3633 23.528 39.3795C26.4189 38.3023 29.3098 37.2284 32.2331 36.1382C30.7568 34.915 29.3098 33.708 27.8497 32.4913ZM21.9674 39.9473C21.9674 39.9343 21.9706 39.9246 21.9706 39.9084C19.0765 38.8312 16.1856 37.7572 13.2623 36.6671C13.8268 38.6592 14.3784 40.6059 14.9332 42.5592C17.292 41.6896 19.6313 40.8201 21.9674 39.9473ZM23.7032 39.9084C23.7032 39.9213 23.7032 39.9311 23.7 39.9473C26.0425 40.8201 28.3851 41.6929 30.7341 42.5656C31.2922 40.6027 31.8438 38.656 32.4051 36.6735C29.4817 37.7572 26.5941 38.8344 23.7032 39.9084ZM41.7169 35.0253C41.3762 35.6385 41.0453 36.229 40.7176 36.826C40.6852 36.8844 40.6689 36.9656 40.6624 37.0369C40.5911 37.861 40.5229 38.6852 40.458 39.5093C40.3607 40.6903 40.2601 41.8713 40.1628 43.0556C40.0946 43.8699 40.0265 44.6876 39.9584 45.5279C39.9973 45.4922 40.0265 45.4727 40.0525 45.4468C41.0518 44.3631 42.0544 43.2762 43.0504 42.186C43.0861 42.1438 43.1153 42.0465 43.1121 41.9784C43.0991 41.5241 43.0731 41.0667 43.0537 40.6124C42.992 39.3341 42.9304 38.059 42.8622 36.7806C42.859 36.7157 42.8493 36.6346 42.8168 36.5859C42.4567 36.0701 42.0933 35.5607 41.7169 35.0253ZM5.7187 45.5474C5.68625 45.158 5.66029 44.8141 5.63109 44.4702C5.43318 42.1146 5.23526 39.7591 5.04707 37.4003C5.01787 37.0564 4.94325 36.7676 4.78102 36.4951C4.51497 36.0636 4.27812 35.5996 4.02504 35.1519C4.00233 35.1129 3.97962 35.0772 3.95042 35.0351C3.58054 35.5607 3.21715 36.0733 2.86025 36.5924C2.83105 36.6314 2.82132 36.7092 2.81807 36.7676C2.73047 38.5067 2.64611 40.2425 2.56824 41.9849C2.565 42.0627 2.60717 42.1666 2.6526 42.2152C3.31449 42.942 3.98286 43.6623 4.64475 44.3858C4.99516 44.7622 5.34233 45.1418 5.7187 45.5474ZM35.5977 56.5821C36.1785 56.4004 36.7365 56.2317 37.2979 56.05C37.3498 56.0337 37.3952 55.9721 37.4309 55.9234C38.3783 54.5996 39.316 53.2694 40.2666 51.9488C40.351 51.832 40.3639 51.7282 40.3412 51.579C40.1693 50.5602 40.007 49.5349 39.8416 48.5129C39.7572 47.997 39.6729 47.4779 39.582 46.9328C39.5528 46.9782 39.5398 47.0009 39.5269 47.0301C38.2712 49.4668 37.0156 51.9034 35.7599 54.3401C35.7372 54.3855 35.7113 54.4407 35.708 54.4958C35.6691 55.1772 35.6334 55.865 35.5977 56.5821ZM6.10155 46.936C6.08857 46.9912 6.07884 47.0236 6.07235 47.0593C5.82577 48.5972 5.57269 50.1319 5.32935 51.6698C5.31961 51.7444 5.35206 51.8548 5.391 51.9132C6.3384 53.2532 7.28905 54.5899 8.23971 55.9202C8.29162 55.9948 8.36625 56.05 8.44087 56.0759C8.72963 56.1765 9.01515 56.2576 9.30392 56.3452C9.55699 56.4231 9.81007 56.5009 10.0761 56.5756C10.0404 55.9039 10.008 55.2615 9.96905 54.6256C9.95931 54.5056 9.93336 54.3725 9.88145 54.2752C8.65826 51.8872 7.42533 49.5025 6.19889 47.1177C6.17293 47.0626 6.14049 47.0107 6.10155 46.936ZM33.9008 23.9128C33.8911 23.9355 33.8781 23.9582 33.8684 23.9776C33.9008 23.9971 33.9333 24.0101 33.956 24.0393C35.5523 26.1061 37.1486 28.1761 38.7449 30.2429C38.7968 30.3078 38.865 30.3629 38.9363 30.3921C39.4555 30.6322 39.9746 30.8626 40.497 31.0994C40.5392 31.1189 40.5813 31.1319 40.6332 31.1481C40.6397 31.0637 40.6462 31.0021 40.6495 30.9372C40.6722 30.4051 40.6981 29.8697 40.7111 29.3376C40.7144 29.2306 40.6852 29.0943 40.6365 29.0099C39.861 27.6148 39.0726 26.2326 38.2972 24.831C38.1739 24.6071 38.0376 24.526 37.8462 24.5C36.756 24.3443 35.6658 24.1756 34.5757 24.0133C34.3518 23.9744 34.1247 23.9452 33.9008 23.9128ZM5.03734 31.1513C5.10223 31.1254 5.15415 31.1092 5.19633 31.0864C5.70247 30.8593 6.21187 30.6355 6.71802 30.3986C6.80238 30.3597 6.88998 30.2915 6.95487 30.2039C8.54145 28.1566 10.1183 26.1061 11.7016 24.0555C11.7308 24.0166 11.7536 23.9744 11.7925 23.9257C11.7341 23.9257 11.6919 23.9225 11.6497 23.9257C10.313 24.1269 8.97622 24.3281 7.63947 24.5357C7.58431 24.5422 7.51617 24.5974 7.48048 24.659C6.65637 26.119 5.83226 27.5791 5.01463 29.0424C4.98219 29.1008 4.95947 29.1916 4.96272 29.2663C4.97245 29.6264 4.98867 29.9833 5.00165 30.3434C5.00814 30.6127 5.02436 30.8723 5.03734 31.1513ZM24.6474 17.8617C24.6344 17.8876 24.6214 17.9201 24.6084 17.946C24.9751 18.4262 25.3417 18.9032 25.7116 19.3801C25.7797 19.4645 25.8576 19.5424 25.9419 19.5845C28.1645 20.6974 30.3935 21.8006 32.6192 22.9102C32.6614 22.9297 32.7036 22.9459 32.7652 22.9718C32.7425 22.9102 32.7328 22.8745 32.7198 22.8453C32.1455 21.4631 31.5712 20.0777 30.9905 18.6923C30.958 18.6144 30.8737 18.5495 30.8055 18.5301C29.3325 18.0791 27.8627 17.6346 26.3897 17.1901C26.3378 17.1738 26.2729 17.1544 26.2242 17.1771C25.6954 17.3977 25.173 17.6281 24.6474 17.8617ZM12.9021 22.9718C12.9638 22.9394 12.993 22.9329 13.0189 22.9167C15.2706 21.7973 17.5256 20.6779 19.7741 19.5521C19.8325 19.5196 19.8909 19.471 19.933 19.4093C20.2737 18.9421 20.6112 18.4684 20.9518 17.9947C20.981 17.9558 21.0037 17.9136 21.0394 17.8584C20.4976 17.6216 19.972 17.3912 19.4464 17.1641C19.4009 17.1446 19.3425 17.1576 19.2939 17.1706C17.8144 17.6183 16.3316 18.0661 14.8521 18.5138C14.7612 18.5398 14.7093 18.5982 14.6639 18.7118C14.1058 20.0647 13.5445 21.4145 12.98 22.7674C12.9605 22.8226 12.9411 22.8778 12.9021 22.9718ZM23.5377 60.336C23.5929 60.3749 23.6124 60.3912 23.6318 60.4041C24.8128 61.1374 25.9939 61.8739 27.1749 62.6039C27.2333 62.6429 27.3209 62.6429 27.3858 62.6169C28.8166 61.9875 30.2475 61.3548 31.6751 60.7124C31.7464 60.6799 31.8146 60.6085 31.86 60.5307C32.1196 60.0894 32.3694 59.6417 32.6225 59.1939C32.6549 59.1453 32.6809 59.0901 32.7198 59.0155C32.2169 58.8662 31.7302 58.7429 31.2565 58.5742C30.9807 58.4769 30.7179 58.4931 30.4389 58.5677C28.5992 59.0479 26.7563 59.5086 24.9134 59.9759C24.4722 60.0991 24.0212 60.2127 23.5377 60.336ZM22.1393 60.3457C22.0647 60.323 22.029 60.3068 21.9933 60.3003C19.7254 59.726 17.4607 59.1485 15.196 58.5677C14.93 58.4996 14.6834 58.4931 14.4206 58.5872C14.0572 58.7137 13.6873 58.8078 13.3239 58.9149C13.2039 58.9506 13.0838 58.9928 12.9508 59.0349C13.246 59.5573 13.5283 60.0537 13.8138 60.5501C13.8593 60.628 13.9306 60.6961 14.002 60.7286C15.4199 61.3645 16.8442 61.9907 18.2621 62.6234C18.3594 62.6656 18.4373 62.6623 18.5282 62.6039C19.2679 62.1367 20.0109 61.676 20.7507 61.2185C21.2017 60.9265 21.6559 60.6475 22.1393 60.3457ZM14.7872 27.7089C14.7612 27.7932 14.7418 27.8484 14.7256 27.9068C14.2389 29.6167 13.7619 31.333 13.2655 33.0364C13.1098 33.5653 13.0027 34.0844 13.0643 34.6587C13.0968 34.9669 13.0903 35.2881 13.1 35.5996C13.1 35.6353 13.1065 35.6742 13.113 35.7391C14.5958 34.5029 16.0623 33.283 17.5418 32.0501C16.6269 30.603 15.7119 29.1624 14.7872 27.7089ZM32.5673 35.7456C32.59 35.0967 32.616 34.49 32.6354 33.88C32.6387 33.8248 32.616 33.7664 32.603 33.7145C32.0514 31.7678 31.4998 29.8243 30.9483 27.8841C30.9353 27.8354 30.9158 27.7835 30.8899 27.7154C29.9652 29.1722 29.0535 30.6095 28.1353 32.0566C29.6083 33.2798 31.0716 34.4997 32.5673 35.7456ZM31.1494 42.7181C32.6387 43.2729 34.1182 43.8213 35.6172 44.3826C35.5912 44.2852 35.5782 44.2204 35.5588 44.1555C35.1143 42.5883 34.6503 41.031 34.2318 39.4476C34.0209 38.643 33.7321 37.9389 33.2649 37.3744C33.1156 37.1959 32.9891 36.9818 32.8398 36.7676C32.272 38.763 31.714 40.7292 31.1494 42.7181ZM10.0502 44.3826C11.5556 43.8213 13.0319 43.2697 14.5244 42.7181C13.9598 40.7292 13.4018 38.7598 12.834 36.7676C12.4803 37.277 12.1429 37.7637 11.8022 38.2536C11.7698 38.2991 11.7568 38.3672 11.7406 38.4224C11.4031 39.6131 11.0657 40.8038 10.7283 41.9946C10.5044 42.7798 10.2838 43.565 10.0502 44.3826ZM35.4355 44.9309C33.943 44.3761 32.4732 43.831 30.9937 43.2794C30.4356 45.2489 29.8808 47.2021 29.3195 49.1845C29.3941 49.1683 29.4331 49.1618 29.472 49.1456C29.8224 49.0385 30.1728 48.9152 30.5265 48.8179C30.8055 48.74 31.0553 48.594 31.3019 48.3896C32.629 47.2735 33.9592 46.1736 35.2927 45.0639C35.3284 45.0315 35.3706 44.9893 35.4355 44.9309ZM10.2383 44.9374C10.3097 44.999 10.3552 45.038 10.3973 45.0769C11.7276 46.1865 13.0579 47.2864 14.3849 48.4026C14.6282 48.607 14.878 48.7595 15.1603 48.8276C15.3582 48.8763 15.5529 48.9509 15.7476 49.0125C15.9423 49.0742 16.1369 49.1326 16.3543 49.1975C16.3316 49.1099 16.3219 49.0547 16.3056 48.9996C15.7833 47.1502 15.2544 45.304 14.7353 43.4514C14.6996 43.3249 14.6607 43.2892 14.5633 43.3281C13.6354 43.6785 12.701 44.0224 11.7698 44.3696C11.2636 44.5545 10.764 44.7395 10.2383 44.9374ZM23.0705 49.8983C23.0705 51.6763 23.0705 53.4413 23.0705 55.2226C23.1257 55.1804 23.1711 55.148 23.2133 55.1123C24.4592 54.0773 25.6954 53.0196 26.951 52.0105C27.4409 51.6179 27.8692 51.1604 28.1839 50.5083C28.2813 50.3039 28.4078 50.1189 28.5343 49.8983C26.6979 49.8983 24.8907 49.8983 23.0705 49.8983ZM17.1362 49.8983C17.4185 50.385 17.6781 50.8392 17.9409 51.2935C17.9831 51.3681 18.035 51.433 18.0966 51.4816C19.5599 52.7016 21.0265 53.9215 22.493 55.1415C22.5254 55.1674 22.5644 55.1902 22.6001 55.2194C22.6001 53.4349 22.6001 51.6698 22.6001 49.9015C20.7831 49.8983 18.9759 49.8983 17.1362 49.8983ZM27.7459 31.7354C28.6544 30.3013 29.5564 28.8802 30.4843 27.4169C30.3902 27.4169 30.3351 27.4169 30.2831 27.4169C28.6155 27.4169 26.951 27.4201 25.2865 27.4136C24.9978 27.4136 24.722 27.459 24.4462 27.5921C24.0926 27.7608 23.7292 27.9035 23.3431 28.0723C24.8193 29.2987 26.2729 30.5089 27.7459 31.7354ZM15.1895 27.4169C16.1207 28.8834 17.0227 30.3045 17.9279 31.7354C19.3945 30.5154 20.8513 29.3019 22.3243 28.0755C22.2724 28.0496 22.2367 28.0301 22.2042 28.0139C21.7857 27.8322 21.3639 27.6505 20.9421 27.4785C20.8577 27.4428 20.7669 27.4234 20.6793 27.4234C18.911 27.4201 17.1427 27.4201 15.3712 27.4201C15.329 27.4169 15.2771 27.4169 15.1895 27.4169ZM39.5204 45.5571C39.7378 42.9745 39.9487 40.4372 40.1595 37.9032C40.1498 37.9 40.1368 37.8967 40.1271 37.887C39.2478 39.4639 38.3685 41.0375 37.486 42.624C38.1577 43.5974 38.826 44.5578 39.5204 45.5571ZM6.15671 45.5571C6.8478 44.5643 7.51617 43.6039 8.19104 42.6305C7.30852 41.044 6.42601 39.4639 5.54674 37.8838C5.537 37.8903 5.52727 37.8967 5.51429 37.9032C5.72843 40.4372 5.93932 42.9712 6.15671 45.5571ZM6.48765 46.657C7.62649 48.8698 8.74586 51.0404 9.86522 53.2142C9.87496 53.2077 9.88793 53.2013 9.89767 53.1948C9.80033 51.3454 9.703 49.496 9.60566 47.6466C8.56741 47.3189 7.54537 46.9944 6.48765 46.657ZM35.7762 53.198C35.7859 53.2012 35.8021 53.2045 35.8118 53.211C36.928 51.0404 38.0473 48.8698 39.1862 46.6602C38.1285 46.9977 37.1032 47.3221 36.0682 47.6498C35.9708 49.4992 35.8735 51.3519 35.7762 53.198ZM12.2337 24.1756C10.7607 26.0866 9.31365 27.9652 7.86334 29.8405C7.90228 29.8633 7.92499 29.86 7.94446 29.8535C9.38503 29.2046 10.8289 28.5525 12.2694 27.9068C12.357 27.8679 12.3733 27.8095 12.3668 27.6991C12.3311 26.8101 12.2986 25.9276 12.2662 25.0386C12.2597 24.7628 12.2467 24.4903 12.2337 24.1756ZM37.7878 29.8795C37.7943 29.8665 37.8008 29.8535 37.8073 29.8405C36.3602 27.9652 34.9099 26.0866 33.4433 24.1821C33.4336 24.2794 33.4304 24.3281 33.4271 24.38C33.3849 25.4734 33.3492 26.5668 33.3006 27.6537C33.2941 27.8159 33.333 27.8743 33.4401 27.9198C34.514 28.4 35.5847 28.8802 36.6587 29.3636C37.035 29.5356 37.4114 29.7075 37.7878 29.8795ZM19.1219 20.5514C19.1154 20.5352 19.1122 20.5255 19.1024 20.5092C17.107 21.5021 15.1117 22.4949 13.0838 23.5007C14.0637 23.9225 15.0013 24.3183 15.939 24.7304C16.0428 24.7758 16.1045 24.7563 16.1824 24.6493C16.8442 23.7181 17.5126 22.7966 18.1745 21.8687C18.4925 21.4339 18.8072 20.9927 19.1219 20.5514ZM32.5478 23.5202C32.5478 23.5072 32.5478 23.4942 32.5478 23.4812C30.5557 22.4884 28.5603 21.4988 26.5649 20.506C26.5552 20.5255 26.5422 20.5482 26.5325 20.5676C26.6103 20.665 26.6947 20.7558 26.7726 20.8596C27.6843 22.125 28.596 23.4001 29.5109 24.6622C29.5466 24.7109 29.6278 24.7596 29.6732 24.7401C30.6368 24.3443 31.5907 23.9322 32.5478 23.5202ZM23.3431 59.8006C25.5039 59.2491 27.6226 58.7105 29.7381 58.1719C29.7056 58.1297 29.6732 58.1135 29.6407 58.107C28.1612 57.6657 26.6849 57.231 25.2054 56.7865C25.1178 56.7605 25.0692 56.7994 25.0173 56.887C24.6019 57.6106 24.1866 58.3309 23.7713 59.0512C23.6383 59.288 23.502 59.5216 23.3431 59.8006ZM15.9325 58.1362C15.9325 58.1492 15.9325 58.1589 15.9325 58.1719C18.0512 58.7137 20.1731 59.2523 22.3178 59.7974C22.2886 59.739 22.2821 59.7163 22.2724 59.6968C21.7305 58.7591 21.1887 57.8247 20.6501 56.8806C20.582 56.7638 20.5203 56.767 20.4327 56.7962C19.4074 57.1012 18.3822 57.4062 17.3569 57.7079C16.8832 57.8507 16.4095 57.9934 15.9325 58.1362ZM14.1642 18.7442C14.1221 18.7474 14.0961 18.7474 14.0766 18.7572C13.0935 19.0557 12.1072 19.3444 11.1306 19.6624C10.9165 19.7305 10.7185 19.909 10.4979 20.0453C11.1468 21.0641 11.7633 22.0342 12.3927 23.027C12.9865 21.5864 13.5705 20.1783 14.1642 18.7442ZM31.5031 18.7345C32.1066 20.1815 32.6906 21.5962 33.2844 23.0302C33.917 22.0309 34.5335 21.0608 35.1759 20.0485C34.965 19.9122 34.7833 19.7435 34.5887 19.6786C33.8943 19.4418 33.1935 19.2439 32.4927 19.0297C32.1715 18.9291 31.8503 18.8383 31.5031 18.7345ZM39.9714 46.6213C40.2277 48.1852 40.4775 49.7231 40.7371 51.3227C40.7955 51.2221 40.8247 51.1637 40.8604 51.115C41.4736 50.2487 42.0868 49.3759 42.7098 48.5226C42.8687 48.3052 42.9239 48.0359 43.0115 47.7537C41.9959 47.374 40.9934 46.9977 39.9714 46.6213ZM4.89134 51.3032C4.9108 51.2837 4.93027 51.2643 4.94974 51.2448C5.19957 49.7101 5.4494 48.1754 5.70572 46.6181C4.67395 47.0009 3.67463 47.3741 2.67207 47.7472C2.74994 48.0716 2.84078 48.3442 3.01274 48.581C3.62272 49.4149 4.21971 50.2682 4.8232 51.1182C4.8524 51.1702 4.86863 51.2415 4.89134 51.3032ZM43.1543 42.7992C42.142 43.8991 41.1491 44.9731 40.1433 46.0665C41.1686 46.4494 42.1679 46.8192 43.1607 47.1891C43.3489 46.6408 43.3489 46.6408 43.3132 46.073C43.297 45.8037 43.2873 45.5376 43.2743 45.2651C43.2354 44.4605 43.1964 43.6526 43.1543 42.7992ZM2.52282 42.8057C2.51633 42.8739 2.51309 42.9063 2.51309 42.9355C2.46117 44.0387 2.41251 45.1418 2.34762 46.2449C2.32815 46.5921 2.4125 46.8809 2.51309 47.1956C3.51565 46.8225 4.51172 46.4494 5.53376 46.0665C4.52146 44.9698 3.53512 43.9024 2.52282 42.8057ZM37.7748 23.9063C37.2038 22.8907 36.6587 21.9303 36.1201 20.9602C35.9611 20.6747 35.7275 20.5676 35.5263 20.373C34.9066 21.3496 34.2999 22.3067 33.6737 23.2963C35.0429 23.5039 36.3894 23.7019 37.7748 23.9063ZM12.0066 23.2963C11.3772 22.3002 10.764 21.3398 10.141 20.3535C9.95282 20.5384 9.73869 20.6747 9.60566 20.8986C9.05084 21.8363 8.52198 22.8031 7.98339 23.7603C7.96392 23.7992 7.9477 23.8381 7.91525 23.9063C9.28445 23.7019 10.6277 23.5039 12.0066 23.2963ZM26.6849 62.9349C25.4617 62.1692 24.271 61.4294 23.0705 60.6799C23.0705 61.8934 23.0705 63.0874 23.0705 64.2651C23.2847 64.2651 23.5053 64.33 23.6935 64.2522C24.6831 63.8401 25.6629 63.3924 26.6849 62.9349ZM22.6066 60.6799C21.3996 61.4326 20.2088 62.1757 18.9954 62.9349C19.0635 62.9673 19.1024 62.9835 19.1414 63.003C20.0401 63.4021 20.9389 63.7947 21.8376 64.2035C22.0939 64.3203 22.3437 64.2716 22.6066 64.2846C22.6066 63.0841 22.6066 61.8934 22.6066 60.6799ZM45.1529 39.9051C44.5462 39.0453 43.9492 38.1985 43.3327 37.3225C43.4041 38.7922 43.4722 40.2036 43.5436 41.6539C44.0952 41.0537 44.6143 40.4859 45.1529 39.9051ZM2.33788 37.3776C2.32815 37.3744 2.31841 37.3646 2.30868 37.3614C1.71493 38.2017 1.12118 39.0486 0.520935 39.9019C1.06277 40.4891 1.58514 41.0569 2.13023 41.6474C2.20161 40.1971 2.26975 38.789 2.33788 37.3776ZM4.90756 28.2377C5.59216 27.021 6.2508 25.8498 6.9354 24.633C6.18267 24.7466 5.4786 24.8537 4.76155 24.9607C4.81347 26.0542 4.85889 27.1184 4.90756 28.2377ZM40.909 24.9607C40.1887 24.8537 39.4847 24.7499 38.7352 24.6363C39.423 25.853 40.0817 27.0275 40.763 28.241C40.8149 27.1119 40.8636 26.0509 40.909 24.9607ZM7.49022 55.7839C7.49671 55.7709 7.49995 55.7579 7.5032 55.745C6.73748 54.6678 5.97177 53.5938 5.18983 52.4939C5.05356 53.331 4.92378 54.1324 4.79076 54.9501C5.69599 55.2291 6.59472 55.5049 7.49022 55.7839ZM38.1641 55.7482C38.1706 55.7612 38.1739 55.7709 38.1804 55.7839C39.0791 55.5049 39.9778 55.2291 40.8798 54.9468C40.7436 54.1227 40.6138 53.3245 40.4808 52.4907C39.6956 53.6036 38.9299 54.6743 38.1641 55.7482ZM27.8595 63.0419C28.4824 63.4313 29.0664 63.7914 29.6505 64.1613C29.7413 64.2197 29.7867 64.2035 29.8484 64.0964C30.3059 63.2853 30.7633 62.4806 31.2208 61.676C31.2435 61.6371 31.2598 61.5949 31.2987 61.517C30.1469 62.0232 29.021 62.5228 27.8595 63.0419ZM17.8144 63.0355C16.6528 62.5196 15.527 62.0199 14.4011 61.5203C14.8813 62.4157 15.3712 63.2853 15.8676 64.1451C15.8839 64.1775 15.9455 64.1905 15.9715 64.1775C16.5782 63.8141 17.1784 63.4345 17.8144 63.0355ZM18.5509 16.7975C18.5152 16.765 18.499 16.7521 18.4827 16.7423C17.6651 16.3854 16.8507 16.0318 16.0363 15.6716C15.9585 15.6359 15.926 15.6749 15.8936 15.756C15.7281 16.1648 15.5562 16.5704 15.3874 16.9792C15.2706 17.2614 15.1538 17.547 15.0208 17.8649C16.2051 17.508 17.3666 17.1576 18.5509 16.7975ZM27.11 16.7942C28.3072 17.1576 29.4655 17.508 30.6498 17.8682C30.6173 17.7838 30.5979 17.7319 30.5784 17.6832C30.3188 17.057 30.056 16.4373 29.803 15.8079C29.751 15.6781 29.7056 15.6457 29.5985 15.6911C28.8231 16.035 28.0477 16.3692 27.2722 16.7099C27.2235 16.7293 27.1814 16.7553 27.11 16.7942ZM8.73937 42.6662C9.02813 43.1886 9.31365 43.698 9.61215 44.2301C10.0631 42.6468 10.4979 41.1056 10.9359 39.5644C10.9262 39.5579 10.9197 39.5482 10.91 39.5417C10.1897 40.58 9.46615 41.6182 8.73937 42.6662ZM36.9345 42.6662C36.2044 41.615 35.4842 40.58 34.7639 39.5417C34.7541 39.5482 34.7476 39.5579 34.7379 39.5644C35.1759 41.1088 35.6139 42.65 36.0617 44.2268C36.3602 43.6882 36.6425 43.1853 36.9345 42.6662ZM14.32 27.6343C14.2875 27.631 14.2746 27.6278 14.2648 27.631C13.8106 27.8354 13.3596 28.0398 12.9054 28.241C12.8242 28.2767 12.8307 28.3481 12.834 28.4357C12.8664 29.3344 12.9021 30.2299 12.9346 31.1319C12.9475 31.505 12.967 31.8814 12.9832 32.2545C12.993 32.2545 13.0027 32.2577 13.0124 32.2577C13.444 30.7231 13.8787 29.1884 14.32 27.6343ZM32.6646 32.2577C32.6744 32.2577 32.6841 32.2545 32.6938 32.2545C32.7003 32.1928 32.7036 32.1279 32.7068 32.0663C32.7555 30.8463 32.8009 29.6296 32.8463 28.4097C32.8528 28.2961 32.8139 28.2669 32.749 28.241C32.3175 28.0528 31.886 27.8549 31.4577 27.6602C31.4285 27.6472 31.3993 27.644 31.3538 27.6343C31.7951 29.1884 32.2299 30.7198 32.6646 32.2577ZM18.8331 52.7989C18.8494 52.8541 18.8526 52.8671 18.8591 52.8768C19.4593 53.915 20.0596 54.9533 20.6566 55.9948C20.7085 56.0889 20.7637 56.0954 20.8383 56.0727C21.1595 55.9721 21.4775 55.8812 21.7987 55.7839C21.9382 55.7417 22.0809 55.6996 22.2561 55.6476C21.0978 54.684 19.9752 53.7528 18.8331 52.7989ZM26.8374 52.8443C26.8309 52.8379 26.8277 52.8281 26.8212 52.8184C25.6986 53.7528 24.576 54.6872 23.4469 55.6249C23.4631 55.6444 23.4696 55.6574 23.4793 55.6606C23.9465 55.8001 24.4105 55.9461 24.8777 56.0727C24.9232 56.0856 24.9978 56.024 25.0335 55.9656C25.5753 55.0441 26.1074 54.113 26.6428 53.185C26.7044 53.0715 26.7725 52.9579 26.8374 52.8443ZM10.0307 47.1924C11.1176 47.5363 12.1916 47.877 13.2655 48.2209C13.2688 48.2047 13.2752 48.1949 13.2752 48.1787C12.1688 47.2605 11.0625 46.3358 9.93336 45.3981C9.96905 46.0211 10.0015 46.5954 10.0307 47.1924ZM35.7372 45.3949C34.6016 46.3358 33.5017 47.2572 32.3986 48.1755C32.4051 48.1917 32.4083 48.2014 32.4116 48.2176C33.4855 47.8769 34.5627 47.533 35.6399 47.1956C35.6756 46.6018 35.7015 46.0243 35.7372 45.3949ZM19.3717 26.8134C19.3166 26.7809 19.2971 26.7712 19.2776 26.7582C18.2881 26.3332 17.292 25.9049 16.2992 25.4864C16.2537 25.4669 16.1726 25.5091 16.1369 25.561C15.8579 25.9341 15.5886 26.317 15.3161 26.6998C15.2966 26.7258 15.2804 26.7647 15.2544 26.8134C16.6236 26.8134 17.9766 26.8134 19.3717 26.8134ZM30.4064 26.8134C30.4162 26.7907 30.4324 26.768 30.4421 26.7485C30.1274 26.3364 29.8159 25.9179 29.4947 25.5123C29.4655 25.4766 29.3909 25.4799 29.3455 25.4993C28.5992 25.8173 27.853 26.1353 27.1035 26.4565C26.8472 26.5635 26.5909 26.6771 26.3345 26.7842C26.3378 26.7907 26.3378 26.8036 26.341 26.8101C27.6972 26.8134 29.0535 26.8134 30.4064 26.8134ZM32.9988 24.4124C32.9891 24.4092 32.9794 24.4059 32.9664 24.3994C32.4278 25.2495 31.8892 26.1028 31.3376 26.9724C31.86 27.2092 32.3564 27.4331 32.8723 27.6635C32.9145 26.5603 32.9567 25.4864 32.9988 24.4124ZM12.7042 24.3994C12.6945 24.4059 12.6847 24.4124 12.675 24.4189C12.7172 25.4929 12.7561 26.5668 12.7983 27.6667C13.3207 27.4298 13.8171 27.206 14.333 26.9756C13.7814 26.0963 13.2428 25.2495 12.7042 24.3994ZM23.0673 59.3724C23.6091 58.4379 24.1218 57.5424 24.6539 56.6242C24.112 56.462 23.5961 56.3128 23.0673 56.1538C23.0673 57.2245 23.0673 58.2725 23.0673 59.3724ZM22.6066 59.3626C22.6066 58.266 22.6066 57.2147 22.6066 56.1505C22.0777 56.3095 21.5618 56.462 21.0232 56.621C21.5521 57.5457 22.068 58.4379 22.6066 59.3626ZM15.7508 25.2495C14.8553 24.8667 13.9826 24.4935 13.113 24.1172C13.1065 24.1237 13.1033 24.1366 13.1 24.1431C13.6354 24.99 14.174 25.8303 14.6866 26.6414C15.0403 26.1742 15.3874 25.7232 15.7508 25.2495ZM29.9295 25.243C30.2896 25.7167 30.6368 26.1774 30.9872 26.6447C31.5063 25.8303 32.0417 24.9867 32.5738 24.1464C32.5673 24.1399 32.5641 24.1269 32.5608 24.1204C31.6913 24.4903 30.8185 24.8667 29.9295 25.243ZM37.2265 43.0913C36.9345 43.6169 36.6489 44.1263 36.3537 44.6584C37.233 44.9861 38.0928 45.3073 38.9526 45.6285C38.9591 45.6155 38.9623 45.6058 38.9655 45.596C38.3945 44.7622 37.817 43.9316 37.2265 43.0913ZM9.32014 44.6584C9.02164 44.123 8.73612 43.6104 8.44411 43.0913C7.85361 43.9413 7.27932 44.7719 6.70504 45.596C6.71153 45.609 6.71477 45.6188 6.71802 45.6317C7.58107 45.3073 8.43762 44.9861 9.32014 44.6584ZM38.7579 46.2028C38.7579 46.1898 38.7579 46.1801 38.7579 46.1671C37.9111 45.8491 37.061 45.5376 36.1979 45.2164C36.1655 45.8426 36.1331 46.4331 36.1039 47.0463C36.9994 46.7576 37.8786 46.4818 38.7579 46.2028ZM9.57321 47.0431C9.54077 46.4169 9.50833 45.8264 9.47588 45.2132C8.60959 45.5344 7.76276 45.8491 6.91918 46.1638C6.91918 46.1768 6.91918 46.1865 6.91918 46.2028C7.79845 46.4818 8.67447 46.7641 9.57321 47.0431ZM44.9517 40.9044C44.9452 40.8915 44.9388 40.885 44.9323 40.872C44.4943 41.3457 44.0562 41.8194 43.6247 42.2963C43.5923 42.332 43.5825 42.4359 43.5858 42.5007C43.615 43.1724 43.6507 43.8472 43.6831 44.5221C43.6928 44.7297 43.7026 44.9439 43.7156 45.1515C43.7253 45.1548 43.735 45.1548 43.748 45.158C44.1471 43.7434 44.5494 42.3223 44.9517 40.9044ZM1.94205 45.197C1.95503 45.1288 1.96476 45.1029 1.96476 45.0802C2.00694 44.2041 2.05236 43.3216 2.08805 42.4456C2.0913 42.3807 2.04911 42.2898 2.01018 42.2477C1.60461 41.7999 1.1958 41.3587 0.786985 40.9142C0.774007 40.8979 0.754541 40.8915 0.712362 40.8655C1.12442 42.3255 1.52675 43.7434 1.94205 45.197ZM42.4242 49.8172C42.4145 49.8139 42.408 49.8042 42.3983 49.801C41.983 50.385 41.5807 50.9917 41.1491 51.5433C40.9058 51.8515 40.8344 52.137 40.935 52.5718C41.0485 53.065 41.1102 53.5809 41.201 54.1422C41.6163 52.6627 42.0187 51.2383 42.4242 49.8172ZM4.47279 54.1227C4.49226 54.0383 4.50524 53.9864 4.51173 53.941C4.60906 53.3375 4.70315 52.7373 4.80698 52.137C4.82644 52.017 4.80698 51.9488 4.74858 51.8677C4.2911 51.2253 3.83037 50.5829 3.37289 49.9372C3.34369 49.8983 3.31773 49.8691 3.28529 49.8302C3.27555 49.8367 3.26907 49.8464 3.25933 49.8529C3.66166 51.2643 4.06073 52.6756 4.47279 54.1227ZM15.222 16.1907C15.2155 16.1843 15.209 16.1745 15.2025 16.168C14.1902 17.0149 13.1714 17.8552 12.1591 18.702C12.9021 18.5138 13.6354 18.2932 14.3622 18.0661C14.4141 18.0499 14.4757 17.9817 14.5049 17.9104C14.7061 17.4464 14.8975 16.9759 15.0889 16.5055C15.1376 16.3952 15.1798 16.2913 15.222 16.1907ZM30.4746 16.168C30.4681 16.1745 30.4616 16.181 30.4551 16.1875C30.4746 16.2362 30.4908 16.2881 30.5103 16.3335C30.7244 16.8461 30.9385 17.362 31.1462 17.8779C31.1949 17.998 31.2565 18.0531 31.3474 18.0791C31.727 18.1926 32.1066 18.3062 32.4862 18.423C32.8236 18.5236 33.1611 18.6242 33.5017 18.7247C33.505 18.7118 33.5082 18.7053 33.5115 18.6923C32.4992 17.8552 31.4836 17.0149 30.4746 16.168ZM40.1433 24.2632C40.1466 24.2502 40.1498 24.2372 40.1498 24.2242C39.1407 23.3871 38.1349 22.5468 37.1259 21.7065C37.5185 22.4657 37.924 23.1957 38.3361 23.9192C38.3621 23.9614 38.4107 23.9939 38.4529 24.0004C39.0175 24.0945 39.582 24.1788 40.1433 24.2632ZM8.56416 21.7454C8.55443 21.7324 8.54794 21.7227 8.54145 21.713C7.5324 22.5501 6.52659 23.3936 5.51429 24.2307C6.08857 24.1821 6.65313 24.0945 7.21443 24.0069C7.25661 24.0004 7.30852 23.9679 7.33124 23.9257C7.74978 23.1957 8.15535 22.4722 8.56416 21.7454ZM3.14902 32.6308C3.43778 33.1532 3.71357 33.6464 3.9634 34.0909C4.197 33.8021 4.42737 33.5101 4.65773 33.2214C4.67071 33.2019 4.68693 33.163 4.68369 33.137C4.67071 32.7541 4.65449 32.3713 4.63826 31.9625C4.13211 32.1863 3.64868 32.4037 3.14902 32.6308ZM41.7137 34.0909C41.9635 33.6431 42.2393 33.1435 42.5281 32.6308C42.0252 32.4037 41.5385 32.1863 41.0388 31.9625C41.0226 32.3713 41.0031 32.7412 40.9934 33.1175C40.9934 33.1532 41.0031 33.1986 41.0226 33.2214C41.2497 33.5134 41.4801 33.7989 41.7137 34.0909ZM23.8395 17.6086C23.4891 17.1446 23.1516 16.7034 22.8466 16.3043C22.5254 16.7229 22.1912 17.1576 21.8408 17.6151C22.175 17.7611 22.4897 17.9006 22.8077 18.0369C22.8337 18.0499 22.8629 18.0369 22.8888 18.0304C23.1938 17.8876 23.502 17.7546 23.8395 17.6086ZM35.111 57.3283C34.7606 57.4354 34.4264 57.536 34.0955 57.6398C34.063 57.6528 34.0241 57.6787 34.0014 57.7177C33.8294 58.0162 33.6607 58.3114 33.479 58.6359C34.0014 58.7916 34.5075 58.9408 35.0202 59.0966C35.0494 58.4996 35.0786 57.9318 35.111 57.3283ZM12.1981 58.6391C12.0131 58.3114 11.8476 58.0162 11.6757 57.7274C11.6562 57.6917 11.6238 57.6625 11.5978 57.6528C11.2571 57.5457 10.9165 57.4419 10.5628 57.3316C10.5952 57.9286 10.6244 58.5061 10.6569 59.0966C11.1728 58.9441 11.6724 58.7916 12.1981 58.6391ZM16.9026 64.2392C16.9026 64.2522 16.9059 64.2651 16.9059 64.2781C18.1096 64.2781 19.3198 64.2781 20.5463 64.2781C20.5171 64.2522 20.5106 64.2359 20.4976 64.2327C19.8227 63.931 19.1446 63.6292 18.4665 63.334C18.4341 63.3177 18.3919 63.3177 18.3594 63.3372C17.8695 63.6357 17.3861 63.9374 16.9026 64.2392ZM28.7712 64.2749C28.7712 64.2651 28.7744 64.2522 28.7744 64.2359C28.291 63.9342 27.8076 63.6292 27.3176 63.3307C27.2755 63.3048 27.2073 63.3242 27.1587 63.3469C26.6687 63.5578 26.1788 63.7785 25.6889 63.9991C25.5072 64.0802 25.3287 64.1613 25.147 64.2424C25.1503 64.2554 25.1503 64.2651 25.1535 64.2716C26.3572 64.2749 27.5642 64.2749 28.7712 64.2749ZM0.984903 38.4029C1.01735 38.3769 1.03358 38.3672 1.04006 38.3575C1.47159 37.7475 1.90311 37.1375 2.32814 36.5243C2.36708 36.4659 2.38655 36.3653 2.38979 36.281C2.41575 35.8916 2.43197 35.4958 2.4482 35.1064C2.46117 34.795 2.47415 34.477 2.48713 34.1655C2.47739 34.1623 2.46766 34.1623 2.45468 34.159C1.97124 35.5607 1.48456 36.9623 0.984903 38.4029ZM44.6532 38.3834C44.663 38.3769 44.6695 38.3704 44.6759 38.364C44.186 36.9591 43.6993 35.5509 43.2094 34.146C43.2127 34.8923 43.2451 35.6256 43.284 36.3556C43.2873 36.4107 43.3068 36.4724 43.3327 36.5113C43.774 37.1343 44.2152 37.7605 44.6532 38.3834ZM41.3114 26.4824C41.3016 26.4824 41.2919 26.4824 41.2822 26.4857C41.2465 27.2774 41.2075 28.0723 41.1783 28.8639C41.1751 28.9288 41.2075 29.0099 41.2367 29.0683C41.5612 29.6524 41.8856 30.2299 42.2133 30.8107C42.2296 30.8431 42.2458 30.8723 42.2653 30.9047C42.275 30.8983 42.2782 30.8885 42.288 30.8788C41.9635 29.4155 41.6358 27.949 41.3114 26.4824ZM4.39167 26.4922C4.38194 26.4889 4.37221 26.4857 4.36247 26.4792C4.03478 27.9457 3.71032 29.4155 3.37938 30.8983C3.40209 30.8853 3.41182 30.882 3.41507 30.8756C3.76548 30.2591 4.11589 29.6361 4.46306 29.0132C4.48577 28.971 4.4955 28.9061 4.4955 28.8542C4.4663 28.0723 4.43061 27.2806 4.39167 26.4922ZM33.8521 60.4074C33.81 60.4106 33.797 60.4074 33.7808 60.4106C33.2162 60.6605 32.6484 60.9103 32.0871 61.1666C32.0384 61.1893 31.993 61.2477 31.9606 61.3061C31.6296 61.8869 31.2954 62.4677 30.9645 63.0549C30.9418 63.0971 30.9223 63.1393 30.8996 63.1815C30.9061 63.188 30.9093 63.1944 30.9158 63.2009C31.8892 62.273 32.8626 61.3483 33.8521 60.4074ZM14.758 63.1977C14.7645 63.1912 14.7677 63.1782 14.7775 63.1717C14.5471 62.7629 14.294 62.3768 14.0864 61.9453C13.8203 61.3807 13.4764 61.0141 12.9897 60.9038C12.9151 60.8876 12.8502 60.8421 12.7756 60.8065C12.4738 60.6767 12.1721 60.5404 11.8704 60.4074C11.8639 60.4204 11.8606 60.4301 11.8574 60.4463C12.8243 61.3613 13.7911 62.2795 14.758 63.1977ZM39.5366 56.0045C39.5366 55.9916 39.5333 55.9851 39.5333 55.9721C39.5204 55.9721 39.5041 55.9688 39.4912 55.9721C38.8844 56.1603 38.2777 56.3485 37.671 56.5399C37.6126 56.5594 37.5542 56.6145 37.5087 56.6697C37.1973 57.1012 36.8858 57.5424 36.5743 57.9805C36.5192 58.0583 36.451 58.1232 36.3861 58.1914C36.3991 58.2108 36.4153 58.2335 36.4251 58.253C37.4633 57.5068 38.5016 56.7573 39.5366 56.0045ZM9.24227 58.2562C9.25201 58.2433 9.25525 58.2335 9.26498 58.2206C8.88213 57.6852 8.49927 57.1434 8.11642 56.6113C8.08397 56.5691 8.0353 56.5529 7.99312 56.5366C7.58106 56.4101 7.17225 56.2803 6.76019 56.1538C6.55579 56.0921 6.34814 56.0272 6.14373 55.9656C6.14049 55.9786 6.13724 55.9916 6.134 56.0045C7.17225 56.754 8.20726 57.5068 9.24227 58.2562ZM28.0866 15.7462C28.0866 15.7333 28.0866 15.7235 28.0866 15.7073C26.8991 15.7949 25.7116 15.8825 24.5241 15.9701C24.5565 16.0091 24.5922 16.0285 24.6279 16.035C25.0205 16.1551 25.4196 16.2459 25.8057 16.3984C26.1269 16.5217 26.4189 16.5022 26.7304 16.3432C27.1749 16.1259 27.6324 15.9474 28.0866 15.7462ZM21.1595 16.0058C21.1595 15.9928 21.1562 15.9863 21.1562 15.9734C19.9687 15.8858 18.7812 15.7982 17.5483 15.7073C17.6002 15.7462 17.6164 15.7625 17.6327 15.769C18.1972 16.0155 18.765 16.2621 19.3296 16.5055C19.375 16.5249 19.4301 16.5249 19.4788 16.5087C19.8098 16.4114 20.1375 16.314 20.4684 16.2167C20.6955 16.1486 20.9259 16.0772 21.1595 16.0058ZM41.9603 34.5938C42.249 34.9539 42.5378 35.3076 42.8006 35.6353C42.7682 34.9247 42.726 34.1363 42.6903 33.3479C42.6806 33.3446 42.6708 33.3414 42.6578 33.3349C42.434 33.7437 42.2068 34.1525 41.9603 34.5938ZM3.01599 33.3414C3.00626 33.3447 2.99003 33.3479 2.9803 33.3544C2.94461 34.1396 2.90568 34.9215 2.86999 35.6256C3.1328 35.3011 3.41831 34.9442 3.70708 34.5873C3.47022 34.1525 3.23986 33.747 3.01599 33.3414ZM41.1297 29.8697C41.1069 30.3824 41.0875 30.8366 41.0745 31.2876C41.0745 31.32 41.1069 31.3655 41.1264 31.3752C41.493 31.5439 41.8597 31.7126 42.2685 31.8943C41.8824 31.2032 41.519 30.5608 41.1297 29.8697ZM4.54417 29.8697C4.15482 30.5608 3.79144 31.2032 3.40534 31.8943C3.81415 31.7094 4.18078 31.5472 4.54417 31.3752C4.57013 31.3622 4.59933 31.3006 4.59933 31.2681C4.58635 30.8204 4.56364 30.3759 4.54417 29.8697ZM35.4874 58.6586C35.9351 58.0291 36.3537 57.4419 36.7722 56.8546C36.3797 56.939 36.0065 57.0525 35.6334 57.1758C35.6042 57.1823 35.5653 57.2342 35.562 57.2699C35.5361 57.7079 35.5133 58.1524 35.4874 58.6586ZM10.1799 58.4996C10.1605 58.1362 10.1378 57.6917 10.1118 57.2472C10.1086 57.2147 10.0729 57.1791 10.0469 57.1693C9.67055 57.0493 9.29094 56.9325 8.91457 56.8189C8.90484 56.8351 8.9016 56.8449 8.89186 56.8611C9.32663 57.4192 9.76464 57.974 10.1799 58.4996ZM34.3323 59.5411C34.3323 59.5249 34.3291 59.5086 34.3291 59.4989C33.9657 59.3918 33.6023 59.2815 33.2389 59.1777C33.213 59.1712 33.1675 59.1842 33.1546 59.2134C32.9437 59.5768 32.736 59.9434 32.5284 60.31C32.5349 60.323 32.5381 60.3295 32.5446 60.3425C33.1384 60.07 33.7353 59.8071 34.3323 59.5411ZM25.4098 16.9175C25.4098 16.9045 25.4098 16.8948 25.4098 16.8818C24.7836 16.6937 24.1639 16.5022 23.5377 16.314C23.528 16.3335 23.515 16.3497 23.5053 16.3692C23.7551 16.6969 24.0049 17.0246 24.2548 17.3491C24.2775 17.375 24.3262 17.388 24.3521 17.375C24.709 17.229 25.0594 17.0733 25.4098 16.9175ZM13.1747 60.3555C13.0351 60.1089 12.9183 59.9045 12.8015 59.7033C12.701 59.5249 12.6198 59.2653 12.4901 59.2004C12.3505 59.1355 12.1656 59.2556 12.0034 59.301C11.7828 59.3626 11.5654 59.4308 11.3447 59.5022C11.3447 59.5184 11.3447 59.5281 11.3447 59.5443C11.9417 59.8071 12.542 60.0732 13.1747 60.3555ZM20.264 16.8883C20.264 16.9013 20.264 16.911 20.264 16.924C20.6144 17.0798 20.9648 17.2355 21.3185 17.3847C21.3477 17.3977 21.3963 17.3847 21.4158 17.3588C21.6656 17.0343 21.9155 16.7066 22.1653 16.3789C22.1556 16.3627 22.1458 16.3432 22.1329 16.3303C21.5099 16.5087 20.8869 16.6969 20.264 16.8883ZM40.776 35.7099C40.7857 35.7132 40.7922 35.7229 40.802 35.7261C41.0096 35.3563 41.2173 34.9799 41.4314 34.597C41.2562 34.3764 41.094 34.172 40.9253 33.9546C40.8733 34.5354 40.8247 35.1227 40.776 35.7099ZM4.87187 35.7229C4.8816 35.7197 4.88809 35.7099 4.90107 35.7067C4.84916 35.1194 4.80374 34.5321 4.75507 33.9741C4.58635 34.1817 4.42088 34.3861 4.24892 34.6003C4.45981 34.9831 4.66746 35.353 4.87187 35.7229ZM10.5044 55.4757C10.4947 55.4789 10.4784 55.4822 10.4687 55.4886C10.4882 55.8747 10.5109 56.2608 10.5336 56.6469C10.5368 56.6762 10.5563 56.7248 10.5758 56.7313C10.7932 56.8059 11.0105 56.8708 11.2669 56.9487C10.9943 56.4263 10.751 55.9494 10.5044 55.4757ZM35.2051 55.4919C35.1954 55.4887 35.1792 55.4854 35.1694 55.4789C34.9228 55.9591 34.6763 56.4328 34.4102 56.9552C34.6568 56.8773 34.8677 56.8157 35.0753 56.7475C35.1045 56.741 35.1402 56.6891 35.1435 56.6567C35.1662 56.2641 35.1856 55.878 35.2051 55.4919ZM5.09899 32.6179C5.43967 32.1734 5.75438 31.7678 6.06586 31.359C5.73816 31.4628 5.42993 31.6023 5.11845 31.7483C5.0925 31.7613 5.06654 31.8327 5.06654 31.8749C5.07627 32.1052 5.08925 32.3388 5.09899 32.6179ZM40.5716 32.6179C40.5813 32.3486 40.5878 32.1247 40.604 31.9008C40.6105 31.797 40.5781 31.7548 40.51 31.7224C40.2601 31.6153 40.0103 31.4985 39.7605 31.3849C39.7118 31.3622 39.6631 31.346 39.6145 31.3233C39.6112 31.3363 39.608 31.346 39.6047 31.359C39.9194 31.7678 40.2309 32.1734 40.5716 32.6179ZM22.1848 18.3613C21.9479 18.2575 21.75 18.1667 21.5521 18.0856C21.5326 18.0791 21.4969 18.092 21.4774 18.118C21.2601 18.397 21.0459 18.6793 20.8285 18.9583C20.8383 18.9778 20.8513 18.9973 20.861 19.0167C21.2893 18.8091 21.7143 18.5982 22.1848 18.3613ZM24.8096 19.02C24.8193 18.9973 24.8323 18.9778 24.842 18.9551C24.6311 18.6793 24.4235 18.4068 24.2126 18.1375C24.1899 18.105 24.1412 18.0823 24.1153 18.0953C23.9206 18.1732 23.7259 18.2608 23.4923 18.3646C23.9563 18.5982 24.3813 18.8058 24.8096 19.02ZM33.4109 57.8247C32.9307 57.948 32.4829 58.0616 32.0352 58.1751C32.3434 58.3017 32.6517 58.3958 32.9599 58.4801C32.9923 58.4866 33.041 58.4607 33.0637 58.425C33.1773 58.24 33.2811 58.0518 33.4109 57.8247ZM12.2629 57.8247C12.3927 58.0518 12.503 58.2498 12.6166 58.4412C12.6328 58.4671 12.675 58.4866 12.6977 58.4834C13.0124 58.3958 13.3239 58.3017 13.6386 58.2076C13.6386 58.1946 13.6386 58.1849 13.6354 58.1719C13.1909 58.0583 12.7431 57.948 12.2629 57.8247ZM33.1838 35.7878C33.1319 35.6028 33.0864 35.4406 33.041 35.2816C33.0313 35.2849 33.0183 35.2881 33.0086 35.2881C33.0086 35.4731 33.0086 35.658 33.0086 35.8527C33.0637 35.83 33.1156 35.8105 33.1838 35.7878ZM12.6653 35.8527C12.6653 35.6483 12.6653 35.4698 12.6653 35.2881C12.6555 35.2849 12.6458 35.2849 12.6328 35.2816C12.5842 35.4471 12.5387 35.6126 12.4901 35.7878C12.5614 35.8137 12.6101 35.83 12.6653 35.8527ZM12.3376 36.3231C12.2857 36.4983 12.2435 36.6541 12.1981 36.8131C12.2078 36.8195 12.211 36.826 12.2208 36.8325C12.3181 36.693 12.4122 36.5535 12.5225 36.3945C12.4544 36.3718 12.4057 36.3523 12.3376 36.3231ZM33.1513 36.3945C33.2649 36.5567 33.359 36.6963 33.4563 36.8358C33.4628 36.8325 33.4693 36.8228 33.4758 36.8196C33.4304 36.6573 33.3817 36.4951 33.3363 36.3296C33.2714 36.3523 33.226 36.3653 33.1513 36.3945ZM16.9286 50.5083C16.9383 50.4953 16.9416 50.4888 16.9513 50.4758C16.8702 50.3331 16.7858 50.1936 16.695 50.0346C16.6561 50.1027 16.6236 50.1546 16.5879 50.2163C16.7112 50.3266 16.8183 50.4174 16.9286 50.5083ZM28.9788 50.0411C28.8847 50.2001 28.8036 50.3428 28.7225 50.4823C28.729 50.4953 28.7355 50.5018 28.742 50.5148C28.8588 50.4174 28.9691 50.3266 29.1086 50.213C29.0535 50.1384 29.021 50.0962 28.9788 50.0411ZM16.3089 49.7718C16.1888 49.7361 16.0818 49.7036 15.9552 49.6647C16.1661 49.9308 16.2213 49.9437 16.3089 49.7718ZM29.7316 49.6582C29.5921 49.7004 29.485 49.7361 29.3747 49.7718C29.4493 49.9535 29.4817 49.9405 29.7316 49.6582ZM23.0738 27.5856C23.1679 27.5434 23.262 27.5045 23.3917 27.4461C23.0867 27.3844 23.0543 27.3974 23.0738 27.5856ZM22.6066 27.5888C22.6098 27.4039 22.5319 27.3714 22.3048 27.459C22.4151 27.5045 22.506 27.5434 22.6066 27.5888Z" fill="#FFA700"/>
<path d="M60.8694 28.536H56.7585V25.4375H66.9367C67.5726 25.4375 68.0788 25.9599 68.0788 26.5796V28.536H63.9679V38.4838H60.8694V28.536Z" fill="white"/>
<path d="M82.3484 31.9623C82.3484 35.567 79.4283 38.4871 75.8236 38.4871C72.2189 38.4871 69.2988 35.567 69.2988 31.9623C69.2988 28.3576 72.2189 25.4375 75.8236 25.4375C79.4283 25.4375 82.3484 28.3576 82.3484 31.9623ZM79.2336 31.9623C79.2336 30.0869 77.6989 28.5523 75.8236 28.5523C73.932 28.5523 72.4136 30.0869 72.4136 31.9623C72.4136 33.8539 73.932 35.3723 75.8236 35.3723C77.6989 35.3723 79.2336 33.8539 79.2336 31.9623Z" fill="white"/>
<path d="M84.3858 25.4375H87.1761C87.2897 25.4375 87.4032 25.4862 87.4876 25.5835L91.0112 29.6781L94.5348 25.5835C94.6159 25.4862 94.7294 25.4375 94.8625 25.4375H97.6333V38.4838H94.5348V30.3303L93.0682 32.0596L91.8775 33.4288C91.42 33.9512 90.6056 33.9512 90.1481 33.4288L87.4908 30.3303V38.4838H84.3923V25.4375H84.3858Z" fill="white"/>
<path d="M105.78 25.4375H107.753C108.389 25.4375 108.895 25.9437 108.895 26.5796V30.4114H113.95V25.4375H115.923C116.543 25.4375 117.065 25.9437 117.065 26.5796V38.4871H113.95V33.5132H108.895V38.4871H105.78V25.4375Z" fill="white"/>
<path d="M132.149 31.9623C132.149 35.567 129.229 38.4871 125.624 38.4871C122.019 38.4871 119.099 35.567 119.099 31.9623C119.099 28.3576 122.019 25.4375 125.624 25.4375C129.229 25.4375 132.149 28.3576 132.149 31.9623ZM129.034 31.9623C129.034 30.0869 127.499 28.5523 125.624 28.5523C123.733 28.5523 122.214 30.0869 122.214 31.9623C122.214 33.8539 123.733 35.3723 125.624 35.3723C127.503 35.3723 129.034 33.8539 129.034 31.9623Z" fill="white"/>
<path d="M134.186 32.9912C134.186 32.3715 134.709 31.8491 135.328 31.8491H139.047C139.994 31.8491 140.744 31.0834 140.695 30.136C140.662 29.2405 139.897 28.5526 139.014 28.5526H134.186V25.4541H138.998C141.607 25.4541 143.826 27.5728 143.81 30.1846C143.81 32.0762 142.7 33.692 141.084 34.4415L145.13 38.4874H140.825L137.285 34.9476V38.4874H134.186V32.9912Z" fill="white"/>
<path d="M146.759 25.4375H149.205C149.533 25.4375 149.858 25.5835 150.069 25.8301L156.902 33.7727V25.4375H158.858C159.494 25.4375 160 25.9437 160 26.5796V38.4871H156.869L149.858 30.3335V38.4871H146.759V25.4375Z" fill="white"/>
<path d="M59.2861 54.5763C59.2244 54.5568 59.1498 54.5341 59.0882 54.5049C59.0265 54.4855 58.9649 54.453 58.9 54.4335L58.7637 54.3622L58.5041 54.2259C58.462 54.1935 58.4101 54.174 58.3711 54.1415C58.2868 54.0896 58.2056 54.028 58.131 53.9761C57.9656 53.8528 57.8195 53.7165 57.6735 53.5802C56.9273 52.8243 56.4601 51.786 56.4601 50.6439C56.4601 49.4921 56.9273 48.4539 57.6735 47.7076C57.8195 47.5616 57.9656 47.4383 58.131 47.315C58.2024 47.2534 58.2868 47.2015 58.3711 47.1495C58.5463 47.036 58.7248 46.9419 58.9 46.8575C58.9616 46.8251 59.0233 46.8056 59.0882 46.7732L59.2861 46.7115C59.7014 46.5655 60.1459 46.4941 60.6131 46.4941C61.0803 46.4941 61.5248 46.5655 61.9401 46.7115L62.138 46.7732C62.1997 46.8056 62.2613 46.8251 62.3262 46.8575C62.5144 46.9419 62.6896 47.0327 62.8551 47.1495C62.9394 47.2015 63.0206 47.2534 63.1049 47.315C63.2607 47.4383 63.4164 47.5648 63.5527 47.7076L62.1608 49.0995C62.0569 49.0054 61.9531 48.9113 61.8395 48.84H61.8298C61.8103 48.8205 61.7779 48.7978 61.7455 48.7783L61.6838 48.7459L61.5994 48.6939C61.5378 48.6615 61.4859 48.642 61.4242 48.6226L61.3399 48.5901C61.3204 48.5804 61.2977 48.5707 61.2782 48.5707C61.2588 48.5609 61.2458 48.5609 61.2361 48.5512C61.2166 48.5512 61.1841 48.5415 61.1647 48.5317C60.9895 48.4895 60.8013 48.4701 60.6163 48.4701C60.4282 48.4701 60.2432 48.4895 60.0778 48.5317C60.0453 48.5415 60.0258 48.5512 59.9934 48.5512L59.961 48.5707C59.9415 48.5707 59.909 48.5804 59.8896 48.5901L59.8052 48.6226C59.7436 48.642 59.6917 48.6647 59.6397 48.6939L59.5684 48.7264L59.5359 48.7588L59.4743 48.7913C59.4548 48.801 59.4224 48.8237 59.4029 48.8432L59.3088 48.9048C59.3088 48.9048 59.2991 48.9048 59.2991 48.9146H59.2893V48.9243C59.2472 48.9438 59.2179 48.9762 59.1855 48.9957V49.0054C58.728 49.4013 58.4393 49.9918 58.4393 50.6439C58.4393 51.2993 58.7313 51.8801 59.1855 52.2824C59.2179 52.3019 59.2472 52.3343 59.2893 52.3668L59.3088 52.3862L59.4029 52.4479C59.4743 52.4998 59.5586 52.542 59.643 52.5842C59.6949 52.6166 59.7468 52.6458 59.8085 52.6685C59.8928 52.701 59.9837 52.7302 60.0778 52.7529C60.2432 52.7951 60.4314 52.8243 60.6163 52.8243C60.8045 52.8243 60.9895 52.7918 61.1647 52.7529C61.249 52.7334 61.3399 52.701 61.4242 52.6685C61.4859 52.649 61.5378 52.6166 61.5994 52.5842C61.6838 52.542 61.7552 52.4998 61.8266 52.4479H61.8363L62.0018 52.3246L62.1575 52.1786V50.6537H63.4034C63.809 50.6537 64.1302 50.9749 64.1302 51.3707V52.1591C64.1302 52.688 63.9323 53.1974 63.5592 53.5705L63.5494 53.5802C63.4132 53.7165 63.2574 53.8495 63.1017 53.9761L62.8518 54.1415L62.7286 54.2129C62.6442 54.2648 62.5533 54.3168 62.4593 54.3589C62.4171 54.3914 62.3652 54.4108 62.3262 54.4303L62.1608 54.492V54.5017H62.1413C62.0796 54.5341 62.018 54.5536 61.9434 54.5731C61.5281 54.7191 61.0836 54.7905 60.6163 54.7905C60.1459 54.7937 59.7014 54.7191 59.2861 54.5763Z" fill="#FFA700"/>
<path d="M68.3027 46.9585L68.3124 46.9487C68.4163 46.6892 68.6758 46.501 68.9776 46.501C69.2793 46.501 69.5259 46.6762 69.6427 46.926L73.3155 54.781L73.2961 54.7908H71.2617L70.4636 53.0777H67.5045L66.7064 54.7908H64.6526L68.3027 46.9585ZM69.5908 51.225L68.9873 49.9077L68.3741 51.225H69.5908Z" fill="#FFA700"/>
<path d="M74.3539 46.4917H76.1286C76.2 46.4917 76.2746 46.5241 76.3266 46.5858L78.5685 49.1912L80.8105 46.5858C80.8624 46.5241 80.9338 46.4917 81.0181 46.4917H82.7832V54.7945H80.8105V49.6065L79.8761 50.7064L79.1201 51.5791C78.8281 51.9101 78.309 51.9101 78.0202 51.5791L76.3298 49.6065V54.7945H74.3571V46.4917H74.3539Z" fill="#FFA700"/>
<path d="M84.3373 46.4917H85.5929C85.9855 46.4917 86.3197 46.8129 86.3197 47.2185V54.7945H84.3373V46.4917Z" fill="#FFA700"/>
<path d="M87.8738 46.4917H89.4312C89.6388 46.4917 89.8465 46.5858 89.9827 46.7415L94.3304 51.7965V46.4949H95.5763C95.9819 46.4949 96.3031 46.8162 96.3031 47.2217V54.7977H94.311L89.8497 49.6097V54.7977H87.877V46.4917H87.8738Z" fill="#FFA700"/>
<path d="M100.42 54.5763C100.359 54.5568 100.287 54.5341 100.223 54.5049C100.161 54.4855 100.099 54.453 100.034 54.4335L99.9014 54.3622L99.6418 54.2259C99.5996 54.1935 99.5477 54.174 99.5055 54.1415C99.4212 54.0896 99.3401 54.028 99.2654 53.9761C99.1 53.8528 98.9539 53.7165 98.8079 53.5802C98.0617 52.8243 97.5945 51.786 97.5945 50.6439C97.5945 49.4921 98.0617 48.4539 98.8079 47.7076C98.9539 47.5616 99.1 47.4383 99.2654 47.315C99.3368 47.2534 99.4212 47.2015 99.5055 47.1495C99.6807 47.036 99.8592 46.9419 100.034 46.8575C100.096 46.8251 100.158 46.8056 100.223 46.7732L100.42 46.7115C100.836 46.5655 101.28 46.4941 101.748 46.4941C102.215 46.4941 102.659 46.5655 103.075 46.7115L103.272 46.7732C103.334 46.8056 103.396 46.8251 103.461 46.8575C103.649 46.9419 103.824 47.0327 103.99 47.1495C104.074 47.2015 104.155 47.2534 104.239 47.315C104.395 47.4383 104.551 47.5648 104.684 47.7076L103.292 49.0995C103.188 49.0054 103.084 48.9113 102.971 48.84H102.961C102.942 48.8205 102.909 48.7978 102.877 48.7783L102.815 48.7459L102.731 48.6939C102.669 48.6615 102.617 48.642 102.555 48.6226L102.471 48.5901C102.452 48.5804 102.429 48.5707 102.409 48.5707C102.39 48.5609 102.377 48.5609 102.367 48.5512C102.348 48.5512 102.315 48.5415 102.296 48.5317C102.121 48.4895 101.932 48.4701 101.744 48.4701C101.556 48.4701 101.371 48.4895 101.206 48.5317C101.173 48.5415 101.154 48.5512 101.121 48.5512L101.089 48.5707C101.069 48.5707 101.037 48.5804 101.017 48.5901L100.933 48.6226C100.871 48.642 100.82 48.6647 100.768 48.6939L100.696 48.7264L100.664 48.7588L100.602 48.7913C100.583 48.801 100.55 48.8237 100.531 48.8432L100.437 48.9048C100.437 48.9048 100.427 48.9048 100.427 48.9146H100.417V48.9243C100.375 48.9438 100.346 48.9762 100.313 48.9957V49.0054C99.8559 49.4013 99.5672 49.9918 99.5672 50.6439C99.5672 51.2993 99.8592 51.8801 100.313 52.2824C100.346 52.3019 100.375 52.3343 100.417 52.3668L100.437 52.3862L100.531 52.4479C100.602 52.4998 100.687 52.542 100.771 52.5842C100.823 52.6166 100.875 52.6458 100.936 52.6685C101.021 52.701 101.112 52.7302 101.206 52.7529C101.371 52.7951 101.559 52.8243 101.744 52.8243C101.929 52.8243 102.117 52.7918 102.296 52.7529C102.38 52.7334 102.471 52.701 102.555 52.6685C102.617 52.649 102.669 52.6166 102.731 52.5842C102.815 52.542 102.886 52.4998 102.958 52.4479H102.967L103.133 52.3246L103.289 52.1786V50.6537H104.535C104.94 50.6537 105.261 50.9749 105.261 51.3707V52.1591C105.261 52.688 105.063 53.1974 104.69 53.5705L104.681 53.5802C104.548 53.7165 104.392 53.8495 104.236 53.9761L103.986 54.1415L103.863 54.2129C103.779 54.2648 103.688 54.3168 103.594 54.3589C103.551 54.3914 103.5 54.4108 103.457 54.4303L103.292 54.492V54.5017H103.272C103.211 54.5341 103.149 54.5536 103.075 54.5731C102.659 54.7191 102.215 54.7905 101.748 54.7905C101.284 54.7937 100.836 54.7191 100.42 54.5763Z" fill="#FFA700"/>
</svg>
