<svg width="161" height="80" viewBox="0 0 161 80" fill="none" xmlns="http://www.w3.org/2000/svg">
<path d="M26.4044 55.8408C35.0737 55.8408 42.1016 48.8129 42.1016 40.1436C42.1016 31.4742 35.0737 24.4463 26.4044 24.4463C17.735 24.4463 10.7071 31.4742 10.7071 40.1436C10.7071 48.8129 17.735 55.8408 26.4044 55.8408Z" fill="white"/>
<path d="M79.2892 32.4817H57.2383V50.982H79.2892V32.4817Z" fill="white"/>
<path d="M107.32 32.4817H85.2692V50.982H107.32V32.4817Z" fill="white"/>
<path d="M135.164 32.4817H113.113V50.982H135.164V32.4817Z" fill="white"/>
<path d="M152.674 38.6857C151.852 36.1816 149.815 33.827 148.619 32.5936C148.469 32.2946 148.17 32.0143 147.685 31.678C147.348 31.4537 146.918 31.1921 146.395 30.8557C146.339 30.8184 146.302 30.781 146.246 30.7436C142.433 28.4638 139.313 31.1173 139.5 34.5932C139.668 37.8447 139.537 41.1337 139.537 44.3853C139.537 47.1884 139.518 49.9914 139.556 52.7945C139.574 54.738 141.051 56.1582 142.957 55.8219C144.209 55.5976 145.461 55.0744 146.563 54.4203C150.693 51.9349 152.898 48.1975 153.253 43.4322C153.291 40.517 152.917 39.3958 152.674 38.6857Z" fill="#026FB2"/>
<path d="M81.2137 41.6385C81.2137 46.1608 81.2137 50.6644 81.2137 55.1867C81.2137 56.4201 81.195 56.4387 79.9616 56.4387C73.608 56.4387 67.2543 56.3827 60.9194 56.4574C57.7986 56.4948 55.8364 54.0468 55.3879 51.524C55.2945 51.0008 55.2758 50.4775 55.2758 49.9356C55.2758 43.8062 55.2758 37.6768 55.2571 31.5474C55.2571 29.9029 55.7243 28.5013 57.1632 27.6417C57.9107 27.1932 58.8264 26.8195 59.6673 26.8195C66.5068 26.7447 73.3651 26.8008 80.2046 26.7634C81.195 26.7634 81.2137 27.3054 81.2137 28.0155C81.195 32.5378 81.2137 37.0975 81.2137 41.6385ZM68.17 33.4721C65.2174 33.4721 62.2648 33.4908 59.2936 33.4535C58.5087 33.4535 58.135 33.659 58.191 34.4999C58.2471 35.2661 58.2284 36.051 58.191 36.8358C58.1537 37.602 58.4713 37.8823 59.2375 37.8636C61.0689 37.8263 62.9189 37.8636 64.7502 37.845C65.5725 37.8263 65.9275 38.1066 65.9089 38.9849C65.8528 40.7975 65.8902 42.5915 65.8902 44.4042C65.8902 45.9926 65.9089 47.581 65.8902 49.1694C65.8902 49.9169 66.1705 50.2533 66.9553 50.1972C67.7215 50.1411 68.5064 50.1972 69.2912 50.1785C70.4872 50.1785 70.5246 50.1411 70.5246 48.9078C70.5246 45.6749 70.5246 42.442 70.5246 39.1904C70.5246 37.8823 70.5433 37.8636 71.9074 37.8636C73.6454 37.8636 75.402 37.8263 77.1399 37.8823C78.0555 37.901 78.3732 37.546 78.3172 36.6677C78.2611 36.0136 78.2985 35.3596 78.2985 34.7055C78.2985 33.5843 78.1864 33.4721 77.0651 33.4721C74.0939 33.4535 71.1226 33.4535 68.17 33.4721Z" fill="#026FB2"/>
<path d="M109.188 41.6383C109.188 46.1607 109.188 50.6643 109.188 55.1866C109.188 56.3639 109.151 56.4199 107.992 56.4199C100.144 56.4199 92.2951 56.4013 84.4464 56.4386C83.5681 56.4386 83.3252 56.1396 83.3252 55.2987C83.3439 46.1793 83.3439 37.06 83.3252 27.9219C83.3252 27.0249 83.6429 26.7446 84.5399 26.7446C92.3511 26.7633 100.162 26.7633 107.992 26.7633C109.114 26.7633 109.207 26.8754 109.207 28.0154C109.207 32.5377 109.188 37.0974 109.188 41.6383ZM95.9391 33.2665C95.7148 33.2665 95.5093 33.2665 95.285 33.2665C92.8557 33.2665 90.4263 33.2665 87.997 33.2665C87.2869 33.2665 86.7823 33.416 86.8758 34.313C86.9318 34.9296 86.8945 35.565 86.8945 36.1817C86.8945 37.4711 86.9505 37.5272 88.2773 37.5272C91.9213 37.5272 95.5653 37.5272 99.1907 37.5272C100.405 37.5272 100.835 37.8075 100.854 38.5363C100.873 39.3772 100.574 39.5641 99.2654 39.5641C95.528 39.5641 91.7905 39.5828 88.0718 39.5454C87.2121 39.5454 86.8571 39.807 86.8758 40.7227C86.9318 43.4323 86.9131 46.142 86.8758 48.8516C86.8571 49.6178 87.1935 49.8607 87.8662 49.8607C88.6698 49.8607 89.492 49.842 90.2955 49.8607C90.9496 49.8607 91.2486 49.5991 91.2299 48.9077C91.1925 47.5061 91.2486 46.1046 91.2112 44.7031C91.1738 43.8061 91.4915 43.5071 92.3885 43.5258C96.0325 43.5631 99.6765 43.5444 103.302 43.5444C104.928 43.5444 105.619 42.8717 105.638 41.2459C105.656 39.3211 105.656 37.3963 105.638 35.4529C105.638 33.8458 105.096 33.3038 103.507 33.3038C100.966 33.2478 98.4432 33.2665 95.9391 33.2665Z" fill="#024391"/>
<path d="M52.3044 37.5088C53.5939 45.3014 49.9685 56.5324 40.0643 62.5497C28.908 69.3144 15.1542 66.9225 6.80105 57.5976C2.07318 52.3278 -0.673843 42.0124 0.447391 37.5275C1.58731 38.5179 2.9141 39.826 4.11009 40.7791C5.1192 41.5826 6.2778 42.2367 7.28691 43.0402C7.71672 43.3766 8.10915 43.9185 8.23996 44.4231C9.52938 49.6929 12.538 53.6545 17.1725 56.3829C21.0407 58.6627 25.2453 59.2981 29.5995 58.5506C35.2056 57.5976 39.5597 54.5889 42.4002 49.6555C43.4093 47.9176 43.9139 45.8807 44.68 43.9933C44.8295 43.6195 45.0725 43.1897 45.4088 42.9841C47.6326 41.5452 49.763 39.9942 51.5569 38.032C51.7251 37.8265 51.9868 37.7143 52.3044 37.5088Z" fill="#024391"/>
<path d="M27.1516 14C36.4953 14.4111 44.3065 18.7466 49.3147 27.6604C50.3985 29.5851 51.0339 31.7715 51.8001 33.8645C51.9122 34.1635 51.6693 34.7615 51.389 34.9858C49.5763 36.4807 47.7263 37.9383 45.8389 39.3586C45.2035 39.8444 45.0353 39.3212 44.9232 38.7419C44.5308 36.9292 44.2691 35.0605 43.6338 33.3226C42.1201 29.1553 39.2423 26.0906 35.4114 23.9229C31.9169 21.9421 28.1234 21.1946 24.1617 21.7178C17.808 22.5587 13.0241 25.8664 9.92203 31.5099C8.6513 33.8085 7.99724 36.2939 7.773 38.8914C7.71693 39.5828 7.45531 39.8631 6.85732 39.4146C5.10072 38.0878 3.3815 36.705 1.64359 35.3782C0.896098 34.7989 0.858723 34.1075 1.10166 33.3039C1.97996 30.37 3.232 27.6043 5.00729 25.1002C7.86643 21.1011 11.5291 18.1112 16.0141 16.149C19.303 14.7101 22.7788 14.0934 27.1516 14Z" fill="#018AC6"/>
<path d="M111.581 41.5636C111.581 37.0787 111.581 32.5937 111.581 28.1088C111.581 26.8941 111.73 26.7446 112.907 26.7446C117.916 26.7446 122.942 26.7259 127.951 26.7446C132.398 26.7633 135.65 29.0618 137.033 33.2478C137.294 34.0327 137.332 34.911 137.332 35.7332C137.369 39.6575 137.313 43.5818 137.35 47.5061C137.406 52.3835 133.202 56.4573 128.343 56.4013C123.148 56.3452 117.934 56.3826 112.739 56.4013C111.824 56.4013 111.562 56.0462 111.562 55.1866C111.581 50.6643 111.581 46.1046 111.581 41.5636ZM124.568 49.842C126.998 49.842 129.427 49.8047 131.856 49.8607C133.501 49.8981 134.641 48.6834 134.734 47.5622C134.921 45.3384 135.145 43.0773 134.398 40.8909C134.155 40.1994 133.706 39.5828 132.865 39.5828C129.464 39.5641 126.082 39.5454 122.681 39.6014C122.438 39.6014 122.008 40.0312 121.971 40.3116C121.859 41.0217 121.971 41.7318 121.915 42.4606C121.859 43.2641 122.176 43.5444 122.998 43.5258C124.998 43.4697 126.979 43.5071 128.978 43.5071C129.67 43.5071 130.025 43.8808 130.044 44.5349C130.062 45.2824 129.539 45.3571 128.96 45.3384C125.914 45.3384 122.849 45.3197 119.803 45.3384C119.018 45.3384 118.682 45.0955 118.7 44.2546C118.756 42.4232 118.719 40.5732 118.719 38.7418C118.719 37.5832 118.831 37.4711 120.009 37.4711C123.783 37.4711 127.539 37.4711 131.314 37.4711C132.193 37.4711 133.052 37.4711 133.931 37.4524C134.51 37.4337 134.771 37.1908 134.846 36.5367C134.996 35.0604 133.426 33.173 131.669 33.2104C126.885 33.2852 122.083 33.2291 117.28 33.2478C115.505 33.2478 114.197 34.5933 114.178 36.3686C114.159 39.7883 114.159 43.2268 114.178 46.6465C114.178 48.4779 115.505 49.786 117.355 49.8047C119.766 49.842 122.176 49.842 124.568 49.842Z" fill="#026FB2"/>
<path d="M26.4415 23.269C35.6543 23.1942 43.3721 30.7439 43.3908 40.2557C43.4095 49.674 35.7103 57.2237 26.292 57.1676C16.8363 57.1116 9.36137 49.5245 9.41743 40.0501C9.43611 30.7999 17.1539 23.1195 26.4415 23.269ZM15.8645 30.4449C17.3034 30.1833 18.5368 29.9216 19.7888 29.7535C24.8344 29.1181 29.637 29.7161 33.7856 32.9116C36.5326 35.0233 38.3079 37.7703 38.0276 41.4517C37.9154 42.8906 37.2427 44.0305 35.9906 44.7032C34.477 45.5255 32.8325 45.8058 31.1133 45.4694C29.3567 45.1144 27.6001 44.6846 25.8248 44.3856C23.5076 44.0118 21.3212 45.376 20.4989 47.525C19.8449 49.2255 20.0318 50.9635 20.1999 52.6827C20.2373 53.0377 20.6858 53.4862 21.0596 53.6357C25.1334 55.2989 29.1324 55.056 33.0381 53.0751C40.1205 49.4872 42.8862 41.0032 39.5038 33.9207C35.729 26.016 26.1425 23.2877 18.6676 27.8847C17.6585 28.5388 16.5933 29.1742 15.8645 30.4449ZM18.5181 52.4584C18.5555 52.3837 18.5928 52.2903 18.6302 52.2155C18.2565 50.6271 17.808 49.0387 17.5277 47.4129C17.2287 45.6189 17.509 43.8997 19.004 42.6663C21.0035 41.0219 23.2833 40.3678 25.8809 40.9284C27.787 41.3395 29.6744 41.5825 31.5618 40.7415C33.2249 39.9941 33.6547 38.4617 32.4774 37.0415C30.6648 34.8551 28.2355 33.6217 25.5445 32.9303C22.0874 32.052 18.5742 32.1828 15.0423 32.4444C14.3135 32.5005 13.7715 32.8182 13.4912 33.4535C13.0427 34.444 12.5569 35.4344 12.3139 36.4809C11.0432 41.8254 12.3326 46.5159 16.1448 50.4776C16.8549 51.2438 17.7332 51.8231 18.5181 52.4584Z" fill="#028AC6"/>
<path d="M68.5067 16.803L69.6279 19.0642C69.684 19.1763 69.7961 19.251 69.9082 19.2697L72.3936 19.6248C72.6926 19.6622 72.8234 20.0546 72.5992 20.2601L70.7865 22.0167C70.6931 22.1102 70.6557 22.2223 70.6744 22.3531L71.1042 24.8385C71.1603 25.1375 70.8426 25.3804 70.5623 25.2309L68.3385 24.0536C68.2264 23.9976 68.0956 23.9976 67.9835 24.0536L65.7784 25.2309C65.4981 25.3804 65.1804 25.1375 65.2364 24.8385L65.6662 22.3531C65.6849 22.241 65.6476 22.1102 65.5541 22.0167L63.7415 20.2601C63.5172 20.0359 63.648 19.6622 63.947 19.6248L66.4324 19.2697C66.5632 19.251 66.6567 19.1763 66.7127 19.0642L67.834 16.803C67.9835 16.5227 68.3759 16.5227 68.5067 16.803Z" fill="#016FB0"/>
<path d="M96.5376 16.803L97.6588 19.0642C97.7149 19.1763 97.827 19.251 97.9391 19.2697L100.425 19.6248C100.724 19.6622 100.854 20.0546 100.63 20.2601L98.8174 22.0167C98.724 22.1102 98.6866 22.2223 98.7053 22.3531L99.1351 24.8385C99.1912 25.1375 98.8735 25.3804 98.5932 25.2309L96.3694 24.0536C96.2573 23.9976 96.1264 23.9976 96.0143 24.0536L93.8092 25.2309C93.5289 25.3804 93.2112 25.1375 93.2673 24.8385L93.6971 22.3531C93.7158 22.241 93.6784 22.1102 93.585 22.0167L91.7723 20.2601C91.548 20.0359 91.6789 19.6622 91.9779 19.6248L94.4633 19.2697C94.5941 19.251 94.6875 19.1763 94.7436 19.0642L95.8648 16.803C96.0143 16.5227 96.4068 16.5227 96.5376 16.803Z" fill="#02448F"/>
<path d="M123.821 16.803L124.942 19.0642C124.998 19.1763 125.11 19.251 125.222 19.2697L127.708 19.6248C128.007 19.6622 128.138 20.0546 127.913 20.2601L126.101 22.0167C126.007 22.1102 125.97 22.2223 125.989 22.3531L126.418 24.8385C126.475 25.1375 126.157 25.3804 125.877 25.2309L123.653 24.0536C123.541 23.9976 123.41 23.9976 123.298 24.0536L121.093 25.2309C120.812 25.3804 120.495 25.1375 120.551 24.8385L120.98 22.3531C120.999 22.241 120.962 22.1102 120.868 22.0167L119.056 20.2601C118.831 20.0359 118.962 19.6622 119.261 19.6248L121.747 19.2697C121.877 19.251 121.971 19.1763 122.027 19.0642L123.148 16.803C123.298 16.5227 123.69 16.5227 123.821 16.803Z" fill="#006FB0"/>
<path d="M58.9574 60.1759C58.9574 60.2507 58.92 60.2694 58.8639 60.2694H57.8175C57.7614 60.2694 57.724 60.3067 57.724 60.3628V65.2402C57.724 65.2962 57.6866 65.3336 57.6306 65.3336H56.7336C56.6588 65.3336 56.6402 65.2962 56.6402 65.2402V60.3628C56.6402 60.3067 56.6028 60.2694 56.5467 60.2694H55.5002C55.4442 60.2694 55.4068 60.232 55.4068 60.1759V59.3537C55.4068 59.2976 55.4442 59.2603 55.5002 59.2603H58.8639C58.9387 59.2603 58.9574 59.2976 58.9574 59.3537V60.1759Z" fill="#026FB2"/>
<path d="M63.9092 65.2214C63.9092 65.24 63.9279 65.2587 63.9279 65.2774C63.9279 65.3335 63.8905 65.3522 63.8344 65.3522H62.844C62.8066 65.3522 62.7879 65.3335 62.7506 65.2774L61.9096 62.8294L61.8349 62.7733H60.9753C60.9192 62.7733 60.8818 62.8107 60.8818 62.8668V65.2587C60.8818 65.3148 60.8445 65.3522 60.7884 65.3522H59.8727C59.8167 65.3522 59.7793 65.3148 59.7793 65.2587V59.3722C59.7793 59.3162 59.8167 59.2788 59.8727 59.2788H62.0405C62.6011 59.2788 63.0309 59.447 63.3486 59.7647C63.6662 60.0824 63.8344 60.5309 63.8344 61.0728V61.1662C63.8344 61.5587 63.6849 61.9137 63.4046 62.194C63.3672 62.2501 63.2738 62.3061 63.143 62.3996C63.0496 62.4743 63.0122 62.5304 63.0122 62.5491L63.9092 65.2214ZM62.7132 61.0541V60.9607C62.7132 60.7738 62.6384 60.6056 62.5076 60.4748C62.3768 60.344 62.2086 60.2692 62.0218 60.2692H60.9566C60.9005 60.2692 60.8632 60.3066 60.8632 60.3627V61.6521C60.8632 61.7082 60.9005 61.7455 60.9566 61.7455H62.0218C62.2086 61.7455 62.3768 61.6708 62.5076 61.54C62.6571 61.4092 62.7132 61.2597 62.7132 61.0541Z" fill="#026FB2"/>
<path d="M65.9464 65.2587C65.9464 65.3148 65.909 65.3522 65.853 65.3522H64.9373C64.8812 65.3522 64.8439 65.3148 64.8439 65.2587V59.3722C64.8439 59.3162 64.8812 59.2788 64.9373 59.2788H65.853C65.9277 59.2788 65.9464 59.3162 65.9464 59.3722V65.2587Z" fill="#026FB2"/>
<path d="M69.3097 59.2603C69.8517 59.2603 70.3002 59.4284 70.6179 59.7461C70.9355 60.0638 71.1037 60.5123 71.1037 61.0542C71.1037 61.5588 70.9355 61.9699 70.5992 62.2876C70.2628 62.6053 69.833 62.7734 69.3097 62.7734H68.4501C68.3941 62.7734 68.3567 62.8108 68.3567 62.8669V65.2588C68.3567 65.3149 68.3193 65.3523 68.2633 65.3523H67.3476C67.2915 65.3523 67.2542 65.3149 67.2542 65.2588V59.3724C67.2542 59.3163 67.2915 59.2789 67.3476 59.2789H69.3097V59.2603ZM70.0012 61.0542V60.9608C70.0012 60.7739 69.9264 60.6057 69.7956 60.4749C69.6648 60.3441 69.4966 60.2694 69.3097 60.2694H68.4501C68.3941 60.2694 68.3567 60.3067 68.3567 60.3628V61.6522C68.3567 61.7083 68.3941 61.7456 68.4501 61.7456H69.3097C69.4966 61.7456 69.6648 61.6709 69.7956 61.5401C69.9451 61.4093 70.0012 61.2598 70.0012 61.0542Z" fill="#026FB2"/>
<path d="M75.4957 65.2587C75.4957 65.3148 75.4583 65.3522 75.4023 65.3522H72.0012C71.9452 65.3522 71.9078 65.3148 71.9078 65.2587V59.3722C71.9078 59.3162 71.9452 59.2788 72.0012 59.2788H72.9169C72.9916 59.2788 73.0103 59.3162 73.0103 59.3722V64.2496C73.0103 64.3244 73.0477 64.3431 73.1038 64.3431H75.4023C75.477 64.3431 75.4957 64.3804 75.4957 64.4365V65.2587Z" fill="#026FB2"/>
<path d="M79.8682 65.2587C79.8682 65.3148 79.8308 65.3522 79.7748 65.3522H76.3737C76.3176 65.3522 76.2803 65.3148 76.2803 65.2587V59.3722C76.2803 59.3162 76.3176 59.2788 76.3737 59.2788H79.7748C79.8495 59.2788 79.8682 59.3162 79.8682 59.3722V60.1945C79.8682 60.2692 79.8308 60.2879 79.7748 60.2879H77.4763C77.4202 60.2879 77.3828 60.3253 77.3828 60.3814V61.6708C77.3828 61.7268 77.4202 61.7642 77.4763 61.7642H79.3637C79.4384 61.7642 79.4571 61.8016 79.4571 61.8577V62.6799C79.4571 62.736 79.4197 62.7733 79.3637 62.7733H77.4763C77.4202 62.7733 77.3828 62.8107 77.3828 62.8668V64.2309C77.3828 64.3057 77.4202 64.3244 77.4763 64.3244H79.7748C79.8495 64.3244 79.8682 64.3617 79.8682 64.4178V65.2587Z" fill="#026FB2"/>
<path d="M84.6523 59.2603C85.1942 59.2603 85.6427 59.4284 85.9604 59.7461C86.278 60.0638 86.4462 60.5123 86.4462 61.0542C86.4462 61.5588 86.278 61.9699 85.9417 62.2876C85.6053 62.6053 85.1755 62.7734 84.6523 62.7734H83.7927C83.7366 62.7734 83.6992 62.8108 83.6992 62.8669V65.2588C83.6992 65.3149 83.6618 65.3523 83.6058 65.3523H82.6901C82.6341 65.3523 82.5967 65.3149 82.5967 65.2588V59.3724C82.5967 59.3163 82.6341 59.2789 82.6901 59.2789H84.6523V59.2603ZM85.3624 61.0542V60.9608C85.3624 60.7739 85.2876 60.6057 85.1568 60.4749C85.026 60.3441 84.8578 60.2694 84.6709 60.2694H83.8113C83.7553 60.2694 83.7179 60.3067 83.7179 60.3628V61.6522C83.7179 61.7083 83.7553 61.7456 83.8113 61.7456H84.6709C84.8578 61.7456 85.026 61.6709 85.1568 61.5401C85.2876 61.4093 85.3624 61.2598 85.3624 61.0542Z" fill="#024391"/>
<path d="M91.3983 65.2214C91.3983 65.24 91.417 65.2587 91.417 65.2774C91.417 65.3335 91.3797 65.3522 91.3236 65.3522H90.3332C90.2958 65.3522 90.2771 65.3335 90.2397 65.2774L89.3988 62.8294L89.3241 62.7733H88.4645C88.4084 62.7733 88.371 62.8107 88.371 62.8668V65.2587C88.371 65.3148 88.3337 65.3522 88.2776 65.3522H87.3619C87.3059 65.3522 87.2685 65.3148 87.2685 65.2587V59.3722C87.2685 59.3162 87.3059 59.2788 87.3619 59.2788H89.5109C90.0716 59.2788 90.5014 59.447 90.819 59.7647C91.1367 60.0824 91.3049 60.5309 91.3049 61.0728V61.1662C91.3049 61.5587 91.1554 61.9137 90.8751 62.194C90.8377 62.2501 90.7443 62.3061 90.6135 62.3996C90.52 62.4743 90.4827 62.5304 90.4827 62.5491L91.3983 65.2214ZM90.2024 61.0541V60.9607C90.2024 60.7738 90.1276 60.6056 89.9968 60.4748C89.866 60.344 89.6978 60.2692 89.5109 60.2692H88.4458C88.3897 60.2692 88.3523 60.3066 88.3523 60.3627V61.6521C88.3523 61.7082 88.3897 61.7455 88.4458 61.7455H89.5109C89.6978 61.7455 89.866 61.6708 89.9968 61.54C90.1463 61.4092 90.2024 61.2597 90.2024 61.0541Z" fill="#024391"/>
<path d="M96.2567 63.7264C96.2567 64.2497 96.0885 64.6608 95.7708 64.9598C95.4345 65.2775 95.0047 65.427 94.4627 65.427H93.9956C93.4536 65.427 93.0238 65.2775 92.6875 64.9598C92.3511 64.6421 92.2016 64.231 92.2016 63.7264V60.8673C92.2016 60.344 92.3698 59.9329 92.6875 59.6339C93.0238 59.3162 93.4536 59.1667 93.9956 59.1667H94.4627C95.0047 59.1667 95.4345 59.3162 95.7708 59.6339C96.1072 59.9516 96.2567 60.3627 96.2567 60.8673V63.7264ZM95.1542 63.7264V60.8673C95.1542 60.6617 95.0794 60.4935 94.9486 60.3627C94.8178 60.2319 94.6496 60.1572 94.4627 60.1572H93.9956C93.8087 60.1572 93.6405 60.2319 93.5097 60.3627C93.3789 60.4935 93.3041 60.6617 93.3041 60.8486V63.7077C93.3041 63.8946 93.3789 64.0628 93.5097 64.1936C93.6405 64.3244 93.8087 64.3992 93.9956 64.3992H94.4627C94.6496 64.3992 94.8178 64.3244 94.9486 64.1936C95.0794 64.1002 95.1542 63.932 95.1542 63.7264Z" fill="#024391"/>
<path d="M101.004 60.1759C101.004 60.2507 100.966 60.2694 100.91 60.2694H98.6118C98.5557 60.2694 98.5183 60.3067 98.5183 60.3628V61.6522C98.5183 61.7083 98.5557 61.7457 98.6118 61.7457H100.499C100.574 61.7457 100.593 61.783 100.593 61.8391V62.6613C100.593 62.7174 100.555 62.7548 100.499 62.7548H98.6118C98.5557 62.7548 98.5183 62.7921 98.5183 62.8482V65.2402C98.5183 65.2962 98.4809 65.3336 98.4249 65.3336H97.5092C97.4531 65.3336 97.4158 65.2962 97.4158 65.2402V59.3537C97.4158 59.2976 97.4531 59.2603 97.5092 59.2603H100.91C100.985 59.2603 101.004 59.2976 101.004 59.3537V60.1759Z" fill="#024391"/>
<path d="M102.91 65.2587C102.91 65.3148 102.872 65.3522 102.816 65.3522H101.901C101.845 65.3522 101.807 65.3148 101.807 65.2587V59.3722C101.807 59.3162 101.845 59.2788 101.901 59.2788H102.816C102.891 59.2788 102.91 59.3162 102.91 59.3722V65.2587Z" fill="#024391"/>
<path d="M107.282 60.1759C107.282 60.2507 107.245 60.2694 107.189 60.2694H106.142C106.086 60.2694 106.049 60.3067 106.049 60.3628V65.2402C106.049 65.2962 106.011 65.3336 105.955 65.3336H105.021C104.946 65.3336 104.928 65.2962 104.928 65.2402V60.3628C104.928 60.3067 104.89 60.2694 104.834 60.2694H103.788C103.732 60.2694 103.694 60.232 103.694 60.1759V59.3537C103.694 59.2976 103.732 59.2603 103.788 59.2603H107.189C107.264 59.2603 107.282 59.2976 107.282 59.3537V60.1759Z" fill="#024391"/>
<path d="M109.544 60.1759C109.357 60.1759 109.189 60.2506 109.058 60.3814C108.927 60.5122 108.852 60.6804 108.852 60.8673C108.852 61.0728 108.965 61.2223 109.17 61.3718C109.245 61.4279 109.506 61.5587 109.974 61.7643C110.516 62.0072 110.889 62.2688 111.114 62.5678C111.356 62.8855 111.487 63.2592 111.487 63.7264C111.487 64.2497 111.319 64.6608 111.001 64.9598C110.665 65.2775 110.235 65.427 109.693 65.427H109.301C108.759 65.427 108.348 65.2775 108.049 64.9785C107.75 64.6795 107.6 64.4365 107.6 64.2683C107.6 64.2497 107.619 64.2123 107.656 64.1936L108.497 63.7825C108.516 63.7825 108.535 63.7825 108.553 63.7825C108.572 63.7825 108.647 63.8759 108.74 64.0815C108.852 64.3057 109.039 64.4178 109.301 64.4178H109.693C109.88 64.4178 110.048 64.3431 110.179 64.2123C110.31 64.0815 110.385 63.9133 110.385 63.7264C110.385 63.5022 110.291 63.3153 110.104 63.1845C109.992 63.1097 109.749 62.9602 109.357 62.7734C108.778 62.4931 108.385 62.2314 108.161 61.9885C107.899 61.6895 107.75 61.3158 107.75 60.8673C107.75 60.344 107.918 59.9329 108.236 59.6339C108.572 59.3162 109.002 59.1667 109.544 59.1667H109.693C110.142 59.1667 110.497 59.2789 110.796 59.4844C110.964 59.6152 111.114 59.7647 111.244 59.9516C111.356 60.1198 111.413 60.2319 111.413 60.3067C111.413 60.344 111.394 60.3627 111.356 60.3814L110.516 60.7925C110.497 60.7925 110.478 60.8112 110.459 60.8112C110.441 60.8112 110.385 60.7552 110.329 60.6617C110.142 60.344 109.918 60.1759 109.675 60.1759H109.544Z" fill="#024391"/>
<path d="M116.308 59.1667C116.738 59.1667 117.112 59.2789 117.411 59.4844C117.579 59.6152 117.728 59.7647 117.859 59.9516C117.971 60.1198 118.027 60.2319 118.027 60.3067C118.027 60.344 118.009 60.3627 117.971 60.3814L117.13 60.7925C117.112 60.7925 117.093 60.8112 117.074 60.8112C117.037 60.8112 117 60.7552 116.943 60.643C116.775 60.3254 116.57 60.1759 116.308 60.1759H115.673C115.486 60.1759 115.318 60.2506 115.187 60.3814C115.056 60.5122 114.981 60.6804 114.981 60.8673V63.7264C114.981 63.9133 115.056 64.0815 115.187 64.2123C115.318 64.3431 115.486 64.4178 115.673 64.4178H116.14C116.327 64.4178 116.495 64.3431 116.626 64.2123C116.757 64.0815 116.831 63.9133 116.831 63.7264V63.2779C116.831 63.2032 116.794 63.1845 116.738 63.1845H115.841C115.766 63.1845 115.748 63.1471 115.748 63.0911V62.2688C115.748 62.1941 115.785 62.1754 115.841 62.1754H117.859C117.915 62.1754 117.953 62.2128 117.953 62.2688V63.7264C117.953 64.2497 117.784 64.6608 117.467 64.9598C117.13 65.2775 116.701 65.427 116.159 65.427H115.673C115.131 65.427 114.701 65.2775 114.365 64.9598C114.028 64.6421 113.879 64.231 113.879 63.7264V60.8673C113.879 60.344 114.047 59.9329 114.365 59.6339C114.701 59.3162 115.131 59.1667 115.673 59.1667H116.308Z" fill="#026FB2"/>
<path d="M122.867 65.2215C122.867 65.2028 122.867 65.2215 122.886 65.2588C122.886 65.3149 122.848 65.3523 122.774 65.3523H121.802C121.746 65.3523 121.727 65.3336 121.709 65.2775L121.41 64.2684C121.391 64.231 121.372 64.2124 121.316 64.2124H119.933C119.877 64.2124 119.84 64.231 119.84 64.2684L119.559 65.2775C119.541 65.3149 119.522 65.3523 119.466 65.3523H118.513C118.438 65.3523 118.401 65.3149 118.401 65.2588C118.42 65.2215 118.42 65.2028 118.42 65.2215L120.214 59.335C120.232 59.2976 120.251 59.2603 120.307 59.2603H120.998C121.054 59.2603 121.073 59.2789 121.092 59.335L122.867 65.2215ZM121.073 63.0724L120.755 61.8017C120.737 61.7643 120.699 61.5962 120.643 61.2785H120.606C120.587 61.3906 120.55 61.5775 120.494 61.8017L120.157 63.0724V63.0911L120.139 63.1098C120.139 63.1659 120.176 63.2032 120.251 63.2032H120.961C121.036 63.2032 121.073 63.1659 121.073 63.1098V63.0911C121.073 63.0724 121.073 63.0724 121.073 63.0724Z" fill="#026FB2"/>
<path d="M128.287 65.2587C128.287 65.3148 128.249 65.3522 128.193 65.3522H127.296C127.24 65.3522 127.203 65.3148 127.203 65.2587L127.296 61.5026L126.212 64.4739C126.175 64.5112 126.138 64.5299 126.119 64.5299H125.633C125.596 64.5299 125.558 64.5112 125.54 64.4739L124.456 61.5026L124.549 65.2587C124.549 65.3148 124.512 65.3522 124.456 65.3522H123.559C123.503 65.3522 123.465 65.3148 123.465 65.2587V59.3722C123.465 59.3162 123.503 59.2788 123.559 59.2788H124.4C124.437 59.2788 124.456 59.2975 124.493 59.3349L125.895 63.1471L127.296 59.3349C127.334 59.2975 127.352 59.2788 127.39 59.2788H128.231C128.287 59.2788 128.324 59.3162 128.324 59.3722V65.2587H128.287Z" fill="#026FB2"/>
<path d="M133.183 65.2587C133.183 65.3148 133.146 65.3522 133.09 65.3522H129.688C129.632 65.3522 129.595 65.3148 129.595 65.2587V59.3722C129.595 59.3162 129.632 59.2788 129.688 59.2788H133.09C133.164 59.2788 133.183 59.3162 133.183 59.3722V60.1945C133.183 60.2692 133.146 60.2879 133.09 60.2879H130.791C130.735 60.2879 130.698 60.3253 130.698 60.3814V61.6708C130.698 61.7268 130.735 61.7642 130.791 61.7642H132.678C132.753 61.7642 132.772 61.8016 132.772 61.8577V62.6799C132.772 62.736 132.734 62.7733 132.678 62.7733H130.791C130.735 62.7733 130.698 62.8107 130.698 62.8668V64.2309C130.698 64.3057 130.735 64.3244 130.791 64.3244H133.09C133.164 64.3244 133.183 64.3617 133.183 64.4178V65.2587Z" fill="#026FB2"/>
<path d="M135.668 60.1759C135.481 60.1759 135.313 60.2506 135.182 60.3814C135.051 60.5122 134.976 60.6804 134.976 60.8673C134.976 61.0728 135.089 61.2223 135.294 61.3718C135.369 61.4279 135.631 61.5587 136.098 61.7643C136.64 62.0072 137.013 62.2688 137.238 62.5678C137.481 62.8855 137.611 63.2592 137.611 63.7264C137.611 64.2497 137.443 64.6608 137.125 64.9598C136.789 65.2775 136.359 65.427 135.817 65.427H135.425C134.883 65.427 134.472 65.2775 134.173 64.9785C133.874 64.6795 133.724 64.4365 133.724 64.2683C133.724 64.2497 133.743 64.2123 133.78 64.1936L134.621 63.7825C134.64 63.7825 134.659 63.7825 134.677 63.7825C134.696 63.7825 134.771 63.8759 134.864 64.0815C134.976 64.3057 135.163 64.4178 135.425 64.4178H135.817C136.004 64.4178 136.172 64.3431 136.303 64.2123C136.434 64.0815 136.509 63.9133 136.509 63.7264C136.509 63.5022 136.415 63.3153 136.229 63.1845C136.116 63.1097 135.873 62.9602 135.481 62.7734C134.902 62.4931 134.509 62.2314 134.285 61.9885C134.023 61.6895 133.874 61.3158 133.874 60.8673C133.874 60.344 134.042 59.9329 134.36 59.6339C134.696 59.3162 135.126 59.1667 135.668 59.1667H135.817C136.266 59.1667 136.621 59.2789 136.92 59.4844C137.088 59.6152 137.238 59.7647 137.368 59.9516C137.481 60.1198 137.537 60.2319 137.537 60.3067C137.537 60.344 137.518 60.3627 137.481 60.3814L136.64 60.7925C136.621 60.7925 136.602 60.8112 136.584 60.8112C136.565 60.8112 136.509 60.7552 136.453 60.6617C136.266 60.344 136.042 60.1759 135.799 60.1759H135.668Z" fill="#026FB2"/>
<path d="M148.619 45.9366C150.477 45.9366 151.983 44.4307 151.983 42.5729C151.983 40.7152 150.477 39.2092 148.619 39.2092C146.761 39.2092 145.255 40.7152 145.255 42.5729C145.255 44.4307 146.761 45.9366 148.619 45.9366Z" fill="white"/>
<path d="M148.6 44.1985C147.516 44.1611 146.694 43.0585 146.974 42.1429C147.908 39.1529 148.899 36.1816 149.852 33.1917C150.693 30.5942 152.076 26.3148 152.917 23.7173C153.01 23.4183 153.122 23.138 153.234 22.839C153.44 22.297 153.776 22.1475 154.318 22.4092C154.655 22.5773 155.01 22.7082 155.365 22.8203C156.486 23.138 156.542 23.2127 156.168 24.3339C154.673 28.9684 152.618 35.2847 151.104 39.9191C150.786 40.9282 150.45 41.9186 150.095 42.909C149.852 43.6752 149.291 44.105 148.6 44.1985Z" fill="url(#paint0_linear)"/>
<path d="M155.944 23.9043C153.664 23.8669 151.814 21.9608 151.851 19.6996C151.889 17.4946 153.888 15.5511 156.093 15.6071C158.336 15.6445 160.205 17.6067 160.186 19.8491C160.149 22.1103 158.242 23.9416 155.944 23.9043Z" fill="#024391"/>
<defs>
<linearGradient id="paint0_linear" x1="147.857" y1="43.3048" x2="155.294" y2="23.0217" gradientUnits="userSpaceOnUse">
<stop stop-color="#1CAFF2"/>
<stop offset="1" stop-color="#1C92D1"/>
</linearGradient>
</defs>
</svg>
