<svg width="160" height="80" viewBox="0 0 160 80" fill="none" xmlns="http://www.w3.org/2000/svg">
<g clip-path="url(#clip0)">
<path d="M19.9953 33.6095C18.1775 33.1172 16.3219 32.5491 14.5041 32.0947C12.497 31.5267 10.4521 30.9965 8.44497 30.4284C7.68757 30.2012 6.85444 30.0119 6.05917 29.7846C6.05917 27.8533 6.05917 25.9598 6.05917 23.9906C6.62722 24.142 7.1574 24.2556 7.72544 24.4071C9.73254 24.8994 11.8154 25.4675 13.8604 25.9977C15.8675 26.49 17.9503 27.058 19.9953 27.5882C19.9953 23.6876 19.9953 19.8628 19.9953 15.9622C18.1018 17.1361 16.0189 17.7042 13.9361 18.1207C11.929 18.5373 9.88402 18.8024 7.87692 19.0296C5.37751 19.2947 2.87811 19.4462 0.302959 19.4462C2.0071 23.1196 3.06746 27.2095 2.99172 31.2616C2.91598 34.9349 1.93136 38.6462 0 41.7515C2.15858 46.4095 4.99882 50.7267 8.36923 54.6272C10.2627 56.8616 12.2698 58.8687 14.4284 60.8379C16.1704 62.4284 18.0639 63.9811 19.9953 65.3065C19.9953 54.8545 19.9953 44.213 19.9953 33.6095Z" fill="url(#paint0_linear)"/>
<path d="M32.9468 35.9952C31.4699 36.336 30.0308 36.7526 28.4782 37.0934C26.6604 37.5857 24.8048 38.078 22.987 38.5703C22.987 40.5774 22.987 42.5467 22.987 44.5538C24.8805 43.9857 26.7361 43.4934 28.7054 42.9632C30.1823 42.5467 31.5456 42.2058 33.0225 41.7893C34.348 41.4485 35.7492 41.0319 37.0746 40.6911C37.0746 38.7597 37.0746 36.8662 37.0746 34.897C35.6356 35.1999 34.2722 35.6544 32.9468 35.9952Z" fill="url(#paint1_linear)"/>
<path d="M33.0225 46.9019C31.5456 47.3185 30.1066 47.6593 28.6296 48.0759C26.7361 48.5682 24.8805 49.0605 22.987 49.5528C22.987 51.5599 22.987 53.5292 22.987 55.5363C24.8805 55.0439 26.7361 54.4759 28.6296 53.9457C30.1066 53.5292 31.6213 53.1126 33.0983 52.696V52.6203V52.696C34.4237 52.2795 35.6734 52.0144 36.9989 51.5978C36.9989 49.6664 36.9989 47.7729 36.9989 45.8037C35.6355 46.2203 34.3101 46.5611 33.0225 46.9019Z" fill="url(#paint2_linear)"/>
<path d="M28.4024 32.0947C29.2356 31.8675 29.993 31.6781 30.8261 31.413C32.9089 30.845 34.916 30.3148 37.0367 29.671C37.0367 27.7397 37.0367 25.8462 37.0367 23.877C34.9539 24.445 32.8711 24.9752 30.7882 25.5432C30.0308 25.7704 29.2734 25.9598 28.4782 26.187C26.6604 26.6793 24.8427 27.1716 23.0628 27.5882C23.0628 29.5953 23.0628 31.5645 23.0628 33.5716C24.8048 33.1172 26.5847 32.587 28.4024 32.0947Z" fill="url(#paint3_linear)"/>
<path d="M56.6911 31.375H53.2071V42.4709H50.4426V31.375H46.9586V29.0649H56.6911V31.375Z" fill="white"/>
<path d="M63.5455 38.2673H61.1218V42.4708H58.3573V29.1028H65.4769C66.878 29.1028 68.0141 30.0495 68.0141 31.2235V36.1844C68.0141 37.0933 67.2946 37.8886 66.31 38.1537L68.4686 42.4708H65.6283L63.5455 38.2673ZM64.7573 35.9572C65.0224 35.9572 65.2118 35.7679 65.2118 35.5785V31.7158C65.2118 31.4886 65.0224 31.3371 64.7573 31.3371H61.084V35.9572H64.7573Z" fill="white"/>
<path d="M73.7326 29.1028V42.4708H70.9681V29.1028H73.7326Z" fill="white"/>
<path d="M85.9645 31.1856V35.9572C85.9645 36.6389 85.5858 37.2448 84.9799 37.6235C84.5633 37.8886 84.0331 38.0779 83.4272 38.0779H79.0722V42.4708H76.3077V29.1028H83.4272C83.9953 29.1028 84.5633 29.2921 84.9799 29.5572C85.5858 29.7844 85.9645 30.3146 85.9645 31.1856ZM82.7455 31.375H79.0722V35.7679H82.7455C83.0106 35.7679 83.2 35.5785 83.2 35.3892V31.7537C83.2 31.5643 83.0106 31.375 82.7455 31.375Z" fill="white"/>
<path d="M91.0391 40.1986H96.7953V42.5087H88.3124V29.1028H91.0769V40.1986H91.0391Z" fill="white"/>
<path d="M107.361 31.3371H101.378V34.6696H106.641V36.904H101.378V40.2365H107.361V42.4708H98.6509V29.1028H107.361V31.3371Z" fill="white"/>
<path d="M125.235 31.3371H119.29V34.6696H124.554V36.904H119.29V40.2365H125.273V42.4708H116.563V29.1028H125.273V31.3371H125.235Z" fill="white"/>
<path d="M137.202 31.1856V40.3501C137.202 41.5241 136.066 42.4708 134.665 42.4708H127.546V29.1028H134.665C136.066 29.1028 137.202 30.0495 137.202 31.1856ZM134.438 39.8199V31.9809C134.438 31.6401 134.135 31.4128 133.756 31.4128H130.31V40.1986H133.983C134.211 40.1986 134.438 40.0093 134.438 39.8199Z" fill="white"/>
<path d="M145.458 31.2617H142.239C141.974 31.2617 141.785 31.4511 141.785 31.6404V39.9339C141.785 40.1611 141.974 40.3126 142.239 40.3126H145.458C145.723 40.3126 145.912 40.1233 145.912 39.9339V37.8132H144.057V35.5031H148.639V40.4641C148.639 41.6381 147.503 42.5848 146.102 42.5848H141.52C140.118 42.5848 138.982 41.6381 138.982 40.4641V31.0724C138.982 29.8984 140.118 28.9517 141.52 28.9517H146.102C147.503 28.9517 148.639 29.8984 148.639 31.0724V33.1931H145.875V31.6783C145.912 31.4132 145.723 31.2617 145.458 31.2617Z" fill="white"/>
<path d="M159.811 31.3371H153.827V34.6696H159.091V36.904H153.827V40.2365H159.811V42.4708H151.101V29.1028H159.811V31.3371Z" fill="white"/>
<path d="M52.3739 48.6438C52.1846 48.6438 51.9952 48.7196 51.8816 48.8332C51.7301 48.9847 51.6923 49.1362 51.6923 49.3255C51.6923 49.5149 51.8059 49.7042 51.9952 49.8178C52.071 49.8557 52.3361 50.0072 52.8284 50.2344C53.3585 50.4995 53.7372 50.7646 54.0023 51.0296C54.2674 51.3326 54.381 51.7492 54.381 52.2036C54.381 52.7338 54.2296 53.1504 53.8887 53.4533C53.5479 53.7563 53.1313 53.9078 52.5633 53.9078H52.1846C51.6544 53.9078 51.2 53.7563 50.9349 53.4533C50.6319 53.1504 50.4804 52.9231 50.4804 52.7338C50.4804 52.6959 50.5183 52.6959 50.5562 52.6581L51.3893 52.2415H51.4272C51.4651 52.2415 51.5029 52.3551 51.6165 52.5444C51.7301 52.7717 51.9195 52.8853 52.1846 52.8853H52.5633C52.7526 52.8853 52.9041 52.8095 53.0556 52.6959C53.2071 52.5444 53.2828 52.393 53.2828 52.2036C53.2828 51.9764 53.1692 51.787 52.9798 51.6356C52.8662 51.5598 52.6011 51.4083 52.2224 51.219C51.6544 50.9539 51.2378 50.6888 51.0106 50.4237C50.7455 50.1208 50.594 49.7421 50.594 49.2876C50.594 48.7575 50.7455 48.3409 51.0864 48.0379C51.4272 47.735 51.8437 47.5835 52.4118 47.5835H52.5633C53.0177 47.5835 53.3964 47.6971 53.6615 47.9243C53.813 48.0379 53.9645 48.1894 54.1159 48.4166C54.2295 48.5681 54.2674 48.6817 54.2674 48.7575C54.2674 48.7953 54.2296 48.8332 54.1917 48.8332L53.3585 49.2498H53.3207C53.2828 49.2498 53.2449 49.2119 53.2071 49.0983C53.0177 48.7575 52.7905 48.606 52.5633 48.606H52.3739V48.6438Z" fill="#8C9192"/>
<path d="M71.9147 48.644C71.9147 48.7198 71.8769 48.7576 71.8011 48.7576H70.7408C70.665 48.7576 70.6272 48.7955 70.6272 48.8712V53.7943C70.6272 53.87 70.5893 53.9079 70.5135 53.9079H69.6047C69.5289 53.9079 69.4911 53.87 69.4911 53.7943V48.8712C69.4911 48.7955 69.4532 48.7576 69.3775 48.7576H68.3171C68.2414 48.7576 68.2035 48.7198 68.2035 48.644V47.8109C68.2035 47.7351 68.2414 47.6973 68.3171 47.6973H71.7632C71.839 47.6973 71.8769 47.7351 71.8769 47.8109V48.644H71.9147Z" fill="#8C9192"/>
<path d="M89.6757 52.2416C89.6757 52.7718 89.5242 53.1884 89.1833 53.4914C88.8425 53.7943 88.426 53.9458 87.8579 53.9458H87.3656C86.8354 53.9458 86.381 53.7943 86.0402 53.4914C85.6993 53.1884 85.5479 52.7718 85.5479 52.2416V47.8109C85.5479 47.7351 85.5857 47.6973 85.6615 47.6973H86.5703C86.6461 47.6973 86.6839 47.7351 86.6839 47.8109V52.2416C86.6839 52.431 86.7597 52.5825 86.8733 52.734C87.0248 52.8854 87.1762 52.9233 87.3656 52.9233H87.8579C88.0473 52.9233 88.2366 52.8476 88.3502 52.734C88.4638 52.6203 88.5396 52.431 88.5396 52.2416V47.8109C88.5396 47.7351 88.5774 47.6973 88.6532 47.6973H89.562C89.6378 47.6973 89.6757 47.7351 89.6757 47.8109V52.2416Z" fill="#8C9192"/>
<path d="M108.346 52.0523C108.346 52.6203 108.194 53.0369 107.853 53.3777C107.512 53.7186 107.096 53.87 106.528 53.87H104.331C104.256 53.87 104.218 53.8322 104.218 53.7564V47.8109C104.218 47.7351 104.256 47.6973 104.331 47.6973H106.528C107.096 47.6973 107.512 47.8487 107.853 48.1896C108.194 48.5304 108.346 48.947 108.346 49.515V52.0523ZM107.247 52.128V49.4393C107.247 49.2499 107.172 49.0984 107.02 48.947C106.869 48.7955 106.717 48.7198 106.528 48.7198H105.467C105.392 48.7198 105.354 48.7576 105.354 48.8334V52.734C105.354 52.8097 105.392 52.8476 105.467 52.8476H106.528C106.717 52.8476 106.907 52.7718 107.02 52.6582C107.172 52.5067 107.247 52.3174 107.247 52.128Z" fill="#8C9192"/>
<path d="M123.645 53.7564C123.645 53.8322 123.607 53.87 123.531 53.87H122.622C122.547 53.87 122.509 53.8322 122.509 53.7564V47.8109C122.509 47.7351 122.547 47.6973 122.622 47.6973H123.531C123.607 47.6973 123.645 47.7351 123.645 47.8109V53.7564Z" fill="#8C9192"/>
<path d="M141.822 52.2414C141.822 52.7716 141.671 53.1882 141.33 53.4911C140.989 53.7941 140.573 53.9456 140.005 53.9456H139.512C138.982 53.9456 138.528 53.7941 138.187 53.4911C137.846 53.1882 137.695 52.7716 137.695 52.2414V49.3633C137.695 48.8331 137.846 48.4166 138.187 48.1136C138.528 47.8107 138.944 47.6592 139.512 47.6592H140.005C140.535 47.6592 140.989 47.8107 141.33 48.1136C141.671 48.4166 141.822 48.8331 141.822 49.3633V52.2414ZM140.686 52.2414V49.3633C140.686 49.174 140.611 48.9846 140.497 48.871C140.383 48.7574 140.194 48.6817 140.005 48.6817H139.512C139.323 48.6817 139.134 48.7574 139.02 48.871C138.869 49.0225 138.831 49.174 138.831 49.3633V52.2414C138.831 52.4308 138.906 52.5823 139.02 52.7337C139.172 52.8852 139.323 52.9231 139.512 52.9231H140.005C140.194 52.9231 140.383 52.8473 140.497 52.7337C140.611 52.6201 140.686 52.4308 140.686 52.2414Z" fill="#8C9192"/>
<path d="M158.069 48.6438C157.879 48.6438 157.69 48.7196 157.576 48.8332C157.425 48.9847 157.387 49.1362 157.387 49.3255C157.387 49.5149 157.501 49.7042 157.69 49.8178C157.766 49.8557 158.031 50.0072 158.523 50.2344C159.053 50.4995 159.432 50.7646 159.697 51.0296C159.962 51.3326 160.076 51.7492 160.076 52.2036C160.076 52.7338 159.924 53.1504 159.583 53.4533C159.243 53.7563 158.826 53.9078 158.258 53.9078H157.879C157.349 53.9078 156.895 53.7563 156.63 53.4533C156.327 53.1504 156.175 52.9231 156.175 52.7338C156.175 52.6959 156.213 52.6959 156.251 52.6581L157.084 52.2415H157.122C157.16 52.2415 157.198 52.3551 157.311 52.5444C157.425 52.7717 157.614 52.8853 157.879 52.8853H158.258C158.447 52.8853 158.599 52.8095 158.75 52.6959C158.902 52.5444 158.978 52.393 158.978 52.2036C158.978 51.9764 158.864 51.787 158.675 51.6356C158.561 51.5598 158.296 51.4083 157.917 51.219C157.349 50.9539 156.933 50.6888 156.705 50.4237C156.44 50.1208 156.289 49.7421 156.289 49.2876C156.289 48.7575 156.44 48.3409 156.781 48.0379C157.122 47.735 157.538 47.5835 158.107 47.5835H158.258C158.712 47.5835 159.091 47.6971 159.356 47.9243C159.508 48.0379 159.659 48.1894 159.811 48.4166C159.924 48.5681 159.962 48.6817 159.962 48.7575C159.962 48.7953 159.924 48.8332 159.886 48.8332L159.053 49.2498H159.015C158.978 49.2498 158.94 49.2119 158.902 49.0983C158.712 48.7575 158.485 48.606 158.258 48.606H158.069V48.6438Z" fill="#8C9192"/>
</g>
<defs>
<linearGradient id="paint0_linear" x1="0.667929" y1="40.659" x2="19.5066" y2="40.659" gradientUnits="userSpaceOnUse">
<stop stop-color="#0AE7F8"/>
<stop offset="1" stop-color="#0284C5"/>
</linearGradient>
<linearGradient id="paint1_linear" x1="23.5129" y1="39.708" x2="36.725" y2="39.708" gradientUnits="userSpaceOnUse">
<stop stop-color="#4DEDFC"/>
<stop offset="1" stop-color="#0285C6"/>
</linearGradient>
<linearGradient id="paint2_linear" x1="22.9564" y1="50.6755" x2="36.9852" y2="50.6755" gradientUnits="userSpaceOnUse">
<stop offset="0.0403947" stop-color="#4DEDFC"/>
<stop offset="0.9823" stop-color="#0285C6"/>
</linearGradient>
<linearGradient id="paint3_linear" x1="22.9389" y1="28.7067" x2="36.9704" y2="28.7067" gradientUnits="userSpaceOnUse">
<stop offset="0.0403947" stop-color="#4DEDFC"/>
<stop offset="0.9823" stop-color="#0285C6"/>
</linearGradient>
<clipPath id="clip0">
<rect width="160" height="80" fill="white"/>
</clipPath>
</defs>
</svg>
