<svg width="160" height="80" viewBox="0 0 160 80" fill="none" xmlns="http://www.w3.org/2000/svg">
<path d="M160 17H92.5714V19.5714H94.8571V50.4286H110.143V44.1429H101.571V19.5714H160V17ZM0 23.2857V29.7143H4.85714V55.5714H11.5714V29.5714H16.4286V23.2857H0ZM72.4286 23.2857V55.5714H87.7143V49.2857H79.1429V42.5714H86V36.2857H79.1429V29.5714H87.7143V23.2857H72.4286ZM155.286 38.5714C156.714 37 157.429 34.8571 157.429 32.7143C157.429 27.5714 153.286 23.4286 148.143 23.4286H140.857V55.5714H148.143C153.714 55.5714 158.143 51.1429 158.143 45.5714C158.286 42.7143 157.143 40.2857 155.286 38.5714ZM147.714 29.5714C149.429 29.5714 150.714 30.8571 150.714 32.5714C150.714 34.2857 149.286 35.5714 147.714 35.5714H147.571L147.714 29.5714ZM151.571 45.5714C151.571 47.7143 149.857 49.2857 147.857 49.2857H147.571V41.8571H147.857C150 41.8571 151.571 43.5714 151.571 45.5714ZM29.7143 23.2857C36.2857 23.2857 41.5714 28.5714 41.5714 35.1429C41.5714 38.8571 39.8571 42.1429 37.1429 44.2857L42.8571 55.5714H35.4286L31.1429 46.8571C30.5714 47 30.1429 47 29.7143 47H29.1429V55.5714H22.4286V23.2857H25H29.7143ZM29.2857 29.5714V40.5714V40.7143H29.4286C32.4286 40.7143 35 38.1429 35 35.1429C34.8571 32.1429 32.2857 29.5714 29.2857 29.5714ZM59.4286 47.1429C59.4286 48.8571 58.1429 50.1429 56.4286 50.1429C54.7143 50.1429 53.2857 48.8571 53.2857 47.1429V23.2857H46.5714V46.7143C46.5714 52 51 56.4286 56.2857 56.4286C61.5714 56.4286 66 52 66 46.7143V23.2857H59.2857V47.1429H59.4286ZM135.143 60.1429H160V62.7143H92.5714V60.1429H113.143L120 28.2857H128.143L135.143 60.1429ZM128.429 60.1429L127.714 56.8571H120.857L120 60.1429H128.429ZM124.286 40.5714L122.143 50.4286H126.286L124.286 40.5714Z" fill="white"/>
</svg>
