<svg width="160" height="80" viewBox="0 0 160 80" fill="none" xmlns="http://www.w3.org/2000/svg">
<g clip-path="url(#clip0_5700_78)">
<path d="M35.8543 46.8347L28.3249 39.3053L35.8543 31.7759C36.7954 30.8347 36.7954 29.3557 35.8543 28.4145L29.1316 21.7366C28.1904 20.7955 26.7114 20.7955 25.7702 21.7366L18.2856 29.2661L10.7562 21.7366C9.81505 20.7955 8.33606 20.7955 7.39489 21.7366L0.672192 28.4145C-0.268986 29.3557 -0.268986 30.8347 0.672192 31.7759L8.20161 39.3053L0.672192 46.8347C-0.268986 47.7759 -0.268986 49.2549 0.672192 50.196L7.35007 56.8739C8.29124 57.8151 9.77024 57.8151 10.7114 56.8739L18.2408 49.3445L25.7702 56.8739C26.7114 57.8151 28.1904 57.8151 29.1316 56.8739L35.8543 50.196C36.7506 49.2549 36.7506 47.7759 35.8543 46.8347Z" fill="#FF003A"/>
<path d="M148.527 16C142.342 16 137.322 21.0196 137.322 27.2045C137.322 33.3894 142.342 38.409 148.527 38.409C154.711 38.409 159.731 33.3894 159.731 27.2045C159.731 21.0196 154.711 16 148.527 16ZM153.725 29.4006C153.994 29.6695 153.994 30.1176 153.725 30.3866L151.753 32.3585C151.485 32.6275 151.036 32.6275 150.767 32.3585L148.571 30.1625L146.375 32.3585C146.106 32.6275 145.658 32.6275 145.389 32.3585L143.417 30.3866C143.148 30.1176 143.148 29.6695 143.417 29.4006L145.613 27.2045L143.417 25.0084C143.148 24.7395 143.148 24.2913 143.417 24.0224L145.389 22.0504C145.658 21.7815 146.106 21.7815 146.375 22.0504L148.571 24.2465L150.767 22.0504C151.036 21.7815 151.485 21.7815 151.753 22.0504L153.725 24.0224C153.994 24.2913 153.994 24.7395 153.725 25.0084L151.485 27.2045L153.725 29.4006Z" fill="white"/>
<path d="M78.3417 43.7422H84.6162C84.8851 43.7422 85.154 43.9215 85.2436 44.1904L92.2352 62.8795C92.4145 63.3277 92.0559 63.7758 91.6078 63.7758H85.7814C85.5125 63.7758 85.2436 63.5966 85.154 63.3277L84.5713 61.7142C84.4817 61.4453 84.2128 61.266 83.9439 61.266H79.0139C78.745 61.266 78.4761 61.4453 78.3865 61.7142L77.8038 63.3277C77.7142 63.5966 77.4453 63.7758 77.1764 63.7758H71.3949C70.9467 63.7758 70.5881 63.3277 70.7674 62.8795L77.7142 44.1904C77.8038 43.9215 78.0727 43.7422 78.3417 43.7422ZM82.8683 56.7394C83.3164 56.7394 83.6302 56.2912 83.4957 55.8878L81.5685 49.8822H81.4341L79.5069 55.843C79.3725 56.2912 79.6862 56.6946 80.1344 56.6946H82.8683V56.7394Z" fill="white"/>
<path d="M95.1932 43.7422H99.8095C100.034 43.7422 100.213 43.8318 100.347 44.0111L105.86 51.4509C106.129 51.8094 106.667 51.8094 106.936 51.4509L112.448 44.0111C112.583 43.8318 112.762 43.7422 112.986 43.7422H117.557C117.916 43.7422 118.23 44.0559 118.23 44.4145V63.1036C118.23 63.4621 117.916 63.7758 117.557 63.7758H112.134C111.776 63.7758 111.462 63.4621 111.462 63.1036V59.1596L111.507 55.0363H111.417L108.459 59.0699C108.325 59.2492 108.146 59.3388 107.922 59.3388H104.784C104.56 59.3388 104.381 59.2492 104.246 59.0699L101.288 54.9915L101.199 55.0363L101.244 59.1596V63.1036C101.244 63.4621 100.93 63.7758 100.571 63.7758H95.1484C94.7899 63.7758 94.4761 63.4621 94.4761 63.1036V44.4145C94.521 44.0559 94.8347 43.7422 95.1932 43.7422Z" fill="white"/>
<path d="M153.143 51.6749H146.779C146.779 51.6749 145.389 51.7645 145.389 50.5544C145.389 49.3443 146.779 49.3443 146.779 49.3443H159.104C159.462 49.3443 159.776 49.0306 159.776 48.6721V44.3695C159.776 44.011 159.462 43.6973 159.104 43.6973H146.375C143.104 43.6973 139.742 43.6973 139.742 50.3303C139.742 56.3359 142.969 55.7981 146.286 55.7981H152.695C152.695 55.7981 154.129 55.7981 154.129 56.9186C154.129 58.039 152.739 58.0838 152.739 58.0838H136.695C136.695 58.0838 136.695 58.0838 136.65 58.0838H126.207V56.4704C126.207 56.1118 126.521 55.7981 126.879 55.7981H133.333C133.692 55.7981 134.006 55.4844 134.006 55.1258V52.2575C134.006 51.8989 133.692 51.5852 133.333 51.5852H126.207V50.0614C126.207 49.7029 126.521 49.3891 126.879 49.3891H136.65C137.008 49.3891 137.322 49.0754 137.322 48.7169V44.4144C137.322 44.0558 137.008 43.7421 136.65 43.7421H121.277C120.919 43.7421 120.605 44.0558 120.605 44.4144V63.1035C120.605 63.4621 120.919 63.7758 121.277 63.7758H135.485H136.695H153.188C156.594 63.7758 159.776 63.7758 159.776 57.1426C159.731 51.1819 156.325 51.6749 153.143 51.6749Z" fill="white"/>
<path d="M107.608 37.916L103.843 31.6415C103.664 31.3725 103.395 31.1933 103.081 31.1933H101.064C100.571 31.1933 100.168 31.5966 100.168 32.0896V37.423C100.168 37.916 99.7647 38.3193 99.2717 38.3193H94.1176C93.6246 38.3193 93.2213 37.916 93.2213 37.423V16.8964C93.2213 16.4034 93.6246 16 94.1176 16H106.936C112.09 16 114.689 19.8095 114.689 23.5742C114.689 26.1737 113.479 28.7731 111.059 30.1625C111.014 30.2073 110.969 30.2969 111.014 30.3417L114.824 36.9748C115.182 37.5574 114.734 38.3193 114.017 38.3193H108.37C108.056 38.3641 107.742 38.1849 107.608 37.916ZM100.123 25.9496C100.123 25.9944 100.168 26.0392 100.213 26.0392H105.322C107.025 26.0392 107.877 24.8291 107.877 23.619C107.877 22.409 107.025 21.1989 105.322 21.1989H101.064C100.571 21.1989 100.168 21.6022 100.168 22.0952V25.9496H100.123Z" fill="white"/>
<path d="M133.916 26.8908C133.871 26.8459 133.871 26.8459 133.871 26.8011C133.871 26.7563 133.871 26.7563 133.916 26.7115C134.991 25.591 135.619 23.7983 135.619 22.0056C135.619 17.8375 132.93 16 130.241 16H117.916C117.288 16 116.795 16.493 116.795 17.1204V37.2885C116.795 37.916 117.288 38.409 117.916 38.409H130.241C134.319 38.409 136.157 35.0924 136.157 32.0448C136.157 29.9384 135.35 28.0112 133.916 26.8908ZM127.865 25.4118H123.025V21.7815C123.025 21.423 123.339 21.1092 123.697 21.1092H127.865C129.434 21.1092 130.151 22.1849 130.151 23.2605C130.106 24.2913 129.389 25.4118 127.865 25.4118ZM123.697 29.3557H127.865C129.434 29.3557 130.151 30.4314 130.151 31.507C130.151 32.5378 129.434 33.6583 127.865 33.6583H123.025V30.028C123.025 29.6246 123.294 29.3557 123.697 29.3557Z" fill="white"/>
<path d="M68.8403 51.8097H61.5798C60.9972 51.8097 60.549 52.2579 60.549 52.8405V55.3503C60.549 55.933 60.9972 56.3812 61.5798 56.3812H64C64.0896 56.3812 64.1793 56.4708 64.1793 56.5604V57.8601C64.1793 57.905 64.1344 57.9946 64.0896 58.0394C63.4174 58.398 62.6555 58.5772 61.6695 58.5772H61.535C59.4286 58.5772 58.3529 58.5324 57.3669 58.4876C55.3053 58.3531 53.7815 56.426 53.7815 53.9162V53.8713C53.7815 51.7201 55.126 49.9274 57.1877 49.3447C57.6807 49.2103 65.6134 49.1655 68.6162 49.2103C69.1092 49.2103 69.4678 48.8069 69.4678 48.3587C69.4678 47.059 69.4678 44.7285 69.4678 44.7285C69.4678 44.2355 69.0644 43.877 68.6162 43.877C65.5686 43.877 57.3221 43.877 57.1428 43.9218C51.6751 44.3251 47.7311 48.538 47.7311 53.8713V53.9162C47.7311 59.7873 50.6891 63.4175 55.8431 63.8208C56.0672 63.8208 57.7703 63.8657 60.3697 63.8657C61.4005 63.8657 62.2073 63.8657 62.3417 63.8657C62.4314 63.8657 62.521 63.8657 62.6555 63.8657C65.3893 63.8657 69.6022 61.1318 69.916 60.3251C69.9608 60.2355 69.916 52.9302 69.916 52.9302C69.8711 52.2579 69.423 51.8097 68.8403 51.8097Z" fill="white"/>
<path d="M66.0616 16H48.986C48.493 16 48.0896 16.4034 48.0896 16.8964V22.0056C48.0896 22.4986 48.493 22.902 48.986 22.902H53.154C53.647 22.902 54.0504 23.3053 54.0504 23.7983V37.5126C54.0504 38.0056 54.4537 38.409 54.9467 38.409H60.056C60.549 38.409 60.9523 38.0056 60.9523 37.5126V23.7983C60.9523 23.3053 61.3557 22.902 61.8487 22.902H66.0168C66.5098 22.902 66.9131 22.4986 66.9131 22.0056V16.8964C66.958 16.4034 66.5546 16 66.0616 16Z" fill="white"/>
<path d="M84.7507 16.0449C84.2577 16.0449 83.8543 16.4483 83.8543 16.9413V30.6556C83.8543 31.5967 83.4958 31.9553 82.5098 31.9553H77.6246C76.6386 31.9553 76.2801 31.5967 76.2801 30.6556V16.9413C76.2801 16.4483 75.8767 16.0449 75.3837 16.0449H70.14C69.647 16.0449 69.2437 16.4483 69.2437 16.9413V31.5519C69.2437 33.9273 69.8263 35.6752 70.9467 36.7508C72.0672 37.8713 73.9047 38.4091 76.3249 38.4091H83.8095C86.2297 38.4091 88.0672 37.8264 89.1876 36.7508C90.3081 35.6304 90.8907 33.8825 90.8907 31.5519V16.9413C90.8907 16.4483 90.4874 16.0449 89.9944 16.0449H84.7507Z" fill="white"/>
</g>
<defs>
<clipPath id="clip0_5700_78">
<rect width="160" height="80" fill="white"/>
</clipPath>
</defs>
</svg>
