<svg width="160" height="80" viewBox="0 0 160 80" fill="none" xmlns="http://www.w3.org/2000/svg">
<path d="M64.1636 41.1982C64.3195 41.1982 64.6312 41.3541 64.7871 41.51C64.943 41.6659 65.0988 41.8217 65.0988 42.1335V45.8745C65.0988 46.0304 64.943 46.3421 64.7871 46.498C64.6312 46.6539 64.4753 46.8097 64.1636 46.6539H56.5257C56.9934 46.6539 57.461 46.8097 57.7727 47.1215C58.0845 47.4332 58.3962 47.9008 58.3962 48.3685V63.4883C58.3962 63.6442 58.2404 63.9559 58.0845 64.1118C57.9286 64.2677 57.7727 64.4235 57.461 64.2677H52.9406C52.7847 64.2677 52.473 64.2677 52.3171 64.1118C52.1612 63.9559 52.0054 63.8 52.0054 63.4883V47.5891C52.0054 47.2774 51.8495 47.1215 51.6936 46.8097C51.5377 46.6539 51.226 46.498 51.0701 46.498H46.238C46.0821 46.498 45.7704 46.3421 45.6145 46.3421C45.4586 46.1862 45.3028 46.0304 45.3028 45.7186V44.004C45.3028 43.5364 45.4586 43.2246 45.6145 42.9129C45.7704 42.6011 45.9263 42.2894 46.238 41.9776C46.5498 41.6659 46.8615 41.51 47.1733 41.3541C47.485 41.1982 47.7968 41.1982 48.2644 41.1982H64.1636Z" fill="white"/>
<path d="M88.3241 41.1982C88.48 41.1982 88.6358 41.1982 88.7917 41.3541C88.9476 41.51 88.9476 41.6659 88.9476 41.8217C88.9476 41.9776 88.9476 41.9776 88.9476 42.1335L82.245 63.1766C82.0891 63.4883 81.9332 63.6442 81.7774 63.8001C81.4656 63.9559 81.1539 64.1118 80.8421 64.1118H75.5424C75.2306 64.1118 74.9189 64.1118 74.6071 63.8001C74.4513 63.6442 74.2954 63.3324 74.1395 63.1766L67.5928 42.1335V41.8217C67.5928 41.6659 67.5928 41.51 67.7487 41.3541C67.9045 41.1982 68.0604 41.1982 68.2163 41.1982H72.5808C72.8925 41.1982 73.2043 41.1982 73.3601 41.51C73.516 41.6659 73.6719 41.8217 73.8278 42.1335L78.1922 56.4739C78.1922 56.6298 78.1922 56.6298 78.3481 56.6298C78.3481 56.6298 78.504 56.6298 78.504 56.4739L82.8685 42.1335C82.8685 41.8217 83.1802 41.6659 83.3361 41.51C83.492 41.3541 83.8037 41.3541 84.1155 41.3541L88.3241 41.1982Z" fill="white"/>
<path d="M91.4416 63.4883V44.1599C91.4416 43.6922 91.5974 43.2246 91.7533 42.9129C91.9092 42.6011 92.2209 42.2894 92.5327 41.9776C92.8444 41.6659 93.1562 41.51 93.4679 41.51C93.7797 41.3541 94.0914 41.3541 94.4032 41.3541H102.509C103.6 41.3541 104.691 41.51 105.626 41.6659C106.561 41.8217 107.497 42.2894 108.276 42.757C109.055 43.2246 109.679 44.004 109.991 44.7834C110.458 45.7186 110.614 46.8097 110.614 47.9009C110.614 48.8361 110.302 49.7713 109.835 50.5507C109.367 51.3301 108.744 51.9536 107.808 52.4212C108.744 52.733 109.679 53.5123 110.146 54.4476C110.77 55.3828 110.926 56.3181 110.926 57.4092C110.926 58.5003 110.77 59.5914 110.302 60.6826C109.835 61.4619 109.211 62.2413 108.432 62.8648C107.653 63.4883 106.717 63.8001 105.782 64.1118C104.691 64.4235 103.6 64.4235 102.509 64.4235H92.0651C91.7533 64.2677 91.4416 63.9559 91.4416 63.4883ZM101.729 50.3948C102.353 50.3948 102.976 50.239 103.6 49.7713C104.067 49.3037 104.379 48.6802 104.223 48.0567C104.223 47.4332 104.067 46.8097 103.444 46.3421C102.976 45.8745 102.353 45.7186 101.573 45.7186H95.6502C96.1178 45.7186 96.5854 45.8745 96.8972 46.1862C97.2089 46.498 97.3648 46.9656 97.3648 47.4332V49.4596C97.3648 49.6155 97.5207 49.9272 97.6765 50.0831C97.8324 50.239 98.1442 50.3948 98.4559 50.3948H101.729ZM102.041 59.7473C102.82 59.7473 103.444 59.5914 103.912 59.1238C104.379 58.6562 104.691 57.8768 104.691 57.2533C104.691 56.4739 104.379 55.8505 103.912 55.3828C103.444 54.9152 102.665 54.6035 102.041 54.6035H95.806C96.2737 54.6035 96.7413 54.7593 97.053 55.227C97.3648 55.5387 97.5207 56.0063 97.5207 56.4739V58.8121C97.5207 59.1238 97.6765 59.2797 97.8324 59.4356C97.9883 59.5914 98.3 59.7473 98.6118 59.7473H102.041Z" fill="white"/>
<path d="M113.576 63.4883V44.1599C113.576 43.3805 113.888 42.6011 114.511 42.1335C114.979 41.6659 115.758 41.3541 116.537 41.3541H129.943C130.41 41.3541 130.722 41.6659 130.722 42.1335V45.4069C130.722 45.5627 130.722 45.8745 130.566 46.0304C130.41 46.1862 130.099 46.1862 129.943 46.1862H117.784C118.252 46.1862 118.72 46.3421 119.031 46.8097C119.343 47.1215 119.499 47.5891 119.499 48.0567V49.3037C119.499 49.6155 119.655 49.7713 119.811 49.9272C119.967 50.0831 120.278 50.239 120.59 50.239H127.76C128.228 50.239 128.696 50.5507 128.696 51.0183V53.98C128.696 54.1358 128.54 54.4476 128.384 54.6035C128.228 54.7593 128.072 54.9152 127.76 54.9152H117.784C118.252 54.9152 118.72 55.0711 119.031 55.3828C119.343 55.6946 119.499 56.1622 119.499 56.6298V58.1886C119.499 58.5003 119.655 58.6562 119.811 58.8121C119.967 58.9679 120.278 59.1238 120.59 59.1238H130.254C130.722 59.1238 131.034 59.2797 131.19 59.7473C131.19 59.9032 131.19 59.9032 131.19 60.0591V63.3324C131.19 63.4883 131.19 63.8001 130.878 63.9559C130.722 64.1118 130.566 64.1118 130.254 64.1118H114.355C114.043 64.2677 113.576 63.9559 113.576 63.4883Z" fill="white"/>
<path d="M149.271 41.1982C149.427 41.1982 149.739 41.3541 149.895 41.51C150.05 41.6659 150.206 41.8217 150.206 42.1335V45.8745C150.206 46.0304 150.05 46.3421 149.895 46.498C149.739 46.6539 149.583 46.8097 149.271 46.6539H144.439C144.907 46.6539 145.374 46.8097 145.686 47.1215C145.998 47.4332 146.309 47.9008 146.309 48.3685V63.4883C146.309 63.6442 146.154 63.9559 145.998 64.1118C145.842 64.2677 145.686 64.4235 145.374 64.2677H140.854C140.698 64.2677 140.386 64.2677 140.23 64.1118C140.074 63.9559 139.919 63.8 139.919 63.4883V47.5891C139.919 47.2774 139.763 47.1215 139.607 46.8097C139.451 46.6539 139.139 46.498 138.983 46.498H134.151C133.995 46.498 133.684 46.3421 133.528 46.3421C133.372 46.1862 133.216 46.0304 133.216 45.7186V44.004C133.216 43.5364 133.372 43.2246 133.528 42.9129C133.684 42.6011 133.839 42.2894 134.151 41.9776C134.463 41.6659 134.775 41.51 135.086 41.3541C135.398 41.1982 135.71 41.1982 136.178 41.1982H149.271Z" fill="white"/>
<path d="M32.2093 64.1118H18.8041C18.3364 64.1118 18.0247 63.9559 17.8688 63.4883L2.12549 30.9106C1.81374 30.4429 2.12549 29.8194 2.59311 29.5077C2.74899 29.5077 2.90486 29.3518 3.06074 29.3518H16.9336C17.4012 29.3518 17.7129 29.5077 17.8688 29.9753L33.1445 62.709C33.4563 63.1766 33.1445 63.8001 32.6769 64.1118C32.521 64.1118 32.3651 64.1118 32.2093 64.1118Z" fill="url(#paint0_linear)"/>
<path d="M39.6913 15.9466L40.4706 16.2584C40.9383 16.4143 41.25 17.0378 40.9383 17.6613L37.0414 26.3902C36.8855 26.8579 36.262 27.1696 35.6385 26.8579L34.8592 26.5461C34.3915 26.3902 34.0798 25.7667 34.3915 25.1432L38.2884 16.4143C38.6002 15.9466 39.2237 15.7908 39.6913 15.9466Z" fill="url(#paint1_linear)"/>
<path d="M43.7439 21.2463L44.5233 21.5581C44.9909 21.714 45.3027 22.3375 44.9909 22.961L40.003 34.3398C39.8471 34.8074 39.2236 35.1192 38.6001 34.8074L37.8207 34.4957C37.3531 34.3398 37.0413 33.7163 37.3531 33.0928L42.3411 21.714C42.6528 21.2463 43.2763 20.9346 43.7439 21.2463Z" fill="url(#paint2_linear)"/>
<path d="M46.238 15.6349L47.0173 15.9466C47.485 16.1025 47.7967 16.726 47.485 17.3495L47.1732 18.1289C47.0173 18.5965 46.3938 18.9082 45.7703 18.5965L44.991 18.2847C44.5233 18.1289 44.2116 17.5054 44.5233 16.8819L44.8351 16.1025C45.1468 15.6349 45.6145 15.479 46.238 15.6349Z" fill="url(#paint3_linear)"/>
<path d="M41.0941 39.0161L42.0293 36.8338C42.1852 36.3662 42.0293 35.7427 41.5617 35.4309L40.6265 34.9633C40.1588 34.8075 39.6912 34.9633 39.3795 35.4309L37.9766 38.7043L35.4826 44.6275C35.3267 45.0952 34.7032 45.4069 34.0797 45.0952L33.3004 44.7834C32.8327 44.6275 32.521 44.0041 32.8327 43.3806L35.3267 37.6132L38.756 29.9753C38.9119 29.5077 38.756 28.8842 38.2884 28.5725L37.509 28.2607C37.0414 28.1048 36.4179 28.2607 36.1061 28.7283L32.6769 36.3662L31.5858 39.0161C31.4299 39.4837 30.8064 39.7954 30.3388 39.4837L29.5594 39.1719C29.0918 39.0161 28.4683 39.1719 28.1565 39.6396L18.0247 62.5531C17.8688 63.0207 18.0247 63.6442 18.4923 63.956C18.6482 63.956 18.804 64.1119 18.9599 64.1119H32.3651C32.8327 64.1119 33.1445 63.8001 33.3004 63.4884L43.1205 41.8218C43.2763 41.5101 43.1205 41.0424 42.8087 40.8866L41.7176 40.4189C41.0941 40.2631 40.9382 39.6396 41.0941 39.0161Z" fill="url(#paint4_linear)"/>
<path d="M45.3027 32.1575L46.0821 32.4692C46.5497 32.6251 46.8615 33.2486 46.5497 33.8721L45.4586 36.3661C45.3027 36.8337 44.6792 37.1455 44.0557 36.8337L43.2763 36.522C42.8087 36.3661 42.497 35.7426 42.8087 35.1191L43.8998 32.6251C44.2116 32.1575 44.8351 31.8457 45.3027 32.1575Z" fill="url(#paint5_linear)"/>
<path d="M32.6768 32.0018L33.4562 32.3135C33.9238 32.4694 34.2356 33.0929 33.9238 33.7164L32.8327 36.2104C32.6768 36.8339 32.0533 36.9898 31.5857 36.8339L30.8063 36.5221C30.3387 36.3663 30.027 35.7428 30.3387 35.1193L31.4298 32.6253C31.5857 32.0018 32.2092 31.8459 32.6768 32.0018Z" fill="url(#paint6_linear)"/>
<path d="M49.5113 22.4934L50.2907 22.8051C50.7583 22.961 51.0701 23.5845 50.7583 24.208L48.4202 29.3519C48.2643 29.8195 47.6408 30.1312 47.0174 29.8195L46.238 29.5077C45.7704 29.3519 45.4586 28.7284 45.7704 28.1049L48.1085 22.961C48.4202 22.4934 49.0437 22.3375 49.5113 22.4934Z" fill="url(#paint7_linear)"/>
<path d="M155.194 41.1982H153.48C153.012 41.1982 152.544 41.6659 152.544 42.1335V45.7186C152.544 46.1862 153.012 46.6539 153.48 46.6539H157.065C157.532 46.6539 158 46.1862 158 45.7186V42.1335C158 41.6659 157.532 41.1982 157.065 41.1982H155.194Z" fill="#FECF08"/>
<defs>
<linearGradient id="paint0_linear" x1="6.30137" y1="25.0472" x2="19.5052" y2="49.9355" gradientUnits="userSpaceOnUse">
<stop stop-color="#FECF08"/>
<stop offset="1" stop-color="#F9A11E"/>
</linearGradient>
<linearGradient id="paint1_linear" x1="18.8633" y1="60.653" x2="26.1346" y2="45.5905" gradientUnits="userSpaceOnUse">
<stop stop-color="#FECF08"/>
<stop offset="1" stop-color="#F9A11E"/>
</linearGradient>
<linearGradient id="paint2_linear" x1="24.1898" y1="63.3064" x2="31.4699" y2="48.222" gradientUnits="userSpaceOnUse">
<stop stop-color="#FECF08"/>
<stop offset="1" stop-color="#F9A11E"/>
</linearGradient>
<linearGradient id="paint3_linear" x1="24.249" y1="62.1972" x2="31.3928" y2="47.4035" gradientUnits="userSpaceOnUse">
<stop stop-color="#FECF08"/>
<stop offset="1" stop-color="#F9A11E"/>
</linearGradient>
<linearGradient id="paint4_linear" x1="25.2962" y1="64.6353" x2="35.6065" y2="40.3988" gradientUnits="userSpaceOnUse">
<stop stop-color="#FECF08"/>
<stop offset="1" stop-color="#F9A11E"/>
</linearGradient>
<linearGradient id="paint5_linear" x1="29.1021" y1="66.4738" x2="36.4026" y2="51.5173" gradientUnits="userSpaceOnUse">
<stop stop-color="#FECF08"/>
<stop offset="1" stop-color="#F9A11E"/>
</linearGradient>
<linearGradient id="paint6_linear" x1="19.3907" y1="60.7276" x2="26.6004" y2="45.7928" gradientUnits="userSpaceOnUse">
<stop stop-color="#FECF08"/>
<stop offset="1" stop-color="#F9A11E"/>
</linearGradient>
<linearGradient id="paint7_linear" x1="29.3396" y1="65.5609" x2="36.589" y2="50.5425" gradientUnits="userSpaceOnUse">
<stop stop-color="#FECF08"/>
<stop offset="1" stop-color="#F9A11E"/>
</linearGradient>
</defs>
</svg>
