<svg width="160" height="80" viewBox="0 0 160 80" fill="none" xmlns="http://www.w3.org/2000/svg">
<path d="M43.3422 42.062H41.0897V33.9531H36.8664V42.9629L42.2159 48.1999L47.5655 42.9629V33.9531H43.3422V42.062Z" fill="white"/>
<path d="M66.3172 42.2871H64.4026V33.8967H60.123V45.6658H60.1793H70.8221V40.5978H66.3172V42.2871Z" fill="white"/>
<path d="M48.5228 33.8967H59.222V37.2754H52.8025V38.0638H59.222V41.4425H52.8025V42.2871H59.222V45.6658H48.5228V33.8967Z" fill="white"/>
<path d="M88.3913 33.8967V45.6658H99.0905V38.0638H93.4593V41.4425H94.8671V42.2871H92.6147V37.2754H99.0905V33.8967H88.3913Z" fill="white"/>
<path d="M148.363 42.2871V37.2754H154.839V33.8967H144.14V45.6658H154.839V38.0638H149.208V41.4425H150.615V42.2871H148.363Z" fill="white"/>
<path d="M71.4979 33.8967V45.6658H75.7775V41.4425H77.9737V45.6658H82.197V33.8967H71.4979ZM77.9737 39.19H75.7775V37.2191H77.9737V39.19Z" fill="white"/>
<path d="M131.582 33.8967H127.359V45.6658H131.582V33.8967Z" fill="white"/>
<path d="M131.582 29.8987H127.359V32.9958H131.582V29.8987Z" fill="white"/>
<path d="M139.353 38.0075L132.877 29.8987V45.6659H137.101V41.2736L143.576 49.3824V33.8968H139.353V38.0075Z" fill="white"/>
<path d="M119.194 38.7959L112.098 29.8987V45.6659H116.322V41.2736L119.194 44.8775L122.122 41.2736V45.6659H126.345V29.8987L119.194 38.7959Z" fill="white"/>
<path d="M100.442 33.8967V45.6658H104.665V41.4425H106.918V45.6658H111.141V33.8967H100.442ZM106.918 39.19H104.665V37.2191H106.918V39.19Z" fill="white"/>
<path d="M11.3802 42.0813H9.12774V33.9724H4.90439V42.9822L10.254 48.1629L15.6036 42.9822V33.9724H11.3802V42.0813Z" fill="white"/>
<path d="M20.559 42.3628V37.3511H27.0348V33.9724H16.3356V45.7415H27.0348V38.1395H21.4037V41.5181H22.8114V42.3628H20.559Z" fill="white"/>
<path d="M15.9414 55.1454C7.55101 55.1454 0.737335 48.3318 0.737335 39.9414C0.737335 31.551 7.55101 24.7373 15.9414 24.7373C24.3318 24.7373 31.1455 31.551 31.1455 39.9414C31.1455 48.3318 24.3318 55.1454 15.9414 55.1454ZM15.9414 26.4266C8.50831 26.4266 2.42668 32.5083 2.42668 39.9414C2.42668 47.3745 8.50831 53.4561 15.9414 53.4561C23.3745 53.4561 29.4561 47.3745 29.4561 39.9414C29.4561 32.5083 23.4308 26.4266 15.9414 26.4266Z" fill="white"/>
</svg>
