<svg width="160" height="80" viewBox="0 0 160 80" fill="none" xmlns="http://www.w3.org/2000/svg">
<g clip-path="url(#clip0)">
<path d="M0.199728 22.9991C0.199728 23.1009 0.170164 23.2028 0.157025 23.3276V23.4064C0.157025 23.551 0.130746 23.7053 0.124176 23.8696C0.00592016 27.0724 0.869844 33.7242 5.36028 46.8638C5.36028 46.8638 9.28243 57.9371 13.901 60.6603L14.0028 60.7227L14.0784 60.7687C14.3368 60.9181 14.6112 61.0382 14.8963 61.1267C14.9883 61.1596 15.0802 61.1826 15.1722 61.2088L15.2773 61.2384C15.5293 61.3056 15.7864 61.3517 16.046 61.3764H17.1169H17.1727C17.3107 61.3567 17.4519 61.3304 17.5866 61.2975L17.7804 61.2483L17.9479 61.1957C18.2386 61.1117 18.5212 61.0018 18.7922 60.8672C19.0048 60.7479 19.206 60.6094 19.3933 60.4533C19.4886 60.3876 19.5707 60.3121 19.6627 60.2398C19.7546 60.1675 19.8433 60.1018 19.932 60.023C20.0207 59.9442 20.1324 59.8292 20.2342 59.7274C20.3361 59.6255 20.4116 59.5533 20.497 59.458C20.5824 59.3627 20.612 59.3135 20.6711 59.2379C20.7302 59.1624 20.8386 59.0441 20.9043 58.9456L20.9536 58.8667C21.0029 58.7945 21.0489 58.7222 21.0949 58.6499C22.5435 56.3505 24.3797 51.7188 26.285 42.7215C27.0249 42.6986 27.741 42.4549 28.3413 42.0218C28.5999 41.8453 28.8379 41.6403 29.0508 41.4109L29.0903 41.3747C29.5343 40.8879 29.898 40.3335 30.1677 39.7323C30.71 38.5793 31.1369 37.3756 31.4422 36.1386C32.0064 33.3908 32.3296 30.599 32.408 27.795V25.5744C32.3784 24.9175 32.3226 24.2605 32.2306 23.6199C32.1985 23.377 32.0924 23.1499 31.9266 22.9695C31.7609 22.789 31.5436 22.664 31.3043 22.6115C31.093 22.5859 30.8787 22.6197 30.6855 22.7091C30.4923 22.7984 30.3278 22.9398 30.2104 23.1174C28.2395 25.6697 25.6543 39.89 25.6543 39.89C25.5295 40.4911 25.3915 41.0791 25.2601 41.6507C24.6685 41.5387 24.1082 41.3 23.6177 40.951C21.4792 39.1804 17.222 34.8937 9.38754 24.5463C8.82254 23.7973 7.2458 21.7935 7.08813 21.5899L6.8549 21.3435C6.56006 21.0365 6.22917 20.7663 5.86943 20.5387L5.77089 20.4829C5.62461 20.395 5.47199 20.3181 5.31429 20.2529H5.2913C5.19275 20.2135 5.08763 20.1807 4.98252 20.1478C4.66183 20.056 4.33056 20.0063 3.99705 20H3.97077C3.85252 20 3.64228 20.0164 3.60287 20.023C2.79224 20.0908 2.02459 20.4163 1.41225 20.9518C0.799912 21.4873 0.375014 22.2047 0.199728 22.9991ZM26.85 39.8703C26.85 39.8703 28.9917 27.2169 30.7557 23.6495C30.7835 23.5715 30.8369 23.5053 30.9073 23.4618C30.9777 23.4182 31.0608 23.3999 31.143 23.4098C31.2251 23.4198 31.3015 23.4574 31.3595 23.5164C31.4174 23.5755 31.4536 23.6526 31.4619 23.7349C31.556 24.3768 31.6076 25.0243 31.6163 25.673V26.8654C31.6163 27.8147 31.5671 28.9414 31.4685 30.1503C31.3535 32.1084 31.0677 34.0528 30.6144 35.9612C30.608 36.0238 30.5948 36.0855 30.575 36.1452C30.4578 36.6344 30.3108 37.116 30.1349 37.5873C29.9508 38.1353 29.7314 38.6707 29.4779 39.1903V39.21C29.0862 40.1349 28.3701 40.8849 27.4642 41.3189L27.4215 41.3386C27.277 41.4043 27.1259 41.4634 26.9748 41.516H26.9551C26.826 41.5584 26.6944 41.5924 26.5609 41.6178L26.4656 41.6375C26.6003 41.0364 26.7383 40.5765 26.873 39.8703H26.85ZM4.48321 22.0531C4.73275 22.0861 4.96404 22.2017 5.14019 22.3815C5.40298 22.6443 5.74789 23.0155 6.22092 23.5707C6.69394 24.1258 7.20638 24.7861 7.43632 25.0949L7.82065 25.5744L7.84693 25.6073C10.8854 29.5853 13.4312 32.6402 15.5631 34.9758C18.6903 38.4282 20.9011 40.3203 22.3924 41.3649C22.9406 41.8173 23.56 42.1758 24.2254 42.4259C24.4776 42.5523 24.7521 42.6282 25.0334 42.6493C22.849 52.182 20.6842 56.7808 19.1666 58.962L19.0451 59.0967C18.7637 59.455 18.406 59.7462 17.9981 59.949C17.5901 60.1518 17.1421 60.2613 16.6865 60.2694C15.9438 60.2626 15.2307 59.9764 14.6893 59.4679C14.5481 59.3233 14.4101 59.1755 14.2787 59.0244L14.1638 58.8897C10.6982 54.8493 8.06374 46.8309 8.06374 46.8309C3.5076 32.4727 2.95574 25.8307 3.26124 23.0254C3.29505 22.7347 3.44257 22.4692 3.67156 22.287C3.90055 22.1048 4.19237 22.0207 4.48321 22.0531Z" fill="url(#paint0_linear)"/>
<path d="M45.6067 52.238H42.2199L37.3419 38.1787H39.6577L43.9018 50.4017L48.1491 38.1787H50.465L45.6067 52.238Z" fill="white"/>
<path d="M52.0351 38.7138C52.0334 38.5694 52.0617 38.4262 52.1182 38.2933C52.1748 38.1604 52.2583 38.0407 52.3636 37.9419C52.4651 37.8363 52.5871 37.7528 52.7221 37.6963C52.8572 37.6398 53.0024 37.6116 53.1487 37.6134C53.2919 37.6142 53.4336 37.6433 53.5656 37.6989C53.6976 37.7545 53.8173 37.8355 53.918 37.9374C54.0186 38.0393 54.0982 38.16 54.1522 38.2927C54.2062 38.4253 54.2336 38.5673 54.2327 38.7105C54.2344 38.8573 54.2061 39.003 54.1497 39.1385C54.0932 39.2741 54.0097 39.3967 53.9042 39.4989C53.8056 39.6036 53.6865 39.6868 53.5542 39.7434C53.4219 39.7999 53.2794 39.8285 53.1356 39.8274C52.9924 39.8287 52.8503 39.8017 52.7175 39.7481C52.5847 39.6945 52.4637 39.6153 52.3615 39.5149C52.2593 39.4146 52.1779 39.2951 52.1219 39.1633C52.0659 39.0314 52.0364 38.8899 52.0351 38.7466V38.7138ZM54.1999 52.2377H52.0943V42.4421H54.1999V52.2377Z" fill="white"/>
<path d="M67.2803 47.3432C67.2841 47.9978 67.1614 48.647 66.9189 49.255C66.6917 49.8326 66.3573 50.3619 65.9335 50.8153C65.5048 51.2612 64.991 51.6164 64.4224 51.8599C63.817 52.117 63.1651 52.2467 62.5073 52.241C61.9386 52.2452 61.3766 52.1182 60.8649 51.8698C60.3826 51.6337 59.956 51.2978 59.6134 50.8843V52.2246H57.5472V37.5444H59.6134V43.7857C59.9694 43.3849 60.4015 43.0589 60.8846 42.8265C61.3949 42.5732 61.9574 42.4427 62.5271 42.4455C63.1848 42.4397 63.8367 42.5694 64.4421 42.8265C65.01 43.0712 65.5237 43.4263 65.9532 43.8711C66.377 44.3245 66.7114 44.8539 66.9386 45.4314C67.1814 46.0405 67.3041 46.6908 67.3 47.3465L67.2803 47.3432ZM59.2652 47.3465C59.259 48.1385 59.5674 48.9005 60.1225 49.4653C60.393 49.7315 60.7104 49.9453 61.0587 50.096C61.4222 50.2504 61.8135 50.3287 62.2084 50.3259C62.6119 50.3291 63.0118 50.2508 63.3844 50.096C63.7394 49.9468 64.0636 49.733 64.3403 49.4653C64.6222 49.1973 64.8458 48.8741 64.9973 48.5159C65.2994 47.7622 65.2994 46.921 64.9973 46.1672C64.8434 45.8104 64.6201 45.4877 64.3403 45.2179C64.0636 44.9502 63.7394 44.7363 63.3844 44.5872C63.0118 44.4323 62.6119 44.3541 62.2084 44.3573C61.8135 44.3545 61.4222 44.4327 61.0587 44.5872C60.7104 44.7379 60.393 44.9517 60.1225 45.2179C59.8425 45.4964 59.6206 45.8276 59.4695 46.1924C59.3184 46.5572 59.2411 46.9484 59.2422 47.3432" fill="white"/>
<path d="M71.7247 52.2377H69.6257V42.4421H71.4422V43.8973C71.8114 43.4373 72.2803 43.0672 72.8135 42.8151C73.3468 42.563 73.9304 42.4354 74.5202 42.4421H75.0556V44.2981H74.5202C74.1334 44.2936 73.7495 44.365 73.3902 44.5083C73.058 44.6415 72.7555 44.8391 72.5 45.0898C72.2506 45.343 72.056 45.6449 71.9284 45.9767C71.7931 46.3311 71.7252 46.7076 71.728 47.087L71.7247 52.2377Z" fill="white"/>
<path d="M82.4696 50.7107C82.1566 51.2266 81.7137 51.6513 81.1852 51.9425C80.5902 52.277 79.9164 52.446 79.234 52.4319C78.7266 52.4413 78.2215 52.3601 77.7426 52.1921C77.3369 52.0476 76.9656 51.8205 76.6521 51.5253C76.3614 51.2441 76.1305 50.9071 75.973 50.5346C75.8156 50.1621 75.7348 49.7617 75.7356 49.3573C75.7361 48.9786 75.8143 48.6041 75.9655 48.2569C76.1228 47.9002 76.3667 47.5886 76.675 47.3502C77.041 47.0699 77.4567 46.8614 77.9003 46.736C78.4715 46.5727 79.0638 46.4952 79.6577 46.506H82.4499V46.3155C82.4628 45.7689 82.2759 45.2363 81.9243 44.8176C81.7192 44.5987 81.4674 44.4289 81.1875 44.3208C80.9077 44.2128 80.6071 44.1692 80.3081 44.1935C79.891 44.1903 79.4787 44.2824 79.1026 44.4628C78.7252 44.6392 78.3894 44.8933 78.1171 45.2085L76.7177 43.9832C77.1486 43.4923 77.6679 43.0867 78.2485 42.7875C78.8799 42.456 79.5818 42.2813 80.295 42.2784C80.9164 42.2653 81.5341 42.377 82.1115 42.6069C82.6054 42.8007 83.0531 43.0962 83.4255 43.4741C83.7795 43.839 84.0507 44.2759 84.2204 44.7552C84.3989 45.248 84.4889 45.7684 84.4865 46.2925V52.2381H82.4597L82.4696 50.7107ZM77.8707 49.3704C77.8701 49.5566 77.915 49.7401 78.0015 49.905C78.0879 50.0698 78.2133 50.2111 78.3668 50.3165C78.7424 50.5782 79.1938 50.7087 79.6512 50.6877C79.9966 50.6871 80.3396 50.6293 80.6662 50.5169C80.9993 50.4047 81.3089 50.2321 81.5794 50.0077C81.8488 49.7848 82.0719 49.5114 82.2364 49.2029C82.4035 48.8815 82.4892 48.5239 82.486 48.1616H79.6741C79.1916 48.1153 78.7074 48.2309 78.2978 48.4901C78.1583 48.5904 78.045 48.7227 77.9673 48.8759C77.8895 49.0291 77.8497 49.1987 77.851 49.3704" fill="white"/>
<path d="M89.854 45.1984C89.843 46.0395 90.0063 46.8739 90.3336 47.6489C90.6429 48.3784 91.0953 49.0385 91.664 49.5902C92.2335 50.1387 92.9024 50.5735 93.6349 50.8713C94.3813 51.1855 95.1836 51.3453 95.9934 51.3411C96.7957 51.3503 97.5932 51.2168 98.3487 50.9469C99.0324 50.7041 99.6587 50.3227 100.188 49.8268C100.714 49.3283 101.125 48.722 101.394 48.0496C101.689 47.2932 101.847 46.49 101.86 45.6779H96.6044V44.6268H102.997C103.01 44.7259 103.016 44.8257 103.017 44.9257V45.2214C103.047 46.2873 102.868 47.3488 102.488 48.3453C102.148 49.1992 101.633 49.9725 100.977 50.6151C100.335 51.2284 99.5716 51.7005 98.7363 52.0013C97.8594 52.3193 96.9328 52.4784 96 52.4711C94.8005 52.4619 93.6215 52.159 92.5662 51.5888C91.5108 51.0186 90.6113 50.1985 89.9462 49.2002C89.2811 48.2019 88.8708 47.0559 88.751 45.8624C88.6313 44.6688 88.8059 43.4641 89.2594 42.3537C89.6036 41.4935 90.1175 40.7115 90.7705 40.0542C91.428 39.3992 92.2098 38.8822 93.0699 38.5333C94.8228 37.8392 96.7675 37.8018 98.5458 38.4282C99.3361 38.7137 100.066 39.1449 100.697 39.6995L99.955 40.4451C99.4264 40.0051 98.8279 39.6565 98.1844 39.4137C97.4691 39.1577 96.7137 39.032 95.954 39.0425C95.1215 39.0349 94.296 39.1946 93.5265 39.5122C92.8042 39.8134 92.1471 40.2519 91.5917 40.8032C91.0392 41.3595 90.6036 42.0207 90.3106 42.7478C90.0006 43.5227 89.8455 44.3507 89.854 45.1852" fill="white"/>
<path d="M112.129 49.9218C111.997 50.2727 111.81 50.5999 111.574 50.8908C111.328 51.1926 111.042 51.459 110.723 51.6825C110.387 51.919 110.015 52.1008 109.622 52.2212C109.197 52.3519 108.754 52.4162 108.308 52.4117C107.821 52.415 107.335 52.3373 106.873 52.1818C106.473 52.0494 106.103 51.8408 105.782 51.5675C105.498 51.3147 105.274 51.0016 105.125 50.651C104.971 50.291 104.893 49.9029 104.895 49.5112C104.898 49.1718 104.969 48.8365 105.106 48.5257C105.254 48.1997 105.48 47.9146 105.763 47.6946C106.097 47.4445 106.473 47.2565 106.873 47.1395C107.407 46.9857 107.96 46.9137 108.515 46.926H112.129V46.4989C112.129 46.1156 112.07 45.7345 111.955 45.3689C111.846 45.0083 111.666 44.6732 111.426 44.3835C111.181 44.0892 110.875 43.8516 110.529 43.6871C110.118 43.4966 109.668 43.4043 109.215 43.4177C108.743 43.4113 108.274 43.5031 107.839 43.6871C107.419 43.8619 107.036 44.1137 106.709 44.4295L105.983 43.7232C106.409 43.3107 106.905 42.9771 107.448 42.7377C108.006 42.4945 108.609 42.3703 109.218 42.3731C109.822 42.3569 110.422 42.4689 110.979 42.7016C111.463 42.9122 111.894 43.2261 112.244 43.6214C112.579 44.006 112.835 44.4524 112.999 44.9353C113.169 45.4232 113.256 45.9363 113.255 46.4529V52.2376H112.165L112.129 49.9218ZM106.039 49.521C106.033 49.7877 106.092 50.0517 106.211 50.2908C106.329 50.5298 106.503 50.7368 106.719 50.8941C107.229 51.2717 107.855 51.4619 108.489 51.4328C108.937 51.4323 109.382 51.3545 109.803 51.2029C110.23 51.0511 110.623 50.8167 110.959 50.5131C111.328 50.1725 111.621 49.7581 111.819 49.2968C112.017 48.8356 112.116 48.3378 112.109 47.8359H108.496C107.642 47.8359 107.014 47.9968 106.623 48.322C106.438 48.4618 106.289 48.6425 106.185 48.85C106.082 49.0574 106.029 49.286 106.029 49.5177" fill="white"/>
<path d="M131.51 52.2379H130.343V46.4795C130.346 46.0606 130.278 45.6442 130.143 45.2477C130.018 44.8708 129.819 44.5224 129.558 44.2228C129.305 43.9308 128.993 43.6958 128.642 43.533C128.257 43.3607 127.839 43.2744 127.417 43.28C127.01 43.2767 126.608 43.3654 126.241 43.5396C125.881 43.7105 125.558 43.9505 125.291 44.2458C125.026 44.5515 124.819 44.9033 124.68 45.2838C124.534 45.6688 124.459 46.0774 124.46 46.4894V52.2379H123.274V46.4795C123.271 46.0959 123.206 45.7154 123.081 45.3528C122.961 44.9765 122.773 44.6256 122.525 44.3181C122.272 44.0067 121.957 43.7516 121.599 43.5691C121.209 43.3729 120.777 43.2738 120.341 43.28C119.907 43.2732 119.479 43.376 119.096 43.579C118.728 43.774 118.403 44.0409 118.14 44.3641C117.865 44.7039 117.656 45.0929 117.526 45.5105C117.386 45.9524 117.315 46.4134 117.316 46.877V52.2379H116.186V42.4424H117.316V44.4528C117.413 44.1604 117.559 43.8863 117.746 43.6414C117.955 43.3719 118.197 43.1292 118.465 42.9187C118.748 42.6952 119.064 42.5178 119.402 42.3931C119.766 42.258 120.152 42.1901 120.541 42.1927C121.303 42.1733 122.048 42.4118 122.657 42.8694C123.242 43.3072 123.692 43.9016 123.954 44.5841C124.106 44.2444 124.304 43.9271 124.542 43.6414C124.781 43.3504 125.061 43.0959 125.373 42.8859C125.689 42.677 126.03 42.5102 126.388 42.3898C126.757 42.2718 127.141 42.212 127.528 42.2125C128.083 42.2058 128.633 42.3178 129.141 42.5409C129.622 42.742 130.054 43.0433 130.409 43.4246C130.767 43.8255 131.045 44.2902 131.23 44.7944C131.432 45.3389 131.532 45.9155 131.526 46.4959L131.51 52.2379Z" fill="white"/>
<path d="M134.157 38.5432C134.156 38.4263 134.178 38.3103 134.221 38.2018C134.265 38.0933 134.329 37.9944 134.411 37.9108C134.493 37.8272 134.59 37.7606 134.698 37.7146C134.805 37.6687 134.921 37.6444 135.038 37.6431H135.057C135.174 37.6418 135.29 37.6636 135.399 37.7071C135.507 37.7506 135.606 37.8151 135.69 37.8969C135.773 37.9786 135.84 38.076 135.886 38.1835C135.932 38.2911 135.956 38.4066 135.957 38.5235V38.5432C135.962 38.7218 135.914 38.898 135.819 39.0491C135.723 39.2002 135.585 39.3195 135.421 39.3917C135.258 39.4639 135.077 39.4858 134.901 39.4547C134.725 39.4235 134.562 39.3406 134.433 39.2166V39.2002C134.347 39.1146 134.279 39.012 134.234 38.8989C134.19 38.7858 134.169 38.6647 134.174 38.5432H134.157ZM135.649 52.2378H134.502V42.4423H135.649V52.2378Z" fill="white"/>
<path d="M148.351 52.2377H147.221V46.9589C147.225 46.4687 147.138 45.982 146.965 45.5234C146.804 45.0931 146.561 44.6982 146.249 44.3606C145.937 44.0237 145.559 43.7553 145.139 43.5722C144.68 43.3767 144.185 43.2783 143.687 43.2832C143.202 43.2802 142.722 43.3822 142.281 43.5821C141.847 43.7727 141.456 44.0487 141.131 44.3934C140.796 44.7538 140.53 45.1724 140.346 45.6286C140.142 46.1243 140.031 46.6531 140.017 47.1889V52.2377H138.891V42.4422H140.017V44.7778C140.138 44.4657 140.307 44.1743 140.517 43.9138C140.761 43.6057 141.046 43.3327 141.364 43.1025C141.709 42.8465 142.089 42.6397 142.491 42.4882C142.926 42.3281 143.387 42.248 143.851 42.2517C144.472 42.2454 145.088 42.3661 145.661 42.6065C146.203 42.8337 146.688 43.1768 147.083 43.6116C147.489 44.0604 147.803 44.5836 148.01 45.1522C148.238 45.7838 148.349 46.4517 148.338 47.1232L148.351 52.2377Z" fill="white"/>
<path d="M151.012 45.9407C151.012 45.4077 151.124 44.8805 151.34 44.3935C151.548 43.9204 151.841 43.4894 152.204 43.1223C152.565 42.7591 152.99 42.4671 153.459 42.2616C154.13 41.9751 154.868 41.8814 155.589 41.9911C156.31 42.1008 156.987 42.4095 157.542 42.8825C157.906 42.7245 158.29 42.614 158.682 42.554C159.11 42.4878 159.543 42.4559 159.976 42.4587H160.127V43.4442H157.946C158.269 43.7707 158.528 44.1537 158.712 44.5742C158.903 45.0088 159 45.479 158.997 45.9539C158.998 46.4848 158.886 47.0097 158.669 47.4945C158.459 47.9644 158.16 48.3893 157.789 48.746C157.421 49.1059 156.99 49.3944 156.517 49.5968C156.029 49.8135 155.501 49.9254 154.967 49.9253C154.087 49.9084 153.241 49.5841 152.576 49.0088C152.171 49.1313 151.805 49.3578 151.514 49.6658C151.267 49.9412 151.134 50.3008 151.143 50.6709C151.131 50.8549 151.16 51.0393 151.229 51.2101C151.299 51.3809 151.407 51.5336 151.544 51.6564C151.872 51.9089 152.281 52.0317 152.694 52.0013H156.475C157.572 52.0013 158.396 52.2477 158.951 52.7306C159.362 53.1137 159.639 53.6184 159.742 54.1706C159.845 54.7227 159.768 55.2933 159.523 55.7986C159.353 56.1363 159.104 56.4281 158.797 56.6494C158.459 56.892 158.081 57.0743 157.68 57.1881C157.207 57.3204 156.717 57.3846 156.225 57.3787C155.591 57.3848 154.96 57.2837 154.359 57.0797C153.825 56.9023 153.328 56.6272 152.894 56.2684C152.492 55.9308 152.169 55.5092 151.948 55.0333C151.722 54.546 151.626 54.0084 151.669 53.4729L152.224 53.0689C151.64 53.0429 151.085 52.81 150.657 52.4119C150.454 52.2122 150.296 51.9707 150.195 51.7041C150.094 51.4376 150.052 51.1523 150.072 50.868C150.086 50.3395 150.278 49.8312 150.618 49.426C150.968 49 151.43 48.6794 151.951 48.4996C151.658 48.1543 151.425 47.7623 151.262 47.3401C151.096 46.9035 151.013 46.4403 151.015 45.9736L151.012 45.9407ZM152.066 45.9736C152.064 46.3653 152.142 46.7534 152.296 47.1134C152.444 47.4553 152.654 47.7662 152.917 48.0299C153.183 48.2921 153.494 48.5026 153.837 48.6507C154.196 48.8045 154.583 48.8817 154.973 48.8774C155.358 48.8793 155.74 48.8051 156.096 48.6591C156.453 48.5131 156.777 48.2981 157.05 48.0266C157.313 47.7632 157.525 47.4523 157.674 47.1101C157.827 46.7463 157.906 46.3554 157.906 45.9604C157.906 45.5655 157.827 45.1746 157.674 44.8107C157.38 44.1103 156.824 43.5534 156.123 43.2602C155.761 43.1055 155.371 43.0272 154.977 43.0303C154.586 43.0272 154.199 43.1055 153.84 43.2602C153.143 43.5552 152.59 44.112 152.3 44.8107C152.146 45.1734 152.068 45.5634 152.07 45.9571L152.066 45.9736ZM156.222 56.2881C156.835 56.3148 157.444 56.1728 157.982 55.8775C158.195 55.7483 158.369 55.5635 158.485 55.343C158.601 55.1225 158.654 54.8746 158.639 54.6259C158.647 54.4022 158.601 54.1798 158.504 53.9779C158.408 53.776 158.264 53.6005 158.084 53.4664C157.6 53.144 157.022 52.9915 156.442 53.0328H152.579C152.549 53.4828 152.628 53.9334 152.809 54.3467C152.985 54.7371 153.243 55.0854 153.564 55.3683C153.905 55.6566 154.296 55.8794 154.717 56.0253C155.192 56.1965 155.694 56.2811 156.199 56.2749" fill="white"/>
</g>
<defs>
<linearGradient id="paint0_linear" x1="-0.342277" y1="40.6816" x2="31.8463" y2="40.6816" gradientUnits="userSpaceOnUse">
<stop stop-color="#77BCA8"/>
<stop offset="0.03" stop-color="#7FB79F"/>
<stop offset="0.21" stop-color="#AA9C74"/>
<stop offset="0.36" stop-color="#C48B59"/>
<stop offset="0.44" stop-color="#CE854F"/>
<stop offset="0.58" stop-color="#C67866"/>
<stop offset="0.86" stop-color="#B7628D"/>
<stop offset="1" stop-color="#B25A9C"/>
</linearGradient>
<clipPath id="clip0">
<rect width="160" height="80" fill="white"/>
</clipPath>
</defs>
</svg>
