<svg width="160" height="80" viewBox="0 0 160 80" fill="none" xmlns="http://www.w3.org/2000/svg">
<g clip-path="url(#clip0)">
<path d="M110.405 38.768C109.754 38.768 109.173 38.768 108.542 38.768C108.532 38.5776 108.502 38.3973 108.502 38.227C108.502 37.3955 108.512 36.554 108.492 35.7225C108.462 34.7707 107.951 34.2798 107.009 34.2798C105.406 34.2798 103.803 34.2798 102.2 34.2798C101.369 34.2798 100.808 34.7807 100.778 35.5021C100.748 36.2935 101.239 36.8445 102.11 36.8645C103.613 36.9046 105.116 36.8946 106.618 36.8745C107.099 36.8645 107.28 37.0048 107.23 37.4957C107.189 37.9064 107.22 38.3171 107.22 38.7579C107.049 38.768 106.939 38.788 106.829 38.788C105.246 38.788 103.663 38.798 102.07 38.788C100.337 38.778 99.0648 37.5858 98.8544 35.8326C98.6741 34.35 99.716 32.8873 101.279 32.4866C101.599 32.4065 101.94 32.3864 102.271 32.3864C103.843 32.3764 105.406 32.3764 106.979 32.3864C109.123 32.4065 110.415 33.7188 110.415 35.8727C110.405 36.8144 110.405 37.7661 110.405 38.768Z" fill="#468705"/>
<path d="M55.0854 29.8317C55.8067 29.8317 56.4178 29.8016 57.0289 29.8517C57.1892 29.8617 57.3795 30.0721 57.4697 30.2424C58.6919 32.3863 59.9041 34.5302 61.1163 36.6841C61.2966 37.0047 61.497 37.3653 61.8777 37.2852C62.1482 37.2251 62.4487 36.9546 62.599 36.6941C63.8312 34.5602 65.0434 32.4063 66.2456 30.2525C66.4259 29.9319 66.6263 29.8117 66.9869 29.8317C67.5079 29.8618 68.0388 29.8417 68.6399 29.8417C68.5297 30.0621 68.4596 30.2124 68.3894 30.3526C67.0069 32.8071 65.6044 35.2515 64.2319 37.7059C63.701 38.6476 62.9296 39.1886 61.8576 39.1886C60.7857 39.1886 60.0243 38.6476 59.5034 37.6959C58.1509 35.2415 56.7484 32.8171 55.3759 30.3827C55.2858 30.2224 55.2156 30.0721 55.0854 29.8317Z" fill="#468705"/>
<path d="M86.5321 32.4064C86.5321 33.0275 86.5321 33.6086 86.5321 34.2498C84.809 34.2498 83.0859 34.2498 81.2525 34.2498C81.2926 34.8809 81.2726 35.4419 81.3728 35.9829C81.4629 36.4537 81.8336 36.7643 82.3345 36.8144C82.8354 36.8645 83.3363 36.8645 83.8372 36.8745C84.9192 36.8845 86.0111 36.8845 87.0931 36.8745C87.4538 36.8645 87.614 36.9547 87.594 37.3454C87.564 37.7962 87.584 38.247 87.584 38.7579C87.3936 38.7679 87.2334 38.7779 87.0731 38.7779C85.6204 38.7779 84.1678 38.788 82.7152 38.7779C80.7316 38.7679 79.3892 37.4155 79.3792 35.4419C79.3792 33.7889 79.3792 32.1359 79.3792 30.4329C79.9903 30.4329 80.5813 30.4329 81.2726 30.4329C81.2726 30.9037 81.2926 31.3946 81.2626 31.8855C81.2425 32.2662 81.3928 32.3764 81.7635 32.3764C83.146 32.3664 84.5385 32.3664 85.921 32.3764C86.1213 32.3764 86.3117 32.3964 86.5321 32.4064Z" fill="#468705"/>
<path d="M98.063 32.3762C98.063 33.6685 98.1431 34.8707 98.0429 36.0629C97.9327 37.3652 96.8608 38.5574 95.5685 38.6676C93.9656 38.8078 92.3326 38.8178 90.7297 38.6776C89.237 38.5373 88.2252 37.225 88.1751 35.7223C88.145 34.7505 88.1751 33.7888 88.1651 32.817C88.1651 32.5064 88.2552 32.3562 88.5858 32.3662C89.0467 32.3862 89.5175 32.3662 90.0384 32.3662C90.0485 32.5866 90.0585 32.7669 90.0685 32.9372C90.0685 33.7888 90.0585 34.6403 90.0785 35.4918C90.0885 36.2632 90.5193 36.8042 91.2807 36.8343C92.5129 36.8843 93.7552 36.8843 94.9874 36.8343C95.6987 36.8042 96.1194 36.3534 96.1495 35.6321C96.1896 34.7204 96.1896 33.7988 96.1695 32.8771C96.1595 32.4964 96.2697 32.3261 96.6805 32.3562C97.1112 32.3962 97.5621 32.3762 98.063 32.3762Z" fill="#468705"/>
<path d="M74.0495 38.758C73.3783 38.758 72.8073 38.758 72.2162 38.758C72.2162 37.4456 72.086 36.1333 72.2463 34.861C72.4266 33.4484 73.7089 32.4566 75.1315 32.3965C76.2435 32.3564 77.3655 32.3865 78.4776 32.3665C78.7881 32.3665 78.8883 32.4967 78.8783 32.7872C78.8683 33.1579 78.8582 33.5185 78.8783 33.8892C78.8983 34.1998 78.7581 34.2799 78.4675 34.2799C77.4858 34.2699 76.504 34.2699 75.5122 34.2799C74.5805 34.2899 74.0596 34.8009 74.0495 35.7325C74.0395 36.7344 74.0495 37.7261 74.0495 38.758Z" fill="#468705"/>
<path d="M113.27 38.7681C112.669 38.7681 112.088 38.7681 111.457 38.7681C111.447 38.6078 111.417 38.4475 111.417 38.2872C111.417 35.8328 111.427 33.3884 111.407 30.9339C111.407 30.5232 111.507 30.3629 111.938 30.3929C112.369 30.423 112.8 30.4029 113.28 30.4029C113.27 33.188 113.27 35.953 113.27 38.7681Z" fill="#468705"/>
<path d="M69.1811 38.7582C69.1811 38.0469 69.1811 37.3857 69.1811 36.7245C69.1811 35.4422 69.2011 34.1598 69.1711 32.8775C69.161 32.4768 69.3113 32.3566 69.692 32.3766C70.1528 32.3966 70.6137 32.3866 71.0945 32.3866C71.0945 34.5505 71.0945 36.6443 71.0945 38.7582C70.4734 38.7582 69.8723 38.7582 69.1811 38.7582Z" fill="#468705"/>
<path d="M71.0944 31.4547C70.4532 31.4547 69.8622 31.4547 69.231 31.4547C69.231 31.1141 69.231 30.7935 69.231 30.4329C69.8521 30.4329 70.4632 30.4329 71.0944 30.4329C71.0944 30.7635 71.0944 31.084 71.0944 31.4547Z" fill="#468705"/>
<path d="M58.3513 48.8279C58.3513 48.1466 58.3513 47.5456 58.3513 46.8944C58.5015 46.8844 58.6418 46.8643 58.782 46.8643C61.7173 46.8643 64.6627 46.8844 67.598 46.8743C68.2492 46.8743 68.8002 46.9946 69.1007 47.6357C69.3812 48.2468 69.2209 48.7878 68.8202 49.3087C68.1189 50.2004 67.4277 51.102 66.7565 52.0237C66.5761 52.2641 66.3858 52.3442 66.0953 52.3442C63.5406 52.3342 60.986 52.3442 58.4314 52.3342C56.7083 52.3242 55.3759 51.2322 55.1955 49.5392C55.0753 48.3871 55.0954 47.1949 55.2256 46.0428C55.3959 44.5201 56.6782 43.388 58.211 43.368C61.5971 43.3279 64.9933 43.358 68.3794 43.358C68.4094 43.358 68.4395 43.378 68.5096 43.3981C68.5096 44.0092 68.5096 44.6303 68.5096 45.3015C68.2892 45.3015 68.0889 45.3015 67.8985 45.3015C64.8129 45.3015 61.7173 45.3015 58.6318 45.3015C57.5598 45.3015 57.109 45.7523 57.109 46.8142C57.109 47.5355 57.109 48.2468 57.109 48.9681C57.119 49.9098 57.5598 50.3807 58.5316 50.3907C60.415 50.4107 62.3084 50.3306 64.1918 50.4308C65.2337 50.4809 65.955 50.2104 66.4158 49.2787C66.4759 49.1485 66.5761 49.0383 66.7164 48.8179C65.2537 48.8179 63.8813 48.8179 62.4988 48.8179C61.1263 48.8279 59.7638 48.8279 58.3513 48.8279Z" fill="white"/>
<path d="M102.421 50.4107C102.932 50.4107 103.443 50.4208 103.954 50.4107C104.264 50.4007 104.404 50.5009 104.384 50.8315C104.354 51.3124 104.374 51.7932 104.374 52.2841C104.264 52.3042 104.204 52.3242 104.144 52.3242C101.629 52.3242 99.1048 52.3342 96.5903 52.3242C95.2779 52.3142 94.1358 51.4626 93.685 50.2404C93.2242 49.0082 93.5448 47.6457 94.5165 46.7641C95.0575 46.2632 95.7087 45.9427 96.45 45.9326C98.7041 45.9126 100.948 45.9126 103.202 45.9126C103.733 45.9126 104.134 46.1631 104.354 46.6539C104.585 47.1548 104.505 47.6257 104.154 48.0565C103.563 48.7978 102.972 49.5392 102.381 50.2705C102.391 50.3106 102.411 50.3606 102.421 50.4107ZM101.93 47.8361C101.78 47.806 101.7 47.776 101.619 47.776C100.016 47.776 98.4236 47.7559 96.8207 47.786C95.9792 47.796 95.4382 48.347 95.4282 49.1184C95.4282 49.8798 95.9591 50.3907 96.8307 50.4107C97.7323 50.4308 98.634 50.4208 99.5256 50.4107C99.6658 50.4107 99.8562 50.3807 99.9363 50.2905C100.608 49.4891 101.239 48.6876 101.93 47.8361Z" fill="white"/>
<path d="M80.7315 50.3905C80.7315 51.0818 80.7315 51.6728 80.7315 52.2939C80.6112 52.304 80.5211 52.324 80.4209 52.324C77.9665 52.324 75.512 52.344 73.0576 52.314C71.7252 52.2939 70.7234 51.6528 70.1623 50.4306C69.6314 49.2484 69.7817 48.1164 70.5831 47.0945C71.1241 46.4033 71.8454 45.9625 72.717 45.9425C75.0211 45.8924 77.3253 45.9124 79.6295 45.9124C80.1504 45.9124 80.5211 46.1729 80.7315 46.6437C80.9418 47.1246 80.9018 47.5854 80.5712 48.0062C80.0703 48.6273 79.5694 49.2585 79.0684 49.8796C78.9582 50.0198 78.8581 50.1601 78.6777 50.3905C79.4291 50.3905 80.0502 50.3905 80.7315 50.3905ZM78.3271 47.8158C78.1368 47.7858 78.0566 47.7658 77.9765 47.7658C76.4136 47.7658 74.8408 47.7557 73.278 47.7658C72.3864 47.7758 71.8354 48.2967 71.8253 49.0781C71.8153 49.8696 72.3363 50.3705 73.2579 50.3905C74.1596 50.4105 75.0612 50.4005 75.9528 50.3905C76.1031 50.3905 76.2934 50.3204 76.3836 50.2202C77.0247 49.4588 77.6459 48.6774 78.3271 47.8158Z" fill="white"/>
<path d="M142.373 52.3243C141.441 52.3243 140.5 52.3344 139.568 52.3243C137.815 52.2943 136.422 50.9518 136.372 49.2488C136.322 47.4455 137.594 45.9929 139.398 45.9328C141.361 45.8727 143.335 45.8727 145.298 45.9328C147.062 45.9929 148.344 47.4656 148.284 49.2287C148.224 50.9519 146.861 52.2943 145.108 52.3243C144.216 52.3444 143.295 52.3243 142.373 52.3243ZM142.313 50.4009C142.313 50.4009 142.313 50.4109 142.313 50.4009C143.144 50.4009 143.976 50.4209 144.817 50.3908C145.108 50.3808 145.429 50.3508 145.689 50.2306C146.21 50.0001 146.48 49.379 146.36 48.8581C146.22 48.257 145.709 47.8262 145.058 47.8262C143.305 47.8162 141.562 47.8162 139.808 47.8262C138.907 47.8262 138.346 48.3271 138.336 49.0985C138.326 49.8999 138.847 50.3808 139.768 50.4009C140.62 50.4209 141.461 50.4009 142.313 50.4009Z" fill="white"/>
<path d="M124.02 52.3045C123.359 52.3045 122.748 52.3045 122.077 52.3045C122.077 51.9839 122.077 51.6833 122.077 51.3928C122.107 47.6561 122.307 47.7863 118.48 47.8264C117.548 47.8364 116.607 47.8163 115.675 47.8364C115.024 47.8464 114.493 48.3172 114.413 48.8983C114.322 49.5395 114.623 50.1105 115.194 50.3008C115.455 50.391 115.755 50.401 116.036 50.411C117.418 50.4211 118.801 50.411 120.193 50.411C120.393 50.411 120.584 50.411 120.814 50.411C120.814 51.0722 120.814 51.6633 120.814 52.2544C120.784 52.2744 120.764 52.3145 120.734 52.3145C118.951 52.3245 117.158 52.3846 115.384 52.3045C113.701 52.2343 112.439 50.7717 112.449 49.0886C112.459 47.4256 113.731 46.0031 115.404 45.943C117.308 45.8728 119.211 45.8828 121.105 45.943C122.638 45.993 123.91 47.2653 124.01 48.8081C124.08 49.9502 124.02 51.1023 124.02 52.3045Z" fill="white"/>
<path d="M131.824 45.8925C131.824 46.5938 131.824 47.1848 131.824 47.826C130.081 47.826 128.378 47.826 126.625 47.826C126.625 48.387 126.585 48.9079 126.635 49.4088C126.695 49.9498 127.156 50.3405 127.747 50.3706C128.558 50.4107 129.38 50.4006 130.201 50.4006C130.953 50.4006 131.704 50.4107 132.455 50.4006C132.746 50.4006 132.886 50.4808 132.876 50.7913C132.856 51.2722 132.876 51.7531 132.876 52.284C132.696 52.2941 132.555 52.3141 132.415 52.3141C130.913 52.3141 129.41 52.3241 127.907 52.3141C126.024 52.3041 124.661 50.9316 124.651 49.0482C124.641 47.3651 124.651 45.6821 124.651 43.949C125.282 43.949 125.893 43.949 126.575 43.949C126.575 44.5601 126.575 45.1812 126.575 45.8725C128.368 45.8925 130.071 45.8925 131.824 45.8925Z" fill="white"/>
<path d="M159.985 52.3045C159.314 52.3045 158.703 52.3045 158.022 52.3045C158.022 51.503 158.022 50.7116 158.022 49.9201C158.022 49.6396 158.032 49.3491 158.022 49.0686C157.992 48.3874 157.501 47.8464 156.819 47.8364C155.307 47.8163 153.784 47.8163 152.271 47.8364C151.57 47.8464 151.069 48.3974 151.059 49.1087C151.039 50.1606 151.059 51.2025 151.059 52.2944C150.408 52.2944 149.797 52.2944 149.106 52.2944C149.106 52.0039 149.096 51.6934 149.106 51.3828C149.136 50.381 149.065 49.3691 149.216 48.3974C149.416 47.0449 150.628 45.993 152.001 45.943C153.684 45.8828 155.367 45.8728 157.05 45.943C158.623 46.0031 159.895 47.3255 159.975 48.9083C160.025 50.0203 159.985 51.1323 159.985 52.3045Z" fill="white"/>
<path d="M83.5467 52.3044C82.8855 52.3044 82.2744 52.3044 81.5231 52.3044C81.5932 50.9219 81.5431 49.5293 81.7735 48.1869C81.9839 46.9146 83.2161 45.9829 84.5285 45.9429C86.2115 45.8928 87.9046 45.8727 89.5877 45.9429C91.1805 46.013 92.4528 47.4055 92.4829 48.9884C92.5029 50.0803 92.4829 51.1823 92.4829 52.3044C91.8217 52.3044 91.2106 52.3044 90.5294 52.3044C90.5294 51.4829 90.4893 50.6614 90.5394 49.8499C90.6295 48.227 90.0986 47.7361 88.5057 47.8062C87.3937 47.8563 86.2717 47.8162 85.1496 47.8162C84.0176 47.8162 83.5567 48.2671 83.5567 49.3791C83.5467 50.3408 83.5467 51.2925 83.5467 52.3044Z" fill="white"/>
<path d="M111.988 47.8263C110.866 47.8263 109.824 47.8263 108.772 47.8263C107.59 47.8263 107.149 48.2671 107.149 49.4593C107.149 50.3909 107.149 51.3226 107.149 52.2944C106.498 52.2944 105.887 52.2944 105.306 52.2944C105.306 50.972 105.186 49.6496 105.336 48.3673C105.506 47.0048 106.759 46.013 108.131 45.9429C109.293 45.8828 110.465 45.9229 111.627 45.9028C111.878 45.9028 111.988 45.993 111.978 46.2535C111.978 46.7544 111.988 47.2453 111.988 47.8263Z" fill="white"/>
<path d="M135.33 52.3045C134.719 52.3045 134.128 52.3045 133.497 52.3045C133.487 52.1542 133.457 52.0039 133.457 51.8637C133.457 50.0404 133.467 48.2271 133.447 46.4038C133.447 46.0131 133.557 45.8628 133.958 45.8929C134.399 45.9229 134.849 45.9029 135.34 45.9029C135.33 48.0668 135.33 50.1706 135.33 52.3045Z" fill="white"/>
<path d="M133.477 43.949C134.118 43.949 134.709 43.949 135.33 43.949C135.33 44.2996 135.33 44.6202 135.33 44.9808C134.719 44.9808 134.108 44.9808 133.477 44.9808C133.477 44.6402 133.477 44.3196 133.477 43.949Z" fill="white"/>
<path d="M15.068 53.5056C15.3888 53.4224 15.6622 53.3749 15.9176 53.2858C18.5378 52.3589 20.9916 51.0934 23.3384 49.614C26.1368 47.8494 28.7511 45.8293 31.389 43.833C31.8881 43.4587 32.3931 43.0903 32.8803 42.6982C33.3081 42.3536 33.7834 42.3476 34.2528 42.5259C35.0905 42.8467 35.7382 43.429 36.2075 44.1895C36.7066 45.0094 36.6294 45.6213 35.952 46.2987C35.5183 46.7324 35.0608 47.1423 34.5974 47.5464C31.8109 50.018 28.9293 52.3648 25.7982 54.3968C23.4751 55.9059 21.0629 57.2546 18.4665 58.2468C17.2663 58.7043 16.0246 59.0192 14.7353 58.9301C13.1133 58.8172 11.622 58.3478 10.5704 56.9872C9.91088 56.1317 9.64351 55.1216 9.46527 54.0819C9.17414 52.3827 9.07314 50.6656 9.11473 48.9366C9.12661 48.396 9.16226 47.8494 9.25138 47.3146C9.45339 46.0967 10.3684 45.247 11.6042 45.0569C12.2874 44.95 12.9469 45.0034 13.5708 45.3005C14.3135 45.651 14.7472 46.2452 14.7828 47.0651C14.8601 48.8059 14.9017 50.5468 14.967 52.2876C14.967 52.6738 15.0205 53.0422 15.068 53.5056Z" fill="white"/>
<path d="M5.27025 32.1339C5.54356 32.431 5.76339 32.6746 5.98322 32.9063C7.78941 34.8076 9.86296 36.3761 12.0435 37.808C14.3784 39.3349 16.7312 40.8322 19.0959 42.3116C19.999 42.876 20.9734 43.3275 21.8824 43.892C22.4944 44.2722 23.0588 44.7297 23.6173 45.1813C24.1342 45.5972 24.253 46.1616 24.1045 46.7914C23.7718 48.2351 22.3637 48.9838 21.1041 48.3777C19.6247 47.6707 18.1512 46.9399 16.7193 46.1378C12.6019 43.8266 8.74003 41.1352 5.08607 38.1466C3.8562 37.1366 2.64415 36.0969 1.59846 34.8789C0.962735 34.1362 0.47554 33.3103 0.124998 32.3894C-0.112658 31.7656 0.00616969 31.2071 0.332947 30.6664C0.677548 30.102 1.1588 29.6504 1.78859 29.4544C2.98281 29.086 4.18892 28.7236 5.41284 28.4681C6.70807 28.2007 8.02706 28.0463 9.33417 27.8799C9.95802 27.8027 10.5819 27.868 11.176 28.0819C11.7226 28.278 12.1385 28.6285 12.3999 29.1514C12.7861 29.9237 12.4415 30.8149 11.6097 31.0288C10.7839 31.2427 9.92831 31.3675 9.07869 31.5041C7.96765 31.6824 6.85066 31.825 5.73962 31.9854C5.61485 32.0032 5.4782 32.0686 5.27025 32.1339Z" fill="#468705"/>
<path d="M40.36 52.1505C40.3184 51.9664 40.2946 51.8297 40.2531 51.6871C39.4272 48.8768 38.2864 46.1913 36.8486 43.6484C35.1791 40.6836 33.4145 37.7724 31.6915 34.8432C31.5727 34.6412 31.4479 34.4333 31.3291 34.2313C31.0974 33.8213 31.1389 33.4589 31.4657 33.1202C31.9826 32.5796 32.6184 32.5142 33.3016 32.6925C33.9076 32.8469 34.4008 33.1915 34.8167 33.6431C35.0721 33.9164 35.3217 34.2075 35.5237 34.5224C37.2705 37.303 39.0469 40.0717 40.7343 42.8879C42.2018 45.3358 43.4317 47.9024 44.317 50.6236C44.5487 51.3366 44.7091 52.0792 44.8042 52.816C44.9289 53.7844 44.6972 54.7053 44.1744 55.5371C43.7466 56.2085 43.0515 56.4581 42.3325 56.6304C41.4057 56.8502 40.4907 56.8145 39.5936 56.4699C37.4784 55.6619 35.3752 54.8242 33.3907 53.725C33.0342 53.5289 32.6956 53.3091 32.3629 53.0715C31.8519 52.7031 31.7034 52.2218 31.8876 51.6099C32.1252 50.8018 32.957 50.2196 33.9136 50.1958C34.7454 50.1721 35.5059 50.4513 36.2604 50.7603C37.0803 51.0989 37.8884 51.4851 38.7142 51.8059C39.1301 51.9664 39.5876 52.0436 40.0273 52.1505C40.1164 52.1684 40.2174 52.1505 40.36 52.1505Z" fill="#468705"/>
<path d="M21.3478 21C22.4232 21.0178 23.2847 21.3327 24.0986 21.8021C25.2335 22.4616 26.2138 23.329 27.2001 24.1846C27.6575 24.5827 28.1091 24.9748 28.5547 25.3907C28.8934 25.7056 29.1548 26.074 29.1607 26.5671C29.1667 27.1494 28.7805 27.5474 28.1923 27.5771C27.6694 27.6068 27.2001 27.4524 26.7366 27.2385C25.6078 26.7097 24.6928 25.8957 23.7838 25.0639C23.4213 24.7312 23.053 24.3925 22.6727 24.0776C22.3816 23.834 22.2033 23.834 21.9597 24.1311C21.6567 24.5054 21.3656 24.8976 21.1339 25.3194C20.1595 27.1018 19.4346 28.9912 18.6979 30.8746C17.9612 32.758 17.2423 34.6474 16.4996 36.5308C16.0659 37.6359 15.6203 37.9211 14.426 37.9092C13.82 37.9033 13.2496 37.7548 12.7327 37.4339C11.9782 36.9705 11.6811 36.2932 11.794 35.4198C11.9604 34.1127 12.4119 32.8947 12.9466 31.7005C14.0042 29.3477 15.0796 27.0068 16.4045 24.7906C17.0462 23.7271 17.7711 22.723 18.7752 21.9684C19.5713 21.3862 20.4625 21.0356 21.3478 21Z" fill="white"/>
<path d="M22.1854 27.8032C23.0588 27.8983 23.9321 27.9993 24.8055 28.0944C25.7205 28.1894 26.6355 28.2785 27.5505 28.3795C29.0358 28.534 30.5212 28.6826 32.0006 28.8489C34.3118 29.1044 36.5814 29.5619 38.8391 30.1085C40.1522 30.4234 41.4296 30.8393 42.505 31.7008C43.2892 32.3306 43.9606 33.0554 44.0913 34.1189C44.1983 34.9626 44.1686 35.8122 43.7943 36.5906C43.4081 37.3986 42.9684 38.1888 42.499 38.9493C42.1188 39.5672 41.4831 39.7573 40.7879 39.5553C39.9442 39.3177 39.3263 38.777 38.8926 38.0343C38.6252 37.5709 38.6609 37.0659 38.8926 36.6084C39.1362 36.1331 39.4452 35.6993 39.7363 35.2537C39.9621 34.9032 40.2235 34.5824 40.4255 34.2199C40.6572 33.81 40.5384 33.4891 40.0868 33.3644C39.2966 33.1505 38.5005 32.9485 37.6924 32.8297C35.7971 32.5445 33.8959 32.2949 31.9946 32.0632C30.5806 31.8909 29.1665 31.7661 27.7465 31.6235C26.1602 31.4691 24.5798 31.3205 22.9934 31.1661C22.6191 31.1304 22.2388 31.1126 21.8764 31.0294C21.1813 30.869 20.6287 30.4887 20.296 29.8352C20.0286 29.3064 20.0999 28.8133 20.5158 28.3974C20.8545 28.0587 21.2526 27.8329 21.7516 27.8508C21.8883 27.8567 22.0309 27.8508 22.1675 27.8508C22.1854 27.827 22.1854 27.8151 22.1854 27.8032Z" fill="white"/>
</g>
<defs>
<clipPath id="clip0">
<rect width="160" height="80" fill="white"/>
</clipPath>
</defs>
</svg>
