<svg width="160" height="80" viewBox="0 0 160 80" fill="none" xmlns="http://www.w3.org/2000/svg">
<path d="M104.205 13.9764C92.8437 13.9764 82.6987 19.8698 82.6987 30.747C82.6987 43.2186 100.698 44.0807 100.698 50.352C100.698 52.9857 97.6741 55.3477 92.513 55.3477C85.1789 55.3477 79.6989 52.0527 79.6989 52.0527L77.3487 63.0362C77.3487 63.0362 83.6553 65.8234 92.0406 65.8234C104.465 65.8234 114.232 59.6466 114.232 48.5804C114.232 35.4002 96.1506 34.5617 96.1506 28.7392C96.1506 26.6724 98.6307 24.4049 103.78 24.4049C109.591 24.4049 114.338 26.8024 114.338 26.8024L116.63 16.1968C116.63 16.1968 111.468 13.9764 104.193 13.9764H104.205ZM0.275053 14.7795L0.00341797 16.3857C0.00341797 16.3857 4.78656 17.2597 9.08549 19.0076C14.6245 21.0035 15.026 22.1727 15.9591 25.7867L26.1277 64.9967H39.7567L60.7671 14.7795H47.1617L33.6626 48.9229L28.159 19.9879C27.6512 16.681 25.1002 14.7913 21.9587 14.7913H0.275053V14.7795ZM66.2352 14.7795L55.5588 64.9967H68.5264L79.1556 14.7795H66.2234H66.2352ZM138.585 14.7795C135.455 14.7795 133.802 16.4566 132.585 19.3855L113.582 64.9967H127.188L129.822 57.3909H146.391L147.998 64.9967H159.997L149.521 14.7795H138.585ZM140.356 28.3495L144.384 47.1868H133.577L140.344 28.3495H140.356Z" fill="#1334CA"/>
</svg>
