<svg width="160" height="80" viewBox="0 0 160 80" fill="none" xmlns="http://www.w3.org/2000/svg">
<path d="M84.3494 24.8262L81.5697 30.2996L68.7317 55.4599L55.8936 30.2996L53.114 24.8262H59.2464L62.0261 30.2996L68.703 43.4242L75.3799 30.2996L78.1882 24.8262H84.3494Z" fill="white"/>
<path d="M91.141 24.8262H85.6676V55.4599H91.141V24.8262Z" fill="white"/>
<path d="M123.723 24.8262L120.944 30.2996L108.105 55.4599L95.2961 30.2996L92.5164 24.8262H98.6489L101.457 30.2996L108.134 43.4242L114.811 30.2996L117.619 24.8262H123.723Z" fill="white"/>
<path d="M40.5911 38.1513C40.5911 39.4122 41.4222 40.014 42.4251 39.4695C43.4281 38.9251 44.2591 37.4636 44.2305 36.2027C44.2305 34.9418 43.3995 34.34 42.3678 34.8845C41.3935 35.429 40.5625 36.8905 40.5911 38.1513ZM40.5338 48.5536C40.5338 49.8145 41.3649 50.4163 42.3678 49.8718C43.3708 49.3273 44.2018 47.8658 44.1732 46.605C44.1732 45.3441 43.3421 44.7423 42.3105 45.2868C41.3362 45.8026 40.5052 47.2927 40.5338 48.5536ZM36.6652 45.3441C36.6652 46.605 37.4962 47.2067 38.4992 46.6623C39.5022 46.1178 40.3332 44.6563 40.3046 43.3954C40.3046 42.1346 39.4735 41.5328 38.4419 42.0773C37.4103 42.6217 36.6365 44.0832 36.6652 45.3441ZM32.596 42.2778C32.596 43.5387 33.427 44.1405 34.43 43.596C35.433 43.0516 36.264 41.5901 36.2354 40.3292C36.2354 39.0683 35.4043 38.4666 34.4014 39.011C33.3984 39.5555 32.596 41.017 32.596 42.2778ZM32.5387 52.6801C32.5387 53.941 33.3697 54.5428 34.3727 53.9983C35.3757 53.4538 36.2067 51.9923 36.1781 50.7315C36.1781 49.4706 35.347 48.8688 34.344 49.4133C33.3411 49.9577 32.5387 51.4192 32.5387 52.6801ZM32.5387 52.6801C32.5387 53.941 33.3697 54.5428 34.3727 53.9983C35.3757 53.4538 36.2067 51.9923 36.1781 50.7315C36.1781 49.4706 35.347 48.8688 34.344 49.4133C33.3411 49.9577 32.5387 51.4192 32.5387 52.6801ZM32.596 42.2778C32.596 43.5387 33.427 44.1405 34.43 43.596C35.433 43.0516 36.264 41.5901 36.2354 40.3292C36.2354 39.0683 35.4043 38.4666 34.4014 39.011C33.3984 39.5555 32.596 41.017 32.596 42.2778ZM36.6652 45.3441C36.6652 46.605 37.4962 47.2067 38.4992 46.6623C39.5022 46.1178 40.3332 44.6563 40.3046 43.3954C40.3046 42.1346 39.4735 41.5328 38.4419 42.0773C37.4103 42.6217 36.6365 44.0832 36.6652 45.3441ZM40.5338 48.5536C40.5338 49.8145 41.3649 50.4163 42.3678 49.8718C43.3708 49.3273 44.2018 47.8658 44.1732 46.605C44.1732 45.3441 43.3421 44.7423 42.3105 45.2868C41.3362 45.8026 40.5052 47.2927 40.5338 48.5536ZM40.5911 38.1513C40.5911 39.4122 41.4222 40.014 42.4251 39.4695C43.4281 38.9251 44.2591 37.4636 44.2305 36.2027C44.2305 34.9418 43.3995 34.34 42.3678 34.8845C41.3935 35.429 40.5625 36.8905 40.5911 38.1513ZM40.5911 38.1513C40.5911 39.4122 41.4222 40.014 42.4251 39.4695C43.4281 38.9251 44.2591 37.4636 44.2305 36.2027C44.2305 34.9418 43.3995 34.34 42.3678 34.8845C41.3935 35.429 40.5625 36.8905 40.5911 38.1513ZM40.5338 48.5536C40.5338 49.8145 41.3649 50.4163 42.3678 49.8718C43.3708 49.3273 44.2018 47.8658 44.1732 46.605C44.1732 45.3441 43.3421 44.7423 42.3105 45.2868C41.3362 45.8026 40.5052 47.2927 40.5338 48.5536ZM36.6652 45.3441C36.6652 46.605 37.4962 47.2067 38.4992 46.6623C39.5022 46.1178 40.3332 44.6563 40.3046 43.3954C40.3046 42.1346 39.4735 41.5328 38.4419 42.0773C37.4103 42.6217 36.6365 44.0832 36.6652 45.3441ZM32.596 42.2778C32.596 43.5387 33.427 44.1405 34.43 43.596C35.433 43.0516 36.264 41.5901 36.2354 40.3292C36.2354 39.0683 35.4043 38.4666 34.4014 39.011C33.3984 39.5555 32.596 41.017 32.596 42.2778ZM32.5387 52.6801C32.5387 53.941 33.3697 54.5428 34.3727 53.9983C35.3757 53.4538 36.2067 51.9923 36.1781 50.7315C36.1781 49.4706 35.347 48.8688 34.344 49.4133C33.3411 49.9577 32.5387 51.4192 32.5387 52.6801ZM21.8785 40.845C21.9072 42.1059 22.7382 43.6534 23.7699 44.3125C24.8015 44.9715 25.6325 44.4844 25.6039 43.2235C25.5752 41.9626 24.7442 40.4152 23.7125 39.7561C22.6809 39.097 21.8785 39.5842 21.8785 40.845ZM17.8093 43.2522C17.838 44.513 18.669 46.0605 19.7007 46.7196C20.7323 47.3787 21.5633 46.8915 21.5347 45.6306C21.506 44.3698 20.675 42.8223 19.6433 42.1632C18.6117 41.5328 17.7807 41.9913 17.8093 43.2522ZM13.7115 45.688C13.7401 46.9488 14.5712 48.4963 15.6028 49.1554C16.6344 49.8145 17.4655 49.3273 17.4368 48.0664C17.4082 46.8056 16.5771 45.2581 15.5455 44.599C14.5139 43.9399 13.7115 44.4271 13.7115 45.688ZM13.7115 45.688C13.7401 46.9488 14.5712 48.4963 15.6028 49.1554C16.6344 49.8145 17.4655 49.3273 17.4368 48.0664C17.4082 46.8056 16.5771 45.2581 15.5455 44.599C14.5139 43.9399 13.7115 44.4271 13.7115 45.688ZM17.8093 43.2522C17.838 44.513 18.669 46.0605 19.7007 46.7196C20.7323 47.3787 21.5633 46.8915 21.5347 45.6306C21.506 44.3698 20.675 42.8223 19.6433 42.1632C18.6117 41.5328 17.7807 41.9913 17.8093 43.2522ZM21.8785 40.845C21.9072 42.1059 22.7382 43.6534 23.7699 44.3125C24.8015 44.9715 25.6325 44.4844 25.6039 43.2235C25.5752 41.9626 24.7442 40.4152 23.7125 39.7561C22.6809 39.097 21.8785 39.5842 21.8785 40.845ZM32.5387 52.6801C32.5387 53.941 33.3697 54.5428 34.3727 53.9983C35.3757 53.4538 36.2067 51.9923 36.1781 50.7315C36.1781 49.4706 35.347 48.8688 34.344 49.4133C33.3411 49.9577 32.5387 51.4192 32.5387 52.6801ZM36.264 40.3292C36.264 39.0683 35.433 38.4666 34.43 39.011C33.427 39.5555 32.596 41.017 32.6247 42.2778C32.6247 43.5387 33.4557 44.1405 34.4587 43.596C35.4616 43.0516 36.264 41.6188 36.264 40.3292ZM36.6652 45.3441C36.6652 46.605 37.4962 47.2067 38.4992 46.6623C39.5022 46.1178 40.3332 44.6563 40.3046 43.3954C40.3046 42.1346 39.4735 41.5328 38.4419 42.0773C37.4389 42.5931 36.6365 44.0832 36.6652 45.3441ZM40.5338 48.5536C40.5338 49.8145 41.3649 50.4163 42.3678 49.8718C43.3708 49.3273 44.2018 47.8658 44.1732 46.605C44.1732 45.3441 43.3421 44.7423 42.3105 45.2868C41.3362 45.8312 40.5052 47.2927 40.5338 48.5536ZM44.2305 36.2027C44.2305 34.9418 43.3995 34.34 42.3678 34.8845C41.3649 35.429 40.5338 36.8905 40.5625 38.1513C40.5625 39.4122 41.3935 40.014 42.3965 39.4695C43.4281 38.9537 44.2591 37.4636 44.2305 36.2027ZM13.7115 45.688C13.7401 46.9488 14.5712 48.4963 15.6028 49.1554C16.6344 49.8145 17.4655 49.3273 17.4368 48.0664C17.4082 46.8056 16.5771 45.2581 15.5455 44.599C14.5139 43.9399 13.7115 44.4271 13.7115 45.688ZM17.8093 43.2522C17.838 44.513 18.669 46.0605 19.7007 46.7196C20.7323 47.3787 21.5633 46.8915 21.5347 45.6306C21.506 44.3698 20.675 42.8223 19.6433 42.1632C18.6117 41.5041 17.7807 41.9913 17.8093 43.2522ZM21.8785 40.845C21.9072 42.1059 22.7382 43.6534 23.7699 44.3125C24.8015 44.9715 25.6325 44.4844 25.6039 43.2235C25.5752 41.9626 24.7442 40.4152 23.7125 39.7561C22.6809 39.097 21.8785 39.5842 21.8785 40.845ZM32.5387 52.6801C32.5387 53.941 33.3697 54.5428 34.3727 53.9983C35.3757 53.4538 36.2067 51.9923 36.1781 50.7315C36.1781 49.4706 35.347 48.8688 34.344 49.4133C33.3411 49.9577 32.5387 51.4192 32.5387 52.6801ZM36.264 40.3292C36.264 39.0683 35.433 38.4666 34.43 39.011C33.427 39.5555 32.596 41.017 32.6247 42.2778C32.6247 43.5387 33.4557 44.1405 34.4587 43.596C35.4616 43.0516 36.264 41.6188 36.264 40.3292ZM36.6652 45.3441C36.6652 46.605 37.4962 47.2067 38.4992 46.6623C39.5022 46.1178 40.3332 44.6563 40.3046 43.3954C40.3046 42.1346 39.4735 41.5328 38.4419 42.0773C37.4389 42.5931 36.6365 44.0832 36.6652 45.3441ZM40.5338 48.5536C40.5338 49.8145 41.3649 50.4163 42.3678 49.8718C43.3708 49.3273 44.2018 47.8658 44.1732 46.605C44.1732 45.3441 43.3421 44.7423 42.3105 45.2868C41.3362 45.8312 40.5052 47.2927 40.5338 48.5536ZM44.2305 36.2027C44.2305 34.9418 43.3995 34.34 42.3678 34.8845C41.3649 35.429 40.5338 36.8905 40.5625 38.1513C40.5625 39.4122 41.3935 40.014 42.3965 39.4695C43.4281 38.9537 44.2591 37.4636 44.2305 36.2027ZM40.5911 38.1513C40.5911 39.4122 41.4222 40.014 42.4251 39.4695C43.4281 38.9251 44.2591 37.4636 44.2305 36.2027C44.2305 34.9418 43.3995 34.34 42.3678 34.8845C41.3935 35.429 40.5625 36.8905 40.5911 38.1513ZM40.5338 48.5536C40.5338 49.8145 41.3649 50.4163 42.3678 49.8718C43.3708 49.3273 44.2018 47.8658 44.1732 46.605C44.1732 45.3441 43.3421 44.7423 42.3105 45.2868C41.3362 45.8312 40.5052 47.2927 40.5338 48.5536ZM36.6652 45.3441C36.6652 46.605 37.4962 47.2067 38.4992 46.6623C39.5022 46.1178 40.3332 44.6563 40.3046 43.3954C40.3046 42.1346 39.4735 41.5328 38.4419 42.0773C37.4389 42.5931 36.6365 44.0832 36.6652 45.3441ZM32.596 42.3065C32.596 43.5674 33.427 44.1692 34.43 43.6247C35.433 43.0802 36.264 41.6188 36.2354 40.3579C36.2354 39.097 35.4043 38.4952 34.4014 39.0397C33.3984 39.5555 32.596 41.017 32.596 42.3065ZM32.5387 52.6801C32.5387 53.941 33.3697 54.5428 34.3727 53.9983C35.3757 53.4538 36.2067 51.9923 36.1781 50.7315C36.1781 49.4706 35.347 48.8688 34.344 49.4133C33.3411 49.9577 32.5387 51.4192 32.5387 52.6801ZM21.8785 40.845C21.9072 42.1059 22.7382 43.6534 23.7699 44.3125C24.8015 44.9715 25.6325 44.4844 25.6039 43.2235C25.5752 41.9626 24.7442 40.4152 23.7125 39.7561C22.6809 39.097 21.8785 39.5842 21.8785 40.845ZM17.8093 43.2522C17.838 44.513 18.669 46.0605 19.7007 46.7196C20.7323 47.3787 21.5633 46.8915 21.5347 45.6306C21.506 44.3698 20.675 42.8223 19.6433 42.1632C18.6117 41.5328 17.7807 41.9913 17.8093 43.2522ZM13.7115 45.688C13.7401 46.9488 14.5712 48.4963 15.6028 49.1554C16.6344 49.8145 17.4655 49.3273 17.4368 48.0664C17.4082 46.8056 16.5771 45.2581 15.5455 44.599C14.5139 43.9399 13.7115 44.4271 13.7115 45.688ZM13.7115 45.688C13.7401 46.9488 14.5712 48.4963 15.6028 49.1554C16.6344 49.8145 17.4655 49.3273 17.4368 48.0664C17.4082 46.8056 16.5771 45.2581 15.5455 44.599C14.5139 43.9399 13.7115 44.4271 13.7115 45.688ZM17.8093 43.2522C17.838 44.513 18.669 46.0605 19.7007 46.7196C20.7323 47.3787 21.5633 46.8915 21.5347 45.6306C21.506 44.3698 20.675 42.8223 19.6433 42.1632C18.6117 41.5328 17.7807 41.9913 17.8093 43.2522ZM21.8785 40.845C21.9072 42.1059 22.7382 43.6534 23.7699 44.3125C24.8015 44.9715 25.6325 44.4844 25.6039 43.2235C25.5752 41.9626 24.7442 40.4152 23.7125 39.7561C22.6809 39.097 21.8785 39.5842 21.8785 40.845ZM32.5387 52.6801C32.5387 53.941 33.3697 54.5428 34.3727 53.9983C35.3757 53.4538 36.2067 51.9923 36.1781 50.7315C36.1781 49.4706 35.347 48.8688 34.344 49.4133C33.3411 49.9577 32.5387 51.4192 32.5387 52.6801ZM32.596 42.3065C32.596 43.5674 33.427 44.1692 34.43 43.6247C35.433 43.0802 36.264 41.6188 36.2354 40.3579C36.2354 39.097 35.4043 38.4952 34.4014 39.0397C33.3984 39.5555 32.596 41.017 32.596 42.3065ZM36.6652 45.3441C36.6652 46.605 37.4962 47.2067 38.4992 46.6623C39.5022 46.1178 40.3332 44.6563 40.3046 43.3954C40.3046 42.1346 39.4735 41.5328 38.4419 42.0773C37.4389 42.5931 36.6365 44.0832 36.6652 45.3441ZM40.5338 48.5536C40.5338 49.8145 41.3649 50.4163 42.3678 49.8718C43.3708 49.3273 44.2018 47.8658 44.1732 46.605C44.1732 45.3441 43.3421 44.7423 42.3105 45.2868C41.3362 45.8312 40.5052 47.2927 40.5338 48.5536ZM40.5911 38.1513C40.5911 39.4122 41.4222 40.014 42.4251 39.4695C43.4281 38.9251 44.2591 37.4636 44.2305 36.2027C44.2305 34.9418 43.3995 34.34 42.3678 34.8845C41.3935 35.429 40.5625 36.8905 40.5911 38.1513Z" fill="white"/>
<path d="M26.8361 29.9843C28.183 30.6148 30.2462 30.6148 31.5644 29.9843C33.1119 29.2679 33.1119 28.1217 31.5644 27.4053C30.2176 26.7748 28.1543 26.7748 26.8361 27.4053C25.2887 28.1217 25.2887 29.2679 26.8361 29.9843Z" fill="white"/>
<path d="M5 40.1286C5.02866 53.3392 15.8894 64.2 29.1 64.2C42.3392 64.2 53.2 53.3106 53.2 40.1C53.2 26.8894 42.3392 16 29.1286 16C19.4428 16 10.674 21.8172 6.91997 30.7294C5.65909 33.7096 5 36.9191 5 40.1286ZM46.695 49.4133L29.9883 59.0418V39.7274L46.695 30.1562V49.4133ZM29.186 38.4093L12.4506 28.7234L29.186 21.7026L46.0072 28.7807L29.186 38.4093ZM28.4695 59.0991L11.6769 49.4133V30.0703L28.4695 39.7561V59.0991Z" fill="white"/>
<path d="M154.615 40.1287C154.615 48.525 147.709 55.4312 139.312 55.4312C130.916 55.4312 124.01 48.525 124.01 40.1287C124.01 31.7324 130.916 24.8262 139.312 24.8262C147.68 24.8262 154.615 31.7324 154.615 40.1287ZM149.141 40.1287C149.141 34.7127 144.7 30.2709 139.284 30.2709C133.868 30.2709 129.426 34.7127 129.426 40.1287C129.426 45.5448 133.868 49.9865 139.284 49.9865C144.7 49.9865 149.141 45.5448 149.141 40.1287Z" fill="white"/>
</svg>
