<svg width="160" height="80" viewBox="0 0 160 80" fill="none" xmlns="http://www.w3.org/2000/svg">
<path d="M116.063 13.4926C121.59 13.4926 127.104 13.5061 132.631 13.4792C133.664 13.4792 134.335 13.9501 134.764 14.8113C135.1 15.4841 134.778 16.3991 134.08 17.0988C129.291 21.9026 124.515 26.7198 119.739 31.537C115.432 35.8698 111.126 40.2026 106.819 44.5489C104.847 46.5404 102.902 48.5453 100.93 50.5233C100.098 51.371 99.2396 51.6133 98.3273 51.1827C97.4016 50.7521 97.1467 49.9313 97.1467 48.9624C97.1601 37.9286 97.1467 26.8947 97.1467 15.8609C97.1467 14.2865 97.9248 13.4926 99.4811 13.4926C105.022 13.4926 110.536 13.4926 116.063 13.4926Z" fill="white"/>
<path d="M74.4207 13.4926C79.9613 13.4926 85.502 13.5061 91.0426 13.4792C91.9683 13.4792 92.6927 13.7886 93.0281 14.6498C93.3501 15.4572 93.2562 16.3318 92.4915 17.0988C87.9034 21.6873 83.342 26.3026 78.7673 30.9046C74.2597 35.4392 69.7654 39.9873 65.2578 44.5219C63.2589 46.5403 61.2599 48.5587 59.2744 50.5906C58.5768 51.3172 57.7585 51.5594 56.8462 51.1961C55.9071 50.8328 55.5583 50.0254 55.5449 49.0431C55.5449 46.9306 55.5449 44.8314 55.5449 42.7189C55.5449 33.8245 55.5315 24.9167 55.5717 16.0223C55.5717 15.4303 55.7729 14.7844 56.0547 14.2596C56.3766 13.6541 57.0072 13.4657 57.7182 13.4657C63.2857 13.5061 68.8532 13.4926 74.4207 13.4926Z" fill="white"/>
<path d="M51.5339 32.3982C51.5339 38.0093 51.5205 43.6069 51.5473 49.2181C51.5473 50.1734 51.1717 50.8193 50.3533 51.2095C49.5886 51.5863 48.7032 51.3575 48.0324 50.6847C43.8065 46.4327 39.5806 42.1672 35.3412 37.9151C32.591 35.1432 29.814 32.3982 27.0638 29.6262C22.9318 25.4818 18.8132 21.3105 14.6812 17.1526C13.2591 15.7263 13.9701 14.1519 15.2446 13.6137C15.6203 13.4522 16.0764 13.4522 16.4923 13.4522C27.3321 13.4388 38.1719 13.4388 49.0118 13.4388C49.4142 13.4388 49.8301 13.4522 50.2058 13.5599C51.0644 13.8021 51.5339 14.5153 51.5339 15.511C51.5339 21.1356 51.5339 26.7736 51.5339 32.3982Z" fill="white"/>
<path d="M58.5633 58.839C58.5633 61.8532 58.5633 64.7596 58.5633 67.6661C58.6036 67.6796 58.6572 67.693 58.6975 67.693C59.3012 66.4685 59.9049 65.2575 60.522 64.033C60.8574 63.3468 61.2196 62.6874 61.5282 61.9877C61.6892 61.6109 61.9306 61.584 62.3063 61.5302C63.3527 61.3822 63.8759 61.7993 64.2784 62.7682C64.9626 64.4098 65.8078 65.9841 66.6798 67.7468C66.7603 67.4508 66.8273 67.3028 66.8273 67.1548C66.8139 64.6251 66.8139 62.0954 66.7737 59.5657C66.7603 58.9601 66.9615 58.7718 67.5518 58.8256C68.0213 58.8659 68.4909 58.8794 68.9604 58.8256C69.6178 58.7448 69.7385 59.0409 69.7385 59.6329C69.7251 63.8446 69.7385 68.0563 69.7251 72.268C69.7251 74.0308 70.0471 73.8693 68.1152 73.9366C67.203 73.9635 66.7066 73.6674 66.3175 72.8735C65.2711 70.7341 64.1442 68.6215 63.0576 66.4954C62.9636 66.3071 62.8429 66.1187 62.6953 65.8361C62.2795 66.5896 61.9038 67.2624 61.5416 67.9487C60.6159 69.7652 59.6902 71.5818 58.7914 73.3983C58.6036 73.7885 58.3621 73.9635 57.906 73.9366C57.3157 73.8962 56.7254 73.9366 56.1217 73.9366C55.746 73.9366 55.5582 73.802 55.5582 73.3849C55.5716 68.7291 55.5582 64.0599 55.5851 59.4042C55.5851 59.2293 55.84 58.8929 55.9875 58.8929C56.7925 58.8121 57.6108 58.839 58.5633 58.839Z" fill="white"/>
<path d="M126.447 65.0422C126.447 67.6796 126.447 70.3169 126.447 72.9543C126.447 73.9366 126.447 73.9366 125.507 73.9231C125.065 73.9231 124.622 73.8962 124.193 73.9366C123.696 73.977 123.522 73.7886 123.522 73.2907C123.549 71.972 123.535 70.6399 123.535 69.3212C123.535 66.0918 123.549 62.8624 123.522 59.633C123.509 58.9602 123.737 58.866 124.354 58.8122C125.601 58.691 126.353 59.0544 126.983 60.225C128.298 62.6336 129.841 64.9077 131.29 67.2355C131.437 67.4777 131.612 67.693 131.893 67.868C131.893 67.5989 131.893 67.3163 131.893 67.0472C131.893 64.5847 131.907 62.1088 131.88 59.6464C131.866 59.0005 132.068 58.7583 132.725 58.8122C133.396 58.866 134.067 58.8256 134.791 58.8256C134.791 63.8581 134.791 68.8637 134.791 73.9097C134.053 73.9097 133.315 73.9366 132.591 73.8962C132.376 73.8828 132.121 73.6675 132.001 73.4791C130.297 70.8148 128.606 68.1236 126.916 65.4459C126.809 65.2844 126.688 65.123 126.567 64.975C126.527 65.0019 126.487 65.0288 126.447 65.0422Z" fill="white"/>
<path d="M97.1602 66.4147C97.1602 64.1137 97.1602 61.7993 97.1602 59.4984C97.1602 59.1889 97.0797 58.839 97.5895 58.839C99.5079 58.8525 101.44 58.7314 103.345 58.9063C106.135 59.1754 107.53 60.3999 108.027 63.1449C108.443 65.392 108.483 67.7065 107.933 69.9536C107.289 72.5775 105.518 73.8827 102.781 73.9096C101.091 73.9231 99.4006 73.8962 97.7102 73.9366C97.2272 73.95 97.1602 73.7347 97.1602 73.331C97.1736 71.0301 97.1602 68.7291 97.1602 66.4147ZM100.232 61.3822C100.232 64.6789 100.232 67.8141 100.246 70.9359C100.246 71.0704 100.541 71.3261 100.688 71.3261C101.467 71.3396 102.245 71.3261 103.023 71.2454C103.948 71.1377 104.619 70.6129 104.847 69.6979C105.384 67.5854 105.277 65.4459 104.941 63.3333C104.82 62.5394 104.364 61.7859 103.519 61.6378C102.473 61.4495 101.386 61.4629 100.232 61.3822Z" fill="white"/>
<path d="M110.281 73.9232C110.187 73.9232 110.106 73.9232 110.012 73.9232C108.765 73.9232 108.724 73.9097 109.127 72.766C110.656 68.339 112.226 63.9254 113.742 59.4984C113.916 58.9737 114.171 58.7853 114.708 58.8391C115.191 58.8795 115.701 58.8795 116.183 58.8391C116.747 58.7853 117.002 59.0006 117.19 59.5388C118.732 64.06 120.302 68.5812 121.872 73.0889C122.113 73.8021 122.046 73.9097 121.295 73.9232C120.678 73.9366 120.061 73.9097 119.443 73.9501C119.028 73.977 118.826 73.7886 118.706 73.4388C118.491 72.8063 118.276 72.1739 118.089 71.528C117.995 71.1916 117.847 71.0705 117.471 71.084C116.143 71.1109 114.829 71.0571 113.5 71.0974C113.272 71.1109 112.95 71.3531 112.843 71.5819C112.602 72.1066 112.427 72.6718 112.293 73.2369C112.159 73.7617 111.837 73.9635 111.34 73.9501C110.978 73.9232 110.629 73.9232 110.281 73.9232ZM115.553 63.5487C115.486 63.5487 115.419 63.5352 115.352 63.5352C114.842 65.1365 114.332 66.7512 113.809 68.4197C114.963 68.4197 115.969 68.4197 117.096 68.4197C116.559 66.7377 116.049 65.1499 115.553 63.5487Z" fill="white"/>
<path d="M71.1606 73.9098C71.2948 73.4388 71.4021 73.0352 71.5363 72.6449C73.0657 68.2314 74.5951 63.8313 76.111 59.4178C76.2586 59.0006 76.4598 58.7719 76.9294 58.8257C77.1977 58.8526 77.466 58.8257 77.7343 58.8257C79.2905 58.8257 79.2905 58.8257 79.8003 60.2924C81.2895 64.6118 82.7786 68.9446 84.2946 73.2505C84.4824 73.7752 84.3885 73.9367 83.8384 73.8963C83.1408 73.856 82.4298 73.9367 81.7322 73.8829C81.5041 73.8694 81.1821 73.6272 81.0882 73.4119C80.8199 72.7795 80.6724 72.0932 80.404 71.4608C80.337 71.2859 80.0418 71.0841 79.854 71.0841C78.5124 71.0571 77.1709 71.0841 75.8293 71.0571C75.4268 71.0437 75.2793 71.2186 75.1719 71.555C74.9707 72.2143 74.756 72.8737 74.5146 73.5196C74.4475 73.681 74.2194 73.8829 74.0584 73.8829C73.1059 73.9367 72.1802 73.9098 71.1606 73.9098ZM76.1513 68.3929C77.305 68.3929 78.3246 68.3929 79.4381 68.3929C78.9015 66.7109 78.4051 65.1365 77.9087 63.5487C77.8416 63.5353 77.788 63.5218 77.7209 63.5084C77.1977 65.1096 76.6879 66.7243 76.1513 68.3929Z" fill="white"/>
<path d="M89.0302 71.3262C91.1231 71.3262 93.0952 71.3262 95.1344 71.3262C95.1344 72.2277 95.1344 73.0351 95.1344 73.9097C94.6246 73.9097 94.1416 73.9097 93.6586 73.9097C91.0426 73.9097 88.44 73.8962 85.8239 73.9097C85.2605 73.9097 85.0995 73.7482 85.0324 73.1696C84.8446 71.7971 85.6629 70.8418 86.2532 69.7922C87.7826 67.1145 89.3522 64.4637 90.895 61.7994C90.9219 61.7456 90.9353 61.6783 90.9889 61.5034C90.734 61.4764 90.506 61.4361 90.2779 61.4361C88.7619 61.4361 87.2326 61.4226 85.7166 61.4361C85.1934 61.4495 85.019 61.2746 85.0324 60.7498C85.0458 58.8256 85.0324 58.8256 86.9508 58.8256C89.3925 58.8256 91.8207 58.8391 94.2623 58.8122C94.866 58.7987 94.9599 59.014 95.027 59.5792C95.2014 61.14 94.1818 62.1762 93.5379 63.3603C92.1561 65.8362 90.7206 68.2851 89.2986 70.7341C89.2181 70.8821 89.1644 71.0301 89.0302 71.3262Z" fill="white"/>
</svg>
