<svg width="160" height="80" viewBox="0 0 160 80" fill="none" xmlns="http://www.w3.org/2000/svg">
<path d="M41.5942 45.735L46.8327 34.5125H48.1668L53.4446 45.735H50.5016L49.8149 44.2635H45.2239L44.5568 45.735H41.5942ZM46.3618 41.7914H48.6573L47.5194 39.3193L46.3618 41.7914Z" fill="white"/>
<path d="M64.4317 45.735L62.7052 42.7528H60.8805V45.735H57.9376V34.5125H62.6463C64.9222 34.5125 66.7665 36.3567 66.7665 38.6326C66.7665 39.7902 66.2956 40.8889 65.4324 41.6737L67.8064 45.735H64.4317ZM60.8805 40.2218H62.7052C63.5881 40.2611 64.3336 39.5548 64.3729 38.6719C64.4121 37.789 63.7058 37.0434 62.8229 37.0042C62.7837 37.0042 62.7444 37.0042 62.7052 37.0042H60.8805V40.2218Z" fill="white"/>
<path d="M72.2796 34.5125H79.2447V36.9453H75.2226V38.77H78.7934V41.2617H75.2226V43.3218H79.2447V45.735H72.2796V34.5125Z" fill="white"/>
<path d="M12.5762 41.7522L10.7123 45.735H8.5934L3.41376 34.5125H6.65104L9.82945 41.3794L11.968 36.7099H13.2237L15.3426 41.3794L18.5211 34.5125H21.7583L16.5787 45.735H14.4401L12.5762 41.7522Z" fill="white"/>
<path d="M26.0356 34.5125H33.0006V36.9453H28.9786V38.77H32.5298V41.2617H28.9786V43.3218H33.0006V45.735H26.0356V34.5125Z" fill="white"/>
<path d="M89.8197 39.025C92.0172 41.2028 95.5684 41.1832 97.7462 39.0054L95.6468 36.9453C95.176 37.4162 94.5285 37.6909 93.8614 37.6909C92.4096 37.7105 91.2128 36.5529 91.1931 35.1011C91.1735 33.6492 92.3311 32.4524 93.783 32.4328C94.4893 32.4131 95.1563 32.6878 95.6665 33.1587L97.4323 31.3733H89.5451C87.6223 33.5707 87.7008 36.9453 89.8197 39.025Z" fill="white"/>
<path d="M103.691 40.6535L104.358 39.182H108.949L109.636 40.6535H112.579L108.204 31.3733H105.064L100.728 40.6535H103.691ZM106.654 34.2574L107.791 36.7295H105.516L106.654 34.2574Z" fill="white"/>
<path d="M118.484 36.3373C118.955 36.3373 119.328 36.7297 119.328 37.2005C119.328 37.2202 119.328 37.2594 119.328 37.279C119.308 37.7499 118.896 38.1031 118.445 38.0834C117.994 38.0638 117.621 37.6518 117.641 37.2005H115.031C115.031 37.2202 115.031 37.2202 115.031 37.2398C115.031 39.1625 116.601 40.6929 118.524 40.6929C120.446 40.6929 121.977 39.1233 121.977 37.2005C121.977 35.2778 120.407 33.7474 118.484 33.7474C118.013 33.7474 117.641 33.3747 117.641 32.9038C117.641 32.4329 118.013 32.0601 118.484 32.0405C118.955 32.0405 119.328 32.4329 119.328 32.9038H121.937C121.937 32.3544 121.8 31.8443 121.584 31.3931H115.404C115.169 31.8443 115.051 32.3544 115.051 32.9038C115.031 34.7873 116.581 36.3373 118.484 36.3373Z" fill="white"/>
<path d="M128.451 31.3733H125.508V40.6535H128.451V31.3733Z" fill="white"/>
<path d="M135.142 40.6535V35.3561L140.439 40.6535H141.636V31.3733H138.693V34.7479L135.318 31.3733H132.199V40.6535H135.142Z" fill="white"/>
<path d="M144.441 35.0618C144.441 35.0618 144.441 35.0814 144.441 35.0618C144.441 38.1618 146.972 40.6535 150.053 40.6535C153.153 40.6535 155.644 38.1225 155.644 35.0422C155.644 33.6296 155.115 32.3543 154.251 31.3733H145.815C144.971 32.3543 144.441 33.6492 144.441 35.0618ZM150.033 32.3739C151.524 32.3739 152.701 33.5707 152.701 35.0422C152.701 36.5137 151.505 37.7105 150.013 37.7105C148.542 37.7105 147.345 36.5137 147.345 35.0226C147.365 33.5707 148.562 32.3739 150.033 32.3739Z" fill="white"/>
<path d="M97.7069 47.0889C96.6671 46.049 95.2348 45.4604 93.7633 45.4604C92.2722 45.4604 90.84 46.049 89.7805 47.1085C89.4273 47.4617 89.133 47.8737 88.878 48.2857H96.5297L97.7069 47.0889Z" fill="white"/>
<path d="M105.967 45.4604L104.652 48.2857H108.635L107.301 45.4604H105.967Z" fill="white"/>
<path d="M118.504 45.4604C116.817 45.4604 115.404 46.6769 115.11 48.2857H117.896C118.053 48.1288 118.249 48.0503 118.484 48.0307C118.72 48.0307 118.916 48.1288 119.073 48.2857H121.879C121.584 46.6769 120.191 45.4604 118.504 45.4604Z" fill="white"/>
<path d="M128.451 45.4604H125.508V48.2857H128.451V45.4604Z" fill="white"/>
<path d="M141.636 45.4604H138.693V48.2857H141.636V45.4604Z" fill="white"/>
<path d="M132.199 45.4604V48.2857H136.24L133.395 45.4604H132.199Z" fill="white"/>
<path d="M150.033 45.4604C147.953 45.4801 146.148 46.618 145.187 48.2857H154.918C153.957 46.5984 152.132 45.4604 150.033 45.4604Z" fill="white"/>
<path d="M0 30V49.6591H160V30H0ZM82.8939 48.2857H1.37339V31.3734H82.8939V48.2857ZM158.627 48.2857H84.2673V43.3023H158.627V48.2857ZM158.627 42.8903H84.2673V31.3734H158.627V42.8903Z" fill="white"/>
</svg>
