<svg width="160" height="80" viewBox="0 0 160 80" fill="none" xmlns="http://www.w3.org/2000/svg">
<path d="M30.8398 54.3042L28.9256 60.7453L28.8625 60.9753C28.6942 61.5609 28.5259 62.1464 28.3786 62.711C28.2314 62.0628 28.0631 61.4145 27.8948 60.7871L26.1489 54.3042H23.4773L21.5631 60.7244C21.3528 61.4145 21.1424 62.1046 20.9531 62.7947C20.7848 62.1255 20.6165 61.4563 20.4272 60.7662L18.7233 54.3042H15.7362L19.4595 67.2909H22.1311L24.1715 60.6825C24.3608 60.0761 24.5291 59.5323 24.6764 59.0095C24.8026 59.5323 24.9498 60.097 25.1181 60.6616L26.9272 67.2909H29.5987L33.7638 54.3042H30.8398Z" fill="white"/>
<path d="M40.2848 54.116C36.2459 54.116 33.4272 56.9182 33.4272 60.9125C33.4272 64.7814 36.1618 67.5 40.0955 67.5C44.1974 67.5 46.9531 64.7605 46.9531 60.6825C46.932 56.7509 44.2605 54.116 40.2848 54.116ZM40.1796 65.2833C38.3495 65.2833 36.3722 63.903 36.3722 60.8707C36.3722 58.6122 37.5502 56.3327 40.2006 56.3327C42.8091 56.3327 44.0081 58.6331 44.0081 60.7452C44.0081 63.0038 42.8301 65.2833 40.1796 65.2833Z" fill="white"/>
<path d="M57.0291 63.4221C56.7557 62.3764 56.2929 61.6027 55.6197 61.1217C56.8819 60.4525 57.6181 59.3232 57.6181 57.9848C57.6181 56.9183 57.1764 55.9772 56.377 55.3498C55.4304 54.5761 54.1052 54.2415 52.0857 54.2415C50.8026 54.2415 49.4984 54.346 48.5938 54.4924L48.1731 54.5761V67.3118H50.9709V62.1046H52.0647C53.5582 62.1464 53.979 62.7738 54.2945 64.0704C54.7573 65.8688 55.0307 66.7262 55.2621 67.0818L55.4094 67.3118H58.4385L58.0178 66.6217C57.7654 66.1825 57.4288 64.9069 57.0291 63.4221ZM52.233 59.9506H50.9709V56.4164C51.2654 56.3745 51.665 56.3536 52.1699 56.3536C53.8948 56.3745 54.7783 56.9601 54.7783 58.1312C54.7783 59.2605 53.8107 59.9506 52.233 59.9506Z" fill="white"/>
<path d="M61.8463 54.3042H59.0275V67.3118H67.6731V65.0532H61.8463V54.3042Z" fill="white"/>
<path d="M78.7168 55.8518C77.3916 54.7643 75.4563 54.2206 72.8269 54.2206C71.5647 54.2206 70.2816 54.3042 68.9984 54.4715L68.5356 54.5343V67.2073L69.0194 67.2491C69.987 67.3537 71.0809 67.3955 72.2799 67.3955C75.0777 67.3955 77.2864 66.7472 78.6747 65.5343C80.0631 64.3213 80.7993 62.5856 80.7993 60.5153C80.7993 58.5495 80.1052 56.981 78.7168 55.8518ZM72.6375 65.2206C72.2799 65.2206 71.7961 65.2206 71.3964 65.1788V56.4791C71.754 56.4373 72.2589 56.3955 72.932 56.3955C74.6149 56.3955 75.877 56.7719 76.7395 57.5248C77.5388 58.2358 77.9385 59.2605 77.9175 60.5571C77.8964 63.6103 76.0663 65.2206 72.6375 65.2206Z" fill="white"/>
<path d="M92.6214 54.3042L90.055 60.4525C89.6764 61.4145 89.3608 62.251 89.1084 62.9829C88.856 62.251 88.5615 61.4145 88.2039 60.4525L85.7638 54.3042H82.6505L81.6197 67.2909H84.3754L84.7751 61.6863C84.8382 60.8917 84.8803 60.0761 84.9223 59.2814C85.1327 59.8669 85.3641 60.4734 85.6165 61.1635L87.9515 67.2282H90.034L92.5583 61.0799C92.8528 60.3688 93.1262 59.6996 93.3576 59.0723C93.3997 59.9297 93.4418 60.808 93.5049 61.5818L93.8835 67.3118H96.6812L95.7557 54.3251H92.6214V54.3042Z" fill="white"/>
<path d="M101.814 54.3042L96.8285 67.2909H99.7735L101.183 63.5057H105.243L106.694 67.2909H109.702L104.696 54.3042H101.814ZM101.898 61.3517L102.992 58.4867C103.055 58.2985 103.118 58.1103 103.181 57.9012C103.244 58.0894 103.328 58.2985 103.392 58.5076L104.485 61.3517H101.898Z" fill="white"/>
<path d="M118.474 54.3042H107.304V56.5837H111.448V67.3118H114.309V56.5837H118.474V54.3042Z" fill="white"/>
<path d="M125.269 56.3746C126.531 56.3746 127.393 56.6674 127.793 56.8347L128.361 57.0856L129.097 54.9107L128.697 54.7225C128.319 54.5552 127.204 54.137 125.227 54.137C120.725 54.137 117.57 56.9392 117.57 60.9335C117.57 64.9278 120.43 67.5001 124.827 67.5001C126.615 67.5001 127.982 67.1864 128.655 66.8727L129.034 66.7054L128.403 64.5514L127.814 64.8024C127.162 65.0742 126.152 65.2624 125.184 65.2624C122.239 65.2624 120.494 63.6313 120.494 60.8917C120.494 58.0476 122.282 56.3746 125.269 56.3746Z" fill="white"/>
<path d="M138.437 59.3441H132.926V54.3042H130.086V67.3118H132.926V61.6654H138.437V67.3118H141.277V54.3042H138.437V59.3441Z" fill="white"/>
<path d="M31.555 48.7414H32.2913L43.8819 33.8099V48.7414H60.4369L88.5825 12.5H72.0275L60.4369 27.4316V12.5H43.8819L31.555 28.3935V12.5H15V48.7414H15.7362H31.555Z" fill="white"/>
<path d="M85.1117 48.7414L96.8074 33.6635V48.7414H113.362L124.743 34.1027V48.7414H129.076L141.277 33.2662V12.7928L141.508 12.5H141.277H124.953H124.743V12.7928L113.362 27.4316V12.5H113.257H96.8074H96.7023L68.5566 48.7414H85.1117Z" fill="white"/>
<path d="M133.01 48.7414H145V32.9943L133.01 48.7414Z" fill="#E32923"/>
</svg>
