<svg width="160" height="80" viewBox="0 0 160 80" fill="none" xmlns="http://www.w3.org/2000/svg">
<path d="M146.117 32.3318H148.963V42.7124H155V45.3076H146.117V32.3318ZM140.899 45.3075H143.745V32.3317H140.899V45.3075ZM128.508 43.3312C130.061 44.7213 132.038 45.4074 133.997 45.4074C136.788 45.4074 138.747 43.9613 138.747 41.3846V41.3477C138.747 39.0862 137.269 38.1409 134.644 37.4548C132.408 36.8801 131.853 36.6019 131.853 35.7494V35.7121C131.853 35.082 132.426 34.5815 133.517 34.5815C134.607 34.5815 135.735 35.0634 136.881 35.8605L138.359 33.7102C137.047 32.6535 135.439 32.0605 133.554 32.0605C130.911 32.0605 129.025 33.6175 129.025 35.9718V36.0087C129.025 38.5856 130.707 39.3086 133.313 39.976C135.476 40.5319 135.919 40.9027 135.919 41.6256V41.6627C135.919 42.4227 135.217 42.8864 134.053 42.8864C132.574 42.8864 131.354 42.2743 130.19 41.3106L128.508 43.3312ZM127.926 45.354L122.381 32.2854H119.757L114.212 45.354H117.114L121.032 35.7148L122.734 39.9013H120.449L119.438 42.4117H123.754L124.95 45.354H127.926ZM93.8683 32.3319C97.9346 32.3319 100.744 35.1308 100.744 38.7828V38.8199C100.744 42.4715 97.9346 45.3077 93.8683 45.3077H89.4217V32.3319H93.8683ZM97.7681 38.8199C97.7681 36.5211 96.1967 34.9084 93.8683 34.9084H92.268V42.731H93.8683C96.1967 42.731 97.7681 41.1553 97.7681 38.8568V38.8199ZM83.0665 38.5521V40.7846H84.4079V42.1565C83.6871 42.6759 82.763 42.935 81.7276 42.935C79.4362 42.935 77.8098 41.1925 77.8098 38.8199V38.7826C77.8098 36.5767 79.4544 34.7416 81.5247 34.7416C83.0217 34.7416 83.9089 35.2235 84.907 36.0577L86.6999 33.8889C85.3507 32.7396 83.9458 32.1093 81.6169 32.1093C77.6987 32.1093 74.834 35.1308 74.834 38.8199V38.8568C74.834 42.6939 77.6065 45.5301 81.6354 45.5301C84.0012 45.5301 85.831 44.6032 87.1616 43.4726V38.5521H83.0665ZM68.8544 38.5521V40.7846H70.1958V42.1565C69.475 42.6759 68.5508 42.935 67.5159 42.935C65.2241 42.935 63.5977 41.1925 63.5977 38.8199V38.7826C63.5977 36.5767 65.2425 34.7416 67.3127 34.7416C68.8095 34.7416 69.6967 35.2235 70.6948 36.0577L72.4878 33.8889C71.1383 32.7396 69.7337 32.1093 67.4049 32.1093C63.4865 32.1093 60.6219 35.1308 60.6219 38.8199V38.8568C60.6219 42.6939 63.3943 45.5301 67.4235 45.5301C69.7891 45.5301 71.6188 44.6032 72.9497 43.4726V38.5521H68.8544ZM53.1132 45.3077H55.9597V41.122L60.9314 32.3317H57.697L54.5551 38.1051L51.4682 32.3317H48.1413L53.1132 41.1778V45.3077ZM110.167 40.6736C111.812 40.0617 112.939 38.7456 112.939 36.651V36.6139C112.939 35.3904 112.551 34.3708 111.83 33.6479C110.98 32.7952 109.705 32.3318 108.06 32.3318H102.573V45.3076H105.419V34.9083H107.82C109.206 34.9083 110.056 35.5388 110.056 36.7621V36.7992C110.056 37.8927 109.261 38.6343 107.875 38.6343H106.472V41.1553H107.228L110 45.3076H113.327L110.167 40.6736Z" fill="white"/>
<path d="M41.2739 41.0543C41.1859 42.4838 40.9281 43.9112 40.4942 45.3052C33.6386 44.8953 27.5066 41.8031 23.1361 37.0653C18.7666 41.8021 12.6363 44.894 5.78244 45.305C5.35414 43.9244 5.09125 42.4967 5 41.0542C7.29844 40.9718 9.50468 40.528 11.5633 39.7777C9.7395 38.2664 7.62489 37.093 5.31579 36.3534C5.59339 34.9674 6.03673 33.6004 6.65138 32.2818C10.0901 33.3874 13.1768 35.2768 15.7003 37.7393C17.233 36.7659 18.6335 35.6034 19.8688 34.2847C15.6378 33.5508 11.8881 31.4164 9.11551 28.3772C10.0441 27.2498 11.0863 26.26 12.2139 25.4131C13.8443 27.2269 15.921 28.6323 18.2716 29.4569C17.4319 27.4247 16.8458 25.2612 16.5526 23.006C17.9042 22.4827 19.3123 22.1229 20.7448 21.9325C21.0391 24.7256 21.8713 27.3587 23.1361 29.7264C24.4016 27.3576 25.2339 24.7233 25.5279 21.9287C26.9467 22.1157 28.3543 22.4722 29.72 23.0037C29.4269 25.2597 28.8406 27.424 28.0007 29.4569C30.3498 28.6329 32.4253 27.2286 34.0553 25.4166C35.2265 26.2947 36.263 27.2898 37.1594 28.3744C34.3865 31.415 30.6358 33.5506 26.4035 34.2847C27.6388 35.6034 29.0393 36.7659 30.572 37.7393C33.0956 35.2768 36.1823 33.3874 39.6211 32.2818C40.2256 33.586 40.6711 34.9542 40.9521 36.3549C38.6447 37.0945 36.5316 38.2673 34.709 39.7777C36.7681 40.5282 38.9749 40.972 41.2739 41.0543ZM25.2805 57.9429V51.8525L31.4411 43.8313C30.1173 43.2503 28.836 42.557 27.6227 41.7652L23.1361 47.6069L18.6496 41.7652C17.4363 42.557 16.155 43.2503 14.8312 43.8313L20.9918 51.8525V57.9467C22.4223 58.1152 23.8623 58.1118 25.2805 57.9429Z" fill="#FA6432"/>
</svg>
