<svg width="160" height="80" viewBox="0 0 160 80" fill="none" xmlns="http://www.w3.org/2000/svg">
<path d="M28.2681 61.9616C28.4679 61.9119 28.5678 61.7129 28.5178 61.514C28.4679 61.3647 28.4679 61.2652 28.4679 61.116C28.4679 60.917 28.4679 60.7678 28.5178 60.6186C28.5678 60.4693 28.4679 60.2704 28.3181 60.2206C26.4205 59.3252 25.322 57.6339 25.322 55.7437C25.322 54.3508 25.8713 53.1073 26.9199 52.1124C28.0185 51.1175 29.4666 50.5703 31.2643 50.5703C32.5127 50.5703 33.6612 50.8688 34.6099 51.416C34.6599 51.4657 34.7598 51.4657 34.8596 51.4657L38.5548 50.7195C38.7546 50.6698 38.9543 50.819 38.9543 51.0678L39.0542 53.9529C39.0542 54.1021 38.9543 54.2514 38.7546 54.3011L37.3564 54.5498C37.1566 54.5996 37.0568 54.7488 37.0568 54.9478C37.1067 55.2462 37.1567 55.4949 37.1567 55.7437C37.1567 57.0868 36.6573 58.2309 35.6087 59.2257C34.6599 60.1211 33.4614 60.6683 31.9134 60.7678C31.7137 60.7678 31.6138 60.917 31.6138 61.116C31.6138 61.1658 31.6138 61.2652 31.6138 61.3647C31.6638 61.514 31.7636 61.6632 31.9634 61.6632C33.811 61.7627 35.309 62.1606 36.5075 62.857C37.7559 63.6032 38.3551 64.6976 38.3551 66.1401C38.3551 67.5827 37.7059 68.7268 36.3577 69.473C35.0094 70.2191 33.3116 70.6171 31.2143 70.6171C29.0671 70.6171 27.3693 70.2689 26.0211 69.5227C24.7227 68.7766 24.0236 67.6822 24.0236 66.1401C24.1734 64.0011 25.7214 62.6083 28.2681 61.9616ZM31.3641 67.0355C33.3616 67.0355 34.3603 66.7371 34.3603 66.1401C34.3603 65.4935 33.3616 65.195 31.3641 65.195C29.3667 65.195 28.368 65.4935 28.368 66.1401C28.368 66.7371 29.3667 67.0355 31.3641 67.0355ZM33.0619 55.7437C33.0619 54.7985 32.4627 54.1519 31.3142 54.1519C29.0172 54.0524 28.9173 57.435 31.3142 57.1862C32.3629 57.236 33.0619 56.6888 33.0619 55.7437Z" fill="#5B5B5B"/>
<path d="M41.3512 52.1621C41.3013 52.0129 41.3512 51.8139 41.501 51.7642C42.6995 51.1175 44.597 50.5703 46.2449 50.5703C50.2397 50.5703 51.8376 52.4606 51.8376 56.2909V64.0509C51.8376 64.2499 51.6878 64.3991 51.4881 64.3991H48.2922C48.0925 64.3991 47.9427 64.2499 47.9427 64.0509C47.9427 63.7524 47.5931 63.6032 47.3934 63.8022C46.6943 64.3494 45.6956 64.5981 44.3973 64.5981C41.8506 64.5981 40.1528 63.0063 40.1528 60.3699C40.1528 57.4847 42.1502 55.8929 44.9965 55.8929C45.8454 55.8929 46.5445 56.0421 47.1437 56.2909C47.3934 56.3903 47.693 56.2411 47.6431 55.9426C47.5432 54.8483 46.894 54.3011 45.7955 54.3011C44.9965 54.3011 43.9478 54.5498 42.6995 54.9975C42.4997 55.0473 42.3 54.9478 42.25 54.7985L41.3512 52.1621ZM47.693 60.0216V59.5242C47.693 59.375 47.6431 59.2755 47.5432 59.2257C47.1437 58.977 46.6444 58.8775 45.9952 58.8775C45.2462 58.8775 44.6969 59.2755 44.6969 59.8724C44.6969 60.4693 45.2462 60.8175 45.9952 60.8175C46.7442 60.8175 47.2935 60.6186 47.5931 60.2206C47.693 60.2206 47.693 60.1211 47.693 60.0216Z" fill="#5B5B5B"/>
<path d="M75.507 64.3992H71.7119C71.5121 64.3992 71.3623 64.2499 71.3623 64.051V56.7884C71.3623 55.4951 70.813 54.8981 69.6645 54.8981C68.7657 54.8981 68.0167 55.3458 67.6671 55.9925C67.6172 56.0422 67.6172 56.092 67.6172 56.1417V64.051C67.6172 64.2499 67.4674 64.3992 67.2676 64.3992H63.4725C63.2728 64.3992 63.123 64.2499 63.123 64.051V56.7884C63.123 55.5448 62.5737 54.8981 61.5251 54.8981C60.6262 54.8981 59.9771 55.2463 59.4777 55.893C59.4278 55.9428 59.4278 56.0422 59.4278 56.092V64.051C59.4278 64.2499 59.278 64.3992 59.0782 64.3992H55.2832C55.0834 64.3992 54.9336 64.2499 54.9336 64.051V51.2668C54.9336 51.0679 55.0834 50.9186 55.2832 50.9186H59.0782C59.278 50.9186 59.4278 51.0679 59.4278 51.2668V51.4161C59.4278 51.7145 59.7274 51.8638 59.9771 51.7145C60.8759 51.0181 62.0744 50.6699 63.4226 50.6699C65.1204 50.6699 66.4187 51.2668 67.018 52.212C67.1678 52.4109 67.4174 52.4109 67.5672 52.2617C68.6159 51.1673 69.9641 50.6699 71.612 50.6699C74.4583 50.6699 75.8565 52.3115 75.8565 55.5945V64.051C75.8565 64.2499 75.7067 64.3992 75.507 64.3992Z" fill="#5B5B5B"/>
<path d="M90.6374 63.0063C90.6874 63.1555 90.6374 63.3047 90.4876 63.4042C89.1893 64.2996 87.4915 64.7473 85.4441 64.7473C83.197 64.7473 81.4493 64.1006 80.101 62.8073C78.8027 61.514 78.1036 59.7729 78.1036 57.6837C78.1036 55.6939 78.7528 53.9529 80.101 52.6098C81.4493 51.2667 83.247 50.5703 85.3942 50.5703C87.1919 50.5703 88.7399 51.1672 90.0382 52.3611C91.3365 53.5052 91.9357 55.0473 91.9357 56.8878C91.9357 57.6339 91.8858 58.3304 91.736 58.8775C91.6861 59.0268 91.5363 59.1263 91.3864 59.1263H83.247C82.9973 59.1263 82.7975 59.4247 82.9474 59.6237C83.4467 60.5191 84.4454 60.9668 85.8935 60.9668C87.092 60.9668 88.1407 60.7181 89.0894 60.2206C89.2892 60.1211 89.4889 60.2206 89.5888 60.4196L90.6374 63.0063ZM83.197 56.1914H87.1419C87.3916 56.1914 87.5414 55.9924 87.4915 55.7437C87.2917 54.9478 86.4928 54.3011 85.3443 54.3011C84.1958 54.3011 83.3968 54.7488 82.8974 55.6442C82.7476 55.8929 82.8974 56.1914 83.197 56.1914Z" fill="#5B5B5B"/>
<path d="M98.4772 59.2755C96.4798 58.8278 93.8332 57.8827 93.8332 54.9478C93.8332 52.1621 96.0803 50.5703 99.1264 50.5703C101.373 50.5703 103.171 51.1175 104.569 52.2119C104.719 52.3113 104.719 52.5103 104.669 52.6596L103.321 55.2462C103.221 55.4452 103.021 55.495 102.822 55.3955C101.673 54.6991 100.575 54.3508 99.426 54.3508C98.7768 54.3508 98.3773 54.5996 98.3773 54.9478C98.3773 56.3406 105.518 55.4452 105.518 60.2206C105.518 62.9565 103.271 64.7473 99.6757 64.7473C98.3773 64.7473 97.079 64.4986 95.8806 63.9514C94.8319 63.454 94.1328 63.0063 93.6834 62.5088C93.5835 62.4094 93.5835 62.2104 93.6834 62.0611L95.4312 59.6237C95.531 59.4745 95.7807 59.4247 95.9305 59.574C96.33 59.9222 96.9292 60.2206 97.6283 60.5191C98.5271 60.8673 99.3261 61.0165 99.9753 61.0165C100.674 61.0165 100.974 60.8175 100.974 60.4196C100.974 59.9222 99.8754 59.6237 98.4772 59.2755Z" fill="#5B5B5B"/>
<path d="M27.6597 22.1152L27.5104 23.2811C27.3114 24.8018 28.4558 26.1198 29.9486 26.1198H44.6271L27.6099 31.8479C26.7143 32.1521 26.1172 32.9124 25.9679 33.8249L25.2713 38.4378L25.0225 40.1106C24.8235 41.6313 25.9679 42.9493 27.4607 42.9493H43.6319C44.8261 42.9493 45.871 42.0369 46.0701 40.8203L46.2193 39.6544C46.4184 38.1336 45.2739 36.8157 43.7812 36.8157H30.0481L46.0203 31.4424C46.9159 31.1382 47.513 30.3779 47.6623 29.4654L48.3589 24.8525L48.6575 22.8249C48.8565 21.3041 47.7121 19.9862 46.2193 19.9862H30.0481C28.8539 19.9862 27.809 20.8479 27.6597 22.1152ZM51.5434 22.1152L48.9063 40.1613C48.7072 41.682 49.8517 43 51.3444 43H52.4391C53.6332 43 54.6782 42.0876 54.8772 40.871L57.5143 22.8249C57.7134 21.3041 56.5689 19.9862 55.0762 19.9862H53.9815C52.7874 19.9862 51.7424 20.8479 51.5434 22.1152ZM56.1709 12.5853H55.0762C53.882 12.5853 52.8371 13.4977 52.6381 14.7143C52.4391 16.235 53.5835 17.553 55.0762 17.553H56.1709C57.3651 17.553 58.41 16.6406 58.609 15.424C58.8081 13.9539 57.6636 12.5853 56.1709 12.5853ZM82.0947 12.5853H81C79.8058 12.5853 78.7609 13.4977 78.5619 14.7143C78.3629 16.235 79.5073 17.553 81 17.553H82.0947C83.2889 17.553 84.3338 16.6406 84.5328 15.424C84.7318 13.9539 83.5874 12.5853 82.0947 12.5853ZM77.2682 43H78.3628C79.557 43 80.602 42.0876 80.801 40.871L83.4381 22.8249C83.6372 21.3041 82.4927 19.9862 81 19.9862H79.9053C78.7111 19.9862 77.6662 20.8986 77.4672 22.1152L74.8301 40.1613C74.631 41.6313 75.7754 43 77.2682 43ZM87.0207 22.1152L84.3835 40.1613C84.1845 41.682 85.3289 43 86.8217 43H104.535C105.73 43 106.775 42.0876 106.974 40.871L109.611 22.8249C109.81 21.3041 108.665 19.9862 107.173 19.9862H89.4588C88.2646 19.9862 87.2197 20.8479 87.0207 22.1152ZM101.301 36.8664H91.2003C91.0511 36.8664 90.9018 36.7143 90.9516 36.5622L92.4443 26.3733C92.4443 26.2212 92.5936 26.1198 92.6931 26.1198H102.794C102.943 26.1198 103.092 26.2719 103.043 26.424L101.55 36.6129C101.55 36.765 101.401 36.8664 101.301 36.8664ZM61.694 12.129L57.5641 40.1106C57.3651 41.6313 58.5095 42.9493 60.0022 42.9493H61.0969C62.2911 42.9493 63.336 42.0369 63.535 40.8203L67.6649 12.8387C67.864 11.318 66.7195 10 65.2268 10H64.1321C62.8882 10 61.893 10.9124 61.694 12.129ZM70.2026 12.129L66.0727 40.1106C65.8737 41.6313 67.0181 42.9493 68.5108 42.9493H69.6055C70.7997 42.9493 71.8446 42.0369 72.0436 40.8203L76.1735 12.8387C76.3725 11.318 75.2281 10 73.7354 10H72.6407C71.3968 10 70.4016 10.9124 70.2026 12.129ZM130.559 21.9631L128.021 39.0461L124.687 21.8617C124.439 20.6958 123.443 19.8341 122.299 19.8341H115.184C113.989 19.8341 112.944 20.7465 112.745 21.9631L110.059 40.1106C109.859 41.6313 111.004 42.9493 112.497 42.9493H114.039C115.233 42.9493 116.278 42.0369 116.477 40.8203L118.816 24.8018L121.951 40.9217C122.199 42.0876 123.195 42.9493 124.339 42.9493H131.852C133.047 42.9493 134.092 42.0369 134.291 40.8203L136.977 22.6728C137.176 21.1521 136.032 19.8341 134.539 19.8341H132.997C131.753 19.8341 130.758 20.7465 130.559 21.9631Z" fill="#EF7D0F"/>
</svg>
